<svg id="Artwork" xmlns="http://www.w3.org/2000/svg" width="24px" height="24px" viewBox="0 0 24 24"><path d="M6,7.85v3.78a6.3,6.3,0,0,0,0,.75A7.58,7.58,0,0,0,8.4,17a7.34,7.34,0,0,0,3.43,1.86l.17,0V15.12a3.12,3.12,0,0,1,0-6.24V5.06Z" style="fill:#aecbfa"/><path d="M20.22,11.22a.78.78,0,0,1,0,1.56.78.78,0,0,1,0-1.56m0-.75A1.53,1.53,0,1,0,21.75,12a1.53,1.53,0,0,0-1.53-1.53Z" style="fill:#aecbfa"/><path d="M12,5.06V8.88a3.12,3.12,0,0,1,0,6.24v3.76l.17,0A7.34,7.34,0,0,0,15.6,17a7.58,7.58,0,0,0,2.34-4.6,6.3,6.3,0,0,0,0-.75V7.85Z" style="fill:#4285f4"/><path d="M20.22,4.71a.78.78,0,1,1,0,1.56.78.78,0,0,1,0-1.56m0-.75a1.53,1.53,0,1,0,1.53,1.53A1.52,1.52,0,0,0,20.22,4Z" style="fill:#4285f4"/><path d="M3.78,17.73a.78.78,0,0,1,0,1.56.78.78,0,1,1,0-1.56m0-.75A1.53,1.53,0,1,0,5.3,18.51,1.53,1.53,0,0,0,3.78,17Z" style="fill:#4285f4"/><path d="M3.78,11.22a.78.78,0,0,1,0,1.56.78.78,0,0,1,0-1.56m0-.75A1.53,1.53,0,1,0,5.3,12a1.53,1.53,0,0,0-1.52-1.53Z" style="fill:#aecbfa"/><path d="M18.75,11.63H18a6.3,6.3,0,0,1,0,.75h.81A1.65,1.65,0,0,1,18.7,12,1.5,1.5,0,0,1,18.75,11.63Z" style="fill:#669df6"/><path d="M5.25,12.38h.81a6.3,6.3,0,0,1,0-.75H5.25a1.5,1.5,0,0,1,0,.37A1.65,1.65,0,0,1,5.25,12.38Z" style="fill:#669df6"/><path d="M6.87,5.11H5.25a1.58,1.58,0,0,1,0,.38,1.5,1.5,0,0,1,0,.37h1.4l1.5,1L9,6.48Z" style="fill:#669df6"/><path d="M18.75,5.11H17.13L15.05,6.48l.8.38,1.5-1h1.4a1.5,1.5,0,0,1-.05-.37A1.58,1.58,0,0,1,18.75,5.11Z" style="fill:#669df6"/><path d="M9,17.49A7.19,7.19,0,0,1,8.4,17L6.65,18.14H5.25a1.5,1.5,0,0,1,0,.37,1.58,1.58,0,0,1,0,.38H6.87Z" style="fill:#669df6"/><path d="M18.75,18.14h-1.4L15.6,17a7.19,7.19,0,0,1-.59.51l2.12,1.4h1.62a1.58,1.58,0,0,1-.05-.38A1.5,1.5,0,0,1,18.75,18.14Z" style="fill:#669df6"/><path d="M12,10.38A1.62,1.62,0,1,0,13.62,12,1.63,1.63,0,0,0,12,10.38Z" style="fill:#669df6"/><path d="M20.22,17.73a.78.78,0,1,1,0,1.56.78.78,0,0,1,0-1.56m0-.75a1.53,1.53,0,1,0,1.53,1.53A1.53,1.53,0,0,0,20.22,17Z" style="fill:#669df6"/><path d="M3.78,4.71a.78.78,0,0,1,0,1.56.78.78,0,0,1,0-1.56m0-.75A1.53,1.53,0,1,0,5.3,5.49,1.52,1.52,0,0,0,3.78,4Z" style="fill:#669df6"/></svg>