<?xml version="1.0" encoding="UTF-8"?>
<svg width="80px" height="80px" viewBox="0 0 80 80" version="1.1" xmlns="http://www.w3.org/2000/svg" xmlns:xlink="http://www.w3.org/1999/xlink">
    <!-- Generator: Sketch 64 (93537) - https://sketch.com -->
    <title>Icon-Architecture/64/Arch_Amazon-RDS-for-VMware_64</title>
    <desc>Created with Sketch.</desc>
    <defs>
        <linearGradient x1="0%" y1="100%" x2="100%" y2="0%" id="linearGradient-1">
            <stop stop-color="#2E27AD" offset="0%"></stop>
            <stop stop-color="#527FFF" offset="100%"></stop>
        </linearGradient>
    </defs>
    <g id="Icon-Architecture/64/Arch_Amazon-RDS-for-VMware_64" stroke="none" stroke-width="1" fill="none" fill-rule="evenodd">
        <g id="Icon-Architecture-BG/64/Database" fill="url(#linearGradient-1)">
            <rect id="Rectangle" x="0" y="0" width="80" height="80"></rect>
        </g>
        <path d="M60.9638139,57 L62.9741528,57 L62.9741528,54 L60.9638139,54 L60.9638139,57 Z M57.9483056,57 L59.9586445,57 L59.9586445,54 L57.9483056,54 L57.9483056,57 Z M54.9327972,57 L56.9431361,57 L56.9431361,54 L54.9327972,54 L54.9327972,57 Z M65.9896611,65 L41.8655945,65 L41.8655945,58.414 L46.0139288,54.287 L51.3594199,57.832 C51.6670017,58.038 52.0640437,58.056 52.3917289,57.882 C52.718409,57.708 52.9224584,57.369 52.9224584,57 L52.9224584,52 L65.9896611,52 L65.9896611,65 Z M66.9948306,50 L51.9172889,50 C51.3614302,50 50.9121195,50.448 50.9121195,51 L50.9121195,55.131 L46.4441413,52.168 C46.0470994,51.904 45.5153647,51.956 45.1756175,52.293 L40.1497702,57.293 C39.9607984,57.48 39.8552556,57.735 39.8552556,58 L39.8552556,66 C39.8552556,66.552 40.3045663,67 40.860425,67 L66.9948306,67 C67.5506893,67 68,66.552 68,66 L68,51 C68,50.448 67.5506893,50 66.9948306,50 L66.9948306,50 Z M14.7260195,23 L12.7156806,23 L12.7156806,14 C12.7156806,13.448 13.1649914,13 13.7208501,13 L22.7673751,13 L22.7673751,15 L16.1473291,15 L23.4780299,22.293 L22.0567203,23.707 L14.7260195,16.414 L14.7260195,23 Z M24.4831993,52.707 L17.1524986,60 L23.7725445,60 L23.7725445,62 L14.7260195,62 C14.1701608,62 13.7208501,61.552 13.7208501,61 L13.7208501,52 L15.731189,52 L15.731189,58.586 L23.0618897,51.293 L24.4831993,52.707 Z M51.2066341,22.293 L58.5373349,15 L51.9172889,15 L51.9172889,13 L60.9638139,13 C61.5196726,13 61.9689833,13.448 61.9689833,14 L61.9689833,23 L59.9586445,23 L59.9586445,16.414 L52.6279437,23.707 L51.2066341,22.293 Z M60.2873349,37.049 C60.2873349,34.306 57.0637565,31.583 51.6649914,29.765 L52.309305,27.871 C58.65695,30.008 62.2976738,33.353 62.2976738,37.049 C62.2976738,40.745 58.65695,44.09 52.309305,46.228 L51.6649914,44.333 C57.0637565,42.516 60.2873349,39.792 60.2873349,37.049 L60.2873349,37.049 Z M12,37.049 C12,33.491 15.4246123,30.222 21.3973291,28.079 L22.0778288,29.96 C17.0268524,31.773 14.0103389,34.423 14.0103389,37.049 C14.0103389,39.674 17.0268524,42.324 22.078834,44.138 L21.396324,46.019 C15.4246123,43.875 12,40.606 12,37.049 L12,37.049 Z M37.342332,48 C31.4610856,48 28.7983917,46.466 28.7983917,46 L28.7983917,43.53 C30.9022114,44.581 34.3207926,45 37.4167145,45 C40.4543366,45 43.8095922,44.585 45.8862723,43.546 L45.8862723,46 C45.8862723,46.466 43.2225732,48 37.342332,48 L37.342332,48 Z M28.7983917,37.53 C30.9022114,38.581 34.3207926,39 37.4167145,39 C40.4543366,39 43.8095922,38.585 45.8862723,37.546 L45.8862723,41 C45.8862723,41.551 43.2818782,43 37.4167145,43 C31.3917289,43 28.7983917,41.482 28.7983917,41 L28.7983917,37.53 Z M28.7983917,31.479 C30.8489374,32.512 34.1710224,33 37.342332,33 C40.5136416,33 43.8357266,32.512 45.8862723,31.479 L45.8862723,35 C45.8862723,35.551 43.2818782,37 37.4167145,37 C31.3917289,37 28.7983917,35.482 28.7983917,35 L28.7983917,31.479 Z M37.342332,27 C42.7250144,27 45.7626364,28.398 45.8852671,29 C45.7626364,29.602 42.7250144,31 37.342332,31 C31.9465824,31 28.90695,29.595 28.7983917,29.004 C28.90695,28.405 31.9465824,27 37.342332,27 L37.342332,27 Z M47.8966111,46 L47.8966111,29 C47.8966111,26.252 42.4244687,25 37.342332,25 C32.2591901,25 26.7880528,26.252 26.7880528,29 L26.7880528,46 C26.7880528,48.763 32.0883113,50 37.342332,50 C42.5953475,50 47.8966111,48.763 47.8966111,46 L47.8966111,46 Z" id="Amazon-RDS-for-VMware-Icon_64_Squid" fill="#FFFFFF"></path>
    </g>
</svg>