<svg xmlns="http://www.w3.org/2000/svg" width="24px" height="24px" viewBox="0 0 24 24"><defs><style>.cls-1,.cls-2{fill:#4285f4;}.cls-2,.cls-3{fill-rule:evenodd;}.cls-3{fill:#aecbfa;}</style></defs><title>Icon_24px_Datapol_Color</title><g data-name="Product Icons"><g ><rect id="Rectangle-13-Copy-3" class="cls-1" x="9.65" y="3.87" width="8.29" height="1.87"/><rect id="Rectangle-13" class="cls-1" x="4.55" y="11.35" width="8.29" height="1.87"/><rect id="Rectangle-13-Copy-2" class="cls-1" x="9.65" y="18.21" width="8.29" height="1.87"/><polygon id="Rectangle-13-Copy" class="cls-2" points="6.57 13.38 9.82 18.89 8.16 19.82 4.91 14.31 6.57 13.38"/><polygon class="cls-2" points="6.8 10.91 10.05 5.4 8.44 4.49 5.19 10 6.8 10.91"/><polygon id="Combined-Shape-path-Copy" class="cls-3" points="7.48 7.66 5.82 4.85 7.48 2 10.79 2 12.44 4.85 10.79 7.66 7.48 7.66"/><polygon id="Combined-Shape-path-Copy-5" class="cls-3" points="13.21 15.14 11.56 12.34 13.21 9.48 16.52 9.48 18.18 12.34 16.52 15.14 13.21 15.14"/><polygon id="Combined-Shape-path" class="cls-3" points="3.65 15.14 2 12.34 3.65 9.48 6.96 9.48 8.61 12.34 6.96 15.14 3.65 15.14"/><polygon id="Combined-Shape-path-Copy-2" class="cls-3" points="17.04 7.66 15.39 4.85 17.04 2 20.35 2 22 4.85 20.35 7.66 17.04 7.66"/><polygon id="Combined-Shape-path-Copy-3" class="cls-3" points="17.04 22 15.39 19.19 17.04 16.34 20.35 16.34 22 19.19 20.35 22 17.04 22"/><polygon id="Combined-Shape-path-Copy-4" class="cls-3" points="7.48 22 5.82 19.19 7.48 16.34 10.79 16.34 12.44 19.19 10.79 22 7.48 22"/></g></g></svg>