<svg xmlns="http://www.w3.org/2000/svg" width="24px" height="24px" viewBox="0 0 24 24"><defs><style>.cls-1{fill:#4285f4;}.cls-2{fill:#669df6;}.cls-3{fill:#aecbfa;}</style></defs><title>Icon_24px_TrafficDetector_Color</title><g data-name="Product Icons"><path class="cls-1" d="M9,15a6.22,6.22,0,0,0-4-5V8a8.22,8.22,0,0,1,6,7Z"/><g data-name="colored-32/traffic-director"><path class="cls-1" d="M5,7v4L2,9Zm6,8.39V18H9V15.38"/><path id="Combined-Shape-2" data-name="Combined-Shape" class="cls-2" d="M9,5H8l2-3,2,3H11V18H9Z"/></g><g data-name="colored-32/traffic-director"><path id="Combined-Shape-3" data-name="Combined-Shape" class="cls-3" d="M19,17V13l3,2ZM13,8.62V6h2V8.62"/><path id="Combined-Shape-4" data-name="Combined-Shape" class="cls-2" d="M15,19h1l-2,3-2-3h1V6h2Z"/></g><path class="cls-3" d="M13,6h2V8.43A6.13,6.13,0,0,0,19,14v2a8.15,8.15,0,0,1-6-7.58"/></g></svg>