<?xml version="1.0" encoding="UTF-8"?>
<svg width="80px" height="80px" viewBox="0 0 80 80" version="1.1" xmlns="http://www.w3.org/2000/svg" xmlns:xlink="http://www.w3.org/1999/xlink">
    <title>Icon-Architecture/64/Arch_AWS-Migration-Evaluator_64</title>
    <defs>
        <linearGradient x1="0%" y1="100%" x2="100%" y2="0%" id="linearGradient-1">
            <stop stop-color="#055F4E" offset="0%"></stop>
            <stop stop-color="#56C0A7" offset="100%"></stop>
        </linearGradient>
    </defs>
    <g id="Icon-Architecture/64/Arch_AWS-Migration-Evaluator_64" stroke="none" stroke-width="1" fill="none" fill-rule="evenodd">
        <g id="Rectangle" fill="url(#linearGradient-1)">
            <rect x="0" y="0" width="80" height="80"></rect>
        </g>
        <g id="Icon-Service/64/AWS-Migration-Evaluator_64" transform="translate(8.000000, 8.000000)" fill="#FFFFFF">
            <path d="M32.359,35.859 C30.429,35.859 28.859,34.289 28.859,32.359 C28.859,30.429 30.429,28.859 32.359,28.859 C34.289,28.859 35.859,30.429 35.859,32.359 C35.859,34.289 34.289,35.859 32.359,35.859 L32.359,35.859 Z M32.359,26.859 C29.327,26.859 26.859,29.326 26.859,32.359 C26.859,35.392 29.327,37.859 32.359,37.859 C35.391,37.859 37.859,35.392 37.859,32.359 C37.859,29.326 35.391,26.859 32.359,26.859 L32.359,26.859 Z M40.428,38.956 C40.202,39.056 40.021,39.237 39.921,39.463 L32.457,56.256 L25.041,39.571 C24.94,39.345 24.759,39.164 24.533,39.064 L8.462,31.921 L25.019,24.561 C25.246,24.461 25.426,24.28 25.527,24.054 L32.457,8.462 L39.435,24.162 C39.536,24.388 39.716,24.569 39.943,24.67 L56.256,31.921 L40.428,38.956 Z M49.446,49.378 L39.418,45.52 L41.592,40.627 L45.425,38.923 L49.446,49.378 Z M15.272,49.136 L19.213,38.888 L23.369,40.735 L25.376,45.251 L15.272,49.136 Z M15.651,15.582 L25.431,19.343 L23.855,22.89 L19.249,24.937 L15.651,15.582 Z M49.067,15.341 L45.39,24.902 L41.107,22.998 L39.363,19.073 L49.067,15.341 Z M59.125,31.007 L47.22,25.715 L51.742,13.959 C51.883,13.59 51.795,13.172 51.515,12.893 C51.235,12.613 50.82,12.526 50.449,12.666 L38.548,17.243 L33.371,5.593 C33.21,5.233 32.852,5 32.457,5 C32.061,5 31.704,5.233 31.543,5.593 L26.245,17.513 L14.269,12.907 C13.9,12.768 13.483,12.854 13.203,13.133 C12.923,13.413 12.835,13.831 12.976,14.199 L17.419,25.751 L5.593,31.007 C5.232,31.167 5,31.526 5,31.921 C5,32.316 5.232,32.674 5.593,32.834 L17.383,38.075 L12.597,50.519 C12.456,50.887 12.545,51.305 12.824,51.585 C13.015,51.776 13.27,51.878 13.531,51.878 C13.652,51.878 13.773,51.856 13.89,51.811 L26.189,47.08 L31.543,59.125 C31.704,59.485 32.061,59.718 32.457,59.718 C32.852,59.718 33.21,59.485 33.371,59.125 L38.604,47.351 L50.828,52.052 C50.945,52.096 51.066,52.118 51.187,52.118 C51.448,52.118 51.703,52.016 51.894,51.825 C52.173,51.546 52.262,51.128 52.121,50.759 L47.255,38.11 L59.125,32.834 C59.486,32.674 59.718,32.316 59.718,31.921 C59.718,31.526 59.486,31.167 59.125,31.007 L59.125,31.007 Z" id="AWS-Migration-Evaluator_Icon_64_Squid"></path>
        </g>
    </g>
</svg>