<svg xmlns="http://www.w3.org/2000/svg" viewBox="0 0 24 24" width="24px" height="24px"><rect x="2.25" y="11.03" width="19.5" height="1.95" style="fill:#aecbfa"/><circle cx="12" cy="12" r="6.82" style="fill:#669df6"/><path d="M14.44,10.05V9.56a2.44,2.44,0,1,0-4.88,0v.49a1,1,0,0,0-1,1v3.89a1,1,0,0,0,1,1h4.88a1,1,0,0,0,1-1V11A1,1,0,0,0,14.44,10.05Z" style="fill:#fff"/><path d="M13.66,10.05H10.34V9.56a1.66,1.66,0,0,1,3.32,0Z" style="fill:#669df6"/><circle cx="12" cy="12.97" r="0.97" style="fill:#4285f4"/></svg>