<svg xmlns="http://www.w3.org/2000/svg" width="24px" height="24px" viewBox="0 0 24 24"><defs><style>.cls-1{fill:#4285f4;}.cls-2{fill:#669df6;}</style></defs><title>Icon_24px_CloudNAT_Color</title><g data-name="Product Icons"><path class="cls-1" d="M15.3,11.17c0,.27,0,.54,0,.83s0,.56,0,.83h4.5V11.17Z"/><path class="cls-1" d="M9.86,5.89H7V7.56h3.93A10,10,0,0,0,9.86,5.89Z"/><path class="cls-1" d="M11,16.44H7.6v1.67H9.89A10.7,10.7,0,0,0,11,16.44Z"/><path class="cls-1" d="M12,12a7.45,7.45,0,0,0,0-.83H4.5v1.66H12A7.45,7.45,0,0,0,12,12Z"/><path class="cls-2" d="M3.67,12.48A.48.48,0,1,1,4.14,12,.48.48,0,0,1,3.67,12.48Zm0-2.15A1.67,1.67,0,1,0,5.33,12,1.67,1.67,0,0,0,3.67,10.33Z"/><path class="cls-2" d="M6.17,17.75a.48.48,0,1,1,.47-.48A.47.47,0,0,1,6.17,17.75Zm0-2.14a1.67,1.67,0,1,0,1.66,1.66A1.67,1.67,0,0,0,6.17,15.61Z"/><path class="cls-2" d="M6.17,7.2a.48.48,0,1,1,.47-.47A.47.47,0,0,1,6.17,7.2Zm0-2.14a1.67,1.67,0,1,0,0,3.33,1.67,1.67,0,0,0,0-3.33Z"/><polygon class="cls-1" points="18.67 14.5 18.67 9.5 22 12 18.67 14.5"/><path class="cls-1" d="M9.5,22l-.86-1.5A10.73,10.73,0,0,0,12.83,12a10.89,10.89,0,0,0-4.2-8.5L9.5,2a12.53,12.53,0,0,1,5,10A12.46,12.46,0,0,1,9.5,22Z"/></g></svg>