<svg version="1.1" baseProfile="tiny" id="Layer_1" xmlns="http://www.w3.org/2000/svg" xmlns:xlink="http://www.w3.org/1999/xlink"
	 x="0px" y="0px" width="24px" height="24px" viewBox="0 0 24 24" overflow="visible" xml:space="preserve">
<g >
	<g transform="translate(3.000000, 0.000000)">
		<path id="Shield" fill="#4285F4" d="M9,0l-9.7,4.4v6.5C-0.8,17,3.4,22.6,9,24c5.6-1.4,9.7-7,9.7-13.1V4.4L9,0L9,0z"/>
		<path id="Path-3" fill="#2879EA" d="M18.7,12c-0.1,0.8-0.2,1.6-0.4,2.2c-0.2,0.9-0.5,1.6-0.7,2.1c-0.1,0.3-0.2,0.5-0.3,0.7
			c-0.2,0.3-0.3,0.6-0.5,0.9c-0.4,0.7-0.8,1.2-1.2,1.7c-0.4,0.5-0.9,1-1.5,1.6c-0.6,0.5-0.7,0.7-1.4,1.1s-1.1,0.7-2.4,1.2
			C10,23.7,9.6,23.8,9,24l-3.2-4.4V6H9h4.7L18.7,12z"/>
		<path id="certificate-manager" fill="#FFFFFF" d="M9,3.3c3,0,5.4,2.4,5.4,5.5c0,1.8-0.8,3.4-2.2,4.4l0,6.5L9,16.6l-3.2,3.1l0-6.5
			c-1.3-1-2.2-2.6-2.2-4.4C3.6,5.7,6,3.3,9,3.3z M9,11.5c1.5,0,2.7-1.2,2.7-2.7S10.5,6,9,6S6.3,7.2,6.3,8.7S7.5,11.5,9,11.5z"/>
	</g>
</g>
</svg>
