<?xml version="1.0" encoding="UTF-8"?>
<svg width="64px" height="64px" viewBox="0 0 64 64" version="1.1" xmlns="http://www.w3.org/2000/svg" xmlns:xlink="http://www.w3.org/1999/xlink">
    <!-- Generator: Sketch 64 (93537) - https://sketch.com -->
    <title>Icon-Architecture/48/Arch_Amazon-Elastic-Transcoder_48</title>
    <desc>Created with Sketch.</desc>
    <defs>
        <linearGradient x1="0%" y1="100%" x2="100%" y2="0%" id="linearGradient-1">
            <stop stop-color="#C8511B" offset="0%"></stop>
            <stop stop-color="#FF9900" offset="100%"></stop>
        </linearGradient>
    </defs>
    <g id="Icon-Architecture/48/Arch_Amazon-Elastic-Transcoder_48" stroke="none" stroke-width="1" fill="none" fill-rule="evenodd">
        <g id="Icon-Architecture-BG/48/Media-Services" fill="url(#linearGradient-1)">
            <rect id="Rectangle" x="0" y="0" width="64" height="64"></rect>
        </g>
        <path d="M12.7794083,26.9979566 C12.7724497,26.8530046 12.7694675,26.7080527 12.7694675,26.5611015 C12.7694675,23.3841552 14.4464852,20.948963 17.2985089,19.9033098 C17.2945325,19.7893476 17.2925444,19.6763851 17.2925444,19.5634226 C17.2925444,15.9376253 19.7091598,12.1738737 22.9120947,10.810326 C26.6587929,9.21285585 30.6281657,10.0065926 33.5279053,12.932622 C34.3241657,13.7343561 34.9911953,14.6880397 35.5230296,15.775679 C36.5906746,15.0509194 37.9118107,14.819996 39.1752899,15.1918726 C41.036213,15.7396909 42.3006864,17.3991405 42.6446391,19.6953788 C43.3802604,19.8913138 44.3395503,20.2501948 45.2511243,20.8769869 C44.119858,20.9319686 43.0392899,21.1798864 42.0481893,21.6057451 C41.8583195,21.5587607 41.6863432,21.5227727 41.5481657,21.4997803 C41.0322367,21.4108098 40.6753609,20.9359673 40.7270533,20.4171394 C40.5868876,18.6917117 39.8015621,17.4591206 38.6166154,17.111236 C37.6483787,16.8263305 36.6065799,17.2092035 35.9614201,18.0859127 C35.743716,18.3838139 35.3749112,18.5367631 35.0150533,18.4807817 C34.6512189,18.4257999 34.3470296,18.1738835 34.2237633,17.8249992 C33.7346746,16.4294621 33.0258935,15.2578507 32.120284,14.3441538 C31.0138698,13.2275242 27.9769467,10.825321 23.6874793,12.6507155 C21.2161893,13.7033664 19.2807101,16.7393593 19.2807101,19.5634226 C19.2807101,19.8743195 19.2995976,20.1812177 19.3333964,20.4831175 C19.340355,20.5291023 19.3433373,20.575087 19.3433373,20.6220714 C19.3433373,21.1029119 19.0053491,21.5077776 18.5500592,21.6027461 C17.1116213,21.9836198 14.7576331,23.1322388 14.7576331,26.5611015 C14.7576331,26.677063 14.7606154,26.7910252 14.7655858,26.9029881 C14.8053491,27.7207168 15.0598343,28.5034572 15.4853018,29.2042247 L13.2694911,29.2042247 C12.9911479,28.5014578 12.8161893,27.7617032 12.7794083,26.9979566 L12.7794083,26.9979566 Z M44.7988166,47.5861275 L44.7988166,45.8227124 L46.5523787,46.7124173 L44.7988166,47.5861275 Z M49.2224852,45.8287104 L44.252071,43.306547 C43.9458935,43.1495991 43.5760947,43.1665934 43.2838343,43.3475334 C42.9895858,43.5294731 42.8106509,43.8513663 42.8106509,44.1992509 L42.8106509,49.197593 C42.8106509,49.5424786 42.9885917,49.8643718 43.2808521,50.0463114 C43.4408994,50.1462783 43.6218225,50.1972614 43.8047337,50.1972614 C43.9548402,50.1972614 44.1069349,50.162273 44.2461065,50.0932958 L49.2165207,47.6161175 C49.5535148,47.4491729 49.7682367,47.1032876 49.7692343,46.7244133 C49.7702249,46.345539 49.5594793,45.998654 49.2224852,45.8287104 L49.2224852,45.8287104 Z M45.6944852,52.0006632 C42.7619408,52.0006632 40.3771361,49.6024587 40.3771361,46.6544365 C40.3771361,43.7054147 42.7619408,41.3062105 45.6944852,41.3062105 C48.6270296,41.3062105 51.0118343,43.7054147 51.0118343,46.6544365 C51.0118343,49.6024587 48.6270296,52.0006632 45.6944852,52.0006632 L45.6944852,52.0006632 Z M12.9881657,45.1989193 L26.9053254,45.1989193 L26.9053254,33.2028984 L12.9881657,33.2028984 L12.9881657,45.1989193 Z M45.6944852,24.8536678 C48.6270296,24.8536678 51.0118343,27.2518723 51.0118343,30.2008941 C51.0118343,33.1489163 48.6270296,35.5481205 45.6944852,35.5481205 C42.7619408,35.5481205 40.3771361,33.1489163 40.3771361,30.2008941 C40.3771361,27.2518723 42.7619408,24.8536678 45.6944852,24.8536678 L45.6944852,24.8536678 Z M45.6944852,39.3068737 C42.1446154,39.3068737 39.1812544,41.8680242 38.5261538,45.2479031 L28.8934911,40.8293687 L28.8934911,37.3165339 L38.9625562,33.0539478 C40.0719527,35.6920727 42.6714793,37.5474573 45.6944852,37.5474573 C49.7225089,37.5474573 53,34.2515505 53,30.2008941 C53,26.1502377 49.7225089,22.854331 45.6944852,22.854331 C41.6664615,22.854331 38.3889704,26.1502377 38.3889704,30.2008941 C38.3889704,30.5067927 38.4128284,30.8056935 38.4496095,31.1005957 L28.8934911,35.1472534 L28.8934911,32.20323 C28.8934911,31.6504133 28.4491361,31.2035616 27.8994083,31.2035616 L11.9940828,31.2035616 C11.444355,31.2035616 11,31.6504133 11,32.20323 L11,46.1985877 C11,46.7504047 11.444355,47.1982561 11.9940828,47.1982561 L27.8994083,47.1982561 C28.4491361,47.1982561 28.8934911,46.7504047 28.8934911,46.1985877 L28.8934911,43.0266399 L38.4267456,47.3991895 C38.7995266,51.1009616 41.9169704,54 45.6944852,54 C49.7225089,54 53,50.7050929 53,46.6544365 C53,42.6027804 49.7225089,39.3068737 45.6944852,39.3068737 L45.6944852,39.3068737 Z M44.7988166,29.2841982 L46.5871716,30.2008941 L44.7988166,31.1175901 L44.7988166,29.2841982 Z M43.2848284,33.6017661 C43.4448757,33.6997336 43.6238107,33.7487173 43.8047337,33.7487173 C43.9588166,33.7487173 44.1138935,33.7127293 44.2560473,33.6407531 L49.2264615,31.0915987 C49.5594793,30.9206554 49.7692308,30.5767695 49.7692308,30.2008941 C49.7692308,29.8250188 49.5594793,29.4811329 49.2264615,29.3101896 L44.2560473,26.7620348 C43.9478817,26.6020879 43.580071,26.6180826 43.2848284,26.8000222 C42.9905799,26.9809622 42.8106509,27.3038551 42.8106509,27.6517397 L42.8106509,32.7490489 C42.8106509,33.0979332 42.9905799,33.4198264 43.2848284,33.6017661 L43.2848284,33.6017661 Z M18.9635976,37.8303635 L21.6873846,39.2009088 L18.9635976,40.5704546 L18.9635976,37.8303635 Z M17.4466272,43.0376362 C17.6056805,43.137603 17.7875976,43.1875865 17.9695148,43.1875865 C18.1216095,43.1875865 18.2727101,43.1525981 18.4138698,43.0816216 L24.355503,40.0946124 C24.691503,39.9256684 24.9042367,39.5787835 24.9042367,39.2009088 C24.9042367,38.8220345 24.691503,38.4751496 24.355503,38.3062056 L18.4138698,35.3191964 C18.1057041,35.1642478 17.7398817,35.1802425 17.4466272,35.3631818 C17.1533728,35.5451215 16.975432,35.8670147 16.975432,36.2129 L16.975432,42.1879181 C16.975432,42.534803 17.1533728,42.8556966 17.4466272,43.0376362 L17.4466272,43.0376362 Z" id="Amazon-Elastic-Transcoder_Icon_48_Squid" fill="#FFFFFF"></path>
    </g>
</svg>