<?xml version="1.0" encoding="UTF-8"?>
<svg width="64px" height="64px" viewBox="0 0 64 64" version="1.1" xmlns="http://www.w3.org/2000/svg" xmlns:xlink="http://www.w3.org/1999/xlink">
    <!-- Generator: Sketch 64 (93537) - https://sketch.com -->
    <title>Icon-Architecture/48/Arch_AWS-Elemental-MediaConnect_48</title>
    <desc>Created with Sketch.</desc>
    <defs>
        <linearGradient x1="0%" y1="100%" x2="100%" y2="0%" id="linearGradient-1">
            <stop stop-color="#C8511B" offset="0%"></stop>
            <stop stop-color="#FF9900" offset="100%"></stop>
        </linearGradient>
    </defs>
    <g id="Icon-Architecture/48/Arch_AWS-Elemental-MediaConnect_48" stroke="none" stroke-width="1" fill="none" fill-rule="evenodd">
        <g id="Icon-Architecture-BG/48/Media-Services" fill="url(#linearGradient-1)">
            <rect id="Rectangle" x="0" y="0" width="64" height="64"></rect>
        </g>
        <path d="M48.4870375,27.566 L44.4902782,25.166 L40.4935188,27.566 L40.4935188,32.433 L44.4902782,34.834 L48.4870375,32.433 L48.4870375,27.566 Z M36.4967594,19.525 L32.5039968,17.164 L28.5032406,19.566 L28.5032406,24.433 L32.4960032,26.831 L36.4967594,24.392 L36.4967594,19.525 Z M24.5064812,27.566 L20.5097218,25.166 L16.5129625,27.566 L16.5129625,32.145 L20.5367,34.817 L24.5064812,32.433 L24.5064812,27.566 Z M50.4854172,27 L50.4854172,33 C50.4854172,33.351 50.3005671,33.676 50.0008102,33.857 L45.0048609,36.857 C44.6881177,37.047 44.2924386,37.047 43.9756954,36.857 L38.9797462,33.857 C38.6799892,33.676 38.4951391,33.351 38.4951391,33 L38.4951391,27.42 L37.2961113,26.247 L33.0205779,28.854 C32.7018363,29.046 32.3041588,29.048 31.9854172,28.857 L27.6589252,26.259 L26.5048609,27.414 L26.5048609,33 C26.5048609,33.351 26.3200108,33.676 26.0202538,33.857 L21.0243046,36.857 C20.8644342,36.952 20.6875776,37 20.5097218,37 C20.3168782,37 20.1240346,36.944 19.9571699,36.833 L14.9612206,33.514 C14.6824467,33.329 14.5145828,33.016 14.5145828,32.681 L14.5145828,27 C14.5145828,26.649 14.6994329,26.323 14.9991898,26.142 L19.9951391,23.142 C20.3118823,22.952 20.7075614,22.952 21.0243046,23.142 L25.3507967,25.74 L26.5048609,24.586 L26.5048609,19 C26.5048609,18.649 26.689711,18.323 26.989468,18.142 L31.9854172,15.142 C32.300162,14.953 32.6918445,14.952 33.0085876,15.139 L38.0045369,18.093 C38.3082906,18.273 38.4951391,18.601 38.4951391,18.954 L38.4951391,24.624 L39.6412098,25.745 L43.9756954,23.142 C44.2924386,22.952 44.6881177,22.952 45.0048609,23.142 L50.0008102,26.142 C50.3005671,26.323 50.4854172,26.649 50.4854172,27 L50.4854172,27 Z M29.1027545,43.2 L27.9037267,44.799 L31.9004861,47.799 C32.0783419,47.933 32.2891709,48 32.5,48 C32.7108291,48 32.9216581,47.933 33.0995139,47.799 L37.0962733,44.799 L35.8972455,43.2 L33.4991898,45 L33.4991898,33.999 L35.8972455,35.799 L37.0962733,34.2 L33.0995139,31.199 C32.7438023,30.933 32.2561977,30.933 31.9004861,31.199 L27.9037267,34.2 L29.1027545,35.799 L31.5008102,33.999 L31.5008102,45 L29.1027545,43.2 Z M49.9328652,42.105 L39.9409668,37.105 L39.0476911,38.894 L47.3939238,43.071 L32.5,51.839 L17.5271402,43.024 L24.9910883,38.874 L24.0218742,37.126 L15.0291655,42.126 C14.7154199,42.3 14.5195787,42.629 14.5145202,42.987 C14.510586,43.346 14.6984337,43.68 15.0071834,43.861 L31.9934107,53.861 C32.1492844,53.954 32.3251418,54 32.5,54 C32.6748582,54 32.8507156,53.954 33.0065893,53.861 L49.9928166,43.861 C50.3085606,43.676 50.4974075,43.332 50.484418,42.965 C50.4724278,42.599 50.2605995,42.269 49.9328652,42.105 L49.9328652,42.105 Z M15.0291655,22.857 L14,21.142 L18.9959492,18.142 C19.289711,17.966 19.6514178,17.953 19.9571699,18.105 L22.5081015,19.381 L22.5081015,16 C22.5081015,15.636 22.7049419,15.302 23.0226843,15.126 L32.0153929,10.126 C32.3151499,9.958 32.6848501,9.958 32.9846071,10.126 L41.9773157,15.126 C42.2950581,15.302 42.4918985,15.636 42.4918985,16 L42.4918985,19.381 L45.0428301,18.105 C45.3485822,17.952 45.710289,17.966 46.0040508,18.142 L51,21.142 L49.9708345,22.857 L45.4455036,20.14 L41.9393465,21.894 C41.6285984,22.047 41.2618958,22.032 40.9681339,21.85 C40.6733729,21.668 40.4935188,21.346 40.4935188,21 L40.4935188,16.588 L32.5,12.144 L24.5064812,16.588 L24.5064812,21 C24.5064812,21.346 24.3266271,21.668 24.0318661,21.85 C23.737105,22.033 23.3704024,22.048 23.0606535,21.894 L19.5544964,20.14 L15.0291655,22.857 Z" id="AWS-Elemental-MediaConnect_Icon_48_Squid" fill="#FFFFFF"></path>
    </g>
</svg>