<?xml version="1.0" encoding="UTF-8"?>
<svg width="64px" height="64px" viewBox="0 0 64 64" version="1.1" xmlns="http://www.w3.org/2000/svg" xmlns:xlink="http://www.w3.org/1999/xlink">
    <!-- Generator: Sketch 64 (93537) - https://sketch.com -->
    <title>Icon-Architecture/48/Arch_Amazon-Kinesis-Video-Streams_48</title>
    <desc>Created with Sketch.</desc>
    <defs>
        <linearGradient x1="0%" y1="100%" x2="100%" y2="0%" id="linearGradient-1">
            <stop stop-color="#C8511B" offset="0%"></stop>
            <stop stop-color="#FF9900" offset="100%"></stop>
        </linearGradient>
    </defs>
    <g id="Icon-Architecture/48/Arch_Amazon-Kinesis-Video-Streams_48" stroke="none" stroke-width="1" fill="none" fill-rule="evenodd">
        <g id="Icon-Architecture-BG/48/Media-Services" fill="url(#linearGradient-1)">
            <rect id="Rectangle" x="0" y="0" width="64" height="64"></rect>
        </g>
        <path d="M28,36.986 L28,39.044 C18.82,41.191 18,44.637 18,48 L16,48 C16,43.661 17.48,39.337 28,36.986 L28,36.986 Z M28,42.393 L28,44.591 C23.011,47.079 22.999,50.387 23,53.876 L23,54 L20.9999834,54 L20.9999834,53.877 C20.999,50.107 21.02,45.448 28,42.393 L28,42.393 Z M52,50.999 C52,51.551 51.551,52 50.999,52 L33.001,52 C32.449,52 32,51.551 32,50.999 L32,39 C32,38.448 32.449,38 33.001,38 L50.999,38 C51.551,38 52,38.448 52,39 L52,50.999 Z M50.999,36 L33.001,36 C31.347,36 30,37.346 30,39 L30,50.999 C30,52.653 31.347,54 33.001,54 L50.999,54 C52.653,54 54,52.653 54,50.999 L54,39 C54,37.346 52.653,36 50.999,36 L50.999,36 Z M54,31 L54,33 C26.411,33 13,35.616 13,41 L11,41 C11,37.385 13.747,33.715 30.012,32 C13.747,30.285 11,26.614 11,23 L13,23 C13,28.383 26.411,31 54,31 L54,31 Z M54,27 L54,29 C22.218,29 16,24.233 16,16 L18,16 C18,21.566 20.779,27 54,27 L54,27 Z M54,23 L54,25 C39.552,25 30.21,23.443 25.44,20.24 C20.998,17.257 20.999,13.301 20.99997,10.123 L20.99997,10 L23,10 L23,10.124 C22.999,13.244 22.999,16.191 26.556,18.58 C30.984,21.554 39.961,23 54,23 L54,23 Z M41,46.381 L41,43.618 L43.764,44.999 L41,46.381 Z M46.447,44.105 L40.447,41.105 C40.137,40.951 39.769,40.966 39.475,41.149 C39.18,41.331 39,41.653 39,42 L39,47.999 C39,48.346 39.18,48.668 39.475,48.85 C39.635,48.949 39.817,48.999 40,48.999 C40.153,48.999 40.306,48.964 40.447,48.894 L46.447,45.894 C46.786,45.724 47,45.378 47,44.999 C47,44.62 46.786,44.274 46.447,44.105 L46.447,44.105 Z" id="Amazon-Kinesis-Video-Streams_48_Squid" fill="#FFFFFF"></path>
    </g>
</svg>