<?xml version="1.0" encoding="UTF-8"?>
<svg width="64px" height="64px" viewBox="0 0 64 64" version="1.1" xmlns="http://www.w3.org/2000/svg" xmlns:xlink="http://www.w3.org/1999/xlink">
    <!-- Generator: Sketch 64 (93537) - https://sketch.com -->
    <title>Icon-Architecture/48/Arch_AWS-Elemental-MediaPackage_48</title>
    <desc>Created with Sketch.</desc>
    <defs>
        <linearGradient x1="0%" y1="100%" x2="100%" y2="0%" id="linearGradient-1">
            <stop stop-color="#C8511B" offset="0%"></stop>
            <stop stop-color="#FF9900" offset="100%"></stop>
        </linearGradient>
    </defs>
    <g id="Icon-Architecture/48/Arch_AWS-Elemental-MediaPackage_48" stroke="none" stroke-width="1" fill="none" fill-rule="evenodd">
        <g id="Icon-Architecture-BG/48/Media-Services" fill="url(#linearGradient-1)">
            <rect id="Rectangle" x="0" y="0" width="64" height="64"></rect>
        </g>
        <path d="M21,38.4339095 L21,33.6078814 L25,31.1708673 L29,33.6078814 L29,38.4339095 L25,40.8339235 L21,38.4339095 Z M43,33.6078814 L43,38.4339095 L39,40.8339235 L35,38.4339095 L35,33.6078814 L39,31.1708673 L43,33.6078814 Z M49,40.3819208 L45,38.3819092 L45,33.0458782 C45,32.6968761 44.818,32.3728743 44.521,32.1918732 L39.521,29.1458555 C39.2,28.9518544 38.8,28.9518544 38.479,29.1458555 L33.479,32.1918732 C33.182,32.3728743 33,32.6968761 33,33.0458782 L33,38.9999128 C33,39.3509148 33.185,39.6769167 33.485,39.8579178 L38.485,42.8579352 C38.802,43.0479363 39.198,43.0479363 39.515,42.8579352 L44.044,40.1409194 L47.939,42.0879307 L33,51.2169838 L33,43.9999419 L31,43.9999419 L31,51.2169838 L16.062,42.0879307 L19.956,40.1409194 L24.485,42.8579352 C24.644,42.9529358 24.822,42.999936 25,42.999936 C25.178,42.999936 25.356,42.9529358 25.515,42.8579352 L30.515,39.8579178 C30.815,39.6769167 31,39.3509148 31,38.9999128 L31,33.0458782 C31,32.6968761 30.818,32.3728743 30.521,32.1918732 L25.521,29.1458555 C25.2,28.9518544 24.8,28.9518544 24.479,29.1458555 L19.479,32.1918732 C19.182,32.3728743 19,32.6968761 19,33.0458782 L19,38.3819092 L15,40.3819208 L15,22.8048186 L21.47,26.8488421 L22.53,25.1518323 L16.042,21.0978087 L31,13.6187652 L31,16.4337816 L26.485,19.1427973 C26.185,19.3237984 26,19.6488003 26,19.9998023 L26,25.9998372 C26,26.3508392 26.185,26.6768411 26.485,26.8578422 L31.485,29.8578596 C31.802,30.0478607 32.198,30.0478607 32.515,29.8578596 L37.515,26.8578422 C37.815,26.6768411 38,26.3508392 38,25.9998372 L38,19.9998023 C38,19.6488003 37.815,19.3237984 37.515,19.1427973 L33,16.4337816 L33,13.6187652 L47.857,21.0468084 L40.515,25.1258321 L41.485,26.8738423 L49,22.699818 L49,40.3819208 Z M32,18.1657917 L36,20.5668056 L36,25.4338339 L32,27.8338479 L28,25.4338339 L28,20.5668056 L32,18.1657917 Z M50.447,20.1058029 L32.447,11.1057506 C32.166,10.9647498 31.834,10.9647498 31.553,11.1057506 L13.553,20.1058029 C13.214,20.2748039 13,20.6218059 13,20.9998081 L13,41.9999302 C13,42.3489323 13.182,42.6719341 13.479,42.8539352 L31.479,53.8539992 C31.639,53.9519997 31.819,54 32,54 C32.181,54 32.361,53.9519997 32.521,53.8539992 L50.521,42.8539352 C50.818,42.6719341 51,42.3489323 51,41.9999302 L51,20.9998081 C51,20.6218059 50.786,20.2748039 50.447,20.1058029 L50.447,20.1058029 Z" id="AWS-Elemental-MediaPackage_Icon_48_Squid" fill="#FFFFFF"></path>
    </g>
</svg>