<?xml version="1.0" encoding="UTF-8"?>
<svg width="64px" height="64px" viewBox="0 0 64 64" version="1.1" xmlns="http://www.w3.org/2000/svg" xmlns:xlink="http://www.w3.org/1999/xlink">
    <!-- Generator: Sketch 64 (93537) - https://sketch.com -->
    <title>Icon-Architecture/48/Arch_AWS-Elemental-MediaStore_48</title>
    <desc>Created with Sketch.</desc>
    <defs>
        <linearGradient x1="0%" y1="100%" x2="100%" y2="0%" id="linearGradient-1">
            <stop stop-color="#C8511B" offset="0%"></stop>
            <stop stop-color="#FF9900" offset="100%"></stop>
        </linearGradient>
    </defs>
    <g id="Icon-Architecture/48/Arch_AWS-Elemental-MediaStore_48" stroke="none" stroke-width="1" fill="none" fill-rule="evenodd">
        <g id="Icon-Architecture-BG/48/Media-Services" fill="url(#linearGradient-1)">
            <rect id="Rectangle" x="0" y="0" width="64" height="64"></rect>
        </g>
        <path d="M23,41.4338572 L19,43.8338845 L15,41.4338572 L15,37.5668133 L19,35.165786 L23,37.5668133 L23,41.4338572 Z M25,41.9998636 L25,36.9998068 C25,36.6488028 24.815,36.3237991 24.515,36.1427971 L19.515,33.142763 C19.198,32.9527608 18.802,32.9527608 18.485,33.142763 L13.485,36.1427971 C13.185,36.3237991 13,36.6488028 13,36.9998068 L13,41.9998636 C13,42.3508676 13.185,42.6768713 13.485,42.8578734 L18.485,45.8579075 C18.644,45.9529086 18.822,45.9999091 19,45.9999091 C19.178,45.9999091 19.356,45.9529086 19.515,45.8579075 L24.515,42.8578734 C24.815,42.6768713 25,42.3508676 25,41.9998636 L25,41.9998636 Z M42,46.606916 L42,38.5668246 L50,33.7657701 L50,42.3968681 L42,46.606916 Z M33,43.8958852 L39.155,48.103933 L33,51.3439698 L33,43.8958852 Z M24,26.2126842 L24,17.6995875 L31,21.5876317 L30.998,25.9996818 L32.998,26.0006818 L32.999,22.6996443 L40,26.5886885 L40,36.0007955 L37.6,34.200775 L36.4,35.7997932 L40,38.4998239 L40,46.258912 L33,41.4728576 L33,31.99975 C33,31.6427459 32.81,31.3127422 32.501,31.1347402 L24,26.2126842 Z M22,17.392584 L22,25.0546711 L15.068,21.0416255 L22,17.392584 Z M32,12.1295242 L39.142,15.8885669 L32,19.856612 L24.858,15.8885669 L32,12.1295242 Z M42,26.6186888 L50,22.6186434 L50,31.4337436 L42,36.2337981 L42,26.6186888 Z M41.024,24.869669 L34.059,20.999625 L41.256,17.0015796 L48.81,20.9766247 L41.024,24.869669 Z M51.466,20.115615 L32.466,10.1155013 C32.175,9.96149956 31.825,9.96149956 31.534,10.1155013 L12.534,20.115615 C12.212,20.2846169 12.008,20.6156206 12,20.9796248 C12,20.9866248 12.002,20.9936249 12.002,20.999625 L12,20.999625 L12,30.9997386 L14,30.9997386 L14,22.7346447 L31,32.5767566 L31,51.1949681 L24.53,47.1519222 L23.47,48.8489415 L31.471,53.8489983 L31.472,53.8469983 C31.477,53.8499983 31.479,53.8539983 31.483,53.8559984 C31.642,53.9519995 31.82,54 32,54 C32.16,54 32.319,53.9619996 32.466,53.8849987 L51.466,43.8848851 C51.794,43.7118831 52,43.3708792 52,42.999875 L52,20.999625 C52,20.6286208 51.794,20.2876169 51.466,20.115615 L51.466,20.115615 Z" id="AWS-Elemental-MediaStore_Icon_48_Squid" fill="#FFFFFF"></path>
    </g>
</svg>