<?xml version="1.0" encoding="UTF-8"?>
<svg width="64px" height="64px" viewBox="0 0 64 64" version="1.1" xmlns="http://www.w3.org/2000/svg" xmlns:xlink="http://www.w3.org/1999/xlink">
    <!-- Generator: Sketch 64 (93537) - https://sketch.com -->
    <title>Icon-Architecture/48/Arch_AWS-Elemental-MediaTailor_48</title>
    <desc>Created with Sketch.</desc>
    <defs>
        <linearGradient x1="0%" y1="100%" x2="100%" y2="0%" id="linearGradient-1">
            <stop stop-color="#C8511B" offset="0%"></stop>
            <stop stop-color="#FF9900" offset="100%"></stop>
        </linearGradient>
    </defs>
    <g id="Icon-Architecture/48/Arch_AWS-Elemental-MediaTailor_48" stroke="none" stroke-width="1" fill="none" fill-rule="evenodd">
        <g id="Icon-Architecture-BG/48/Media-Services" fill="url(#linearGradient-1)">
            <rect id="Rectangle" x="0" y="0" width="64" height="64"></rect>
        </g>
        <path d="M15,28.9997073 L13,28.9997073 L13,21.9996219 C13,21.6366175 13.197,21.3016134 13.515,21.1256113 L22.515,16.1255503 L23.485,17.8735716 L15,22.5876291 L15,28.9997073 Z M51,28.9997073 L49,28.9997073 L49,22.5876291 L40.514,17.8635715 L41.486,16.1165502 L50.486,21.1256113 C50.804,21.3026134 51,21.6366175 51,21.9996219 L51,28.9997073 Z M26.504,50.867974 L13.504,43.4328833 C13.192,43.2548812 13,42.9238771 13,42.5648727 L13,34.9997805 L15,34.9997805 L15,41.9848657 L27.496,49.1319528 L26.504,50.867974 Z M37.496,50.867974 L36.504,49.1319528 L49,41.9848657 L49,34.9997805 L51,34.9997805 L51,42.5648727 C51,42.9238771 50.808,43.2548812 50.496,43.4328833 L37.496,50.867974 Z M28,21.3226137 L32,22.9226332 L36,21.3226137 L36,15.6765448 L32,14.0765253 L28,15.6765448 L28,21.3226137 Z M21.17,28.0326955 L32.001,33.8637666 L42.83,28.0326955 L34.732,23.9836461 L33,24.6766546 L33,27.9996951 L31,27.9996951 L31,24.6766546 L29.268,23.9836461 L21.17,28.0326955 Z M20.888,36.8808034 L31.999,42.8638764 L43.112,36.8798034 L37.741,33.0437566 L33,35.5977878 L33.001,37.9998171 L31.001,37.9998171 L31,35.5967878 L26.259,33.0437566 L20.888,36.8808034 Z M31.001,53 L31,44.5978975 L18.525,37.8798156 C18.222,37.7168136 18.023,37.4078099 18.002,37.0628056 C17.98,36.7178014 18.138,36.3867974 18.419,36.1857949 L24.297,31.9877438 L18.526,28.8797059 C18.197,28.7037037 17.994,28.3576995 17.9998706,27.9846949 C18.006,27.6116904 18.219,27.2716862 18.553,27.1046842 L26.783,22.989634 L26.629,22.9286333 C26.249,22.7756314 26,22.4086269 26,21.9996219 L26,14.9995366 C26,14.5905316 26.249,14.2235271 26.629,14.0705253 L31.629,12.0705009 C31.867,11.9764997 32.133,11.9764997 32.371,12.0705009 L37.371,14.0705253 C37.751,14.2235271 38,14.5905316 38,14.9995366 L38,21.9996219 C38,22.4086269 37.751,22.7756314 37.371,22.9286333 L37.217,22.989634 L45.447,27.1046842 C45.781,27.2716862 45.994,27.6106904 46.0001294,27.9846949 C46.006,28.3576995 45.803,28.7037037 45.475,28.8797059 L39.703,31.9877438 L45.581,36.1857949 C45.862,36.3867974 46.02,36.7178014 45.998,37.0628056 C45.977,37.4078099 45.778,37.7168136 45.474,37.8798156 L33,44.5968975 L33.001,53 L31.001,53 Z" id="AWS-Elemental-MediaTailor_Icon_48_Squid" fill="#FFFFFF"></path>
    </g>
</svg>