<?xml version="1.0" encoding="UTF-8"?>
<svg width="64px" height="64px" viewBox="0 0 64 64" version="1.1" xmlns="http://www.w3.org/2000/svg" xmlns:xlink="http://www.w3.org/1999/xlink">
    <!-- Generator: Sketch 64 (93537) - https://sketch.com -->
    <title>Icon-Architecture/48/Arch_AWS-Elemental-MediaConvert_48</title>
    <desc>Created with Sketch.</desc>
    <defs>
        <linearGradient x1="0%" y1="100%" x2="100%" y2="0%" id="linearGradient-1">
            <stop stop-color="#C8511B" offset="0%"></stop>
            <stop stop-color="#FF9900" offset="100%"></stop>
        </linearGradient>
    </defs>
    <g id="Icon-Architecture/48/Arch_AWS-Elemental-MediaConvert_48" stroke="none" stroke-width="1" fill="none" fill-rule="evenodd">
        <g id="Icon-Architecture-BG/48/Media-Services" fill="url(#linearGradient-1)">
            <rect id="Rectangle" x="0" y="0" width="64" height="64"></rect>
        </g>
        <path d="M32,28.1200591 L29,29.6202296 L29,34.384771 L32,35.8849415 L35,34.384771 L35,29.6202296 L32,28.1200591 Z M32.447,26.1068303 L35.928,27.8480282 L38.445,26.1698375 L39.555,27.8340266 L37,29.5372201 L37,35.0028412 C37,35.3818843 36.786,35.7279236 36.447,35.8969428 L33,37.6211388 L33,40.8865098 L31,40.8865098 L31,37.6211388 L27.553,35.8969428 C27.214,35.7279236 27,35.3818843 27,35.0028412 L27,29.5372201 L24.445,27.8340266 L25.555,26.1698375 L28.072,27.8480282 L31.553,26.1068303 C31.834,25.9668144 32.166,25.9668144 32.447,26.1068303 L32.447,26.1068303 Z M42,25.5957722 L32,20.1401523 L22,25.5957722 L22,38.4092283 L32,43.8648483 L42,38.4092283 L42,25.5957722 Z M52,21.0012501 L52,27.001932 L50,27.001932 L50,22.619434 L44,25.619775 L44,39.0032958 C44,39.3693374 43.8,39.7053756 43.479,39.8813956 L33,45.5980452 L33,51.2996931 L37.168,48.9814297 L38.141,50.7296284 L32.486,53.8739857 C32.335,53.9579952 32.167,54 32,54 C31.833,54 31.665,53.9579952 31.514,53.8739857 L25.859,50.7296284 L26.832,48.9814297 L31,51.2996931 L31,45.5980452 L20.521,39.8813956 C20.2,39.7053756 20,39.3693374 20,39.0032958 L20,25.619775 L14,22.619434 L14,27.001932 L12,27.001932 L12,21.0012501 C12,20.6222071 12.214,20.2761677 12.553,20.1061484 L18.553,17.1058075 L19.447,18.8950108 L15.236,21.0012501 L20.979,23.8735765 L31.521,18.1229231 C31.818,17.9599045 32.182,17.9599045 32.479,18.1229231 L43.021,23.8735765 L48.764,21.0012501 L44.553,18.8950108 L45.447,17.1058075 L51.447,20.1061484 C51.786,20.2761677 52,20.6222071 52,21.0012501 L52,21.0012501 Z M50,42.3856802 L44.553,45.1089897 L45.447,46.898193 L51.447,43.897852 C51.786,43.7288328 52,43.3827935 52,43.0037504 L52,37.0030685 L50,37.0030685 L50,42.3856802 Z M32,12.1182407 L37.553,14.8945562 L38.447,13.1053529 L32.447,10.1050119 C32.166,9.96499602 31.834,9.96499602 31.553,10.1050119 L25.553,13.1053529 L26.447,14.8945562 L32,12.1182407 Z M14,42.3856802 L19.447,45.1089897 L18.553,46.898193 L12.553,43.897852 C12.214,43.7288328 12,43.3827935 12,43.0037504 L12,37.0030685 L14,37.0030685 L14,42.3856802 Z" id="AWS-Elemental-MediaConvert_Icon_48_Squid" fill="#FFFFFF"></path>
    </g>
</svg>