<?xml version="1.0" encoding="UTF-8"?>
<svg width="64px" height="64px" viewBox="0 0 64 64" version="1.1" xmlns="http://www.w3.org/2000/svg" xmlns:xlink="http://www.w3.org/1999/xlink">
    <title>Icon-Architecture/48/Arch_AWS-Elemental-Link_48</title>
    <defs>
        <linearGradient x1="0%" y1="100%" x2="100%" y2="0%" id="linearGradient-1">
            <stop stop-color="#C8511B" offset="0%"></stop>
            <stop stop-color="#FF9900" offset="100%"></stop>
        </linearGradient>
    </defs>
    <g id="Icon-Architecture/48/Arch_AWS-Elemental-Link_48" stroke="none" stroke-width="1" fill="none" fill-rule="evenodd">
        <g id="Rectangle" fill="url(#linearGradient-1)">
            <rect x="0" y="0" width="64" height="64"></rect>
        </g>
        <g id="Icon-Service/48/AWS-Elemental-Link_48" transform="translate(8.000000, 8.000000)" fill="#FFFFFF">
            <path d="M19.7285,6.6213 L18.7285,4.8893 L23.4995,2.1343 C23.8085,1.9553 24.1915,1.9553 24.4995,2.1343 L29.2725,4.8893 L28.2725,6.6213 L23.9995,4.1553 L19.7285,6.6213 Z M27.9995,37.3743 L23.9995,39.6843 L19.9995,37.3743 L19.9995,32.7553 L23.9995,30.4463 L27.9995,32.7553 L27.9995,37.3743 Z M29.9995,32.1783 C29.9995,31.8213 29.8095,31.4913 29.4995,31.3123 L24.4995,28.4253 C24.1915,28.2463 23.8085,28.2463 23.4995,28.4253 L18.4995,31.3123 C18.1905,31.4913 17.9995,31.8213 17.9995,32.1783 L17.9995,33.5003 L4.9995,33.5003 L4.9995,35.5003 L17.9995,35.5003 L17.9995,37.9523 C17.9995,38.3093 18.1905,38.6393 18.4995,38.8183 L22.9995,41.4163 L22.9995,45.5003 L24.9995,45.5003 L24.9995,41.4163 L29.4995,38.8183 C29.8095,38.6393 29.9995,38.3093 29.9995,37.9523 L29.9995,35.5003 L42.9995,35.5003 L42.9995,33.5003 L29.9995,33.5003 L29.9995,32.1783 Z M33.9995,21.5003 L38.9995,21.5003 L38.9995,19.5003 L33.9995,19.5003 L33.9995,21.5003 Z M33.9995,16.5003 L38.9995,16.5003 L38.9995,14.5003 L33.9995,14.5003 L33.9995,16.5003 Z M9.9995,15.5003 L22.9995,15.5003 L22.9995,13.5003 L9.9995,13.5003 L9.9995,15.5003 Z M6.9995,24.5003 L41.9995,24.5003 L41.9995,11.5003 L6.9995,11.5003 L6.9995,24.5003 Z M42.9995,9.5003 L5.9995,9.5003 C5.4475,9.5003 4.9995,9.9483 4.9995,10.5003 L4.9995,25.5003 C4.9995,26.0523 5.4475,26.5003 5.9995,26.5003 L42.9995,26.5003 C43.5525,26.5003 43.9995,26.0523 43.9995,25.5003 L43.9995,10.5003 C43.9995,9.9483 43.5525,9.5003 42.9995,9.5003 L42.9995,9.5003 Z" id="AWS-Elemental-Link_Icon_48_Squid"></path>
        </g>
    </g>
</svg>