<svg height="24" viewBox="0 0 24 24" width="24" xmlns="http://www.w3.org/2000/svg"><g fill="none" transform="translate(4.3125 1.96875)"><path d="m8.33766234.18539339 6.25324676 3.66013799c.4239663.23213419.6894862.67369674.6948052 1.15546889v8.03293043c-.0067685.4813633-.2718851.9222554-.6948052 1.1554689l-9.9635065 5.8257773c-.16123927.0950315-.36928394.042465-.46551948-.1176226-.02979567-.0504763-.04650994-.1075426-.04863637-.1660554v-3.5355964l-3.41844155-2.0065029c-.42292007-.2332135-.68803673-.6741056-.6948052-1.1554689v-8.03293043c.00531897-.48177215.27083885-.9233347.6948052-1.15546889l6.25324675-3.66013799c.42994695-.24719119.95966344-.24719119 1.38961039 0z" fill="#aecbfa"/><path d="m3.87952254 7.51077575c-.2071433 0-.37578754.16482432-.38195666.37047106l-.00017484.01168315.00011686 3.93313724.00124729.0411117c.0140403.2399191.14560781.4583134.35248257.5826405l.01455478.0085205 1.92367175 1.0977922v1.5408207l.00104816.0285198c.01458814.1977321.17963628.3536231.38109469.3536231.06207295 0 .12313137-.0151197.17792842-.0439496l.01356578-.0074923 5.10386006-2.9554178.0351461-.0213652c.2017676-.130565.326808-.3527605.3328712-.5940438l.0002294-.0168637v-3.94632717c0-.06676271-.0174908-.13236049-.0507304-.19026028-.1030175-.17944512-.3295288-.24370564-.5108491-.14713947l-.0108236.00598733-3.39415899 1.94855204-.02908133.01638412c-.11419685.05793708-.25049762.05492736-.36239795-.00902915l-.0123306-.00735497-3.39502649-1.94926068c-.05790682-.03324727-.12351449-.05073932-.1902871-.05073932z" fill="#669df6"/><path d="m7.9324653 3.09452966c-.14161657-.08119491-.31452707-.0842875-.45859885-.00907959l-.01385039.00752263-3.74223763 2.11293671c-.05972906.03372413-.10928008.08290297-.14345358.14237607-.103087.17940521-.04445328.40743784.1303244.51539532l.01062567.00633201 3.74158771 2.14993223c.14370794.08257519.31956752.0845859.46476665.00624096l.01395371-.00783261 3.68412381-2.14962493c.0577621-.0337032.1056682-.08197465.1389315-.13999111.1029168-.1795029.0440668-.40747982-.1308132-.51527148l-.0106316-.00632193z" fill="#185abc"/></g></svg>