<?xml version="1.0" encoding="UTF-8"?>
<svg width="80px" height="80px" viewBox="0 0 80 80" version="1.1" xmlns="http://www.w3.org/2000/svg" xmlns:xlink="http://www.w3.org/1999/xlink">
    <!-- Generator: Sketch 64 (93537) - https://sketch.com -->
    <title>Icon-Architecture/64/Arch_AWS-Sumerian_64</title>
    <desc>Created with Sketch.</desc>
    <defs>
        <linearGradient x1="0%" y1="100%" x2="100%" y2="0%" id="linearGradient-1">
            <stop stop-color="#B0084D" offset="0%"></stop>
            <stop stop-color="#FF4F8B" offset="100%"></stop>
        </linearGradient>
    </defs>
    <g id="Icon-Architecture/64/Arch_AWS-Sumerian_64" stroke="none" stroke-width="1" fill="none" fill-rule="evenodd">
        <g id="Icon-Architecture-BG/64/AR-VR" fill="url(#linearGradient-1)">
            <rect id="Rectangle" x="0" y="0" width="80" height="80"></rect>
        </g>
        <path d="M65,19 C65,16.757 63.243,15 61,15 C58.757,15 57,16.757 57,19 C57,21.243 58.757,23 61,23 C63.243,23 65,21.243 65,19 L65,19 Z M67,19 C67,22.364 64.364,25 61,25 C57.636,25 55,22.364 55,19 C55,15.636 57.636,13 61,13 C64.364,13 67,15.636 67,19 L67,19 Z M57,62.063 C57,59.785 55.243,58 53,58 C50.757,58 49,59.785 49,62.063 C49,64.271 50.757,66 53,66 C55.243,66 57,64.271 57,62.063 L57,62.063 Z M59,62.063 C59,65.392 56.364,68 53,68 C49.636,68 47,65.392 47,62.063 C47,58.72 49.691,56 53,56 C56.309,56 59,58.72 59,62.063 L59,62.063 Z M20,33 C22.243,33 24,31.243 24,29 C24,26.757 22.243,25 20,25 C17.757,25 16,26.757 16,29 C16,31.243 17.757,33 20,33 L20,33 Z M20,35 C16.636,35 14,32.364 14,29 C14,25.636 16.636,23 20,23 C23.364,23 26,25.636 26,29 C26,32.364 23.364,35 20,35 L20,35 Z M36.396,42.198 L32.129,44.806 L33.172,46.512 L37.438,43.904 L36.396,42.198 Z M30.613,48.077 L29.57,46.371 L25.304,48.979 L26.347,50.685 L30.613,48.077 Z M54.75,48.65 L50.424,46.145 L49.422,47.875 L53.748,50.381 L54.75,48.65 Z M43.501,42.135 L42.499,43.865 L46.825,46.371 L47.827,44.641 L43.501,42.135 Z M39,29 L41,29 L41,24 L39,24 L39,29 Z M39,37 L41,37 L41,32 L39,32 L39,37 Z M63,29 L63,54 C63,54.354 62.813,54.681 62.509,54.861 L58.509,57.225 L57.491,55.503 L60.016,54.011 L56.345,51.884 L57.347,50.154 L61,52.271 L61,30.68 L41,41.594 L41,65.234 L44.485,63.143 L45.515,64.857 L40.515,67.857 C40.356,67.953 40.178,68 40,68 C39.817,68 39.635,67.95 39.474,67.85 L18.474,54.85 C18.179,54.668 18,54.346 18,54 L18,38 L20,38 L20,52.222 L22.744,50.544 L23.787,52.25 L20.912,54.008 L39,65.205 L39,41.591 L26.049,34.47 L27.012,32.717 L40.002,39.86 L59.971,28.962 L41,17.752 L41,21 L39,21 L39,17.79 L27.524,24.852 L26.476,23.148 L39.476,15.148 C39.794,14.954 40.19,14.951 40.509,15.139 L62.509,28.139 C62.813,28.319 63,28.646 63,29 L63,29 Z" id="AWS-Sumerian_Icon_64_Squid" fill="#FFFFFF"></path>
    </g>
</svg>