<svg id="f94984c6-afd2-49c1-8e91-2e2f964b8124" xmlns="http://www.w3.org/2000/svg" width="18" height="18" viewBox="0 0 18 18"><defs><linearGradient id="a318d17a-947d-498f-80c1-0e0bae8f5723" x1="8.999" y1="-3108.081" x2="8.999" y2="-3125.919" gradientTransform="matrix(1, 0, 0, -1, 0, -3108)" gradientUnits="userSpaceOnUse"><stop offset="0" stop-color="#b3b2b3" /><stop offset="0.216" stop-color="#afaeaf" /><stop offset="0.44" stop-color="#a2a2a2" /><stop offset="0.577" stop-color="#979797" /></linearGradient></defs><g id="a96c4dc0-0b65-4066-a8fa-5efc74b0b38e"><path d="M.407,6.621a8.914,8.914,0,0,1,17.183,0h-1.7a7.293,7.293,0,0,0-13.789,0Zm15.451,4.863a7.295,7.295,0,0,1-13.718,0H.437a8.914,8.914,0,0,0,17.123,0Z" fill="url(#a318d17a-947d-498f-80c1-0e0bae8f5723)" /><path d="M9.64,13.141,7.5,8.33,6.6,9.885H1.093a.811.811,0,0,1,0-1.622H5.666l2.025-3.5,2.332,5.246L11.4,8.246l5.51.012a.811.811,0,0,1,0,1.622h0l-4.716-.011Z" fill="#50e6ff" /></g></svg>