<svg id="e2354665-da3e-47da-bdbf-c0a061b5d0b5" data-name="Layer 1" xmlns="http://www.w3.org/2000/svg" xmlns:xlink="http://www.w3.org/1999/xlink" width="18" height="18" viewBox="0 0 18 18"><defs><linearGradient id="a2ce308d-2865-4d56-bfb4-da21e9e9e552" x1="8.992" y1="16.975" x2="8.992" y2="0.242" gradientUnits="userSpaceOnUse"><stop offset="0" stop-color="#b3b2b3" /><stop offset="0.31" stop-color="#9e9e9e" /><stop offset="0.54" stop-color="#949494" /></linearGradient></defs><g><circle cx="10.1" cy="8.05" r="1.43" fill="#fff" /><circle cx="12.5" cy="12.31" r="1.12" fill="#fff" /><circle cx="8.04" cy="11.54" r="0.97" fill="#fff" /><circle cx="7.35" cy="4.18" r="1.2" fill="#fff" /><circle cx="4.13" cy="8.59" r="0.97" fill="#fff" /></g><path d="M12.76,12.08,10.34,7.85l-.24.13.2-.14L7.56,3.94l-.5.36L9.49,7.75,4.11,8.2l.05.62,5.33-.45L7.72,11.31l.53.32,1.82-3.02,2.16,3.77.54-.3Z" fill="#989898" /><g><circle cx="10.09" cy="8.06" r="1.42" fill="#32bedd" /><circle cx="7.35" cy="4.18" r="1.2" fill="#32bedd" /><circle cx="4.13" cy="8.59" r="0.97" fill="#32bedd" /><circle cx="8.04" cy="11.54" r="0.97" fill="#32bedd" /><circle cx="12.5" cy="12.31" r="1.12" fill="#32bedd" /></g><circle cx="15.05" cy="3.85" r="1.42" fill="#198ab3" /><circle cx="3.17" cy="3.85" r="1.42" fill="#198ab3" /><circle cx="9.01" cy="16.33" r="1.42" fill="#198ab3" /><path d="M4.94,3.12a6.881,6.881,0,0,1,8.29.12,1.918,1.918,0,0,1,1-1.15A8.431,8.431,0,0,0,3.81,2,1.941,1.941,0,0,1,4.94,3.12ZM16.6,5a1.91,1.91,0,0,1-1.34.76,6.842,6.842,0,0,1,.67,3,6.92,6.92,0,0,1-5.22,6.7,1.871,1.871,0,0,1,.24.91,1.765,1.765,0,0,1-.13.65A8.45,8.45,0,0,0,16.59,5ZM7.1,16.32a1.95,1.95,0,0,1,.23-.9A6.909,6.909,0,0,1,2.77,5.73a2,2,0,0,1-1-.53,1.676,1.676,0,0,1-.3-.4A8.47,8.47,0,0,0,7.21,17a1.926,1.926,0,0,1-.12-.68Z" fill="url(#a2ce308d-2865-4d56-bfb4-da21e9e9e552)" /></svg>