<svg xmlns="http://www.w3.org/2000/svg" width="24px" height="24px" viewBox="0 0 24 24"><defs><style>.cls-1{fill:#669df6;}.cls-2{fill:#4285f4;}.cls-3{fill:#aecbfa;}</style></defs><title>Icon_24px_MicrosoftAd_Color</title><g data-name="Product Icons"><g ><g ><polygon id="Fill-1" class="cls-1" points="11 2 11 22 21 14 11 2"/><polygon id="Fill-2" class="cls-2" points="11 2 10.02 3.17 18.87 13.78 10.07 20.83 11.01 22 21 13.99 11 2"/><g ><path id="Fill-3" class="cls-1" d="M11,2,7,6.75a3.11,3.11,0,0,1,1.11,1L11,4.34V2Z"/><path id="Fill-5" class="cls-1" d="M8.35,18a2.93,2.93,0,0,1-.92,1.19L11,22h0V20.08Z"/></g></g></g><path id="Fill-7" class="cls-3" d="M6,10A1,1,0,1,1,7,9a1,1,0,0,1-1,1M6,6A3,3,0,1,0,9,9,3,3,0,0,0,6,6"/><path id="Fill-7-2" data-name="Fill-7" class="cls-3" d="M6,18a1,1,0,1,1,1-1,1,1,0,0,1-1,1m0-4a3,3,0,1,0,3,3,3,3,0,0,0-3-3"/></g></svg>