<svg xmlns="http://www.w3.org/2000/svg" width="24px" height="24px" viewBox="0 0 24 24"><defs><style>.cls-1{fill:#4285f4;}.cls-2{fill:#669df6;}.cls-3{fill:#aecbfa;}</style></defs><title>Icon_24px_AutoMLIntelligence_Color</title><g data-name="Product Icons"><g ><path class="cls-1" d="M6.83,19.46l1,1.65h9.48L22,12.89,20.1,9.6l-4.74,8.21H7.78Z"/><path class="cls-1" d="M17.17,4.54l-1-1.65H6.74L2,11.11,3.9,14.4,8.65,6.19h7.58Z"/></g><g ><polygon class="cls-2" points="15.47 9.99 14.14 10.98 14.14 13.06 15.47 14.06 15.47 9.99"/><polygon class="cls-3" points="10.79 12.3 10.41 12.99 9.5 12.99 10.07 12.01 9.5 11.01 10.41 11.01 10.79 11.65 13.29 11.65 13.29 9.62 11.26 9.62 11.69 10.3 12.44 10.3 12.44 11.04 11.22 11.04 10.31 9.62 8.53 9.62 8.53 14.38 10.31 14.38 11.22 12.96 12.44 12.96 12.44 13.7 11.69 13.7 11.26 14.38 13.29 14.38 13.29 12.3 10.79 12.3"/></g></g></svg>