<svg height="24" viewBox="0 0 24 24" width="24" xmlns="http://www.w3.org/2000/svg"><path d="m18.4638408 13.9406954 3.5986592 3.6511337-3.6025784 3.6005562-1.0308006-1.0616774 1.798379-1.7980034-17.165.000286v-1.4902758l17.184-.0000102-1.8212982-1.8482249zm-8.0927902-6.3656338c3.2163231 0 5.8236682 2.6480263 5.8236682 5.9145324 0 .9362773-.2142104 1.8217424-.5955727 2.6086027h-10.45619109c-.38136229-.7868603-.5955727-1.6723254-.5955727-2.6086027 0-3.2665061 2.60734509-5.9145324 5.82366829-5.9145324zm-6.33058135-2.15738591 1.74096349 1.79017192-1.04557261 1.04670225-1.7409635-1.79017192zm12.74035815-.00752539 1.0316589 1.06081882-1.7644434 1.76634967-1.0316589-1.06081882zm-7.09861285-2.21776503 1.46882455.00998192-.0166028 2.51484053-1.46882453-.00998192z" fill="#4285f4"/></svg>