<svg width="24" height="24" viewBox="0 0 44 96" fill="none" xmlns="http://www.w3.org/2000/svg">
  <path d="M36.1955 16.7923C36.1955 20.7524 34.5939 24.5503 31.7431 27.3505C28.8923 30.1507 25.0258 31.7238 20.9942 31.7238C16.9625 31.7238 13.096 30.1507 10.2452 27.3505C7.39441 24.5503 5.79285 20.7524 5.79285 16.7923C5.79285 12.8322 7.39441 9.03436 10.2452 6.23417C13.096 3.43397 16.9625 1.86084 20.9942 1.86084C25.0258 1.86084 28.8923 3.43397 31.7431 6.23417C34.5939 9.03436 36.1955 12.8322 36.1955 16.7923V16.7923Z" stroke="black" stroke-width="4"/>
  <path d="M0.195435 44.8612L42.8101 44.8296M20.9886 32.2659V78.3225V32.2659ZM20.9886 77.7543L1.1917 94.2955L20.9886 77.7543ZM21.0207 77.7543L42.7458 93.2223L21.0207 77.7543Z" stroke="black" stroke-width="4"/>
</svg>
