<svg width="77" height="86" viewBox="0 0 77 86" fill="none" xmlns="http://www.w3.org/2000/svg">
	<g clip-path="url(#clip0_544_57)">
		<path d="M74.0149 46.8888C74.0149 51.5755 73.0918 56.2163 71.2983 60.5463C69.5048 64.8762 66.876 68.8105 63.562 72.1245C60.248 75.4385 56.3137 78.0673 51.9838 79.8608C47.6538 81.6543 43.013 82.5774 38.3263 82.5774C33.6396 82.5774 28.9988 81.6543 24.6689 79.8608C20.3389 78.0673 16.4046 75.4385 13.0907 72.1245C9.77666 68.8105 7.14785 64.8762 5.35433 60.5463C3.56081 56.2163 2.6377 51.5755 2.6377 46.8888C2.6377 42.2021 3.56081 37.5613 5.35433 33.2314C7.14785 28.9014 9.77666 24.9671 13.0907 21.6532C16.4046 18.3392 20.3389 15.7104 24.6689 13.9168C28.9988 12.1233 33.6396 11.2002 38.3263 11.2002C43.013 11.2002 47.6538 12.1233 51.9838 13.9168C56.3137 15.7104 60.248 18.3392 63.562 21.6532C66.876 24.9671 69.5048 28.9014 71.2983 33.2314C73.0918 37.5613 74.0149 42.2021 74.0149 46.8888V46.8888Z" stroke="black" stroke-width="4.98203"/>
		<path d="M47.5352 2.30371L37.5352 11.5001L47.5352 20.6966" stroke="black" stroke-width="6"/>
	</g>
	<defs>
		<clipPath id="clip0_544_57">
			<rect width="77" height="86" fill="white"/>
		</clipPath>
	</defs>
</svg>
