<?xml version="1.0" encoding="UTF-8"?>
<svg width="40px" height="40px" viewBox="0 0 40 40" version="1.1" xmlns="http://www.w3.org/2000/svg" xmlns:xlink="http://www.w3.org/1999/xlink">
    <!-- Generator: Sketch 64 (93537) - https://sketch.com -->
    <title>Icon-Architecture/32/Arch_AWS-Express-Workflow_32</title>
    <desc>Created with Sketch.</desc>
    <defs>
        <linearGradient x1="0%" y1="100%" x2="100%" y2="0%" id="linearGradient-1">
            <stop stop-color="#B0084D" offset="0%"></stop>
            <stop stop-color="#FF4F8B" offset="100%"></stop>
        </linearGradient>
    </defs>
    <g id="Icon-Architecture/32/Arch_AWS-Express-Workflow_32" stroke="none" stroke-width="1" fill="none" fill-rule="evenodd">
        <g id="Icon-Architecture-BG/32/Application-Integration" fill="url(#linearGradient-1)">
            <rect id="Rectangle" x="0" y="0" width="40" height="40"></rect>
        </g>
        <path d="M31.8488648,22 L21.8838648,22 L22.9558648,18 L32.9208648,18 L31.8488648,22 Z M33.5728648,17 L22.5728648,17 C22.3458648,17 22.1478648,17.152 22.0888648,17.371 L20.7488648,22.371 C20.7088648,22.521 20.7418648,22.681 20.8358648,22.804 C20.9308648,22.928 21.0778648,23 21.2328648,23 L32.2328648,23 C32.4588648,23 32.6578648,22.848 32.7158648,22.629 L34.0558648,17.629 C34.0958648,17.479 34.0638648,17.319 33.9688648,17.196 C33.8738648,17.072 33.7278648,17 33.5728648,17 L33.5728648,17 Z M21.4028648,31.5 C21.4028648,32.327 20.7298648,33 19.9028648,33 C19.0758648,33 18.4028648,32.327 18.4028648,31.5 C18.4028648,30.673 19.0758648,30 19.9028648,30 C20.7298648,30 21.4028648,30.673 21.4028648,31.5 L21.4028648,31.5 Z M6.15186477,24 L6.68886477,22 L15.6538648,22 L15.1168648,24 L6.15186477,24 Z M6.15186477,18 L6.68886477,16 L10.4028648,16 L11.4028648,16 L15.6538648,16 L15.1168648,18 L6.15186477,18 Z M18.4028648,8.5 C18.4028648,7.673 19.0758648,7 19.9028648,7 C20.7298648,7 21.4028648,7.673 21.4028648,8.5 C21.4028648,9.327 20.7298648,10 19.9028648,10 C19.0758648,10 18.4028648,9.327 18.4028648,8.5 L18.4028648,8.5 Z M27.4028648,27 L11.4028648,27 L11.4028648,25 L15.4998648,25 C15.7268648,25 15.9238648,24.848 15.9838648,24.629 L16.7878648,21.629 C16.8278648,21.479 16.7958648,21.319 16.7018648,21.196 C16.6068648,21.072 16.4598648,21 16.3048648,21 L11.4028648,21 L11.4028648,19 L15.4998648,19 C15.7268648,19 15.9238648,18.848 15.9838648,18.629 L16.7878648,15.629 C16.8278648,15.479 16.7958648,15.319 16.7018648,15.196 C16.6068648,15.072 16.4598648,15 16.3048648,15 L11.4028648,15 L11.4028648,13 L27.4028648,13 L27.4028648,15 L28.4028648,15 L28.4028648,12.5 C28.4028648,12.224 28.1788648,12 27.9028648,12 L20.4028648,12 L20.4028648,10.949 C21.5418648,10.717 22.4028648,9.707 22.4028648,8.5 C22.4028648,7.122 21.2818648,6 19.9028648,6 C18.5238648,6 17.4028648,7.122 17.4028648,8.5 C17.4028648,9.707 18.2628648,10.717 19.4028648,10.949 L19.4028648,12 L10.9028648,12 C10.6258648,12 10.4028648,12.224 10.4028648,12.5 L10.4028648,15 L6.30486477,15 C6.07786477,15 5.88086477,15.152 5.82186477,15.371 L5.01686477,18.371 C4.97686477,18.521 5.00886477,18.681 5.10386477,18.804 C5.19886477,18.928 5.34486477,19 5.49986477,19 L10.4028648,19 L10.4028648,21 L6.30486477,21 C6.07786477,21 5.88086477,21.152 5.82186477,21.371 L5.01686477,24.371 C4.97686477,24.521 5.00886477,24.681 5.10386477,24.804 C5.19886477,24.928 5.34486477,25 5.49986477,25 L10.4028648,25 L10.4028648,27.5 C10.4028648,27.776 10.6258648,28 10.9028648,28 L19.4028648,28 L19.4028648,29.051 C18.2628648,29.283 17.4028648,30.293 17.4028648,31.5 C17.4028648,32.878 18.5238648,34 19.9028648,34 C21.2818648,34 22.4028648,32.878 22.4028648,31.5 C22.4028648,30.293 21.5418648,29.283 20.4028648,29.051 L20.4028648,28 L27.9028648,28 C28.1788648,28 28.4028648,27.776 28.4028648,27.5 L28.4028648,25 L27.4028648,25 L27.4028648,27 Z" id="AWS-Express-Workflow-Icon_32_Squid" fill="#FFFFFF"></path>
    </g>
</svg>