<?xml version="1.0" encoding="UTF-8"?>
<svg width="40px" height="40px" viewBox="0 0 40 40" version="1.1" xmlns="http://www.w3.org/2000/svg" xmlns:xlink="http://www.w3.org/1999/xlink">
    <title>Icon-Architecture/32/Arch_CN-Pinwheel_32</title>
    <defs>
        <linearGradient x1="0%" y1="100%" x2="100%" y2="0%" id="linearGradient-1">
            <stop stop-color="#B0084D" offset="0%"></stop>
            <stop stop-color="#FF4F8B" offset="100%"></stop>
        </linearGradient>
    </defs>
    <g id="Icon-Architecture/32/Arch_CN-Pinwheel_32" stroke="none" stroke-width="1" fill="none" fill-rule="evenodd">
        <g id="Rectangle" fill="url(#linearGradient-1)">
            <rect x="0" y="0" width="40" height="40"></rect>
        </g>
        <g id="Icon-Service/32/CN-Pinwheel_32" transform="translate(4.000000, 4.000000)" fill="#FFFFFF">
            <path d="M26.5,26 C25.121,26 24,24.878 24,23.5 C24,22.122 25.121,21 26.5,21 C27.879,21 29,22.122 29,23.5 C29,24.878 27.879,26 26.5,26 L26.5,26 Z M26.5,20 C24.57,20 23,21.57 23,23.5 C23,25.43 24.57,27 26.5,27 C28.43,27 30,25.43 30,23.5 C30,21.57 28.43,20 26.5,20 L26.5,20 Z M26.5,18 C25.121,18 24,16.878 24,15.5 C24,14.122 25.121,13 26.5,13 C27.879,13 29,14.122 29,15.5 C29,16.878 27.879,18 26.5,18 L26.5,18 Z M26.5,12 C24.57,12 23,13.57 23,15.5 C23,17.43 24.57,19 26.5,19 C28.43,19 30,17.43 30,15.5 C30,13.57 28.43,12 26.5,12 L26.5,12 Z M26.5,10 C25.121,10 24,8.878 24,7.5 C24,6.122 25.121,5 26.5,5 C27.879,5 29,6.122 29,7.5 C29,8.878 27.879,10 26.5,10 L26.5,10 Z M26.5,4 C24.57,4 23,5.57 23,7.5 C23,9.43 24.57,11 26.5,11 C28.43,11 30,9.43 30,7.5 C30,5.57 28.43,4 26.5,4 L26.5,4 Z M30,2 L30,3 L21,3 L21,29 L30,29 L30,30 L20.5,30 C20.224,30 20,29.776 20,29.5 L20,16 L13,16 L13,15 L20,15 L20,2.5 C20,2.224 20.224,2 20.5,2 L30,2 Z M3,18.691 L3,12.309 L9.382,15.5 L3,18.691 Z M10.724,15.053 L2.724,11.053 C2.569,10.975 2.384,10.983 2.237,11.075 C2.09,11.166 2,11.327 2,11.5 L2,19.5 C2,19.673 2.09,19.834 2.237,19.925 C2.317,19.975 2.408,20 2.5,20 C2.576,20 2.653,19.982 2.724,19.947 L10.724,15.947 C10.893,15.862 11,15.689 11,15.5 C11,15.311 10.893,15.138 10.724,15.053 L10.724,15.053 Z M6.5,29 C4.57,29 3,27.43 3,25.5 C3,23.57 4.57,22 6.5,22 C8.43,22 10,23.57 10,25.5 C10,27.43 8.43,29 6.5,29 L6.5,29 Z M6.5,21 C4.019,21 2,23.019 2,25.5 C2,27.981 4.019,30 6.5,30 C8.981,30 11,27.981 11,25.5 C11,23.019 8.981,21 6.5,21 L6.5,21 Z M3,9 L9,9 L9,3 L3,3 L3,9 Z M2.5,10 L9.5,10 C9.776,10 10,9.776 10,9.5 L10,2.5 C10,2.224 9.776,2 9.5,2 L2.5,2 C2.224,2 2,2.224 2,2.5 L2,9.5 C2,9.776 2.224,10 2.5,10 L2.5,10 Z" id="Fill-5"></path>
        </g>
    </g>
</svg>