<?xml version="1.0" encoding="UTF-8"?>
<svg width="40px" height="40px" viewBox="0 0 40 40" version="1.1" xmlns="http://www.w3.org/2000/svg" xmlns:xlink="http://www.w3.org/1999/xlink">
    <!-- Generator: Sketch 64 (93537) - https://sketch.com -->
    <title>Icon-Architecture/32/Arch_AWS-AppSync_32</title>
    <desc>Created with Sketch.</desc>
    <defs>
        <linearGradient x1="0%" y1="100%" x2="100%" y2="0%" id="linearGradient-1">
            <stop stop-color="#B0084D" offset="0%"></stop>
            <stop stop-color="#FF4F8B" offset="100%"></stop>
        </linearGradient>
    </defs>
    <g id="Icon-Architecture/32/Arch_AWS-AppSync_32" stroke="none" stroke-width="1" fill="none" fill-rule="evenodd">
        <g id="Icon-Architecture-BG/32/Application-Integration" fill="url(#linearGradient-1)">
            <rect id="Rectangle" x="0" y="0" width="40" height="40"></rect>
        </g>
        <g id="Icon-Service/32/AWS-AppSync" transform="translate(4.000000, 4.000000)" fill="#FFFFFF">
            <path d="M29.5788116,10.527087 L27.8138319,9.72520341 C30.3509903,14.40631 29.6600408,20.411067 25.9174815,24.5842153 C23.3442212,27.4534397 19.6197128,29 15.8340317,29 C13.9507181,29 12.052362,28.6173052 10.2723398,27.8242986 L10.6855055,26.9257549 C15.6465026,29.1361131 21.6003008,27.9051774 25.1653594,23.9322534 C28.6812793,20.0116047 29.2950109,14.349103 26.8270477,9.9984159 L26.5221876,12.120991 L25.5293865,11.9829052 L26.0247842,8.5248438 C26.0478493,8.3699905 26.1421153,8.23585007 26.2815085,8.16088924 C26.4209018,8.08592841 26.5893772,8.08099678 26.7317789,8.14609434 L30,9.63150237 L29.5788116,10.527087 Z M6.87475377,8.06225657 C3.3467999,11.9967138 2.75312489,16.8760721 5.1879947,21.0748649 L5.47179542,18.8931102 L6.4666022,19.0183737 L6.00730633,22.5533686 C5.98724974,22.7101946 5.89097812,22.8482803 5.74857634,22.9242275 C5.67436696,22.9636805 5.59213495,22.9834071 5.50990294,22.9834071 C5.43569356,22.9834071 5.36148419,22.9676258 5.29228896,22.9350771 L2,21.3727355 L2.43522796,20.4850415 L4.17413416,21.3096106 C1.68410874,16.7942069 2.36202142,11.6031695 6.12263171,7.41029461 C9.97048816,3.12174607 16.3875936,1.79217767 21.7206404,4.16922504 L21.3074747,5.06776867 C16.3655313,2.8643148 10.4327925,4.09722319 6.87475377,8.06225657 L6.87475377,8.06225657 Z M10.4087246,19.4898378 C10.4087246,18.8102587 10.9703091,18.2569295 11.6622614,18.2569295 C12.3532108,18.2569295 12.9157981,18.8102587 12.9157981,19.4898378 C12.9157981,20.1704033 12.3532108,20.7227462 11.6622614,20.7227462 C10.9703091,20.7227462 10.4087246,20.1704033 10.4087246,19.4898378 L10.4087246,19.4898378 Z M15.6896243,13.5028347 C15.8921958,13.561028 16.1017872,13.6024537 16.3214068,13.6024537 C16.5279897,13.6024537 16.7245442,13.5659596 16.914079,13.5146706 L18.9929444,17.7154361 C18.5687475,18.0251427 18.2588732,18.4749077 18.1375309,18.9966745 L13.857455,18.9966745 C13.7391211,18.4867436 13.4392751,18.0478282 13.0311235,17.7381216 L15.6896243,13.5028347 Z M16.3214068,10.1493239 C17.0133591,10.1493239 17.5759464,10.7026532 17.5759464,11.3822323 C17.5759464,12.0627977 17.0133591,12.616127 16.3214068,12.616127 C15.6304574,12.616127 15.0678701,12.0627977 15.0678701,11.3822323 C15.0678701,10.7026532 15.6304574,10.1493239 16.3214068,10.1493239 L16.3214068,10.1493239 Z M21.5862612,19.4898378 C21.5862612,20.1704033 21.0246768,20.7227462 20.3327245,20.7227462 C19.641775,20.7227462 19.0791877,20.1704033 19.0791877,19.4898378 C19.0791877,18.8102587 19.641775,18.2569295 20.3327245,18.2569295 C21.0246768,18.2569295 21.5862612,18.8102587 21.5862612,19.4898378 L21.5862612,19.4898378 Z M13.857455,19.9830012 L18.1375309,19.9830012 C18.366176,20.9693279 19.2627055,21.7090729 20.3327245,21.7090729 C21.5772358,21.7090729 22.5890906,20.7138693 22.5890906,19.4898378 C22.5890906,18.2667927 21.5772358,17.2706027 20.3327245,17.2706027 C20.1873142,17.2706027 20.0459153,17.2873703 19.9085276,17.3130148 L17.7985745,13.0481381 C18.2729129,12.6407852 18.5787758,12.0489891 18.5787758,11.3822323 C18.5787758,10.1582008 17.5659181,9.16299718 16.3214068,9.16299718 C15.0778984,9.16299718 14.0650407,10.1582008 14.0650407,11.3822323 C14.0650407,12.0332079 14.356864,12.6141543 14.8121486,13.0205209 L12.1165431,17.3159738 C11.9691272,17.286384 11.8176999,17.2706027 11.6622614,17.2706027 C10.4187529,17.2706027 9.4058952,18.2667927 9.4058952,19.4898378 C9.4058952,20.7138693 10.4187529,21.7090729 11.6622614,21.7090729 C12.7322804,21.7090729 13.6288099,20.9693279 13.857455,19.9830012 L13.857455,19.9830012 Z" id="AWS-AppSync-Icon_32_Squid"></path>
        </g>
    </g>
</svg>