<?xml version="1.0" encoding="UTF-8"?>
<svg width="40px" height="40px" viewBox="0 0 40 40" version="1.1" xmlns="http://www.w3.org/2000/svg" xmlns:xlink="http://www.w3.org/1999/xlink">
    <!-- Generator: Sketch 64 (93537) - https://sketch.com -->
    <title>Icon-Architecture/32/Arch_Amazon-MQ_32</title>
    <desc>Created with Sketch.</desc>
    <defs>
        <linearGradient x1="0%" y1="100%" x2="100%" y2="0%" id="linearGradient-1">
            <stop stop-color="#B0084D" offset="0%"></stop>
            <stop stop-color="#FF4F8B" offset="100%"></stop>
        </linearGradient>
    </defs>
    <g id="Icon-Architecture/32/Arch_Amazon-MQ_32" stroke="none" stroke-width="1" fill="none" fill-rule="evenodd">
        <g id="Icon-Architecture-BG/32/Application-Integration" fill="url(#linearGradient-1)">
            <rect id="Rectangle" x="0" y="0" width="40" height="40"></rect>
        </g>
        <path d="M9.726,25.2816449 L8.863,25.7860948 C8.458,25.0972117 8.119,24.3664572 7.854,23.6127732 L8.797,23.2827873 C9.041,23.9756581 9.354,24.6485903 9.726,25.2816449 L9.726,25.2816449 Z M8.824,16.6372086 L7.882,16.300244 C8.136,15.5984007 8.455,14.9135054 8.83,14.2644997 L9.696,14.762968 C9.35,15.3601329 9.057,15.9911937 8.824,16.6372086 L8.824,16.6372086 Z M14.99,9.99860844 L14.58,9.08940236 C17.826,7.63686588 21.626,7.63686588 24.872,9.08940236 L24.462,9.99860844 C21.478,8.66271354 17.974,8.66271354 14.99,9.99860844 L14.99,9.99860844 Z M29.756,14.762968 L30.622,14.2644997 C30.998,14.9164962 31.318,15.6013916 31.569,16.301241 L30.627,16.6372086 C30.396,15.9931876 30.103,15.3631237 29.756,14.762968 L29.756,14.762968 Z M30.655,23.2827873 L31.598,23.6127732 C31.341,24.3425308 31.013,25.0543434 30.622,25.7292694 L29.756,25.2308012 C30.116,24.6097097 30.418,23.9537255 30.655,23.2827873 L30.655,23.2827873 Z M24.462,29.9961576 L24.872,30.9053637 C23.248,31.6321304 21.517,32 19.726,32 C17.935,32 16.204,31.6321304 14.58,30.9053637 L14.99,29.9961576 C17.976,31.3320525 21.476,31.3320525 24.462,29.9961576 L24.462,29.9961576 Z M11.5,29.4289008 C10.673,29.4289008 10,28.7579625 10,27.933496 C10,27.1090295 10.673,26.4380913 11.5,26.4380913 C12.328,26.4380913 13,27.1090295 13,27.933496 C13,28.7579625 12.328,29.4289008 11.5,29.4289008 L11.5,29.4289008 Z M11.5,25.4411548 C10.122,25.4411548 9,26.5597175 9,27.933496 C9,29.3082715 10.122,30.4258373 11.5,30.4258373 C12.879,30.4258373 14,29.3082715 14,27.933496 C14,26.5597175 12.879,25.4411548 11.5,25.4411548 L11.5,25.4411548 Z M27.5,29.4289008 C26.673,29.4289008 26,28.7579625 26,27.933496 C26,27.1090295 26.673,26.4380913 27.5,26.4380913 C28.328,26.4380913 29,27.1090295 29,27.933496 C29,28.7579625 28.328,29.4289008 27.5,29.4289008 L27.5,29.4289008 Z M27.5,25.4411548 C26.122,25.4411548 25,26.5597175 25,27.933496 C25,29.3082715 26.122,30.4258373 27.5,30.4258373 C28.879,30.4258373 30,29.3082715 30,27.933496 C30,26.5597175 28.879,25.4411548 27.5,25.4411548 L27.5,25.4411548 Z M31.5,21.4534088 C30.673,21.4534088 30,20.7824705 30,19.9580041 C30,19.1335376 30.673,18.4625993 31.5,18.4625993 C32.328,18.4625993 33,19.1335376 33,19.9580041 C33,20.7824705 32.328,21.4534088 31.5,21.4534088 L31.5,21.4534088 Z M31.5,17.4656628 C30.122,17.4656628 29,18.5842256 29,19.9580041 C29,21.3327795 30.122,22.4503453 31.5,22.4503453 C32.879,22.4503453 34,21.3327795 34,19.9580041 C34,18.5842256 32.879,17.4656628 31.5,17.4656628 L31.5,17.4656628 Z M11.5,10.5658653 C12.328,10.5658653 13,11.2368036 13,12.0612701 C13,12.8857365 12.328,13.5566748 11.5,13.5566748 C10.673,13.5566748 10,12.8857365 10,12.0612701 C10,11.2368036 10.673,10.5658653 11.5,10.5658653 L11.5,10.5658653 Z M11.5,14.5536113 C12.879,14.5536113 14,13.4350485 14,12.0612701 C14,10.6864946 12.879,9.56892881 11.5,9.56892881 C10.122,9.56892881 9,10.6864946 9,12.0612701 C9,13.4350485 10.122,14.5536113 11.5,14.5536113 L11.5,14.5536113 Z M27.5,10.5658653 C28.328,10.5658653 29,11.2368036 29,12.0612701 C29,12.8857365 28.328,13.5566748 27.5,13.5566748 C26.673,13.5566748 26,12.8857365 26,12.0612701 C26,11.2368036 26.673,10.5658653 27.5,10.5658653 L27.5,10.5658653 Z M27.5,14.5536113 C28.879,14.5536113 30,13.4350485 30,12.0612701 C30,10.6864946 28.879,9.56892881 27.5,9.56892881 C26.122,9.56892881 25,10.6864946 25,12.0612701 C25,13.4350485 26.122,14.5536113 27.5,14.5536113 L27.5,14.5536113 Z M8.5,21.4534088 C7.673,21.4534088 7,20.7824705 7,19.9580041 C7,19.1335376 7.673,18.4625993 8.5,18.4625993 C9.328,18.4625993 10,19.1335376 10,19.9580041 C10,20.7824705 9.328,21.4534088 8.5,21.4534088 L8.5,21.4534088 Z M16.0020589,20.0228049 C16.004,19.8902124 15.955,19.7626045 15.862,19.6678955 L14.36,18.1166623 L13.641,18.8085363 L14.316,19.5063918 L10.955,19.5063918 C10.741,18.3479516 9.724,17.4656628 8.5,17.4656628 C7.122,17.4656628 6,18.5842256 6,19.9580041 C6,21.3327795 7.122,22.4503453 8.5,22.4503453 C9.691,22.4503453 10.685,21.6159094 10.936,20.5033283 L14.27,20.5033283 L13.654,21.0945117 L14.347,21.8133029 L15.849,20.3727296 C15.945,20.2810115 15.999,20.1553975 16.0020589,20.0228049 L16.0020589,20.0228049 Z M25.658,21.0905239 L26.284,20.5033283 L24,20.5033283 L24,19.5063918 L26.34,19.5063918 L25.647,18.8155148 L26.354,18.1106807 L27.901,19.6519445 C27.997,19.7476504 28.049,19.8772522 28.047,20.0118386 C28.045,20.147422 27.989,20.2750299 27.89,20.367745 L26.343,21.8162937 L25.658,21.0905239 Z M22.414,22.8222026 C21.664,22.5191339 20.841,22.3566333 20,22.3566333 C19.16,22.3566333 18.337,22.5191339 17.587,22.8222026 C18.255,21.0556311 18.255,18.8613739 17.587,17.0948024 C19.087,17.7009398 20.914,17.7009398 22.414,17.0948024 C21.746,18.8613739 21.746,21.0556311 22.414,22.8222026 L22.414,22.8222026 Z M24.354,15.8247053 C24.452,15.7270056 24.5,15.5993977 24.5,15.4717898 C24.5,15.3441819 24.452,15.2165741 24.354,15.1198712 C24.159,14.9244717 23.842,14.9244717 23.647,15.1198712 C22.727,16.0370528 21.398,16.5624383 20,16.5624383 C18.603,16.5624383 17.274,16.0370528 16.354,15.1198712 C16.159,14.9244717 15.842,14.9244717 15.647,15.1198712 C15.549,15.2165741 15.5,15.3441819 15.5,15.4717898 C15.5,15.5993977 15.549,15.7270056 15.647,15.8247053 C17.584,17.7557713 17.584,22.1602368 15.647,24.0922997 C15.549,24.1890025 15.5,24.3166104 15.5,24.4442183 C15.5,24.5718262 15.549,24.699434 15.647,24.7971338 C15.842,24.9915364 16.159,24.9915364 16.354,24.7971338 C17.274,23.8799522 18.603,23.3535698 20,23.3535698 C21.398,23.3535698 22.727,23.8799522 23.647,24.7971338 C23.745,24.8938366 23.872,24.9426865 24,24.9426865 C24.128,24.9426865 24.256,24.8938366 24.354,24.7971338 C24.452,24.699434 24.5,24.5718262 24.5,24.4442183 C24.5,24.3166104 24.452,24.1890025 24.354,24.0922997 C22.416,22.1602368 22.416,17.7557713 24.354,15.8247053 L24.354,15.8247053 Z" id="Amazon-MQ-Icon_32_Squid" fill="#FFFFFF"></path>
    </g>
</svg>