<?xml version="1.0" encoding="UTF-8"?>
<svg width="40px" height="40px" viewBox="0 0 40 40" version="1.1" xmlns="http://www.w3.org/2000/svg" xmlns:xlink="http://www.w3.org/1999/xlink">
    <!-- Generator: Sketch 64 (93537) - https://sketch.com -->
    <title>Icon-Architecture/32/Arch_AWS-Simple-Notification-Service_32</title>
    <desc>Created with Sketch.</desc>
    <defs>
        <linearGradient x1="0%" y1="100%" x2="100%" y2="0%" id="linearGradient-1">
            <stop stop-color="#B0084D" offset="0%"></stop>
            <stop stop-color="#FF4F8B" offset="100%"></stop>
        </linearGradient>
    </defs>
    <g id="Icon-Architecture/32/Arch_AWS-Simple-Notification-Service_32" stroke="none" stroke-width="1" fill="none" fill-rule="evenodd">
        <g id="Icon-Architecture-BG/32/Application-Integration" fill="url(#linearGradient-1)">
            <rect id="Rectangle" x="0" y="0" width="40" height="40"></rect>
        </g>
        <path d="M7.00991885,20.078 C7.00991885,19.475 7.50477908,18.985 8.11477006,18.985 C8.72274121,18.985 9.21861136,19.475 9.21861136,20.078 C9.21861136,20.681 8.72274121,21.171 8.11477006,21.171 C7.50477908,21.171 7.00991885,20.681 7.00991885,20.078 L7.00991885,20.078 Z M20.7761226,33 C14.8125518,33 9.64479711,28.375 8.4702615,22.136 C9.30041479,21.995 9.96090171,21.378 10.1598557,20.578 L13.1088188,20.578 L13.1088188,19.578 L10.1598557,19.578 C9.96292155,18.789 9.31859333,18.176 8.50560866,18.024 C9.72054103,12.252 14.8377998,8 20.7761226,8 C23.708927,8 26.1297024,8.643 27.9697746,9.911 L28.5454283,9.09 C26.53367,7.703 23.9189901,7 20.7761226,7 C14.2661858,7 8.67224527,11.726 7.468422,18.096 C6.61908025,18.368 6,19.149 6,20.078 C6,20.994 6.60191163,21.766 7.431055,22.049 C8.59145176,28.894 14.2389179,34 20.7761226,34 C24.0613886,34 27.5637872,32.333 29.5624166,30.906 L28.972624,30.095 C26.9457169,31.541 23.6261136,33 20.7761226,33 L20.7761226,33 Z M14.7893237,18.242 C15.9002344,18.516 17.312101,18.563 18.1321551,18.563 C18.9653381,18.563 20.4034626,18.516 21.5335618,18.243 L19.1329847,23.257 C19.1016772,23.324 19.0845086,23.397 19.0845086,23.472 L19.0845086,25.796 L17.1282958,26.711 L17.1282958,23.472 C17.1282958,23.401 17.1121371,23.33 17.0838593,23.266 L14.7893237,18.242 Z M18.1321551,16.485 C20.4458792,16.485 21.6860595,16.796 22.0829576,17.005 C21.6658611,17.239 20.3378179,17.563 18.1321551,17.563 C15.9487106,17.563 14.6499549,17.236 14.2601262,17.005 C14.6307665,16.799 15.8416592,16.485 18.1321551,16.485 L18.1321551,16.485 Z M16.3526781,27.923 C16.4344815,27.974 16.528404,28 16.6233363,28 C16.6970604,28 16.7697746,27.985 16.8384491,27.953 L19.8055906,26.565 C19.9823264,26.482 20.0944274,26.306 20.0944274,26.113 L20.0944274,23.584 L23.0029937,17.51 C23.1211542,17.361 23.1918485,17.193 23.1918485,17 C23.1918485,15.748 20.4408296,15.485 18.1321551,15.485 C15.8658972,15.485 13.1633544,15.748 13.1633544,17 C13.1633544,17.19 13.230009,17.355 13.3431199,17.502 L16.1183769,23.579 L16.1183769,27.5 C16.1183769,27.672 16.2062399,27.831 16.3526781,27.923 L16.3526781,27.923 Z M30.876321,27 C31.4842922,27 31.9801623,27.491 31.9801623,28.093 C31.9801623,28.696 31.4842922,29.186 30.876321,29.186 C30.2673399,29.186 29.7724797,28.696 29.7724797,28.093 C29.7724797,27.491 30.2673399,27 30.876321,27 L30.876321,27 Z M30.876321,10.97 C31.4842922,10.97 31.9801623,11.46 31.9801623,12.063 C31.9801623,12.665 31.4842922,13.156 30.876321,13.156 C30.2673399,13.156 29.7724797,12.665 29.7724797,12.063 C29.7724797,11.46 30.2673399,10.97 30.876321,10.97 L30.876321,10.97 Z M31.8862399,18.985 C32.494211,18.985 32.9900812,19.475 32.9900812,20.078 C32.9900812,20.681 32.494211,21.171 31.8862399,21.171 C31.2772588,21.171 30.7823986,20.681 30.7823986,20.078 C30.7823986,19.475 31.2772588,18.985 31.8862399,18.985 L31.8862399,18.985 Z M27.2789901,20.578 L29.8401443,20.578 C30.0683859,21.49 30.8944995,22.171 31.8862399,22.171 C33.0516862,22.171 34,21.232 34,20.078 C34,18.924 33.0516862,17.985 31.8862399,17.985 C30.8944995,17.985 30.0683859,18.666 29.8401443,19.578 L27.2789901,19.578 L27.2789901,12.563 L28.8302254,12.563 C29.0584671,13.475 29.8845807,14.156 30.876321,14.156 C32.0417674,14.156 32.9900812,13.217 32.9900812,12.063 C32.9900812,10.909 32.0417674,9.97 30.876321,9.97 C29.8845807,9.97 29.0584671,10.651 28.8302254,11.563 L26.7740307,11.563 C26.4952931,11.563 26.2690712,11.786 26.2690712,12.063 L26.2690712,19.578 L23.2080072,19.578 L23.2080072,20.578 L26.2690712,20.578 L26.2690712,28.093 C26.2690712,28.37 26.4952931,28.593 26.7740307,28.593 L28.8302254,28.593 C29.0584671,29.505 29.8845807,30.186 30.876321,30.186 C32.0417674,30.186 32.9900812,29.247 32.9900812,28.093 C32.9900812,26.939 32.0417674,26 30.876321,26 C29.8845807,26 29.0584671,26.681 28.8302254,27.593 L27.2789901,27.593 L27.2789901,20.578 Z" id="AWS-Simple-Notification-Service_Icon_32_Squid" fill="#FFFFFF"></path>
    </g>
</svg>