<?xml version="1.0" encoding="UTF-8"?>
<svg width="80px" height="80px" viewBox="0 0 80 80" version="1.1" xmlns="http://www.w3.org/2000/svg" xmlns:xlink="http://www.w3.org/1999/xlink">
    <title>Icon-Architecture/64/Arch_AWS-Colossus_64</title>
    <defs>
        <linearGradient x1="0%" y1="100%" x2="100%" y2="0%" id="linearGradient-1">
            <stop stop-color="#055F4E" offset="0%"></stop>
            <stop stop-color="#56C0A7" offset="100%"></stop>
        </linearGradient>
    </defs>
    <g id="Icon-Architecture/64/Arch_AWS-Colossus_64" stroke="none" stroke-width="1" fill="none" fill-rule="evenodd">
        <g id="Rectangle" fill="url(#linearGradient-1)">
            <rect x="0" y="0" width="80" height="80"></rect>
        </g>
        <g id="Icon-Service/64/AWS-Colossus_64" transform="translate(8.000000, 8.000000)" fill="#FFFFFF">
            <path d="M51,40 L53,40 L53,34 L51,34 L51,40 Z M58,49 L54,49 C53.447,49 53,48.552 53,48 L53,44 L49,44 L49,48 C49,48.552 48.553,49 48,49 L44,49 L44,53 L48,53 C48.553,53 49,53.448 49,54 L49,58 L53,58 L53,54 C53,53.448 53.447,53 54,53 L58,53 L58,49 Z M60,48 L60,54 C60,54.552 59.553,55 59,55 L55,55 L55,59 C55,59.552 54.553,60 54,60 L48,60 C47.447,60 47,59.552 47,59 L47,55 L43,55 C42.447,55 42,54.552 42,54 L42,48 C42,47.448 42.447,47 43,47 L47,47 L47,43 C47,42.448 47.447,42 48,42 L54,42 C54.553,42 55,42.448 55,43 L55,47 L59,47 C59.553,47 60,47.448 60,48 L60,48 Z M25,11 L39,11 L39,6 L25,6 L25,11 Z M23,12 L23,5 C23,4.448 23.447,4 24,4 L40,4 C40.553,4 41,4.448 41,5 L41,12 C41,12.552 40.553,13 40,13 L24,13 C23.447,13 23,12.552 23,12 L23,12 Z M13,9.545 C13,8.693 13.693,8 14.546,8 L21,8 L21,6 L14.546,6 C12.591,6 11,7.59 11,9.545 L11,25 L13,25 L13,9.545 Z M51,9.545 L51,25 L53,25 L53,9.545 C53,7.59 51.409,6 49.454,6 L43,6 L43,8 L49.454,8 C50.307,8 51,8.693 51,9.545 L51,9.545 Z M13,56.455 L13,34 L11,34 L11,56.455 C11,58.41 12.591,60 14.546,60 L44,60 L44,58 L14.546,58 C13.693,58 13,57.307 13,56.455 L13,56.455 Z M43.618,29 L38.895,19.553 C38.723,19.209 38.4,19.011 37.984,19 C37.6,19.006 37.253,19.232 37.092,19.581 L31.841,30.958 L26.832,23.445 C26.461,22.889 25.539,22.889 25.168,23.445 L21.465,29 L4,29 L4,31 L22,31 C22.334,31 22.646,30.833 22.832,30.555 L26,25.803 L31.168,33.555 C31.354,33.834 31.667,34 32,34 C32.025,34 32.052,33.999 32.078,33.997 C32.438,33.969 32.756,33.748 32.908,33.419 L38.036,22.308 L42.105,30.447 C42.275,30.786 42.621,31 43,31 L60,31 L60,29 L43.618,29 Z M17,46 L35,46 L35,44 L17,44 L17,46 Z M17,52 L35,52 L35,50 L17,50 L17,52 Z" id="Fill-6"></path>
        </g>
    </g>
</svg>