<?xml version="1.0" encoding="UTF-8"?>
<svg width="80px" height="80px" viewBox="0 0 80 80" version="1.1" xmlns="http://www.w3.org/2000/svg" xmlns:xlink="http://www.w3.org/1999/xlink">
    <!-- Generator: Sketch 64 (93537) - https://sketch.com -->
    <title>Icon-Architecture/64/Arch_AWS-TensorFlow-on-AWS_64</title>
    <desc>Created with Sketch.</desc>
    <defs>
        <linearGradient x1="0%" y1="100%" x2="100%" y2="0%" id="linearGradient-1">
            <stop stop-color="#055F4E" offset="0%"></stop>
            <stop stop-color="#56C0A7" offset="100%"></stop>
        </linearGradient>
    </defs>
    <g id="Icon-Architecture/64/Arch_AWS-TensorFlow-on-AWS_64" stroke="none" stroke-width="1" fill="none" fill-rule="evenodd">
        <g id="Icon-Architecture-BG/64/Machine-Learning" fill="url(#linearGradient-1)">
            <rect id="Rectangle" x="0" y="0" width="80" height="80"></rect>
        </g>
        <path d="M55,49.6624964 L55,32.8469945 L41,40.7740869 L41,57.5895887 L55,49.6624964 Z M25,49.6624964 L39,57.5895887 L39,40.7740869 L25,32.8469945 L25,49.6624964 Z M26.04,31.1256831 L40,39.0296232 L53.96,31.1256831 L40,23.2207363 L26.04,31.1256831 Z M56.49,51.1291343 L40.49,60.1886684 C40.338,60.2742307 40.169,60.3175151 40,60.3175151 C39.831,60.3175151 39.662,60.2742307 39.51,60.1886684 L23.51,51.1291343 C23.195,50.9499569 23,50.6147541 23,50.2513661 L23,31.1256831 C23,30.7622951 23.195,30.4270923 23.51,30.2479149 L39.51,21.1883808 C39.814,21.0162496 40.186,21.0162496 40.49,21.1883808 L56.49,30.2479149 C56.805,30.4270923 57,30.7622951 57,31.1256831 L57,50.2513661 C57,50.6147541 56.805,50.9499569 56.49,51.1291343 L56.49,51.1291343 Z M67.497,34.9548461 L65.536,35.3494392 C65.826,36.8120506 66,38.7487777 66,40.5304861 C66,52.6400633 57.504,63.3665516 45.798,66.0371009 L46.239,68 C58.849,65.1241012 68,53.5721887 68,40.5304861 C68,38.5957722 67.816,36.5634167 67.497,34.9548461 L67.497,34.9548461 Z M14,40.5304861 C14,38.7628703 14.174,37.0214265 14.516,35.3554789 L12.557,34.9488064 C12.187,36.7476273 12,38.6259707 12,40.5304861 C12,53.5721887 21.151,65.1241012 33.761,68 L34.202,66.0371009 C22.496,63.3665516 14,52.6400633 14,40.5304861 L14,40.5304861 Z M19.687,24.2062123 L18.125,22.9499569 C23.646,15.9912281 31.619,12 40,12 C48.656,12 57.061,16.3828013 62.481,23.7240437 L60.876,24.9259419 C55.831,18.09304 48.027,14.0132298 40,14.0132298 C32.23,14.0132298 24.827,17.7286454 19.687,24.2062123 L19.687,24.2062123 Z" id="AWS-TensorFlow-on-AWS_Icon_64_Squid" fill="#FFFFFF"></path>
    </g>
</svg>