<?xml version="1.0" encoding="UTF-8"?>
<svg width="80px" height="80px" viewBox="0 0 80 80" version="1.1" xmlns="http://www.w3.org/2000/svg" xmlns:xlink="http://www.w3.org/1999/xlink">
    <title>Icon-Architecture/64/Arch_CN-Capstone_64</title>
    <defs>
        <linearGradient x1="0%" y1="100%" x2="100%" y2="0%" id="linearGradient-1">
            <stop stop-color="#055F4E" offset="0%"></stop>
            <stop stop-color="#56C0A7" offset="100%"></stop>
        </linearGradient>
    </defs>
    <g id="Icon-Architecture/64/Arch_CN-Capstone_64" stroke="none" stroke-width="1" fill="none" fill-rule="evenodd">
        <g id="Rectangle" fill="url(#linearGradient-1)">
            <rect x="0" y="0" width="80" height="80"></rect>
        </g>
        <g id="Icon-Service/64/CN-Capstone_64" transform="translate(8.000000, 8.000000)" fill="#FFFFFF">
            <path d="M27.888,54.588 C27.916,54.1 27.587,53.663 27.111,53.556 C24.665,53.002 22.347,52.041 20.22,50.697 C19.807,50.436 19.265,50.509 18.94,50.877 L16.66,53.431 L10.57,47.339 L13.123,45.062 C13.488,44.737 13.564,44.195 13.303,43.782 C11.962,41.657 11.003,39.339 10.452,36.892 C10.345,36.414 9.897,36.088 9.42,36.112 L6,36.308 L6,27.692 L9.428,27.888 C9.889,27.903 10.351,27.588 10.46,27.11 C11.013,24.671 11.975,22.357 13.317,20.232 C13.577,19.818 13.501,19.277 13.137,18.952 L10.57,16.661 L16.661,10.569 L18.95,13.135 C19.276,13.5 19.818,13.576 20.23,13.315 C22.352,11.977 24.666,11.019 27.11,10.467 C27.587,10.359 27.916,9.923 27.888,9.435 L27.693,6 L36.308,6 L36.113,9.438 C36.084,9.925 36.413,10.361 36.89,10.469 C39.33,11.022 41.644,11.981 43.766,13.319 C44.176,13.579 44.72,13.505 45.045,13.14 L47.339,10.569 L53.431,16.661 L50.867,18.948 C50.503,19.273 50.427,19.815 50.688,20.228 C52.029,22.349 52.989,24.665 53.542,27.11 C53.65,27.588 54.119,27.903 54.575,27.888 L58,27.692 L58,36.308 L54.577,36.112 C54.119,36.085 53.654,36.413 53.545,36.891 C52.994,39.335 52.034,41.652 50.694,43.778 C50.433,44.192 50.509,44.733 50.873,45.058 L53.431,47.339 L47.34,53.431 L45.065,50.881 C44.738,50.514 44.197,50.442 43.784,50.701 C41.661,52.043 39.342,53.005 36.89,53.558 C36.413,53.666 36.084,54.103 36.113,54.591 L36.308,58 L27.693,58 L27.888,54.588 Z M38.093,59.687 C38.283,59.486 38.38,59.217 38.365,58.943 L38.157,55.307 C40.253,54.755 42.255,53.926 44.126,52.833 L46.552,55.552 C46.735,55.758 46.994,55.879 47.27,55.886 C47.535,55.899 47.811,55.789 48.005,55.594 L55.594,48.005 C55.788,47.811 55.895,47.545 55.887,47.27 C55.879,46.994 55.758,46.735 55.553,46.552 L52.825,44.119 C53.917,42.247 54.745,40.248 55.295,38.157 L58.944,38.365 C59.213,38.376 59.488,38.282 59.687,38.093 C59.887,37.904 60,37.641 60,37.366 L60,26.634 C60,26.359 59.887,26.096 59.687,25.907 C59.488,25.718 59.214,25.618 58.944,25.635 L55.291,25.843 C54.74,23.753 53.911,21.755 52.821,19.886 L55.553,17.449 C55.758,17.266 55.879,17.006 55.887,16.731 C55.895,16.456 55.788,16.19 55.594,15.996 L48.005,8.407 C47.811,8.212 47.533,8.108 47.27,8.114 C46.994,8.122 46.736,8.243 46.552,8.448 L44.107,11.188 C42.239,10.099 40.243,9.272 38.157,8.721 L38.365,5.057 C38.38,4.782 38.283,4.513 38.093,4.314 C37.905,4.113 37.642,4 37.367,4 L26.634,4 C26.359,4 26.096,4.113 25.908,4.314 C25.718,4.513 25.62,4.782 25.636,5.057 L25.844,8.718 C23.754,9.268 21.758,10.094 19.889,11.183 L17.449,8.448 C17.266,8.243 17.006,8.122 16.731,8.114 C16.472,8.11 16.19,8.212 15.995,8.407 L8.407,15.996 C8.212,16.19 8.106,16.456 8.114,16.731 C8.121,17.006 8.242,17.266 8.448,17.449 L11.184,19.89 C10.092,21.761 9.263,23.757 8.712,25.844 L5.057,25.635 C4.785,25.617 4.513,25.718 4.314,25.907 C4.114,26.096 4,26.359 4,26.634 L4,37.366 C4,37.641 4.114,37.904 4.314,38.093 C4.513,38.282 4.786,38.377 5.057,38.365 L8.702,38.157 C9.252,40.251 10.079,42.251 11.171,44.123 L8.448,46.552 C8.242,46.735 8.121,46.994 8.114,47.27 C8.106,47.545 8.212,47.811 8.407,48.005 L15.995,55.594 C16.19,55.789 16.469,55.897 16.731,55.886 C17.006,55.879 17.266,55.758 17.449,55.552 L19.878,52.829 C21.751,53.922 23.752,54.753 25.844,55.304 L25.636,58.943 C25.62,59.218 25.718,59.486 25.908,59.687 C26.096,59.887 26.359,60 26.634,60 L37.367,60 C37.642,60 37.905,59.887 38.093,59.687 L38.093,59.687 Z M29.985,37.788 L40.146,27.627 L38.732,26.213 L29.278,35.667 L25.269,31.658 L23.855,33.072 L28.571,37.788 C28.766,37.983 29.022,38.081 29.278,38.081 C29.534,38.081 29.789,37.983 29.985,37.788 L29.985,37.788 Z M52.101,31.161 L48.364,33.156 C48.975,24.545 42.762,16.824 34.095,15.71 C27.077,14.807 20.297,18.474 17.217,24.834 L19.016,25.706 C21.723,20.121 27.68,16.9 33.839,17.693 C41.361,18.66 46.782,25.292 46.392,32.745 L43.712,30.102 L42.308,31.526 L46.997,36.152 L53.042,32.925 L52.101,31.161 Z M46.784,39.166 C44.014,44.884 38.249,48.426 32.016,48.426 C31.317,48.426 30.614,48.382 29.906,48.291 C21.239,47.176 15.026,39.455 15.637,30.844 L11.9,32.839 L10.958,31.075 L17.003,27.848 L21.693,32.475 L20.288,33.899 L17.609,31.255 C17.219,38.709 22.64,45.34 30.161,46.307 C36.306,47.098 42.279,43.88 44.984,38.294 L46.784,39.166 Z" id="Fill-1"></path>
        </g>
    </g>
</svg>