<?xml version="1.0" encoding="UTF-8"?>
<svg width="80px" height="80px" viewBox="0 0 80 80" version="1.1" xmlns="http://www.w3.org/2000/svg" xmlns:xlink="http://www.w3.org/1999/xlink">
    <title>Icon-Architecture/64/Arch_AWS-Deep-Learning-AMIs_64</title>
    <defs>
        <linearGradient x1="0%" y1="100%" x2="100%" y2="0%" id="linearGradient-1">
            <stop stop-color="#055F4E" offset="0%"></stop>
            <stop stop-color="#56C0A7" offset="100%"></stop>
        </linearGradient>
    </defs>
    <g id="Icon-Architecture/64/Arch_AWS-Deep-Learning-AMIs_64" stroke="none" stroke-width="1" fill="none" fill-rule="evenodd">
        <g id="Rectangle" fill="url(#linearGradient-1)">
            <rect x="0" y="0" width="80" height="80"></rect>
        </g>
        <g id="Icon-Service/64/AWS-Deep-Learning-AMIs_64" transform="translate(8.000000, 8.000000)" fill="#FFFFFF">
            <path d="M51.505,58.5 C49.58,58.5 48.014,56.934 48.014,55.009 C48.014,53.084 49.58,51.518 51.505,51.518 C53.43,51.518 54.996,53.084 54.996,55.009 C54.996,56.934 53.43,58.5 51.505,58.5 L51.505,58.5 Z M21.874,58.5 C19.949,58.5 18.383,56.934 18.383,55.009 C18.383,53.084 19.949,51.518 21.874,51.518 C23.799,51.518 25.365,53.084 25.365,55.009 C25.365,56.934 23.799,58.5 21.874,58.5 L21.874,58.5 Z M12.768,36.686 C13.133,36.413 13.466,36.099 13.753,35.745 L20.928,39.606 L20.928,49.605 C20.563,49.669 20.211,49.768 19.874,49.9 L12.768,36.686 Z M6,32.29 C6,30.365 7.566,28.799 9.49,28.799 C11.415,28.799 12.982,30.365 12.982,32.29 C12.982,34.215 11.415,35.781 9.49,35.781 C7.566,35.781 6,34.215 6,32.29 L6,32.29 Z M19.91,14.613 C20.235,14.738 20.575,14.833 20.928,14.895 L20.928,24.88 L13.7,28.771 C13.425,28.442 13.11,28.151 12.768,27.895 L19.91,14.613 Z M21.874,6 C23.799,6 25.365,7.566 25.365,9.491 C25.365,11.416 23.799,12.982 21.874,12.982 C19.949,12.982 18.383,11.416 18.383,9.491 C18.383,7.566 19.949,6 21.874,6 L21.874,6 Z M33.239,18.255 L26.814,11.874 C27.017,11.455 27.171,11.009 27.263,10.539 L46.249,10.539 C46.29,10.753 46.344,10.962 46.409,11.167 L33.239,18.255 Z M22.928,23.804 L22.928,14.878 C23.954,14.678 24.877,14.188 25.613,13.501 L31.398,19.246 L22.928,23.804 Z M31.394,45.238 L25.603,50.99 C24.868,50.308 23.95,49.821 22.928,49.622 L22.928,40.682 L31.394,45.238 Z M46.304,53.262 C46.217,53.52 46.15,53.785 46.102,54.057 L27.277,54.057 C27.188,53.548 27.027,53.064 26.808,52.613 L33.235,46.229 L46.304,53.262 Z M51.637,6 C53.562,6 55.128,7.566 55.128,9.491 C55.128,11.416 53.562,12.982 51.637,12.982 C49.712,12.982 48.146,11.416 48.146,9.491 C48.146,7.566 49.712,6 51.637,6 L51.637,6 Z M51.505,49.518 C49.804,49.518 48.281,50.295 47.274,51.514 L34.718,44.756 L35.81,43.672 L34.4,42.253 L32.876,43.766 L22.928,38.412 L22.928,35.64 L20.928,35.64 L20.928,37.335 L14.709,33.989 C14.789,33.745 14.85,33.493 14.895,33.235 L31.069,33.235 L31.069,31.235 L14.878,31.235 C14.829,30.987 14.761,30.748 14.681,30.513 L20.928,27.151 L20.928,28.831 L22.928,28.831 L22.928,26.074 L32.88,20.718 L34.4,22.227 L35.81,20.808 L34.722,19.728 L47.359,12.926 C48.366,14.178 49.908,14.982 51.637,14.982 C54.665,14.982 57.128,12.519 57.128,9.491 C57.128,6.463 54.665,4 51.637,4 C48.934,4 46.687,5.964 46.234,8.539 L27.276,8.539 C26.824,5.964 24.577,4 21.874,4 C18.846,4 16.383,6.463 16.383,9.491 C16.383,11.107 17.089,12.558 18.203,13.563 L10.973,27.008 C10.5,26.875 10.005,26.799 9.49,26.799 C6.463,26.799 4,29.262 4,32.29 C4,35.318 6.463,37.781 9.49,37.781 C10.005,37.781 10.501,37.705 10.973,37.572 L18.175,50.963 C17.076,51.968 16.383,53.407 16.383,55.009 C16.383,58.037 18.846,60.5 21.874,60.5 C24.544,60.5 26.772,58.585 27.263,56.057 L46.116,56.057 C46.608,58.585 48.835,60.5 51.505,60.5 C54.533,60.5 56.996,58.037 56.996,55.009 C56.996,51.981 54.533,49.518 51.505,49.518 L51.505,49.518 Z M47.02,36.162 C44.924,36.162 43.219,34.457 43.219,32.361 C43.219,30.265 44.924,28.56 47.02,28.56 C49.115,28.56 50.82,30.265 50.82,32.361 C50.82,34.457 49.115,36.162 47.02,36.162 L47.02,36.162 Z M47.02,26.56 C43.821,26.56 41.219,29.163 41.219,32.361 C41.219,35.56 43.821,38.162 47.02,38.162 C50.218,38.162 52.82,35.56 52.82,32.361 C52.82,29.163 50.218,26.56 47.02,26.56 L47.02,26.56 Z M58.502,33.962 L56.824,33.962 C56.371,33.962 55.974,34.267 55.858,34.706 C55.651,35.488 55.336,36.244 54.925,36.95 C54.696,37.342 54.761,37.839 55.082,38.16 L56.272,39.349 L54.007,41.612 L52.818,40.424 C52.497,40.102 51.998,40.039 51.609,40.267 C50.901,40.678 50.147,40.992 49.364,41.199 C48.926,41.315 48.62,41.712 48.62,42.166 L48.62,43.844 L45.419,43.844 L45.419,42.166 C45.419,41.712 45.113,41.315 44.675,41.199 C43.893,40.992 43.138,40.678 42.431,40.267 C42.04,40.039 41.542,40.102 41.221,40.424 L40.032,41.612 L37.768,39.349 L38.957,38.16 C39.278,37.839 39.343,37.342 39.114,36.95 C38.703,36.244 38.389,35.488 38.182,34.706 C38.066,34.267 37.668,33.962 37.215,33.962 L35.537,33.962 L35.537,30.761 L37.215,30.761 C37.669,30.761 38.066,30.456 38.182,30.017 C38.389,29.235 38.703,28.479 39.114,27.772 C39.343,27.38 39.278,26.883 38.957,26.562 L37.769,25.374 L40.032,23.11 L41.221,24.298 C41.542,24.62 42.04,24.684 42.431,24.456 C43.137,24.044 43.892,23.731 44.675,23.524 C45.113,23.408 45.419,23.011 45.419,22.557 L45.419,20.878 L48.62,20.878 L48.62,22.557 C48.62,23.011 48.926,23.408 49.364,23.524 C50.148,23.731 50.902,24.044 51.609,24.456 C51.998,24.684 52.497,24.62 52.818,24.298 L54.007,23.11 L56.271,25.374 L55.082,26.562 C54.761,26.883 54.696,27.38 54.925,27.772 C55.336,28.479 55.651,29.235 55.858,30.017 C55.974,30.456 56.37,30.761 56.824,30.761 L58.502,30.761 L58.502,33.962 Z M58.983,28.761 L57.566,28.761 C57.412,28.314 57.231,27.877 57.022,27.452 L58.025,26.448 C58.617,25.855 58.617,24.892 58.025,24.299 L55.082,21.356 C54.491,20.765 53.526,20.763 52.933,21.356 L51.929,22.359 C51.504,22.15 51.068,21.969 50.62,21.816 L50.62,20.398 C50.62,19.56 49.939,18.878 49.1,18.878 L44.94,18.878 C44.101,18.878 43.419,19.56 43.419,20.398 L43.419,21.816 C42.972,21.969 42.535,22.15 42.11,22.359 L41.107,21.356 C40.516,20.765 39.55,20.763 38.957,21.356 L36.015,24.299 C35.422,24.892 35.422,25.855 36.015,26.448 L37.018,27.452 C36.809,27.877 36.627,28.314 36.474,28.761 L35.057,28.761 C34.219,28.761 33.537,29.442 33.537,30.281 L33.537,34.441 C33.537,35.28 34.219,35.962 35.057,35.962 L36.474,35.962 C36.627,36.409 36.809,36.846 37.018,37.271 L36.015,38.274 C35.422,38.867 35.422,39.831 36.015,40.424 L38.957,43.366 C39.53,43.938 40.531,43.94 41.107,43.366 L42.109,42.363 C42.535,42.572 42.973,42.754 43.419,42.907 L43.419,44.324 C43.419,45.162 44.101,45.844 44.94,45.844 L49.1,45.844 C49.939,45.844 50.62,45.162 50.62,44.324 L50.62,42.907 C51.067,42.754 51.504,42.572 51.93,42.363 L52.933,43.366 C53.508,43.941 54.509,43.939 55.082,43.366 L58.025,40.424 C58.617,39.831 58.617,38.867 58.025,38.274 L57.022,37.271 C57.231,36.846 57.412,36.409 57.566,35.962 L58.983,35.962 C59.82,35.962 60.502,35.28 60.502,34.441 L60.502,30.281 C60.502,29.442 59.82,28.761 58.983,28.761 L58.983,28.761 Z" id="Fill-1"></path>
        </g>
    </g>
</svg>