<?xml version="1.0" encoding="UTF-8"?>
<svg width="80px" height="80px" viewBox="0 0 80 80" version="1.1" xmlns="http://www.w3.org/2000/svg" xmlns:xlink="http://www.w3.org/1999/xlink">
    <!-- Generator: Sketch 64 (93537) - https://sketch.com -->
    <title>Icon-Architecture/64/Arch_Amazon-Fraud-Detector_64</title>
    <desc>Created with Sketch.</desc>
    <defs>
        <linearGradient x1="0%" y1="100%" x2="100%" y2="0%" id="linearGradient-1">
            <stop stop-color="#055F4E" offset="0%"></stop>
            <stop stop-color="#56C0A7" offset="100%"></stop>
        </linearGradient>
    </defs>
    <g id="Icon-Architecture/64/Arch_Amazon-Fraud-Detector_64" stroke="none" stroke-width="1" fill="none" fill-rule="evenodd">
        <g id="Icon-Architecture-BG/64/Machine-Learning" fill="url(#linearGradient-1)">
            <rect id="Rectangle" x="0" y="0" width="80" height="80"></rect>
        </g>
        <path d="M51.7313365,50 C48.4445617,50 45.771636,47.309 45.771636,44 C45.771636,40.691 48.4445617,38 51.7313365,38 C55.0181113,38 57.6910369,40.691 57.6910369,44 C57.6910369,47.309 55.0181113,50 51.7313365,50 L51.7313365,50 Z M51.7313365,36 C47.3499633,36 43.7850692,39.589 43.7850692,44 C43.7850692,48.411 47.3499633,52 51.7313365,52 C56.1127096,52 59.6776038,48.411 59.6776038,44 C59.6776038,39.589 56.1127096,36 51.7313365,36 L51.7313365,36 Z M52.7246199,47 C52.7246199,47.552 52.2806222,48 51.7313365,48 C51.1820507,48 50.7380531,47.552 50.7380531,47 C50.7380531,46.448 51.1820507,46 51.7313365,46 C52.2806222,46 52.7246199,46.448 52.7246199,47 L52.7246199,47 Z M50.7380531,45 L52.7246199,45 L52.7246199,40 L50.7380531,40 L50.7380531,45 Z M61.8747467,32.344 L64.076856,28.631 L65.7823236,29.656 L63.5802143,33.369 L61.8747467,32.344 Z M47.9618259,29.272 L46.6636045,25.362 L48.5478631,24.728 L49.8460846,28.638 L47.9618259,29.272 Z M55.7342686,28.757 L56.727552,24.757 L58.6545218,25.243 L57.6612384,29.243 L55.7342686,28.757 Z M65.5171169,58.883 C65.0979513,59.307 64.4692029,59.583 64.0927485,59.204 L58.7389509,53.686 C59.3597531,53.23 59.9328776,52.716 60.4543514,52.15 L65.8419206,57.428 C66.2094355,57.798 65.9561482,58.44 65.5171169,58.883 L65.5171169,58.883 Z M41.7985023,44 C41.7985023,38.486 46.2543717,34 51.7313365,34 C57.2083012,34 61.6641706,38.486 61.6641706,44 C61.6641706,49.514 57.2083012,54 51.7313365,54 C46.2543717,54 41.7985023,49.514 41.7985023,44 L41.7985023,44 Z M37.8631135,50.077 C36.9602189,48.825 35.5040654,48 33.8522351,48 C33.7231082,48 33.6019276,48.028 33.4757806,48.038 L29.2384336,40.04 L33.2234867,31.936 C33.4310829,31.963 33.6366926,32 33.8522351,32 C34.9935177,32 36.0334854,31.595 36.8738032,30.94 L43.4960237,35.346 C41.2313375,37.531 39.8119355,40.6 39.8119355,44 C39.8119355,45.585 40.1258131,47.097 40.6830451,48.483 L37.8631135,50.077 Z M33.8522351,56 C32.2093443,56 30.8723848,54.654 30.8723848,53 C30.8723848,51.346 32.2093443,50 33.8522351,50 C35.4951258,50 36.8320853,51.346 36.8320853,53 C36.8320853,54.654 35.4951258,56 33.8522351,56 L33.8522351,56 Z M20.5372709,59.54 C20.3465605,59.341 20.1359844,59.166 19.9164688,59.001 L25.2225888,48.209 L29.2771717,51.056 C29.025871,51.653 28.885818,52.311 28.885818,53 C28.885818,53.636 29.0159381,54.239 29.2314806,54.798 L20.5372709,59.54 Z M16.9664171,66 C15.3235263,66 13.9865668,64.654 13.9865668,63 C13.9865668,61.346 15.3235263,60 16.9664171,60 C18.6093078,60 19.9462673,61.346 19.9462673,63 C19.9462673,64.654 18.6093078,66 16.9664171,66 L16.9664171,66 Z M30.4085215,49.411 L26.113564,46.396 L28.1547614,42.246 L31.5259653,48.61 C31.1187191,48.83 30.7382916,49.09 30.4085215,49.411 L30.4085215,49.411 Z M21.045832,42.839 C21.603064,42.031 21.9328341,41.055 21.9328341,40 C21.9328341,39.3 21.7878147,38.635 21.5285678,38.03 L24.6355583,35.602 L27.0035459,40.075 L24.4657068,45.239 L21.045832,42.839 Z M16.9664171,43 C15.3235263,43 13.9865668,41.654 13.9865668,40 C13.9865668,38.346 15.3235263,37 16.9664171,37 C18.6093078,37 19.9462673,38.346 19.9462673,40 C19.9462673,41.654 18.6093078,43 16.9664171,43 L16.9664171,43 Z M19.3443375,21.362 C19.8797173,21.065 20.3505336,20.676 20.7438739,20.208 L29.064609,25.745 C28.959321,26.148 28.885818,26.564 28.885818,27 C28.885818,27.831 29.1083135,28.604 29.4658955,29.294 L25.2792059,32.566 L19.3443375,21.362 Z M13.9865668,17 C13.9865668,15.346 15.3235263,14 16.9664171,14 C18.6093078,14 19.9462673,15.346 19.9462673,17 C19.9462673,18.654 18.6093078,20 16.9664171,20 C15.3235263,20 13.9865668,18.654 13.9865668,17 L13.9865668,17 Z M30.7194192,30.847 C30.9111229,31.006 31.1117661,31.152 31.3273086,31.282 L28.0882114,37.869 L26.2277916,34.357 L30.7194192,30.847 Z M33.8522351,24 C35.4951258,24 36.8320853,25.346 36.8320853,27 C36.8320853,28.654 35.4951258,30 33.8522351,30 C32.2093443,30 30.8723848,28.654 30.8723848,27 C30.8723848,25.346 32.2093443,24 33.8522351,24 L33.8522351,24 Z M67.2364905,56.004 L61.6919825,50.572 C62.9266338,48.682 63.6507374,46.426 63.6507374,44 C63.6507374,37.383 58.3038928,32 51.7313365,32 C49.2848794,32 47.0092671,32.748 45.1160689,34.025 L38.176991,29.409 C38.5733111,28.691 38.8186521,27.878 38.8186521,27 C38.8186521,24.243 36.5907174,22 33.8522351,22 C32.2639749,22 30.8644386,22.768 29.9545909,23.939 L21.6964327,18.445 C21.8354923,17.984 21.9328341,17.506 21.9328341,17 C21.9328341,14.243 19.7048994,12 16.9664171,12 C14.2279347,12 12,14.243 12,17 C12,19.757 14.2279347,22 16.9664171,22 C17.1164029,22 17.2584424,21.969 17.404455,21.955 L23.6869726,33.811 L20.3852986,36.391 C19.4943233,35.534 18.2934437,35 16.9664171,35 C14.2279347,35 12,37.243 12,40 C12,42.757 14.2279347,45 16.9664171,45 C17.922949,45 18.8089578,44.713 19.5678263,44.24 L23.5737383,47.052 L18.1176325,58.149 C17.7461445,58.06 17.3637304,58 16.9664171,58 C14.2279347,58 12,60.243 12,63 C12,65.757 14.2279347,68 16.9664171,68 C19.7048994,68 21.9328341,65.757 21.9328341,63 C21.9328341,62.377 21.8056938,61.787 21.5980976,61.237 L30.30522,56.488 C31.2071213,57.418 32.4626316,58 33.8522351,58 C36.5907174,58 38.8186521,55.757 38.8186521,53 C38.8186521,52.623 38.7689879,52.258 38.6895253,51.904 L41.5859397,50.267 C43.6857408,53.699 47.4423387,56 51.7313365,56 C53.6225481,56 55.4044985,55.542 56.9947453,54.75 L62.6802995,60.61 C63.1898539,61.122 63.8434344,61.374 64.5268134,61.374 C65.3482588,61.374 66.2134086,61.01 66.9216197,60.297 C68.2258008,58.983 68.366847,57.142 67.2364905,56.004 L67.2364905,56.004 Z" id="Amazon-Fraud-Detector_Icon_64_Squid" fill="#FFFFFF"></path>
    </g>
</svg>