<?xml version="1.0" encoding="UTF-8"?>
<svg width="80px" height="80px" viewBox="0 0 80 80" version="1.1" xmlns="http://www.w3.org/2000/svg" xmlns:xlink="http://www.w3.org/1999/xlink">
    <!-- Generator: Sketch 64 (93537) - https://sketch.com -->
    <title>Icon-Architecture/64/Arch_Amazon-Personalize_64</title>
    <desc>Created with Sketch.</desc>
    <defs>
        <linearGradient x1="0%" y1="100%" x2="100%" y2="0%" id="linearGradient-1">
            <stop stop-color="#055F4E" offset="0%"></stop>
            <stop stop-color="#56C0A7" offset="100%"></stop>
        </linearGradient>
    </defs>
    <g id="Icon-Architecture/64/Arch_Amazon-Personalize_64" stroke="none" stroke-width="1" fill="none" fill-rule="evenodd">
        <g id="Icon-Architecture-BG/64/Machine-Learning" fill="url(#linearGradient-1)">
            <rect id="Rectangle" x="0" y="0" width="80" height="80"></rect>
        </g>
        <path d="M43.5257485,35.0078722 C43.5257485,36.6592681 42.168196,38.0031489 40.5,38.0031489 C38.831804,38.0031489 37.4742515,36.6592681 37.4742515,35.0078722 C37.4742515,33.3564763 38.831804,32.0125955 40.5,32.0125955 C42.168196,32.0125955 43.5257485,33.3564763 43.5257485,35.0078722 L43.5257485,35.0078722 Z M46.4304671,44.9921278 L34.5453269,44.9921278 C34.8307558,43.2838217 35.9633944,40 40.4455365,40 C44.9791164,40 46.1359609,43.2858185 46.4304671,44.9921278 L46.4304671,44.9921278 Z M35.4570858,35.0078722 C35.4570858,36.438616 36.0763557,37.7215929 37.0536724,38.632157 C33.4883321,40.0978457 32.4313373,43.8079951 32.4313373,45.9905534 C32.4313373,46.5416843 32.8821738,46.9889789 33.4399201,46.9889789 L47.5388997,46.9889789 C48.0946288,46.9889789 48.5464739,46.5436811 48.5474825,45.9935486 C48.5474825,45.8497754 48.5313452,42.4621174 46.1773128,40.1248032 C45.5328284,39.4848124 44.7784084,38.9965823 43.9291817,38.6461349 C44.9165843,37.733574 45.5429142,36.445605 45.5429142,35.0078722 C45.5429142,32.2552129 43.2806629,30.0157444 40.5,30.0157444 C37.7193371,30.0157444 35.4570858,32.2552129 35.4570858,35.0078722 L35.4570858,35.0078722 Z M63.3423842,40.6998963 L63.2929637,40.6689451 C63.1850453,40.8137168 63.0438437,40.9335279 62.8693589,41.0044161 C62.7442946,41.0563342 62.6131788,41.0812949 62.4830716,41.0812949 C62.2208401,41.0812949 61.9626429,40.9794555 61.7700036,40.7887562 L58.2308864,37.2842825 L59.6570225,35.8725087 L61.3100898,37.5089282 C60.3468932,29.9947775 55.2273267,23.4261357 47.9645216,20.6974387 L48.6796069,18.8303829 C56.558656,21.7907146 62.1260333,28.8755424 63.2647233,37.0057217 L64.2803663,35.3683038 L66,36.412657 L63.3423842,40.6998963 Z M33.1060792,59.4653047 L32.3909939,61.3323605 C24.533125,58.3790177 18.9728078,51.3211474 17.8169719,43.2169272 L16.7196337,44.9861372 L15,43.9417841 L17.6576158,39.6555432 L17.6838389,39.671518 C17.787723,39.4468722 17.9652336,39.2581698 18.2062849,39.1603241 C18.5845034,39.0055681 19.0171855,39.0904343 19.3046316,39.375984 L22.8447573,42.8804577 L21.4186212,44.2922315 L19.7645453,42.6548136 C20.727742,50.1689643 25.8473085,56.7366077 33.1060792,59.4653047 L33.1060792,59.4653047 Z M60.1189534,47.4362736 L62.0039948,48.1451557 C58.9257999,56.1744941 51.4290037,61.7766599 42.910513,62.6662571 L44.9105328,64.5542798 L43.5186884,66 L39.842404,62.5294728 L39.8484555,62.5224838 C39.7486058,62.4276333 39.6608591,62.3208018 39.605387,62.1890096 C39.4490567,61.8155985 39.5357948,61.3862755 39.8242495,61.1007258 L43.3643753,57.5972505 L44.7905114,59.0090242 L43.1364355,60.6454437 C50.7280386,59.6929457 57.3624965,54.6239392 60.1189534,47.4362736 L60.1189534,47.4362736 Z M20.9556817,32.7274682 L19.0706404,32.0185861 C22.1649725,23.9493107 29.7202666,18.3301717 38.2922122,17.4825084 L36.1328363,15.4457202 L37.5256892,14 L41.2019737,17.4705272 L41.1243128,17.5513997 C41.273583,17.6572328 41.3966301,17.8000077 41.4692481,17.9747322 C41.6255785,18.3481433 41.5388403,18.7774663 41.2503856,19.063016 L37.7102599,22.5674897 L36.2841237,21.155716 L37.9381996,19.5182981 C30.3476051,20.4717945 23.7121386,25.5398026 20.9556817,32.7274682 L20.9556817,32.7274682 Z M53.6115769,40 C53.6115769,47.1567144 47.7295218,52.9795323 40.5,52.9795323 C33.2704782,52.9795323 27.3884231,47.1567144 27.3884231,40 C27.3884231,32.8432856 33.2704782,27.0204677 40.5,27.0204677 C47.7295218,27.0204677 53.6115769,32.8432856 53.6115769,40 L53.6115769,40 Z M25.3712574,40 C25.3712574,48.2579778 32.1580113,54.9763834 40.5,54.9763834 C48.8419887,54.9763834 55.6287426,48.2579778 55.6287426,40 C55.6287426,31.7420222 48.8419887,25.0236166 40.5,25.0236166 C32.1580113,25.0236166 25.3712574,31.7420222 25.3712574,40 L25.3712574,40 Z" id="Amazon-Personalize-Icon_64_Squid" fill="#FFFFFF"></path>
    </g>
</svg>