<?xml version="1.0" encoding="UTF-8"?>
<svg width="80px" height="80px" viewBox="0 0 80 80" version="1.1" xmlns="http://www.w3.org/2000/svg" xmlns:xlink="http://www.w3.org/1999/xlink">
    <title>Icon-Architecture/64/Arch_Amazon-Hogun_64</title>
    <defs>
        <linearGradient x1="0%" y1="100%" x2="100%" y2="0%" id="linearGradient-1">
            <stop stop-color="#055F4E" offset="0%"></stop>
            <stop stop-color="#56C0A7" offset="100%"></stop>
        </linearGradient>
    </defs>
    <g id="Icon-Architecture/64/Arch_Amazon-Hogun_64" stroke="none" stroke-width="1" fill="none" fill-rule="evenodd">
        <g id="Rectangle" fill="url(#linearGradient-1)">
            <rect x="0" y="0" width="80" height="80"></rect>
        </g>
        <g id="Icon-Service/64/Amazon-Hogun_64" transform="translate(8.000000, 8.000000)" fill="#FFFFFF">
            <path d="M46,20 C46,14.486 41.514,10 36,10 C30.486,10 26,14.486 26,20 C26,21.021 26.153,22.027 26.454,22.99 L24.546,23.587 C24.184,22.431 24,21.224 24,20 C24,13.383 29.383,8 36,8 C42.617,8 48,13.383 48,20 C48,25.793 43.87,30.757 38.181,31.802 L37.819,29.835 C42.56,28.964 46,24.828 46,20 L46,20 Z M10,54 L14,54 L14,51 L10,51 L10,54 Z M15,49 L9,49 C8.447,49 8,49.448 8,50 L8,55 C8,55.552 8.447,56 9,56 L15,56 C15.553,56 16,55.552 16,55 L16,50 C16,49.448 15.553,49 15,49 L15,49 Z M20,54 L24,54 L24,51 L20,51 L20,54 Z M25,49 L19,49 C18.447,49 18,49.448 18,50 L18,55 C18,55.552 18.447,56 19,56 L25,56 C25.553,56 26,55.552 26,55 L26,50 C26,49.448 25.553,49 25,49 L25,49 Z M54,58 L6,58 L6,11 L13,11 L13,28 L13,42 L13,44 L15,44 L15,42 L15,30.261 L24,38.442 L24,44 L26,44 L26,30.135 L36,38.468 L36,46 C36,46.552 36.447,47 37,47 L54,47 L54,58 Z M6,9 L13,9 L13,6 L6,6 L6,9 Z M55,45 L38,45 L38,38 C38,37.703 37.868,37.422 37.641,37.232 L25.641,27.232 C25.342,26.983 24.926,26.931 24.576,27.094 C24.225,27.259 24,27.612 24,28 L24,35.739 L15,27.558 L15,5 C15,4.448 14.553,4 14,4 L5,4 C4.447,4 4,4.448 4,5 L4,59 C4,59.552 4.447,60 5,60 L55,60 C55.553,60 56,59.552 56,59 L56,46 C56,45.448 55.553,45 55,45 L55,45 Z M57.285,40.577 C56.608,41.349 55.522,41.869 54.749,41.19 L45.484,32.874 C46.566,32.075 47.539,31.147 48.382,30.114 L57.571,37.954 C57.884,38.228 58.026,38.593 57.996,39.039 C57.962,39.547 57.71,40.093 57.285,40.577 L57.285,40.577 Z M58.88,36.441 L49.555,28.484 C51.109,26.001 52,23.083 52,20 C52,11.178 44.822,4 36,4 C27.178,4 20,11.178 20,20 C20,21.448 20.193,22.884 20.575,24.266 L22.503,23.734 C22.169,22.525 22,21.269 22,20 C22,12.28 28.28,6 36,6 C43.72,6 50,12.28 50,20 C50,26.345 45.723,31.91 39.598,33.534 L40.109,35.467 C41.4,35.125 42.618,34.627 43.748,34.002 L53.422,42.686 C54.052,43.238 54.805,43.507 55.582,43.507 C56.695,43.507 57.859,42.956 58.789,41.896 C59.501,41.084 59.928,40.117 59.992,39.173 C60.063,38.103 59.673,37.136 58.88,36.441 L58.88,36.441 Z" id="Fill-3"></path>
        </g>
    </g>
</svg>