<svg xmlns="http://www.w3.org/2000/svg" xmlns:xlink="http://www.w3.org/1999/xlink" width="24px" height="24px" viewBox="0 0 24 24"><defs><style>.cls-1,.cls-2,.cls-8{fill:#2683fb;}.cls-1,.cls-3,.cls-5{clip-rule:evenodd;}.cls-11,.cls-3,.cls-4{fill:#a6cafd;}.cls-14,.cls-5,.cls-6{fill:#559cfc;}.cls-7{fill:none;}.cls-11,.cls-14,.cls-8{fill-rule:evenodd;}.cls-9{clip-path:url(#clip-path);}.cls-10{clip-path:url(#clip-path-2);}.cls-12{clip-path:url(#clip-path-3);}.cls-13{clip-path:url(#clip-path-4);}.cls-15{clip-path:url(#clip-path-5);}.cls-16{clip-path:url(#clip-path-6);}.cls-17{clip-path:url(#clip-path-7);}.cls-18{clip-path:url(#clip-path-9);}</style><clipPath id="clip-path"><path class="cls-1" d="M18,11v2h3a1,1,0,0,0,1-1h0a1,1,0,0,0-1-1Z"/></clipPath><clipPath id="clip-path-2"><rect class="cls-2" width="24" height="24"/></clipPath><clipPath id="clip-path-3"><path class="cls-3" d="M2,8V9h9.46a1,1,0,0,1,.84.45l1.33,2a1,1,0,0,1,0,1.11l-1.33,2a1,1,0,0,1-.84.45H2v1a1,1,0,0,0,1,1h9.46a1,1,0,0,0,.84-.45L15,14h2a1,1,0,0,0,1-1V11a1,1,0,0,0-1-1H15L13.3,7.45A1,1,0,0,0,12.46,7H3A1,1,0,0,0,2,8Z"/></clipPath><clipPath id="clip-path-4"><rect class="cls-4" width="24" height="24"/></clipPath><clipPath id="clip-path-5"><path class="cls-5" d="M15,18H11.54a1,1,0,0,1-.84-.45L8,13.45A1,1,0,0,0,7.13,13H2v2H4V14H5.46a1,1,0,0,1,.84.45l3.4,5.1a1,1,0,0,0,.84.45H16a1,1,0,0,0,1-1V17h4a1,1,0,0,0,1-1h0a1,1,0,0,0-1-1H16a1,1,0,0,0-1,1Z"/></clipPath><clipPath id="clip-path-6"><rect class="cls-6" width="24" height="24"/></clipPath><clipPath id="clip-path-7"><path class="cls-5" d="M17,7V5a1,1,0,0,0-1-1H10.54a1,1,0,0,0-.84.45L6.3,9.55a1,1,0,0,1-.84.45H4V9H2v2H7.13A1,1,0,0,0,8,10.55l2.74-4.1A1,1,0,0,1,11.54,6H15V8a1,1,0,0,0,1,1h5a1,1,0,0,0,1-1h0a1,1,0,0,0-1-1Z"/></clipPath><clipPath id="clip-path-9"><circle class="cls-2" cx="10.5" cy="12" r="1.25"/></clipPath></defs><title>Icon_24px_CloudIoTEdge_Color</title><g data-name="Product Icons"><g data-name="colored-32/cloud-iot-edge"><g ><rect id="Rectangle" class="cls-7" width="24" height="24"/></g></g><path class="cls-8" d="M18,11v2h3a1,1,0,0,0,1-1h0a1,1,0,0,0-1-1Z"/><g class="cls-9"><rect class="cls-2" width="24" height="24"/><g class="cls-10"><rect class="cls-2" x="14" y="6" width="13" height="12"/></g></g><path class="cls-11" d="M2,8V9h9.46a1,1,0,0,1,.84.45l1.33,2a1,1,0,0,1,0,1.11l-1.33,2a1,1,0,0,1-.84.45H2v1a1,1,0,0,0,1,1h9.46a1,1,0,0,0,.84-.45L15,14h2a1,1,0,0,0,1-1V11a1,1,0,0,0-1-1H15L13.3,7.45A1,1,0,0,0,12.46,7H3A1,1,0,0,0,2,8Z"/><g class="cls-12"><rect class="cls-4" width="24" height="24"/><g class="cls-13"><rect class="cls-4" x="-3" y="2" width="27" height="20"/></g></g><path class="cls-14" d="M15,18H11.54a1,1,0,0,1-.84-.45L8,13.45A1,1,0,0,0,7.13,13H2v2H4V14H5.46a1,1,0,0,1,.84.45l3.4,5.1a1,1,0,0,0,.84.45H16a1,1,0,0,0,1-1V17h4a1,1,0,0,0,1-1h0a1,1,0,0,0-1-1H16a1,1,0,0,0-1,1Z"/><g class="cls-15"><rect class="cls-6" width="24" height="24"/><g class="cls-16"><rect class="cls-6" x="-3" y="8" width="30" height="17"/></g></g><path class="cls-14" d="M17,7V5a1,1,0,0,0-1-1H10.54a1,1,0,0,0-.84.45L6.3,9.55a1,1,0,0,1-.84.45H4V9H2v2H7.13A1,1,0,0,0,8,10.55l2.74-4.1A1,1,0,0,1,11.54,6H15V8a1,1,0,0,0,1,1h5a1,1,0,0,0,1-1h0a1,1,0,0,0-1-1Z"/><g class="cls-17"><rect class="cls-6" width="24" height="24"/><g class="cls-16"><rect class="cls-6" x="-3" y="-1" width="30" height="17"/></g></g><circle class="cls-2" cx="10.5" cy="12" r="1.25"/><g class="cls-18"><rect class="cls-2" width="24" height="24"/><g class="cls-10"><rect class="cls-2" x="4.25" y="5.75" width="12.5" height="12.5"/></g></g><rect class="cls-2" x="2" y="18" width="6.52" height="2" rx="0.97"/><rect class="cls-2" x="2" y="4" width="6.52" height="2" rx="0.97"/></g></svg>