<?xml version="1.0" encoding="UTF-8"?>
<svg width="40px" height="40px" viewBox="0 0 40 40" version="1.1" xmlns="http://www.w3.org/2000/svg" xmlns:xlink="http://www.w3.org/1999/xlink">
    <!-- Generator: Sketch 64 (93537) - https://sketch.com -->
    <title>Icon-Architecture/32/Arch_AWS-IoT-Core_32</title>
    <desc>Created with Sketch.</desc>
    <defs>
        <linearGradient x1="0%" y1="100%" x2="100%" y2="0%" id="linearGradient-1">
            <stop stop-color="#1B660F" offset="0%"></stop>
            <stop stop-color="#6CAE3E" offset="100%"></stop>
        </linearGradient>
    </defs>
    <g id="Icon-Architecture/32/Arch_AWS-IoT-Core_32" stroke="none" stroke-width="1" fill="none" fill-rule="evenodd">
        <g id="Icon-Architecture-BG/32/Internet-of-Things" fill="url(#linearGradient-1)">
            <rect id="Rectangle" x="0" y="0" width="40" height="40"></rect>
        </g>
        <path d="M30.0118379,24.3611289 C30.0118379,23.8020743 29.5631196,23.3465108 29.0102345,23.3465108 C28.4573494,23.3465108 28.0086311,23.8020743 28.0086311,24.3611289 C28.0086311,24.9201834 28.4573494,25.3757469 29.0102345,25.3757469 C29.5631196,25.3757469 30.0118379,24.9201834 30.0118379,24.3611289 M28.4112757,26.2868738 C27.7582303,26.0778625 27.251419,25.5441735 27.0781416,24.8684379 L25.5046226,24.8684379 L25.5046226,30.3128781 C27.0150406,29.5184322 28.1198091,28.05028 28.4112757,26.2868738 M24.5030193,30.7166961 L24.5030193,24.3611289 C24.5030193,24.0810943 24.7273784,23.8538198 25.0038209,23.8538198 L27.0781416,23.8538198 C27.1963308,23.3921687 27.4687669,22.9944384 27.8393601,22.7225208 C27.1893195,21.5100522 26.1065863,20.5745744 24.8255355,20.1159671 C24.5781395,20.6709631 24.0933635,21.0889858 23.5014159,21.2452369 L23.5014159,30.9074443 C23.8459674,30.8739619 24.1784998,30.8110556 24.5030193,30.7166961 M22.4998125,30.9074443 L22.4998125,21.2452369 C21.9078649,21.0889858 21.4230888,20.6709631 21.1756928,20.1159671 C19.8946421,20.5745744 18.8119088,21.5100522 18.1618682,22.7225208 C18.5324614,22.9944384 18.8048976,23.3921687 18.9230868,23.8538198 L20.9974074,23.8538198 C21.2738499,23.8538198 21.4982091,24.0810943 21.4982091,24.3611289 L21.4982091,30.7166961 C21.8227286,30.8110556 22.1552609,30.8739619 22.4998125,30.9074443 M20.4966057,30.3128781 L20.4966057,24.8684379 L18.9230868,24.8684379 C18.7498094,25.5441735 18.2429981,26.0778625 17.5899527,26.2868738 C17.8814192,28.05028 18.9861878,29.5184322 20.4966057,30.3128781 M16.9909938,25.3757469 C17.5438789,25.3757469 17.9925972,24.9201834 17.9925972,24.3611289 C17.9925972,23.8020743 17.5438789,23.3465108 16.9909938,23.3465108 C16.4381088,23.3465108 15.9893904,23.8020743 15.9893904,24.3611289 C15.9893904,24.9201834 16.4381088,25.3757469 16.9909938,25.3757469 M21.9990108,19.2880388 C21.9990108,19.8470933 22.4477291,20.3026568 23.0006142,20.3026568 C23.5534992,20.3026568 24.0022176,19.8470933 24.0022176,19.2880388 C24.0022176,18.7289843 23.5534992,18.2734208 23.0006142,18.2734208 C22.4477291,18.2734208 21.9990108,18.7289843 21.9990108,19.2880388 M31.0134413,24.3611289 C31.0134413,25.3331329 30.3353558,26.1448273 29.4349144,26.3426778 C29.0953708,28.6560069 27.556908,30.573635 25.5046226,31.4512795 L25.5046226,34 L24.5030193,34 L24.5030193,31.7830596 C24.1764965,31.8632145 23.8429626,31.9190185 23.5014159,31.9464131 L23.5014159,34 L22.4998125,34 L22.4998125,31.9464131 C22.1582657,31.9190185 21.8247318,31.8632145 21.4982091,31.7830596 L21.4982091,34 L20.4966057,34 L20.4966057,31.4512795 C18.4443203,30.573635 16.9058575,28.6560069 16.566314,26.3426778 C15.6658725,26.1448273 14.987787,25.3331329 14.987787,24.3611289 C14.987787,23.2420052 15.8862253,22.3318928 16.9909938,22.3318928 C17.0701205,22.3318928 17.1462423,22.3471121 17.2233658,22.355229 C18.0136309,20.8140243 19.3878307,19.6350381 21.0164379,19.1043929 C21.1085854,18.0725264 21.957945,17.2588028 23.0006142,17.2588028 C24.0432833,17.2588028 24.892643,18.0725264 24.9847905,19.1043929 C26.6133976,19.6350381 27.9875975,20.8140243 28.7778625,22.355229 C28.854986,22.3471121 28.9311078,22.3318928 29.0102345,22.3318928 C30.1150031,22.3318928 31.0134413,23.2420052 31.0134413,24.3611289 M33.999221,19.2160009 C34.0242611,20.6973432 33.4443327,22.1350569 32.4477373,23.0847394 L31.7606374,22.3460975 C32.5559105,21.5881778 33.0186513,20.4335425 32.9976176,19.2586149 C32.9976176,16.9878997 31.3519832,15.1524558 29.1684878,14.9464883 C28.8980549,14.9201082 28.6977343,14.6796438 28.7157631,14.4046823 L28.7267808,14.230168 C28.7267808,12.7660742 27.5579096,11.5749126 26.1216103,11.5749126 C25.4495345,11.5749126 24.8125147,11.8366841 24.3247339,12.3115253 C24.2015366,12.429221 24.0292609,12.4789373 23.8659995,12.4393672 C23.7017365,12.4018263 23.5675217,12.283116 23.5084271,12.1228064 C22.6029776,9.66540153 20.2662369,8.01461802 17.6961226,8.01461802 C14.2696374,8.01461802 11.4821752,10.8545338 11.4821752,14.3458344 C11.4821752,14.5660065 11.3429523,14.7628424 11.136622,14.8308218 C9.26162046,15.4527827 8.00160339,17.2192326 8.00160339,19.2271617 C8.00160339,21.778926 10.0388647,23.8538198 12.5418716,23.8538198 L12.5418716,24.8684379 C9.48597962,24.8684379 7,22.3379805 7,19.2271617 C7,16.9006426 8.3882223,14.8399534 10.4895862,13.9897035 C10.6728796,10.1027019 13.8359431,7 17.6961226,7 C20.4565416,7 22.9835869,8.63759348 24.1815046,11.1386269 C24.7564249,10.7622036 25.4264976,10.5602946 26.1216103,10.5602946 C28.0336712,10.5602946 29.6041853,12.0832363 29.7213729,13.9998497 C32.1903253,14.4543986 33.999221,16.6195934 33.999221,19.2160009" id="AWS-IoT-Core_Icon_32_Squid" fill="#FFFFFF"></path>
    </g>
</svg>