<?xml version="1.0" encoding="UTF-8"?>
<svg width="40px" height="40px" viewBox="0 0 40 40" version="1.1" xmlns="http://www.w3.org/2000/svg" xmlns:xlink="http://www.w3.org/1999/xlink">
    <!-- Generator: Sketch 64 (93537) - https://sketch.com -->
    <title>Icon-Architecture/32/Arch_AWS-IoT-Greengrass-Core_32</title>
    <desc>Created with Sketch.</desc>
    <defs>
        <linearGradient x1="0%" y1="100%" x2="100%" y2="0%" id="linearGradient-1">
            <stop stop-color="#1B660F" offset="0%"></stop>
            <stop stop-color="#6CAE3E" offset="100%"></stop>
        </linearGradient>
    </defs>
    <g id="Icon-Architecture/32/Arch_AWS-IoT-Greengrass-Core_32" stroke="none" stroke-width="1" fill="none" fill-rule="evenodd">
        <g id="Icon-Architecture-BG/32/Internet-of-Things" fill="url(#linearGradient-1)">
            <rect id="Rectangle" x="0" y="0" width="40" height="40"></rect>
        </g>
        <path d="M11.5,10.0034484 C12.327,10.0034484 13,10.677222 13,11.5051726 C13,12.3331232 12.327,13.0068968 11.5,13.0068968 C10.673,13.0068968 10,12.3331232 10,11.5051726 C10,10.677222 10.673,10.0034484 11.5,10.0034484 L11.5,10.0034484 Z M11.5,14.0080463 C12.02,14.0080463 12.502,13.8478624 12.901,13.5755497 L25.295,26.0218399 L24,26.0218399 L24,27.0229894 L26.5,27.0229894 C26.776,27.0229894 27,26.7987319 27,26.5224146 L27,24.019541 L26,24.019541 L26,25.3110238 L13.598,12.8567244 C13.85,12.4662761 14,12.003745 14,11.5051726 C14,10.1255886 12.879,9.00229894 11.5,9.00229894 C10.121,9.00229894 9,10.1255886 9,11.5051726 C9,12.8847566 10.121,14.0080463 11.5,14.0080463 L11.5,14.0080463 Z M26,22.017242 L27,22.017242 L27,19.0137936 L26,19.0137936 L26,22.017242 Z M26,18.0126441 L27,18.0126441 L27,15.0091957 L26,15.0091957 L26,18.0126441 Z M19,27.0229894 L22,27.0229894 L22,26.0218399 L19,26.0218399 L19,27.0229894 Z M15,27.0229894 L18,27.0229894 L18,26.0218399 L15,26.0218399 L15,27.0229894 Z M8,26.5224146 C8,25.694464 8.673,25.0206904 9.5,25.0206904 C10.327,25.0206904 11,25.694464 11,26.5224146 C11,27.3503652 10.327,28.0241388 9.5,28.0241388 C8.673,28.0241388 8,27.3503652 8,26.5224146 L8,26.5224146 Z M26.5,11.0045979 C25.673,11.0045979 25,10.3308243 25,9.50287367 C25,8.67492306 25.673,8.00114947 26.5,8.00114947 C27.327,8.00114947 28,8.67492306 28,9.50287367 C28,10.3308243 27.327,11.0045979 26.5,11.0045979 L26.5,11.0045979 Z M28.875,10.2437243 C28.949,10.007453 29,9.76217138 29,9.50287367 C29,8.1232897 27.879,7 26.5,7 C25.121,7 24,8.1232897 24,9.50287367 C24,10.7112611 24.86,11.722422 26,11.9546887 L26,14.0080463 L27,14.0080463 L27,11.9546887 C27.549,11.84256 28.024,11.5442174 28.379,11.1357485 C31.275,13.6436279 33,17.0255108 33,20.3313063 C33,27.0800549 27.034,32.9988505 20.233,32.9988505 C16.926,32.9988505 13.649,31.3229263 11.131,28.4035745 C11.539,28.0481664 11.838,27.5726204 11.949,27.0229894 L14,27.0229894 L14,26.0218399 L11.949,26.0218399 C11.717,24.8805295 10.708,24.019541 9.5,24.019541 C8.121,24.019541 7,25.1428307 7,26.5224146 C7,27.9019986 8.121,29.0252883 9.5,29.0252883 C9.759,29.0252883 10.004,28.9742297 10.239,28.9001446 C12.966,32.137862 16.572,34 20.233,34 C27.567,34 34,27.6126664 34,20.3313063 C34,16.6761096 32.085,12.9508324 28.875,10.2437243 L28.875,10.2437243 Z" id="AWS-IoT-Greengrass-Core_Icon_32_Squid" fill="#FFFFFF"></path>
    </g>
</svg>