<?xml version="1.0" encoding="UTF-8"?>
<svg width="40px" height="40px" viewBox="0 0 40 40" version="1.1" xmlns="http://www.w3.org/2000/svg" xmlns:xlink="http://www.w3.org/1999/xlink">
    <!-- Generator: Sketch 64 (93537) - https://sketch.com -->
    <title>Icon-Architecture/32/Arch_AWS-IoT-SiteWise_32</title>
    <desc>Created with Sketch.</desc>
    <defs>
        <linearGradient x1="0%" y1="100%" x2="100%" y2="0%" id="linearGradient-1">
            <stop stop-color="#1B660F" offset="0%"></stop>
            <stop stop-color="#6CAE3E" offset="100%"></stop>
        </linearGradient>
    </defs>
    <g id="Icon-Architecture/32/Arch_AWS-IoT-SiteWise_32" stroke="none" stroke-width="1" fill="none" fill-rule="evenodd">
        <g id="Icon-Architecture-BG/32/Internet-of-Things" fill="url(#linearGradient-1)">
            <rect id="Rectangle" x="0" y="0" width="40" height="40"></rect>
        </g>
        <path d="M28.4335011,25.4617228 L25.4543282,23.8768954 L26.4204656,23.3607872 C26.8751185,23.9935014 27.6029619,24.4092271 28.43051,24.4092271 C29.2560639,24.4092271 29.9829103,23.9955293 30.4365661,23.3648431 L31.4296238,23.9133982 L28.4335011,25.4617228 Z M29.9260787,21.8743144 C29.9260787,22.7138775 29.2550668,23.395262 28.43051,23.395262 C27.6059531,23.395262 26.9349412,22.7138775 26.9349412,21.8743144 C26.9349412,21.0357653 27.6059531,20.3533668 28.43051,20.3533668 C29.2550668,20.3533668 29.9260787,21.0357653 29.9260787,21.8743144 L29.9260787,21.8743144 Z M20.4671051,17.3195834 C18.485975,17.3195834 16.874749,15.6810158 16.874749,13.6672812 C16.874749,11.6525326 18.485975,10.0139651 20.4671051,10.0139651 C22.447238,10.0139651 24.0584641,11.6525326 24.0584641,13.6672812 C24.0584641,15.6810158 22.447238,17.3195834 20.4671051,17.3195834 L20.4671051,17.3195834 Z M22.0145202,25.8135687 C22.0145202,26.6815228 21.3195792,27.3862285 20.4671051,27.3862285 C19.6136338,27.3862285 18.920687,26.6815228 18.920687,25.8135687 C18.920687,24.9466286 19.6136338,24.2409089 20.4671051,24.2409089 C21.3195792,24.2409089 22.0145202,24.9466286 22.0145202,25.8135687 L22.0145202,25.8135687 Z M20.466108,29.9099876 L17.9884492,28.475227 L18.9954654,27.9155183 C19.4122306,28.2186938 19.9177328,28.4001936 20.4671051,28.4001936 C21.0164773,28.4001936 21.5209825,28.2186938 21.9377476,27.9165322 L22.9288112,28.4731991 L20.466108,29.9099876 Z M14.4539218,23.8941328 L11.4827252,25.4607089 L8.5633751,23.8992027 L9.49660998,23.3922201 C9.95225992,24.005669 10.6681388,24.4092271 11.4807311,24.4092271 C12.3062851,24.4092271 13.0351256,23.9945154 13.4887814,23.3638291 L14.4539218,23.8941328 Z M11.4807311,20.3533668 C12.305288,20.3533668 12.9762999,21.0357653 12.9762999,21.8743144 C12.9762999,22.7138775 12.305288,23.395262 11.4807311,23.395262 C10.6561743,23.395262 9.98516243,22.7138775 9.98516243,21.8743144 C9.98516243,21.0357653 10.6561743,20.3533668 11.4807311,20.3533668 L11.4807311,20.3533668 Z M32.7387449,23.481449 L30.8553254,22.4421349 C30.8962043,22.2586072 30.9231245,22.0710236 30.9231245,21.8743144 C30.9231245,20.4770706 29.8054361,19.3394018 28.43051,19.3394018 C28.1672899,19.3394018 27.9190255,19.3931419 27.6807315,19.4691893 L24.1950594,16.3674702 C24.732467,15.6039545 25.0555099,14.6751625 25.0555099,13.6672812 C25.0555099,11.0938379 22.9976073,9 20.4671051,9 C17.9366028,9 15.8777032,11.0938379 15.8777032,13.6672812 C15.8777032,14.5271236 16.1239735,15.3230861 16.5247859,16.0166382 L12.2494535,19.4752731 C12.0051772,19.3951698 11.7509306,19.3394018 11.4807311,19.3394018 C10.105805,19.3394018 8.98811662,20.4770706 8.98811662,21.8743144 C8.98811662,22.0831912 9.02002208,22.2829423 9.06688323,22.4766097 L7.26422441,23.455086 C7.10070889,23.5433009 6.99901022,23.7166889 7,23.9042725 C7.00100431,24.091856 7.10270298,24.2642301 7.26721554,24.3514311 L11.2494165,26.4807577 C11.3212038,26.5192884 11.4009675,26.5385537 11.4807311,26.5385537 C11.5594978,26.5385537 11.6382644,26.5203023 11.7110487,26.4817717 L15.7510784,24.352445 C15.9145939,24.266258 16.0182866,24.0948979 16.0202807,23.9063004 C16.0222748,23.7187169 15.9205762,23.5453288 15.7580577,23.4560999 L13.9055466,22.4411209 C13.9474225,22.2586072 13.9733457,22.0700097 13.9733457,21.8743144 C13.9733457,21.1432456 13.6622674,20.4872102 13.1727179,20.0248421 L17.1160341,16.8328801 C17.8468687,17.6318846 18.8459086,18.1571185 19.9685822,18.2818362 L19.9685822,23.278656 C18.8040326,23.5149099 17.9236412,24.5613218 17.9236412,25.8135687 C17.9236412,26.3033138 18.0662187,26.7565562 18.2995275,27.1479467 L16.7261892,28.0199567 C16.5676589,28.1081716 16.4679543,28.2764898 16.4659602,28.4610315 C16.4639661,28.6445592 16.5606796,28.8149053 16.7182128,28.9061621 L20.2208347,30.9340923 C20.2966102,30.9776928 20.3823562,31 20.4671051,31 C20.552851,31 20.6385969,30.9776928 20.7153695,30.9330783 L24.1920682,28.9051482 C24.3476074,28.8138913 24.4433238,28.6445592 24.4423267,28.4610315 C24.4413297,28.2785178 24.3426221,28.1101996 24.1850889,28.0219846 L22.6346827,27.1499747 C22.8689884,26.7585841 23.011566,26.3043278 23.011566,25.8135687 C23.011566,24.5613218 22.1311745,23.5149099 20.965628,23.2776421 L20.965628,18.2818362 C21.945724,18.1733419 22.8301036,17.7586302 23.5260416,17.1198322 L26.7654435,20.0025349 C26.2609383,20.4659169 25.9378954,21.1300641 25.9378954,21.8743144 C25.9378954,22.0689957 25.9638186,22.2555653 26.0037005,22.437065 L24.1481982,23.4287229 C23.9836856,23.5169378 23.881987,23.6893119 23.881987,23.8779094 C23.881987,24.0675209 23.9846827,24.2398949 24.1491952,24.3270959 L28.2001924,26.4807577 C28.2719797,26.5192884 28.3507463,26.5385537 28.43051,26.5385537 C28.5082795,26.5385537 28.5850521,26.5203023 28.6568394,26.4837996 L32.7277774,24.3798221 C32.893287,24.2936351 32.9969798,24.122275 33,23.9346914 C33.001965,23.7460939 32.9012634,23.5716919 32.7387449,23.481449 L32.7387449,23.481449 Z" id="AWS-IoT-SiteWise_Icon_32_Squid" fill="#FFFFFF"></path>
    </g>
</svg>