<?xml version="1.0" encoding="UTF-8"?>
<svg width="40px" height="40px" viewBox="0 0 40 40" version="1.1" xmlns="http://www.w3.org/2000/svg" xmlns:xlink="http://www.w3.org/1999/xlink">
    <!-- Generator: Sketch 64 (93537) - https://sketch.com -->
    <title>Icon-Architecture/32/Arch_AWS-IoT-1-Click_32</title>
    <desc>Created with Sketch.</desc>
    <defs>
        <linearGradient x1="0%" y1="100%" x2="100%" y2="0%" id="linearGradient-1">
            <stop stop-color="#1B660F" offset="0%"></stop>
            <stop stop-color="#6CAE3E" offset="100%"></stop>
        </linearGradient>
    </defs>
    <g id="Icon-Architecture/32/Arch_AWS-IoT-1-Click_32" stroke="none" stroke-width="1" fill="none" fill-rule="evenodd">
        <g id="Icon-Architecture-BG/32/Internet-of-Things" fill="url(#linearGradient-1)">
            <rect id="Rectangle" x="0" y="0" width="40" height="40"></rect>
        </g>
        <path d="M30.5,31.9622642 C29.673,31.9622642 29,31.276566 29,30.4339623 C29,29.5913585 29.673,28.9056604 30.5,28.9056604 C31.327,28.9056604 32,29.5913585 32,30.4339623 C32,31.276566 31.327,31.9622642 30.5,31.9622642 L30.5,31.9622642 Z M13.994,24.8301887 C12.401,24.8291698 11.088,23.6483019 11.004,22.1393585 C11,22.0710943 10.998,22.0018113 10.998,21.9304906 C10.998,19.9732453 12.393,19.3303396 13.224,19.1214717 C13.469,19.0593208 13.631,18.8209057 13.6,18.5651698 C13.579,18.3919623 13.567,18.2156981 13.567,18.0363774 C13.567,16.4510189 14.682,14.7433962 16.104,14.1504151 C16.75,13.8804151 17.347,13.773434 17.887,13.773434 C19.422,13.773434 20.505,14.6384528 20.979,15.1061132 C21.498,15.6196226 21.904,16.2767925 22.185,17.059283 C22.247,17.2335094 22.398,17.3598491 22.579,17.3873585 C22.76,17.4158868 22.94,17.3415094 23.052,17.1937736 C23.444,16.6690566 24.079,16.4489811 24.671,16.6323774 C25.377,16.8524528 25.817,17.5676981 25.878,18.5957358 C25.892,18.8270189 26.056,19.0195849 26.278,19.065434 C28.056,19.4301887 28.957,20.4042264 28.957,21.9590189 C28.957,24.5510189 26.82,24.8301887 25.902,24.8301887 L13.994,24.8301887 Z M9,10.0566038 C9,9.214 9.673,8.52830189 10.5,8.52830189 C11.327,8.52830189 12,9.214 12,10.0566038 C12,10.8992075 11.327,11.5849057 10.5,11.5849057 C9.673,11.5849057 9,10.8992075 9,10.0566038 L9,10.0566038 Z M21,31.4528302 C21,32.295434 20.327,32.9811321 19.5,32.9811321 C18.673,32.9811321 18,32.295434 18,31.4528302 C18,30.6102264 18.673,29.9245283 19.5,29.9245283 C20.327,29.9245283 21,30.6102264 21,31.4528302 L21,31.4528302 Z M9.5,30.9433962 C8.673,30.9433962 8,30.2576981 8,29.4150943 C8,28.5724906 8.673,27.8867925 9.5,27.8867925 C10.327,27.8867925 11,28.5724906 11,29.4150943 C11,30.2576981 10.327,30.9433962 9.5,30.9433962 L9.5,30.9433962 Z M28.479,8.01886792 C29.306,8.01886792 29.979,8.70456604 29.979,9.54716981 C29.979,10.3897736 29.306,11.0754717 28.479,11.0754717 C27.651,11.0754717 26.979,10.3897736 26.979,9.54716981 C26.979,8.70456604 27.651,8.01886792 28.479,8.01886792 L28.479,8.01886792 Z M30.5,27.8867925 C30.326,27.8867925 30.157,27.9051321 29.993,27.9397736 L28.211,25.2693208 C29.217,24.6936604 29.957,23.6564528 29.957,21.9590189 C29.957,20.0231698 28.854,18.6813208 26.838,18.1504906 C26.694,17.1458868 26.22,16.3735849 25.522,15.9364906 L28.09,12.0546038 C28.217,12.0749811 28.346,12.0943396 28.479,12.0943396 C29.857,12.0943396 30.979,10.9511698 30.979,9.54716981 C30.979,8.14316981 29.857,7 28.479,7 C27.1,7 25.979,8.14316981 25.979,9.54716981 C25.979,10.4437736 26.438,11.2303396 27.128,11.6847547 L24.551,15.5809057 C23.942,15.5034717 23.334,15.6501887 22.831,16.0098491 C22.526,15.3822264 22.139,14.8330566 21.675,14.374566 C20.048,12.7667925 17.823,12.3327547 15.726,13.2069434 C15.175,13.4361887 14.675,13.7999245 14.232,14.2380377 L12.332,11.7764528 C12.743,11.3220377 13,10.7209057 13,10.0566038 C13,8.65260377 11.879,7.50943396 10.5,7.50943396 C9.121,7.50943396 8,8.65260377 8,10.0566038 C8,11.4606038 9.121,12.6037736 10.5,12.6037736 C10.865,12.6037736 11.211,12.5192075 11.523,12.3745283 L13.568,15.0235849 C12.949,15.9150943 12.567,16.9828679 12.567,18.0363774 C12.567,18.1097358 12.569,18.1820755 12.572,18.2544151 C10.951,18.8209057 9.998,20.1678491 9.998,21.9304906 C9.998,22.0232075 10,22.1149057 10.006,22.2004906 C10.087,23.6574717 11.007,24.8780755 12.294,25.4669811 L10.845,27.2744528 C10.456,27.0197358 9.996,26.8679245 9.5,26.8679245 C8.121,26.8679245 7,28.0110943 7,29.4150943 C7,30.8190943 8.121,31.9622642 9.5,31.9622642 C10.879,31.9622642 12,30.8190943 12,29.4150943 C12,28.885283 11.84,28.3931698 11.567,27.9856226 L13.33,25.7858868 C13.547,25.8215472 13.767,25.8490566 13.993,25.8490566 L20.087,25.8490566 L19.355,28.9209434 C18.045,28.9983774 17,30.0987547 17,31.4528302 C17,32.8568302 18.121,34 19.5,34 C20.879,34 22,32.8568302 22,31.4528302 C22,30.3534717 21.31,29.4242642 20.351,29.0676604 L21.116,25.8490566 L25.902,25.8490566 C26.359,25.8490566 26.823,25.7869057 27.268,25.6646415 L29.063,28.3564906 C28.422,28.8180377 28,29.5750566 28,30.4339623 C28,31.8379623 29.121,32.9811321 30.5,32.9811321 C31.879,32.9811321 33,31.8379623 33,30.4339623 C33,29.0299623 31.879,27.8867925 30.5,27.8867925 L30.5,27.8867925 Z" id="AWS-IoT-1-Click_Icon_32_Squid" fill="#FFFFFF"></path>
    </g>
</svg>