<?xml version="1.0" encoding="UTF-8"?>
<svg width="40px" height="40px" viewBox="0 0 40 40" version="1.1" xmlns="http://www.w3.org/2000/svg" xmlns:xlink="http://www.w3.org/1999/xlink">
    <!-- Generator: Sketch 64 (93537) - https://sketch.com -->
    <title>Icon-Architecture/32/Arch_AWS-IoT-Analytics_32</title>
    <desc>Created with Sketch.</desc>
    <defs>
        <linearGradient x1="0%" y1="100%" x2="100%" y2="0%" id="linearGradient-1">
            <stop stop-color="#1B660F" offset="0%"></stop>
            <stop stop-color="#6CAE3E" offset="100%"></stop>
        </linearGradient>
    </defs>
    <g id="Icon-Architecture/32/Arch_AWS-IoT-Analytics_32" stroke="none" stroke-width="1" fill="none" fill-rule="evenodd">
        <g id="Icon-Architecture-BG/32/Internet-of-Things" fill="url(#linearGradient-1)">
            <rect id="Rectangle" x="0" y="0" width="40" height="40"></rect>
        </g>
        <path d="M30.9454545,22.7216682 C29.8224,22.7216682 28.9090909,21.8402722 28.9090909,20.7564597 C28.9090909,19.6726472 29.8224,18.7912512 30.9454545,18.7912512 C32.0685091,18.7912512 32.9818182,19.6726472 32.9818182,20.7564597 C32.9818182,21.8402722 32.0685091,22.7216682 30.9454545,22.7216682 L30.9454545,22.7216682 Z M25.9869091,29.8750273 C23.8864,31.9011573 21.0976,33.0173957 18.1336727,33.0173957 C16.1156364,33.0173957 14.1648,32.4907198 12.4512,31.5002547 C12.5509818,31.2094039 12.6181818,30.9047966 12.6181818,30.5825024 C12.6181818,30.5009462 12.5998545,30.4233205 12.5937455,30.3437295 L28.4926545,22.4966519 C28.6759273,22.7364073 28.8948364,22.9466846 29.1432727,23.124536 C28.8032,25.70682 27.5864727,28.3303734 25.9869091,29.8750273 L25.9869091,29.8750273 Z M9.56363636,32.5477109 C8.44058182,32.5477109 7.52727273,31.6663149 7.52727273,30.5825024 C7.52727273,29.4986899 8.44058182,28.6172938 9.56363636,28.6172938 C10.6866909,28.6172938 11.6,29.4986899 11.6,30.5825024 C11.6,31.6663149 10.6866909,32.5477109 9.56363636,32.5477109 L9.56363636,32.5477109 Z M7.01818182,22.2912876 C7.01818182,19.429944 8.17483636,16.7385909 10.2743273,14.7114783 C11.8688,13.17272 14.5914182,12.0014557 17.2784,11.6713007 C17.4647273,11.9179343 17.6877091,12.1341073 17.9422545,12.3139239 L9.78152727,27.6553243 C9.71025455,27.6396026 9.63796364,27.6346896 9.56363636,27.6346896 C9.23069091,27.6346896 8.91505455,27.6995415 8.61469091,27.7948541 C7.57818182,26.1381833 7.01818182,24.2437223 7.01818182,22.2912876 L7.01818182,22.2912876 Z M19.7454545,7.98260427 C20.8685091,7.98260427 21.7818182,8.86400029 21.7818182,9.9478128 C21.7818182,11.0316253 20.8685091,11.9130213 19.7454545,11.9130213 C18.6224,11.9130213 17.7090909,11.0316253 17.7090909,9.9478128 C17.7090909,8.86400029 18.6224,7.98260427 19.7454545,7.98260427 L19.7454545,7.98260427 Z M11.3159273,28.1751219 C11.1550545,28.0650702 10.9819636,27.9697576 10.7997091,27.8921319 L18.8525091,12.7521654 C19.1365818,12.8366693 19.4328727,12.8956256 19.7454545,12.8956256 C20.5090909,12.8956256 21.1994182,12.6146008 21.736,12.1655506 C23.1726545,12.6401485 24.5024,13.4075624 25.6346182,14.4108014 L11.3159273,28.1751219 Z M29.4405818,8.90920009 C30.5636364,8.90920009 31.4769455,9.79059611 31.4769455,10.8744086 C31.4769455,11.9582211 30.5636364,12.8396171 29.4405818,12.8396171 C28.3185455,12.8396171 27.4042182,11.9582211 27.4042182,10.8744086 C27.4042182,9.79059611 28.3185455,8.90920009 29.4405818,8.90920009 L29.4405818,8.90920009 Z M12.0378182,28.8678579 L26.3249455,15.0809375 C27.3584,16.1735934 28.1474909,17.4578572 28.6362182,18.8482422 C28.1780364,19.3641095 27.8909091,20.0254021 27.8909091,20.7564597 C27.8909091,21.0581192 27.952,21.3430745 28.0395636,21.6162384 L12.3381818,29.3650557 C12.2546909,29.1891695 12.1538909,29.0231094 12.0378182,28.8678579 L12.0378182,28.8678579 Z M30.9454545,17.8086469 C30.4078545,17.8086469 29.9089455,17.955055 29.4701091,18.1918626 C28.9264,16.7926341 28.1057455,15.5014921 27.0519273,14.3931145 L28.0395636,13.4783099 C28.4621091,13.6905524 28.9325091,13.8222214 29.4405818,13.8222214 C31.1256727,13.8222214 32.4951273,12.4996361 32.4951273,10.8744086 C32.4951273,9.24918116 31.1256727,7.92659582 29.4405818,7.92659582 C27.7565091,7.92659582 26.3860364,9.24918116 26.3860364,10.8744086 C26.3860364,11.6536138 26.7077818,12.3591237 27.2209455,12.8857995 L26.3554909,13.7180654 C25.2039273,12.6892787 23.8619636,11.8904214 22.4090182,11.3607977 C22.6513455,10.9392605 22.8,10.4626974 22.8,9.9478128 C22.8,8.32258534 21.4295273,7 19.7454545,7 C18.0613818,7 16.6909091,8.32258534 16.6909091,9.9478128 C16.6909091,10.2258898 16.7438545,10.4892277 16.8181818,10.7447049 C14.0283636,11.1554334 11.2324364,12.3974452 9.55447273,14.0167771 C7.26254545,16.2296019 6,19.1675886 6,22.2912876 C6,24.4048694 6.59258182,26.4594949 7.70647273,28.2586433 C6.98356364,28.798093 6.50909091,29.6342892 6.50909091,30.5825024 C6.50909091,32.2077298 7.87956364,33.5303152 9.56363636,33.5303152 C10.5482182,33.5303152 11.4167273,33.0704564 11.9757091,32.3698595 C13.8349091,33.4340199 15.9486545,34 18.1336727,34 C21.3704727,34 24.4148364,32.7815707 26.7067636,30.5697285 C28.4162909,28.9219012 29.6788364,26.2855739 30.1034182,23.576534 C30.3732364,23.6512119 30.6512,23.7042725 30.9454545,23.7042725 C32.6295273,23.7042725 34,22.3816872 34,20.7564597 C34,19.1312323 32.6295273,17.8086469 30.9454545,17.8086469 L30.9454545,17.8086469 Z" id="AWS-IoT-Analytics-_Icon_32_Squid" fill="#FFFFFF"></path>
    </g>
</svg>