<?xml version="1.0" encoding="UTF-8"?>
<svg width="40px" height="40px" viewBox="0 0 40 40" version="1.1" xmlns="http://www.w3.org/2000/svg" xmlns:xlink="http://www.w3.org/1999/xlink">
    <!-- Generator: Sketch 64 (93537) - https://sketch.com -->
    <title>Icon-Architecture/32/Arch_AWS-IoT-Device-Defender_32</title>
    <desc>Created with Sketch.</desc>
    <defs>
        <linearGradient x1="0%" y1="100%" x2="100%" y2="0%" id="linearGradient-1">
            <stop stop-color="#1B660F" offset="0%"></stop>
            <stop stop-color="#6CAE3E" offset="100%"></stop>
        </linearGradient>
    </defs>
    <g id="Icon-Architecture/32/Arch_AWS-IoT-Device-Defender_32" stroke="none" stroke-width="1" fill="none" fill-rule="evenodd">
        <g id="Icon-Architecture-BG/32/Internet-of-Things" fill="url(#linearGradient-1)">
            <rect id="Rectangle" x="0" y="0" width="40" height="40"></rect>
        </g>
        <path d="M20.0310803,15.9799778 C21.1369371,15.9799778 22.0362603,15.08198 22.0362603,13.9777531 C22.0362603,12.8735261 21.1369371,11.9755284 20.0310803,11.9755284 C18.9252235,11.9755284 18.0259002,12.8735261 18.0259002,13.9777531 C18.0259002,15.08198 18.9252235,15.9799778 20.0310803,15.9799778 L20.0310803,15.9799778 Z M13.0129501,20.9855395 C13.0129501,19.8813126 12.1136269,18.9833148 11.0077701,18.9833148 C9.90191328,18.9833148 9.00259002,19.8813126 9.00259002,20.9855395 C9.00259002,22.0897664 9.90191328,22.9877642 11.0077701,22.9877642 C12.1136269,22.9877642 13.0129501,22.0897664 13.0129501,20.9855395 L13.0129501,20.9855395 Z M26.9860473,20.9855395 C26.9860473,22.0897664 27.8863731,22.9877642 28.9922299,22.9877642 C30.0970841,22.9877642 30.99741,22.0897664 30.99741,20.9855395 C30.99741,19.8813126 30.0970841,18.9833148 28.9922299,18.9833148 C27.8863731,18.9833148 26.9860473,19.8813126 26.9860473,20.9855395 L26.9860473,20.9855395 Z M30.5582755,24.4894327 L31.5608656,24.4894327 L31.5608656,25.9290323 C31.5608656,27.4186874 30.7297184,28.7591769 29.3922633,29.4269188 L20.2526527,33.9479422 C20.1824714,33.9829811 20.1062745,34 20.0300777,34 C19.9538809,34 19.877684,33.9829811 19.8075027,33.9479422 L10.6719024,29.4279199 C9.33244214,28.7591769 8.50129501,27.4186874 8.50129501,25.9290323 L8.50129501,24.4894327 L9.50388504,24.4894327 L9.50388504,25.9290323 C9.50388504,27.0372636 10.1224831,28.0343715 11.118055,28.5319244 L16.5220152,31.2048943 L16.5220152,21.4860957 L13.9644081,21.4860957 C13.724789,22.9036707 12.4946111,23.9888765 11.0077701,23.9888765 C9.34948617,23.9888765 8,22.6413793 8,20.9855395 C8,19.3296997 9.34948617,17.9822024 11.0077701,17.9822024 C12.4946111,17.9822024 13.724789,19.0674082 13.9644081,20.4849833 L17.0233102,20.4849833 C17.3000251,20.4849833 17.5246052,20.7092325 17.5246052,20.9855395 L17.5246052,31.7014461 L19.5287827,32.6925473 L19.5297853,16.9300334 C18.1101178,16.6907675 17.0233102,15.4624027 17.0233102,13.9777531 C17.0233102,12.3219132 18.3727964,10.974416 20.0310803,10.974416 C21.6893642,10.974416 23.0388504,12.3219132 23.0388504,13.9777531 C23.0388504,15.4624027 21.9520428,16.6907675 20.5323753,16.9300334 L20.5313727,32.6925473 L22.4753948,31.7314794 L22.4753948,20.9855395 C22.4753948,20.7092325 22.6989723,20.4849833 22.9766898,20.4849833 L26.0345894,20.4849833 C26.275211,19.0674082 27.5043863,17.9822024 28.9922299,17.9822024 C30.6505138,17.9822024 32,19.3296997 32,20.9855395 C32,22.6413793 30.6505138,23.9888765 28.9922299,23.9888765 C27.5043863,23.9888765 26.275211,22.9036707 26.0345894,21.4860957 L23.4779848,21.4860957 L23.4779848,31.2349277 L28.9461108,28.5309232 C29.9396775,28.0343715 30.5582755,27.0372636 30.5582755,25.9290323 L30.5582755,24.4894327 Z M9.50388504,17.4816463 L8.50129501,17.4816463 L8.50129501,10.1665184 C8.50129501,9.89121246 8.72286741,9.6679644 8.99857966,9.66596218 C14.6431615,9.61690768 19.2510653,8.21434928 19.5287827,7.49555061 C19.5297853,7.47652948 19.5317905,7.45650723 19.5347982,7.4374861 C19.559863,7.1862069 19.7714095,7 20.0310803,7 C20.3077951,7 20.5313727,7.2352614 20.5313727,7.51256952 C20.5955385,8.13225806 24.2579998,9.61590656 31.0635809,9.66596218 C31.3382906,9.6679644 31.5608656,9.89121246 31.5608656,10.1665184 L31.5608656,17.4816463 L30.5582755,17.4816463 L30.5582755,10.6610679 C26.0426101,10.5759733 21.4196675,9.79410456 19.9819534,8.42358176 C18.3547498,9.7320356 13.4220069,10.5619577 9.50388504,10.6590656 L9.50388504,17.4816463 Z" id="AWS-IoT-Device-Defender_Icon_32_Squid" fill="#FFFFFF"></path>
    </g>
</svg>