<?xml version="1.0" encoding="UTF-8"?>
<svg width="40px" height="40px" viewBox="0 0 40 40" version="1.1" xmlns="http://www.w3.org/2000/svg" xmlns:xlink="http://www.w3.org/1999/xlink">
    <!-- Generator: Sketch 64 (93537) - https://sketch.com -->
    <title>Icon-Architecture/32/Arch_AWS-IoT-Device-Management_32</title>
    <desc>Created with Sketch.</desc>
    <defs>
        <linearGradient x1="0%" y1="100%" x2="100%" y2="0%" id="linearGradient-1">
            <stop stop-color="#1B660F" offset="0%"></stop>
            <stop stop-color="#6CAE3E" offset="100%"></stop>
        </linearGradient>
    </defs>
    <g id="Icon-Architecture/32/Arch_AWS-IoT-Device-Management_32" stroke="none" stroke-width="1" fill="none" fill-rule="evenodd">
        <g id="Icon-Architecture-BG/32/Internet-of-Things" fill="url(#linearGradient-1)">
            <rect id="Rectangle" x="0" y="0" width="40" height="40"></rect>
        </g>
        <path d="M31,27.196811 L20,32.9359704 L9,27.196811 L9,13.802439 L20,8.06327954 L31,13.802439 L31,27.196811 Z M31.731,13.0564182 L20.231,7.05625156 C20.087,6.98124948 19.913,6.98124948 19.769,7.05625156 L8.269,13.0564182 C8.104,13.1424206 8,13.3134254 8,13.4994305 L8,27.4998194 C8,27.6868246 8.104,27.8568294 8.269,27.9438318 L19.769,33.9439984 C19.841,33.9809995 19.921,34 20,34 C20.079,34 20.159,33.9809995 20.231,33.9439984 L31.731,27.9438318 C31.896,27.8568294 32,27.6868246 32,27.4998194 L32,13.4994305 C32,13.3134254 31.896,13.1424206 31.731,13.0564182 L31.731,13.0564182 Z M20.003,12.1633934 C22.433,12.1633934 24.472,13.9414428 24.903,16.325509 C24.155,16.0045001 23.348,15.8324953 22.528,15.8324953 C22.141,15.8324953 21.658,15.9004972 21.277,15.9734993 C20.93,15.6824912 20.488,15.4994861 20,15.4994861 C19.535,15.4994861 19.112,15.6654907 18.772,15.9324981 C18.216,15.8584961 17.31,15.8324953 17.006,15.8324953 C16.357,15.8324953 15.72,15.9484986 15.109,16.1525042 C15.584,13.8834412 17.607,12.1633934 20.003,12.1633934 L20.003,12.1633934 Z M27.937,21.8546626 C27.937,23.0326954 27.581,26.8768021 23,26.8768021 C22.299,26.8768021 21.55,26.657796 20.937,26.3997889 C21.863,25.5247646 22.452,24.2387289 22.739,23.4737076 C22.825,23.4847079 22.91,23.4997083 23,23.4997083 C24.103,23.4997083 25,22.6026834 25,21.4996528 C25,21.2116448 24.936,20.9386372 24.825,20.6896303 C25.39,19.9206089 25.766,19.0395844 25.913,18.0945582 C27.251,19.1185866 27.937,20.3776216 27.937,21.8546626 L27.937,21.8546626 Z M11.984,21.8546626 C11.984,20.2436179 12.771,18.736576 14.059,17.7975499 C14.171,18.8465791 14.553,19.8346065 15.177,20.6866302 C15.065,20.9356371 15,21.2096447 15,21.4996528 C15,22.6026834 15.897,23.4997083 17,23.4997083 C17.057,23.4997083 17.11,23.487708 17.166,23.4837079 C17.545,24.4717353 18.197,25.6227673 19.059,26.4077891 C18.363,26.6997972 17.613,26.8768021 17.006,26.8768021 C14.237,26.8768021 11.984,24.6237395 11.984,21.8546626 L11.984,21.8546626 Z M18.122,18.1635601 C17.68,18.5035695 17.28,18.9245812 17.009,19.5005972 C17.006,19.5005972 17.003,19.4995972 17,19.4995972 C16.559,19.4995972 16.154,19.6476013 15.823,19.8906081 C15.322,19.1255868 15.045,18.2275619 15.016,17.2485347 C15.642,16.9775272 16.318,16.8325231 17.006,16.8325231 C17.265,16.8325231 17.713,16.8475235 18.11,16.8745243 C18.044,17.0715298 18,17.2795355 18,17.4995417 C18,17.7335482 18.048,17.9545543 18.122,18.1635601 L18.122,18.1635601 Z M20,18.4995694 C19.448,18.4995694 19,18.050557 19,17.4995417 C19,16.9485263 19.448,16.4995139 20,16.4995139 C20.552,16.4995139 21,16.9485263 21,17.4995417 C21,18.050557 20.552,18.4995694 20,18.4995694 L20,18.4995694 Z M24.181,19.8946082 C23.849,19.6496014 23.443,19.4995972 23,19.4995972 C22.932,19.4995972 22.868,19.5125976 22.802,19.5195978 C22.587,18.9565821 22.283,18.5595711 21.869,18.1935609 C21.949,17.9765549 22,17.7445485 22,17.4995417 C22,17.2835357 21.957,17.07953 21.893,16.8835245 C22.119,16.8535237 22.344,16.8325231 22.528,16.8325231 C23.385,16.8325231 24.226,17.0555293 24.972,17.4715409 C24.918,18.3425651 24.653,19.1745882 24.181,19.8946082 L24.181,19.8946082 Z M22,21.4996528 C22,20.9486375 22.448,20.499625 23,20.499625 C23.552,20.499625 24,20.9486375 24,21.4996528 C24,22.0506681 23.552,22.4996805 23,22.4996805 C22.448,22.4996805 22,22.0506681 22,21.4996528 L22,21.4996528 Z M18.682,18.9915831 C19.034,19.3035918 19.493,19.4995972 20,19.4995972 C20.495,19.4995972 20.943,19.312592 21.293,19.0125837 C21.552,19.2545904 21.729,19.5095975 21.865,19.8566071 C21.344,20.2176172 21,20.8186339 21,21.4996528 C21,21.6816578 21.032,21.8556627 21.078,22.0226673 C20.739,22.1086697 20.361,22.193672 20,22.193672 C19.611,22.193672 19.249,22.1106697 18.921,22.0256674 C18.967,21.8566627 19,21.6826579 19,21.4996528 C19,20.753632 18.584,20.1086141 17.977,19.7656046 C18.146,19.4685963 18.386,19.2255896 18.682,18.9915831 L18.682,18.9915831 Z M17,20.499625 C17.552,20.499625 18,20.9486375 18,21.4996528 C18,22.0506681 17.552,22.4996805 17,22.4996805 C16.448,22.4996805 16,22.0506681 16,21.4996528 C16,20.9486375 16.448,20.499625 17,20.499625 L17,20.499625 Z M19.998,25.8917748 C19.189,25.2947582 18.509,24.1817273 18.113,23.1606989 C18.215,23.091697 18.311,23.0116948 18.398,22.9256924 C18.813,23.0406956 19.377,23.1936998 20,23.1936998 C20.584,23.1936998 21.187,23.0356954 21.601,22.9246924 C21.666,22.9886941 21.738,23.0446957 21.812,23.0996972 C21.426,24.1437262 20.792,25.2917581 19.998,25.8917748 L19.998,25.8917748 Z M14.029,16.6225173 C14.019,16.6285175 14.006,16.6335176 13.995,16.6395178 C12.138,17.7135476 10.984,19.7126031 10.984,21.8546626 C10.984,25.1757549 13.686,27.8768299 17.006,27.8768299 C18.084,27.8768299 19.208,27.4738187 20,27.0588072 C20.792,27.4738187 21.918,27.8768299 23,27.8768299 C27.378,27.8768299 28.937,24.7657435 28.937,21.8546626 C28.937,19.8826079 27.914,18.1935609 25.991,16.9315259 C25.867,13.7394372 23.211,11.1633656 20.003,11.1633656 C16.896,11.1633656 14.309,13.5754327 14.029,16.6225173 L14.029,16.6225173 Z" id="AWS-IoT-Device-Management_Icon_32_Squid" fill="#FFFFFF"></path>
    </g>
</svg>