<svg width="24px" height="24px" viewBox="0 0 24 24" version="1.1" xmlns="http://www.w3.org/2000/svg" xmlns:xlink="http://www.w3.org/1999/xlink">
    <g stroke="none" stroke-width="1" fill="none" fill-rule="evenodd">
        <path d="M13.171991,3 C13.3717031,3 13.5568529,3.12403125 13.6127619,3.29974219 L13.6284758,3.378 L13.8937423,5.11972213 C14.7143038,5.4339879 15.4639451,5.88498375 16.1128976,6.44380065 L17.9650818,5.736 C18.1647939,5.673 18.3790684,5.72025 18.5059688,5.86569141 L18.5547081,5.934 L20.4567283,9.048 C20.5565843,9.22125 20.5253793,9.4220625 20.4013394,9.56602734 L20.342607,9.624 L18.5710532,10.9369627 C18.6126347,11.2471306 18.634083,11.5634406 18.634083,11.8846154 C18.634083,12.264209 18.6041226,12.6370069 18.5463729,13.0009008 L16.414,11.808 L16.4141091,11.7882601 C16.3003197,9.12027175 14.0458384,7 11.2699708,7 C8.42105406,7 6.12132608,9.23333333 6.12132608,12 C6.12132608,14.7666667 8.42105406,17 11.2699708,17 C12.083947,17 12.8530915,16.8176871 13.5365754,16.4927114 L15.602446,17.7277111 C15.0969153,18.0917066 14.5424997,18.3952999 13.9505126,18.6275039 L13.647496,20.622 C13.6142107,20.811 13.4498643,20.9586563 13.2563931,20.9926172 L13.171991,21 L9.36795065,21 C9.15159585,21 8.97892808,20.8759688 8.91365759,20.7002578 L8.8924456,20.622 L8.60313721,18.7226812 C7.81463761,18.4457983 7.08771803,18.0439541 6.44773773,17.5417757 L4.55583961,18.264 C4.35612749,18.327 4.14185303,18.27975 4.01495262,18.1343086 L3.96621335,18.066 L2.06419318,14.952 C1.96433712,14.77875 1.99554214,14.5779375 2.11958209,14.4339727 L2.17831439,14.376 L3.78303341,13.1860483 C3.7044434,12.763798 3.6634083,12.3288605 3.6634083,11.8846154 C3.6634083,11.5116494 3.69233166,11.1452438 3.74811897,10.7873985 L2.17831439,9.624 C2.01188763,9.498 1.9619596,9.30309375 2.0285303,9.12369141 L2.06419318,9.048 L3.96621335,5.934 C4.08271209,5.76075 4.28658488,5.68396875 4.47589532,5.71571484 L4.55583961,5.736 L6.25496256,6.38395975 C6.95002158,5.80025838 7.75686327,5.33870962 8.64010366,5.03367591 L8.8924456,3.378 C8.92573096,3.189 9.09007739,3.04134375 9.2835485,3.00738281 L9.36795065,3 L13.171991,3 Z M8.86048121,9.00166911 C10.1165183,8.06151684 11.9264072,7.89520551 13.3672121,8.76952769 C14.7359768,9.60013376 15.3934476,11.0691559 15.1774775,12.494535 L15.1774775,12.494535 L21.73314,16.4727009 C22.0077888,16.5907271 22.1023745,16.9885949 21.8637836,17.2815586 L21.8637836,17.2815586 L20.8284215,18.8906478 C20.6483585,19.1704894 20.2971905,19.2492223 20.0090295,19.0743578 L20.0090295,19.0743578 L13.453367,15.0961919 C12.2288334,15.9095455 10.5810162,15.9796522 9.21225154,15.1490461 C7.77144659,14.2747239 7.07343904,12.635187 7.45148092,11.1136032 L7.45148092,11.1136032 L10.6077396,12.9802737 L11.9582119,10.8814618 Z" fill="#4285F4" fill-rule="nonzero"></path>
    </g>
</svg>