<svg xmlns="http://www.w3.org/2000/svg" width="24px" height="24px" viewBox="0 0 24 24"><defs><style>.cls-1{fill:#4285f4;}.cls-2{fill:#669df6;}</style></defs><title>Icon_24px_SecurityCommandCenter_Color</title><g data-name="Product Icons"><path class="cls-1" d="M13.31,6.85a5.23,5.23,0,0,1,3.75,3.75h3.53V5.24L13.31,2Z"/><path class="cls-1" d="M6.93,10.61a5.22,5.22,0,0,1,3.75-3.75V2L3.41,5.24v5.37Z"/><path class="cls-1" d="M10.69,17a5.23,5.23,0,0,1-3.75-3.75H3.63A12,12,0,0,0,10.69,22Z"/><path class="cls-1" d="M17.07,13.25A5.23,5.23,0,0,1,13.32,17v5a12,12,0,0,0,7.05-8.75Z"/><circle id="Oval" class="cls-2" cx="12" cy="11.92" r="2.63"/></g></svg>