<svg xmlns="http://www.w3.org/2000/svg" width="20" height="20" viewBox="0 0 20 20" fill="none">
  <mask
    id="mask0_89_26621"
    style="mask-type: alpha"
    maskUnits="userSpaceOnUse"
    x="0"
    y="0"
    width="20"
    height="20"
  >
    <rect width="20" height="20" fill="currentColor" />
  </mask>
  <g mask="url(#mask0_89_26621)">
    <path
      d="M3.5 11.5L5.5 9.5L3.5 7.5L1.5 9.5L3.5 11.5ZM14.5 11.5L16.5 8L18.5 11.5H14.5ZM9.98958 10.5C9.30208 10.5 8.71528 10.2569 8.22917 9.77083C7.74306 9.28472 7.5 8.69444 7.5 8C7.5 7.30556 7.74306 6.71528 8.22917 6.22917C8.71528 5.74306 9.30556 5.5 10 5.5C10.6944 5.5 11.2847 5.74306 11.7708 6.22917C12.2569 6.71528 12.5 7.30903 12.5 8.01042C12.5 8.69792 12.2569 9.28472 11.7708 9.77083C11.2847 10.2569 10.691 10.5 9.98958 10.5ZM10 7C9.71667 7 9.47917 7.09583 9.2875 7.2875C9.09583 7.47917 9 7.71667 9 8C9 8.28333 9.09583 8.52083 9.2875 8.7125C9.47917 8.90417 9.71667 9 10 9C10.2833 9 10.5208 8.90417 10.7125 8.7125C10.9042 8.52083 11 8.28333 11 8C11 7.71667 10.9042 7.47917 10.7125 7.2875C10.5208 7.09583 10.2833 7 10 7ZM0 15.5V14.25C0 13.5139 0.34375 12.9722 1.03125 12.625C1.71875 12.2778 2.54167 12.1042 3.5 12.1042C3.70833 12.1042 3.91667 12.1146 4.125 12.1354C4.33333 12.1563 4.54167 12.1875 4.75 12.2292C4.5 12.4792 4.3125 12.7951 4.1875 13.1771C4.0625 13.559 4 13.9167 4 14.25V15.5H0ZM5 15.5V14.2604C5 13.434 5.42361 12.7674 6.27083 12.2604C7.11806 11.7535 8.36111 11.5 10 11.5C11.6389 11.5 12.8819 11.7528 13.7292 12.2585C14.5764 12.7644 15 13.4282 15 14.25V15.5H5ZM16.5 12.1042C17.4583 12.1042 18.2812 12.2778 18.9688 12.625C19.6562 12.9722 20 13.5139 20 14.25V15.5H16V14.25C16 13.9167 15.941 13.559 15.8229 13.1771C15.7049 12.7951 15.5139 12.4792 15.25 12.2292C15.4583 12.1875 15.6652 12.1563 15.8706 12.1354C16.0759 12.1146 16.2857 12.1042 16.5 12.1042ZM10 13C9.11111 13 8.40972 13.0799 7.89583 13.2396C7.38194 13.3993 6.93056 13.6528 6.54167 14H13.4583C13.0556 13.6528 12.6007 13.3993 12.0938 13.2396C11.5868 13.0799 10.8889 13 10 13Z"
      fill="currentColor"
    />
  </g>
</svg>
