<svg xmlns="http://www.w3.org/2000/svg" width="20" height="20" viewBox="0 0 20 20" fill="none">
  <mask
    id="mask0_89_26548"
    style="mask-type: alpha"
    maskUnits="userSpaceOnUse"
    x="0"
    y="0"
    width="20"
    height="20"
  >
    <rect width="20" height="20" fill="currentColor" />
  </mask>
  <g mask="url(#mask0_89_26548)">
    <path
      d="M8 17H4.5C4.0875 17 3.73437 16.8531 3.44062 16.5594C3.14687 16.2656 3 15.9125 3 15.5V12C3.55556 11.9722 4.02778 11.7674 4.41667 11.3854C4.80556 11.0035 5 10.5417 5 10C5 9.45833 4.80556 8.99653 4.41667 8.61458C4.02778 8.23264 3.55556 8.02778 3 8V4.5C3 4.0875 3.14687 3.73438 3.44062 3.44063C3.73437 3.14688 4.0875 3 4.5 3H8C8 2.44444 8.19285 1.97222 8.57854 1.58333C8.96438 1.19444 9.4366 1 9.99521 1C10.554 1 11.0278 1.19333 11.4167 1.58C11.8056 1.96667 12 2.44 12 3H15.5C15.9125 3 16.2656 3.14688 16.5594 3.44063C16.8531 3.73438 17 4.0875 17 4.5V8C17.5556 8 18.0278 8.19285 18.4167 8.57854C18.8056 8.96438 19 9.4366 19 9.99521C19 10.554 18.8067 11.0278 18.42 11.4167C18.0333 11.8056 17.56 12 17 12V15.5C17 15.9125 16.8531 16.2656 16.5594 16.5594C16.2656 16.8531 15.9125 17 15.5 17H12C11.9722 16.4444 11.7682 15.9722 11.3879 15.5833C11.0076 15.1944 10.5458 15 10.0025 15C9.45917 15 8.99653 15.1944 8.61458 15.5833C8.23264 15.9722 8.02778 16.4444 8 17ZM4.5 15.5H6.83333C7.11111 14.875 7.53819 14.3854 8.11458 14.0312C8.69097 13.6771 9.31944 13.5 10 13.5C10.6806 13.5 11.309 13.6771 11.8854 14.0312C12.4618 14.3854 12.8889 14.875 13.1667 15.5H15.5V10.5H17C17.1333 10.5 17.25 10.45 17.35 10.35C17.45 10.25 17.5 10.1333 17.5 10C17.5 9.86667 17.45 9.75 17.35 9.65C17.25 9.55 17.1333 9.5 17 9.5H15.5V4.5H10.5V3C10.5 2.86667 10.45 2.75 10.35 2.65C10.25 2.55 10.1333 2.5 10 2.5C9.86667 2.5 9.75 2.55 9.65 2.65C9.55 2.75 9.5 2.86667 9.5 3V4.5H4.5V6.83333C5.125 7.11111 5.61458 7.53819 5.96875 8.11458C6.32292 8.69097 6.5 9.31944 6.5 10C6.5 10.6974 6.32292 11.3335 5.96875 11.9083C5.61458 12.4833 5.125 12.9028 4.5 13.1667V15.5Z"
      fill="currentColor"
    />
  </g>
</svg>
