<svg xmlns="http://www.w3.org/2000/svg" width="20" height="20" viewBox="0 0 20 20" fill="none">
  <mask
    id="mask0_89_26543"
    style="mask-type: alpha"
    maskUnits="userSpaceOnUse"
    x="0"
    y="0"
    width="20"
    height="20"
  >
    <rect width="20" height="20" fill="currentColor" />
  </mask>
  <g mask="url(#mask0_89_26543)">
    <path
      d="M10 17C8.05556 17 6.40278 16.3194 5.04167 14.9583C3.68056 13.5972 3 11.9444 3 10H4.5C4.5 11.5139 5.03819 12.809 6.11458 13.8854C7.19097 14.9618 8.48611 15.5 10 15.5C11.5139 15.5 12.809 14.9618 13.8854 13.8854C14.9618 12.809 15.5 11.5139 15.5 10C15.5 8.48611 14.9618 7.19097 13.8854 6.11458C12.809 5.03819 11.5139 4.5 10 4.5C9.13889 4.5 8.3434 4.67778 7.61354 5.03333C6.88382 5.38889 6.26958 5.87778 5.77083 6.5H8V8H3V3H4.5V5.70833C5.13889 4.875 5.93403 4.21528 6.88542 3.72917C7.83681 3.24306 8.875 3 10 3C10.9722 3 11.8828 3.18472 12.7319 3.55417C13.581 3.92361 14.3199 4.42271 14.9485 5.05146C15.5773 5.68007 16.0764 6.41896 16.4458 7.26813C16.8153 8.11715 17 9.02778 17 10C17 10.9722 16.8153 11.8828 16.4458 12.7319C16.0764 13.581 15.5773 14.3199 14.9485 14.9485C14.3199 15.5773 13.581 16.0764 12.7319 16.4458C11.8828 16.8153 10.9722 17 10 17ZM12.0833 12.8333L9.25 10V6H10.75V9.375L13.1458 11.7708L12.0833 12.8333Z"
      fill="currentColor"
    />
  </g>
</svg>
