<?xml version="1.0" encoding="UTF-8"?>
<svg width="24px" height="24px" viewBox="0 0 24 24" version="1.1" xmlns="http://www.w3.org/2000/svg" xmlns:xlink="http://www.w3.org/1999/xlink">
    <!-- Generator: Sketch 64 (93537) - https://sketch.com -->
    <title>Icon-Architecture/16/Arch_AWS-Cloud9_16</title>
    <desc>Created with Sketch.</desc>
    <defs>
        <linearGradient x1="0%" y1="100%" x2="100%" y2="0%" id="linearGradient-1">
            <stop stop-color="#2E27AD" offset="0%"></stop>
            <stop stop-color="#527FFF" offset="100%"></stop>
        </linearGradient>
    </defs>
    <g id="Icon-Architecture/16/Arch_AWS-Cloud9_16" stroke="none" stroke-width="1" fill="none" fill-rule="evenodd">
        <g id="Icon-Architecture-BG/16/Developer-Tools" fill="url(#linearGradient-1)">
            <rect id="Rectangle" x="0" y="0" width="24" height="24"></rect>
        </g>
        <path d="M13.392,12.3286703 C13.254,12.4076715 13.104,12.4692308 12.939,12.5133484 C12.775,12.5564399 12.611,12.5790117 12.449,12.5790117 C12.166,12.5790117 11.952,12.4989845 11.807,12.3389302 C11.662,12.1788758 11.588,11.9439243 11.588,11.6371534 C11.588,11.3478244 11.664,11.1159508 11.816,10.9425586 C11.968,10.7691664 12.17,10.6829833 12.422,10.6829833 C13.056,10.6829833 13.378,11.2000819 13.392,12.2363312 L13.392,12.3286703 Z M12.435,10.1433129 C12.14,10.1433129 11.879,10.2100022 11.653,10.3433808 C11.426,10.4777854 11.251,10.6604115 11.129,10.8902331 C11.008,11.1200548 10.947,11.3827081 10.947,11.677167 C10.947,12.1203944 11.068,12.4692308 11.309,12.7236762 C11.551,12.9781216 11.879,13.1053443 12.294,13.1053443 C12.491,13.1053443 12.683,13.0755906 12.871,13.0160832 C13.06,12.9576018 13.231,12.8755226 13.385,12.7698457 C13.355,13.3136201 13.235,13.7158079 13.023,13.9743573 C12.811,14.2329066 12.499,14.3632073 12.089,14.3632073 C11.793,14.3632073 11.471,14.2821541 11.121,14.1190218 L11.121,14.6197046 C11.403,14.8084867 11.755,14.9028777 12.179,14.9028777 C12.769,14.9028777 13.225,14.681264 13.545,14.2380365 C13.867,13.7948091 14.027,13.1607477 14.027,12.3348262 C14.027,11.6197116 13.891,11.0759372 13.62,10.7024771 C13.348,10.329017 12.953,10.1433129 12.435,10.1433129 L12.435,10.1433129 Z M16.875,15.9740106 L8.082,15.9740106 C6.975,15.9729846 6.062,15.1511671 6.004,14.1056839 L6,13.9517855 C6,12.5872196 6.967,12.1388622 7.544,11.9931717 C7.79,11.9316124 7.952,11.6894789 7.92,11.4319556 C7.906,11.3088368 7.898,11.1836661 7.898,11.0564434 C7.898,9.94632291 8.702,8.70590173 9.69,8.29037602 C10.148,8.09749002 10.572,8.0215668 10.954,8.0215668 C12.044,8.0215668 12.813,8.63921242 13.148,8.97265897 C13.519,9.34098916 13.807,9.81294428 14.007,10.3751865 C14.07,10.5516566 14.221,10.6788793 14.402,10.706581 C14.583,10.7363347 14.763,10.6614375 14.874,10.5116431 C15.132,10.1658846 15.547,10.0201941 15.928,10.1412609 C16.395,10.2869514 16.687,10.7753223 16.728,11.481203 C16.742,11.7130766 16.906,11.9069886 17.128,11.9531582 C18.371,12.2106815 19,12.8898865 19,13.9733313 C19,15.7790726 17.514,15.9740106 16.875,15.9740106 L16.875,15.9740106 Z M17.683,11.0348977 C17.524,10.0899614 16.995,9.40152254 16.22,9.15938904 C15.685,8.99317876 15.123,9.07115395 14.658,9.356379 C14.438,8.9305934 14.165,8.55610727 13.844,8.23702457 C12.604,7.00275933 10.908,6.66828679 9.311,7.34133583 C7.935,7.91896786 6.898,9.51643335 6.898,11.0564434 C6.898,11.0790152 6.898,11.101587 6.899,11.1251847 C5.702,11.58175 5,12.6128693 5,13.9517855 C5,14.0225788 5.002,14.0902941 5.006,14.1610873 C5.093,15.7513709 6.444,16.997948 8.081,17 L16.875,17 C18.317,17 20,16.2079362 20,13.9733313 C20,12.4928286 19.181,11.4606833 17.683,11.0348977 L17.683,11.0348977 Z" id="AWS-Cloud9_Icon_16_Squid" fill="#FFFFFF"></path>
    </g>
</svg>