<?xml version="1.0" encoding="UTF-8"?>
<svg width="24px" height="24px" viewBox="0 0 24 24" version="1.1" xmlns="http://www.w3.org/2000/svg" xmlns:xlink="http://www.w3.org/1999/xlink">
    <!-- Generator: Sketch 64 (93537) - https://sketch.com -->
    <title>Icon-Architecture/16/Arch_AWS-X-Ray_16</title>
    <desc>Created with Sketch.</desc>
    <defs>
        <linearGradient x1="0%" y1="100%" x2="100%" y2="0%" id="linearGradient-1">
            <stop stop-color="#2E27AD" offset="0%"></stop>
            <stop stop-color="#527FFF" offset="100%"></stop>
        </linearGradient>
    </defs>
    <g id="Icon-Architecture/16/Arch_AWS-X-Ray_16" stroke="none" stroke-width="1" fill="none" fill-rule="evenodd">
        <g id="Icon-Architecture-BG/16/Developer-Tools" fill="url(#linearGradient-1)">
            <rect id="Rectangle" x="0" y="0" width="24" height="24"></rect>
        </g>
        <path d="M13.3619281,15.0201236 L12.3406863,15.0201236 L12.3406863,14.0251545 L11.3194444,14.0251545 L11.3194444,15.0201236 L11.3194444,16.0150927 L12.3406863,16.0150927 L13.3619281,16.0150927 L14.3831699,16.0150927 L14.3831699,15.0201236 L14.3831699,13.0301854 L13.3619281,13.0301854 L13.3619281,15.0201236 Z M16.4256536,14.5226391 C16.4256536,12.6023487 14.8223039,11.0402473 12.8513072,11.0402473 C10.8803105,11.0402473 9.27696078,12.6023487 9.27696078,14.5226391 C9.27696078,16.4429294 10.8803105,18.0050309 12.8513072,18.0050309 C14.8223039,18.0050309 16.4256536,16.4429294 16.4256536,14.5226391 L16.4256536,14.5226391 Z M17.4468954,14.5226391 C17.4468954,16.9911574 15.3850082,19 12.8513072,19 C10.3176062,19 8.25571895,16.9911574 8.25571895,14.5226391 C8.25571895,12.0541208 10.3176062,10.0452782 12.8513072,10.0452782 C15.3850082,10.0452782 17.4468954,12.0541208 17.4468954,14.5226391 L17.4468954,14.5226391 Z M20,11.6422036 C20,13.2411189 19.096201,14.2808616 17.5214461,14.4957749 L17.3805147,13.5107555 C18.441585,13.36549 18.9787582,12.7376645 18.9787582,11.6422036 C18.9787582,10.6153955 18.3527369,9.97165046 17.1170343,9.72987297 C16.8892974,9.68509936 16.7207925,9.49605523 16.7075163,9.27019725 C16.6523693,8.31005207 16.1060049,7.96977264 15.6535948,7.96977264 C15.3523284,7.96977264 15.0714869,8.10906832 14.8805147,8.35184078 C14.7681781,8.49611129 14.5884395,8.56476416 14.3995098,8.54287484 C14.2156863,8.51501571 14.0614788,8.39362948 13.9961193,8.22249479 C13.7959559,7.69416621 13.4997958,7.23548545 13.1403186,6.89520603 C12.689951,6.46637435 11.4552696,5.544038 9.70077614,6.24648618 C8.71732026,6.63949897 7.91768791,7.81555244 7.91768791,8.86723477 C7.91768791,8.988621 7.92585784,9.10901226 7.93913399,9.22542364 C7.97079248,9.47416591 7.80637255,9.70798365 7.55514706,9.76768179 C6.85559641,9.93682654 6.02226307,10.3955073 6.02226307,11.6223042 L6.02634804,11.7606049 C6.0692402,12.5157864 6.74938725,13.2092799 7.68178105,13.4520523 L7.41830065,14.4131925 C6.06413399,14.0619684 5.07352941,12.9953615 5.00714869,11.820303 L5,11.6223042 C5,10.3467538 5.7005719,9.36372434 6.89644608,8.92593794 L6.89644608,8.86723477 C6.89644608,7.39965536 7.93607026,5.87735264 9.31270425,5.32613977 C10.9150327,4.68239476 12.6143791,5.00376978 13.8531454,6.18280816 C14.1636029,6.47731901 14.4362745,6.83451291 14.6589052,7.23747539 C15.6760621,6.65641344 17.3682598,7.02952685 17.6838235,8.8403706 C19.1625817,9.24631799 20,10.2522317 20,11.6422036 L20,11.6422036 Z" id="AWS-X-Ray_Icon_16_Squid" fill="#FFFFFF"></path>
    </g>
</svg>