<?xml version="1.0" encoding="UTF-8"?>
<svg width="24px" height="24px" viewBox="0 0 24 24" version="1.1" xmlns="http://www.w3.org/2000/svg" xmlns:xlink="http://www.w3.org/1999/xlink">
    <!-- Generator: Sketch 64 (93537) - https://sketch.com -->
    <title>Icon-Architecture/16/Arch_AWS-CodeDeploy_16</title>
    <desc>Created with Sketch.</desc>
    <defs>
        <linearGradient x1="0%" y1="100%" x2="100%" y2="0%" id="linearGradient-1">
            <stop stop-color="#2E27AD" offset="0%"></stop>
            <stop stop-color="#527FFF" offset="100%"></stop>
        </linearGradient>
    </defs>
    <g id="Icon-Architecture/16/Arch_AWS-CodeDeploy_16" stroke="none" stroke-width="1" fill="none" fill-rule="evenodd">
        <g id="Icon-Architecture-BG/16/Developer-Tools" fill="url(#linearGradient-1)">
            <rect id="Rectangle" x="0" y="0" width="24" height="24"></rect>
        </g>
        <path d="M8.4995717,18.9677419 L16.4998696,18.9677419 L16.4998696,14.8387097 L8.4995717,14.8387097 L8.4995717,18.9677419 Z M16.9998883,13.8064516 L7.99955308,13.8064516 C7.7235428,13.8064516 7.49953446,14.0376774 7.49953446,14.3225806 L7.49953446,19.483871 C7.49953446,19.7687742 7.7235428,20 7.99955308,20 L16.9998883,20 C17.2758985,20 17.4999069,19.7687742 17.4999069,19.483871 L17.4999069,14.3225806 C17.4999069,14.0376774 17.2758985,13.8064516 16.9998883,13.8064516 L16.9998883,13.8064516 Z M16.9998883,9.67741935 C16.6308745,9.67741935 15.97285,9.68154839 15.3668275,9.89522581 C15.2158218,8.06503226 14.7778055,6.34735484 14.1047805,5.26967742 C16.3978659,5.89316129 18.227934,7.78529032 18.8069556,10.2018065 C18.3129372,9.89522581 17.6939141,9.67741935 16.9998883,9.67741935 L16.9998883,9.67741935 Z M12.4997207,9.67741935 C11.7466926,9.67741935 11.2366736,9.87251613 10.8686599,10.1326452 C11.0446665,7.02967742 11.8796976,5.16129032 12.4997207,5.16129032 C13.1957466,5.16129032 14.2067843,7.19896774 14.388791,10.3442581 C14.0227774,9.97677419 13.4467559,9.67741935 12.4997207,9.67741935 L12.4997207,9.67741935 Z M9.86162243,10.1811613 C9.3776044,9.88490323 8.76358154,9.67741935 8.03955457,9.67741935 C7.68554139,9.67741935 6.95351413,9.67741935 6.29448958,9.95716129 C6.97851506,7.64490323 8.7705818,5.85290323 10.9596633,5.2603871 C10.3146393,6.3876129 9.95962608,8.22812903 9.86162243,10.1811613 L9.86162243,10.1811613 Z M20,11.7316129 C19.9379977,7.4683871 16.5738724,4 12.4997207,4 C8.53457301,4 5.17944806,7.44154839 5.00144143,11.6996129 C4.98944098,11.8503226 5.05344337,11.9907097 5.15344709,12.0980645 L5.14544679,12.1073548 L7.14552128,14.171871 L7.85354765,13.4410323 L6.04748038,11.5778065 C6.18848564,11.1184516 6.6145015,10.7096774 8.03955457,10.7096774 C8.92958772,10.7096774 9.55061085,11.1339355 9.83162131,11.4673548 L9.83462142,11.6387097 C9.83462142,11.684129 9.84162169,11.7409032 9.85362213,11.7852903 L10.1866345,13.0590968 L11.1516705,12.7907097 L10.9376625,11.9741935 C10.9726638,11.9070968 10.9966647,11.8348387 10.9996648,11.7553548 C11.0086651,11.5096774 11.1446702,10.7096774 12.4997207,10.7096774 C13.8547711,10.7096774 13.9907762,11.5096774 14.0017766,11.7904516 C14.0177772,11.9545806 14.1087806,12.0877419 14.2357853,12.1703226 L14.0977802,12.7886452 L15.0628161,13.0611613 L15.3998287,11.7863226 C15.4008287,11.7832258 15.4018288,11.7780645 15.4028288,11.7739355 C15.4118291,11.7378065 15.4178294,11.6996129 15.4188294,11.6624516 L15.4268297,11.3176774 C15.4268297,11.2123871 15.4228295,11.1060645 15.4208295,10.9997419 C15.70484,10.8252903 16.1778577,10.7096774 16.9998883,10.7096774 C17.9919252,10.7096774 18.6559499,11.3083871 18.899959,11.6304516 L17.1458937,13.4410323 L17.8539201,14.171871 L19.8539946,12.1073548 C19.9429979,12.0134194 20,11.8843871 20,11.7419355 L20,11.7316129 Z" id="AWS-CodeDeploy_Icon_16_Squid" fill="#FFFFFF"></path>
    </g>
</svg>