<?xml version="1.0" encoding="UTF-8"?>
<svg width="24px" height="24px" viewBox="0 0 24 24" version="1.1" xmlns="http://www.w3.org/2000/svg" xmlns:xlink="http://www.w3.org/1999/xlink">
    <!-- Generator: Sketch 64 (93537) - https://sketch.com -->
    <title>Icon-Architecture/16/Arch_AWS-CodeCommit_16</title>
    <desc>Created with Sketch.</desc>
    <defs>
        <linearGradient x1="0%" y1="100%" x2="100%" y2="0%" id="linearGradient-1">
            <stop stop-color="#2E27AD" offset="0%"></stop>
            <stop stop-color="#527FFF" offset="100%"></stop>
        </linearGradient>
    </defs>
    <g id="Icon-Architecture/16/Arch_AWS-CodeCommit_16" stroke="none" stroke-width="1" fill="none" fill-rule="evenodd">
        <g id="Icon-Architecture-BG/16/Developer-Tools" fill="url(#linearGradient-1)">
            <rect id="Rectangle" x="0" y="0" width="24" height="24"></rect>
        </g>
        <path d="M15.3,12.9 L13.833,14 L15.3,15.1 L14.7,15.9 L12.7,14.4 C12.574,14.306 12.5,14.157 12.5,14 C12.5,13.843 12.574,13.694 12.7,13.6 L14.7,12.1 L15.3,12.9 Z M7,6.5 C7,6.224 7.224,6 7.5,6 L10,6 L10,7 L8.722,7 L10.356,8.648 L9.645,9.352 L8,7.693 L8,9 L7,9 L7,6.5 Z M18.464,12.186 L16.464,17.186 L15.536,16.815 L17.536,11.815 L18.464,12.186 Z M20,8.5 L20,19.5 C20,19.776 19.777,20 19.5,20 L11.496,20 C11.363,20 11.237,19.947 11.143,19.854 C11.049,19.759 10.996,19.632 10.996,19.499 L11,16.999 L12,17.001 L11.997,19 L19,19 L19,9 L13,9 L13,8 L19.5,8 C19.777,8 20,8.224 20,8.5 L20,8.5 Z M11.5,10 C11.776,10 12,10.224 12,10.5 C12,10.776 11.776,11 11.5,11 C11.225,11 11,10.776 11,10.5 C11,10.224 11.225,10 11.5,10 L11.5,10 Z M5.5,19 C5.225,19 5,18.776 5,18.5 C5,18.224 5.225,18 5.5,18 C5.776,18 6,18.224 6,18.5 C6,18.776 5.776,19 5.5,19 L5.5,19 Z M5.5,12 C5.776,12 6,12.224 6,12.5 C6,12.776 5.776,13 5.5,13 C5.225,13 5,12.776 5,12.5 C5,12.224 5.225,12 5.5,12 L5.5,12 Z M5.5,5 C5.776,5 6,5.224 6,5.5 C6,5.776 5.776,6 5.5,6 C5.225,6 5,5.776 5,5.5 C5,5.224 5.225,5 5.5,5 L5.5,5 Z M12,13.798 L12,11.908 C12.581,11.701 13,11.151 13,10.5 C13,9.673 12.327,9 11.5,9 C10.673,9 10,9.673 10,10.5 C10,11.151 10.419,11.701 11,11.908 L11,13.798 C11,13.988 10.87,14.163 10.735,14.222 C10.675,14.236 9.249,14.587 8.023,15.297 C7.431,15.622 6.591,16.521 6.128,17.142 C6.086,17.123 6.043,17.108 6,17.092 L6,13.908 C6.581,13.701 7,13.151 7,12.5 C7,11.849 6.581,11.299 6,11.092 L6,6.908 C6.581,6.701 7,6.151 7,5.5 C7,4.673 6.327,4 5.5,4 C4.673,4 4,4.673 4,5.5 C4,6.151 4.419,6.701 5,6.908 L5,11.092 C4.419,11.299 4,11.849 4,12.5 C4,13.151 4.419,13.701 5,13.908 L5,17.092 C4.419,17.299 4,17.849 4,18.5 C4,19.327 4.673,20 5.5,20 C6.327,20 7,19.327 7,18.5 C7,18.266 6.942,18.046 6.845,17.849 C7.153,17.419 7.993,16.454 8.514,16.168 C9.622,15.526 10.957,15.197 11.037,15.172 C11.622,14.94 12,14.401 12,13.798 L12,13.798 Z" id="AWS-CodeCommit_Icon_16_Squid" fill="#FFFFFF"></path>
    </g>
</svg>