<?xml version="1.0" encoding="UTF-8"?>
<svg width="24px" height="24px" viewBox="0 0 24 24" version="1.1" xmlns="http://www.w3.org/2000/svg" xmlns:xlink="http://www.w3.org/1999/xlink">
    <title>Icon-Architecture/16/Arch_AWS-CloudShell_16</title>
    <defs>
        <linearGradient x1="0%" y1="100%" x2="100%" y2="0%" id="linearGradient-1">
            <stop stop-color="#2E27AD" offset="0%"></stop>
            <stop stop-color="#527FFF" offset="100%"></stop>
        </linearGradient>
    </defs>
    <g id="Icon-Architecture/16/Arch_AWS-CloudShell_16" stroke="none" stroke-width="1" fill="none" fill-rule="evenodd">
        <g id="Rectangle" fill="url(#linearGradient-1)">
            <rect x="0" y="0" width="24" height="24"></rect>
        </g>
        <g id="Icon-Service/16/AWS-CloudShell_16" transform="translate(4.000000, 4.000000)" fill="#FFFFFF">
            <path d="M9.995,14.0008497 L12.995,14.0008497 L12.995,13.0008497 L9.995,13.0008497 L9.995,14.0008497 Z M7.62,13.8228497 L9.857,11.5858497 C9.951,11.4918497 10.004,11.3648497 10.004,11.2318497 C10.004,11.0998497 9.951,10.9728497 9.857,10.8788497 L7.62,8.64184972 L6.913,9.34884972 L8.797,11.2318497 L6.913,13.1158497 L7.62,13.8228497 Z M4.995,15.0008497 L14.995,15.0008497 L14.995,7.00084972 L4.995,7.00084972 L4.995,15.0008497 Z M15.995,6.50084972 L15.995,15.5008497 C15.995,15.7768497 15.771,16.0008497 15.495,16.0008497 L4.495,16.0008497 C4.219,16.0008497 3.995,15.7768497 3.995,15.5008497 L3.995,6.50084972 C3.995,6.22484972 4.219,6.00084972 4.495,6.00084972 L15.495,6.00084972 C15.771,6.00084972 15.995,6.22484972 15.995,6.50084972 L15.995,6.50084972 Z M3.812,1.20384972 C3.173,1.47584972 2.652,2.29284972 2.652,3.02584972 L2.67,3.30484972 C2.684,3.54384972 2.527,3.75984972 2.295,3.81884972 C1.854,3.93184972 1.33,4.23984972 1.33,5.06484972 C1.33,5.73184972 1.689,6.09984972 1.991,6.29084972 C2.011,6.29584972 2.164,6.33184972 2.288,6.35184972 L2.991,6.34584972 L2.991,7.34584972 L2.208,7.34584972 C1.915,7.30484972 1.626,7.24184972 1.457,7.13584972 C1.035,6.86884972 0.33,6.24584972 0.33,5.06484972 C0.33,4.09684972 0.817,3.34384972 1.654,2.98284972 C1.684,1.84184972 2.434,0.702849716 3.422,0.282849716 C4.598,-0.215150284 5.846,0.0308497159 6.755,0.946849716 C6.955,1.14784972 7.129,1.37784972 7.275,1.63584972 C7.623,1.47184972 8.027,1.43884972 8.407,1.56484972 C8.866,1.71584972 9.351,2.14384972 9.473,2.90584972 C9.866,3.03184972 10.392,3.28984972 10.744,3.81084972 C10.987,4.17084972 11.11,4.59784972 11.11,5.08084972 L10.11,5.08084972 C10.11,4.80084972 10.045,4.56284972 9.916,4.37084972 C9.638,3.95884972 9.123,3.83184972 8.914,3.79584972 C8.647,3.74984972 8.465,3.49984972 8.504,3.23084972 C8.502,2.87984972 8.353,2.60084972 8.095,2.51484972 C7.878,2.44084972 7.629,2.52384972 7.486,2.71884972 C7.377,2.86784972 7.196,2.94184972 7.01,2.91684972 C6.827,2.88984972 6.674,2.76284972 6.612,2.58884972 C6.479,2.21084972 6.289,1.89584972 6.046,1.65184972 C5.752,1.35584972 4.947,0.721849716 3.812,1.20384972 L3.812,1.20384972 Z" id="Fill-1"></path>
        </g>
    </g>
</svg>