<?xml version="1.0" encoding="UTF-8"?>
<svg width="24px" height="24px" viewBox="0 0 24 24" version="1.1" xmlns="http://www.w3.org/2000/svg" xmlns:xlink="http://www.w3.org/1999/xlink">
    <title>Icon-Architecture/16/Arch_Amazon-Corretto_16</title>
    <defs>
        <linearGradient x1="0%" y1="100%" x2="100%" y2="0%" id="linearGradient-1">
            <stop stop-color="#2E27AD" offset="0%"></stop>
            <stop stop-color="#527FFF" offset="100%"></stop>
        </linearGradient>
    </defs>
    <g id="Icon-Architecture/16/Arch_Amazon-Corretto_16" stroke="none" stroke-width="1" fill="none" fill-rule="evenodd">
        <g id="Rectangle" fill="url(#linearGradient-1)">
            <rect x="0" y="0" width="24" height="24"></rect>
        </g>
        <g id="Icon-Service/16/Amazon-Corretto_16" transform="translate(4.000000, 4.000000)" fill="#FFFFFF">
            <path d="M7,2 L8,2 L8,1 L7,1 L7,2 Z M6,2.5 L6,0.5 C6,0.224 6.224,0 6.5,0 L8.5,0 C8.776,0 9,0.224 9,0.5 L9,2.5 C9,2.776 8.776,3 8.5,3 L6.5,3 C6.224,3 6,2.776 6,2.5 L6,2.5 Z M11,3 L12,3 L12,2 L11,2 L11,3 Z M10,3.5 L10,1.5 C10,1.224 10.224,1 10.5,1 L12.5,1 C12.776,1 13,1.224 13,1.5 L13,3.5 C13,3.776 12.776,4 12.5,4 L10.5,4 C10.224,4 10,3.776 10,3.5 L10,3.5 Z M7,6 L8,6 L8,5 L7,5 L7,6 Z M6,6.5 L6,4.5 C6,4.224 6.224,4 6.5,4 L8.5,4 C8.776,4 9,4.224 9,4.5 L9,6.5 C9,6.776 8.776,7 8.5,7 L6.5,7 C6.224,7 6,6.776 6,6.5 L6,6.5 Z M7,11 L11,11 L11,10 L7,10 L7,11 Z M2.422,9 L2.958,9 C2.924,8.753 2.9,8.504 2.9,8.249 L2.9,7 L2.422,7 C1.109,7 1,7.494 1,8 C1,8.506 1.109,9 2.422,9 L2.422,9 Z M2.422,10 C0.42,10 0,8.913 0,8 C0,7.087 0.42,6 2.422,6 L2.9,6 L2.9,5.5 C2.9,5.224 3.124,5 3.4,5 L5,5 L5,6 L3.9,6 L3.9,8.249 C3.9,8.865 4.04,9.454 4.278,10 L6,10 L6,11 L4.879,11 C5.806,12.198 7.296,13 8.95,13 C11.415,13 13.52,11.232 13.917,9 L4.85,9 L4.85,8 L14,8 L14,6 L10,6 L10,5 L14.5,5 C14.776,5 15,5.224 15,5.5 L15,8.249 C15,11.42 12.286,14 8.95,14 C6.257,14 3.971,12.317 3.189,10 L2.422,10 Z M16,13.5 C16,15.337 11.79,16.003 8.961,16.003 C5.502,16.003 2,15.144 2,13.5 C2,13.084 2.205,12.3 3.576,11.734 L3.957,12.658 C3.251,12.95 3,13.294 3,13.5 C3,14.03 5.263,15.003 8.961,15.003 C12.707,15.003 15,14.03 15,13.5 C15,13.287 14.651,12.867 14.083,12.669 L14.413,11.724 C15.333,12.045 16,12.793 16,13.5 L16,13.5 Z" id="Fill-5"></path>
        </g>
    </g>
</svg>