<?xml version="1.0" encoding="UTF-8"?>
<svg width="24px" height="24px" viewBox="0 0 24 24" version="1.1" xmlns="http://www.w3.org/2000/svg" xmlns:xlink="http://www.w3.org/1999/xlink">
    <!-- Generator: Sketch 64 (93537) - https://sketch.com -->
    <title>Icon-Architecture/16/Arch_AWS-Cloud-Development-Kit_16</title>
    <desc>Created with Sketch.</desc>
    <defs>
        <linearGradient x1="0%" y1="100%" x2="100%" y2="0%" id="linearGradient-1">
            <stop stop-color="#2E27AD" offset="0%"></stop>
            <stop stop-color="#527FFF" offset="100%"></stop>
        </linearGradient>
    </defs>
    <g id="Icon-Architecture/16/Arch_AWS-Cloud-Development-Kit_16" stroke="none" stroke-width="1" fill="none" fill-rule="evenodd">
        <g id="Icon-Architecture-BG/16/Developer-Tools" fill="url(#linearGradient-1)">
            <rect id="Rectangle" x="0" y="0" width="24" height="24"></rect>
        </g>
        <path d="M18.998598,17.2911989 L16.5051072,18.6713006 L16.5051072,15.435869 L18.998598,14.0567373 L18.998598,17.2911989 Z M16.0034048,14.5969457 L13.5069097,13.2197536 L16.0054076,11.7872799 L18.5029041,13.2139345 L16.0034048,14.5969457 Z M12.0098137,17.3008975 L9.51532145,18.6800293 L9.51532145,15.435869 L12.0098137,14.0509181 L12.0098137,17.3008975 Z M6.00140196,14.0596468 L8.51391949,15.4378088 L8.51391949,18.6198984 L6.00140196,17.0341877 L6.00140196,14.0596468 Z M12.5015021,6.04477681 L14.9569397,7.40451154 L12.5095133,8.62167778 L10.0620869,7.41517992 L12.5015021,6.04477681 Z M15.5037052,10.9464168 L13.0112157,12.3769508 L13.0112157,9.46254084 L15.5037052,8.2220981 L15.5037052,10.9464168 Z M12.0098137,12.3662825 L9.51532145,10.945447 L9.51532145,8.23373635 L12.0098137,9.46351069 L12.0098137,12.3662825 Z M9.01261766,14.5969457 L6.50210294,13.2197536 L9.01462047,11.78631 L11.512117,13.2090852 L9.01261766,14.5969457 Z M15.5037052,18.6732403 L13.0112157,17.2999276 L13.0112157,14.0615865 L15.5037052,15.4368389 L15.5037052,18.6732403 Z M19.7536551,12.8036864 L19.7536551,12.8036864 L19.7506509,12.8017467 L19.7506509,12.8017467 L19.7496495,12.8017467 L16.5051072,10.9464168 L16.5051072,7.42875787 C16.5051072,7.2590335 16.4139796,7.10288707 16.2657721,7.0146304 C16.2527539,7.00687157 16.2377328,7.00881127 16.2247146,7.00299215 L16.230723,6.99232376 L12.747847,5.06425484 C12.5936311,4.97793787 12.4023633,4.97890773 12.2481474,5.0652247 L8.76326858,7.02335908 L8.76426998,7.02626864 C8.76126577,7.02820835 8.75625876,7.02723849 8.75325456,7.0291782 C8.60504707,7.11743488 8.51391949,7.27455116 8.51391949,7.44330568 L8.51391949,10.9464168 L5.25035049,12.8085357 L5.24934909,12.8085357 C5.24934909,12.8085357 5.24834769,12.8095055 5.24834769,12.8095055 L5.24734628,12.8104754 L5.24734628,12.8104754 C5.09513319,12.8977622 5,13.0568182 5,13.2284823 L5,17.2970181 C5,17.4609233 5.08511917,17.6141602 5.22731825,17.7033867 L8.74123773,19.9214419 L8.74524334,19.9165926 C8.75325456,19.9214419 8.75525736,19.9301705 8.76326858,19.9350198 C8.84037653,19.9786632 8.9274985,20 9.01462047,20 C9.10074104,20 9.1858602,19.9786632 9.26296816,19.9369595 L12.5105147,18.1398208 L15.7520529,19.9253213 C15.7530543,19.9253213 15.7530543,19.9262911 15.7530543,19.9262911 C15.7530543,19.9262911 15.7540557,19.9262911 15.7540557,19.9262911 L15.7570599,19.9282308 L15.7570599,19.927261 C15.8331664,19.9689647 15.919287,19.9912713 16.0044062,19.9912713 C16.0905267,19.9912713 16.1756459,19.9699345 16.2527539,19.927261 L19.7476467,17.9933729 C19.9038654,17.907056 20,17.7460603 20,17.5724565 L20,13.2207235 C20,13.0490594 19.9058682,12.8909732 19.7536551,12.8036864 L19.7536551,12.8036864 Z" id="AWS-Cloud-Development-Kit_Icon_16_Squid" fill="#FFFFFF"></path>
    </g>
</svg>