<svg width="48" height="48" viewBox="0 0 48 48" fill="none" xmlns="http://www.w3.org/2000/svg">
<rect width="48" height="48" rx="12" fill="#E0095F"/>
<mask id="mask0_2_49" style="mask-type:alpha" maskUnits="userSpaceOnUse" x="9" y="9" width="30" height="30">
<rect x="9" y="9" width="30" height="30" fill="#D9D9D9"/>
</mask>
<g mask="url(#mask0_2_49)">
<path d="M22.75 32.75V28.875C21.7292 28.6458 20.8177 28.2135 20.0156 27.5781C19.2135 26.9427 18.625 26.1458 18.25 25.1875C16.6875 25 15.3802 24.3177 14.3281 23.1406C13.276 21.9635 12.75 20.5833 12.75 19V17.75C12.75 17.0625 12.9948 16.474 13.4844 15.9844C13.974 15.4948 14.5625 15.25 15.25 15.25H17.75C17.75 14.5625 17.9948 13.974 18.4844 13.4844C18.974 12.9948 19.5625 12.75 20.25 12.75H27.75C28.4375 12.75 29.026 12.9948 29.5156 13.4844C30.0052 13.974 30.25 14.5625 30.25 15.25H32.75C33.4375 15.25 34.026 15.4948 34.5156 15.9844C35.0052 16.474 35.25 17.0625 35.25 17.75V19C35.25 20.5833 34.724 21.9635 33.6719 23.1406C32.6198 24.3177 31.3125 25 29.75 25.1875C29.375 26.1458 28.7865 26.9427 27.9844 27.5781C27.1823 28.2135 26.2708 28.6458 25.25 28.875V32.75H29C29.3542 32.75 29.651 32.8698 29.8906 33.1094C30.1302 33.349 30.25 33.6458 30.25 34C30.25 34.3542 30.1302 34.651 29.8906 34.8906C29.651 35.1302 29.3542 35.25 29 35.25H19C18.6458 35.25 18.349 35.1302 18.1094 34.8906C17.8698 34.651 17.75 34.3542 17.75 34C17.75 33.6458 17.8698 33.349 18.1094 33.1094C18.349 32.8698 18.6458 32.75 19 32.75H22.75ZM17.75 22.5V17.75H15.25V19C15.25 19.7917 15.4792 20.5052 15.9375 21.1406C16.3958 21.776 17 22.2292 17.75 22.5ZM24 26.5C25.0417 26.5 25.9271 26.1354 26.6562 25.4062C27.3854 24.6771 27.75 23.7917 27.75 22.75V15.25H20.25V22.75C20.25 23.7917 20.6146 24.6771 21.3438 25.4062C22.0729 26.1354 22.9583 26.5 24 26.5ZM30.25 22.5C31 22.2292 31.6042 21.776 32.0625 21.1406C32.5208 20.5052 32.75 19.7917 32.75 19V17.75H30.25V22.5Z" fill="white"/>
</g>
</svg>
