<svg version="1.1" id="Layer_1" xmlns="http://www.w3.org/2000/svg" xmlns:xlink="http://www.w3.org/1999/xlink" x="0px" y="0px"
	 width="24px" height="24px" viewBox="0 0 24 24" enable-background="new 0 0 24 24" xml:space="preserve">
<g >
	<rect y="0" fill="none" width="24" height="24"/>
	<g transform="translate(1.000000, 0.000000)">
		<polygon fill-rule="evenodd" clip-rule="evenodd" fill="#3367D6" fill-opacity="0.6" points="12.2,0 12.2,5.5 6.7,5.5 		"/>
		<polygon fill-rule="evenodd" clip-rule="evenodd" fill="#3367D6" fill-opacity="0.8" points="12.2,5.5 12.2,11 6.7,5.5 		"/>
		<g transform="translate(0.000000, 3.000000)">
			<g>
				<g transform="translate(0.000000, 0.280000)">
					<path fill="#3367D6" fill-opacity="0.6" d="M6.5,13.2l0-0.1l1-1.8h8.2c0.8,0,1.6-0.5,1.9-1.1l4.2-7.7L20,1.4h0
						l-1.2,2.2l-3,5.5H8L7.9,8.8L5.4,3.6l-1-2.2l-1-2.2h-3.6v2.2H2l4,8.3l-1.5,2.7c-0.2,0.3-0.3,0.7-0.3,1.1c0,1.2,1,2.2,2.2,2.2
						h13.2v-2.2H6.8C6.7,13.5,6.5,13.4,6.5,13.2z"/>
				</g>
			</g>
			<path fill-rule="evenodd" clip-rule="evenodd" fill="#3367D6" d="M7.8,16.9c-1.1,0-2.1,0.9-2.1,2.1c0,1.1,0.9,2.1,2.1,2.1
				s2.1-0.9,2.1-2.1C9.9,17.8,8.9,16.9,7.8,16.9z"/>
			<path fill-rule="evenodd" clip-rule="evenodd" fill="#3367D6" d="M16.8,16.9c-1.1,0-2.1,0.9-2.1,2.1c0,1.1,0.9,2.1,2.1,2.1
				c1.1,0,2.1-0.9,2.1-2.1C18.9,17.8,17.9,16.9,16.8,16.9z"/>
		</g>
		<polygon fill-rule="evenodd" clip-rule="evenodd" fill="#3367D6" fill-opacity="0.8" points="12.2,0 17.7,5.5 12.2,5.5 		"/>
		<polygon fill-rule="evenodd" clip-rule="evenodd" fill="#3367D6" points="17.7,5.5 12.2,11 12.2,5.5 		"/>
	</g>
</g>
</svg>
