<svg xmlns="http://www.w3.org/2000/svg" width="18" height="18" viewBox="0 0 18 18"><defs><linearGradient id="e1bc122a-5193-4b91-8d10-c94c8a3caf04" x1="11.202" y1="13.906" x2="2.831" y2="-0.576" gradientUnits="userSpaceOnUse"><stop offset="0" stop-color="#5e9624" /><stop offset="1" stop-color="#b4ec36" /></linearGradient></defs><g id="f0ccebc5-934d-463a-9e07-8c81671ecf94"><path d="M12.574,7.01c0,4.036-4.969,7.286-6.049,7.945a.4.4,0,0,1-.412,0C5.032,14.3.064,11.046.064,7.01V2.153a.39.39,0,0,1,.384-.385C4.312,1.666,3.423,0,6.319,0S8.325,1.666,12.19,1.768a.39.39,0,0,1,.384.385Z" fill="#86d633" /><path d="M12.055,7.051c0,3.7-4.556,6.682-5.547,7.286a.366.366,0,0,1-.378,0c-.991-.6-5.547-3.584-5.547-7.286V2.6a.357.357,0,0,1,.352-.353C4.479,2.15,3.663.623,6.319.623S8.159,2.15,11.7,2.244a.357.357,0,0,1,.352.353Z" fill="url(#e1bc122a-5193-4b91-8d10-c94c8a3caf04)" /><path d="M6.13,8.631H17.548a.369.369,0,0,1,.388.347v8.675a.369.369,0,0,1-.388.347H6.13a.369.369,0,0,1-.388-.347V8.978A.37.37,0,0,1,6.13,8.631Z" fill="#b4ec36" /><path d="M6.108,8.631H17.571a.348.348,0,0,1,.365.327h0v1.307H5.742V8.958a.349.349,0,0,1,.366-.327Z" fill="#fff" opacity="0.7" /><path d="M16.275,13.673H8.749c-.167,0-.3.076-.3.17v.42c0,.094.136.17.3.17h7.526c.168,0,.3-.076.3-.17v-.42C16.578,13.749,16.443,13.673,16.275,13.673Z" fill="#fff" opacity="0.7" /><path d="M16.275,11.759H8.749c-.167,0-.3.076-.3.17v.42c0,.094.136.17.3.17h7.526c.168,0,.3-.076.3-.17v-.42C16.578,11.835,16.443,11.759,16.275,11.759Z" fill="#fff" opacity="0.7" /><path d="M16.76,16.272H8.733c-.179,0-.324.082-.324.182V16.9c0,.1.145.181.324.181H16.76c.179,0,.324-.081.324-.181v-.448C17.084,16.354,16.939,16.272,16.76,16.272Z" fill="#fff" opacity="0.7" /><circle cx="7.198" cy="12.139" r="0.498" fill="#fff" opacity="0.7" /><circle cx="7.198" cy="14.053" r="0.498" fill="#fff" opacity="0.7" /><circle cx="7.078" cy="16.678" r="0.531" fill="#fff" opacity="0.7" /></g></svg>