<svg xmlns="http://www.w3.org/2000/svg" width="18" height="18" viewBox="0 0 18 18"><defs><linearGradient id="b6e62241-55ab-48cf-9a34-9e0759a89dfd" x1="11.122" y1="13.92" x2="2.751" y2="-0.562" gradientUnits="userSpaceOnUse"><stop offset="0" stop-color="#a33a85" /><stop offset="0.998" stop-color="#dc92bf" /></linearGradient></defs><g id="e89679d5-804c-4336-983f-2cbd0b6387ec"><path d="M12.494,7.023c0,4.037-4.969,7.286-6.049,7.945a.4.4,0,0,1-.412,0C4.952,14.309-.016,11.06-.016,7.023V2.167a.389.389,0,0,1,.384-.385C4.232,1.679,3.343.013,6.239.013S8.245,1.679,12.11,1.782a.39.39,0,0,1,.384.385Z" fill="#ce74b6" /><path d="M11.975,7.065c0,3.7-4.556,6.681-5.547,7.285a.362.362,0,0,1-.378,0C5.059,13.746.5,10.766.5,7.065V2.611a.357.357,0,0,1,.352-.353C4.4,2.164,3.583.636,6.239.636s1.84,1.528,5.384,1.622a.357.357,0,0,1,.352.353Z" fill="url(#b6e62241-55ab-48cf-9a34-9e0759a89dfd)" /><path d="M6.05,8.645H17.468a.368.368,0,0,1,.388.346v8.676a.368.368,0,0,1-.388.346H6.05a.369.369,0,0,1-.388-.346V8.991A.369.369,0,0,1,6.05,8.645Z" fill="#dc92bf" /><path d="M6.028,8.645H17.491a.347.347,0,0,1,.365.326h0v1.308H5.662V8.971a.348.348,0,0,1,.366-.326Z" fill="#fff" opacity="0.7" /><path d="M16.2,13.686H8.669c-.167,0-.3.076-.3.17v.42c0,.094.136.17.3.17H16.2c.168,0,.3-.076.3-.17v-.42C16.5,13.762,16.363,13.686,16.2,13.686Z" fill="#fff" opacity="0.7" /><path d="M16.2,11.773H8.669c-.167,0-.3.076-.3.17v.42c0,.094.136.17.3.17H16.2c.168,0,.3-.076.3-.17v-.42C16.5,11.849,16.363,11.773,16.2,11.773Z" fill="#fff" opacity="0.7" /><path d="M16.68,16.286H8.652c-.178,0-.323.081-.323.181v.448c0,.1.145.182.323.182H16.68c.179,0,.324-.081.324-.182v-.448C17,16.367,16.859,16.286,16.68,16.286Z" fill="#fff" opacity="0.7" /><circle cx="7.118" cy="12.153" r="0.498" fill="#fff" opacity="0.7" /><circle cx="7.118" cy="14.066" r="0.498" fill="#fff" opacity="0.7" /><circle cx="6.998" cy="16.691" r="0.531" fill="#fff" opacity="0.7" /></g></svg>