<svg id="a9ed4d43-c916-4b9a-b9ca-be76fbdc694c" xmlns="http://www.w3.org/2000/svg" width="18" height="18" viewBox="0 0 18 18"><defs><linearGradient id="aaede26b-698f-4a65-b6db-859d207e2da6" x1="8.05" y1="11.32" x2="8.05" y2="1.26" gradientUnits="userSpaceOnUse"><stop offset="0" stop-color="#0078d4" /><stop offset="0.82" stop-color="#5ea0ef" /></linearGradient><linearGradient id="bc54987f-34ba-4701-8ce4-6eca10aff9e9" x1="8.05" y1="15.21" x2="8.05" y2="11.32" gradientUnits="userSpaceOnUse"><stop offset="0" stop-color="#1490df" /><stop offset="0.98" stop-color="#1f56a3" /></linearGradient><linearGradient id="a5434fd8-c18c-472c-be91-f2aa070858b7" x1="8.05" y1="7.87" x2="8.05" y2="4.94" gradientUnits="userSpaceOnUse"><stop offset="0" stop-color="#d2ebff" /><stop offset="1" stop-color="#f0fffd" /></linearGradient></defs><title>Icon-intune-329</title><rect x="0.5" y="1.26" width="15.1" height="10.06" rx="0.5" fill="url(#aaede26b-698f-4a65-b6db-859d207e2da6)" /><rect x="1.34" y="2.1" width="13.42" height="8.39" rx="0.28" fill="#fff" /><path d="M11.08,14.37c-1.5-.23-1.56-1.31-1.55-3h-3c0,1.74-.06,2.82-1.55,3a.87.87,0,0,0-.74.84h7.54A.88.88,0,0,0,11.08,14.37Z" fill="url(#bc54987f-34ba-4701-8ce4-6eca10aff9e9)" /><path d="M17.17,5.91H10.29a2.31,2.31,0,1,0,0,.92H11v9.58a.33.33,0,0,0,.33.33h5.83a.33.33,0,0,0,.33-.33V6.24A.33.33,0,0,0,17.17,5.91Z" fill="#32bedd" /><rect x="11.62" y="6.82" width="5.27" height="8.7" rx="0.12" fill="#fff" /><circle cx="8.05" cy="6.41" r="1.46" opacity="0.9" fill="url(#a5434fd8-c18c-472c-be91-f2aa070858b7)" /><path d="M14.88,10.82,13.76,9.7a.06.06,0,0,0-.1.05v.68a.06.06,0,0,1-.06.06H11v.83H13.6a.06.06,0,0,1,.06.06v.69a.06.06,0,0,0,.1,0L14.88,11A.12.12,0,0,0,14.88,10.82Z" fill="#0078d4" /></svg>