<svg xmlns="http://www.w3.org/2000/svg" viewBox="0 0 24 24" width="24px" height="24px"><path d="M6.42,13a3.92,3.92,0,0,0,0,7.83,3.92,3.92,0,0,0,0-7.83ZM6,17.09,5.37,19.2l-.83.42.62-2.53h0l-.62-2.52.83.42L6,17.09Zm0,2.53.83-2.53L6,14.57l3.32,2.52Z" style="fill:#aecbfa"/><path d="M12.75,3.13,7.47,12.42a4.61,4.61,0,0,1,1.26.5l4-7.06,4.32,7.57L12.75,9.06,8.86,13a4.37,4.37,0,0,1,1,.89L12.75,11l4.57,4.64-4.57-2.07L10.4,14.62a4.48,4.48,0,0,1,.5,1.27l1.85-.83,4.36,2H11a4.67,4.67,0,0,1-.22,1.36H21.43Z" style="fill:#4285f4"/></svg>