<?xml version="1.0" encoding="UTF-8"?>
<svg width="64px" height="64px" viewBox="0 0 64 64" version="1.1" xmlns="http://www.w3.org/2000/svg" xmlns:xlink="http://www.w3.org/1999/xlink">
    <!-- Generator: Sketch 64 (93537) - https://sketch.com -->
    <title>Icon-Architecture/48/Arch_AWS-Snowmobile_48</title>
    <desc>Created with Sketch.</desc>
    <defs>
        <linearGradient x1="0%" y1="100%" x2="100%" y2="0%" id="linearGradient-1">
            <stop stop-color="#1B660F" offset="0%"></stop>
            <stop stop-color="#6CAE3E" offset="100%"></stop>
        </linearGradient>
    </defs>
    <g id="Icon-Architecture/48/Arch_AWS-Snowmobile_48" stroke="none" stroke-width="1" fill="none" fill-rule="evenodd">
        <g id="Icon-Architecture-BG/48/Storage" fill="url(#linearGradient-1)">
            <rect id="Rectangle" x="0" y="0" width="64" height="64"></rect>
        </g>
        <path d="M54,31.5 C54,43.355 44.083,53 31.894,53 C22.547,53 14.175,47.243 11.061,38.675 L12.939,37.992 C15.768,45.772 23.385,51 31.894,51 C42.98,51 52,42.252 52,31.5 C52,20.748 42.98,12 31.894,12 C24.05,12 16.876,16.469 13.616,23.385 L11.808,22.532 C15.396,14.919 23.279,10 31.894,10 C44.083,10 54,19.645 54,31.5 L54,31.5 Z M10,35 L14,35 L14,33 L10,33 L10,35 Z M10,31 L14,31 L14,29 L10,29 L10,31 Z M11,27 L14,27 L14,25 L11,25 L11,27 Z M44,30 C45.767,30 47,31.233 47,33 L47,35.382 C46.267,34.542 45.2,34 44,34 C42.525,34 41.25,34.81 40.557,36 L40,36 L40,30 L44,30 Z M44,40 C42.897,40 42,39.103 42,38 C42,36.897 42.897,36 44,36 C45.103,36 46,36.897 46,38 C46,39.103 45.103,40 44,40 L44,40 Z M38,36 L32.443,36 C31.75,34.81 30.475,34 29,34 C27.484,34 26.178,34.857 25.5,36.104 C24.822,34.857 23.516,34 22,34 C20.525,34 19.25,34.81 18.557,36 L17,36 L17,26 L38,26 L38,36 Z M29,40 C27.897,40 27,39.103 27,38 C27,36.897 27.897,36 29,36 C30.103,36 31,36.897 31,38 C31,39.103 30.103,40 29,40 L29,40 Z M22,40 C20.897,40 20,39.103 20,38 C20,36.897 20.897,36 22,36 C23.103,36 24,36.897 24,38 C24,39.103 23.103,40 22,40 L22,40 Z M39,24 L16,24 C15.447,24 15,24.448 15,25 L15,37 C15,37.552 15.447,38 16,38 L18,38 C18,40.206 19.794,42 22,42 C23.516,42 24.822,41.143 25.5,39.896 C26.178,41.143 27.484,42 29,42 C31.206,42 33,40.206 33,38 L39,38 L40,38 C40,40.206 41.794,42 44,42 C46.206,42 48,40.206 48,38 C48.553,38 49,37.552 49,37 L49,33 C49,30.103 46.897,28 44,28 L40,28 L40,25 C40,24.448 39.553,24 39,24 L39,24 Z" id="Fill-3" fill="#FFFFFF"></path>
    </g>
</svg>