<?xml version="1.0" encoding="UTF-8"?>
<svg width="64px" height="64px" viewBox="0 0 64 64" version="1.1" xmlns="http://www.w3.org/2000/svg" xmlns:xlink="http://www.w3.org/1999/xlink">
    <!-- Generator: Sketch 64 (93537) - https://sketch.com -->
    <title>Icon-Architecture/48/Arch_Amazon-Elastic-File-System_48</title>
    <desc>Created with Sketch.</desc>
    <defs>
        <linearGradient x1="0%" y1="100%" x2="100%" y2="0%" id="linearGradient-1">
            <stop stop-color="#1B660F" offset="0%"></stop>
            <stop stop-color="#6CAE3E" offset="100%"></stop>
        </linearGradient>
    </defs>
    <g id="Icon-Architecture/48/Arch_Amazon-Elastic-File-System_48" stroke="none" stroke-width="1" fill="none" fill-rule="evenodd">
        <g id="Icon-Architecture-BG/48/Storage" fill="url(#linearGradient-1)">
            <rect id="Rectangle" x="0" y="0" width="64" height="64"></rect>
        </g>
        <path d="M53.002652,10 L46.0212163,10 L46.0212163,12 L50.4783643,12 L45.1994016,17.293 L46.6096516,18.707 L52.0053041,13.297 L52.0053041,18 L54,18 L54,11 C54,10.448 53.5541855,10 53.002652,10 L53.002652,10 Z M11.9946959,13.297 L17.3903484,18.707 L18.8005984,17.293 L13.5216357,12 L17.9787837,12 L17.9787837,10 L10.997348,10 C10.4458145,10 10,10.448 10,11 L10,18 L11.9946959,18 L11.9946959,13.297 Z M52.0053041,50.703 L46.6096516,45.293 L45.1994016,46.707 L50.4783643,52 L46.0212163,52 L46.0212163,54 L53.002652,54 C53.5541855,54 54,53.552 54,53 L54,46 L52.0053041,46 L52.0053041,50.703 Z M20.9887798,26.465 C20.9887798,23.52 23.0413219,20.35 25.6593603,19.249 C30.2062697,17.344 33.4277036,19.85 34.6005848,21.017 C35.5590362,21.971 36.3090419,23.193 36.8276628,24.649 C36.951334,24.995 37.2545277,25.246 37.616565,25.301 C37.980597,25.353 38.3426344,25.207 38.5630483,24.913 C39.1056055,24.19 39.8945078,23.776 40.729288,23.776 C41.9859465,23.776 43.5098941,24.753 43.6724619,27.507 C43.6983929,27.958 44.0215336,28.334 44.4623614,28.427 C47.7216946,29.114 49.3743002,30.917 49.3743002,33.786 C49.3743002,34.5 49.2885282,35.148 49.1189791,35.712 L51.0298978,36.288 C51.2552984,35.537 51.3689961,34.695 51.3689961,33.786 C51.3689961,30.175 49.3244328,27.66 45.5873699,26.642 C45.1046535,23.305 42.798785,21.776 40.729288,21.776 C39.7917809,21.776 38.8931704,22.064 38.1252125,22.594 C37.5637056,21.445 36.8535939,20.441 36.0058481,19.597 C32.9689235,16.578 28.8139719,15.758 24.8894077,17.404 C21.5283451,18.817 18.9940839,22.712 18.9940839,26.465 C18.9940839,26.589 18.997076,26.716 19.00306,26.846 C15.999048,27.91 14.2347394,30.434 14.2347394,33.743 C14.2347394,33.912 14.2427182,34.081 14.2516944,34.243 C14.4122674,37.164 16.3551012,39.688 19.2015323,40.674 L19.8528005,38.784 C17.7763221,38.064 16.3590906,36.239 16.2424009,34.134 C16.2354195,34.008 16.2294354,33.875 16.2294354,33.743 C16.2294354,30.101 18.7816488,28.92 20.3045991,28.541 C20.7923023,28.419 21.1134483,27.952 21.0546048,27.451 C21.0157082,27.131 20.9887798,26.798 20.9887798,26.465 L20.9887798,26.465 Z M40.975633,34.6 C40.975633,34.288 40.906816,34.112 40.8469751,34.057 C40.7961103,34.009 40.6684498,33.986 40.5088741,33.998 L30.4655802,34 C29.9160414,34 29.4682322,33.552 29.4682322,33 C29.4682322,32.824 29.4113834,32.356 29.3405717,32 L27.0546501,32 C26.9599021,32.349 26.8661514,32.831 26.8591699,33.009 C26.8382256,33.546 26.3973978,34 25.861822,34 L23.5599429,34 C23.3275608,33.987 23.2038897,34.008 23.1520276,34.057 C23.093184,34.112 23.0233697,34.288 23.0233697,34.6 L23.0233697,45 L40.975633,45 L40.975633,34.6 Z M42.9703289,37 L42.9703289,41.764 L45.3460117,37 L42.9703289,37 Z M42.8656074,46.447 L42.8566312,46.443 C42.6920688,46.77 42.3639413,47 41.9729809,47 L22.0260217,47 C21.4754856,47 21.0286738,46.552 21.0286738,46 L21.0286738,34.6 C21.0286738,33.532 21.4435705,32.92 21.7916449,32.595 C22.1187751,32.29 22.6962395,31.939 23.6297572,32.002 L24.9811637,32.001 C25.1477208,31.128 25.543668,30 26.4821724,30 L29.9738876,30 C30.0387152,30 30.1015482,30.006 30.1643811,30.019 C30.9622594,30.174 31.2714373,31.183 31.3901217,32 L40.4390598,32 C41.3087472,31.934 41.8822223,32.289 42.2083551,32.595 C42.5554321,32.92 42.9703289,33.532 42.9703289,34.6 L42.9703289,35 L46.9597207,35 C47.3058005,35 47.6259492,35.18 47.8084639,35.474 C47.9909785,35.769 48.0069361,36.137 47.8523472,36.447 L42.8656074,46.447 Z M18.8005984,46.707 L13.5216357,52 L17.9787837,52 L17.9787837,54 L10.997348,54 C10.4458145,54 10,53.552 10,53 L10,46 L11.9946959,46 L11.9946959,50.703 L17.3903484,45.293 L18.8005984,46.707 Z" id="Amazon-Elastic-File-System_Icon_48_Squid" fill="#FFFFFF"></path>
    </g>
</svg>