<?xml version="1.0" encoding="UTF-8"?>
<svg width="64px" height="64px" viewBox="0 0 64 64" version="1.1" xmlns="http://www.w3.org/2000/svg" xmlns:xlink="http://www.w3.org/1999/xlink">
    <title>Icon-Architecture/48/Arch_Amazon-S3-On-Outposts_Storage_48</title>
    <defs>
        <linearGradient x1="0%" y1="100%" x2="100%" y2="0%" id="linearGradient-1">
            <stop stop-color="#1B660F" offset="0%"></stop>
            <stop stop-color="#6CAE3E" offset="100%"></stop>
        </linearGradient>
    </defs>
    <g id="Icon-Architecture/48/Arch_Amazon-S3-On-Outposts_Storage_48" stroke="none" stroke-width="1" fill="none" fill-rule="evenodd">
        <g id="Rectangle" fill="url(#linearGradient-1)">
            <rect x="0" y="0" width="64" height="64"></rect>
        </g>
        <g id="Icon-Service/48/Amazon-S3-On-Outposts_48" transform="translate(8.000000, 8.000000)" fill="#FFFFFF">
            <path d="M42.416,22.305 C42.206,21.444 37.853,19.487 31.461,19.487 C25.069,19.487 20.717,21.444 20.507,22.305 L20.515,22.363 C20.858,23.228 25.154,24.754 31.461,24.754 C37.704,24.754 41.971,23.259 42.391,22.39 L42.397,22.338 L42.411,22.34 L42.416,22.305 Z M42.037,25.015 C39.16,26.343 34.353,26.754 31.461,26.754 C28.562,26.754 23.745,26.341 20.871,25.008 L21.901,32.656 C22.672,32.939 23.395,33.396 24.03,34.024 C24.396,34.386 24.717,34.799 24.989,35.26 C25.601,34.988 26.292,34.935 26.959,35.131 C28.064,35.459 28.84,36.371 29.114,37.631 C29.562,37.778 30.006,37.986 30.4,38.236 C31.768,39.101 32.461,40.234 32.461,41.604 C32.461,42.529 32.25,43.323 31.853,43.991 C33.695,43.965 35.516,43.771 37.015,43.425 C37.631,43.283 38.174,43.12 38.631,42.939 C39.336,42.66 39.631,42.413 39.709,42.313 C39.71,42.294 39.713,42.275 39.715,42.256 L40.785,34.305 C37.887,33.384 34.217,31.726 32.24,30.797 C32.021,30.923 31.77,31 31.5,31 C30.673,31 30,30.327 30,29.5 C30,28.673 30.673,28 31.5,28 C32.104,28 32.624,28.362 32.861,28.879 C34.43,29.619 38.141,31.324 41.057,32.29 L42.037,25.015 Z M30.461,41.604 C30.461,41.128 30.326,40.556 29.33,39.925 C28.938,39.677 28.457,39.487 28.042,39.417 C27.536,39.331 27.184,38.88 27.21,38.379 C27.143,37.676 26.84,37.181 26.391,37.049 C26.029,36.943 25.655,37.08 25.411,37.407 C25.189,37.701 24.821,37.846 24.462,37.795 C24.099,37.741 23.794,37.491 23.67,37.144 C23.425,36.461 23.073,35.889 22.625,35.447 C22.222,35.049 21.301,34.314 19.996,34.314 C19.537,34.314 19.031,34.405 18.483,34.633 C17.305,35.124 16.346,36.598 16.346,37.919 C16.346,38.071 16.354,38.22 16.373,38.366 C16.436,38.867 16.114,39.337 15.624,39.46 C14.82,39.662 13.862,40.211 13.862,41.681 C13.862,42.878 14.523,43.534 15.078,43.875 C15.212,43.957 15.368,44 15.531,44 L28.122,44.013 L28.127,44.013 C28.518,44.011 30.461,43.879 30.461,41.604 L30.461,41.604 Z M14.348,37.786 C14.406,35.702 15.834,33.571 17.714,32.787 C18.418,32.494 19.134,32.355 19.84,32.334 L18.543,22.709 L18.544,22.709 C18.543,22.708 18.543,22.707 18.543,22.705 L18.511,22.459 C18.505,22.416 18.502,22.373 18.502,22.329 C18.502,20.954 19.933,19.825 22.074,19 L22,19 L22,5 C22,4.449 21.552,4 21,4 L5,4 C4.448,4 4,4.449 4,5 L4,40 C4,40.552 4.448,41 5,41 L11.909,41 C12.111,39.523 12.98,38.38 14.348,37.786 L14.348,37.786 Z M15.529,46 C14.996,45.999 14.479,45.854 14.032,45.579 C13.401,45.192 12.444,44.389 12.049,43 L8,43 L8,46 L6,46 L6,43 L5,43 C3.346,43 2,41.655 2,40 L2,5 C2,3.346 3.346,2 5,2 L21,2 C22.654,2 24,3.346 24,5 L24,18.389 C26.234,17.807 28.887,17.487 31.461,17.487 C37.693,17.487 44.421,19.339 44.421,22.329 C44.421,22.373 44.418,22.416 44.412,22.459 L44.38,22.705 C44.375,22.747 44.367,22.788 44.356,22.829 C44.354,22.838 44.349,22.845 44.347,22.853 L43.312,30.529 C45.008,31.518 45.819,32.314 45.974,33.137 C46.058,33.586 45.941,34.025 45.648,34.374 C45.308,34.78 44.796,34.981 44.048,34.981 C43.674,34.981 43.233,34.925 42.733,34.825 L41.704,42.469 C41.663,43.418 40.877,44.202 39.366,44.799 C38.816,45.017 38.176,45.21 37.464,45.373 C35.716,45.778 33.584,46 31.461,46 L28.131,46 L15.529,46 Z M8,19 L19,19 L19,17 L8,17 L8,19 Z M8,24 L16,24 L16,22 L8,22 L8,24 Z M8,14 L19,14 L19,12 L8,12 L8,14 Z" id="Fill-4"></path>
        </g>
    </g>
</svg>