<?xml version="1.0" encoding="UTF-8"?>
<svg width="64px" height="64px" viewBox="0 0 64 64" version="1.1" xmlns="http://www.w3.org/2000/svg" xmlns:xlink="http://www.w3.org/1999/xlink">
    <!-- Generator: Sketch 64 (93537) - https://sketch.com -->
    <title>Icon-Architecture/48/Arch_AWS-Storage-Gateway_48</title>
    <desc>Created with Sketch.</desc>
    <defs>
        <linearGradient x1="0%" y1="100%" x2="100%" y2="0%" id="linearGradient-1">
            <stop stop-color="#1B660F" offset="0%"></stop>
            <stop stop-color="#6CAE3E" offset="100%"></stop>
        </linearGradient>
    </defs>
    <g id="Icon-Architecture/48/Arch_AWS-Storage-Gateway_48" stroke="none" stroke-width="1" fill="none" fill-rule="evenodd">
        <g id="Icon-Architecture-BG/48/Storage" fill="url(#linearGradient-1)">
            <rect id="Rectangle" x="0" y="0" width="64" height="64"></rect>
        </g>
        <path d="M43,30.2439658 C40.175,28.2025332 36.105,26.9942771 32,26.9942771 C27.423,26.9942771 23.632,28.1055126 21,30.2129592 L21,51.9995761 L24,51.9995761 L24,31.9953369 C24,31.6402617 24.188,31.3121922 24.494,31.132154 C26.63,29.8808888 28.418,28.994701 32,28.994701 C35.365,28.994701 37.35,30.0189181 39.27,31.0091279 L39.458,31.1061485 C39.791,31.2771847 40,31.6202574 40,31.9953369 L40,51.9995761 L43,51.9995761 L43,30.2439658 Z M44.616,28.956693 C44.858,29.1467333 45,29.4367947 45,29.74486 L45,52.999788 C45,53.551905 44.553,54 44,54 L39,54 C38.447,54 38,53.551905 38,52.999788 L38,32.6054662 C36.279,31.7232793 34.696,30.995125 32,30.995125 C29.17,30.995125 27.737,31.5842498 26,32.5724592 L26,52.999788 C26,53.551905 25.553,54 25,54 L20,54 C19.447,54 19,53.551905 19,52.999788 L19,29.74486 C19,29.4547985 19.126,29.1797403 19.345,28.9897 C22.354,26.3751459 26.73,24.9938532 32,24.9938532 C36.728,24.9938532 41.443,26.4751671 44.616,28.956693 L44.616,28.956693 Z M54,29.3177695 C54,33.7657121 51.554,36.4902895 47.111,36.9903954 L46.889,35.0019741 C50.328,34.614892 52,32.755498 52,29.3177695 C52,26.0090684 49.978,23.9296277 45.988,23.1364596 C45.544,23.048441 45.215,22.671361 45.186,22.2192652 C44.982,19.0145861 43.065,17.8773451 41.485,17.8773451 C40.406,17.8773451 39.397,18.3724501 38.719,19.235633 C38.495,19.5196932 38.138,19.6627235 37.779,19.6057114 C37.422,19.5496995 37.123,19.3056478 36.996,18.9675762 C36.383,17.3302292 35.454,15.8979257 34.309,14.823698 C32.874,13.4744121 28.939,10.5757978 23.374,12.7832656 C20.19,14.049534 17.696,17.678303 17.696,21.0440162 C17.696,21.4220963 17.72,21.784173 17.767,22.1512508 C17.771,22.1902591 17.774,22.2302676 17.775,22.2702761 L17.775,22.2722765 L17.775,22.2732767 L17.775,22.2742769 L17.775,22.2752771 L17.775,22.2762773 L17.775,22.2772775 L17.775,22.2782777 L17.775,22.279278 L17.775,22.2802782 L17.775,22.2812784 L17.775,22.2832788 C17.775,22.784385 17.406,23.2024736 16.926,23.2754891 C15.046,23.7475891 12,25.1458854 12,29.2497551 C12,29.409789 12.009,29.5628214 12.017,29.7158539 C12.179,32.5414527 14.144,34.5708827 17.144,35.0059749 L16.856,36.9863946 C12.921,36.4152736 10.236,33.6036777 10.02,29.824877 C10.009,29.6328363 10,29.4457966 10,29.2497551 C10,24.2146881 13.516,22.2702761 15.708,21.548123 C15.7,21.3820878 15.696,21.2140522 15.696,21.0440162 C15.696,16.848127 18.68,12.4982052 22.635,10.9238716 C27.236,9.09848478 32.109,10.0116783 35.677,13.365389 C36.713,14.3365948 37.599,15.5448508 38.279,16.9101402 C39.205,16.2429988 40.318,15.8769212 41.485,15.8769212 C43.883,15.8769212 46.561,17.5922847 47.104,21.3360781 C51.559,22.4453131 54,25.2579092 54,29.3177695 L54,29.3177695 Z" id="AWS-Storage-Gateway_Icon_48_Squid" fill="#FFFFFF"></path>
    </g>
</svg>