<?xml version="1.0" encoding="UTF-8"?>
<svg width="64px" height="64px" viewBox="0 0 64 64" version="1.1" xmlns="http://www.w3.org/2000/svg" xmlns:xlink="http://www.w3.org/1999/xlink">
    <!-- Generator: Sketch 64 (93537) - https://sketch.com -->
    <title>Icon-Architecture/48/Arch_Amazon-Glacier_48</title>
    <desc>Created with Sketch.</desc>
    <defs>
        <linearGradient x1="0%" y1="100%" x2="100%" y2="0%" id="linearGradient-1">
            <stop stop-color="#1B660F" offset="0%"></stop>
            <stop stop-color="#6CAE3E" offset="100%"></stop>
        </linearGradient>
    </defs>
    <g id="Icon-Architecture/48/Arch_Amazon-Glacier_48" stroke="none" stroke-width="1" fill="none" fill-rule="evenodd">
        <g id="Icon-Architecture-BG/48/Storage" fill="url(#linearGradient-1)">
            <rect id="Rectangle" x="0" y="0" width="64" height="64"></rect>
        </g>
        <path d="M50.9426924,45.869857 L52.6302997,47.5569263 L51.224126,48.9626517 L49.0442584,46.7834791 L45.8908094,46.7834791 L47.5197433,49.6078538 L50.3977255,50.4170903 L49.8597198,52.3308254 L47.6032784,51.6955647 L46.9857156,54 L45.0644089,53.4850313 L45.8251747,50.6487268 L44.2270693,47.8780361 L42.6528309,50.5980253 L43.3907241,53.4969611 L41.4644451,53.9880702 L40.8856664,51.7164419 L38.5804962,52.3338078 L38.0663577,50.4131137 L40.9015778,49.6545787 L42.5623346,46.7834791 L39.4625868,46.7834791 L37.2190734,48.971599 L35.8308001,47.5479789 L37.5084628,45.9116112 L35.8218499,44.2245419 L37.2280236,42.8188165 L39.2040258,44.7951829 L42.4449877,44.7951829 L40.9284284,42.1726203 L38.0544241,41.3643779 L38.5924298,39.4506428 L40.8498656,40.0859034 L41.4674285,37.7814682 L43.3877407,38.2964369 L42.6269749,41.1387063 L44.2270693,43.9034321 L45.7983242,41.1784722 L45.0614255,38.2845071 L46.9877045,37.793398 L47.5664832,40.0650263 L49.8716534,39.4476604 L50.3857919,41.3683545 L47.5465939,42.1288777 L46.0081563,44.7951829 L49.1964116,44.7951829 L51.2330762,42.8098692 L52.6213495,44.2334892 L50.9426924,45.869857 Z M30.7600223,11.9882962 C41.1044487,11.9882962 48.3938782,15.1914413 48.5311144,16.9709664 L48.5052583,17.1658194 C48.4823856,17.2483337 48.4356457,17.3338304 48.384928,17.4193271 C48.3670276,17.4501457 48.3580775,17.4779819 48.3371937,17.5088005 C48.2765313,17.5942972 48.1939907,17.6817822 48.1074722,17.7682731 C48.0776383,17.7990917 48.0567545,17.827922 48.0229427,17.8587406 C47.9264796,17.9482139 47.8061493,18.0386814 47.6828356,18.1291489 C47.643057,18.1579792 47.6102397,18.1858153 47.5674777,18.2156398 C47.4302415,18.3100838 47.2701326,18.4045279 47.1040569,18.498972 C47.059306,18.5238257 47.0235052,18.5486794 46.9777598,18.5735331 C46.7908004,18.6749362 46.5819627,18.7763393 46.3641749,18.8767482 C46.3253907,18.8936487 46.2945623,18.9115434 46.2557782,18.9284439 C46.0121342,19.0378002 45.746612,19.1461624 45.4671673,19.2535304 C45.4462835,19.2614835 45.4283832,19.2694367 45.4074994,19.2773899 C42.3445468,20.43259 37.2061454,21.3949253 30.7640002,21.3949253 C22.3906037,21.3949253 16.2149752,19.7665108 13.9406334,18.2056983 C13.9286998,18.1977451 13.9197497,18.1887978 13.9088105,18.1808446 C13.751685,18.0714883 13.6114655,17.9611378 13.4941186,17.8527757 C13.4682625,17.8299103 13.4533455,17.8070449 13.4294783,17.7841795 C13.3359986,17.6917237 13.2494801,17.5992679 13.1848399,17.5078063 C13.1599783,17.472017 13.1480447,17.4372218 13.1291499,17.4024266 C13.0834045,17.3248831 13.039648,17.2463454 13.0177698,17.169796 L12.9909192,16.9709664 C13.1291499,15.1914413 20.4175849,11.9882962 30.7600223,11.9882962 L30.7600223,11.9882962 Z M50.9317532,34.2810728 C50.640375,34.3357509 49.9064597,34.3635871 48.2506752,33.9599629 L48.4694576,32.3345308 C50.1849099,33.3793805 50.7557329,34.0076821 50.9317532,34.2810728 L50.9317532,34.2810728 Z M30.6675371,27.9811564 C30.6675371,27.9304548 30.7093046,27.8887006 30.7610168,27.8887006 C30.8137235,27.8887006 30.8544965,27.9294607 30.8544965,27.9811564 C30.8544965,28.0845478 30.6675371,28.0845478 30.6675371,27.9811564 L30.6675371,27.9811564 Z M30.7640002,51.7542195 C22.3518196,51.7542195 17.2442466,49.5989064 17.2442466,48.6514833 C17.2442466,48.6067467 17.2412632,48.5630041 17.2352964,48.5192616 L13.4274894,20.2099008 C13.6582053,20.3441108 13.9038382,20.4743442 14.1623991,20.5996069 C14.30958,20.6721797 14.4706833,20.7407759 14.6278088,20.8103663 C14.7819509,20.8789625 14.9370875,20.9465645 15.0981908,21.0121783 C15.278189,21.0857453 15.4621651,21.1573239 15.6521079,21.2269143 C15.8012777,21.2815924 15.9564143,21.3352764 16.1125453,21.3879663 C16.5998332,21.5549832 17.1080049,21.7130527 17.6450161,21.8591925 C17.661922,21.8641632 17.6778334,21.869134 17.6937449,21.8731106 C17.9513113,21.9427009 18.2168335,22.0073205 18.4833502,22.0729343 C18.6166085,22.1047471 18.7498668,22.1365598 18.8861086,22.1683725 C19.1625699,22.231998 19.4410201,22.2936352 19.7264316,22.3512958 C19.8308504,22.373167 19.9362638,22.39305 20.0426715,22.4139271 C21.027192,22.607786 22.055469,22.7728146 23.1185522,22.9090129 C23.2150153,22.9209426 23.3124729,22.9338666 23.408936,22.9448022 C23.7629656,22.9885447 24.1160007,23.0293048 24.4759971,23.0660883 C24.5117979,23.0700648 24.5475986,23.0730473 24.5833994,23.0770239 C25.7419512,23.1933392 26.9243703,23.2758535 28.1137506,23.3265551 C28.1962912,23.3305316 28.2788318,23.3335141 28.3613724,23.3364965 C29.1619169,23.3673151 29.9624613,23.3881922 30.7600223,23.3881922 C31.1707364,23.3881922 31.582445,23.3792449 31.9941536,23.3712917 C32.0060872,23.3712917 32.0180207,23.3712917 32.0279654,23.3712917 C32.3979064,23.3633385 32.7658585,23.3514088 33.1348051,23.3374907 C33.2392239,23.3335141 33.3446372,23.3295375 33.4490561,23.3245668 C33.8140248,23.3096545 34.177999,23.2917599 34.5399843,23.2708828 C34.5449567,23.2698886 34.5509235,23.2698886 34.5549013,23.2688945 C35.3007502,23.2241578 36.0366544,23.1645089 36.7665918,23.0929303 C36.8769774,23.0819946 36.989352,23.0720531 37.0997376,23.0611175 C37.4159775,23.0283106 37.7282396,22.9925213 38.0395072,22.9547437 C38.1966327,22.9358549 38.3517692,22.9159719 38.5059113,22.8960889 C38.8082287,22.856323 39.1075627,22.8175512 39.4029189,22.7738087 C39.527227,22.7549199 39.6475573,22.7340428 39.770871,22.7141598 C40.2899818,22.6336338 40.7991479,22.5451547 41.297375,22.4497164 C41.4863233,22.412933 41.6772606,22.3771436 41.8632256,22.3383719 C42.0999083,22.2896586 42.3316187,22.2379629 42.5613402,22.1862672 C42.7632166,22.1405364 42.9611151,22.0928173 43.1580192,22.044104 C43.3688458,21.9914142 43.5806669,21.9417068 43.7845323,21.8860345 C44.1395563,21.7905963 44.4866247,21.6911815 44.8217594,21.5867959 C44.9868406,21.5351002 45.1409827,21.4804221 45.3010916,21.4267381 C45.5099293,21.3561536 45.716778,21.2845749 45.9166655,21.2110079 C46.0747855,21.151359 46.2309165,21.0917102 46.3830697,21.030073 C46.5839516,20.949547 46.7768779,20.8660385 46.9648318,20.7805418 C47.0911289,20.7238754 47.2214038,20.6682031 47.3417341,20.6105425 C47.6052673,20.4822974 47.8558726,20.3510698 48.0915608,20.2138774 L46.317435,33.4121874 C41.6842219,31.9577487 35.4916875,29.1244267 32.8314932,27.8708059 C32.7728198,26.7752548 31.8708399,25.9004044 30.7610168,25.9004044 C29.613404,25.9004044 28.6786068,26.8339095 28.6786068,27.9811564 C28.6786068,29.1293974 29.613404,30.0629025 30.7610168,30.0629025 C31.2154874,30.0629025 31.6331627,29.9127861 31.9752587,29.6652432 C35.1008627,31.1415531 41.3470982,33.9778576 46.0489294,35.410425 L45.9634054,36.0436973 L47.9354298,36.310129 L47.9841586,35.9413001 C48.998513,36.1798956 49.8338637,36.3011817 50.5130834,36.3011817 C51.4976039,36.3011817 52.1609122,36.0496622 52.5825654,35.5466233 C52.9306282,35.1330577 53.0678644,34.6111299 52.9684178,34.0792607 C52.7536134,32.9340021 51.4359471,31.7251181 48.756858,30.1991007 L50.4484432,17.606227 C50.4534155,17.5833616 50.4593823,17.5614903 50.4623657,17.5386249 L50.5130834,17.1528955 C50.5190502,17.1091529 50.5220336,17.0654104 50.5220336,17.0216679 C50.5220336,12.8840236 40.1070002,10 30.7600223,10 C21.4140389,10 11,12.8840236 11,17.0216679 C11,17.0654104 11.0029834,17.1091529 11.0089502,17.1528955 L11.0606624,17.5386249 C11.0606624,17.5455839 11.0626513,17.552543 11.0636458,17.5585079 L15.2563108,48.7280327 C15.3865857,52.3795386 24.8101374,53.7425156 30.7640002,53.7425156 C32.779781,53.7425156 34.806501,53.6142705 36.7904589,53.3597686 L36.5378648,51.388373 C34.6374419,51.6309451 32.6952515,51.7542195 30.7640002,51.7542195 L30.7640002,51.7542195 Z" id="Amazon-Glacier_Icon_48_Squid" fill="#FFFFFF"></path>
    </g>
</svg>