<?xml version="1.0" encoding="UTF-8"?>
<svg width="64px" height="64px" viewBox="0 0 64 64" version="1.1" xmlns="http://www.w3.org/2000/svg" xmlns:xlink="http://www.w3.org/1999/xlink">
    <!-- Generator: Sketch 64 (93537) - https://sketch.com -->
    <title>Icon-Architecture/48/Arch_Amazon-FSx-For-WFS_48</title>
    <desc>Created with Sketch.</desc>
    <defs>
        <linearGradient x1="0%" y1="100%" x2="100%" y2="0%" id="linearGradient-1">
            <stop stop-color="#1B660F" offset="0%"></stop>
            <stop stop-color="#6CAE3E" offset="100%"></stop>
        </linearGradient>
    </defs>
    <g id="Icon-Architecture/48/Arch_Amazon-FSx-For-WFS_48" stroke="none" stroke-width="1" fill="none" fill-rule="evenodd">
        <g id="Icon-Architecture-BG/48/Storage" fill="url(#linearGradient-1)">
            <rect id="Rectangle" x="0" y="0" width="64" height="64"></rect>
        </g>
        <path d="M10,23.429 L19.458,23.429 L19.458,24.765 L11.435,24.765 L11.435,31.447 L18.218,31.447 L18.218,32.783 L11.435,32.783 L11.435,40.902 L10,40.902 L10,23.429 Z M30.399,33.754 C30.935,34.435 31.202,35.288 31.202,36.313 C31.202,37.81 30.671,39.02 29.609,39.944 C28.548,40.869 27.149,41.331 25.415,41.331 C23.616,41.331 22.012,40.978 20.602,40.272 L20.602,38.986 C22.303,39.625 23.867,39.944 25.294,39.944 C26.639,39.944 27.713,39.616 28.516,38.961 C29.317,38.305 29.719,37.414 29.719,36.288 C29.719,35.599 29.5,35.011 29.062,34.523 C28.625,34.036 27.92,33.599 26.947,33.212 L24.127,32.077 C22.878,31.573 21.963,30.972 21.379,30.275 C20.796,29.577 20.504,28.716 20.504,27.69 C20.504,26.295 20.986,25.165 21.951,24.299 C22.915,23.433 24.184,23 25.756,23 C26.469,23 27.219,23.089 28.005,23.265 C28.791,23.442 29.532,23.69 30.229,24.009 L30.229,25.295 C28.576,24.69 27.109,24.387 25.828,24.387 C24.58,24.387 23.624,24.669 22.96,25.232 C22.295,25.795 21.963,26.597 21.963,27.64 C21.963,28.228 22.063,28.703 22.267,29.064 C22.469,29.426 22.802,29.754 23.264,30.048 C23.726,30.342 24.386,30.657 25.245,30.993 L27.847,32.027 C29.014,32.498 29.865,33.074 30.399,33.754 L30.399,33.754 Z M36.353,34.759 L37.234,36.05 L33.969,40.996 L32.011,40.996 L36.353,34.759 Z M39.128,33.425 L41,36.187 L41,39.219 L37.189,33.557 L38.177,32.137 L41.871,26.669 L43.801,26.669 L39.128,33.425 Z M36.329,32.345 L32.445,26.669 L34.483,26.669 L37.357,30.924 L36.329,32.345 Z M45,40 L52.001,40 L52.001,39 L45,39 L45,40 Z M46,37 L51,37 L51,34 L46,34 L46,37 Z M53,37 L53,33 C53,32.448 52.553,32 52,32 L45,32 C44.447,32 44,32.448 44,33 L44,37 C43.447,37 43,37.448 43,38 L43,40 C43,41.103 43.897,42 45,42 L52,42 C53.103,42 54,41.103 54,40 L54,38 C54,37.448 53.553,37 53,37 L53,37 Z" id="Amazon-FSx-for-WFS_Icon_48_Squid" fill="#FFFFFF"></path>
    </g>
</svg>