<?xml version="1.0" encoding="UTF-8"?>
<svg width="64px" height="64px" viewBox="0 0 64 64" version="1.1" xmlns="http://www.w3.org/2000/svg" xmlns:xlink="http://www.w3.org/1999/xlink">
    <title>Icon-Architecture/48/Arch_AWS-Snowcone_48</title>
    <defs>
        <linearGradient x1="0%" y1="100%" x2="100%" y2="0%" id="linearGradient-1">
            <stop stop-color="#1B660F" offset="0%"></stop>
            <stop stop-color="#6CAE3E" offset="100%"></stop>
        </linearGradient>
    </defs>
    <g id="Icon-Architecture/48/Arch_AWS-Snowcone_48" stroke="none" stroke-width="1" fill="none" fill-rule="evenodd">
        <g id="Rectangle" fill="url(#linearGradient-1)">
            <rect x="0" y="0" width="64" height="64"></rect>
        </g>
        <g id="Rectangle" fill="url(#linearGradient-1)">
            <rect x="0" y="0" width="64" height="64"></rect>
        </g>
        <g id="Icon-Service/48/AWS-Snowcone_48" transform="translate(8.000000, 8.000000)" fill="#FFFFFF">
            <path d="M37,24 L37,35 C37,35.552 36.553,36 36,36 L12,36 C11.447,36 11,35.552 11,35 L11,24 C11,23.448 11.447,23 12,23 L18,23 L18,25 L13,25 L13,34 L35,34 L35,25 L30,25 L30,23 L36,23 C36.553,23 37,23.448 37,24 L37,24 Z M42,39 L42,21 C42,19.896 41.104,19 40,19 L8,19 C6.896,19 6,19.896 6,21 L6,39 L4,39 L4,19 C4,17.896 4.896,17 6,17 L12.072,17 L36.072,17 L41.999,17 C43.104,17 43.999,17.896 43.999,19 L44,39 L42,39 Z M8,38 L40,38 L40,21 L8,21 L8,38 Z M34.072,15 L14.072,15 L15.572,13 L32.572,13 L34.072,15 Z M11.928,9.684 C12.308,9.249 12.857,9 13.434,9 L34.711,9 C35.287,9 35.836,9.249 36.216,9.683 L40.868,15 L36.572,15 L33.872,11.4 C33.684,11.148 33.387,11 33.072,11 L15.072,11 C14.758,11 14.461,11.148 14.272,11.4 L11.572,15 L7.276,15 L11.928,9.684 Z M44.202,15.665 L37.722,8.366 C36.962,7.498 35.864,7 34.711,7 L13.433,7 C12.279,7 11.183,7.498 10.423,8.366 L4.319,15.341 L4.348,15.366 C2.966,15.996 2,17.382 2,19 L2,39 C2,40.104 2.896,41 4,41 L7.072,41 C7.625,41 8.072,40.552 8.072,40 L40.072,40 C40.072,40.552 40.52,41 41.072,41 L44,41 C45.104,41 46,40.104 46,39 L46,19 C46,17.605 45.284,16.38 44.202,15.665 L44.202,15.665 Z M22,27 L26,27 L26,25 L22,25 L22,27 Z M21,29 L27,29 C27.553,29 28,28.552 28,28 L28,24 C28,23.448 27.553,23 27,23 L21,23 C20.447,23 20,23.448 20,24 L20,28 C20,28.552 20.447,29 21,29 L21,29 Z" id="AWS-Snowcone_48_Squid"></path>
        </g>
    </g>
</svg>