<?xml version="1.0" encoding="UTF-8"?>
<svg width="64px" height="64px" viewBox="0 0 64 64" version="1.1" xmlns="http://www.w3.org/2000/svg" xmlns:xlink="http://www.w3.org/1999/xlink">
    <!-- Generator: Sketch 64 (93537) - https://sketch.com -->
    <title>Icon-Architecture/48/Arch_AWS-CloudEndure-Disaster-Recovery_48</title>
    <desc>Created with Sketch.</desc>
    <defs>
        <linearGradient x1="0%" y1="100%" x2="100%" y2="0%" id="linearGradient-1">
            <stop stop-color="#1B660F" offset="0%"></stop>
            <stop stop-color="#6CAE3E" offset="100%"></stop>
        </linearGradient>
    </defs>
    <g id="Icon-Architecture/48/Arch_AWS-CloudEndure-Disaster-Recovery_48" stroke="none" stroke-width="1" fill="none" fill-rule="evenodd">
        <g id="Icon-Architecture-BG/48/Storage" fill="url(#linearGradient-1)">
            <rect id="Rectangle" x="0" y="0" width="64" height="64"></rect>
        </g>
        <path d="M46.069,42.9433748 C48.882,42.7143748 54.2,40.5713748 54.2,34.0963748 C54.2,28.9503748 50.678,26.2873748 47.129,25.4213748 C46.742,22.4833748 45.16,20.3563748 42.812,19.6703748 C41.157,19.1843748 39.415,19.5423748 38.055,20.5793748 C37.359,19.0773748 36.464,17.7743748 35.381,16.6893748 C31.714,13.0083748 26.693,12.0103748 21.954,14.0183748 C17.906,15.7333748 14.854,20.4633748 14.854,25.0213748 C14.854,25.2333748 14.86,25.4473748 14.871,25.6613748 C12.632,26.4363748 9,28.5403748 9,34.0293748 C9,34.3273748 9.011,34.6153748 9.033,34.8963748 C9.427,39.9323748 12.163,42.9423748 16.35,42.9463748 L25.2,42.9463748 L25.2,40.9463748 L16.351,40.9463748 C12.141,40.9423748 11.209,37.0563748 11.027,34.7413748 C11.009,34.5123748 11,34.2743748 11,34.0293748 C11,29.4333748 14.169,27.8873748 16.111,27.3723748 C16.126,27.3693748 16.14,27.3663748 16.155,27.3633748 C16.656,27.2513748 16.99,26.7783748 16.929,26.2683748 C16.88,25.8543748 16.854,25.4343748 16.854,25.0213748 C16.854,21.2803748 19.436,17.2563748 22.733,15.8603748 C28.448,13.4393748 32.491,16.6213748 33.965,18.1013748 C35.169,19.3083748 36.108,20.8513748 36.756,22.6883748 C36.881,23.0373748 37.186,23.2903748 37.552,23.3443748 C37.916,23.3983748 38.285,23.2463748 38.505,22.9493748 C39.411,21.7223748 40.882,21.1893748 42.252,21.5893748 C43.909,22.0743748 45.004,23.7633748 45.191,26.1193748 C45.124,26.6483748 45.485,27.1403748 46.014,27.2313748 C47.874,27.5503748 52.2,28.8593748 52.2,34.0963748 C52.2,40.3283748 46.161,40.9273748 45.988,40.9463748 L43.2,40.9463748 L43.2,42.9463748 L46.069,42.9433748 Z M28.884,38.9463748 L32.2,38.9463748 C32.497,38.9463748 32.778,39.0783748 32.967,39.3063748 C33.158,39.5333748 33.237,39.8343748 33.183,40.1253748 L31.931,47.0143748 L38.818,37.9463748 L36.2,37.9463748 C35.837,37.9463748 35.502,37.7493748 35.325,37.4313748 C35.149,37.1133748 35.159,36.7253748 35.352,36.4173748 L39.395,29.9463748 L33.794,29.9463748 L28.884,38.9463748 Z M30.2,51.9463748 C30.064,51.9463748 29.927,51.9193748 29.797,51.8613748 C29.374,51.6753748 29.133,51.2233748 29.216,50.7683748 L31.002,40.9463748 L27.2,40.9463748 C26.847,40.9463748 26.52,40.7603748 26.34,40.4573748 C26.16,40.1533748 26.153,39.7773748 26.322,39.4673748 L32.322,28.4673748 C32.497,28.1463748 32.834,27.9463748 33.2,27.9463748 L41.2,27.9463748 C41.563,27.9463748 41.898,28.1443748 42.075,28.4623748 C42.251,28.7793748 42.241,29.1683748 42.048,29.4763748 L38.005,35.9463748 L40.834,35.9463748 C41.214,35.9463748 41.56,36.1623748 41.729,36.5023748 C41.898,36.8423748 41.86,37.2493748 41.63,37.5513748 L30.996,51.5513748 C30.802,51.8063748 30.505,51.9463748 30.2,51.9463748 L30.2,51.9463748 Z" id="AWS-CloudEndure-Disaster-Recovery_Icon_48_Squid" fill="#FFFFFF"></path>
    </g>
</svg>