<?xml version="1.0" encoding="UTF-8"?>
<svg width="64px" height="64px" viewBox="0 0 64 64" version="1.1" xmlns="http://www.w3.org/2000/svg" xmlns:xlink="http://www.w3.org/1999/xlink">
    <!-- Generator: Sketch 64 (93537) - https://sketch.com -->
    <title>Icon-Architecture/48/Arch_AWS-Snowball-Edge_48</title>
    <desc>Created with Sketch.</desc>
    <defs>
        <linearGradient x1="0%" y1="100%" x2="100%" y2="0%" id="linearGradient-1">
            <stop stop-color="#1B660F" offset="0%"></stop>
            <stop stop-color="#6CAE3E" offset="100%"></stop>
        </linearGradient>
    </defs>
    <g id="Icon-Architecture/48/Arch_AWS-Snowball-Edge_48" stroke="none" stroke-width="1" fill="none" fill-rule="evenodd">
        <g id="Icon-Architecture-BG/48/Storage" fill="url(#linearGradient-1)">
            <rect id="Rectangle" x="0" y="0" width="64" height="64"></rect>
        </g>
        <path d="M29,17 L35,17 L35,15 L29,15 L29,17 Z M43,31 L43,25 L22,25 L22,34 L34,34 L34,36 L21,36 C20.447,36 20,35.553 20,35 L20,24 C20,23.448 20.447,23 21,23 L44,23 C44.553,23 45,23.448 45,24 L45,31 L43,31 Z M54,16.05 L54,33.786 L52,33.786 L52,16.05 C52,14.369 50.729,13 49.168,13 L14.832,13 C13.271,13 12,14.369 12,16.05 L12,40.951 C12,42.632 13.271,44 14.832,44 L31.979,44 L31.979,46 L14.832,46 C12.168,46 10,43.735 10,40.951 L10,16.05 C10,13.266 12.168,11 14.832,11 L49.168,11 C51.832,11 54,13.266 54,16.05 L54,16.05 Z M16.845,40 L32,40 L32,42 L16.845,42 C15.276,42 14,40.709 14,39.121 L14,17.88 C14,16.292 15.276,15 16.845,15 L25,15 C25.431,15 25.813,15.276 25.948,15.684 L26.721,18 L37.279,18 L38.052,15.684 C38.188,15.276 38.569,15 39,15 L47.155,15 C48.724,15 50,16.292 50,17.88 L50,31.91 L48,31.91 L48,17.88 C48,17.403 47.613,17 47.155,17 L39.721,17 L38.948,19.317 C38.813,19.725 38.431,20 38,20 L26,20 C25.569,20 25.188,19.725 25.052,19.317 L24.279,17 L16.845,17 C16.387,17 16,17.403 16,17.88 L16,39.121 C16,39.598 16.387,40 16.845,40 L16.845,40 Z M43.5,45.055 C42.092,45.055 40.946,43.909 40.946,42.5 C40.946,41.092 42.092,39.946 43.5,39.946 C44.908,39.946 46.054,41.092 46.054,42.5 C46.054,43.909 44.908,45.055 43.5,45.055 L43.5,45.055 Z M43.5,37.946 C40.989,37.946 38.946,39.989 38.946,42.5 C38.946,45.012 40.989,47.055 43.5,47.055 C46.011,47.055 48.054,45.012 48.054,42.5 C48.054,39.989 46.011,37.946 43.5,37.946 L43.5,37.946 Z M51.386,43.208 L50.969,43.184 C50.479,43.155 50.043,43.484 49.936,43.962 C49.771,44.692 49.484,45.384 49.084,46.019 C48.823,46.432 48.899,46.973 49.264,47.298 L49.575,47.577 L48.575,48.577 L48.3,48.268 C47.973,47.9 47.431,47.827 47.02,48.088 C46.385,48.489 45.692,48.776 44.962,48.94 C44.484,49.048 44.155,49.485 44.184,49.973 L44.207,50.386 L42.793,50.386 L42.816,49.972 C42.845,49.484 42.516,49.047 42.039,48.939 C41.309,48.775 40.616,48.488 39.981,48.086 C39.568,47.825 39.026,47.899 38.701,48.266 L38.424,48.576 L37.424,47.577 L37.734,47.3 C38.099,46.975 38.175,46.434 37.914,46.02 C37.514,45.385 37.228,44.693 37.063,43.962 C36.955,43.485 36.515,43.168 36.03,43.184 L35.614,43.208 L35.614,41.793 L36.034,41.817 C36.485,41.837 36.958,41.516 37.066,41.039 C37.23,40.312 37.518,39.622 37.919,38.986 C38.18,38.573 38.104,38.032 37.739,37.706 L37.424,37.425 L38.425,36.424 L38.705,36.739 C39.029,37.103 39.572,37.178 39.984,36.918 C40.618,36.519 41.309,36.233 42.038,36.069 C42.516,35.961 42.845,35.525 42.816,35.037 L42.793,34.615 L44.207,34.615 L44.184,35.038 C44.155,35.525 44.484,35.962 44.961,36.07 C45.689,36.234 46.38,36.52 47.015,36.92 C47.425,37.18 47.968,37.105 48.294,36.74 L48.576,36.425 L49.576,37.425 L49.263,37.705 C48.898,38.03 48.822,38.571 49.083,38.984 C49.482,39.618 49.77,40.309 49.935,41.04 C50.043,41.517 50.479,41.837 50.968,41.817 L51.386,41.793 L51.386,43.208 Z M52.328,39.736 L51.655,39.774 C51.528,39.393 51.374,39.021 51.194,38.662 L51.697,38.212 C51.902,38.029 52.023,37.77 52.031,37.495 C52.039,37.22 51.933,36.954 51.738,36.759 L49.241,34.262 C49.047,34.067 48.782,33.958 48.506,33.969 C48.23,33.977 47.971,34.098 47.788,34.303 L47.337,34.809 C46.977,34.629 46.606,34.476 46.226,34.349 L46.264,33.671 C46.279,33.397 46.182,33.128 45.992,32.928 C45.804,32.728 45.541,32.615 45.266,32.615 L41.734,32.615 C41.459,32.615 41.196,32.728 41.008,32.928 C40.818,33.128 40.721,33.397 40.736,33.671 L40.774,34.347 C40.394,34.474 40.021,34.628 39.662,34.808 L39.212,34.303 C39.028,34.098 38.77,33.977 38.494,33.969 C38.22,33.961 37.953,34.067 37.759,34.262 L35.262,36.759 C35.067,36.954 34.961,37.22 34.969,37.495 C34.977,37.77 35.098,38.029 35.303,38.212 L35.808,38.663 C35.627,39.022 35.473,39.394 35.346,39.774 L34.671,39.736 C34.401,39.72 34.127,39.819 33.928,40.007 C33.728,40.196 33.614,40.459 33.614,40.734 L33.614,44.267 C33.614,44.542 33.728,44.805 33.928,44.994 C34.128,45.182 34.388,45.283 34.672,45.265 L35.342,45.227 C35.469,45.609 35.623,45.981 35.804,46.342 L35.303,46.789 C35.098,46.972 34.977,47.232 34.969,47.507 C34.961,47.782 35.067,48.048 35.262,48.242 L37.759,50.739 C37.953,50.934 38.244,51.041 38.494,51.032 C38.77,51.024 39.029,50.903 39.212,50.698 L39.658,50.198 C40.02,50.378 40.392,50.533 40.774,50.661 L40.736,51.329 C40.721,51.603 40.818,51.873 41.008,52.072 C41.196,52.272 41.459,52.386 41.734,52.386 L45.266,52.386 C45.541,52.386 45.804,52.272 45.992,52.072 C46.182,51.873 46.279,51.603 46.264,51.329 L46.226,50.662 C46.608,50.534 46.981,50.38 47.343,50.199 L47.788,50.698 C47.971,50.903 48.23,51.024 48.506,51.032 C48.785,51.043 49.047,50.934 49.241,50.739 L51.738,48.242 C51.933,48.048 52.039,47.782 52.031,47.507 C52.023,47.232 51.902,46.972 51.697,46.789 L51.195,46.341 C51.375,45.98 51.529,45.608 51.657,45.227 L52.328,45.265 C52.621,45.282 52.872,45.182 53.072,44.994 C53.272,44.805 53.386,44.542 53.386,44.267 L53.386,40.734 C53.386,40.459 53.272,40.196 53.072,40.007 C52.872,39.819 52.622,39.721 52.328,39.736 L52.328,39.736 Z" id="Fill-3" fill="#FFFFFF"></path>
    </g>
</svg>