<?xml version="1.0" encoding="UTF-8"?>
<svg width="64px" height="64px" viewBox="0 0 64 64" version="1.1" xmlns="http://www.w3.org/2000/svg" xmlns:xlink="http://www.w3.org/1999/xlink">
    <!-- Generator: Sketch 64 (93537) - https://sketch.com -->
    <title>Icon-Architecture/48/Arch_Amazon-FSx-for-Lustre_48</title>
    <desc>Created with Sketch.</desc>
    <defs>
        <linearGradient x1="0%" y1="100%" x2="100%" y2="0%" id="linearGradient-1">
            <stop stop-color="#1B660F" offset="0%"></stop>
            <stop stop-color="#6CAE3E" offset="100%"></stop>
        </linearGradient>
    </defs>
    <g id="Icon-Architecture/48/Arch_Amazon-FSx-for-Lustre_48" stroke="none" stroke-width="1" fill="none" fill-rule="evenodd">
        <g id="Icon-Architecture-BG/48/Storage" fill="url(#linearGradient-1)">
            <rect id="Rectangle" x="0" y="0" width="64" height="64"></rect>
        </g>
        <path d="M51.5,32.68 L50.748,32.024 L46.066,36.705 C45.99,36.695 45.914,36.681 45.834,36.681 C44.878,36.681 44.1,37.459 44.1,38.416 C44.1,39.372 44.878,40.15 45.834,40.15 C46.79,40.15 47.568,39.372 47.568,38.416 C47.568,38.255 47.539,38.102 47.498,37.954 L51.5,32.68 Z M47.793,33.564 L48.562,31.718 C47.687,31.353 46.769,31.168 45.834,31.168 C41.701,31.168 38.209,34.823 38.209,39.15 L40.209,39.15 C40.209,35.963 42.838,33.168 45.834,33.168 C46.503,33.168 47.162,33.301 47.793,33.564 L47.793,33.564 Z M52.273,34.962 L50.563,35.998 C51.149,36.966 51.459,38.055 51.459,39.15 L53.459,39.15 C53.459,37.69 53.049,36.242 52.273,34.962 L52.273,34.962 Z M30.316,39.229 L32.035,39.229 L34.9,35.044 L34.127,33.951 L30.316,39.229 Z M40.664,27.105 L38.97,27.105 L35.729,31.732 L34.861,32.934 L37.327,36.467 C37.454,35.871 37.657,35.298 37.92,34.753 L36.562,32.823 L40.664,27.105 Z M35.009,30.706 L32.486,27.105 L30.698,27.105 L34.105,31.908 L35.009,30.706 Z M26.662,31.639 L24.379,30.764 C23.625,30.48 23.045,30.213 22.64,29.964 C22.234,29.715 21.943,29.438 21.766,29.132 C21.587,28.826 21.498,28.425 21.498,27.927 C21.498,27.045 21.79,26.366 22.373,25.888 C22.956,25.412 23.796,25.174 24.891,25.174 C26.015,25.174 27.303,25.43 28.753,25.942 L28.753,24.854 C28.142,24.584 27.49,24.374 26.801,24.224 C26.11,24.075 25.453,24 24.827,24 C23.447,24 22.334,24.367 21.488,25.099 C20.642,25.832 20.219,26.788 20.219,27.969 C20.219,28.837 20.475,29.566 20.986,30.156 C21.498,30.746 22.302,31.255 23.397,31.682 L25.873,32.642 C26.727,32.97 27.345,33.339 27.729,33.751 C28.113,34.164 28.305,34.662 28.305,35.245 C28.305,36.199 27.953,36.952 27.249,37.507 C26.545,38.062 25.603,38.339 24.422,38.339 C23.17,38.339 21.797,38.069 20.304,37.528 L20.304,38.617 C21.541,39.214 22.949,39.513 24.528,39.513 C26.051,39.513 27.277,39.121 28.209,38.339 C29.141,37.557 29.606,36.533 29.606,35.266 C29.606,34.399 29.372,33.677 28.902,33.101 C28.434,32.525 27.687,32.037 26.662,31.639 L26.662,31.639 Z M11,24.363 L19.3,24.363 L19.3,25.494 L12.259,25.494 L12.259,31.148 L18.212,31.148 L18.212,32.279 L12.259,32.279 L12.259,39.15 L11,39.15 L11,24.363 Z" id="Amazon-FSx-for-Lustre-Icon_48_Squid" fill="#FFFFFF"></path>
    </g>
</svg>