<svg xmlns="http://www.w3.org/2000/svg" width="18" height="18" viewBox="0 0 18 18"><defs><radialGradient id="e9a2b8bf-efad-4e15-89f0-635373400131" cx="9" cy="9" r="8.5" gradientUnits="userSpaceOnUse"><stop offset="0" stop-color="#198ab3" /><stop offset="0.382" stop-color="#1a8cb5" /><stop offset="0.576" stop-color="#1c94bc" /><stop offset="0.727" stop-color="#21a1c8" /><stop offset="0.856" stop-color="#27b4d8" /><stop offset="0.97" stop-color="#2fccee" /><stop offset="1" stop-color="#32d4f5" /></radialGradient></defs><g id="faeec9e4-44b9-413a-8332-867d334dcda2"><g><circle cx="9" cy="9" r="8.5" fill="url(#e9a2b8bf-efad-4e15-89f0-635373400131)" /><circle cx="9" cy="9" r="7.321" fill="#005ba1" /></g><g><path d="M9.1,9.937,6.266,7.125a.507.507,0,0,0-.709,0L5.2,7.48a.469.469,0,0,0-.143.337.476.476,0,0,0,.141.339l2.132,2.122L5.152,12.441a.473.473,0,0,0,0,.676l.361.355a.507.507,0,0,0,.709,0L9.1,10.612a.475.475,0,0,0,.141-.338A.468.468,0,0,0,9.1,9.937Z" fill="#f2f2f2" /><path d="M8.755,7.678a.475.475,0,0,0,.141.338l2.88,2.859a.507.507,0,0,0,.709,0l.361-.356a.469.469,0,0,0,.143-.337.475.475,0,0,0-.141-.338L10.674,7.682l2.132-2.123a.475.475,0,0,0,.141-.338.469.469,0,0,0-.143-.337l-.361-.356a.507.507,0,0,0-.709,0L8.9,7.34A.472.472,0,0,0,8.755,7.678Z" fill="#f2f2f2" /></g></g></svg>