<svg xmlns="http://www.w3.org/2000/svg" width="18" height="18" viewBox="0 0 18 18"><defs><linearGradient id="eafc57a1-d419-432d-b0ed-435130422d7a" x1="9" y1="13.704" x2="9" y2="1.277" gradientUnits="userSpaceOnUse"><stop offset="0" stop-color="#0078d4" /><stop offset="0.817" stop-color="#5ea0ef" /></linearGradient><linearGradient id="a5a126a8-9900-4198-8d5d-2409233cbc74" x1="8.999" y1="16.723" x2="8.999" y2="4.174" gradientUnits="userSpaceOnUse"><stop offset="0" stop-color="#32bedd" /><stop offset="0.113" stop-color="#3ccce9" /><stop offset="0.292" stop-color="#47dbf5" /><stop offset="0.504" stop-color="#4ee3fd" /><stop offset="0.834" stop-color="#50e6ff" /></linearGradient></defs><g id="ae919516-4173-4e1b-b256-974218cbe15b"><g><path d="M17.767,9.812a3.941,3.941,0,0,0-3.419-3.787A4.965,4.965,0,0,0,9.234,1.277,5.094,5.094,0,0,0,4.366,4.6,4.7,4.7,0,0,0,.233,9.12,4.771,4.771,0,0,0,5.17,13.7c.147,0,.292-.007.435-.018H13.6a.822.822,0,0,0,.211-.032A3.987,3.987,0,0,0,17.767,9.812Z" fill="url(#eafc57a1-d419-432d-b0ed-435130422d7a)" /><path id="edcc7516-234e-4bfe-ace6-d3c29e9e8ef2" d="M12.5,9.127a1.446,1.446,0,0,0,0-2.041h0L10.017,4.6a1.437,1.437,0,0,0-2.036,0h0L5.5,7.086a1.446,1.446,0,0,0,0,2.041L7.565,11.2a.4.4,0,0,1,.118.286v3.85a.492.492,0,0,0,.144.348l.941.944a.325.325,0,0,0,.461,0l.913-.915V15.7l.538-.538a.188.188,0,0,0,0-.266l-.387-.389a.205.205,0,0,1,0-.29l.387-.389a.187.187,0,0,0,0-.266l-.387-.389a.205.205,0,0,1,0-.29l.388-.389a.189.189,0,0,0,0-.266l-.539-.541v-.2ZM9,5.2a.82.82,0,1,1-.817.819A.817.817,0,0,1,9,5.2Z" fill="url(#a5a126a8-9900-4198-8d5d-2409233cbc74)" /><path id="ba4c21bb-4a83-40a1-8204-81b9b545866c" d="M8.353,15.418h0a.176.176,0,0,0,.3-.134V12.168a.186.186,0,0,0-.081-.154h0a.176.176,0,0,0-.272.154v3.116A.186.186,0,0,0,8.353,15.418Z" fill="#0078d4" opacity="0.75" /><path id="b1b257e5-26b0-4209-80fd-7809752c5ce2" d="M7.23,7.916h3.642a.22.22,0,0,1,.22.22v.042a.22.22,0,0,1-.22.22H7.23a.22.22,0,0,1-.22-.22V8.137a.221.221,0,0,1,.221-.221Z" fill="#0078d4" opacity="0.75" /><path id="e30c1f38-cc79-4ca3-a4d8-0bde3ab49628" d="M7.23,8.7h3.642a.22.22,0,0,1,.22.22v.041a.221.221,0,0,1-.221.221H7.23a.22.22,0,0,1-.22-.22V8.921A.221.221,0,0,1,7.23,8.7Z" fill="#0078d4" opacity="0.75" /></g></g></svg>