<svg xmlns="http://www.w3.org/2000/svg" width="18" height="18" viewBox="0 0 18 18"><defs><linearGradient id="bd6e50c9-d5a4-4e74-abad-3b4ae921495e" x1="8.693" y1="12.726" x2="8.693" y2="0.705" gradientUnits="userSpaceOnUse"><stop offset="0" stop-color="#0078d4" /><stop offset="0.105" stop-color="#1480da" /><stop offset="0.306" stop-color="#348ee3" /><stop offset="0.5" stop-color="#4b98ea" /><stop offset="0.682" stop-color="#599eee" /><stop offset="0.84" stop-color="#5ea0ef" /></linearGradient></defs><title>Icon-469-Internet-Analyzer</title><g id="b4e13e5d-9325-4dd7-a191-90f94b60adf1" /><g><rect width="18" height="18" fill="none" /><rect width="18" height="18" fill="none" /><g><path d="M17.173,8.961A3.811,3.811,0,0,0,13.866,5.3,4.8,4.8,0,0,0,8.919.705,4.926,4.926,0,0,0,4.211,3.916a4.547,4.547,0,0,0-4,4.375,4.615,4.615,0,0,0,4.776,4.435c.141,0,.281-.007.42-.018h7.734a.769.769,0,0,0,.2-.031A3.855,3.855,0,0,0,17.173,8.961Z" fill="url(#bd6e50c9-d5a4-4e74-abad-3b4ae921495e)" /><circle cx="9.101" cy="6.379" r="1.318" fill="#fff" /><ellipse cx="12.693" cy="7.698" rx="1.057" ry="1.062" fill="#fff" /><circle cx="10.419" cy="3.615" r="0.738" fill="#fff" /><g><path d="M17.442,17.3h-8.7c-.277,0-.44-.443-.283-.671l3-4.369a.351.351,0,0,0,.061-.2V9.172A.173.173,0,0,0,11.346,9h-.161a.344.344,0,0,1-.344-.344V8.5a.344.344,0,0,1,.344-.344H15a.344.344,0,0,1,.344.344v.155A.344.344,0,0,1,15,9h-.161a.172.172,0,0,0-.172.172v2.895a.339.339,0,0,0,.061.2l3,4.362C17.883,16.852,17.719,17.3,17.442,17.3Z" fill="#50e6ff" /><path d="M9.746,16.128l2.277-3.32a.827.827,0,0,0,.146-.471V11a.265.265,0,0,1,.265-.265h1.292a.265.265,0,0,1,.265.265v1.428a.553.553,0,0,0,.1.317l2.325,3.383a.2.2,0,0,1-.163.311H9.909A.2.2,0,0,1,9.746,16.128Z" fill="#fff" /><path d="M11.949,15.034l.463,1.072a.066.066,0,0,0,.124-.005l.484-1.435a.066.066,0,0,1,.122-.01l.394.751a.067.067,0,0,0,.116,0l.526-.889a.066.066,0,0,1,.058-.033h1.057l-.215-.311a.066.066,0,0,0-.055-.029h-.981a.067.067,0,0,0-.058.032l-.314.532a.066.066,0,0,1-.116,0l-.481-.915a.066.066,0,0,0-.122.01L12.5,15.152a.066.066,0,0,1-.124.005l-.387-.9a.066.066,0,0,0-.119,0l-.549,1a.067.067,0,0,1-.059.034h-.9a.068.068,0,0,0-.055.029l-.214.311H11.46a.067.067,0,0,0,.059-.034l.311-.565A.066.066,0,0,1,11.949,15.034Z" fill="#86d633" /></g></g></g></svg>