<svg xmlns="http://www.w3.org/2000/svg" width="18" height="18" viewBox="0 0 18 18"><defs><linearGradient id="aa436aef-5326-4d7d-ad29-02c369cb3782" x1="13.119" y1="5.643" x2="11.489" y2="16.919" gradientUnits="userSpaceOnUse"><stop offset="0" stop-color="#a67af4" /><stop offset="1" stop-color="#773adc" /></linearGradient></defs><rect x="3.201" y="3.372" width="1.335" height="6.415" transform="translate(3.808 -1.053) rotate(30)" fill="#773adc" /><rect x="7.573" y="3.478" width="1.335" height="6.415" transform="translate(-2.239 5.016) rotate(-30)" fill="#773adc" /><rect x="5.338" y="7.261" width="1.335" height="6.415" transform="translate(16.473 4.462) rotate(90)" fill="#773adc" /><circle cx="6.124" cy="2.649" r="1.626" fill="#86d633" /><circle cx="1.626" cy="10.564" r="1.626" fill="#86d633" /><circle cx="12.284" cy="11.348" r="5.325" fill="#fff" /><path d="M9.853,12.725a.3.3,0,0,1-.212-.512l1.128-1.127a.3.3,0,1,1,.424.423l-1.128,1.128A.3.3,0,0,1,9.853,12.725Z" fill="#773adc" /><path d="M10.686,13.558a.3.3,0,0,1-.212-.512L11.6,11.919a.3.3,0,1,1,.424.424L10.9,13.471A.3.3,0,0,1,10.686,13.558Z" fill="#773adc" /><path d="M11.511,14.383a.3.3,0,0,1-.212-.511l1.127-1.128a.3.3,0,1,1,.425.424L11.724,14.3A.3.3,0,0,1,11.511,14.383Z" fill="#773adc" /><path d="M11.924,10.654a.3.3,0,0,1-.212-.511L12.84,9.015a.3.3,0,0,1,.424.424l-1.128,1.127A.3.3,0,0,1,11.924,10.654Z" fill="#773adc" /><path d="M12.757,11.487a.3.3,0,0,1-.212-.511l1.127-1.128a.3.3,0,1,1,.425.424L12.97,11.4A.3.3,0,0,1,12.757,11.487Z" fill="#773adc" /><path d="M13.582,12.312a.3.3,0,0,1-.212-.512L14.5,10.672a.3.3,0,0,1,.424.425l-1.128,1.128A.3.3,0,0,1,13.582,12.312Z" fill="#773adc" /><path d="M9.62,12.022a.3.3,0,0,0-.425,0L7.27,13.947a5.717,5.717,0,0,0,2.947,2.634l1.769-1.768a.3.3,0,0,0,0-.426Z" fill="#a67af4" /><path d="M14.973,6.249,12.78,8.442a.3.3,0,0,0,0,.425l2.366,2.366a.3.3,0,0,0,.425,0L17.606,9.2A5.713,5.713,0,0,0,14.973,6.249Z" fill="#b796f9" /><path d="M12.3,6.335a4.946,4.946,0,1,1-4.946,4.946A4.952,4.952,0,0,1,12.3,6.335m0-.75a5.7,5.7,0,1,0,5.7,5.7,5.7,5.7,0,0,0-5.7-5.7Z" fill="url(#aa436aef-5326-4d7d-ad29-02c369cb3782)" />​
</svg>