<svg xmlns="http://www.w3.org/2000/svg" width="18" height="18" viewBox="0 0 18 18"><g id="e3fe82a8-d9fb-426b-99a6-6540dd1ff286"><g><polygon points="16.41 4.004 16.41 11.971 9.525 15.974 9.525 7.995 16.41 4.004" fill="#32bedd" /><polygon points="16.41 4.004 9.526 8.006 2.64 4.003 9.526 0 16.41 4.004" fill="#9cebff" /><polygon points="9.525 8.006 9.525 15.974 2.64 11.971 2.64 4.003 9.525 8.006" fill="#50e6ff" /><polygon points="2.64 11.971 9.525 7.995 9.525 15.974 2.64 11.971" fill="#9cebff" /><polygon points="16.41 11.971 9.525 7.995 9.525 15.974 16.41 11.971" fill="#50e6ff" /></g><path d="M13.087,14.679,9.753,17.952a.168.168,0,0,1-.286-.122l.017-1.82V15.9c-3.975-.037-7.931-2.2-7.895-6.023.56.857,3.378,3.152,7.921,3.2v-.033l.017-1.819a.168.168,0,0,1,.288-.117l3.272,3.335A.167.167,0,0,1,13.087,14.679Z" fill="#773adc" /></g>​
</svg>