<svg id="b0b75603-46b6-4f8f-91b1-0770f4d80bc9" xmlns="http://www.w3.org/2000/svg" width="18" height="18" viewBox="0 0 18 18"><defs><linearGradient id="bf1351b6-2f7f-4ceb-8808-067f2a41a599" x1="11.176" y1="7.698" x2="11.176" y2="16.95" gradientTransform="matrix(1, 0, 0, -1, 0, 18)" gradientUnits="userSpaceOnUse"><stop offset="0" stop-color="#0078d4" /><stop offset="0.149" stop-color="#1882db" /><stop offset="0.373" stop-color="#378fe4" /><stop offset="0.594" stop-color="#4c99ea" /><stop offset="0.806" stop-color="#5a9eee" /><stop offset="1" stop-color="#5ea0ef" /></linearGradient></defs><path d="M17.7,7.405a2.93,2.93,0,0,0-2.544-2.818A3.7,3.7,0,0,0,11.35,1.052,3.793,3.793,0,0,0,7.727,3.523,3.5,3.5,0,0,0,4.651,6.89,3.551,3.551,0,0,0,8.326,10.3a2.494,2.494,0,0,0,.324-.014H14.6a.6.6,0,0,0,.157-.024A2.966,2.966,0,0,0,17.7,7.405Z" fill="url(#bf1351b6-2f7f-4ceb-8808-067f2a41a599)" /><g><path d="M10.777,9.965l.019.431.428.057a2.54,2.54,0,0,1,2.2,2.43,2.579,2.579,0,0,1-2.546,2.5h-.044l-.032.006-.035-.007h-6.6a3.232,3.232,0,0,1-1.238-.168,3.375,3.375,0,0,1-1.106-.643,3.324,3.324,0,0,1-.741-1.035,3.039,3.039,0,0,1,.559-3.21A3.147,3.147,0,0,1,3.6,9.36l.313-.037.109-.295a3.487,3.487,0,0,1,1.29-1.662,3.434,3.434,0,0,1,2-.6h.025a3.338,3.338,0,0,1,3.439,3.2Z" fill="#fff" /><path d="M10.791,15.9l-.085-.019-6.539,0a3.738,3.738,0,0,1-1.4-.194,3.865,3.865,0,0,1-1.274-.741,3.815,3.815,0,0,1-.867-1.2,3.56,3.56,0,0,1,.644-3.755A3.65,3.65,0,0,1,3.549,8.863l0-.008a3.959,3.959,0,0,1,1.475-1.9,3.793,3.793,0,0,1,2.293-.689,3.852,3.852,0,0,1,3.954,3.677l.014.014a3.033,3.033,0,0,1,2.635,2.909,3.078,3.078,0,0,1-3.04,3.017ZM7.3,7.266A2.939,2.939,0,0,0,4.491,9.2l-.215.583-.617.072A2.654,2.654,0,0,0,2,10.67a2.546,2.546,0,0,0-.46,2.675,2.8,2.8,0,0,0,.623.863,2.8,2.8,0,0,0,.927.533,2.723,2.723,0,0,0,1.043.142h6.677l.01,0h.01a2.083,2.083,0,0,0,2.09-2.016,2.028,2.028,0,0,0-1.767-1.919l-.843-.111-.037-.852A2.842,2.842,0,0,0,7.353,7.266Z" fill="#50e6ff" /></g><path d="M5.1,12.5v-.3l-.307-.1-.078-.21.15-.313v-.036l-.1-.1-.114-.121H4.612l-.3.151-.21-.054-.127-.337h-.3l-.1.307-.21.078L3.016,11.3l-.216.217v.036l.15.3-.084.21L2.5,12.19v.3h.042l.319.108.09.205-.168.349L3,13.369h.036l.3-.156.21.084.133.367h.3v-.042l.109-.325.2-.084.355.162.21-.21v-.042l-.132-.289.06-.211Zm-1.269.277a.427.427,0,1,1,.155-.822.435.435,0,0,1,.193.157.427.427,0,0,1,.072.238.422.422,0,0,1-.4.427Z" fill="#0078d4" /><path d="M3.816,15.905a3.537,3.537,0,1,1,3.558-3.537H6.3a2.462,2.462,0,1,0-2.464,2.46H4.62a.056.056,0,0,0,.056-.016.063.063,0,0,0,.016-.026.076.076,0,0,0,0-.03v-.872a.087.087,0,0,1,.052-.067.1.1,0,0,1,.083.018l1.5,1.5a.082.082,0,0,1,0,.049.079.079,0,0,1-.027.042l-1.5,1.5a.083.083,0,0,1-.042.018.075.075,0,0,1-.044-.007.082.082,0,0,1-.035-.029.074.074,0,0,1-.014-.043v-.886a.075.075,0,0,0-.022-.053.073.073,0,0,0-.054-.022H3.816Z" fill="#0078d4" fill-rule="evenodd" /></svg>