<svg xmlns="http://www.w3.org/2000/svg" width="24px" height="24px" viewBox="0 0 24 24"><defs><style>.cls-1{fill:#669df6;}.cls-1,.cls-2,.cls-3{fill-rule:evenodd;}.cls-2{fill:#4285f4;}.cls-3{fill:#aecbfa;}</style></defs><title>Icon_24px_ToolsforPowershell_Color</title><g data-name="Product Icons"><g ><polygon class="cls-1" points="6.68 16.3 4.27 12.04 6.68 7.79 4.42 7.79 2 12.04 4.42 16.3 6.68 16.3"/><polygon class="cls-2" points="4.57 12.56 4.27 12.04 2 12.04 3.11 14.01 4.57 12.56"/><path class="cls-3" d="M15,6.37H9.12L5.81,12l3.31,5.59H15L18.29,12,15,6.37Zm-2.93,8.36a2.64,2.64,0,1,1,2.66-2.64,2.65,2.65,0,0,1-2.66,2.64Z"/><polygon class="cls-3" points="4.27 12.06 6.68 7.79 4.42 7.79 2 12.06 3.11 14.03 4.27 12.06"/><path class="cls-1" d="M15,6.45h0L13.3,9.78a2.66,2.66,0,0,1-1.25,5,2.62,2.62,0,0,1-1.18-.27L9.12,17.63H15L18.29,12,15,6.45Z"/><polygon class="cls-1" points="17.32 7.79 19.73 12.04 17.32 16.3 19.59 16.3 22 12.04 19.59 7.79 17.32 7.79"/><polygon class="cls-2" points="19.43 11.53 19.73 12.04 22 12.04 20.89 10.07 19.43 11.53"/><polygon class="cls-3" points="19.73 12.02 17.32 16.3 19.59 16.3 22 12.02 20.89 10.05 19.73 12.02"/></g></g></svg>