<svg id="Artwork" xmlns="http://www.w3.org/2000/svg" width="24px" height="24px" viewBox="0 0 24 24"><path d="M14.28,15.33l1.93,1.93L12,20.65,1.2,12H8a4,4,0,0,0,4,4h0A4.09,4.09,0,0,0,14.28,15.33ZM16,12a4,4,0,0,1-.64,2.18l2.08,2.1L22.81,12Z" style="fill:#669df6;fill-rule:evenodd"/><path d="M12,3.36,1.2,12H8a4,4,0,0,1,4-4h0a4,4,0,0,1,4,4h6.79Z" style="fill:#aecbfa;fill-rule:evenodd"/><path d="M12,9.57a2.37,2.37,0,0,1,1.71.71,2.4,2.4,0,0,1,0,3.43,2.41,2.41,0,0,1-3.42,0,2.4,2.4,0,0,1,0-3.43A2.37,2.37,0,0,1,12,9.57Z" style="fill:#4285f4;fill-rule:evenodd"/></svg>