<svg xmlns="http://www.w3.org/2000/svg" width="18" height="18" viewBox="0 0 18 18"><defs><linearGradient id="a5d53553-f668-4fa0-ac9f-76a8e299111d" x1="9" y1="17.253" x2="9" y2="0.747" gradientUnits="userSpaceOnUse"><stop offset="0" stop-color="#50e6ff" /><stop offset="1" stop-color="#9cebff" /></linearGradient></defs><g id="f76fd8a1-aad0-4269-a185-99003396b0d2"><path d="M16.364,8.4c0,4.84-5.849,8.736-7.122,9.526a.459.459,0,0,1-.484,0c-1.273-.79-7.122-4.686-7.122-9.526V2.582a.463.463,0,0,1,.452-.462C6.638,2,5.59,0,9,0s2.362,2,6.912,2.12a.463.463,0,0,1,.452.462Z" fill="#50e6ff" /><path d="M15.754,8.454c0,4.438-5.365,8.011-6.532,8.736a.418.418,0,0,1-.444,0c-1.167-.725-6.532-4.3-6.532-8.736V3.114a.425.425,0,0,1,.415-.423C6.834,2.578,5.873.747,9,.747s2.166,1.831,6.339,1.944a.425.425,0,0,1,.415.423Z" fill="url(#a5d53553-f668-4fa0-ac9f-76a8e299111d)" /><g><circle id="bd9e26ef-9621-4ac2-9050-88bfa7e8e115" cx="9.854" cy="8.037" r="1.281" fill="#fff" /><circle id="f0b53d39-cbb6-45e7-9453-4ec356f6d390" cx="8.014" cy="11.159" r="0.865" fill="#fff" /><circle id="b1fa952f-d6ee-4a6e-9fb6-6eed89da1783" cx="7.39" cy="4.571" r="1.073" fill="#fff" /><polygon points="12.234 11.646 10.069 7.855 9.854 7.979 10.03 7.849 7.578 4.363 7.13 4.689 9.302 7.777 4.489 8.174 4.535 8.733 9.302 8.337 7.721 10.964 8.196 11.25 9.822 8.545 11.753 11.92 12.234 11.646" fill="#e6e6e6" /><path d="M9.854,6.769a1.3,1.3,0,1,1-1.3,1.3V8.037A1.3,1.3,0,0,1,9.854,6.769Zm-3.511-2.2A1.08,1.08,0,1,0,7.428,3.5H7.4A1.071,1.071,0,0,0,6.343,4.571ZM3.651,8.519a.865.865,0,1,0,.864-.865.865.865,0,0,0-.864.865Zm3.5,2.633a.872.872,0,1,0,.878-.865H8.02a.866.866,0,0,0-.871.859Zm3.85.7a1.008,1.008,0,1,0,1.014-1h-.006A.994.994,0,0,0,11,11.828Z" fill="#fff" /></g></g>​
</svg>