<svg xmlns="http://www.w3.org/2000/svg" width="24px" height="24px" viewBox="0 0 24 24"><defs><style>.cls-1{fill:#669df6;}.cls-2{fill:#4285f4;}.cls-3{fill:#aecbfa;}</style></defs><title>Icon_24px_Profiler_Color</title><g data-name="Product Icons"><g data-name="colored-32/profiler"><g ><rect class="cls-1" x="8" y="2" width="8" height="2"/><path class="cls-1" d="M16.54,7.43l-.13.13L18,9.16,18.12,9A8,8,0,0,0,16.54,7.43Z"/><polygon class="cls-1" points="20.61 6.55 19.01 4.95 16.6 7.36 19.11 8.05 20.61 6.55"/><path class="cls-2" d="M16.6,7.36l-.06.07A8,8,0,0,1,18.12,9l1-1Z"/><circle id="Oval" class="cls-1" cx="12" cy="14" r="4"/><path id="Oval-2" data-name="Oval" class="cls-3" d="M12,18a4,4,0,1,0,0-8v4L8.73,16.32A4,4,0,0,0,12,18Z"/><path class="cls-1" d="M12,22a8,8,0,1,1,8-8A8,8,0,0,1,12,22Zm0-2a6,6,0,1,0-6-6A6,6,0,0,0,12,20Z"/></g></g></g></svg>