<svg xmlns="http://www.w3.org/2000/svg" width="24px" height="24px" viewBox="0 0 24 24"><defs><style>.cls-1{fill:none;}.cls-2{fill:#669df6;}.cls-3{fill:#4285f4;}</style></defs><title>Icon_24px_NetworkSecurity_Color</title><g data-name="Product Icons"><path class="cls-1" d="M11.5,13v1.79L8.86,12.12,8.91,12H12V11H8.91A1.5,1.5,0,1,0,7.5,13a1.46,1.46,0,0,0,.66-.16l2.89,2.91A.94.94,0,0,0,12,17V13Z"/><path class="cls-1" d="M11,7a1,1,0,0,0,.5.85V10H12V6A1,1,0,0,0,11,7Z"/><path class="cls-2" d="M12,17a.94.94,0,0,1-.95-1.25L8.16,12.84A1.46,1.46,0,0,1,7.5,13a1.5,1.5,0,1,1,1.41-2H12V10h-.5V7.85A1,1,0,0,1,12,6V2L4,5v6.05c0,5.06,3.41,9.8,8,11h0Z"/><path class="cls-2" d="M8.86,12.12l2.64,2.67V13H12V12H8.91Z"/><path class="cls-2" d="M15.15,10.86,12.5,8.21V10H12v1h3.09Z"/><path class="cls-3" d="M13,7a.93.93,0,0,1-.05.24l2.91,2.91A1.5,1.5,0,1,1,15.09,12H12v1h.5v2.15A1,1,0,0,1,12,17v5c4.59-1.15,8-5.89,8-10.95V5L12,2V6A1,1,0,0,1,13,7Z"/></g></svg>