<svg id="b388e944-5509-49c9-84d7-f38bffa995b2" xmlns="http://www.w3.org/2000/svg" width="18" height="18" viewBox="0 0 18 18"><defs><linearGradient id="a997e203-1d7d-4cb9-b131-5dc44e029b46" x1="5.23" y1="17.45" x2="5.23" y2="8.09" gradientUnits="userSpaceOnUse"><stop offset="0" stop-color="#1988d9" /><stop offset="0.9" stop-color="#54aef0" /></linearGradient><linearGradient id="e122e9d8-aee5-4f1a-a60e-b1eae355daa5" x1="11.5" y1="12.45" x2="11.5" y2="0.55" gradientUnits="userSpaceOnUse"><stop offset="0" stop-color="#198ab3" /><stop offset="0.01" stop-color="#198bb4" /><stop offset="0.44" stop-color="#27b2d7" /><stop offset="0.79" stop-color="#2fcbed" /><stop offset="1" stop-color="#32d4f5" /></linearGradient></defs><title>Icon-manage-307</title><path d="M5.59,13.13H9.91v4.32H5.59ZM1.15,17.45H4.87V13.13H.55v3.72A.6.6,0,0,0,1.15,17.45Zm-.6-5H4.87V8.09H.55Z" fill="url(#a997e203-1d7d-4cb9-b131-5dc44e029b46)" /><path d="M11.5.55a5.89,5.89,0,0,1,5.95,6,5.89,5.89,0,0,1-5.95,5.95H5.55V6.5A5.89,5.89,0,0,1,11.5.55Z" fill-rule="evenodd" fill="url(#e122e9d8-aee5-4f1a-a60e-b1eae355daa5)" /><rect x="7.59" y="5.65" width="1.36" height="4.08" fill="#fff" /><rect x="10.31" y="7.01" width="1.36" height="2.72" fill="#fff" /><rect x="13.03" y="4.29" width="1.36" height="5.44" fill="#fff" /></svg>