<svg id="a40478a6-e066-4f71-855a-ccee2b8d8292" xmlns="http://www.w3.org/2000/svg" width="18" height="18" viewBox="0 0 18 18"><defs><linearGradient id="f772da2f-25c0-485f-b825-95254810574a" x1="3.44" y1="14.22" x2="3.44" y2="10.54" gradientUnits="userSpaceOnUse"><stop offset="0.09" stop-color="#32bedd" /><stop offset="1" stop-color="#50e6ff" /></linearGradient><linearGradient id="e209b8d8-d6ba-4c1a-b87f-a54077b834d3" x1="14.51" y1="14.22" x2="14.51" y2="10.54" gradientUnits="userSpaceOnUse"><stop offset="0.09" stop-color="#32bedd" /><stop offset="1" stop-color="#50e6ff" /></linearGradient><linearGradient id="b6f64a2b-eee9-4c63-9dbc-7bc71d82c212" x1="8.98" y1="4.4" x2="8.98" y2="0.71" gradientUnits="userSpaceOnUse"><stop offset="0.09" stop-color="#32bedd" /><stop offset="1" stop-color="#50e6ff" /></linearGradient></defs><title>Icon-analytics-142</title><path d="M7.32,11.84h3.31a.28.28,0,0,0,.27-.22,3.7,3.7,0,0,1,1.34-2.15.27.27,0,0,0,.07-.36l-1.72-3A.27.27,0,0,0,10.25,6,3.87,3.87,0,0,1,9,6.23,3.56,3.56,0,0,1,7.71,6a.28.28,0,0,0-.34.13l-1.72,3a.28.28,0,0,0,.07.36,3.7,3.7,0,0,1,1.33,2.14A.27.27,0,0,0,7.32,11.84Zm-2-9.29h-2a.27.27,0,0,0-.24.14L.54,7.06a.28.28,0,0,0,0,.28l.93,1.6a.29.29,0,0,0,.37.12,3.62,3.62,0,0,1,1.6-.37,2.69,2.69,0,0,1,.4,0,.31.31,0,0,0,.28-.14L4.91,7.2,6.1,5.14a.27.27,0,0,0,0-.31A3.65,3.65,0,0,1,5.28,2.55Zm9.62.14a.27.27,0,0,0-.24-.14h-2a3.67,3.67,0,0,1-.78,2.27.27.27,0,0,0,0,.31l1.2,2.07.79,1.37a.28.28,0,0,0,.28.14l.38,0a3.77,3.77,0,0,1,1.61.37A.27.27,0,0,0,16.49,9l.93-1.61a.28.28,0,0,0,0-.28ZM10.77,13.44H7.18a.28.28,0,0,0-.27.18,3.64,3.64,0,0,1-1.39,1.79.29.29,0,0,0-.09.38l.79,1.36a.29.29,0,0,0,.24.14h5.05a.29.29,0,0,0,.24-.14l.78-1.35a.28.28,0,0,0-.09-.38,3.68,3.68,0,0,1-1.4-1.8A.28.28,0,0,0,10.77,13.44Z" fill="#0078d4" /><circle cx="3.44" cy="12.38" r="1.85" fill="url(#f772da2f-25c0-485f-b825-95254810574a)" /><circle cx="14.51" cy="12.38" r="1.85" fill="url(#e209b8d8-d6ba-4c1a-b87f-a54077b834d3)" /><circle cx="8.98" cy="2.55" r="1.85" fill="url(#b6f64a2b-eee9-4c63-9dbc-7bc71d82c212)" /><path d="M14.51,6.42a5.93,5.93,0,0,0-1.75.26l.3.52.79,1.37a.28.28,0,0,0,.28.14l.38,0a3.77,3.77,0,0,1,1.61.37A.27.27,0,0,0,16.49,9l.79-1.36.21-.37A5.88,5.88,0,0,0,14.51,6.42Zm-3.61,5.2a3.7,3.7,0,0,1,1.34-2.15.27.27,0,0,0,.07-.36l-1-1.76a6,6,0,0,0-2.73,4.49h2.06A.28.28,0,0,0,10.9,11.62Zm.14,2a.28.28,0,0,0-.27-.18H8.64a6,6,0,0,0,2.5,3.85h.37a.29.29,0,0,0,.24-.14l.78-1.35a.28.28,0,0,0-.09-.38A3.68,3.68,0,0,1,11,13.62Z" fill="#5ea0ef" /></svg>