<svg id="a6df9393-2bd7-4ac4-ba06-ab5f16ff5923" xmlns="http://www.w3.org/2000/svg" width="18" height="18" viewBox="0 0 18 18"><defs><linearGradient id="fd591b35-0e01-4610-a025-8e017443b6ca" x1="3.96" y1="2.52" x2="3.96" y2="7.82" gradientUnits="userSpaceOnUse"><stop offset="0" stop-color="#32d4f5" /><stop offset="1" stop-color="#198ab3" /></linearGradient><linearGradient id="bded69e0-afb1-4c25-aa81-a799bd12553b" x1="14.04" y1="5.58" x2="14.04" y2="10.89" gradientUnits="userSpaceOnUse"><stop offset="0" stop-color="#32d4f5" /><stop offset="1" stop-color="#198ab3" /></linearGradient><linearGradient id="f25b6c72-365d-4ac2-a15c-1cace994f1e6" x1="5.29" y1="10.18" x2="5.29" y2="15.48" gradientUnits="userSpaceOnUse"><stop offset="0" stop-color="#32d4f5" /><stop offset="1" stop-color="#198ab3" /></linearGradient></defs><title>Icon-analytics-148</title><rect x="0.5" y="2.52" width="6.92" height="5.31" rx="0.28" fill="url(#fd591b35-0e01-4610-a025-8e017443b6ca)" /><rect x="10.58" y="5.58" width="6.92" height="5.31" rx="0.28" fill="url(#bded69e0-afb1-4c25-aa81-a799bd12553b)" /><rect x="1.82" y="10.18" width="6.92" height="5.31" rx="0.42" fill="url(#f25b6c72-365d-4ac2-a15c-1cace994f1e6)" /><path d="M13.15,8.92l.23-.64L4.82,5.13l-.23.63Zm.53-.09-.32-.6L5.29,12.48l.31.6ZM5,13.37l.67-.12L4.31,5.54l-.67.12Z" fill="#773adc" /><circle cx="14.04" cy="8.23" r="1.08" transform="translate(-2.23 8.81) rotate(-32.41)" fill="#fff" /><circle cx="3.96" cy="5.17" r="1.08" transform="translate(-2.15 2.93) rotate(-32.41)" fill="#fff" /><circle cx="5.29" cy="12.83" r="1.08" transform="translate(-6.05 4.83) rotate(-32.41)" fill="#fff" /></svg>