<svg xmlns="http://www.w3.org/2000/svg" width="18" height="18" viewBox="0 0 18 18"><title>Icon-analytics-149</title><g><g id="b4faf691-c548-4dca-a19b-147ca62db43a"><g><g><path d="M9.18,8.24h.65a0,0,0,0,1,0,0v1.81a.14.14,0,0,1-.14.14H9a.14.14,0,0,1-.14-.14V8.53A.29.29,0,0,1,9.18,8.24Z" fill="#b3b3b3" /><path d="M9.18,8.24h.65a0,0,0,0,1,0,0v1.81a.14.14,0,0,1-.14.14H9a.14.14,0,0,1-.14-.14V8.53A.29.29,0,0,1,9.18,8.24Z" fill="#b3b3b3" opacity="0.5" /></g><g><path d="M16.56,8.24h.65a.29.29,0,0,1,.29.29v1.53a.14.14,0,0,1-.14.14H16.7a.14.14,0,0,1-.14-.14V8.24A0,0,0,0,1,16.56,8.24Z" fill="#b3b3b3" /><path d="M16.56,8.24h.65a.29.29,0,0,1,.29.29v1.53a.14.14,0,0,1-.14.14H16.7a.14.14,0,0,1-.14-.14V8.24A0,0,0,0,1,16.56,8.24Z" fill="#b3b3b3" opacity="0.5" /></g><path d="M13,4.4h.63a0,0,0,0,1,0,0V13a0,0,0,0,1,0,0H13a.29.29,0,0,1-.29-.29v-8A.29.29,0,0,1,13,4.4Z" transform="translate(21.9 -4.5) rotate(90)" fill="#b3b3b3" /></g><g><g><path d="M9,14h.65a.14.14,0,0,1,.14.14v1.81a0,0,0,0,1,0,0H9.18a.29.29,0,0,1-.29-.29V14.11A.14.14,0,0,1,9,14Z" fill="#b3b3b3" /><path d="M9,14h.65a.14.14,0,0,1,.14.14v1.81a0,0,0,0,1,0,0H9.18a.29.29,0,0,1-.29-.29V14.11A.14.14,0,0,1,9,14Z" fill="#b3b3b3" opacity="0.5" /></g><g><path d="M16.7,14h.65a.14.14,0,0,1,.14.14v1.53a.29.29,0,0,1-.29.29h-.65a0,0,0,0,1,0,0V14.11A.14.14,0,0,1,16.7,14Z" fill="#b3b3b3" /><path d="M16.7,14h.65a.14.14,0,0,1,.14.14v1.53a.29.29,0,0,1-.29.29h-.65a0,0,0,0,1,0,0V14.11A.14.14,0,0,1,16.7,14Z" fill="#b3b3b3" opacity="0.5" /></g><path d="M13,11.17h.63a0,0,0,0,1,0,0v8.61a0,0,0,0,1,0,0H13a.29.29,0,0,1-.29-.29v-8A.29.29,0,0,1,13,11.17Z" transform="translate(-2.27 28.67) rotate(-90)" fill="#b3b3b3" /></g><path d="M14.09,11.74a.13.13,0,0,1-.11.13H13a.12.12,0,0,1-.13-.12h0V11a.14.14,0,0,1,.11-.13h1a.12.12,0,0,1,.13.12h0Z" fill="#76bc2d" /><path d="M15.88,12.5a.13.13,0,0,1-.11.13h-1a.12.12,0,0,1-.13-.12h0v-.74a.11.11,0,0,1,.11-.12h1a.11.11,0,0,1,.13.11h0Z" fill="#5e9624" /><path d="M14.09,13.26a.12.12,0,0,1-.11.13H13a.12.12,0,0,1-.13-.11v-.75A.12.12,0,0,1,13,12.4h1a.11.11,0,0,1,.13.11v.75Z" fill="#5e9624" /><path d="M12.3,11a.11.11,0,0,1-.11.12h-1A.11.11,0,0,1,11,11h0v-.77a.11.11,0,0,1,.11-.12h1c.1,0,.15.05.15.12Z" fill="#86d633" /><path d="M12.3,12.5a.12.12,0,0,1-.11.13h-1a.12.12,0,0,1-.12-.12h0v-.76a.12.12,0,0,1,.11-.13h1c.1,0,.15.05.15.13Z" fill="#76bc2d" /><path d="M12.3,14a.11.11,0,0,1-.11.13h-1A.12.12,0,0,1,11,14v-.78a.12.12,0,0,1,.11-.13h1a.13.13,0,0,1,.15.13Z" fill="#5e9624" /><g><path d="M13.31,5.8h0A.28.28,0,0,0,13,5.52H5a.28.28,0,0,0-.29.28h0V7.33a.15.15,0,0,0,.15.14H5.5a.14.14,0,0,0,.14-.14v-.9h6.72v.9a.15.15,0,0,0,.15.14h.65a.15.15,0,0,0,.15-.14V5.8Z" fill="#949494" /><path d="M5.64,11.32a.14.14,0,0,0-.14-.14H4.85a.15.15,0,0,0-.15.14v1.53h0a.25.25,0,0,0,.21.28H8.39v-.91H5.64Z" fill="#949494" /></g><g><path d="M9.11,2.36h0a.29.29,0,0,0-.29-.29h-8a.29.29,0,0,0-.29.29h0V3.89A.14.14,0,0,0,.64,4H1.3a.14.14,0,0,0,.14-.14V3H8.16v.91A.15.15,0,0,0,8.31,4H9a.15.15,0,0,0,.15-.14V2.36Z" fill="#949494" /><path d="M1.44,7.88a.15.15,0,0,0-.14-.15H.64a.15.15,0,0,0-.14.15V9.4h0c0,.15.1.28.21.28H4.19V8.78H1.44Z" fill="#949494" /></g><path d="M7.82,8.32a.11.11,0,0,1-.11.12h-1a.11.11,0,0,1-.13-.11h0V7.56a.11.11,0,0,1,.11-.13h1c.1,0,.15.05.15.13Zm0,.76C7.82,9,7.77,9,7.67,9h-1a.12.12,0,0,0-.11.13v.78a.12.12,0,0,0,.13.11h1a.12.12,0,0,0,.11-.13Zm0,1.52c0-.07-.05-.12-.15-.12h-1a.11.11,0,0,0-.11.12v.78a.11.11,0,0,0,.13.11h1a.11.11,0,0,0,.11-.13ZM3.62,4.11A.13.13,0,0,0,3.47,4h-1a.12.12,0,0,0-.11.13v.78A.12.12,0,0,0,2.47,5h1a.11.11,0,0,0,.11-.13Zm0,1.52c0-.07-.05-.12-.15-.12h-1a.11.11,0,0,0-.11.12V6.4h0a.11.11,0,0,0,.12.11h1a.11.11,0,0,0,.11-.12Zm0,1.53c0-.08-.05-.13-.15-.13h-1a.12.12,0,0,0-.11.13v.76h0a.12.12,0,0,0,.12.12h1a.12.12,0,0,0,.11-.13Z" fill="#76bc2d" /></g></g></svg>