<svg id="be02e92a-f1ac-436b-85cd-c7fa6d71a7ab" xmlns="http://www.w3.org/2000/svg" width="18" height="18" viewBox="0 0 18 18"><defs><linearGradient id="a2f5a399-e513-4b5d-9b50-e5cb6806323d" x1="9.24" y1="0.96" x2="8.85" y2="16.52" gradientUnits="userSpaceOnUse"><stop offset="0" stop-color="#32d4f5" /><stop offset="0.23" stop-color="#31d0f1" /><stop offset="0.46" stop-color="#2cc3e6" /><stop offset="0.7" stop-color="#25afd4" /><stop offset="0.94" stop-color="#1c92ba" /><stop offset="1" stop-color="#198ab3" /></linearGradient></defs><title>Icon-analytics-150</title><path d="M17.1,3.6H9.69a.34.34,0,0,1-.22-.07L7.35,2.12a.43.43,0,0,0-.22-.06H.9a.4.4,0,0,0-.4.39v13.1a.4.4,0,0,0,.4.39H17.1a.4.4,0,0,0,.4-.39V4A.4.4,0,0,0,17.1,3.6Z" fill="#005ba1" /><rect x="2.05" y="2.82" width="3.86" height="0.77" rx="0.16" fill="#fff" /><rect x="2.05" y="2.82" width="0.77" height="0.77" rx="0.11" fill="#1ac3f2" /><path d="M17.1,3.58H9a.36.36,0,0,0-.28.12L7.37,5a.43.43,0,0,1-.28.11H.9a.4.4,0,0,0-.4.4v10a.4.4,0,0,0,.4.39H17.1a.4.4,0,0,0,.4-.39V4A.4.4,0,0,0,17.1,3.58Z" fill="url(#a2f5a399-e513-4b5d-9b50-e5cb6806323d)" /><path d="M10.18,5.7a.15.15,0,0,0-.08,0s-.09,0-.13.07L6.81,10.36a.16.16,0,0,0,0,.16.19.19,0,0,0,.15.1H8.83L8,13.4a.13.13,0,0,0,.07.18.1.1,0,0,0,.07,0c.06,0,.09,0,.13-.07l3.26-4.66s0-.06,0-.1a.17.17,0,0,0-.17-.16h-2l.81-2.73A.13.13,0,0,0,10.18,5.7Z" fill="#fff" /></svg>