<svg width="24px" height="24px" viewBox="0 0 24 24" version="1.1" xmlns="http://www.w3.org/2000/svg" xmlns:xlink="http://www.w3.org/1999/xlink">
    <g stroke="none" stroke-width="1" fill="none" fill-rule="evenodd">
        <path d="M14.7110701,8.84507935 C14.7717439,8.84507935 14.8231931,8.88719721 14.8413458,8.94564457 L14.8483412,8.99213893 L14.8483412,9.80096662 C14.8483412,9.86590813 14.8090267,9.92106136 14.7544697,9.94052499 L14.7110701,9.9480262 L14.1619856,9.9480262 L14.1619856,11.3971513 C14.1619856,11.4393574 14.1689102,11.4810733 14.1822916,11.5204472 L14.2071478,11.5775199 L17.9097614,18.3983638 C18.0128912,18.5897093 18.0276241,18.8190863 17.9539599,19.0212979 L17.9097614,19.1198381 L16.5667009,21.6392628 C16.4635711,21.8306084 16.2854576,21.9589644 16.0851783,21.9917325 L15.983436,22 L8.01656405,22 C7.8103044,22 7.61750853,21.8989791 7.49086453,21.7295356 L7.43329911,21.6392628 L6.09023859,19.1198381 C5.98710877,18.9284926 5.97237594,18.6991157 6.0460401,18.496904 L6.09023859,18.3983638 L9.78310593,11.5775199 C9.80278146,11.5409511 9.8205962,11.5011143 9.83028652,11.4598613 L9.83794574,11.3971513 L9.83794574,9.9480262 L9.28886131,9.9480262 C9.22824239,9.9480262 9.17676023,9.90586128 9.15859212,9.84743274 L9.1515902,9.80096662 L9.1515902,8.99213893 C9.1515902,8.9271386 9.19094857,8.87202066 9.24548803,8.85257351 L9.28886131,8.84507935 L14.7110701,8.84507935 Z M13.1324523,9.9480262 L10.867479,9.9480262 L10.867479,11.6220054 C10.867479,11.7170243 10.8499898,11.810761 10.8163145,11.8979731 L10.7772919,11.9828161 L7.23720733,18.5909383 C7.18910754,18.6801741 7.17948758,18.7860688 7.2083826,18.8820057 L7.23727597,18.9516755 L8.15266835,20.6500666 C8.20076815,20.7393612 8.28154945,20.8012203 8.37354086,20.8223922 L8.44430082,20.8304352 L9.572,20.83 L8.57527805,18.9792271 C8.52717825,18.8899325 8.51755829,18.7840732 8.54641817,18.6881527 L8.57527805,18.6184899 L9.44379234,17.006864 L15.913,17.006 L15.399,16.047 L13.0053393,16.0472267 L12.6160384,15.3248701 L15.012,15.324 L14.292,13.979 L11.8745205,13.9792234 L11.4852196,13.2568668 L13.904,13.256 L13.2227081,11.9828161 C13.1783867,11.9005363 13.1497785,11.8099843 13.1382445,11.7164027 L13.1324523,11.6220054 L13.1324523,9.9480262 Z M16.347,17.815 L13.9560996,17.8156917 L14.3454004,18.5509896 L16.741,18.55 L16.347,17.815 Z M10.630604,5.77278412 C11.0025401,5.77278412 11.3040561,6.09587402 11.3040561,6.49433196 C11.3040561,6.89278989 11.0025401,7.21580626 10.630604,7.21580626 C10.258668,7.21580626 9.95715197,6.89278989 9.95715197,6.49433196 C9.95715197,6.09587402 10.258668,5.77278412 10.630604,5.77278412 Z M13.1716089,4.22465851 C13.7295473,4.22465851 14.1818556,4.7091463 14.1818556,5.30686996 C14.1818556,5.9045201 13.7295473,6.38908141 13.1716089,6.38908141 C12.6136705,6.38908141 12.1614308,5.9045201 12.1614308,5.30686996 C12.1614308,4.7091463 12.6136705,4.22465851 13.1716089,4.22465851 Z M11.6407615,2 C12.0126976,2 12.3142822,2.3230899 12.3142822,2.72154783 C12.3142822,3.12000576 12.0126976,3.44302213 11.6407615,3.44302213 C11.2688941,3.44302213 10.9673095,3.12000576 10.9673095,2.72154783 C10.9673095,2.3230899 11.2688941,2 11.6407615,2 Z" fill="#4285F4"></path>
    </g>
</svg>