<?xml version="1.0" encoding="UTF-8"?>
<svg width="40px" height="40px" viewBox="0 0 40 40" version="1.1" xmlns="http://www.w3.org/2000/svg" xmlns:xlink="http://www.w3.org/1999/xlink">
    <!-- Generator: Sketch 64 (93537) - https://sketch.com -->
    <title>Icon-Architecture/32/Arch_AWS-Ground-Station_32</title>
    <desc>Created with Sketch.</desc>
    <defs>
        <linearGradient x1="0%" y1="100%" x2="100%" y2="0%" id="linearGradient-1">
            <stop stop-color="#2E27AD" offset="0%"></stop>
            <stop stop-color="#527FFF" offset="100%"></stop>
        </linearGradient>
    </defs>
    <g id="Icon-Architecture/32/Arch_AWS-Ground-Station_32" stroke="none" stroke-width="1" fill="none" fill-rule="evenodd">
        <g id="Icon-Architecture-BG/32/Satellite" fill="url(#linearGradient-1)">
            <rect id="Rectangle" x="0" y="0" width="40" height="40"></rect>
        </g>
        <path d="M15.6367975,32.9998928 L18.7131075,32.9998928 L18.7131075,22.0167161 L15.6367975,22.0167161 L15.6367975,32.9998928 Z M10.0600936,15.9980712 L13.4136589,15.9980712 C13.2301812,17.8882737 13.5512672,19.3454299 13.9324932,20.3305354 C12.3963768,19.4354395 10.3689478,17.9162767 10.0600936,15.9980712 L10.0600936,15.9980712 Z M16.5888431,13.9978569 L16.9802622,13.9978569 L17.3879905,13.9978569 L17.8905157,13.9978569 L18.4327943,14.9979641 L16.003753,14.9979641 L16.5888431,13.9978569 Z M17.1841264,12.0046434 L17.6866515,12.4976962 L17.1841264,12.990749 L16.6816013,12.4976962 L17.1841264,12.0046434 Z M21.272622,19.841483 C21.8057267,18.8793799 22.2114164,17.5882416 22.0809433,15.9980712 L24.6261873,15.9980712 C24.3407775,17.5572383 22.7801974,18.8903811 21.272622,19.841483 L21.272622,19.841483 Z M17.6937868,15.9980712 L21.0606033,15.9980712 C21.3327619,18.8673786 19.5397767,20.597564 19.0413288,21.0166089 L17.6937868,21.0166089 L17.6937868,15.9980712 Z M15.4003151,21.0166089 C15.0598619,20.485552 14.1404346,18.7473658 14.4319603,15.9980712 L16.674466,15.9980712 L16.674466,21.0166089 L15.4003151,21.0166089 Z M25.6913775,15.4980176 C25.6913775,15.2219881 25.4630496,14.9979641 25.1817171,14.9979641 L19.5876848,14.9979641 L18.6468517,13.2627782 C18.6132141,13.1997714 18.5581708,13.1547666 18.5021081,13.1127621 L18.5632674,13.0517555 C18.6590835,12.9577455 18.7131075,12.8307319 18.7131075,12.6977176 L18.7131075,12.2976748 C18.7131075,12.1646605 18.6590835,12.0376469 18.5632674,11.9436368 L17.7488301,11.1435511 C17.6530139,11.0505411 17.5235602,10.9975355 17.3879905,10.9975355 L16.9802622,10.9975355 C16.8446926,10.9975355 16.7152388,11.0505411 16.6194227,11.1435511 L15.8039661,11.9436368 C15.7091693,12.0376469 15.6551453,12.1646605 15.6551453,12.2976748 L15.6551453,12.6977176 C15.6551453,12.8307319 15.7091693,12.9577455 15.8039661,13.0517555 L15.9283232,13.1737686 C15.9038595,13.1997714 15.8712413,13.2167732 15.8518742,13.2487767 L14.8274568,14.9979641 L9.50966038,14.9979641 C9.22730853,14.9979641 9,15.2219881 9,15.4980176 C9,18.7723685 12.9794283,21.0376112 14.6174767,21.8316963 L14.6174767,33.4999464 C14.6174767,33.775976 14.8458046,34 15.1271371,34 L19.2227679,34 C19.5041004,34 19.7324283,33.775976 19.7324283,33.4999464 L19.7324283,21.8306961 C22.0860399,20.7125763 25.6913775,18.5103404 25.6913775,15.4980176 L25.6913775,15.4980176 Z M20.8812028,11.3685752 L19.9668721,11.8126228 C19.4429412,10.7765118 18.3848863,10.1324428 17.2055321,10.1324428 C16.0271973,10.1324428 14.9691424,10.7765118 14.4441922,11.8126228 L13.5308808,11.3685752 C14.2291155,9.98842733 15.6367975,9.13233561 17.2055321,9.13233561 C18.7742668,9.13233561 20.1819488,9.98842733 20.8812028,11.3685752 L20.8812028,11.3685752 Z M21.3959598,11.1105476 C20.5968123,9.54137943 18.9913821,8.56627496 17.2055321,8.56627496 C15.4156049,8.56627496 13.8091554,9.54437975 13.0130658,11.1185484 L12.0997544,10.6735007 C13.0701478,8.75629532 15.0272437,7.5661678 17.2055321,7.5661678 C19.3797433,7.5661678 21.3348005,8.753295 22.3072325,10.6644998 L21.3959598,11.1105476 Z M11.5819395,10.4204736 L10.6696474,9.97542594 C11.9121994,7.5231632 14.4166705,6 17.2055321,6 C19.9862392,6 22.4876523,7.51716255 23.7332623,9.95842412 L22.8209702,10.405472 C21.7486448,8.30524699 19.597878,7.00010715 17.2055321,7.00010715 C14.8070704,7.00010715 12.6522263,8.31024753 11.5819395,10.4204736 L11.5819395,10.4204736 Z M25.9849419,23.1578383 C26.4650419,22.3257492 26.88806,21.2396328 26.8676736,19.9984998 L29.8919983,19.9984998 C29.4699995,21.2156302 27.6077005,22.3417509 25.9849419,23.1578383 L25.9849419,23.1578383 Z M21.7710698,32.9998928 L23.8097113,32.9998928 L23.8097113,24.9990356 L21.7710698,24.9990356 L21.7710698,32.9998928 Z M31,19.4984463 C31,19.2224167 30.7716721,18.9983927 30.4903396,18.9983927 L24.8290321,18.9983927 L24.8290321,19.9984998 L25.8218505,19.9984998 C25.8554881,21.9677108 24.5283325,23.5518806 24.1032757,23.9989285 L21.7710698,23.9989285 L21.7710698,21.9987141 L20.7517491,21.9987141 L20.7517491,33.4999464 C20.7517491,33.775976 20.9790576,34 21.2614094,34 L24.3193717,34 C24.6007043,34 24.8290321,33.775976 24.8290321,33.4999464 L24.8290321,24.8170161 C27.1602187,23.7539022 31,21.9857128 31,19.4984463 L31,19.4984463 Z" id="AWS-Ground-Station_Icon_32_Squid" fill="#FFFFFF"></path>
    </g>
</svg>