<?xml version="1.0" encoding="UTF-8"?>
<svg width="64px" height="64px" viewBox="0 0 64 64" version="1.1" xmlns="http://www.w3.org/2000/svg" xmlns:xlink="http://www.w3.org/1999/xlink">
    <title>Icon-Architecture/48/Arch_Amazon-Connect_48</title>
    <defs>
        <linearGradient x1="0%" y1="100%" x2="100%" y2="0%" id="linearGradient-1">
            <stop stop-color="#BD0816" offset="0%"></stop>
            <stop stop-color="#FF5252" offset="100%"></stop>
        </linearGradient>
    </defs>
    <g id="Icon-Architecture/48/Arch_Amazon-Connect_48" stroke="none" stroke-width="1" fill="none" fill-rule="evenodd">
        <g id="Rectangle" fill="url(#linearGradient-1)">
            <rect x="0" y="0" width="64" height="64"></rect>
        </g>
        <path d="M41.5304971,29.5969919 C40.7082775,29.5969919 40.0391676,28.9255915 40.0391676,28.1005571 C40.0391676,27.2755227 40.7082775,26.6041223 41.5304971,26.6041223 C42.3527168,26.6041223 43.0218266,27.2755227 43.0218266,28.1005571 C43.0218266,28.9255915 42.3527168,29.5969919 41.5304971,29.5969919 M34.8195145,37.5779775 C33.9972948,37.5779775 33.328185,36.9065771 33.328185,36.0815427 C33.328185,35.2565083 33.9972948,34.5851079 34.8195145,34.5851079 C35.6417341,34.5851079 36.3108439,35.2565083 36.3108439,36.0815427 C36.3108439,36.9065771 35.6417341,37.5779775 34.8195145,37.5779775 M27.8599769,27.6017455 C27.0377572,27.6017455 26.3686474,26.9303451 26.3686474,26.1053107 C26.3686474,25.2802763 27.0377572,24.6088759 27.8599769,24.6088759 C28.6821965,24.6088759 29.3513064,25.2802763 29.3513064,26.1053107 C29.3513064,26.9303451 28.6821965,27.6017455 27.8599769,27.6017455 M21.894659,36.5803543 C21.0724393,36.5803543 20.4033295,35.9089539 20.4033295,35.0839195 C20.4033295,34.2588851 21.0724393,33.5874847 21.894659,33.5874847 C22.7168786,33.5874847 23.3859884,34.2588851 23.3859884,35.0839195 C23.3859884,35.9089539 22.7168786,36.5803543 21.894659,36.5803543 M41.5304971,24.6088759 C39.6116532,24.6088759 38.0507283,26.1751443 38.0507283,28.1005571 C38.0507283,28.8846889 38.3191676,29.5999847 38.7546358,30.1835943 L36.3317225,32.9519987 C35.8733873,32.7275335 35.3633526,32.5898615 34.8195145,32.5898615 C34.5292023,32.5898615 34.2508208,32.6367498 33.9803931,32.7045881 L30.8416416,27.8940491 L30.8267283,27.9040253 C31.1458728,27.3772803 31.3397457,26.7657372 31.3397457,26.1053107 C31.3397457,24.1798979 29.7788208,22.6136295 27.8599769,22.6136295 C25.9411329,22.6136295 24.3802081,24.1798979 24.3802081,26.1053107 C24.3802081,27.1498222 24.8494798,28.0786094 25.5762543,28.7180858 L22.8192832,31.7339008 C22.5230058,31.651098 22.2167861,31.5922383 21.894659,31.5922383 C19.975815,31.5922383 18.4148902,33.1585067 18.4148902,35.0839195 C18.4148902,37.0093322 19.975815,38.5756007 21.894659,38.5756007 C23.8135029,38.5756007 25.3744277,37.0093322 25.3744277,35.0839195 C25.3744277,34.2169849 25.0463353,33.4338507 24.5243699,32.8223077 L27.5060347,29.5610774 C27.6243468,29.5730489 27.7386821,29.5969919 27.8599769,29.5969919 C28.3938728,29.5969919 28.8949595,29.4653056 29.3473295,29.2488214 L32.269341,33.7241591 C31.6966705,34.3466759 31.3397457,35.1707127 31.3397457,36.0815427 C31.3397457,38.0069554 32.9006705,39.5732239 34.8195145,39.5732239 C36.7383584,39.5732239 38.2992832,38.0069554 38.2992832,36.0815427 C38.2992832,35.4290971 38.1093873,34.8245374 37.7962081,34.3017829 L40.3583121,31.3737588 C40.7261734,31.5074403 41.117896,31.5922383 41.5304971,31.5922383 C43.449341,31.5922383 45.0102659,30.0259699 45.0102659,28.1005571 C45.0102659,26.1751443 43.449341,24.6088759 41.5304971,24.6088759 M46.0770636,39.5732239 L39.2606936,39.5732239 C39.0499191,39.5732239 38.8451098,39.6400646 38.6750983,39.7647675 L27.3628671,48.040052 L27.3628671,40.5708471 C27.3628671,40.0201591 26.9184509,39.5732239 26.3686474,39.5732239 L17.9505896,39.5732239 C17.3540578,39.5732239 16.3707746,39.2569773 15.8895723,38.9088068 C14.5662659,37.9530838 12.9884393,36.1663406 12.9884393,33.0796945 C12.9884393,28.675188 16.0406936,27.2306296 17.8611098,26.7627444 C18.3214335,26.6440272 18.6346127,26.213054 18.6057803,25.7371877 L18.5312139,24.4971421 C18.5312139,20.949594 20.9630751,17.1336852 24.0690173,15.8098393 C25.4678844,15.2142582 26.7603699,14.9768239 27.9315607,14.9768239 C31.2661734,14.9768239 33.6214798,16.8972485 34.6495029,17.9347767 C35.7839075,19.0800481 36.668763,20.5455566 37.2821965,22.2894019 C37.4044855,22.6375724 37.7087168,22.8899711 38.0726012,22.9448404 C38.4424509,22.9967168 38.8023584,22.8460757 39.0200925,22.5497816 C39.9039538,21.3456504 41.4270983,20.8438459 42.8030983,21.2967669 C44.3699884,21.8135357 45.2697572,23.374816 45.268763,25.5147177 C45.187237,26.051439 45.5491329,26.5552387 46.0820347,26.6470201 C47.8646705,26.9552856 52.0115607,28.2043099 52.0115607,33.1425447 C52.0115607,39.0315145 46.2470751,39.5562643 46.0770636,39.5732239 M47.2303584,24.8522959 C47.020578,22.1407561 45.630659,20.1295477 43.4234913,19.4012828 C41.7532023,18.8505948 39.9556532,19.1758199 38.5776647,20.1993813 C37.9184971,18.7847516 37.0763931,17.5546822 36.0593064,16.528128 C32.572578,13.0085133 27.7993295,12.0537879 23.2915376,13.9732149 C19.4439075,15.6133075 16.5427746,20.1375287 16.544763,24.5560018 L16.5745896,25.0697778 C14.4429827,25.8159999 11,27.8331941 11,33.0796945 C11,37.0113275 13.0272139,39.3008727 14.7283237,40.5279493 C15.5495491,41.1215351 16.9354913,41.5684703 17.9505896,41.5684703 L25.3744277,41.5684703 L25.3744277,50.0023768 C25.3744277,50.3784807 25.5842081,50.7216631 25.9182659,50.8922567 C26.0594451,50.9640856 26.2145434,51 26.3686474,51 C26.5754451,51 26.7812486,50.9351545 26.9542428,50.8084563 L39.5848092,41.5684703 L46.1496416,41.566475 C48.8648555,41.3669504 54,39.3507539 54,33.1425447 C54,28.2571839 50.6385434,25.7042662 47.2303584,24.8522959" id="Amazon-Connect_Icon_48_Squid" fill="#FFFFFF"></path>
    </g>
</svg>