<?xml version="1.0" encoding="UTF-8"?>
<svg width="64px" height="64px" viewBox="0 0 64 64" version="1.1" xmlns="http://www.w3.org/2000/svg" xmlns:xlink="http://www.w3.org/1999/xlink">
    <title>Icon-Architecture/48/Arch_Amazon-Chime-Voice-Connector_48</title>
    <defs>
        <linearGradient x1="0%" y1="100%" x2="100%" y2="0%" id="linearGradient-1">
            <stop stop-color="#BD0816" offset="0%"></stop>
            <stop stop-color="#FF5252" offset="100%"></stop>
        </linearGradient>
    </defs>
    <g id="Icon-Architecture/48/Arch_Amazon-Chime-Voice-Connector_48" stroke="none" stroke-width="1" fill="none" fill-rule="evenodd">
        <g id="Rectangle" fill="url(#linearGradient-1)">
            <rect x="0" y="0" width="64" height="64"></rect>
        </g>
        <path d="M51,36.293 L40,33.114 L40,29.526 L51,32.726 L51,36.293 Z M45.079,46.145 L42.659,48.564 L37.146,38.682 L39.58,36.248 L45.079,46.145 Z M35.198,37.802 C35.138,37.862 35.086,37.929 35.044,38 L30.134,38 C29.829,38 29.549,38.138 29.363,38.363 L26.198,35.198 C26.138,35.138 26.071,35.086 26,35.044 L26,30.134 C26,29.829 25.861,29.549 25.637,29.363 L28.802,26.198 C28.862,26.138 28.914,26.071 28.956,26 L33.866,26 C34.171,26 34.451,25.862 34.637,25.637 L37.802,28.802 C37.862,28.862 37.929,28.914 38,28.956 L38,33.866 C38,34.171 38.139,34.451 38.363,34.637 L35.198,37.802 Z M31.273,51 L27.707,51 L30.886,40 L34.475,40 L31.273,51 Z M17.854,45.078 L15.436,42.659 L25.318,37.147 L27.752,39.58 L17.854,45.078 Z M13,31.274 L13,27.707 L24,30.886 L24,34.474 L13,31.274 Z M18.921,17.855 L21.341,15.436 L26.854,25.318 L24.42,27.752 L18.921,17.855 Z M32.727,13 L36.293,13 L33.114,24 L29.525,24 L32.727,13 Z M46.146,18.922 L48.564,21.341 L38.682,26.854 L36.248,24.42 L46.146,18.922 Z M52.279,31.015 L41.138,27.773 L50.694,22.443 C50.968,22.29 51.154,22.018 51.197,21.707 C51.24,21.397 51.136,21.084 50.914,20.862 L47.026,16.974 C46.711,16.658 46.224,16.59 45.834,16.807 L35.638,22.471 L38.584,12.278 C38.671,11.976 38.611,11.65 38.422,11.399 C38.233,11.148 37.937,11 37.623,11 L31.976,11 C31.531,11 31.14,11.293 31.016,11.721 L27.773,22.863 L22.442,13.306 C22.29,13.032 22.018,12.846 21.707,12.803 C21.4,12.758 21.084,12.864 20.862,13.086 L16.974,16.974 C16.658,17.29 16.59,17.776 16.807,18.167 L22.471,28.362 L12.277,25.417 C11.976,25.327 11.649,25.388 11.399,25.578 C11.147,25.767 11,26.063 11,26.377 L11,32.025 C11,32.47 11.294,32.861 11.721,32.985 L22.862,36.227 L13.306,41.557 C13.032,41.71 12.846,41.982 12.803,42.293 C12.76,42.603 12.864,42.916 13.086,43.138 L16.974,47.026 C17.289,47.341 17.775,47.41 18.166,47.193 L28.362,41.529 L25.416,51.722 C25.329,52.024 25.389,52.35 25.578,52.601 C25.767,52.852 26.063,53 26.377,53 L32.024,53 C32.469,53 32.86,52.707 32.984,52.279 L36.227,41.137 L41.558,50.694 C41.71,50.968 41.982,51.154 42.293,51.197 C42.603,51.247 42.917,51.136 43.138,50.914 L47.026,47.026 C47.342,46.71 47.41,46.224 47.193,45.833 L41.529,35.638 L51.723,38.584 C52.021,38.672 52.35,38.611 52.601,38.422 C52.853,38.233 53,37.938 53,37.623 L53,31.975 C53,31.53 52.706,31.139 52.279,31.015 L52.279,31.015 Z" id="Amazon-Chime_Icon_48_Squid" fill="#FFFFFF"></path>
    </g>
</svg>