<?xml version="1.0" encoding="UTF-8"?>
<svg width="64px" height="64px" viewBox="0 0 64 64" version="1.1" xmlns="http://www.w3.org/2000/svg" xmlns:xlink="http://www.w3.org/1999/xlink">
    <title>Icon-Architecture/48/Arch_Amazon-WorkDocs-SDK_48</title>
    <defs>
        <linearGradient x1="0%" y1="100%" x2="100%" y2="0%" id="linearGradient-1">
            <stop stop-color="#BD0816" offset="0%"></stop>
            <stop stop-color="#FF5252" offset="100%"></stop>
        </linearGradient>
    </defs>
    <g id="Icon-Architecture/48/Arch_Amazon-WorkDocs-SDK_48" stroke="none" stroke-width="1" fill="none" fill-rule="evenodd">
        <g id="Rectangle" fill="url(#linearGradient-1)">
            <rect x="0" y="0" width="64" height="64"></rect>
        </g>
        <g id="Icon-Service/48/Amazon-WorkDocs" transform="translate(8.000000, 8.000000)" fill="#FFFFFF">
            <path d="M23,37 L25,37 L25,33 L23,33 L23,37 Z M23,31 L25,31 L25,27 L23,27 L23,31 Z M23,43 L25,43 L25,39 L23,39 L23,43 Z M9,25 L13,25 L13,23 L9,23 L9,25 Z M15,25 L19,25 L19,23 L15,23 L15,25 Z M4,44 L4,25 L7,25 L7,23 L4,23 L4,4 L23,4 L23,23 L21,23 L21,25 L24,25 L25,25 L44,25 L44,44 L4,44 Z M25,5.414 L42.586,23 L25,23 L25,5.414 Z M46,24 C46,23.74 45.898,23.484 45.707,23.293 L24.707,2.293 C24.515,2.102 24.26,2 24,2 L3,2 C2.447,2 2,2.448 2,3 L2,45 C2,45.552 2.447,46 3,46 L45,46 C45.552,46 46,45.552 46,45 L46,24 Z" id="Amazon-WorkDocs_Icon_48_Squid"></path>
        </g>
    </g>
</svg>