<?xml version="1.0" encoding="UTF-8"?>
<svg width="64px" height="64px" viewBox="0 0 64 64" version="1.1" xmlns="http://www.w3.org/2000/svg" xmlns:xlink="http://www.w3.org/1999/xlink">
    <title>Icon-Architecture/48/Arch_Amazon-Pinpoint-APIs_48</title>
    <defs>
        <linearGradient x1="0%" y1="100%" x2="100%" y2="0%" id="linearGradient-1">
            <stop stop-color="#BD0816" offset="0%"></stop>
            <stop stop-color="#FF5252" offset="100%"></stop>
        </linearGradient>
    </defs>
    <g id="Icon-Architecture/48/Arch_Amazon-Pinpoint-APIs_48" stroke="none" stroke-width="1" fill="none" fill-rule="evenodd">
        <g id="Rectangle" fill="url(#linearGradient-1)">
            <rect x="0" y="0" width="64" height="64"></rect>
        </g>
        <g id="Icon-Service/48/Amazon-Pinpoint" transform="translate(8.000000, 8.000000)" fill="#FFFFFF">
            <path d="M23.293,23.293 L27.472,19.114 C26.491,18.416 25.296,18 24.003,18 C20.696,18 18.007,20.69 18.007,23.997 C18.007,27.303 20.696,29.994 24.003,29.994 C27.31,29.994 30,27.303 30,23.997 C30,22.704 29.585,21.508 28.886,20.528 L24.707,24.707 L23.293,23.293 Z M33.862,15.552 L30.313,19.102 C31.366,20.456 32,22.152 32,23.997 C32,28.406 28.412,31.994 24.003,31.994 C19.594,31.994 16.007,28.406 16.007,23.997 C16.007,19.587 19.594,16 24.003,16 C25.848,16 27.544,16.634 28.898,17.688 L32.448,14.138 C30.175,12.187 27.227,11 24.003,11 C16.837,11 11.007,16.83 11.007,23.997 C11.007,31.163 16.837,36.994 24.003,36.994 C31.17,36.994 37,31.163 37,23.997 C37,20.772 35.814,17.826 33.862,15.552 L33.862,15.552 Z M36.027,9.014 C36.027,10.66 37.367,12 39.014,12 C40.66,12 42,10.66 42,9.014 C42,7.367 40.66,6.027 39.014,6.027 C37.367,6.027 36.027,7.367 36.027,9.014 L36.027,9.014 Z M33.861,12.724 L34.848,11.739 C34.332,10.954 34.027,10.02 34.027,9.014 C34.027,6.264 36.265,4.027 39.014,4.027 C41.763,4.027 44,6.264 44,9.014 C44,11.763 41.763,14 39.014,14 C37.993,14 37.045,13.689 36.253,13.161 L35.275,14.138 C37.587,16.777 39,20.221 39,23.997 C39,32.266 32.272,38.994 24.003,38.994 C15.734,38.994 9.007,32.266 9.007,23.997 C9.007,15.728 15.734,9 24.003,9 C27.778,9 31.223,10.413 33.861,12.724 L33.861,12.724 Z M46,24 C46,36.131 36.131,46 24,46 C11.869,46 2,36.131 2,24 C2,11.869 11.869,2 24,2 C27.081,2 30.064,2.627 32.863,3.863 L32.055,5.693 C29.512,4.569 26.801,4 24,4 C12.972,4 4,12.972 4,24 C4,35.028 12.972,44 24,44 C35.028,44 44,35.028 44,24 C44,21.191 43.435,18.495 42.318,15.987 L44.147,15.174 C45.376,17.94 46,20.909 46,24 L46,24 Z" id="Amazon-Pinpoint-Icon_48_Squid"></path>
        </g>
    </g>
</svg>