<?xml version="1.0" encoding="UTF-8"?>
<svg width="64px" height="64px" viewBox="0 0 64 64" version="1.1" xmlns="http://www.w3.org/2000/svg" xmlns:xlink="http://www.w3.org/1999/xlink">
    <!-- Generator: Sketch 64 (93537) - https://sketch.com -->
    <title>Icon-Architecture/48/Arch_Alexa-For-Business_48</title>
    <desc>Created with Sketch.</desc>
    <defs>
        <linearGradient x1="0%" y1="100%" x2="100%" y2="0%" id="linearGradient-1">
            <stop stop-color="#BD0816" offset="0%"></stop>
            <stop stop-color="#FF5252" offset="100%"></stop>
        </linearGradient>
    </defs>
    <g id="Icon-Architecture/48/Arch_Alexa-For-Business_48" stroke="none" stroke-width="1" fill="none" fill-rule="evenodd">
        <g id="Icon-Architecture-BG/48/Business-Applications" fill="url(#linearGradient-1)">
            <rect id="Rectangle" x="0" y="0" width="64" height="64"></rect>
        </g>
        <path d="M25.5765065,32.8553057 L33.5754033,32.8553057 L33.5754033,30.8415253 L25.5765065,30.8415253 L25.5765065,32.8553057 Z M25.5765065,28.8277449 L41.5743,28.8277449 L41.5743,26.8139645 L25.5765065,26.8139645 L25.5765065,28.8277449 Z M25.5765065,24.800184 L39.5745758,24.800184 L39.5745758,22.7864036 L25.5765065,22.7864036 L25.5765065,24.800184 Z M26.5763686,45.0346496 L26.5763686,51.5733946 L29.6489448,50.4909876 C40.8983933,47.6475297 49.0002758,38.2512303 49.0002758,28.1229217 C49.0002758,23.6553499 47.1635291,19.499914 43.8289891,16.4208438 C40.3964625,13.2491396 35.7211073,11.668322 30.9897599,12.0781263 C23.7727553,12.7084396 17.7465864,17.968434 16.335781,24.8686526 C14.776996,32.4928252 18.7164527,40.0867911 26.0664389,42.9554213 C26.6343606,43.1769372 26.5763686,45.0346496 26.5763686,45.0346496 L26.5763686,45.0346496 Z M25.5765065,54 C25.3715348,54 25.1695626,53.9365659 24.9975864,53.8137253 C24.7346226,53.6254368 24.5766444,53.3193422 24.5766444,52.9931098 L24.5766444,44.9379882 C24.5766444,44.7950097 24.6036407,44.6651209 24.6406356,44.5271769 C16.8737068,40.9587581 12.6702866,32.8120094 14.3770512,24.4628758 C15.9648322,16.6967317 22.7258997,10.7792379 30.8177836,10.072401 C36.0960556,9.60923151 41.335333,11.3843789 45.1808026,14.9366876 C48.8792925,18.3510523 51,23.1579461 51,28.1229217 C51,39.1624659 42.2612053,49.3793808 30.2218658,52.4181755 L25.906461,53.9436141 C25.7994758,53.9808691 25.6884911,54 25.5765065,54 L25.5765065,54 Z M32.3415734,16.3966784 C25.9594537,16.4440022 20.7621705,21.7211138 20.7621705,28.1611835 C20.7621705,32.3538744 23.1818368,36.2837668 27.2342779,38.6751311 C27.8271961,39.0225082 29.3309887,40.0938394 29.4999654,40.2156731 C30.7237966,41.1480534 31.4506963,42.5838789 31.5736794,44.2764613 L31.5746792,45.3880681 C38.9706591,42.8547323 44.2129361,36.0108996 44.2129361,28.661608 C44.2129361,27.5258358 44.0609571,26.4001326 43.7619983,25.3157118 C43.7360019,25.2099884 43.7170045,25.1536025 43.699007,25.094196 C43.6950075,25.0831202 43.6690111,24.9985414 43.6660115,24.9874656 C42.3711901,20.2842815 38.2627568,16.8507859 33.4414217,16.4450091 L33.3354364,16.4399747 C33.062474,16.4258782 32.5175492,16.3966784 32.3415734,16.3966784 L32.3415734,16.3966784 Z M30.575817,47.7512394 C30.3588469,47.7512394 30.1438766,47.6797502 29.966901,47.5418062 C29.7209349,47.351504 29.5759549,47.0564851 29.5759549,46.7433423 L29.5769547,44.3499643 C29.4989655,43.3168949 29.0510273,42.3986111 28.3181284,41.8387801 C27.9031856,41.5437613 26.6643565,40.6707875 26.2264169,40.4140305 C21.5520616,37.6561582 18.7624463,33.0768215 18.7624463,28.1611835 C18.7624463,20.6195759 24.8506066,14.4382769 32.3335745,14.382898 C32.5345468,14.382898 33.1364638,14.4131047 33.439422,14.428208 L33.5724037,14.4352563 C39.2596193,14.914536 44.075955,18.9380693 45.5937457,24.4487794 C45.641739,24.6008198 45.6737346,24.708557 45.6987312,24.8223356 C46.0356847,26.0356383 46.2126603,27.3435887 46.2126603,28.661608 C46.2126603,37.3178431 39.7445524,45.3316822 30.8327815,47.7170051 C30.7477933,47.7401636 30.6618051,47.7512394 30.575817,47.7512394 L30.575817,47.7512394 Z" id="Alexa-For-Business_Icon_48_Squid" fill="#FFFFFF"></path>
    </g>
</svg>