<?xml version="1.0" encoding="UTF-8"?>
<svg width="64px" height="64px" viewBox="0 0 64 64" version="1.1" xmlns="http://www.w3.org/2000/svg" xmlns:xlink="http://www.w3.org/1999/xlink">
    <title>Icon-Architecture/48/Arch_Amazon-Honeycode_48</title>
    <defs>
        <linearGradient x1="0%" y1="100%" x2="100%" y2="0%" id="linearGradient-1">
            <stop stop-color="#BD0816" offset="0%"></stop>
            <stop stop-color="#FF5252" offset="100%"></stop>
        </linearGradient>
    </defs>
    <g id="Icon-Architecture/48/Arch_Amazon-Honeycode_48" stroke="none" stroke-width="1" fill="none" fill-rule="evenodd">
        <g id="Rectangle" fill="url(#linearGradient-1)">
            <rect x="0" y="0" width="64" height="64"></rect>
        </g>
        <g id="Icon-Service/48/Amazon-Honeycode_48" transform="translate(8.000000, 8.000000)" fill="#FFFFFF">
            <path d="M41,33.89 L37,36.209 L37,17.008 L24.018,8.894 L11,16.488 L11,28.682 L7,26.348 L7,14.169 L24,4.311 L41,14.169 L41,33.89 Z M17.957,14.745 L22.071,17.122 L17,19.964 L17,32.182 L13,29.848 L13,17.637 L17.957,14.745 Z M35,23.05 L31,25.509 L31,19.973 L19.946,13.585 L23.982,11.23 L35,18.117 L35,23.05 Z M24.015,32.151 L35,25.397 L35,29.658 L24.222,36.394 L19,33.348 L19,29.244 L24.015,32.151 Z M19,21.136 L24.086,18.287 L29,21.127 L29,26.739 L23.985,29.822 L19,26.932 L19,21.136 Z M7,33.89 L7,28.664 L11,30.997 L11,31.036 L11.066,31.036 L24.257,38.73 L35,32.016 L35,37.369 L24,43.747 L7,33.89 Z M24,2 L5,13.016 L5,35.042 L24,46.058 L43,35.042 L43,13.016 L24,2 Z" id="Fill-1"></path>
        </g>
    </g>
</svg>