<?xml version="1.0" encoding="UTF-8"?>
<svg width="64px" height="64px" viewBox="0 0 64 64" version="1.1" xmlns="http://www.w3.org/2000/svg" xmlns:xlink="http://www.w3.org/1999/xlink">
    <title>Icon-Architecture/48/Arch_Amazon-Simple-Email-Service_48</title>
    <defs>
        <linearGradient x1="0%" y1="100%" x2="100%" y2="0%" id="linearGradient-1">
            <stop stop-color="#BD0816" offset="0%"></stop>
            <stop stop-color="#FF5252" offset="100%"></stop>
        </linearGradient>
    </defs>
    <g id="Icon-Architecture/48/Arch_Amazon-Simple-Email-Service_48" stroke="none" stroke-width="1" fill="none" fill-rule="evenodd">
        <g id="Rectangle" fill="url(#linearGradient-1)">
            <rect x="0" y="0" width="64" height="64"></rect>
        </g>
        <path d="M45,48 C45,46.86 44.141,46 43,46 C41.859,46 41,46.86 41,48 C41,49.14 41.859,50 43,50 C44.141,50 45,49.14 45,48 L45,48 Z M32,48 C30.859,48 30,48.86 30,50 C30,51.14 30.859,52 32,52 C33.141,52 34,51.14 34,50 C34,48.86 33.141,48 32,48 L32,48 Z M21,46 C19.859,46 19,46.86 19,48 C19,49.14 19.859,50 21,50 C22.141,50 23,49.14 23,48 C23,46.86 22.141,46 21,46 L21,46 Z M23.661,34 L40.339,34 L34.709,29.074 L32.632,30.774 C32.448,30.925 32.224,31 31.999,31 C31.774,31 31.55,30.925 31.366,30.774 L29.29,29.075 L23.661,34 Z M22,23.11 L22,32.797 L27.721,27.791 L22,23.11 Z M40.199,22 L23.801,22 L31.999,28.708 L40.199,22 Z M42,32.797 L42,23.11 L36.278,27.791 L42,32.797 Z M47,48 C47,50.243 45.243,52 43,52 C40.757,52 39,50.243 39,48 C39,46.105 40.259,44.571 42,44.136 L42,42 L33,42 L33,46.136 C34.741,46.571 36,48.105 36,50 C36,52.243 34.243,54 32,54 C29.757,54 28,52.243 28,50 C28,48.105 29.259,46.571 31,46.136 L31,42 L22,42 L22,44.136 C23.741,44.571 25,46.105 25,48 C25,50.243 23.243,52 21,52 C18.757,52 17,50.243 17,48 C17,46.105 18.259,44.571 20,44.136 L20,41 C20,40.448 20.447,40 21,40 L31,40 L31,36 L21,36 C20.447,36 20,35.552 20,35 L20,21 C20,20.448 20.447,20 21,20 L43,20 C43.553,20 44,20.448 44,21 L44,35 C44,35.552 43.553,36 43,36 L33,36 L33,40 L43,40 C43.553,40 44,40.448 44,41 L44,44.136 C45.741,44.571 47,46.105 47,48 L47,48 Z M54,32 C54,36.795 52.395,42.001 49.812,45.585 L48.188,44.415 C50.54,41.154 52,36.397 52,32 C52,20.972 43.028,12 32.001,12 C20.973,12 12,20.972 12,32 C12,36.397 13.46,41.154 15.812,44.415 L14.188,45.585 C11.605,42.001 10,36.795 10,32 C10,19.869 19.869,10 31.999,10 C44.131,10 54,19.869 54,32 L54,32 Z" id="Amazon-Simple-Email-Service_Icon_48_Squid" fill="#FFFFFF"></path>
    </g>
</svg>