<svg width="24px" height="24px" viewBox="0 0 24 24" version="1.1" xmlns="http://www.w3.org/2000/svg" xmlns:xlink="http://www.w3.org/1999/xlink">
    <g stroke="none" stroke-width="1" fill="none" fill-rule="evenodd">
        <path d="M10.1893938,2 C10.3728304,2.00077434 10.5258338,2.13095973 10.5618102,2.30439506 L10.5698113,2.38112124 L10.5698113,4.33245019 L12.6188242,4.33245019 L12.6185298,2.38171121 C12.6190451,2.19767714 12.7494087,2.04435844 12.9226324,2.00831145 L12.9992416,2.00029499 L13.6211004,2 C13.8047946,2.00077434 13.9578302,2.13118557 13.9936134,2.30467737 L14.0015178,2.38141623 L14.0015178,4.33245019 L16.0505308,4.33245019 L16.0502364,2.38171121 C16.0510093,2.19767714 16.1814051,2.04458429 16.3544356,2.00859376 L16.4309482,2.00058997 L17.0525126,2.00029499 C17.2362068,2.00106932 17.3892424,2.13125471 17.42542,2.30469004 L17.4335189,2.38141623 L17.4332244,4.33245019 L19.2543403,4.33245019 C19.46215,4.33349903 19.6348304,4.48348275 19.6714654,4.68150582 L19.6786294,4.75781925 L19.6786294,6.5749298 L21.6189937,6.5749298 C21.8026879,6.57544603 21.9559489,6.70605085 21.9919857,6.87979269 L22,6.95664102 L22,7.57876539 C21.9994847,7.76305757 21.8688957,7.91663439 21.6956156,7.95254426 L21.6189937,7.9604766 L19.6786294,7.9604766 L19.6786294,10.0129856 L21.6189937,10.0129856 C21.8029455,10.0135018 21.9564642,10.1441066 21.9921668,10.3180461 L22,10.3949918 L22,11.0168212 C21.9994847,11.2008552 21.8688957,11.3543998 21.6956156,11.390108 L21.6189937,11.3979424 L19.6786294,11.3982374 L19.6786294,13.4510413 L21.6189937,13.4510413 C21.8029455,13.4515576 21.9564642,13.5823882 21.9921668,13.7559889 L22,13.8327525 L22,14.4548769 C21.9994847,14.638911 21.8688957,14.7924555 21.6956156,14.8281638 L21.6189937,14.8359982 L19.6786294,14.8362931 L19.6783349,16.6539937 C19.6775497,16.8624501 19.5276394,17.0357122 19.3299336,17.0722629 L19.2537514,17.0793627 L17.4335189,17.0793627 L17.4332244,19.0295117 C17.4329668,19.2138039 17.3024099,19.3676066 17.1289366,19.4035729 L17.0522181,19.4115179 L16.4315371,19.4115179 C16.2475853,19.4110017 16.0940666,19.280171 16.058364,19.1063727 L16.0505308,19.0295117 L16.0502364,17.0793627 L14.0015178,17.0793627 L14.0012234,19.0295117 C14.0009658,19.2138039 13.8706343,19.3673807 13.6974146,19.4034882 L13.620806,19.4115179 L12.9995361,19.4115179 C12.8155842,19.4110017 12.662291,19.280171 12.6266447,19.1063727 L12.6188242,19.0295117 L12.6182353,17.0793627 L11.606,17.079 L11.6075624,17.1291822 C11.6075624,19.7465558 9.57152078,21.8817501 7.01776046,21.9952542 L6.80378122,22 C4.15072611,22 2,19.8192606 2,17.1291822 C2,14.4391039 4.15072611,12.2583645 6.80378122,12.2583645 C6.85035544,12.2583645 6.89677486,12.2590365 6.94303054,12.2603716 L6.94200715,11.3982374 L5.00193724,11.3982374 C4.81824304,11.3977212 4.66498204,11.2671163 4.62933976,11.0935721 L4.62151983,11.0168212 L4.62122539,10.3944018 C4.62174066,10.2103677 4.75187886,10.057049 4.92504623,10.021002 L5.0016428,10.0129856 L6.94200715,10.0132806 L6.94171271,7.9604766 L5.00193724,7.9604766 C4.81824304,7.95970227 4.66520747,7.82929103 4.6294243,7.65599685 L4.62151983,7.57935536 L4.62093095,6.95605104 C4.62170386,6.77227509 4.75187426,6.61898865 4.92484841,6.58274807 L5.00134836,6.57463482 L6.94171271,6.57463482 L6.94171271,4.75752426 C6.94249788,4.54906786 7.09264084,4.37603884 7.29039837,4.33953996 L7.36659066,4.33245019 L9.18711763,4.33245019 L9.18682319,2.38171121 C9.1875961,2.19767714 9.3177665,2.04435844 9.4909379,2.00831145 L9.56753504,2.00029499 L10.1893938,2 Z M6.72943699,14.4904938 L6.00155422,15.2285341 L7.54520096,16.7942708 L4.07020096,16.7941541 L4.07020096,17.8379007 L7.54520096,17.8382708 L6.00155422,19.4020024 L6.72921198,20.1402708 L9.51619567,17.3161415 L6.72943699,14.4904938 Z M18.2467641,5.76017991 L8.37416681,5.7604749 L8.37494037,12.5248503 C9.8017631,13.0253356 10.9235874,14.1884603 11.3824464,15.6512622 L18.2458808,15.651043 L18.2467641,5.76017991 Z M15.3046241,8.28260075 C15.5126956,8.28312517 15.6856377,8.43351678 15.7219141,8.63163695 L15.7289132,8.70796981 L15.7289132,12.7038431 C15.728128,12.9122995 15.5782177,13.0857947 15.3803051,13.1223972 L15.3040353,13.1295072 L11.3158357,13.1295072 C11.1077643,13.1284583 10.9348221,12.9782415 10.898339,12.7801667 L10.8912522,12.7038431 L10.8909577,8.70796981 C10.8917429,8.4995134 11.0416532,8.32625131 11.2393591,8.28990781 L11.3155413,8.28289573 L15.3046241,8.28260075 Z" fill="#4285F4"></path>
    </g>
</svg>