<svg id="Layer_1" data-name="Layer 1" xmlns="http://www.w3.org/2000/svg" width="24px" height="24px" viewBox="0 0 24 24">
    <defs>
        <style>.cls-1{fill:#1a73e8;}.cls-2{fill:#ea4335;}.cls-3{fill:#4285f4;}.cls-4{fill:#fbbc04;}.cls-5{fill:#34a853;}</style>
    </defs>
    <g transform="scale(1.03, 1.03), translate(3.5, 0)">
        <path class="cls-1" d="M14.45.78A8.09,8.09,0,0,0,5.8,3.29L9.63,6.51Z" transform="translate(-3.91 -0.4)"/>
        <path class="cls-2" d="M5.8,3.29a8.07,8.07,0,0,0-1.89,5.2,9.06,9.06,0,0,0,.8,3.86L9.63,6.51Z" transform="translate(-3.91 -0.4)"/>
        <path class="cls-3" d="M12,5.4a3.09,3.09,0,0,1,3.1,3.09,3.06,3.06,0,0,1-.74,2l4.82-5.73a8.12,8.12,0,0,0-4.73-4L9.63,6.51A3.07,3.07,0,0,1,12,5.4Z" transform="translate(-3.91 -0.4)"/>
        <path class="cls-4" d="M12,11.59a3.1,3.1,0,0,1-3.1-3.1,3.07,3.07,0,0,1,.73-2L4.71,12.35A28.67,28.67,0,0,0,8.38,17.6l6-7.11A3.07,3.07,0,0,1,12,11.59Z" transform="translate(-3.91 -0.4)"/>
        <path class="cls-5" d="M14.25,19.54c2.7-4.22,5.84-6.14,5.84-11a8.1,8.1,0,0,0-.91-3.73L8.38,17.6c.46.6.92,1.24,1.37,1.94C11.4,22.08,10.94,23.6,12,23.6S12.6,22.08,14.25,19.54Z" transform="translate(-3.91 -0.4)"/>
    </g>
</svg>