<svg width="24px" height="24px" viewBox="0 0 24 24" version="1.1" xmlns="http://www.w3.org/2000/svg" xmlns:xlink="http://www.w3.org/1999/xlink">
    <g stroke="none" stroke-width="1" fill="none" fill-rule="evenodd">
        <path d="M6.62468572,8.14320304 L6.70775746,8.20293774 L11.6963633,12.0911527 C11.7823968,12.0792753 11.8691226,12.073005 11.955983,12.0723823 C12.7772671,12.0722179 13.5134228,12.57511 13.8061295,13.3363412 C14.0988361,14.0975725 13.8872951,14.959026 13.2744576,15.5014556 C12.6616201,16.0438852 11.77478,16.1546218 11.0455383,15.7797729 C10.3649126,15.4299138 9.95352194,14.7248812 9.97762075,13.974326 L9.98951103,13.8129089 L9.98827984,13.8115017 L6.13680825,8.75590897 C5.70660681,8.19119026 6.07901302,7.78381747 6.62468572,8.14320304 Z M21.1635963,14.1579185 C21.6255293,14.1579185 22,14.5293741 22,14.9875877 C22,15.4458014 21.6255293,15.817257 21.1635963,15.817257 C20.7016633,15.817257 20.3271927,15.4458014 20.3271927,14.9875877 C20.3271927,14.5293741 20.7016633,14.1579185 21.1635963,14.1579185 Z M4.8415736,9.21481561 L5.80492327,10.5381978 C4.69188967,11.8457891 3.93051933,13.4114981 3.5917055,15.0895375 C3.53742062,15.3719458 3.33392036,15.6034174 3.05925013,15.6951795 C2.78457989,15.7869417 2.48137353,15.7247511 2.26591523,15.5324589 C2.05045693,15.3401667 1.95618977,15.0476202 2.01926661,14.7670152 C2.43515928,12.6966876 3.41072797,10.7774946 4.8415736,9.21481561 Z M20.0661812,11.1451174 C20.5281142,11.1451174 20.9025849,11.516573 20.9025849,11.9747866 C20.9025849,12.4330003 20.5281142,12.8044559 20.0661812,12.8044559 C19.6042482,12.8044559 19.2297775,12.4330003 19.2297775,11.9747866 C19.2297775,11.516573 19.6042482,11.1451174 20.0661812,11.1451174 Z M18.102573,8.5706206 C18.564506,8.5706206 18.9389767,8.94207616 18.9389767,9.40028983 C18.9389767,9.85850349 18.564506,10.2299591 18.102573,10.2299591 C17.6406401,10.2299591 17.2661694,9.85850349 17.2661694,9.40028983 C17.2661694,8.94207616 17.6406401,8.5706206 18.102573,8.5706206 Z M15.3765127,6.7491714 C15.8384457,6.7491714 16.2129164,7.12062697 16.2129164,7.57884063 C16.2129164,8.0370543 15.8384457,8.40850987 15.3765127,8.40850987 C14.9145797,8.40850987 14.540109,8.0370543 14.540109,7.57884063 C14.540109,7.12062697 14.9145797,6.7491714 15.3765127,6.7491714 Z M9.09941694,6.54699761 C9.56134993,6.54699761 9.9358206,6.91845317 9.9358206,7.37666684 C9.9358206,7.8348805 9.56134993,8.20633607 9.09941694,8.20633607 C8.63748395,8.20633607 8.26301327,7.8348805 8.26301327,7.37666684 C8.26301327,6.91845317 8.63748395,6.54699761 9.09941694,6.54699761 Z M12.2526989,6 C12.7146319,6 13.0891026,6.37145557 13.0891026,6.82966923 C13.0891026,7.28788289 12.7146319,7.65933846 12.2526989,7.65933846 C11.7907659,7.65933846 11.4162952,7.28788289 11.4162952,6.82966923 C11.4162952,6.37145557 11.7907659,6 12.2526989,6 Z" fill="#4285F4" fill-rule="nonzero"></path>
    </g>
</svg>