<svg version="1.1" baseProfile="tiny" id="Layer_1" xmlns="http://www.w3.org/2000/svg" xmlns:xlink="http://www.w3.org/1999/xlink"
	 x="0px" y="0px" width="24px" height="24px" viewBox="0 0 24 24" overflow="visible" xml:space="preserve">
<g >
	<g transform="translate(0.999853, 3.000000)">
		<polygon id="Fill-1" fill-rule="evenodd" fill="#5C85DE" points="1,1.7 21,1.7 21,-0.7 1,-0.7 		"/>
		<polygon id="Fill-2" fill-rule="evenodd" fill="#3367D6" points="18.5,18.8 21,18.8 21,11.4 18.5,11.4 		"/>
		<polygon id="Fill-3" fill-rule="evenodd" fill="#3367D6" points="11,11.4 11,16.3 3.5,16.3 3.5,11.4 1,11.4 1,18.8 13.5,18.8 
			13.5,11.4 		"/>
		<path id="Fill-4" fill-rule="evenodd" fill="#5C85DE" d="M1,2.9L-0.2,9v2.4H1h12.5h5H21h1.2V9L21,2.9H1z M3.1,5.3H19L19.7,9H2.3
			L3.1,5.3z"/>
	</g>
</g>
</svg>
