<svg width="24px" height="24px" viewBox="0 0 24 24" version="1.1" xmlns="http://www.w3.org/2000/svg" xmlns:xlink="http://www.w3.org/1999/xlink">
    <g stroke="none" stroke-width="1" fill="none" fill-rule="evenodd">
        <path d="M12.0310614,12.0642851 C13.3454541,12.0642851 14.5306079,12.6194288 15.363663,13.5081381 C15.976415,12.80169 16.8711829,12.3768641 17.8395358,12.3768641 L18.7092539,12.3768641 C20.5266828,12.3768641 22,13.8595036 22,15.688432 C22,17.5173605 20.5266828,19 18.7092539,19 L4.91800973,19 C3.30643746,19 2,17.6852962 2,16.0635268 C2,14.4417575 3.30643746,13.1270537 4.91800973,13.1270537 L7.09083983,13.1270537 C7.64771463,13.1270537 8.18085745,13.2851376 8.63817028,13.5734403 C9.47242594,12.6474905 10.6838577,12.0642851 12.0310614,12.0642851 Z M7.09083983,14.373831 L4.91800973,14.373831 C3.99068405,14.373831 3.23893805,15.1303336 3.23893805,16.0635268 C3.23893805,16.9967201 3.99068405,17.7532227 4.91800973,17.7532227 L7.47358315,17.7532227 L7.473,17.6652851 L7.46679951,16.6232598 L7.466,16.619 L7.467,16.572 L7.472,16.405 L7.472,16.397 L7.47925145,16.2844578 L7.47925145,16.2844578 C7.48332094,16.2285783 7.48840662,16.1732944 7.49447113,16.1183059 C7.49653331,16.1003449 7.49867466,16.0819755 7.50092615,16.0636306 C7.50854306,16.0007331 7.51750748,15.9383883 7.52772089,15.8764652 C7.5313755,15.8551216 7.53499617,15.8341232 7.53876218,15.8131626 C7.56633282,15.6587211 7.60193215,15.5066274 7.64493021,15.3576722 C7.65547335,15.3217662 7.66626754,15.2860408 7.67749739,15.2504684 C7.69166101,15.2050493 7.70666677,15.1600155 7.72235042,15.1153004 L7.75656692,15.0215446 L7.75656692,15.0215446 C7.80824972,14.8835637 7.86652894,14.7489134 7.93092502,14.6178082 L7.93785059,14.6040482 L7.91401871,14.5902646 C7.6666442,14.4499031 7.38503761,14.373831 7.09083983,14.373831 Z M18.7092539,13.6236414 L17.8395358,13.6236414 C17.1295692,13.6236414 16.4837893,13.989174 16.1103813,14.5762442 L16.1176596,14.5904782 C16.1874478,14.7301807 16.2502675,14.8739686 16.305663,15.0213888 C16.3130415,15.041475 16.3202907,15.0611922 16.3274031,15.0809616 C16.3506035,15.1449325 16.3724773,15.2103231 16.3928897,15.2763556 C16.3978875,15.2930942 16.4030351,15.3100984 16.4080834,15.3271361 L16.4328911,15.4134768 L16.4328911,15.4134768 L16.4558352,15.5002438 C16.4810687,15.5997541 16.5030263,15.7005711 16.5215866,15.8025739 C16.5259199,15.8271437 16.5302,15.8517971 16.5342788,15.8765008 C16.5433732,15.9308581 16.5513809,15.9855764 16.5584068,16.0406019 C16.562581,16.073998 16.5664707,16.1073325 16.569996,16.1407441 C16.5750532,16.1880265 16.5793464,16.2359789 16.5828908,16.2841398 C16.5851128,16.3148667 16.5870493,16.3452528 16.588685,16.3756924 L16.5936575,16.498936 L16.5936575,16.498936 L16.5953232,16.6232598 L16.5953232,16.6232598 L16.5953232,17.7532227 L18.7092539,17.7532227 C19.8424362,17.7532227 20.7610619,16.8287844 20.7610619,15.688432 C20.7610619,14.5480797 19.8424362,13.6236414 18.7092539,13.6236414 Z M15.262,15.839 L15.262,15.842 L15.263,15.844 L15.262,15.839 Z M15.056,15.247 L15.058,15.25 L15.057173,15.247706 L15.051,15.235 L15.056,15.247 Z M5.78772783,7.88516303 C7.15682529,7.88516303 8.27087851,8.98758028 8.27087851,10.3527677 C8.27087851,11.7179551 7.15682529,12.8203724 5.78772783,12.8203724 C4.41863038,12.8203724 3.30457716,11.7179551 3.30457716,10.3527677 C3.30457716,8.98758028 4.41863038,7.88516303 5.78772783,7.88516303 Z M18.3637495,6.75987868 C19.8169419,6.75987868 20.9983775,7.93272328 20.9983775,9.38377285 C20.9983775,10.8348224 19.8169419,12.007667 18.3637495,12.007667 C16.910557,12.007667 15.7291215,10.8348224 15.7291215,9.38377285 C15.7291215,7.93272328 16.910557,6.75987868 18.3637495,6.75987868 Z M5.78772783,9.13194035 C5.09825938,9.13194035 4.54351521,9.68089037 4.54351521,10.3527677 C4.54351521,11.0246451 5.09825938,11.5735951 5.78772783,11.5735951 C6.47719629,11.5735951 7.03194046,11.0246451 7.03194046,10.3527677 C7.03194046,9.68089037 6.47719629,9.13194035 5.78772783,9.13194035 Z M12.0621227,5 C13.6718226,5 14.9801325,6.29879635 14.9801325,7.90521527 C14.9801325,9.51163418 13.6718226,10.8104305 12.0621227,10.8104305 C10.4524229,10.8104305 9.14411299,9.51163418 9.14411299,7.90521527 C9.14411299,6.29879635 10.4524229,5 12.0621227,5 Z M18.3637495,8.00665599 C17.5910588,8.00665599 16.9680595,8.62512504 16.9680595,9.38377285 C16.9680595,10.1424207 17.5910588,10.7608897 18.3637495,10.7608897 C19.1364402,10.7608897 19.7594394,10.1424207 19.7594394,9.38377285 C19.7594394,8.62512504 19.1364402,8.00665599 18.3637495,8.00665599 Z M12.0621227,6.24677732 C11.1329246,6.24677732 10.383051,6.99119811 10.383051,7.90521527 C10.383051,8.81923242 11.1329246,9.56365321 12.0621227,9.56365321 C12.9913208,9.56365321 13.7411944,8.81923242 13.7411944,7.90521527 C13.7411944,6.99119811 12.9913208,6.24677732 12.0621227,6.24677732 Z M9.071,15.111 L9.08,15.092 L9.07099064,15.1114118 L9.07099064,15.1114118 L9.068,15.115 L9.071,15.111 Z M15.188,15.583 L15.203,15.629 L15.1950232,15.6012301 L15.1950232,15.6012301 L15.179,15.554 L15.188,15.583 Z M15.188,15.583 L15.172,15.534 L15.1717375,15.53154 L15.161,15.503 L15.16,15.5 L15.15415,15.4832986 L15.146,15.462 L15.145,15.459 L15.1373967,15.4380642 L15.1373967,15.4380642 L15.127,15.413 L15.118,15.39 L15.115,15.383 L15.1124466,15.3758503 L15.112,15.374 L15.105,15.357 L15.109,15.368 L15.076,15.29 L15.07,15.276 L15.0671378,15.270242 L15.056,15.247 L15.047,15.228 L15.048,15.229 L15.029,15.19 L15.025,15.182 L15.021,15.174 L15.023,15.177 L15.0221913,15.1744804 L15.0109106,15.1511218 L15.001,15.133 L15,15.131 L14.98,15.092 L14.97,15.073 L14.963,15.06 L14.958,15.051 L14.942,15.022 L14.9243898,14.9896202 C14.9072948,14.9596453 14.8897438,14.9299618 14.8717461,14.900579 L14.8213513,14.8207016 L14.8213513,14.8207016 L14.793,14.779 L14.808,14.803 L14.7639334,14.7357679 C14.1636196,13.8749822 13.163856,13.3110624 12.0310614,13.3110624 C10.89978,13.3110624 9.90117024,13.8734765 9.3005898,14.7314402 L9.29927845,14.7340621 C9.21908032,14.8488588 9.14651815,14.968116 9.0818949,15.0911658 L9.071,15.111 L9.051,15.151 L9.059,15.133 L9.038,15.177 L9.036,15.182 L9.032,15.19 L9.01331302,15.2287468 L9.01331302,15.2287468 L9.005,15.247 L9.004,15.25 L8.994,15.27 L8.992,15.276 L8.98558252,15.2905825 L8.974,15.315 L8.98,15.303 L8.90146725,15.5000919 C8.87584634,15.5708695 8.85265906,15.6425527 8.83195383,15.7150346 L8.77733272,15.9347704 L8.772,15.958 L8.77,15.969 L8.765,15.993 L8.75790381,16.033852 L8.75790381,16.033852 L8.753,16.061 L8.753,16.063 L8.748,16.091 L8.748,16.094 L8.744,16.118 L8.742,16.13 L8.74,16.14 L8.74,16.141 L8.72169738,16.2941354 C8.7110976,16.4016416 8.70572805,16.5101941 8.70572623,16.6194897 L8.712,17.6652851 L8.71253982,17.7532227 L15.3563852,17.7532227 L15.3563852,16.6232598 C15.3563852,16.5463884 15.3537588,16.4699281 15.3485532,16.3939771 L15.346,16.373 L15.347,16.375 C15.3465351,16.3663828 15.3460135,16.3597006 15.3454721,16.353024 L15.346,16.372 L15.345,16.351 L15.343,16.33 L15.340576,16.2979743 L15.340576,16.2979743 L15.338,16.284 L15.333,16.236 L15.33,16.212 L15.33,16.209 L15.3298567,16.2025619 L15.3198319,16.1305617 L15.3198319,16.1305617 L15.3142579,16.0941876 L15.3142579,16.0941876 L15.3028849,16.0284041 L15.3028849,16.0284041 L15.287,15.95 L15.284,15.934 L15.28,15.917 L15.2725654,15.8804611 L15.2725654,15.8804611 L15.263,15.844 L15.27,15.876 L15.262,15.842 L15.255,15.813 L15.252,15.802 L15.252,15.8 L15.2315153,15.7211219 L15.2315153,15.7211219 L15.229,15.715 L15.221,15.688 L15.188,15.583 Z" fill="#4285F4" fill-rule="nonzero"></path>
    </g>
</svg>