<?xml version="1.0" encoding="UTF-8"?>
<svg width="24px" height="24px" viewBox="0 0 24 24" version="1.1" xmlns="http://www.w3.org/2000/svg" xmlns:xlink="http://www.w3.org/1999/xlink">
    <title>Icon-Architecture/16/Arch_AWS-Marketplace_Light_16</title>
    <g id="Icon-Architecture/16/Arch_AWS-Marketplace_Light_16" stroke="none" stroke-width="1" fill="none" fill-rule="evenodd">
        <rect id="Rectangle" fill="#232F3E" x="0" y="0" width="24" height="24"></rect>
        <g id="Icon-Service/16/AWS-Marketplace_16" transform="translate(4.000000, 4.000000)" fill="#FFFFFF">
            <path d="M16.955,3.02776119 L16.955,4.02776119 L13.918,4.02776119 L12.95,10.5857612 C12.913,10.8307612 12.703,11.0117612 12.455,11.0117612 L2.773,11.0117612 C2.545,11.0117612 2.346,10.8577612 2.289,10.6367612 L1,5.62276119 L1.969,5.37376119 L3.161,10.0117612 L12.023,10.0117612 L12.991,3.45476119 C13.028,3.20976119 13.238,3.02776119 13.486,3.02776119 L16.955,3.02776119 Z M9.955,13.5067612 C9.68,13.5067612 9.455,13.2817612 9.455,13.0067612 C9.455,12.7307612 9.68,12.5067612 9.955,12.5067612 C10.23,12.5067612 10.455,12.7307612 10.455,13.0067612 C10.455,13.2817612 10.23,13.5067612 9.955,13.5067612 L9.955,13.5067612 Z M9.955,11.5067612 C9.128,11.5067612 8.455,12.1787612 8.455,13.0067612 C8.455,13.8337612 9.128,14.5067612 9.955,14.5067612 C10.782,14.5067612 11.455,13.8337612 11.455,13.0067612 C11.455,12.1787612 10.782,11.5067612 9.955,11.5067612 L9.955,11.5067612 Z M4.955,13.5067612 C4.68,13.5067612 4.455,13.2817612 4.455,13.0067612 C4.455,12.7307612 4.68,12.5067612 4.955,12.5067612 C5.23,12.5067612 5.455,12.7307612 5.455,13.0067612 C5.455,13.2817612 5.23,13.5067612 4.955,13.5067612 L4.955,13.5067612 Z M4.955,11.5067612 C4.128,11.5067612 3.455,12.1787612 3.455,13.0067612 C3.455,13.8337612 4.128,14.5067612 4.955,14.5067612 C5.782,14.5067612 6.455,13.8337612 6.455,13.0067612 C6.455,12.1787612 5.782,11.5067612 4.955,11.5067612 L4.955,11.5067612 Z M7.476,2.55576119 L9.166,3.39176119 L7.476,4.06976119 L5.722,3.39176119 L7.476,2.55576119 Z M7.98,7.23176119 L7.98,4.94576119 L9.89,4.17876119 L9.89,6.34276119 L7.98,7.23176119 Z M4.958,4.16876119 L6.98,4.95076119 L6.98,7.24376119 L4.958,6.33776119 L4.958,4.16876119 Z M4.254,7.11776119 L7.276,8.47176119 C7.341,8.50176119 7.411,8.51576119 7.48,8.51576119 C7.553,8.51576119 7.625,8.50076119 7.691,8.46876119 L10.601,7.11476119 C10.777,7.03276119 10.89,6.85576119 10.89,6.66176119 L10.89,3.43876119 C10.89,3.24876119 10.782,3.07476119 10.611,2.99076119 L7.702,1.55176119 C7.563,1.48376119 7.404,1.48276119 7.266,1.54876119 L4.243,2.98676119 C4.069,3.06976119 3.958,3.24576119 3.958,3.43876119 L3.958,6.66176119 C3.958,6.85876119 4.073,7.03676119 4.254,7.11776119 L4.254,7.11776119 Z" id="Fill-8"></path>
        </g>
    </g>
</svg>