<?xml version="1.0" encoding="UTF-8"?>
<svg width="24px" height="24px" viewBox="0 0 24 24" version="1.1" xmlns="http://www.w3.org/2000/svg" xmlns:xlink="http://www.w3.org/1999/xlink">
    <!-- Generator: Sketch 64 (93537) - https://sketch.com -->
    <title>Icon-Architecture/16/Arch_AWS-Simple-Notification-Service_16</title>
    <desc>Created with Sketch.</desc>
    <defs>
        <linearGradient x1="0%" y1="100%" x2="100%" y2="0%" id="linearGradient-1">
            <stop stop-color="#B0084D" offset="0%"></stop>
            <stop stop-color="#FF4F8B" offset="100%"></stop>
        </linearGradient>
    </defs>
    <g id="Icon-Architecture/16/Arch_AWS-Simple-Notification-Service_16" stroke="none" stroke-width="1" fill="none" fill-rule="evenodd">
        <g id="Icon-Architecture-BG/16/Application-Integration" fill="url(#linearGradient-1)">
            <rect id="Rectangle" x="0" y="0" width="24" height="24"></rect>
        </g>
        <path d="M6.4951189,11.5607705 C6.4951189,11.9743992 6.15969962,12.3097195 5.74818523,12.3097195 C5.33667084,12.3097195 5.00125156,11.9743992 5.00125156,11.5607705 C5.00125156,11.1471419 5.33667084,10.8118215 5.74818523,10.8118215 C6.15969962,10.8118215 6.4951189,11.1471419 6.4951189,11.5607705 L6.4951189,11.5607705 Z M12.4395494,18.9960469 C9.28861076,18.9960469 6.52015019,16.6006149 5.7261577,13.3116647 C5.73316646,13.3116647 5.74017522,13.3136726 5.74818523,13.3136726 C6.71239049,13.3136726 7.49637046,12.5275773 7.49637046,11.5607705 C7.49637046,10.6441614 6.78948686,9.89822426 5.89436796,9.82292778 C6.84155194,6.99579595 9.47083855,5.00395307 12.4395494,5.00395307 C13.7481852,5.00395307 14.8715895,5.23486227 15.7787234,5.68965301 L16.2272841,4.79111502 C15.1789737,4.26604756 13.9043805,4 12.4395494,4 C8.82202753,4 5.62302879,6.56610403 4.74593242,10.1291335 C4.29637046,10.4463826 4,10.9684382 4,11.5607705 C4,12.0958775 4.24530663,12.5697434 4.62377972,12.8910083 C5.29461827,16.9570183 8.61677096,20 12.4395494,20 C13.58398,20 14.9296621,19.6395808 16.2282854,18.9850035 L15.7777222,18.0874694 C14.6162703,18.673778 13.4307885,18.9960469 12.4395494,18.9960469 L12.4395494,18.9960469 Z M8.75994994,9.96046935 L12.2392991,9.96046935 L11.0217772,12.8056723 C10.9947434,12.8689214 10.9807259,12.9361862 10.9807259,13.0034511 L10.9807259,14.7061555 L10.0455569,15.1910648 L10.0455569,13.0034511 C10.0455569,12.9341783 10.0305382,12.8659095 10.0035044,12.8016565 L8.75994994,9.96046935 Z M9.28460576,16.4450022 C9.36370463,16.4931919 9.45481852,16.5172868 9.54493116,16.5172868 C9.62403004,16.5172868 9.70212766,16.4992157 9.77421777,16.4620694 L11.7116395,15.4581163 C11.8778473,15.3717764 11.9819775,15.2001004 11.9819775,15.0123612 L11.9819775,13.1068583 L13.4588235,9.65727552 C13.5249061,9.5016628 13.5098874,9.32295915 13.4177722,9.18240572 C13.3246558,9.04185229 13.1674593,8.95651628 12.9992491,8.95651628 L7.99299124,8.95651628 C7.82377972,8.95651628 7.66658323,9.04285625 7.57346683,9.18441363 C7.48135169,9.32597101 7.46733417,9.50567861 7.53441802,9.66028738 L9.04430538,13.1088662 L9.04430538,16.0153103 C9.04430538,16.1910021 9.13541927,16.3536425 9.28460576,16.4450022 L9.28460576,16.4450022 Z M18.2518148,14.823618 C18.6633292,14.823618 18.9987484,15.1589383 18.9987484,15.572567 C18.9987484,15.9861956 18.6633292,16.3225199 18.2518148,16.3225199 C17.8403004,16.3225199 17.5048811,15.9861956 17.5048811,15.572567 C17.5048811,15.1589383 17.8403004,14.823618 18.2518148,14.823618 L18.2518148,14.823618 Z M18.2518148,6.75384326 C18.6633292,6.75384326 18.9987484,7.09016753 18.9987484,7.50279224 C18.9987484,7.91642091 18.6633292,8.25274518 18.2518148,8.25274518 C17.8403004,8.25274518 17.5048811,7.91642091 17.5048811,7.50279224 C17.5048811,7.09016753 17.8403004,6.75384326 18.2518148,6.75384326 L18.2518148,6.75384326 Z M18.2518148,10.8118215 C18.6633292,10.8118215 18.9987484,11.1471419 18.9987484,11.5607705 C18.9987484,11.9743992 18.6633292,12.3097195 18.2518148,12.3097195 C17.8403004,12.3097195 17.5048811,11.9743992 17.5048811,11.5607705 C17.5048811,11.1471419 17.8403004,10.8118215 18.2518148,10.8118215 L18.2518148,10.8118215 Z M16.0030038,12.0627471 L16.5857322,12.0627471 C16.8030038,12.7835854 17.4628285,13.3136726 18.2518148,13.3136726 C19.21602,13.3136726 20,12.5275773 20,11.5607705 C20,10.5939637 19.21602,9.80786848 18.2518148,9.80786848 C17.4628285,9.80786848 16.8030038,10.3379557 16.5857322,11.058794 L16.0030038,11.058794 L16.0030038,8.00476878 L16.5857322,8.00476878 C16.8030038,8.72661103 17.4628285,9.25669825 18.2518148,9.25669825 C19.21602,9.25669825 20,8.46959905 20,7.50279224 C20,6.5369894 19.21602,5.74989019 18.2518148,5.74989019 C17.4628285,5.74989019 16.8030038,6.27997741 16.5857322,7.00081571 L15.502378,7.00081571 C15.2260325,7.00081571 15.0017522,7.2257012 15.0017522,7.50279224 L15.0017522,11.058794 L14.0005006,11.058794 L14.0005006,12.0627471 L15.0017522,12.0627471 L15.0017522,15.572567 C15.0017522,15.849658 15.2260325,16.0745435 15.502378,16.0745435 L16.5857322,16.0745435 C16.8030038,16.7953818 17.4628285,17.326473 18.2518148,17.326473 C19.21602,17.326473 20,16.5393738 20,15.572567 C20,14.6057602 19.21602,13.8196649 18.2518148,13.8196649 C17.4628285,13.8196649 16.8030038,14.3497521 16.5857322,15.0705904 L16.0030038,15.0705904 L16.0030038,12.0627471 Z" id="AWS-Simple-Notification-Service_Icon_16_Squid" fill="#FFFFFF"></path>
    </g>
</svg>