<?xml version="1.0" encoding="UTF-8"?>
<svg width="24px" height="24px" viewBox="0 0 24 24" version="1.1" xmlns="http://www.w3.org/2000/svg" xmlns:xlink="http://www.w3.org/1999/xlink">
    <!-- Generator: Sketch 64 (93537) - https://sketch.com -->
    <title>Icon-Architecture/16/Arch_AWS-Simple-Queue-Service_16</title>
    <desc>Created with Sketch.</desc>
    <defs>
        <linearGradient x1="0%" y1="100%" x2="100%" y2="0%" id="linearGradient-1">
            <stop stop-color="#B0084D" offset="0%"></stop>
            <stop stop-color="#FF4F8B" offset="100%"></stop>
        </linearGradient>
    </defs>
    <g id="Icon-Architecture/16/Arch_AWS-Simple-Queue-Service_16" stroke="none" stroke-width="1" fill="none" fill-rule="evenodd">
        <g id="Icon-Architecture-BG/16/Application-Integration" fill="url(#linearGradient-1)">
            <rect id="Rectangle" x="0" y="0" width="24" height="24"></rect>
        </g>
        <path d="M8.00538392,12.9850432 L9.00704291,12.9850432 L9.00704291,11.9942745 L8.00538392,11.9942745 L8.00538392,12.9850432 Z M15.0169969,12.986034 L16.0186559,12.986034 L16.0186559,11.9952653 L15.0169969,11.9952653 L15.0169969,12.986034 Z M12.7903089,11.2234565 C12.2824678,11.3522564 11.741572,11.3522564 11.2337309,11.2234565 C11.4350643,12.005173 11.4350643,12.8780402 11.2337309,13.6597567 C11.4881523,13.5953567 11.7485836,13.5626614 12.0120199,13.5626614 C12.2754562,13.5626614 12.5358876,13.5953567 12.7903089,13.6597567 C12.5889755,12.8780402 12.5889755,12.005173 12.7903089,11.2234565 L12.7903089,11.2234565 Z M14.3699252,10.3149216 C13.4053276,11.2690318 13.4053276,13.6141813 14.3699252,14.5682916 C14.4670861,14.6653869 14.5161674,14.7922053 14.5161674,14.9190237 C14.5161674,15.0458421 14.4670861,15.1726605 14.3699252,15.2687651 C14.2717626,15.3658604 14.1435503,15.4144081 14.0153379,15.4144081 C13.8871256,15.4144081 13.7589132,15.3658604 13.6617523,15.2687651 C12.7282061,14.3463594 11.2958337,14.3463594 10.3632892,15.2687651 C10.166964,15.4629557 9.85043979,15.4629557 9.65511629,15.2687651 C9.5569537,15.1726605 9.50787241,15.0458421 9.50787241,14.9190237 C9.50787241,14.7922053 9.5569537,14.6653869 9.65511629,14.5682916 C10.6187122,13.6141813 10.6187122,11.2690318 9.65511629,10.3149216 C9.5569537,10.218817 9.50787241,10.0919986 9.50787241,9.96518021 C9.50787241,9.83836181 9.5569537,9.71154342 9.65511629,9.61444809 C9.85043979,9.42124819 10.166964,9.42124819 10.3632892,9.61444809 C11.2958337,10.5378445 12.7282061,10.5378445 13.6617523,9.61444809 C13.8570758,9.42124819 14.1736,9.42124819 14.3699252,9.61444809 C14.4670861,9.71154342 14.5161674,9.83836181 14.5161674,9.96518021 C14.5161674,10.0919986 14.4670861,10.218817 14.3699252,10.3149216 L14.3699252,10.3149216 Z M18.8162895,12.0794806 C18.6980937,11.9635607 18.5418349,11.8991607 18.3755595,11.8991607 C18.2082825,11.8991607 18.051022,11.9635607 17.9328262,12.0794806 C17.6894231,12.3212282 17.6894231,12.7125818 17.9328262,12.9533386 C18.1692178,13.1851785 18.5788963,13.18716 18.8162895,12.9533386 C19.0596926,12.7125818 19.0596926,12.3212282 18.8162895,12.0794806 L18.8162895,12.0794806 Z M19.5244624,13.6538121 C19.2169531,13.9569873 18.8092779,14.1244272 18.3755595,14.1244272 C17.9398379,14.1244272 17.5321626,13.9569873 17.2246533,13.6538121 C16.5906032,13.0266555 16.5906032,12.0061637 17.2246533,11.3790071 C17.8376686,10.7726567 18.9094438,10.7716659 19.5244624,11.3790071 C20.1585125,12.0061637 20.1585125,13.0266555 19.5244624,13.6538121 L19.5244624,13.6538121 Z M6.0661721,12.0854252 C5.94797634,11.9695053 5.79171753,11.9051053 5.62544214,11.9051053 C5.45816509,11.9051053 5.30190628,11.9695053 5.18371052,12.0854252 C4.93930573,12.326182 4.93930573,12.7185264 5.18371052,12.9592832 C5.42010204,13.1911231 5.82978057,13.1931046 6.0661721,12.9592832 C6.31057689,12.7185264 6.31057689,12.326182 6.0661721,12.0854252 L6.0661721,12.0854252 Z M6.77534667,13.6597567 C6.46783736,13.9629319 6.06016214,14.1303718 5.62544214,14.1303718 C5.18972047,14.1303718 4.78204526,13.9629319 4.47553761,13.6597567 C3.84148746,13.0326001 3.84148746,12.0121083 4.47553761,11.3849518 C5.08955457,10.7776105 6.15932638,10.7776105 6.77534667,11.3849518 C7.40839515,12.0121083 7.40839515,13.0326001 6.77534667,13.6597567 L6.77534667,13.6597567 Z M15.8844336,16.4081491 C13.7248568,18.5432556 10.2130403,18.5422649 8.05546687,16.4081491 C7.47650797,15.8354848 7.10889911,15.3371281 6.86148934,14.7922053 L5.94797634,15.196439 C6.24647072,15.8562909 6.67818575,16.4467891 7.34729396,17.1086225 C8.6214042,18.3698711 10.2951764,19 11.9699502,19 C13.6437224,19 15.3184963,18.3698711 16.5926065,17.1086225 C17.1044543,16.6033305 17.6753999,15.9821185 18.0400038,15.2013928 L17.1294957,14.7862607 C16.8330047,15.423325 16.356215,15.9424878 15.8844336,16.4081491 L15.8844336,16.4081491 Z M6.8795192,10.1722509 L5.97001283,9.75711878 C6.26750556,9.12104527 6.70523054,8.52856559 7.34929727,7.89051055 C9.8965161,5.36999497 14.0433844,5.36999497 16.5906032,7.88951978 C17.0563746,8.35121799 17.6393402,8.97936535 18.0139606,9.7501834 L17.1124675,10.1791862 C16.8670611,9.67587575 16.4994522,9.20129754 15.8824303,8.58999325 C13.7238551,6.45686824 10.214042,6.45884977 8.05747018,8.58999325 C7.49153285,9.15076834 7.12893229,9.63822654 6.8795192,10.1722509 L6.8795192,10.1722509 Z" id="AWS-Simple-Queue-Service_Icon_16_Squid" fill="#FFFFFF"></path>
    </g>
</svg>