<?xml version="1.0" encoding="UTF-8"?>
<svg width="24px" height="24px" viewBox="0 0 24 24" version="1.1" xmlns="http://www.w3.org/2000/svg" xmlns:xlink="http://www.w3.org/1999/xlink">
    <title>Icon-Architecture/16/Arch_AWS-Console-Mobile-Application _16</title>
    <defs>
        <linearGradient x1="0%" y1="100%" x2="100%" y2="0%" id="linearGradient-1">
            <stop stop-color="#B0084D" offset="0%"></stop>
            <stop stop-color="#FF4F8B" offset="100%"></stop>
        </linearGradient>
    </defs>
    <g id="Icon-Architecture/16/Arch_AWS-Console-Mobile-Application-_16" stroke="none" stroke-width="1" fill="none" fill-rule="evenodd">
        <g id="Rectangle" fill="url(#linearGradient-1)">
            <rect x="0" y="0" width="24" height="24"></rect>
        </g>
        <g id="Icon-Service/16/AWS-Console-Mobile-Application_16" transform="translate(4.000000, 4.000000)" fill="#FFFFFF">
            <path d="M0,10 L6,10 L6,9 L0,9 L0,10 Z M3,8 L7,8 L7,7 L3,7 L3,8 Z M8.507,8.602 C8.507,8.499 8.507,8.259 8.879,8.17 C9.127,8.11 9.29,7.874 9.258,7.621 C9.254,7.587 9.251,7.554 9.251,7.52 C9.251,7.263 9.461,6.894 9.762,6.773 C9.9,6.718 10.028,6.696 10.144,6.696 C10.471,6.696 10.7,6.872 10.801,6.967 C10.91,7.071 11,7.212 11.061,7.375 C11.124,7.544 11.318,7.65 11.497,7.678 C11.686,7.707 11.902,7.617 12.012,7.475 C12.06,7.489 12.095,7.559 12.107,7.659 C12.106,7.764 12.137,7.867 12.197,7.953 C12.275,8.063 12.394,8.138 12.527,8.16 C12.841,8.211 13,8.362 13,8.609 C13,8.917 12.765,8.991 12.583,9 L9.018,9 C8.773,9 8.52,8.875 8.507,8.602 L8.507,8.602 Z M12.593,10 C13.158,9.989 14,9.609 14,8.609 C14,7.879 13.537,7.455 13.04,7.267 C12.919,6.9 12.655,6.625 12.304,6.518 C12.107,6.458 11.907,6.456 11.721,6.505 C11.65,6.41 11.573,6.322 11.488,6.241 C10.914,5.697 10.129,5.548 9.391,5.845 C8.797,6.082 8.337,6.704 8.262,7.339 C7.788,7.588 7.507,8.059 7.5089894,8.688 C7.548,9.435 8.196,9.999 9.018,10 L12.593,10 Z M14.5,15 L7.5,15 C7.225,15 7,14.776 7,14.5 L7,14 L15,14 L15,14.5 C15,14.776 14.775,15 14.5,15 L14.5,15 Z M7,2 L7,1.5 C7,1.224 7.225,1 7.5,1 L14.5,1 C14.775,1 15,1.224 15,1.5 L15,2 L7,2 Z M14.5,0 L7.5,0 C6.673,0 6,0.673 6,1.5 L6,6 L7,6 L7,3 L15,3 L15,13 L7,13 L7,11 L6,11 L6,14.5 C6,15.327 6.673,16 7.5,16 L14.5,16 C15.327,16 16,15.327 16,14.5 L16,1.5 C16,0.673 15.327,0 14.5,0 L14.5,0 Z" id="AWS-Console-Mobile-Application_16_Squid"></path>
        </g>
    </g>
</svg>