<?xml version="1.0" encoding="UTF-8"?>
<svg width="24px" height="24px" viewBox="0 0 24 24" version="1.1" xmlns="http://www.w3.org/2000/svg" xmlns:xlink="http://www.w3.org/1999/xlink">
    <!-- Generator: Sketch 64 (93537) - https://sketch.com -->
    <title>Icon-Architecture/16/Arch_Amazon-EventBridge_16</title>
    <desc>Created with Sketch.</desc>
    <defs>
        <linearGradient x1="0%" y1="100%" x2="100%" y2="0%" id="linearGradient-1">
            <stop stop-color="#B0084D" offset="0%"></stop>
            <stop stop-color="#FF4F8B" offset="100%"></stop>
        </linearGradient>
    </defs>
    <g id="Icon-Architecture/16/Arch_Amazon-EventBridge_16" stroke="none" stroke-width="1" fill="none" fill-rule="evenodd">
        <g id="Icon-Architecture-BG/16/Application-Integration" fill="url(#linearGradient-1)">
            <rect id="Rectangle" x="0" y="0" width="24" height="24"></rect>
        </g>
        <path d="M6.5485452,16.461 C6.00062039,16.461 5.55592779,16.012 5.55592779,15.461 C5.55592779,14.91 6.00062039,14.461 6.5485452,14.461 C7.09647,14.461 7.5411626,14.91 7.5411626,15.461 C7.5411626,16.012 7.09647,16.461 6.5485452,16.461 L6.5485452,16.461 Z M7.89254917,16.924 C8.28463304,16.558 8.53378001,16.041 8.53378001,15.461 C8.53378001,14.358 7.6434022,13.461 6.5485452,13.461 C6.34406601,13.461 6.15050561,13.502 5.96389354,13.56 L5.06954526,11.998 L6.3718593,9.723 L5.51324524,9.223 L4.06700168,11.748 C3.97766611,11.902 3.97766611,12.093 4.06700168,12.248 L5.11818351,14.081 C4.77672312,14.44 4.56331038,14.925 4.56331038,15.461 C4.56331038,16.564 5.45368819,17.461 6.5485452,17.461 C6.71133445,17.461 6.86717538,17.436 7.01904585,17.398 L7.79527266,18.753 C7.88361561,18.908 8.04739748,19.003 8.22408338,19.003 L10.998449,19.003 L10.998449,18.003 L8.51194243,18.003 L7.89254917,16.924 Z M17.4504622,9.517 C16.90353,9.517 16.4578448,9.068 16.4578448,8.517 C16.4578448,7.965 16.90353,7.517 17.4504622,7.517 C17.998387,7.517 18.4430796,7.965 18.4430796,8.517 C18.4430796,9.068 17.998387,9.517 17.4504622,9.517 L17.4504622,9.517 Z M18.8818165,9.896 C19.2232769,9.537 19.435697,9.052 19.435697,8.517 C19.435697,7.414 18.5453192,6.517 17.4504622,6.517 C17.2876729,6.517 17.1328246,6.542 16.9809542,6.58 L16.20572,5.225 C16.117377,5.07 15.9535951,4.975 15.7759166,4.975 L13.001551,4.975 L13.001551,5.975 L15.4890502,5.975 L16.1074508,7.054 C15.715367,7.419 15.4652274,7.937 15.4652274,8.517 C15.4652274,9.62 16.3565978,10.517 17.4504622,10.517 C17.6549414,10.517 17.8494944,10.476 18.0351138,10.418 L18.9314474,11.981 L17.6271481,14.254 L18.4857621,14.754 L19.9329983,12.231 C20.0223339,12.076 20.0223339,11.885 19.9329983,11.731 L18.8818165,9.896 Z M15.9794032,19 C15.4314784,19 14.9867858,18.551 14.9867858,18 C14.9867858,17.448 15.4314784,17 15.9794032,17 C16.527328,17 16.9720206,17.448 16.9720206,18 C16.9720206,18.551 16.527328,19 15.9794032,19 L15.9794032,19 Z M12.9836839,14.1 L10.7949625,14.1 L9.59091755,12 L10.7066195,10.053 L10.9607296,9.899 L13.2010671,9.899 L14.405112,12 L13.3162107,13.898 L12.9836839,14.1 Z M8.03846392,7 C7.49053912,7 7.04584652,6.551 7.04584652,6 C7.04584652,5.448 7.49053912,5 8.03846392,5 C8.58638873,5 9.03108133,5.448 9.03108133,6 C9.03108133,6.551 8.58638873,7 8.03846392,7 L8.03846392,7 Z M15.9794032,16 C15.6577951,16 15.3570321,16.085 15.0880328,16.222 L14.0914449,14.547 L15.4076556,12.25 C15.4969911,12.095 15.4969911,11.904 15.4076556,11.75 L13.9177368,9.149 C13.8293939,8.995 13.665612,8.899 13.4879335,8.899 L10.7264719,8.899 L9.67231218,7.13 C9.89366586,6.808 10.0236987,6.419 10.0236987,6 C10.0236987,4.897 9.13332093,4 8.03846392,4 C6.94360692,4 6.05322911,4.897 6.05322911,6 C6.05322911,7.103 6.94360692,8 8.03846392,8 C8.35113841,8 8.64396054,7.919 8.90799677,7.789 L9.9016068,9.459 L8.58936659,11.75 C8.50003102,11.904 8.50003102,12.095 8.58936659,12.25 L10.0792853,14.85 C10.1676283,15.004 10.3314101,15.1 10.508096,15.1 L13.2626093,15.1 L14.3286804,16.891 C14.1182455,17.209 13.9941684,17.589 13.9941684,18 C13.9941684,19.103 14.8845462,20 15.9794032,20 C17.0742602,20 17.964638,19.103 17.964638,18 C17.964638,16.897 17.0742602,16 15.9794032,16 L15.9794032,16 Z" id="Amazon-EventBridge_Icon_16_Squid" fill="#FFFFFF"></path>
    </g>
</svg>