<?xml version="1.0" encoding="UTF-8"?>
<svg width="24px" height="24px" viewBox="0 0 24 24" version="1.1" xmlns="http://www.w3.org/2000/svg" xmlns:xlink="http://www.w3.org/1999/xlink">
    <!-- Generator: Sketch 64 (93537) - https://sketch.com -->
    <title>Icon-Architecture/16/Arch_AWS-Express-Workflow_16</title>
    <desc>Created with Sketch.</desc>
    <defs>
        <linearGradient x1="0%" y1="100%" x2="100%" y2="0%" id="linearGradient-1">
            <stop stop-color="#B0084D" offset="0%"></stop>
            <stop stop-color="#FF4F8B" offset="100%"></stop>
        </linearGradient>
    </defs>
    <g id="Icon-Architecture/16/Arch_AWS-Express-Workflow_16" stroke="none" stroke-width="1" fill="none" fill-rule="evenodd">
        <g id="Icon-Architecture-BG/16/Application-Integration" fill="url(#linearGradient-1)">
            <rect id="Rectangle" x="0" y="0" width="24" height="24"></rect>
        </g>
        <path d="M18.3956432,13 L14.1316432,13 L14.6046432,11 L18.8686432,11 L18.3956432,13 Z M15.9996432,15 L7.99964323,15 L7.99964323,13 L10.0076432,13 C10.2386432,13 10.4386432,12.843 10.4936432,12.62 L10.9856432,10.62 C11.0226432,10.47 10.9886432,10.312 10.8936432,10.191 C10.7986432,10.071 10.6536432,10 10.4996432,10 L7.99964323,10 L7.99964323,9 L15.9996432,9 L15.9996432,10 L14.2086432,10 C13.9776432,10 13.7756432,10.159 13.7226432,10.385 L13.0136432,13.385 C12.9786432,13.534 13.0126432,13.69 13.1076432,13.81 C13.2036432,13.93 13.3476432,14 13.4996432,14 L15.9996432,14 L15.9996432,15 Z M5.13764323,12 L5.38364323,11 L9.86264323,11 L9.61664323,12 L5.13764323,12 Z M11.4996432,19 C11.2246432,19 10.9996432,18.776 10.9996432,18.5 C10.9996432,18.224 11.2246432,18 11.4996432,18 C11.7756432,18 11.9996432,18.224 11.9996432,18.5 C11.9996432,18.776 11.7756432,19 11.4996432,19 L11.4996432,19 Z M11.4996432,5 C11.7756432,5 11.9996432,5.224 11.9996432,5.5 C11.9996432,5.776 11.7756432,6 11.4996432,6 C11.2246432,6 10.9996432,5.776 10.9996432,5.5 C10.9996432,5.224 11.2246432,5 11.4996432,5 L11.4996432,5 Z M19.4996432,10 L16.9996432,10 L16.9996432,8.5 C16.9996432,8.224 16.7766432,8 16.4996432,8 L11.9996432,8 L11.9996432,6.908 C12.5816432,6.701 12.9996432,6.151 12.9996432,5.5 C12.9996432,4.673 12.3276432,4 11.4996432,4 C10.6726432,4 9.99964323,4.673 9.99964323,5.5 C9.99964323,6.151 10.4186432,6.701 10.9996432,6.908 L10.9996432,8 L7.49964323,8 C7.22364323,8 6.99964323,8.224 6.99964323,8.5 L6.99964323,10 L4.99264323,10 C4.76164323,10 4.56164323,10.157 4.50664323,10.38 L4.01464323,12.38 C3.97764323,12.53 4.01164323,12.688 4.10664323,12.809 C4.20164323,12.929 4.34664323,13 4.49964323,13 L6.99964323,13 L6.99964323,15.5 C6.99964323,15.776 7.22364323,16 7.49964323,16 L10.9996432,16 L10.9996432,17.092 C10.4186432,17.299 9.99964323,17.849 9.99964323,18.5 C9.99964323,19.327 10.6726432,20 11.4996432,20 C12.3276432,20 12.9996432,19.327 12.9996432,18.5 C12.9996432,17.849 12.5816432,17.299 11.9996432,17.092 L11.9996432,16 L16.4996432,16 C16.7766432,16 16.9996432,15.776 16.9996432,15.5 L16.9996432,14 L18.7916432,14 C19.0226432,14 19.2246432,13.841 19.2776432,13.615 L19.9866432,10.615 C20.0216432,10.466 19.9876432,10.31 19.8926432,10.19 C19.7966432,10.07 19.6526432,10 19.4996432,10 L19.4996432,10 Z" id="AWS-Express-Workflow-Icon_16_Squid" fill="#FFFFFF"></path>
    </g>
</svg>