<?xml version="1.0" encoding="UTF-8"?>
<svg width="24px" height="24px" viewBox="0 0 24 24" version="1.1" xmlns="http://www.w3.org/2000/svg" xmlns:xlink="http://www.w3.org/1999/xlink">
    <title>Icon-Architecture/16/Arch_CN-Pinwheel_16</title>
    <defs>
        <linearGradient x1="0%" y1="100%" x2="100%" y2="0%" id="linearGradient-1">
            <stop stop-color="#B0084D" offset="0%"></stop>
            <stop stop-color="#FF4F8B" offset="100%"></stop>
        </linearGradient>
    </defs>
    <g id="Icon-Architecture/16/Arch_CN-Pinwheel_16" stroke="none" stroke-width="1" fill="none" fill-rule="evenodd">
        <g id="Rectangle" fill="url(#linearGradient-1)">
            <rect x="0" y="0" width="24" height="24"></rect>
        </g>
        <g id="Icon-Service/16/CN-Pinwheel_16" transform="translate(4.000000, 4.000000)" fill="#FFFFFF">
            <path d="M1,3 L3,3 L3,1 L1,1 L1,3 Z M0.5,4 L3.5,4 C3.776,4 4,3.776 4,3.5 L4,0.5 C4,0.224 3.776,0 3.5,0 L0.5,0 C0.224,0 0,0.224 0,0.5 L0,3.5 C0,3.776 0.224,4 0.5,4 L0.5,4 Z M14.5,12 C14.225,12 14,11.776 14,11.5 C14,11.224 14.225,11 14.5,11 C14.775,11 15,11.224 15,11.5 C15,11.776 14.775,12 14.5,12 L14.5,12 Z M14.5,10 C13.673,10 13,10.673 13,11.5 C13,12.327 13.673,13 14.5,13 C15.327,13 16,12.327 16,11.5 C16,10.673 15.327,10 14.5,10 L14.5,10 Z M14.5,4 C14.225,4 14,3.776 14,3.5 C14,3.224 14.225,3 14.5,3 C14.775,3 15,3.224 15,3.5 C15,3.776 14.775,4 14.5,4 L14.5,4 Z M14.5,2 C13.673,2 13,2.673 13,3.5 C13,4.327 13.673,5 14.5,5 C15.327,5 16,4.327 16,3.5 C16,2.673 15.327,2 14.5,2 L14.5,2 Z M14.5,8 C14.225,8 14,7.776 14,7.5 C14,7.224 14.225,7 14.5,7 C14.775,7 15,7.224 15,7.5 C15,7.776 14.775,8 14.5,8 L14.5,8 Z M14.5,6 C13.673,6 13,6.673 13,7.5 C13,8.327 13.673,9 14.5,9 C15.327,9 16,8.327 16,7.5 C16,6.673 15.327,6 14.5,6 L14.5,6 Z M16,0 L16,1 L12,1 L12,15 L16,15 L16,16 L11.5,16 C11.224,16 11,15.776 11,15.5 L11,8 L6,8 L6,7 L11,7 L11,0.5 C11,0.224 11.224,0 11.5,0 L16,0 Z M1,9.191 L1,6.809 L3.382,8 L1,9.191 Z M4.724,7.553 L0.724,5.553 C0.568,5.476 0.384,5.483 0.237,5.575 C0.09,5.666 0,5.827 0,6 L0,10 C0,10.173 0.09,10.334 0.237,10.425 C0.317,10.475 0.408,10.5 0.5,10.5 C0.576,10.5 0.653,10.482 0.724,10.447 L4.724,8.447 C4.893,8.362 5,8.189 5,8 C5,7.811 4.893,7.638 4.724,7.553 L4.724,7.553 Z M2.5,15 C1.673,15 1,14.327 1,13.5 C1,12.673 1.673,12 2.5,12 C3.327,12 4,12.673 4,13.5 C4,14.327 3.327,15 2.5,15 L2.5,15 Z M2.5,11 C1.121,11 0,12.122 0,13.5 C0,14.878 1.121,16 2.5,16 C3.879,16 5,14.878 5,13.5 C5,12.122 3.879,11 2.5,11 L2.5,11 Z" id="Fill-7"></path>
        </g>
    </g>
</svg>