<svg xmlns="http://www.w3.org/2000/svg" viewBox="0 0 24 24" width="24px" height="24px"><path d="M5.76,8.64v3.88A8.16,8.16,0,0,0,12,20.29V5.73Z" style="fill:#4285f4"/><path d="M12,20.29l.66-.19a8.16,8.16,0,0,0,5.58-7.58V8.64L12,5.73Z" style="fill:#aecbfa"/><path d="M17.79,4.14a2.85,2.85,0,0,0-.29,0l.83-1-.57-.48-1.67,2,2,1.66.48-.57-1-.85a2.3,2.3,0,0,1,.26,0,2.64,2.64,0,0,1,2.64,2.64,2.58,2.58,0,0,1-.29,1.19l.55.56.09-.13a3.5,3.5,0,0,0,.4-1.62A3.39,3.39,0,0,0,17.79,4.14Z" style="fill:#aecbfa"/><path d="M5.67,17.7l-.61.44.76,1.06a2.48,2.48,0,0,1-.27,0,2.64,2.64,0,0,1-1.33-4.29l-.39-.68a1.14,1.14,0,0,0-.11.11,3.38,3.38,0,0,0,1.65,5.58,2.93,2.93,0,0,0,.29.05l-1,.74.44.61,2.11-1.5Z" style="fill:#4285f4"/></svg>