<svg fill="none" height="24" viewBox="0 0 24 24" width="24" xmlns="http://www.w3.org/2000/svg"><g clip-rule="evenodd" fill="#4285f4" fill-rule="evenodd"><path d="m11.9883 7.1989c-.5492 0-1.0767.09419-1.5683.26497l.8366.97516c.2364-.04873.4811-.07438.7317-.07438 1.9949 0 3.6178 1.6211 3.6178 3.61385 0 1.9927-1.6229 3.6138-3.6178 3.6138-1.99492 0-3.61778-1.6211-3.61778-3.6138 0-.4443.08111-.8697.2285-1.263l-.83676-.97514c-.35617.66814-.55877 1.42984-.55877 2.23814 0 2.6354 2.14651 4.7796 4.78481 4.7796s4.7848-2.1442 4.7848-4.7796c0-2.63543-2.1465-4.7796-4.7848-4.7796z"/><path d="m20.9766 7.77521c0-.89914-.7331-1.63056-1.6343-1.63056-.1625 0-.319.02458-.4671.06872-1.6503-1.96261-4.1245-3.21337-6.8869-3.21337-1.2947 0-2.52514.27661-3.63829.77044.08825.27114.13634.5601.13634.86012 0 .12788-.00933.25332-.02614.37654 1.06085-.53738 2.25909-.84241 3.52809-.84241 2.3869 0 4.5261 1.0736 5.9619 2.76088-.1525.24773-.2421.53809-.2421.84964 0 .89914.7331 1.63056 1.6342 1.63056.0105 0 .0208-.0014.0312-.00163.2811.80376.4358 1.66586.4358 2.56396 0 3.4769-2.2912 6.4287-5.4459 7.4344-.297-.4106-.7794-.6792-1.3245-.6792-.6896 0-1.2795.429-1.5191 1.0329-4.09511-.2427-7.35249-3.6423-7.35249-7.7881 0-1.6943.5456-3.26277 1.46847-4.54358-.43365-.00745-.84349-.11355-1.20804-.29711-.90187 1.39751-1.42774 3.05849-1.42774 4.84069 0 4.7847 3.77508 8.7059 8.5095 8.9551.2322.6187.8292 1.0612 1.5294 1.0612.8411 0 1.5354-.6377 1.6242-1.4537 3.654-1.1388 6.3135-4.5467 6.3135-8.5626 0-1.0531-.1845-2.06384-.5201-3.00328.3191-.29781.5201-.72024.5201-1.18961z"/><path d="m12.009 12.4232c-.2574 0-.4668-.2087-.4668-.4653s.2094-.4654.4668-.4654c.2575 0 .4668.2088.4668.4654s-.2093.4653-.4668.4653zm-6.76873-7.79449c0-.25664.20936-.46535.46681-.46535.25744 0 .46681.20871.46681.46535 0 .25663-.20937.46534-.46681.46534-.25745 0-.46681-.20871-.46681-.46534zm6.76873 5.70049c-.1928 0-.3769.0352-.5488.0965l-4.3171-5.02068c.12604-.23093.19781-.49548.19781-.77631 0-.89812-.73289-1.62871-1.63383-1.62871-.90095 0-1.63384.73059-1.63384 1.62871 0 .89811.73289 1.6287 1.63384 1.6287.19279 0 .37695-.03525.54885-.09656l4.31707 5.02075c-.126.2309-.1978.4955-.1978.7763 0 .8981.7329 1.6287 1.6338 1.6287.901 0 1.6339-.7306 1.6339-1.6287s-.7329-1.6287-1.6339-1.6287z"/></g></svg>