<svg version="1.1" baseProfile="tiny" id="Layer_1" xmlns="http://www.w3.org/2000/svg" xmlns:xlink="http://www.w3.org/1999/xlink"
	 x="0px" y="0px" width="24px" height="24px" viewBox="0 0 24 24" overflow="visible" xml:space="preserve">
<g >
	<rect y="0" fill="none" width="24" height="24"/>
	<polygon fill-rule="evenodd" fill="#85A4E6" points="0.8,5.9 3.7,0.8 9.5,0.8 12.4,5.9 9.5,10.9 3.7,10.9 	"/>
	<polygon fill-rule="evenodd" fill="#5C85DE" points="11.4,7.7 8.5,2.6 9.5,0.7 12.4,5.9 	"/>
	<polygon id="Shape-Copy_00000019646383529055310330000009913415011964925323_" fill-rule="evenodd" fill="#3367D6" points="
		2.7,9.3 8.5,9.3 10.5,5.9 11.4,7.7 9.5,10.9 3.7,11 	"/>
	<polygon fill-rule="evenodd" fill="#85A4E6" points="11.2,11.9 14.2,6.8 20,6.8 22.9,11.9 20,16.9 14.2,16.9 	"/>
	<polygon id="Shape-Copy_00000133527958483064390410000012377415375428947900_" fill-rule="evenodd" fill="#5C85DE" points="
		21.9,13.7 19,8.6 20,6.7 22.9,11.9 	"/>
	<polygon id="Shape-Copy_00000176019471624316745960000001248137580190207128_" fill-rule="evenodd" fill="#3367D6" points="
		13.2,15.3 19,15.3 21,11.9 21.9,13.7 20,16.9 14.2,17 	"/>
	<polygon fill-rule="evenodd" fill="#85A4E6" points="0.8,17.9 3.7,12.8 9.5,12.8 12.4,17.9 9.5,22.9 3.7,22.9 	"/>
	<polygon id="Shape-Copy_00000096041779745201399360000017167964797373102485_" fill-rule="evenodd" fill="#5C85DE" points="
		11.4,19.7 8.5,14.6 9.5,12.7 12.4,17.9 	"/>
	<polygon id="Shape-Copy_00000049204188488742950820000010444321201512143025_" fill-rule="evenodd" fill="#3367D6" points="
		2.7,21.3 8.5,21.3 10.5,17.9 11.4,19.7 9.5,22.9 3.7,23 	"/>
</g>
</svg>
