<?xml version="1.0" encoding="UTF-8"?>
<svg width="24px" height="24px" viewBox="0 0 24 24" version="1.1" xmlns="http://www.w3.org/2000/svg" xmlns:xlink="http://www.w3.org/1999/xlink">
    <title>Icon-Architecture/16/Arch_Savings-Plans_16</title>
    <defs>
        <linearGradient x1="0%" y1="100%" x2="100%" y2="0%" id="linearGradient-1">
            <stop stop-color="#1B660F" offset="0%"></stop>
            <stop stop-color="#6CAE3E" offset="100%"></stop>
        </linearGradient>
    </defs>
    <g id="Icon-Architecture/16/Arch_Savings-Plans_16" stroke="none" stroke-width="1" fill="none" fill-rule="evenodd">
        <g id="Rectangle" fill="url(#linearGradient-1)">
            <rect x="0" y="0" width="24" height="24"></rect>
        </g>
        <g id="Icon-Service/16/AWS-Savings-Plans_16" transform="translate(4.000000, 4.000000)" fill="#FFFFFF">
            <path d="M9.004,5.0005495 L8.5,5.0005495 L4.996,5.0005495 C4.985,5.0085495 4.974,5.0175495 4.963,5.0255495 C4.23,5.5875495 2,7.2985495 2,10.3405495 C2,13.2145495 3.916,15.0005495 7,15.0005495 C10.084,15.0005495 12,13.2145495 12,10.3405495 C12,7.2985495 9.771,5.5875495 9.037,5.0255495 C9.026,5.0175495 9.015,5.0085495 9.004,5.0005495 L9.004,5.0005495 Z M3.822,1.9685495 L5.301,4.0005495 L8.5,4.0005495 L8.615,4.0005495 L10.135,1.9825495 L8.658,2.4745495 C8.511,2.5245495 8.351,2.5025495 8.223,2.4165495 L7,1.6015495 C6.567,1.8905495 5.778,2.4175495 5.749,2.4345495 C5.626,2.5045495 5.478,2.5205495 5.342,2.4745495 L3.822,1.9685495 Z M14.947,4.7765495 L14.053,5.2245495 C13.849,4.8155495 13.59,4.5775495 13.263,4.4945495 C12.664,4.3415495 11.92,4.7425495 11.684,4.9085495 C11.6,4.9675495 11.497,5.0005495 11.395,5.0005495 L10.539,5.0005495 C12.168,6.5445495 13,8.3355495 13,10.3405495 C13,13.7785495 10.645,16.0005495 7,16.0005495 C3.356,16.0005495 1,13.7785495 1,10.3405495 C1,8.0225495 2.107,5.9905495 4.279,4.2955495 L2.096,1.2945495 C1.968,1.1185495 1.968,0.880549497 2.097,0.705549497 C2.225,0.530549497 2.452,0.456549497 2.658,0.526549497 L5.428,1.4495495 C5.822,1.1875495 6.722,0.584549497 6.722,0.584549497 C6.89,0.472549497 7.109,0.472549497 7.277,0.584549497 L8.574,1.4485495 L11.342,0.526549497 C11.549,0.455549497 11.778,0.530549497 11.906,0.708549497 C12.034,0.886549497 12.031,1.1265495 11.9,1.3015495 L9.866,4.0005495 L11.247,4.0005495 C11.602,3.7845495 12.549,3.2875495 13.501,3.5235495 C14.122,3.6775495 14.608,4.0995495 14.947,4.7765495 L14.947,4.7765495 Z M6,8.4895495 C6,9.1065495 6.56,9.4195495 7.083,9.5075495 C8.23,9.6995495 9,10.5045495 9,11.5115495 C9,12.6205495 8.103,13.5225495 7,13.5225495 C5.898,13.5225495 5,12.6205495 5,11.5115495 L6,11.5115495 C6,12.0685495 6.448,12.5225495 7,12.5225495 C7.552,12.5225495 8,12.0685495 8,11.5115495 C8,10.8945495 7.441,10.5815495 6.917,10.4935495 C5.771,10.3015495 5,9.4965495 5,8.4895495 C5,7.3805495 5.898,6.4785495 7,6.4785495 C8.103,6.4785495 9,7.3805495 9,8.4895495 L8,8.4895495 C8,7.9325495 7.552,7.4785495 7,7.4785495 C6.448,7.4785495 6,7.9325495 6,8.4895495 L6,8.4895495 Z" id="AWS-Savings-Plans_16_Squid"></path>
        </g>
    </g>
</svg>