<?xml version="1.0" encoding="UTF-8"?>
<svg width="24px" height="24px" viewBox="0 0 24 24" version="1.1" xmlns="http://www.w3.org/2000/svg" xmlns:xlink="http://www.w3.org/1999/xlink">
    <!-- Generator: Sketch 64 (93537) - https://sketch.com -->
    <title>Icon-Architecture/16/Arch_AWS-Cost-Explorer_16</title>
    <desc>Created with Sketch.</desc>
    <defs>
        <linearGradient x1="0%" y1="100%" x2="100%" y2="0%" id="linearGradient-1">
            <stop stop-color="#1B660F" offset="0%"></stop>
            <stop stop-color="#6CAE3E" offset="100%"></stop>
        </linearGradient>
    </defs>
    <g id="Icon-Architecture/16/Arch_AWS-Cost-Explorer_16" stroke="none" stroke-width="1" fill="none" fill-rule="evenodd">
        <g id="Icon-Architecture-BG/16/AWS-Cost-Management" fill="url(#linearGradient-1)">
            <rect id="Rectangle" x="0" y="0" width="24" height="24"></rect>
        </g>
        <path d="M18,17.989 C17.927,18.062 17.829,18.103 17.726,18.103 C17.622,18.102 17.525,18.062 17.452,17.989 L16.021,16.558 C16.226,16.398 16.409,16.215 16.568,16.01 L17.999,17.441 C18.15,17.592 18.15,17.838 18,17.989 L18,17.989 Z M11.983,14.1 C11.983,12.927 12.938,11.972 14.11,11.972 C15.283,11.972 16.237,12.927 16.237,14.1 C16.237,15.273 15.283,16.227 14.11,16.227 C12.938,16.227 11.983,15.273 11.983,14.1 L11.983,14.1 Z M18.707,16.734 L17.062,15.089 C17.167,14.777 17.237,14.447 17.237,14.1 C17.237,12.375 15.835,10.972 14.11,10.972 C12.386,10.972 10.983,12.375 10.983,14.1 C10.983,15.824 12.386,17.227 14.11,17.227 C14.458,17.227 14.787,17.157 15.101,17.052 L16.744,18.696 C17.006,18.958 17.354,19.102 17.725,19.103 L17.726,19.103 C18.097,19.102 18.445,18.958 18.708,18.696 C19.247,18.155 19.247,17.275 18.707,16.734 L18.707,16.734 Z M5.579,9.047 C5.865,9.047 6.157,9.341 6.157,9.628 C6.157,9.915 5.865,10.207 5.579,10.207 C5.292,10.207 5,9.915 5,9.628 C5,9.341 5.292,9.047 5.579,9.047 L5.579,9.047 Z M8.576,11.072 C8.863,11.072 9.155,11.364 9.155,11.651 C9.155,11.937 8.863,12.23 8.576,12.23 C8.29,12.23 7.998,11.937 7.998,11.651 C7.998,11.364 8.29,11.072 8.576,11.072 L8.576,11.072 Z M12.59,7.05 C12.877,7.05 13.169,7.342 13.169,7.629 C13.169,7.915 12.877,8.208 12.59,8.208 C12.303,8.208 12.011,7.915 12.011,7.629 C12.011,7.342 12.303,7.05 12.59,7.05 L12.59,7.05 Z M16.61,5 C16.897,5 17.189,5.293 17.189,5.579 C17.189,5.866 16.897,6.158 16.61,6.158 C16.324,6.158 16.032,5.866 16.032,5.579 C16.032,5.293 16.324,5 16.61,5 L16.61,5 Z M6.079,11.112 C6.173,11.078 6.261,11.036 6.347,10.986 L7.013,11.515 C7.009,11.56 6.998,11.605 6.998,11.651 C6.998,12.492 7.735,13.23 8.576,13.23 C9.417,13.23 10.155,12.492 10.155,11.651 C10.155,11.437 10.106,11.231 10.022,11.041 L11.985,9.077 C12.173,9.161 12.378,9.208 12.59,9.208 C13.431,9.208 14.169,8.47 14.169,7.629 C14.169,7.531 14.157,7.435 14.138,7.342 L15.505,6.683 C15.795,6.973 16.189,7.158 16.61,7.158 C17.451,7.158 18.189,6.42 18.189,5.579 C18.189,4.738 17.451,4 16.61,4 C15.77,4 15.032,4.738 15.032,5.579 C15.032,5.651 15.045,5.72 15.055,5.79 L13.635,6.474 C13.351,6.216 12.983,6.05 12.59,6.05 C11.749,6.05 11.011,6.788 11.011,7.629 C11.011,7.909 11.099,8.175 11.239,8.409 L9.352,10.297 C9.118,10.158 8.854,10.072 8.576,10.072 C8.141,10.072 7.735,10.273 7.443,10.581 L7.021,10.245 C7.107,10.053 7.157,9.844 7.157,9.628 C7.157,8.96 6.69,8.364 6.079,8.143 L6.079,4.1 L5.079,4.1 L5.079,8.143 C4.467,8.364 4,8.96 4,9.628 C4,10.296 4.467,10.891 5.079,11.112 L5.079,18.1 L11.11,18.1 L11.11,17.1 L6.079,17.1 L6.079,11.112 Z" id="AWS-Cost-Explorer_Icon_16_Squid" fill="#FFFFFF"></path>
    </g>
</svg>