<?xml version="1.0" encoding="UTF-8"?>
<svg width="24px" height="24px" viewBox="0 0 24 24" version="1.1" xmlns="http://www.w3.org/2000/svg" xmlns:xlink="http://www.w3.org/1999/xlink">
    <!-- Generator: Sketch 64 (93537) - https://sketch.com -->
    <title>Icon-Architecture/16/Arch_AWS-Budgets_16</title>
    <desc>Created with Sketch.</desc>
    <defs>
        <linearGradient x1="0%" y1="100%" x2="100%" y2="0%" id="linearGradient-1">
            <stop stop-color="#1B660F" offset="0%"></stop>
            <stop stop-color="#6CAE3E" offset="100%"></stop>
        </linearGradient>
    </defs>
    <g id="Icon-Architecture/16/Arch_AWS-Budgets_16" stroke="none" stroke-width="1" fill="none" fill-rule="evenodd">
        <g id="Icon-Architecture-BG/16/AWS-Cost-Management" fill="url(#linearGradient-1)">
            <rect id="Rectangle" x="0" y="0" width="24" height="24"></rect>
        </g>
        <path d="M13.0739534,9.98485512 L13.0739534,8.62006383 L10.3805465,11.2945741 L9.67360241,10.5846423 L12.35999,7.91714125 L11.0062672,7.91714125 L11.0062672,6.91582702 L13.5753322,6.91582702 C13.8520933,6.91582702 14.076711,7.14012141 14.076711,7.41648414 L14.076711,9.98485512 L13.0739534,9.98485512 Z M8.92253698,11.9874836 L7.91977939,11.9874836 L7.91977939,4.50065711 C7.91977939,4.22429439 8.14439709,4 8.42115819,4 L15.5347205,4 C15.8114816,4 16.0360993,4.22429439 16.0360993,4.50065711 L16.0360993,11.9874836 L15.0333417,11.9874836 L15.0333417,5.00131422 L8.92253698,5.00131422 L8.92253698,11.9874836 Z M18.9972424,18.2917579 L15.6410128,14.9423618 L18.9972424,12.8786532 L18.9972424,18.2917579 Z M5.70468789,18.9986858 L9.21835046,15.4630452 L11.7473051,17.014081 C11.8275257,17.0631454 11.9187766,17.0881782 12.0090248,17.0881782 C12.1002758,17.0881782 12.1915267,17.0631454 12.2717473,17.014081 L14.7635999,15.4820702 L18.28729,18.9986858 L5.70468789,18.9986858 Z M5.00275758,12.8786532 L8.34093758,14.9253395 L5.00275758,18.2847487 L5.00275758,12.8786532 Z M19.7954375,11.5789474 L17.7738782,10.1000063 L17.1812484,10.9070655 L18.6021559,11.9464297 L12.0090248,15.9997497 L5.40085234,11.9464297 L6.82175984,10.9070655 L6.23013287,10.1000063 L4.2055653,11.5789474 C4.07620958,11.6740722 4,11.823268 4,11.9834783 L4,19.4993429 C4,19.7757056 4.2246177,20 4.50137879,20 L19.4986212,20 C19.7763851,20 20,19.7757056 20,19.4993429 L20,11.9834783 C20,11.823268 19.9237904,11.6740722 19.7954375,11.5789474 L19.7954375,11.5789474 Z" id="AWS-Budgets_Icon_16_Squid" fill="#FFFFFF"></path>
    </g>
</svg>