<?xml version="1.0" encoding="UTF-8"?>
<svg width="24px" height="24px" viewBox="0 0 24 24" version="1.1" xmlns="http://www.w3.org/2000/svg" xmlns:xlink="http://www.w3.org/1999/xlink">
    <!-- Generator: Sketch 64 (93537) - https://sketch.com -->
    <title>Icon-Architecture/16/Arch_AWS-Cost-and-Usage-Report_16</title>
    <desc>Created with Sketch.</desc>
    <defs>
        <linearGradient x1="0%" y1="100%" x2="100%" y2="0%" id="linearGradient-1">
            <stop stop-color="#1B660F" offset="0%"></stop>
            <stop stop-color="#6CAE3E" offset="100%"></stop>
        </linearGradient>
    </defs>
    <g id="Icon-Architecture/16/Arch_AWS-Cost-and-Usage-Report_16" stroke="none" stroke-width="1" fill="none" fill-rule="evenodd">
        <g id="Icon-Architecture-BG/16/AWS-Cost-Management" fill="url(#linearGradient-1)">
            <rect id="Rectangle" x="0" y="0" width="24" height="24"></rect>
        </g>
        <path d="M14.1894248,12.0454545 L18.0127833,12.0454545 L18.0127833,11.0486443 L14.1894248,11.0486443 L14.1894248,12.0454545 Z M14.1903932,10.0398724 L18.0137517,10.0398724 L18.0137517,9.0430622 L14.1903932,9.0430622 L14.1903932,10.0398724 Z M6.92620569,18.5107656 C6.92620569,18.2755183 6.67538253,18.0163477 6.44683324,18.0163477 C6.21925237,18.0163477 5.96842921,18.2755183 5.96842921,18.5107656 C5.96842921,18.7450159 6.21925237,19.0031898 6.44683324,19.0031898 C6.67538253,19.0031898 6.92620569,18.7450159 6.92620569,18.5107656 L6.92620569,18.5107656 Z M6.92620569,14.4916268 C6.92620569,14.2563796 6.67538253,13.9992026 6.44683324,13.9992026 C6.21925237,13.9992026 5.96842921,14.2563796 5.96842921,14.4916268 C5.96842921,14.726874 6.21925237,14.9850478 6.44683324,14.9850478 C6.67538253,14.9850478 6.92620569,14.726874 6.92620569,14.4916268 L6.92620569,14.4916268 Z M6.92620569,10.4794657 C6.92620569,10.2442185 6.67538253,9.98604466 6.44683324,9.98604466 C6.21925237,9.98604466 5.96842921,10.2442185 5.96842921,10.4794657 C5.96842921,10.7147129 6.21925237,10.9728868 6.44683324,10.9728868 C6.67538253,10.9728868 6.92620569,10.7147129 6.92620569,10.4794657 L6.92620569,10.4794657 Z M6.92620569,6.48923445 C6.92620569,6.26893939 6.66182452,5.99681021 6.44683324,5.99681021 C6.23184195,5.99681021 5.96842921,6.26893939 5.96842921,6.48923445 C5.96842921,6.71052632 6.23184195,6.9826555 6.44683324,6.9826555 C6.66182452,6.9826555 6.92620569,6.71052632 6.92620569,6.48923445 L6.92620569,6.48923445 Z M10.3447608,14.9900319 L10.3447608,18.5107656 C10.3447608,18.7858852 10.1278327,19.0091707 9.86054619,19.0091707 L7.79585512,19.0091707 C7.58183227,19.5683812 7.03757505,20 6.44683324,20 C5.6895216,20 5,19.2902711 5,18.5107656 C5,17.7302632 5.6895216,17.0195375 6.44683324,17.0195375 C7.03757505,17.0195375 7.58183227,17.4531499 7.79585512,18.0123604 L9.37633159,18.0123604 L9.37633159,14.9900319 L7.79585512,14.9900319 C7.58183227,15.5492424 7.03757505,15.9818581 6.44683324,15.9818581 C5.6895216,15.9818581 5,15.2721292 5,14.4916268 C5,13.7121212 5.6895216,13.0023923 6.44683324,13.0023923 C7.03757505,13.0023923 7.58183227,13.4340112 7.79585512,13.9932217 L9.37633159,13.9932217 L9.37633159,10.9778708 L7.79585512,10.9778708 C7.58183227,11.5370813 7.03757505,11.969697 6.44683324,11.969697 C5.6895216,11.969697 5,11.2589713 5,10.4794657 C5,9.69996013 5.6895216,8.98923445 6.44683324,8.98923445 C7.03757505,8.98923445 7.58183227,9.42185008 7.79585512,9.98106061 L9.37633159,9.98106061 L9.37633159,6.98763955 L7.79294984,6.98763955 C7.57311641,7.54186603 7.02498547,7.97946571 6.44683324,7.97946571 C5.70404803,7.97946571 5,7.2557815 5,6.48923445 C5,5.72368421 5.70404803,5 6.44683324,5 C7.02498547,5 7.57311641,5.43759968 7.79294984,5.99082935 L9.86054619,5.99082935 C10.1278327,5.99082935 10.3447608,6.21411483 10.3447608,6.48923445 L10.3447608,13.9932217 L16.1069146,13.9932217 L16.1069146,14.9900319 L10.3447608,14.9900319 Z M20,6.48923445 L20,18.5107656 C20,18.7858852 19.7840403,19.0091707 19.5157854,19.0091707 L12.7367809,19.0091707 C12.4694945,19.0091707 12.2525663,18.7858852 12.2525663,18.5107656 L12.2525663,16.9766746 L13.2209955,16.9766746 L13.2209955,18.0123604 L19.0315708,18.0123604 L19.0315708,6.98763955 L13.2209955,6.98763955 L13.2209955,11.9926236 L12.2525663,11.9926236 L12.2525663,6.48923445 C12.2525663,6.21411483 12.4694945,5.99082935 12.7367809,5.99082935 L19.5157854,5.99082935 C19.7840403,5.99082935 20,6.21411483 20,6.48923445 L20,6.48923445 Z" id="AWS-Cost-and-Usage-Report_Icon_16_Squid" fill="#FFFFFF"></path>
    </g>
</svg>