<?xml version="1.0" encoding="UTF-8"?>
<svg width="64px" height="64px" viewBox="0 0 64 64" version="1.1" xmlns="http://www.w3.org/2000/svg" xmlns:xlink="http://www.w3.org/1999/xlink">
    <!-- Generator: Sketch 64 (93537) - https://sketch.com -->
    <title>Icon-Architecture/48/Arch_AWS-WorkSpaces_48</title>
    <desc>Created with Sketch.</desc>
    <defs>
        <linearGradient x1="0%" y1="100%" x2="100%" y2="0%" id="linearGradient-1">
            <stop stop-color="#055F4E" offset="0%"></stop>
            <stop stop-color="#56C0A7" offset="100%"></stop>
        </linearGradient>
    </defs>
    <g id="Icon-Architecture/48/Arch_AWS-WorkSpaces_48" stroke="none" stroke-width="1" fill="none" fill-rule="evenodd">
        <g id="Icon-Architecture-BG/48/End-User-Computing" fill="url(#linearGradient-1)">
            <rect id="Rectangle" x="0" y="0" width="64" height="64"></rect>
        </g>
        <path d="M13.031,17.5423476 L21.023,13.1293476 L24.924,15.0803476 L16.991,19.8393476 L13.031,17.5423476 Z M16,33.1313476 L12,30.4653476 L12,19.2573476 L16,21.5763476 L16,33.1313476 Z M27.514,15.8573476 C27.827,15.6703476 28.013,15.3263476 27.999,14.9613476 C27.985,14.5973476 27.773,14.2693476 27.447,14.1053476 L21.447,11.1053476 C21.154,10.9583476 20.805,10.9653476 20.516,11.1253476 L10.516,16.6463476 L10.517,16.6473476 C10.511,16.6503476 10.506,16.6513476 10.501,16.6543476 C10.191,16.8333476 10,17.1643476 10,17.5213476 L10,31.0003476 C10,31.3343476 10.167,31.6463476 10.445,31.8323476 L16.445,35.8323476 C16.612,35.9443476 16.805,36.0003476 17,36.0003476 C17.162,36.0003476 17.324,35.9613476 17.471,35.8823476 C17.797,35.7083476 18,35.3693476 18,35.0003476 L18,21.5663476 L27.514,15.8573476 Z M46.135,36.1983476 L48.718,37.7233476 L47.7,39.4453476 L45.117,37.9193476 L46.135,36.1983476 Z M41.819,33.6663476 L44.407,35.1833476 L43.395,36.9093476 L40.807,35.3923476 L41.819,33.6663476 Z M23,40.4653476 L23,34.4883476 L25.615,32.4453476 L24.385,30.8693476 L23,31.9513476 L23,24.7663476 L28.202,27.8883476 L26.507,29.2123476 L27.737,30.7883476 L30.039,28.9903476 L36,32.5663476 L36,49.1313476 L23,40.4653476 Z M29,19.9663476 L29,21.0003476 L31,21.0003476 L31,18.7663476 L37.014,15.1583476 L50.96,23.0663476 L37.018,30.8453476 L31,27.2343476 L31,24.0003476 L29,24.0003476 L29,26.0343476 L23.943,23.0003476 L29,19.9663476 Z M50.44,38.7403476 L49.423,40.4623476 L51.044,41.4193476 L38,49.2353476 L38,33.7463476 L39.082,34.3803476 L40.093,32.6543476 L39.013,32.0213476 L52,24.7763476 L52,39.6613476 L50.44,38.7403476 Z M54,23.0743476 C53.999,22.7143476 53.806,22.3823476 53.493,22.2043476 L37.493,13.1303476 C37.179,12.9533476 36.795,12.9573476 36.485,13.1433476 L21.485,22.1433476 C21.184,22.3233476 21,22.6493476 21,23.0003476 L21,41.0003476 C21,41.3343476 21.167,41.6463476 21.445,41.8323476 L36.445,51.8323476 C36.612,51.9443476 36.805,52.0003476 37,52.0003476 C37.162,52.0003476 37.324,51.9613476 37.471,51.8823476 C37.486,51.8743476 37.497,51.8623476 37.51,51.8543476 L37.513,51.8583476 L53.513,42.2713476 C53.815,42.0903476 54,41.7653476 54,41.4133476 L54,23.0743476 Z" id="AWS-WorkSpaces_Icon_48_Squid" fill="#FFFFFF"></path>
    </g>
</svg>