<?xml version="1.0" encoding="UTF-8"?>
<svg width="64px" height="64px" viewBox="0 0 64 64" version="1.1" xmlns="http://www.w3.org/2000/svg" xmlns:xlink="http://www.w3.org/1999/xlink">
    <!-- Generator: Sketch 64 (93537) - https://sketch.com -->
    <title>Icon-Architecture/48/Arch_Amazon-Neptune_48</title>
    <desc>Created with Sketch.</desc>
    <defs>
        <linearGradient x1="0%" y1="100%" x2="100%" y2="0%" id="linearGradient-1">
            <stop stop-color="#2E27AD" offset="0%"></stop>
            <stop stop-color="#527FFF" offset="100%"></stop>
        </linearGradient>
    </defs>
    <g id="Icon-Architecture/48/Arch_Amazon-Neptune_48" stroke="none" stroke-width="1" fill="none" fill-rule="evenodd">
        <g id="Icon-Architecture-BG/48/Database" fill="url(#linearGradient-1)">
            <rect id="Rectangle" x="0" y="0" width="64" height="64"></rect>
        </g>
        <path d="M51.5,46.968073 C51.225,46.968073 51,46.7442663 51,46.4685045 C51,46.1927426 51.225,45.9689359 51.5,45.9689359 C51.775,45.9689359 52,46.1927426 52,46.4685045 C52,46.7442663 51.775,46.968073 51.5,46.968073 L51.5,46.968073 Z M44,51.9637586 C42.897,51.9637586 42,51.0675326 42,49.9654844 C42,48.8634361 42.897,47.9672101 44,47.9672101 C45.103,47.9672101 46,48.8634361 46,49.9654844 C46,51.0675326 45.103,51.9637586 44,51.9637586 L44,51.9637586 Z M41,38.4754076 C41,37.0985967 42.121,35.9775648 43.5,35.9775648 C44.879,35.9775648 46,37.0985967 46,38.4754076 C46,39.8522185 44.879,40.9732504 43.5,40.9732504 C42.121,40.9732504 41,39.8522185 41,38.4754076 L41,38.4754076 Z M36,30.4823107 C36,30.2065489 36.225,29.9827422 36.5,29.9827422 C36.775,29.9827422 37,30.2065489 37,30.4823107 C37,30.7580726 36.775,30.9818793 36.5,30.9818793 C36.225,30.9818793 36,30.7580726 36,30.4823107 L36,30.4823107 Z M50.5,25.9861937 C51.327,25.9861937 52,26.658613 52,27.4848994 C52,28.3111858 51.327,28.9836051 50.5,28.9836051 C49.673,28.9836051 49,28.3111858 49,27.4848994 C49,26.658613 49.673,25.9861937 50.5,25.9861937 L50.5,25.9861937 Z M33.5,42.9715246 C32.673,42.9715246 32,42.2991053 32,41.4728189 C32,40.6465325 32.673,39.9741133 33.5,39.9741133 C34.327,39.9741133 35,40.6465325 35,41.4728189 C35,42.2991053 34.327,42.9715246 33.5,42.9715246 L33.5,42.9715246 Z M51.5,43.9706617 C50.15,43.9706617 49.056,45.0457332 49.009,46.3815795 L47.096,47.4666424 C46.607,46.8641628 45.953,46.4105545 45.196,46.1717608 L45.039,42.682774 C46.762,42.0523185 48,40.4117353 48,38.4754076 C48,37.341387 47.563,36.3162723 46.867,35.5239566 L49.643,30.862982 C49.918,30.9329216 50.202,30.9818793 50.5,30.9818793 C52.43,30.9818793 54,29.413234 54,27.4848994 C54,25.5565648 52.43,23.9879195 50.5,23.9879195 C48.57,23.9879195 47,25.5565648 47,27.4848994 C47,28.393115 47.356,29.2134066 47.927,29.835869 L45.25,34.3329851 C44.712,34.1051819 44.12,33.9792906 43.5,33.9792906 C42.703,33.9792906 41.964,34.2050956 41.314,34.5697806 L38.61,31.8081657 C38.854,31.4224988 39,30.9708888 39,30.4823107 C39,29.1054998 37.879,27.984468 36.5,27.984468 C35.121,27.984468 34,29.1054998 34,30.4823107 C34,31.8591217 35.121,32.9801535 36.5,32.9801535 C36.644,32.9801535 36.782,32.9611699 36.919,32.9381897 L39.82,35.9016304 C39.307,36.6319996 39,37.5172351 39,38.4754076 C39,38.5243653 39.013,38.5693265 39.015,38.6182842 L36.148,39.2137699 C35.507,38.4624188 34.563,37.975839 33.5,37.975839 C31.57,37.975839 30,39.5444843 30,41.4728189 C30,43.4011535 31.57,44.9697988 33.5,44.9697988 C35.43,44.9697988 37,43.4011535 37,41.4728189 C37,41.3399337 36.976,41.2150416 36.961,41.0861529 L39.532,40.5516145 C40.219,41.8544893 41.515,42.7696989 43.048,42.9255643 L43.189,46.0518643 C41.371,46.4275399 40,48.039148 40,49.9654844 C40,52.1695808 41.794,53.9620328 44,53.9620328 C46.206,53.9620328 48,52.1695808 48,49.9654844 C48,49.7346837 47.97,49.5098778 47.932,49.2890685 L49.758,48.2539625 C50.208,48.6935828 50.822,48.9663472 51.5,48.9663472 C52.879,48.9663472 54,47.8453154 54,46.4685045 C54,45.0916935 52.879,43.9706617 51.5,43.9706617 L51.5,43.9706617 Z M25,11.9982742 C32.44,11.9982742 38,14.372224 38,16.4943912 C38,18.6165584 32.44,20.9905082 25,20.9905082 C17.56,20.9905082 12,18.6165584 12,16.4943912 C12,14.372224 17.56,11.9982742 25,11.9982742 L25,11.9982742 Z M40,43.9706617 L38,43.9706617 L38,47.5495708 C38,49.6517553 32.44,52.0017258 25,52.0017258 C17.56,52.0017258 12,49.6517553 12,47.5495708 L12,41.2749898 C14.794,43.3142286 20.098,44.3902993 25.184,44.3902993 C26.542,44.3902993 27.909,44.315364 29.246,44.1664926 L29.025,42.180208 C27.762,42.3210863 26.469,42.3920251 25.184,42.3920251 C17.759,42.3920251 12,40.0150779 12,37.9698442 L12,30.6231891 C14.794,32.6624279 20.098,33.7384986 25.184,33.7384986 C27.938,33.7384986 30.614,33.4327626 32.921,32.8542622 L32.435,30.9159362 C30.284,31.4554703 27.777,31.7402244 25.184,31.7402244 C17.759,31.7402244 12,29.362278 12,27.3180435 L12,19.8574867 C14.768,21.9077161 19.991,22.9887824 25,22.9887824 C30.009,22.9887824 35.232,21.9077161 38,19.8574867 L38,26.3189064 L40,26.3189064 L40,16.9939598 L39.942,16.9939598 C39.967,16.8291021 40,16.6662428 40,16.4943912 C40,12.2760343 32.271,10 25,10 C18.024,10 10.647,12.1001862 10.058,15.9948227 L10,15.9948227 L10,47.5495708 C10,51.7389527 17.729,54 25,54 C32.271,54 40,51.7389527 40,47.5495708 L40,43.9706617 Z" id="Amazon-Neptune_Icon_48_Squid" fill="#FFFFFF"></path>
    </g>
</svg>