<?xml version="1.0" encoding="UTF-8"?>
<svg width="64px" height="64px" viewBox="0 0 64 64" version="1.1" xmlns="http://www.w3.org/2000/svg" xmlns:xlink="http://www.w3.org/1999/xlink">
    <!-- Generator: Sketch 64 (93537) - https://sketch.com -->
    <title>Icon-Architecture/48/Arch_Amazon-Keyspaces_48</title>
    <desc>Created with Sketch.</desc>
    <defs>
        <linearGradient x1="0%" y1="100%" x2="100%" y2="0%" id="linearGradient-1">
            <stop stop-color="#2E27AD" offset="0%"></stop>
            <stop stop-color="#527FFF" offset="100%"></stop>
        </linearGradient>
    </defs>
    <g id="Icon-Architecture/48/Arch_Amazon-Keyspaces_48" stroke="none" stroke-width="1" fill="none" fill-rule="evenodd">
        <g id="Icon-Architecture-BG/48/Database" fill="url(#linearGradient-1)">
            <rect id="Rectangle" x="0" y="0" width="64" height="64"></rect>
        </g>
        <path d="M52.736,26.304 L50,26.88 L52.136,29.208 C51.736,29.944 51.16,30.376 50.408,30.504 L48.799,27.624 L47.191,30.504 C46.439,30.376 45.863,29.944 45.464,29.208 L47.599,26.88 L44.863,26.304 C44.847,26.144 44.84,26.008 44.84,25.896 C44.84,25.24 45.072,24.696 45.536,24.264 L48.056,25.56 L47.672,22.536 C48.023,22.376 48.4,22.296 48.799,22.296 C49.199,22.296 49.576,22.376 49.927,22.536 L49.544,25.56 L52.064,24.264 C52.527,24.696 52.759,25.24 52.759,25.896 C52.759,26.008 52.752,26.144 52.736,26.304 M40.894,43.572 C42.14,43.572 43.523,43.323 45.042,42.824 L45.042,44.422 C43.636,45.056 42.22,45.374 40.792,45.374 C38.162,45.374 36.168,44.62 34.808,43.113 C33.448,41.606 32.767,39.39 32.767,36.466 C32.767,33.565 33.459,31.349 34.841,29.819 C36.224,28.289 38.23,27.524 40.859,27.524 C42.265,27.524 43.591,27.796 44.838,28.34 L44.838,29.938 C43.591,29.53 42.298,29.326 40.962,29.326 C38.808,29.326 37.25,29.876 36.287,30.975 C35.323,32.075 34.841,33.837 34.841,36.262 L34.841,36.67 C34.841,39.028 35.329,40.767 36.304,41.889 C37.278,43.011 38.808,43.572 40.894,43.572 M27,12 C34.44,12 40,14.376 40,16.5 C40,18.624 34.44,21 27,21 C19.559,21 14,18.624 14,16.5 C14,14.376 19.559,12 27,12 M26.72,51.403 C19.44,51.403 14,49.108 14,47.056 L14,40.999 C16.71,42.98 21.768,44.024 26.621,44.024 C27.96,44.024 29.307,43.95 30.626,43.803 L30.405,41.815 C29.159,41.953 27.886,42.024 26.621,42.024 C19.397,42.024 14,39.729 14,37.677 L14,30.494 C16.71,32.474 21.768,33.518 26.621,33.518 C27.988,33.518 29.337,33.443 30.631,33.293 L30.4,31.306 C29.182,31.447 27.911,31.518 26.621,31.518 C19.397,31.518 14,29.223 14,27.171 L14,19.866 C16.767,21.918 21.991,23 27,23 C32.008,23 37.232,21.918 40,19.866 L40,22 L42,22 L42,16.5 C42,12.278 34.271,10 27,10 C19.728,10 12,12.278 12,16.5 L12,47.056 C12,51.179 19.584,53.403 26.72,53.403 C32.255,53.403 37.233,52.159 39.712,50.157 L38.456,48.601 C36.347,50.304 31.742,51.403 26.72,51.403" id="Amazon-Keyspaces-Service_Icon_48_Squid" fill="#FFFFFF"></path>
    </g>
</svg>