<?xml version="1.0" encoding="UTF-8"?>
<svg width="64px" height="64px" viewBox="0 0 64 64" version="1.1" xmlns="http://www.w3.org/2000/svg" xmlns:xlink="http://www.w3.org/1999/xlink">
    <!-- Generator: Sketch 64 (93537) - https://sketch.com -->
    <title>Icon-Architecture/48/Arch_AWS-Database-Migration_48</title>
    <desc>Created with Sketch.</desc>
    <defs>
        <linearGradient x1="0%" y1="100%" x2="100%" y2="0%" id="linearGradient-1">
            <stop stop-color="#2E27AD" offset="0%"></stop>
            <stop stop-color="#527FFF" offset="100%"></stop>
        </linearGradient>
    </defs>
    <g id="Icon-Architecture/48/Arch_AWS-Database-Migration_48" stroke="none" stroke-width="1" fill="none" fill-rule="evenodd">
        <g id="Icon-Architecture-BG/48/Database" fill="url(#linearGradient-1)">
            <rect id="Rectangle" x="0" y="0" width="64" height="64"></rect>
        </g>
        <path d="M34.9946337,53 L36.991389,53 L36.991389,48 L34.9946337,48 L34.9946337,53 Z M27.0076126,53 L29.0043679,53 L29.0043679,48 L27.0076126,48 L27.0076126,53 Z M42.0032447,51 L44,51 L44,47 L42.0032447,47 L42.0032447,51 Z M20.0189692,51 L22.0157244,51 L22.0157244,47 L20.0189692,47 L20.0189692,51 Z M31.9995008,28 C25.8015724,28 21.9967553,26.033 21.9967553,24.624 L21.9967553,18.996 C24.3389492,20.429 28.3644078,21 31.9995008,21 C35.6355922,21 39.6610508,20.429 42.0032447,18.996 L42.0032447,24.624 C42.0032447,26.033 38.1974292,28 31.9995008,28 L31.9995008,28 Z M31.9995008,36 C25.5589667,36 21.9967553,34.1 21.9967553,32.786 L21.9967553,27.714 C24.0903532,29.125 27.6755273,30 31.9995008,30 C36.3234744,30 39.9086484,29.125 42.0032447,27.714 L42.0032447,32.786 C42.0032447,34.1 38.4410333,36 31.9995008,36 L31.9995008,36 Z M31.9995008,44 C25.82154,44 21.9967553,42.443 21.9967553,41 L21.9967553,35.822 C24.0723824,37.177 27.6256084,38 31.9995008,38 C36.3733932,38 39.9276176,37.177 42.0032447,35.822 L42.0032447,41 C42.0032447,42.443 38.17846,44 31.9995008,44 L31.9995008,44 Z M31.9995008,13 C38.5258954,13 42.0032447,14.742 42.0032447,16 C42.0032447,17.258 38.5258954,19 31.9995008,19 C25.4731062,19 21.9967553,17.258 21.9967553,16 C21.9967553,14.742 25.4731062,13 31.9995008,13 L31.9995008,13 Z M31.9995008,11 C26.4634968,11 20,12.31 20,16 L20,41 C20,44.69 26.4634968,46 31.9995008,46 C37.5355048,46 44,44.69 44,41 L44,16 C44,12.31 37.5355048,11 31.9995008,11 L31.9995008,11 Z" id="AWS-Database-Migration_Icon_48_Squid" fill="#FFFFFF"></path>
    </g>
</svg>