<?xml version="1.0" encoding="UTF-8"?>
<svg width="64px" height="64px" viewBox="0 0 64 64" version="1.1" xmlns="http://www.w3.org/2000/svg" xmlns:xlink="http://www.w3.org/1999/xlink">
    <!-- Generator: Sketch 64 (93537) - https://sketch.com -->
    <title>Icon-Architecture/48/Arch_Amazon-Quantum-Ledger-Database_48</title>
    <desc>Created with Sketch.</desc>
    <defs>
        <linearGradient x1="0%" y1="100%" x2="100%" y2="0%" id="linearGradient-1">
            <stop stop-color="#2E27AD" offset="0%"></stop>
            <stop stop-color="#527FFF" offset="100%"></stop>
        </linearGradient>
    </defs>
    <g id="Icon-Architecture/48/Arch_Amazon-Quantum-Ledger-Database_48" stroke="none" stroke-width="1" fill="none" fill-rule="evenodd">
        <g id="Icon-Architecture-BG/48/Database" fill="url(#linearGradient-1)">
            <rect id="Rectangle" x="0" y="0" width="64" height="64"></rect>
        </g>
        <path d="M52,37.0930278 L45.046,37.0930278 L45.046,34.0818645 L40,34.0818645 L40,37.0930278 L33,37.0930278 L33,34.0818645 L28,34.0818645 L28,37.0930278 L21,37.0930278 L21,30.06698 L28,30.06698 L28,33.0781434 L33,33.0781434 L33,30.06698 L40,30.06698 L40,33.0781434 L45,33.0781434 L45,30.06698 L52,30.06698 L52,37.0930278 Z M52.369,28.0595378 L44.631,28.0595378 C43.731,28.0595378 43,28.7932579 43,29.6956032 L43,31.0707011 L42,31.0707011 L42,29.6956032 C42,28.7932579 41.269,28.0595378 40.369,28.0595378 L32.631,28.0595378 C31.731,28.0595378 31,28.7932579 31,29.6956032 L31,31.0707011 L30,31.0707011 L30,29.6956032 C30,28.7932579 29.269,28.0595378 28.369,28.0595378 L20.631,28.0595378 C19.731,28.0595378 19,28.7932579 19,29.6956032 L19,37.4644046 C19,38.3667499 19.731,39.10047 20.631,39.10047 L28.369,39.10047 C29.269,39.10047 30,38.3667499 30,37.4644046 L30,36.0893067 L31,36.0893067 L31,37.4644046 C31,38.3667499 31.731,39.10047 32.631,39.10047 L40.369,39.10047 C41.269,39.10047 42,38.3667499 42,37.4644046 L42,36.0893067 L43.046,36.0893067 L43.046,37.4644046 C43.046,38.3667499 43.777,39.10047 44.677,39.10047 L52.369,39.10047 C53.269,39.10047 54,38.3667499 54,37.4644046 L54,29.6956032 C54,28.7932579 53.269,28.0595378 52.369,28.0595378 L52.369,28.0595378 Z M48,34.0818645 L49,34.0818645 L49,33.0781434 L48,33.0781434 L48,34.0818645 Z M47.631,36.0893067 L49.369,36.0893067 C50.269,36.0893067 51,35.3555866 51,34.4532413 L51,32.7067665 C51,31.8044213 50.269,31.0707011 49.369,31.0707011 L47.631,31.0707011 C46.731,31.0707011 46,31.8044213 46,32.7067665 L46,34.4532413 C46,35.3555866 46.731,36.0893067 47.631,36.0893067 L47.631,36.0893067 Z M36,34.0818645 L37,34.0818645 L37,33.0781434 L36,33.0781434 L36,34.0818645 Z M37.369,31.0707011 L35.631,31.0707011 C34.731,31.0707011 34,31.8044213 34,32.7067665 L34,34.4532413 C34,35.3555866 34.731,36.0893067 35.631,36.0893067 L37.369,36.0893067 C38.269,36.0893067 39,35.3555866 39,34.4532413 L39,32.7067665 C39,31.8044213 38.269,31.0707011 37.369,31.0707011 L37.369,31.0707011 Z M24,34.0818645 L25,34.0818645 L25,33.0781434 L24,33.0781434 L24,34.0818645 Z M25.369,31.0707011 L23.631,31.0707011 C22.731,31.0707011 22,31.8044213 22,32.7067665 L22,34.4532413 C22,35.3555866 22.731,36.0893067 23.631,36.0893067 L25.369,36.0893067 C26.269,36.0893067 27,35.3555866 27,34.4532413 L27,32.7067665 C27,31.8044213 26.269,31.0707011 25.369,31.0707011 L25.369,31.0707011 Z M24,14.0074422 C31.435,14.0074422 36,16.3461124 36,18.0223267 C36,19.6985409 31.435,22.0372111 24,22.0372111 C16.565,22.0372111 12,19.6985409 12,18.0223267 C12,16.3461124 16.565,14.0074422 24,14.0074422 L24,14.0074422 Z M36,46.9114277 C36,48.6157462 31.435,50.9925578 24,50.9925578 C16.565,50.9925578 12,48.6157462 12,46.9114277 L12,40.875049 C14.583,42.8202605 19.059,44.121083 23.765,44.121083 C30.014,44.121083 33.3,42.6375832 33.437,42.5743488 L32.604,40.7495838 C32.573,40.7626322 29.528,42.1136408 23.765,42.1136408 C17.893,42.1136408 13.181,40.0168674 12,38.0124363 L12,30.9793625 C13.502,32.1858353 15.613,33.1293331 17.976,33.5709704 L18.343,31.5976547 C14.973,30.9663141 12.725,29.3212152 12,28.0153741 L12,21.2302193 C14.613,23.0720476 19.4,24.0446533 24,24.0446533 C28.6,24.0446533 33.387,23.0720476 36,21.2302193 L36,26.0520956 L38,26.0520956 L38,18.0223267 C38,14.1108255 30.787,12 24,12 C17.213,12 10,14.1108255 10,18.0223267 L10,46.9114277 C10,50.8660889 17.213,53 24,53 C30.787,53 38,50.8660889 38,46.9114277 L38,41.1079123 L36,41.1079123 L36,46.9114277 Z" id="Amazon-Quantum-Ledger-Database_Icon_48_Squid" fill="#FFFFFF"></path>
    </g>
</svg>