<?xml version="1.0" encoding="UTF-8"?>
<svg width="40px" height="40px" viewBox="0 0 40 40" version="1.1" xmlns="http://www.w3.org/2000/svg" xmlns:xlink="http://www.w3.org/1999/xlink">
    <!-- Generator: Sketch 64 (93537) - https://sketch.com -->
    <title>Icon-Architecture/48/Arch_Amazon-DocumentDB_48</title>
    <desc>Created with Sketch.</desc>
    <defs>
        <linearGradient x1="0%" y1="100%" x2="100%" y2="0%" id="linearGradient-1">
            <stop stop-color="#2E27AD" offset="0%"></stop>
            <stop stop-color="#527FFF" offset="100%"></stop>
        </linearGradient>
    </defs>
    <g id="Icon-Architecture/48/Arch_Amazon-DocumentDB_48" stroke="none" stroke-width="1" fill="none" fill-rule="evenodd">
        <g id="Icon-Architecture-BG/32/Database" fill="url(#linearGradient-1)">
            <rect id="Rectangle" x="0" y="0" width="40" height="40"></rect>
        </g>
        <path d="M17,6.99633491 C22.304,6.99633491 26,8.5715404 26,9.98533964 C26,11.3991389 22.304,12.9743444 17,12.9743444 C11.696,12.9743444 8,11.3991389 8,9.98533964 C8,8.5715404 11.696,6.99633491 17,6.99633491 L17,6.99633491 Z M16.647,33.0036651 C11.552,33.0036651 8,31.3935879 8,29.9498986 L8,25.5162082 C9.729,26.9519268 13.446,27.7699178 17.081,27.7699178 C17.966,27.7699178 18.857,27.7201011 19.732,27.6234566 L19.621,26.6330997 C18.783,26.7257588 17.929,26.7735829 17.081,26.7735829 C11.967,26.7735829 8,25.131623 8,23.7198164 L8,18.5378785 C9.729,19.9735971 13.446,20.7915881 17.081,20.7915881 C17.984,20.7915881 18.877,20.740775 19.734,20.6431342 L19.619,19.6537736 C18.801,19.7474291 17.946,19.7952532 17.081,19.7952532 C11.967,19.7952532 8,18.1532932 8,16.7414867 L8,11.7916948 C9.729,13.2154574 13.442,13.9706793 17,13.9706793 C20.558,13.9706793 24.271,13.2154574 26,11.7916948 L26,13.9706793 L27,13.9706793 L27,9.98533964 C27,7.39686155 21.848,6 17,6 C12.152,6 7,7.39686155 7,9.98533964 L7,29.9498986 C7,32.2584066 11.147,34 16.647,34 C20.301,34 23.579,33.1869907 25.204,31.8797993 L24.575,31.1046507 C23.143,32.2574102 20.03,33.0036651 16.647,33.0036651 L16.647,33.0036651 Z M30.259,20.9450237 C30.533,20.9450237 30.775,21.0546205 30.941,21.2538875 C31.275,21.6544141 31.179,22.2811088 31.155,22.4026616 C31.164,23.3153044 31.709,23.5105861 31.771,23.5295164 C31.986,23.5952745 32.138,23.7975305 32.132,24.0207095 C32.126,24.2448849 31.978,24.4391702 31.76,24.4929723 C31.709,24.5089136 31.164,24.7041953 31.164,25.7094972 C31.175,26.2754154 30.901,26.9041028 30.274,26.9230331 L29.46,26.9230331 L29.46,25.9266982 L30.138,25.9266982 C30.154,25.8619364 30.165,25.77127 30.164,25.7194606 C30.164,24.8665979 30.444,24.3355514 30.75,24.0107462 C30.444,23.6869373 30.164,23.1588798 30.164,22.3109988 C30.186,22.1545742 30.189,22.0210654 30.179,21.9413586 L29.46,21.9413586 L29.46,20.9450237 L30.259,20.9450237 Z M27.866,20.9450237 L28.46,20.9450237 L28.46,21.9413586 L28.001,21.9413586 C27.985,22.0011387 27.974,22.0858271 27.975,22.1515852 C27.975,23.0024553 27.694,23.5325054 27.389,23.8573106 C27.694,24.1811195 27.975,24.709177 27.975,25.557058 C27.953,25.7134825 27.95,25.8469914 27.96,25.9266982 L28.46,25.9266982 L28.46,26.9230331 L27.881,26.9230331 C27.606,26.9230331 27.364,26.8134363 27.198,26.6141693 C26.864,26.2136427 26.96,25.586948 26.983,25.4663915 C26.975,24.5527524 26.43,24.3574707 26.367,24.3385404 C26.152,24.2727823 26.001,24.0705263 26.007,23.8473473 C26.013,23.6231719 26.161,23.4288866 26.379,23.3750845 C26.43,23.3591432 26.975,23.1638615 26.975,22.1585596 C26.964,21.5926414 27.237,20.963954 27.866,20.9450237 L27.866,20.9450237 Z M31,18.9523538 L31,16.959684 L31.229,16.959684 L33,18.8078853 L33,18.9523538 L31,18.9523538 Z M33,28.9157029 L25,28.9157029 L25,16.959684 L30,16.959684 L30,19.4505213 C30,19.7255097 30.224,19.9486888 30.5,19.9486888 L33,19.9486888 L33,28.9157029 Z M31.804,16.117781 C31.71,16.0191439 31.579,15.9633491 31.442,15.9633491 L31,15.9633491 L30,15.9633491 L24.5,15.9633491 C24.224,15.9633491 24,16.1865281 24,16.4615166 L24,29.4138704 C24,29.6888588 24.224,29.9120379 24.5,29.9120379 L33.5,29.9120379 C33.776,29.9120379 34,29.6888588 34,29.4138704 L34,19.9486888 L34,18.9523538 L34,18.6086183 C34,18.4800911 33.95,18.3565456 33.861,18.2648828 L31.804,16.117781 Z" id="Amazon-DocumentDB_Icon_48_Squid" fill="#FFFFFF"></path>
    </g>
</svg>