<?xml version="1.0" encoding="UTF-8"?>
<svg width="64px" height="64px" viewBox="0 0 64 64" version="1.1" xmlns="http://www.w3.org/2000/svg" xmlns:xlink="http://www.w3.org/1999/xlink">
    <!-- Generator: Sketch 64 (93537) - https://sketch.com -->
    <title>Icon-Architecture/48/Arch_Amazon-ElastiCache_48</title>
    <desc>Created with Sketch.</desc>
    <defs>
        <linearGradient x1="0%" y1="100%" x2="100%" y2="0%" id="linearGradient-1">
            <stop stop-color="#2E27AD" offset="0%"></stop>
            <stop stop-color="#527FFF" offset="100%"></stop>
        </linearGradient>
    </defs>
    <g id="Icon-Architecture/48/Arch_Amazon-ElastiCache_48" stroke="none" stroke-width="1" fill="none" fill-rule="evenodd">
        <g id="Icon-Architecture-BG/48/Database" fill="url(#linearGradient-1)">
            <rect id="Rectangle" x="0" y="0" width="64" height="64"></rect>
        </g>
        <path d="M40.05,35.2787365 L40.05,30.6209876 C38.062,31.7238753 34.856,32.240291 31.664,32.240291 C28.314,32.240291 25.639,31.6868455 23.95,30.7240706 L23.95,35.2787365 C23.95,36.2315034 26.402,37.6426392 31.664,37.6426392 C37.17,37.6426392 40.05,36.1034003 40.05,35.2787365 L40.05,35.2787365 Z M40.05,42.0081529 L40.05,38.0249469 C38.062,39.1278346 34.856,39.6442503 31.664,39.6442503 C28.314,39.6442503 25.639,39.0908048 23.95,38.1270291 L23.95,42.0091537 C23.95,42.9619206 26.402,44.3720556 31.664,44.3720556 C37.17,44.3720556 40.05,42.8328167 40.05,42.0081529 L40.05,42.0081529 Z M40.05,48.6635097 L40.05,44.7543633 C38.062,45.857251 34.856,46.3736666 31.664,46.3736666 C28.314,46.3736666 25.639,45.8202212 23.95,44.8574462 L23.95,48.6635097 C23.95,49.6422975 26.632,50.9983889 31.667,50.9983889 C37.171,50.9983889 40.05,49.4781654 40.05,48.6635097 L40.05,48.6635097 Z M23.95,27.8747773 C23.95,28.8655747 26.631,30.2386799 31.664,30.2386799 C37.17,30.2386799 40.05,28.699441 40.05,27.8747773 C40.05,27.0501135 37.17,25.5108746 31.664,25.5108746 C26.631,25.5108746 23.95,26.8839798 23.95,27.8747773 L23.95,27.8747773 Z M42.05,27.8747773 C42.05,27.9248175 42.037,27.9708546 42.034,28.0198941 L42.05,28.0198941 L42.05,48.6635097 C42.05,51.6589206 36.835,53 31.667,53 C25.765,53 21.95,51.2976298 21.95,48.6635097 L21.95,28.0188933 L21.963,28.0188933 C21.961,27.9708546 21.95,27.9238167 21.95,27.8747773 C21.95,25.2226426 25.763,23.5092636 31.664,23.5092636 C36.834,23.5092636 42.05,24.8583494 42.05,27.8747773 L42.05,27.8747773 Z M53,18.0048332 C53.553,18.0048332 54,17.5564723 54,17.0040276 L54,13.0008055 C54,12.4483609 53.553,12 53,12 L11,12 C10.447,12 10,12.4483609 10,13.0008055 L10,17.0040276 C10,17.5564723 10.447,18.0048332 11,18.0048332 C11.827,18.0048332 12.5,18.6783753 12.5,19.5060414 C12.5,20.3337076 11.827,21.0072497 11,21.0072497 C10.447,21.0072497 10,21.4546098 10,22.0080553 L10,38.0209437 C10,38.5733883 10.447,39.0217492 11,39.0217492 L19,39.0217492 L19,37.0201382 L15,37.0201382 L15,35.0185271 L19,35.0185271 L19,33.0169161 L14,33.0169161 C13.447,33.0169161 13,33.4652769 13,34.0177216 L13,37.0201382 L12,37.0201382 L12,22.8627432 C13.445,22.431396 14.5,21.0893158 14.5,19.5060414 C14.5,17.9217663 13.445,16.5796861 12,16.1483389 L12,14.0016111 L52,14.0016111 L52,16.1483389 C50.556,16.5796861 49.5,17.9217663 49.5,19.5060414 C49.5,21.0893158 50.556,22.431396 52,22.8627432 L52,37.0201382 L51,37.0201382 L51,34.0177216 C51,33.4652769 50.553,33.0169161 50,33.0169161 L45,33.0169161 L45,35.0185271 L49,35.0185271 L49,37.0201382 L45,37.0201382 L45,39.0217492 L53,39.0217492 C53.553,39.0217492 54,38.5733883 54,38.0209437 L54,22.0080553 C54,21.4546098 53.553,21.0072497 53,21.0072497 C52.173,21.0072497 51.5,20.3337076 51.5,19.5060414 C51.5,18.6783753 52.173,18.0048332 53,18.0048332 L53,18.0048332 Z M22,23.0088608 L22,17.0040276 C22,16.451583 21.553,16.0032221 21,16.0032221 L17,16.0032221 C16.447,16.0032221 16,16.451583 16,17.0040276 L16,30.0144995 C16,30.5669441 16.447,31.015305 17,31.015305 L19,31.015305 L19,29.0136939 L18,29.0136939 L18,18.0048332 L20,18.0048332 L20,23.0088608 L22,23.0088608 Z M46,29.0136939 L45,29.0136939 L45,31.015305 L47,31.015305 C47.553,31.015305 48,30.5669441 48,30.0144995 L48,17.0040276 C48,16.451583 47.553,16.0032221 47,16.0032221 L43,16.0032221 C42.447,16.0032221 42,16.451583 42,17.0040276 L42,23.0088608 L44,23.0088608 L44,18.0048332 L46,18.0048332 L46,29.0136939 Z M40,22.0080553 L40,17.0040276 C40,16.451583 39.553,16.0032221 39,16.0032221 L34,16.0032221 C33.447,16.0032221 33,16.451583 33,17.0040276 L33,21.0072497 L35,21.0072497 L35,18.0048332 L38,18.0048332 L38,22.0080553 L40,22.0080553 Z M29,21.0072497 L29,18.0048332 L26,18.0048332 L26,22.0080553 L24,22.0080553 L24,17.0040276 C24,16.451583 24.447,16.0032221 25,16.0032221 L30,16.0032221 C30.553,16.0032221 31,16.451583 31,17.0040276 L31,21.0072497 L29,21.0072497 Z" id="Amazon-ElastiCache_Icon_48_Squid" fill="#FFFFFF"></path>
    </g>
</svg>