<?xml version="1.0" encoding="UTF-8"?>
<svg width="64px" height="64px" viewBox="0 0 64 64" version="1.1" xmlns="http://www.w3.org/2000/svg" xmlns:xlink="http://www.w3.org/1999/xlink">
    <!-- Generator: Sketch 64 (93537) - https://sketch.com -->
    <title>Icon-Architecture/48/Arch_Amazon-RDS-for-VMware_48</title>
    <desc>Created with Sketch.</desc>
    <defs>
        <linearGradient x1="0%" y1="100%" x2="100%" y2="0%" id="linearGradient-1">
            <stop stop-color="#2E27AD" offset="0%"></stop>
            <stop stop-color="#527FFF" offset="100%"></stop>
        </linearGradient>
    </defs>
    <g id="Icon-Architecture/48/Arch_Amazon-RDS-for-VMware_48" stroke="none" stroke-width="1" fill="none" fill-rule="evenodd">
        <g id="Icon-Architecture-BG/48/Database" fill="url(#linearGradient-1)">
            <rect id="Rectangle" x="0" y="0" width="64" height="64"></rect>
        </g>
        <path d="M49,45 L51,45 L51,43 L49,43 L49,45 Z M46,45 L48,45 L48,43 L46,43 L46,45 Z M43,45 L45,45 L45,43 L43,43 L43,45 Z M52,51 L33,51 L33,46.414 L36.158,43.256 L40.49,45.823 C40.8,46.006 41.183,46.01 41.495,45.831 C41.807,45.653 42,45.322 42,44.962 L42,41 L52,41 L52,51 Z M53,39 L41,39 C40.447,39 40,39.448 40,40 L40,43.208 L36.51,41.14 C36.118,40.907 35.615,40.971 35.293,41.293 L31.293,45.293 C31.105,45.48 31,45.735 31,46 L31,52 C31,52.552 31.447,53 32,53 L53,53 C53.553,53 54,52.552 54,52 L54,40 C54,39.448 53.553,39 53,39 L53,39 Z M13,19 L11,19 L11,12 C11,11.448 11.447,11 12,11 L19,11 L19,13 L14.414,13 L19.707,18.293 L18.293,19.707 L13,14.414 L13,19 Z M20.658,41.752 L14.661,47 L19,47 L19,49 L12,49 C11.447,49 11,48.552 11,48 L11,41 L13,41 L13,45.797 L19.342,40.248 L20.658,41.752 Z M40.293,18.293 L45.586,13 L41,13 L41,11 L48,11 C48.553,11 49,11.448 49,12 L49,19 L47,19 L47,14.414 L41.707,19.707 L40.293,18.293 Z M47.564,29.692 C47.564,27.645 45.112,25.593 41.005,24.204 L41.645,22.309 C46.678,24.012 49.564,26.703 49.564,29.692 C49.564,32.682 46.678,35.373 41.645,37.076 L41.005,35.182 C45.112,33.792 47.564,31.739 47.564,29.692 L47.564,29.692 Z M10,29.692 C10,26.813 12.717,24.182 17.453,22.473 L18.133,24.354 C14.293,25.74 12,27.735 12,29.692 C12,31.649 14.293,33.645 18.133,35.031 L17.453,36.912 C12.717,35.203 10,32.571 10,29.692 L10,29.692 Z M30,38 C26.184,38 24.335,37.277 24,36.907 L24,35.015 C25.387,35.646 27.438,36 30,36 C32.561,36 34.613,35.646 36,35.015 L36,36.907 C35.665,37.277 33.815,38 30,38 L30,38 Z M24,25.977 C25.54,26.673 27.775,27 30,27 C32.224,27 34.46,26.673 36,25.977 L36,27.996 C35.917,28.406 34.01,29.436 30,29.436 C25.99,29.436 24.083,28.406 24,27.996 L24,25.977 Z M30,22 C33.765,22 35.795,23.141 35.992,23.611 C35.768,24.042 33.823,25 30,25 C26.101,25 24.157,24.005 24,23.641 L24,23.636 C24.132,23.183 26.166,22 30,22 L30,22 Z M24,30.416 C25.397,31.065 27.461,31.436 30,31.436 C32.539,31.436 34.602,31.065 36,30.416 L36,32.594 C35.931,32.904 34.324,34 30,34 C25.676,34 24.069,32.904 24,32.594 L24,30.416 Z M38,37 L38,23.617 C38,21.521 34.636,20 30,20 C25.364,20 22,21.521 22,23.617 L22,37 C22,39.784 28.123,40 30,40 C31.877,40 38,39.784 38,37 L38,37 Z" id="Amazon-RDS-for-VMware-Icon_48_Squid" fill="#FFFFFF"></path>
    </g>
</svg>