<?xml version="1.0" encoding="UTF-8"?>
<svg width="64px" height="64px" viewBox="0 0 64 64" version="1.1" xmlns="http://www.w3.org/2000/svg" xmlns:xlink="http://www.w3.org/1999/xlink">
    <!-- Generator: Sketch 64 (93537) - https://sketch.com -->
    <title>Icon-Architecture/48/Arch_Amazon-Aurora_48</title>
    <desc>Created with Sketch.</desc>
    <defs>
        <linearGradient x1="0%" y1="100%" x2="100%" y2="0%" id="linearGradient-1">
            <stop stop-color="#2E27AD" offset="0%"></stop>
            <stop stop-color="#527FFF" offset="100%"></stop>
        </linearGradient>
    </defs>
    <g id="Icon-Architecture/48/Arch_Amazon-Aurora_48" stroke="none" stroke-width="1" fill="none" fill-rule="evenodd">
        <g id="Icon-Architecture-BG/48/Database" fill="url(#linearGradient-1)">
            <rect id="Rectangle" x="0" y="0" width="64" height="64"></rect>
        </g>
        <path d="M36.2132007,16.011332 L34.1968006,16.011332 L34.1968006,14.005666 L36.2132007,14.005666 L36.2132007,12 L38.2296008,12 L38.2296008,14.005666 L40.2460008,14.005666 L40.2460008,16.011332 L38.2296008,16.011332 L38.2296008,18.016998 L36.2132007,18.016998 L36.2132007,16.011332 Z M45.2870009,24.033996 L43.2706009,24.033996 L43.2706009,22.02833 L45.2870009,22.02833 L45.2870009,20.022664 L47.303401,20.022664 L47.303401,22.02833 L49.319801,22.02833 L49.319801,24.033996 L47.303401,24.033996 L47.303401,25.036829 L47.303401,26.039662 L45.2870009,26.039662 L45.2870009,25.036829 L45.2870009,24.033996 Z M41.8530716,46.6739539 C40.357911,43.3816532 37.3706143,40.4112618 34.0606936,38.9240605 C37.3706143,37.4368591 40.357911,34.4654649 41.8530716,31.1731642 C43.3472241,34.4654649 46.3345208,37.4368591 49.6444415,38.9240605 C46.3345208,40.4112618 43.3472241,43.3816532 41.8530716,46.6739539 L41.8530716,46.6739539 Z M53.9918,37.9212275 C48.790496,37.9212275 42.8612717,32.0225637 42.8612717,26.8499511 C42.8612717,26.2953845 42.4095981,25.8471181 41.8530716,25.8471181 C41.295537,25.8471181 40.8448716,26.2953845 40.8448716,26.8499511 C40.8448716,32.0225637 34.9156473,37.9212275 29.7143433,37.9212275 C29.1568087,37.9212275 28.7061433,38.3694938 28.7061433,38.9240605 C28.7061433,39.4776243 29.1568087,39.9268935 29.7143433,39.9268935 C34.9156473,39.9268935 40.8448716,45.8245544 40.8448716,50.997167 C40.8448716,51.5507308 41.295537,52 41.8530716,52 C42.4095981,52 42.8612717,51.5507308 42.8612717,50.997167 C42.8612717,45.8245544 48.790496,39.9268935 53.9918,39.9268935 C54.5493346,39.9268935 55,39.4776243 55,38.9240605 C55,38.3694938 54.5493346,37.9212275 53.9918,37.9212275 L53.9918,37.9212275 Z M22.6025003,18.016998 C29.4522113,18.016998 33.1886006,20.004613 33.1886006,21.025497 C33.1886006,22.046381 29.4522113,24.033996 22.6025003,24.033996 C15.7527894,24.033996 12.0164001,22.046381 12.0164001,21.025497 C12.0164001,20.004613 15.7527894,18.016998 22.6025003,18.016998 L22.6025003,18.016998 Z M22.2526549,33.1667962 C17.2398844,33.1667962 13.6315365,32.1037932 12.0164001,30.9776118 L12.0164001,23.8635144 C14.3826455,25.2965628 18.503159,26.039662 22.6025003,26.039662 C26.7018416,26.039662 30.8223552,25.2965628 33.1886006,23.8635144 L33.1886006,30.3478326 C32.1733432,31.7538045 27.9419277,33.1667962 22.2526549,33.1667962 L22.2526549,33.1667962 Z M33.1886006,45.9749793 C33.1886006,47.4100333 29.0630461,49.4949232 22.5984675,49.4949232 C16.13893,49.4949232 12.0164001,47.4100333 12.0164001,45.9749793 L12.0164001,41.5675283 C14.2737599,42.9223557 18.0303132,43.7597212 22.2919747,43.7597212 C25.2339024,43.7597212 28.0780347,43.346554 30.3011157,42.5944293 L29.6508267,40.6960664 C27.6324103,41.3779928 25.0181476,41.7540552 22.2919747,41.7540552 C16.9011292,41.7540552 13.0397231,40.3520947 12.0164001,38.9932559 L12.0164001,33.2871362 C14.4270063,34.4634593 18.1291168,35.1724622 22.2526549,35.1724622 C26.1735448,35.1724622 30.5934937,34.4474139 33.1886006,32.9030511 L33.1886006,35.0651591 L35.2050007,35.0651591 L35.2050007,21.025497 C35.2050007,17.7331963 28.8654389,16.011332 22.6025003,16.011332 C16.3395618,16.011332 10,17.7331963 10,21.025497 L10,45.9749793 C10,49.5641186 16.4907918,51.5005892 22.5984675,51.5005892 C28.7101761,51.5005892 35.2050007,49.5641186 35.2050007,45.9749793 L35.2050007,43.0878231 L33.1886006,43.0878231 L33.1886006,45.9749793 Z" id="Amazon-Aurora_Icon_48_Squid" fill="#FFFFFF"></path>
    </g>
</svg>