<?xml version="1.0" encoding="UTF-8"?>
<svg width="64px" height="64px" viewBox="0 0 64 64" version="1.1" xmlns="http://www.w3.org/2000/svg" xmlns:xlink="http://www.w3.org/1999/xlink">
    <!-- Generator: Sketch 64 (93537) - https://sketch.com -->
    <title>Icon-Architecture/48/Arch_Amazon-RDS_48</title>
    <desc>Created with Sketch.</desc>
    <defs>
        <linearGradient x1="0%" y1="100%" x2="100%" y2="0%" id="linearGradient-1">
            <stop stop-color="#2E27AD" offset="0%"></stop>
            <stop stop-color="#527FFF" offset="100%"></stop>
        </linearGradient>
    </defs>
    <g id="Icon-Architecture/48/Arch_Amazon-RDS_48" stroke="none" stroke-width="1" fill="none" fill-rule="evenodd">
        <g id="Icon-Architecture-BG/48/Database" fill="url(#linearGradient-1)">
            <rect id="Rectangle" x="0" y="0" width="64" height="64"></rect>
        </g>
        <path d="M54,11 L54,19 L52,19 L52,13.414 L45.707,19.707 L44.293,18.293 L50.586,12 L45.125,12 L45.125,10 L53,10 C53.553,10 54,10.448 54,11 L54,11 Z M12,18.875 L10,18.875 L10,11 C10,10.448 10.447,10 11,10 L19,10 L19,12 L13.414,12 L19.707,18.293 L18.293,19.707 L12,13.414 L12,18.875 Z M19.707,45.707 L13.414,52 L18.875,52 L18.875,54 L11,54 C10.447,54 10,53.552 10,53 L10,45 L12,45 L12,50.586 L18.293,44.293 L19.707,45.707 Z M51.5,31.781 C51.5,29.352 48.634,26.932 43.833,25.307 L44.474,23.413 C50.21,25.354 53.5,28.404 53.5,31.781 C53.5,35.158 50.21,38.208 44.474,40.15 L43.833,38.255 C48.634,36.631 51.5,34.21 51.5,31.781 L51.5,31.781 Z M12.543,31.781 C12.543,34.105 15.224,36.46 19.715,38.081 L19.035,39.961 C13.639,38.014 10.543,35.033 10.543,31.781 C10.543,28.53 13.639,25.548 19.035,23.601 L19.715,25.482 C15.224,27.103 12.543,29.458 12.543,31.781 L12.543,31.781 Z M52,45.125 L54,45.125 L54,53 C54,53.552 53.553,54 53,54 L45,54 L45,52 L50.586,52 L44.293,45.707 L45.707,44.293 L52,50.586 L52,45.125 Z M32.022,31.402 C26.999,31.402 24.126,30.059 24,29.483 L24,26.257 C26.159,27.266 29.609,27.593 32,27.593 C34.391,27.593 37.841,27.266 40,26.257 L40,29.483 C39.894,30.057 37.051,31.402 32.022,31.402 L32.022,31.402 Z M32.022,37.13 C26.999,37.13 24.126,35.786 24,35.21 L24,31.956 C25.953,32.937 29.055,33.402 32.022,33.402 C34.973,33.402 38.055,32.938 40,31.96 L40,35.21 C39.894,35.785 37.052,37.13 32.022,37.13 L32.022,37.13 Z M32,42.268 C26.95,42.268 24.104,40.917 24,40.346 L24,37.683 C25.953,38.665 29.055,39.13 32.022,39.13 C34.973,39.13 38.055,38.666 40,37.687 L40,40.342 C39.896,40.917 37.05,42.268 32,42.268 L32,42.268 Z M32,22.193 C36.971,22.193 39.642,23.37 39.982,23.894 C39.642,24.417 36.971,25.593 32,25.593 C26.909,25.593 24.233,24.361 24,23.949 L24,23.93 C24.233,23.426 26.909,22.193 32,22.193 L32,22.193 Z M32,20.193 C28.286,20.193 22,20.973 22,23.894 L22,40.346 C22,43.041 27.184,44.268 32,44.268 C36.816,44.268 42,43.041 42,40.346 L42,23.894 C42,20.973 35.714,20.193 32,20.193 L32,20.193 Z" id="Amazon-RDS_Icon_48_Squid" fill="#FFFFFF"></path>
    </g>
</svg>