<?xml version="1.0" encoding="UTF-8"?>
<svg width="64px" height="64px" viewBox="0 0 64 64" version="1.1" xmlns="http://www.w3.org/2000/svg" xmlns:xlink="http://www.w3.org/1999/xlink">
    <!-- Generator: Sketch 64 (93537) - https://sketch.com -->
    <title>Icon-Architecture/48/Arch_Amazon-DynamoDB_48</title>
    <desc>Created with Sketch.</desc>
    <defs>
        <linearGradient x1="0%" y1="100%" x2="100%" y2="0%" id="linearGradient-1">
            <stop stop-color="#2E27AD" offset="0%"></stop>
            <stop stop-color="#527FFF" offset="100%"></stop>
        </linearGradient>
    </defs>
    <g id="Icon-Architecture/48/Arch_Amazon-DynamoDB_48" stroke="none" stroke-width="1" fill="none" fill-rule="evenodd">
        <g id="Icon-Architecture-BG/48/Database" fill="url(#linearGradient-1)">
            <rect id="Rectangle" x="0" y="0" width="64" height="64"></rect>
        </g>
        <path d="M46.5858287,25.2492763 L43.0008475,25.2492763 C42.6728493,25.2492763 42.3658509,25.086523 42.1788519,24.8145936 C41.9918528,24.5416533 41.9488531,24.1939071 42.0648525,23.8835638 L44.5578394,17.162156 L35.6448862,17.162156 L31.5539077,26.2601663 L36.0008843,26.2601663 C36.3218827,26.2601663 36.6238811,26.4158434 36.8128801,26.6806966 C36.9998791,26.943528 37.0518788,27.2821762 36.9488794,27.5904976 L33.2888986,38.6910812 L46.5858287,25.2492763 Z M49.7068123,24.9530855 L31.7079069,43.1491063 C31.5159079,43.3442081 31.2589093,43.4452971 31.0009106,43.4452971 C30.8189116,43.4452971 30.6379125,43.3957635 30.4759134,43.2946744 C30.0809155,43.0480173 29.9049164,42.5597574 30.0529156,42.1149658 L34.6128916,28.2819464 L30.0009159,28.2819464 C29.6609177,28.2819464 29.3449193,28.1070624 29.1599203,27.8189588 C28.9769213,27.5288333 28.9499214,27.1659238 29.0909207,26.8525479 L34.0908944,15.7327574 C34.2528935,15.3718697 34.6078917,15.1403759 35.0008896,15.1403759 L46.0008318,15.1403759 C46.32883,15.1403759 46.6358284,15.3031292 46.8228274,15.5750586 C47.0098265,15.8479989 47.0528262,16.1957451 46.9378268,16.5060883 L44.44384,23.2274962 L48.999816,23.2274962 C49.4038139,23.2274962 49.769812,23.4741534 49.9238111,23.8512154 C50.0788103,24.2292882 49.9928108,24.663971 49.7068123,24.9530855 L49.7068123,24.9530855 Z M41.0008581,44.2196388 C38.2908723,46.1059597 33.3138985,47.1016863 28.5329236,47.1016863 C23.7169489,47.1016863 18.6959753,46.0928181 15.9999895,44.1781923 L16.0009895,47.9943023 C16.0009895,49.6582273 20.7689644,51.9782199 28.5329236,51.9782199 C36.0278842,51.9782199 41.0008581,49.2761108 41.0008581,47.4888572 L41.0008581,44.2196388 Z M43.0648472,40.9504204 C43.0648472,41.1374351 43.0328474,41.3173735 43.0008475,41.4963011 L43.0008475,47.4888572 C43.0008475,51.0795387 36.5108817,54 28.5329236,54 C21.6299599,54 14.6619965,52.1106465 14.0599997,48.4997473 L14.001,48.4997473 L14,43.4452971 L14,30.3037265 L14,16.1512659 L14.001,16.1512659 C14.001,12.1552176 21.4879606,10 28.5329236,10 C32.4739029,10 36.262883,10.6398934 38.9298689,11.755916 L38.163873,13.6240408 C35.7318858,12.6050636 32.2209042,12.0217801 28.5329236,12.0217801 C20.7689644,12.0217801 16.0009895,14.4266875 16.0009895,16.1512659 C16.0009895,17.8758443 20.7689644,20.2807517 28.5329236,20.2807517 C28.7279226,20.2807517 28.9319215,20.2817626 29.1289205,20.2736755 L29.2069201,22.2934338 C28.9819212,22.3025318 28.7579224,22.3025318 28.5329236,22.3025318 C23.7159489,22.3025318 18.6959753,21.2936636 15.9999895,19.3790378 L15.9999895,23.7369848 L16.0009895,23.7369848 L16.0009895,23.7541699 C16.0059895,24.2838763 16.4899869,24.8974866 17.3649823,25.4736939 C19.3469719,26.7615678 22.9149531,27.642053 26.9039322,27.8250241 L26.8129326,29.8447824 C22.6869543,29.6547351 19.0629734,28.7762717 16.7269857,27.4287552 C16.4169873,27.7269678 16.0009895,28.4851353 16.0009895,28.8955567 C16.0009895,30.6201351 20.7689644,33.0250425 28.5329236,33.0250425 C29.2709197,33.0250425 29.9979159,32.9997703 30.6949122,32.9502366 L30.8359115,34.9669623 C30.0919154,35.0205394 29.3169195,35.0468226 28.5329236,35.0468226 C23.7159489,35.0468226 18.6959753,34.0379543 15.9999895,32.1233286 L15.9999895,35.7928594 L16.0009895,35.7928594 C16.0059895,36.339751 16.4899869,36.9533612 17.3649823,37.5295685 C19.6329704,39.0044571 23.9139479,39.9233562 28.5329236,39.9233562 L28.8629219,39.9233562 L28.8629219,41.9451362 L28.5329236,41.9451362 C23.7549487,41.9451362 18.6729754,40.9372789 16.0009895,39.4017369 C15.6789912,39.6999495 16.0009895,40.4126269 16.0009895,40.9504204 C16.0009895,42.6749989 20.7689644,45.0799063 28.5329236,45.0799063 C36.2978828,45.0799063 41.0648577,42.6749989 41.0648577,40.9504204 C41.0648577,40.3408537 40.4658609,39.7757662 39.9728635,39.4118458 C39.5638656,39.658503 39.113868,39.8950512 38.6008707,40.1113817 L37.8328747,38.2442678 C38.3638719,38.0208611 38.8228695,37.7812802 39.1968675,37.5326012 C40.2978617,36.798695 41.0008581,35.7544456 41.0008581,35.3581767 L43.0008475,35.3581767 C43.0008475,36.2983045 42.3798508,37.3051509 41.583855,38.1330699 C42.7758487,39.1732757 43.0648472,40.2114598 43.0648472,40.9504204 L43.0648472,40.9504204 Z M17.1419835,48.3885494 C17.9329793,48.796949 18.8579745,49.1608694 19.893969,49.4691908 L20.457966,47.5292928 C19.5419709,47.2573634 18.7319751,46.9399439 18.0519787,46.5881542 L17.1419835,48.3885494 Z M19.893969,37.3385103 L20.457966,35.3996232 C19.5419709,35.1266829 18.7319751,34.8102743 18.0519787,34.4584846 L17.1419835,36.2578689 C17.9329793,36.6672793 18.8579745,37.0301889 19.893969,37.3385103 L19.893969,37.3385103 Z M17.1419835,24.1281992 L18.0519787,22.3278041 C18.7319751,22.6795938 19.5419709,22.9960024 20.457966,23.2689427 L19.893969,25.2088407 C18.8579745,24.9005192 17.9329793,24.5365988 17.1419835,24.1281992 L17.1419835,24.1281992 Z" id="Amazon-DynamoDB_Icon_48_Squid" fill="#FFFFFF"></path>
    </g>
</svg>