<?xml version="1.0" encoding="UTF-8"?>
<svg width="80px" height="80px" viewBox="0 0 80 80" version="1.1" xmlns="http://www.w3.org/2000/svg" xmlns:xlink="http://www.w3.org/1999/xlink">
    <title>Icon-Architecture/64/Arch_AWS-CloudShell_64</title>
    <defs>
        <linearGradient x1="0%" y1="100%" x2="100%" y2="0%" id="linearGradient-1">
            <stop stop-color="#2E27AD" offset="0%"></stop>
            <stop stop-color="#527FFF" offset="100%"></stop>
        </linearGradient>
    </defs>
    <g id="Icon-Architecture/64/Arch_AWS-CloudShell_64" stroke="none" stroke-width="1" fill="none" fill-rule="evenodd">
        <g id="Rectangle" fill="url(#linearGradient-1)">
            <rect x="0" y="0" width="80" height="80"></rect>
        </g>
        <g id="Icon-Service/64/AWS-CloudShell_64" transform="translate(8.000000, 8.000000)" fill="#FFFFFF">
            <path d="M38,51.9991666 L53,51.9991666 L53,49.9991666 L38,49.9991666 L38,51.9991666 Z M26.625,51.7801666 L36.625,43.7801666 C36.862,43.5901666 37,43.3031666 37,42.9991666 C37,42.6951666 36.862,42.4081666 36.625,42.2181666 L26.625,34.2181666 L25.375,35.7801666 L34.399,42.9991666 L25.375,50.2181666 L26.625,51.7801666 Z M19,57.9991666 L58,57.9991666 L58,27.9991666 L19,27.9991666 L19,57.9991666 Z M60,26.9991666 L60,58.9991666 C60,59.5511666 59.553,59.9991666 59,59.9991666 L18,59.9991666 C17.447,59.9991666 17,59.5511666 17,58.9991666 L17,26.9991666 C17,26.4471666 17.447,25.9991666 18,25.9991666 L59,25.9991666 C59.553,25.9991666 60,26.4471666 60,26.9991666 L60,26.9991666 Z M15.926,7.18316656 C13.209,8.33616656 11.081,11.6651666 11.081,14.7601666 L11.147,15.8511666 C11.175,16.3281666 10.86,16.7591666 10.397,16.8781666 C8.814,17.2841666 6.16,18.5361666 6.16,22.3531666 C6.16,25.2301666 7.716,26.8161666 9.021,27.6401666 C9.161,27.7291666 9.654,27.8901666 10.113,27.9991666 L13,27.9991666 L13,29.9991666 L10,29.9991666 C9.927,29.9991666 9.855,29.9911666 9.783,29.9751666 C9.49,29.9101666 8.492,29.6721666 7.952,29.3311666 C6.536,28.4371666 4.16,26.3421666 4.16,22.3531666 C4.16,18.9181666 5.991,16.2911666 9.105,15.1831666 L9.083,14.8181666 C9.081,10.8581666 11.688,6.81016656 15.145,5.34216656 C19.19,3.62216656 23.477,4.47816656 26.607,7.62716656 C27.488,8.51416656 28.225,9.57016656 28.806,10.7801666 C30.042,9.91816656 31.62,9.65416656 33.099,10.1401666 C35.083,10.7921666 36.341,12.5771666 36.552,14.9831666 C37.908,15.3381666 40.017,16.1861666 41.355,18.1661666 C42.16,19.3561666 42.568,20.7841666 42.568,22.4091666 L40.568,22.4091666 C40.568,21.1911666 40.275,20.1401666 39.698,19.2861666 C38.478,17.4801666 36.287,16.9301666 35.402,16.7771666 C34.868,16.6851666 34.505,16.1841666 34.583,15.6481666 C34.583,13.8211666 33.814,12.4811666 32.475,12.0411666 C31.298,11.6561666 30.002,12.0821666 29.246,13.1061666 C29.027,13.4041666 28.657,13.5551666 28.294,13.5021666 C27.928,13.4481666 27.621,13.1951666 27.498,12.8451666 C26.961,11.3191666 26.184,10.0381666 25.189,9.03716656 C23.973,7.81316656 20.637,5.18416656 15.926,7.18316656 L15.926,7.18316656 Z" id="Fill-5"></path>
        </g>
    </g>
</svg>