<?xml version="1.0" encoding="UTF-8"?>
<svg width="80px" height="80px" viewBox="0 0 80 80" version="1.1" xmlns="http://www.w3.org/2000/svg" xmlns:xlink="http://www.w3.org/1999/xlink">
    <title>Icon-Architecture/64/Arch_Amazon-Corretto_64</title>
    <defs>
        <linearGradient x1="0%" y1="100%" x2="100%" y2="0%" id="linearGradient-1">
            <stop stop-color="#2E27AD" offset="0%"></stop>
            <stop stop-color="#527FFF" offset="100%"></stop>
        </linearGradient>
    </defs>
    <g id="Icon-Architecture/64/Arch_Amazon-Corretto_64" stroke="none" stroke-width="1" fill="none" fill-rule="evenodd">
        <g id="Rectangle" fill="url(#linearGradient-1)">
            <rect x="0" y="0" width="80" height="80"></rect>
        </g>
        <g id="Icon-Service/64/Amazon-Corretto_64" transform="translate(8.000000, 8.000000)" fill="#FFFFFF">
            <path d="M25.066,11 L30.066,11 L30.066,6 L25.066,6 L25.066,11 Z M23.066,12 L23.066,5 C23.066,4.448 23.513,4 24.066,4 L31.066,4 C31.619,4 32.066,4.448 32.066,5 L32.066,12 C32.066,12.552 31.619,13 31.066,13 L24.066,13 C23.513,13 23.066,12.552 23.066,12 L23.066,12 Z M37.066,17 L42.066,17 L42.066,12 L37.066,12 L37.066,17 Z M35.066,18 L35.066,11 C35.066,10.448 35.513,10 36.066,10 L43.066,10 C43.619,10 44.066,10.448 44.066,11 L44.066,18 C44.066,18.552 43.619,19 43.066,19 L36.066,19 C35.513,19 35.066,18.552 35.066,18 L35.066,18 Z M23.066,22 L28.066,22 L28.066,17 L23.066,17 L23.066,22 Z M21.066,23 L21.066,16 C21.066,15.448 21.513,15 22.066,15 L29.066,15 C29.619,15 30.066,15.448 30.066,16 L30.066,23 C30.066,23.552 29.619,24 29.066,24 L22.066,24 C21.513,24 21.066,23.552 21.066,23 L21.066,23 Z M29.066,38 L49.066,38 L49.066,36 L29.066,36 L29.066,38 Z M12.159,40 L15.806,40 C15.083,37.882 14.671,35.621 14.671,33.261 L14.671,26.064 L12.159,26.064 C8.705,26.064 6,29.112 6,33.003 C6,36.861 8.762,40 12.159,40 L12.159,40 Z M12.159,42 C7.66,42 4,37.964 4,33.003 C4,28.074 7.66,24.064 12.159,24.064 L14.671,24.064 L14.671,22 C14.671,21.448 15.119,21 15.671,21 L19.066,21 L19.066,23 L16.671,23 L16.671,33.261 C16.671,34.194 16.762,35.104 16.893,36 L26.066,36 L26.066,38 L17.296,38 C19.409,46.135 26.793,52.169 35.58,52.169 C45.946,52.169 54.066,43.863 54.066,33.261 L54.066,31.979 L20.356,31.979 L20.356,29.979 L54.066,29.979 L54.066,23 L32.066,23 L32.066,21 L55.066,21 C55.619,21 56.066,21.448 56.066,22 L56.066,33.261 C56.066,44.985 47.067,54.169 35.58,54.169 C27.172,54.169 19.928,49.171 16.611,42 L12.159,42 Z M60,51.412 C60,57.006 47.418,60.024 35.58,60.024 C23.741,60.024 11.159,57.006 11.159,51.412 C11.159,49.904 12.134,47.704 16.783,45.784 L17.546,47.633 C14.758,48.784 13.159,50.162 13.159,51.412 C13.159,54.54 22.367,58.024 35.58,58.024 C48.792,58.024 58,54.54 58,51.412 C58,50.162 56.401,48.784 53.613,47.633 L54.377,45.784 C59.024,47.704 60,49.904 60,51.412 L60,51.412 Z" id="Fill-1"></path>
        </g>
    </g>
</svg>