<svg width="24" height="24" viewBox="0 0 24 24" fill="none" xmlns="http://www.w3.org/2000/svg">
<g clip-path="url(#clip0)">
<path d="M21.6021 11.2693L19.0488 10.4724C19.1576 10.9726 19.2129 11.483 19.2134 11.9949C19.2134 12.3549 19.1866 12.7149 19.1337 13.0712H21.6045C21.7062 13.0557 21.799 13.0055 21.8679 12.9296C21.9373 12.8537 21.978 12.7562 21.9841 12.654V11.6898C21.978 11.5871 21.9368 11.4901 21.8679 11.4141C21.7985 11.3382 21.7057 11.288 21.6045 11.2726" fill="#669DF6"/>
<path d="M12.0469 4.78078C12.5494 4.78125 13.051 4.83375 13.5427 4.93734L12.6263 2.39531C12.6108 2.29359 12.5602 2.19984 12.4838 2.13094C12.4074 2.06156 12.3094 2.02078 12.2063 2.01562H11.8238C11.7207 2.02078 11.6227 2.06109 11.5458 2.13047C11.4694 2.19984 11.4193 2.29359 11.4038 2.39531L10.6069 4.92703C11.079 4.83141 11.5599 4.78359 12.0418 4.78359" fill="#669DF6"/>
<path d="M4.78689 11.9949C4.78643 11.4817 4.8408 10.9693 4.94908 10.4673L2.3958 11.2642C2.29408 11.2801 2.20033 11.3303 2.13143 11.4067C2.06205 11.4831 2.02127 11.581 2.01611 11.6842V12.6484C2.02221 12.751 2.06346 12.8481 2.13236 12.924C2.20127 12.9999 2.29455 13.0496 2.3958 13.0656H4.86658C4.81314 12.7093 4.78643 12.3498 4.78689 11.9893V11.9949Z" fill="#669DF6"/>
<path fill-rule="evenodd" clip-rule="evenodd" d="M16.321 7.67396C15.1749 6.52787 13.6205 5.88428 12 5.88428C10.7916 5.88428 9.60987 6.2424 8.60487 6.91365C7.60034 7.58537 6.81706 8.53975 6.3544 9.65631C5.89175 10.7729 5.77081 12.0015 6.00659 13.1869C6.24237 14.3724 6.82456 15.4613 7.67909 16.3158C8.53362 17.1704 9.62253 17.7521 10.808 17.9879C11.993 18.2236 13.2221 18.1027 14.3386 17.6405C15.4552 17.1779 16.4096 16.3946 17.0808 15.3896C17.7525 14.3851 18.1107 13.2033 18.1107 11.9949C18.1107 10.374 17.4671 8.81959 16.321 7.67396ZM15.1711 8.73146L13.3003 10.0627L13.2938 10.0599C13.1274 10.1818 12.8935 10.1518 12.7641 9.98865C12.7111 9.92209 12.6835 9.84334 12.6802 9.76412L12.6778 9.76318L12.548 7.46162C13.5441 7.5849 14.4657 8.03725 15.1711 8.73146ZM12.3507 11.2543L12.7885 11.8037L12.6314 12.4894L11.9991 12.7946L11.3644 12.4885L11.2074 11.8027L11.6461 11.2543H12.3507ZM10.9838 7.54225C11.1399 7.50709 11.2955 7.48084 11.4507 7.46162L11.3208 9.76693L11.3114 9.77162C11.3025 9.97787 11.1333 10.1429 10.9257 10.1429C10.8408 10.1429 10.7621 10.1152 10.6983 10.0683L10.6946 10.0702L8.81159 8.73053C9.39003 8.15912 10.1307 7.73678 10.9838 7.54225ZM7.48878 12.4562C7.37628 11.4268 7.61815 10.426 8.12862 9.59162L9.848 11.1352L9.84612 11.1446C10.0013 11.2801 10.0242 11.5149 9.89487 11.678C9.8419 11.7446 9.77065 11.7896 9.69472 11.8102L9.69284 11.8177L7.48878 12.4562ZM10.4307 13.6922L9.55503 15.8162C8.73659 15.2888 8.08456 14.4994 7.73534 13.5305L9.99565 13.1457L9.9994 13.1504C10.0247 13.1457 10.0505 13.1433 10.0753 13.1438C10.2492 13.1462 10.4053 13.2676 10.4457 13.4452C10.4649 13.5282 10.4555 13.6107 10.4241 13.6838L10.4307 13.6922ZM13.0158 16.4237C12.1636 16.6182 11.3142 16.5591 10.545 16.2962L11.6564 14.2791H11.6583C11.7249 14.154 11.8514 14.0794 11.985 14.0743C12.0455 14.0719 12.1069 14.0846 12.1655 14.1127C12.2419 14.1497 12.3014 14.2083 12.3385 14.2782H12.3469L13.4611 16.299C13.3167 16.3477 13.1677 16.389 13.0158 16.4237ZM14.4521 15.8246L13.5671 13.6791L13.5699 13.6754C13.4883 13.4855 13.5699 13.2633 13.7569 13.1729C13.8047 13.1499 13.8549 13.1368 13.9046 13.1344C13.9346 13.133 13.9641 13.1354 13.9936 13.141L13.9974 13.1363L16.2774 13.523C15.9436 14.4643 15.3052 15.279 14.4521 15.8246ZM16.5169 12.4491L14.3011 11.8083L14.2992 11.799C14.101 11.7446 13.9791 11.5421 14.0255 11.3391C14.0442 11.2557 14.0883 11.1854 14.1478 11.1333L14.1469 11.1287L15.8569 9.59256C16.1124 10.0079 16.306 10.4724 16.4213 10.9754C16.5352 11.4727 16.5638 11.9691 16.5169 12.4491Z" fill="#4285F4"/>
</g>
<defs>
<clipPath id="clip0">
<rect width="19.9688" height="16.0898" fill="white" transform="translate(2.01562 2.01562)"/>
</clipPath>
</defs>
</svg>
