<svg xmlns="http://www.w3.org/2000/svg" width="24px" height="24px" viewBox="0 0 24 24"><defs><style>.cls-1{fill:#a6cafd;}.cls-2{fill:#559cfc;}.cls-3{fill:#fff;}.cls-4{fill:#669df6;}.cls-5{fill:none;stroke:#2683fb;stroke-miterlimit:10;}</style></defs><title>Icon_24px_DataLabeling_Color</title><g data-name="Product Icons"><path class="cls-1" d="M20,4H7.7a1.12,1.12,0,0,0-1,.63L3,12H5L8,6H19V7h2V5A1,1,0,0,0,20,4Z"/><circle class="cls-2" cx="10" cy="12" r="3"/><circle class="cls-3" cx="10" cy="12" r="1"/><g ><polygon id="path-5" class="cls-3" points="0 0 8 0 8 1 0 1 0 0"/></g><rect class="cls-4" x="17" y="8" width="5" height="2" rx="1"/><rect class="cls-4" x="14" y="11" width="8" height="2" rx="1"/><rect class="cls-4" x="17" y="14" width="5" height="2" rx="1"/><path class="cls-1" d="M19,17v1H8L6,14H4l2.69,5.37a1.12,1.12,0,0,0,1,.63H20a1,1,0,0,0,1-1V17Z"/><line class="cls-5" x1="10" y1="12" x2="2" y2="12"/></g></svg>