<svg xmlns="http://www.w3.org/2000/svg" width="24px" height="24px" viewBox="0 0 24 24"><defs><style>.cls-1{fill:#669df6;}.cls-1,.cls-2{fill-rule:evenodd;}.cls-2{fill:#4285f4;}</style></defs><title>Icon_24px_KeyManageService_Color</title><g data-name="Product Icons"><path class="cls-1" d="M11.32,17.06H10v1.4h1.37v.63h1.43V12.18a3.47,3.47,0,0,0,2.67-3.34,3.42,3.42,0,1,0-4.1,3.36v2.12H9.26v1.4h2.06ZM12,2l8.21,3.42v5.63c0,5.06-3.5,9.8-8.21,11-4.71-1.15-8.21-5.89-8.21-10.95V5.42Zm0,5a1.88,1.88,0,0,1,.72,3.62A1.88,1.88,0,1,1,12,7Z"/><path class="cls-2" d="M12,19.09h.75V12.18a3.47,3.47,0,0,0,2.67-3.34A3.42,3.42,0,0,0,12,5.42V2l8.21,3.42v5.63c0,5.06-3.5,9.8-8.21,11V19.09ZM12,7a1.88,1.88,0,0,1,.72,3.62,1.09,1.09,0,0,1-.72.15Z"/></g></svg>