<svg xmlns="http://www.w3.org/2000/svg" width="24px" height="24px" viewBox="0 0 24 24"><defs><style>.cls-1{fill:#4285f4;}.cls-2{fill:#aecbfa;}.cls-3{fill:#669df6;}</style></defs><title>Icon_24px_APIMonitization_Color</title><g data-name="Product Icons"><path class="cls-1" d="M5.87,20.49a1.51,1.51,0,0,1-3,0h0V16.21a1.51,1.51,0,1,1,3,0Z"/><path class="cls-1" d="M11,20.49a1.51,1.51,0,0,1-3,0h0V16.21a1.51,1.51,0,0,1,3,0Z"/><path class="cls-1" d="M16.06,20.49a1.51,1.51,0,0,1-3,0V16.21a1.51,1.51,0,0,1,3,0Z"/><path class="cls-1" d="M21.15,20.49a1.51,1.51,0,0,1-3,0V16.21a1.51,1.51,0,1,1,3,0Z"/><circle class="cls-2" cx="9.45" cy="11.97" r="1.51"/><circle class="cls-3" cx="14.55" cy="11.97" r="1.51"/><circle class="cls-2" cx="14.55" cy="7.74" r="1.51"/><circle class="cls-3" cx="19.64" cy="11.97" r="1.51"/><circle class="cls-3" cx="19.64" cy="7.74" r="1.51"/><circle class="cls-2" cx="19.64" cy="3.51" r="1.51"/></g></svg>