<?xml version="1.0" encoding="UTF-8"?>
<svg width="80px" height="80px" viewBox="0 0 80 80" version="1.1" xmlns="http://www.w3.org/2000/svg" xmlns:xlink="http://www.w3.org/1999/xlink">
    <title>Icon-Architecture/64/Arch_Amazon-Interactive-Video_64</title>
    <defs>
        <linearGradient x1="0%" y1="100%" x2="100%" y2="0%" id="linearGradient-1">
            <stop stop-color="#C8511B" offset="0%"></stop>
            <stop stop-color="#FF9900" offset="100%"></stop>
        </linearGradient>
    </defs>
    <g id="Icon-Architecture/64/Arch_Amazon-Interactive-Video_64" stroke="none" stroke-width="1" fill="none" fill-rule="evenodd">
        <g id="Rectangle" fill="url(#linearGradient-1)">
            <rect x="0" y="0" width="80" height="80"></rect>
        </g>
        <g id="Icon-Service/64/Amazon-Interactive-Video_64" transform="translate(8.000000, 8.000000)" fill="#FFFFFF">
            <path d="M58,38.28325 L47.522,32.23325 L58,26.18425 L58,38.28325 Z M26,42.17025 L26,22.29825 L43.21,32.23425 L26,42.17025 Z M24,18.83125 L13.522,12.78225 L24,6.73225 L24,18.83125 Z M24,57.73925 L13.522,51.68925 L24,45.63925 L24,57.73925 Z M59.5,23.58625 C59.191,23.40725 58.809,23.40725 58.5,23.58625 L45.366,31.16925 L26,19.98925 L26,5.00025 C26,4.64225 25.81,4.31225 25.5,4.13425 C25.191,3.95525 24.809,3.95525 24.5,4.13425 L11.022,11.91525 C10.713,12.09425 10.522,12.42425 10.522,12.78225 C10.522,13.13925 10.713,13.46925 11.022,13.64825 L24,21.14025 L24,43.33025 L11.022,50.82325 C10.713,51.00125 10.522,51.33125 10.522,51.68925 C10.522,52.04625 10.713,52.37625 11.022,52.55525 L24.5,60.33725 C24.654,60.42625 24.827,60.47025 25,60.47025 C25.173,60.47025 25.346,60.42625 25.5,60.33725 C25.81,60.15825 26,59.82825 26,59.47025 L26,44.47925 L45.366,33.29825 L58.5,40.88125 C58.809,41.06025 59.191,41.06025 59.5,40.88125 C59.81,40.70225 60,40.37225 60,40.01525 L60,24.45225 C60,24.09525 59.81,23.76425 59.5,23.58625 L59.5,23.58625 Z M40,57.73425 L40,45.63525 L50.478,51.68525 L40,57.73425 Z M52.978,50.81925 L39.5,43.03725 C39.191,42.85825 38.809,42.85825 38.5,43.03725 C38.19,43.21625 38,43.54625 38,43.90325 L38,59.46625 C38,59.82425 38.19,60.15425 38.5,60.33225 C38.654,60.42225 38.827,60.46625 39,60.46625 C39.173,60.46625 39.346,60.42225 39.5,60.33225 L52.978,52.55125 C53.287,52.37225 53.478,52.04225 53.478,51.68525 C53.478,51.32725 53.287,50.99725 52.978,50.81925 L52.978,50.81925 Z M6,38.28325 L6,26.18325 L16.478,32.23325 L6,38.28325 Z M19.478,32.23325 C19.478,31.87525 19.287,31.54525 18.978,31.36625 L5.5,23.58525 C5.191,23.40725 4.809,23.40725 4.5,23.58525 C4.19,23.76425 4,24.09425 4,24.45125 L4,40.01425 C4,40.37225 4.19,40.70225 4.5,40.88125 C4.654,40.97025 4.827,41.01425 5,41.01425 C5.173,41.01425 5.346,40.97025 5.5,40.88125 L18.978,33.09925 C19.287,32.92025 19.478,32.59025 19.478,32.23325 L19.478,32.23325 Z M40,6.73225 L50.478,12.78225 L40,18.83125 L40,6.73225 Z M38.5,21.42925 C38.654,21.51825 38.827,21.56325 39,21.56325 C39.173,21.56325 39.346,21.51825 39.5,21.42925 L52.978,13.64825 C53.287,13.46925 53.478,13.13925 53.478,12.78225 C53.478,12.42425 53.287,12.09425 52.978,11.91525 L39.5,4.13425 C39.191,3.95525 38.809,3.95525 38.5,4.13425 C38.19,4.31225 38,4.64225 38,5.00025 L38,20.56325 C38,20.92025 38.19,21.25025 38.5,21.42925 L38.5,21.42925 Z" id="Amazon-Interactive-Video_Icon_64_Squid"></path>
        </g>
    </g>
</svg>