<?xml version="1.0" encoding="UTF-8"?>
<svg width="80px" height="80px" viewBox="0 0 80 80" version="1.1" xmlns="http://www.w3.org/2000/svg" xmlns:xlink="http://www.w3.org/1999/xlink">
    <title>Icon-Architecture/64/Arch_AWS-Elemental-Link_64</title>
    <defs>
        <linearGradient x1="0%" y1="100%" x2="100%" y2="0%" id="linearGradient-1">
            <stop stop-color="#C8511B" offset="0%"></stop>
            <stop stop-color="#FF9900" offset="100%"></stop>
        </linearGradient>
    </defs>
    <g id="Icon-Architecture/64/Arch_AWS-Elemental-Link_64" stroke="none" stroke-width="1" fill="none" fill-rule="evenodd">
        <g id="Rectangle" fill="url(#linearGradient-1)">
            <rect x="0" y="0" width="80" height="80"></rect>
        </g>
        <g id="Icon-Service/64/AWS-Elemental-Link_64" transform="translate(8.000000, 8.000000)" fill="#FFFFFF">
            <path d="M26.3965,9.3903 L25.3965,7.6583 L31.5005,4.1343 C31.8085,3.9553 32.1915,3.9553 32.5005,4.1343 L38.6035,7.6583 L37.6035,9.3903 L32.0005,6.1553 L26.3965,9.3903 Z M38.0005,48.7513 L32.0005,52.2153 L26.0005,48.7513 L26.0005,41.8233 L32.0005,38.3593 L38.0005,41.8233 L38.0005,48.7513 Z M40.0005,41.2463 C40.0005,40.8893 39.8095,40.5583 39.5005,40.3803 L32.5005,36.3383 C32.1915,36.1603 31.8085,36.1603 31.5005,36.3383 L24.5005,40.3803 C24.1905,40.5583 24.0005,40.8893 24.0005,41.2463 L24.0005,44.5003 L8.0005,44.5003 L8.0005,46.5003 L24.0005,46.5003 L24.0005,49.3283 C24.0005,49.6863 24.1905,50.0163 24.5005,50.1953 L31.0005,53.9483 L31.0005,59.5003 L33.0005,59.5003 L33.0005,53.9483 L39.5005,50.1953 C39.8095,50.0163 40.0005,49.6863 40.0005,49.3283 L40.0005,46.5003 L56.0005,46.5003 L56.0005,44.5003 L40.0005,44.5003 L40.0005,41.2463 Z M45.0005,28.5003 L51.0005,28.5003 L51.0005,26.5003 L45.0005,26.5003 L45.0005,28.5003 Z M45.0005,23.5003 L51.0005,23.5003 L51.0005,21.5003 L45.0005,21.5003 L45.0005,23.5003 Z M45.0005,18.5003 L51.0005,18.5003 L51.0005,16.5003 L45.0005,16.5003 L45.0005,18.5003 Z M14.0005,18.5003 L30.0005,18.5003 L30.0005,16.5003 L14.0005,16.5003 L14.0005,18.5003 Z M9.0005,30.5003 L55.0005,30.5003 L55.0005,13.5003 L9.0005,13.5003 L9.0005,30.5003 Z M56.0005,11.5003 L8.0005,11.5003 C7.4475,11.5003 7.0005,11.9483 7.0005,12.5003 L7.0005,31.5003 C7.0005,32.0523 7.4475,32.5003 8.0005,32.5003 L56.0005,32.5003 C56.5525,32.5003 57.0005,32.0523 57.0005,31.5003 L57.0005,12.5003 C57.0005,11.9483 56.5525,11.5003 56.0005,11.5003 L56.0005,11.5003 Z" id="AWS-Elemental-Link_Icon_64_Squid"></path>
        </g>
    </g>
</svg>