<svg xmlns="http://www.w3.org/2000/svg" width="24px" height="24px" viewBox="0 0 24 24"><defs><style>.cls-1{fill:#4285f4;}.cls-2{fill:#669df6;}.cls-3{fill:#aecbfa;}</style></defs><title>Icon_24px_IdentityAwareProxy_Color</title><g data-name="Product Icons"><path class="cls-1" d="M11.85,7a5.1,5.1,0,1,0,5.1,5.1h0A5.1,5.1,0,0,0,11.85,7Zm0,9.08a4,4,0,1,1,4-4h0A4,4,0,0,1,11.85,16.09Z"/><path class="cls-2" d="M13.77,12.71a2.09,2.09,0,0,0-.28-.22,3.11,3.11,0,0,0-2.61-.28,2.31,2.31,0,0,0-.89.47.86.86,0,0,0-.37.65v1h4.47v-.82A1,1,0,0,0,13.77,12.71Z"/><path class="cls-2" d="M11.85,11.53a1.16,1.16,0,1,0-1.17-1.15h0A1.17,1.17,0,0,0,11.85,11.53Z"/><polygon class="cls-3" points="20.78 10.72 19.74 10.72 20.51 11.49 18.3 11.49 18.3 12.39 20.51 12.39 19.74 13.17 20.78 13.17 22 11.94 20.78 10.72"/><polygon class="cls-2" points="17.54 8.5 18.18 9.14 19.16 8.17 19.16 9.26 19.89 8.52 19.89 6.79 18.16 6.79 17.43 7.53 18.52 7.53 17.54 8.5"/><polygon class="cls-2" points="19.16 15.83 18.18 14.86 17.54 15.49 18.52 16.47 17.43 16.47 18.16 17.2 19.89 17.2 19.89 15.47 19.16 14.74 19.16 15.83"/><path class="cls-2" d="M3.35,10.65A1.35,1.35,0,1,0,4.71,12a1.35,1.35,0,0,0-1.36-1.35Zm0,2.1A.76.76,0,1,1,4.11,12h0a.76.76,0,0,1-.76.75Z"/></g></svg>