<svg xmlns="http://www.w3.org/2000/svg" width="18" height="18" viewBox="0 0 18 18"><defs><linearGradient id="a2543bcd-55aa-4840-a5ac-39d57afd4228" x1="9.261" y1="-0.364" x2="6.218" y2="20.052" gradientUnits="userSpaceOnUse"><stop offset="0" stop-color="#32bedd" /><stop offset="1" stop-color="#198ab3" /></linearGradient><linearGradient id="a60145e1-6ccb-441f-b67d-d2694a998ff5" x1="10.798" y1="7.388" x2="14.441" y2="19.066" gradientUnits="userSpaceOnUse"><stop offset="0" stop-color="#50e6ff" /><stop offset="0.997" stop-color="#32bedd" /></linearGradient><linearGradient id="b456a054-82ca-4a95-919b-f07fd04a13ed" x1="-0.168" y1="4.114" x2="12.572" y2="10.895" gradientUnits="userSpaceOnUse"><stop offset="0" stop-color="#fff" /><stop offset="1" stop-color="#9cebff" /></linearGradient></defs><path d="M14.428,3.35l-5.195-3a2.624,2.624,0,0,0-2.622,0l-5.195,3A2.625,2.625,0,0,0,.105,5.621v6a2.625,2.625,0,0,0,1.311,2.272l5.2,3a2.624,2.624,0,0,0,2.622,0l5.2-3a2.625,2.625,0,0,0,1.311-2.272v-6A2.625,2.625,0,0,0,14.428,3.35Z" fill="url(#a2543bcd-55aa-4840-a5ac-39d57afd4228)" /><path d="M16.842,7.743,13.189,5.634a2.109,2.109,0,0,0-2.107,0L7.43,7.743A2.1,2.1,0,0,0,6.377,9.567v4.218A2.106,2.106,0,0,0,7.43,15.609l3.652,2.109a2.109,2.109,0,0,0,2.107,0l3.653-2.109A2.108,2.108,0,0,0,17.9,13.785V9.567A2.107,2.107,0,0,0,16.842,7.743Z" fill="url(#a60145e1-6ccb-441f-b67d-d2694a998ff5)" /><polygon points="7.578 2.963 8.63 2.381 13.14 11.728 12.774 12.128 2.835 12.128 2.947 10.931 11.328 10.931 7.578 2.963" fill="url(#b456a054-82ca-4a95-919b-f07fd04a13ed)" /><circle cx="2.732" cy="11.585" r="1.5" fill="#fff" /><circle cx="12.136" cy="11.676" r="2.344" fill="#fff" /><circle cx="8.041" cy="2.558" r="1.5" fill="#fff" />​
</svg>