<?xml version="1.0" encoding="UTF-8"?>
<svg width="24px" height="24px" viewBox="0 0 24 24" version="1.1" xmlns="http://www.w3.org/2000/svg" xmlns:xlink="http://www.w3.org/1999/xlink">
    <!-- Generator: Sketch 64 (93537) - https://sketch.com -->
    <title>Icon-Architecture/16/Arch_AWS-RoboMaker_16</title>
    <desc>Created with Sketch.</desc>
    <defs>
        <linearGradient x1="0%" y1="100%" x2="100%" y2="0%" id="linearGradient-1">
            <stop stop-color="#BD0816" offset="0%"></stop>
            <stop stop-color="#FF5252" offset="100%"></stop>
        </linearGradient>
    </defs>
    <g id="Icon-Architecture/16/Arch_AWS-RoboMaker_16" stroke="none" stroke-width="1" fill="none" fill-rule="evenodd">
        <g id="Icon-Architecture-BG/16/Robotics" fill="url(#linearGradient-1)">
            <rect id="Rectangle" x="0" y="0" width="24" height="24"></rect>
        </g>
        <path d="M9.199,6.129 L8.492,5.422 C9.315,4.598 10.776,4 11.967,4 C13.145,4 14.598,4.598 15.423,5.422 L14.716,6.129 C14.072,5.485 12.89,5 11.967,5 C11.048,5 9.832,5.496 9.199,6.129 L9.199,6.129 Z M18.912,17.187 L17.922,17.684 L17.922,14.305 L18.912,14.803 L18.912,17.187 Z M6.906,13.526 C6.978,11.21 9.632,9.479 11.957,9.479 C14.197,9.479 16.788,11.15 16.922,13.519 L16.922,18.51 L6.906,18.51 L6.906,13.526 Z M5,17.197 L5,14.802 L5.906,14.343 L5.906,17.69 L5,17.197 Z M11.453,7.495 C11.453,7.247 11.744,6.995 11.953,6.995 C12.228,6.995 12.453,7.219 12.453,7.495 L12.453,8.502 C12.287,8.487 12.121,8.479 11.957,8.479 C11.79,8.479 11.622,8.487 11.453,8.502 L11.453,7.495 Z M19.912,14.187 L17.883,13.167 C17.588,10.878 15.606,9.214 13.453,8.672 L13.453,7.495 C13.453,6.668 12.78,5.995 11.953,5.995 C11.245,5.995 10.453,6.636 10.453,7.495 L10.453,8.671 C8.236,9.219 6.173,10.919 5.935,13.208 L4,14.188 L4,17.792 L5.906,18.827 L5.906,19.51 L17.922,19.51 L17.922,18.803 L19.912,17.803 L19.912,14.187 Z M9.953,13.995 C9.678,13.995 9.453,13.771 9.453,13.495 C9.453,13.219 9.678,12.995 9.953,12.995 C10.228,12.995 10.453,13.219 10.453,13.495 C10.453,13.771 10.228,13.995 9.953,13.995 L9.953,13.995 Z M9.953,11.995 C9.126,11.995 8.453,12.668 8.453,13.495 C8.453,14.322 9.126,14.995 9.953,14.995 C10.78,14.995 11.453,14.322 11.453,13.495 C11.453,12.668 10.78,11.995 9.953,11.995 L9.953,11.995 Z M13.953,13.995 C13.678,13.995 13.453,13.771 13.453,13.495 C13.453,13.219 13.678,12.995 13.953,12.995 C14.228,12.995 14.453,13.219 14.453,13.495 C14.453,13.771 14.228,13.995 13.953,13.995 L13.953,13.995 Z M13.953,11.995 C13.126,11.995 12.453,12.668 12.453,13.495 C12.453,14.322 13.126,14.995 13.953,14.995 C14.78,14.995 15.453,14.322 15.453,13.495 C15.453,12.668 14.78,11.995 13.953,11.995 L13.953,11.995 Z" id="AWS-RoboMaker_Icon_16_Squid" fill="#FFFFFF"></path>
    </g>
</svg>