<svg id="Artwork" xmlns="http://www.w3.org/2000/svg" width="24px" height="24px" viewBox="0 0 24 24"><path d="M12,6.23h0L7.28,8.33v3.15A6.73,6.73,0,0,0,10,16.79a5.75,5.75,0,0,0,2,1h0Z" style="fill:#669df6"/><path d="M12,17.77a6.52,6.52,0,0,0,4.72-6.29V8.33L12,6.23Z" style="fill:#4285f4"/><path d="M17.08,11.62c0,.26,0,.51-.06.76H19.4v-.76Z" style="fill:#4285f4"/><path d="M6.92,11.62c0,.26,0,.51.06.76H4.6v-.76Z" style="fill:#4285f4"/><path d="M3.59,12.73a.73.73,0,0,1,0-1.46v-.6a1.33,1.33,0,1,0,0,2.66Z" style="fill:#aecbfa"/><path d="M14.22,14.27a.56.56,0,0,1-.56.55H10.34l-.1,0a.54.54,0,0,1-.45-.53V11.5a.55.55,0,0,1,.55-.55h.28v-.56a1.39,1.39,0,0,1,2.77,0V11h.27a.33.33,0,0,1,.15,0,.54.54,0,0,1,.38.42.29.29,0,0,1,0,.1ZM12,9.54h-.1a.85.85,0,0,0-.75.74s0,.07,0,.1V11h1.72v-.56a.85.85,0,0,0-.08-.35A.84.84,0,0,0,12,9.54Z" style="fill:#fff"/><path d="M12.25,11.58l-1.1,1.47h.63v1.11l1.07-1.49h-.6Z" style="fill:#4285f4"/><path d="M3.59,13.33A1.32,1.32,0,0,0,4.92,12v0a1.32,1.32,0,0,0-1.33-1.33v.6a.73.73,0,0,1,0,1.46Z" style="fill:#669df6"/><path d="M20.41,12.73a.73.73,0,0,1,0-1.46v-.6a1.33,1.33,0,0,0,0,2.66Z" style="fill:#aecbfa"/><path d="M20.41,13.33A1.32,1.32,0,0,0,21.75,12v0a1.33,1.33,0,0,0-1.34-1.33v.6a.73.73,0,1,1,0,1.46Z" style="fill:#669df6"/></svg>