<?xml version="1.0" encoding="UTF-8"?>
<svg width="80px" height="80px" viewBox="0 0 80 80" version="1.1" xmlns="http://www.w3.org/2000/svg" xmlns:xlink="http://www.w3.org/1999/xlink">
    <!-- Generator: Sketch 64 (93537) - https://sketch.com -->
    <title>Icon-Architecture/64/Arch_AWS-IoT-Button_64</title>
    <desc>Created with Sketch.</desc>
    <defs>
        <linearGradient x1="0%" y1="100%" x2="100%" y2="0%" id="linearGradient-1">
            <stop stop-color="#1B660F" offset="0%"></stop>
            <stop stop-color="#6CAE3E" offset="100%"></stop>
        </linearGradient>
    </defs>
    <g id="Icon-Architecture/64/Arch_AWS-IoT-Button_64" stroke="none" stroke-width="1" fill="none" fill-rule="evenodd">
        <g id="Icon-Architecture-BG/64/Internet-of-Things" fill="url(#linearGradient-1)">
            <rect id="Rectangle" x="0" y="0" width="80" height="80"></rect>
        </g>
        <path d="M41.5,42.502 C42.881,42.502 44,41.383 44,40.002 C44,38.621 42.881,37.502 41.5,37.502 C40.119,37.502 39,38.621 39,40.002 C39,41.383 40.119,42.502 41.5,42.502 L41.5,42.502 Z M48,40 C48,43.309 50.691,46 54,46 C57.309,46 60,43.309 60,40 C60,36.691 57.309,34 54,34 C50.691,34 48,36.691 48,40 L48,40 Z M46,40 C46,35.589 49.589,32 54,32 C58.411,32 62,35.589 62,40 C62,44.411 58.411,48 54,48 C49.589,48 46,44.411 46,40 L46,40 Z M15,40 C15,45.794 18.785,50 24,50 C24.03,50 24.06,50.002 24.089,50.004 L55.911,50.004 C55.94,50.002 55.97,50 56,50 C61.215,50 65,45.794 65,40 C65,34.208 61.215,30.004 56,30.004 C55.97,30.004 55.94,30.002 55.911,30 L24.089,30 C24.06,30.002 24.03,30.004 24,30.004 C18.785,30.004 15,34.208 15,40 L15,40 Z M13,40 C13,33.083 17.581,28.053 23.907,28.004 C23.938,28.002 23.969,28 24,28 L56,28 C56.031,28 56.063,28.002 56.093,28.004 C62.419,28.053 67,33.083 67,40 C67,46.92 62.419,51.951 56.093,52 C56.063,52.002 56.031,52.004 56,52.004 L24,52.004 C23.969,52.004 23.938,52.002 23.907,52 C17.581,51.951 13,46.919 13,40 L13,40 Z M17,17 L26,17 L26,15 L16,15 C15.447,15 15,15.448 15,16 L15,26 L17,26 L17,17 Z M63,26 L65,26 L65,16 C65,15.448 64.553,15 64,15 L54,15 L54,17 L63,17 L63,26 Z M17,54 L15,54 L15,64 C15,64.552 15.447,65 16,65 L26,65 L26,63 L17,63 L17,54 Z M63,54 L65,54 L65,64 C65,64.552 64.553,65 64,65 L54,65 L54,63 L63,63 L63,54 Z" id="AWS-IoT-Button_Icon_64_Squid" fill="#FFFFFF"></path>
    </g>
</svg>