<svg xmlns="http://www.w3.org/2000/svg" width="24px" height="24px" viewBox="0 0 24 24"><defs><style>.cls-1{fill:#4285f4;}.cls-1,.cls-2,.cls-3{fill-rule:evenodd;}.cls-2{fill:#aecbfa;}.cls-3{fill:#669df6;}</style></defs><title>Icon_24px_Interconnect_Color</title><g data-name="Product Icons"><g ><polygon id="Fill-3" class="cls-1" points="2 13 6 13 6 11 2 11 2 13"/><polygon id="Fill-6" class="cls-2" points="15 17 5 17 5 7 15 7 15 17"/><polygon id="Fill-1" class="cls-1" points="17.33 13 22 13 22 11 17.33 11 17.33 13"/><polygon class="cls-3" points="8 3 8 5 17 5 17 19 8 19 8 21 19 21 19 19 19 5 19 3 8 3"/><polygon id="Fill-7" class="cls-3" points="15 17 10 17 10 7 15 7 15 17"/></g></g></svg>