<?xml version="1.0" encoding="UTF-8"?>
<svg width="64px" height="64px" viewBox="0 0 64 64" version="1.1" xmlns="http://www.w3.org/2000/svg" xmlns:xlink="http://www.w3.org/1999/xlink">
    <!-- Generator: Sketch 64 (93537) - https://sketch.com -->
    <title>Icon-Architecture/48/Arch_AWS-Auto-Scaling_48</title>
    <desc>Created with Sketch.</desc>
    <defs>
        <linearGradient x1="0%" y1="100%" x2="100%" y2="0%" id="linearGradient-1">
            <stop stop-color="#B0084D" offset="0%"></stop>
            <stop stop-color="#FF4F8B" offset="100%"></stop>
        </linearGradient>
    </defs>
    <g id="Icon-Architecture/48/Arch_AWS-Auto-Scaling_48" stroke="none" stroke-width="1" fill="none" fill-rule="evenodd">
        <g id="Icon-Architecture-BG/48/Management-Governance" fill="url(#linearGradient-1)">
            <rect id="Rectangle" x="0" y="0" width="64" height="64"></rect>
        </g>
        <path d="M38,35.412396 L38,29.7130644 L33,32.5722341 L33,38.2705652 L38,35.412396 Z M26,34.4770133 L31,38.0504752 L31,32.5712337 L26,29.7130644 L26,34.4770133 Z M27.016,27.9893593 L32.001,30.8395253 L36.984,27.9893593 L32,25.1401937 L27.016,27.9893593 Z M40,27.9893593 L40,35.9926334 C40,36.3517803 39.808,36.6839161 39.496,36.8609886 L32.496,40.8626256 C32.342,40.951662 32.171,40.9946796 32,40.9946796 C31.796,40.9946796 31.592,40.9326543 31.419,40.8086035 L24.419,35.8065572 C24.156,35.6184803 24,35.3153563 24,34.9922241 L24,27.9893593 C24,27.6302124 24.192,27.2990769 24.504,27.121004 L31.504,23.119367 C31.811,22.943295 32.189,22.943295 32.496,23.119367 L39.496,27.121004 C39.808,27.2990769 40,27.6302124 40,27.9893593 L40,27.9893593 Z M54,30.9905871 L46.414,30.9905871 L49.707,27.6962394 L48.293,26.2816607 L43.293,31.283707 C42.902,31.674867 42.902,32.3071256 43.293,32.6982857 L48.293,37.700332 L49.707,36.2857533 L46.414,32.9914056 L54,32.9914056 L54,30.9905871 Z M15.769,25.3482788 L14.231,26.6288027 L17.865,30.9905871 L10,30.9905871 L10,32.9914056 L17.586,32.9914056 L14.293,36.2857533 L15.707,37.700332 L20.707,32.6982857 C21.073,32.3321359 21.1,31.7478969 20.769,31.3507344 L15.769,25.3482788 Z M33,50.23546 L33.001,42.9954982 L31.001,42.9954982 L31,50.2374608 L27.769,46.3568733 L26.231,47.6373971 L31.23,53.6398527 C31.421,53.867946 31.702,54 31.999,54 C32.296,54 32.577,53.867946 32.768,53.6398527 L37.769,47.6373971 L36.231,46.3568733 L33,50.23546 Z M27.769,17.6251194 L26.231,16.3445955 L31.23,10.34214 C31.611,9.88595334 32.387,9.88595334 32.768,10.34214 L37.769,16.3445955 L36.231,17.6251194 L33,13.7465327 L33.001,20.9864945 L31.001,20.9864945 L31,13.7445319 L27.769,17.6251194 Z" id="AWS-Auto-Scaling_Icon_48_Squid" fill="#FFFFFF"></path>
    </g>
</svg>