<?xml version="1.0" encoding="UTF-8"?>
<svg width="64px" height="64px" viewBox="0 0 64 64" version="1.1" xmlns="http://www.w3.org/2000/svg" xmlns:xlink="http://www.w3.org/1999/xlink">
    <!-- Generator: Sketch 64 (93537) - https://sketch.com -->
    <title>Icon-Architecture/48/Arch_AWS-App-Config_48</title>
    <desc>Created with Sketch.</desc>
    <defs>
        <linearGradient x1="0%" y1="100%" x2="100%" y2="0%" id="linearGradient-1">
            <stop stop-color="#B0084D" offset="0%"></stop>
            <stop stop-color="#FF4F8B" offset="100%"></stop>
        </linearGradient>
    </defs>
    <g id="Icon-Architecture/48/Arch_AWS-App-Config_48" stroke="none" stroke-width="1" fill="none" fill-rule="evenodd">
        <g id="Icon-Architecture-BG/48/Management-Governance" fill="url(#linearGradient-1)">
            <rect id="Rectangle" x="0" y="0" width="64" height="64"></rect>
        </g>
        <path d="M40.73,30.5 C40.73,34.084 37.814,37 34.23,37 C30.646,37 27.73,34.084 27.73,30.5 C27.73,26.916 30.646,24 34.23,24 C37.814,24 40.73,26.916 40.73,30.5 L40.73,30.5 Z M42.73,30.5 C42.73,25.813 38.917,22 34.23,22 C29.543,22 25.73,25.813 25.73,30.5 C25.73,35.187 29.543,39 34.23,39 C38.917,39 42.73,35.187 42.73,30.5 L42.73,30.5 Z M38.61,49.686 C38.799,49.486 38.897,49.217 38.881,48.942 L38.754,46.707 C40.045,46.345 41.283,45.832 42.451,45.175 L43.943,46.847 C44.126,47.052 44.385,47.173 44.661,47.181 C44.936,47.199 45.202,47.083 45.396,46.888 L50.595,41.688 C50.79,41.494 50.896,41.228 50.888,40.953 C50.88,40.678 50.759,40.418 50.554,40.235 L48.876,38.738 C49.533,37.571 50.044,36.335 50.405,35.047 L52.65,35.175 C52.924,35.186 53.194,35.092 53.393,34.904 C53.593,34.715 53.707,34.452 53.707,34.177 L53.707,26.824 C53.707,26.549 53.593,26.286 53.393,26.097 C53.195,25.908 52.925,25.81 52.65,25.825 L50.402,25.953 C50.042,24.665 49.529,23.43 48.873,22.264 L50.554,20.764 C50.759,20.581 50.88,20.321 50.888,20.046 C50.896,19.771 50.79,19.505 50.595,19.311 L45.396,14.112 C45.202,13.917 44.933,13.8 44.661,13.819 C44.386,13.827 44.126,13.948 43.943,14.153 L42.437,15.84 C41.273,15.184 40.04,14.673 38.753,14.313 L38.881,12.057 C38.897,11.782 38.799,11.513 38.61,11.313 C38.421,11.113 38.159,11 37.883,11 L30.53,11 C30.254,11 29.992,11.113 29.803,11.313 C29.614,11.513 29.516,11.782 29.532,12.057 L29.66,14.311 C28.374,14.67 27.139,15.182 25.974,15.836 L24.471,14.153 C24.288,13.948 24.029,13.827 23.753,13.819 C23.477,13.803 23.213,13.917 23.018,14.112 L17.819,19.311 C17.625,19.505 17.518,19.771 17.526,20.046 C17.534,20.321 17.655,20.581 17.86,20.764 L19.544,22.268 C18.887,23.434 18.375,24.668 18.013,25.953 L15.763,25.825 C15.492,25.809 15.219,25.908 15.02,26.097 C14.82,26.286 14.707,26.549 14.707,26.824 L14.707,34.177 C14.707,34.452 14.82,34.715 15.02,34.904 C15.221,35.093 15.489,35.191 15.765,35.175 L18.765,35 L18.648,33.003 L16.707,33.117 L16.707,27.882 L18.723,27.997 C19.209,28.02 19.646,27.696 19.755,27.219 C20.126,25.583 20.771,24.03 21.671,22.605 C21.932,22.192 21.856,21.651 21.492,21.325 L19.981,19.977 L23.684,16.274 L25.031,17.784 C25.356,18.148 25.898,18.224 26.31,17.963 C27.733,17.066 29.286,16.424 30.925,16.054 C31.403,15.946 31.732,15.509 31.704,15.021 L31.588,13 L36.825,13 L36.71,15.023 C36.682,15.511 37.011,15.947 37.488,16.055 C39.126,16.426 40.677,17.069 42.099,17.967 C42.51,18.226 43.051,18.152 43.379,17.787 L44.73,16.274 L48.432,19.977 L46.925,21.321 C46.561,21.646 46.485,22.188 46.746,22.601 C47.644,24.024 48.289,25.578 48.66,27.219 C48.768,27.696 49.205,28.02 49.692,27.997 L51.707,27.882 L51.707,33.118 L49.694,33.003 C49.228,32.975 48.769,33.304 48.662,33.781 C48.292,35.421 47.648,36.976 46.749,38.402 C46.488,38.815 46.564,39.356 46.928,39.682 L48.432,41.023 L44.73,44.726 L43.393,43.227 C43.067,42.861 42.525,42.786 42.113,43.048 C40.689,43.947 39.132,44.592 37.488,44.964 C37.011,45.072 36.682,45.508 36.71,45.997 L36.825,48 L31.622,48 L31.703,47.087 L29.71,46.912 L29.534,48.912 C29.509,49.191 29.603,49.468 29.792,49.675 C29.982,49.882 30.25,50 30.53,50 L37.883,50 C38.159,50 38.421,49.886 38.61,49.686 L38.61,49.686 Z M30.394,43.726 L29.019,42.273 L19.519,51.273 L20.894,52.726 L30.394,43.726 Z M21.392,37.728 L20.021,36.271 L11.521,44.271 L12.892,45.728 L21.392,37.728 Z M12.414,53.707 L11,52.292 L26,37.292 L27.414,38.707 L12.414,53.707 Z" id="AWS-App-Config_Icon_48_Squid" fill="#FFFFFF"></path>
    </g>
</svg>