<?xml version="1.0" encoding="UTF-8"?>
<svg width="64px" height="64px" viewBox="0 0 64 64" version="1.1" xmlns="http://www.w3.org/2000/svg" xmlns:xlink="http://www.w3.org/1999/xlink">
    <title>Icon-Architecture/48/Arch_Amazon-Managed-Service-for-Grafana_48</title>
    <defs>
        <linearGradient x1="0%" y1="100%" x2="100%" y2="0%" id="linearGradient-1">
            <stop stop-color="#B0084D" offset="0%"></stop>
            <stop stop-color="#FF4F8B" offset="100%"></stop>
        </linearGradient>
    </defs>
    <g id="Icon-Architecture/48/Arch_Amazon-Managed-Service-for-Grafana_48" stroke="none" stroke-width="1" fill="none" fill-rule="evenodd">
        <g id="Rectangle" fill="url(#linearGradient-1)">
            <rect x="0" y="0" width="64" height="64"></rect>
        </g>
        <g id="Icon-Service/48/Amazon-Managed-Service-for-Grafana_48" transform="translate(8.000000, 8.000000)" fill="#FFFFFF">
            <path d="M11.9995522,33.00089 L13.9995522,33.00089 L13.9995522,25.00089 L11.9995522,25.00089 L11.9995522,33.00089 Z M29.9995522,33.00089 L31.9995522,33.00089 L31.9995522,25.00089 L29.9995522,25.00089 L29.9995522,33.00089 Z M23.9995522,33.00089 L25.9995522,33.00089 L25.9995522,14.00089 L23.9995522,14.00089 L23.9995522,33.00089 Z M17.9995522,33.00089 L19.9995522,33.00089 L19.9995522,21.00089 L17.9995522,21.00089 L17.9995522,33.00089 Z M43.9995522,38.18689 L16.4315522,43.89089 L4.12455222,26.84989 L12.6625522,4.08088996 L29.0615522,5.90288996 L30.0025522,19.07189 C30.0225522,19.34889 30.1565522,19.60489 30.3715522,19.77889 C30.5875522,19.95389 30.8665522,20.03189 31.1415522,19.99089 L43.9995522,18.15389 L43.9995522,38.18689 Z M45.6555522,16.24589 C45.4375522,16.05589 45.1445522,15.96989 44.8585522,16.01089 L31.9205522,17.85889 L30.9965522,4.92988996 C30.9625522,4.44788996 30.5895522,4.06088996 30.1105522,4.00688996 L12.1105522,2.00688996 C11.6595522,1.95288996 11.2235522,2.22088996 11.0635522,2.64988996 L2.06355222,26.64989 C1.94655222,26.96289 1.99255222,27.31489 2.18955222,27.58589 L15.1895522,45.58589 C15.3795522,45.84989 15.6825522,46.00089 15.9995522,46.00089 C16.0675522,46.00089 16.1345522,45.99389 16.2015522,45.97989 L45.2015522,39.97989 C45.6665522,39.88389 45.9995522,39.47489 45.9995522,39.00089 L45.9995522,17.00089 C45.9995522,16.71089 45.8735522,16.43589 45.6555522,16.24589 L45.6555522,16.24589 Z" id="Fill-4"></path>
        </g>
    </g>
</svg>