<?xml version="1.0" encoding="UTF-8"?>
<svg width="64px" height="64px" viewBox="0 0 64 64" version="1.1" xmlns="http://www.w3.org/2000/svg" xmlns:xlink="http://www.w3.org/1999/xlink">
    <!-- Generator: Sketch 64 (93537) - https://sketch.com -->
    <title>Icon-Architecture/48/Arch_AWS-Service-Catalog_48</title>
    <desc>Created with Sketch.</desc>
    <defs>
        <linearGradient x1="0%" y1="100%" x2="100%" y2="0%" id="linearGradient-1">
            <stop stop-color="#B0084D" offset="0%"></stop>
            <stop stop-color="#FF4F8B" offset="100%"></stop>
        </linearGradient>
    </defs>
    <g id="Icon-Architecture/48/Arch_AWS-Service-Catalog_48" stroke="none" stroke-width="1" fill="none" fill-rule="evenodd">
        <g id="Icon-Architecture-BG/48/Management-Governance" fill="url(#linearGradient-1)">
            <rect id="Rectangle" x="0" y="0" width="64" height="64"></rect>
        </g>
        <path d="M50.4122824,24.9400941 C50.1441647,25.0432941 49.8699765,25.0938824 49.5735294,25.0938824 C48.2481176,25.0938824 47.1705882,24.0153412 47.1705882,22.6909412 C47.1705882,21.8481412 47.6016,21.0832471 48.3331059,20.6390824 C48.7064471,20.4063765 49.1243059,20.288 49.5735294,20.288 C50.8979294,20.288 51.9764706,21.3655294 51.9764706,22.6909412 C51.9764706,23.7006824 51.3653647,24.5819294 50.4122824,24.9400941 L50.4122824,24.9400941 Z M49.5735294,18.2644706 C49.0646118,18.2644706 48.5688471,18.3616 48.0993882,18.5285412 C47.7027765,18.0317647 47.2930118,17.5521882 46.8609882,17.1140941 C43.0597882,13.1712471 37.9453176,11 32.4575059,11 C27.0020706,11 21.8997412,13.1550588 18.0904471,17.0675529 L19.5403059,18.4799765 C22.9661412,14.9610588 27.5534824,13.0235294 32.4575059,13.0235294 C37.3898588,13.0235294 41.9883294,14.9742118 45.4131529,18.5265176 C45.7520941,18.8705176 46.0738353,19.2408235 46.3864706,19.6212471 C45.5972941,20.4326824 45.1470588,21.5213412 45.1470588,22.6909412 C45.1470588,25.1313176 47.1331529,27.1174118 49.5735294,27.1174118 C50.1168471,27.1174118 50.6439765,27.0202824 51.1316471,26.8310824 C52.8476,26.1876 54,24.5242588 54,22.6909412 C54,20.2495529 52.0139059,18.2644706 49.5735294,18.2644706 L49.5735294,18.2644706 Z M34.8533647,49.7242824 C34.7754588,50.9869647 33.7232235,51.9764706 32.4575059,51.9764706 C31.1928,51.9764706 30.1395529,50.9869647 30.0606353,49.7232706 C30.0596235,49.7060706 30.0565882,49.5907294 30.0545647,49.5735294 C30.0545647,48.2481176 31.1320941,47.1705882 32.4575059,47.1705882 C33.7819059,47.1705882 34.8604471,48.2481176 34.8604471,49.5735294 L34.8533647,49.7242824 Z M50.3060471,28.5601882 C50.4234118,29.3463294 50.4820941,30.1840706 50.4820941,31.0481176 C50.4820941,38.864 45.5032,45.7470353 38.0788706,48.1813412 C37.6579765,48.3260235 37.2117882,48.4494588 36.7564941,48.5607529 C36.2951294,46.6080471 34.5478118,45.1470588 32.4575059,45.1470588 C30.0171294,45.1470588 28.0310353,47.1321412 28.0310353,49.5735294 C28.0310353,49.6787529 28.0330588,49.7971294 28.0411529,49.8497412 C28.1858353,52.1768 30.1264,54 32.4575059,54 C34.5376941,54 36.2961412,52.5471059 36.7504235,50.6308235 C37.4374118,50.4820941 38.1061882,50.3111059 38.7223529,50.0996471 C46.9672235,47.3972235 52.5056235,39.7412 52.5056235,31.0481176 C52.5056235,30.0839059 52.4388471,29.1470118 52.3073176,28.2617176 L50.3060471,28.5601882 Z M15.4264706,20.288 C15.8493882,20.288 16.2642118,20.4013176 16.6345176,20.6208706 C17.3822118,21.0549176 17.8294118,21.8279059 17.8294118,22.6909412 C17.8294118,24.0153412 16.7508706,25.0938824 15.4264706,25.0938824 C15.1118118,25.0938824 14.8032235,25.0341882 14.5280235,24.9208706 C13.6144,24.5475294 13.0235294,23.6723529 13.0235294,22.6909412 C13.0235294,21.3655294 14.1010588,20.288 15.4264706,20.288 L15.4264706,20.288 Z M14.4319059,31.0481176 C14.4319059,30.1749647 14.4916,29.3281176 14.6099765,28.5237647 C14.6797882,28.0290118 14.7748941,27.5443765 14.8851765,27.0658118 C15.0632471,27.0880706 15.2413176,27.1174118 15.4264706,27.1174118 C17.8668471,27.1174118 19.8529412,25.1313176 19.8529412,22.6909412 C19.8529412,21.1227059 19.0091294,19.6586824 17.6584235,18.8755765 C16.9845882,18.4759294 16.2126118,18.2644706 15.4264706,18.2644706 C12.9860941,18.2644706 11,20.2495529 11,22.6909412 C11,24.1954353 11.7588235,25.5542353 12.9759765,26.3656706 C12.8262353,26.9808235 12.6957176,27.6040706 12.6076941,28.2374353 C12.4761647,29.1308235 12.4083765,30.0768235 12.4083765,31.0481176 C12.4083765,39.7412 17.9477882,47.3972235 26.1926588,50.0996471 L26.8229882,48.1762824 C19.4108,45.7480471 14.4319059,38.8650118 14.4319059,31.0481176 L14.4319059,31.0481176 Z M27.4199294,40.4018824 L27.4199294,35.8276941 L31.4882353,33.5239059 L31.4882353,38.0980941 L27.4199294,40.4018824 Z M21.3291059,33.5239059 L25.3964,35.8276941 L25.3964,40.4018824 L21.3291059,38.0980941 L21.3291059,33.5239059 Z M26.4081647,29.5001176 L30.4471294,31.7877176 L26.4081647,34.0743059 L22.3702118,31.7877176 L26.4081647,29.5001176 Z M27.4199294,23.1735529 L31.4882353,25.4773412 L31.4882353,30.0515294 L27.4199294,27.7477412 L27.4199294,23.1735529 Z M32.5,19.1497647 L36.5379529,21.4373647 L32.5,23.7239529 L28.4620471,21.4373647 L32.5,19.1497647 Z M37.5790588,27.7477412 L33.5117647,30.0515294 L33.5117647,25.4773412 L37.5790588,23.1735529 L37.5790588,27.7477412 Z M42.6297882,31.7877176 L38.5908235,34.0743059 L34.5528706,31.7877176 L38.5908235,29.5001176 L42.6297882,31.7877176 Z M43.6708941,38.0980941 L39.6025882,40.4018824 L39.6025882,35.8276941 L43.6708941,33.5228941 L43.6708941,38.0980941 Z M37.5790588,40.4018824 L33.5117647,38.0980941 L33.5117647,33.5239059 L37.5790588,35.8276941 L37.5790588,40.4018824 Z M38.0920235,43.0183059 C38.2478353,43.1053176 38.4188235,43.1498353 38.5908235,43.1498353 C38.7628235,43.1498353 38.9348235,43.1053176 39.0906353,43.0183059 L45.1814588,39.5681882 C45.4991529,39.3880941 45.6944235,39.0521882 45.6944235,38.6879529 L45.6944235,31.7877176 C45.6944235,31.4234824 45.4991529,31.0875765 45.1814588,30.9074824 L39.6025882,27.7477412 L39.6025882,21.4373647 C39.6025882,21.0731294 39.4073176,20.7372235 39.0906353,20.5571294 L32.9988,17.1070118 C32.6881882,16.9319765 32.3108,16.9319765 32.0012,17.1070118 L25.9093647,20.5571294 C25.5926824,20.7372235 25.3964,21.0731294 25.3964,21.4373647 L25.3964,27.7477412 L19.8185412,30.9074824 C19.5008471,31.0875765 19.3055765,31.4234824 19.3055765,31.7877176 L19.3055765,38.6879529 C19.3055765,39.0521882 19.5008471,39.3880941 19.8185412,39.5681882 L25.9093647,43.0183059 C26.2199765,43.1933412 26.5973647,43.1933412 26.9079765,43.0183059 L32.5,39.8504706 L38.0920235,43.0183059 Z" id="AWS-Service-Catalog_Icon_48_Squid" fill="#FFFFFF"></path>
    </g>
</svg>