<?xml version="1.0" encoding="UTF-8"?>
<svg width="64px" height="64px" viewBox="0 0 64 64" version="1.1" xmlns="http://www.w3.org/2000/svg" xmlns:xlink="http://www.w3.org/1999/xlink">
    <!-- Generator: Sketch 64 (93537) - https://sketch.com -->
    <title>Icon-Architecture/48/Arch_AWS-Control-Tower_48</title>
    <desc>Created with Sketch.</desc>
    <defs>
        <linearGradient x1="0%" y1="100%" x2="100%" y2="0%" id="linearGradient-1">
            <stop stop-color="#B0084D" offset="0%"></stop>
            <stop stop-color="#FF4F8B" offset="100%"></stop>
        </linearGradient>
    </defs>
    <g id="Icon-Architecture/48/Arch_AWS-Control-Tower_48" stroke="none" stroke-width="1" fill="none" fill-rule="evenodd">
        <g id="Icon-Architecture-BG/48/Management-Governance" fill="url(#linearGradient-1)">
            <rect id="Rectangle" x="0" y="0" width="64" height="64"></rect>
        </g>
        <path d="M16.979,36.394 L21.221,40.636 L22.635,39.222 L18.393,34.98 L16.979,36.394 Z M24.05,43.465 L28.292,47.707 L29.707,46.293 L25.464,42.051 L24.05,43.465 Z M42.05,25.465 L46.292,29.707 L47.707,28.293 L43.464,24.051 L42.05,25.465 Z M40.635,21.222 L36.393,16.98 L34.979,18.394 L39.221,22.636 L40.635,21.222 Z M41.364,39.222 L42.778,40.636 L47.02,36.394 L45.606,34.98 L41.364,39.222 Z M34.292,46.293 L35.707,47.707 L39.949,43.465 L38.535,42.051 L34.292,46.293 Z M29.02,18.394 L27.606,16.98 L23.364,21.222 L24.778,22.636 L29.02,18.394 Z M21.949,25.465 L20.535,24.051 L16.292,28.293 L17.707,29.707 L21.949,25.465 Z M35.638,33 L33,33 L33,35.637 C33.614,35.469 34.197,35.161 34.678,34.68 L34.678,34.679 C35.15,34.207 35.467,33.627 35.638,33 L35.638,33 Z M31,35.636 L31,33 L28.361,33 C28.532,33.627 28.849,34.207 29.321,34.679 C29.802,35.161 30.385,35.469 31,35.636 L31,35.636 Z M28.361,31 L31,31 L31,28.364 C30.385,28.532 29.802,28.84 29.321,29.321 C28.849,29.793 28.533,30.373 28.361,31 L28.361,31 Z M33,28.364 L33,31 L35.638,31 C35.466,30.373 35.15,29.793 34.678,29.321 C34.197,28.84 33.614,28.532 33,28.364 L33,28.364 Z M44.414,32 L40.707,35.707 L39.292,34.293 L40.585,33 L37.691,33 C37.489,34.165 36.946,35.241 36.092,36.094 C35.239,36.947 34.164,37.49 33,37.692 L33,40.586 L34.292,39.293 L35.707,40.707 L32,44.415 L28.292,40.707 L29.707,39.293 L31,40.586 L31,37.692 C29.835,37.49 28.76,36.947 27.907,36.094 C27.053,35.241 26.51,34.165 26.308,33 L23.414,33 L24.707,34.293 L23.292,35.707 L19.585,32 L23.292,28.293 L24.707,29.707 L23.414,31 L26.308,31 C26.511,29.835 27.053,28.76 27.907,27.907 C28.76,27.054 29.835,26.511 31,26.309 L31,23.415 L29.707,24.707 L28.292,23.293 L32,19.586 L35.707,23.293 L34.292,24.707 L33,23.415 L33,26.309 C34.164,26.511 35.239,27.054 36.092,27.907 C36.946,28.76 37.488,29.835 37.691,31 L40.585,31 L39.292,29.707 L40.707,28.293 L44.414,32 Z M30,50 L32,52 L34,50 L32,48 L30,50 Z M12,32 L14,34 L16,32 L14,30 L12,32 Z M50,30 L48,32 L50,34 L52,32 L50,30 Z M32,16 L30,14 L32,12 L34,14 L32,16 Z" id="AWS-Control-Tower_Icon_48_Squid" fill="#FFFFFF"></path>
    </g>
</svg>