<?xml version="1.0" encoding="UTF-8"?>
<svg width="64px" height="64px" viewBox="0 0 64 64" version="1.1" xmlns="http://www.w3.org/2000/svg" xmlns:xlink="http://www.w3.org/1999/xlink">
    <title>Icon-Architecture/48/Arch_CN-Arrow_Management-Governance_48</title>
    <defs>
        <linearGradient x1="0%" y1="100%" x2="100%" y2="0%" id="linearGradient-1">
            <stop stop-color="#B0084D" offset="0%"></stop>
            <stop stop-color="#FF4F8B" offset="100%"></stop>
        </linearGradient>
    </defs>
    <g id="Icon-Architecture/48/Arch_CN-Arrow_Management-Governance_48" stroke="none" stroke-width="1" fill="none" fill-rule="evenodd">
        <g id="Rectangle" fill="url(#linearGradient-1)">
            <rect x="0" y="0" width="64" height="64"></rect>
        </g>
        <g id="Icon-Service/48/CN-Arrow_48" transform="translate(8.000000, 8.000000)" fill="#FFFFFF">
            <path d="M19.219,14.625 L15.219,9.625 L16.781,8.376 L20.481,13 L33.586,13 L32.293,11.708 L33.707,10.293 L36.707,13.293 C37.098,13.684 37.098,14.317 36.707,14.708 L33.707,17.708 L32.293,16.293 L33.586,15 L20,15 C19.697,15 19.409,14.862 19.219,14.625 L19.219,14.625 Z M36.707,33.293 C37.098,33.684 37.098,34.317 36.707,34.708 L33.707,37.708 L32.293,36.293 L33.586,35 L20.481,35 L16.781,39.625 L15.219,38.376 L19.219,33.376 C19.409,33.139 19.697,33 20,33 L33.586,33 L32.293,31.708 L33.707,30.293 L36.707,33.293 Z M45.707,24.708 L42.707,27.708 L41.293,26.293 L42.586,25 L25,25 L25,23 L42.586,23 L41.293,21.708 L42.707,20.293 L45.707,23.293 C46.098,23.684 46.098,24.317 45.707,24.708 L45.707,24.708 Z M7,44 C5.346,44 4,42.655 4,41 C4,39.346 5.346,38 7,38 C8.655,38 10,39.346 10,41 C10,42.655 8.655,44 7,44 L7,44 Z M17,21 C18.655,21 20,22.346 20,24 C20,25.655 18.655,27 17,27 C15.346,27 14,25.655 14,24 C14,22.346 15.346,21 17,21 L17,21 Z M4,7 C4,5.346 5.346,4 7,4 C8.655,4 10,5.346 10,7 C10,8.655 8.655,10 7,10 C5.346,10 4,8.655 4,7 L4,7 Z M10.151,37.15 L16.526,28.953 C16.685,28.968 16.838,29 17,29 C19.757,29 22,26.757 22,24 C22,21.244 19.757,19 17,19 C16.838,19 16.685,19.033 16.526,19.048 L10.151,10.851 C11.27,9.933 12,8.558 12,7 C12,4.244 9.757,2 7,2 C4.243,2 2,4.244 2,7 C2,9.757 4.243,12 7,12 C7.471,12 7.917,11.914 8.35,11.792 L14.498,19.697 C13.012,20.565 12,22.159 12,24 C12,25.842 13.012,27.436 14.498,28.304 L8.35,36.209 C7.917,36.087 7.471,36 7,36 C4.243,36 2,38.244 2,41 C2,43.757 4.243,46 7,46 C9.757,46 12,43.757 12,41 C12,39.443 11.27,38.068 10.151,37.15 L10.151,37.15 Z" id="Fill-5"></path>
        </g>
    </g>
</svg>