<?xml version="1.0" encoding="UTF-8"?>
<svg width="64px" height="64px" viewBox="0 0 64 64" version="1.1" xmlns="http://www.w3.org/2000/svg" xmlns:xlink="http://www.w3.org/1999/xlink">
    <title>Icon-Architecture/48/Arch_Amazon-Managed-Service-for-Prometheus_48</title>
    <defs>
        <linearGradient x1="0%" y1="100%" x2="100%" y2="0%" id="linearGradient-1">
            <stop stop-color="#B0084D" offset="0%"></stop>
            <stop stop-color="#FF4F8B" offset="100%"></stop>
        </linearGradient>
    </defs>
    <g id="Icon-Architecture/48/Arch_Amazon-Managed-Service-for-Prometheus_48" stroke="none" stroke-width="1" fill="none" fill-rule="evenodd">
        <g id="Rectangle" fill="url(#linearGradient-1)">
            <rect x="0" y="0" width="64" height="64"></rect>
        </g>
        <g id="Icon-Service/48/Amazon-Managed-Service-for-Prometheus_48" transform="translate(8.000000, 8.000000)" fill="#FFFFFF">
            <path d="M34,16 C32.897,16 32,15.103 32,14 C32,12.897 32.897,12 34,12 C35.103,12 36,12.897 36,14 C36,15.103 35.103,16 34,16 L34,16 Z M24,6 C24,4.897 24.897,4 26,4 C27.103,4 28,4.897 28,6 C28,7.103 27.103,8 26,8 C24.897,8 24,7.103 24,6 L24,6 Z M20,22 C18.897,22 18,21.103 18,20 C18,18.897 18.897,18 20,18 C21.103,18 22,18.897 22,20 C22,21.103 21.103,22 20,22 L20,22 Z M10,13 C10,11.897 10.897,11 12,11 C13.103,11 14,11.897 14,13 C14,14.103 13.103,15 12,15 C10.897,15 10,14.103 10,13 L10,13 Z M34,10 C33.261,10 32.576,10.215 31.98,10.567 L29.434,8.019 C29.784,7.424 30,6.74 30,6 C30,3.794 28.206,2 26,2 C23.794,2 22,3.794 22,6 C22,7.365 22.689,8.57 23.736,9.292 L20.363,16.037 C20.242,16.025 20.125,16 20,16 C19.003,16 18.101,16.38 17.399,16.985 L15.434,15.019 C15.784,14.424 16,13.74 16,13 C16,10.794 14.206,9 12,9 C9.794,9 8,10.794 8,13 C8,15.206 9.794,17 12,17 C12.739,17 13.424,16.785 14.02,16.433 L16.247,18.661 C16.097,19.082 16,19.528 16,20 C16,22.206 17.794,24 20,24 C22.206,24 24,22.206 24,20 C24,18.635 23.311,17.43 22.264,16.708 L25.637,9.963 C25.758,9.975 25.875,10 26,10 C26.739,10 27.424,9.785 28.02,9.433 L30.566,11.981 C30.216,12.576 30,13.26 30,14 C30,16.206 31.794,18 34,18 C36.206,18 38,16.206 38,14 C38,11.794 36.206,10 34,10 L34,10 Z M28.531,32 L18.469,32 L15.135,28 L31.865,28 L28.531,32 Z M25.219,44 L21.781,44 L19.28,34 L27.72,34 L25.219,44 Z M34,26 L13,26 C12.612,26 12.259,26.225 12.095,26.576 C11.93,26.927 11.983,27.342 12.231,27.64 L17.085,33.464 L20.03,45.243 C20.142,45.687 20.541,46 21,46 L26,46 C26.459,46 26.858,45.687 26.97,45.243 L29.915,33.464 L34.769,27.64 C35.017,27.342 35.07,26.927 34.905,26.576 C34.741,26.225 34.388,26 34,26 L34,26 Z" id="Fill-1"></path>
        </g>
    </g>
</svg>