<?xml version="1.0" encoding="UTF-8"?>
<svg width="64px" height="64px" viewBox="0 0 64 64" version="1.1" xmlns="http://www.w3.org/2000/svg" xmlns:xlink="http://www.w3.org/1999/xlink">
    <!-- Generator: Sketch 64 (93537) - https://sketch.com -->
    <title>Icon-Architecture/48/Arch_Amazon-CloudWatch_48</title>
    <desc>Created with Sketch.</desc>
    <defs>
        <linearGradient x1="0%" y1="100%" x2="100%" y2="0%" id="linearGradient-1">
            <stop stop-color="#B0084D" offset="0%"></stop>
            <stop stop-color="#FF4F8B" offset="100%"></stop>
        </linearGradient>
    </defs>
    <g id="Icon-Architecture/48/Arch_Amazon-CloudWatch_48" stroke="none" stroke-width="1" fill="none" fill-rule="evenodd">
        <g id="Icon-Architecture-BG/48/Management-Governance" fill="url(#linearGradient-1)">
            <rect id="Rectangle" x="0" y="0" width="64" height="64"></rect>
        </g>
        <path d="M42.184,39.3811216 C42.184,37.1282698 40.347,35.2954581 38.089,35.2954581 C35.831,35.2954581 33.995,37.1282698 33.995,39.3811216 C33.995,41.6339735 35.831,43.4667852 38.089,43.4667852 C40.347,43.4667852 42.184,41.6339735 42.184,39.3811216 L42.184,39.3811216 Z M44.184,39.3811216 C44.184,42.7344587 41.45,45.4622252 38.089,45.4622252 C34.729,45.4622252 31.995,42.7344587 31.995,39.3811216 C31.995,36.0277846 34.729,33.3000181 38.089,33.3000181 C41.45,33.3000181 44.184,36.0277846 44.184,39.3811216 L44.184,39.3811216 Z M50.743,49.6157337 L45.846,45.2157884 C45.524,45.6398194 45.17,46.0379097 44.785,46.4050706 L49.671,50.8030205 C49.997,51.0953525 50.505,51.0714072 50.802,50.744155 C51.096,50.4179006 51.07,49.9110588 50.743,49.6157337 L50.743,49.6157337 Z M38.089,47.091502 C42.351,47.091502 45.818,43.6324067 45.818,39.3811216 C45.818,35.1298366 42.351,31.6707413 38.089,31.6707413 C33.829,31.6707413 30.362,35.1298366 30.362,39.3811216 C30.362,43.6324067 33.829,47.091502 38.089,47.091502 L38.089,47.091502 Z M52.081,48.1341194 C53.227,49.1667597 53.319,50.9357173 52.288,52.0801021 C51.735,52.6897091 50.971,53 50.205,53 C49.538,53 48.868,52.7655358 48.333,52.2866302 L43.172,47.6412457 C41.691,48.5521641 39.954,49.0869421 38.089,49.0869421 C32.725,49.0869421 28.362,44.7328919 28.362,39.3811216 C28.362,34.0293514 32.725,29.6753012 38.089,29.6753012 C43.454,29.6753012 47.818,34.0293514 47.818,39.3811216 C47.818,40.8447769 47.482,42.2286146 46.897,43.4757646 L52.081,48.1341194 Z M17.697,23.5383254 C17.697,23.9394088 17.72,24.3384968 17.767,24.722619 C17.802,25.0059715 17.713,25.2913194 17.524,25.5048315 C17.375,25.6714508 17.177,25.7831954 16.961,25.8241019 C15.084,26.3079961 12,27.7716514 12,32.1566309 C12,35.4800363 13.836,37.3138458 15.377,38.2676661 C16.049,38.6897017 16.64,38.9052092 17.138,38.9101978 L26.127,38.9101978 L26.127,40.9056378 L17.127,40.9056378 C16.243,40.8966584 15.3,40.577388 14.317,39.9588015 C12.708,38.9640747 10,36.6214281 10,32.1566309 C10,26.8876715 13.526,24.8642953 15.71,24.117003 C15.702,23.924443 15.697,23.7308853 15.697,23.5383254 C15.697,19.1603299 18.673,14.6217015 22.621,12.9784566 C27.232,11.0508615 32.119,12.0066773 35.687,15.5336176 C36.734,16.5672555 37.604,17.8084192 38.285,19.2361566 C39.203,18.5507229 40.304,18.1745825 41.459,18.1745825 C43.874,18.1745825 46.587,19.9684831 47.122,23.8895228 C50.58,24.7216213 54,27.27778 54,32.2174919 C54,35.1078868 52.864,37.4565197 50.713,39.0089721 L49.541,37.3926656 C51.173,36.2143583 52,34.4733368 52,32.2174919 C52,27.2388689 47.811,25.9997007 46.01,25.6983892 C45.743,25.6534918 45.505,25.5018384 45.351,25.2793468 C45.208,25.071821 45.15,24.8184001 45.186,24.5709656 C44.931,21.5319104 43.141,20.1700225 41.459,20.1700225 C40.402,20.1700225 39.409,20.6858438 38.734,21.5857873 C38.514,21.8791169 38.156,22.0297727 37.786,21.9748981 C37.422,21.9210212 37.118,21.6715912 36.993,21.3263801 C36.359,19.5743837 35.446,18.1027466 34.281,16.9513777 C32.851,15.5396039 28.933,12.506535 23.391,14.81925 C20.198,16.1492108 17.697,19.9784603 17.697,23.5383254 L17.697,23.5383254 Z" id="Amazon-CloudWatch_Icon_48_Squid" fill="#FFFFFF"></path>
    </g>
</svg>