<?xml version="1.0" encoding="UTF-8"?>
<svg width="64px" height="64px" viewBox="0 0 64 64" version="1.1" xmlns="http://www.w3.org/2000/svg" xmlns:xlink="http://www.w3.org/1999/xlink">
    <title>Icon-Architecture/48/Arch_AWS-Valkyrie_48</title>
    <defs>
        <linearGradient x1="0%" y1="100%" x2="100%" y2="0%" id="linearGradient-1">
            <stop stop-color="#B0084D" offset="0%"></stop>
            <stop stop-color="#FF4F8B" offset="100%"></stop>
        </linearGradient>
    </defs>
    <g id="Icon-Architecture/48/Arch_AWS-Valkyrie_48" stroke="none" stroke-width="1" fill="none" fill-rule="evenodd">
        <g id="Rectangle" fill="url(#linearGradient-1)">
            <rect x="0" y="0" width="64" height="64"></rect>
        </g>
        <g id="Icon-Service/48/AWS-Valkyrie_48" transform="translate(8.000000, 8.000000)" fill="#FFFFFF">
            <path d="M28.698,24.7211048 L30.491,22.9281048 L32.284,24.7211048 L33.698,23.3071048 L31.905,21.5141048 L33.698,19.7211048 L32.284,18.3071048 L30.491,20.1001048 L28.698,18.3071048 L27.284,19.7211048 L29.077,21.5141048 L27.284,23.3071048 L28.698,24.7211048 Z M11.991,23.0141048 L13.991,23.0141048 C13.991,21.9111048 14.888,21.0141048 15.991,21.0141048 C17.094,21.0141048 17.991,21.9111048 17.991,23.0141048 L19.991,23.0141048 C19.991,20.8081048 18.197,19.0141048 15.991,19.0141048 C13.785,19.0141048 11.991,20.8081048 11.991,23.0141048 L11.991,23.0141048 Z M19.491,14.0141048 C20.318,14.0141048 20.991,13.3411048 20.991,12.5141048 C20.991,11.6871048 20.318,11.0141048 19.491,11.0141048 C18.664,11.0141048 17.991,11.6871048 17.991,12.5141048 C17.991,13.3411048 18.664,14.0141048 19.491,14.0141048 L19.491,14.0141048 Z M19.491,16.0141048 C17.561,16.0141048 15.991,14.4441048 15.991,12.5141048 C15.991,10.5841048 17.561,9.01410477 19.491,9.01410477 C21.421,9.01410477 22.991,10.5841048 22.991,12.5141048 C22.991,14.4441048 21.421,16.0141048 19.491,16.0141048 L19.491,16.0141048 Z M17.991,27.0141048 L13.991,27.0141048 L13.991,36.8791048 C16.104,36.3381048 17.991,34.2541048 17.991,33.0141048 L17.991,27.0141048 Z M17.991,42.0141048 L17.991,36.8071048 C16.907,37.8421048 15.487,38.6541048 13.991,38.9161048 L13.991,42.0141048 C13.991,43.4531048 14.552,44.0141048 15.991,44.0141048 C17.43,44.0141048 17.991,43.4531048 17.991,42.0141048 L17.991,42.0141048 Z M21.991,27.0141048 L19.991,27.0141048 L19.991,42.0141048 C19.991,44.5561048 18.533,46.0141048 15.991,46.0141048 C13.449,46.0141048 11.991,44.5561048 11.991,42.0141048 L11.991,27.0141048 L9.991,27.0141048 L9.991,25.0141048 L21.991,25.0141048 L21.991,27.0141048 Z M45.991,22.4631048 C45.991,28.7631048 40.806,30.8091048 38.064,31.0111048 L21.991,31.0141048 L21.991,29.0141048 L37.991,29.0141048 C38.163,28.9971048 43.991,28.4621048 43.991,22.4631048 C43.991,17.4321048 39.754,16.1581048 37.931,15.8451048 C37.396,15.7521048 37.032,15.2491048 37.112,14.7111048 C37.114,12.5261048 36.193,10.9331048 34.589,10.4061048 C33.173,9.94110477 31.618,10.4561048 30.713,11.6841048 C30.494,11.9821048 30.124,12.1351048 29.76,12.0801048 C29.394,12.0261048 29.088,11.7731048 28.965,11.4241048 C28.34,9.64910477 27.434,8.15810477 26.276,6.99210477 C24.855,5.56410477 20.963,2.49510477 15.468,4.82910477 C12.295,6.17710477 9.809,10.0611048 9.809,13.6731048 L9.886,14.9341048 C9.914,15.4121048 9.599,15.8431048 9.136,15.9621048 C7.276,16.4401048 4.155,17.9111048 4.155,22.3981048 C4.155,25.7721048 5.98,27.6331048 7.511,28.5991048 C7.952,28.8771048 8.518,29.0131048 9.241,29.0141048 L9.239,31.0141048 C8.128,31.0131048 7.214,30.7761048 6.444,30.2901048 C4.842,29.2791048 2.155,26.9091048 2.155,22.3981048 C2.155,17.0661048 5.672,15.0201048 7.843,14.2651048 L7.811,13.7321048 C7.809,9.24710477 10.765,4.65310477 14.686,2.98810477 C19.275,1.04010477 24.141,2.00710477 27.694,5.58210477 C28.734,6.62710477 29.595,7.88210477 30.267,9.32510477 C31.672,8.27910477 33.505,7.94510477 35.213,8.50610477 C37.462,9.24510477 38.876,11.2891048 39.087,14.0451048 C42.561,14.9081048 45.991,17.5001048 45.991,22.4631048 L45.991,22.4631048 Z" id="Fill-5"></path>
        </g>
    </g>
</svg>