<?xml version="1.0" encoding="UTF-8"?>
<svg width="64px" height="64px" viewBox="0 0 64 64" version="1.1" xmlns="http://www.w3.org/2000/svg" xmlns:xlink="http://www.w3.org/1999/xlink">
    <!-- Generator: Sketch 64 (93537) - https://sketch.com -->
    <title>Icon-Architecture/48/Arch_AWS-CloudFormation_48</title>
    <desc>Created with Sketch.</desc>
    <defs>
        <linearGradient x1="0%" y1="100%" x2="100%" y2="0%" id="linearGradient-1">
            <stop stop-color="#B0084D" offset="0%"></stop>
            <stop stop-color="#FF4F8B" offset="100%"></stop>
        </linearGradient>
    </defs>
    <g id="Icon-Architecture/48/Arch_AWS-CloudFormation_48" stroke="none" stroke-width="1" fill="none" fill-rule="evenodd">
        <g id="Icon-Architecture-BG/48/Management-Governance" fill="url(#linearGradient-1)">
            <rect id="Rectangle" x="0" y="0" width="64" height="64"></rect>
        </g>
        <path d="M42.008002,32.7880215 L46.0090023,32.7880215 L46.0090023,30.765708 L42.008002,30.765708 L42.008002,32.7880215 Z M23.0032508,42.8995891 L27.0042511,42.8995891 L27.0042511,40.8772756 L23.0032508,40.8772756 L23.0032508,42.8995891 Z M15.0012503,42.8995891 L20.0025006,42.8995891 L20.0025006,40.8772756 L15.0012503,40.8772756 L15.0012503,42.8995891 Z M15.0012503,37.8438053 L24.0035009,37.8438053 L24.0035009,35.8214918 L15.0012503,35.8214918 L15.0012503,37.8438053 Z M15.0012503,28.7433945 L22.0030008,28.7433945 L22.0030008,26.721081 L15.0012503,26.721081 L15.0012503,28.7433945 Z M15.0012503,32.7880215 L40.0075019,32.7880215 L40.0075019,30.765708 L15.0012503,30.765708 L15.0012503,32.7880215 Z M30.0050013,49.9776865 L12.0005001,49.9776865 L12.0005001,23.6876107 L30.0050013,23.6876107 L30.0050013,28.7433945 L32.0055014,28.7433945 L32.0055014,22.6764539 C32.0055014,22.1182954 31.5573893,21.6652971 31.0052513,21.6652971 L11.0002501,21.6652971 C10.4471118,21.6652971 10,22.1182954 10,22.6764539 L10,50.9888432 C10,51.5470018 10.4471118,52 11.0002501,52 L31.0052513,52 C31.5573893,52 32.0055014,51.5470018 32.0055014,50.9888432 L32.0055014,35.8214918 L30.0050013,35.8214918 L30.0050013,49.9776865 Z M54,30.765708 C54,36.364483 49.4268567,37.8438053 47.0092523,37.8438053 L35.0062516,37.8438053 L35.0062516,35.8214918 L47.0092523,35.8214918 C47.5173793,35.8174472 51.9994999,35.6435282 51.9994999,30.765708 C51.9994999,26.7069248 49.1987997,24.9161661 47.8424606,24.6846112 C47.3293323,24.5966406 46.9692423,24.1274639 47.0132533,23.6036847 C47.0142536,23.5905396 47.0152538,23.5773946 47.0172543,23.5652607 C46.9782446,21.9645995 46.20005,20.7957023 44.8657164,20.3477599 C43.5703926,19.9139736 42.1090273,20.2961909 41.3978495,21.2588121 C41.1777944,21.5571034 40.8177044,21.7138327 40.4476119,21.6541744 C40.0835209,21.5985608 39.7784446,21.3457716 39.6544136,20.9938891 C39.1832958,19.6632068 38.4971243,18.7956343 37.5408852,17.8289684 C35.2413103,15.5215087 32.9637409,14.2484623 29.3368342,15.5407206 C27.6914229,16.1261804 25.7129282,18.1434381 24.9257314,20.0353124 L23.0812703,19.2506548 C24.0915229,16.8238786 26.4951238,14.4092362 28.6726682,13.633679 C33.5648912,11.8904447 36.6166542,14.0512867 38.9522381,16.3961593 C39.7464366,17.1990177 40.4116029,17.9826642 40.9437359,18.9675309 C42.2180545,18.1292819 43.9174794,17.897727 45.4968742,18.4285843 C47.4703676,19.090892 48.7306827,20.7340218 48.9757439,22.9009307 C51.1832958,23.6754768 54,26.1851679 54,30.765708 L54,30.765708 Z" id="AWS-CloudFormation_Icon_48_Squid" fill="#FFFFFF"></path>
    </g>
</svg>