<?xml version="1.0" encoding="UTF-8"?>
<svg width="64px" height="64px" viewBox="0 0 64 64" version="1.1" xmlns="http://www.w3.org/2000/svg" xmlns:xlink="http://www.w3.org/1999/xlink">
    <!-- Generator: Sketch 64 (93537) - https://sketch.com -->
    <title>Icon-Architecture/48/Arch_AWS-Systems-Manager_48</title>
    <desc>Created with Sketch.</desc>
    <defs>
        <linearGradient x1="0%" y1="100%" x2="100%" y2="0%" id="linearGradient-1">
            <stop stop-color="#B0084D" offset="0%"></stop>
            <stop stop-color="#FF4F8B" offset="100%"></stop>
        </linearGradient>
    </defs>
    <g id="Icon-Architecture/48/Arch_AWS-Systems-Manager_48" stroke="none" stroke-width="1" fill="none" fill-rule="evenodd">
        <g id="Icon-Architecture-BG/48/Management-Governance" fill="url(#linearGradient-1)">
            <rect id="Rectangle" x="0" y="0" width="64" height="64"></rect>
        </g>
        <path d="M38,43.9987971 L47,43.9987971 L47,45.9990376 L38,45.9990376 L38,46.9991579 L36,46.9991579 L36,45.9990376 L33,45.9990376 L33,43.9987971 L36,43.9987971 L36,42.9986768 L38,42.9986768 L38,43.9987971 Z M41,38.9981956 L47,38.9981956 L47,40.9984362 L41,40.9984362 L41,41.9985565 L39,41.9985565 L39,40.9984362 L33,40.9984362 L33,38.9981956 L39,38.9981956 L39,37.9980753 L41,37.9980753 L41,38.9981956 Z M45,33.9975941 L47,33.9975941 L47,35.9978347 L45,35.9978347 L45,36.997955 L43,36.997955 L43,35.9978347 L33,35.9978347 L33,33.9975941 L43,33.9975941 L43,32.9974738 L45,32.9974738 L45,33.9975941 Z M17,36.997955 L24,36.997955 L24,38.9981956 L17,38.9981956 C16.179,38.9981956 15.249,38.9981956 14.313,38.4011238 C12.703,37.3830013 10,34.9967143 10,30.4771707 C10,25.1185261 13.545,23.0692796 15.73,22.3161891 L15.698,21.7741239 C15.696,17.2675818 18.671,12.6600276 22.616,10.9958274 C27.229,9.03459154 32.118,10.0057083 35.692,13.5961402 C36.738,14.6432662 37.608,15.9074182 38.289,17.3635934 C39.7,16.3064662 41.548,15.9694257 43.27,16.5344936 C45.527,17.2755828 46.949,19.322829 47.164,22.083161 C51.701,23.1062841 54,25.7666041 54,29.9971129 L52,29.9971129 C52,25.4555667 48.578,24.3374322 46.004,23.8923786 C45.734,23.845373 45.496,23.6893542 45.344,23.4623269 C45.198,23.2453008 45.144,22.9792688 45.191,22.723238 C45.163,20.5179728 44.239,18.9577851 42.646,18.4347222 C41.222,17.9656658 39.649,18.4837281 38.738,19.7228771 C38.52,20.0189127 38.158,20.1729313 37.787,20.1189248 C37.421,20.0649183 37.114,19.812888 36.99,19.4648461 C36.354,17.6746308 35.441,16.1754504 34.275,15.0083101 C32.847,13.5721373 28.927,10.484766 23.396,12.838049 C20.199,14.1862112 17.696,18.0856802 17.696,21.7151168 L17.773,22.9872698 C17.802,23.4663274 17.486,23.8973792 17.021,24.0163936 C15.146,24.4934509 12,25.9666281 12,30.4771707 C12,33.8595775 13.841,35.7358032 15.385,36.7129207 C15.812,36.9849534 16.254,36.997955 17,36.997955 L17,36.997955 Z M52,41.5234993 L50.899,41.4604917 C50.432,41.4364889 49.975,41.761528 49.867,42.2395855 C49.615,43.3587201 49.176,44.4198477 48.562,45.3929647 C48.301,45.8070145 48.377,46.3480796 48.741,46.6731187 L49.563,47.4062069 L47.407,49.5624663 L46.678,48.745368 C46.352,48.3783238 45.81,48.305315 45.397,48.5643462 C44.424,49.1804203 43.361,49.6204732 42.24,49.8735037 C41.764,49.9815167 41.435,50.4175691 41.463,50.9066279 L41.525,51.9997594 L38.475,51.9997594 L38.537,50.9046277 C38.565,50.416569 38.236,49.9795164 37.76,49.8725035 C36.641,49.6194731 35.579,49.1784201 34.605,48.5633461 C34.193,48.3013146 33.65,48.3763236 33.325,48.7433677 L32.593,49.5634664 L30.437,47.4062069 L31.257,46.675119 C31.621,46.3500799 31.697,45.8080147 31.437,45.394965 C30.822,44.4228481 30.383,43.3617204 30.131,42.2395855 C30.023,41.7625281 29.563,41.4354887 29.099,41.4604917 L28,41.5234993 L28,38.4731324 L29.103,38.53614 C29.549,38.5601429 30.027,38.2351038 30.135,37.7590465 C30.388,36.6419122 30.827,35.5817846 31.442,34.6086676 C31.703,34.1946178 31.627,33.6535527 31.263,33.3285136 L30.437,32.5904248 L32.594,30.4341655 L33.33,31.2592647 C33.655,31.6243086 34.197,31.6993177 34.609,31.4392864 C35.58,30.8272128 36.64,30.38816 37.76,30.1351295 C38.236,30.0271165 38.565,29.5910641 38.537,29.1030054 L38.475,27.9968723 L41.525,27.9968723 L41.463,29.1040055 C41.435,29.5920642 41.764,30.0291168 42.24,30.1371298 C43.357,30.3891601 44.417,30.829213 45.388,31.4412866 C45.8,31.702318 46.343,31.6263089 46.668,31.261265 L47.406,30.4341655 L49.563,32.5904248 L48.739,33.3265134 C48.375,33.6515525 48.299,34.1926176 48.56,34.6066674 C49.174,35.5787843 49.613,36.6389118 49.866,37.7580464 C49.974,38.2351038 50.432,38.5601429 50.898,38.53614 L52,38.4731324 L52,41.5234993 Z M52.943,36.415885 L51.6,36.4928942 C51.368,35.7248019 51.061,34.9827126 50.681,34.2746274 L51.686,33.3785196 C51.891,33.1954976 52.012,32.9354663 52.02,32.6604333 C52.027,32.3854002 51.921,32.1193682 51.727,31.9253449 L48.072,28.2709053 C47.878,28.0758818 47.602,27.9588678 47.337,27.97787 C47.062,27.985871 46.802,28.1068856 46.619,28.3119102 L45.72,29.3210316 C45.013,28.9409859 44.272,28.633949 43.506,28.4029212 L43.582,27.0537589 C43.598,26.7787258 43.5,26.5096935 43.311,26.3096694 C43.122,26.1096453 42.859,25.9966317 42.584,25.9966317 L37.416,25.9966317 C37.141,25.9966317 36.878,26.1096453 36.689,26.3096694 C36.5,26.5096935 36.402,26.7787258 36.418,27.0537589 L36.494,28.4009209 C35.727,28.6319487 34.985,28.9389857 34.278,29.3180312 L33.381,28.3119102 C33.197,28.1068856 32.938,27.985871 32.663,27.97787 C32.402,27.9618681 32.122,28.0758818 31.928,28.2709053 L28.273,31.9253449 C28.079,32.1193682 27.973,32.3854002 27.98,32.6604333 C27.988,32.9354663 28.109,33.1954976 28.314,33.3785196 L29.321,34.2766277 C28.94,34.9847128 28.633,35.725802 28.401,36.4928942 L27.057,36.415885 C26.788,36.3998831 26.513,36.498895 26.313,36.6869176 C26.113,36.8759403 26,37.1399721 26,37.4150051 L26,42.5816266 C26,42.8566597 26.113,43.1206914 26.313,43.3097142 C26.513,43.4977368 26.789,43.5977488 27.057,43.5807468 L28.396,43.5037375 C28.628,44.2748303 28.935,45.0179196 29.315,45.7260048 L28.314,46.6181121 C28.109,46.8021342 27.988,47.0611654 27.98,47.3361985 C27.973,47.6112316 28.079,47.8772636 28.273,48.072287 L31.928,51.7267266 C32.122,51.9207499 32.399,52.0277628 32.663,52.0187617 C32.938,52.0107607 33.198,51.8907463 33.381,51.6847215 L34.273,50.6846012 C34.982,51.0656471 35.725,51.3736841 36.494,51.605712 L36.418,52.9428728 C36.402,53.2179059 36.5,53.4869383 36.689,53.6869623 C36.878,53.8869864 37.141,54 37.416,54 L42.584,54 C42.859,54 43.122,53.8869864 43.311,53.6869623 C43.5,53.4869383 43.598,53.2179059 43.582,52.9428728 L43.506,51.6077123 C44.276,51.3756843 45.02,51.0676473 45.729,50.6866015 L46.619,51.6847215 C46.802,51.8897462 47.062,52.0107607 47.337,52.0187617 C47.577,52.0307631 47.878,51.9207499 48.072,51.7267266 L51.727,48.072287 C51.921,47.8772636 52.027,47.6112316 52.02,47.3361985 C52.012,47.0611654 51.891,46.8021342 51.686,46.6191122 L50.683,45.7240046 C51.063,45.0159194 51.37,44.27283 51.602,43.5037375 L52.943,43.5807468 C53.211,43.5967487 53.487,43.4977368 53.687,43.3097142 C53.887,43.1206914 54,42.8566597 54,42.5816266 L54,37.4150051 C54,37.1399721 53.887,36.8759403 53.687,36.6869176 C53.487,36.498895 53.212,36.4008832 52.943,36.415885 L52.943,36.415885 Z" id="AWS-Systems-Manager_Icon_48_Squid" fill="#FFFFFF"></path>
    </g>
</svg>