<?xml version="1.0" encoding="UTF-8"?>
<svg width="64px" height="64px" viewBox="0 0 64 64" version="1.1" xmlns="http://www.w3.org/2000/svg" xmlns:xlink="http://www.w3.org/1999/xlink">
    <!-- Generator: Sketch 64 (93537) - https://sketch.com -->
    <title>Icon-Architecture/48/Arch_AWS-Management-Console_48</title>
    <desc>Created with Sketch.</desc>
    <defs>
        <linearGradient x1="0%" y1="100%" x2="100%" y2="0%" id="linearGradient-1">
            <stop stop-color="#B0084D" offset="0%"></stop>
            <stop stop-color="#FF4F8B" offset="100%"></stop>
        </linearGradient>
    </defs>
    <g id="Icon-Architecture/48/Arch_AWS-Management-Console_48" stroke="none" stroke-width="1" fill="none" fill-rule="evenodd">
        <g id="Icon-Architecture-BG/48/Management-Governance" fill="url(#linearGradient-1)">
            <rect id="Rectangle" x="0" y="0" width="64" height="64"></rect>
        </g>
        <path d="M22,16 L25,16 L25,14 L22,14 L22,16 Z M18,16 L21,16 L21,14 L18,14 L18,16 Z M14,16 L17,16 L17,14 L14,14 L14,16 Z M12,18 L52,18 L52,12 L12,12 L12,18 Z M53,10 L11,10 C10.447,10 10,10.448 10,11 L10,53 C10,53.552 10.447,54 11,54 L37,54 L37,52 L12,52 L12,20 L52,20 L52,52 L47,52 L47,54 L53,54 C53.553,54 54,53.552 54,53 L54,11 C54,10.448 53.553,10 53,10 L53,10 Z M32,39.817 C29.815,39.817 28.038,38.04 28.038,35.855 C28.038,33.67 29.815,31.894 32,31.894 C34.185,31.894 35.962,33.67 35.962,35.855 C35.962,38.04 34.185,39.817 32,39.817 L32,39.817 Z M32,29.894 C28.713,29.894 26.038,32.568 26.038,35.855 C26.038,39.143 28.713,41.817 32,41.817 C35.287,41.817 37.962,39.143 37.962,35.855 C37.962,32.568 35.287,29.894 32,29.894 L32,29.894 Z M43.403,37.262 L42.402,37.205 C41.947,37.172 41.478,37.505 41.37,37.983 C41.13,39.046 40.713,40.053 40.13,40.978 C39.869,41.391 39.945,41.932 40.31,42.258 L41.058,42.924 L39.069,44.913 L38.405,44.169 C38.079,43.803 37.537,43.729 37.125,43.989 C36.201,44.573 35.192,44.991 34.127,45.231 C33.65,45.339 33.321,45.776 33.35,46.264 L33.406,47.259 L30.594,47.259 L30.65,46.263 C30.679,45.774 30.35,45.338 29.873,45.23 C28.811,44.99 27.803,44.572 26.877,43.987 C26.465,43.727 25.921,43.8 25.597,44.167 L24.931,44.914 L22.942,42.924 L23.688,42.26 C24.053,41.934 24.129,41.393 23.868,40.979 C23.285,40.057 22.868,39.049 22.628,37.983 C22.52,37.505 22.056,37.172 21.596,37.205 L20.597,37.262 L20.597,34.449 L21.6,34.506 C22.08,34.525 22.522,34.205 22.632,33.729 C22.872,32.668 23.29,31.662 23.874,30.738 C24.135,30.325 24.059,29.783 23.694,29.458 L22.942,28.786 L24.931,26.797 L25.602,27.548 C25.926,27.913 26.47,27.988 26.881,27.729 C27.804,27.147 28.81,26.73 29.872,26.491 C30.35,26.383 30.679,25.946 30.65,25.458 L30.594,24.452 L33.406,24.452 L33.35,25.459 C33.321,25.947 33.65,26.384 34.127,26.491 C35.188,26.731 36.194,27.148 37.117,27.73 C37.527,27.99 38.07,27.916 38.396,27.55 L39.068,26.797 L41.058,28.786 L40.308,29.456 C39.943,29.781 39.867,30.322 40.128,30.736 C40.711,31.659 41.129,32.666 41.369,33.728 C41.477,34.205 41.947,34.525 42.401,34.506 L43.403,34.449 L43.403,37.262 Z M44.347,32.392 L43.102,32.462 C42.884,31.75 42.599,31.063 42.248,30.405 L43.18,29.574 C43.385,29.391 43.506,29.131 43.514,28.856 C43.521,28.581 43.415,28.315 43.221,28.121 L39.734,24.634 C39.54,24.439 39.287,24.326 38.999,24.342 C38.724,24.35 38.464,24.47 38.281,24.676 L37.446,25.611 C36.79,25.261 36.104,24.976 35.393,24.759 L35.463,23.508 C35.479,23.234 35.381,22.965 35.191,22.765 C35.003,22.565 34.74,22.452 34.465,22.452 L29.535,22.452 C29.26,22.452 28.997,22.565 28.809,22.765 C28.619,22.965 28.521,23.234 28.537,23.508 L28.607,24.758 C27.896,24.975 27.208,25.259 26.552,25.609 L25.719,24.676 C25.536,24.47 25.276,24.35 25.001,24.342 C24.719,24.329 24.461,24.439 24.266,24.634 L20.779,28.121 C20.585,28.315 20.479,28.581 20.486,28.856 C20.494,29.131 20.615,29.391 20.82,29.574 L21.754,30.407 C21.403,31.064 21.117,31.751 20.9,32.463 L19.653,32.392 C19.376,32.38 19.108,32.475 18.91,32.663 C18.71,32.852 18.597,33.115 18.597,33.39 L18.597,38.32 C18.597,38.595 18.71,38.858 18.91,39.047 C19.108,39.236 19.377,39.332 19.653,39.319 L20.895,39.248 C21.111,39.962 21.397,40.651 21.748,41.31 L20.821,42.136 C20.615,42.319 20.494,42.579 20.486,42.854 C20.479,43.129 20.585,43.396 20.779,43.59 L24.266,47.076 C24.46,47.271 24.716,47.377 25.001,47.369 C25.276,47.361 25.536,47.24 25.719,47.035 L26.546,46.107 C27.205,46.459 27.895,46.745 28.607,46.962 L28.537,48.202 C28.521,48.477 28.619,48.746 28.809,48.945 C28.997,49.146 29.26,49.259 29.535,49.259 L34.465,49.259 C34.74,49.259 35.003,49.146 35.191,48.945 C35.381,48.746 35.479,48.477 35.463,48.202 L35.393,46.964 C36.106,46.747 36.797,46.461 37.456,46.109 L38.281,47.035 C38.464,47.24 38.724,47.361 38.999,47.369 C39.29,47.379 39.54,47.271 39.734,47.076 L43.221,43.59 C43.415,43.396 43.521,43.129 43.514,42.854 C43.506,42.579 43.385,42.319 43.18,42.136 L42.25,41.308 C42.601,40.649 42.886,39.96 43.103,39.248 L44.347,39.319 C44.619,39.331 44.891,39.236 45.09,39.047 C45.29,38.858 45.403,38.595 45.403,38.32 L45.403,33.39 C45.403,33.115 45.29,32.852 45.09,32.663 C44.891,32.475 44.62,32.38 44.347,32.392 L44.347,32.392 Z" id="AWS-Management-Console_Icon_48_Squid" fill="#FFFFFF"></path>
    </g>
</svg>