<?xml version="1.0" encoding="UTF-8"?>
<svg width="64px" height="64px" viewBox="0 0 64 64" version="1.1" xmlns="http://www.w3.org/2000/svg" xmlns:xlink="http://www.w3.org/1999/xlink">
    <!-- Generator: Sketch 64 (93537) - https://sketch.com -->
    <title>Icon-Architecture/48/Arch_AWS-License-Manager_48</title>
    <desc>Created with Sketch.</desc>
    <defs>
        <linearGradient x1="0%" y1="100%" x2="100%" y2="0%" id="linearGradient-1">
            <stop stop-color="#B0084D" offset="0%"></stop>
            <stop stop-color="#FF4F8B" offset="100%"></stop>
        </linearGradient>
    </defs>
    <g id="Icon-Architecture/48/Arch_AWS-License-Manager_48" stroke="none" stroke-width="1" fill="none" fill-rule="evenodd">
        <g id="Icon-Architecture-BG/48/Management-Governance" fill="url(#linearGradient-1)">
            <rect id="Rectangle" x="0" y="0" width="64" height="64"></rect>
        </g>
        <path d="M31.981,32.528 C33.868,32.528 35.402,34.062 35.402,35.948 C35.402,37.835 33.868,39.369 31.981,39.369 C30.094,39.369 28.56,37.835 28.56,35.948 C28.56,34.062 30.094,32.528 31.981,32.528 L31.981,32.528 Z M31.981,41.369 C34.97,41.369 37.402,38.938 37.402,35.948 C37.402,32.96 34.97,30.528 31.981,30.528 C28.992,30.528 26.56,32.96 26.56,35.948 C26.56,38.938 28.992,41.369 31.981,41.369 L31.981,41.369 Z M30.735,38 L29.187,36.794 L30.416,35.216 L31.267,35.88 L33.168,33.979 L34.583,35.393 L32.056,37.919 C31.862,38.113 31.606,38.212 31.349,38.212 C31.133,38.212 30.917,38.142 30.735,38 L30.735,38 Z M21.111,25 L42.888,25 L42.888,23 L21.111,23 L21.111,25 Z M21.111,21 L42.888,21 L42.888,19 L21.111,19 L21.111,21 Z M21,16 L30,16 L30,14 L21,14 L21,16 Z M24.404,35.967 C24.404,35.501 24.736,35.095 25.194,35.004 C25.564,34.93 25.861,34.653 25.961,34.289 C26.099,33.788 26.298,33.31 26.552,32.866 C26.734,32.548 26.727,32.156 26.536,31.844 C26.437,31.685 26.387,31.515 26.387,31.339 C26.387,30.619 27.227,30.101 27.878,30.504 C28.191,30.694 28.581,30.7 28.899,30.52 C29.341,30.266 29.82,30.068 30.321,29.929 C30.685,29.829 30.961,29.532 31.036,29.161 C31.127,28.704 31.533,28.372 32,28.372 C32.466,28.372 32.872,28.704 32.963,29.161 C33.038,29.532 33.314,29.829 33.678,29.929 C34.179,30.068 34.658,30.266 35.1,30.52 C35.418,30.7 35.807,30.694 36.121,30.504 C36.77,30.099 37.612,30.619 37.612,31.339 C37.612,31.515 37.562,31.685 37.463,31.844 C37.272,32.156 37.265,32.548 37.447,32.866 C37.701,33.31 37.9,33.788 38.038,34.289 C38.138,34.653 38.435,34.93 38.805,35.004 C39.263,35.095 39.595,35.501 39.595,35.967 C39.595,36.434 39.263,36.84 38.805,36.931 C38.435,37.005 38.138,37.282 38.038,37.646 C37.9,38.147 37.701,38.625 37.447,39.069 C37.265,39.387 37.272,39.779 37.463,40.09 C37.562,40.25 37.612,40.42 37.612,40.596 C37.612,41.315 36.772,41.835 36.121,41.431 C35.807,41.24 35.418,41.233 35.1,41.415 C34.659,41.668 34.179,41.867 33.677,42.006 C33.313,42.107 33.038,42.404 32.963,42.774 C32.872,43.231 32.466,43.563 32,43.563 C31.533,43.563 31.127,43.231 31.036,42.774 C30.961,42.404 30.686,42.107 30.322,42.006 C29.82,41.867 29.34,41.668 28.899,41.415 C28.745,41.327 28.573,41.283 28.402,41.283 C28.22,41.283 28.04,41.333 27.878,41.431 C27.226,41.834 26.386,41.315 26.387,40.596 C26.387,40.42 26.437,40.25 26.536,40.09 C26.727,39.779 26.734,39.387 26.552,39.069 C26.298,38.625 26.099,38.147 25.961,37.646 C25.861,37.282 25.564,37.005 25.194,36.931 C24.736,36.84 24.404,36.434 24.404,35.967 L24.404,35.967 Z M27.371,43.58 C27.713,43.58 28.053,43.519 28.377,43.401 C28.664,43.54 28.96,43.664 29.264,43.77 C29.73,44.838 30.797,45.563 32,45.563 C33.202,45.563 34.269,44.838 34.735,43.77 C35.039,43.664 35.335,43.54 35.622,43.401 C35.946,43.519 36.286,43.58 36.628,43.58 C38.274,43.58 39.612,42.241 39.612,40.596 C39.612,40.253 39.55,39.913 39.433,39.59 C39.573,39.302 39.696,39.006 39.801,38.703 C40.87,38.237 41.595,37.17 41.595,35.967 C41.595,34.765 40.87,33.698 39.801,33.232 C39.696,32.929 39.573,32.632 39.433,32.345 C39.55,32.022 39.612,31.682 39.612,31.339 C39.612,29.694 38.274,28.355 36.628,28.355 C36.286,28.355 35.946,28.416 35.622,28.534 C35.335,28.394 35.039,28.271 34.735,28.165 C34.269,27.097 33.202,26.372 32,26.372 C30.797,26.372 29.73,27.097 29.264,28.165 C28.96,28.271 28.665,28.394 28.377,28.534 C28.053,28.416 27.713,28.355 27.371,28.355 C25.725,28.355 24.387,29.694 24.387,31.339 C24.387,31.682 24.449,32.022 24.566,32.345 C24.426,32.632 24.303,32.929 24.198,33.232 C23.129,33.698 22.404,34.765 22.404,35.967 C22.404,37.17 23.129,38.237 24.198,38.703 C24.303,39.006 24.426,39.302 24.566,39.59 C24.449,39.913 24.387,40.253 24.387,40.596 C24.387,42.241 25.725,43.58 27.371,43.58 L27.371,43.58 Z M35,45 L37,45 L37,53 C37,53.404 36.756,53.769 36.382,53.924 C36.258,53.975 36.128,54 36,54 C35.74,54 35.484,53.899 35.293,53.707 L32,50.414 L28.707,53.707 C28.42,53.994 27.99,54.078 27.617,53.924 C27.243,53.769 27,53.404 27,53 L27,45 L29,45 L29,50.586 L31.293,48.293 C31.683,47.903 32.316,47.903 32.707,48.293 L35,50.586 L35,45 Z M41,13.414 L43.585,16 L41,16 L41,13.414 Z M46.707,16.293 L40.707,10.293 C40.519,10.106 40.265,10 40,10 L18,10 C17.447,10 17,10.448 17,11 L17,49 C17,49.552 17.447,50 18,50 L26,50 L26,48 L19,48 L19,12 L39,12 L39,17 C39,17.552 39.447,18 40,18 L45,18 L45,48 L38,48 L38,50 L46,50 C46.552,50 47,49.552 47,49 L47,17 C47,16.735 46.894,16.481 46.707,16.293 L46.707,16.293 Z" id="AWS-License-Manager_Icon_48_Squid" fill="#FFFFFF"></path>
    </g>
</svg>