<?xml version="1.0" encoding="UTF-8"?>
<svg width="64px" height="64px" viewBox="0 0 64 64" version="1.1" xmlns="http://www.w3.org/2000/svg" xmlns:xlink="http://www.w3.org/1999/xlink">
    <!-- Generator: Sketch 64 (93537) - https://sketch.com -->
    <title>Icon-Architecture/48/Arch_AWS-Chatbot_48</title>
    <desc>Created with Sketch.</desc>
    <defs>
        <linearGradient x1="0%" y1="100%" x2="100%" y2="0%" id="linearGradient-1">
            <stop stop-color="#B0084D" offset="0%"></stop>
            <stop stop-color="#FF4F8B" offset="100%"></stop>
        </linearGradient>
    </defs>
    <g id="Icon-Architecture/48/Arch_AWS-Chatbot_48" stroke="none" stroke-width="1" fill="none" fill-rule="evenodd">
        <g id="Icon-Architecture-BG/48/Management-Governance" fill="url(#linearGradient-1)">
            <rect id="Rectangle" x="0" y="0" width="64" height="64"></rect>
        </g>
        <path d="M30.0273484,19 L33.0237812,19 L33.0237812,17 L30.0273484,17 L30.0273484,19 Z M25.0332937,19 L28.0297265,19 L28.0297265,17 L25.0332937,17 L25.0332937,19 Z M20.039239,19 L23.0356718,19 L23.0356718,17 L20.039239,17 L20.039239,19 Z M50.0035672,40.722 L50.0035672,37.278 C50.5978597,37.625 51.0023781,38.263 51.0023781,39 C51.0023781,39.737 50.5978597,40.375 50.0035672,40.722 L50.0035672,40.722 Z M14.0463734,40.749 C13.425113,40.409 12.9976219,39.757 12.9976219,39 C12.9976219,38.243 13.425113,37.591 14.0463734,37.251 L14.0463734,40.749 Z M50.0035672,35.142 L50.0035672,34 C50.0035672,31.243 47.8621165,29 45.2312485,29 L32.0249703,29 L32.0249703,31 L45.2312485,31 C46.7614269,31 48.0059453,32.346 48.0059453,34 L48.0059453,44 C48.0059453,45.654 46.7614269,47 45.2312485,47 L18.8176932,47 C17.2885137,47 16.0439952,45.654 16.0439952,44 L16.0439952,34 C16.0439952,32.346 17.2885137,31 18.8176932,31 L22.591201,31 L22.591201,29 L18.8176932,29 C16.1868252,29 14.0463734,31.243 14.0463734,34 L14.0463734,35.126 C12.3024495,35.556 11,37.124 11,39 C11,40.876 12.3024495,42.444 14.0463734,42.874 L14.0463734,44 C14.0463734,46.757 16.1868252,49 18.8176932,49 L28.0297265,49 L28.0297265,54 L30.0273484,54 L30.0273484,49 L34.0225922,49 L34.0225922,54 L36.020214,54 L36.020214,49 L45.2312485,49 C47.8621165,49 50.0035672,46.757 50.0035672,44 L50.0035672,42.858 C51.7225208,42.411 53,40.858 53,39 C53,37.142 51.7225208,35.589 50.0035672,35.142 L50.0035672,35.142 Z M25.0332937,39 C25.0332937,40.103 24.1363615,41 23.0356718,41 C21.9339834,41 21.0380499,40.103 21.0380499,39 C21.0380499,37.897 21.9339834,37 23.0356718,37 C24.1363615,37 25.0332937,37.897 25.0332937,39 L25.0332937,39 Z M19.0404281,39 C19.0404281,41.206 20.8322949,43 23.0356718,43 C25.2390488,43 27.0309156,41.206 27.0309156,39 C27.0309156,36.794 25.2390488,35 23.0356718,35 C20.8322949,35 19.0404281,36.794 19.0404281,39 L19.0404281,39 Z M39.0166468,39 C39.0166468,37.897 39.9125803,37 41.0142687,37 C42.1149584,37 43.0118906,37.897 43.0118906,39 C43.0118906,40.103 42.1149584,41 41.0142687,41 C39.9125803,41 39.0166468,40.103 39.0166468,39 L39.0166468,39 Z M45.0095125,39 C45.0095125,36.794 43.2176457,35 41.0142687,35 C38.8108918,35 37.019025,36.794 37.019025,39 C37.019025,41.206 38.8108918,43 41.0142687,43 C43.2176457,43 45.0095125,41.206 45.0095125,39 L45.0095125,39 Z M17.0428062,12.389 C17.0428062,12.174 17.2175981,12 17.4303448,12 L36.020214,12 L36.020214,23.588 C36.020214,23.811 35.8314388,24 35.6087039,24 L28.0297265,24 C27.4773841,24 27.0309156,24.448 27.0309156,25 L27.0309156,28.084 L24.1633294,24.387 C23.9735553,24.143 23.6819025,24 23.3742687,24 L17.4303448,24 C17.2175981,24 17.0428062,23.826 17.0428062,23.611 L17.0428062,12.389 Z M17.4303448,26 L22.8848514,26 L27.2406659,31.616 C27.4334364,31.865 27.7270868,32.003 28.0297265,32.003 C28.1375981,32.003 28.2474673,31.985 28.3533413,31.949 C28.7568609,31.811 29.0285375,31.43 29.0285375,31.003 L29.0285375,26 L35.6087039,26 C36.9371225,26 38.0178359,24.918 38.0178359,23.588 L38.0178359,11.394 C38.0178359,10.625 37.3935791,10 36.6254935,10 L17.4303448,10 C16.1149108,10 15.0451843,11.072 15.0451843,12.389 L15.0451843,23.611 C15.0451843,24.928 16.1149108,26 17.4303448,26 L17.4303448,26 Z" id="AWS-Chatbot_Icon_48_Squid" fill="#FFFFFF"></path>
    </g>
</svg>