<?xml version="1.0" encoding="UTF-8"?>
<svg width="64px" height="64px" viewBox="0 0 64 64" version="1.1" xmlns="http://www.w3.org/2000/svg" xmlns:xlink="http://www.w3.org/1999/xlink">
    <!-- Generator: Sketch 64 (93537) - https://sketch.com -->
    <title>Icon-Architecture/48/Arch_AWS-Config_48</title>
    <desc>Created with Sketch.</desc>
    <defs>
        <linearGradient x1="0%" y1="100%" x2="100%" y2="0%" id="linearGradient-1">
            <stop stop-color="#B0084D" offset="0%"></stop>
            <stop stop-color="#FF4F8B" offset="100%"></stop>
        </linearGradient>
    </defs>
    <g id="Icon-Architecture/48/Arch_AWS-Config_48" stroke="none" stroke-width="1" fill="none" fill-rule="evenodd">
        <g id="Icon-Architecture-BG/48/Management-Governance" fill="url(#linearGradient-1)">
            <rect id="Rectangle" x="0" y="0" width="64" height="64"></rect>
        </g>
        <path d="M46.0467765,38.0183908 L47.9362824,38.6131494 L47.0231529,41.6537011 C46.8927059,42.0856092 46.5043294,42.3678161 46.0793882,42.3678161 C46.0032941,42.3678161 45.9272,42.3597241 45.8501176,42.3405057 L42.9022118,41.6243678 L43.3597647,39.656 L44.3183529,39.8886437 C43.6582118,39.0875402 42.6897412,38.5868506 41.6352941,38.5868506 C39.9048941,38.5868506 38.3444706,39.8653793 38.0045176,41.5596322 L36.0685647,41.154023 C36.5923294,38.5372874 38.9848471,36.5648736 41.6352941,36.5648736 C43.3064,36.5648736 44.8342118,37.3649655 45.8619765,38.6364138 L46.0467765,38.0183908 Z M45.0397647,43.1770115 L46.9757176,43.5816092 C46.4539294,46.1983448 44.3074824,47.9573333 41.6352941,47.9573333 C39.9869176,47.9573333 38.4867765,47.2816552 37.4352941,46.1963218 L37.3671059,46.5321379 L35.4331294,46.1143908 L36.0389176,43.1709425 C36.1505882,42.6287816 36.6634824,42.2808276 37.2000941,42.388046 L39.9849412,42.9575172 L39.5975529,44.9410575 L38.8366118,44.7852874 C39.5224471,45.4933333 40.5284706,45.9343448 41.6352941,45.9343448 C43.3686588,45.9343448 44.7057412,44.852046 45.0397647,43.1770115 L45.0397647,43.1770115 Z M51.0235294,43.3702069 L50.3386824,43.3297471 C49.8485176,43.3034483 49.4245647,43.6342069 49.3188235,44.1177011 C49.1201882,45.0148966 48.7772706,45.8655632 48.296,46.6454253 C48.0390588,47.0631724 48.1141647,47.6103908 48.4738824,47.9401379 L48.9857882,48.4074483 L47.5360471,49.8902989 L47.0824471,49.3703908 C46.7602824,49.0001839 46.2246588,48.9243218 45.8175059,49.1883218 C45.0555765,49.6809195 44.2234824,50.033931 43.3439529,50.2372414 C42.8725647,50.3464828 42.5474353,50.7885057 42.5751059,51.2821149 L42.6136471,51.9770115 L40.5640471,51.9770115 L40.6025882,51.2811034 C40.6312471,50.7874943 40.3051294,50.3454713 39.8347294,50.2362299 C38.9591529,50.033931 38.1270588,49.6809195 37.3621647,49.1873103 C36.9550118,48.9222989 36.4184,48.9991724 36.0982118,49.3693793 L35.6436235,49.8902989 L34.1938824,48.4074483 L34.7028235,47.9421609 C35.0635294,47.6124138 35.1386353,47.0651954 34.8807059,46.6474483 C34.3994353,45.8665747 34.0555294,45.0148966 33.8578824,44.1177011 C33.7511529,43.6342069 33.2955765,43.3034483 32.8380235,43.3297471 L32.1541647,43.3702069 L32.1541647,41.2713563 L32.8419765,41.3118161 C33.2955765,41.3350805 33.7541176,41.0073563 33.8618353,40.5258851 C34.0604706,39.6276782 34.4053647,38.778023 34.8856471,38.0001839 C35.1435765,37.5824368 35.0684706,37.0342069 34.7077647,36.7054713 L34.1928941,36.2341149 L35.6436235,34.7502529 L36.1021647,35.2772414 C36.4253176,35.6454253 36.9599529,35.7212874 37.3671059,35.4593103 C38.1270588,34.9677241 38.9571765,34.6167356 39.8337412,34.4144368 C40.3051294,34.3051954 40.6312471,33.8631724 40.6025882,33.3695632 L40.5640471,32.6645517 L42.6136471,32.6645517 L42.5751059,33.3705747 C42.5474353,33.8641839 42.8725647,34.3051954 43.3439529,34.4144368 C44.2185412,34.6177471 45.0486588,34.9697471 45.8105882,35.4613333 C46.2157647,35.7243218 46.7523765,35.6484598 47.0745412,35.2792644 L47.5350588,34.7502529 L48.9857882,36.2341149 L48.4709176,36.7034483 C48.1112,37.0331954 48.0360941,37.5804138 48.2940235,37.9991724 C48.7743059,38.776 49.1182118,39.6256552 49.3178353,40.5248736 C49.4235765,41.0073563 49.8722353,41.3350805 50.3376941,41.3118161 L51.0235294,41.2713563 L51.0235294,43.3702069 Z M52.6906824,39.4648276 C52.4930353,39.2746667 52.2321412,39.1745287 51.9554353,39.1907126 L51.0245176,39.2453333 C50.8545412,38.7011494 50.6410824,38.1731494 50.3851294,37.6674023 L51.0818353,37.0311724 C51.2844235,36.846069 51.404,36.5830805 51.4119059,36.3049195 C51.4198118,36.0267586 51.3140706,35.7577011 51.1223529,35.5614713 L48.1932235,32.5623908 C48.0015059,32.3651494 47.7416,32.2488276 47.4668706,32.2670345 C47.1941176,32.2751264 46.9371765,32.3965057 46.7573176,32.6048736 L46.1327529,33.3210115 C45.6386353,33.0590345 45.1237647,32.8405517 44.5930824,32.6675862 L44.6464471,31.7097011 C44.6622588,31.4325517 44.5654118,31.1604598 44.3786353,30.9581609 C44.1918588,30.7558621 43.9319529,30.6415632 43.6601882,30.6415632 L39.5184941,30.6415632 C39.2457412,30.6415632 38.9858353,30.7558621 38.8000471,30.9581609 C38.6132706,31.1604598 38.5164235,31.4325517 38.5322353,31.7097011 L38.5846118,32.6665747 C38.0539294,32.8385287 37.5390588,33.0570115 37.0449412,33.3189885 L36.4213647,32.6038621 C36.2395294,32.3965057 35.9825882,32.2751264 35.7118118,32.2670345 C35.4321412,32.2518621 35.1771765,32.3661609 34.9854588,32.5623908 L32.0563294,35.5614713 C31.8636235,35.7577011 31.7588706,36.0267586 31.7667765,36.3049195 C31.7746824,36.5830805 31.8942588,36.846069 32.0968471,37.0311724 L32.7945412,37.6684138 C32.5376,38.1751724 32.3241412,38.7011494 32.1551529,39.2453333 L31.2222588,39.1907126 C30.9544471,39.1735172 30.6846588,39.2746667 30.488,39.4648276 C30.2903529,39.656 30.1776941,39.922023 30.1776941,40.2001839 L30.1776941,44.4413793 C30.1776941,44.7195402 30.2903529,44.9855632 30.488,45.1767356 C30.6846588,45.3668966 30.9554353,45.4629885 31.2222588,45.4508506 L32.1502118,45.3962299 C32.3192,45.9414253 32.5326588,46.4694253 32.7896,46.9771954 L32.0968471,47.6103908 C31.8942588,47.7954943 31.7746824,48.0574713 31.7667765,48.3356322 C31.7588706,48.6148046 31.8636235,48.8838621 32.0563294,49.080092 L34.9854588,52.0781609 C35.1771765,52.2754023 35.4291765,52.3866667 35.7118118,52.3745287 C35.9835765,52.3664368 36.2405176,52.244046 36.4213647,52.0366897 L37.04,51.3276322 C37.5370824,51.5906207 38.0519529,51.8101149 38.5836235,51.9830805 L38.5322353,52.9308506 C38.5164235,53.2090115 38.6132706,53.4811034 38.8000471,53.6834023 C38.9858353,53.8857011 39.2457412,54 39.5184941,54 L43.6601882,54 C43.9319529,54 44.1918588,53.8857011 44.3786353,53.6834023 C44.5654118,53.4811034 44.6622588,53.2090115 44.6464471,52.9308506 L44.5940706,51.9851034 C45.1267294,51.8111264 45.6445647,51.5916322 46.1406588,51.3286437 L46.7573176,52.0366897 C46.9371765,52.244046 47.1941176,52.3664368 47.4668706,52.3745287 C47.7159059,52.3897011 48.0015059,52.2754023 48.1932235,52.0781609 L51.1223529,49.080092 C51.3140706,48.8838621 51.4198118,48.6148046 51.4119059,48.3366437 C51.404,48.0584828 51.2844235,47.7954943 51.0818353,47.6103908 L50.3871059,46.9751724 C50.6430588,46.4684138 50.8565176,45.9404138 51.0255059,45.3962299 L51.9554353,45.4508506 C52.2311529,45.461977 52.4930353,45.3668966 52.6906824,45.1767356 C52.8883294,44.9855632 53,44.7195402 53,44.4413793 L53,40.2001839 C53,39.922023 52.8883294,39.656 52.6906824,39.4648276 L52.6906824,39.4648276 Z M12.9764706,44.3908046 L27.8,44.3908046 L27.8,46.4137931 L11.9882353,46.4137931 C11.4417412,46.4137931 11,45.9616552 11,45.4022989 L11,11.0114943 C11,10.4531494 11.4417412,10 11.9882353,10 L47.5647059,10 C48.1112,10 48.5529412,10.4531494 48.5529412,11.0114943 L48.5529412,29.2183908 L46.5764706,29.2183908 L46.5764706,12.0229885 L12.9764706,12.0229885 L12.9764706,44.3908046 Z M37.6823529,22.137931 L41.6352941,22.137931 L41.6352941,20.1149425 L37.6823529,20.1149425 L37.6823529,22.137931 Z M38.6705882,18.091954 L40.6470588,18.091954 L40.6470588,16.0689655 L38.6705882,16.0689655 L38.6705882,18.091954 Z M42.6235294,29.2183908 L42.6235294,24.1609195 C43.1700235,24.1609195 43.6117647,23.7087816 43.6117647,23.1494253 L43.6117647,19.1034483 C43.6117647,18.5451034 43.1700235,18.091954 42.6235294,18.091954 L42.6235294,15.0574713 C42.6235294,14.4991264 42.1817882,14.045977 41.6352941,14.045977 L37.6823529,14.045977 C37.1358588,14.045977 36.6941176,14.4991264 36.6941176,15.0574713 L36.6941176,18.091954 C36.1476235,18.091954 35.7058824,18.5451034 35.7058824,19.1034483 L35.7058824,23.1494253 C35.7058824,23.7087816 36.1476235,24.1609195 36.6941176,24.1609195 L36.6941176,29.2183908 L38.6705882,29.2183908 L38.6705882,24.1609195 L40.6470588,24.1609195 L40.6470588,29.2183908 L42.6235294,29.2183908 Z M26.8117647,30.2298851 L30.7647059,30.2298851 L30.7647059,28.2068966 L26.8117647,28.2068966 L26.8117647,30.2298851 Z M27.8,26.183908 L29.7764706,26.183908 L29.7764706,16.0689655 L27.8,16.0689655 L27.8,26.183908 Z M31.7529412,34.2758621 L31.7529412,32.2528736 C32.2994353,32.2528736 32.7411765,31.8007356 32.7411765,31.2413793 L32.7411765,27.1954023 C32.7411765,26.6370575 32.2994353,26.183908 31.7529412,26.183908 L31.7529412,15.0574713 C31.7529412,14.4991264 31.3112,14.045977 30.7647059,14.045977 L26.8117647,14.045977 C26.2652706,14.045977 25.8235294,14.4991264 25.8235294,15.0574713 L25.8235294,26.183908 C25.2770353,26.183908 24.8352941,26.6370575 24.8352941,27.1954023 L24.8352941,31.2413793 C24.8352941,31.8007356 25.2770353,32.2528736 25.8235294,32.2528736 L25.8235294,40.3448276 L27.8,40.3448276 L27.8,32.2528736 L29.7764706,32.2528736 L29.7764706,34.2758621 L31.7529412,34.2758621 Z M16.9294118,38.3218391 L18.9058824,38.3218391 L18.9058824,28.2068966 L16.9294118,28.2068966 L16.9294118,38.3218391 Z M16.9294118,22.137931 L18.9058824,22.137931 L18.9058824,16.0689655 L16.9294118,16.0689655 L16.9294118,22.137931 Z M15.9411765,26.183908 L19.8941176,26.183908 L19.8941176,24.1609195 L15.9411765,24.1609195 L15.9411765,26.183908 Z M15.9411765,40.3448276 L19.8941176,40.3448276 C20.4406118,40.3448276 20.8823529,39.8926897 20.8823529,39.3333333 L20.8823529,28.2068966 C21.4288471,28.2068966 21.8705882,27.7547586 21.8705882,27.1954023 L21.8705882,23.1494253 C21.8705882,22.5910805 21.4288471,22.137931 20.8823529,22.137931 L20.8823529,15.0574713 C20.8823529,14.4991264 20.4406118,14.045977 19.8941176,14.045977 L15.9411765,14.045977 C15.3946824,14.045977 14.9529412,14.4991264 14.9529412,15.0574713 L14.9529412,22.137931 C14.4064471,22.137931 13.9647059,22.5910805 13.9647059,23.1494253 L13.9647059,27.1954023 C13.9647059,27.7547586 14.4064471,28.2068966 14.9529412,28.2068966 L14.9529412,39.3333333 C14.9529412,39.8926897 15.3946824,40.3448276 15.9411765,40.3448276 L15.9411765,40.3448276 Z" id="AWS-Config_Icon_48_Squid" fill="#FFFFFF"></path>
    </g>
</svg>