<?xml version="1.0" encoding="UTF-8"?>
<svg width="64px" height="64px" viewBox="0 0 64 64" version="1.1" xmlns="http://www.w3.org/2000/svg" xmlns:xlink="http://www.w3.org/1999/xlink">
    <!-- Generator: Sketch 64 (93537) - https://sketch.com -->
    <title>Icon-Architecture/48/Arch_AWS-Organizations_48</title>
    <desc>Created with Sketch.</desc>
    <defs>
        <linearGradient x1="0%" y1="100%" x2="100%" y2="0%" id="linearGradient-1">
            <stop stop-color="#B0084D" offset="0%"></stop>
            <stop stop-color="#FF4F8B" offset="100%"></stop>
        </linearGradient>
    </defs>
    <g id="Icon-Architecture/48/Arch_AWS-Organizations_48" stroke="none" stroke-width="1" fill="none" fill-rule="evenodd">
        <g id="Icon-Architecture-BG/48/Management-Governance" fill="url(#linearGradient-1)">
            <rect id="Rectangle" x="0" y="0" width="64" height="64"></rect>
        </g>
        <path d="M44,51.0054 L50,51.0054 L50,45.0216001 L44,45.0216001 L44,51.0054 Z M29,51.0054 L35,51.0054 L35,45.0216001 L29,45.0216001 L29,51.0054 Z M14,51.0054 L20,51.0054 L20,45.0216001 L14,45.0216001 L14,51.0054 Z M51,43.0270001 L48,43.0270001 L48,39.0378001 C48,38.4872905 47.552,38.0405001 47,38.0405001 L33,38.0405001 L33,35.0486001 L31,35.0486001 L31,38.0405001 L17,38.0405001 C16.447,38.0405001 16,38.4872905 16,39.0378001 L16,43.0270001 L13,43.0270001 C12.447,43.0270001 12,43.4737905 12,44.0243001 L12,52.0027 C12,52.5532096 12.447,53 13,53 L21,53 C21.552,53 22,52.5532096 22,52.0027 L22,44.0243001 C22,43.4737905 21.552,43.0270001 21,43.0270001 L18,43.0270001 L18,40.0351001 L31,40.0351001 L31,43.0270001 L28,43.0270001 C27.447,43.0270001 27,43.4737905 27,44.0243001 L27,52.0027 C27,52.5532096 27.447,53 28,53 L36,53 C36.552,53 37,52.5532096 37,52.0027 L37,44.0243001 C37,43.4737905 36.552,43.0270001 36,43.0270001 L33,43.0270001 L33,40.0351001 L46,40.0351001 L46,43.0270001 L43,43.0270001 C42.447,43.0270001 42,43.4737905 42,44.0243001 L42,52.0027 C42,52.5532096 42.447,53 43,53 L51,53 C51.552,53 52,52.5532096 52,52.0027 L52,44.0243001 C52,43.4737905 51.552,43.0270001 51,43.0270001 L51,43.0270001 Z M32,14.1382112 L38.949,17.9887865 L32,21.8812483 L25.05,17.9887865 L32,14.1382112 Z M33,31.3406388 L33,23.6085719 L40,19.6881856 L40,27.3763713 L33,31.3406388 Z M24,19.6881856 L31,23.6085719 L31,31.3406388 L24,27.3763713 L24,19.6881856 Z M22.505,28.8244509 L31.505,33.9216511 C31.659,34.0084162 31.83,34.0513001 32,34.0513001 C32.17,34.0513001 32.34,34.0084162 32.494,33.9216511 L41.494,28.8244509 C41.806,28.6469315 42,28.3158279 42,27.9567999 L42,17.9838 C42,17.6217801 41.802,17.2876846 41.485,17.1121598 L32.485,12.1256598 C32.184,11.9581134 31.815,11.9581134 31.514,12.1256598 L22.514,17.1121598 C22.197,17.2876846 22,17.6217801 22,17.9838 L22,27.9567999 C22,28.3158279 22.193,28.6469315 22.505,28.8244509 L22.505,28.8244509 Z" id="AWS-Organizations_Icon_48_Squid" fill="#FFFFFF"></path>
    </g>
</svg>