<?xml version="1.0" encoding="UTF-8"?>
<svg width="64px" height="64px" viewBox="0 0 64 64" version="1.1" xmlns="http://www.w3.org/2000/svg" xmlns:xlink="http://www.w3.org/1999/xlink">
    <!-- Generator: Sketch 64 (93537) - https://sketch.com -->
    <title>Icon-Architecture/48/Arch_AWS-OpsWorks_48</title>
    <desc>Created with Sketch.</desc>
    <defs>
        <linearGradient x1="0%" y1="100%" x2="100%" y2="0%" id="linearGradient-1">
            <stop stop-color="#B0084D" offset="0%"></stop>
            <stop stop-color="#FF4F8B" offset="100%"></stop>
        </linearGradient>
    </defs>
    <g id="Icon-Architecture/48/Arch_AWS-OpsWorks_48" stroke="none" stroke-width="1" fill="none" fill-rule="evenodd">
        <g id="Icon-Architecture-BG/48/Management-Governance" fill="url(#linearGradient-1)">
            <rect id="Rectangle" x="0" y="0" width="64" height="64"></rect>
        </g>
        <path d="M32,18.839 C33.595,18.839 34.893,20.137 34.893,21.732 C34.893,23.327 33.595,24.625 32,24.625 C30.405,24.625 29.107,23.327 29.107,21.732 C29.107,20.137 30.405,18.839 32,18.839 L32,18.839 Z M32,26.625 C34.698,26.625 36.893,24.43 36.893,21.732 C36.893,19.034 34.698,16.839 32,16.839 C29.302,16.839 27.107,19.034 27.107,21.732 C27.107,24.43 29.302,26.625 32,26.625 L32,26.625 Z M23.268,20.857 L23.827,20.888 C24.304,20.911 24.75,20.588 24.859,20.111 C25.043,19.302 25.361,18.535 25.806,17.832 C26.067,17.419 25.991,16.877 25.626,16.551 L25.206,16.176 L26.444,14.938 L26.819,15.358 C27.144,15.723 27.687,15.797 28.099,15.538 C28.802,15.094 29.568,14.777 30.378,14.594 C30.855,14.486 31.185,14.05 31.156,13.562 L31.124,13 L32.876,13 L32.844,13.563 C32.815,14.05 33.145,14.487 33.621,14.595 C34.43,14.778 35.196,15.096 35.9,15.539 C36.312,15.798 36.854,15.725 37.18,15.359 L37.556,14.938 L38.794,16.176 L38.375,16.549 C38.011,16.875 37.935,17.417 38.195,17.83 C38.64,18.533 38.958,19.3 39.142,20.111 C39.25,20.588 39.676,20.911 40.174,20.888 L40.732,20.857 L40.732,22.608 L40.175,22.576 C39.676,22.543 39.25,22.877 39.143,23.354 C38.96,24.163 38.642,24.931 38.197,25.637 C37.937,26.05 38.013,26.591 38.378,26.917 L38.794,27.288 L37.556,28.526 L37.187,28.112 C36.86,27.746 36.317,27.671 35.906,27.933 C35.202,28.378 34.434,28.696 33.621,28.879 C33.145,28.987 32.815,29.424 32.844,29.912 L32.875,30.464 L31.125,30.464 L31.156,29.911 C31.185,29.423 30.855,28.986 30.379,28.878 C29.569,28.695 28.801,28.377 28.096,27.931 C27.683,27.671 27.142,27.744 26.815,28.111 L26.444,28.526 L25.206,27.288 L25.621,26.918 C25.985,26.593 26.062,26.052 25.801,25.638 C25.356,24.934 25.039,24.165 24.856,23.355 C24.748,22.877 24.279,22.543 23.824,22.576 L23.268,22.608 L23.268,20.857 Z M22.324,24.665 L23.131,24.619 C23.281,25.08 23.467,25.529 23.687,25.963 L23.084,26.5 C22.879,26.683 22.758,26.943 22.75,27.218 C22.742,27.493 22.849,27.759 23.043,27.953 L25.779,30.689 C25.974,30.883 26.253,30.992 26.515,30.981 C26.79,30.973 27.05,30.853 27.232,30.647 L27.771,30.045 C28.203,30.266 28.651,30.452 29.113,30.602 L29.067,31.407 C29.051,31.682 29.149,31.951 29.338,32.151 C29.527,32.351 29.79,32.464 30.065,32.464 L33.935,32.464 C34.21,32.464 34.473,32.351 34.662,32.151 C34.851,31.951 34.949,31.682 34.933,31.407 L34.887,30.604 C35.349,30.454 35.799,30.267 36.231,30.047 L36.768,30.647 C36.95,30.853 37.21,30.973 37.485,30.981 C37.726,30.995 38.026,30.883 38.221,30.689 L40.957,27.953 C41.151,27.759 41.258,27.493 41.25,27.218 C41.242,26.943 41.121,26.683 40.915,26.5 L40.311,25.961 C40.531,25.528 40.718,25.08 40.867,24.619 L41.676,24.665 C41.942,24.677 42.22,24.582 42.419,24.393 C42.619,24.204 42.732,23.941 42.732,23.666 L42.732,19.798 C42.732,19.523 42.619,19.26 42.419,19.071 C42.22,18.882 41.943,18.785 41.676,18.799 L40.866,18.846 C40.716,18.384 40.53,17.937 40.31,17.505 L40.916,16.964 C41.121,16.781 41.242,16.522 41.25,16.246 C41.258,15.971 41.151,15.705 40.957,15.511 L38.221,12.776 C38.026,12.581 37.723,12.469 37.485,12.483 C37.21,12.491 36.95,12.611 36.768,12.817 L36.225,13.425 C35.793,13.206 35.346,13.021 34.887,12.871 L34.933,12.057 C34.948,11.782 34.851,11.513 34.661,11.313 C34.473,11.113 34.21,11 33.935,11 L30.065,11 C29.79,11 29.527,11.113 29.339,11.313 C29.149,11.513 29.052,11.782 29.067,12.057 L29.113,12.87 C28.653,13.019 28.206,13.204 27.774,13.424 L27.232,12.817 C27.05,12.611 26.79,12.491 26.515,12.483 C26.256,12.472 25.974,12.581 25.779,12.776 L23.043,15.511 C22.849,15.705 22.742,15.971 22.75,16.246 C22.758,16.522 22.879,16.781 23.085,16.964 L23.692,17.506 C23.472,17.938 23.286,18.385 23.136,18.846 L22.324,18.799 C22.054,18.784 21.78,18.882 21.581,19.071 C21.381,19.26 21.268,19.523 21.268,19.798 L21.268,23.666 C21.268,23.941 21.381,24.204 21.581,24.393 C21.78,24.582 22.055,24.678 22.324,24.665 L22.324,24.665 Z M45,51.464 L49,51.464 L49,44.464 L45,44.464 L45,51.464 Z M30,51.464 L34,51.464 L34,44.464 L30,44.464 L30,51.464 Z M15,51.464 L19,51.464 L19,44.464 L15,44.464 L15,51.464 Z M50,42.464 L48,42.464 L48,38.464 C48,37.912 47.553,37.464 47,37.464 L33,37.464 L33,34.464 L31,34.464 L31,37.464 L17,37.464 C16.447,37.464 16,37.912 16,38.464 L16,42.464 L14,42.464 C13.447,42.464 13,42.912 13,43.464 L13,52.464 C13,53.017 13.447,53.464 14,53.464 L20,53.464 C20.553,53.464 21,53.017 21,52.464 L21,43.464 C21,42.912 20.553,42.464 20,42.464 L18,42.464 L18,39.464 L31,39.464 L31,42.464 L29,42.464 C28.447,42.464 28,42.912 28,43.464 L28,52.464 C28,53.017 28.447,53.464 29,53.464 L35,53.464 C35.553,53.464 36,53.017 36,52.464 L36,43.464 C36,42.912 35.553,42.464 35,42.464 L33,42.464 L33,39.464 L46,39.464 L46,42.464 L44,42.464 C43.447,42.464 43,42.912 43,43.464 L43,52.464 C43,53.017 43.447,53.464 44,53.464 L50,53.464 C50.553,53.464 51,53.017 51,52.464 L51,43.464 C51,42.912 50.553,42.464 50,42.464 L50,42.464 Z" id="AWS-OpsWorks_Icon_48_Squid" fill="#FFFFFF"></path>
    </g>
</svg>