<?xml version="1.0" encoding="UTF-8"?>
<svg width="64px" height="64px" viewBox="0 0 64 64" version="1.1" xmlns="http://www.w3.org/2000/svg" xmlns:xlink="http://www.w3.org/1999/xlink">
    <!-- Generator: Sketch 64 (93537) - https://sketch.com -->
    <title>Icon-Architecture/48/Arch_AWS-App-Wizard_48</title>
    <desc>Created with Sketch.</desc>
    <defs>
        <linearGradient x1="0%" y1="100%" x2="100%" y2="0%" id="linearGradient-1">
            <stop stop-color="#B0084D" offset="0%"></stop>
            <stop stop-color="#FF4F8B" offset="100%"></stop>
        </linearGradient>
    </defs>
    <g id="Icon-Architecture/48/Arch_AWS-App-Wizard_48" stroke="none" stroke-width="1" fill="none" fill-rule="evenodd">
        <g id="Icon-Architecture-BG/48/Management-Governance" fill="url(#linearGradient-1)">
            <rect id="Rectangle" x="0" y="0" width="64" height="64"></rect>
        </g>
        <path d="M45.703,18 L51.703,18 L51.703,12 L45.703,12 L45.703,18 Z M43.703,20 L53.703,20 L53.703,10 L43.703,10 L43.703,20 Z M40.703,36 L38.703,36 L38.703,38 L36.703,38 L36.703,40 L38.703,40 L38.703,42 L40.703,42 L40.703,40 L42.703,40 L42.703,38 L40.703,38 L40.703,36 Z M45.703,31 L51.703,31 L51.703,25 L45.703,25 L45.703,31 Z M43.703,33 L53.703,33 L53.703,23 L43.703,23 L43.703,33 Z M36.746,29.002 L39.278,26.471 L37.902,25.094 L35.37,27.626 L36.746,29.002 Z M35.332,30.417 L33.956,29.041 L12.828,50.168 L14.204,51.545 L35.332,30.417 Z M42.106,26.471 L14.204,54.373 L10,50.168 L37.902,22.266 L42.106,26.471 Z M49.703,46 L47.703,46 L47.703,49 L44.703,49 L44.703,51 L47.703,51 L47.703,54 L49.703,54 L49.703,51 L52.703,51 L52.703,49 L49.703,49 L49.703,46 Z M32.703,51 L40.703,51 L40.703,49 L32.703,49 L32.703,51 Z M32.703,18 L38.703,18 L38.703,12 L32.703,12 L32.703,18 Z M30.703,20 L40.703,20 L40.703,10 L30.703,10 L30.703,20 Z M18.703,16 L23.703,16 L23.703,14 L18.703,14 L18.703,16 Z M20.703,30 L22.703,30 L22.703,28 L24.703,28 L24.703,26 L22.703,26 L22.703,24 L20.703,24 L20.703,26 L18.703,26 L18.703,28 L20.703,28 L20.703,30 Z M10.703,16 L16.703,16 L16.703,14 L10.703,14 L10.703,16 Z" id="AWS-App-Wizard_Icon_48_Squid" fill="#FFFFFF"></path>
    </g>
</svg>