<?xml version="1.0" encoding="UTF-8"?>
<svg width="64px" height="64px" viewBox="0 0 64 64" version="1.1" xmlns="http://www.w3.org/2000/svg" xmlns:xlink="http://www.w3.org/1999/xlink">
    <title>Icon-Architecture/48/Arch_Application-Auto-Scaling_48</title>
    <defs>
        <linearGradient x1="0%" y1="100%" x2="100%" y2="0%" id="linearGradient-1">
            <stop stop-color="#B0084D" offset="0%"></stop>
            <stop stop-color="#FF4F8B" offset="100%"></stop>
        </linearGradient>
    </defs>
    <g id="Icon-Architecture/48/Arch_Application-Auto-Scaling_48" stroke="none" stroke-width="1" fill="none" fill-rule="evenodd">
        <g id="Rectangle" fill="url(#linearGradient-1)">
            <rect x="0" y="0" width="64" height="64"></rect>
        </g>
        <g id="Icon-Service/48/AWS-Application-Auto-Scaling_48" transform="translate(8.000000, 8.000000)" fill="#FFFFFF">
            <path d="M45.975,24.963 L38.403,24.96 L41.684,28.258 L40.266,29.668 L35.291,24.668 C34.904,24.278 34.904,23.648 35.291,23.258 L40.266,18.258 L41.684,19.668 L38.409,22.975 L45.975,22.975 L45.975,24.963 Z M12.684,23.257 C13.072,23.647 13.072,24.277 12.684,24.668 L7.709,29.668 L6.291,28.258 L9.566,24.966 L2,24.963 L2,22.975 L9.574,22.975 L6.291,19.669 L7.709,18.257 L12.684,23.257 Z M28.283,39.266 L29.693,40.684 L24.693,45.66 C24.498,45.854 24.243,45.951 23.988,45.951 C23.733,45.951 23.477,45.854 23.283,45.66 L18.283,40.684 L19.693,39.266 L22.988,42.542 L22.988,34.975 L24.988,34.976 L24.985,42.548 L28.283,39.266 Z M19.693,8.684 L18.283,7.266 L23.283,2.291 C23.671,1.903 24.304,1.903 24.693,2.291 L29.693,7.266 L28.283,8.684 L24.985,5.402 L24.988,12.975 L22.988,12.975 L22.988,5.409 L19.693,8.684 Z M28.988,19.144 C28.306,19.014 27.571,19.102 26.882,19.426 C26.265,19.717 25.766,20.215 25.476,20.83 C24.966,21.915 25.025,23.09 25.636,24.054 C26.347,25.173 27.716,25.748 28.988,25.5 L28.988,26.975 L25.689,26.975 C25.28,26.975 24.913,27.224 24.76,27.603 C24.609,27.983 24.703,28.416 24.998,28.698 C25.29,28.977 25.521,29.51 25.209,30.096 C25.084,30.33 24.919,30.505 24.743,30.588 C24.122,30.879 23.662,30.689 23.442,30.548 C23.08,30.32 22.866,29.929 22.866,29.503 C22.866,28.978 22.978,28.828 23.114,28.699 C23.41,28.417 23.503,27.983 23.352,27.604 C23.2,27.224 22.832,26.975 22.423,26.975 L18.988,26.975 L18.988,16.975 L28.988,16.975 L28.988,19.144 Z M29.988,14.975 L18.988,14.975 C18.533,14.975 17.046,15.115 17.046,16.916 L17.046,27.975 C17.046,28.527 17.494,28.975 18.046,28.975 L20.894,28.975 C20.871,29.165 20.866,29.343 20.866,29.503 C20.866,30.617 21.428,31.639 22.37,32.237 C22.899,32.573 23.492,32.742 24.098,32.742 C24.596,32.742 25.105,32.628 25.594,32.398 C26.167,32.128 26.645,31.656 26.975,31.035 C27.325,30.379 27.431,29.656 27.31,28.975 L29.988,28.975 C30.54,28.975 30.988,28.527 30.988,27.975 L30.988,23.862 C30.988,23.453 30.739,23.086 30.359,22.934 C29.982,22.782 29.546,22.876 29.264,23.172 C28.725,23.736 27.736,23.629 27.326,22.983 C27.185,22.762 26.995,22.301 27.286,21.682 C27.376,21.49 27.539,21.327 27.734,21.236 C28.299,20.971 28.871,21.058 29.264,21.47 C29.546,21.766 29.98,21.859 30.36,21.708 C30.739,21.556 30.988,21.188 30.988,20.779 L30.988,15.975 C30.988,15.423 30.54,14.975 29.988,14.975 L29.988,14.975 Z" id="AWS-Application-Auto-Scaling_48_Squid"></path>
        </g>
    </g>
</svg>