<?xml version="1.0" encoding="UTF-8"?>
<svg width="64px" height="64px" viewBox="0 0 64 64" version="1.1" xmlns="http://www.w3.org/2000/svg" xmlns:xlink="http://www.w3.org/1999/xlink">
    <title>Icon-Architecture/48/Arch_AWS-Systems-Manager-Incident-Manager_48</title>
    <defs>
        <linearGradient x1="0%" y1="100%" x2="100%" y2="0%" id="linearGradient-1">
            <stop stop-color="#B0084D" offset="0%"></stop>
            <stop stop-color="#FF4F8B" offset="100%"></stop>
        </linearGradient>
    </defs>
    <g id="Icon-Architecture/48/Arch_AWS-Systems-Manager-Incident-Manager_48" stroke="none" stroke-width="1" fill="none" fill-rule="evenodd">
        <g id="Rectangle" fill="url(#linearGradient-1)">
            <rect x="0" y="0" width="64" height="64"></rect>
        </g>
        <g id="Icon-Service/48/AWS-Systems-Manager-Incident-Manager_48" transform="translate(8.000000, 8.000000)" fill="#FFFFFF">
            <path d="M22.841,15.3743787 L21.78,13.6793787 C23.463,12.6263787 25.32,11.9473787 27.299,11.6633787 L27.584,13.6423787 C25.882,13.8873787 24.286,14.4703787 22.841,15.3743787 L22.841,15.3743787 Z M21.536,16.3163787 C18.863,18.5283787 17.245,21.7733787 17.099,25.2223787 L15.101,25.1373787 C15.272,21.1243787 17.153,17.3473787 20.261,14.7753787 L21.536,16.3163787 Z M22.809,22.8623787 C22.408,23.8583787 22.279,24.9513787 22.433,26.0213787 L20.452,26.3063787 C20.248,24.8873787 20.422,23.4383787 20.953,22.1163787 L22.809,22.8623787 Z M23.381,21.7683787 L21.711,20.6673787 C22.992,18.7233787 25.048,17.4173787 27.353,17.0853787 L27.638,19.0653787 C25.9,19.3153787 24.348,20.3003787 23.381,21.7683787 L23.381,21.7683787 Z M23,30.9943787 L8.956,30.9943787 C7.782,30.9943787 6.928,30.5503787 6.314,30.1633787 C4.704,29.1523787 2,26.7853787 2,22.3013787 C2,16.9853787 5.541,14.9533787 7.727,14.2053787 L7.695,13.6773787 C7.694,9.20737865 10.668,4.63637865 14.613,2.98637865 C19.22,1.04437865 24.106,2.00437865 27.678,5.56237865 C28.724,6.60137865 29.594,7.85337865 30.275,9.29837865 C31.691,8.24537865 33.548,7.91137865 35.275,8.48237865 C37.521,9.22437865 38.934,11.2553787 39.147,13.9873787 C41.461,14.5713787 45.971,16.4703787 45.971,22.3703787 L45.972,22.6713787 C45.9743852,23.1223787 45.977,23.8633787 45.97,24.0193787 L43.972,23.9313787 C43.979,23.7853787 43.974,23.0993787 43.972,22.6813787 L43.971,22.3703787 C43.971,17.3543787 39.787,16.0933787 37.987,15.7833787 C37.718,15.7373787 37.479,15.5823787 37.326,15.3543787 C37.181,15.1363787 37.126,14.8713787 37.174,14.6153787 C37.146,12.4433787 36.229,10.9033787 34.647,10.3813787 C33.218,9.90937865 31.637,10.4173787 30.722,11.6513787 C30.503,11.9473787 30.134,12.0983787 29.773,12.0453787 C29.407,11.9913787 29.103,11.7403787 28.978,11.3933787 C28.342,9.62037865 27.43,8.13537865 26.267,6.98037865 C24.838,5.55637865 20.917,2.49737865 15.388,4.83037865 C12.194,6.16637865 9.694,10.0253787 9.694,13.6173787 L9.771,14.8773787 C9.8,15.3573787 9.484,15.7893787 9.017,15.9073787 C7.144,16.3793787 4,17.8383787 4,22.3013787 C4,25.6463787 5.838,27.5023787 7.379,28.4703787 C7.978,28.8483787 8.419,28.9943787 8.956,28.9943787 L23,28.9943787 L23,30.9943787 Z M35.767,42.7793787 L37.767,42.7793787 C37.767,44.5413787 36.333,45.9753787 34.57,45.9753787 C32.808,45.9753787 31.374,44.5413787 31.374,42.7793787 L33.374,42.7793787 C33.374,43.4383787 33.911,43.9753787 34.57,43.9753787 C35.23,43.9753787 35.767,43.4383787 35.767,42.7793787 L35.767,42.7793787 Z M44,38.7733787 C44,39.4463787 43.452,39.9943787 42.779,39.9943787 L26.221,39.9943787 C25.548,39.9943787 25,39.4463787 25,38.7733787 L25,38.2153787 C25,37.5423787 25.548,36.9943787 26.221,36.9943787 L42.779,36.9943787 C43.452,36.9943787 44,37.5423787 44,38.2153787 L44,38.7733787 Z M32.021,22.9303787 C32.457,22.8123787 32.761,22.4163787 32.761,21.9643787 L32.761,19.8793787 C32.761,19.5333787 32.961,19.2033787 33.311,18.9763787 C34.017,18.5173787 34.642,18.7303787 34.952,18.8983787 C35.447,19.1663787 35.715,19.6123787 35.715,19.8953787 L35.715,21.7633787 C35.715,22.2303787 36.038,22.6353787 36.493,22.7383787 C39.274,23.3703787 41,25.8763787 41,29.2803787 L41,34.9943787 L28,34.9943787 L28,29.1553787 C28,25.9363787 29.503,23.6083787 32.021,22.9303787 L32.021,22.9303787 Z M43,35.0173787 L43,29.2803787 C43,25.2053787 40.996,22.1083787 37.715,21.0063787 L37.715,19.8953787 C37.715,18.8183787 37.005,17.7363787 35.906,17.1403787 C34.732,16.5033787 33.352,16.5623787 32.22,17.2993787 C31.307,17.8943787 30.761,18.8583787 30.761,19.8793787 L30.761,21.2393787 C27.764,22.3833787 26,25.2853787 26,29.1553787 L26,35.0173787 C24.328,35.1323787 23,36.5153787 23,38.2153787 L23,38.7733787 C23,40.5493787 24.445,41.9943787 26.221,41.9943787 L42.779,41.9943787 C44.556,41.9943787 46,40.5493787 46,38.7733787 L46,38.2153787 C46,36.5153787 44.672,35.1323787 43,35.0173787 L43,35.0173787 Z" id="Fill-3"></path>
        </g>
    </g>
</svg>