<?xml version="1.0" encoding="UTF-8"?>
<svg width="64px" height="64px" viewBox="0 0 64 64" version="1.1" xmlns="http://www.w3.org/2000/svg" xmlns:xlink="http://www.w3.org/1999/xlink">
    <!-- Generator: Sketch 64 (93537) - https://sketch.com -->
    <title>Icon-Architecture/48/Arch_AWS-Well-Architect-Tool_48</title>
    <desc>Created with Sketch.</desc>
    <defs>
        <linearGradient x1="0%" y1="100%" x2="100%" y2="0%" id="linearGradient-1">
            <stop stop-color="#B0084D" offset="0%"></stop>
            <stop stop-color="#FF4F8B" offset="100%"></stop>
        </linearGradient>
    </defs>
    <g id="Icon-Architecture/48/Arch_AWS-Well-Architect-Tool_48" stroke="none" stroke-width="1" fill="none" fill-rule="evenodd">
        <g id="Icon-Architecture-BG/48/Management-Governance" fill="url(#linearGradient-1)">
            <rect id="Rectangle" x="0" y="0" width="64" height="64"></rect>
        </g>
        <path d="M16.5892228,12 L26.4112228,12 L30.3012228,19 L27.5002228,19 L24.8002228,15.4 C24.6112228,15.148 24.3152228,15 24.0002228,15 L19.0002228,15 C18.6862228,15 18.3892228,15.148 18.2002228,15.4 L15.5002228,19 L12.6992228,19 L16.5892228,12 Z M11.0002228,21 L16.0002228,21 C16.3152228,21 16.6112228,20.852 16.8002228,20.6 L19.5002228,17 L23.5002228,17 L26.2002228,20.6 C26.3892228,20.852 26.6862228,21 27.0002228,21 L32.0002228,21 C32.3552228,21 32.6832228,20.813 32.8622228,20.507 C33.0422228,20.202 33.0462228,19.824 32.8742228,19.514 L27.8742228,10.514 C27.6982228,10.197 27.3632228,10 27.0002228,10 L16.0002228,10 C15.6372228,10 15.3022228,10.197 15.1262228,10.514 L10.1262228,19.514 C9.95422277,19.824 9.95822277,20.202 10.1382228,20.507 C10.3182228,20.813 10.6462228,21 11.0002228,21 L11.0002228,21 Z M46.4452228,43 L37.5552228,43 L33.8052228,37 L37.4652228,37 L39.1682228,39.555 C39.3542228,39.833 39.6662228,40 40.0002228,40 L44.0002228,40 C44.3342228,40 44.6472228,39.833 44.8322228,39.555 L46.5352228,37 L50.1952228,37 L46.4452228,43 Z M52.0002228,35 L46.0002228,35 C45.6662228,35 45.3542228,35.167 45.1682228,35.445 L43.4652228,38 L40.5352228,38 L38.8322228,35.445 C38.6472228,35.167 38.3342228,35 38.0002228,35 L32.0002228,35 C31.6372228,35 31.3022228,35.197 31.1252228,35.515 C30.9492228,35.833 30.9592228,36.222 31.1522228,36.53 L36.1522228,44.53 C36.3352228,44.822 36.6552228,45 37.0002228,45 L47.0002228,45 C47.3452228,45 47.6652228,44.822 47.8482228,44.53 L52.8482228,36.53 C53.0412228,36.222 53.0512228,35.833 52.8752228,35.515 C52.6982228,35.197 52.3632228,35 52.0002228,35 L52.0002228,35 Z M26.4112228,53 L16.5892228,53 L12.1442228,45 L16.5892228,37 L26.4112228,37 L30.8572228,45 L26.4112228,53 Z M27.8742228,35.514 C27.6982228,35.197 27.3632228,35 27.0002228,35 L16.0002228,35 C15.6372228,35 15.3022228,35.197 15.1262228,35.514 L10.1262228,44.514 C9.95822277,44.816 9.95822277,45.184 10.1262228,45.486 L15.1262228,54.486 C15.3022228,54.803 15.6372228,55 16.0002228,55 L27.0002228,55 C27.3632228,55 27.6982228,54.803 27.8742228,54.486 L32.8742228,45.486 C33.0422228,45.184 33.0422228,44.816 32.8742228,44.514 L27.8742228,35.514 Z M27.0182228,30.085 L25.2592228,27.155 L27.4142228,25 L30.1952228,25 L27.0182228,30.085 Z M22.0262228,31 L19.9642228,28 L23.4342228,28 L25.2342228,31 L22.0262228,31 Z M16.5552228,31 L12.8052228,25 L15.4742228,25 L19.5992228,31 L16.5552228,31 Z M32.8752228,23.515 C32.6982228,23.197 32.3632228,23 32.0002228,23 L27.0002228,23 C26.7352228,23 26.4812228,23.105 26.2932228,23.293 L23.5862228,26 L18.5892228,26 L16.8242228,23.434 C16.6382228,23.162 16.3292228,23 16.0002228,23 L11.0002228,23 C10.6372228,23 10.3022228,23.197 10.1252228,23.515 C9.94922277,23.833 9.95922277,24.222 10.1522228,24.53 L15.1522228,32.53 C15.3352228,32.822 15.6552228,33 16.0002228,33 L26.9982228,33 L27.0002228,33 C27.3452228,33 27.6652228,32.823 27.8482228,32.53 L32.8482228,24.53 C33.0412228,24.222 33.0512228,23.833 32.8752228,23.515 L32.8752228,23.515 Z M23.4342228,49 L19.5672228,49 L17.1662228,45 L19.5672228,41 L23.4342228,41 L25.8342228,45 L23.4342228,49 Z M24.0002228,39 L19.0002228,39 C18.6492228,39 18.3232228,39.184 18.1432228,39.485 L15.1432228,44.485 C14.9522228,44.802 14.9522228,45.198 15.1432228,45.515 L18.1432228,50.515 C18.3232228,50.816 18.6492228,51 19.0002228,51 L24.0002228,51 C24.3522228,51 24.6772228,50.816 24.8582228,50.515 L27.8582228,45.515 C28.0482228,45.198 28.0482228,44.802 27.8582228,44.485 L24.8582228,39.485 C24.6772228,39.184 24.3522228,39 24.0002228,39 L24.0002228,39 Z M37.5552228,25 L46.4452228,25 L50.1952228,31 L46.5352228,31 L44.8322228,28.445 C44.6472228,28.167 44.3342228,28 44.0002228,28 L40.0002228,28 C39.6662228,28 39.3542228,28.167 39.1682228,28.445 L37.4652228,31 L33.8052228,31 L37.5552228,25 Z M31.1252228,32.485 C31.3022228,32.803 31.6372228,33 32.0002228,33 L38.0002228,33 C38.3342228,33 38.6472228,32.833 38.8322228,32.555 L40.5352228,30 L43.4652228,30 L45.1682228,32.555 C45.3542228,32.833 45.6662228,33 46.0002228,33 L52.0002228,33 C52.3632228,33 52.6982228,32.803 52.8752228,32.485 C53.0512228,32.167 53.0412228,31.778 52.8482228,31.47 L47.8482228,23.47 C47.6652228,23.178 47.3452228,23 47.0002228,23 L37.0002228,23 C36.6552228,23 36.3352228,23.178 36.1522228,23.47 L31.1522228,31.47 C30.9592228,31.778 30.9492228,32.167 31.1252228,32.485 L31.1252228,32.485 Z" id="AWS-Well-Architect-Tool_Icon_48_Squid" fill="#FFFFFF"></path>
    </g>
</svg>