<?xml version="1.0" encoding="UTF-8"?>
<svg width="64px" height="64px" viewBox="0 0 64 64" version="1.1" xmlns="http://www.w3.org/2000/svg" xmlns:xlink="http://www.w3.org/1999/xlink">
    <!-- Generator: Sketch 64 (93537) - https://sketch.com -->
    <title>Icon-Architecture/48/Arch_AWS-Device-Farm_48</title>
    <desc>Created with Sketch.</desc>
    <defs>
        <linearGradient x1="0%" y1="100%" x2="100%" y2="0%" id="linearGradient-1">
            <stop stop-color="#BD0816" offset="0%"></stop>
            <stop stop-color="#FF5252" offset="100%"></stop>
        </linearGradient>
    </defs>
    <g id="Icon-Architecture/48/Arch_AWS-Device-Farm_48" stroke="none" stroke-width="1" fill="none" fill-rule="evenodd">
        <g id="Icon-Architecture-BG/48/Mobile" fill="url(#linearGradient-1)">
            <rect id="Rectangle" x="0" y="0" width="64" height="64"></rect>
        </g>
        <path d="M39.036,40.6674943 L40.046,42.3973226 L36.859,44.2674613 L35.849,42.5376331 L39.036,40.6674943 Z M24.638,40.6404344 L27.853,42.4614645 L26.869,44.206326 L23.653,42.3852959 L24.638,40.6404344 Z M39.036,22.9783471 L35.849,21.1072062 L36.859,19.3783802 L40.046,21.2485189 L39.036,22.9783471 Z M24.638,23.0044048 L23.653,21.2595433 L26.869,19.4395155 L27.853,21.184377 L24.638,23.0044048 Z M43,33.0025313 L45,33.0025313 L45,30.0530038 L43,30.0530038 L43,33.0025313 Z M19,33.0025313 L21,33.0025313 L21,30.0530038 L19,30.0530038 L19,33.0025313 Z M49,41.9222712 L32.022,51.8382158 L15,41.9222712 L15,22.0773532 L32.022,12.1624108 L49,22.0773532 L49,41.9222712 Z M50.504,20.6351615 L32.527,10.1369283 C32.215,9.95452462 31.831,9.95452462 31.52,10.1359261 L13.497,20.6341593 C13.189,20.8135563 13,21.1442883 13,21.5010779 L13,42.4985466 C13,42.8563384 13.189,43.1860681 13.497,43.3654651 L31.52,53.8636984 C31.677,53.9549002 31.849,54 32.023,54 C32.197,54 32.371,53.953898 32.527,53.8636984 L50.504,43.3644629 C50.81,43.1850659 51,42.8553362 51,42.4985466 L51,21.5010779 C51,21.1442883 50.81,20.8145586 50.504,20.6351615 L50.504,20.6351615 Z M19.75,40.1844253 C19.063,40.1844253 18.505,39.6251876 18.505,38.9366639 C18.505,38.2491424 19.063,37.6899047 19.75,37.6899047 C20.435,37.6899047 20.994,38.2491424 20.994,38.9366639 C20.994,39.6251876 20.435,40.1844253 19.75,40.1844253 L19.75,40.1844253 Z M19.75,35.6854688 C17.961,35.6854688 16.505,37.1436959 16.505,38.9366639 C16.505,40.7296318 17.961,42.1888612 19.75,42.1888612 C21.539,42.1888612 22.994,40.7296318 22.994,38.9366639 C22.994,37.1436959 21.539,35.6854688 19.75,35.6854688 L19.75,35.6854688 Z M44.124,40.1844253 C43.437,40.1844253 42.879,39.6251876 42.879,38.9366639 C42.879,38.2491424 43.437,37.6899047 44.124,37.6899047 C44.81,37.6899047 45.369,38.2491424 45.369,38.9366639 C45.369,39.6251876 44.81,40.1844253 44.124,40.1844253 L44.124,40.1844253 Z M44.124,35.6854688 C42.335,35.6854688 40.879,37.1436959 40.879,38.9366639 C40.879,40.7296318 42.335,42.1888612 44.124,42.1888612 C45.913,42.1888612 47.369,40.7296318 47.369,38.9366639 C47.369,37.1436959 45.913,35.6854688 44.124,35.6854688 L44.124,35.6854688 Z M33.182,17.7798425 C33.182,18.4683663 32.623,19.0276039 31.936,19.0276039 C31.251,19.0276039 30.692,18.4683663 30.692,17.7798425 C30.692,17.092321 31.251,16.5320812 31.936,16.5320812 C32.623,16.5320812 33.182,17.092321 33.182,17.7798425 L33.182,17.7798425 Z M28.692,17.7798425 C28.692,19.5738127 30.147,21.0320398 31.936,21.0320398 C33.725,21.0320398 35.182,19.5738127 35.182,17.7798425 C35.182,15.9868746 33.725,14.5276452 31.936,14.5276452 C30.147,14.5276452 28.692,15.9868746 28.692,17.7798425 L28.692,17.7798425 Z M44.124,23.5856912 C44.81,23.5856912 45.369,24.1449289 45.369,24.8334526 C45.369,25.5209741 44.81,26.0802118 44.124,26.0802118 C43.437,26.0802118 42.879,25.5209741 42.879,24.8334526 C42.879,24.1449289 43.437,23.5856912 44.124,23.5856912 L44.124,23.5856912 Z M31.936,33.1588773 C31.251,33.1588773 30.692,32.5996397 30.692,31.9121181 C30.692,31.2235944 31.251,30.6643568 31.936,30.6643568 C32.623,30.6643568 33.182,31.2235944 33.182,31.9121181 C33.182,32.5996397 32.623,33.1588773 31.936,33.1588773 L31.936,33.1588773 Z M31.936,47.2350287 C31.251,47.2350287 30.692,46.6757911 30.692,45.9882695 C30.692,45.2997458 31.251,44.7395059 31.936,44.7395059 C32.623,44.7395059 33.182,45.2997458 33.182,45.9882695 C33.182,46.6757911 32.623,47.2350287 31.936,47.2350287 L31.936,47.2350287 Z M19.75,26.0802118 C19.063,26.0802118 18.505,25.5209741 18.505,24.8334526 C18.505,24.1449289 19.063,23.5856912 19.75,23.5856912 C20.435,23.5856912 20.994,24.1449289 20.994,24.8334526 C20.994,25.5209741 20.435,26.0802118 19.75,26.0802118 L19.75,26.0802118 Z M33.981,29.4075754 C33.421,28.9475574 32.715,28.6599208 31.936,28.6599208 C31.117,28.6599208 30.378,28.9756195 29.807,29.4787329 L22.929,25.4798832 C22.971,25.2714219 22.994,25.0549428 22.994,24.8334526 C22.994,23.0404847 21.539,21.5812553 19.75,21.5812553 C17.961,21.5812553 16.505,23.0404847 16.505,24.8334526 C16.505,26.6264206 17.961,28.0846477 19.75,28.0846477 C20.595,28.0846477 21.358,27.7519113 21.935,27.2197336 L28.777,31.1975367 C28.724,31.4280469 28.692,31.6655725 28.692,31.9121181 C28.692,33.3843763 29.681,34.6181067 31.023,35.0159872 L31.023,42.882396 C29.681,43.2812788 28.692,44.5140069 28.692,45.9882695 C28.692,47.7812375 30.147,49.2394646 31.936,49.2394646 C33.725,49.2394646 35.182,47.7812375 35.182,45.9882695 C35.182,44.5781489 34.277,43.3875139 33.023,42.937518 L33.023,34.9618674 C34.277,34.5118716 35.182,33.3212366 35.182,31.9121181 C35.182,31.6274882 35.134,31.3568894 35.065,31.0943083 L41.857,27.1545894 C42.443,27.7278581 43.242,28.0846477 44.124,28.0846477 C45.913,28.0846477 47.369,26.6264206 47.369,24.8334526 C47.369,23.0404847 45.913,21.5812553 44.124,21.5812553 C42.335,21.5812553 40.879,23.0404847 40.879,24.8334526 C40.879,25.0188629 40.903,25.1972577 40.933,25.3746503 L33.981,29.4075754 Z" id="AWS-Device-Farm_Icon_48_Squid" fill="#FFFFFF"></path>
    </g>
</svg>