<?xml version="1.0" encoding="UTF-8"?>
<svg width="64px" height="64px" viewBox="0 0 64 64" version="1.1" xmlns="http://www.w3.org/2000/svg" xmlns:xlink="http://www.w3.org/1999/xlink">
    <!-- Generator: Sketch 64 (93537) - https://sketch.com -->
    <title>Icon-Architecture/48/Arch_AWS-Amplify-Console_48</title>
    <desc>Created with Sketch.</desc>
    <defs>
        <linearGradient x1="0%" y1="100%" x2="100%" y2="0%" id="linearGradient-1">
            <stop stop-color="#BD0816" offset="0%"></stop>
            <stop stop-color="#FF5252" offset="100%"></stop>
        </linearGradient>
    </defs>
    <g id="Icon-Architecture/48/Arch_AWS-Amplify-Console_48" stroke="none" stroke-width="1" fill="none" fill-rule="evenodd">
        <g id="Icon-Architecture-BG/48/Mobile" fill="url(#linearGradient-1)">
            <rect id="Rectangle" x="0" y="0" width="64" height="64"></rect>
        </g>
        <path d="M46.6366246,47.677 L32.3326246,17 L36.1266246,17 L50.4306246,47.677 L46.6366246,47.677 Z M52.9066246,48.255 L37.6696246,15.577 C37.5056246,15.225 37.1526246,15 36.7636246,15 L30.7636246,15 C30.4216246,15 30.1036246,15.174 29.9196246,15.463 C29.7366246,15.751 29.7126246,16.113 29.8576246,16.422 L45.0936246,49.099 C45.2576246,49.452 45.6116246,49.677 45.9996246,49.677 L51.9996246,49.677 C52.3416246,49.677 52.6596246,49.503 52.8436246,49.214 C53.0276246,48.926 53.0506246,48.564 52.9066246,48.255 L52.9066246,48.255 Z M36.6296246,47.677 L26.0936246,25.647 L28.4186246,21.801 L40.4336246,47.677 L36.6296246,47.677 Z M29.4426246,19.255 C29.2856246,18.92 28.9586246,18.698 28.5896246,18.677 C28.1896246,18.652 27.8696246,18.843 27.6796246,19.158 L24.1036246,25.073 C23.9286246,25.362 23.9106246,25.719 24.0566246,26.023 L35.0976246,49.109 C35.2636246,49.456 35.6156246,49.677 35.9996246,49.677 L41.9996246,49.677 C42.3416246,49.677 42.6586246,49.503 42.8426246,49.215 C43.0266246,48.927 43.0506246,48.566 42.9076246,48.256 L29.4426246,19.255 Z M12.7736246,47.677 L22.4116246,31.737 L24.0306246,34.973 L19.2486246,43.075 C19.0666246,43.384 19.0636246,43.767 19.2416246,44.079 C19.4196246,44.391 19.7506246,44.583 20.1106246,44.583 L28.8146246,44.583 L30.3746246,47.677 L12.7736246,47.677 Z M30.3226246,43.133 C30.1526246,42.796 29.8076246,42.583 29.4296246,42.583 L21.8616246,42.583 L26.0296246,35.521 C26.2006246,35.229 26.2136246,34.869 26.0626246,34.566 L23.3896246,29.219 C23.2266246,28.893 22.8996246,28.682 22.5346246,28.667 C22.1756246,28.644 21.8276246,28.837 21.6396246,29.149 L10.1446246,48.159 C9.95762465,48.469 9.95162465,48.854 10.1286246,49.168 C10.3066246,49.483 10.6386246,49.677 10.9996246,49.677 L31.9996246,49.677 C32.3476246,49.677 32.6696246,49.497 32.8516246,49.201 C33.0326246,48.906 33.0486246,48.536 32.8926246,48.226 L30.3226246,43.133 Z" id="AWS-Amplify-Console_Icon_48_Squid" fill="#FFFFFF"></path>
    </g>
</svg>