<svg xmlns="http://www.w3.org/2000/svg" width="24px" height="24px" viewBox="0 0 24 24"><defs><style>.cls-1{fill:#669df6;}.cls-2{fill:#4285f4;}.cls-3{fill:#aecbfa;}</style></defs><title>Icon_24px_Functions_Color</title><g data-name="Product Icons"><g data-name="colored-32/functions"><g ><polygon class="cls-1" points="2 15.56 5 18 5 6 2 8.43 2 15.56"/><polygon class="cls-2" points="2 10 5 8 5 6 2 10"/><polygon class="cls-2" points="5 18 5 16 2 14 5 18"/><polygon class="cls-3" points="8 20 2 14 2 18 6 22 8 20"/></g></g><polygon class="cls-3" points="5.99 2.01 2 6 2.01 10 7.99 4.01 5.99 2.01"/><g data-name="colored-32/functions"><g data-name="Shape"><polygon class="cls-1" points="22 8.45 19 6.01 19 18.01 22 15.59 22 8.45"/><polygon class="cls-2" points="22 14.01 19 16.01 19 18.01 22 14.01"/><polygon class="cls-2" points="19 6.01 19 8.01 22 10.01 19 6.01"/><polygon class="cls-3" points="16 4.01 22 10.01 22 6.01 18 2.01 16 4.01"/></g></g><polygon class="cls-3" points="18.01 22 22 18.01 21.99 14.01 16.01 20 18.01 22"/><circle id="Oval" class="cls-3" cx="8" cy="12" r="1"/><circle id="Oval-2" data-name="Oval" class="cls-3" cx="12" cy="12" r="1"/><circle id="Oval-3" data-name="Oval" class="cls-3" cx="15.99" cy="12" r="1"/></g></svg>