<svg id="af189b19-13e4-4905-af1b-f05e22230012" xmlns="http://www.w3.org/2000/svg" width="18" height="18" viewBox="0 0 100 100"><defs><linearGradient id="e3344512-11a0-4dfd-b3f7-44857e080202" x1="4.969" y1="45.222" x2="79.875" y2="45.222" gradientTransform="matrix(1, 0, 0, -1, 0, 102)" gradientUnits="userSpaceOnUse"><stop offset="0" stop-color="#005ba1" /><stop offset="0.07" stop-color="#0060a9" /><stop offset="0.36" stop-color="#0071c8" /><stop offset="0.52" stop-color="#0078d4" /><stop offset="0.64" stop-color="#0074cd" /><stop offset="0.82" stop-color="#006abb" /><stop offset="1" stop-color="#005ba1" /></linearGradient></defs><g><path d="M42.425,27.445c-20.686,0-37.456-5.843-37.456-13.557V86.112c0,7.421,16.478,13.439,36.93,13.556h.526c20.681,0,37.45-5.843,37.45-13.556V13.888C79.875,21.426,63.106,27.445,42.425,27.445Z" fill="url(#e3344512-11a0-4dfd-b3f7-44857e080202)" /><path d="M79.875,13.888c0,7.538-16.769,13.557-37.45,13.557S4.965,21.6,4.965,13.888,21.735.332,42.425.332,79.875,6.175,79.875,13.888Z" fill="#e8e8e8" /><path d="M71.17,12.777c0,4.793-12.914,8.649-28.749,8.649S13.672,17.57,13.672,12.777,26.586,4.188,42.421,4.188,71.17,8.045,71.17,12.777Z" fill="#50e6ff" /><path d="M42.425,14.752A73.46,73.46,0,0,0,19.7,18.083c4.985,1.839,15.164,3.645,22.866,3.376A65.267,65.267,0,0,0,65.3,18.008,76.58,76.58,0,0,0,42.425,14.752Z" fill="#198ab3" /><path d="M72.89,96.218A19.635,19.635,0,1,0,53.255,76.583,19.635,19.635,0,0,0,72.89,96.218Z" fill="#fff" /><path d="M72.421,59.928A16.65,16.65,0,1,1,66.047,61.2,16.656,16.656,0,0,1,72.421,59.928Zm0-5.96A22.64,22.64,0,1,0,88.4,60.6,22.609,22.609,0,0,0,72.421,53.968Z" fill="#003067" /><path d="M61.953,81.844a2.689,2.689,0,0,0,2.682,2.669h.018l8.991-.078V78.782h-5.8V68.369l-3.3.02a2.681,2.681,0,0,0-2.473,1.676,2.7,2.7,0,0,0-.2,1.031l.027,3.97H58.334v2.662h3.583Z" fill="#76bc2d" /><path d="M83.513,70.954a2.689,2.689,0,0,0-2.682-2.669h-.018L72,68.359v6.272h5.8v9.8l3.121-.02a2.683,2.683,0,0,0,2.669-2.7l-.027-3.974h3.571V75.066H83.546Z" fill="#76bc2d" /></g>​
</svg>