<svg id="eaa44e3d-16b6-4034-8ab3-28e7277dbd71" xmlns="http://www.w3.org/2000/svg" width="18" height="18" viewBox="0 0 18 18"><defs><linearGradient id="bf00b8fe-272d-44e3-922e-e394f4035f83" x1="9" y1="12.46" x2="9" y2="1.18" gradientUnits="userSpaceOnUse"><stop offset="0" stop-color="#0078d4" /><stop offset="0.82" stop-color="#5ea0ef" /></linearGradient><linearGradient id="b2b35db0-3208-44e0-aaf4-68cf95a2719b" x1="9" y1="16.82" x2="9" y2="12.46" gradientUnits="userSpaceOnUse"><stop offset="0.15" stop-color="#ccc" /><stop offset="1" stop-color="#707070" /></linearGradient><radialGradient id="f2829e12-820e-4175-930d-324517daee42" cx="9.43" cy="7.03" r="7.27" gradientUnits="userSpaceOnUse"><stop offset="0" stop-color="#f2f2f2" /><stop offset="0.58" stop-color="#eee" /><stop offset="1" stop-color="#e6e6e6" /></radialGradient></defs><title>Icon-databases-124</title><g><g><rect x="0.54" y="1.18" width="16.91" height="11.27" rx="0.56" fill="url(#bf00b8fe-272d-44e3-922e-e394f4035f83)" /><path d="M12.39,15.87c-1.67-.26-1.74-1.47-1.73-3.41H7.34c0,1.94-.06,3.15-1.73,3.41a1,1,0,0,0-.84,1h8.46A1,1,0,0,0,12.39,15.87Z" fill="url(#b2b35db0-3208-44e0-aaf4-68cf95a2719b)" /></g><path d="M13.07,7.89V4.41h-1V8.66h2.53V7.89ZM5.73,6.17a2,2,0,0,1-.52-.31.45.45,0,0,1-.13-.34.36.36,0,0,1,.16-.31.69.69,0,0,1,.43-.11,1.66,1.66,0,0,1,1,.29V4.51a2.77,2.77,0,0,0-1-.17,1.73,1.73,0,0,0-1.13.35,1.12,1.12,0,0,0-.42.92A1.38,1.38,0,0,0,5,6.85a2.49,2.49,0,0,1,.63.37.41.41,0,0,1,.16.33.4.4,0,0,1-.16.32A.76.76,0,0,1,5.21,8a1.69,1.69,0,0,1-1.12-.44v1a2.27,2.27,0,0,0,1.1.24A2,2,0,0,0,6.4,8.41a1.12,1.12,0,0,0,.44-.94,1,1,0,0,0-.26-.72A2.54,2.54,0,0,0,5.73,6.17Zm5.34,1.64a2.4,2.4,0,0,0,.34-1.3,2.44,2.44,0,0,0-.26-1.13,1.85,1.85,0,0,0-.72-.77,2.05,2.05,0,0,0-1-.27,2.23,2.23,0,0,0-1.11.28,1.89,1.89,0,0,0-.76.8A2.47,2.47,0,0,0,7.25,6.6a2.44,2.44,0,0,0,.24,1.08,1.92,1.92,0,0,0,.71.76,2.06,2.06,0,0,0,1,.3l.88,1h1.24L10.11,8.58A1.78,1.78,0,0,0,11.07,7.81Zm-1-.26a.94.94,0,0,1-.78.36.92.92,0,0,1-.78-.37,1.55,1.55,0,0,1-.3-1,1.57,1.57,0,0,1,.3-1,1,1,0,0,1,.8-.37.9.9,0,0,1,.77.37,1.65,1.65,0,0,1,.28,1A1.5,1.5,0,0,1,10.11,7.55Z" fill="url(#f2829e12-820e-4175-930d-324517daee42)" /></g></svg>