<svg id="bdd6e15d-1a8a-482e-8d29-5037fed47de7" xmlns="http://www.w3.org/2000/svg" width="18" height="18" viewBox="0 0 18 18"><defs><linearGradient id="ad192933-7c41-4627-94b0-c2754cc3b3fb" x1="2.59" y1="10.16" x2="15.41" y2="10.16" gradientUnits="userSpaceOnUse"><stop offset="0" stop-color="#005ba1" /><stop offset="0.07" stop-color="#0060a9" /><stop offset="0.36" stop-color="#0071c8" /><stop offset="0.52" stop-color="#0078d4" /><stop offset="0.64" stop-color="#0074cd" /><stop offset="0.82" stop-color="#006abb" /><stop offset="1" stop-color="#005ba1" /></linearGradient></defs><title>Icon-databases-123</title><path d="M9,5.14c-3.54,0-6.41-1-6.41-2.32V15.18c0,1.27,2.82,2.3,6.32,2.32H9c3.54,0,6.41-1,6.41-2.32V2.82C15.41,4.11,12.54,5.14,9,5.14Z" fill="url(#ad192933-7c41-4627-94b0-c2754cc3b3fb)" /><path d="M15.41,2.82c0,1.29-2.87,2.32-6.41,2.32s-6.41-1-6.41-2.32S5.46.5,9,.5s6.41,1,6.41,2.32" fill="#e8e8e8" /><path d="M13.92,2.63c0,.82-2.21,1.48-4.92,1.48S4.08,3.45,4.08,2.63,6.29,1.16,9,1.16s4.92.66,4.92,1.47" fill="#50e6ff" /><path d="M9,3a11.55,11.55,0,0,0-3.89.57A11.42,11.42,0,0,0,9,4.11a11.15,11.15,0,0,0,3.89-.58A11.84,11.84,0,0,0,9,3Z" fill="#198ab3" /><path d="M14.25,6.32c-.33,0,.06.25-1.11.3S11.56,7.87,10.8,8.88a4.93,4.93,0,0,1-3,1.41,3.67,3.67,0,0,0-1.88,1.39.92.92,0,0,1-.71.52c-.27,0-.86.08-.86.08a3.36,3.36,0,0,0-.71.24c.08.33.74.19.74.19a5.25,5.25,0,0,1-.52.47,2.8,2.8,0,0,0,1,.05c.43,0,.76-.41,1.55-.84s2.61,0,2.9,0,.72-.76.82-1c.08.54-.82,2-.82,2a2.11,2.11,0,0,0,1.66-1c.08-.1.33-.62.36-.57s.16.19.21.17a1.88,1.88,0,0,0,.25-.27,7.58,7.58,0,0,0,1.14-2.48C13,9,13,8.13,13.6,7.77s.68-.69.68-.72V7a1.63,1.63,0,0,1-.39-.35.11.11,0,0,1,0-.11.77.77,0,0,0,.48.38h0S14.58,6.32,14.25,6.32ZM13,7.38h-.06a.36.36,0,0,1-.3-.08.48.48,0,0,1,.52-.3A.3.3,0,0,1,13,7.38Zm.56,0h0a2.81,2.81,0,0,1,.33-.58l0,0A3.12,3.12,0,0,0,13.54,7.42Zm.36-.51,0,0h0a1.81,1.81,0,0,0-.08.51h0a1.69,1.69,0,0,1,0-.38,1.4,1.4,0,0,0-.16.39h0A1.34,1.34,0,0,1,13.9,6.91Z" fill="#f2f2f2" /><path d="M12.21,11.52s-.49.46-.51.62.54.41.89.32A7.58,7.58,0,0,1,12.21,11.52Z" fill="#f2f2f2" /></svg>