<svg id="a5c93a83-9fd9-4ccb-ba77-53d6c609a7d3" xmlns="http://www.w3.org/2000/svg" width="18" height="18" viewBox="0 0 18 18"><defs><linearGradient id="acf2da4b-8aca-4b58-b995-ca6956cf663e" x1="5.41" y1="17.33" x2="5.41" y2="0.61" gradientUnits="userSpaceOnUse"><stop offset="0" stop-color="#949494" /><stop offset="0.53" stop-color="#a2a2a2" /><stop offset="1" stop-color="#b3b3b3" /></linearGradient><linearGradient id="b152b416-25c2-4a4a-9d7f-a0bb2a13f84a" x1="10.04" y1="17.39" x2="10.04" y2="6.82" gradientUnits="userSpaceOnUse"><stop offset="0" stop-color="#0078d4" /><stop offset="0.16" stop-color="#1380da" /><stop offset="0.53" stop-color="#3c91e5" /><stop offset="0.82" stop-color="#559cec" /><stop offset="1" stop-color="#5ea0ef" /></linearGradient></defs><title>Icon-databases-136</title><path d="M10.32,16.76a.58.58,0,0,1-.57.57H1.07a.57.57,0,0,1-.57-.57V1.18A.56.56,0,0,1,1.07.61H9.75a.57.57,0,0,1,.57.57Z" fill="url(#acf2da4b-8aca-4b58-b995-ca6956cf663e)" /><path d="M1.94,6.47A1.07,1.07,0,0,1,3,5.41H7.9A1.07,1.07,0,0,1,9,6.47H9A1.07,1.07,0,0,1,7.9,7.54H3A1.07,1.07,0,0,1,1.94,6.47Z" fill="#003067" /><path d="M1.94,3.31A1.07,1.07,0,0,1,3,2.24H7.9A1.07,1.07,0,0,1,9,3.31H9A1.07,1.07,0,0,1,7.9,4.37H3A1.07,1.07,0,0,1,1.94,3.31Z" fill="#003067" /><circle cx="3.06" cy="3.31" r="0.72" fill="#50e6ff" /><circle cx="3.06" cy="6.47" r="0.72" fill="#50e6ff" /><path d="M17.5,14.08a3.36,3.36,0,0,0-2.91-3.22,4.22,4.22,0,0,0-4.35-4A4.32,4.32,0,0,0,6.1,9.64a4,4,0,0,0-3.52,3.85,4.06,4.06,0,0,0,4.2,3.9l.37,0H14l.17,0A3.39,3.39,0,0,0,17.5,14.08Z" fill="url(#b152b416-25c2-4a4a-9d7f-a0bb2a13f84a)" /><path d="M13.61,14.45V11.09h-.93v4.12h2.45v-.76ZM6.51,12.8A2.23,2.23,0,0,1,6,12.49a.44.44,0,0,1-.12-.32.34.34,0,0,1,.15-.3.66.66,0,0,1,.42-.12,1.66,1.66,0,0,1,1,.29v-.86a2.89,2.89,0,0,0-1-.15,1.69,1.69,0,0,0-1.09.33,1.1,1.1,0,0,0-.41.89,1.34,1.34,0,0,0,.94,1.2,2.51,2.51,0,0,1,.61.36.42.42,0,0,1,.15.32.34.34,0,0,1-.15.3.75.75,0,0,1-.45.12,1.63,1.63,0,0,1-1.08-.42v.92A2.25,2.25,0,0,0,6,15.28,1.91,1.91,0,0,0,7.15,15a1.07,1.07,0,0,0,.43-.91,1,1,0,0,0-.25-.7A2.36,2.36,0,0,0,6.51,12.8Zm5.16,1.58A2.37,2.37,0,0,0,12,13.12,2.28,2.28,0,0,0,11.75,12a1.77,1.77,0,0,0-.69-.74A1.94,1.94,0,0,0,10,11,2.21,2.21,0,0,0,9,11.29a1.87,1.87,0,0,0-.73.77A2.52,2.52,0,0,0,8,13.2a2.26,2.26,0,0,0,.24,1.05,1.87,1.87,0,0,0,.68.74,2,2,0,0,0,1,.29l.85,1h1.2l-1.19-1.1A1.82,1.82,0,0,0,11.67,14.38Zm-.93-.25a.92.92,0,0,1-.76.35.91.91,0,0,1-.75-.36,1.5,1.5,0,0,1-.28-1,1.46,1.46,0,0,1,.29-1,.92.92,0,0,1,.77-.37.86.86,0,0,1,.74.37,1.54,1.54,0,0,1,.28,1A1.47,1.47,0,0,1,10.74,14.13Z" fill="#f2f2f2" /></svg>