<svg id="bfe7cacd-ee25-481f-8f5e-25c9c27c3227" xmlns="http://www.w3.org/2000/svg" width="18" height="18" viewBox="0 0 18 18"><defs><linearGradient id="a3e5dfd8-a5f0-49b4-8cf9-1d0f89138e2c" x1="-3071.86" y1="6711.69" x2="-3071.86" y2="6747.69" gradientTransform="matrix(0.35, 0.35, 0.35, -0.35, -1284.32, 3474.58)" gradientUnits="userSpaceOnUse"><stop offset="0" stop-color="#005ba1" /><stop offset="0.1" stop-color="#0060a9" /><stop offset="0.52" stop-color="#0071c8" /><stop offset="0.75" stop-color="#0078d4" /></linearGradient></defs><title>Icon-databases-134</title><rect x="2.46" y="2.46" width="13.08" height="13.08" rx="0.61" transform="translate(-3.73 9) rotate(-45)" fill="url(#a3e5dfd8-a5f0-49b4-8cf9-1d0f89138e2c)" /><path d="M9,3.41c-.95,0-1.71-.24-1.71-.55V5.77c0,.29.75.54,1.68.54H9c.94,0,1.71-.24,1.71-.54V2.86C10.72,3.17,10,3.41,9,3.41Z" fill="#50e6ff" /><path d="M10.72,2.86c0,.31-.77.55-1.71.55S7.3,3.17,7.3,2.86,8.06,2.32,9,2.32s1.71.24,1.71.54" fill="#eaeaea" /><path d="M10.32,2.82c0,.19-.59.35-1.31.35S7.7,3,7.7,2.82,8.28,2.47,9,2.47s1.31.16,1.31.35" fill="#50e6ff" /><path d="M9,2.9A3.57,3.57,0,0,0,8,3a3.52,3.52,0,0,0,1,.14,3.52,3.52,0,0,0,1-.14A3.62,3.62,0,0,0,9,2.9Z" fill="#32bedd" /><path d="M9,12.82c-.95,0-1.71-.24-1.71-.55v2.91c0,.29.75.54,1.68.54H9c.94,0,1.71-.24,1.71-.54V12.27C10.72,12.58,10,12.82,9,12.82Z" fill="#50e6ff" /><path d="M10.72,12.27c0,.31-.77.55-1.71.55s-1.71-.24-1.71-.55.76-.54,1.71-.54,1.71.24,1.71.54" fill="#eaeaea" /><path d="M10.32,12.23c0,.19-.59.35-1.31.35s-1.31-.16-1.31-.35.58-.35,1.31-.35,1.31.16,1.31.35" fill="#50e6ff" /><path d="M9,12.31a3.57,3.57,0,0,0-1,.13,3.52,3.52,0,0,0,1,.14,3.52,3.52,0,0,0,1-.14A3.62,3.62,0,0,0,9,12.31Z" fill="#32bedd" /><path d="M13.22,8.09c-1,0-1.71-.24-1.71-.54v2.9c0,.3.75.54,1.69.55h0c.94,0,1.71-.25,1.71-.55V7.55C14.93,7.85,14.16,8.09,13.22,8.09Z" fill="#50e6ff" /><path d="M14.93,7.55c0,.3-.77.54-1.71.54s-1.71-.24-1.71-.54S12.27,7,13.22,7s1.71.25,1.71.55" fill="#eaeaea" /><path d="M14.53,7.5c0,.2-.59.35-1.31.35s-1.31-.15-1.31-.35.58-.34,1.31-.34,1.31.15,1.31.34" fill="#50e6ff" /><path d="M13.22,7.58a3.52,3.52,0,0,0-1,.14,3.57,3.57,0,0,0,1,.13,3.57,3.57,0,0,0,1-.13A3.57,3.57,0,0,0,13.22,7.58Z" fill="#32bedd" /><path d="M4.92,8.09c-.95,0-1.71-.24-1.71-.54v2.9c0,.3.75.54,1.68.55h0c.94,0,1.71-.25,1.71-.55V7.55C6.63,7.85,5.86,8.09,4.92,8.09Z" fill="#50e6ff" /><path d="M6.63,7.55c0,.3-.77.54-1.71.54s-1.71-.24-1.71-.54S4,7,4.92,7s1.71.25,1.71.55" fill="#eaeaea" /><path d="M6.23,7.5c0,.2-.59.35-1.31.35S3.61,7.7,3.61,7.5s.58-.34,1.31-.34,1.31.15,1.31.34" fill="#50e6ff" /><path d="M4.92,7.58a3.52,3.52,0,0,0-1,.14,3.57,3.57,0,0,0,1,.13,3.57,3.57,0,0,0,1-.13A3.57,3.57,0,0,0,4.92,7.58Z" fill="#32bedd" /></svg>