<svg id="fc890127-728b-4ac0-b5da-86cdfc191e86" xmlns="http://www.w3.org/2000/svg" width="18" height="18" viewBox="0 0 18 18"><defs><linearGradient id="a28dee20-4c71-46b5-b957-804c67da725a" x1="2.44" y1="10.67" x2="15.27" y2="10.67" gradientTransform="translate(0.14 -0.5) rotate(-0.01)" gradientUnits="userSpaceOnUse"><stop offset="0" stop-color="#005ba1" /><stop offset="0.07" stop-color="#0060a9" /><stop offset="0.36" stop-color="#0071c8" /><stop offset="0.52" stop-color="#0078d4" /><stop offset="0.64" stop-color="#0074cd" /><stop offset="0.82" stop-color="#006abb" /><stop offset="1" stop-color="#005ba1" /></linearGradient></defs><title>Icon-databases-131</title><path d="M9,5.14c-3.54,0-6.41-1-6.41-2.32V15.18c0,1.27,2.82,2.3,6.32,2.32H9c3.54,0,6.41-1,6.41-2.32V2.82C15.41,4.1,12.54,5.14,9,5.14Z" fill="url(#a28dee20-4c71-46b5-b957-804c67da725a)" /><path d="M15.41,2.82c0,1.28-2.87,2.32-6.41,2.32s-6.41-1-6.41-2.32S5.46.5,9,.5s6.41,1,6.41,2.32" fill="#e8e8e8" /><path d="M13.91,2.63c0,.82-2.2,1.48-4.91,1.48S4.08,3.45,4.08,2.64,6.28,1.16,9,1.16s4.91.66,4.91,1.47" fill="#50e6ff" /><path d="M9,3a11.65,11.65,0,0,0-3.9.57A11.53,11.53,0,0,0,9,4.11a11.47,11.47,0,0,0,3.89-.58A11.93,11.93,0,0,0,9,3Z" fill="#198ab3" /><path d="M12,9c0,.08,0,.24,0,.42a5.12,5.12,0,0,0-.08.63c0,.12,0,.3.05.46s0,.27,0,.36a1.68,1.68,0,0,1-.25.86.43.43,0,0,0,0,.07l.1.12a10.55,10.55,0,0,0,1.06-2.38h0c.28-.95.31-1.63.09-1.92a2.58,2.58,0,0,0-2.68-.86,3.29,3.29,0,0,1,.91.67A2.28,2.28,0,0,1,12,9Zm-.31.08a1.15,1.15,0,0,0-.79.09c-.29.18-.2.55,0,1a7.77,7.77,0,0,0,.35.85l.09.16h0c.05.08.08.15.11.2l.08.13a1.28,1.28,0,0,0,.18-.65,2.86,2.86,0,0,0,0-.33c0-.17,0-.36-.05-.49a6.1,6.1,0,0,1,.08-.69C11.71,9.24,11.72,9.13,11.73,9.05Zm-.3.41a.4.4,0,0,1-.18.1h0a.33.33,0,0,1-.14,0A.23.23,0,0,1,11,9.4h0c0-.07.11-.13.24-.15h.19s.09,0,.09.08A.2.2,0,0,1,11.43,9.46Zm-4.69.89c0-.07,0-.13,0-.17a1,1,0,0,0,0-.17,5.55,5.55,0,0,1,0-1A5.22,5.22,0,0,1,7,7.94,2.41,2.41,0,0,1,7.58,7,4.78,4.78,0,0,0,6.23,6.8a1.87,1.87,0,0,0-1.1.3A2,2,0,0,0,4.5,8.92,12.27,12.27,0,0,0,5,11.16c.34,1.14.73,1.84,1.07,1.95h0c.15.05.31,0,.47-.21.28-.34.54-.63.69-.8A1.88,1.88,0,0,1,6.74,10.35Zm.26.4a2.18,2.18,0,0,0,.06.56,1.5,1.5,0,0,0,.26.44,1.07,1.07,0,0,0,.35.25,1.09,1.09,0,0,0,.39.08c0-.17.14-.38.23-.6a4.35,4.35,0,0,0,.21-.59,6.61,6.61,0,0,0,0-1.11c0-.09,0-.19-.06-.3a.45.45,0,0,0-.12-.27l0,0A.66.66,0,0,0,8,9.08H7.8a1.56,1.56,0,0,0-.48.14A2,2,0,0,0,7,9.41v.11c0,.2,0,.41,0,.61v0a.86.86,0,0,1,0,.15l0,.39H7Zm.66-1.34,0,0a.46.46,0,0,1,.28,0,.6.6,0,0,1,.19.06c.09,0,.1.11.09.14h0a.37.37,0,0,1-.12.13A.3.3,0,0,1,8,9.73h0a.34.34,0,0,1-.28-.28Zm.74,3a.23.23,0,0,0-.13.06l-.14.17c-.17.21-.24.28-.73.38a.52.52,0,0,0-.26.1.58.58,0,0,0,.24.11,1.18,1.18,0,0,0,.72,0A1.7,1.7,0,0,0,8.45,13a.61.61,0,0,0,.2-.31.36.36,0,0,0-.1-.28A.15.15,0,0,0,8.4,12.39Zm4.61,0a1.63,1.63,0,0,1-1.13,0,.22.22,0,0,0-.14,0,.3.3,0,0,0-.17.14,1.09,1.09,0,0,0,0,.31,1.8,1.8,0,0,0,1.1-.1,1.36,1.36,0,0,0,.48-.34Zm-2.4-2.14c-.14-.41-.34-1,.18-1.36a1.35,1.35,0,0,1,.89-.15A3.18,3.18,0,0,0,11,7.64l-.1-.1-.06-.06h0a.34.34,0,0,0-.06-.06l0,0,0,0A2.34,2.34,0,0,0,10.11,7,2.63,2.63,0,0,0,9,6.78a1.52,1.52,0,0,0-.7.11A1.77,1.77,0,0,0,8,7a2.1,2.1,0,0,0-.74,1,5.84,5.84,0,0,0-.21,1,1.66,1.66,0,0,1,1-.23.84.84,0,0,1,.77.91,7.26,7.26,0,0,1,0,1.27,3.87,3.87,0,0,1-.23.63c-.06.17-.14.35-.18.49a.5.5,0,0,1,.38.14.66.66,0,0,1,.19.53H9c0,.08,0,.16,0,.24a6.55,6.55,0,0,0,.24,2.44.54.54,0,0,0,.24.21.6.6,0,0,0,.31.1,1.3,1.3,0,0,0,1-.34,1.05,1.05,0,0,0,.29-.66c.07-.45.22-1.7.24-2h0a.72.72,0,0,1,.09-.44.63.63,0,0,1,.27-.24A5.36,5.36,0,0,1,10.61,10.24Z" fill="#f2f2f2" /></svg>