<svg id="a0bfe492-1579-433c-8ece-4b967fa03537" xmlns="http://www.w3.org/2000/svg" width="18" height="18" viewBox="0 0 18 18"><defs><linearGradient id="a277b8e4-bda7-42ff-a227-3f8bf005decb" x1="0.5" y1="9.96" x2="12.43" y2="9.96" gradientUnits="userSpaceOnUse"><stop offset="0" stop-color="#005ba1" /><stop offset="0.07" stop-color="#0060a9" /><stop offset="0.36" stop-color="#0071c8" /><stop offset="0.52" stop-color="#0078d4" /><stop offset="0.64" stop-color="#0074cd" /><stop offset="0.82" stop-color="#006abb" /><stop offset="1" stop-color="#005ba1" /></linearGradient><linearGradient id="ab2c3ec1-3cb9-4ca3-b673-1a1d1ffb5675" x1="11.77" y1="17.03" x2="11.77" y2="8.9" gradientUnits="userSpaceOnUse"><stop offset="0" stop-color="#198ab3" /><stop offset="0" stop-color="#198ab3" /><stop offset="0.11" stop-color="#22a5cb" /><stop offset="0.23" stop-color="#29bade" /><stop offset="0.37" stop-color="#2ec9eb" /><stop offset="0.53" stop-color="#31d1f3" /><stop offset="0.78" stop-color="#32d4f5" /></linearGradient></defs><title>Icon-databases-135</title><path d="M6.47,5.3c-3.3,0-6-1-6-2.16V14.63c0,1.18,2.63,2.15,5.88,2.16h.09c3.29,0,6-1,6-2.16V3.14C12.43,4.33,9.76,5.3,6.47,5.3Z" fill="url(#a277b8e4-bda7-42ff-a227-3f8bf005decb)" /><path d="M12.43,3.14c0,1.19-2.67,2.16-6,2.16s-6-1-6-2.16S3.17,1,6.47,1s6,1,6,2.17" fill="#eaeaea" /><path d="M11,3c0,.76-2,1.37-4.57,1.37S1.89,3.72,1.89,3,3.94,1.59,6.47,1.59,11,2.2,11,3" fill="#50e6ff" /><path d="M6.47,3.28a11,11,0,0,0-3.63.52,10.89,10.89,0,0,0,3.63.53,10.86,10.86,0,0,0,3.62-.53A11,11,0,0,0,6.47,3.28Z" fill="#198ab3" /><path d="M16.75,12.74A2.89,2.89,0,0,0,15.26,12a3.24,3.24,0,0,0-3.34-3.1,3.35,3.35,0,0,0-3.2,2.17A3.06,3.06,0,0,0,6,14a3.12,3.12,0,0,0,3.22,3l.29,0h5.23l.13,0a2.61,2.61,0,0,0,2.59-2.51,2.46,2.46,0,0,0-.75-1.74" fill="url(#ab2c3ec1-3cb9-4ca3-b673-1a1d1ffb5675)" /><path d="M14.3,15.8h-.94V13.27q0-.4,0-.9h0c0,.25-.1.44-.13.56l-1,2.87h-.78l-1-2.85a4.61,4.61,0,0,1-.13-.58h0c0,.41,0,.78,0,1.09V15.8H9.48V11.57h1.4l.86,2.51a3.29,3.29,0,0,1,.15.6h0c.05-.23.11-.44.16-.61l.87-2.5H14.3Z" fill="#fff" /></svg>