<svg id="e628f514-cf24-48e8-9bd9-b0847bc224d0" xmlns="http://www.w3.org/2000/svg" width="18" height="18" viewBox="0 0 18 18"><defs><linearGradient id="b01f2302-385e-4b49-a7e9-dac023c15293" x1="9" y1="11.84" x2="9" gradientUnits="userSpaceOnUse"><stop offset="0" stop-color="#0078d4" /><stop offset="0.16" stop-color="#1380da" /><stop offset="0.53" stop-color="#3c91e5" /><stop offset="0.82" stop-color="#559cec" /><stop offset="1" stop-color="#5ea0ef" /></linearGradient><linearGradient id="f7246c3f-62d1-41c6-a3d3-d69183d80ba0" x1="4.62" y1="13.54" x2="13.47" y2="13.54" gradientUnits="userSpaceOnUse"><stop offset="0" stop-color="#32bedd" /><stop offset="0.06" stop-color="#37c5e3" /><stop offset="0.3" stop-color="#49ddf7" /><stop offset="0.45" stop-color="#50e6ff" /><stop offset="0.55" stop-color="#50e6ff" /><stop offset="0.7" stop-color="#49ddf7" /><stop offset="0.94" stop-color="#37c5e3" /><stop offset="1" stop-color="#32bedd" /></linearGradient></defs><title>Icon-databases-133</title><path d="M17.35,8.13a3.74,3.74,0,0,0-3.25-3.6A4.74,4.74,0,0,0,9.22,0,4.87,4.87,0,0,0,4.58,3.16,4.48,4.48,0,0,0,.65,7.47a4.54,4.54,0,0,0,4.7,4.37h8a1.2,1.2,0,0,0,.2,0A3.81,3.81,0,0,0,17.35,8.13Z" fill="url(#b01f2302-385e-4b49-a7e9-dac023c15293)" /><path d="M9.05,10.49c-2.45,0-4.43-.63-4.43-1.41v7.51c0,.77,2,1.4,4.37,1.41h.06c2.44,0,4.42-.63,4.42-1.41V9.08C13.47,9.86,11.49,10.49,9.05,10.49Z" fill="url(#f7246c3f-62d1-41c6-a3d3-d69183d80ba0)" /><path d="M13.47,9.08c0,.78-2,1.41-4.42,1.41S4.62,9.86,4.62,9.08s2-1.41,4.43-1.41,4.42.63,4.42,1.41" fill="#e8e8e8" /><path d="M12.44,9c0,.49-1.52.9-3.39.9s-3.4-.41-3.4-.9,1.52-.9,3.4-.9,3.39.4,3.39.9" fill="#50e6ff" /><path d="M9.05,9.18a9.13,9.13,0,0,0-2.69.34,9,9,0,0,0,2.69.35,9.09,9.09,0,0,0,2.69-.35A9.23,9.23,0,0,0,9.05,9.18Z" fill="#32bedd" /><path d="M6.29,5,8.88,2.38a.3.3,0,0,1,.43,0L11.9,5a.13.13,0,0,1-.1.23H10.21a.14.14,0,0,0-.14.14V8.58a.1.1,0,0,1-.11.11H8.22a.11.11,0,0,1-.11-.11V5.34A.13.13,0,0,0,8,5.2H6.38A.13.13,0,0,1,6.29,5Z" fill="#f2f2f2" /></svg>