<svg id="b6c98345-0c39-4f6f-b933-5283deff5690" xmlns="http://www.w3.org/2000/svg" width="18" height="18" viewBox="0 0 18 18"><defs><linearGradient id="ea6f59fb-306a-4655-8ef5-c9678451765c" x1="1.3" y1="8.6" x2="17.5" y2="8.6" gradientUnits="userSpaceOnUse"><stop offset="0.1" stop-color="#54aef0" /><stop offset="1" stop-color="#1988d9" /></linearGradient><linearGradient id="a331b263-1cab-4091-811f-6e285c35c115" x1="0.5" y1="13.7" x2="8.11" y2="13.7" gradientTransform="translate(10.95 0.97) rotate(45)" gradientUnits="userSpaceOnUse"><stop offset="0" stop-color="#b3b2b3" /><stop offset="1" stop-color="#979797" /></linearGradient><linearGradient id="ef7d2642-0773-456f-ac58-3a1abd750919" x1="0.5" y1="10.08" x2="5.72" y2="10.08" gradientTransform="translate(8.04 0.75) rotate(45)" gradientUnits="userSpaceOnUse"><stop offset="0" stop-color="#b3b2b3" /><stop offset="1" stop-color="#979797" /></linearGradient><linearGradient id="a156353f-4d63-4962-9d1c-839eceb7590b" x1="5.28" y1="14.89" x2="10.49" y2="14.89" gradientTransform="translate(12.84 -1.21) rotate(45)" gradientUnits="userSpaceOnUse"><stop offset="0" stop-color="#b3b2b3" /><stop offset="1" stop-color="#979797" /></linearGradient></defs><title>Icon-analytics-145</title><g><path d="M1.47,1.47,16.53,16.53a.57.57,0,0,0,1-.4V1.07A.57.57,0,0,0,16.93.5H1.87A.57.57,0,0,0,1.47,1.47Z" fill="url(#ea6f59fb-306a-4655-8ef5-c9678451765c)" /><path id="f582129e-1fd7-440c-a5c4-799b0a032e7c" d="M5.53,5.53l6.94,6.94,5-5V1.07A.57.57,0,0,0,16.93.5H10.56Z" fill="#50e6ff" /><rect id="b55df55b-2ac6-4f92-ba84-9d8becd854da" x="-0.38" y="12.85" width="9.37" height="1.7" rx="0.27" transform="translate(-8.43 7.06) rotate(-45)" fill="url(#a331b263-1cab-4091-811f-6e285c35c115)" /><rect id="a1d88672-156d-4d85-8ddb-d3d546338b0e" x="0.12" y="9.23" width="5.99" height="1.7" rx="0.27" transform="translate(-6.22 5.15) rotate(-45)" fill="url(#ef7d2642-0773-456f-ac58-3a1abd750919)" /><rect id="a50d2abb-ca8f-44bb-a92d-5a79f17e98d0" x="4.89" y="14.04" width="5.99" height="1.7" rx="0.27" transform="translate(-8.22 9.93) rotate(-45)" fill="url(#a156353f-4d63-4962-9d1c-839eceb7590b)" /><rect id="abef2dbd-e94f-4bb4-9503-d2b3cf2041a9" x="9.19" y="4.75" width="1.7" height="1.7" rx="0.38" transform="translate(-1.02 8.74) rotate(-45)" fill="#fff" /><rect id="a157044f-57ca-43a1-b77d-760bafa34854" x="11.59" y="2.35" width="1.7" height="1.7" rx="0.38" transform="translate(1.38 9.73) rotate(-45)" fill="#fff" /><rect id="b637d7ff-a1d5-4533-b34f-12a87620ff68" x="11.59" y="7.15" width="1.7" height="1.7" rx="0.38" transform="translate(-2.01 11.14) rotate(-45)" fill="#fff" /><path id="f613147f-9647-4c5d-a52a-663abb19234f" d="M13.91,5.33l.66-.66a.38.38,0,0,1,.54,0l.66.66a.38.38,0,0,1,0,.54l-.66.66a.38.38,0,0,1-.54,0l-.66-.66a.38.38,0,0,1,0-.54" fill="#fff" /></g></svg>