<?xml version="1.0" encoding="UTF-8"?>
<svg width="24px" height="24px" viewBox="0 0 24 24" version="1.1" xmlns="http://www.w3.org/2000/svg" xmlns:xlink="http://www.w3.org/1999/xlink">
    <!-- Generator: Sketch 64 (93537) - https://sketch.com -->
    <title>Icon-Architecture/16/Arch_AWS-IoT-Core_16</title>
    <desc>Created with Sketch.</desc>
    <defs>
        <linearGradient x1="0%" y1="100%" x2="100%" y2="0%" id="linearGradient-1">
            <stop stop-color="#1B660F" offset="0%"></stop>
            <stop stop-color="#6CAE3E" offset="100%"></stop>
        </linearGradient>
    </defs>
    <g id="Icon-Architecture/16/Arch_AWS-IoT-Core_16" stroke="none" stroke-width="1" fill="none" fill-rule="evenodd">
        <g id="Icon-Architecture-BG/16/Internet-of-Things" fill="url(#linearGradient-1)">
            <rect id="Rectangle" x="0" y="0" width="24" height="24"></rect>
        </g>
        <path d="M18.2336646,14.6277327 C18.2336646,14.3595669 18.0043853,14.1419252 17.7241549,14.1419252 C17.4439245,14.1419252 17.2146451,14.3595669 17.2146451,14.6277327 C17.2146451,14.8958984 17.4439245,15.1135401 17.7241549,15.1135401 C18.0043853,15.1135401 18.2336646,14.8958984 18.2336646,14.6277327 M19.2526842,14.6277327 C19.2526842,15.4312582 18.566884,16.0851551 17.7241549,16.0851551 C17.0607732,16.0851551 16.5003124,15.6780484 16.2893754,15.1135401 L16.1956256,15.1135401 L16.1956256,19 L15.1766061,19 L15.1766061,14.6277327 C15.1766061,14.3595669 15.4048665,14.1419252 15.6861159,14.1419252 L16.2893754,14.1419252 C16.5003124,13.5774169 17.0607732,13.1703102 17.7241549,13.1703102 C18.566884,13.1703102 19.2526842,13.8242071 19.2526842,14.6277327 M14.1575866,11.7935318 C14.1575866,11.5263377 13.9283072,11.3077243 13.6480768,11.3077243 C13.3678464,11.3077243 13.1385671,11.5263377 13.1385671,11.7935318 C13.1385671,12.0616976 13.3678464,12.2793393 13.6480768,12.2793393 C13.9283072,12.2793393 14.1575866,12.0616976 14.1575866,11.7935318 M14.1575866,13.1615657 L14.1575866,19 L13.1385671,19 L13.1385671,13.1615657 C12.5465167,12.9604414 12.1195475,12.4260532 12.1195475,11.7935318 C12.1195475,10.9900062 12.8053477,10.3361094 13.6480768,10.3361094 C14.490806,10.3361094 15.1766061,10.9900062 15.1766061,11.7935318 C15.1766061,12.4260532 14.7496369,12.9604414 14.1575866,13.1615657 M10.0815085,14.6277327 C10.0815085,14.3595669 9.8522291,14.1419252 9.57199873,14.1419252 C9.29176837,14.1419252 9.06248897,14.3595669 9.06248897,14.6277327 C9.06248897,14.8958984 9.29176837,15.1135401 9.57199873,15.1135401 C9.8522291,15.1135401 10.0815085,14.8958984 10.0815085,14.6277327 M12.1195475,14.6277327 L12.1195475,19 L11.100528,19 L11.100528,15.1135401 L11.0067782,15.1135401 C10.7958412,15.6780484 10.2353804,16.0851551 9.57199873,16.0851551 C8.72926959,16.0851551 8.04346945,15.4312582 8.04346945,14.6277327 C8.04346945,13.8242071 8.72926959,13.1703102 9.57199873,13.1703102 C10.2353804,13.1703102 10.7958412,13.5774169 11.0067782,14.1419252 L11.6100378,14.1419252 C11.8912872,14.1419252 12.1195475,14.3595669 12.1195475,14.6277327 M19.9996255,11.8372545 C20.0016635,11.9888264 19.9955494,12.1297106 19.977207,12.2686515 L18.9663397,12.1520577 C18.9775489,12.0568395 18.982644,11.959678 18.980606,11.8625165 C18.980606,10.738358 18.1195345,9.83281283 16.9761946,9.73079325 C16.6990213,9.70650288 16.4941983,9.47525852 16.5145787,9.21097925 C16.5196738,8.45409119 15.9459658,7.90318551 15.2397853,7.90318551 C14.909623,7.90318551 14.596784,8.02463738 14.3573144,8.24325075 C14.232994,8.3569297 14.0587417,8.40162399 13.8906035,8.36761746 C13.7234843,8.33069609 13.5869356,8.21701714 13.5268135,8.06350198 C13.0356461,6.81303352 11.7730809,5.97161496 10.3851763,5.97161496 C8.5315798,5.97161496 7.02444993,7.41834964 7.02444993,9.19543341 C7.02444993,9.40530224 6.88280622,9.59185231 6.67390722,9.65695052 C5.68443927,9.96689569 5.01901952,10.8452356 5.01901952,11.8430842 C5.01901952,12.9857034 5.90658552,13.9650913 7.08355307,14.1205497 L6.94394739,15.0824485 C5.26562224,14.8609203 4,13.468596 4,11.8430842 C4,10.5401485 4.79789228,9.38101187 6.01969669,8.85925463 C6.19904412,6.70226941 8.08932533,5 10.3851763,5 C11.9799419,5 13.44733,5.84919148 14.2115946,7.16378652 C14.5264716,7.01221459 14.8780334,6.93157055 15.2397853,6.93157055 C16.4014676,6.93157055 17.364441,7.76035811 17.5183129,8.83302103 C18.9602256,9.15656881 19.9996255,10.379832 19.9996255,11.8372545" id="AWS-IoT-Core_Icon_16_Squid" fill="#FFFFFF"></path>
    </g>
</svg>