<?xml version="1.0" encoding="UTF-8"?>
<svg width="24px" height="24px" viewBox="0 0 24 24" version="1.1" xmlns="http://www.w3.org/2000/svg" xmlns:xlink="http://www.w3.org/1999/xlink">
    <!-- Generator: Sketch 64 (93537) - https://sketch.com -->
    <title>Icon-Architecture/16/Arch_Amazon-FreeRTOS_16</title>
    <desc>Created with Sketch.</desc>
    <defs>
        <linearGradient x1="0%" y1="100%" x2="100%" y2="0%" id="linearGradient-1">
            <stop stop-color="#1B660F" offset="0%"></stop>
            <stop stop-color="#6CAE3E" offset="100%"></stop>
        </linearGradient>
    </defs>
    <g id="Icon-Architecture/16/Arch_Amazon-FreeRTOS_16" stroke="none" stroke-width="1" fill="none" fill-rule="evenodd">
        <g id="Icon-Architecture-BG/16/Internet-of-Things" fill="url(#linearGradient-1)">
            <rect id="Rectangle" x="0" y="0" width="24" height="24"></rect>
        </g>
        <path d="M8.57387257,11.9007512 C8.84659413,11.9007512 9.0679917,12.1187495 9.0679917,12.3860687 C9.0679917,12.653388 8.84659413,12.8703999 8.57387257,12.8703999 C8.30115102,12.8703999 8.07874709,12.653388 8.07874709,12.3860687 C8.07874709,12.1187495 8.30115102,11.9007512 8.57387257,11.9007512 L8.57387257,11.9007512 Z M10.7375307,9.75825176 C10.9136424,10.0354352 11.1803258,10.2485014 11.4973269,10.3619394 L11.5043713,15.172699 C11.3373168,15.1450793 11.1763004,15.0987177 11.0193094,15.0415054 L11.0193094,12.3357614 C11.0193094,12.0635101 10.7938864,11.8425525 10.5161331,11.8425525 L9.96565822,11.8425525 C9.84590226,11.5476136 9.6305428,11.3019956 9.35681489,11.1362774 C9.64261903,10.5296305 10.1246619,10.0482586 10.7375307,9.75825176 L10.7375307,9.75825176 Z M12.0095603,8.49958267 C12.2822819,8.49958267 12.5036795,8.71659458 12.5036795,8.9839138 C12.5036795,9.25123302 12.2822819,9.46923135 12.0095603,9.46923135 C11.7368388,9.46923135 11.5144349,9.25123302 11.5144349,8.9839138 C11.5144349,8.71659458 11.7368388,8.49958267 12.0095603,8.49958267 L12.0095603,8.49958267 Z M14.6612995,11.1362774 C14.3845525,11.3039684 14.1681867,11.5535321 14.0484307,11.8543896 L13.5029876,11.8543896 C13.2252343,11.8543896 12.9998113,12.0753471 12.9998113,12.3475985 L12.9998113,15.0415054 C12.841814,15.0997041 12.6787848,15.1450793 12.5107239,15.1736854 L12.5036795,10.3668715 C12.8297377,10.2554063 13.1014529,10.0403673 13.2805837,9.75825176 C13.8934524,10.0482586 14.3754953,10.5296305 14.6612995,11.1362774 L14.6612995,11.1362774 Z M15.9393673,12.3860687 C15.9393673,12.653388 15.7179697,12.8703999 15.4442418,12.8703999 C15.1725266,12.8703999 14.9501226,12.653388 14.9501226,12.3860687 C14.9501226,12.1187495 15.1725266,11.9007512 15.4442418,11.9007512 C15.7179697,11.9007512 15.9393673,12.1187495 15.9393673,12.3860687 L15.9393673,12.3860687 Z M14.0061639,14.4279536 L14.0061639,12.8408073 L14.0242783,12.8408073 C14.131958,13.1623795 14.3442984,13.4366037 14.6290962,13.6181046 C14.4710988,13.9229077 14.2617775,14.1941725 14.0061639,14.4279536 L14.0061639,14.4279536 Z M9.70803195,14.129069 C9.57821247,13.9712421 9.4735518,13.8005919 9.38197371,13.6220502 C9.67280961,13.4385765 9.89018177,13.1584339 9.99685515,12.8289703 L10.0129568,12.8289703 L10.0129568,14.4141437 C9.91030882,14.320434 9.80363545,14.242507 9.70803195,14.129069 L9.70803195,14.129069 Z M8.38669099,13.8390621 C8.52556765,14.1606343 8.69262218,14.4654374 8.90596893,14.7238789 C8.9130134,14.7337431 8.97440091,14.8096972 8.98245173,14.818575 C9.27228128,15.1598756 9.62450469,15.4449503 10.0129568,15.6678807 L10.0129568,16.9226041 L11.0193094,16.9226041 L11.0193094,16.0673799 C11.1783131,16.1088095 11.3393295,16.1393884 11.5053777,16.1601032 L11.506384,16.9226041 L12.5127367,16.9216177 L12.5117303,16.1601032 C12.6787848,16.1393884 12.8408076,16.1088095 12.9998113,16.0673799 L12.9998113,16.9226041 L14.0061639,16.9226041 L14.0061639,15.6471659 C14.7277187,15.2279384 15.2932889,14.5926853 15.6223662,13.8400486 C16.3660608,13.7522574 16.9457199,13.1377191 16.9457199,12.3860687 C16.9457199,11.6541467 16.398264,11.0514455 15.6837537,10.9380074 C15.2882571,9.93975264 14.4982703,9.15259124 13.486886,8.75309204 C13.3721618,8.05273541 12.756274,7.51316488 12.0095603,7.51316488 C11.2527832,7.51316488 10.63287,8.06457243 10.5292157,8.77775249 C9.52890119,9.17823811 8.75099063,9.9486304 8.35549406,10.9360346 C7.63092018,11.0396085 7.07239449,11.6472418 7.07239449,12.3860687 C7.07239449,13.1347598 7.64802818,13.7473253 8.38669099,13.8390621 L8.38669099,13.8390621 Z M5.98352098,18.0135822 L18.033587,18.0135822 L18.033587,6.98641779 L5.98352098,6.98641779 L5.98352098,18.0135822 Z M20,10.072919 L20,9.08650125 L19.0399396,9.08650125 L19.0399396,8.05372183 L19.9698094,8.05372183 L19.9698094,7.06730404 L19.0399396,7.06730404 L19.0399396,6.49320889 C19.0399396,6.22095758 18.815523,6 18.5367633,6 L5.48135103,6 C5.20259136,6 4.97817473,6.22095758 4.97817473,6.49320889 L4.97817473,7.08308673 L4.03119693,7.08210031 L4.02918423,8.0685181 L4.97817473,8.06950451 L4.97817473,9.05690872 L4,9.05690872 L4,10.0433265 L4.97817473,10.0433265 L4.97817473,11.0603232 L4,11.0603232 L4,12.046741 L4.97817473,12.046741 L4.97817473,13.0203354 L4,13.0203354 L4,14.0067532 L4.97817473,14.0067532 L4.97817473,14.9517414 L4,14.9517414 L4,15.9381592 L4.97817473,15.9381592 L4.97817473,16.9669929 L4.03019058,16.9669929 L4.03019058,17.9534107 L4.97817473,17.9534107 L4.97817473,18.5067911 C4.97817473,18.7790424 5.20259136,19 5.48135103,19 L18.5367633,19 C18.815523,19 19.0399396,18.7790424 19.0399396,18.5067911 L19.0399396,17.9839897 L19.982892,17.9839897 L19.982892,16.9975719 L19.0399396,16.9975719 L19.0399396,16.0101677 L19.9879238,16.0101677 L19.9879238,15.0237499 L19.0399396,15.0237499 L19.0399396,14.0067532 L19.9698094,14.0067532 L19.9698094,13.0203354 L19.0399396,13.0203354 L19.0399396,11.9865695 L19.9879238,11.9865695 L19.9879238,11.0001518 L19.0399396,11.0001518 L19.0399396,10.072919 L20,10.072919 Z" id="Amazon-FreeRTOS_Icon_16_Squid" fill="#FFFFFF"></path>
    </g>
</svg>