<?xml version="1.0" encoding="UTF-8"?>
<svg width="24px" height="24px" viewBox="0 0 24 24" version="1.1" xmlns="http://www.w3.org/2000/svg" xmlns:xlink="http://www.w3.org/1999/xlink">
    <!-- Generator: Sketch 64 (93537) - https://sketch.com -->
    <title>Icon-Architecture/16/Arch_AWS-IoT-Button_16</title>
    <desc>Created with Sketch.</desc>
    <defs>
        <linearGradient x1="0%" y1="100%" x2="100%" y2="0%" id="linearGradient-1">
            <stop stop-color="#1B660F" offset="0%"></stop>
            <stop stop-color="#6CAE3E" offset="100%"></stop>
        </linearGradient>
    </defs>
    <g id="Icon-Architecture/16/Arch_AWS-IoT-Button_16" stroke="none" stroke-width="1" fill="none" fill-rule="evenodd">
        <g id="Icon-Architecture-BG/16/Internet-of-Things" fill="url(#linearGradient-1)">
            <rect id="Rectangle" x="0" y="0" width="24" height="24"></rect>
        </g>
        <path d="M10.0022508,10.9768783 C9.44904339,10.9768783 9.0018757,11.4260292 9.0018757,11.9794473 C9.0018757,12.5328655 9.44904339,12.9820164 10.0022508,12.9820164 C10.5554583,12.9820164 11.002626,12.5328655 11.002626,11.9794473 C11.002626,11.4260292 10.5554583,10.9768783 10.0022508,10.9768783 L10.0022508,10.9768783 Z M16.5046893,11.9794473 C16.5046893,11.1503227 15.8314368,10.4755937 15.0041265,10.4755937 C14.1768163,10.4755937 13.5035638,11.1503227 13.5035638,11.9794473 C13.5035638,12.808572 14.1768163,13.483301 15.0041265,13.483301 C15.8314368,13.483301 16.5046893,12.808572 16.5046893,11.9794473 L16.5046893,11.9794473 Z M17.5050644,11.9794473 C17.5050644,13.3609875 16.3836439,14.48587 15.0041265,14.48587 C13.6246092,14.48587 12.5031887,13.3609875 12.5031887,11.9794473 C12.5031887,10.5979071 13.6246092,9.47302463 15.0041265,9.47302463 C16.3836439,9.47302463 17.5050644,10.5979071 17.5050644,11.9794473 L17.5050644,11.9794473 Z M18.9346005,11.9794473 C18.9346005,10.3773419 17.560085,8.97274265 15.9924972,8.97274265 L7.98949606,8.97174008 C6.40790296,8.97274265 5.07140178,10.3502726 5.07140178,11.9794473 C5.07140178,13.6086221 6.40790296,14.986152 7.98949606,14.986152 L15.9924972,14.9871546 C17.560085,14.986152 18.9346005,13.5805502 18.9346005,11.9794473 L18.9346005,11.9794473 Z M15.9924972,15.9887211 L7.98949606,15.9897237 C5.86569964,15.9887211 4.07102663,14.1520145 4.07102663,11.9794473 C4.07102663,9.80587756 5.86569964,7.97017357 7.98949606,7.97017357 L15.9924972,7.969171 C18.1292985,7.97017357 19.9349756,9.80688013 19.9349756,11.9794473 C19.9349756,14.1520145 18.1292985,15.9887211 15.9924972,15.9887211 L15.9924972,15.9887211 Z M5.00037514,5.00256908 L8.00150056,5.00256908 L8.00150056,4 L4.50018757,4 C4.22408403,4 4,4.22457547 4,4.50128454 L4,7.969171 L5.00037514,7.969171 L5.00037514,5.00256908 Z M19.4998124,4 L16.0045017,4 L16.0045017,5.00256908 L18.9996249,5.00256908 L18.9996249,7.969171 L20,7.969171 L20,4.50128454 C20,4.22457547 19.7769163,4 19.4998124,4 L19.4998124,4 Z M5.00037514,15.9897237 L4,15.9897237 L4,19.4987155 C4,19.7754245 4.22408403,20 4.50018757,20 L8.00150056,20 L8.00150056,18.9974309 L5.00037514,18.9974309 L5.00037514,15.9897237 Z M18.9996249,15.9897237 L20,15.9897237 L20,19.4987155 C20,19.7754245 19.7769163,20 19.4998124,20 L16.0045017,20 L16.0045017,18.9974309 L18.9996249,18.9974309 L18.9996249,15.9897237 Z" id="AWS-IoT-Button_Icon_16_Squid" fill="#FFFFFF"></path>
    </g>
</svg>