<?xml version="1.0" encoding="UTF-8"?>
<svg width="24px" height="24px" viewBox="0 0 24 24" version="1.1" xmlns="http://www.w3.org/2000/svg" xmlns:xlink="http://www.w3.org/1999/xlink">
    <!-- Generator: Sketch 64 (93537) - https://sketch.com -->
    <title>Icon-Architecture/16/Arch_AWS-IoT-1-Click_16</title>
    <desc>Created with Sketch.</desc>
    <defs>
        <linearGradient x1="0%" y1="100%" x2="100%" y2="0%" id="linearGradient-1">
            <stop stop-color="#1B660F" offset="0%"></stop>
            <stop stop-color="#6CAE3E" offset="100%"></stop>
        </linearGradient>
    </defs>
    <g id="Icon-Architecture/16/Arch_AWS-IoT-1-Click_16" stroke="none" stroke-width="1" fill="none" fill-rule="evenodd">
        <g id="Icon-Architecture-BG/16/Internet-of-Things" fill="url(#linearGradient-1)">
            <rect id="Rectangle" x="0" y="0" width="24" height="24"></rect>
        </g>
        <path d="M18.5,18 C18.225,18 18,17.776 18,17.5 C18,17.224 18.225,17 18.5,17 C18.775,17 19,17.224 19,17.5 C19,17.776 18.775,18 18.5,18 L18.5,18 Z M8.504,14 C7.687,13.999 7.015,13.412 6.973,12.669 L6.969,12.552 C6.969,11.625 7.587,11.278 8.105,11.15 C8.351,11.09 8.513,10.855 8.481,10.604 C8.471,10.513 8.465,10.421 8.465,10.327 C8.465,9.514 9.069,8.604 9.812,8.301 C10.158,8.159 10.478,8.103 10.768,8.103 C11.59,8.103 12.17,8.557 12.424,8.804 C12.703,9.074 12.923,9.423 13.075,9.841 C13.138,10.012 13.289,10.136 13.47,10.163 C13.651,10.191 13.831,10.118 13.942,9.973 C14.117,9.744 14.397,9.645 14.658,9.725 C14.981,9.824 15.184,10.165 15.214,10.66 C15.228,10.886 15.392,11.075 15.614,11.12 C17.005,11.401 17.005,12.28 17.005,12.568 C17.005,13.814 16.021,14 15.436,14 L8.504,14 Z M6,6.5 C6,6.224 6.225,6 6.5,6 C6.775,6 7,6.224 7,6.5 C7,6.776 6.775,7 6.5,7 C6.225,7 6,6.776 6,6.5 L6,6.5 Z M11.5,19 C11.225,19 11,18.776 11,18.5 C11,18.224 11.225,18 11.5,18 C11.775,18 12,18.224 12,18.5 C12,18.776 11.775,19 11.5,19 L11.5,19 Z M5.5,18 C5.225,18 5,17.776 5,17.5 C5,17.224 5.225,17 5.5,17 C5.775,17 6,17.224 6,17.5 C6,17.776 5.775,18 5.5,18 L5.5,18 Z M16.5,6 C16.775,6 17,6.224 17,6.5 C17,6.776 16.775,7 16.5,7 C16.225,7 16,6.776 16,6.5 C16,6.224 16.225,6 16.5,6 L16.5,6 Z M18.5,16 C18.339,16 18.187,16.032 18.041,16.08 L16.954,14.589 C17.555,14.221 18.005,13.585 18.005,12.568 C18.005,11.417 17.34,10.579 16.165,10.228 C16.08,9.799 15.885,9.45 15.619,9.186 L16.455,7.996 C16.471,7.996 16.484,8 16.5,8 C17.327,8 18,7.327 18,6.5 C18,5.673 17.327,5 16.5,5 C15.673,5 15,5.673 15,6.5 C15,6.943 15.196,7.337 15.503,7.612 L14.723,8.723 C14.379,8.669 14.033,8.72 13.729,8.877 C13.56,8.579 13.355,8.314 13.12,8.086 C12.113,7.107 10.734,6.842 9.433,7.375 C9.096,7.513 8.789,7.729 8.518,7.99 L7.816,7.204 C7.93,6.993 8,6.756 8,6.5 C8,5.673 7.327,5 6.5,5 C5.673,5 5,5.673 5,6.5 C5,7.327 5.673,8 6.5,8 C6.706,8 6.902,7.958 7.082,7.882 L7.896,8.794 C7.631,9.264 7.469,9.787 7.465,10.307 C6.521,10.687 5.969,11.501 5.969,12.552 L5.974,12.719 C6.023,13.598 6.57,14.336 7.342,14.719 L6.163,16.162 C5.963,16.062 5.739,16 5.5,16 C4.673,16 4,16.673 4,17.5 C4,18.327 4.673,19 5.5,19 C6.327,19 7,18.327 7,17.5 C7,17.28 6.95,17.073 6.864,16.885 L8.411,14.991 C8.443,14.999 8.473,15 8.504,15 L11.85,15 L11.36,17.014 C10.6,17.085 10,17.721 10,18.5 C10,19.327 10.673,20 11.5,20 C12.327,20 13,19.327 13,18.5 C13,17.98 12.734,17.523 12.332,17.253 L12.879,15 L15.436,15 C15.614,15 15.797,14.98 15.979,14.949 L17.244,16.685 C17.091,16.92 17,17.199 17,17.5 C17,18.327 17.673,19 18.5,19 C19.327,19 20,18.327 20,17.5 C20,16.673 19.327,16 18.5,16 L18.5,16 Z" id="AWS-IoT-1-Click_Icon_16_Squid" fill="#FFFFFF"></path>
    </g>
</svg>