<?xml version="1.0" encoding="UTF-8"?>
<svg width="24px" height="24px" viewBox="0 0 24 24" version="1.1" xmlns="http://www.w3.org/2000/svg" xmlns:xlink="http://www.w3.org/1999/xlink">
    <!-- Generator: Sketch 64 (93537) - https://sketch.com -->
    <title>Icon-Architecture/16/Arch_AWS-IoT-SiteWise_16</title>
    <desc>Created with Sketch.</desc>
    <defs>
        <linearGradient x1="0%" y1="100%" x2="100%" y2="0%" id="linearGradient-1">
            <stop stop-color="#1B660F" offset="0%"></stop>
            <stop stop-color="#6CAE3E" offset="100%"></stop>
        </linearGradient>
    </defs>
    <g id="Icon-Architecture/16/Arch_AWS-IoT-SiteWise_16" stroke="none" stroke-width="1" fill="none" fill-rule="evenodd">
        <g id="Icon-Architecture-BG/16/Internet-of-Things" fill="url(#linearGradient-1)">
            <rect id="Rectangle" x="0" y="0" width="24" height="24"></rect>
        </g>
        <path d="M6,16.9863014 L9,16.9863014 L9,15.9874429 L6,15.9874429 L6,16.9863014 Z M16,16.9863014 L19,16.9863014 L19,15.9874429 L16,15.9874429 L16,16.9863014 Z M11,19 L14,19 L14,18.0011416 L11,18.0011416 L11,19 Z M12.5,15.9874429 C12.225,15.9874429 12,15.7636986 12,15.4880137 C12,15.2123288 12.225,14.9885845 12.5,14.9885845 C12.775,14.9885845 13,15.2123288 13,15.4880137 C13,15.7636986 12.775,15.9874429 12.5,15.9874429 L12.5,15.9874429 Z M7.5,13.989726 C7.225,13.989726 7,13.7659817 7,13.4902968 C7,13.2146119 7.225,12.9908676 7.5,12.9908676 C7.775,12.9908676 8,13.2146119 8,13.4902968 C8,13.7659817 7.775,13.989726 7.5,13.989726 L7.5,13.989726 Z M12.5,5.99885845 C13.603,5.99885845 14.5,6.89483447 14.5,7.99657534 C14.5,9.09831621 13.603,9.99429224 12.5,9.99429224 C11.397,9.99429224 10.5,9.09831621 10.5,7.99657534 C10.5,6.89483447 11.397,5.99885845 12.5,5.99885845 L12.5,5.99885845 Z M18,13.4902968 C18,13.7659817 17.775,13.989726 17.5,13.989726 C17.225,13.989726 17,13.7659817 17,13.4902968 C17,13.2146119 17.225,12.9908676 17.5,12.9908676 C17.775,12.9908676 18,13.2146119 18,13.4902968 L18,13.4902968 Z M13,14.081621 L13,10.9422089 C13.329,10.8872717 13.636,10.7744007 13.92,10.6195776 L16.15,12.8480308 C16.057,13.0438071 16,13.2595605 16,13.4902968 C16,14.3163527 16.673,14.9885845 17.5,14.9885845 C18.327,14.9885845 19,14.3163527 19,13.4902968 C19,12.6642409 18.327,11.9920091 17.5,11.9920091 C17.27,11.9920091 17.053,12.0489441 16.857,12.1418379 L14.714,10.0012842 C15.197,9.46889269 15.5,8.76969178 15.5,7.99657534 C15.5,6.34446347 14.154,5 12.5,5 C10.846,5 9.5,6.34446347 9.5,7.99657534 C9.5,8.76969178 9.803,9.46889269 10.286,10.0012842 L8.143,12.1418379 C7.947,12.0489441 7.73,11.9920091 7.5,11.9920091 C6.673,11.9920091 6,12.6642409 6,13.4902968 C6,14.3163527 6.673,14.9885845 7.5,14.9885845 C8.327,14.9885845 9,14.3163527 9,13.4902968 C9,13.2595605 8.943,13.0438071 8.85,12.8480308 L11.08,10.6195776 C11.364,10.7734018 11.671,10.8872717 12,10.9422089 L12,14.081621 C11.419,14.2883847 11,14.8377568 11,15.4880137 C11,16.3140696 11.673,16.9863014 12.5,16.9863014 C13.327,16.9863014 14,16.3140696 14,15.4880137 C14,14.8377568 13.581,14.2883847 13,14.081621 L13,14.081621 Z" id="AWS-IoT-SiteWise_Icon_16_Squid" fill="#FFFFFF"></path>
    </g>
</svg>