<?xml version="1.0" encoding="UTF-8"?>
<svg width="24px" height="24px" viewBox="0 0 24 24" version="1.1" xmlns="http://www.w3.org/2000/svg" xmlns:xlink="http://www.w3.org/1999/xlink">
    <!-- Generator: Sketch 64 (93537) - https://sketch.com -->
    <title>Icon-Architecture/16/Arch_AWS-IoT-Greengrass-Core_16</title>
    <desc>Created with Sketch.</desc>
    <defs>
        <linearGradient x1="0%" y1="100%" x2="100%" y2="0%" id="linearGradient-1">
            <stop stop-color="#1B660F" offset="0%"></stop>
            <stop stop-color="#6CAE3E" offset="100%"></stop>
        </linearGradient>
    </defs>
    <g id="Icon-Architecture/16/Arch_AWS-IoT-Greengrass-Core_16" stroke="none" stroke-width="1" fill="none" fill-rule="evenodd">
        <g id="Icon-Architecture-BG/16/Internet-of-Things" fill="url(#linearGradient-1)">
            <rect id="Rectangle" x="0" y="0" width="24" height="24"></rect>
        </g>
        <path d="M6.5035631,6.00150113 C6.77895504,6.00150113 7.00427572,6.22566925 7.00427572,6.50187641 C7.00427572,6.77808356 6.77895504,7.00225169 6.5035631,7.00225169 C6.22817116,7.00225169 6.00285048,6.77808356 6.00285048,6.50187641 C6.00285048,6.22566925 6.22817116,6.00150113 6.5035631,6.00150113 L6.5035631,6.00150113 Z M6.5035631,8.00300225 C6.7338909,8.00300225 6.95120018,7.94595947 7.14747953,7.85288967 L14.2996586,15.0082562 L13.0128272,15.0082562 L13.0128272,16.0090068 L15.5163903,16.0090068 C15.7927836,16.0090068 16.0171029,15.7848386 16.0171029,15.5086315 L16.0171029,13.0067551 L15.0156776,13.0067551 L15.0156776,14.3087315 L7.85548717,7.14535902 C7.94861972,6.94921191 8.00570096,6.73304979 8.00570096,6.50187641 C8.00570096,5.67425569 7.33174177,5.00075056 6.5035631,5.00075056 C5.67538443,5.00075056 5.00142524,5.67425569 5.00142524,6.50187641 C5.00142524,7.32949712 5.67538443,8.00300225 6.5035631,8.00300225 L6.5035631,8.00300225 Z M15.0156776,11.0052539 L16.0171029,11.0052539 L16.0171029,8.00300225 L15.0156776,8.00300225 L15.0156776,11.0052539 Z M8.00570096,16.0090068 L11.0099767,16.0090068 L11.0099767,15.0082562 L8.00570096,15.0082562 L8.00570096,16.0090068 Z M5.50213786,16.0090068 C5.22674592,16.0090068 5.00142524,15.7848386 5.00142524,15.5086315 C5.00142524,15.2324243 5.22674592,15.0082562 5.50213786,15.0082562 C5.7775298,15.0082562 6.00285048,15.2324243 6.00285048,15.5086315 C6.00285048,15.7848386 5.7775298,16.0090068 5.50213786,16.0090068 L5.50213786,16.0090068 Z M15.5163903,6.00150113 C15.2409983,6.00150113 15.0156776,5.777333 15.0156776,5.50112584 C15.0156776,5.22491869 15.2409983,5.00075056 15.5163903,5.00075056 C15.7917822,5.00075056 16.0171029,5.22491869 16.0171029,5.50112584 C16.0171029,5.777333 15.7917822,6.00150113 15.5163903,6.00150113 L15.5163903,6.00150113 Z M16.8552958,6.16762572 C16.9564397,5.96547411 17.0185281,5.74130598 17.0185281,5.50112584 C17.0185281,4.67350513 16.3445689,4 15.5163903,4 C14.6882116,4 14.0142524,4.67350513 14.0142524,5.50112584 C14.0142524,6.32874656 14.6882116,7.00225169 15.5163903,7.00225169 C15.7357024,7.00225169 15.9429974,6.95221416 16.1302639,6.86815111 C17.6103704,8.04503378 18.9072161,9.35901926 18.9923373,11.9289467 C19.0654413,14.142607 18.4385491,15.971979 17.1777547,17.2219164 C15.9199646,18.4688516 14.0823493,19.0823117 11.8832195,18.9902427 C9.3446065,18.8871654 8.03674514,17.6002002 6.86307476,16.1330998 C6.95120018,15.9429572 7.00427572,15.7317988 7.00427572,15.5086315 C7.00427572,14.6810108 6.33031653,14.0075056 5.50213786,14.0075056 C4.67395919,14.0075056 4,14.6810108 4,15.5086315 C4,16.3362522 4.67395919,17.0097573 5.50213786,17.0097573 C5.73847422,17.0097573 5.95878777,16.9497123 6.15807139,16.8526395 C7.42187004,18.4138104 8.95004496,19.8729047 11.842161,19.9909932 C11.9983834,19.9969977 12.1526029,20 12.3048195,20 C14.5930762,20 16.5148112,19.2894671 17.8837595,17.9314486 C19.3458404,16.481361 20.0758794,14.3947961 19.9937625,11.8959219 C19.8956228,8.97072805 18.4285348,7.43457593 16.8552958,6.16762572 L16.8552958,6.16762572 Z" id="AWS-IoT-Greengrass-Core_Icon_16_Squid" fill="#FFFFFF"></path>
    </g>
</svg>