<?xml version="1.0" encoding="UTF-8"?>
<svg width="24px" height="24px" viewBox="0 0 24 24" version="1.1" xmlns="http://www.w3.org/2000/svg" xmlns:xlink="http://www.w3.org/1999/xlink">
    <!-- Generator: Sketch 64 (93537) - https://sketch.com -->
    <title>Icon-Architecture/16/Arch_AWS-IoT-Analytics_16</title>
    <desc>Created with Sketch.</desc>
    <defs>
        <linearGradient x1="0%" y1="100%" x2="100%" y2="0%" id="linearGradient-1">
            <stop stop-color="#1B660F" offset="0%"></stop>
            <stop stop-color="#6CAE3E" offset="100%"></stop>
        </linearGradient>
    </defs>
    <g id="Icon-Architecture/16/Arch_AWS-IoT-Analytics_16" stroke="none" stroke-width="1" fill="none" fill-rule="evenodd">
        <g id="Icon-Architecture-BG/16/Internet-of-Things" fill="url(#linearGradient-1)">
            <rect id="Rectangle" x="0" y="0" width="24" height="24"></rect>
        </g>
        <path d="M18.0583781,13.7406928 C17.5224905,13.7406928 17.0875671,13.3046293 17.0875671,12.7695047 C17.0875671,12.2343801 17.5224905,11.7983166 18.0583781,11.7983166 C18.5942657,11.7983166 19.029189,12.2343801 19.029189,12.7695047 C19.029189,13.3046293 18.5942657,13.7406928 18.0583781,13.7406928 L18.0583781,13.7406928 Z M15.0653679,17.4671415 C14.058637,18.4742635 12.7208595,19.0288119 11.2995923,19.0288119 C10.5248851,19.0288119 9.77250663,18.8598252 9.08031843,18.5422467 C9.21331953,18.2975073 9.29389684,18.0255746 9.30942981,17.7322758 L16.5808038,14.0135966 C16.5827455,14.0165102 16.5846871,14.0203949 16.5875995,14.0233085 C16.4371238,15.3392684 15.8468708,16.6863062 15.0653679,17.4671415 L15.0653679,17.4671415 Z M6.40864669,17.6254451 C6.40864669,17.0903205 6.84357,16.654257 7.37945764,16.654257 C7.91534529,16.654257 8.35026859,17.0903205 8.35026859,17.6254451 C8.35026859,18.1605698 7.91534529,18.5966332 7.37945764,18.5966332 C6.84357,18.5966332 6.40864669,18.1605698 6.40864669,17.6254451 L6.40864669,17.6254451 Z M7.53187496,9.9316931 C8.31046534,9.15182907 9.65795094,8.56328909 10.9782538,8.41275494 C10.9840787,8.41663969 10.9899036,8.42052444 10.9957284,8.42538038 L7.26587276,15.6947232 C6.97560028,15.7122046 6.70474403,15.7928132 6.4630121,15.9239236 C6.14167368,15.2304953 5.97081095,14.4729686 5.97081095,13.6979605 C5.97081095,12.2761411 6.525144,10.937844 7.53187496,9.9316931 L7.53187496,9.9316931 Z M12.2335124,5.97118809 C12.7694,5.97118809 13.2043233,6.40725154 13.2043233,6.94237617 C13.2043233,7.47750081 12.7694,7.91356426 12.2335124,7.91356426 C11.6976247,7.91356426 11.2627014,7.47750081 11.2627014,6.94237617 C11.2627014,6.40725154 11.6976247,5.97118809 12.2335124,5.97118809 L12.2335124,5.97118809 Z M8.35609346,15.9559728 C8.32211507,15.936549 8.28716588,15.9171253 8.25027506,15.8996439 L11.8694583,8.8478472 C11.9869264,8.87018453 12.1082778,8.88475235 12.2335124,8.88475235 C12.5373762,8.88475235 12.8198822,8.80899968 13.0761763,8.68371641 C13.6654585,8.89252185 14.2159084,9.20524442 14.700343,9.60925866 L8.35609346,15.9559728 Z M18.0583781,5.99935254 C18.5942657,5.99935254 19.029189,6.43541599 19.029189,6.97054063 C19.029189,7.50566526 18.5942657,7.94172871 18.0583781,7.94172871 C17.5224905,7.94172871 17.0875671,7.50566526 17.0875671,6.97054063 C17.0875671,6.43541599 17.5224905,5.99935254 18.0583781,5.99935254 L18.0583781,5.99935254 Z M16.3148016,11.9313694 C16.1915086,12.1858207 16.1167562,12.4674652 16.1167562,12.7695047 C16.1167562,12.8967303 16.1313184,13.0200712 16.1546178,13.1404985 L9.10167627,16.7484623 C9.08420167,16.7125283 9.06478545,16.6756232 9.04439842,16.6416316 L15.3867064,10.2958886 C15.7925053,10.7834251 16.1060773,11.3370023 16.3148016,11.9313694 L16.3148016,11.9313694 Z M18.0583781,10.8271285 C17.6846159,10.8271285 17.339978,10.937844 17.0429098,11.1213985 C16.7972947,10.5746196 16.4652773,10.0676594 16.0730697,9.60925866 L17.0565012,8.62544513 C17.3496861,8.80414374 17.6904407,8.9129168 18.0583781,8.9129168 C19.1291826,8.9129168 20,8.04176109 20,6.97054063 C20,5.89932017 19.1291826,5.02816445 18.0583781,5.02816445 C16.9875736,5.02816445 16.1167562,5.89932017 16.1167562,6.97054063 C16.1167562,7.32016834 16.2177205,7.64454516 16.379846,7.92910327 L15.3867064,8.92262868 C14.9294544,8.5302687 14.4265743,8.20006475 13.8829202,7.95435416 C14.0654327,7.65911298 14.1751343,7.31434121 14.1751343,6.94237617 C14.1751343,5.87115571 13.3043169,5 12.2335124,5 C11.1627079,5 10.2918905,5.87115571 10.2918905,6.94237617 C10.2918905,7.14341211 10.3316937,7.33279378 10.3880008,7.51537714 C9.01915734,7.76788605 7.67361336,8.41663969 6.84551162,9.24506313 C5.65529739,10.4347685 5,12.0168339 5,13.6979605 C5,14.7215927 5.26114815,15.714147 5.73199146,16.6105536 C5.54850819,16.9067659 5.43783574,17.2525089 5.43783574,17.6254451 C5.43783574,18.6966656 6.30865316,19.5678213 7.37945764,19.5678213 C7.75224905,19.5678213 8.09785774,19.4571059 8.39395508,19.2735513 C9.28807197,19.7426352 10.2763575,20 11.2995923,20 C12.9810368,20 14.5605462,19.3454192 15.7517313,18.1537714 C16.595366,17.3107802 17.2331888,15.9909356 17.483658,14.6147621 C17.6671413,14.6720622 17.8574202,14.7118809 18.0583781,14.7118809 C19.1291826,14.7118809 20,13.8407252 20,12.7695047 C20,11.6982842 19.1291826,10.8271285 18.0583781,10.8271285 L18.0583781,10.8271285 Z" id="AWS-IoT-Analytics-_Icon_16_Squid" fill="#FFFFFF"></path>
    </g>
</svg>