<?xml version="1.0" encoding="UTF-8"?>
<svg width="24px" height="24px" viewBox="0 0 24 24" version="1.1" xmlns="http://www.w3.org/2000/svg" xmlns:xlink="http://www.w3.org/1999/xlink">
    <!-- Generator: Sketch 64 (93537) - https://sketch.com -->
    <title>Icon-Architecture/16/Arch_AWS-IoT-Device-Management_16</title>
    <desc>Created with Sketch.</desc>
    <defs>
        <linearGradient x1="0%" y1="100%" x2="100%" y2="0%" id="linearGradient-1">
            <stop stop-color="#1B660F" offset="0%"></stop>
            <stop stop-color="#6CAE3E" offset="100%"></stop>
        </linearGradient>
    </defs>
    <g id="Icon-Architecture/16/Arch_AWS-IoT-Device-Management_16" stroke="none" stroke-width="1" fill="none" fill-rule="evenodd">
        <g id="Icon-Architecture-BG/16/Internet-of-Things" fill="url(#linearGradient-1)">
            <rect id="Rectangle" x="0" y="0" width="24" height="24"></rect>
        </g>
        <path d="M13,8.98381208 C13,9.53642675 12.552,9.98674251 12,9.98674251 C11.448,9.98674251 11,9.53642675 11,8.98381208 C11,8.4311974 11.448,7.98088164 12,7.98088164 C12.552,7.98088164 13,8.4311974 13,8.98381208 L13,8.98381208 Z M16,13.9984643 C16,14.5510789 15.552,15.0013947 15,15.0013947 C14.448,15.0013947 14,14.5510789 14,13.9984643 C14,13.4458496 14.448,12.9955338 15,12.9955338 C15.552,12.9955338 16,13.4458496 16,13.9984643 L16,13.9984643 Z M13.278,12.9955338 L10.722,12.9955338 C10.538,12.6806137 10.273,12.4228605 9.954,12.2463448 L11.331,10.8653096 C11.541,10.9415323 11.764,10.989673 12,10.989673 C12.236,10.989673 12.459,10.9415323 12.669,10.8653096 L14.046,12.2463448 C13.727,12.4228605 13.462,12.6806137 13.278,12.9955338 L13.278,12.9955338 Z M9,15.0013947 C8.448,15.0013947 8,14.5510789 8,13.9984643 C8,13.4458496 8.448,12.9955338 9,12.9955338 C9.552,12.9955338 10,13.4458496 10,13.9984643 C10,14.5510789 9.552,15.0013947 9,15.0013947 L9,15.0013947 Z M10,8.98381208 C10,9.48427436 10.189,9.93659599 10.493,10.2876216 L8.77,12.0156708 C7.776,12.1320107 7,12.9714635 7,13.9984643 C7,15.1046965 7.897,16.0043251 9,16.0043251 C10.103,16.0043251 11,15.1046965 11,13.9984643 L13,13.9984643 C13,15.1046965 13.897,16.0043251 15,16.0043251 C16.103,16.0043251 17,15.1046965 17,13.9984643 C17,12.9714635 16.224,12.1320107 15.23,12.0156708 L13.507,10.2876216 C13.811,9.93659599 14,9.48427436 14,8.98381208 C14,7.8775798 13.103,6.9779512 12,6.9779512 C10.897,6.9779512 10,7.8775798 10,8.98381208 L10,8.98381208 Z M18,15.7044489 L12,18.9298732 L6,15.7044489 L6,8.28176077 L12,5.07037751 L18,8.28176077 L18,15.7044489 Z M18.735,7.53858932 L12.235,4.05942363 C12.089,3.98019212 11.911,3.98019212 11.765,4.05942363 L5.265,7.53858932 C5.102,7.62584426 5,7.79533951 5,7.98088164 L5,16.0043251 C5,16.1888643 5.102,16.3593625 5.264,16.4456145 L11.764,19.9408271 C11.838,19.9809443 11.919,20 12,20 C12.081,20 12.162,19.9809443 12.236,19.9408271 L18.736,16.4456145 C18.898,16.3593625 19,16.1888643 19,16.0043251 L19,7.98088164 C19,7.79533951 18.898,7.62584426 18.735,7.53858932 L18.735,7.53858932 Z" id="AWS-IoT-Device-Management_Icon_16_Squid" fill="#FFFFFF"></path>
    </g>
</svg>