<?xml version="1.0" encoding="UTF-8"?>
<svg width="40px" height="40px" viewBox="0 0 40 40" version="1.1" xmlns="http://www.w3.org/2000/svg" xmlns:xlink="http://www.w3.org/1999/xlink">
    <!-- Generator: Sketch 64 (93537) - https://sketch.com -->
    <title>Icon-Architecture/32/Arch_AWS-Training-Certification_32</title>
    <desc>Created with Sketch.</desc>
    <defs>
        <linearGradient x1="0%" y1="100%" x2="100%" y2="0%" id="linearGradient-1">
            <stop stop-color="#2E27AD" offset="0%"></stop>
            <stop stop-color="#527FFF" offset="100%"></stop>
        </linearGradient>
    </defs>
    <g id="Icon-Architecture/32/Arch_AWS-Training-Certification_32" stroke="none" stroke-width="1" fill="none" fill-rule="evenodd">
        <g id="Icon-Architecture-BG/32/Customer-Enablement" fill="url(#linearGradient-1)">
            <rect id="Rectangle" x="0" y="0" width="40" height="40"></rect>
        </g>
        <path d="M10.053,19.2187588 C10.053,17.2887588 11.623,15.7187588 13.553,15.7187588 C15.483,15.7187588 17.053,17.2887588 17.053,19.2187588 C17.053,21.1487588 15.483,22.7187588 13.553,22.7187588 C11.623,22.7187588 10.053,21.1487588 10.053,19.2187588 L10.053,19.2187588 Z M32.553,12.7567588 L6.553,12.7567588 C6.277,12.7187588 6.053,12.9427588 6.053,13.2187588 L6.053,26.8377588 C6.036,26.8607588 6.017,26.8807588 6,26.9037588 L6.053,26.9407588 L6.053,27.7247588 C6.053,27.9027588 6.147,28.0657588 6.3,28.1557588 L17.418,34.6877588 C17.496,34.7337588 17.583,34.7567588 17.671,34.7567588 C17.758,34.7567588 17.844,34.7347588 17.921,34.6897588 L25.67,30.2067588 L24.671,29.6297588 L21.935,31.2127588 C21.821,29.9907588 21.474,28.7997588 20.883,27.7097588 L20.596,27.2567588 L19.73,27.7567588 L20.021,28.2157588 C20.607,29.2967588 20.924,30.5207588 20.969,31.7707588 L17.673,33.6777588 L7.053,27.4387588 L7.053,27.1847588 C8.533,25.2927588 10.821,24.1627588 13.266,24.1627588 C14.681,24.1627588 16.057,24.5497588 17.249,25.2807588 L17.584,25.5307588 L18.519,24.9907588 L17.944,24.5587588 C17.912,24.5247588 17.877,24.4937588 17.838,24.4697588 C17.023,23.9597588 16.125,23.6117588 15.193,23.3987588 C16.864,22.7407588 18.053,21.1207588 18.053,19.2187588 C18.053,16.7377588 16.034,14.7187588 13.553,14.7187588 C11.072,14.7187588 9.053,16.7377588 9.053,19.2187588 C9.053,21.0377588 10.143,22.6007588 11.7,23.3087588 C9.944,23.6247588 8.324,24.4567588 7.053,25.6947588 L7.053,13.7187588 L32.053,13.7187588 L32.053,16.1797588 L33.053,16.7567588 L33.053,13.2187588 C33.053,12.9427588 32.829,12.7187588 32.553,12.7567588 L32.553,12.7567588 Z M33.053,18.8597588 L33.053,25.5107588 C33.053,25.6887588 32.957,25.8537588 32.803,25.9427588 L26.803,29.4067588 C26.726,29.4517588 26.639,29.4737588 26.553,29.4737588 C26.471,29.4737588 26.389,29.4537588 26.315,29.4137588 L21.503,26.7327588 L22.456,26.1817588 L26.545,28.4007588 L32.053,25.2207588 L32.053,19.1487588 L26.553,15.9727588 L21.053,19.1487588 L21.053,23.5277588 L20.053,24.1057588 L20.053,18.8597588 C20.053,18.6807588 20.149,18.5157588 20.303,18.4267588 L26.303,14.9637588 C26.457,14.8737588 26.649,14.8737588 26.803,14.9637588 L32.803,18.4267588 C32.957,18.5157588 33.053,18.6807588 33.053,18.8597588 L33.053,18.8597588 Z M7.914,11.7187588 L17.537,6.01475882 L27.352,11.7187588 L29.22,11.7187588 L17.769,5.06275882 C17.623,4.97775882 17.445,4.97975882 17.299,5.06475882 L6.073,11.7187588 L7.914,11.7187588 Z M15.446,29.0587588 L14.946,28.1937588 L25.28,22.2277588 L25.78,23.0937588 L15.446,29.0587588 Z" id="AWS-Training-Certification_Icon_32_Squid" fill="#FFFFFF"></path>
    </g>
</svg>