<?xml version="1.0" encoding="UTF-8"?>
<svg width="40px" height="40px" viewBox="0 0 40 40" version="1.1" xmlns="http://www.w3.org/2000/svg" xmlns:xlink="http://www.w3.org/1999/xlink">
    <title>Icon-Architecture/32/Arch_AWS-Professional-Services_32</title>
    <defs>
        <linearGradient x1="0%" y1="100%" x2="100%" y2="0%" id="linearGradient-1">
            <stop stop-color="#2E27AD" offset="0%"></stop>
            <stop stop-color="#527FFF" offset="100%"></stop>
        </linearGradient>
    </defs>
    <g id="Icon-Architecture/32/Arch_AWS-Professional-Services_32" stroke="none" stroke-width="1" fill="none" fill-rule="evenodd">
        <g id="Rectangle" fill="url(#linearGradient-1)">
            <rect x="0" y="0" width="40" height="40"></rect>
        </g>
        <g id="Icon-Service/32/AWS-Professional-Services_32" transform="translate(4.000000, 4.000000)" fill="#FFFFFF">
            <path d="M25.654,24.335 C25.536,24.45 25.482,24.615 25.509,24.777 L26.165,28.597 L22.734,26.794 C22.662,26.755 22.582,26.736 22.502,26.736 C22.422,26.736 22.341,26.755 22.269,26.794 L18.839,28.597 L19.494,24.777 C19.521,24.615 19.467,24.45 19.349,24.335 L16.574,21.629 L20.41,21.072 C20.572,21.048 20.714,20.946 20.786,20.798 L22.502,17.323 L24.217,20.798 C24.289,20.946 24.43,21.048 24.592,21.072 L28.429,21.629 L25.654,24.335 Z M29.979,21.126 C29.921,20.945 29.763,20.813 29.576,20.786 L24.997,20.12 L22.95,15.972 C22.866,15.801 22.692,15.693 22.502,15.693 C22.311,15.693 22.137,15.801 22.053,15.972 L20.006,20.12 L15.427,20.786 C15.239,20.813 15.083,20.945 15.024,21.126 C14.966,21.307 15.014,21.505 15.151,21.638 L18.464,24.868 L17.681,29.427 C17.649,29.614 17.726,29.804 17.881,29.916 C18.035,30.028 18.239,30.043 18.407,29.954 L22.502,27.801 L26.596,29.954 C26.67,29.992 26.749,30.011 26.829,30.011 C26.932,30.011 27.036,29.979 27.123,29.916 C27.277,29.804 27.354,29.614 27.322,29.427 L26.54,24.868 L29.852,21.638 C29.989,21.505 30.038,21.307 29.979,21.126 L29.979,21.126 Z M8.828,8.367 C8.828,5.407 11.236,3 14.196,3 C17.155,3 19.562,5.407 19.562,8.367 C19.562,11.326 17.155,13.734 14.196,13.734 C11.236,13.734 8.828,11.326 8.828,8.367 L8.828,8.367 Z M13.908,14.968 C15.703,14.968 17.483,15.439 19.055,16.329 L19.548,15.459 C18.597,14.92 17.574,14.537 16.52,14.289 C18.883,13.357 20.562,11.057 20.562,8.367 C20.562,4.856 17.707,2 14.196,2 C10.684,2 7.828,4.856 7.828,8.367 C7.828,10.973 9.404,13.216 11.652,14.2 C6.162,15.313 2,20.415 2,26.511 C2,26.788 2.223,27.011 2.5,27.011 L16,27.011 L16,26.011 L3.009,26.011 C3.258,19.886 8.051,14.968 13.908,14.968 L13.908,14.968 Z" id="AWS-Professional-Services_32_Squid"></path>
        </g>
    </g>
</svg>