<?xml version="1.0" encoding="UTF-8"?>
<svg width="40px" height="40px" viewBox="0 0 40 40" version="1.1" xmlns="http://www.w3.org/2000/svg" xmlns:xlink="http://www.w3.org/1999/xlink">
    <!-- Generator: Sketch 64 (93537) - https://sketch.com -->
    <title>Icon-Architecture/32/Arch_AWS-Managed-Services_32</title>
    <desc>Created with Sketch.</desc>
    <defs>
        <linearGradient x1="0%" y1="100%" x2="100%" y2="0%" id="linearGradient-1">
            <stop stop-color="#2E27AD" offset="0%"></stop>
            <stop stop-color="#527FFF" offset="100%"></stop>
        </linearGradient>
    </defs>
    <g id="Icon-Architecture/32/Arch_AWS-Managed-Services_32" stroke="none" stroke-width="1" fill="none" fill-rule="evenodd">
        <g id="Icon-Architecture-BG/32/Customer-Enablement" fill="url(#linearGradient-1)">
            <rect id="Rectangle" x="0" y="0" width="40" height="40"></rect>
        </g>
        <g id="Icon-Service/32/AWS-Managed-Services" transform="translate(4.000000, 4.000000)" fill="#FFFFFF">
            <path d="M18.336,25.772 L18.598,26.737 C17.614,27.005 16.584,27.141 15.538,27.141 C10.978,27.141 7.39,25.035 5.435,21.212 L6.325,20.757 C8.101,24.229 11.372,26.141 15.538,26.141 C16.496,26.141 17.437,26.017 18.336,25.772 L18.336,25.772 Z M29.709,17.075 L29,17.78 L27.782,16.554 C27.64,17.631 27.31,18.735 26.834,19.66 L25.945,19.203 C26.352,18.412 26.634,17.473 26.77,16.55 L25.206,17.816 L24.577,17.039 L27.05,15.035 C27.247,14.874 27.538,14.889 27.719,15.071 L29.709,17.075 Z M6.74,13.855 L4.74,15.866 C4.643,15.964 4.515,16.014 4.386,16.014 C4.259,16.014 4.133,15.966 4.035,15.87 L2,13.87 L2.701,13.157 L3.941,14.376 C4.496,8.103 9.565,3 15.51,3 C19.913,3 24.259,5.715 26.325,9.757 L25.435,10.212 C23.565,6.555 19.483,4 15.51,4 C10.152,4 5.573,8.565 4.961,14.227 L6.031,13.149 L6.74,13.855 Z M15.345,17.288 C14.149,17.288 13.176,16.315 13.176,15.119 C13.176,13.923 14.149,12.95 15.345,12.95 C16.541,12.95 17.515,13.923 17.515,15.119 C17.515,16.315 16.541,17.288 15.345,17.288 L15.345,17.288 Z M15.345,11.95 C13.598,11.95 12.176,13.372 12.176,15.119 C12.176,16.867 13.598,18.288 15.345,18.288 C17.093,18.288 18.515,16.867 18.515,15.119 C18.515,13.372 17.093,11.95 15.345,11.95 L15.345,11.95 Z M18.763,19.617 C18.601,19.435 18.328,19.396 18.123,19.527 C17.621,19.843 17.075,20.07 16.498,20.2 C16.26,20.254 16.096,20.472 16.109,20.716 L16.142,21.292 L14.548,21.292 L14.581,20.716 C14.596,20.472 14.431,20.253 14.192,20.199 C13.617,20.07 13.071,19.843 12.568,19.526 C12.362,19.396 12.092,19.435 11.929,19.616 L11.544,20.047 L10.417,18.92 L10.849,18.536 C11.031,18.373 11.069,18.102 10.939,17.895 C10.622,17.396 10.397,16.85 10.267,16.272 C10.213,16.034 9.99,15.869 9.75,15.883 L9.172,15.916 L9.172,14.322 L9.752,14.355 C10.015,14.368 10.214,14.204 10.268,13.967 C10.399,13.39 10.626,12.845 10.941,12.346 C11.072,12.139 11.034,11.869 10.852,11.706 L10.417,11.318 L11.544,10.19 L11.932,10.625 C12.094,10.807 12.365,10.844 12.571,10.715 C13.071,10.399 13.617,10.174 14.192,10.044 C14.431,9.99 14.595,9.772 14.581,9.528 L14.548,8.946 L16.142,8.946 L16.109,9.528 C16.096,9.772 16.26,9.99 16.498,10.044 C17.073,10.175 17.618,10.401 18.118,10.716 C18.324,10.847 18.597,10.809 18.758,10.626 L19.147,10.191 L20.273,11.318 L19.84,11.705 C19.657,11.867 19.619,12.138 19.75,12.345 C20.065,12.844 20.292,13.39 20.423,13.967 C20.477,14.204 20.678,14.378 20.939,14.355 L21.518,14.322 L21.518,15.916 L20.94,15.883 C20.695,15.869 20.477,16.034 20.424,16.272 C20.293,16.848 20.067,17.394 19.751,17.895 C19.62,18.101 19.658,18.372 19.841,18.535 L20.273,18.92 L19.147,20.047 L18.763,19.617 Z M21.355,19.253 C21.452,19.156 21.505,19.023 21.501,18.886 C21.497,18.748 21.437,18.619 21.334,18.527 L20.812,18.061 C21.011,17.692 21.171,17.305 21.291,16.904 L21.989,16.944 C22.117,16.957 22.261,16.904 22.361,16.809 C22.461,16.714 22.518,16.583 22.518,16.445 L22.518,13.793 C22.518,13.655 22.461,13.524 22.361,13.43 C22.261,13.335 22.131,13.293 21.989,13.294 L21.289,13.334 C21.169,12.933 21.009,12.546 20.811,12.179 L21.334,11.711 C21.437,11.62 21.497,11.49 21.501,11.353 C21.505,11.215 21.452,11.082 21.355,10.985 L19.48,9.109 C19.382,9.012 19.217,8.963 19.112,8.963 C18.975,8.967 18.845,9.027 18.753,9.13 L18.284,9.656 C17.916,9.458 17.53,9.297 17.131,9.177 L17.17,8.475 C17.178,8.337 17.129,8.203 17.034,8.103 C16.94,8.003 16.809,7.946 16.671,7.946 L14.019,7.946 C13.881,7.946 13.749,8.003 13.655,8.103 C13.561,8.203 13.512,8.337 13.52,8.475 L13.56,9.177 C13.159,9.296 12.774,9.456 12.405,9.654 L11.938,9.13 C11.846,9.027 11.716,8.967 11.578,8.963 C11.482,8.967 11.309,9.013 11.211,9.109 L9.336,10.985 C9.238,11.082 9.186,11.215 9.19,11.353 C9.193,11.49 9.254,11.62 9.357,11.711 L9.881,12.179 C9.682,12.547 9.522,12.933 9.401,13.334 L8.7,13.294 C8.568,13.293 8.43,13.335 8.328,13.43 C8.229,13.524 8.172,13.655 8.172,13.793 L8.172,16.445 C8.172,16.583 8.229,16.714 8.328,16.809 C8.43,16.904 8.582,16.957 8.7,16.944 L9.398,16.904 C9.519,17.306 9.679,17.693 9.878,18.062 L9.357,18.527 C9.254,18.619 9.193,18.748 9.19,18.886 C9.186,19.023 9.238,19.156 9.336,19.253 L11.211,21.128 C11.309,21.226 11.451,21.273 11.579,21.275 C11.716,21.271 11.846,21.21 11.938,21.108 L12.402,20.586 C12.773,20.786 13.159,20.946 13.56,21.066 L13.52,21.763 C13.512,21.9 13.561,22.035 13.655,22.135 C13.749,22.235 13.881,22.292 14.019,22.292 L16.671,22.292 C16.809,22.292 16.94,22.235 17.034,22.135 C17.129,22.035 17.178,21.9 17.17,21.763 L17.131,21.067 C17.532,20.947 17.919,20.787 18.289,20.587 L18.753,21.108 C18.845,21.21 18.975,21.271 19.111,21.275 C19.248,21.277 19.383,21.226 19.48,21.128 L21.355,19.253 Z M24.484,24.91 C24.19,25.217 23.699,25.227 23.392,24.932 C23.242,24.789 23.158,24.597 23.154,24.39 C23.15,24.184 23.227,23.988 23.37,23.839 C23.514,23.69 23.706,23.606 23.912,23.602 L23.928,23.602 C24.128,23.602 24.317,23.678 24.463,23.818 C24.612,23.961 24.696,24.153 24.7,24.359 C24.704,24.566 24.628,24.762 24.484,24.91 L24.484,24.91 Z M22.649,23.146 C21.972,23.851 21.994,24.976 22.698,25.653 C23.031,25.973 23.466,26.148 23.926,26.148 C23.938,26.148 23.95,26.147 23.962,26.147 C24.436,26.138 24.877,25.945 25.205,25.604 C25.533,25.262 25.709,24.814 25.7,24.34 C25.69,23.867 25.497,23.425 25.156,23.097 C24.45,22.42 23.327,22.441 22.649,23.146 L22.649,23.146 Z M27.012,26.214 L25.949,26.001 C25.811,25.974 25.669,26.004 25.555,26.087 L25.024,26.476 C24.913,26.558 24.84,26.683 24.824,26.821 L24.698,27.892 L23.111,27.89 L22.988,26.829 C22.972,26.691 22.899,26.567 22.789,26.484 L22.252,26.086 C22.139,26.003 21.996,25.971 21.857,25.998 L20.802,26.209 L20.313,24.699 L21.3,24.247 C21.427,24.188 21.524,24.08 21.567,23.947 L21.769,23.328 C21.812,23.195 21.797,23.05 21.729,22.929 L21.198,21.983 L22.482,21.052 L23.211,21.843 C23.307,21.946 23.458,22.008 23.582,22.004 L24.251,22 C24.39,21.999 24.522,21.941 24.615,21.839 L25.339,21.054 L26.622,21.987 L26.094,22.928 C26.025,23.049 26.011,23.193 26.053,23.325 L26.252,23.951 C26.295,24.085 26.392,24.194 26.52,24.253 L27.503,24.705 L27.012,26.214 Z M28.325,23.981 L27.138,23.437 L27.071,23.229 L27.712,22.09 C27.837,21.869 27.775,21.589 27.57,21.44 L25.567,19.983 C25.364,19.834 25.078,19.862 24.906,20.049 L24.027,21.001 L23.797,21.002 L22.917,20.047 C22.745,19.86 22.462,19.833 22.255,19.981 L20.25,21.435 C20.045,21.584 19.983,21.863 20.108,22.084 L20.75,23.227 L20.685,23.429 L19.492,23.976 C19.262,24.082 19.147,24.343 19.225,24.584 L19.987,26.94 C20.065,27.181 20.315,27.328 20.561,27.277 L21.835,27.022 L22.02,27.159 L22.169,28.447 C22.198,28.699 22.412,28.889 22.665,28.89 L25.142,28.892 L25.143,28.892 C25.397,28.892 25.609,28.702 25.64,28.45 L25.791,27.154 L25.969,27.024 L27.251,27.282 C27.502,27.333 27.746,27.187 27.825,26.946 L28.592,24.591 C28.67,24.35 28.556,24.087 28.325,23.981 L28.325,23.981 Z" id="AWS-Managed-Services_Icon_32_Squid"></path>
        </g>
    </g>
</svg>