<?xml version="1.0" encoding="UTF-8"?>
<svg width="40px" height="40px" viewBox="0 0 40 40" version="1.1" xmlns="http://www.w3.org/2000/svg" xmlns:xlink="http://www.w3.org/1999/xlink">
    <title>Icon-Architecture/32/Arch_AWS-IQ_32</title>
    <defs>
        <linearGradient x1="0%" y1="100%" x2="100%" y2="0%" id="linearGradient-1">
            <stop stop-color="#2E27AD" offset="0%"></stop>
            <stop stop-color="#527FFF" offset="100%"></stop>
        </linearGradient>
    </defs>
    <g id="Icon-Architecture/32/Arch_AWS-IQ_32" stroke="none" stroke-width="1" fill="none" fill-rule="evenodd">
        <g id="Rectangle" fill="url(#linearGradient-1)">
            <rect x="0" y="0" width="40" height="40"></rect>
        </g>
        <g id="Icon-Service/32/AWS-IQ_32" transform="translate(4.000000, 4.000000)" fill="#FFFFFF">
            <path d="M8.004,23.608 L12.271,20.117 L12.903,20.89 L8.039,24.872 L4.91,22.589 L5.5,21.781 L8.004,23.608 Z M5.5,6.474 C5.5,4.558 7.07,3 9,3 C10.93,3 12.5,4.558 12.5,6.474 C12.5,8.39 10.93,9.948 9,9.948 C7.07,9.948 5.5,8.39 5.5,6.474 L5.5,6.474 Z M9.022,10.979 C9.038,10.98 10.717,10.94 12.324,11.934 L12.85,11.083 C12.289,10.736 11.729,10.509 11.209,10.348 C12.57,9.578 13.5,8.139 13.5,6.474 C13.5,4.007 11.482,2 9,2 C6.519,2 4.5,4.007 4.5,6.474 C4.5,8.124 5.413,9.551 6.753,10.327 C3.313,11.376 2.336,14.722 2.103,15.88 L3.083,16.078 C3.391,14.551 4.583,10.98 9.022,10.979 L9.022,10.979 Z M15,25.979 L15,18.61 C16.507,17.532 18.186,16.979 20,16.979 C21.638,16.979 23.286,17.437 24.643,18.268 C27.117,19.784 28.821,22.837 28.986,25.979 L15,25.979 Z M14,26.17 L8.5,28.979 L3,26.17 L3,18.788 L8.5,15.979 L14,18.788 L14,26.17 Z M15.25,11.229 C15.25,8.61 17.381,6.479 20,6.479 C22.619,6.479 24.75,8.61 24.75,11.229 C24.75,13.848 22.619,15.979 20,15.979 C17.381,15.979 15.25,13.848 15.25,11.229 L15.25,11.229 Z M30,26.479 C30,22.773 28.102,19.214 25.164,17.415 C24.39,16.941 23.529,16.579 22.631,16.336 C24.481,15.379 25.75,13.451 25.75,11.229 C25.75,8.059 23.171,5.479 20,5.479 C16.829,5.479 14.25,8.059 14.25,11.229 C14.25,13.46 15.529,15.393 17.391,16.346 C16.318,16.652 15.303,17.153 14.351,17.845 L8.5,14.979 L2,18.17 L2,26.788 L8.5,29.979 L14.618,26.979 L30,26.979 L30,26.479 Z" id="AWS-IQ_32_Squid"></path>
        </g>
    </g>
</svg>