<svg id="Artwork" xmlns="http://www.w3.org/2000/svg" width="24px" height="24px" viewBox="0 0 24 24"><defs><style>.cls-1{fill:#669df6;}.cls-2{fill:#4285f4;}.cls-3{fill:#aecbfa;}</style></defs><path class="cls-1" d="M12,2.25l-.4.27v1l.4.27h0A3.43,3.43,0,0,1,15.43,7.2V8.76A7.22,7.22,0,0,1,17,9.81V7.21A5,5,0,0,0,12,2.25Z"/><path class="cls-2" d="M15.93,18.77l-1.28-1.28a3.72,3.72,0,0,0,.49-.81,3.41,3.41,0,0,0,0-2.66,3.55,3.55,0,0,0-.74-1.1,3.37,3.37,0,0,0-1.09-.73,2.81,2.81,0,0,0-.56-.18V10.19l-1.53,0V12a3.58,3.58,0,0,0-.55.19,3.51,3.51,0,0,0-1.09.72A3.37,3.37,0,0,0,8.85,14a3.65,3.65,0,0,0-.18.56h1.59a1.94,1.94,0,0,1,.4-.58,1.86,1.86,0,0,1,.6-.4,1.89,1.89,0,0,1,2.07.4,1.74,1.74,0,0,1,.41.6,1.89,1.89,0,0,1-.41,2.08,1.86,1.86,0,0,1-.6.4,1.91,1.91,0,0,1-2.08-.4,2.27,2.27,0,0,1-.39-.58H8.68a2.81,2.81,0,0,0,.18.56A3.42,3.42,0,0,0,12,18.73a3.56,3.56,0,0,0,1.33-.28l.11-.06,1.32,1.33Z"/><path class="cls-3" d="M12,2.25A5,5,0,0,0,7,7.21H7V9.82A7.27,7.27,0,0,1,8.56,8.76V7.2A3.43,3.43,0,0,1,12,3.77Z"/><path class="cls-1" d="M13,10.5a4.33,4.33,0,0,1,.93.28,3.93,3.93,0,0,1,.83.45l.22.16,1.08-1.09A5.22,5.22,0,0,0,15.6,10a5.74,5.74,0,0,0-1.09-.59A6,6,0,0,0,13.28,9,6.14,6.14,0,0,0,12,8.88L11.8,9v1.41l.19.05a3.72,3.72,0,0,1,.76,0Z"/><path class="cls-1" d="M18.32,14a5.76,5.76,0,0,0-.38-1.22,6.28,6.28,0,0,0-.59-1.08c-.07-.11-.16-.22-.23-.32L16,12.5a.47.47,0,0,1,.06.09,5.16,5.16,0,0,1,.46.83,4.89,4.89,0,0,1-.82,5.15,5.19,5.19,0,0,1-1.17.94,5.62,5.62,0,0,1-.64.34,5,5,0,0,1-.93.28l-.24,0V21.7a4.37,4.37,0,0,0,.54-.08,5.76,5.76,0,0,0,1.22-.38,6.37,6.37,0,0,0,1.09-.59,6.12,6.12,0,0,0,1-.79,6.77,6.77,0,0,0,.8-.89A6.77,6.77,0,0,0,18,17.88a7.2,7.2,0,0,0,.38-1.22,7,7,0,0,0,.13-1.3A7.3,7.3,0,0,0,18.32,14Z"/><path class="cls-3" d="M7.9,12.59a4.68,4.68,0,0,1,1.33-1.33,4.44,4.44,0,0,1,.83-.45,4.33,4.33,0,0,1,.93-.28,5.57,5.57,0,0,1,1-.11V8.88A6.47,6.47,0,0,0,10.68,9a5.85,5.85,0,0,0-1.21.38,6.86,6.86,0,0,0-1.1.59,6.53,6.53,0,0,0-.95.79,6.63,6.63,0,0,0-.78,1,6.37,6.37,0,0,0-.59,1.09A6.53,6.53,0,0,0,5.67,14a6.69,6.69,0,0,0,0,2.6,5.76,5.76,0,0,0,.38,1.22A6.37,6.37,0,0,0,6.64,19a6.46,6.46,0,0,0,.78.95,6.12,6.12,0,0,0,1,.79,5.74,5.74,0,0,0,1.09.59,5.76,5.76,0,0,0,1.22.38c.17,0,.35.06.53.09V20.21l-.23,0a4.33,4.33,0,0,1-.93-.28,4.44,4.44,0,0,1-.83-.45A5,5,0,0,1,7.9,18.11a5.73,5.73,0,0,1-.46-.84,4.92,4.92,0,0,1,0-3.84A3.81,3.81,0,0,1,7.9,12.59Z"/></svg>