<?xml version="1.0" encoding="UTF-8"?>
<svg width="64px" height="64px" viewBox="0 0 64 64" version="1.1" xmlns="http://www.w3.org/2000/svg" xmlns:xlink="http://www.w3.org/1999/xlink">
    <!-- Generator: Sketch 64 (93537) - https://sketch.com -->
    <title>Icon-Architecture/48/Arch_Amazon-Cloud-Directory_48</title>
    <desc>Created with Sketch.</desc>
    <defs>
        <linearGradient x1="0%" y1="100%" x2="100%" y2="0%" id="linearGradient-1">
            <stop stop-color="#4D27A8" offset="0%"></stop>
            <stop stop-color="#A166FF" offset="100%"></stop>
        </linearGradient>
    </defs>
    <g id="Icon-Architecture/48/Arch_Amazon-Cloud-Directory_48" stroke="none" stroke-width="1" fill="none" fill-rule="evenodd">
        <g id="Icon-Architecture-BG/48/Networking-Content-Delivery" fill="url(#linearGradient-1)">
            <rect id="Rectangle" x="0" y="0" width="64" height="64"></rect>
        </g>
        <path d="M40,46 C39.173,46 38.5,45.327 38.5,44.5 C38.5,43.673 39.173,43 40,43 C40.827,43 41.5,43.673 41.5,44.5 C41.5,45.327 40.827,46 40,46 M33.5,44.5 C33.5,45.327 32.827,46 32,46 C31.173,46 30.5,45.327 30.5,44.5 C30.5,43.673 31.173,43 32,43 C32.827,43 33.5,43.673 33.5,44.5 M25.5,44.5 C25.5,45.327 24.827,46 24,46 C23.173,46 22.5,45.327 22.5,44.5 C22.5,43.673 23.173,43 24,43 C24.827,43 25.5,43.673 25.5,44.5 M29,29 C29,27.346 30.346,26 32,26 C33.654,26 35,27.346 35,29 C35,30.654 33.654,32 32,32 C30.346,32 29,30.654 29,29 M41,41.163 L41,37 C41,36.448 40.553,36 40,36 L33,36 L33,33.899 C35.279,33.434 37,31.415 37,29 C37,26.243 34.757,24 32,24 C29.243,24 27,26.243 27,29 C27,31.415 28.721,33.434 31,33.899 L31,36 L24,36 C23.447,36 23,36.448 23,37 L23,41.163 C21.56,41.597 20.5,42.92 20.5,44.5 C20.5,46.43 22.07,48 24,48 C25.93,48 27.5,46.43 27.5,44.5 C27.5,42.92 26.44,41.597 25,41.163 L25,38 L31,38 L31,41.163 C29.56,41.597 28.5,42.92 28.5,44.5 C28.5,46.43 30.07,48 32,48 C33.93,48 35.5,46.43 35.5,44.5 C35.5,42.92 34.44,41.597 33,41.163 L33,38 L39,38 L39,41.163 C37.56,41.597 36.5,42.92 36.5,44.5 C36.5,46.43 38.07,48 40,48 C41.93,48 43.5,46.43 43.5,44.5 C43.5,42.92 42.44,41.597 41,41.163 M32,51.234 C23.862,51.234 19,49.37 19,47.568 L19,19.107 C21.768,21.002 26.991,22 32,22 C37.009,22 42.232,21.002 45,19.107 L45,47.568 C45,49.37 40.138,51.234 32,51.234 M32,12 C39.936,12 45,14.369 45,16 C45,17.631 39.936,20 32,20 C24.064,20 19,17.631 19,16 C19,14.369 24.064,12 32,12 M32,10 C24.729,10 17,12.103 17,16 L17,47.568 C17,51.746 24.749,53.234 32,53.234 C39.251,53.234 47,51.746 47,47.568 L47,16 C47,12.103 39.271,10 32,10" id="Amazon-Cloud-Directory_Icon_48_Squid" fill="#FFFFFF"></path>
    </g>
</svg>