<?xml version="1.0" encoding="UTF-8"?>
<svg width="64px" height="64px" viewBox="0 0 64 64" version="1.1" xmlns="http://www.w3.org/2000/svg" xmlns:xlink="http://www.w3.org/1999/xlink">
    <!-- Generator: Sketch 64 (93537) - https://sketch.com -->
    <title>Icon-Architecture/48/Arch_AWS-PrivateLink_48</title>
    <desc>Created with Sketch.</desc>
    <defs>
        <linearGradient x1="0%" y1="100%" x2="100%" y2="0%" id="linearGradient-1">
            <stop stop-color="#4D27A8" offset="0%"></stop>
            <stop stop-color="#A166FF" offset="100%"></stop>
        </linearGradient>
    </defs>
    <g id="Icon-Architecture/48/Arch_AWS-PrivateLink_48" stroke="none" stroke-width="1" fill="none" fill-rule="evenodd">
        <g id="Icon-Architecture-BG/48/Networking-Content-Delivery" fill="url(#linearGradient-1)">
            <rect id="Rectangle" x="0" y="0" width="64" height="64"></rect>
        </g>
        <path d="M33.522,32.7371857 C34.475,33.7955054 35,35.1303409 35,36.4950162 C35,39.6978258 32.756,42.0213546 29.667,42.0213546 L23.444,42.0213546 C20.34,42.0213546 18,39.6461034 18,36.4950162 C18,33.3578544 20.29,31.0800799 23.444,31.0800799 L26.555,31.0800799 L26.555,33.0694026 L23.444,33.0694026 C21.416,33.0694026 20,34.477843 20,36.4950162 C20,38.5440186 21.448,40.032032 23.444,40.032032 L29.667,40.032032 C31.629,40.032032 33,38.5778371 33,36.4950162 C33,35.6207089 32.656,34.7573429 32.032,34.0640639 L33.522,32.7371857 Z M45,35.0587253 C45,38.7946733 41.949,41.0266933 39,41.0266933 L35.888,41.0266933 L35.888,39.0373706 L39,39.0373706 C40.965,39.0373706 43,37.5493573 43,35.0587253 C43,32.5680933 40.965,31.0800799 39,31.0800799 L32.777,31.0800799 C30.764,31.0800799 29,32.8873796 29,34.9483179 C29,35.4774777 29.364,36.1011304 29.684,36.6521727 L29.754,36.7715321 L28.022,37.7661934 L27.955,37.6498181 C27.529,36.9207313 27,36.0126055 27,34.9483179 C27,31.8280652 29.699,29.0907572 32.777,29.0907572 L39,29.0907572 C41.949,29.0907572 45,31.3227773 45,35.0587253 L45,35.0587253 Z M45.439,44.0106773 L18.561,44.0106773 C15.017,44.0076933 12.202,41.5031361 12.012,38.1849459 C12.003,38.0327627 12,37.8766008 12,37.717455 C12,33.4682618 15.059,32.0339601 16.938,31.5545334 C16.957,31.5515494 16.974,31.5485654 16.993,31.5435921 C17.494,31.4311954 17.828,30.9577366 17.763,30.4504593 C17.716,30.0744773 17.692,29.6865594 17.692,29.2966521 C17.692,25.8262787 20.19,22.0903307 23.379,20.7922977 C28.927,18.5334218 32.859,21.5014912 34.292,22.8810865 C35.455,24.0030645 36.363,25.4383608 36.991,27.1461943 C37.117,27.4873632 37.418,27.7330445 37.78,27.7877509 C38.146,27.8404679 38.502,27.6972367 38.725,27.4087849 C39.624,26.2390632 41.075,25.7477005 42.429,26.1575009 C44.041,26.6468743 45.043,28.2303752 45.18,30.501187 C45.208,30.9517686 45.536,31.3277506 45.981,31.4162754 C49.974,32.2179725 52,34.3584837 52,37.7801187 C52,43.201023 47.889,44.0106773 45.439,44.0106773 L45.439,44.0106773 Z M47.102,29.6298637 C46.726,26.9124489 45.233,24.9290942 43.013,24.2557085 C41.369,23.7563885 39.637,24.0796534 38.281,25.0763041 C37.602,23.6788049 36.732,22.4643234 35.684,21.4537475 C32.113,18.0092353 27.23,17.0742536 22.622,18.9511795 C18.671,20.5595469 15.692,25.0076724 15.692,29.2966521 C15.692,29.4806645 15.697,29.6636822 15.705,29.8457052 C13.517,30.5807599 10,32.566104 10,37.717455 C10,37.9163873 10.005,38.1093516 10.016,38.2973426 C10.265,42.6837991 13.938,45.9960214 18.56,46 L45.439,46 C47.447,46 54,45.4071818 54,37.7801187 C54,33.6254183 51.558,30.753831 47.102,29.6298637 L47.102,29.6298637 Z" id="AWS-PrivateLink_Icon_48_Squid" fill="#FFFFFF"></path>
    </g>
</svg>