<?xml version="1.0" encoding="UTF-8"?>
<svg width="64px" height="64px" viewBox="0 0 64 64" version="1.1" xmlns="http://www.w3.org/2000/svg" xmlns:xlink="http://www.w3.org/1999/xlink">
    <!-- Generator: Sketch 64 (93537) - https://sketch.com -->
    <title>Icon-Architecture/48/Arch_Amazon-CloudFront_48</title>
    <desc>Created with Sketch.</desc>
    <defs>
        <linearGradient x1="0%" y1="100%" x2="100%" y2="0%" id="linearGradient-1">
            <stop stop-color="#4D27A8" offset="0%"></stop>
            <stop stop-color="#A166FF" offset="100%"></stop>
        </linearGradient>
    </defs>
    <g id="Icon-Architecture/48/Arch_Amazon-CloudFront_48" stroke="none" stroke-width="1" fill="none" fill-rule="evenodd">
        <g id="Icon-Architecture-BG/48/Networking-Content-Delivery" fill="url(#linearGradient-1)">
            <rect id="Rectangle" x="0" y="0" width="64" height="64"></rect>
        </g>
        <path d="M41.5,43.5 C40.397,43.5 39.5,42.603 39.5,41.5 C39.5,40.397 40.397,39.5 41.5,39.5 C42.603,39.5 43.5,40.397 43.5,41.5 C43.5,42.603 42.603,43.5 41.5,43.5 L41.5,43.5 Z M41.5,37.5 C39.294,37.5 37.5,39.294 37.5,41.5 C37.5,43.706 39.294,45.5 41.5,45.5 C43.706,45.5 45.5,43.706 45.5,41.5 C45.5,39.294 43.706,37.5 41.5,37.5 L41.5,37.5 Z M22.5,32.5 C21.397,32.5 20.5,31.603 20.5,30.5 C20.5,29.397 21.397,28.5 22.5,28.5 C23.603,28.5 24.5,29.397 24.5,30.5 C24.5,31.603 23.603,32.5 22.5,32.5 L22.5,32.5 Z M22.5,26.5 C20.294,26.5 18.5,28.294 18.5,30.5 C18.5,32.706 20.294,34.5 22.5,34.5 C24.706,34.5 26.5,32.706 26.5,30.5 C26.5,28.294 24.706,26.5 22.5,26.5 L22.5,26.5 Z M45.389,47.124 C45.168,46.607 44.936,46.094 44.685,45.591 L42.896,46.486 C43.17,47.035 43.42,47.599 43.656,48.165 C42.82,48.762 41.943,49.288 41.028,49.74 C41.384,48.865 41.694,47.975 41.974,47.012 L40.054,46.454 C39.564,48.134 38.985,49.581 38.184,51.133 C36.357,51.698 34.452,52 32.5,52 C29.465,52 26.567,51.314 23.871,49.976 C22.503,46.615 21.838,43.534 21.838,40.559 C21.838,39.267 22.063,38.196 22.322,36.956 C22.386,36.652 22.45,36.343 22.514,36.024 L20.551,35.638 C20.49,35.949 20.427,36.25 20.365,36.545 C20.094,37.838 19.838,39.06 19.838,40.559 C19.838,43.074 20.274,45.644 21.154,48.354 C16.072,44.724 13,38.854 13,32.5 C13,32.389 13.01,32.273 13.012,32.161 C14.642,31.799 16.123,31.614 17.854,31.571 L17.804,29.572 C16.169,29.612 14.694,29.779 13.163,30.084 C14.081,22.683 19.212,16.394 26.323,14.019 C27.873,14.818 29.02,15.524 30.135,16.37 L31.344,14.776 C30.646,14.248 29.934,13.771 29.146,13.299 C30.244,13.108 31.363,13 32.5,13 C35.032,13 37.532,13.494 39.849,14.439 C39.342,14.593 38.82,14.763 38.243,14.971 L38.923,16.852 C40.316,16.349 41.408,16.04 42.571,15.821 C48.399,19.341 52,25.667 52,32.5 C52,38.156 49.605,43.416 45.389,47.124 L45.389,47.124 Z M43.008,13.749 C39.826,11.95 36.192,11 32.5,11 C30.392,11 28.324,11.301 26.357,11.895 C17.723,14.464 11.568,22.23 11.045,31.196 C11.01,31.625 11,32.062 11,32.5 C11,40.444 15.352,47.707 22.354,51.455 C25.459,53.12 28.968,54 32.5,54 C34.892,54 37.229,53.61 39.437,52.843 C41.684,52.086 43.773,50.963 45.646,49.507 C50.955,45.399 54,39.2 54,32.5 C54,24.732 49.787,17.546 43.008,13.749 L43.008,13.749 Z M38.384,37.411 L37.003,38.858 C34.022,36.015 31.047,34.146 27.637,32.975 L28.287,31.083 C31.979,32.351 35.188,34.362 38.384,37.411 L38.384,37.411 Z M38.444,22.364 C41.282,26.692 42.88,31.444 43.193,36.488 L41.197,36.612 C40.905,31.919 39.417,27.495 36.772,23.46 L38.444,22.364 Z M26.451,26.797 L24.773,25.708 C26.316,23.332 27.639,21.758 29.336,20.278 L30.65,21.786 C29.103,23.135 27.886,24.587 26.451,26.797 L26.451,26.797 Z M34.5,16.5 C35.603,16.5 36.5,17.397 36.5,18.5 C36.5,19.603 35.603,20.5 34.5,20.5 C33.397,20.5 32.5,19.603 32.5,18.5 C32.5,17.397 33.397,16.5 34.5,16.5 L34.5,16.5 Z M34.5,22.5 C36.706,22.5 38.5,20.706 38.5,18.5 C38.5,16.294 36.706,14.5 34.5,14.5 C32.294,14.5 30.5,16.294 30.5,18.5 C30.5,20.706 32.294,22.5 34.5,22.5 L34.5,22.5 Z" id="Amazon-CloudFront_Icon_48_Squid" fill="#FFFFFF"></path>
    </g>
</svg>