<?xml version="1.0" encoding="UTF-8"?>
<svg width="64px" height="64px" viewBox="0 0 64 64" version="1.1" xmlns="http://www.w3.org/2000/svg" xmlns:xlink="http://www.w3.org/1999/xlink">
    <!-- Generator: Sketch 64 (93537) - https://sketch.com -->
    <title>Icon-Architecture/48/Arch_AWS-App-Mesh_48</title>
    <desc>Created with Sketch.</desc>
    <defs>
        <linearGradient x1="0%" y1="100%" x2="100%" y2="0%" id="linearGradient-1">
            <stop stop-color="#4D27A8" offset="0%"></stop>
            <stop stop-color="#A166FF" offset="100%"></stop>
        </linearGradient>
    </defs>
    <g id="Icon-Architecture/48/Arch_AWS-App-Mesh_48" stroke="none" stroke-width="1" fill="none" fill-rule="evenodd">
        <g id="Icon-Architecture-BG/48/Networking-Content-Delivery" fill="url(#linearGradient-1)">
            <rect id="Rectangle" x="0" y="0" width="64" height="64"></rect>
        </g>
        <path d="M32.073,13.1710002 C31.805,13.4400002 31.369,13.4380002 31.101,13.1710002 C30.834,12.9030002 30.834,12.4670002 31.101,12.2000002 C31.235,12.0660002 31.411,11.9990002 31.588,11.9990002 C31.763,11.9990002 31.939,12.0660002 32.073,12.2000002 C32.341,12.4670002 32.341,12.9030002 32.073,13.1710002 L32.073,13.1710002 Z M33.487,10.7860002 C32.44,9.73700018 30.736,9.73900018 29.687,10.7860002 C29.114,11.3590002 28.866,12.1280002 28.92,12.8790002 L25.159,14.9470002 L26.122,16.7000002 L29.8,14.6770002 C30.308,15.1330002 30.945,15.3700002 31.588,15.3700002 C32.236,15.3700002 32.881,15.1290002 33.391,14.6630002 L37.896,17.1500002 L38.863,15.3990002 L34.256,12.8560002 C34.303,12.1120002 34.054,11.3530002 33.487,10.7860002 L33.487,10.7860002 Z M47.974,42.9760002 C47.715,43.2350002 47.263,43.2350002 47.004,42.9760002 C46.874,42.8460002 46.802,42.6740002 46.802,42.4910002 C46.802,42.3070002 46.874,42.1350002 47.004,42.0050002 C47.137,41.8710002 47.313,41.8040002 47.489,41.8040002 C47.665,41.8040002 47.841,41.8710002 47.974,42.0050002 C48.242,42.2730002 48.242,42.7090002 47.974,42.9760002 L47.974,42.9760002 Z M48.55,40.0270002 L48.55,36.8150002 L46.55,36.8150002 L46.55,39.9800002 C46.2,40.1100002 45.87,40.3100002 45.59,40.5900002 C45.082,41.0980002 44.802,41.7730002 44.802,42.4910002 C44.802,42.7540002 44.852,43.0070002 44.925,43.2540002 L41.38,45.0350002 L42.278,46.8220002 L46.216,44.8430002 C46.604,45.0540002 47.035,45.1770002 47.489,45.1770002 C48.207,45.1770002 48.882,44.8980002 49.388,44.3900002 C50.435,43.3430002 50.435,41.6390002 49.388,40.5910002 C49.14,40.3430002 48.854,40.1580002 48.55,40.0270002 L48.55,40.0270002 Z M16.172,42.9760002 C15.904,43.2430002 15.468,43.2440002 15.2,42.9760002 C14.932,42.7090002 14.932,42.2730002 15.2,42.0050002 C15.334,41.8710002 15.51,41.8040002 15.685,41.8040002 C15.861,41.8040002 16.038,41.8710002 16.172,42.0050002 C16.439,42.2730002 16.439,42.7090002 16.172,42.9760002 L16.172,42.9760002 Z M17.586,40.5910002 L17.586,40.5900002 C17.285,40.2900002 16.927,40.0860002 16.55,39.9580002 L16.55,36.8150002 L14.55,36.8150002 L14.55,40.0670002 C14.274,40.1950002 14.012,40.3640002 13.786,40.5910002 C12.738,41.6380002 12.738,43.3430002 13.786,44.3900002 C14.309,44.9140002 14.997,45.1760002 15.685,45.1760002 C16.126,45.1760002 16.561,45.0570002 16.959,44.8420002 L20.677,46.7080002 L21.574,44.9200002 L18.249,43.2520002 C18.518,42.3380002 18.305,41.3110002 17.586,40.5910002 L17.586,40.5910002 Z M46.55,34.8150002 L48.55,34.8150002 L48.55,29.8150002 L46.55,29.8150002 L46.55,34.8150002 Z M14.55,34.8150002 L16.55,34.8150002 L16.55,29.8150002 L14.55,29.8150002 L14.55,34.8150002 Z M32.073,51.5050002 C31.813,51.7650002 31.361,51.7640002 31.101,51.5050002 C30.834,51.2380002 30.834,50.8020002 31.101,50.5350002 C31.235,50.4010002 31.412,50.3340002 31.588,50.3340002 C31.763,50.3340002 31.939,50.4000002 32.073,50.5340002 C32.341,50.8020002 32.341,51.2380002 32.073,51.5050002 L32.073,51.5050002 Z M37.806,46.8320002 L33.398,49.0480002 C33.143,48.8140002 32.857,48.6340002 32.55,48.5170002 L32.55,45.4790002 L30.55,45.4790002 L30.55,48.5450002 C30.274,48.6600002 30.018,48.8290002 29.787,49.0390002 L25.149,46.7130002 L24.253,48.5010002 L28.919,50.8410002 C28.87,51.5880002 29.118,52.3510002 29.687,52.9200002 C30.195,53.4270002 30.87,53.7070002 31.588,53.7070002 C32.305,53.7070002 32.98,53.4270002 33.487,52.9200002 C34.052,52.3540002 34.302,51.5970002 34.257,50.8550002 L38.705,48.6190002 L37.806,46.8320002 Z M47.004,21.3400002 C47.134,21.2110002 47.305,21.1390002 47.489,21.1390002 C47.673,21.1390002 47.844,21.2110002 47.974,21.3400002 C48.242,21.6080002 48.242,22.0440002 47.974,22.3120002 C47.707,22.5790002 47.271,22.5800002 47.004,22.3110002 C46.874,22.1820002 46.802,22.0090002 46.802,21.8260002 C46.802,21.6430002 46.874,21.4700002 47.004,21.3400002 L47.004,21.3400002 Z M41.509,26.8010002 L46.267,24.2050002 C46.36,24.2530002 46.453,24.3000002 46.55,24.3370002 L46.55,27.8150002 L48.55,27.8150002 L48.55,24.2890002 C48.854,24.1580002 49.14,23.9740002 49.388,23.7260002 C50.435,22.6780002 50.435,20.9740002 49.388,19.9260002 C48.567,19.1040002 47.253,18.9600002 46.242,19.4710002 L42.365,17.3310002 L41.398,19.0820002 L44.934,21.0330002 C44.855,21.2880002 44.802,21.5510002 44.802,21.8250002 C44.802,22.1110002 44.858,22.3850002 44.943,22.6490002 L40.552,25.0460002 L41.509,26.8010002 Z M31.101,31.1320002 C31.235,30.9980002 31.411,30.9310002 31.588,30.9310002 C31.763,30.9310002 31.939,30.9980002 32.073,31.1310002 C32.341,31.3990002 32.341,31.8350002 32.073,32.1030002 C31.805,32.3720002 31.369,32.3700002 31.101,32.1030002 C30.834,31.8350002 30.834,31.3990002 31.101,31.1320002 L31.101,31.1320002 Z M37.04,26.9620002 L32.839,29.2540002 C32.055,28.8410002 31.12,28.8410002 30.338,29.2540002 L25.607,26.6720002 L24.648,28.4280002 L29.034,30.8220002 C28.75,31.7440002 28.959,32.7880002 29.687,33.5170002 C29.942,33.7720002 30.236,33.9620002 30.55,34.0920002 L30.55,41.4790002 L32.55,41.4790002 L32.55,34.1200002 C32.891,33.9900002 33.213,33.7920002 33.487,33.5170002 C34.216,32.7880002 34.425,31.7440002 34.139,30.8210002 L37.997,28.7170002 L37.04,26.9620002 Z M15.2,21.3400002 C15.33,21.2110002 15.502,21.1390002 15.685,21.1390002 C15.869,21.1390002 16.042,21.2110002 16.172,21.3410002 C16.439,21.6090002 16.439,22.0440002 16.172,22.3110002 C15.904,22.5790002 15.468,22.5790002 15.2,22.3120002 C14.932,22.0440002 14.932,21.6080002 15.2,21.3400002 L15.2,21.3400002 Z M21.653,16.8760002 L16.934,19.4710002 C15.923,18.9600002 14.608,19.1040002 13.786,19.9260002 C12.739,20.9730002 12.739,22.6780002 13.786,23.7260002 C14.012,23.9530002 14.274,24.1210002 14.55,24.2490002 L14.55,27.8150002 L16.55,27.8150002 L16.55,24.3580002 C16.673,24.3170002 16.79,24.2640002 16.907,24.2040002 L21.137,26.5130002 L22.094,24.7570002 L18.23,22.6490002 C18.399,22.1240002 18.401,21.5620002 18.24,21.0360002 L22.618,18.6280002 L21.653,16.8760002 Z" id="AWS-App-Mesh_Icon_48_Squid" fill="#FFFFFF"></path>
    </g>
</svg>