<?xml version="1.0" encoding="UTF-8"?>
<svg width="64px" height="64px" viewBox="0 0 64 64" version="1.1" xmlns="http://www.w3.org/2000/svg" xmlns:xlink="http://www.w3.org/1999/xlink">
    <!-- Generator: Sketch 64 (93537) - https://sketch.com -->
    <title>Icon-Architecture/48/Arch_Elastic-Load-Balancing_48</title>
    <desc>Created with Sketch.</desc>
    <defs>
        <linearGradient x1="0%" y1="100%" x2="100%" y2="0%" id="linearGradient-1">
            <stop stop-color="#4D27A8" offset="0%"></stop>
            <stop stop-color="#A166FF" offset="100%"></stop>
        </linearGradient>
    </defs>
    <g id="Icon-Architecture/48/Arch_Elastic-Load-Balancing_48" stroke="none" stroke-width="1" fill="none" fill-rule="evenodd">
        <g id="Icon-Architecture-BG/48/Networking-Content-Delivery" fill="url(#linearGradient-1)">
            <rect id="Rectangle" x="0" y="0" width="64" height="64"></rect>
        </g>
        <path d="M23.5,42 C17.71,42 13,37.29 13,31.5 C13,25.71 17.71,21 23.5,21 C29.29,21 34,25.71 34,31.5 C34,37.29 29.29,42 23.5,42 M48,48 C48,49.654 46.654,51 45,51 C43.346,51 42,49.654 42,48 C42,46.346 43.346,45 45,45 C46.654,45 48,46.346 48,48 M45,13 C46.654,13 48,14.346 48,16 C48,17.654 46.654,19 45,19 C43.346,19 42,17.654 42,16 C42,14.346 43.346,13 45,13 M48,29 C49.654,29 51,30.346 51,32 C51,33.654 49.654,35 48,35 C46.346,35 45,33.654 45,32 C45,30.346 46.346,29 48,29 M35.901,33 L43.102,33 C43.565,35.279 45.586,37 48,37 C50.757,37 53,34.757 53,32 C53,29.243 50.757,27 48,27 C45.586,27 43.565,28.721 43.102,31 L35.975,31 C35.916,29.541 35.614,28.146 35.096,26.856 L42.799,20.467 C43.466,20.797 44.206,21 45,21 C47.757,21 50,18.757 50,16 C50,13.243 47.757,11 45,11 C42.243,11 40,13.243 40,16 C40,17.224 40.459,18.331 41.191,19.201 L34.172,25.024 C31.977,21.42 28.021,19 23.5,19 C16.607,19 11,24.607 11,31.5 C11,38.393 16.607,44 23.5,44 C27.743,44 31.493,41.871 33.754,38.629 L41.191,44.799 C40.459,45.669 40,46.776 40,48 C40,50.757 42.243,53 45,53 C47.757,53 50,50.757 50,48 C50,45.243 47.757,43 45,43 C44.206,43 43.466,43.203 42.799,43.533 L34.77,36.873 C35.344,35.673 35.736,34.373 35.901,33" id="Elastic-Load-Balancing_Icon_48_Squid" fill="#FFFFFF"></path>
    </g>
</svg>