<?xml version="1.0" encoding="UTF-8"?>
<svg width="64px" height="64px" viewBox="0 0 64 64" version="1.1" xmlns="http://www.w3.org/2000/svg" xmlns:xlink="http://www.w3.org/1999/xlink">
    <!-- Generator: Sketch 64 (93537) - https://sketch.com -->
    <title>Icon-Architecture/48/Arch_AWS-Transit-Gateway_48</title>
    <desc>Created with Sketch.</desc>
    <defs>
        <linearGradient x1="0%" y1="100%" x2="100%" y2="0%" id="linearGradient-1">
            <stop stop-color="#4D27A8" offset="0%"></stop>
            <stop stop-color="#A166FF" offset="100%"></stop>
        </linearGradient>
    </defs>
    <g id="Icon-Architecture/48/Arch_AWS-Transit-Gateway_48" stroke="none" stroke-width="1" fill="none" fill-rule="evenodd">
        <g id="Icon-Architecture-BG/48/Networking-Content-Delivery" fill="url(#linearGradient-1)">
            <rect id="Rectangle" x="0" y="0" width="64" height="64"></rect>
        </g>
        <path d="M34.885,50.757 C35.572,50.039 36,49.07 36,48 C36,46.142 34.721,44.59 33,44.142 L33,38.92 C36.059,38.48 38.48,36.059 38.92,33 L44.143,33 C44.589,34.72 46.142,36 48,36 C49.071,36 50.039,35.572 50.757,34.885 C49.505,43.05 43.051,49.505 34.885,50.757 M13.243,34.885 C13.961,35.572 14.93,36 16,36 C17.859,36 19.411,34.72 19.858,33 L25.08,33 C25.521,36.059 27.942,38.48 31,38.92 L31,44.142 C29.28,44.59 28,46.142 28,48 C28,49.07 28.428,50.039 29.115,50.757 C20.949,49.505 14.495,43.05 13.243,34.885 M18,32 C18,33.103 17.103,34 16,34 C14.898,34 14,33.103 14,32 C14,30.897 14.898,30 16,30 C17.103,30 18,30.897 18,32 M29.115,13.243 C28.428,13.962 28,14.93 28,16 C28,17.859 29.28,19.411 31,19.858 L31,25.08 C27.942,25.521 25.521,27.941 25.08,31 L19.858,31 C19.411,29.28 17.859,28 16,28 C14.93,28 13.961,28.428 13.243,29.115 C14.495,20.95 20.949,14.496 29.115,13.243 M32,14 C33.103,14 34,14.897 34,16 C34,17.103 33.103,18 32,18 C30.898,18 30,17.103 30,16 C30,14.897 30.898,14 32,14 M32,37 C29.243,37 27,34.757 27,32 C27,29.243 29.243,27 32,27 C34.757,27 37,29.243 37,32 C37,34.757 34.757,37 32,37 M32,50 C30.898,50 30,49.103 30,48 C30,46.897 30.898,46 32,46 C33.103,46 34,46.897 34,48 C34,49.103 33.103,50 32,50 M50,32 C50,33.103 49.103,34 48,34 C46.898,34 46,33.103 46,32 C46,30.897 46.898,30 48,30 C49.103,30 50,30.897 50,32 M50.757,29.115 C50.039,28.428 49.071,28 48,28 C46.142,28 44.589,29.28 44.143,31 L38.92,31 C38.48,27.941 36.059,25.521 33,25.08 L33,19.858 C34.721,19.411 36,17.859 36,16 C36,14.93 35.572,13.962 34.885,13.243 C43.051,14.496 49.505,20.95 50.757,29.115 M32,11 C20.421,11 11,20.421 11,32 C11,43.58 20.421,53 32,53 C43.579,53 53,43.58 53,32 C53,20.421 43.579,11 32,11" id="AWS-Transit-Gateway_Icon_48_Squid" fill="#FFFFFF"></path>
    </g>
</svg>