<?xml version="1.0" encoding="UTF-8"?>
<svg width="64px" height="64px" viewBox="0 0 64 64" version="1.1" xmlns="http://www.w3.org/2000/svg" xmlns:xlink="http://www.w3.org/1999/xlink">
    <title>Icon-Architecture/48/Arch_AWS-Site-to-Site-VPN_48</title>
    <defs>
        <linearGradient x1="0%" y1="100%" x2="100%" y2="0%" id="linearGradient-1">
            <stop stop-color="#4D27A8" offset="0%"></stop>
            <stop stop-color="#A166FF" offset="100%"></stop>
        </linearGradient>
    </defs>
    <g id="Icon-Architecture/48/Arch_AWS-Site-to-Site-VPN_48" stroke="none" stroke-width="1" fill="none" fill-rule="evenodd">
        <g id="Rectangle" fill="url(#linearGradient-1)">
            <rect x="0" y="0" width="64" height="64"></rect>
        </g>
        <g id="Icon-Service/48/AWS-Site-to-Site-VPN_48" transform="translate(8.000000, 8.000000)" fill="#FFFFFF">
            <path d="M24.014,30 C25.117,30 26.014,30.897 26.014,32 C26.014,33.103 25.117,34 24.014,34 C22.911,34 22.014,33.103 22.014,32 C22.014,30.897 22.911,30 24.014,30 L24.014,30 Z M23.014,35.858 L23.014,40 L25.014,40 L25.014,35.858 C26.735,35.411 28.014,33.858 28.014,32 C28.014,29.794 26.22,28 24.014,28 C21.808,28 20.014,29.794 20.014,32 C20.014,33.858 21.293,35.411 23.014,35.858 L23.014,35.858 Z M45.428,16 L40.721,20.707 L39.307,19.293 L41.6,17 L6.428,17 L8.721,19.293 L7.307,20.707 L2.6,16 L7.307,11.293 L8.721,12.707 L6.428,15 L41.6,15 L39.307,12.707 L40.721,11.293 L45.428,16 Z M16.014,13 L14.014,13 L14.014,12 C14.014,6.486 18.5,2 24.014,2 C29.528,2 34.014,6.486 34.014,12 L34.014,13 L32.014,13 L32.014,12 C32.014,7.589 28.425,4 24.014,4 C19.603,4 16.014,7.589 16.014,12 L16.014,13 Z M11.014,44 L37.014,44 L37.014,24 L11.014,24 L11.014,44 Z M34.014,19 L32.014,19 L32.014,22 L16.014,22 L16.014,19 L14.014,19 L14.014,22 L9.014,22 L9.014,46 L39.014,46 L39.014,22 L34.014,22 L34.014,19 Z" id="AWS-Site-to-Site-VPN_48_Squid"></path>
        </g>
    </g>
</svg>