<?xml version="1.0" encoding="UTF-8"?>
<svg width="64px" height="64px" viewBox="0 0 64 64" version="1.1" xmlns="http://www.w3.org/2000/svg" xmlns:xlink="http://www.w3.org/1999/xlink">
    <!-- Generator: Sketch 64 (93537) - https://sketch.com -->
    <title>Icon-Architecture/48/Arch_AWS-VPN_48</title>
    <desc>Created with Sketch.</desc>
    <defs>
        <linearGradient x1="0%" y1="100%" x2="100%" y2="0%" id="linearGradient-1">
            <stop stop-color="#4D27A8" offset="0%"></stop>
            <stop stop-color="#A166FF" offset="100%"></stop>
        </linearGradient>
    </defs>
    <g id="Icon-Architecture/48/Arch_AWS-VPN_48" stroke="none" stroke-width="1" fill="none" fill-rule="evenodd">
        <g id="Icon-Architecture-BG/48/Networking-Content-Delivery" fill="url(#linearGradient-1)">
            <rect id="Rectangle" x="0" y="0" width="64" height="64"></rect>
        </g>
        <path d="M31.2452773,41.6543316 C31.2452773,42.0733316 31.5862773,42.4143316 32.0052773,42.4143316 C32.4242773,42.4143316 32.7652773,42.0733316 32.7652773,41.6543316 C32.7652773,41.2353316 32.4242773,40.8943316 32.0052773,40.8943316 C31.5862773,40.8943316 31.2452773,41.2353316 31.2452773,41.6543316 L31.2452773,41.6543316 Z M34.7652773,41.6543316 C34.7652773,42.8223316 34.0322773,43.8183316 33.0052773,44.2193316 L33.0052773,47.0143316 L31.0052773,47.0143316 L31.0052773,44.2193316 C29.9772773,43.8173316 29.2452773,42.8223316 29.2452773,41.6543316 C29.2452773,40.1323316 30.4832773,38.8943316 32.0052773,38.8943316 C33.5262773,38.8943316 34.7652773,40.1323316 34.7652773,41.6543316 L34.7652773,41.6543316 Z M39.0052773,48.0143316 L39.0052773,46.0143316 L37.0052773,46.0143316 L37.0052773,44.0143316 L39.0052773,44.0143316 L39.0052773,42.0143316 L37.0052773,42.0143316 L37.0052773,40.0143316 L39.0052773,40.0143316 L39.0052773,38.0143316 L25.0052773,38.0143316 L25.0052773,48.0143316 L39.0052773,48.0143316 Z M27.0052773,36.0143316 L37.0042773,36.0143316 L37.0052773,32.0143316 C37.0052773,31.1493316 36.4292773,30.1553316 35.4622773,29.3553316 C34.4482773,28.5153316 33.1572773,28.0143316 32.0082773,28.0143316 L32.0062773,28.0143316 C29.6232773,28.0143316 27.0062773,30.1073316 27.0052773,32.0143316 L27.0052773,36.0143316 Z M41.0052773,37.0143316 L41.0052773,49.0143316 C41.0052773,49.5663316 40.5582773,50.0143316 40.0052773,50.0143316 L24.0052773,50.0143316 C23.4522773,50.0143316 23.0052773,49.5663316 23.0052773,49.0143316 L23.0052773,37.0143316 C23.0052773,36.4623316 23.4522773,36.0143316 24.0052773,36.0143316 L25.0052773,36.0143316 L25.0052773,32.0143316 C25.0062773,28.9853316 28.4742773,26.0143316 32.0062773,26.0143316 L32.0082773,26.0143316 C33.6332773,26.0143316 35.3562773,26.6713316 36.7372773,27.8153316 C38.1792773,29.0083316 39.0062773,30.5393316 39.0052773,32.0143316 L39.0042773,36.0143316 L40.0052773,36.0143316 C40.5582773,36.0143316 41.0052773,36.4623316 41.0052773,37.0143316 L41.0052773,37.0143316 Z M54.0052773,34.0143316 C54.0052773,36.3903316 53.2872773,38.3063316 51.8712773,39.7073316 C49.5282773,42.0253316 46.1482773,42.0293316 45.9942773,42.0143316 L43.0042773,42.0103316 L43.0062773,40.0103316 L46.0062773,40.0143316 L46.0072773,40.0143316 C46.0702773,40.0143316 48.7452773,39.9963316 50.4752773,38.2743316 C51.4902773,37.2633316 52.0052773,35.8303316 52.0052773,34.0143316 C52.0052773,28.2223316 46.4932773,27.1083316 45.8642773,26.9993316 C45.5992773,26.9543316 45.3612773,26.8013316 45.2092773,26.5783316 C45.0562773,26.3553316 45.0002773,26.0803316 45.0552773,25.8153316 C45.4652773,23.7973316 44.2182773,22.4593316 42.9142773,21.8793316 C41.6232773,21.3043316 39.7842773,21.2873316 38.8092773,22.6083316 C38.5902773,22.9053316 38.2212773,23.0563316 37.8572773,23.0033316 C37.4912773,22.9483316 37.1852773,22.6963316 37.0622773,22.3473316 C36.4072773,20.4953316 35.4252773,18.8513316 34.2972773,17.7203316 C31.4452773,14.8603316 27.4732773,14.2093316 23.3942773,15.9353316 C19.9912773,17.3773316 17.0052773,21.5803316 17.0052773,24.9293316 C17.0052773,25.0753316 17.0002773,25.2583316 16.9942773,25.4553316 C16.9842773,25.8083316 16.9712773,26.2913316 16.9992773,26.5193316 C17.0582773,27.0183316 16.7402773,27.4843316 16.2542773,27.6083316 C16.2312773,27.6143316 16.2082773,27.6193316 16.1852773,27.6233316 C14.1062773,28.1683316 12.0052773,29.3283316 12.0052773,33.6503316 L12.0022773,33.8993316 C12.0002773,34.0623316 11.9952773,34.2473316 12.0032773,34.3663316 C12.2072773,37.6283316 14.4282773,39.6883316 18.0952773,40.0183316 L21.0062773,40.0163316 L21.0042773,42.0164201 L18.0042773,42.0143316 C13.2312773,41.5883316 10.2752773,38.7773316 10.0072773,34.4913316 C9.99727726,34.3333316 9.99927726,34.0863316 10.0032773,33.8683316 L10.0052773,33.6503316 C10.0052773,29.5723316 11.6362773,27.0283316 14.9832773,25.8973316 C14.9862773,25.7293316 14.9902773,25.5603316 14.9952773,25.3993316 C15.0002773,25.2233316 15.0052773,25.0603316 15.0052773,24.9293316 C15.0052773,20.7323316 18.4192773,15.8703316 22.6152773,14.0933316 C27.4092773,12.0643316 32.3072773,12.8913316 35.7132773,16.3083316 C36.7512773,17.3493316 37.6782773,18.7363316 38.3912773,20.3023316 C39.8572773,19.3523316 41.8632773,19.2223316 43.7262773,20.0513316 C45.9392773,21.0353316 47.2032773,23.0083316 47.1302773,25.2393316 C50.0362773,26.0553316 54.0052773,28.5853316 54.0052773,34.0143316 L54.0052773,34.0143316 Z" id="AWS-VPN_Icon_48_Squid" fill="#FFFFFF"></path>
    </g>
</svg>