<?xml version="1.0" encoding="UTF-8"?>
<svg width="64px" height="64px" viewBox="0 0 64 64" version="1.1" xmlns="http://www.w3.org/2000/svg" xmlns:xlink="http://www.w3.org/1999/xlink">
    <!-- Generator: Sketch 64 (93537) - https://sketch.com -->
    <title>Icon-Architecture/48/Arch_AWS-Direct-Connect_48</title>
    <desc>Created with Sketch.</desc>
    <defs>
        <linearGradient x1="0%" y1="100%" x2="100%" y2="0%" id="linearGradient-1">
            <stop stop-color="#4D27A8" offset="0%"></stop>
            <stop stop-color="#A166FF" offset="100%"></stop>
        </linearGradient>
    </defs>
    <g id="Icon-Architecture/48/Arch_AWS-Direct-Connect_48" stroke="none" stroke-width="1" fill="none" fill-rule="evenodd">
        <g id="Icon-Architecture-BG/48/Networking-Content-Delivery" fill="url(#linearGradient-1)">
            <rect id="Rectangle" x="0" y="0" width="64" height="64"></rect>
        </g>
        <path d="M24.3189526,48.2672241 L37.9388098,48.2672241 L37.9388098,43.5301039 C37.9388098,43.2439154 37.5847616,42.99275 37.1797063,42.99275 L25.0780561,42.99275 C24.6730009,42.99275 24.3189526,43.2439154 24.3189526,43.5301039 L24.3189526,48.2672241 Z M42.5424376,51.1050932 L42.5424376,54 L40.5421648,54 L40.5421648,51.1050932 C40.5421648,50.6017617 40.2591262,50.2685422 40.0731009,50.2685422 L22.1846615,50.2685422 C21.9986362,50.2685422 21.7155976,50.6017617 21.7155976,51.1050932 L21.7155976,54 L19.7153248,54 L19.7153248,51.1050932 C19.7153248,49.5400624 20.8234759,48.2672241 22.1846615,48.2672241 L22.3186798,48.2672241 L22.3186798,43.5301039 C22.3186798,42.1301819 23.5558485,40.9914318 25.0780561,40.9914318 L37.1797063,40.9914318 C38.7019139,40.9914318 39.9390826,42.1301819 39.9390826,43.5301039 L39.9390826,48.2672241 L40.0731009,48.2672241 C41.4342865,48.2672241 42.5424376,49.5400624 42.5424376,51.1050932 L42.5424376,51.1050932 Z M35.9975451,30.9027868 C36.8816657,30.9027868 37.5997636,30.183313 37.5997636,29.2987303 C37.5997636,28.4141477 36.8816657,27.6946738 35.9975451,27.6946738 C35.1134246,27.6946738 34.3933264,28.4141477 34.3933264,29.2987303 C34.3933264,30.183313 35.1134246,30.9027868 35.9975451,30.9027868 L35.9975451,30.9027868 Z M34.9974087,39.9907727 L34.9974087,32.7450002 C33.4982043,32.3087129 32.3930536,30.9378099 32.3930536,29.2987303 C32.3930536,27.3104207 34.009274,25.6933556 35.9975451,25.6933556 C37.983816,25.6933556 39.6000364,27.3104207 39.6000364,29.2987303 C39.6000364,30.9378099 38.4958858,32.3087129 36.9976815,32.7450002 L36.9976815,39.9907727 L34.9974087,39.9907727 Z M32.5490749,23.220727 C32.5490749,22.3361444 31.830977,21.6166705 30.9468564,21.6166705 C30.0627358,21.6166705 29.3426376,22.3361444 29.3426376,23.220727 C29.3426376,24.1053096 30.0627358,24.8247835 30.9468564,24.8247835 C31.830977,24.8247835 32.5490749,24.1053096 32.5490749,23.220727 L32.5490749,23.220727 Z M34.5493476,23.220727 C34.5493476,24.8387928 33.4722008,26.1946858 32.0040005,26.6499857 L32.0040005,39.9907727 L30.0037278,39.9907727 L30.0037278,26.6850088 C28.4745193,26.2677339 27.3423649,24.8798198 27.3423649,23.220727 C27.3423649,21.2324174 28.9595854,19.6153523 30.9468564,19.6153523 C32.9331272,19.6153523 34.5493476,21.2324174 34.5493476,23.220727 L34.5493476,23.220727 Z M25.9231713,27.6946738 C25.0390508,27.6946738 24.3189526,28.4141477 24.3189526,29.2987303 C24.3189526,30.183313 25.0390508,30.9027868 25.9231713,30.9027868 C26.8062918,30.9027868 27.5253898,30.183313 27.5253898,29.2987303 C27.5253898,28.4141477 26.8062918,27.6946738 25.9231713,27.6946738 L25.9231713,27.6946738 Z M25.9231713,25.6933556 C27.9094422,25.6933556 29.5256626,27.3104207 29.5256626,29.2987303 C29.5256626,30.9378099 28.421512,32.3087129 26.9233077,32.7450002 L26.9233077,39.9907727 L24.923035,39.9907727 L24.923035,32.7450002 C23.4228304,32.3087129 22.3186798,30.9378099 22.3186798,29.2987303 C22.3186798,27.3104207 23.9349002,25.6933556 25.9231713,25.6933556 L25.9231713,25.6933556 Z M54,29.8190731 C54,35.9351014 49.3573669,38.1135363 45.0127745,38.1135363 L38.9979543,38.1135363 L38.9979543,36.1122181 L45.0127745,36.1122181 C46.651998,36.1122181 51.9997272,35.6579189 51.9997272,29.8190731 C51.9997272,26.4328427 49.9334455,24.2994375 45.8578897,23.4808984 C45.412829,23.3918397 45.0837842,23.0135906 45.0567805,22.5592913 C44.8617539,19.2621196 42.9624949,18.0923492 41.394281,18.0923492 C40.338137,18.0923492 39.3470019,18.597682 38.6749102,19.4772613 C38.4548802,19.7674525 38.0978315,19.918552 37.7317816,19.8605138 C37.3707324,19.8064782 37.067691,19.5593154 36.9416739,19.21709 C36.2925854,17.4539287 35.3654589,15.9569427 34.2603082,14.8882387 C32.8421148,13.5083299 28.956585,10.5473796 23.4548348,12.8028652 C20.3464109,14.0757036 17.8190662,17.9122305 17.8190662,21.3544978 C17.8190662,21.7427535 17.8420694,22.1310093 17.8890758,22.5072571 C17.9520844,23.0115893 17.6280402,23.481899 17.1339728,23.6029788 C15.2167114,24.0712872 12.0002728,25.4942245 12.0002728,29.7590335 C12.0002728,29.9151363 12.0082739,30.0712391 12.0162749,30.2283426 C12.1982998,33.4704781 15.2637178,36.1122181 18.8492067,36.1122181 L22.97977,36.1122181 L22.97977,38.1135363 L18.8492067,38.1135363 C14.2205755,38.1135363 10.2590353,34.624238 10.0190026,30.3364138 C10.0080011,30.1382833 10,29.9481581 10,29.7590335 C10,25.9815454 12.1622949,23.0956446 15.8317952,21.8948537 C15.822794,21.7147351 15.8187935,21.5346164 15.8187935,21.3544978 C15.8187935,17.100696 18.8392053,12.5306859 22.6967314,10.9506452 C27.2723553,9.07440943 32.1160158,10.0100257 35.6534982,13.4512923 C36.6606355,14.4269349 37.5387553,15.6827621 38.2318498,17.1327171 C39.1469746,16.4592735 40.2441242,16.091031 41.394281,16.091031 C43.8676183,16.091031 46.4649725,17.8271745 46.9810429,21.6837146 C51.5146611,22.8194627 54,25.6873517 54,29.8190731 L54,29.8190731 Z" id="AWS-Direct-Connect_Icon_48_Squid" fill="#FFFFFF"></path>
    </g>
</svg>