<?xml version="1.0" encoding="UTF-8"?>
<svg width="64px" height="64px" viewBox="0 0 64 64" version="1.1" xmlns="http://www.w3.org/2000/svg" xmlns:xlink="http://www.w3.org/1999/xlink">
    <!-- Generator: Sketch 64 (93537) - https://sketch.com -->
    <title>Icon-Architecture/48/Arch_AWS-CloudMap_48</title>
    <desc>Created with Sketch.</desc>
    <defs>
        <linearGradient x1="0%" y1="100%" x2="100%" y2="0%" id="linearGradient-1">
            <stop stop-color="#4D27A8" offset="0%"></stop>
            <stop stop-color="#A166FF" offset="100%"></stop>
        </linearGradient>
    </defs>
    <g id="Icon-Architecture/48/Arch_AWS-CloudMap_48" stroke="none" stroke-width="1" fill="none" fill-rule="evenodd">
        <g id="Icon-Architecture-BG/48/Networking-Content-Delivery" fill="url(#linearGradient-1)">
            <rect id="Rectangle" x="0" y="0" width="64" height="64"></rect>
        </g>
        <path d="M31.0001141,36.9280829 L33.9999688,36.9280829 L33.9999688,34.9136995 L31.0001141,34.9136995 L31.0001141,36.9280829 Z M34.9999204,32.8993161 L30.0001625,32.8993161 C29.4481893,32.8993161 29.000211,33.350538 29.000211,33.9065078 L29.000211,37.9352746 C29.000211,38.4912445 29.4481893,38.9424663 30.0001625,38.9424663 L34.9999204,38.9424663 C35.5528936,38.9424663 35.9998719,38.4912445 35.9998719,37.9352746 L35.9998719,33.9065078 C35.9998719,33.350538 35.5528936,32.8993161 34.9999204,32.8993161 L34.9999204,32.8993161 Z M45.9243912,44.9856166 L40.0016781,44.9856166 L40.0016781,36.9280829 L51.9440996,36.9280829 C51.9780979,37.2503843 52.0000969,37.5817503 52.0000969,37.9352746 C52.0000969,43.8082095 46.5853592,44.8778471 45.9243912,44.9856166 L45.9243912,44.9856166 Z M31.0001141,44.9856166 L33.9999688,44.9856166 L33.9999688,42.9531037 L31.0001141,42.9531037 L31.0001141,44.9856166 Z M18.5377178,44.956408 L25.0004047,39.1710989 L25.0004047,44.9856166 L19.0006953,44.9856166 C18.8467028,44.9856166 18.6927103,44.9705087 18.5377178,44.956408 L18.5377178,44.956408 Z M12.0010344,37.7700952 L12.0060342,37.5585849 C12.0060342,34.1391691 13.5699584,31.9938508 16.6518091,31.1820542 C16.8547993,31.1397522 17.0277909,31.0289611 17.1647843,30.8849327 L25.0004047,30.8849327 L25.0004047,31.4247874 L13.2449741,41.4443305 C12.5440081,40.3656282 12.0820305,39.1318184 12.0040343,37.8718216 C12.0000345,37.8123972 12.0000345,37.7962822 12.0010344,37.7700952 L12.0010344,37.7700952 Z M23.3954825,19.7947448 C23.9454558,19.5600691 24.47843,19.3999256 25.0004047,19.2750339 L25.0004047,24.8417824 L18.4127238,24.8417824 C19.4756723,22.633011 21.3095835,20.6840951 23.3954825,19.7947448 L23.3954825,19.7947448 Z M48.3272748,29.9331365 L47.6713066,31.8367288 C49.5532154,32.494425 50.7781561,33.4834873 51.4291245,34.9136995 L39.0017265,34.9136995 C38.4487533,34.9136995 38.0017749,35.3649214 38.0017749,35.9208912 L38.0017749,44.9856166 L35.9998719,44.9856166 L35.9998719,41.945912 C35.9998719,41.3899422 35.5528936,40.9387203 34.9999204,40.9387203 L30.0001625,40.9387203 C29.4481893,40.9387203 29.000211,41.3899422 29.000211,41.945912 L29.000211,44.9856166 L27.0003078,44.9856166 L27.0003078,36.9280829 C27.0003078,36.5312494 26.769319,36.171682 26.4093365,36.0095241 C26.0513538,35.8473662 25.6303742,35.9118265 25.3363884,36.1747035 L16.2958264,44.2695033 C15.662857,43.93713 15.0658859,43.5030304 14.5269121,42.9903698 L26.646325,32.6606117 C26.8703141,32.4692452 27.0003078,32.1882388 27.0003078,31.8921244 L27.0003078,29.877741 C27.0003078,29.3217712 26.5533295,28.8705493 26.0003563,28.8705493 L17.4477706,28.8705493 C17.4487705,28.82724 17.4497705,28.779902 17.4497705,28.7386072 C17.4497705,28.1201914 17.5357663,27.4866679 17.6887589,26.8561659 L26.0003563,26.8561659 C26.5533295,26.8561659 27.0003078,26.404944 27.0003078,25.8489741 L27.0003078,19.0232359 C27.7032738,19.0171928 28.3742413,19.0856818 29.000211,19.2236671 L29.000211,29.877741 C29.000211,30.4337108 29.4481893,30.8849327 30.0001625,30.8849327 L34.9999204,30.8849327 C35.5528936,30.8849327 35.9998719,30.4337108 35.9998719,29.877741 L35.9998719,26.8561659 L33.9999688,26.8561659 L33.9999688,28.8705493 L31.0001141,28.8705493 L31.0001141,19.9085575 C32.6700332,20.6790591 33.8659753,21.7466823 34.4059491,22.291573 L35.8218805,20.8694183 C32.0900613,17.0994998 27.1533004,16.002668 22.6155202,17.9394977 C18.5977149,19.653738 15.4498673,24.3976109 15.4498673,28.7386072 C15.4498673,28.874578 15.4458675,29.0226352 15.4398678,29.173714 C15.436868,29.2643612 15.4338681,29.3560157 15.4308683,29.4506917 C13.1179803,30.2514091 10.006131,32.305073 10.006131,37.5585849 L10.0031312,37.6794479 C10,37.7610305 9.99613152,37.8134044 10.0081309,37.9987277 C10.3011167,42.7093633 14.5879091,47 19.0006953,47 L30.0001625,47 L34.9999204,47 L45.9993875,47 C46.0443854,47 46.0883832,46.9969784 46.1323811,46.9909353 C48.8542493,46.6233103 54,44.2584242 54,37.9352746 C54,33.8853568 52.1450899,31.2676655 48.3272748,29.9331365 L48.3272748,29.9331365 Z M41.3316136,23.4991959 C41.3316136,23.1920024 41.6945961,22.827399 41.9995813,22.827399 C42.3055665,22.827399 42.6675489,23.1920024 42.6675489,23.4991959 C42.6675489,23.8073966 42.3055665,24.172 41.9995813,24.172 C41.6945961,24.172 41.3316136,23.8073966 41.3316136,23.4991959 L41.3316136,23.4991959 Z M44.6674521,23.4991959 C44.6674521,22.0931563 43.3965136,20.8130156 41.9995813,20.8130156 C40.6036489,20.8130156 39.3317105,22.0931563 39.3317105,23.4991959 C39.3317105,24.9062427 40.6036489,26.1863834 41.9995813,26.1863834 C43.3965136,26.1863834 44.6674521,24.9062427 44.6674521,23.4991959 L44.6674521,23.4991959 Z M41.9995813,19.8068311 C44.0894801,19.8068311 45.6654037,21.3951724 45.6654037,23.4991959 C45.6654037,24.9636526 43.6645006,28.5291113 41.9995813,31.0974501 C40.3346619,28.5301185 38.3337589,24.965667 38.3337589,23.4991959 C38.3337589,21.3951724 39.9096825,19.8068311 41.9995813,19.8068311 L41.9995813,19.8068311 Z M41.9995813,33.9065078 C42.3255655,33.9065078 42.6325506,33.7453571 42.8195416,33.4764369 C43.3155175,32.7613308 47.6653068,26.4089727 47.6653068,23.4991959 C47.6653068,20.2459667 45.2304248,17.7924477 41.9995813,17.7924477 C38.7697377,17.7924477 36.3338557,20.2459667 36.3338557,23.4991959 C36.3338557,26.4089727 40.684645,32.7613308 41.180621,33.4764369 C41.366612,33.7453571 41.6735971,33.9065078 41.9995813,33.9065078 L41.9995813,33.9065078 Z" id="AWS-CloudMap_Icon_48_Squid" fill="#FFFFFF"></path>
    </g>
</svg>