<svg id="Artwork" xmlns="http://www.w3.org/2000/svg" width="24px" height="24px" viewBox="0 0 24 24"><defs><style>.cls-1{fill:#4285f4;}.cls-2{fill:#aecbfa;}.cls-3{fill:#669df6;}</style></defs><path class="cls-1" d="M7.63,18.47V9.29H9.49v9.18Zm-3.75,0V9.29H5.69v9.18Zm7.55,0V9.29h1.8v9.18ZM16.9,9.29v4.27l-1.73.8V9.29Z"/><path class="cls-2" d="M17.18,17.56l-.44.44L18,19.29l.59-.61.19-.19v3l-.19.28h-.06a3.81,3.81,0,0,1-1-.45h0a4.7,4.7,0,0,1-2.06-3.5V15.19l3.17-1.45.19.37V17.6l-.19.19L18,18.4Z"/><path class="cls-3" d="M18.58,13.74v4l.19-.19,1.29-1.33.43.44-1.72,1.78-.19.19v3.06h.06a3.75,3.75,0,0,0,1-.45s0,0,0,0h0a4.67,4.67,0,0,0,2.06-3.5h0v-.15s0,0,0,0h0V15.19Z"/><path class="cls-3" d="M15,19.5H10.39V17.87h4.17v.06A5.34,5.34,0,0,0,15,19.5Z"/><path class="cls-2" d="M9.27,6.52a1.12,1.12,0,0,0,1.12,1.12v2H2.25V8l8.14-5.71V5.39A1.13,1.13,0,0,0,9.27,6.52Z"/><path class="cls-3" d="M18.53,8V9.59H10.39V7.64a1.13,1.13,0,0,0,0-2.25V2.25Z"/><polygon class="cls-2" points="10.39 17.86 10.39 19.5 2.25 19.5 2.25 17.88 10.39 17.86"/></svg>