<svg xmlns="http://www.w3.org/2000/svg" width="18" height="18" viewBox="0 0 18 18"><defs><linearGradient id="bcf06cd3-a4b8-4fd5-87ad-fd0a708c782b" x1="9" x2="9" y2="18" gradientUnits="userSpaceOnUse"><stop offset="0" stop-color="#5ea0ef" /><stop offset="1" stop-color="#0078d4" /></linearGradient><linearGradient id="ab8b109c-2878-45da-89b4-5b7b4d0302fd" x1="-998.057" y1="-213.109" x2="-1002.698" y2="-204.987" gradientTransform="translate(-195.271 1006.992) rotate(90)" gradientUnits="userSpaceOnUse"><stop offset="0" stop-color="#fff" /><stop offset="1" stop-color="#fff" stop-opacity="0.3" /></linearGradient><linearGradient id="aa22a732-ecb4-41ce-bd4f-17b24d84fd2f" x1="-122.365" y1="1106.487" x2="-127.006" y2="1114.61" gradientTransform="translate(-1106.024 -112.477) rotate(-90)" gradientUnits="userSpaceOnUse"><stop offset="0" stop-color="#fff" /><stop offset="1" stop-color="#fff" stop-opacity="0.3" /></linearGradient></defs><rect width="18" height="18" rx="0.6" fill="url(#bcf06cd3-a4b8-4fd5-87ad-fd0a708c782b)" /><path d="M13.281,9.822a3.549,3.549,0,0,0-1.946.537v.94a2.819,2.819,0,0,1,1.868-.7q1.181,0,1.18,1.459l-1.717.241q-1.89.262-1.89,1.868a1.568,1.568,0,0,0,.484,1.2,1.882,1.882,0,0,0,1.339.453,1.921,1.921,0,0,0,1.762-1.029h.022v.895H15.3V11.958Q15.3,9.822,13.281,9.822Zm1.1,3.534a1.706,1.706,0,0,1-.445,1.211,1.47,1.47,0,0,1-1.126.478,1.155,1.155,0,0,1-.8-.265.874.874,0,0,1-.3-.685.913.913,0,0,1,.324-.8A2.247,2.247,0,0,1,13,12.976l1.381-.19Z" fill="#fff" /><path d="M13.782,8.891l1.537-1.58c.167-.166.106-.311-.16-.311h-.683a.2.2,0,0,1-.2-.2c.022-1.019-.264-3.848-4.129-3.944a.2.2,0,0,0-.2.2v1a.2.2,0,0,0,.216.2A2.373,2.373,0,0,1,13.026,6.8a.2.2,0,0,1-.2.2H12.2c-.322,0-.376.1-.161.311l1.425,1.58A.2.2,0,0,0,13.782,8.891Z" fill="url(#ab8b109c-2878-45da-89b4-5b7b4d0302fd)" /><path d="M4.52,9.932l-1.538,1.58c-.167.167-.106.311.161.311h.682a.2.2,0,0,1,.2.2C4,13.042,4.285,15.871,8.15,15.967a.2.2,0,0,0,.2-.2v-1a.2.2,0,0,0-.215-.2,2.373,2.373,0,0,1-2.863-2.551.2.2,0,0,1,.2-.2h.632c.321,0,.375-.1.16-.311L4.841,9.932A.2.2,0,0,0,4.52,9.932Z" fill="url(#aa22a732-ecb4-41ce-bd4f-17b24d84fd2f)" /><path d="M6.63,4.4a2.62,2.62,0,0,1,1.416.746,2,2,0,0,1-.014,2.9,3.036,3.036,0,0,1-1.914.742l-.285-.643a2.731,2.731,0,0,0,1.6-.462,1.3,1.3,0,0,0,.565-1.077A1.418,1.418,0,0,0,7.56,5.583,2.046,2.046,0,0,0,6.467,5.01a6.487,6.487,0,0,1-1.138,2.3,2.205,2.205,0,0,0,.262.457l-.536.372a2.221,2.221,0,0,1-.218-.333,2.313,2.313,0,0,1-1.444.635,1.139,1.139,0,0,1-.821-.317,1.246,1.246,0,0,1-.329-.937A2.383,2.383,0,0,1,2.777,5.73,3.317,3.317,0,0,1,4.143,4.669q.024-.8.052-1.119-.834.032-1.317.032l-.107-.619q.519.019,1.471-.016a12.15,12.15,0,0,1,.21-1.364l.619.091L4.9,2.9a24.13,24.13,0,0,0,2.59-.31l.131.6a27.012,27.012,0,0,1-2.777.322,7.044,7.044,0,0,0-.059.928,4.058,4.058,0,0,1,.936-.123c.082,0,.162,0,.242.008a2.4,2.4,0,0,0,.115-.512l.634.091A3.792,3.792,0,0,1,6.63,4.4ZM4.552,7.172a6.95,6.95,0,0,1-.381-1.821,2.468,2.468,0,0,0-.913.8,1.761,1.761,0,0,0-.337,1,.688.688,0,0,0,.143.508.434.434,0,0,0,.294.13,1.6,1.6,0,0,0,.523-.138A1.952,1.952,0,0,0,4.552,7.172Zm1.241-2.21a3.7,3.7,0,0,0-.976.147,5.732,5.732,0,0,0,.23,1.464A6,6,0,0,0,5.793,4.962Z" fill="#fff" />​
</svg>