<svg id="ab6915f8-be54-4d6f-932a-7f429e75983a" xmlns="http://www.w3.org/2000/svg" width="18" height="18" viewBox="0 0 18 18"><defs><linearGradient id="b8ef1ebf-419d-4097-a9bc-e2fbb68d9c3b" x1="5.71" y1="7.1" x2="5.82" y2="17.48" gradientUnits="userSpaceOnUse"><stop offset="0" stop-color="#32d4f5" /><stop offset="0.32" stop-color="#31d1f3" /><stop offset="0.53" stop-color="#2ec9eb" /><stop offset="0.7" stop-color="#29bade" /><stop offset="0.86" stop-color="#22a5cb" /><stop offset="1" stop-color="#198ab3" /><stop offset="1" stop-color="#198ab3" /></linearGradient></defs><title>Icon-machinelearning-167</title><path d="M6,.6H17.12a.37.37,0,0,1,.38.34V9.53a.36.36,0,0,1-.38.34H6a.36.36,0,0,1-.38-.34V.94A.37.37,0,0,1,6,.6Z" fill="#e6e6e6" /><path d="M5.94.6h11.2a.35.35,0,0,1,.36.32h0v1.3H5.58V.92A.35.35,0,0,1,5.94.6Z" fill="#5ea0ef" /><rect x="5.58" y="2.22" width="3.98" height="3.83" fill="#83b9f9" /><rect x="9.54" y="2.22" width="3.98" height="3.83" fill="#0078d4" /><rect x="13.52" y="2.22" width="3.98" height="3.83" fill="#83b9f9" /><path d="M14.09,6H17.5a0,0,0,0,1,0,0V9.87a0,0,0,0,1,0,0h-4a0,0,0,0,1,0,0V6.61A.57.57,0,0,1,14.09,6Z" transform="translate(31.02 15.91) rotate(-180)" fill="#0078d4" /><rect x="9.56" y="6.04" width="3.98" height="3.83" transform="translate(23.11 15.91) rotate(-180)" fill="#83b9f9" /><rect x="5.58" y="6.04" width="3.98" height="3.83" transform="translate(15.15 15.91) rotate(-180)" fill="#0078d4" /><path d="M10.73,17.4H.89c-.31,0-.5-.5-.32-.76l3.39-5A.34.34,0,0,0,4,11.47V8.2A.2.2,0,0,0,3.84,8H3.65a.39.39,0,0,1-.39-.39V7.44a.39.39,0,0,1,.39-.38H8a.38.38,0,0,1,.39.38v.18A.38.38,0,0,1,8,8H7.79a.2.2,0,0,0-.2.19v3.28a.41.41,0,0,0,.07.22l3.4,4.94C11.23,16.9,11.05,17.4,10.73,17.4Z" fill="url(#b8ef1ebf-419d-4097-a9bc-e2fbb68d9c3b)" /><path d="M2.19,16l2.46-3.59a.86.86,0,0,0,.16-.51V10.4a.29.29,0,0,1,.29-.29H6.5a.28.28,0,0,1,.28.29V12a.6.6,0,0,0,.11.34L9.41,16a.21.21,0,0,1-.18.34H2.36A.21.21,0,0,1,2.19,16Z" fill="#fff" /></svg>