<svg id="eccfbced-10ca-487a-a425-bf34f9e15139" xmlns="http://www.w3.org/2000/svg" width="18" height="18" viewBox="0 0 18 18"><defs><radialGradient id="b915730c-dc69-4cd4-8cf3-619882b8e8ab" cx="55.71" cy="71.92" r="9" gradientTransform="translate(-43.61 -58.92) scale(0.94 0.94)" gradientUnits="userSpaceOnUse"><stop offset="0.67" stop-color="#6bb9f2" /><stop offset="0.74" stop-color="#61b4f1" /><stop offset="0.85" stop-color="#47a8ef" /><stop offset="0.99" stop-color="#1d94eb" /><stop offset="1" stop-color="#1b93eb" /></radialGradient></defs><title>Icon-machinelearning-165</title><path id="f6a29e1b-194b-4d8d-8529-49edea7bbba0" d="M9,.5A8.5,8.5,0,1,0,17.5,9,8.5,8.5,0,0,0,9,.5Z" fill="url(#b915730c-dc69-4cd4-8cf3-619882b8e8ab)" /><circle cx="9" cy="9" r="7.03" fill="#fff" /><circle cx="7.45" cy="9" r="0.77" fill="#32bedd" /><path d="M5.26,6.8H4.88a.29.29,0,0,0-.29.29v5.72a.59.59,0,0,0,.59.59h5.57a.29.29,0,0,0,.29-.3v-.38a.29.29,0,0,0-.29-.29h-5a.14.14,0,0,1-.14-.15V7.09A.29.29,0,0,0,5.26,6.8Z" fill="#32bedd" /><circle cx="10.55" cy="9" r="0.77" fill="#32bedd" /><path d="M12.42,4.6H7.23a.29.29,0,0,0-.29.3v.38a.29.29,0,0,0,.29.29h5a.15.15,0,0,1,.15.15v5.19a.29.29,0,0,0,.29.29h.38a.29.29,0,0,0,.29-.29V5.19a.59.59,0,0,0-.58-.59Z" fill="#32bedd" /></svg>