<?xml version="1.0" encoding="UTF-8"?>
<svg width="40px" height="40px" viewBox="0 0 40 40" version="1.1" xmlns="http://www.w3.org/2000/svg" xmlns:xlink="http://www.w3.org/1999/xlink">
    <!-- Generator: Sketch 64 (93537) - https://sketch.com -->
    <title>Icon-Architecture/32/Arch_AWS-Braket_32</title>
    <desc>Created with Sketch.</desc>
    <defs>
        <linearGradient x1="0%" y1="100%" x2="100%" y2="0%" id="linearGradient-1">
            <stop stop-color="#C8511B" offset="0%"></stop>
            <stop stop-color="#FF9900" offset="100%"></stop>
        </linearGradient>
    </defs>
    <g id="Icon-Architecture/32/Arch_AWS-Braket_32" stroke="none" stroke-width="1" fill="none" fill-rule="evenodd">
        <g id="Icon-Architecture-BG/32/Compute" fill="url(#linearGradient-1)">
            <rect id="Rectangle" x="0" y="0" width="40" height="40"></rect>
        </g>
        <path d="M20.9646863,23.4629049 C20.9646863,24.2899049 21.6376863,24.9629049 22.4646863,24.9629049 C23.2916863,24.9629049 23.9646863,24.2899049 23.9646863,23.4629049 C23.9646863,22.6359049 23.2916863,21.9629049 22.4646863,21.9629049 C21.6376863,21.9629049 20.9646863,22.6359049 20.9646863,23.4629049 L20.9646863,23.4629049 Z M21.2556863,25.6379049 C16.4006863,30.1119049 10.9406863,33.9279049 8.00968626,33.9279049 C7.39668626,33.9279049 6.89368626,33.7609049 6.52968626,33.3979049 C5.29068626,32.1599049 6.42368626,29.4219049 7.89068626,26.9629049 L9.07168626,26.9629049 C6.95268626,30.3629049 6.72568626,32.1789049 7.23668626,32.6909049 C8.37368626,33.8279049 13.7356863,31.1879049 20.4906863,24.9799049 C20.1656863,24.5579049 19.9646863,24.0359049 19.9646863,23.4629049 C19.9646863,22.0849049 21.0856863,20.9629049 22.4646863,20.9629049 C23.0546863,20.9629049 23.5896863,21.1759049 24.0176863,21.5189049 C30.6386863,14.5809049 33.9076863,8.45190493 32.6926863,7.23490493 C32.1836863,6.72990493 30.3716863,6.94590493 26.9646863,9.06990493 L26.9646863,7.88790493 C29.3926863,6.44090493 32.1536863,5.28490493 33.3996863,6.52790493 C35.5426863,8.67090493 30.6576863,16.0279049 24.6606863,22.2939049 C24.8486863,22.6449049 24.9646863,23.0389049 24.9646863,23.4629049 C24.9646863,24.8409049 23.8436863,25.9629049 22.4646863,25.9629049 C22.0246863,25.9629049 21.6146863,25.8379049 21.2556863,25.6379049 L21.2556863,25.6379049 Z M28.9646863,19.7389049 L28.9646863,28.9629049 L19.7406863,28.9629049 C19.1436863,29.4629049 18.5506863,29.9459049 17.9646863,30.3999049 L17.9646863,32.9629049 L18.9646863,32.9629049 L18.9646863,29.9629049 L20.9646863,29.9629049 L20.9646863,32.9629049 L21.9646863,32.9629049 L21.9646863,29.9629049 L23.9646863,29.9629049 L23.9646863,32.9629049 L24.9646863,32.9629049 L24.9646863,29.9629049 L26.9646863,29.9629049 L26.9646863,32.9629049 L27.9646863,32.9629049 L27.9646863,29.9629049 L29.4646863,29.9629049 C29.7406863,29.9629049 29.9646863,29.7389049 29.9646863,29.4629049 L29.9646863,27.9629049 L32.9646863,27.9629049 L32.9646863,26.9629049 L29.9646863,26.9629049 L29.9646863,24.9629049 L32.9646863,24.9629049 L32.9646863,23.9629049 L29.9646863,23.9629049 L29.9646863,21.9629049 L32.9646863,21.9629049 L32.9646863,20.9629049 L29.9646863,20.9629049 L29.9646863,18.9629049 L32.9646863,18.9629049 L32.9646863,17.9629049 L30.4016863,17.9629049 C29.9466863,18.5479049 29.4646863,19.1419049 28.9646863,19.7389049 L28.9646863,19.7389049 Z M9.96468626,24.9629049 L6.96468626,24.9629049 L6.96468626,23.9629049 L9.96468626,23.9629049 L9.96468626,21.9629049 L6.96468626,21.9629049 L6.96468626,20.9629049 L9.96468626,20.9629049 L9.96468626,18.9629049 L6.96468626,18.9629049 L6.96468626,17.9629049 L9.96468626,17.9629049 L9.96468626,15.9629049 L6.96468626,15.9629049 L6.96468626,14.9629049 L9.96468626,14.9629049 L9.96468626,12.9629049 L6.96468626,12.9629049 L6.96468626,11.9629049 L9.96468626,11.9629049 L9.96468626,10.4629049 C9.96468626,10.1869049 10.1886863,9.96290493 10.4646863,9.96290493 L11.9646863,9.96290493 L11.9646863,6.96290493 L12.9646863,6.96290493 L12.9646863,9.96290493 L14.9646863,9.96290493 L14.9646863,6.96290493 L15.9646863,6.96290493 L15.9646863,9.96290493 L17.9646863,9.96290493 L17.9646863,6.96290493 L18.9646863,6.96290493 L18.9646863,9.96290493 L20.9646863,9.96290493 L20.9646863,6.96290493 L21.9646863,6.96290493 L21.9646863,9.96290493 L23.9646863,9.96290493 L23.9646863,6.96290493 L24.9646863,6.96290493 L24.9646863,9.96290493 L29.4646863,9.96290493 C29.7406863,9.96290493 29.9646863,10.1869049 29.9646863,10.4629049 L29.9646863,11.5609049 C29.6776863,12.0479049 29.3436863,12.5749049 28.9646863,13.1389049 L28.9646863,10.9629049 L10.9646863,10.9629049 L10.9646863,28.9629049 L13.1416863,28.9629049 C12.5776863,29.3419049 12.0506863,29.6749049 11.5636863,29.9629049 L10.4646863,29.9629049 C10.1886863,29.9629049 9.96468626,29.7389049 9.96468626,29.4629049 L9.96468626,24.9629049 Z" id="AWS-Braket_Icon_32_Squid" fill="#FFFFFF"></path>
    </g>
</svg>