<?xml version="1.0" encoding="UTF-8"?>
<svg width="24px" height="24px" viewBox="0 0 24 24" version="1.1" xmlns="http://www.w3.org/2000/svg" xmlns:xlink="http://www.w3.org/1999/xlink">
    <!-- Generator: Sketch 64 (93537) - https://sketch.com -->
    <title>Icon-Architecture/16/Arch_AWS-Snowball_16</title>
    <desc>Created with Sketch.</desc>
    <defs>
        <linearGradient x1="0%" y1="100%" x2="100%" y2="0%" id="linearGradient-1">
            <stop stop-color="#1B660F" offset="0%"></stop>
            <stop stop-color="#6CAE3E" offset="100%"></stop>
        </linearGradient>
    </defs>
    <g id="Icon-Architecture/16/Arch_AWS-Snowball_16" stroke="none" stroke-width="1" fill="none" fill-rule="evenodd">
        <g id="Icon-Architecture-BG/16/Storage" fill="url(#linearGradient-1)">
            <rect id="Rectangle" x="0" y="0" width="24" height="24"></rect>
        </g>
        <path d="M11,8 L13,8 L13,7 L11,7 L11,8 Z M9,13 L15,13 L15,12 L9,12 L9,13 Z M15.5,11 L8.5,11 C8.224,11 8,11.224 8,11.5 L8,13.5 C8,13.776 8.224,14 8.5,14 L15.5,14 C15.776,14 16,13.776 16,13.5 L16,11.5 C16,11.224 15.776,11 15.5,11 L15.5,11 Z M19,16.027 C19,17 18.649,17 18.5,17 L5.5,17 C5.351,17 5,17 5,16.027 L5,6.973 C5,6.437 5.39,6 5.869,6 L18.131,6 C18.61,6 19,6.437 19,6.973 L19,16.027 Z M18.131,5 L5.869,5 C4.839,5 4,5.885 4,6.973 L4,16.027 C4,17.808 5.049,18 5.5,18 L18.5,18 C18.951,18 20,17.808 20,16.027 L20,6.973 C20,5.885 19.161,5 18.131,5 L18.131,5 Z M16.903,15 L7.097,15 C7.041,15 7.006,14.974 7.001,14.974 L7,14.974 L6.997,9.039 C7.003,9.029 7.038,9 7.097,9 L9.293,9 L10.146,9.854 C10.24,9.947 10.367,10 10.5,10 L13.5,10 C13.633,10 13.76,9.947 13.854,9.854 L14.707,9 L16.903,9 C16.971,9 17.002,9.027 17,9.026 L17.003,14.961 C16.997,14.971 16.962,15 16.903,15 L16.903,15 Z M16.903,8 L14.5,8 C14.367,8 14.24,8.053 14.146,8.146 L13.293,9 L10.707,9 L9.854,8.146 C9.76,8.053 9.633,8 9.5,8 L7.097,8 C6.492,8 6,8.46 6,9.026 L6,14.974 C6,15.54 6.492,16 7.097,16 L16.903,16 C17.508,16 18,15.54 18,14.974 L18,9.026 C18,8.46 17.508,8 16.903,8 L16.903,8 Z" id="Fill-5" fill="#FFFFFF"></path>
    </g>
</svg>