<?xml version="1.0" encoding="UTF-8"?>
<svg width="24px" height="24px" viewBox="0 0 24 24" version="1.1" xmlns="http://www.w3.org/2000/svg" xmlns:xlink="http://www.w3.org/1999/xlink">
    <title>Icon-Architecture/16/Arch_Amazon-Simple-Storage-Service_16</title>
    <defs>
        <linearGradient x1="0%" y1="100%" x2="100%" y2="0%" id="linearGradient-1">
            <stop stop-color="#1B660F" offset="0%"></stop>
            <stop stop-color="#6CAE3E" offset="100%"></stop>
        </linearGradient>
    </defs>
    <g id="Icon-Architecture/16/Arch_Amazon-Simple-Storage-Service_16" stroke="none" stroke-width="1" fill="none" fill-rule="evenodd">
        <g id="Rectangle" fill="url(#linearGradient-1)">
            <rect x="0" y="0" width="24" height="24"></rect>
        </g>
        <g id="Icon-Service/16/Amazon-Simple-Storage-Service_16" transform="translate(4.000000, 4.000000)" fill="#FFFFFF">
            <path d="M13.9082,9.0508 L13.9492,8.8068 C14.2152,8.9598 14.4192,9.0888 14.5642,9.1918 C14.3942,9.1638 14.1662,9.1138 13.9082,9.0508 L13.9082,9.0508 Z M12.0492,14.0928 C11.9992,14.3958 10.9792,14.9998 7.4782,14.9998 C4.0442,14.9998 3.0432,14.3968 2.9932,14.0898 L1.2592,3.9648 C2.6962,4.6678 5.1522,4.9998 7.5002,4.9998 C9.8502,4.9998 12.3112,4.6658 13.7482,3.9618 L12.9402,8.7748 C11.3852,8.2668 9.5682,7.3978 8.6442,6.9548 L8.4742,6.8728 C8.4092,6.3838 8.0072,5.9998 7.5002,5.9998 C6.9482,5.9998 6.5002,6.4488 6.5002,6.9998 C6.5002,7.5508 6.9482,7.9998 7.5002,7.9998 C7.7212,7.9998 7.9142,7.9138 8.0792,7.7928 L8.2132,7.8568 C9.1842,8.3228 11.1192,9.2468 12.7732,9.7698 L12.0492,14.0928 Z M7.5002,0.9998 C11.7612,0.9998 13.9712,2.0368 14.0002,2.4898 L14.0002,2.5188 C13.9462,2.9768 11.7352,3.9998 7.5002,3.9998 C3.2702,3.9998 1.0592,2.9798 1.0002,2.5208 L1.0002,2.4888 C1.0302,2.0348 3.2422,0.9998 7.5002,0.9998 L7.5002,0.9998 Z M15.0002,2.4998 C15.0002,0.7818 11.1122,-0.0002 7.5002,-0.0002 C3.8872,-0.0002 0.0002,0.7818 0.0002,2.4998 L0.0472,2.8158 L2.0072,14.2548 C2.1972,15.4248 3.9362,15.9998 7.4782,15.9998 C12.2072,15.9998 12.9142,14.9908 13.0352,14.2568 L13.7422,10.0428 C14.3202,10.1828 14.7312,10.2388 15.0232,10.2388 C15.4852,10.2388 15.6612,10.1038 15.7832,9.9598 C15.9292,9.7858 15.9852,9.5668 15.9422,9.3428 C15.8492,8.8678 15.3302,8.4158 14.1252,7.7598 L14.9542,2.8138 L15.0002,2.4998 Z" id="Amazon-Simple-Storage-Service-Icon_16_Squid"></path>
        </g>
    </g>
</svg>