<?xml version="1.0" encoding="UTF-8"?>
<svg width="24px" height="24px" viewBox="0 0 24 24" version="1.1" xmlns="http://www.w3.org/2000/svg" xmlns:xlink="http://www.w3.org/1999/xlink">
    <!-- Generator: Sketch 64 (93537) - https://sketch.com -->
    <title>Icon-Architecture/16/Arch_AWS-Snowball-Edge_16</title>
    <desc>Created with Sketch.</desc>
    <defs>
        <linearGradient x1="0%" y1="100%" x2="100%" y2="0%" id="linearGradient-1">
            <stop stop-color="#1B660F" offset="0%"></stop>
            <stop stop-color="#6CAE3E" offset="100%"></stop>
        </linearGradient>
    </defs>
    <g id="Icon-Architecture/16/Arch_AWS-Snowball-Edge_16" stroke="none" stroke-width="1" fill="none" fill-rule="evenodd">
        <g id="Icon-Architecture-BG/16/Storage" fill="url(#linearGradient-1)">
            <rect id="Rectangle" x="0" y="0" width="24" height="24"></rect>
        </g>
        <path d="M18.887,16.475 L18.193,16.157 C18.065,16.098 17.968,15.988 17.925,15.853 L17.768,15.358 C17.726,15.226 17.741,15.083 17.809,14.962 L18.182,14.298 L17.317,13.668 L16.807,14.222 C16.712,14.324 16.58,14.382 16.442,14.383 L15.912,14.386 C15.766,14.336 15.637,14.328 15.541,14.225 L15.028,13.666 L14.161,14.295 L14.535,14.962 C14.605,15.084 14.618,15.229 14.575,15.363 L14.415,15.852 C14.371,15.984 14.275,16.093 14.149,16.151 L13.451,16.471 L13.782,17.489 L14.525,17.34 C14.663,17.313 14.808,17.345 14.919,17.429 L15.345,17.744 C15.456,17.826 15.529,17.95 15.545,18.087 L15.632,18.836 L16.702,18.837 L16.79,18.082 C16.807,17.944 16.88,17.819 16.991,17.737 L17.411,17.429 C17.526,17.346 17.667,17.316 17.806,17.342 L18.556,17.493 L18.887,16.475 Z M19.976,16.361 L19.369,18.225 C19.291,18.465 19.048,18.613 18.795,18.56 L17.825,18.366 L17.758,18.414 L17.644,19.395 C17.614,19.647 17.401,19.837 17.147,19.837 L17.146,19.837 L15.186,19.835 C14.933,19.835 14.719,19.645 14.69,19.393 L14.576,18.418 L14.503,18.364 L13.541,18.557 C13.294,18.608 13.045,18.461 12.968,18.221 L12.364,16.356 C12.285,16.115 12.4,15.853 12.63,15.747 L13.533,15.333 L13.556,15.26 L13.072,14.396 C12.947,14.175 13.008,13.895 13.213,13.746 L14.8,12.596 C15.007,12.447 15.289,12.475 15.462,12.662 L16.127,13.385 L16.218,13.384 L16.882,12.663 C17.056,12.476 17.34,12.449 17.544,12.598 L19.129,13.751 C19.334,13.9 19.396,14.179 19.271,14.4 L18.786,15.263 L18.811,15.34 L19.709,15.752 C19.94,15.858 20.054,16.12 19.976,16.361 L19.976,16.361 Z M18.131,4 L5.869,4 C4.839,4 4,4.885 4,5.973 L4,15.028 C4,16.116 4.839,17 5.869,17 L10.993,17 L10.993,16 L5.869,16 C5.39,16 5,15.564 5,15.028 L5,5.973 C5,5.437 5.39,5 5.869,5 L18.131,5 C18.611,5 19,5.437 19,5.973 L19,12 L20,12 L20,5.973 C20,4.885 19.161,4 18.131,4 L18.131,4 Z M16.518,15.811 C16.425,15.722 16.305,15.678 16.185,15.678 C16.059,15.678 15.933,15.727 15.838,15.825 C15.749,15.917 15.701,16.039 15.704,16.167 C15.706,16.295 15.759,16.415 15.852,16.503 C15.942,16.591 16.06,16.638 16.185,16.638 L16.195,16.638 C16.323,16.636 16.442,16.583 16.531,16.491 C16.714,16.3 16.708,15.995 16.518,15.811 L16.518,15.811 Z M17.211,15.09 C17.799,15.657 17.817,16.596 17.251,17.184 C16.977,17.469 16.609,17.63 16.213,17.638 C16.203,17.638 16.194,17.638 16.184,17.638 C15.8,17.638 15.437,17.492 15.158,17.225 C14.873,16.951 14.712,16.582 14.704,16.187 C14.697,15.791 14.843,15.417 15.117,15.132 C15.683,14.544 16.622,14.525 17.211,15.09 L17.211,15.09 Z M11,7 L13,7 L13,6 L11,6 L11,7 Z M7,13.974 L6.997,8.039 C7.003,8.03 7.038,8 7.097,8 L9.293,8 L10.147,8.854 C10.241,8.948 10.367,9 10.5,9 L13.5,9 C13.633,9 13.76,8.948 13.854,8.854 L14.707,8 L16.904,8 C16.971,8 17.002,8.029 17,8.027 L17,12 L18,12 L18,8.027 C18,7.461 17.508,7 16.904,7 L14.5,7 C14.367,7 14.241,7.053 14.147,7.147 L13.293,8 L10.707,8 L9.854,7.147 C9.76,7.053 9.633,7 9.5,7 L7.097,7 C6.492,7 6,7.461 6,8.027 L6,13.974 C6,14.54 6.492,15 7.097,15 L12,15 L12,14 L7.097,14 C7.031,14 7,13.976 7,13.974 L7,13.974 Z M15,12 L15,11 L9,11 L9,12 L13,12 L13,13 L8.5,13 C8.224,13 8,12.777 8,12.5 L8,10.5 C8,10.224 8.224,10 8.5,10 L15.5,10 C15.777,10 16,10.224 16,10.5 L16,12 L15,12 Z" id="Fill-5" fill="#FFFFFF"></path>
    </g>
</svg>