<?xml version="1.0" encoding="UTF-8"?>
<svg width="24px" height="24px" viewBox="0 0 24 24" version="1.1" xmlns="http://www.w3.org/2000/svg" xmlns:xlink="http://www.w3.org/1999/xlink">
    <!-- Generator: Sketch 64 (93537) - https://sketch.com -->
    <title>Icon-Architecture/16/Arch_Amazon-FSx-For-WFS_16</title>
    <desc>Created with Sketch.</desc>
    <defs>
        <linearGradient x1="0%" y1="100%" x2="100%" y2="0%" id="linearGradient-1">
            <stop stop-color="#1B660F" offset="0%"></stop>
            <stop stop-color="#6CAE3E" offset="100%"></stop>
        </linearGradient>
    </defs>
    <g id="Icon-Architecture/16/Arch_Amazon-FSx-For-WFS_16" stroke="none" stroke-width="1" fill="none" fill-rule="evenodd">
        <g id="Icon-Architecture-BG/16/Storage" fill="url(#linearGradient-1)">
            <rect id="Rectangle" x="0" y="0" width="24" height="24"></rect>
        </g>
        <path d="M14.378,12.6117619 L13.477,12.6117619 L12.607,11.3667619 L14.181,9.13476188 L15.047,9.13476188 L13.476,11.3267619 L14.378,12.6117619 Z M12.462,11.5677619 L12.866,12.1377619 L12.826,12.1957619 L11.748,13.7707619 L10.872,13.7707619 L12.462,11.5677619 Z M12.451,11.1617619 L11.014,9.13476188 L11.913,9.13476188 L11.943,9.17676188 L12.908,10.5537619 L12.451,11.1617619 Z M10.907,12.2207619 C10.907,12.7127619 10.724,13.1167619 10.36,13.4217619 C10.003,13.7217619 9.527,13.8747619 8.949,13.8747619 C8.359,13.8747619 7.824,13.7607619 7.359,13.5357619 L7.304,13.5087619 L7.304,12.9057619 L7.438,12.9537619 C8.461,13.3257619 9.386,13.3547619 9.882,12.9617619 C10.117,12.7777619 10.232,12.5317619 10.232,12.2127619 C10.232,12.0247619 10.171,11.8677619 10.047,11.7347619 C9.917,11.5947619 9.701,11.4667619 9.405,11.3537619 L8.5,11.0027619 C8.085,10.8407619 7.775,10.6437619 7.578,10.4167619 C7.375,10.1827619 7.273,9.89176188 7.273,9.55076188 C7.273,9.09076188 7.441,8.71276188 7.772,8.42476188 C8.244,8.01676188 8.963,7.90176188 9.803,8.08376188 C10.061,8.13976188 10.307,8.21876188 10.535,8.31976188 L10.595,8.34576188 L10.595,8.95076188 L10.462,8.90376188 C9.455,8.54976188 8.624,8.54176188 8.225,8.86676188 C8.033,9.02276188 7.941,9.24176188 7.941,9.53576188 C7.941,9.69976188 7.969,9.83076188 8.024,9.92576188 C8.082,10.0237619 8.178,10.1137619 8.312,10.1957619 C8.454,10.2837619 8.662,10.3787619 8.93,10.4797619 L9.767,10.8007619 C10.156,10.9517619 10.445,11.1417619 10.627,11.3657619 C10.814,11.5927619 10.907,11.8807619 10.907,12.2207619 L10.907,12.2207619 Z M4,8.00176188 L7.236,8.00176188 L7.236,8.61576188 L4.66,8.61576188 L4.66,10.4847619 L6.838,10.4847619 L6.838,11.0977619 L4.66,11.0977619 L4.66,13.6117619 L4,13.6117619 L4,8.00176188 Z M19,15.1117619 C19,15.3877619 18.775,15.6117619 18.5,15.6117619 L15.5,15.6117619 C15.225,15.6117619 15,15.3877619 15,15.1117619 L15,14.6117619 L19,14.6117619 L19,15.1117619 Z M16,13.6117619 L18,13.6117619 L18,11.6117619 L16,11.6117619 L16,13.6117619 Z M19.5,13.6117619 L19,13.6117619 L19,11.1117619 C19,10.8357619 18.776,10.6117619 18.5,10.6117619 L15.5,10.6117619 C15.224,10.6117619 15,10.8357619 15,11.1117619 L15,13.6117619 L14.5,13.6117619 C14.224,13.6117619 14,13.8357619 14,14.1117619 L14,15.1117619 C14,15.9387619 14.673,16.6117619 15.5,16.6117619 L18.5,16.6117619 C19.327,16.6117619 20,15.9387619 20,15.1117619 L20,14.1117619 C20,13.8357619 19.776,13.6117619 19.5,13.6117619 L19.5,13.6117619 Z" id="Amazon-FSx-for-WFS_Icon_16_Squid" fill="#FFFFFF"></path>
    </g>
</svg>