<?xml version="1.0" encoding="UTF-8"?>
<svg width="24px" height="24px" viewBox="0 0 24 24" version="1.1" xmlns="http://www.w3.org/2000/svg" xmlns:xlink="http://www.w3.org/1999/xlink">
    <title>Icon-Architecture/16/Arch_Amazon-S3-On-Outposts_Storage_16</title>
    <defs>
        <linearGradient x1="0%" y1="100%" x2="100%" y2="0%" id="linearGradient-1">
            <stop stop-color="#1B660F" offset="0%"></stop>
            <stop stop-color="#6CAE3E" offset="100%"></stop>
        </linearGradient>
    </defs>
    <g id="Icon-Architecture/16/Arch_Amazon-S3-On-Outposts_Storage_16" stroke="none" stroke-width="1" fill="none" fill-rule="evenodd">
        <g id="Rectangle" fill="url(#linearGradient-1)">
            <rect x="0" y="0" width="24" height="24"></rect>
        </g>
        <g id="Icon-Service/16/Amazon-S3-On-Outposts_16" transform="translate(4.000000, 4.000000)" fill="#FFFFFF">
            <path d="M14.265,7.28 C13.98,6.989 12.611,6.444 10.619,6.444 C8.641,6.444 7.277,6.983 6.981,7.275 C7.272,7.551 8.632,7.984 10.619,7.984 C12.605,7.984 13.964,7.553 14.265,7.28 L14.265,7.28 Z M14.146,8.444 C13.117,8.855 11.629,8.984 10.619,8.984 C9.61,8.984 8.124,8.855 7.099,8.46 L7.896,14.307 C7.968,14.485 8.994,14.986 10.625,14.986 C12.258,14.986 13.284,14.485 13.362,14.272 L14.146,8.444 Z M6.846,14 L5.956,7.48 L5.964,7.479 C5.957,7.445 5.947,7.371 5.945,7.354 C5.943,6.827 6.369,6.421 7,6.12 L7,1.199 C7,1.089 6.911,1 6.801,1 L1.2,1 C1.09,1 1,1.089 1,1.199 L1,13.801 C1,13.91 1.09,14 1.2,14 L6.846,14 Z M15.3,7.287 C15.3,7.309 15.298,7.332 15.295,7.354 L15.284,7.44 C15.28,7.453 15.273,7.465 15.269,7.478 L15.284,7.48 L14.346,14.442 C14.132,15.512 12.268,15.986 10.625,15.986 C9.295,15.986 7.836,15.669 7.212,15 L6.069,15 L6.069,16 L5.069,16 L5.069,15 L3,15 L3,16 L2,16 L2,15 L1.2,15 C0.538,15 9.05941988e-14,14.462 9.05941988e-14,13.801 L9.05941988e-14,1.199 C9.05941988e-14,0.538 0.538,0 1.2,0 L6.801,0 C7.462,0 8,0.538 8,1.199 L8,5.766 C8.838,5.547 9.799,5.444 10.619,5.444 C12.563,5.444 15.3,6.015 15.3,7.287 L15.3,7.287 Z M3,6 L5,6 L5,5 L3,5 L3,6 Z M3,4 L5,4 L5,3 L3,3 L3,4 Z" id="Fill-8"></path>
        </g>
    </g>
</svg>