<?xml version="1.0" encoding="UTF-8"?>
<svg width="24px" height="24px" viewBox="0 0 24 24" version="1.1" xmlns="http://www.w3.org/2000/svg" xmlns:xlink="http://www.w3.org/1999/xlink">
    <!-- Generator: Sketch 64 (93537) - https://sketch.com -->
    <title>Icon-Architecture/16/Arch_AWS-CloudEndure-Disaster-Recovery_16</title>
    <desc>Created with Sketch.</desc>
    <defs>
        <linearGradient x1="0%" y1="100%" x2="100%" y2="0%" id="linearGradient-1">
            <stop stop-color="#1B660F" offset="0%"></stop>
            <stop stop-color="#6CAE3E" offset="100%"></stop>
        </linearGradient>
    </defs>
    <g id="Icon-Architecture/16/Arch_AWS-CloudEndure-Disaster-Recovery_16" stroke="none" stroke-width="1" fill="none" fill-rule="evenodd">
        <g id="Icon-Architecture-BG/16/Storage" fill="url(#linearGradient-1)">
            <rect id="Rectangle" x="0" y="0" width="24" height="24"></rect>
        </g>
        <path d="M11.3112495,11.637378 L13.1942495,11.637378 L12.0552495,13.913378 C11.9782495,14.068378 11.9862495,14.252378 12.0772495,14.400378 C12.1682495,14.547378 12.3302495,14.637378 12.5022495,14.637378 L13.0422495,14.637378 L11.6432495,16.636378 L11.9882495,15.258378 C12.0252495,15.109378 11.9922495,14.950378 11.8972495,14.829378 C11.8022495,14.708378 11.6572495,14.637378 11.5022495,14.637378 L9.81124951,14.637378 L11.3112495,11.637378 Z M10.9122495,19.424378 L14.4122495,14.424378 C14.5192495,14.271378 14.5322495,14.072378 14.4462495,13.906378 C14.3602495,13.741378 14.1892495,13.637378 14.0022495,13.637378 L13.3112495,13.637378 L14.4502495,11.361378 C14.5272495,11.206378 14.5192495,11.022378 14.4282495,10.874378 C14.3362495,10.727378 14.1752495,10.637378 14.0022495,10.637378 L11.0022495,10.637378 C10.8132495,10.637378 10.6402495,10.744378 10.5552495,10.913378 L8.55524951,14.913378 C8.47824951,15.068378 8.48624951,15.252378 8.57724951,15.400378 C8.66824951,15.547378 8.83024951,15.637378 9.00224951,15.637378 L10.8622495,15.637378 L10.0172495,19.016378 C9.95824951,19.250378 10.0762495,19.492378 10.2952495,19.592378 C10.3622495,19.622378 10.4322495,19.637378 10.5022495,19.637378 C10.6622495,19.637378 10.8162495,19.561378 10.9122495,19.424378 L10.9122495,19.424378 Z M17.2072495,15.635378 L15.0012495,15.634378 L15.0032495,14.637378 L17.1652495,14.637378 C17.3112495,14.620378 19.0022495,14.399378 19.0022495,12.430378 C19.0022495,10.781378 17.8392495,10.335378 17.1462495,10.216378 C16.8762495,10.169378 16.6942495,9.91437799 16.7382495,9.64337799 C16.6852495,8.96337799 16.3472495,8.41737799 15.8322495,8.26637799 C15.4222495,8.14637799 14.9832495,8.30837799 14.7082495,8.67937799 C14.5972495,8.82737799 14.4122495,8.89937799 14.2332495,8.87637799 C14.0492495,8.84937799 13.8972495,8.72337799 13.8342495,8.54937799 C13.6182495,7.93637799 13.3062495,7.42337799 12.9082495,7.02437799 C12.4222495,6.53637799 11.0862495,5.48837799 9.20624951,6.28437799 C8.14024951,6.73637799 7.27324951,8.08937799 7.27324951,9.30137799 C7.27324951,9.44037799 7.28224951,9.57737799 7.29724951,9.71237799 C7.32824951,9.96137799 7.16824951,10.194378 6.92524951,10.256378 C6.34724951,10.404378 5.00224951,10.908378 5.00224951,12.407378 C5.00224951,12.411378 5.00024951,12.509378 5.00024951,12.513378 C4.99924951,12.556378 4.99824951,12.598378 5.00024951,12.640378 C5.08024951,13.645378 5.71224951,14.434378 6.57524951,14.603378 L6.38124951,15.584378 C5.07424951,15.327378 4.11924951,14.176378 4.00424951,12.718378 C3.99924951,12.643378 3.99924951,12.566378 4.00124951,12.488378 C4.00224951,10.527378 5.43924951,9.71837799 6.27424951,9.41237799 C6.27324951,9.37537799 6.27324951,9.33837799 6.27324951,9.30137799 C6.27324951,7.67037799 7.36624951,5.97737799 8.81524951,5.36437799 C10.5092495,4.64637799 12.3042495,5.00237799 13.6172495,6.31837799 C13.9612495,6.66437799 14.2532495,7.07337799 14.4892495,7.53837799 C14.9712495,7.23437799 15.5552495,7.14437799 16.1132495,7.30637799 C16.9572495,7.55337799 17.5332495,8.29337799 17.6962495,9.31837799 C18.5322495,9.55537799 20.0022495,10.281378 20.0022495,12.430378 C20.0022495,14.774378 18.1732495,15.552378 17.2072495,15.635378 L17.2072495,15.635378 Z" id="AWS-CloudEndure-Disaster-Recovery_Icon_16_Squid" fill="#FFFFFF"></path>
    </g>
</svg>