<?xml version="1.0" encoding="UTF-8"?>
<svg width="24px" height="24px" viewBox="0 0 24 24" version="1.1" xmlns="http://www.w3.org/2000/svg" xmlns:xlink="http://www.w3.org/1999/xlink">
    <!-- Generator: Sketch 64 (93537) - https://sketch.com -->
    <title>Icon-Architecture/16/Arch_AWS-Storage-Gateway_16</title>
    <desc>Created with Sketch.</desc>
    <defs>
        <linearGradient x1="0%" y1="100%" x2="100%" y2="0%" id="linearGradient-1">
            <stop stop-color="#1B660F" offset="0%"></stop>
            <stop stop-color="#6CAE3E" offset="100%"></stop>
        </linearGradient>
    </defs>
    <g id="Icon-Architecture/16/Arch_AWS-Storage-Gateway_16" stroke="none" stroke-width="1" fill="none" fill-rule="evenodd">
        <g id="Icon-Architecture-BG/16/Storage" fill="url(#linearGradient-1)">
            <rect id="Rectangle" x="0" y="0" width="24" height="24"></rect>
        </g>
        <path d="M16,11.1407541 C14.963,10.4226531 13.488,9.99859349 12,9.99859349 C10.34,9.99859349 8.964,10.3876482 8,11.125752 L8,18.9998593 L9,18.9998593 L9,12.4989451 C9,12.348924 9.066,12.2079042 9.182,12.1128908 C9.237,12.0668844 10.551,10.9987341 12,10.9987341 C13.365,10.9987341 14.748,12.0578831 14.807,12.1038896 C14.929,12.1989029 15,12.3439233 15,12.4989451 L15,18.9998593 L16,18.9998593 L16,11.1407541 Z M16.806,10.4916628 C16.928,10.585676 17,10.7326967 17,10.8877185 L17,19.4999297 C17,19.7759685 16.776,20 16.5,20 L14.5,20 C14.224,20 14,19.7759685 14,19.4999297 L14,12.7579815 C13.625,12.5069462 12.772,11.9988748 12,11.9988748 C11.231,11.9988748 10.414,12.4579393 10,12.7479801 L10,19.4999297 C10,19.7759685 9.776,20 9.5,20 L7.5,20 C7.224,20 7,19.7759685 7,19.4999297 L7,10.8877185 C7,10.741698 7.063,10.6026784 7.175,10.5076651 C8.326,9.52052626 9.995,8.99845284 12,8.99845284 C13.798,8.99845284 15.594,9.55653132 16.806,10.4916628 L16.806,10.4916628 Z M20,11.0947476 C20,12.7989873 19.292,13.856136 18.057,13.9961557 L17.943,13.0020159 C18.816,12.9030019 19,11.9108624 19,11.0947476 C19,9.97959081 18.316,9.27649194 16.968,9.0074541 C16.745,8.96244777 16.581,8.77442133 16.566,8.54838954 C16.5,7.49224101 15.89,7.11718827 15.388,7.11718827 C15.047,7.11718827 14.729,7.27521049 14.514,7.55024917 C14.401,7.69326929 14.222,7.76527941 14.043,7.73727547 C13.864,7.70927154 13.714,7.58725438 13.65,7.41723047 C13.438,6.84715029 13.118,6.34908025 12.726,5.97802807 C12.232,5.51096238 10.883,4.50782131 8.973,5.27292891 C7.886,5.70899023 7.034,6.95816591 7.034,8.11632878 C7.034,8.24734721 7.043,8.37236479 7.059,8.49738237 C7.062,8.51938546 7.062,8.54038842 7.062,8.56239151 C7.062,8.81042639 6.882,9.01745551 6.646,9.05746113 C6.015,9.21848378 5,9.69155031 5,11.0707443 L5.005,11.2327671 C5.061,12.1969026 5.778,12.9540091 6.015,13.0000156 L6,13.9991561 C5.19,13.9991561 4.09,12.7219765 4.007,11.2857745 C4.003,11.2117641 4,11.1427544 4,11.0707443 C4,9.70655242 4.752,8.65940515 6.035,8.19934045 C6.034,8.17133652 6.034,8.14433272 6.034,8.11632878 C6.034,6.55310894 7.138,4.93188095 8.601,4.34479838 C10.299,3.6637026 12.097,4.00475056 13.412,5.25192596 C13.757,5.57697167 14.057,5.97502765 14.297,6.42309066 C14.622,6.22406267 14.996,6.11704762 15.388,6.11704762 C16.286,6.11704762 17.286,6.74313567 17.521,8.11032794 C19.123,8.54038842 20,9.5905361 20,11.0947476 L20,11.0947476 Z" id="AWS-Storage-Gateway_Icon_16_Squid" fill="#FFFFFF"></path>
    </g>
</svg>