<?xml version="1.0" encoding="UTF-8"?>
<svg width="24px" height="24px" viewBox="0 0 24 24" version="1.1" xmlns="http://www.w3.org/2000/svg" xmlns:xlink="http://www.w3.org/1999/xlink">
    <!-- Generator: Sketch 64 (93537) - https://sketch.com -->
    <title>Icon-Architecture/16/Arch_Amazon-FSx-for-Lustre_16</title>
    <desc>Created with Sketch.</desc>
    <defs>
        <linearGradient x1="0%" y1="100%" x2="100%" y2="0%" id="linearGradient-1">
            <stop stop-color="#1B660F" offset="0%"></stop>
            <stop stop-color="#6CAE3E" offset="100%"></stop>
        </linearGradient>
    </defs>
    <g id="Icon-Architecture/16/Arch_Amazon-FSx-for-Lustre_16" stroke="none" stroke-width="1" fill="none" fill-rule="evenodd">
        <g id="Icon-Architecture-BG/16/Storage" fill="url(#linearGradient-1)">
            <rect id="Rectangle" x="0" y="0" width="24" height="24"></rect>
        </g>
        <path d="M13.578,15.758 L14.622,15.758 L16.076,13.634 L16.106,13.591 L15.629,12.917 L13.578,15.758 Z M16.936,12.483 L19.04,9.551 L18.008,9.551 L16.367,11.894 L15.903,12.537 L18.15,15.758 L19.239,15.758 L16.936,12.483 Z M16.161,11.426 L14.848,9.551 L13.769,9.551 L15.615,12.153 L16.161,11.426 Z M11.926,11.821 L10.785,11.384 C10.416,11.245 10.128,11.112 9.929,10.99 C9.738,10.874 9.6,10.743 9.517,10.601 C9.435,10.46 9.394,10.27 9.394,10.037 C9.394,9.616 9.528,9.302 9.805,9.077 C10.08,8.851 10.487,8.737 11.015,8.737 C11.564,8.737 12.205,8.864 12.918,9.116 L13.018,9.152 L13.018,8.453 L12.974,8.433 C12.664,8.297 12.332,8.189 11.984,8.114 C11.637,8.039 11.3,8 10.982,8 C10.278,8 9.7,8.191 9.266,8.568 C8.827,8.947 8.604,9.448 8.604,10.058 C8.604,10.508 8.74,10.892 9.007,11.2 C9.269,11.503 9.684,11.766 10.241,11.983 L11.477,12.462 C11.892,12.621 12.194,12.801 12.377,12.998 C12.555,13.188 12.644,13.422 12.644,13.693 C12.644,14.149 12.481,14.499 12.145,14.763 C11.809,15.029 11.35,15.163 10.78,15.163 C10.166,15.163 9.482,15.029 8.748,14.763 L8.647,14.726 L8.647,15.424 L8.69,15.444 C9.316,15.746 10.037,15.9 10.833,15.9 C11.607,15.9 12.243,15.696 12.72,15.296 C13.201,14.891 13.445,14.356 13.445,13.703 C13.445,13.255 13.321,12.874 13.077,12.574 C12.835,12.278 12.448,12.025 11.926,11.821 L11.926,11.821 Z M4,8.181 L8.297,8.181 L8.297,8.897 L4.779,8.897 L4.779,11.571 L7.753,11.571 L7.753,12.286 L4.779,12.286 L4.779,15.718 L4,15.718 L4,8.181 Z" id="Amazon-FSx-for-Lustre-Icon_16_Squid" fill="#FFFFFF"></path>
    </g>
</svg>