<?xml version="1.0" encoding="UTF-8"?>
<svg width="24px" height="24px" viewBox="0 0 24 24" version="1.1" xmlns="http://www.w3.org/2000/svg" xmlns:xlink="http://www.w3.org/1999/xlink">
    <title>Icon-Architecture/16/Arch_Amazon-EKS-Distro_16</title>
    <defs>
        <linearGradient x1="0%" y1="100%" x2="100%" y2="0%" id="linearGradient-1">
            <stop stop-color="#C8511B" offset="0%"></stop>
            <stop stop-color="#FF9900" offset="100%"></stop>
        </linearGradient>
    </defs>
    <g id="Icon-Architecture/16/Arch_Amazon-EKS-Distro_16" stroke="none" stroke-width="1" fill="none" fill-rule="evenodd">
        <g id="Rectangle" fill="url(#linearGradient-1)">
            <rect x="0" y="0" width="24" height="24"></rect>
        </g>
        <g id="Icon-Service/16/Amazon-EKS-Distro_16" transform="translate(4.000000, 4.000000)" fill="#FFFFFF">
            <path d="M11.365,11.4746665 C10.982,11.8726665 10.347,11.8836665 9.951,11.5026665 C9.553,11.1206665 9.542,10.4866665 9.924,10.0886665 C10.109,9.89566649 10.358,9.78766649 10.625,9.78266649 C10.632,9.78166649 10.638,9.78166649 10.644,9.78166649 C10.904,9.78166649 11.149,9.88066649 11.337,10.0616665 C11.53,10.2456665 11.638,10.4956665 11.644,10.7626665 C11.649,11.0296665 11.551,11.2826665 11.365,11.4746665 L11.365,11.4746665 Z M10.605,8.78265086 C10.071,8.79266649 9.573,9.01066649 9.203,9.39566649 C8.438,10.1906665 8.464,11.4586665 9.258,12.2236665 C9.645,12.5956665 10.145,12.7806665 10.644,12.7806665 C11.17,12.7806665 11.694,12.5756665 12.086,12.1676665 C12.456,11.7826665 12.654,11.2766665 12.643,10.7426665 C12.634,10.2076665 12.415,9.70966649 12.03,9.34066649 C11.645,8.97066649 11.123,8.78066649 10.605,8.78265086 L10.605,8.78265086 Z M14.247,13.0696665 L12.943,12.8076665 C12.804,12.7816665 12.663,12.8116665 12.549,12.8946665 L11.932,13.3466665 C11.821,13.4286665 11.748,13.5536665 11.731,13.6916665 L11.578,15.0056665 L9.592,15.0036665 L9.44,13.6996665 C9.424,13.5616665 9.351,13.4376665 9.241,13.3556665 L8.617,12.8936665 C8.504,12.8096665 8.362,12.7786665 8.221,12.8056665 L6.928,13.0636665 L6.314,11.1746665 L7.526,10.6196665 C7.652,10.5606665 7.749,10.4526665 7.793,10.3196665 L8.027,9.60166649 C8.07,9.46866649 8.056,9.32366649 7.987,9.20166649 L7.337,8.04166649 L8.944,6.87466649 L9.839,7.84666649 C9.933,7.94966649 10.067,8.00766649 10.207,8.00766649 L10.21,8.00766649 L10.985,8.00366649 C11.124,8.00266649 11.256,7.94466649 11.349,7.84266649 L12.239,6.87766649 L13.845,8.04566649 L13.196,9.20166649 C13.128,9.32266649 13.113,9.46566649 13.155,9.59866649 L13.386,10.3246665 C13.429,10.4576665 13.526,10.5676665 13.654,10.6266665 L14.861,11.1816665 L14.247,13.0696665 Z M7.499,15.0596665 L1,11.7476665 L1,4.33866649 L5.959,1.38066649 L5.959,3.57866649 L3.232,5.30566649 C3.088,5.39766649 3,5.55666649 3,5.72766649 L3,10.3256665 C3,10.5156665 3.107,10.6886665 3.278,10.7736665 L5.488,11.8686665 L6.113,13.7956665 C6.19,14.0366665 6.439,14.1806665 6.686,14.1316665 L8.2,13.8286665 L8.471,14.0306665 L8.542,14.6376665 L7.499,15.0596665 Z M8.953,3.59166649 L8.953,1.39266649 L13.928,4.33966649 L13.928,6.86966649 L12.468,5.80766649 C12.322,5.70166649 12.136,5.68766649 11.979,5.75466649 L11.979,5.74566649 C11.979,5.57266649 11.889,5.41166649 11.743,5.32066649 L8.953,3.59166649 Z M15.683,10.4576665 L14.272,9.80966649 L14.174,9.50166649 L14.934,8.14866649 C15.024,7.98966649 15.014,7.80266649 14.928,7.65266649 L14.928,4.05466649 C14.928,3.87766649 14.835,3.71366649 14.682,3.62366649 L8.708,0.0856664903 C8.552,-0.00433350967 8.361,-0.00633350967 8.205,0.0816664903 C8.05,0.17066649 7.953,0.33666649 7.953,0.51666649 L7.953,3.87066649 C7.953,4.04266649 8.043,4.20366649 8.189,4.29466649 L10.979,6.02366649 L10.979,6.76966649 L10.762,7.00466649 L10.425,7.00666649 L9.379,5.87066649 C9.206,5.68366649 8.924,5.65566649 8.717,5.80466649 L6.388,7.49366649 C6.183,7.64166649 6.122,7.92166649 6.247,8.14266649 L7.009,9.49966649 L6.91,9.80166649 L5.493,10.4516665 C5.399,10.4946665 5.331,10.5666665 5.281,10.6496665 L4,10.0156665 L4,6.00366649 L6.726,4.27666649 C6.871,4.18466649 6.959,4.02566649 6.959,3.85466649 L6.959,0.50066649 C6.959,0.32066649 6.862,0.15466649 6.706,0.0656664903 C6.548,-0.0243335097 6.355,-0.0213335097 6.203,0.0716664903 L0.244,3.62466649 C0.093,3.71466649 5.15143483e-14,3.87766649 5.15143483e-14,4.05466649 L5.15143483e-14,12.0546665 C5.15143483e-14,12.2426665 0.105,12.4146665 0.273,12.4996665 L7.248,16.0536665 C7.318,16.0906665 7.396,16.1086665 7.474,16.1086665 C7.538,16.1086665 7.601,16.0966665 7.662,16.0726665 L8.68,15.6616665 C8.748,15.8596665 8.928,16.0026665 9.145,16.0036665 L12.021,16.0066665 L12.022,16.0066665 C12.276,16.0066665 12.489,15.8166665 12.519,15.5646665 L12.7,14.0246665 L12.963,13.8316665 L14.486,14.1376665 C14.737,14.1886665 14.981,14.0426665 15.06,13.8026665 L15.95,11.0676665 C16.028,10.8266665 15.914,10.5636665 15.683,10.4576665 L15.683,10.4576665 Z" id="Fill-8"></path>
        </g>
    </g>
</svg>