<?xml version="1.0" encoding="UTF-8"?>
<svg width="24px" height="24px" viewBox="0 0 24 24" version="1.1" xmlns="http://www.w3.org/2000/svg" xmlns:xlink="http://www.w3.org/1999/xlink">
    <title>Icon-Architecture/16/Arch_Amazon-EKS-Cloud_16</title>
    <defs>
        <linearGradient x1="0%" y1="100%" x2="100%" y2="0%" id="linearGradient-1">
            <stop stop-color="#C8511B" offset="0%"></stop>
            <stop stop-color="#FF9900" offset="100%"></stop>
        </linearGradient>
    </defs>
    <g id="Icon-Architecture/16/Arch_Amazon-EKS-Cloud_16" stroke="none" stroke-width="1" fill="none" fill-rule="evenodd">
        <g id="Rectangle" fill="url(#linearGradient-1)">
            <rect x="0" y="0" width="24" height="24"></rect>
        </g>
        <g id="Icon-Service/16/Amazon-EKS-Cloud_16" transform="translate(4.000000, 4.000000)" fill="#FFFFFF">
            <path d="M13.891,13.0545326 L12.475,13.0535326 L12.474,13.0515326 L12.47,13.0535326 L7.736,13.0485326 C7.341,13.0475326 6.808,12.7485326 6.66,12.4435326 C6.572,12.2635326 6.527,12.0555326 6.527,11.8245326 C6.527,11.0385326 7.027,10.7465326 7.447,10.6395326 C7.69,10.5775326 7.85,10.3455326 7.82,10.0965326 C7.811,10.0165326 7.806,9.9375326 7.806,9.8565326 C7.806,9.1555326 8.305,8.3735326 8.919,8.1145326 C9.203,7.9935326 9.464,7.9465326 9.702,7.9465326 C10.377,7.9465326 10.856,8.3335326 11.064,8.5425326 C11.294,8.7745326 11.482,9.0845326 11.608,9.4405326 C11.669,9.6155326 11.823,9.7415326 12.005,9.7685326 C12.195,9.7925326 12.371,9.7195326 12.482,9.5715326 C12.611,9.3975326 12.807,9.3205326 12.995,9.3765326 C13.245,9.4495326 13.41,9.7345326 13.439,10.0475326 C13.397,10.3175326 13.579,10.5705326 13.848,10.6165326 C14.266,10.6885326 14.966,10.9425326 14.966,11.8395326 C14.966,12.8955326 14.034,13.0385326 13.891,13.0545326 L13.891,13.0545326 Z M7.498,15.0595326 L1,11.7485326 L1,4.3385326 L5.958,1.3815326 L5.958,3.5795326 L3.233,5.3055326 C3.088,5.3975326 3,5.5565326 3,5.7285326 L3,10.3255326 C3,10.5155326 3.108,10.6895326 3.279,10.7735326 L5.534,11.8905326 C5.542,12.2485326 5.616,12.5845326 5.761,12.8825326 C6.116,13.6115326 7.043,14.0475326 7.735,14.0485326 L10,14.0505326 L7.498,15.0595326 Z M8.953,3.5915326 L8.953,1.3935326 L13.927,4.3395326 L13.927,8.8225326 C13.729,8.6155326 13.497,8.4815326 13.276,8.4165326 C12.932,8.3175326 12.58,8.3475326 12.269,8.4915326 C12.188,8.3485326 12.079,8.2345326 11.98,8.1105326 L11.98,5.7455326 C11.98,5.5725326 11.89,5.4115326 11.744,5.3205326 L8.953,3.5915326 Z M14.927,9.9635326 L14.927,4.0545326 C14.927,3.8775326 14.834,3.7145326 14.682,3.6245326 L8.707,0.0855326036 C8.554,-0.00546739644 8.362,-0.00746739644 8.204,0.0815326036 C8.049,0.170532604 7.953,0.336532604 7.953,0.515532604 L7.953,3.8695326 C7.953,4.0425326 8.042,4.2035326 8.189,4.2945326 L10.98,6.0235326 L10.98,7.2605326 C10.227,6.8765326 9.362,6.8415326 8.529,7.1935326 C7.562,7.6025326 6.829,8.7175326 6.807,9.8045326 C6.302,10.0235326 5.949,10.4035326 5.739,10.8765326 L4,10.0155326 L4,6.0035326 L6.726,4.2765326 C6.87,4.1845326 6.958,4.0255326 6.958,3.8545326 L6.958,0.500532604 C6.958,0.321532604 6.862,0.155532604 6.705,0.0665326036 C6.548,-0.0244673964 6.356,-0.0214673964 6.203,0.0715326036 L0.245,3.6255326 C0.093,3.7155326 -5.24025268e-14,3.8785326 -5.24025268e-14,4.0545326 L-5.24025268e-14,12.0545326 C-5.24025268e-14,12.2425326 0.106,12.4145326 0.274,12.4995326 L7.247,16.0535326 C7.318,16.0905326 7.396,16.1085326 7.474,16.1085326 C7.537,16.1085326 7.601,16.0965326 7.662,16.0725326 L12.666,14.0525326 L13.93,14.0535326 C14.634,13.9955326 15.966,13.4595326 15.966,11.8395326 C15.966,10.9115326 15.511,10.3095326 14.927,9.9635326 L14.927,9.9635326 Z" id="Fill-8"></path>
        </g>
    </g>
</svg>