<?xml version="1.0" encoding="UTF-8"?>
<svg width="24px" height="24px" viewBox="0 0 24 24" version="1.1" xmlns="http://www.w3.org/2000/svg" xmlns:xlink="http://www.w3.org/1999/xlink">
    <title>Icon-Architecture/16/Arch_RedHat-OpenShift_16</title>
    <defs>
        <linearGradient x1="0%" y1="100%" x2="100%" y2="0%" id="linearGradient-1">
            <stop stop-color="#C8511B" offset="0%"></stop>
            <stop stop-color="#FF9900" offset="100%"></stop>
        </linearGradient>
    </defs>
    <g id="Icon-Architecture/16/Arch_RedHat-OpenShift_16" stroke="none" stroke-width="1" fill="none" fill-rule="evenodd">
        <g id="Rectangle" fill="url(#linearGradient-1)">
            <rect x="0" y="0" width="24" height="24"></rect>
        </g>
        <g id="Icon-Service/16/RedHat-OpenShift_16" transform="translate(4.000000, 4.000000)" fill="#FFFFFF">
            <path d="M10.5897732,3.34043504 C11.1367732,3.59543504 11.6327732,3.94843504 12.0657732,4.39143504 L11.3507732,5.09043504 C11.0017732,4.73443504 10.6047732,4.45043504 10.1677732,4.24643504 C9.18377315,3.78743504 8.07677315,3.73943504 7.05377315,4.11243504 C6.02977315,4.48543504 5.21377315,5.23343504 4.75477315,6.21743504 C4.55077315,6.65543504 4.42877315,7.12843504 4.39177315,7.62243504 L3.39377315,7.54743504 C3.44077315,6.93343504 3.59277315,6.34343504 3.84877315,5.79543504 C4.41977315,4.56843504 5.43777315,3.63743504 6.71177315,3.17343504 C7.98577315,2.70943504 9.36377315,2.76843504 10.5897732,3.34043504 L10.5897732,3.34043504 Z M0.932773151,8.51943504 C0.830773151,7.22843504 1.06677315,5.92443504 1.61277315,4.75143504 C3.37177315,0.985435036 7.86577315,-0.650564964 11.6317732,1.10543504 C12.7417732,1.62343504 13.7187732,2.41343504 14.4547732,3.38943504 L13.6557732,3.99143504 C13.0187732,3.14543504 12.1717732,2.46043504 11.2087732,2.01143504 C7.94177315,0.486435036 4.04377315,1.90743504 2.51977315,5.17443504 C2.04577315,6.19143504 1.84077315,7.32143504 1.92877315,8.44143504 L0.932773151,8.51943504 Z M14.4067732,10.875435 C12.8837732,14.143435 8.98677315,15.560435 5.71677315,14.038435 C4.90177315,13.658435 4.17377315,13.111435 3.58177315,12.437435 L5.09377315,11.886435 C5.46477315,12.220435 5.88177315,12.496435 6.33677315,12.709435 C7.56377315,13.282435 8.94177315,13.340435 10.2147732,12.877435 C11.4887732,12.412435 12.5067732,11.481435 13.0777732,10.255435 C13.2857732,9.81043504 13.4057732,9.34043504 13.4777732,8.86143504 L15.0137732,8.28443504 C14.9917732,9.17743504 14.7867732,10.062435 14.4067732,10.875435 L14.4067732,10.875435 Z M1.89877315,11.954435 C1.56377315,11.427435 1.29877315,10.861435 1.10877315,10.262435 L2.70377315,9.68143504 C2.88677315,10.286435 3.16977315,10.851435 3.54177315,11.356435 L1.89877315,11.954435 Z M11.9167732,8.37743504 C11.8607732,7.76943504 11.6857732,7.15043504 11.3847732,6.50743504 L11.4137732,6.49643504 L11.4257732,6.52443504 L12.1257732,6.23343504 L13.1587732,5.85043504 C13.4077732,6.45143504 13.5767732,7.07843504 13.6627732,7.72243504 L11.9167732,8.37743504 Z M15.9907732,7.52943504 C15.9787732,7.37443504 15.8947732,7.23443504 15.7637732,7.14943504 C15.6317732,7.06543504 15.4687732,7.04643504 15.3217732,7.10043504 L15.3177732,7.10243504 L15.2917732,7.11143504 L14.6187732,7.35643504 C14.5117732,6.69443504 14.3067732,6.05543504 14.0457732,5.43443504 L15.9487732,4.64343504 L15.5647732,3.71943504 L10.5087732,5.76543504 C10.3717732,5.81643504 10.2637732,5.92343504 10.2137732,6.06143504 C10.1627732,6.19743504 10.1747732,6.35043504 10.2457732,6.47743504 C10.7647732,7.40543504 10.9857732,8.25043504 10.9257732,9.05943504 C10.9127732,9.22943504 10.9877732,9.39443504 11.1247732,9.49643504 C11.2127732,9.56243504 11.3187732,9.59643504 11.4247732,9.59643504 C11.4847732,9.59643504 12.3727732,9.27443504 12.3727732,9.27443504 C12.3177732,9.46343504 12.2557732,9.65143504 12.1717732,9.83243504 C11.7127732,10.817435 10.8967732,11.564435 9.87277315,11.937435 C8.84977315,12.310435 7.74177315,12.262435 6.75977315,11.802435 C6.31477315,11.595435 5.91577315,11.312435 5.57377315,10.961435 C5.43777315,10.819435 5.22777315,10.771435 5.04477315,10.840435 L4.56377315,11.015435 C4.14277315,10.526435 3.83477315,9.95543504 3.65477315,9.33143504 L6.63577315,8.21543504 L6.28377315,7.27843504 L0.328773151,9.48243504 C0.0877731513,9.56943504 -0.0482268487,9.82543504 0.0157731513,10.074435 C0.268773151,11.077435 0.698773151,12.010435 1.29477315,12.847435 C1.39077315,12.982435 1.54377315,13.057435 1.70177315,13.057435 C1.75977315,13.057435 1.81777315,13.048435 1.87277315,13.027435 L2.57777315,12.770435 C3.30277315,13.693435 4.22877315,14.447435 5.29477315,14.944435 C6.32177315,15.423435 7.40277315,15.650435 8.46877315,15.650435 C11.3097732,15.650435 14.0347732,14.037435 15.3137732,11.298435 C15.8607732,10.124435 16.0957732,8.82043504 15.9907732,7.52943504 L15.9907732,7.52943504 Z" id="Fill-1"></path>
        </g>
    </g>
</svg>