<?xml version="1.0" encoding="UTF-8"?>
<svg width="24px" height="24px" viewBox="0 0 24 24" version="1.1" xmlns="http://www.w3.org/2000/svg" xmlns:xlink="http://www.w3.org/1999/xlink">
    <title>Icon-Architecture/16/Arch_Amazon-EKS-Anywhere_16</title>
    <defs>
        <linearGradient x1="0%" y1="100%" x2="100%" y2="0%" id="linearGradient-1">
            <stop stop-color="#C8511B" offset="0%"></stop>
            <stop stop-color="#FF9900" offset="100%"></stop>
        </linearGradient>
    </defs>
    <g id="Icon-Architecture/16/Arch_Amazon-EKS-Anywhere_16" stroke="none" stroke-width="1" fill="none" fill-rule="evenodd">
        <g id="Rectangle" fill="url(#linearGradient-1)">
            <rect x="0" y="0" width="24" height="24"></rect>
        </g>
        <g id="Icon-Service/16/Amazon-EKS-Anywhere_16" transform="translate(4.000000, 4.000000)" fill="#FFFFFF">
            <path d="M8.992,13.0306665 L10.992,13.0306665 L10.992,11.0306665 L8.992,11.0306665 L8.992,13.0306665 Z M11.992,13.0306665 L13.992,13.0306665 L13.992,11.0306665 L11.992,11.0306665 L11.992,13.0306665 Z M8.992,10.0306665 L10.992,10.0306665 L10.992,8.03066649 L8.992,8.03066649 L8.992,10.0306665 Z M11.992,10.0306665 L13.992,10.0306665 L13.992,8.03066649 L11.992,8.03066649 L11.992,10.0306665 Z M7.992,15.0306665 L14.992,15.0306665 L14.992,7.03066649 L7.992,7.03066649 L7.992,15.0306665 Z M1,4.33866649 L5.958,1.38066649 L5.958,3.57966649 L3.232,5.30666649 C3.088,5.39766649 3,5.55766649 3,5.72866649 L3,10.3256665 C3,10.5156665 3.107,10.6896665 3.278,10.7736665 L6.992,12.6146665 L6.992,14.7236665 L1,11.7446665 L1,4.33866649 Z M11.743,5.32066649 L8.952,3.59166649 L8.952,1.39366649 L13.927,4.33966649 L13.927,6.03066649 L11.979,6.03066649 L11.979,5.74566649 C11.979,5.57266649 11.89,5.41166649 11.743,5.32066649 L11.743,5.32066649 Z M15.492,6.03066649 L14.927,6.03066649 L14.927,4.05466649 C14.927,3.87766649 14.834,3.71466649 14.682,3.62466649 L8.707,0.0856664903 C8.554,-0.00533350967 8.361,-0.00733350967 8.204,0.0816664903 C8.049,0.17066649 7.952,0.33666649 7.952,0.51666649 L7.952,3.87066649 C7.952,4.04366649 8.042,4.20466649 8.188,4.29466649 L10.979,6.02366649 L10.979,6.03066649 L7.492,6.03066649 C7.216,6.03066649 6.992,6.25366649 6.992,6.53066649 L6.992,11.4976665 L4,10.0156665 L4,6.00366649 L6.726,4.27666649 C6.87,4.18466649 6.958,4.02566649 6.958,3.85466649 L6.958,0.50066649 C6.958,0.32066649 6.861,0.15466649 6.705,0.0656664903 C6.547,-0.0243335097 6.354,-0.0213335097 6.202,0.0716664903 L0.244,3.62566649 C0.093,3.71566649 -1.95399252e-14,3.87866649 -1.95399252e-14,4.05466649 L-1.95399252e-14,12.0546665 C-1.95399252e-14,12.2446665 0.107,12.4176665 0.277,12.5026665 L7.315,16.0006665 L7.318,15.9956665 C7.373,16.0156665 7.431,16.0306665 7.492,16.0306665 L15.492,16.0306665 C15.769,16.0306665 15.992,15.8066665 15.992,15.5306665 L15.992,6.53066649 C15.992,6.25366649 15.769,6.03066649 15.492,6.03066649 L15.492,6.03066649 Z" id="Fill-5"></path>
        </g>
    </g>
</svg>