<?xml version="1.0" encoding="UTF-8"?>
<svg width="64px" height="64px" viewBox="0 0 64 64" version="1.1" xmlns="http://www.w3.org/2000/svg" xmlns:xlink="http://www.w3.org/1999/xlink">
    <title>Icon-Architecture/48/Arch_AWS-CloudShell_48</title>
    <defs>
        <linearGradient x1="0%" y1="100%" x2="100%" y2="0%" id="linearGradient-1">
            <stop stop-color="#2E27AD" offset="0%"></stop>
            <stop stop-color="#527FFF" offset="100%"></stop>
        </linearGradient>
    </defs>
    <g id="Icon-Architecture/48/Arch_AWS-CloudShell_48" stroke="none" stroke-width="1" fill="none" fill-rule="evenodd">
        <g id="Rectangle" fill="url(#linearGradient-1)">
            <rect x="0" y="0" width="64" height="64"></rect>
        </g>
        <g id="Icon-Service/48/AWS-CloudShell_48" transform="translate(8.000000, 8.000000)" fill="#FFFFFF">
            <path d="M29,40.0017264 L40,40.0017264 L40,38.0017264 L29,38.0017264 L29,40.0017264 Z M18.4,38.2017264 L19.6,39.8017264 L27.6,33.8017264 C27.841,33.6207264 27.988,33.3407264 27.999,33.0397264 C28.011,32.7377264 27.886,32.4477264 27.658,32.2497264 L19.658,25.2497264 L18.342,26.7537264 L25.413,32.9417264 L18.4,38.2017264 Z M14,44.0017264 L44,44.0017264 L44,21.0017264 L14,21.0017264 L14,44.0017264 Z M46,20.0017264 L46,45.0017264 C46,45.5537264 45.553,46.0017264 45,46.0017264 L13,46.0017264 C12.447,46.0017264 12,45.5537264 12,45.0017264 L12,20.0017264 C12,19.4497264 12.447,19.0017264 13,19.0017264 L45,19.0017264 C45.553,19.0017264 46,19.4497264 46,20.0017264 L46,20.0017264 Z M29.76,14.5617264 C28.856,13.2227264 27.218,12.8137264 26.555,12.6987264 C26.019,12.6067264 25.654,12.1017264 25.736,11.5627264 C25.733,10.2767264 25.189,9.30772638 24.239,8.99572638 C23.413,8.72472638 22.499,9.02572638 21.967,9.74872638 C21.748,10.0467264 21.378,10.1977264 21.015,10.1447264 C20.648,10.0897264 20.342,9.83672638 20.219,9.48772638 C19.811,8.32872638 19.222,7.35672638 18.469,6.59872638 C17.552,5.67572638 15.034,3.69172638 11.484,5.19972638 C9.475,6.05372638 7.839,8.61372638 7.839,10.9077264 L7.89,11.7467264 C7.918,12.2237264 7.604,12.6547264 7.141,12.7737264 C5.968,13.0747264 4,14.0017264 4,16.8317264 C4,18.9757264 5.157,20.1567264 6.129,20.7697264 C6.233,20.8207264 6.683,20.9317264 7.083,21.0017264 L9,21.0017264 L9,23.0017264 L7,23.0017264 C6.946,23.0017264 6.894,22.9977264 6.841,22.9887264 C6.367,22.9127264 5.506,22.7417264 5.061,22.4607264 C3.918,21.7387264 2,20.0477264 2,16.8317264 C2,14.1087264 3.422,12.0147264 5.848,11.0887264 L5.841,10.9667264 C5.839,7.78172638 7.93,4.53672638 10.703,3.35872638 C13.946,1.98072638 17.38,2.66672638 19.887,5.18872638 C20.537,5.84272638 21.088,6.61172638 21.533,7.48372638 C22.52,6.88472638 23.728,6.72272638 24.864,7.09572638 C26.457,7.61872638 27.481,9.01972638 27.692,10.9097264 C28.785,11.2177264 30.383,11.9107264 31.418,13.4417264 L31.418,13.4427264 C32.07,14.4087264 32.401,15.5637264 32.401,16.8757264 L30.401,16.8757264 C30.401,15.9697264 30.186,15.1907264 29.761,14.5617264 L29.76,14.5617264 Z" id="Fill-4"></path>
        </g>
    </g>
</svg>