<?xml version="1.0" encoding="UTF-8"?>
<svg width="64px" height="64px" viewBox="0 0 64 64" version="1.1" xmlns="http://www.w3.org/2000/svg" xmlns:xlink="http://www.w3.org/1999/xlink">
    <title>Icon-Architecture/48/Arch_Amazon-Corretto_48</title>
    <defs>
        <linearGradient x1="0%" y1="100%" x2="100%" y2="0%" id="linearGradient-1">
            <stop stop-color="#2E27AD" offset="0%"></stop>
            <stop stop-color="#527FFF" offset="100%"></stop>
        </linearGradient>
    </defs>
    <g id="Icon-Architecture/48/Arch_Amazon-Corretto_48" stroke="none" stroke-width="1" fill="none" fill-rule="evenodd">
        <g id="Rectangle" fill="url(#linearGradient-1)">
            <rect x="0" y="0" width="64" height="64"></rect>
        </g>
        <g id="Icon-Service/48/Amazon-Corretto_48" transform="translate(8.000000, 8.000000)" fill="#FFFFFF">
            <path d="M19.066,7 L22.066,7 L22.066,4 L19.066,4 L19.066,7 Z M17.066,8 L17.066,3 C17.066,2.448 17.513,2 18.066,2 L23.066,2 C23.619,2 24.066,2.448 24.066,3 L24.066,8 C24.066,8.552 23.619,9 23.066,9 L18.066,9 C17.513,9 17.066,8.552 17.066,8 L17.066,8 Z M28.066,12 L31.066,12 L31.066,9 L28.066,9 L28.066,12 Z M26.066,13 L26.066,8 C26.066,7.448 26.513,7 27.066,7 L32.066,7 C32.619,7 33.066,7.448 33.066,8 L33.066,13 C33.066,13.552 32.619,14 32.066,14 L27.066,14 C26.513,14 26.066,13.552 26.066,13 L26.066,13 Z M17.066,15.994 L21.066,15.994 L21.066,12 L17.066,12 L17.066,15.994 Z M15.066,16.994 L15.066,11 C15.066,10.448 15.513,10 16.066,10 L22.066,10 C22.619,10 23.066,10.448 23.066,11 L23.066,16.994 C23.066,17.546 22.619,17.994 22.066,17.994 L16.066,17.994 C15.513,17.994 15.066,17.546 15.066,16.994 L15.066,16.994 Z M22.066,29 L37.066,29 L37.066,27 L22.066,27 L22.066,29 Z M8.565,30 L10.935,30 C10.379,28.417 10.066,26.729 10.066,24.971 L10.066,20 L8.565,20 C6.296,20 4,21.639 4,24.77 C4,27.654 6.047,30 8.565,30 L8.565,30 Z M8.565,32 C4.945,32 2,28.757 2,24.77 C2,20.911 4.822,18 8.565,18 L10.066,18 L10.066,16 C10.066,15.448 10.513,15 11.066,15 L13.935,15 L13.935,17 L12.066,17 L12.066,24.971 C12.066,25.662 12.137,26.336 12.242,27 L19.066,27 L19.066,29 L12.704,29 C14.56,34.777 20.293,39 27.066,39 C35.047,39 41.066,32.969 41.066,24.971 L41.066,24 L15.066,24 L15.066,22 L41.066,22 L41.066,17 L24.066,17 L24.066,15 L42.066,15 C42.619,15 43.066,15.448 43.066,16 L43.066,24.971 C43.066,34.109 36.187,41 27.066,41 C20.369,41 14.58,37.32 11.811,32 L8.565,32 Z M45.981,39.083 C45.981,43.576 36.085,46 26.773,46 C17.462,46 7.565,43.576 7.565,39.083 C7.565,37.842 8.347,36.041 12.075,34.502 L12.838,36.35 C10.789,37.196 9.565,38.218 9.565,39.083 C9.565,41.136 16.112,44 26.773,44 C37.434,44 43.981,41.136 43.981,39.083 C43.981,38.218 42.757,37.196 40.709,36.35 L41.472,34.502 C45.199,36.041 45.981,37.842 45.981,39.083 L45.981,39.083 Z" id="Fill-3"></path>
        </g>
    </g>
</svg>