<?xml version="1.0" encoding="UTF-8"?>
<svg width="64px" height="64px" viewBox="0 0 64 64" version="1.1" xmlns="http://www.w3.org/2000/svg" xmlns:xlink="http://www.w3.org/1999/xlink">
    <!-- Generator: Sketch 64 (93537) - https://sketch.com -->
    <title>Icon-Architecture/48/Arch_AWS-CodePipeline_48</title>
    <desc>Created with Sketch.</desc>
    <defs>
        <linearGradient x1="0%" y1="100%" x2="100%" y2="0%" id="linearGradient-1">
            <stop stop-color="#2E27AD" offset="0%"></stop>
            <stop stop-color="#527FFF" offset="100%"></stop>
        </linearGradient>
    </defs>
    <g id="Icon-Architecture/48/Arch_AWS-CodePipeline_48" stroke="none" stroke-width="1" fill="none" fill-rule="evenodd">
        <g id="Icon-Architecture-BG/48/Developer-Tools" fill="url(#linearGradient-1)">
            <rect id="Rectangle" x="0" y="0" width="64" height="64"></rect>
        </g>
        <path d="M23,25 L27,25 L27,23 L23,23 L23,25 Z M29.732,48.123 L27.883,47.364 L33.826,32.861 L35.678,33.62 L29.732,48.123 Z M36.361,43.66 L40.478,40.048 L36.365,36.482 L37.676,34.972 L42.654,39.289 C42.872,39.478 42.998,39.752 42.999006,40.041 C43,40.33 42.876,40.605 42.658,40.796 L37.68,45.164 L36.361,43.66 Z M20.577976,40.12 C20.576,39.831 20.699,39.555 20.916,39.364 L25.878,34.978 L27.202,36.476 L23.099,40.104 L27.176,43.62 L25.869,45.134 L20.925,40.871 C20.706,40.682 20.58,40.408 20.577976,40.12 L20.577976,40.12 Z M48.535,28 L15.465,28 C13.714,28 12.276,26.689 12.047,25 L21,25 L21,23 L12,23 L12,16.464 C12,14.554 13.555,13 15.465,13 L48.535,13 C50.445,13 52,14.554 52,16.464 L52,23 L29,23 L29,25 L51.953,25 C51.724,26.689 50.286,28 48.535,28 L48.535,28 Z M18,52 L45,52 L45,30 L18,30 L18,52 Z M48.535,11 L15.465,11 C12.451,11 10,13.451 10,16.464 L10,24.536 C10,27.549 12.451,30 15.465,30 L16,30 L16,53 C16,53.552 16.447,54 17,54 L46,54 C46.553,54 47,53.552 47,53 L47,30 L48.535,30 C51.549,30 54,27.549 54,24.536 L54,16.464 C54,13.451 51.549,11 48.535,11 L48.535,11 Z" id="AWS-CodePipeline_Icon_48_Squid" fill="#FFFFFF"></path>
    </g>
</svg>