<?xml version="1.0" encoding="UTF-8"?>
<svg width="64px" height="64px" viewBox="0 0 64 64" version="1.1" xmlns="http://www.w3.org/2000/svg" xmlns:xlink="http://www.w3.org/1999/xlink">
    <!-- Generator: Sketch 64 (93537) - https://sketch.com -->
    <title>Icon-Architecture/48/Arch_Amazon-Codestar_48</title>
    <desc>Created with Sketch.</desc>
    <defs>
        <linearGradient x1="0%" y1="100%" x2="100%" y2="0%" id="linearGradient-1">
            <stop stop-color="#2E27AD" offset="0%"></stop>
            <stop stop-color="#527FFF" offset="100%"></stop>
        </linearGradient>
    </defs>
    <g id="Icon-Architecture/48/Arch_Amazon-Codestar_48" stroke="none" stroke-width="1" fill="none" fill-rule="evenodd">
        <g id="Icon-Architecture-BG/48/Developer-Tools" fill="url(#linearGradient-1)">
            <rect id="Rectangle" x="0" y="0" width="64" height="64"></rect>
        </g>
        <path d="M51.8916109,25.6781266 C52.0990024,24.9083429 51.9928019,24.1047445 51.5910434,23.414525 C51.1902868,22.7243055 50.5420629,22.2310074 49.7665989,22.0251351 C49.5081109,21.9555164 49.2446134,21.9217016 48.9841216,21.9217016 C48.463138,21.9217016 47.9491676,22.0569607 47.4872956,22.3225063 C46.790981,22.7213219 46.2940428,23.3647974 46.0866512,24.1335865 C45.8792597,24.9033702 45.9854602,25.7069686 46.3872187,26.3971881 C46.7879753,27.0874076 47.4361992,27.5817002 48.2106613,27.7875726 C48.9871273,27.993445 49.7966556,27.8880224 50.4919684,27.4892068 C51.1872811,27.0903913 51.6842193,26.4479103 51.8916109,25.6781266 L51.8916109,25.6781266 Z M51.4938599,29.2117719 C51.0630465,29.4584209 50.6041802,29.6304785 50.1332912,29.7408739 L50.5380554,31.8145159 L52.130061,30.9025112 L53.1319526,32.6250763 L49.1063524,34.9314437 L48.1034589,29.7896069 C47.9661998,29.7647431 47.8279387,29.7448521 47.6926834,29.7090482 C46.4002433,29.364933 45.3192023,28.5414435 44.6509407,27.3917407 C43.9816771,26.2420379 43.8053442,24.9023756 44.1509968,23.6194028 C44.4976512,22.33643 45.3262156,21.2643023 46.4854041,20.5999412 C47.6425888,19.9365747 48.9931386,19.7595443 50.2845768,20.1036595 C51.5780188,20.4467801 52.6580579,21.2692751 53.3273214,22.4199724 C53.996585,23.5696752 54.1729179,24.910332 53.8272653,26.1933049 C53.4806108,27.4762777 52.6520465,28.5484053 51.4938599,29.2117719 L51.4938599,29.2117719 Z M47.270887,40.2702018 C46.7198467,39.9549287 46.1177099,39.8047512 45.5245901,39.8047512 C44.3112994,39.8047512 43.1300693,40.4293303 42.4808436,41.5442237 C41.5150201,43.206121 42.0911078,45.3384417 43.7652685,46.2981849 C44.5757988,46.7636355 45.5225863,46.884971 46.4252906,46.6462783 C47.3289968,46.4046021 48.0854249,45.8297507 48.5533082,45.0241631 C49.5201336,43.3622658 48.9450478,41.2299451 47.270887,40.2702018 L47.270887,40.2702018 Z M50.2885844,46.0187157 C49.553196,47.2837865 48.3649526,48.1888294 46.9442704,48.5667593 C46.4693738,48.6930675 45.9864621,48.7557243 45.5085598,48.7557243 C44.5537572,48.7557243 43.6109772,48.5070862 42.763377,48.02075 C42.3405788,47.7780792 41.9788959,47.4757352 41.6472698,47.1475328 L40.5542061,48.0893741 L41.7855308,48.9486675 L40.6333556,50.5757555 L37.3030681,48.2524807 L40.5011059,45.5035374 C39.8098007,43.9580028 39.8318423,42.1230533 40.7455674,40.5496711 C42.2654369,37.9379761 45.6438152,37.0398951 48.2727786,38.5476368 C50.9037458,40.0553785 51.807452,43.4070206 50.2885844,46.0187157 L50.2885844,46.0187157 Z M32.3236671,49.0272372 C32.3236671,47.3822472 30.9751211,46.0435795 29.3179925,46.0435795 C27.6598619,46.0435795 26.3123178,47.3822472 26.3123178,49.0272372 C26.3123178,50.6722271 27.6598619,52.0108949 29.3179925,52.0108949 C30.9751211,52.0108949 32.3236671,50.6722271 32.3236671,49.0272372 L32.3236671,49.0272372 Z M34.3274502,49.0272372 C34.3274502,51.7692186 32.0802074,54 29.3179925,54 C26.5557775,54 24.3085347,51.7692186 24.3085347,49.0272372 C24.3085347,48.6125088 24.3746596,48.2156823 24.4718431,47.8297959 L23.0110852,47.3285414 L23.0110852,49.3106847 L21.0073021,49.3106847 L21.0073021,44.5338487 L25.3495,46.0266721 C26.2652289,44.8361927 27.69593,44.0544744 29.3179925,44.0544744 C32.0802074,44.0544744 34.3274502,46.2852558 34.3274502,49.0272372 L34.3274502,49.0272372 Z M18.6127813,36.6241721 C18.0567315,35.6684071 17.044821,35.1333379 16.0058595,35.1333379 C15.4968986,35.1333379 14.9799226,35.2616351 14.5080316,35.5321534 C13.8127189,35.930969 13.3157807,36.57345 13.1083891,37.3432337 C12.9009976,38.1130173 13.0071981,38.9166158 13.4089566,39.6068353 C13.8097132,40.2970548 14.4579371,40.7903528 15.2334011,40.9962252 C16.0068614,41.2030922 16.8173916,41.096675 17.5137063,40.698854 C18.209019,40.3000384 18.7059572,39.6565629 18.9133488,38.8877738 C19.1207403,38.1179901 19.0145398,37.3143916 18.6127813,36.6241721 L18.6127813,36.6241721 Z M20.8490032,39.4019575 C20.5023488,40.6849303 19.6737844,41.7570579 18.5155978,42.421419 C17.7441413,42.8630004 16.8875241,43.0897584 16.0188841,43.0897584 C15.5840632,43.0897584 15.1462366,43.0330689 14.7154232,42.9177008 C13.4229831,42.5745801 12.3419421,41.7520852 11.6726786,40.6013879 C11.003415,39.4516851 10.8270821,38.1110282 11.1727347,36.8280554 C11.5193892,35.5450826 12.3479535,34.472955 13.5061401,33.8095884 C13.7856678,33.6494654 14.0762164,33.5221627 14.3737782,33.4187292 L14.0120953,31.5728397 L12.4311105,32.4808662 L11.4272151,30.7602902 L15.4448002,28.4519337 L16.3625329,33.1571619 C16.6791306,33.1790421 16.9947265,33.2297642 17.3073166,33.3123121 C18.5997567,33.6564273 19.6797958,34.4789223 20.3490593,35.6296196 C21.0183229,36.7793223 21.1946558,38.1189847 20.8490032,39.4019575 L20.8490032,39.4019575 Z M16.8224011,23.4692254 C18.2561079,24.2897312 20.0995883,23.8024005 20.9281527,22.3772067 C21.756717,20.9530074 21.2627844,19.1250198 19.8280757,18.3025248 C19.3561848,18.0320065 18.8402107,17.9037092 18.3302479,17.9037092 C17.2912863,17.9037092 16.278374,18.4387785 15.7223242,19.3945435 C14.8937599,20.8187428 15.3876924,22.6467304 16.8224011,23.4692254 L16.8224011,23.4692254 Z M13.987048,18.399991 C15.3686565,16.0249994 18.4374503,15.2084718 20.8299673,16.5799598 L20.8299673,16.5799598 C21.1625953,16.7709139 21.4571514,16.9996609 21.7276621,17.2492936 L23.2545448,15.932506 L21.6685505,15.0214959 L22.6724458,13.2999254 L26.6870253,15.6072874 L22.8908582,18.8813544 C23.5140347,20.2836735 23.4919931,21.9465654 22.6634288,23.3717592 C21.7356772,24.9650324 20.0494938,25.8571461 18.3162214,25.8571461 C17.4676193,25.8571461 16.6069944,25.6423227 15.8205096,25.1917904 C13.4289944,23.8203024 12.6064415,20.7729934 13.987048,18.399991 L13.987048,18.399991 Z M32.0461431,14.9727628 C32.0461431,16.6187473 33.3946891,17.9564205 35.0518178,17.9564205 C36.7099483,17.9564205 38.0574924,16.6187473 38.0574924,14.9727628 C38.0574924,13.3277729 36.7099483,11.9891051 35.0518178,11.9891051 C33.3946891,11.9891051 32.0461431,13.3277729 32.0461431,14.9727628 L32.0461431,14.9727628 Z M30.04236,14.9727628 C30.04236,12.2307814 32.2906047,10 35.0518178,10 C37.8140328,10 40.0612755,12.2307814 40.0612755,14.9727628 C40.0612755,15.1756515 40.0252074,15.3676002 40.0021639,15.5645216 L41.4218442,16.0498632 L41.4218442,14.4098461 L43.4256273,14.4098461 L43.4256273,18.8405777 L39.3689684,17.4521824 C38.5013304,18.9350602 36.9013096,19.9455256 35.0518178,19.9455256 C32.2906047,19.9455256 30.04236,17.7147442 30.04236,14.9727628 L30.04236,14.9727628 Z M28.5214887,37.7440383 L30.356954,38.5436586 L35.7872062,26.2659072 L33.9517408,25.4672815 L28.5214887,37.7440383 Z M37.1457711,27.5528582 L35.7471305,28.9750684 L38.716737,31.854298 L35.3954666,34.3277503 L36.5987383,35.9190344 L41.7885365,32.0532086 L37.1457711,27.5528582 Z M22.5942983,30.8149906 L27.7840965,26.9481702 L28.9873682,28.5394544 L25.6660978,31.0129066 L28.6357043,33.8911417 L27.2370637,35.3143464 L22.5942983,30.8149906 Z" id="Amazon-Codestar_Icon_48_Squid" fill="#FFFFFF"></path>
    </g>
</svg>