<?xml version="1.0" encoding="UTF-8"?>
<svg width="64px" height="64px" viewBox="0 0 64 64" version="1.1" xmlns="http://www.w3.org/2000/svg" xmlns:xlink="http://www.w3.org/1999/xlink">
    <!-- Generator: Sketch 64 (93537) - https://sketch.com -->
    <title>Icon-Architecture/48/Arch_AWS-Cloud9_48</title>
    <desc>Created with Sketch.</desc>
    <defs>
        <linearGradient x1="0%" y1="100%" x2="100%" y2="0%" id="linearGradient-1">
            <stop stop-color="#2E27AD" offset="0%"></stop>
            <stop stop-color="#527FFF" offset="100%"></stop>
        </linearGradient>
    </defs>
    <g id="Icon-Architecture/48/Arch_AWS-Cloud9_48" stroke="none" stroke-width="1" fill="none" fill-rule="evenodd">
        <g id="Icon-Architecture-BG/48/Developer-Tools" fill="url(#linearGradient-1)">
            <rect id="Rectangle" x="0" y="0" width="64" height="64"></rect>
        </g>
        <path d="M34.676,34.4400533 C34.265,34.6691104 33.813,34.8475964 33.319,34.9745198 C32.824,35.1014432 32.333,35.164905 31.846,35.164905 C30.999,35.164905 30.357,34.9328731 29.921,34.4688093 C29.485,34.0047456 29.267,33.3264986 29.267,32.4360515 C29.267,31.5951839 29.494,30.9248696 29.949,30.4221339 C30.405,29.9193982 31.012,29.6685261 31.769,29.6685261 C33.668,29.6685261 34.637,31.1697921 34.676,34.1723242 L34.676,34.4400533 Z M31.807,28.1028068 C30.922,28.1028068 30.139,28.2971582 29.459,28.6848696 C28.779,29.072581 28.256,29.601098 27.89,30.2684375 C27.525,30.9367687 27.341,31.6973176 27.341,32.5500843 C27.341,33.8361754 27.703,34.8475964 28.429,35.5853388 C29.154,36.3230811 30.139,36.6919523 31.384,36.6919523 C31.974,36.6919523 32.551,36.6066756 33.116,36.4341391 C33.681,36.2625942 34.195,36.0246128 34.656,35.7192033 C34.567,37.2968217 34.204,38.4609474 33.569,39.2115804 C32.934,39.963205 32,40.3380257 30.768,40.3380257 C29.882,40.3380257 28.913,40.1030191 27.862,39.6320142 L27.862,41.0827092 C28.708,41.6290749 29.767,41.9027535 31.037,41.9027535 C32.809,41.9027535 34.175,41.2602037 35.138,39.9760957 C36.1,38.6900045 36.581,36.8515982 36.581,34.4588934 C36.581,32.3844889 36.174,30.8068705 35.359,29.7250467 C34.544,28.6432229 33.36,28.1028068 31.807,28.1028068 L31.807,28.1028068 Z M45.125,44.0168216 L18.744,44.0168216 C15.158,44.0128553 12.201,41.4238159 12.013,38.1228155 C12.004,37.9711024 12,37.8154228 12,37.6567686 C12,33.4206996 15.06,31.990828 16.939,31.512882 C16.957,31.5099072 16.975,31.5069324 16.993,31.5019745 C17.494,31.3889333 17.828,30.9179285 17.764,30.412218 C17.717,30.0373973 17.693,29.6506775 17.693,29.2619745 C17.693,25.8023198 20.191,22.0789024 23.38,20.783887 C28.928,18.5319879 32.86,21.4898985 34.292,22.8662243 C35.455,23.9847369 36.363,25.4146085 36.991,27.1181587 C37.117,27.4582738 37.419,27.7031963 37.78,27.7577337 C38.147,27.8122711 38.503,27.6674991 38.726,27.3789467 C39.624,26.2138294 41.075,25.7229927 42.43,26.132519 C44.041,26.6203809 45.043,28.1989909 45.181,30.462789 C45.208,30.9109873 45.536,31.2858081 45.982,31.3750511 C49.975,32.1732804 52,34.3081719 52,37.7192387 C52,43.4030279 47.193,44.0168216 45.125,44.0168216 L45.125,44.0168216 Z M47.103,29.5941569 C46.727,26.8851352 45.234,24.9079064 43.014,24.2356089 C41.369,23.7388227 39.638,24.0610892 38.281,25.0546616 C37.603,23.6614788 36.733,22.4507484 35.685,21.4432938 C32.114,18.010412 27.232,17.076335 22.622,18.9484554 C18.672,20.5528467 15.693,24.9862419 15.693,29.2619745 C15.693,29.4444269 15.697,29.6268793 15.705,29.8093318 C13.518,30.5421162 10,32.5203366 10,37.6567686 C10,37.8540948 10.006,38.0474547 10.017,38.2348651 C10.265,42.5839752 14.098,45.9950421 18.743,46 L45.125,46 C49.415,46 54,43.8244533 54,37.7192387 C54,33.5773707 51.559,30.7146527 47.103,29.5941569 L47.103,29.5941569 Z" id="AWS-Cloud9_Icon_48_Squid" fill="#FFFFFF"></path>
    </g>
</svg>