<?xml version="1.0" encoding="UTF-8"?>
<svg width="64px" height="64px" viewBox="0 0 64 64" version="1.1" xmlns="http://www.w3.org/2000/svg" xmlns:xlink="http://www.w3.org/1999/xlink">
    <title>Icon-Architecture/48/Arch_AWS-CodeArtifact_48</title>
    <defs>
        <linearGradient x1="0%" y1="100%" x2="100%" y2="0%" id="linearGradient-1">
            <stop stop-color="#2E27AD" offset="0%"></stop>
            <stop stop-color="#527FFF" offset="100%"></stop>
        </linearGradient>
    </defs>
    <g id="Icon-Architecture/48/Arch_AWS-CodeArtifact_48" stroke="none" stroke-width="1" fill="none" fill-rule="evenodd">
        <g id="Rectangle" fill="url(#linearGradient-1)">
            <rect x="0" y="0" width="64" height="64"></rect>
        </g>
        <g id="Icon-Service/48/AWS-CodeArtifact_48" transform="translate(8.000000, 8.000000)" fill="#FFFFFF">
            <path d="M21.0635,28.8911 L25.7145,18.5001 L27.5415,19.3181 L22.8895,29.7081 L21.0635,28.8911 Z M27.6455,25.6411 L30.2385,23.7491 L27.9525,21.4311 L29.3765,20.0261 L32.4765,23.1711 C32.6805,23.3781 32.7855,23.6641 32.7615,23.9541 C32.7385,24.2441 32.5885,24.5091 32.3545,24.6811 L28.8255,27.2561 L27.6455,25.6411 Z M20.9595,21.5201 L18.3275,23.4421 L20.6205,25.7611 L19.1985,27.1671 L16.0875,24.0231 C15.8825,23.8161 15.7785,23.5301 15.8015,23.2401 C15.8255,22.9501 15.9735,22.6831 16.2095,22.5121 L19.7805,19.9051 L20.9595,21.5201 Z M19.7155,3.7221 L4.0005,13.0141 L4.0005,30.8761 L2.0005,30.8761 L2.0005,12.4431 C2.0005,12.0901 2.1865,11.7631 2.4915,11.5821 L18.6985,2.0001 L19.7155,3.7221 Z M46.0005,16.8761 L46.0005,35.8931 C46.0005,36.2511 45.8085,36.5811 45.4995,36.7601 L29.3055,46.0841 L28.3075,44.3511 L44.0005,35.3151 L44.0005,16.8761 L46.0005,16.8761 Z M36.0005,30.8091 L24.4395,37.3831 L13.0005,30.6801 L13.0005,17.3971 L24.4295,10.8261 L36.0005,17.5331 L36.0005,30.8091 Z M38.0005,31.3911 L38.0005,16.9571 C38.0005,16.6001 37.8105,16.2711 37.5015,16.0921 L24.9335,8.8061 C24.6235,8.6261 24.2425,8.6251 23.9335,8.8041 L11.5015,15.9521 C11.1915,16.1301 11.0005,16.4611 11.0005,16.8191 L11.0005,31.2531 C11.0005,31.6081 11.1885,31.9361 11.4945,32.1161 L23.9255,39.4011 C24.0825,39.4921 24.2565,39.5381 24.4315,39.5381 C24.6025,39.5381 24.7725,39.4951 24.9255,39.4071 L37.4945,32.2601 C37.8065,32.0821 38.0005,31.7501 38.0005,31.3911 L38.0005,31.3911 Z" id="AWS-CodeArtifact_Icon_48_Squid"></path>
        </g>
    </g>
</svg>