<?xml version="1.0" encoding="UTF-8"?>
<svg width="64px" height="64px" viewBox="0 0 64 64" version="1.1" xmlns="http://www.w3.org/2000/svg" xmlns:xlink="http://www.w3.org/1999/xlink">
    <!-- Generator: Sketch 64 (93537) - https://sketch.com -->
    <title>Icon-Architecture/48/Arch_AWS-Tools-and-SDK_48</title>
    <desc>Created with Sketch.</desc>
    <defs>
        <linearGradient x1="0%" y1="100%" x2="100%" y2="0%" id="linearGradient-1">
            <stop stop-color="#2E27AD" offset="0%"></stop>
            <stop stop-color="#527FFF" offset="100%"></stop>
        </linearGradient>
    </defs>
    <g id="Icon-Architecture/48/Arch_AWS-Tools-and-SDK_48" stroke="none" stroke-width="1" fill="none" fill-rule="evenodd">
        <g id="Icon-Architecture-BG/48/Developer-Tools" fill="url(#linearGradient-1)">
            <rect id="Rectangle" x="0" y="0" width="64" height="64"></rect>
        </g>
        <path d="M33,52.14625 L33,45.93925 L31,45.93925 L31,52.14625 L14,42.33125 L14,22.69625 L19.563,25.90825 L20.563,24.17625 L15.005,20.96725 L32,11.15525 L48.98,20.95925 L43.457,24.17825 L44.465,25.90625 L50,22.68025 L50,42.33125 L33,52.14625 Z M51.499,20.10425 L32.5,9.13425 C32.191,8.95525 31.809,8.95525 31.5,9.13425 L12.5,20.10425 C12.19,20.28225 12,20.61225 12,20.97025 L12,42.90825 C12,43.26625 12.19,43.59625 12.5,43.77425 L31.5,54.74425 C31.654,54.83425 31.827,54.87825 32,54.87825 C32.173,54.87825 32.346,54.83425 32.5,54.74425 L51.499,43.77425 C51.809,43.59625 51.999,43.26625 51.999,42.90825 L51.999,20.97025 C51.999,20.61225 51.809,20.28225 51.499,20.10425 L51.499,20.10425 Z M33,41.12825 L33,32.53325 L40,28.64025 L40,36.86225 L33,41.12825 Z M24,28.64025 L31,32.53425 L31,41.12825 L24,36.86225 L24,28.64025 Z M32,23.08325 L38.941,26.93925 L32,30.80125 L25.059,26.93925 L32,23.08325 Z M41.485,26.06525 L32.485,21.06525 C32.185,20.89725 31.815,20.89725 31.515,21.06525 L22.515,26.06525 C22.197,26.24125 22,26.57625 22,26.93925 L22,37.42425 C22,37.77225 22.182,38.09625 22.479,38.27825 L31.479,43.76325 C31.64,43.86025 31.819,43.90925 32,43.90925 C32.181,43.90925 32.36,43.86025 32.521,43.76325 L41.521,38.27825 C41.818,38.09625 42,37.77225 42,37.42425 L42,26.93925 C42,26.57625 41.803,26.24125 41.485,26.06525 L41.485,26.06525 Z" id="AWS-Tools-and-SDK_Icon_48_Squid" fill="#FFFFFF"></path>
    </g>
</svg>