<?xml version="1.0" encoding="UTF-8"?>
<svg width="64px" height="64px" viewBox="0 0 64 64" version="1.1" xmlns="http://www.w3.org/2000/svg" xmlns:xlink="http://www.w3.org/1999/xlink">
    <!-- Generator: Sketch 64 (93537) - https://sketch.com -->
    <title>Icon-Architecture/48/Arch_AWS-Cloud-Development-Kit_48</title>
    <desc>Created with Sketch.</desc>
    <defs>
        <linearGradient x1="0%" y1="100%" x2="100%" y2="0%" id="linearGradient-1">
            <stop stop-color="#2E27AD" offset="0%"></stop>
            <stop stop-color="#527FFF" offset="100%"></stop>
        </linearGradient>
    </defs>
    <g id="Icon-Architecture/48/Arch_AWS-Cloud-Development-Kit_48" stroke="none" stroke-width="1" fill="none" fill-rule="evenodd">
        <g id="Icon-Architecture-BG/48/Developer-Tools" fill="url(#linearGradient-1)">
            <rect id="Rectangle" x="0" y="0" width="64" height="64"></rect>
        </g>
        <path d="M54,30.6657388 C54,36.1941545 50.219,38.2227831 47.966,38.9402495 L47.362,37.0202974 C49.479,36.3481129 52,34.6988458 52,30.6657388 C52,25.5639791 47.811,24.2890424 46.01,23.9771004 C45.482,23.8865367 45.121,23.3944735 45.187,22.8641722 C45.005,20.5719023 43.948,18.9276665 42.349,18.4577411 C41.024,18.0683169 39.608,18.586543 38.735,19.7779598 C38.516,20.0768203 38.147,20.2277599 37.783,20.1754342 C37.417,20.1200896 37.111,19.8665111 36.988,19.5153248 C36.357,17.7211557 35.446,16.2147782 34.28,15.037449 C32.85,13.5934599 28.93,10.4911472 23.391,12.8508369 C20.195,14.2123124 17.692,18.1377491 17.692,21.7874695 C17.692,22.1980253 17.717,22.6075748 17.765,23.0030367 C17.824,23.5051625 17.506,23.9740816 17.019,24.0998647 C15.145,24.5798527 12,26.0640925 12,30.6003316 C12,30.7492587 12.004,30.8961733 12.011,31.0390628 C12.151,33.9562228 14.289,36.462827 17.208,37.137024 L16.761,39.098233 C12.972,38.2237894 10.197,34.9504119 10.013,31.1376767 C10.004,30.9625867 10,30.7834717 10,30.6003316 C10,25.2258744 13.521,23.1600139 15.707,22.3962593 C15.697,22.1940002 15.692,21.9907349 15.692,21.7874695 C15.692,17.3166375 18.667,12.6787657 22.611,10.9972981 C27.231,9.03005157 32.123,10.0091467 35.696,13.6166039 C36.742,14.6721751 37.61,15.940068 38.287,17.3981449 C39.609,16.3948995 41.296,16.0537759 42.909,16.5257138 C45.197,17.1989046 46.74,19.279859 47.122,22.1557622 C50.578,23.0110868 54,25.624355 54,30.6657388 L54,30.6657388 Z M45,48.3679391 L40,51.242836 L40,44.5038845 L45,41.6289876 L45,48.3679391 Z M39,42.7620411 L33.991,39.8921755 L39.001,36.9065895 L44.009,39.8811066 L39,42.7620411 Z M31,48.3860519 L26,51.2599425 L26,44.5028782 L31,41.6179187 L31,48.3860519 Z M18.962,41.6350251 L24,44.5069033 L24,51.1371783 L18.962,47.8326065 L18.962,41.6350251 Z M31.981,24.9561955 L36.986,27.8351175 L31.998,30.6878766 L27.013,27.8572553 L31.981,24.9561955 Z M38,35.1637399 L33,38.1442945 L33,32.42972 L38,29.569917 L38,35.1637399 Z M31,38.1221567 L26,35.1617274 L26,29.5930611 L31,32.4327388 L31,38.1221567 Z M24.997,42.7620411 L19.961,39.8921755 L25,36.904577 L30.009,39.8690314 L24.997,42.7620411 Z M38,51.2468611 L33,48.3850456 L33,41.6400565 L38,44.5048907 L38,51.2468611 Z M46.508,39.0298071 L46.509,39.0288008 L40,35.1627336 L40,27.8391426 C40,27.4809125 39.811,27.1498516 39.503,26.9697303 C39.484,26.9586614 39.465,26.9546363 39.446,26.9455799 L39.452,26.934511 L32.474,22.9215293 C32.164,22.7424142 31.783,22.7444268 31.476,22.9245481 L24.498,26.9999182 L24.496,27.0009245 C24.188,27.182052 24,27.5121067 24,27.8703367 L24,35.1617274 L17.454,39.0418822 L17.455,39.0428885 C17.15,39.2240161 16.962,39.5530645 16.962,39.909282 L16.962,48.3780017 C16.962,48.7181191 17.133,49.0350923 17.416,49.2212512 L24.454,53.8369852 L24.457,53.8319539 C24.472,53.8420165 24.482,53.855098 24.498,53.8641543 C24.653,53.9557244 24.826,54 25,54 C25.171,54 25.343,53.9567306 25.496,53.8681794 L32.001,50.1278952 L38.498,53.8470478 L38.506,53.8510729 L38.506,53.8500666 C38.659,53.9376116 38.829,53.9828935 39,53.9828935 C39.171,53.9828935 39.343,53.9386179 39.496,53.8500666 L46.496,49.8250097 C46.808,49.6458947 47,49.3128212 47,48.9515724 L47,39.8951943 C47,39.5389768 46.813,39.2099284 46.508,39.0298071 L46.508,39.0298071 Z" id="AWS-Cloud-Development-Kit_Icon_48_Squid" fill="#FFFFFF"></path>
    </g>
</svg>