<?xml version="1.0" encoding="UTF-8"?>
<svg width="64px" height="64px" viewBox="0 0 64 64" version="1.1" xmlns="http://www.w3.org/2000/svg" xmlns:xlink="http://www.w3.org/1999/xlink">
    <!-- Generator: Sketch 64 (93537) - https://sketch.com -->
    <title>Icon-Architecture/48/Arch_AWS-CodeDeploy_48</title>
    <desc>Created with Sketch.</desc>
    <defs>
        <linearGradient x1="0%" y1="100%" x2="100%" y2="0%" id="linearGradient-1">
            <stop stop-color="#2E27AD" offset="0%"></stop>
            <stop stop-color="#527FFF" offset="100%"></stop>
        </linearGradient>
    </defs>
    <g id="Icon-Architecture/48/Arch_AWS-CodeDeploy_48" stroke="none" stroke-width="1" fill="none" fill-rule="evenodd">
        <g id="Icon-Architecture-BG/48/Developer-Tools" fill="url(#linearGradient-1)">
            <rect id="Rectangle" x="0" y="0" width="64" height="64"></rect>
        </g>
        <path d="M35.5075522,48.1501433 L38.4235925,45.9312321 L35.5075522,43.7123209 L36.6996191,42.0985673 L40.6764896,45.1243553 C40.9270325,45.3139713 41.0751709,45.6135244 41.0751709,45.9312321 C41.0751709,46.2489398 40.9270325,46.5474842 40.6764896,46.7381089 L36.6996191,49.7638968 L35.5075522,48.1501433 Z M24.5711583,46.7381089 C24.3206155,46.5474842 24.1734713,46.2489398 24.1734713,45.9312321 C24.1734713,45.6135244 24.3206155,45.3139713 24.5711583,45.1243553 L28.5480288,42.0985673 L29.7400958,43.7123209 L26.8250497,45.9312321 L29.7400958,48.1501433 L28.5480288,49.7638968 L24.5711583,46.7381089 Z M23.1792537,51.982808 L42.0693885,51.982808 L42.0693885,39.8796562 L23.1792537,39.8796562 L23.1792537,51.982808 Z M43.0636061,37.8624642 L22.185036,37.8624642 C21.6352337,37.8624642 21.1908184,38.3143152 21.1908184,38.8710602 L21.1908184,52.991404 C21.1908184,53.548149 21.6352337,54 22.185036,54 L43.0636061,54 C43.6124143,54 44.0578238,53.548149 44.0578238,52.991404 L44.0578238,38.8710602 C44.0578238,38.3143152 43.6124143,37.8624642 43.0636061,37.8624642 L43.0636061,37.8624642 Z M32.0854551,51.2636791 L30.1805342,50.684745 L33.163187,40.5987851 L35.068108,41.1777192 L32.0854551,51.2636791 Z M46.1844553,25.1057421 C43.7158129,25.1057421 41.6538055,25.9085845 40.2589182,27.2732149 C39.8980172,21.269043 38.5568176,15.4887794 36.3228106,12.3732264 C44.0687602,13.8054327 49.9664591,19.5423266 51.5751032,27.2177421 C50.1145975,25.8541203 48.2086823,25.1057421 46.1844553,25.1057421 L46.1844553,25.1057421 Z M38.046784,27.3539026 C36.5683824,25.9045501 34.6008257,25.1057421 32.5040207,25.1057421 C30.1377828,25.1057421 28.1543186,25.8168023 26.7703677,27.0593926 C27.3420428,18.0455702 30.0492974,12.0202178 32.5109803,12.017192 L32.5159514,12.017192 C35.0263509,12.022235 37.7853048,18.2846074 38.284402,27.5858797 L38.046784,27.3539026 Z M24.7401753,27.7250659 C24.6606379,27.6453868 24.5830889,27.5667163 24.5015631,27.4860287 L24.3663495,27.3539026 C22.8889421,25.9045501 20.9203912,25.1057421 18.8245805,25.1057421 C16.7655558,25.1057421 14.984912,25.6513926 13.6437124,26.6236791 C15.5446565,19.2710143 21.3091303,13.8044241 28.6931846,12.3893639 C26.4094667,15.5856046 25.0593192,21.5696046 24.7401753,27.7250659 L24.7401753,27.7250659 Z M54,31.1764814 C54,31.1442063 54,31.1129398 53.9990058,31.0816734 C53.7862432,19.0672779 44.5738227,10.0171461 32.5358357,10.0010086 C32.527882,10.0010086 32.5209224,10 32.5129687,10 L32.5089918,10 L32.5040207,10 C20.6976865,10 11.453451,19.0582006 11.001082,31.0615014 C10.9831861,31.4397249 11.1889891,31.781639 11.4922255,31.9732722 L11.4882486,31.9793238 L19.1278168,37.0243209 L20.2135025,35.333914 L13.1585342,30.6752092 C13.7600359,28.503702 15.9025749,27.1229341 18.8245805,27.1229341 C20.4024038,27.1229341 21.878817,27.7200229 22.9833928,28.8042636 L23.1196006,28.9373983 C24.1337026,29.9298567 24.6934471,31.661616 24.6984182,31.6918739 C24.7043835,31.7312092 24.7043835,31.771553 24.7133314,31.8048367 L25.7105317,35.5416848 L27.6283775,35.0141891 L26.6709459,31.429639 L26.6739286,31.3892951 C27.0169337,28.2434842 29.910107,27.1229341 32.5040207,27.1229341 C34.0818441,27.1229341 35.5592515,27.7200229 36.6638273,28.8042636 L36.9402198,29.0735587 C37.8111544,29.9177536 38.2118241,30.3080802 38.3361013,31.4397249 L37.370716,35.0111633 L39.289556,35.543702 L40.2947101,31.8199656 C40.303658,31.7866819 40.3116118,31.7513811 40.3185713,31.7170888 C40.3235424,31.6858223 40.3255308,31.6535473 40.3295077,31.6222808 C40.3295077,31.6172378 40.3324903,31.6132034 40.3324903,31.6091691 C40.5581777,28.2979484 43.6263333,27.1229341 46.1844553,27.1229341 C47.7563133,27.1229341 49.2307381,27.7200229 50.3353138,28.8042636 C51.1237284,29.5778567 51.6944093,30.173937 51.9111488,30.720596 L45.6247107,35.1604355 L46.7601073,36.8165501 L53.5734806,32.0045387 L53.5625442,31.9894097 C53.8210408,31.8068539 54,31.5183954 54,31.1764814 L54,31.1764814 Z" id="AWS-CodeDeploy_Icon_48_Squid" fill="#FFFFFF"></path>
    </g>
</svg>