<?xml version="1.0" encoding="UTF-8"?>
<svg width="64px" height="64px" viewBox="0 0 64 64" version="1.1" xmlns="http://www.w3.org/2000/svg" xmlns:xlink="http://www.w3.org/1999/xlink">
    <!-- Generator: Sketch 64 (93537) - https://sketch.com -->
    <title>Icon-Architecture/48/Arch_AWS-Command-Line-Interface_48</title>
    <desc>Created with Sketch.</desc>
    <defs>
        <linearGradient x1="0%" y1="100%" x2="100%" y2="0%" id="linearGradient-1">
            <stop stop-color="#2E27AD" offset="0%"></stop>
            <stop stop-color="#527FFF" offset="100%"></stop>
        </linearGradient>
    </defs>
    <g id="Icon-Architecture/48/Arch_AWS-Command-Line-Interface_48" stroke="none" stroke-width="1" fill="none" fill-rule="evenodd">
        <g id="Icon-Architecture-BG/48/Developer-Tools" fill="url(#linearGradient-1)">
            <rect id="Rectangle" x="0" y="0" width="64" height="64"></rect>
        </g>
        <path d="M10,11 L10,53 L36,53 L36,51.001 L12,51.001 L12,21 L52,21 L52,51.001 L46,51.001 L46,53 L54,53 L54,11 L10,11 Z M12,19 L52.001,19 L52.001,13.001 L12,13.001 L12,19 Z M22,17 L24.001,17 L24.001,15 L22,15 L22,17 Z M18,17 L20,17 L20,15 L18,15 L18,17 Z M14,17 L16.001,17 L16.001,15 L14,15 L14,17 Z M17.886,26.827 L25.569,34.511 L17.886,42.194 L19.3,43.608 L28.398,34.511 L19.3,25.413 L17.886,26.827 Z M29,40.001 L43,40.001 L43,38 L29,38 L29,40.001 Z" id="AWS-Command-Line-Interface_Icon_48_Squid" fill="#FFFFFF"></path>
    </g>
</svg>