<?xml version="1.0" encoding="UTF-8"?>
<svg width="64px" height="64px" viewBox="0 0 64 64" version="1.1" xmlns="http://www.w3.org/2000/svg" xmlns:xlink="http://www.w3.org/1999/xlink">
    <!-- Generator: Sketch 64 (93537) - https://sketch.com -->
    <title>Icon-Architecture/48/Arch_AWS-X-Ray_48</title>
    <desc>Created with Sketch.</desc>
    <defs>
        <linearGradient x1="0%" y1="100%" x2="100%" y2="0%" id="linearGradient-1">
            <stop stop-color="#2E27AD" offset="0%"></stop>
            <stop stop-color="#527FFF" offset="100%"></stop>
        </linearGradient>
    </defs>
    <g id="Icon-Architecture/48/Arch_AWS-X-Ray_48" stroke="none" stroke-width="1" fill="none" fill-rule="evenodd">
        <g id="Icon-Architecture-BG/48/Developer-Tools" fill="url(#linearGradient-1)">
            <rect id="Rectangle" x="0" y="0" width="64" height="64"></rect>
        </g>
        <path d="M37.0574713,33.9632682 L35.0344828,33.9632682 L35.0344828,43.9826007 L33.0114943,43.9826007 L33.0114943,35.9671347 L30.9885057,35.9671347 L30.9885057,43.9826007 L28.9655172,43.9826007 L28.9655172,38.9729345 L26.9425287,38.9729345 L26.9425287,43.9826007 L24.9195402,43.9826007 L24.9195402,45.9864672 L39.0804598,45.9864672 L39.0804598,43.9826007 L37.0574713,43.9826007 L37.0574713,33.9632682 Z M43.1264368,39.9748677 C43.1264368,33.8981425 38.1347126,28.9536019 32,28.9536019 C25.8652874,28.9536019 20.8735632,33.8981425 20.8735632,39.9748677 C20.8735632,46.0515929 25.8652874,50.9961335 32,50.9961335 C38.1347126,50.9961335 43.1264368,46.0515929 43.1264368,39.9748677 L43.1264368,39.9748677 Z M45.1494253,39.9748677 C45.1494253,47.1567253 39.2503908,53 32,53 C24.7496092,53 18.8505747,47.1567253 18.8505747,39.9748677 C18.8505747,32.7930102 24.7496092,26.9497354 32,26.9497354 C39.2503908,26.9497354 45.1494253,32.7930102 45.1494253,39.9748677 L45.1494253,39.9748677 Z M54,30.7610895 C54,35.3559554 51.4510345,38.3447223 47.0075402,38.9599093 L46.7273563,36.9760815 C49.1225747,36.6444416 51.9770115,35.2968414 51.9770115,30.7610895 C51.9770115,27.3424933 49.9550345,25.2073735 45.9677241,24.4148443 C45.5155862,24.3246703 45.1828046,23.9439357 45.1575172,23.488056 C44.9693793,20.1967053 43.0546207,19.0284511 41.4706207,19.0284511 C40.4024828,19.0284511 39.4041379,19.5284158 38.7345287,20.4010997 C38.5109885,20.6916603 38.1488736,20.8389445 37.7806897,20.7848401 C37.4155402,20.7307357 37.110069,20.4842601 36.9816092,20.1426009 C36.3504368,18.4553453 35.4188506,16.9875131 34.285977,15.8954058 C32.8567356,14.5137399 28.9371954,11.5490194 23.3952184,13.8073769 C20.2110345,15.1018747 17.7166897,18.8270625 17.7166897,22.2887419 C17.7166897,22.6814998 17.739954,23.068246 17.7864828,23.4389613 C17.8502069,23.9419318 17.5234943,24.4128404 17.0258391,24.5350763 C15.1576092,24.9929598 12.0229885,26.4036818 12.0229885,30.6999716 C12.0229885,30.8562732 12.0310805,30.9985477 12.0381609,31.1458319 C12.1787586,33.6777172 14.3807816,35.9881753 17.394023,36.7827084 L16.872092,38.7194453 C13.0243678,37.703485 10.2063448,34.6425789 10.0202299,31.2750813 C10.0091034,31.0656772 10,30.8923428 10,30.6999716 C10,25.5520385 13.5149425,23.5682107 15.7068506,22.8317897 C15.6977471,22.6514418 15.6937011,22.4710938 15.6937011,22.2887419 C15.6937011,18.0034734 18.6735632,13.5609014 22.6254713,11.9538004 C27.2388966,10.0721698 32.1274483,11.0089774 35.6970115,14.4596355 C36.7165977,15.442532 37.5945747,16.6699002 38.2803678,18.0595817 C39.2008276,17.3912922 40.3074023,17.0245846 41.4706207,17.0245846 C43.8901149,17.0245846 46.5827126,18.7809736 47.1046437,22.6153722 C51.5592644,23.7345316 54,26.6040684 54,30.7610895 L54,30.7610895 Z" id="AWS-X-Ray_Icon_48_Squid" fill="#FFFFFF"></path>
    </g>
</svg>