<?xml version="1.0" encoding="UTF-8"?>
<svg width="80px" height="80px" viewBox="0 0 80 80" version="1.1" xmlns="http://www.w3.org/2000/svg" xmlns:xlink="http://www.w3.org/1999/xlink">
    <title>Icon-Architecture/64/Arch_AWS-Scout_64</title>
    <defs>
        <linearGradient x1="0%" y1="100%" x2="100%" y2="0%" id="linearGradient-1">
            <stop stop-color="#C8511B" offset="0%"></stop>
            <stop stop-color="#FF9900" offset="100%"></stop>
        </linearGradient>
    </defs>
    <g id="Icon-Architecture/64/Arch_AWS-Scout_64" stroke="none" stroke-width="1" fill="none" fill-rule="evenodd">
        <g id="Rectangle" transform="translate(-0.000000, 0.000000)" fill="url(#linearGradient-1)">
            <rect x="0" y="0" width="80" height="80"></rect>
        </g>
        <g id="Icon-Service/64/AWS-Scout_64" transform="translate(8.000000, 8.000000)" fill="#FFFFFF">
            <path d="M58,40.9941175 C58,40.4431175 57.552,39.9941175 57,39.9941175 L15,39.9941175 C14.448,39.9941175 14,40.4431175 14,40.9941175 L14,46.9941175 C14,47.5451175 14.448,47.9941175 15,47.9941175 L57,47.9941175 C57.552,47.9941175 58,47.5451175 58,46.9941175 L58,40.9941175 Z M60,40.9941175 L60,46.9941175 C60,48.6481175 58.654,49.9941175 57,49.9941175 L15,49.9941175 C13.346,49.9941175 12,48.6481175 12,46.9941175 L12,40.9941175 C12,39.3401175 13.346,37.9941175 15,37.9941175 L57,37.9941175 C58.654,37.9941175 60,39.3401175 60,40.9941175 L60,40.9941175 Z M17,44.9941175 L20,44.9941175 L20,42.9941175 L17,42.9941175 L17,44.9941175 Z M23,44.9941175 L29,44.9941175 L29,42.9941175 L23,42.9941175 L23,44.9941175 Z M32,44.9941175 L55,44.9941175 L55,42.9941175 L32,42.9941175 L32,44.9941175 Z M11.29,25.4161175 C11.297,25.4631175 11.3,25.5101175 11.3,25.5581175 C11.3,26.0381175 10.96,26.4451175 10.502,26.5381175 C8.799,26.9861175 6,28.3381175 6,32.3841175 C6,32.5191175 6.004,32.6521175 6.01,32.7831175 C6.1,34.6461175 6.774,37.8451175 10.276,38.3181175 L10.009,40.3001175 C4.743,39.5881175 4.088,34.4391175 4.012,32.8781175 C4.004,32.7151175 4,32.5511175 4,32.3841175 C4,28.7621175 5.941,25.9951175 9.238,24.8351175 C9.231,24.6701175 9.228,24.5051175 9.228,24.3401175 C9.228,20.2301175 11.98,15.9641175 15.632,14.4181175 C19.903,12.6081175 24.431,13.5071175 27.738,16.8251175 C28.684,17.7741175 29.472,18.9091175 30.091,20.2101175 C31.314,19.3251175 32.857,19.0311175 34.327,19.4601175 C36.441,20.0781175 37.873,21.9741175 38.244,24.5951175 C40.432,25.0811175 44.571,26.7121175 44.571,34.4021175 L42.571,34.4021175 C42.571,28.1911175 39.824,26.8811175 37.138,26.4191175 C36.613,26.3291175 36.253,25.8461175 36.313,25.3211175 C36.147,23.2681175 35.2,21.7991175 33.767,21.3801175 C32.585,21.0351175 31.318,21.4961175 30.537,22.5551175 C30.317,22.8511175 29.946,23.0041175 29.585,22.9501175 C29.219,22.8951175 28.913,22.6421175 28.79,22.2941175 C28.215,20.6681175 27.385,19.3041175 26.322,18.2371175 C25.021,16.9321175 21.45,14.1251175 16.411,16.2601175 C13.505,17.4911175 11.228,21.0401175 11.228,24.3401175 C11.228,24.7021175 11.248,25.0631175 11.29,25.4161175 L11.29,25.4161175 Z" id="Fill-1"></path>
        </g>
    </g>
</svg>