<?xml version="1.0" encoding="UTF-8"?>
<svg width="80px" height="80px" viewBox="0 0 80 80" version="1.1" xmlns="http://www.w3.org/2000/svg" xmlns:xlink="http://www.w3.org/1999/xlink">
    <title>Icon-Architecture/64/Arch_AWS-NICE-DCV_64</title>
    <defs>
        <linearGradient x1="0%" y1="100%" x2="100%" y2="0%" id="linearGradient-1">
            <stop stop-color="#C8511B" offset="0%"></stop>
            <stop stop-color="#FF9900" offset="100%"></stop>
        </linearGradient>
    </defs>
    <g id="Icon-Architecture/64/Arch_AWS-NICE-DCV_64" stroke="none" stroke-width="1" fill="none" fill-rule="evenodd">
        <g id="Rectangle" transform="translate(-0.000000, 0.000000)" fill="url(#linearGradient-1)">
            <rect x="0" y="0" width="80" height="80"></rect>
        </g>
        <g id="Icon-Service/64/AWS-NICE-DCV_64" transform="translate(8.000000, 8.000000)" fill="#FFFFFF">
            <path d="M53.0692448,30.3860236 C48.3272448,33.3450236 41.7172448,36.3530236 34.4602448,38.8550236 C29.3392448,40.6200236 24.3302448,41.9780236 19.8652448,42.8380236 C23.7272448,52.6800236 30.9442448,59.0370236 37.9772448,57.8530236 C44.5142448,56.7500236 49.3872448,49.0930236 50.1002448,38.8010236 L52.0962448,38.9390236 C51.3042448,50.3470236 45.8932448,58.5450236 38.3092448,59.8250236 C37.6482448,59.9370236 36.9842448,59.9910236 36.3232448,59.9910236 C28.9452448,59.9910236 21.7182448,53.2090236 17.8712448,43.1940236 C16.7332448,43.3800236 15.6252448,43.5420236 14.5842448,43.6530236 C13.1732448,43.8030236 11.9012448,43.8790236 10.7692448,43.8790236 C6.95024479,43.8790236 4.72624479,43.0250236 4.14124479,41.3280236 C3.41424479,39.2180236 5.49624479,36.5660236 10.3282448,33.4450236 L11.4142448,35.1250236 C6.70424479,38.1670236 5.81424479,40.0460236 6.03224479,40.6770236 C6.26324479,41.3480236 8.27924479,42.3130236 14.3722448,41.6650236 C15.2672448,41.5700236 16.2162448,41.4330236 17.1872448,41.2800236 C16.5372448,39.2970236 16.0142448,37.2050236 15.6472448,35.0280236 C14.4062448,27.6730236 15.0562448,20.4380236 17.4802448,14.6540236 C19.9692448,8.71502364 24.0312448,4.99002364 28.9172448,4.16602364 C34.8032448,3.17102364 41.0752448,6.69102364 45.6792448,13.5790236 L44.0172448,14.6900236 C39.8622448,8.47602364 34.3492448,5.28002364 29.2492448,6.13802364 C25.0632448,6.84402364 21.5392448,10.1430236 19.3252448,15.4270236 C17.0462448,20.8660236 16.4402448,27.7090236 17.6202448,34.6950236 C17.9882448,36.8760236 18.5152448,38.9660236 19.1732448,40.9370236 C23.6182448,40.1000236 28.6512448,38.7420236 33.8072448,36.9650236 C40.9272448,34.5100236 47.3922448,31.5720236 52.0102448,28.6890236 C57.2072448,25.4470236 58.2012448,23.4440236 57.9692448,22.7720236 C57.7692448,22.1890236 56.0952448,21.2990236 51.0972448,21.6530236 L50.9572448,19.6570236 C56.1712448,19.2890236 59.1712448,20.1160236 59.8602448,22.1200236 C60.6192448,24.3200236 58.3342448,27.1010236 53.0692448,30.3860236" id="Fill-8"></path>
        </g>
    </g>
</svg>