<?xml version="1.0" encoding="UTF-8"?>
<svg width="80px" height="80px" viewBox="0 0 80 80" version="1.1" xmlns="http://www.w3.org/2000/svg" xmlns:xlink="http://www.w3.org/1999/xlink">
    <title>Icon-Architecture/64/Arch_AWS-Parallel-Cluster_64</title>
    <defs>
        <linearGradient x1="0%" y1="100%" x2="100%" y2="0%" id="linearGradient-1">
            <stop stop-color="#C8511B" offset="0%"></stop>
            <stop stop-color="#FF9900" offset="100%"></stop>
        </linearGradient>
    </defs>
    <g id="Icon-Architecture/64/Arch_AWS-Parallel-Cluster_64" stroke="none" stroke-width="1" fill="none" fill-rule="evenodd">
        <g id="Rectangle" fill="url(#linearGradient-1)">
            <rect x="0" y="0" width="80" height="80"></rect>
        </g>
        <g id="Icon-Service/64/AWS-ParallelClusters_64" transform="translate(8.000000, 8.000000)" fill="#FFFFFF">
            <path d="M40.7707956,54 L48.7707956,54 L48.7707956,46 L40.7707956,46 L40.7707956,54 Z M50.7707956,45 L50.7707956,55 C50.7707956,55.552 50.3227956,56 49.7707956,56 L39.7707956,56 C39.2177956,56 38.7707956,55.552 38.7707956,55 L38.7707956,45 C38.7707956,44.448 39.2177956,44 39.7707956,44 L49.7707956,44 C50.3227956,44 50.7707956,44.448 50.7707956,45 L50.7707956,45 Z M55.7707956,38 L45.7707956,38 C45.2177956,38 44.7707956,38.448 44.7707956,39 L44.7707956,42 C44.7707956,42.552 45.2177956,43 45.7707956,43 C46.3227956,43 46.7707956,42.552 46.7707956,42 L46.7707956,40 L54.7707956,40 L54.7707956,48 L53.7707956,48 C53.2177956,48 52.7707956,48.448 52.7707956,49 C52.7707956,49.552 53.2177956,50 53.7707956,50 L55.7707956,50 C56.3227956,50 56.7707956,49.552 56.7707956,49 L56.7707956,39 C56.7707956,38.448 56.3227956,38 55.7707956,38 L55.7707956,38 Z M14.7707956,18 L22.7707956,18 L22.7707956,10 L14.7707956,10 L14.7707956,18 Z M12.7707956,19 L12.7707956,9 C12.7707956,8.448 13.2177956,8 13.7707956,8 L23.7707956,8 C24.3227956,8 24.7707956,8.448 24.7707956,9 L24.7707956,19 C24.7707956,19.552 24.3227956,20 23.7707956,20 L13.7707956,20 C13.2177956,20 12.7707956,19.552 12.7707956,19 L12.7707956,19 Z M6.77079565,26 L16.7707956,26 C17.3227956,26 17.7707956,25.552 17.7707956,25 L17.7707956,23 C17.7707956,22.448 17.3227956,22 16.7707956,22 C16.2177956,22 15.7707956,22.448 15.7707956,23 L15.7707956,24 L7.77079565,24 L7.77079565,16 L9.77079565,16 C10.3227956,16 10.7707956,15.552 10.7707956,15 C10.7707956,14.448 10.3227956,14 9.77079565,14 L6.77079565,14 C6.21779565,14 5.77079565,14.448 5.77079565,15 L5.77079565,25 C5.77079565,25.552 6.21779565,26 6.77079565,26 L6.77079565,26 Z M59.0797956,36.135 C58.9287956,36.667 58.3687956,36.973 57.8457956,36.824 C57.3147956,36.674 57.0057956,36.121 57.1557956,35.589 C57.9717956,32.712 57.4427956,29.554 55.7757956,27.348 C54.2157956,25.285 51.8307956,24.194 48.8777956,24.194 C41.2627956,24.194 37.1047956,28.44 32.9877956,33.214 C35.5707956,36.166 38.2937956,39.068 41.6967956,40.702 C42.1947956,40.941 42.4047956,41.539 42.1657956,42.036 C41.9937956,42.395 41.6367956,42.604 41.2637956,42.604 C41.1187956,42.604 40.9717956,42.572 40.8317956,42.505 C37.1637956,40.744 34.3337956,37.778 31.6727956,34.748 C27.6587956,39.436 23.4207956,44.125 16.0747956,44.125 C12.0037956,44.125 8.52779565,42.472 6.28779565,39.471 C4.14979565,36.606 3.45679565,32.927 4.43579565,29.628 C4.59179565,29.099 5.14879565,28.796 5.67879565,28.954 C6.20779565,29.11 6.51079565,29.667 6.35379565,30.196 C5.56579565,32.853 6.15379565,35.949 7.89079565,38.274 C9.74379565,40.757 12.6507956,42.125 16.0747956,42.125 C22.6277956,42.125 26.4027956,37.833 30.3437956,33.225 C27.3687956,29.8 24.5267956,26.6 20.7747956,25.09 C20.2617956,24.884 20.0137956,24.301 20.2197956,23.789 C20.4267956,23.276 21.0137956,23.028 21.5207956,23.234 C25.6197956,24.884 28.7087956,28.298 31.6607956,31.692 C35.8767956,26.824 40.5147956,22.194 48.8777956,22.194 C52.4307956,22.194 55.4467956,23.596 57.3707956,26.142 C59.4087956,28.837 60.0637956,32.667 59.0797956,36.135 L59.0797956,36.135 Z" id="AWS-ParallelClusters_Icon_64_Squid"></path>
        </g>
    </g>
</svg>