<?xml version="1.0" encoding="UTF-8"?>
<svg width="80px" height="80px" viewBox="0 0 80 80" version="1.1" xmlns="http://www.w3.org/2000/svg" xmlns:xlink="http://www.w3.org/1999/xlink">
    <title>Icon-Architecture/64/Arch_AWS-ThinkBox-Sequoia_64</title>
    <defs>
        <linearGradient x1="0%" y1="100%" x2="100%" y2="0%" id="linearGradient-1">
            <stop stop-color="#C8511B" offset="0%"></stop>
            <stop stop-color="#FF9900" offset="100%"></stop>
        </linearGradient>
    </defs>
    <g id="Icon-Architecture/64/Arch_AWS-ThinkBox-Sequoia_64" stroke="none" stroke-width="1" fill="none" fill-rule="evenodd">
        <g id="Rectangle" fill="url(#linearGradient-1)">
            <rect x="0" y="0" width="80" height="80"></rect>
        </g>
        <g id="Icon-Service/64/AWS-ThinkBox-Sequoia_64" transform="translate(8.000000, 8.000000)" fill="#FFFFFF">
            <path d="M32.479,41.30125 C32.652,41.30125 32.825,41.25725 32.979,41.16725 L36.481,39.14525 L35.481,37.41325 L32.479,39.14625 L29.477,37.41325 L28.477,39.14525 L31.979,41.16725 C32.133,41.25725 32.306,41.30125 32.479,41.30125 L32.479,41.30125 Z M56.458,17.69025 L51.563,14.86425 L50.563,16.59625 L53.958,18.55625 L50.563,20.51525 L51.563,22.24825 L54.958,20.28825 L54.958,43.93425 L51.563,41.97425 L50.563,43.70725 L53.958,45.66625 L32.479,58.06725 L11,45.66625 L14.395,43.70725 L13.395,41.97425 L10,43.93425 L10,20.28825 L13.395,22.24825 L14.395,20.51525 L11,18.55625 L14.395,16.59625 L13.395,14.86425 L8.5,17.69025 C8.191,17.86825 8,18.19825 8,18.55625 L8,45.66625 C8,46.02425 8.191,46.35425 8.5,46.53225 L31.979,60.08825 C32.133,60.17725 32.306,60.22225 32.479,60.22225 C32.652,60.22225 32.825,60.17725 32.979,60.08825 L56.458,46.53225 C56.767,46.35425 56.958,46.02425 56.958,45.66625 L56.958,18.55625 C56.958,18.19825 56.767,17.86825 56.458,17.69025 L56.458,17.69025 Z M16.908,38.97525 L32.479,47.96525 L48.05,38.97525 C46.339,37.74525 44.763,36.48225 43.321,35.18525 L40.062,37.06625 L39.062,35.33525 L41.798,33.75425 C40.521,32.49925 39.364,31.21125 38.326,29.89025 L32.979,32.97725 C32.67,33.15625 32.288,33.15625 31.979,32.97725 L26.632,29.89025 C25.592,31.21325 24.434,32.50225 23.155,33.75925 L25.877,35.33525 L24.875,37.06625 L21.632,35.19025 C20.191,36.48525 18.617,37.74625 16.908,38.97525 L16.908,38.97525 Z M27.832,28.27325 L32.479,30.95625 L37.126,28.27325 C34.939,25.14225 33.394,21.82725 32.479,18.31125 C31.564,21.82725 30.019,25.14225 27.832,28.27325 L27.832,28.27325 Z M14.142,29.34525 C18.496,25.42525 20.893,20.38425 20.893,15.15125 L22.893,15.15125 C22.893,18.40925 23.789,21.53925 25.556,24.45325 L23.845,25.49025 C23.022,24.13225 22.37,22.73025 21.889,21.29225 C20.846,24.41725 19.01,27.34625 16.47,29.89125 L21.356,32.71225 C28.154,26.18425 31.479,18.78525 31.479,10.27625 C31.479,9.72325 31.926,9.27625 32.479,9.27625 C33.032,9.27625 33.479,9.72325 33.479,10.27625 C33.479,18.78525 36.804,26.18425 43.602,32.71225 L48.487,29.89125 C45.947,27.34625 44.111,24.41725 43.068,21.29225 C42.588,22.73125 41.935,24.13325 41.112,25.49125 L39.401,24.45425 C41.168,21.54025 42.064,18.41025 42.064,15.15125 L44.064,15.15125 C44.064,20.38425 46.461,25.42525 50.815,29.34525 C51.053,29.55925 51.174,29.87425 51.14,30.19325 C51.107,30.51125 50.923,30.79425 50.646,30.95425 L45.148,34.12925 C46.754,35.53725 48.529,36.90325 50.473,38.23125 C50.757,38.42525 50.922,38.75125 50.909,39.09425 C50.896,39.43825 50.708,39.75125 50.41,39.92325 L32.979,49.98625 C32.825,50.07525 32.652,50.12025 32.479,50.12025 C32.306,50.12025 32.133,50.07525 31.979,49.98625 L14.548,39.92325 C14.25,39.75125 14.062,39.43825 14.049,39.09425 C14.036,38.75125 14.201,38.42525 14.485,38.23125 C16.427,36.90425 18.201,35.53925 19.805,34.13325 L14.31,30.95425 C14.034,30.79425 13.85,30.51025 13.817,30.19325 C13.783,29.87425 13.904,29.55925 14.142,29.34525 L14.142,29.34525 Z M47.166,12.32525 L42.271,9.49925 L41.271,11.23225 L46.166,14.05725 L47.166,12.32525 Z M32.479,6.15525 L36.875,8.69325 L37.875,6.96025 L32.979,4.13425 C32.67,3.95525 32.288,3.95525 31.979,4.13425 L27.084,6.96025 L28.084,8.69325 L32.479,6.15525 Z M18.792,14.05725 L17.792,12.32525 L22.687,9.49925 L23.687,11.23225 L18.792,14.05725 Z" id="Fill-1"></path>
        </g>
    </g>
</svg>