<?xml version="1.0" encoding="UTF-8"?>
<svg width="80px" height="80px" viewBox="0 0 80 80" version="1.1" xmlns="http://www.w3.org/2000/svg" xmlns:xlink="http://www.w3.org/1999/xlink">
    <title>Icon-Architecture/64/Arch_AWS-ThinkBox-Krakatoa_64</title>
    <defs>
        <linearGradient x1="0%" y1="100%" x2="100%" y2="0%" id="linearGradient-1">
            <stop stop-color="#C8511B" offset="0%"></stop>
            <stop stop-color="#FF9900" offset="100%"></stop>
        </linearGradient>
    </defs>
    <g id="Icon-Architecture/64/Arch_AWS-ThinkBox-Krakatoa_64" stroke="none" stroke-width="1" fill="none" fill-rule="evenodd">
        <g id="Rectangle" fill="url(#linearGradient-1)">
            <rect x="0" y="0" width="80" height="80"></rect>
        </g>
        <g id="Icon-Service/64/AWS-ThinkBox-Krakatoa_64" transform="translate(8.000000, 8.000000)" fill="#FFFFFF">
            <path d="M28.6393244,60.12625 L35.2563244,60.12625 L35.2563244,58.12625 L28.6393244,58.12625 L28.6393244,60.12625 Z M31.9483244,47.81625 L23.8863244,52.47025 L40.0093244,52.47025 L31.9483244,47.81625 Z M54.3433244,35.83225 C56.0903244,37.73925 56.9913244,40.21225 56.8793244,42.79625 C56.6873244,47.17425 52.9923244,50.58125 48.5923244,50.39025 C46.8433244,50.31325 45.2273244,49.56125 44.0453244,48.26925 C42.8613244,46.97825 42.2523244,45.30325 42.3283244,43.55325 C42.3913244,42.10025 43.0163244,40.75825 44.0883244,39.77525 C45.1623244,38.79225 46.5373244,38.28425 48.0053244,38.34925 L47.9183244,40.34725 C47.0123244,40.30825 46.1183244,40.62825 45.4403244,41.25025 C44.7613244,41.87125 44.3663244,42.72025 44.3263244,43.64025 C44.2733244,44.85625 44.6973244,46.02125 45.5193244,46.91825 C46.3413244,47.81525 47.4633244,48.33925 48.6793244,48.39225 C51.9553244,48.52325 54.7383244,45.98525 54.8803244,42.70925 C54.9703244,40.65925 54.2553244,38.69625 52.8693244,37.18325 C51.4823244,35.67025 49.5893244,34.78725 47.5393244,34.69825 C42.0593244,34.44425 38.2493244,37.94425 38.0123244,43.36625 L38.0133244,49.00825 L44.2423244,52.60425 C44.6333244,52.83125 44.8253244,53.29225 44.7083244,53.72925 C44.5903244,54.16625 44.1943244,54.47025 43.7423244,54.47025 L20.1543244,54.47025 C19.7023244,54.47025 19.3053244,54.16625 19.1883244,53.72925 C19.0713244,53.29225 19.2623244,52.83125 19.6543244,52.60425 L25.8753244,49.01325 L25.8753244,43.32225 C25.6383244,37.94425 21.8333244,34.45725 16.3493244,34.69825 C14.2983244,34.78725 12.4063244,35.67025 11.0193244,37.18325 C9.63232442,38.69625 8.91832442,40.65925 9.00732442,42.70925 C9.15032442,45.98525 11.9523244,48.53825 15.2083244,48.39225 C16.4243244,48.33925 17.5463244,47.81525 18.3693244,46.91825 C19.1913244,46.02125 19.6153244,44.85625 19.5623244,43.64025 C19.5223244,42.72025 19.1273244,41.87125 18.4483244,41.25025 C17.7703244,40.62825 16.8813244,40.30725 15.9703244,40.34725 L15.8823244,38.34925 C17.3513244,38.28625 18.7273244,38.79225 19.7993244,39.77525 C20.8723244,40.75825 21.4973244,42.10025 21.5603244,43.55325 C21.6363244,45.30325 21.0273244,46.97825 19.8433244,48.26925 C18.6613244,49.56125 17.0453244,50.31325 15.2953244,50.39025 C10.9593244,50.59025 7.20032442,47.17425 7.00932442,42.79625 C6.89732442,40.21225 7.79732442,37.73925 9.54532442,35.83225 C11.2933244,33.92525 13.6773244,32.81325 16.2613244,32.70025 C22.8053244,32.40825 27.5883244,36.76525 27.8743244,43.27925 L27.8753244,47.85825 L30.9483244,46.08425 L30.9483244,40.67625 C30.4053244,30.50925 21.2543244,21.92425 9.00932442,19.97425 L9.01532442,23.53925 L7.01532442,23.54225 L7.00732442,18.82325 C7.00732442,18.53725 7.12932442,18.26325 7.34432442,18.07325 C7.39632442,18.02825 7.45132442,17.98825 7.50932442,17.95525 L12.4993244,15.07425 L13.4993244,16.80725 L10.9243244,18.29325 C20.1463244,20.21325 27.5463244,25.73625 30.9483244,32.86125 L30.9443244,28.78225 C30.9443244,21.83525 26.9163244,15.57025 20.6393244,12.68325 L18.6663244,13.82325 L17.6663244,12.09125 L20.0803244,10.69725 C20.3533244,10.54025 20.6823244,10.51925 20.9723244,10.64325 C26.2693244,12.90425 30.2013244,17.29625 31.9463244,22.57325 C33.6923244,17.29525 37.6253244,12.90325 42.9223244,10.64325 C43.2123244,10.51925 43.5433244,10.53925 43.8153244,10.69625 L46.2453244,12.09925 L45.2453244,13.83225 L43.2553244,12.68325 C36.9773244,15.56925 32.9493244,21.83425 32.9493244,28.78225 L32.9483244,28.78225 L32.9483244,32.88425 C36.3503244,25.73725 43.7503244,20.21425 52.9713244,18.29325 L50.3973244,16.80725 L51.3973244,15.07425 L56.3843244,17.95325 C56.4433244,17.98725 56.5003244,18.02725 56.5513244,18.07325 C56.7663244,18.26325 56.8886401,18.53725 56.8886401,18.82325 L56.8803244,23.54225 L54.8803244,23.53925 L54.8863244,19.97425 C42.6533244,21.92325 33.5063244,30.49625 32.9483244,40.70325 L32.9483244,46.08425 L36.0133244,47.85425 L36.0133244,43.32225 C36.2903244,36.96825 40.7833244,32.68725 47.0223244,32.68725 C47.2213244,32.68725 47.4223244,32.69125 47.6273244,32.70025 C50.2113244,32.81325 52.5953244,33.92525 54.3433244,35.83225 L54.3433244,35.83225 Z M54.8883244,32.17125 L56.8883244,32.17125 L56.8883244,27.90525 L54.8883244,27.90525 L54.8883244,32.17125 Z M7.00732442,32.17125 L9.00732442,32.17125 L9.00732442,27.90525 L7.00732442,27.90525 L7.00732442,32.17125 Z M27.4573244,8.74825 L26.4573244,7.01625 L31.4483244,4.13425 C31.7563244,3.95525 32.1393244,3.95525 32.4483244,4.13425 L37.4393244,7.01625 L36.4393244,8.74825 L32.9483244,6.73225 L32.9483244,10.76325 L30.9483244,10.76325 L30.9483244,6.73225 L27.4573244,8.74825 Z" id="Fill-1"></path>
        </g>
    </g>
</svg>