<?xml version="1.0" encoding="UTF-8"?>
<svg width="80px" height="80px" viewBox="0 0 80 80" version="1.1" xmlns="http://www.w3.org/2000/svg" xmlns:xlink="http://www.w3.org/1999/xlink">
    <title>Icon-Architecture/64/Arch_Amazon-Application-Auto-Scaling _64</title>
    <defs>
        <linearGradient x1="0%" y1="100%" x2="100%" y2="0%" id="linearGradient-1">
            <stop stop-color="#C8511B" offset="0%"></stop>
            <stop stop-color="#FF9900" offset="100%"></stop>
        </linearGradient>
    </defs>
    <g id="Icon-Architecture/64/Arch_Amazon-Application-Auto-Scaling-_64" stroke="none" stroke-width="1" fill="none" fill-rule="evenodd">
        <g id="Rectangle" fill="url(#linearGradient-1)">
            <rect x="0" y="0" width="80" height="80"></rect>
        </g>
        <g id="Icon-Service/64/Amazon-Application-Auto-Scaling_64" transform="translate(8.000000, 8.000000)" fill="#FFFFFF">
            <path d="M38.563,51.02225 L39.977,52.43625 L32.755,59.65825 C32.56,59.85325 32.304,59.95125 32.048,59.95125 C31.792,59.95125 31.537,59.85325 31.341,59.65825 L24.059,52.37625 L25.473,50.96125 L31.043,56.53225 L31.043,45.31925 L33.043,45.31925 L33.043,56.54225 L38.563,51.02225 Z M32.755,4.29325 L39.977,11.51425 L38.563,12.92825 L33.043,7.40925 L33.043,18.63125 L31.043,18.63125 L31.043,7.41825 L25.473,12.98925 L24.059,11.57525 L31.341,4.29325 C31.732,3.90225 32.365,3.90225 32.755,4.29325 L32.755,4.29325 Z M60.112,32.97625 L48.9,32.97625 L54.47,38.54625 L53.056,39.96025 L45.774,32.67825 C45.383,32.28725 45.383,31.65425 45.774,31.26425 L52.996,24.04225 L54.41,25.45625 L48.89,30.97625 L60.112,30.97625 L60.112,32.97625 Z M18.338,31.26425 C18.729,31.65425 18.729,32.28725 18.338,32.67825 L11.056,39.96025 L9.642,38.54625 L15.212,32.97625 L4,32.97625 L4,30.97625 L15.222,30.97625 L9.703,25.45625 L11.117,24.04225 L18.338,31.26425 Z M33.798,32.00725 C34.477,33.07625 35.637,33.71425 36.902,33.71425 C37.221,33.71425 37.534,33.67425 37.834,33.59525 L37.834,35.80425 L33.843,35.80425 C33.434,35.80425 33.067,36.05325 32.915,36.43325 C32.763,36.81225 32.857,37.24625 33.153,37.52825 C33.71,38.05925 33.831,38.82725 33.475,39.58225 C33.346,39.85525 33.118,40.08525 32.848,40.21125 C32.026,40.59825 31.402,40.34225 31.105,40.15225 C30.617,39.84325 30.326,39.31425 30.326,38.73625 C30.326,38.27825 30.511,37.84925 30.848,37.52825 C31.144,37.24625 31.238,36.81225 31.086,36.43325 C30.934,36.05325 30.567,35.80425 30.158,35.80425 L26.167,35.80425 L26.167,23.66625 L37.834,23.66625 L37.834,26.48625 C36.993,26.26725 36.069,26.34925 35.205,26.75525 C34.507,27.08425 33.944,27.64625 33.617,28.34025 C33.037,29.57525 33.102,30.91225 33.798,32.00725 L33.798,32.00725 Z M36.056,28.56525 C36.814,28.20925 37.579,28.33125 38.111,28.88725 C38.392,29.18225 38.827,29.27725 39.207,29.12525 C39.585,28.97325 39.834,28.60525 39.834,28.19625 L39.834,22.66625 C39.834,22.11325 39.387,21.66625 38.834,21.66625 L25.874,21.66625 C24.933,21.66625 24.167,22.43125 24.167,23.37225 L24.167,36.80425 C24.167,37.35625 24.615,37.80425 25.167,37.80425 L28.445,37.80425 C28.366,38.10525 28.326,38.41725 28.326,38.73625 C28.326,40.00125 28.964,41.16225 30.033,41.84125 C30.633,42.22225 31.306,42.41425 31.995,42.41425 C32.562,42.41425 33.141,42.28425 33.699,42.02225 C34.393,41.69525 34.956,41.13225 35.284,40.43425 C35.691,39.56925 35.773,38.64625 35.553,37.80425 L38.834,37.80425 C39.387,37.80425 39.834,37.35625 39.834,36.80425 L39.834,31.88125 C39.834,31.47325 39.585,31.10525 39.207,30.95325 C38.826,30.80125 38.393,30.89625 38.111,31.19125 C37.385,31.95225 36.042,31.81125 35.486,30.93525 C35.297,30.63825 35.039,30.01625 35.426,29.19125 C35.553,28.92225 35.783,28.69325 36.056,28.56525 L36.056,28.56525 Z" id="Fill-1"></path>
        </g>
    </g>
</svg>