<?xml version="1.0" encoding="UTF-8"?>
<svg width="80px" height="80px" viewBox="0 0 80 80" version="1.1" xmlns="http://www.w3.org/2000/svg" xmlns:xlink="http://www.w3.org/1999/xlink">
    <title>Icon-Architecture/64/Arch_AWS-ThinkBox-Frost_64</title>
    <defs>
        <linearGradient x1="0%" y1="100%" x2="100%" y2="0%" id="linearGradient-1">
            <stop stop-color="#C8511B" offset="0%"></stop>
            <stop stop-color="#FF9900" offset="100%"></stop>
        </linearGradient>
    </defs>
    <g id="Icon-Architecture/64/Arch_AWS-ThinkBox-Frost_64" stroke="none" stroke-width="1" fill="none" fill-rule="evenodd">
        <g id="Rectangle" fill="url(#linearGradient-1)">
            <rect x="0" y="0" width="80" height="80"></rect>
        </g>
        <g id="Icon-Service/64/AWS-ThinkBox-Frost_64" transform="translate(8.000000, 8.000000)" fill="#FFFFFF">
            <path d="M44.3,37.837 L40.03,35.388 L40.03,28.688 L44.381,26.159 L54.453,31.975 L44.3,37.837 Z M43.34,51.224 L33.228,45.385 L33.228,40.472 L39.032,37.121 L43.34,39.592 L43.34,51.224 Z M32.228,38.74 L26.425,35.39 L26.425,28.689 L32.228,25.339 L38.03,28.689 L38.03,35.39 L32.228,38.74 Z M31.228,45.384 L21.113,51.224 L21.113,39.552 L25.42,37.119 L31.228,40.472 L31.228,45.384 Z M20.118,37.817 L10,31.975 L20.073,26.159 L24.425,28.688 L24.425,35.383 L20.118,37.817 Z M21.113,12.725 L31.228,18.565 L31.228,23.607 L25.427,26.956 L21.113,24.45 L21.113,12.725 Z M33.228,18.565 L43.34,12.725 L43.34,24.451 L39.029,26.956 L33.228,23.607 L33.228,18.565 Z M56.953,31.108 L46.374,25.001 L51.42,22.068 L55.953,24.686 L56.953,22.953 L53.414,20.91 L56.955,18.852 L55.951,17.123 L52.403,19.185 L52.403,15.071 L50.403,15.071 L50.403,20.347 L45.34,23.289 L45.34,10.993 C45.34,10.636 45.15,10.306 44.84,10.127 C44.531,9.948 44.149,9.948 43.84,10.127 L33.228,16.255 L33.227,10.409 L37.778,7.782 L36.778,6.05 L33.227,8.1 L33.227,4 L31.227,4 L31.227,8.1 L27.676,6.05 L26.676,7.782 L31.227,10.41 L31.228,16.255 L20.613,10.127 C20.305,9.948 19.922,9.948 19.613,10.127 C19.304,10.306 19.113,10.636 19.113,10.993 L19.113,23.288 L14.051,20.347 L14.051,15.071 L12.051,15.071 L12.051,19.185 L8.502,17.123 L7.498,18.852 L11.039,20.91 L7.5,22.953 L8.5,24.686 L13.033,22.068 L18.079,25.001 L7.5,31.108 C7.191,31.287 7,31.617 7,31.975 C7,32.332 7.191,32.662 7.5,32.841 L18.113,38.968 L13.051,41.891 L8.5,39.264 L7.5,40.996 L11.051,43.046 L7.5,45.096 L8.5,46.828 L12.051,44.778 L12.051,48.879 L14.051,48.879 L14.051,43.623 L19.113,40.7 L19.113,52.956 C19.113,53.314 19.304,53.644 19.613,53.822 C19.922,54.001 20.305,54.001 20.613,53.822 L31.228,47.694 L31.227,53.54 L26.676,56.167 L27.676,57.899 L31.227,55.849 L31.227,59.95 L33.227,59.95 L33.227,55.849 L36.778,57.899 L37.778,56.167 L33.227,53.54 L33.228,47.694 L43.84,53.822 C44.149,54.001 44.531,54.001 44.84,53.822 C45.15,53.644 45.34,53.314 45.34,52.956 L45.34,40.739 L50.403,43.644 L50.403,48.879 L52.403,48.879 L52.403,44.791 L55.955,46.829 L56.951,45.095 L53.391,43.052 L56.953,40.996 L55.953,39.264 L51.385,41.901 L46.306,38.988 L56.953,32.841 C57.263,32.662 57.453,32.332 57.453,31.975 C57.453,31.617 57.263,31.287 56.953,31.108 L56.953,31.108 Z" id="Fill-1"></path>
        </g>
    </g>
</svg>