<?xml version="1.0" encoding="UTF-8"?>
<svg width="80px" height="80px" viewBox="0 0 80 80" version="1.1" xmlns="http://www.w3.org/2000/svg" xmlns:xlink="http://www.w3.org/1999/xlink">
    <!-- Generator: Sketch 64 (93537) - https://sketch.com -->
    <title>Icon-Architecture/64/Arch_AWS-Bottlerocket_64</title>
    <desc>Created with Sketch.</desc>
    <defs>
        <linearGradient x1="0%" y1="100%" x2="100%" y2="0%" id="linearGradient-1">
            <stop stop-color="#C8511B" offset="0%"></stop>
            <stop stop-color="#FF9900" offset="100%"></stop>
        </linearGradient>
    </defs>
    <g id="Icon-Architecture/64/Arch_AWS-Bottlerocket_64" stroke="none" stroke-width="1" fill="none" fill-rule="evenodd">
        <g id="Icon-Architecture-BG/64/Compute" fill="url(#linearGradient-1)">
            <rect id="Rectangle" x="0" y="0" width="80" height="80"></rect>
        </g>
        <g id="Icon-Service/64/Bottlerocket" transform="translate(8.000000, 8.000000)" fill="#FFFFFF">
            <path d="M31.892181,6.01475 C31.947181,5.94475 32.043181,5.92875 32.123181,6.03075 L42.198181,18.34575 C39.843181,17.79275 36.300181,17.19375 32.001181,17.19375 C27.894181,17.19375 24.498181,17.78575 22.228181,18.33675 L31.892181,6.01475 Z M19.867181,21.12375 C19.915181,21.10575 24.886181,19.19375 32.001181,19.19375 C39.429181,19.19375 44.596181,21.10975 44.648181,21.12875 C44.763181,21.17175 44.882181,21.19375 45.000181,21.19375 C45.316181,21.19375 45.621181,21.04375 45.813181,20.77675 C46.078181,20.40975 46.062181,19.91075 45.776181,19.56075 L33.685181,4.78075 C32.869181,3.73975 31.134181,3.73975 30.318181,4.78075 L18.714181,19.57675 C18.436181,19.93075 18.430181,20.42775 18.700181,20.78975 C18.968181,21.15275 19.446181,21.28975 19.867181,21.12375 L19.867181,21.12375 Z M29.001181,58.19375 L34.001181,58.19375 L34.001181,56.19375 L29.001181,56.19375 L29.001181,58.19375 Z M25.001181,56.19375 L27.001181,56.19375 L27.001181,59.19375 C27.001181,59.74575 27.449181,60.19375 28.001181,60.19375 L35.001181,60.19375 C35.554181,60.19375 36.001181,59.74575 36.001181,59.19375 L36.001181,56.19375 L38.001181,56.19375 L38.001181,54.19375 L25.001181,54.19375 L25.001181,56.19375 Z M47.001181,50.75475 L41.433181,45.31275 C41.824181,43.60175 41.892181,41.52275 41.892181,39.19375 L41.892181,32.69975 L47.001181,38.61675 L47.001181,50.75475 Z M48.758181,37.59075 L41.914181,29.66475 L41.892181,29.68475 L41.892181,22.19375 L40.001181,22.19375 L40.001181,39.19375 C40.001181,46.51075 39.067181,48.19375 35.001181,48.19375 C34.449181,48.19375 34.001181,48.64075 34.001181,49.19375 L34.001181,53.19375 L35.892181,53.19375 L35.892181,50.15475 C38.369181,49.95075 39.826181,48.95375 40.685181,47.37775 L47.302181,53.84575 C47.493181,54.03275 47.746181,54.13075 48.001181,54.13075 C48.132181,54.13075 48.264181,54.10575 48.389181,54.05275 C48.760181,53.89675 49.001181,53.53375 49.001181,53.13075 L49.001181,38.24375 C49.001181,38.00375 48.915181,37.77275 48.758181,37.59075 L48.758181,37.59075 Z M15.892181,50.75475 L15.892181,38.61675 L21.001181,32.69975 L21.001181,39.19375 C21.001181,41.52275 21.070181,43.60175 21.460181,45.31275 L15.892181,50.75475 Z M27.001181,50.15475 L27.001181,53.19375 L29.001181,53.19375 L29.001181,49.19375 C29.001181,48.64075 28.554181,48.19375 28.001181,48.19375 C23.936181,48.19375 23.001181,46.51075 23.001181,39.19375 L23.001181,22.19375 L21.001181,22.19375 L21.001181,29.68475 L20.979181,29.66475 L14.135181,37.59075 C13.978181,37.77275 14.001181,38.00375 14.001181,38.24375 L14.001181,53.13075 C14.001181,53.53375 14.133181,53.89675 14.504181,54.05275 C14.629181,54.10575 14.761181,54.13075 14.892181,54.13075 C15.148181,54.13075 15.401181,54.03275 15.591181,53.84575 L22.208181,47.37775 C23.068181,48.95375 24.525181,49.95075 27.001181,50.15475 L27.001181,50.15475 Z M27.001181,36.14275 L27.001181,32.40175 L30.001181,33.65175 L30.001181,37.87475 L27.001181,36.14275 Z M31.501181,28.34775 L35.132181,30.44475 L31.484181,32.10275 L27.716181,30.53375 L31.501181,28.34775 Z M32.001181,38.45275 L32.001181,34.06475 L36.001181,32.24575 L36.001181,36.14275 L32.001181,38.45275 Z M30.017181,40.19375 L31.001181,40.76175 C31.156181,40.85075 31.329181,40.89575 31.501181,40.89575 C31.674181,40.89575 31.847181,40.85075 32.001181,40.76175 L37.501181,37.58575 C37.811181,37.40775 38.001181,37.07675 38.001181,36.71975 L38.001181,30.36875 C38.001181,30.01175 37.811181,29.68175 37.501181,29.50275 L32.001181,26.32675 C31.693181,26.14975 31.310181,26.14975 31.001181,26.32675 L25.501181,29.50275 C25.192181,29.68175 25.001181,30.01175 25.001181,30.36875 L25.001181,36.71975 C25.001181,37.07675 25.192181,37.40775 25.501181,37.58575 L30.001181,40.18475 L30.001181,40.19375 L30.017181,40.19375 Z" id="Bottlerocket_Icon_64_Squid"></path>
        </g>
    </g>
</svg>