<?xml version="1.0" encoding="UTF-8"?>
<svg width="80px" height="80px" viewBox="0 0 80 80" version="1.1" xmlns="http://www.w3.org/2000/svg" xmlns:xlink="http://www.w3.org/1999/xlink">
    <title>Icon-Architecture/64/Arch_AWS-Compute-Optimizer_64</title>
    <defs>
        <linearGradient x1="0%" y1="100%" x2="100%" y2="0%" id="linearGradient-1">
            <stop stop-color="#C8511B" offset="0%"></stop>
            <stop stop-color="#FF9900" offset="100%"></stop>
        </linearGradient>
    </defs>
    <g id="Icon-Architecture/64/Arch_AWS-Compute-Optimizer_64" stroke="none" stroke-width="1" fill="none" fill-rule="evenodd">
        <g id="Rectangle" fill="url(#linearGradient-1)">
            <rect x="0" y="0" width="80" height="80"></rect>
        </g>
        <g id="Icon-Service/64/AWS-Compute-Optimizer_64" transform="translate(8.000000, 8.000000)" fill="#FFFFFF">
            <path d="M35.974,40.0831175 L35.742,38.0971175 C39.813,37.6201175 43.001,34.1771175 43.001,30.2591175 C43.001,26.3421175 39.813,22.8991175 35.742,22.4221175 L35.974,20.4361175 C41.036,21.0291175 45.001,25.3441175 45.001,30.2591175 C45.001,35.1751175 41.036,39.4901175 35.974,40.0831175 L35.974,40.0831175 Z M24.052,57.8571175 L20.763,55.8331175 L25.642,51.7681175 L24.361,50.2321175 L18.966,54.7281175 L12.001,50.4411175 L12.002,42.5351175 L17.556,38.8321175 L16.447,37.1681175 L10.854,40.8961175 L6.002,39.2791175 L6,32.5471175 L11.542,28.9841175 L10.46,27.3021175 L6.001,30.1691175 L6.002,25.6181175 L11.035,23.1021175 L17.001,25.6591175 L17.001,30.5201175 L12.376,34.2191175 L13.626,35.7811175 L17.927,32.3401175 L20.001,34.4141175 L20.001,37.0001175 L22.001,37.0001175 L22.001,34.0001175 C22.001,33.7351175 21.896,33.4801175 21.708,33.2931175 L19.001,30.5861175 L19.001,25.6181175 L24.449,22.8951175 C24.787,22.7251175 25.001,22.3791175 25.001,22.0001175 L25.001,16.0001175 L23.001,16.0001175 L23.001,21.3821175 L17.969,23.8981175 L12.001,21.3411175 L12.002,13.2601175 L18.001,9.40411751 L18.001,16.0001175 L20.001,16.0001175 L20.001,8.11811751 L23.089,6.13311751 L31.002,9.65011751 L31.002,29.9251175 L27.602,27.2181175 L26.356,28.7821175 L31.002,32.4821175 L31.002,36.4841175 L18.566,45.3281175 L19.724,46.9581175 L31.002,38.9381175 L31.002,54.3821175 L24.052,57.8571175 Z M32.409,8.08611751 L23.409,4.08611751 C23.101,3.94911751 22.745,3.97711751 22.461,4.15911751 L10.461,11.8731175 C10.175,12.0571175 10.002,12.3741175 10.002,12.7141175 L10.001,21.3821175 L4.555,24.1051175 C4.216,24.2751175 4.002,24.6211175 4.002,25.0001175 L4,31.6881175 L4.002,40.0001175 C4.002,40.4311175 4.278,40.8121175 4.686,40.9491175 L10.002,42.7211175 L10.001,51.0001175 C10.001,51.3471175 10.181,51.6691175 10.477,51.8521175 L23.477,59.8521175 C23.637,59.9501175 23.819,60.0001175 24.001,60.0001175 C24.155,60.0001175 24.307,59.9651175 24.449,59.8951175 L32.45,55.8951175 C32.788,55.7251175 33.002,55.3791175 33.002,55.0001175 L33.002,9.00011751 C33.002,8.60511751 32.77,8.24711751 32.409,8.08611751 L32.409,8.08611751 Z M37.974,7.00011751 L35.858,7.00011751 L35.858,5.00011751 L39.001,5.00011751 C39.271,5.00011751 39.53,5.10911751 39.718,5.30211751 C39.906,5.49611751 40.008,5.75711751 40.001,6.02711751 L39.909,9.48811751 C41.723,9.96911751 43.458,10.6841175 45.084,11.6201175 L47.183,9.26311751 C47.366,9.05711751 47.625,8.93711751 47.901,8.92811751 C48.164,8.91711751 48.442,9.02611751 48.636,9.22011751 L55.38,15.9491175 C55.576,16.1441175 55.681,16.4101175 55.674,16.6851175 C55.666,16.9601175 55.545,17.2191175 55.34,17.4031175 L52.99,19.5041175 C53.925,21.1191175 54.643,22.8431175 55.129,24.6501175 L57.938,24.4721175 C58.21,24.4571175 58.484,24.5511175 58.685,24.7401175 C58.887,24.9291175 59.001,25.1921175 59.001,25.4691175 L59.012,34.9961175 C59.012,35.2711175 58.899,35.5351175 58.698,35.7251175 C58.496,35.9141175 58.224,36.0161175 57.951,35.9951175 L55.152,35.8231175 C54.597,37.9051175 53.735,39.8821175 52.582,41.7101175 L50.891,40.6441175 C52.073,38.7681175 52.918,36.7191175 53.404,34.5551175 C53.511,34.0761175 53.929,33.7461175 54.441,33.7761175 L57.011,33.9331175 L57.002,26.5351175 L54.424,26.6991175 C53.939,26.7361175 53.495,26.4021175 53.386,25.9231175 C52.893,23.7591175 52.043,21.7141175 50.86,19.8471175 C50.598,19.4341175 50.673,18.8921175 51.038,18.5661175 L53.218,16.6171175 L47.973,11.3831175 L46.027,13.5701175 C45.702,13.9361175 45.162,14.0121175 44.746,13.7511175 C42.874,12.5721175 40.829,11.7291175 38.668,11.2441175 C38.202,11.1391175 37.874,10.7191175 37.887,10.2411175 L37.974,7.00011751 Z M55.257,56.0001175 L40.291,56.0001175 C40.005,56.0001175 39.792,55.9531175 39.64,55.8561175 C38.94,55.4151175 38.106,54.5621175 38.106,53.0141175 C38.106,51.0891175 39.328,50.3711175 40.355,50.1071175 C40.818,49.9881175 41.132,49.5571175 41.104,49.0801175 L41.065,48.4471175 C41.065,46.7621175 42.263,44.8831175 43.736,44.2571175 C44.414,43.9691175 45.04,43.8551175 45.609,43.8551175 C47.226,43.8551175 48.37,44.7841175 48.869,45.2871175 C49.424,45.8461175 49.861,46.5671175 50.164,47.4291175 C50.288,47.7781175 50.594,48.0311175 50.96,48.0851175 C51.33,48.1411175 51.694,47.9871175 51.912,47.6891175 C52.265,47.2121175 52.869,47.0131175 53.409,47.1901175 C54.026,47.3931175 54.385,48.0351175 54.402,48.9571175 C54.343,49.4801175 54.703,49.9631175 55.226,50.0541175 C56.061,50.1981175 58.002,50.7771175 58.002,53.0481175 C58.002,55.6081175 55.661,55.9581175 55.257,56.0001175 L55.257,56.0001175 Z M56.35,48.2691175 C56.104,46.5691175 55.038,45.6211175 54.033,45.2911175 C53.173,45.0081175 52.259,45.0961175 51.487,45.4941175 C51.153,44.8851175 50.751,44.3441175 50.287,43.8771175 C48.287,41.8621175 45.546,41.3141175 42.954,42.4161175 C40.758,43.3491175 39.097,45.9011175 39.067,48.4331175 C37.198,49.2081175 36.106,50.8701175 36.106,53.0141175 C36.106,55.6041175 37.651,56.9661175 38.572,57.5481175 C39.046,57.8471175 39.624,57.9991175 40.29,58.0001175 L55.303,58.0001175 C55.328,58.0001175 55.352,57.9991175 55.376,57.9981175 C56.976,57.8801175 60.002,56.6961175 60.002,53.0481175 C60.002,50.3271175 58.234,48.8401175 56.35,48.2691175 L56.35,48.2691175 Z" id="Fill-1"></path>
        </g>
    </g>
</svg>