<?xml version="1.0" encoding="UTF-8"?>
<svg width="80px" height="80px" viewBox="0 0 80 80" version="1.1" xmlns="http://www.w3.org/2000/svg" xmlns:xlink="http://www.w3.org/1999/xlink">
    <title>Icon-Architecture/64/Arch_Elastic-Fabric-Adapter_64</title>
    <defs>
        <linearGradient x1="0%" y1="100%" x2="100%" y2="0%" id="linearGradient-1">
            <stop stop-color="#C8511B" offset="0%"></stop>
            <stop stop-color="#FF9900" offset="100%"></stop>
        </linearGradient>
    </defs>
    <g id="Icon-Architecture/64/Arch_Elastic-Fabric-Adapter_64" stroke="none" stroke-width="1" fill="none" fill-rule="evenodd">
        <g id="Rectangle" transform="translate(-0.000000, 0.000000)" fill="url(#linearGradient-1)">
            <rect x="0" y="0" width="80" height="80"></rect>
        </g>
        <g id="Icon-Service/64/Elastic-Fabric-Adapter_64" transform="translate(8.000000, 8.000000)" fill="#FFFFFF">
            <path d="M12.401,24.362 L10.536,23.637 C13.937,14.882 22.563,9 32,9 C41.436,9 50.062,14.882 53.464,23.637 L51.598,24.362 C48.494,16.369 40.618,11 32,11 C23.381,11 15.505,16.369 12.401,24.362 L12.401,24.362 Z M51.598,39.637 L53.464,40.362 C50.062,49.117 41.436,55 32,55 C22.563,55 13.937,49.117 10.536,40.362 L12.401,39.637 C15.505,47.63 23.381,53 32,53 C40.618,53 48.494,47.63 51.598,39.637 L51.598,39.637 Z M58,35.552 C58,35.795 57.795,36 57.551,36 L50.448,36 C50.205,36 50,35.795 50,35.552 L50,28.447 C50,28.205 50.205,28 50.448,28 L57.551,28 C57.795,28 58,28.205 58,28.447 L58,35.552 Z M57.551,26 L50.448,26 C49.098,26 48,27.098 48,28.447 L48,35.552 C48,36.902 49.098,38 50.448,38 L57.551,38 C58.901,38 60,36.902 60,35.552 L60,28.447 C60,27.098 58.901,26 57.551,26 L57.551,26 Z M6,35.552 L6,28.447 C6,28.205 6.205,28 6.448,28 L13.551,28 C13.795,28 14,28.205 14,28.447 L14,35.552 C14,35.795 13.795,36 13.551,36 L6.448,36 C6.205,36 6,35.795 6,35.552 L6,35.552 Z M16,35.552 L16,28.447 C16,27.098 14.901,26 13.551,26 L6.448,26 C5.098,26 4,27.098 4,28.447 L4,35.552 C4,36.902 5.098,38 6.448,38 L13.551,38 C14.901,38 16,36.902 16,35.552 L16,35.552 Z M33,33 L38,33 L38,29 L33,29 L33,33 Z M26,33 L31,33 L31,29 L26,29 L26,33 Z M24,35 L40,35 L40,27 L24,27 L24,35 Z M31,37 L31,40 L22,40 L22,37 L20,37 L20,25 L44,25 L44,37 L40,37 L40,40 L37,40 L37,37 L31,37 Z M42,42 L42,39 L46,39 L46,23 L18,23 L18,39 L20,39 L20,42 L33,42 L33,39 L35,39 L35,42 L42,42 Z" id="Fill-1"></path>
        </g>
    </g>
</svg>