<?xml version="1.0" encoding="UTF-8"?>
<svg width="80px" height="80px" viewBox="0 0 80 80" version="1.1" xmlns="http://www.w3.org/2000/svg" xmlns:xlink="http://www.w3.org/1999/xlink">
    <title>Icon-Architecture/64/Arch_AWS-ThinkBox-Deadline_64</title>
    <defs>
        <linearGradient x1="0%" y1="100%" x2="100%" y2="0%" id="linearGradient-1">
            <stop stop-color="#C8511B" offset="0%"></stop>
            <stop stop-color="#FF9900" offset="100%"></stop>
        </linearGradient>
    </defs>
    <g id="Icon-Architecture/64/Arch_AWS-ThinkBox-Deadline_64" stroke="none" stroke-width="1" fill="none" fill-rule="evenodd">
        <g id="Rectangle" fill="url(#linearGradient-1)">
            <rect x="0" y="0" width="80" height="80"></rect>
        </g>
        <g id="Icon-Service/64/AWS-ThinkBox-Deadline_64" transform="translate(8.000000, 8.000000)" fill="#FFFFFF">
            <path d="M54.7746,44.9308 L33.3876,57.2788 L33.3876,53.3808 L33.3876,46.0858 L44.0826,39.9118 L48.4586,42.4378 L49.4586,40.7058 L45.0816,38.1798 L45.0816,25.8318 L51.3986,22.1838 L51.3986,22.1848 L54.7746,20.2348 L54.7746,44.9308 Z M30.4646,35.3368 L30.4646,30.8948 L34.3126,28.6738 L34.3126,33.1158 L30.4646,35.3368 Z M31.3876,44.9308 L21.6936,50.5278 L21.6936,39.3338 L28.4646,35.4248 L28.4646,37.0688 C28.4646,37.4268 28.6556,37.7568 28.9646,37.9348 C29.2736,38.1138 29.6566,38.1138 29.9646,37.9348 L31.3876,37.1138 L31.3876,44.9308 Z M31.3876,20.2358 L31.3876,28.0528 L28.9646,29.4518 C28.6556,29.6298 28.4646,29.9598 28.4646,30.3178 L28.4646,33.1158 L21.6936,37.0248 L21.6936,25.8318 L31.3876,20.2358 Z M20.6946,24.0998 L16.3176,21.5728 L15.3176,23.3048 L19.6936,25.8308 L19.6936,38.1798 L10.0006,43.7758 L10.0006,19.0798 L31.3876,6.7318 L31.3876,17.9258 L20.6946,24.0998 Z M43.0816,26.9868 L43.0816,38.1808 L33.3876,43.7768 L33.3876,35.9588 L35.8126,34.5588 C36.1226,34.3808 36.3126,34.0508 36.3126,33.6928 L36.3126,30.8938 L43.0816,26.9868 Z M33.3876,19.0808 L43.0816,13.4838 L43.0816,24.6768 L36.3126,28.5848 L36.3126,26.9418 C36.3126,26.5848 36.1226,26.2548 35.8126,26.0758 C35.6586,25.9868 35.4856,25.9418 35.3126,25.9418 C35.1396,25.9418 34.9666,25.9868 34.8126,26.0758 L33.3876,26.8988 L33.3876,19.0808 Z M56.2756,17.6368 L51.3986,14.8208 L50.3986,16.5538 L53.7746,18.5028 L45.0816,23.5218 L45.0816,11.7518 C45.0816,11.3948 44.8906,11.0648 44.5816,10.8858 C44.2726,10.7068 43.8896,10.7068 43.5816,10.8858 L33.3876,16.7708 L33.3876,6.7318 L36.7636,8.6818 L37.7636,6.9498 L32.8906,4.1358 C32.8896,4.1358 32.8886,4.1348 32.8876,4.1338 C32.5796,3.9548 32.1966,3.9548 31.8876,4.1338 L8.5006,17.6368 C8.1906,17.8158 8.0006,18.1458 8.0006,18.5028 L8.0006,45.5078 C8.0006,45.8658 8.1906,46.1958 8.5006,46.3738 C8.5016,46.3738 8.5016,46.3748 8.5026,46.3748 L13.3776,49.1898 L14.3776,47.4578 L11.0006,45.5078 L19.6936,40.4888 L19.6936,52.2598 C19.6936,52.6178 19.8836,52.9478 20.1936,53.1258 C20.5026,53.3048 20.8846,53.3048 21.1936,53.1258 L31.3876,47.2408 L31.3876,57.2788 L28.0106,55.3288 L27.0106,57.0618 L31.8876,59.8768 C32.0426,59.9668 32.2146,60.0108 32.3876,60.0108 C32.5606,60.0108 32.7336,59.9668 32.8876,59.8768 L56.2746,46.3738 C56.5846,46.1958 56.7746,45.8658 56.7746,45.5078 L56.7746,18.5028 C56.7746,18.1458 56.5846,17.8158 56.2756,17.6368 L56.2756,17.6368 Z" id="AWS-ThinkBox-Deadline_64_Squid"></path>
        </g>
    </g>
</svg>