<?xml version="1.0" encoding="UTF-8"?>
<svg width="80px" height="80px" viewBox="0 0 80 80" version="1.1" xmlns="http://www.w3.org/2000/svg" xmlns:xlink="http://www.w3.org/1999/xlink">
    <!-- Generator: Sketch 64 (93537) - https://sketch.com -->
    <title>Icon-Architecture/64/Arch_VMware-Cloud-on-AWS_64</title>
    <desc>Created with Sketch.</desc>
    <defs>
        <linearGradient x1="0%" y1="100%" x2="100%" y2="0%" id="linearGradient-1">
            <stop stop-color="#C8511B" offset="0%"></stop>
            <stop stop-color="#FF9900" offset="100%"></stop>
        </linearGradient>
    </defs>
    <g id="Icon-Architecture/64/Arch_VMware-Cloud-on-AWS_64" stroke="none" stroke-width="1" fill="none" fill-rule="evenodd">
        <g id="Icon-Architecture-BG/64/Compute" fill="url(#linearGradient-1)">
            <rect id="Rectangle" x="0" y="0" width="80" height="80"></rect>
        </g>
        <path d="M59.158,49.5892385 L61.037,48.9032385 L59.151,43.7332385 C59.06,43.4842385 58.874,43.2812385 58.634,43.1692385 C58.393,43.0572385 58.119,43.0462385 57.869,43.1362385 L52.577,45.0672385 L53.262,46.9462385 L56.193,45.8772385 C54.867,48.4902385 53.39,50.9122385 51.848,52.9662385 C51.571,53.3402385 51.293,53.6932385 51.014,54.0352385 C47.642,58.2022385 44.337,60.2612385 42.392,59.4112385 C41.742,59.1292385 41.222,58.5182385 40.849,57.5962385 L38.996,58.3452385 C39.563,59.7522385 40.464,60.7552385 41.595,61.2452385 C42.135,61.4812385 42.713,61.5972385 43.324,61.5972385 C45.982,61.5972385 49.249,59.3962385 52.568,55.2952385 C52.863,54.9312385 53.159,54.5562385 53.451,54.1632385 C55.096,51.9742385 56.669,49.3902385 58.07,46.6052385 L59.158,49.5892385 Z M48.512,21.1852385 C50.01,21.8462385 50.816,24.2622385 50.725,27.8152385 C50.724,27.8532385 50.726,27.8912385 50.729,27.9282385 C50.733,27.9702385 50.729,28.0122385 50.728,28.0562385 L50.726,28.1772385 C50.595,31.6522385 49.672,35.8482385 48.111,40.1872385 L47.002,37.4632385 L45.149,38.2172385 L47.223,43.3152385 C47.324,43.5612385 47.517,43.7562385 47.762,43.8602385 C47.886,43.9122385 48.018,43.9382385 48.15,43.9382385 C48.278,43.9382385 48.406,43.9142385 48.527,43.8642385 L53.744,41.7422385 L52.99,39.8892385 L49.893,41.1502385 C51.585,36.5162385 52.582,31.9992385 52.725,28.2152385 L52.727,28.1122385 C52.73,28.0122385 52.731,27.9152385 52.726,27.8192385 C52.831,23.3762385 51.621,20.3712385 49.31,19.3512385 C48.17,18.8592385 46.241,18.6392385 43.534,20.3882385 L44.62,22.0682385 C45.703,21.3672385 47.258,20.6452385 48.512,21.1852385 L48.512,21.1852385 Z M32,37.2992385 L37,37.2992385 L37,35.2992385 L32,35.2992385 L32,37.2992385 Z M32,33.2992385 L37,33.2992385 L37,31.2992385 L32,31.2992385 L32,33.2992385 Z M30,49.2992385 L39,49.2992385 L39,28.2992385 L30,28.2992385 L30,49.2992385 Z M40,26.2992385 C40.553,26.2992385 41,26.7472385 41,27.2992385 L41,50.2992385 C41,50.8522385 40.553,51.2992385 40,51.2992385 L29,51.2992385 C28.447,51.2992385 28,50.8522385 28,50.2992385 L28,27.2992385 C28,26.7472385 28.447,26.2992385 29,26.2992385 L40,26.2992385 Z M47.163,53.2992385 L22.951,53.2992385 C18.096,53.2992385 14.258,50.0532385 14.021,45.7512385 C14.011,45.5482385 14,45.3452385 14,45.1312385 C14,39.3702385 18.171,37.4812385 20.656,36.8672385 C21.148,36.7462385 21.471,36.2772385 21.409,35.7752385 C21.348,35.2772385 21.317,34.7622385 21.317,34.2432385 C21.317,29.6512385 24.607,24.7082385 28.808,22.9912385 C36.089,20.0062385 41.263,23.9242385 43.148,25.7472385 C44.654,27.2142385 45.878,29.1582385 46.686,31.3692385 C46.812,31.7122385 47.115,31.9602385 47.475,32.0142385 C47.842,32.0702385 48.2,31.9232385 48.421,31.6322385 C48.83,31.0962385 49.312,30.6702385 49.855,30.3662385 L48.879,28.6212385 C48.559,28.7992385 48.256,29.0062385 47.969,29.2392385 C47.091,27.3402385 45.923,25.6572385 44.541,24.3122385 C40.025,19.9442385 33.862,18.7592385 28.051,21.1402385 C23.071,23.1752385 19.317,28.8082385 19.317,34.2432385 C19.317,34.5512385 19.327,34.8582385 19.345,35.1612385 C16.626,36.0292385 12,38.4852385 12,45.1312385 C12,45.3812385 12.011,45.6192385 12.024,45.8592385 C12.319,51.2412385 17.017,55.2992385 22.951,55.2992385 L47.163,55.2992385 L47.163,53.2992385 Z M68,45.2092385 C68,54.3162385 60.218,55.2992385 56.872,55.2992385 L55.979,55.2992385 L55.979,53.2992385 L56.872,53.2992385 C61.036,53.2992385 66,51.8962385 66,45.2092385 C66,39.5032385 61.667,37.4392385 58.031,36.7122385 C57.587,36.6232385 57.257,36.2452385 57.229,35.7932385 C57.07,33.1962385 56.06,31.2452385 54.386,30.2982385 L55.37,28.5572385 C57.475,29.7482385 58.804,31.9872385 59.157,34.9122385 C64.867,36.2882385 68,39.9222385 68,45.2092385 L68,45.2092385 Z" id="VMware-Cloud-on-AWS_Icon_64_Squid" fill="#FFFFFF"></path>
    </g>
</svg>