<?xml version="1.0" encoding="UTF-8"?>
<svg width="80px" height="80px" viewBox="0 0 80 80" version="1.1" xmlns="http://www.w3.org/2000/svg" xmlns:xlink="http://www.w3.org/1999/xlink">
    <title>Icon-Architecture/64/Arch_AWS-ThinkBox-XMesh_64</title>
    <defs>
        <linearGradient x1="0%" y1="100%" x2="100%" y2="0%" id="linearGradient-1">
            <stop stop-color="#C8511B" offset="0%"></stop>
            <stop stop-color="#FF9900" offset="100%"></stop>
        </linearGradient>
    </defs>
    <g id="Icon-Architecture/64/Arch_AWS-ThinkBox-XMesh_64" stroke="none" stroke-width="1" fill="none" fill-rule="evenodd">
        <g id="Rectangle" fill="url(#linearGradient-1)">
            <rect x="0" y="0" width="80" height="80"></rect>
        </g>
        <g id="Icon-Service/64/AWS-ThinkBox-XMesh_64" transform="translate(8.000000, 8.000000)" fill="#FFFFFF">
            <path d="M37.949,50.55325 L39.949,50.55325 L39.949,55.20925 C39.949,55.56725 39.759,55.89725 39.449,56.07525 L32.883,59.86625 C32.728,59.95625 32.555,60.00025 32.383,60.00025 C32.21,60.00025 32.037,59.95625 31.883,59.86625 L25.317,56.07525 C25.008,55.89725 24.817,55.56725 24.817,55.20925 L24.817,50.55325 L26.817,50.55325 L26.817,53.47725 L31.383,50.84225 L31.383,46.76225 L33.383,46.76225 L33.383,51.41925 C33.383,51.77625 33.192,52.10625 32.883,52.28525 L27.817,55.20925 L32.383,57.84525 L37.949,54.63225 L37.949,50.55325 Z M26.817,13.44825 L24.817,13.44825 L24.817,8.79125 C24.817,8.43325 25.008,8.10325 25.317,7.92525 L31.883,4.13425 C32.191,3.95525 32.574,3.95525 32.883,4.13425 L39.449,7.92525 C39.759,8.10325 39.949,8.43325 39.949,8.79125 L39.949,13.44825 L37.949,13.44825 L37.949,10.52325 L33.383,13.15925 L33.383,17.23925 L31.383,17.23925 L31.383,12.58225 C31.383,12.22525 31.573,11.89525 31.883,11.71625 L36.949,8.79125 L32.383,6.15525 L26.817,9.36825 L26.817,13.44825 Z M54.765,24.35025 L49.699,21.42525 C49.39,21.24625 49.008,21.24625 48.699,21.42525 L38.448,27.34425 L15.566,40.55425 L11,37.91925 L26.317,29.07625 C26.627,28.89725 26.817,28.56725 26.817,28.21025 C26.817,27.85225 26.627,27.52225 26.317,27.34425 L16.566,21.71425 L16.566,16.44225 L31.883,25.28525 C32.191,25.46425 32.574,25.46425 32.883,25.28525 L49.199,15.86525 L54.765,19.07825 L54.765,24.35025 Z M38.448,34.92525 C38.138,35.10325 37.948,35.43325 37.948,35.79125 C37.948,36.14825 38.138,36.47825 38.448,36.65725 L48.199,42.28625 L48.199,47.55925 L32.883,38.71625 C32.574,38.53725 32.191,38.53725 31.883,38.71625 L15.566,48.13625 L10,44.92325 L10,39.65125 L15.066,42.57525 C15.375,42.75425 15.758,42.75425 16.066,42.57525 L39.448,29.07625 L49.199,23.44625 L53.765,26.08225 L38.448,34.92525 Z M54.765,38.49625 L54.765,44.92325 L50.199,47.55925 L50.199,41.70925 C50.199,41.35225 50.009,41.02225 49.699,40.84325 L40.948,35.79125 L45.513,33.15525 L54.765,38.49625 Z M10,25.50525 L10,19.07825 L14.566,16.44225 L14.566,22.29125 C14.566,22.64925 14.757,22.97925 15.066,23.15725 L23.817,28.21025 L19.251,30.84625 L10,25.50525 Z M56.765,26.08225 L56.765,18.50025 C56.765,18.14325 56.575,17.81325 56.265,17.63425 L49.699,13.84425 C49.39,13.66525 49.008,13.66525 48.699,13.84425 L32.383,23.26425 L16.066,13.84425 C15.758,13.66525 15.375,13.66525 15.066,13.84425 L8.5,17.63425 C8.19,17.81325 8,18.14325 8,18.50025 L8,26.08225 C8,26.43925 8.19,26.76925 8.5,26.94825 L17.251,32.00025 L8.5,37.05325 C8.19,37.23125 8,37.56125 8,37.91925 L8,45.50025 C8,45.85825 8.19,46.18825 8.5,46.36625 L15.066,50.15725 C15.375,50.33625 15.758,50.33625 16.066,50.15725 L32.383,40.73725 L48.699,50.15725 C48.853,50.24625 49.026,50.2915 49.199,50.2915 C49.372,50.2915 49.545,50.24625 49.699,50.15725 L56.265,46.36625 C56.575,46.18825 56.765,45.85825 56.765,45.50025 L56.765,37.91925 C56.765,37.56125 56.575,37.23125 56.265,37.05325 L47.513,32.00025 L56.265,26.94825 C56.575,26.76925 56.765,26.43925 56.765,26.08225 L56.765,26.08225 Z" id="Fill-1"></path>
        </g>
    </g>
</svg>