<?xml version="1.0" encoding="UTF-8"?>
<svg width="24px" height="24px" viewBox="0 0 24 24" version="1.1" xmlns="http://www.w3.org/2000/svg" xmlns:xlink="http://www.w3.org/1999/xlink">
    <!-- Generator: Sketch 64 (93537) - https://sketch.com -->
    <title>Icon-Architecture/16/Arch_AWS-Sumerian_16</title>
    <desc>Created with Sketch.</desc>
    <defs>
        <linearGradient x1="0%" y1="100%" x2="100%" y2="0%" id="linearGradient-1">
            <stop stop-color="#B0084D" offset="0%"></stop>
            <stop stop-color="#FF4F8B" offset="100%"></stop>
        </linearGradient>
    </defs>
    <g id="Icon-Architecture/16/Arch_AWS-Sumerian_16" stroke="none" stroke-width="1" fill="none" fill-rule="evenodd">
        <g id="Icon-Architecture-BG/16/AR-VR" fill="url(#linearGradient-1)">
            <rect id="Rectangle" x="0" y="0" width="24" height="24"></rect>
        </g>
        <path d="M6.94783451,7.15400262 C7.47668465,7.15400262 7.90577003,7.56937271 7.90577003,8.08113252 C7.90577003,8.61972245 7.45828144,9.09173392 6.94783451,9.09173392 C6.43545039,9.09173392 5.96859001,8.60978537 5.96859001,8.08113252 C5.96859001,7.56937271 6.40736128,7.15400262 6.94783451,7.15400262 L6.94783451,7.15400262 Z M6.94783451,10.0854423 C7.99197454,10.0854423 8.87436004,9.16725576 8.87436004,8.08113252 C8.87436004,7.0218394 8.01037775,6.16029425 6.94783451,6.16029425 C5.87463678,6.16029425 5,7.0218394 5,8.08113252 C5,9.16725576 5.8920714,10.0854423 6.94783451,10.0854423 L6.94783451,10.0854423 Z M12.2847655,17.712154 L12.2847655,11.6624575 L18.03141,8.86019987 L18.03141,14.870148 L12.2847655,17.712154 Z M18.6852082,7.60912104 L11.9699737,5.03144155 C11.8518057,4.98672468 11.7249204,4.9897058 11.6086896,5.04038493 L9.16784281,6.11259625 L9.55043587,7.02581424 L11.8120935,6.03210587 L17.2759098,8.12883052 L11.8149993,10.7899815 L9.59111665,9.54983348 L9.12716203,10.4233031 L11.3161755,11.643577 L11.3161755,17.578997 L6.41511,14.2510677 L6.41511,11.0553016 L5.44651999,11.0553016 L5.44651999,14.5183753 C5.44651999,14.6853183 5.52788156,14.8403368 5.66348416,14.9327517 L11.532171,18.9175222 C11.6135326,18.9731699 11.7065172,19 11.8004705,19 C11.8721461,19 11.9438218,18.9841007 12.0106545,18.9513083 L18.725889,15.6293412 C18.8934551,15.5468634 19,15.3729645 19,15.1821725 L19,8.07417656 C19,7.86748522 18.8740833,7.68166176 18.6852082,7.60912104 L18.6852082,7.60912104 Z" id="AWS-Sumerian_Icon_16_Squid" fill="#FFFFFF"></path>
    </g>
</svg>