<?xml version="1.0" encoding="UTF-8"?>
<svg width="80px" height="80px" viewBox="0 0 80 80" version="1.1" xmlns="http://www.w3.org/2000/svg" xmlns:xlink="http://www.w3.org/1999/xlink">
    <title>Icon-Architecture/64/Arch_AWS-Systems-Manager-Incident-Manager_64</title>
    <defs>
        <linearGradient x1="0%" y1="100%" x2="100%" y2="0%" id="linearGradient-1">
            <stop stop-color="#B0084D" offset="0%"></stop>
            <stop stop-color="#FF4F8B" offset="100%"></stop>
        </linearGradient>
    </defs>
    <g id="Icon-Architecture/64/Arch_AWS-Systems-Manager-Incident-Manager_64" stroke="none" stroke-width="1" fill="none" fill-rule="evenodd">
        <g id="Rectangle" fill="url(#linearGradient-1)">
            <rect x="0" y="0" width="80" height="80"></rect>
        </g>
        <g id="Icon-Service/64/AWS-Systems-Manager-Incident-Manager_64" transform="translate(8.000000, 8.000000)" fill="#FFFFFF">
            <path d="M36.553,18.3704116 C34.325,18.6914116 32.238,19.4534116 30.346,20.6374116 L29.285,18.9414116 C31.414,17.6104116 33.763,16.7514116 36.268,16.3914116 L36.553,18.3704116 Z M28.639,21.8704116 C25.141,24.7634116 23.026,29.0104116 22.834,33.5214116 L20.836,33.4364116 C21.051,28.3604116 23.43,23.5824116 27.364,20.3284116 L28.639,21.8704116 Z M30.192,30.3944116 C29.658,31.7224116 29.486,33.1774116 29.691,34.6014116 L27.71,34.8874116 C27.455,33.1134116 27.672,31.3024116 28.336,29.6494116 L30.192,30.3944116 Z M30.954,28.9384116 L29.284,27.8384116 C30.885,25.4074116 33.455,23.7754116 36.336,23.3604116 L36.621,25.3394116 C34.306,25.6734116 32.241,26.9844116 30.954,28.9384116 L30.954,28.9384116 Z M31.005,40.9544116 L12.654,40.9544116 C11.517,40.9544116 10.546,40.6454116 9.408,39.9214116 C7.39,38.6444116 4,35.6554116 4,29.9924116 C4,23.1234116 8.659,20.6034116 11.372,19.7194116 L11.319,18.8064116 C11.317,13.1484116 15.064,7.3484116 20.032,5.2544116 C25.849,2.7834116 32.011,4.0084116 36.514,8.5284116 C37.91,9.9254116 39.06,11.6284116 39.942,13.6054116 C41.732,12.0994116 44.162,11.5754116 46.404,12.3114116 C49.221,13.2374116 50.959,15.8844116 51.124,19.4494116 C53.934,20.1084116 59.936,22.4184116 59.936,30.0814116 L59.938,30.4734116 C59.941,31.0524116 59.944,31.9594116 59.935,32.1604116 L57.937,32.1604116 C57.946,31.9714116 57.94,31.0294116 57.938,30.4834116 L57.936,30.0814116 C57.936,23.3604116 52.393,21.6744116 50.01,21.2624116 C49.591,21.1894116 49.264,20.8594116 49.195,20.4404116 L49.151,20.1754116 C49.142,20.1204116 49.137,20.0664116 49.137,20.0114116 C49.137,17.0264116 47.913,14.9124116 45.78,14.2114116 C43.826,13.5694116 41.668,14.2994116 40.4,16.0234116 C40.18,16.3204116 39.817,16.4754116 39.449,16.4194116 C39.082,16.3664116 38.776,16.1144116 38.652,15.7654116 C37.82,13.4264116 36.624,11.4674116 35.099,9.9414116 C31.191,6.0184116 25.849,4.9564116 20.811,7.0964116 C16.608,8.8684116 13.317,13.9854116 13.317,18.7474116 L13.416,20.3974116 C13.445,20.8764116 13.129,21.3084116 12.664,21.4264116 C10.176,22.0584116 6,24.0124116 6,29.9924116 C6,34.4614116 8.437,36.9404116 10.48,38.2324116 C11.297,38.7524116 11.906,38.9544116 12.654,38.9544116 L31.005,38.9544116 L31.005,40.9544116 Z M47.393,56.0964116 L49.393,56.0964116 C49.393,58.2034116 47.678,59.9184116 45.571,59.9184116 C43.463,59.9184116 41.748,58.2034116 41.748,56.0964116 L43.748,56.0964116 C43.748,57.1014116 44.566,57.9184116 45.571,57.9184116 C46.575,57.9184116 47.393,57.1014116 47.393,56.0964116 L47.393,56.0964116 Z M58.005,51.7334116 C58.005,52.4064116 57.457,52.9544116 56.784,52.9544116 L34.226,52.9544116 C33.553,52.9544116 33.005,52.4064116 33.005,51.7334116 L33.005,50.1754116 C33.005,49.5024116 33.553,48.9544116 34.226,48.9544116 L56.784,48.9544116 C57.457,48.9544116 58.005,49.5024116 58.005,50.1754116 L58.005,51.7334116 Z M42.457,29.7674116 C42.894,29.6504116 43.198,29.2544116 43.198,28.8024116 L43.198,25.9964116 C43.198,25.4104116 43.486,24.8664116 43.968,24.5424116 C44.893,23.9204116 45.751,24.2584116 46.076,24.4324116 C46.768,24.8004116 47.198,25.4744116 47.198,26.1894116 L47.198,28.7724116 C47.198,29.2394116 47.521,29.6434116 47.976,29.7474116 C52.115,30.6884116 55.005,34.4084116 55.005,38.7944116 L55.005,46.9544116 L36.005,46.9544116 L36.005,38.8704116 C36.005,34.3974116 38.538,30.8244116 42.457,29.7674116 L42.457,29.7674116 Z M57.005,46.9764116 L57.005,38.7944116 C57.005,33.7464116 53.833,29.4204116 49.198,28.0044116 L49.198,26.1894116 C49.198,24.7334116 48.363,23.3844116 47.018,22.6674116 C45.675,21.9514116 44.118,22.0344116 42.853,22.8824116 C41.817,23.5784116 41.198,24.7434116 41.198,25.9964116 L41.198,28.0644116 C36.802,29.5904116 34.005,33.7474116 34.005,38.8704116 L34.005,46.9764116 C32.333,47.0924116 31.005,48.4744116 31.005,50.1754116 L31.005,51.7334116 C31.005,53.5094116 32.449,54.9544116 34.226,54.9544116 L56.784,54.9544116 C58.561,54.9544116 60.005,53.5094116 60.005,51.7334116 L60.005,50.1754116 C60.005,48.4744116 58.677,47.0924116 57.005,46.9764116 L57.005,46.9764116 Z" id="Fill-1"></path>
        </g>
    </g>
</svg>