<?xml version="1.0" encoding="UTF-8"?>
<svg width="80px" height="80px" viewBox="0 0 80 80" version="1.1" xmlns="http://www.w3.org/2000/svg" xmlns:xlink="http://www.w3.org/1999/xlink">
    <title>Icon-Architecture/64/Arch_AWS-Valkyrie_64</title>
    <defs>
        <linearGradient x1="0%" y1="100%" x2="100%" y2="0%" id="linearGradient-1">
            <stop stop-color="#B0084D" offset="0%"></stop>
            <stop stop-color="#FF4F8B" offset="100%"></stop>
        </linearGradient>
    </defs>
    <g id="Icon-Architecture/64/Arch_AWS-Valkyrie_64" stroke="none" stroke-width="1" fill="none" fill-rule="evenodd">
        <g id="Rectangle" fill="url(#linearGradient-1)">
            <rect x="0" y="0" width="80" height="80"></rect>
        </g>
        <g id="Icon-Service/64/AWS-Valkyrie_64" transform="translate(8.000000, 8.000000)" fill="#FFFFFF">
            <path d="M22.003,29.0002324 C23.657,29.0002324 25.003,30.3462324 25.003,32.0002324 L27.003,32.0002324 C27.003,29.2432324 24.76,27.0002324 22.003,27.0002324 C19.246,27.0002324 17.003,29.2432324 17.003,32.0002324 L19.003,32.0002324 C19.003,30.3462324 20.349,29.0002324 22.003,29.0002324 L22.003,29.0002324 Z M37.71,32.7102324 L40.503,29.9162324 L43.296,32.7102324 L44.71,31.2962324 L41.917,28.5012324 L44.71,25.7072324 L43.296,24.2932324 L40.503,27.0872324 L37.71,24.2932324 L36.296,25.7072324 L39.089,28.5012324 L36.296,31.2962324 L37.71,32.7102324 Z M29.003,17.5002324 C29.003,16.1222324 27.882,15.0002324 26.503,15.0002324 C25.124,15.0002324 24.003,16.1222324 24.003,17.5002324 C24.003,18.8782324 25.124,20.0002324 26.503,20.0002324 C27.882,20.0002324 29.003,18.8782324 29.003,17.5002324 L29.003,17.5002324 Z M31.003,17.5002324 C31.003,19.9812324 28.984,22.0002324 26.503,22.0002324 C24.022,22.0002324 22.003,19.9812324 22.003,17.5002324 C22.003,15.0192324 24.022,13.0002324 26.503,13.0002324 C28.984,13.0002324 31.003,15.0192324 31.003,17.5002324 L31.003,17.5002324 Z M25.003,36.0002324 L19.003,36.0002324 L19.003,48.8942324 C22.06,48.3092324 25.003,45.2352324 25.003,43.0002324 L25.003,36.0002324 Z M25.003,47.5112324 C23.508,49.2292324 21.332,50.6072324 19.003,50.9252324 L19.003,55.0002324 C19.003,56.3692324 19.524,58.0002324 22.003,58.0002324 C24.482,58.0002324 25.003,56.3692324 25.003,55.0002324 L25.003,47.5112324 Z M27.003,34.0002324 L29.003,34.0002324 L29.003,36.0002324 L27.003,36.0002324 L27.003,55.0002324 C27.003,57.4172324 25.69,60.0002324 22.003,60.0002324 C18.316,60.0002324 17.003,57.4172324 17.003,55.0002324 L17.003,36.0002324 L15.003,36.0002324 L15.003,34.0002324 L17.003,34.0002324 L19.003,34.0002324 L25.003,34.0002324 L27.003,34.0002324 Z M59.959,30.3002324 C59.959,40.1522324 50.176,40.9902324 50.077,40.9972324 L31.003,41.0002324 L31.003,39.0002324 L50.003,39.0002324 C50.255,38.9772324 57.959,38.2782324 57.959,30.3002324 C57.959,23.4352324 51.821,21.8432324 49.94,21.5192324 C49.406,21.4272324 49.043,20.9272324 49.119,20.3912324 L49.125,20.3542324 C49.106,17.3722324 47.855,15.2562324 45.685,14.5432324 C43.754,13.9092324 41.626,14.6092324 40.389,16.2872324 C40.169,16.5842324 39.798,16.7352324 39.437,16.6832324 C39.07,16.6282324 38.764,16.3752324 38.641,16.0262324 C37.823,13.7062324 36.639,11.7552324 35.121,10.2272324 C33.258,8.35323237 28.144,4.32323237 20.924,7.38723237 C16.752,9.15923237 13.483,14.2652324 13.483,19.0102324 L13.582,20.6472324 C13.61,21.1252324 13.296,21.5562324 12.833,21.6752324 C10.363,22.3092324 6.22,24.2612324 6.22,30.2172324 C6.22,34.6822324 8.637,37.1442324 10.663,38.4232324 C11.277,38.8112324 12.053,38.9992324 13.037,39.0002324 L13.035,41.0002324 C11.662,40.9992324 10.537,40.7092324 9.596,40.1142324 C7.588,38.8482324 4.22,35.8772324 4.22,30.2172324 C4.22,23.3772324 8.844,20.8572324 11.539,19.9712324 L11.485,19.0692324 C11.483,13.4312324 15.206,7.64323237 20.143,5.54623237 C25.926,3.08823237 32.059,4.31123237 36.539,8.81723237 C37.929,10.2152324 39.067,11.9112324 39.938,13.8732324 C41.698,12.4132324 44.093,11.9152324 46.31,12.6432324 C49.139,13.5732324 50.899,16.1912324 51.105,19.7172324 C53.961,20.3922324 59.959,22.7162324 59.959,30.3002324 L59.959,30.3002324 Z" id="Fill-7"></path>
        </g>
    </g>
</svg>