<?xml version="1.0" encoding="UTF-8"?>
<svg width="80px" height="80px" viewBox="0 0 80 80" version="1.1" xmlns="http://www.w3.org/2000/svg" xmlns:xlink="http://www.w3.org/1999/xlink">
    <title>Icon-Architecture/64/Arch_AWS-Distro-for-OpenTelemetry_64</title>
    <defs>
        <linearGradient x1="0%" y1="100%" x2="100%" y2="0%" id="linearGradient-1">
            <stop stop-color="#B0084D" offset="0%"></stop>
            <stop stop-color="#FF4F8B" offset="100%"></stop>
        </linearGradient>
    </defs>
    <g id="Icon-Architecture/64/Arch_AWS-Distro-for-OpenTelemetry_64" stroke="none" stroke-width="1" fill="none" fill-rule="evenodd">
        <g id="Rectangle" fill="url(#linearGradient-1)">
            <rect x="0" y="0" width="80" height="80"></rect>
        </g>
        <g id="Icon-Service/64/AWS-Distro-for-OpenTelemetry_64" transform="translate(8.000000, 8.000000)" fill="#FFFFFF">
            <path d="M58,10 L55,10 C52.373,10 52.042,11.678 52,12.061 L52,22 L50,22 L50,13 L43,13 L43,29 L51,29 C51.524,29 51.96,29.406 51.997,29.929 C52.03,30.265 52.333,32 55,32 L58,32 L58,10 Z M6,23 L20,23 L20,19 L6,19 L6,23 Z M60,9 L60,33 C60,33.552 59.553,34 59,34 L55,34 C52.014,34 50.669,32.354 50.201,31 L42,31 C41.447,31 41,30.552 41,30 L41,29 L38,29 L38,27 L41,27 L41,15 L23.801,15 C22.27,15 22,15.649 22,19 L22,23 C22,26.351 22.27,27 23.801,27 L29,27 L29,28.94 L23.801,28.94 C20.93,28.94 20.229,27.061 20.057,25 L6,25 L6,29 L4,29 L4,13 L6,13 L6,17 L20.057,17 C20.229,14.939 20.93,13.06 23.801,13.06 L41,13.06 L41,12 C41,11.448 41.447,11 42,11 L50.201,11 C50.669,9.646 52.014,8 55,8 L59,8 C59.553,8 60,8.448 60,9 L60,9 Z M47,43 L57,43 L57,45 L47.738,45 L44.313,56.139 C44.185,56.559 43.796,56.845 43.357,56.845 L43.353,56.845 C42.911,56.843 42.523,56.552 42.398,56.129 L33.261,25.29 L25.7,50.739 C25.58,51.142 25.222,51.427 24.803,51.453 C24.384,51.488 23.992,51.24 23.825,50.855 L19.491,40.93 L16.945,48.326 C16.807,48.729 16.427,49 16,49 L5,49 L5,47 L15.287,47 L18.436,37.853 C18.569,37.463 18.929,37.196 19.341,37.18 C19.77,37.168 20.132,37.401 20.297,37.778 L24.562,47.546 L32.303,21.489 C32.429,21.065 32.819,20.774 33.262,20.774 C33.705,20.774 34.095,21.065 34.221,21.49 L43.375,52.385 L46.044,43.706 C46.173,43.287 46.561,43 47,43 L47,43 Z" id="Fill-1"></path>
        </g>
    </g>
</svg>