<?xml version="1.0" encoding="UTF-8"?>
<svg width="80px" height="80px" viewBox="0 0 80 80" version="1.1" xmlns="http://www.w3.org/2000/svg" xmlns:xlink="http://www.w3.org/1999/xlink">
    <title>Icon-Architecture/64/Arch_AWS-Application-Auto-Scaling_64</title>
    <defs>
        <linearGradient x1="0%" y1="100%" x2="100%" y2="0%" id="linearGradient-1">
            <stop stop-color="#B0084D" offset="0%"></stop>
            <stop stop-color="#FF4F8B" offset="100%"></stop>
        </linearGradient>
    </defs>
    <g id="Icon-Architecture/64/Arch_AWS-Application-Auto-Scaling_64" stroke="none" stroke-width="1" fill="none" fill-rule="evenodd">
        <g id="Rectangle" fill="url(#linearGradient-1)">
            <rect x="0" y="0" width="80" height="80"></rect>
        </g>
        <g id="Icon-Service/64/Application-Auto-Scaling_64" transform="translate(8.000000, 8.000000)" fill="#FFFFFF">
            <path d="M59.975,32.9757505 L49.404,32.9757505 L54.685,38.2827505 L53.267,39.6937505 L46.292,32.6857505 C45.904,32.2957505 45.905,31.6637505 46.293,31.2747505 L53.268,24.2817505 L54.684,25.6937505 L49.415,30.9767505 L59.977,30.9877505 L59.975,32.9757505 Z M17.684,31.2747505 C18.073,31.6637505 18.074,32.2957505 17.685,32.6857505 L10.71,39.6937505 L9.292,38.2827505 L14.574,32.9757505 L4.002,32.9757505 L4,30.9877505 L14.562,30.9767505 L9.293,25.6937505 L10.709,24.2817505 L17.684,31.2747505 Z M38.284,51.2917505 L39.694,52.7087505 L32.686,59.6837505 C32.492,59.8787505 32.236,59.9757505 31.981,59.9757505 C31.725,59.9757505 31.47,59.8787505 31.275,59.6837505 L24.283,52.7077505 L25.695,51.2917505 L30.989,56.5617505 L30.989,45.9987505 L32.989,46.0007505 L32.978,56.5727505 L38.284,51.2917505 Z M25.695,12.6837505 L24.283,11.2677505 L31.275,4.29175048 C31.664,3.90375048 32.296,3.90175048 32.686,4.29175048 L39.694,11.2677505 L38.284,12.6837505 L32.978,7.40275048 L32.989,17.9747505 L30.989,17.9757505 L30.989,7.41375048 L25.695,12.6837505 Z M37.989,26.1547505 C37.124,25.9217505 36.172,26.0027505 35.282,26.4207505 C34.573,26.7547505 33.999,27.3267505 33.666,28.0327505 C33.076,29.2897505 33.142,30.6507505 33.85,31.7657505 C34.54,32.8527505 35.722,33.5027505 37.009,33.5027505 C37.345,33.5027505 37.673,33.4587505 37.989,33.3737505 L37.989,35.9757505 L33.989,35.9757505 C33.579,35.9757505 33.212,36.2247505 33.06,36.6037505 C32.909,36.9827505 33.002,37.4167505 33.298,37.6997505 C33.818,38.1947505 33.913,38.9667505 33.542,39.6647505 C33.418,39.8977505 33.202,40.2077505 32.868,40.3647505 C32.012,40.7667505 31.367,40.4977505 31.058,40.3037505 C30.551,39.9807505 30.248,39.4317505 30.248,38.8317505 C30.248,38.2307505 30.413,37.9527505 30.679,37.6997505 C30.975,37.4177505 31.069,36.9837505 30.917,36.6037505 C30.765,36.2247505 30.398,35.9757505 29.989,35.9757505 L25.989,35.9757505 L25.989,23.0697505 C26.018,23.0367505 26.059,22.9997505 26.093,22.9757505 L37.989,22.9757505 L37.989,26.1547505 Z M38.989,20.9757505 L25.989,20.9757505 C25.036,20.9757505 23.989,21.9997505 23.989,22.9337505 L23.989,36.9757505 C23.989,37.5277505 24.436,37.9757505 24.989,37.9757505 L28.329,37.9757505 C28.275,38.2427505 28.248,38.5267505 28.248,38.8317505 C28.248,40.1197505 28.898,41.3007505 29.986,41.9917505 C30.597,42.3797505 31.282,42.5747505 31.983,42.5747505 C32.561,42.5747505 33.151,42.4417505 33.719,42.1747505 C34.377,41.8647505 34.927,41.3217505 35.308,40.6037505 C35.758,39.7567505 35.871,38.8267505 35.668,37.9757505 L38.989,37.9757505 C39.541,37.9757505 39.989,37.5277505 39.989,36.9757505 L39.989,31.6497505 C39.989,31.2417505 39.74,30.8737505 39.361,30.7217505 C38.98,30.5697505 38.547,30.6637505 38.265,30.9597505 C37.51,31.7527505 36.116,31.6017505 35.538,30.6937505 C35.342,30.3847505 35.075,29.7397505 35.476,28.8847505 C35.611,28.5987505 35.844,28.3667505 36.133,28.2307505 C36.919,27.8597505 37.713,27.9877505 38.265,28.5647505 C38.546,28.8607505 38.978,28.9547505 39.361,28.8037505 C39.74,28.6517505 39.989,28.2837505 39.989,27.8747505 L39.989,21.9757505 C39.989,21.4237505 39.541,20.9757505 38.989,20.9757505 L38.989,20.9757505 Z" id="AWS-Application-Auto-Scaling_64_Squid---"></path>
        </g>
    </g>
</svg>