<?xml version="1.0" encoding="UTF-8"?>
<svg width="80px" height="80px" viewBox="0 0 80 80" version="1.1" xmlns="http://www.w3.org/2000/svg" xmlns:xlink="http://www.w3.org/1999/xlink">
    <!-- Generator: Sketch 64 (93537) - https://sketch.com -->
    <title>Icon-Architecture/64/Arch_AWS-App-Wizard_64</title>
    <desc>Created with Sketch.</desc>
    <defs>
        <linearGradient x1="0%" y1="100%" x2="100%" y2="0%" id="linearGradient-1">
            <stop stop-color="#B0084D" offset="0%"></stop>
            <stop stop-color="#FF4F8B" offset="100%"></stop>
        </linearGradient>
    </defs>
    <g id="Icon-Architecture/64/Arch_AWS-App-Wizard_64" stroke="none" stroke-width="1" fill="none" fill-rule="evenodd">
        <g id="Icon-Architecture-BG/64/Management-Governance" fill="url(#linearGradient-1)">
            <rect id="Rectangle" x="0" y="0" width="80" height="80"></rect>
        </g>
        <path d="M49.202,44 L47.202,44 L47.202,47 L44.202,47 L44.202,49 L47.202,49 L47.202,52 L49.202,52 L49.202,49 L52.202,49 L52.202,47 L49.202,47 L49.202,44 Z M40.202,63 L50.202,63 L50.202,61 L40.202,61 L40.202,63 Z M56.202,23 L64.202,23 L64.202,15 L56.202,15 L56.202,23 Z M66.202,14 L66.202,24 C66.202,24.552 65.755,25 65.202,25 L55.202,25 C54.649,25 54.202,24.552 54.202,24 L54.202,14 C54.202,13.448 54.649,13 55.202,13 L65.202,13 C65.755,13 66.202,13.448 66.202,14 L66.202,14 Z M48.621,32.58 L46.601,30.56 L43.158,34.002 L45.179,36.022 L48.621,32.58 Z M43.765,37.436 L41.744,35.417 L15.414,61.746 L17.434,63.766 L43.765,37.436 Z M50.742,33.287 L18.141,65.887 C17.946,66.083 17.69,66.18 17.434,66.18 C17.179,66.18 16.923,66.083 16.727,65.887 L13.293,62.453 C13.105,62.266 13,62.011 13,61.746 C13,61.481 13.105,61.227 13.293,61.039 L45.894,28.438 C46.082,28.25 46.336,28.145 46.601,28.145 C46.867,28.145 47.121,28.25 47.308,28.438 L50.742,31.873 C51.133,32.263 51.133,32.896 50.742,33.287 L50.742,33.287 Z M56.202,39 L64.202,39 L64.202,31 L56.202,31 L56.202,39 Z M66.202,30 L66.202,40 C66.202,40.552 65.755,41 65.202,41 L55.202,41 C54.649,41 54.202,40.552 54.202,40 L54.202,30 C54.202,29.448 54.649,29 55.202,29 L65.202,29 C65.755,29 66.202,29.448 66.202,30 L66.202,30 Z M61.202,57 L59.202,57 L59.202,61 L55.202,61 L55.202,63 L59.202,63 L59.202,67 L61.202,67 L61.202,63 L65.202,63 L65.202,61 L61.202,61 L61.202,57 Z M13.202,20 L20.202,20 L20.202,18 L13.202,18 L13.202,20 Z M40.202,23 L48.202,23 L48.202,15 L40.202,15 L40.202,23 Z M38.202,24 L38.202,14 C38.202,13.448 38.649,13 39.202,13 L49.202,13 C49.755,13 50.202,13.448 50.202,14 L50.202,24 C50.202,24.552 49.755,25 49.202,25 L39.202,25 C38.649,25 38.202,24.552 38.202,24 L38.202,24 Z M28.202,37 L28.202,34 L31.202,34 L31.202,32 L28.202,32 L28.202,29 L26.202,29 L26.202,32 L23.202,32 L23.202,34 L26.202,34 L26.202,37 L28.202,37 Z M22.202,20 L28.202,20 L28.202,18 L22.202,18 L22.202,20 Z" id="AWS-App-Wizard_Icon_64_Squid" fill="#FFFFFF"></path>
    </g>
</svg>