<?xml version="1.0" encoding="UTF-8"?>
<svg width="80px" height="80px" viewBox="0 0 80 80" version="1.1" xmlns="http://www.w3.org/2000/svg" xmlns:xlink="http://www.w3.org/1999/xlink">
    <!-- Generator: Sketch 64 (93537) - https://sketch.com -->
    <title>Icon-Architecture/64/Arch_AWS-Auto-Scaling_64</title>
    <desc>Created with Sketch.</desc>
    <defs>
        <linearGradient x1="0%" y1="100%" x2="100%" y2="0%" id="linearGradient-1">
            <stop stop-color="#B0084D" offset="0%"></stop>
            <stop stop-color="#FF4F8B" offset="100%"></stop>
        </linearGradient>
    </defs>
    <g id="Icon-Architecture/64/Arch_AWS-Auto-Scaling_64" stroke="none" stroke-width="1" fill="none" fill-rule="evenodd">
        <g id="Icon-Architecture-BG/64/Management-Governance" fill="url(#linearGradient-1)">
            <rect id="Rectangle" x="0" y="0" width="80" height="80"></rect>
        </g>
        <path d="M48,44.402047 L48,36.690775 L41,40.5819215 L41,48.2531817 L48,44.402047 Z M32,43.4557682 L39,48.0841319 L39,40.5799209 L32,36.690775 L32,43.4557682 Z M33.062,34.9922745 L40.002,38.8484107 L46.938,34.9932748 L40,31.1531433 L33.062,34.9922745 Z M50,34.9902739 L50,44.9932212 C50,45.3583288 49.802,45.6944278 49.481,45.8704797 L40.481,50.8209383 C40.331,50.9039628 40.166,50.9449749 40,50.9449749 C39.808,50.9449749 39.615,50.8889584 39.448,50.7789259 L30.448,44.8271723 C30.169,44.6421178 30,44.3290255 30,43.9929265 L30,34.9902739 C30,34.6271669 30.197,34.2920682 30.516,34.115016 L39.516,29.1355489 C39.818,28.9684996 40.182,28.9684996 40.484,29.1355489 L49.484,34.115016 C49.803,34.2920682 50,34.6271669 50,34.9902739 L50,34.9902739 Z M68,38.9914528 L57.414,38.9914528 L62.707,33.6968928 L61.293,32.2824761 L54.293,39.2845392 C53.902,39.6756544 53.902,40.308841 54.293,40.6989559 L61.293,47.7010191 L62.707,46.2866023 L57.414,40.9920423 L68,40.9920423 L68,38.9914528 Z M19.8,31.3892129 L18.2,32.5895666 L23,38.9914528 L12,38.9914528 L12,40.9920423 L22.586,40.9920423 L17.293,46.2866023 L18.707,47.7010191 L25.707,40.6989559 C26.059,40.3468522 26.099,39.7906883 25.8,39.3915707 L19.8,31.3892129 Z M41,64.3369207 L41.001,53.9958738 L39.001,53.9958738 L39,64.3389213 L33.753,58.3391535 L32.247,59.6565417 L39.246,67.6588995 C39.437,67.8759635 39.711,68 39.999,68 C40.287,68 40.562,67.8759635 40.752,67.6588995 L47.753,59.6565417 L46.247,58.3391535 L41,64.3369207 Z M33.753,21.6453419 L32.247,20.3279538 L39.246,12.3255959 C39.627,11.891468 40.371,11.891468 40.752,12.3255959 L47.753,20.3279538 L46.247,21.6453419 L41,15.6475747 L41.001,25.9876214 L39.001,25.9876214 L39,15.6445738 L33.753,21.6453419 Z" id="AWS-Auto-Scaling_Icon_64_Squid" fill="#FFFFFF"></path>
    </g>
</svg>