<?xml version="1.0" encoding="UTF-8"?>
<svg width="80px" height="80px" viewBox="0 0 80 80" version="1.1" xmlns="http://www.w3.org/2000/svg" xmlns:xlink="http://www.w3.org/1999/xlink">
    <!-- Generator: Sketch 64 (93537) - https://sketch.com -->
    <title>Icon-Architecture/64/Arch_AWS-Well-Architect-Tool_64</title>
    <desc>Created with Sketch.</desc>
    <defs>
        <linearGradient x1="0%" y1="100%" x2="100%" y2="0%" id="linearGradient-1">
            <stop stop-color="#B0084D" offset="0%"></stop>
            <stop stop-color="#FF4F8B" offset="100%"></stop>
        </linearGradient>
    </defs>
    <g id="Icon-Architecture/64/Arch_AWS-Well-Architect-Tool_64" stroke="none" stroke-width="1" fill="none" fill-rule="evenodd">
        <g id="Icon-Architecture-BG/64/Management-Governance" fill="url(#linearGradient-1)">
            <rect id="Rectangle" x="0" y="0" width="80" height="80"></rect>
        </g>
        <path d="M46.5941588,30 L59.4071588,30 L64.3161588,39 L60.5671588,39 L57.8581588,34.485 C57.6771588,34.184 57.3521588,34 57.0001588,34 L49.0001588,34 C48.6491588,34 48.3231588,34.184 48.1431588,34.485 L45.4341588,39 L41.6851588,39 L46.5941588,30 Z M39.1401588,40.51 C39.3211588,40.814 39.6481588,41 40.0001588,41 L46.0001588,41 C46.3521588,41 46.6771588,40.816 46.8581588,40.515 L49.5671588,36 L56.4341588,36 L59.1431588,40.515 C59.3231588,40.816 59.6491588,41 60.0001588,41 L66.0001588,41 C66.3531588,41 66.6801588,40.814 66.8611588,40.51 C67.0401588,40.207 67.0471588,39.831 66.8781588,39.521 L60.8781588,28.521 C60.7031588,28.2 60.3661588,28 60.0001588,28 L46.0001588,28 C45.6341588,28 45.2971588,28.2 45.1221588,28.521 L39.1221588,39.521 C38.9531588,39.831 38.9601588,40.207 39.1401588,40.51 L39.1401588,40.51 Z M59.4071588,54 L46.5941588,54 L41.6851588,45 L45.4341588,45 L48.1431588,49.515 C48.3231588,49.816 48.6491588,50 49.0001588,50 L57.0001588,50 C57.3521588,50 57.6771588,49.816 57.8581588,49.515 L60.5671588,45 L64.3161588,45 L59.4071588,54 Z M66.0001588,43 L60.0001588,43 C59.6491588,43 59.3231588,43.184 59.1431588,43.485 L56.4341588,48 L49.5671588,48 L46.8581588,43.485 C46.6771588,43.184 46.3521588,43 46.0001588,43 L40.0001588,43 C39.6481588,43 39.3211588,43.186 39.1401588,43.49 C38.9601588,43.793 38.9531588,44.169 39.1221588,44.479 L45.1221588,55.479 C45.2971588,55.8 45.6341588,56 46.0001588,56 L60.0001588,56 C60.3661588,56 60.7031588,55.8 60.8781588,55.479 L66.8781588,44.479 C67.0471588,44.169 67.0401588,43.793 66.8611588,43.49 C66.6801588,43.186 66.3531588,43 66.0001588,43 L66.0001588,43 Z M34.4031588,68 L21.5981588,68 L15.1471588,56.02 L21.5741588,45 L34.4261588,45 L40.8541588,56.02 L34.4031588,68 Z M35.8651588,43.496 C35.6851588,43.189 35.3561588,43 35.0001588,43 L21.0001588,43 C20.6451588,43 20.3161588,43.189 20.1361588,43.496 L13.1361588,55.496 C12.9611588,55.797 12.9541588,56.167 13.1191588,56.474 L20.1191588,69.474 C20.2941588,69.798 20.6321588,70 21.0001588,70 L35.0001588,70 C35.3681588,70 35.7061588,69.798 35.8811588,69.474 L42.8811588,56.474 C43.0461588,56.167 43.0391588,55.797 42.8651588,55.496 L35.8651588,43.496 Z M31.3821588,63 L24.6181588,63 L21.1341588,56.031 L24.5801588,50 L31.4201588,50 L34.8661588,56.031 L31.3821588,63 Z M32.0001588,48 L24.0001588,48 C23.6421588,48 23.3101588,48.192 23.1321588,48.504 L19.1321588,55.504 C18.9661588,55.794 18.9561588,56.148 19.1061588,56.447 L23.1061588,64.447 C23.2761588,64.786 23.6211588,65 24.0001588,65 L32.0001588,65 C32.3791588,65 32.7251588,64.786 32.8951588,64.447 L36.8951588,56.447 C37.0441588,56.148 37.0341588,55.794 36.8681588,55.504 L32.8681588,48.504 C32.6911588,48.192 32.3591588,48 32.0001588,48 L32.0001588,48 Z M19.4261588,29 L25.2591588,39 L21.5741588,39 L15.7411588,29 L19.4261588,29 Z M31.3821588,35 L33.3821588,39 L27.5741588,39 L25.2411588,35 L31.3821588,35 Z M36.5351588,29 L40.2591588,29 L35.0681588,37.899 L33.1551588,34.072 L36.5351588,29 Z M20.1361588,40.504 C20.3161588,40.811 20.6451588,41 21.0001588,41 L34.9991588,41 L35.0001588,41 C35.3551588,41 35.6851588,40.812 35.8651588,40.504 L42.8651588,28.504 C43.0441588,28.194 43.0461588,27.812 42.8671588,27.502 C42.6891588,27.191 42.3591588,27 42.0001588,27 L36.0001588,27 C35.6661588,27 35.3541588,27.167 35.1681588,27.445 L31.4651588,33 L24.0741588,33 L20.8651588,27.496 C20.6851588,27.189 20.3561588,27 20.0001588,27 L14.0001588,27 C13.6421588,27 13.3121588,27.191 13.1331588,27.502 C12.9541588,27.812 12.9561588,28.194 13.1361588,28.504 L20.1361588,40.504 Z M21.5741588,13 L34.4261588,13 L40.2591588,23 L36.5351588,23 L32.8321588,17.445 C32.6471588,17.167 32.3341588,17 32.0001588,17 L24.0001588,17 C23.6661588,17 23.3541588,17.167 23.1681588,17.445 L19.4651588,23 L15.7411588,23 L21.5741588,13 Z M14.0001588,25 L20.0001588,25 C20.3341588,25 20.6471588,24.833 20.8321588,24.555 L24.5351588,19 L31.4651588,19 L35.1681588,24.555 C35.3541588,24.833 35.6661588,25 36.0001588,25 L42.0001588,25 C42.3591588,25 42.6891588,24.809 42.8671588,24.498 C43.0461588,24.188 43.0441588,23.806 42.8651588,23.496 L35.8651588,11.496 C35.6851588,11.189 35.3561588,11 35.0001588,11 L21.0001588,11 C20.6451588,11 20.3161588,11.189 20.1361588,11.496 L13.1361588,23.496 C12.9561588,23.806 12.9541588,24.188 13.1331588,24.498 C13.3121588,24.809 13.6421588,25 14.0001588,25 L14.0001588,25 Z" id="AWS-Well-Architect-Tool_Icon_64_Squid" fill="#FFFFFF"></path>
    </g>
</svg>