<?xml version="1.0" encoding="UTF-8"?>
<svg width="80px" height="80px" viewBox="0 0 80 80" version="1.1" xmlns="http://www.w3.org/2000/svg" xmlns:xlink="http://www.w3.org/1999/xlink">
    <title>Icon-Architecture/64/Arch_CN-Arrow_Management-Governance_64</title>
    <defs>
        <linearGradient x1="0%" y1="100%" x2="100%" y2="0%" id="linearGradient-1">
            <stop stop-color="#B0084D" offset="0%"></stop>
            <stop stop-color="#FF4F8B" offset="100%"></stop>
        </linearGradient>
    </defs>
    <g id="Icon-Architecture/64/Arch_CN-Arrow_Management-Governance_64" stroke="none" stroke-width="1" fill="none" fill-rule="evenodd">
        <g id="Rectangle" fill="url(#linearGradient-1)">
            <rect x="0" y="0" width="80" height="80"></rect>
        </g>
        <g id="Icon-Service/64/CN-Arrow_64" transform="translate(8.000000, 8.000000)" fill="#FFFFFF">
            <path d="M26.231,19.64 L21.231,13.64 L22.768,12.36 L27.468,18 L44.585,18 L42.293,15.707 L43.707,14.293 L47.707,18.293 C48.097,18.683 48.097,19.316 47.707,19.707 L43.707,23.707 L42.293,22.293 L44.585,20 L27,20 C26.703,20 26.421,19.868 26.231,19.64 L26.231,19.64 Z M47.707,44.293 C48.097,44.683 48.097,45.316 47.707,45.707 L43.707,49.707 L42.293,48.293 L44.585,46 L27.468,46 L22.768,51.64 L21.231,50.36 L26.231,44.36 C26.421,44.132 26.703,44 27,44 L44.585,44 L42.293,41.707 L43.707,40.293 L47.707,44.293 Z M59.707,32.707 L55.707,36.707 L54.293,35.293 L56.585,33 L33,33 L33,31 L56.585,31 L54.293,28.707 L55.707,27.293 L59.707,31.293 C60.097,31.683 60.097,32.316 59.707,32.707 L59.707,32.707 Z M10,58 C7.794,58 6,56.205 6,54 C6,51.794 7.794,50 10,50 C12.206,50 14,51.794 14,54 C14,56.205 12.206,58 10,58 L10,58 Z M19,32 C19,29.794 20.794,28 23,28 C25.206,28 27,29.794 27,32 C27,34.205 25.206,36 23,36 C20.794,36 19,34.205 19,32 L19,32 Z M6,10 C6,7.794 7.794,6 10,6 C12.206,6 14,7.794 14,10 C14,12.205 12.206,14 10,14 C7.794,14 6,12.205 6,10 L6,10 Z M13.77,49.339 L22.511,37.975 C22.673,37.988 22.835,38 23,38 C26.308,38 29,35.308 29,32 C29,28.691 26.308,26 23,26 C22.835,26 22.673,26.012 22.511,26.025 L13.77,14.661 C15.128,13.56 16,11.881 16,10 C16,6.691 13.308,4 10,4 C6.691,4 4,6.691 4,10 C4,13.308 6.691,16 10,16 C10.704,16 11.377,15.871 12.005,15.648 L20.422,26.59 C18.402,27.557 17,29.615 17,32 C17,34.385 18.402,36.443 20.422,37.41 L12.005,48.352 C11.377,48.128 10.704,48 10,48 C6.691,48 4,50.691 4,54 C4,57.308 6.691,60 10,60 C13.308,60 16,57.308 16,54 C16,52.119 15.128,50.44 13.77,49.339 L13.77,49.339 Z" id="Fill-7"></path>
        </g>
    </g>
</svg>