<svg xmlns="http://www.w3.org/2000/svg" width="18" height="18" viewBox="0 0 18 18"><defs><linearGradient id="a3c84452-5462-4576-9ec1-78e83c3246f7" x1="9" y1="15.563" x2="9" y2="-2.323" gradientUnits="userSpaceOnUse"><stop offset="0" stop-color="#0078d4" /><stop offset="1" stop-color="#5ea0ef" /></linearGradient></defs><g id="bf187bb0-4c3d-4c4e-a222-f036f6cbd48e"><g><path d="M18,9.5a4.094,4.094,0,0,0-3.51-3.961A5.139,5.139,0,0,0,9.24.569,5.27,5.27,0,0,0,4.216,4.044,4.857,4.857,0,0,0,0,8.773a4.937,4.937,0,0,0,5.068,4.8c.151,0,.3-.007.447-.02h8.207a.781.781,0,0,0,.217-.033A4.13,4.13,0,0,0,18,9.5Z" fill="url(#a3c84452-5462-4576-9ec1-78e83c3246f7)" /><rect x="7.35" y="7.267" width="9" height="9" rx="0.6" fill="#50e6ff" /></g><rect x="6.914" y="7.193" width="9.871" height="9.871" rx="0.6" fill="#50e6ff" /><rect x="8.393" y="8.538" width="7.266" height="1.696" rx="0.3" fill="#fff" /><rect x="8.393" y="11.279" width="7.266" height="1.696" rx="0.3" fill="#fff" opacity="0.8" /><rect x="8.393" y="14.02" width="7.266" height="1.696" rx="0.3" fill="#fff" opacity="0.6" /></g></svg>