<svg id="e99aaeca-7da4-48f7-8c69-4f9fb31d7cf7" xmlns="http://www.w3.org/2000/svg" width="18" height="18" viewBox="0 0 18 18"><defs><linearGradient id="b221527c-9a9d-4fa7-808a-53af4b8654b1" x1="9" y1="13.5" x2="9" y2="0.74" gradientUnits="userSpaceOnUse"><stop offset="0" stop-color="#0078d4" /><stop offset="0.16" stop-color="#1380da" /><stop offset="0.53" stop-color="#3c91e5" /><stop offset="0.82" stop-color="#559cec" /><stop offset="1" stop-color="#5ea0ef" /></linearGradient></defs><title>Icon-storage-89</title><path d="M18,9.5a4.06,4.06,0,0,0-3.51-3.89A5.1,5.1,0,0,0,9.24.74a5.23,5.23,0,0,0-5,3.41A4.82,4.82,0,0,0,0,8.79,4.9,4.9,0,0,0,5.07,13.5l.44,0h8.21a1.46,1.46,0,0,0,.22,0A4.1,4.1,0,0,0,18,9.5Z" fill="url(#b221527c-9a9d-4fa7-808a-53af4b8654b1)" /><rect x="9.23" y="16.36" width="4.25" height="0.9" rx="0.3" fill="#198ab3" /><rect x="9.23" y="14.45" width="4.25" height="0.9" rx="0.3" fill="#32bedd" /><rect x="9.23" y="12.55" width="4.25" height="0.9" rx="0.3" fill="#50e6ff" /><rect x="4.95" y="7.8" width="4.25" height="0.9" rx="0.3" fill="#f2f2f2" /><rect x="4.95" y="9.55" width="4.25" height="0.9" rx="0.3" fill="#f2f2f2" /><rect x="4.95" y="11.31" width="4.25" height="0.9" rx="0.3" fill="#f2f2f2" /></svg>