<svg id="fcdf2200-0558-41f8-8840-46e299a8553d" xmlns="http://www.w3.org/2000/svg" width="18" height="18" viewBox="0 0 18 18"><defs><linearGradient id="b53f55b6-5b8c-4246-8553-f63a4c06f010" x1="2.55" y1="10.17" x2="15.3" y2="10.17" gradientTransform="translate(0.1 -0.03) rotate(0.15)" gradientUnits="userSpaceOnUse"><stop offset="0" stop-color="#005ba1" /><stop offset="0.07" stop-color="#0060a9" /><stop offset="0.36" stop-color="#0071c8" /><stop offset="0.52" stop-color="#0078d4" /><stop offset="0.64" stop-color="#0074cd" /><stop offset="0.82" stop-color="#006abb" /><stop offset="1" stop-color="#005ba1" /></linearGradient></defs><title>Icon-storage-92</title><path d="M9,5.14c-3.52,0-6.37-1-6.37-2.33l0,12.35c0,1.27,2.8,2.31,6.28,2.34H9c3.52,0,6.38-1,6.38-2.31l0-12.35C15.39,4.12,12.53,5.15,9,5.14Z" fill="url(#b53f55b6-5b8c-4246-8553-f63a4c06f010)" /><path d="M15.39,2.84c0,1.28-2.86,2.31-6.38,2.3s-6.37-1-6.37-2.33S5.5.49,9,.5s6.37,1.06,6.37,2.34" fill="#f2f2f2" /><path d="M13.9,2.65c0,.81-2.19,1.47-4.89,1.46S4.13,3.44,4.13,2.62,6.32,1.15,9,1.16s4.89.67,4.88,1.49" fill="#50e6ff" /><path d="M9,3a11.86,11.86,0,0,0-3.88.56A11.39,11.39,0,0,0,9,4.11a11.44,11.44,0,0,0,3.88-.57A12.08,12.08,0,0,0,9,3Z" fill="#198ab3" /><path d="M12.47,10.18l-.82-.26c-.05,0-.08,0-.1-.09l-.17-.42a.38.38,0,0,1,0-.15c.12-.26.24-.52.38-.77a.11.11,0,0,0,0-.16h0c-.14-.14-.28-.26-.41-.41a.13.13,0,0,0-.22,0l0,0-.7.35c-.05,0-.08,0-.13,0l-.41-.17A.14.14,0,0,1,9.73,8c-.1-.27-.2-.54-.28-.81a.11.11,0,0,0-.1-.09H8.68c-.07,0-.08,0-.12.08-.08.28-.17.55-.27.82,0,0,0,.09-.09.1l-.42.17a.22.22,0,0,1-.16,0l-.8-.39a.11.11,0,0,0-.12,0c-.15.16-.3.33-.47.48a.08.08,0,0,0,0,.12v0c.13.25.25.51.39.76a.18.18,0,0,1,0,.16l-.18.39a.14.14,0,0,1-.12.12c-.27.1-.54.2-.81.28-.07,0-.09.05-.09.11V11c0,.07,0,.1.08.12.28.08.55.19.82.27a.13.13,0,0,1,.1.11c0,.13.12.27.17.41a.19.19,0,0,1,0,.15c-.14.27-.26.54-.39.81a.09.09,0,0,0,0,.11l.5.49s0,.05.08,0l.48-.25L7.61,13s.09,0,.14,0l.42.17c.05,0,.07.05.09.1.1.27.2.56.28.83a.12.12,0,0,0,.11.09h.66c.07,0,.09,0,.12-.08.09-.27.19-.55.27-.82a.15.15,0,0,1,.09-.1l.43-.17a.15.15,0,0,1,.13,0l.8.39a.1.1,0,0,0,.12,0c.15-.16.31-.33.48-.48s.05-.07,0-.14a8.1,8.1,0,0,1-.39-.78.11.11,0,0,1,0-.15c.06-.14.12-.27.17-.41a.13.13,0,0,1,.1-.1c.27-.1.55-.21.82-.29.07,0,.08-.05.08-.12,0-.24,0-.44,0-.65S12.54,10.21,12.47,10.18ZM10.11,11.7l-.08.07a1.58,1.58,0,0,1-1.87.12l-.1-.07a1.61,1.61,0,0,1-.63-1,1.53,1.53,0,0,1,.46-1.41c.05-.05.05-.07,0-.12l-.13-.15h.78s.05,0,.05,0h0v.77l-.22-.21s0-.05-.1,0a1.12,1.12,0,0,0-.11,1.57.8.8,0,0,0,.17.15l.12.06a1,1,0,0,0,.56.17,1,1,0,0,0,.94-.55A1.09,1.09,0,0,0,9.76,9.8s-.1-.07-.11-.14,0,0,0-.07a1.62,1.62,0,0,0,.18-.19c.14-.11.14-.11.24,0A1.63,1.63,0,0,1,10.11,11.7Z" fill="#fff" /></svg>