<svg id="b630a631-e951-4874-becd-193c90e9d399" xmlns="http://www.w3.org/2000/svg" width="18" height="18" viewBox="0 0 18 18"><defs><linearGradient id="e56f61e7-d1ef-4a4c-b714-5c2e57656257" x1="9" y1="17.99" x2="9" y2="-1.42" gradientUnits="userSpaceOnUse"><stop offset="0" stop-color="#0078d4" /><stop offset="0.14" stop-color="#077bd6" /><stop offset="0.34" stop-color="#1a83db" /><stop offset="0.59" stop-color="#3990e4" /><stop offset="0.82" stop-color="#5ea0ef" /></linearGradient><linearGradient id="a0cef49b-1911-48cd-9b2d-91c5d10b57df" x1="7.97" y1="16.51" x2="7.97" y2="4.84" gradientUnits="userSpaceOnUse"><stop offset="0" stop-color="#949494" /><stop offset="0.31" stop-color="#b9b9b9" /><stop offset="0.77" stop-color="#ececec" /><stop offset="1" stop-color="#fff" /></linearGradient></defs><path d="M18,10.25a4.06,4.06,0,0,0-3.51-3.89A5.1,5.1,0,0,0,9.24,1.49a5.25,5.25,0,0,0-5,3.41A4.8,4.8,0,0,0,0,9.54a4.9,4.9,0,0,0,5.07,4.71l.44,0h8.21a1.46,1.46,0,0,0,.22,0A4.1,4.1,0,0,0,18,10.25Z" fill="url(#e56f61e7-d1ef-4a4c-b714-5c2e57656257)" /><path d="M12.13,6.2H5.56a.09.09,0,0,1-.1-.1V4.94a.11.11,0,0,0-.18-.07l-2,2a.1.1,0,0,0,0,.14l2,2a.11.11,0,0,0,.18-.08V7.73a.1.1,0,0,1,.1-.1h1V16a.52.52,0,0,0,.52.52h5a.52.52,0,0,0,.52-.52V6.72A.52.52,0,0,0,12.13,6.2Z" fill="url(#a0cef49b-1911-48cd-9b2d-91c5d10b57df)" /><g><path d="M7.49,9.82a.65.65,0,0,1,.66-.66h3a.66.66,0,0,1,.66.66h0a.66.66,0,0,1-.66.65h-3a.65.65,0,0,1-.66-.65Z" fill="#003067" /><path d="M7.49,7.86a.66.66,0,0,1,.66-.66h3a.67.67,0,0,1,.66.66h0a.67.67,0,0,1-.66.66h-3a.66.66,0,0,1-.66-.66Z" fill="#003067" /><circle cx="8.17" cy="7.86" r="0.44" fill="#50e6ff" /><circle cx="8.17" cy="9.82" r="0.44" fill="#50e6ff" /></g><path d="M9.88,13.59l-2,2a.11.11,0,0,1-.18-.08V14.33a.1.1,0,0,0-.1-.1H6.56V12.8H7.63a.09.09,0,0,0,.1-.1V11.54a.11.11,0,0,1,.18-.07l2,2A.1.1,0,0,1,9.88,13.59Z" fill="#0078d4" /></svg>