<svg id="b0a3f584-7121-47a7-bbce-42a37658ecd5" xmlns="http://www.w3.org/2000/svg" width="18" height="18" viewBox="0 0 18 18"><defs><linearGradient id="b388ec63-3e86-45d0-b039-f7d6e0e76592" x1="0.5" y1="9.99" x2="11.43" y2="9.99" gradientUnits="userSpaceOnUse"><stop offset="0" stop-color="#005ba1" /><stop offset="0.07" stop-color="#0060a9" /><stop offset="0.36" stop-color="#0071c8" /><stop offset="0.52" stop-color="#0078d4" /><stop offset="0.64" stop-color="#0074cd" /><stop offset="0.82" stop-color="#006abb" /><stop offset="1" stop-color="#005ba1" /></linearGradient></defs><title>Icon-storage-98</title><g><polygon points="16 4.79 15.27 4.43 13.06 8.97 11.17 8.97 11.17 9.77 13.08 9.77 15.27 14.27 16 13.91 13.78 9.35 16 4.79" fill="#949494" /><path d="M15.63,6.14a1.45,1.45,0,0,1-.81-.24,1.47,1.47,0,0,1-.68-1,1.53,1.53,0,0,1,1.49-1.87,1.51,1.51,0,0,1,.82.24,1.54,1.54,0,0,1,.67,1,1.53,1.53,0,0,1-1.49,1.86Z" fill="#fff" /><path d="M15.63,3.42a1.2,1.2,0,0,1,.64.19,1.17,1.17,0,0,1,.52.74,1.19,1.19,0,0,1-.15.9,1.21,1.21,0,0,1-1,.55A1.18,1.18,0,0,1,15,5.62a1.2,1.2,0,0,1-.53-.75,1.2,1.2,0,0,1,1.16-1.45m0-.68a1.87,1.87,0,1,0,1,.29A1.85,1.85,0,0,0,15.63,2.74Z" fill="#32bedd" /><path d="M15.63,15.62a1.45,1.45,0,0,1-.81-.24,1.51,1.51,0,0,1-.48-2.1,1.52,1.52,0,0,1,2.11-.48,1.53,1.53,0,0,1-.82,2.82Z" fill="#fff" /><path d="M15.63,12.9a1.2,1.2,0,0,1,.64.19,1.17,1.17,0,0,1,.52.74,1.19,1.19,0,0,1-.15.9,1.21,1.21,0,0,1-1,.55A1.18,1.18,0,0,1,15,15.1a1.2,1.2,0,0,1-.53-.75,1.2,1.2,0,0,1,1.16-1.45m0-.68a1.87,1.87,0,1,0,1,.29A1.85,1.85,0,0,0,15.63,12.22Z" fill="#32bedd" /><g><path d="M6,5.72C3,5.72.5,4.83.5,3.74V14.26c0,1.09,2.41,2,5.39,2H6c3,0,5.47-.88,5.47-2V3.74C11.43,4.83,9,5.72,6,5.72Z" fill="url(#b388ec63-3e86-45d0-b039-f7d6e0e76592)" /><path d="M11.43,3.74c0,1.09-2.45,2-5.47,2S.5,4.83.5,3.74,3,1.76,6,1.76s5.47.88,5.47,2" fill="#e8e8e8" /><path d="M10.15,3.58c0,.69-1.87,1.25-4.19,1.25S1.77,4.27,1.77,3.58,3.65,2.32,6,2.32s4.19.56,4.19,1.26" fill="#50e6ff" /><path d="M6,3.87a10.12,10.12,0,0,0-3.31.47A9.67,9.67,0,0,0,6,4.83a9.78,9.78,0,0,0,3.32-.49A10.14,10.14,0,0,0,6,3.87Z" fill="#198ab3" /></g></g></svg>