<svg id="b98a97dc-55e7-4181-a5f4-561fd8539dc9" xmlns="http://www.w3.org/2000/svg" width="18" height="18" viewBox="0 0 18 18"><defs><linearGradient id="ab3f0482-b286-4128-a42b-f6ffa2c6cbb8" x1="9" y1="17.4" x2="9" y2="0.4" gradientUnits="userSpaceOnUse"><stop offset="0" stop-color="#0078d4" /><stop offset="0.82" stop-color="#5ea0ef" /></linearGradient></defs><title>Icon-storage-100</title><g><path d="M14,4.8A4.61,4.61,0,0,0,9.22.4,4.73,4.73,0,0,0,4.7,3.48,4.36,4.36,0,0,0,.87,7.67a4.43,4.43,0,0,0,4.58,4.25l.4,0H8.38v2.63a.13.13,0,0,1-.13.13H6.78a.13.13,0,0,0-.09.22l2.47,2.47a.19.19,0,0,0,.26,0l2.47-2.47a.13.13,0,0,0-.09-.22H10.32a.12.12,0,0,1-.12-.13V11.9h3.06a.64.64,0,0,0,.2,0,3.69,3.69,0,0,0,3.67-3.56A3.65,3.65,0,0,0,14,4.8Z" fill="url(#ab3f0482-b286-4128-a42b-f6ffa2c6cbb8)" /><path d="M4.87,8.18,7.34,5.72a.17.17,0,0,1,.26,0l2.47,2.46A.13.13,0,0,1,10,8.4H8.51a.13.13,0,0,0-.13.13V11.9H6.57V8.53a.13.13,0,0,0-.13-.13H5A.13.13,0,0,1,4.87,8.18Z" fill="#fff" /></g></svg>