<svg width="24px" height="24px" viewBox="0 0 24 24" version="1.1" xmlns="http://www.w3.org/2000/svg" xmlns:xlink="http://www.w3.org/1999/xlink">
    <g stroke="none" stroke-width="1" fill="none" fill-rule="evenodd">
        <path d="M12.4722951,3 L21.3618114,18.3309459 L22,19.4324324 L10.4120018,19.4323718 C9.7184161,20.9471312 8.1843652,22 6.40335274,22 C3.97144817,22 2,20.0369408 2,17.6153846 C2,15.1938284 3.97144817,13.2307692 6.40335274,13.2307692 C6.44868651,13.2307692 6.49386026,13.2314514 6.53886422,13.232806 L12.4722951,3 Z M6.33520562,15.2400886 L5.66799692,15.9044581 L7.07863535,17.309908 L3.89763535,17.3093033 L3.89763535,18.2533592 L7.08263535,18.253908 L5.66799692,19.6613331 L6.33499936,20.325908 L8.88966863,17.7836817 L6.33520562,15.2400886 Z M12.4722951,15.8481081 L10.6962476,16.6351444 C10.768529,16.9503095 10.8067055,17.2784077 10.8067055,17.6153846 C10.8067055,17.7327317 10.8020759,17.8490022 10.7929887,17.9640247 L17.2475902,17.963 L12.4722951,15.8481081 Z M12.4722951,11.4652703 L9.46344392,14.4625679 C9.71659632,14.7062402 9.94048469,14.9798675 10.1293488,15.2777142 L12.4722951,14.2408108 L17.4885902,16.462 L12.4722951,11.4652703 Z M12.4722951,5.93601351 L8.05713293,13.5505031 C8.11226998,13.5727668 8.16685132,13.5961105 8.22085049,13.6205079 L12.4722951,9.38168919 L17.2045902,14.1 L12.4722951,5.93601351 Z" fill="#4285F4" fill-rule="nonzero"></path>
    </g>
</svg>