<?xml version="1.0" encoding="UTF-8"?>
<svg width="24px" height="24px" viewBox="0 0 24 24" version="1.1" xmlns="http://www.w3.org/2000/svg" xmlns:xlink="http://www.w3.org/1999/xlink">
    <title>Icon-Architecture/16/Arch_Amazon-Interactive-Video_16</title>
    <defs>
        <linearGradient x1="0%" y1="100%" x2="100%" y2="0%" id="linearGradient-1">
            <stop stop-color="#C8511B" offset="0%"></stop>
            <stop stop-color="#FF9900" offset="100%"></stop>
        </linearGradient>
    </defs>
    <g id="Icon-Architecture/16/Arch_Amazon-Interactive-Video_16" stroke="none" stroke-width="1" fill="none" fill-rule="evenodd">
        <g id="Rectangle" fill="url(#linearGradient-1)">
            <rect x="0" y="0" width="24" height="24"></rect>
        </g>
        <g id="Icon-Service/16/Amazon-Interactive-Video_16" transform="translate(4.000000, 4.000000)" fill="#FFFFFF">
            <path d="M10,14.6623 L10,12.1003 L12.219,13.3813 L10,14.6623 Z M9.75,10.8013 C9.596,10.7123 9.404,10.7123 9.25,10.8013 C9.096,10.8913 9,11.0563 9,11.2343 L9,15.5283 C9,15.7073 9.096,15.8723 9.25,15.9613 C9.327,16.0063 9.414,16.0283 9.5,16.0283 C9.586,16.0283 9.673,16.0063 9.75,15.9613 L13.469,13.8143 C13.623,13.7253 13.719,13.5603 13.719,13.3813 C13.719,13.2033 13.623,13.0373 13.469,12.9483 L9.75,10.8013 Z M15,9.2953 L12.781,8.0143 L15,6.7333 L15,9.2953 Z M7,10.3683 L7,5.6613 L11.076,8.0143 L7,10.3683 Z M6,3.9283 L3.781,2.6473 L6,1.3663 L6,3.9283 Z M6,14.6633 L3.781,13.3823 L6,12.1013 L6,14.6633 Z M15.75,5.4343 C15.596,5.3453 15.404,5.3453 15.25,5.4343 L11.929,7.3513 L7,4.5063 L7,0.4993 C7,0.3213 6.904,0.1563 6.75,0.0663 C6.596,-0.0227 6.404,-0.0227 6.25,0.0663 L2.531,2.2143 C2.377,2.3033 2.281,2.4683 2.281,2.6473 C2.281,2.8263 2.377,2.9913 2.531,3.0803 L6,5.0823 L6,10.9473 L2.531,12.9493 C2.377,13.0383 2.281,13.2043 2.281,13.3823 C2.281,13.5613 2.377,13.7263 2.531,13.8153 L6.25,15.9633 C6.327,16.0073 6.414,16.0303 6.5,16.0303 C6.586,16.0303 6.673,16.0073 6.75,15.9633 C6.904,15.8733 7,15.7083 7,15.5303 L7,11.5223 L11.929,8.6773 L15.25,10.5943 C15.404,10.6833 15.596,10.6833 15.75,10.5943 C15.904,10.5053 16,10.3403 16,10.1613 L16,5.8673 C16,5.6883 15.904,5.5233 15.75,5.4343 L15.75,5.4343 Z M1,9.2953 L1,6.7333 L3.219,8.0143 L1,9.2953 Z M4.719,8.0143 C4.719,7.8353 4.623,7.6703 4.469,7.5813 L0.75,5.4333 C0.596,5.3453 0.404,5.3453 0.25,5.4333 C0.096,5.5233 0,5.6883 0,5.8673 L0,10.1613 C0,10.3403 0.096,10.5053 0.25,10.5943 C0.327,10.6393 0.414,10.6613 0.5,10.6613 C0.586,10.6613 0.673,10.6393 0.75,10.5943 L4.469,8.4473 C4.623,8.3583 4.719,8.1933 4.719,8.0143 L4.719,8.0143 Z M10,1.3663 L12.219,2.6473 L10,3.9283 L10,1.3663 Z M9.5,5.2943 C9.586,5.2943 9.673,5.2713 9.75,5.2273 L13.469,3.0803 C13.623,2.9913 13.719,2.8263 13.719,2.6473 C13.719,2.4683 13.623,2.3033 13.469,2.2143 L9.75,0.0663 C9.596,-0.0227 9.404,-0.0227 9.25,0.0663 C9.096,0.1563 9,0.3213 9,0.4993 L9,4.7943 C9,4.9733 9.096,5.1383 9.25,5.2273 C9.327,5.2713 9.414,5.2943 9.5,5.2943 L9.5,5.2943 Z" id="Amazon-Interactive-Video_Icon_16_Squid"></path>
        </g>
    </g>
</svg>