<?xml version="1.0" encoding="UTF-8"?>
<svg width="24px" height="24px" viewBox="0 0 24 24" version="1.1" xmlns="http://www.w3.org/2000/svg" xmlns:xlink="http://www.w3.org/1999/xlink">
    <title>Icon-Architecture/16/Arch_AWS-Elemental-Link_16</title>
    <defs>
        <linearGradient x1="0%" y1="100%" x2="100%" y2="0%" id="linearGradient-1">
            <stop stop-color="#C8511B" offset="0%"></stop>
            <stop stop-color="#FF9900" offset="100%"></stop>
        </linearGradient>
    </defs>
    <g id="Icon-Architecture/16/Arch_AWS-Elemental-Link_16" stroke="none" stroke-width="1" fill="none" fill-rule="evenodd">
        <g id="Rectangle" fill="url(#linearGradient-1)">
            <rect x="0" y="0" width="24" height="24"></rect>
        </g>
        <g id="Icon-Service/16/AWS-Elemental-Link_16" transform="translate(4.000000, 4.000000)" fill="#FFFFFF">
            <path d="M6.2197,1.929 L5.7807,1.031 L7.7807,0.051 C7.9187,-0.017 8.0807,-0.017 8.2197,0.051 L10.2197,1.031 L9.7807,1.929 L7.9997,1.056 L6.2197,1.929 Z M8.9997,12.175 L7.4997,12.992 L5.9997,12.175 L5.9997,11.5 L5.9997,10.589 L7.4997,9.771 L8.9997,10.589 L8.9997,12.175 Z M9.9997,10.292 C9.9997,10.109 9.9007,9.94 9.7397,9.853 L7.7397,8.763 C7.5907,8.682 7.4087,8.682 7.2607,8.763 L5.2607,9.853 C5.0997,9.94 4.9997,10.109 4.9997,10.292 L4.9997,10.5 L-0.0003,10.5 L-0.0003,11.5 L4.9997,11.5 L4.9997,12.471 C4.9997,12.655 5.0997,12.823 5.2607,12.91 L6.9997,13.858 L6.9997,15.5 L7.9997,15.5 L7.9997,13.858 L9.7397,12.91 C9.9007,12.823 9.9997,12.655 9.9997,12.471 L9.9997,11.5 L15.9997,11.5 L15.9997,10.5 L9.9997,10.5 L9.9997,10.292 Z M10.9997,5.5 L13.9997,5.5 L13.9997,4.5 L10.9997,4.5 L10.9997,5.5 Z M1.9997,5.5 L8.9997,5.5 L8.9997,4.5 L1.9997,4.5 L1.9997,5.5 Z M0.9997,6.5 L14.9997,6.5 L14.9997,3.5 L0.9997,3.5 L0.9997,6.5 Z M15.4997,2.5 L0.4997,2.5 C0.2237,2.5 -0.0003,2.723 -0.0003,3 L-0.0003,7 C-0.0003,7.276 0.2237,7.5 0.4997,7.5 L15.4997,7.5 C15.7767,7.5 15.9997,7.276 15.9997,7 L15.9997,3 C15.9997,2.723 15.7767,2.5 15.4997,2.5 L15.4997,2.5 Z" id="AWS-Elemental-Link_Icon_16_Squid"></path>
        </g>
    </g>
</svg>