<?xml version="1.0" encoding="UTF-8"?>
<svg width="24px" height="24px" viewBox="0 0 24 24" version="1.1" xmlns="http://www.w3.org/2000/svg" xmlns:xlink="http://www.w3.org/1999/xlink">
    <!-- Generator: Sketch 64 (93537) - https://sketch.com -->
    <title>Icon-Architecture/16/Arch_AWS-Elemental-MediaStore_16</title>
    <desc>Created with Sketch.</desc>
    <defs>
        <linearGradient x1="0%" y1="100%" x2="100%" y2="0%" id="linearGradient-1">
            <stop stop-color="#C8511B" offset="0%"></stop>
            <stop stop-color="#FF9900" offset="100%"></stop>
        </linearGradient>
    </defs>
    <g id="Icon-Architecture/16/Arch_AWS-Elemental-MediaStore_16" stroke="none" stroke-width="1" fill="none" fill-rule="evenodd">
        <g id="Icon-Architecture-BG/16/Media-Services" fill="url(#linearGradient-1)">
            <rect id="Rectangle" x="0" y="0" width="24" height="24"></rect>
        </g>
        <path d="M8.97942827,15.4746616 L7.97755811,16.0000942 L6.97568795,15.4746616 L6.97568795,14.0818641 L7.97755811,13.5804971 L8.97942827,14.0818641 L8.97942827,15.4746616 Z M9.98129842,15.7774872 L9.98129842,13.7720193 C9.98129842,13.5825026 9.87409832,13.4090296 9.70478226,13.3237972 L8.20197702,12.5717467 C8.06071333,12.5015553 7.89440289,12.5015553 7.75313919,12.5717467 L6.25033396,13.3237972 C6.0810179,13.4090296 5.97381779,13.5825026 5.97381779,13.7720193 L5.97381779,15.7774872 C5.97381779,15.9639957 6.07801229,16.1354633 6.242319,16.2216984 L7.74512423,17.0098473 C7.81826075,17.0479512 7.8974085,17.0670031 7.97755811,17.0670031 C8.05770772,17.0670031 8.13685546,17.0479512 8.20999199,17.0098473 L9.71279722,16.2216984 C9.87710393,16.1354633 9.98129842,15.9639957 9.98129842,15.7774872 L9.98129842,15.7774872 Z M16.9943895,16.6709232 L16.9943895,13.8321833 L18.9981298,12.8284466 L18.9981298,15.6631756 L16.9943895,16.6709232 Z M12.9869089,15.9208782 L15.4645338,17.4400202 L12.9869089,18.6864185 L12.9869089,15.9208782 Z M9.98129842,9.72097402 L9.98129842,6.79700175 L15.9925194,9.92352628 L15.9925194,16.588699 L12.9869089,14.7436685 L12.9869089,11.5569799 C12.9869089,11.3674632 12.8817125,11.194993 12.7133983,11.1097606 L9.98129842,9.72097402 Z M8.97942827,6.82106736 L8.97942827,9.21158516 L6.61301095,8.00830439 L8.97942827,6.82106736 Z M12.4859738,5.06227197 L14.7481966,6.19235316 L13.0810847,7.27931679 L10.6194897,5.99782277 L12.4859738,5.06227197 Z M16.489447,9.05215046 L14.1019904,7.80976306 L15.787136,6.71176936 L18.4100321,8.02133993 L16.489447,9.05215046 Z M18.9981298,11.7063873 L16.9943895,12.7111267 L16.9943895,9.91851261 L18.9981298,8.84358179 L18.9981298,11.7063873 Z M19.7234838,7.5570741 L12.7103927,4.05251886 C12.5681272,3.98232748 12.4018167,3.98232748 12.2615549,4.05352159 L5.27751803,7.5570741 C5.10820198,7.64230649 5.00100187,7.81477673 5,8.00429345 C5,8.00429345 5.00100187,8.00529619 5.00100187,8.00529619 L5,8.00529619 L5,12.0162321 L6.00187016,12.0162321 L6.00187016,8.82252438 L11.9850387,11.8638165 L11.9850387,18.609208 L10.2828613,17.5773947 L9.7638926,18.4347323 L12.2214801,19.924795 L12.222482,19.9257977 C12.222482,19.9257977 12.2234838,19.9257977 12.2234838,19.9257977 L12.2264894,19.9278032 L12.2274913,19.9268004 C12.3056372,19.9749317 12.3958055,20 12.4859738,20 C12.5631178,20 12.63926,19.9829535 12.7113946,19.9468551 L19.7244857,16.4212424 C19.8938018,16.3360101 20,16.1625371 20,15.9730204 L20,8.00529619 C20,7.81577947 19.8927999,7.64130376 19.7234838,7.5570741 L19.7234838,7.5570741 Z" id="AWS-Elemental-MediaStore_Icon_16_Squid" fill="#FFFFFF"></path>
    </g>
</svg>