<?xml version="1.0" encoding="UTF-8"?>
<svg width="24px" height="24px" viewBox="0 0 24 24" version="1.1" xmlns="http://www.w3.org/2000/svg" xmlns:xlink="http://www.w3.org/1999/xlink">
    <title>Icon-Architecture/16/Arch_Amazon-Nimble-Studio_16</title>
    <defs>
        <linearGradient x1="0%" y1="100%" x2="100%" y2="0%" id="linearGradient-1">
            <stop stop-color="#C8511B" offset="0%"></stop>
            <stop stop-color="#FF9900" offset="100%"></stop>
        </linearGradient>
    </defs>
    <g id="Icon-Architecture/16/Arch_Amazon-Nimble-Studio_16" stroke="none" stroke-width="1" fill="none" fill-rule="evenodd">
        <g id="Rectangle" fill="url(#linearGradient-1)">
            <rect x="0" y="0" width="24" height="24"></rect>
        </g>
        <g id="Icon-Service/16/Amazon-Nimble-Studio_16" transform="translate(4.000000, 4.000000)" fill="#FFFFFF">
            <path d="M5.68214479,14.591 C5.79214479,13.383 6.17014479,11.674 6.44014479,10.784 C6.50714479,10.973 6.57914479,11.16 6.65914479,11.344 C6.88514479,11.876 7.22814479,12.68 7.93914479,13.487 C8.51414479,14.141 9.10814479,14.546 9.57214479,14.816 C8.28614479,15.106 6.93014479,15.032 5.68214479,14.591 L5.68214479,14.591 Z M3.82014479,15 C3.50214479,13.854 3.11314479,12.861 1.76314479,10.761 C1.65514479,10.592 1.54814479,10.418 1.44714479,10.252 C1.33714479,10.073 1.23314479,9.902 1.13414479,9.751 L2.46414479,7.983 C2.49714479,8.052 2.53214479,8.124 2.56614479,8.199 C2.78014479,8.669 2.87914479,9.019 3.11914479,9.865 L3.24214479,10.297 C3.32814479,10.597 3.46414479,11.075 3.64214479,11.674 C3.71114479,11.906 3.94014479,12.063 4.18214479,12.027 C4.42514479,11.997 4.61014479,11.797 4.62014479,11.553 C4.71514479,9.446 5.15614479,7.496 5.93314479,5.757 C6.49214479,4.505 7.21114479,3.416 7.96014479,2.692 C8.19014479,2.47 8.43514479,2.259 8.69414479,2.063 L10.0891448,4.33 C9.83514479,4.54 9.60014479,4.771 9.38514479,5.02 C9.02214479,5.442 8.70314479,5.946 8.46314479,6.48 C8.25414479,6.945 7.90514479,7.915 7.91014479,9.189 C7.91114479,9.534 7.91214479,10.341 8.25614479,11.315 C8.41914479,11.774 8.92014479,12.947 10.0781448,13.953 C9.66914479,13.716 9.17214479,13.376 8.68914479,12.826 C8.08414479,12.14 7.79214479,11.453 7.57814479,10.952 C7.33314479,10.378 7.15114479,9.778 7.03614479,9.167 C6.99714479,8.958 6.83014479,8.796 6.62014479,8.764 C6.40414479,8.732 6.20314479,8.837 6.10314479,9.025 C5.99214479,9.236 5.82414479,9.574 5.65014479,10.006 C5.33914479,10.778 4.70314479,13.413 4.65014479,15 L3.82014479,15 Z M8.01714479,1 C8.15914479,1 8.29714479,1.013 8.43614479,1.022 C8.01814479,1.31 7.62314479,1.627 7.26514479,1.973 C6.42714479,2.784 5.62914479,3.983 5.01914479,5.349 C4.51414479,6.482 4.14114479,7.697 3.90614479,8.979 C3.76414479,8.497 3.65614479,8.179 3.47614479,7.785 C3.32014479,7.44 3.14314479,7.109 2.95114479,6.802 C2.86314479,6.663 2.71214479,6.575 2.54814479,6.568 C2.35514479,6.564 2.22714479,6.636 2.12714479,6.767 L1.01314479,8.249 L1.01714479,8 C1.01714479,4.14 4.15814479,1 8.01714479,1 L8.01714479,1 Z M15.0171448,8 C15.0171448,10.515 13.8831448,12.706 12.0581448,13.72 C11.9881448,13.759 11.8491448,13.819 11.7161448,13.874 C11.3991448,13.703 11.0701448,13.49 10.7451448,13.209 C9.75914479,12.356 9.33514479,11.367 9.20014479,10.982 C8.91214479,10.169 8.91114479,9.48 8.91010853,9.186 C8.90614479,8.059 9.23414479,7.205 9.37514479,6.89 C9.62914479,6.326 9.93314479,5.916 10.1431448,5.672 C10.4061448,5.367 10.7071448,5.095 11.0381448,4.863 C11.2561448,4.712 11.3171448,4.417 11.1781448,4.191 L9.28914479,1.122 C12.5421448,1.722 15.0171448,4.575 15.0171448,8 L15.0171448,8 Z M15.4761448,14.698 C15.4671448,14.699 14.7331448,14.754 13.4501448,14.487 C13.3231448,14.462 13.1311448,14.42 12.9041448,14.356 C14.8281448,13.091 16.0171448,10.709 16.0171448,8 C16.0171448,3.589 12.4281448,0 8.01714479,0 C3.60614479,0 0.0171447898,3.589 0.0171447898,8 L0.0111447898,8.399 C-0.00185521023,9.023 -0.00885521023,9.56 0.0211447898,9.802 L0.0361447898,9.8 C0.0471447898,9.887 0.0671447898,9.975 0.12314479,10.048 C0.25914479,10.223 0.41814479,10.487 0.59314479,10.773 C0.69914479,10.945 0.80914479,11.126 0.92114479,11.302 C2.36414479,13.545 2.63314479,14.406 2.95314479,15.627 C3.01014479,15.847 3.20814479,16 3.43614479,16 L5.15814479,16 C5.29714479,16 5.43114479,15.942 5.52614479,15.839 C5.57914479,15.78 5.61314479,15.71 5.63414479,15.635 C6.40114479,15.875 7.19914479,16 8.01714479,16 C8.99514479,16 9.96814479,15.816 10.8771448,15.469 C11.4431448,15.701 12.1971448,15.935 13.1061448,15.999 C13.2741448,16.011 13.4351448,16.016 13.5901448,16.016 C14.8421448,16.016 15.6721448,15.673 15.7111448,15.657 C15.9371448,15.562 16.0601448,15.316 16.0021448,15.078 C15.9441448,14.839 15.7021448,14.669 15.4761448,14.698 L15.4761448,14.698 Z" id="Fill-8"></path>
        </g>
    </g>
</svg>