<?xml version="1.0" encoding="UTF-8"?>
<svg width="24px" height="24px" viewBox="0 0 24 24" version="1.1" xmlns="http://www.w3.org/2000/svg" xmlns:xlink="http://www.w3.org/1999/xlink">
    <!-- Generator: Sketch 64 (93537) - https://sketch.com -->
    <title>Icon-Architecture/16/Arch_Amazon-Kinesis-Video-Streams_16</title>
    <desc>Created with Sketch.</desc>
    <defs>
        <linearGradient x1="0%" y1="100%" x2="100%" y2="0%" id="linearGradient-1">
            <stop stop-color="#C8511B" offset="0%"></stop>
            <stop stop-color="#FF9900" offset="100%"></stop>
        </linearGradient>
    </defs>
    <g id="Icon-Architecture/16/Arch_Amazon-Kinesis-Video-Streams_16" stroke="none" stroke-width="1" fill="none" fill-rule="evenodd">
        <g id="Icon-Architecture-BG/16/Media-Services" fill="url(#linearGradient-1)">
            <rect id="Rectangle" x="0" y="0" width="24" height="24"></rect>
        </g>
        <path d="M9.106,13.841 L9.118,13.841 C7.953,14.39 7.747,15.035 7.747,15.665 L6.747,15.665 C6.747,14.304 7.487,13.386 9.106,12.755 L9.106,13.841 Z M18.106,17.612 C18.106,17.738 18.003,17.841 17.877,17.841 L11.335,17.841 C11.209,17.841 11.106,17.738 11.106,17.612 L11.106,13.07 C11.106,12.944 11.209,12.841 11.335,12.841 L17.877,12.841 C18.003,12.841 18.106,12.944 18.106,13.07 L18.106,17.612 Z M17.877,11.841 L11.335,11.841 C10.657,11.841 10.106,12.392 10.106,13.07 L10.106,17.612 C10.106,18.29 10.657,18.841 11.335,18.841 L17.877,18.841 C18.555,18.841 19.106,18.29 19.106,17.612 L19.106,13.07 C19.106,12.392 18.555,11.841 17.877,11.841 L17.877,11.841 Z M19.107,9.833 L19.107,10.833 C7.49,10.833 6,12.225 6,13.438 L5,13.438 C5,12.002 6.001,10.921 9.854,10.333 C6.001,9.744 5,8.664 5,7.228 L6,7.228 C6,8.441 7.49,9.833 19.107,9.833 L19.107,9.833 Z M19.107,8.029 L19.107,9.029 C8.244,9.029 6.747,7.092 6.747,5 L7.747,5 C7.747,5.906 7.747,8.029 19.107,8.029 L19.107,8.029 Z M14.069,15.798 L14.069,14.884 L14.982,15.341 L14.069,15.798 Z M16.324,14.894 L13.793,13.628 C13.637,13.55 13.454,13.56 13.306,13.65 C13.159,13.741 13.069,13.902 13.069,14.075 L13.069,16.607 C13.069,16.78 13.159,16.941 13.306,17.032 C13.386,17.082 13.477,17.107 13.569,17.107 C13.645,17.107 13.722,17.089 13.793,17.054 L16.324,15.788 C16.493,15.703 16.6,15.53 16.6,15.341 C16.6,15.152 16.493,14.979 16.324,14.894 L16.324,14.894 Z" id="Amazon-Kinesis-Video-Streams_16_Squid" fill="#FFFFFF"></path>
    </g>
</svg>