<?xml version="1.0" encoding="UTF-8"?>
<svg width="24px" height="24px" viewBox="0 0 24 24" version="1.1" xmlns="http://www.w3.org/2000/svg" xmlns:xlink="http://www.w3.org/1999/xlink">
    <!-- Generator: Sketch 64 (93537) - https://sketch.com -->
    <title>Icon-Architecture/16/Arch_AWS-Elemental-MediaConnect_16</title>
    <desc>Created with Sketch.</desc>
    <defs>
        <linearGradient x1="0%" y1="100%" x2="100%" y2="0%" id="linearGradient-1">
            <stop stop-color="#C8511B" offset="0%"></stop>
            <stop stop-color="#FF9900" offset="100%"></stop>
        </linearGradient>
    </defs>
    <g id="Icon-Architecture/16/Arch_AWS-Elemental-MediaConnect_16" stroke="none" stroke-width="1" fill="none" fill-rule="evenodd">
        <g id="Icon-Architecture-BG/16/Media-Services" fill="url(#linearGradient-1)">
            <rect id="Rectangle" x="0" y="0" width="24" height="24"></rect>
        </g>
        <path d="M18.0061759,9.14199616 L16.5333286,8.37258727 L15.0594875,9.14199616 L15.0594875,11.0634883 L16.5333286,11.8227467 L18.0061759,11.0634883 L18.0061759,9.14199616 Z M13.4475048,5.84713962 L11.9746575,5.07773073 L10.5008164,5.84713962 L10.5008164,7.76863174 L11.9746575,8.52789012 L13.4475048,7.76863174 L13.4475048,5.84713962 Z M8.94051253,9.14199616 L7.46766522,8.37258727 L5.99382409,9.14199616 L5.99382409,11.0634883 L7.46766522,11.8227467 L8.94051253,11.0634883 L8.94051253,9.14199616 Z M19,8.83139046 L19,11.3761241 C19,11.5679688 18.8946546,11.7425576 18.7276922,11.828837 L16.756939,12.8438883 C16.6863775,12.8804301 16.6098531,12.8987011 16.5333286,12.8987011 C16.4558103,12.8987011 16.3792859,12.8804301 16.3087244,12.8438883 L14.338965,11.828837 C14.1720026,11.7425576 14.0656634,11.5679688 14.0656634,11.3761241 L14.0656634,9.0161298 L13.8172074,8.71567461 L12.1982679,9.54903174 C12.0571449,9.62211543 11.8921701,9.62211543 11.7500532,9.54903174 L10.147015,8.72277997 L9.93433662,9.00394918 L9.93433662,11.3761241 C9.93433662,11.5679688 9.82799744,11.7425576 9.66202882,11.828837 L7.69127564,12.8438883 C7.55015262,12.9159569 7.384184,12.9159569 7.24306098,12.8438883 L5.2723078,11.828837 C5.10633918,11.7425576 5,11.5679688 5,11.3761241 L5,8.83139046 C5,8.64056082 5.10534535,8.46597199 5.27131398,8.37969263 L7.24107333,7.3504306 C7.38319018,7.27633186 7.55114645,7.27633186 7.69326329,7.3504306 L9.29530773,8.18784793 L9.50699226,7.90870882 L9.50699226,5.53653392 C9.50699226,5.34570427 9.61233762,5.17111545 9.77830624,5.08483609 L11.7480656,4.05557406 C11.8901824,3.98147531 12.0591325,3.98147531 12.2002556,4.05557406 L14.1710087,5.08483609 C14.3369774,5.17111545 14.4413289,5.34570427 14.4413289,5.53653392 L14.4413289,7.89551316 L14.6877973,8.19596834 L16.3067367,7.3504306 C16.4488536,7.27633186 16.6178036,7.27633186 16.7589267,7.3504306 L18.7296798,8.37969263 C18.8956485,8.46597199 19,8.64056082 19,8.83139046 L19,8.83139046 Z M18.1870519,15.2028675 L14.7881735,13.1849455 L14.2892738,14.0619499 L16.9795556,15.6596406 L11.9746575,18.891564 L6.97075318,15.6596406 L9.66600412,14.0629649 L9.16710442,13.1839305 L5.76226308,15.2018525 C5.61120182,15.291177 5.51877618,15.4535852 5.51472702,15.6312192 C5.51181941,15.8088532 5.59927593,15.9753216 5.74536807,16.0697213 L11.7083126,19.920826 C11.7898062,19.9736087 11.8822318,20 11.9746575,20 C12.0660893,20 12.1585149,19.9736087 12.2400085,19.920826 L18.2029531,16.0697213 C18.350039,15.9753216 18.4374956,15.8088532 18.4345879,15.6322342 C18.4315326,15.4546002 18.3371193,15.292192 18.1870519,15.2028675 L18.1870519,15.2028675 Z M11.4777454,16.0605859 L11.4777454,12.7738497 L10.8049265,13.1849455 L10.2941009,12.3150465 L11.7192447,11.4421024 C11.8762689,11.3456726 12.0720522,11.3456726 12.2300703,11.4421024 L13.6542202,12.3150465 L13.1433946,13.1849455 L12.4715695,12.7738497 L12.4715695,16.0605859 L13.1433946,15.648475 L13.6542202,16.5193891 L12.2300703,17.3913181 C12.1505644,17.4400406 12.0631078,17.4644018 11.9746575,17.4644018 C11.8862071,17.4644018 11.7977568,17.4400406 11.7192447,17.3913181 L10.2941009,16.5193891 L10.8049265,15.648475 L11.4777454,16.0605859 Z" id="AWS-Elemental-MediaConnect_Icon_16_Squid" fill="#FFFFFF"></path>
    </g>
</svg>