<?xml version="1.0" encoding="UTF-8"?>
<svg width="24px" height="24px" viewBox="0 0 24 24" version="1.1" xmlns="http://www.w3.org/2000/svg" xmlns:xlink="http://www.w3.org/1999/xlink">
    <!-- Generator: Sketch 64 (93537) - https://sketch.com -->
    <title>Icon-Architecture/16/Arch_Amazon-Elastic-Transcoder_16</title>
    <desc>Created with Sketch.</desc>
    <defs>
        <linearGradient x1="0%" y1="100%" x2="100%" y2="0%" id="linearGradient-1">
            <stop stop-color="#C8511B" offset="0%"></stop>
            <stop stop-color="#FF9900" offset="100%"></stop>
        </linearGradient>
    </defs>
    <g id="Icon-Architecture/16/Arch_Amazon-Elastic-Transcoder_16" stroke="none" stroke-width="1" fill="none" fill-rule="evenodd">
        <g id="Icon-Architecture-BG/16/Media-Services" fill="url(#linearGradient-1)">
            <rect id="Rectangle" x="0" y="0" width="24" height="24"></rect>
        </g>
        <path d="M7.06650482,10.717932 L9.59228263,12.0909448 L7.06650482,13.4629576 L7.06650482,10.717932 Z M6.55542069,14.8129702 C6.64128282,14.8129702 6.72612279,14.79197 6.80380758,14.7499696 L10.8924807,12.5279489 C11.0539833,12.4399481 11.1551779,12.2719465 11.1551779,12.0909448 C11.1551779,11.9089431 11.0539833,11.7409415 10.8924807,11.6539407 L6.80380758,9.43091994 C6.64537149,9.34491913 6.45218169,9.34691915 6.29578994,9.43691999 C6.14042037,9.52692083 6.04433655,9.69092237 6.04433655,9.86792402 L6.04433655,14.3129656 C6.04433655,14.4899672 6.14042037,14.6539687 6.29578994,14.7439696 C6.37551907,14.78997 6.46546988,14.8129702 6.55542069,14.8129702 L6.55542069,14.8129702 Z M16.2660193,16.6629875 L16.2660193,14.4029664 L18.4115505,15.532977 L16.2660193,16.6629875 Z M5.02216827,15.4999766 L12.1773462,15.4999766 L12.1773462,8.49991124 L5.02216827,8.49991124 L5.02216827,15.4999766 Z M16.2660193,7.33690037 L18.4115505,8.46791094 L16.2660193,9.59692149 L16.2660193,7.33690037 Z M19.7321919,15.0929728 L15.997189,13.1259545 C15.838753,13.0429537 15.6476075,13.0469537 15.4922379,13.1369546 C15.3389127,13.2269554 15.243851,13.3899569 15.243851,13.5659586 L15.243851,14.5899681 L13.1995145,13.2349555 L13.1995145,10.7969327 L15.243851,9.44292005 L15.243851,10.4339293 C15.243851,10.609931 15.3389127,10.7729325 15.4922379,10.8639333 C15.5729892,10.9109338 15.6639622,10.933934 15.7549352,10.933934 C15.8377308,10.933934 15.9215486,10.9139338 15.997189,10.8749334 L19.7321919,8.90791505 C19.8977832,8.82091424 20,8.65191266 20,8.46791094 C20,8.28290921 19.8977832,8.11390763 19.7321919,8.02690682 L15.997189,6.05988844 C15.838753,5.97588766 15.6476075,5.9808877 15.4922379,6.07088854 C15.3389127,6.16088939 15.243851,6.32389091 15.243851,6.49989255 L15.243851,8.23490876 L13.1995145,9.58892141 L13.1995145,7.99990657 C13.1995145,7.72290398 12.9705488,7.4999019 12.6884303,7.4999019 L4.51108414,7.4999019 C4.22896569,7.4999019 4,7.72290398 4,7.99990657 L4,15.9999813 C4,16.2769839 4.22896569,16.499986 4.51108414,16.499986 L12.6884303,16.499986 C12.9705488,16.499986 13.1995145,16.2769839 13.1995145,15.9999813 L13.1995145,14.4429668 L15.243851,15.7979794 L15.243851,17.5 C15.243851,17.675997 15.3389127,17.8389985 15.4922379,17.9289993 C15.5729892,17.9769998 15.6639622,18 15.7549352,18 C15.8377308,18 15.9215486,17.9799998 15.997189,17.9409994 L19.7321919,15.9729811 C19.8977832,15.8859802 20,15.7169787 20,15.532977 C20,15.3489752 19.8977832,15.1799737 19.7321919,15.0929728 L19.7321919,15.0929728 Z" id="Amazon-Elastic-Transcoder_Icon_16_Squid" fill="#FFFFFF"></path>
    </g>
</svg>