<?xml version="1.0" encoding="UTF-8"?>
<svg width="24px" height="24px" viewBox="0 0 24 24" version="1.1" xmlns="http://www.w3.org/2000/svg" xmlns:xlink="http://www.w3.org/1999/xlink">
    <!-- Generator: Sketch 64 (93537) - https://sketch.com -->
    <title>Icon-Architecture/16/Arch_AWS-Elemental-MediaPackage_16</title>
    <desc>Created with Sketch.</desc>
    <defs>
        <linearGradient x1="0%" y1="100%" x2="100%" y2="0%" id="linearGradient-1">
            <stop stop-color="#C8511B" offset="0%"></stop>
            <stop stop-color="#FF9900" offset="100%"></stop>
        </linearGradient>
    </defs>
    <g id="Icon-Architecture/16/Arch_AWS-Elemental-MediaPackage_16" stroke="none" stroke-width="1" fill="none" fill-rule="evenodd">
        <g id="Icon-Architecture-BG/16/Media-Services" fill="url(#linearGradient-1)">
            <rect id="Rectangle" x="0" y="0" width="24" height="24"></rect>
        </g>
        <path d="M14.996,13.1338691 L14.996,10.4036597 C14.996,10.2161646 14.892,10.0437092 14.725,9.95848412 L12.223,8.67208723 C12.078,8.59889395 11.908,8.59889395 11.766,8.67208723 L9.271,9.95848412 C9.104,10.0437092 9,10.2161646 9,10.4036597 L9,13.1338691 L6,14.8463913 L6,8.76032022 L7.731,9.86724319 L8.268,9.02201125 L6.503,7.89403268 L11.491,5.32224154 L11.491,6.98663659 L12.491,6.98663659 L12.491,5.3212389 L17.495,7.89403268 L15.723,9.02602184 L16.26,9.87225643 L18,8.76032022 L18,14.8463913 L14.996,13.1338691 Z M10,13.1368771 L10,10.7104698 L11.994,9.68175338 L13.996,10.7104698 L13.996,13.1368771 L11.994,14.3019536 L10,13.1368771 Z M11.491,16.0104651 L11.491,18.6273754 L6.502,15.7126788 L9.497,14.0041673 L11.742,15.3156303 C11.82,15.3607495 11.907,15.3838104 11.994,15.3838104 C12.081,15.3838104 12.168,15.3607495 12.245,15.3156303 L14.498,14.0031646 L17.497,15.7126788 L12.491,18.6273754 L12.491,16.0104651 L11.491,16.0104651 Z M18.728,7.40073005 L12.22,4.05489496 C12.075,3.98170168 11.905,3.98170168 11.763,4.05489496 L5.271,7.40073005 C5.104,7.48695775 5,7.65941314 5,7.84690824 L5,15.7076656 C5,15.8861368 5.095,16.0515737 5.248,16.141812 L11.739,19.93182 C11.817,19.9779418 11.904,20 11.991,20 C12.078,20 12.165,19.9779418 12.242,19.93182 L18.751,16.141812 C18.905,16.0515737 19,15.8871395 19,15.7076656 L19,7.84690824 C19,7.65941314 18.895,7.48695775 18.728,7.40073005 L18.728,7.40073005 Z" id="AWS-Elemental-MediaPackage_Icon_16_Squid" fill="#FFFFFF"></path>
    </g>
</svg>