<?xml version="1.0" encoding="UTF-8"?>
<svg width="24px" height="24px" viewBox="0 0 24 24" version="1.1" xmlns="http://www.w3.org/2000/svg" xmlns:xlink="http://www.w3.org/1999/xlink">
    <!-- Generator: Sketch 64 (93537) - https://sketch.com -->
    <title>Icon-Architecture/16/Arch_AWS-Elemental-MediaLive_16</title>
    <desc>Created with Sketch.</desc>
    <defs>
        <linearGradient x1="0%" y1="100%" x2="100%" y2="0%" id="linearGradient-1">
            <stop stop-color="#C8511B" offset="0%"></stop>
            <stop stop-color="#FF9900" offset="100%"></stop>
        </linearGradient>
    </defs>
    <g id="Icon-Architecture/16/Arch_AWS-Elemental-MediaLive_16" stroke="none" stroke-width="1" fill="none" fill-rule="evenodd">
        <g id="Icon-Architecture-BG/16/Media-Services" fill="url(#linearGradient-1)">
            <rect id="Rectangle" x="0" y="0" width="24" height="24"></rect>
        </g>
        <path d="M15.4359864,17.8382186 C15.5719858,18.0807649 15.4859862,18.3867153 15.2459871,18.5235879 L12.745997,19.9355894 C12.6689973,19.9778589 12.5839977,20 12.499998,20 C12.4159984,20 12.3319987,19.9778589 12.254999,19.9355894 L9.7550089,18.5235879 C9.51500985,18.3867153 9.4290102,18.0807649 9.56500966,17.8382186 C9.69900912,17.5956724 10.0010079,17.5091206 10.246007,17.6459932 L12,18.6373129 L12,16.0719587 C12,15.7931815 12.2239991,15.5687508 12.499998,15.5687508 C12.7769969,15.5687508 12.999996,15.7931815 12.999996,16.0719587 L12.999996,18.6373129 L14.7549891,17.6459932 C14.9989881,17.5101271 15.3019869,17.5956724 15.4359864,17.8382186 L15.4359864,17.8382186 Z M17.9999841,15.8022393 L16.9999841,16.4735187 L15.9999841,15.8022393 L15.9999841,14.32784 L16.9999841,13.657567 L17.9999841,14.32784 L17.9999841,15.8022393 Z M17.2779791,12.634042 C17.1099797,12.520317 16.8909806,12.520317 16.7229813,12.634042 L15.2229872,13.6404579 C15.0839878,13.7330482 14.9999881,13.8910555 14.9999881,14.0591269 L14.9999881,16.0719587 C14.9999881,16.2400302 15.0839878,16.3970311 15.2229872,16.4906278 L16.7229813,17.4970437 C16.8069809,17.5534029 16.9039806,17.5815826 16.9999881,17.5815826 C17.0969798,17.5815826 17.1939794,17.5534029 17.2779791,17.4970437 L18.7779731,16.4906278 C18.9159726,16.3970311 18.9999722,16.2400302 18.9999722,16.0719587 L18.9999722,14.0591269 C18.9999722,13.8910555 18.9159726,13.7330482 18.7779731,13.6404579 L17.2779791,12.634042 Z M19,8.31349855 L19,10.5366713 C19,10.8144421 18.7769731,11.0398792 18.4999742,11.0398792 C18.2239753,11.0398792 17.9999762,10.8144421 17.9999762,10.5366713 L17.9999762,9.26254875 L16.283983,10.4481067 C16.0549839,10.6051076 15.7459851,10.5477419 15.5879858,10.3172726 C15.4319864,10.0888162 15.4899862,9.77481444 15.7169853,9.61881998 L17.5269781,8.36885143 L15.771985,7.46106428 C15.525986,7.33425588 15.4289864,7.03132469 15.5559859,6.78374638 C15.6819854,6.53616807 15.9849842,6.44055856 16.2289832,6.56636055 L18.7209733,7.85557932 C18.7909731,7.88979746 18.8539728,7.94213109 18.9039726,8.00956095 L18.9179726,8.0317021 L18.9189726,8.0317021 L18.9189726,8.03270852 C18.9749723,8.11926028 19.0009722,8.21688263 19,8.31349855 L19,8.31349855 Z M8.00002379,15.8022393 L7.00002379,16.4735187 L6.00002379,15.8022393 L6.00002379,14.32784 L7.00002379,13.657567 L8.00002379,14.32784 L8.00002379,15.8022393 Z M7.27801873,12.634042 C7.11001939,12.520317 6.89102026,12.520317 6.72302093,12.634042 L5.22302687,13.6404579 C5.08402743,13.7330482 5.00002776,13.8910555 5.00002776,14.0591269 L5.00002776,16.0719587 C5.00002776,16.2400302 5.08402743,16.3970311 5.22302687,16.4906278 L6.72302093,17.4970437 C6.80702059,17.5534029 6.90402021,17.5815826 7.00002776,17.5815826 C7.09701944,17.5815826 7.19401906,17.5534029 7.27801873,17.4970437 L8.77801278,16.4906278 C8.91601223,16.3970311 9.0000119,16.2400302 9.0000119,16.0719587 L9.0000119,14.0591269 C9.0000119,13.8910555 8.91601223,13.7330482 8.77801278,13.6404579 L7.27801873,12.634042 Z M11.500002,5.77934331 L12.500002,5.10907032 L13.500002,5.77934331 L13.500002,7.25374261 L12.500002,7.9240156 L11.500002,7.25374261 L11.500002,5.77934331 Z M12.2229991,8.94854699 C12.3069988,9.00490628 12.4039984,9.03207951 12.5000059,9.03207951 C12.5969976,9.03207951 12.6939972,9.00490628 12.7779969,8.94854699 L14.277991,7.94213109 C14.4159904,7.84853441 14.4999901,7.69052711 14.4999901,7.52245565 L14.4999901,5.50962385 C14.4999901,5.3415524 14.4159904,5.18455152 14.277991,5.09095484 L12.7779969,4.08453894 C12.6099976,3.97182035 12.3909984,3.97182035 12.2229991,4.08453894 L10.7230051,5.09095484 C10.5840056,5.18455152 10.5000059,5.3415524 10.5000059,5.50962385 L10.5000059,7.52245565 C10.5000059,7.69052711 10.5840056,7.84853441 10.7230051,7.94213109 L12.2229991,8.94854699 Z M5,10.5366713 L5,8.31953705 C4.99902776,8.22292112 5.02502766,8.1263052 5.08102744,8.03975343 C5.08102744,8.03975343 5.08102744,8.03874701 5.08202743,8.03874701 C5.08602742,8.03069568 5.0910274,8.02365077 5.09702737,8.01559945 C5.14602718,7.94816958 5.20902693,7.89583595 5.27902665,7.8606114 L7.77101677,6.56636055 C8.0160158,6.44156498 8.3190146,6.53616807 8.4450141,6.78273997 C8.57201359,7.03031828 8.47501398,7.33324947 8.23001495,7.46106428 L6.47402191,8.37287709 L8.28301474,9.61781356 C8.51001384,9.77481444 8.56901361,10.0878098 8.41401422,10.3172726 C8.25601485,10.5467354 7.94501608,10.6051076 7.71801698,10.4481067 L6.00002379,9.26657441 L6.00002379,10.5366713 C6.00002379,10.8144421 5.77702468,11.0398792 5.50002578,11.0398792 C5.22402687,11.0398792 5,10.8144421 5,10.5366713 L5,10.5366713 Z M11.000004,10.594037 L13.6949933,12.0462951 L11.000004,13.4985533 L11.000004,10.594037 Z M10.5000079,14.8411121 C10.5820056,14.8411121 10.6630053,14.8219902 10.737005,14.7817336 L14.9909881,12.4901245 C15.1529875,12.4025664 15.2539871,12.2314757 15.2539871,12.0462951 C15.2539871,11.8601082 15.1529875,11.6900239 14.9909881,11.6024657 L10.737005,9.3098503 C10.5820056,9.22631778 10.3950064,9.23235627 10.244007,9.32192729 C10.0930076,9.41250472 10.0000079,9.57655051 10.0000079,9.75367971 L10.0000079,14.3379041 C10.0000079,14.5150333 10.0930076,14.6790791 10.244007,14.770663 C10.3230067,14.8179645 10.4120063,14.8411121 10.5000079,14.8411121 L10.5000079,14.8411121 Z" id="AWS-Elemental-MediaLive_Icon_16_Squid" fill="#FFFFFF"></path>
    </g>
</svg>