<?xml version="1.0" encoding="UTF-8"?>
<svg width="64px" height="64px" viewBox="0 0 64 64" version="1.1" xmlns="http://www.w3.org/2000/svg" xmlns:xlink="http://www.w3.org/1999/xlink">
    <title>Icon-Architecture/48/Arch_AWS-Marketplace_Dark_48</title>
    <g id="Icon-Architecture/48/Arch_AWS-Marketplace_Dark_48" stroke="none" stroke-width="1" fill="none" fill-rule="evenodd">
        <rect id="Rectangle" fill="#FFFFFF" x="0" y="0" width="64" height="64"></rect>
        <g id="Fill-4" transform="translate(8.000000, 8.000000)" fill="#232F3D">
            <path d="M32.008,41 C32.008,42.103 31.111,43 30.008,43 C28.905,43 28.008,42.103 28.008,41 C28.008,39.897 28.905,39 30.008,39 C31.111,39 32.008,39.897 32.008,41 L32.008,41 Z M37.954,15 C37.479,15 37.069,15.335 36.974,15.801 L33.284,34 L7.691,34 L5.261,21.849 L3.3,22.242 L5.891,35.196 C5.985,35.664 6.395,36 6.871,36 L29.475,36 L28.966,37.155 C27.267,37.617 26.008,39.157 26.008,41 C26.008,43.206 27.802,45 30.008,45 C32.214,45 34.008,43.206 34.008,41 C34.008,39.19 32.792,37.674 31.139,37.183 L31.66,36 L34.102,36 C34.577,36 34.987,35.665 35.082,35.199 L38.772,17 L46.008,17 L46.008,15 L37.954,15 Z M13.008,43 C11.905,43 11.008,42.103 11.008,41 C11.008,39.897 11.905,39 13.008,39 C14.111,39 15.008,39.897 15.008,41 C15.008,42.103 14.111,43 13.008,43 L13.008,43 Z M13.008,37 C10.802,37 9.008,38.794 9.008,41 C9.008,43.206 10.802,45 13.008,45 C15.214,45 17.008,43.206 17.008,41 C17.008,38.794 15.214,37 13.008,37 L13.008,37 Z M13.008,5.152 L17.992,8 L13.008,10.848 L8.024,8 L13.008,5.152 Z M27.008,5.152 L31.992,8 L27.008,10.848 L22.024,8 L27.008,5.152 Z M28.008,18.277 L28.008,12.58 L33.008,9.723 L33.008,15.42 L28.008,18.277 Z M21.008,29.53 L21.008,24.58 L26.008,21.723 L26.008,27.346 L21.008,29.53 Z M14.008,21.723 L19.008,24.58 L19.008,29.53 L14.008,27.346 L14.008,21.723 Z M19.008,15.42 L14.008,18.277 L14.008,12.58 L19.008,9.723 L19.008,15.42 Z M26.008,18.277 L21.008,15.42 L21.008,9.723 L26.008,12.58 L26.008,18.277 Z M20.008,22.848 L15.024,20 L20.008,17.152 L24.992,20 L20.008,22.848 Z M7.008,9.723 L12.008,12.58 L12.008,18.115 L7.008,14.728 L7.008,9.723 Z M5.447,16.086 L12.008,20.53 L12.008,28 C12.008,28.397 12.243,28.757 12.608,28.917 L19.608,31.975 C19.736,32.03 19.871,32.058 20.008,32.058 C20.145,32.058 20.28,32.03 20.408,31.975 L27.408,28.917 C27.773,28.757 28.008,28.397 28.008,28 L28.008,20.58 L34.504,16.868 C34.816,16.69 35.008,16.359 35.008,16 L35.008,8 C35.008,7.641 34.816,7.31 34.504,7.132 L27.504,3.132 C27.197,2.956 26.819,2.956 26.512,3.132 L20.008,6.848 L13.504,3.132 C13.197,2.956 12.819,2.956 12.512,3.132 L5.512,7.132 C5.2,7.31 5.008,7.641 5.008,8 L5.008,15.258 C5.008,15.59 5.172,15.9 5.447,16.086 L5.447,16.086 Z"></path>
        </g>
    </g>
</svg>