<svg xmlns="http://www.w3.org/2000/svg" width="24px" height="24px" viewBox="0 0 24 24"><defs><style>.cls-1{fill:none;}.cls-2{fill:#4285f4;}.cls-3{fill:#669df6;}.cls-4{fill:#aecbfa;}</style></defs><title>Icon_24px_WebRisk_Color</title><g data-name="Product Icons"><rect class="cls-1" width="24" height="24"/><rect class="cls-1" width="24" height="24"/><g data-name="colored-32/web-risk"><g ><g ><g ><path id="Fill-1" class="cls-2" d="M4,18V6h8V4H3A1,1,0,0,0,2,5V19a1,1,0,0,0,1,1h9V18Z"/><path id="Fill-3" class="cls-3" d="M21,4H12V6h8V18H12v2h9a1,1,0,0,0,1-1V5a1,1,0,0,0-1-1"/><path id="Fill-7" class="cls-3" d="M9,12l0-2,3-1V7L7,9v3c0,2.38,3,5,5,5V15c-.89,0-3-1.38-3-3"/><path id="Fill-7-2" data-name="Fill-7" class="cls-4" d="M15,12c0,1.62-2.1,3-3,3v2c2,0,5-2.62,5-5V9L12,7V9l3,1,0,2"/><path id="Fill-9" class="cls-2" d="M12.59,12.8a.86.86,0,0,1-1.19,0l-1-1.22L11,11l1,1.09,3-3,.6.59Z"/></g></g></g></g></g></svg>