<svg xmlns="http://www.w3.org/2000/svg" width="24px" height="24px" viewBox="0 0 24 24"><defs><style>.cls-1{fill:#aecbfa;}.cls-2{fill:#669df6;}.cls-3{fill:#4285f4;}.cls-4{fill:#fff;}</style></defs><title>Icon_24px_DataStore_Color</title><g data-name="Product Icons"><polygon class="cls-1" points="7 6 8 5 2 5 3 6 7 6"/><polygon class="cls-2" points="7 6 7 10 8 11 8 5 7 6"/><polygon class="cls-1" points="3 6 2 5 2 11 3 10 3 6"/><polygon class="cls-3" points="3 10 2 11 8 11 7 10 3 10"/><rect class="cls-1" x="3" y="6" width="4" height="4"/><polygon class="cls-3" points="14 6 15 5 9 5 10 6 14 6"/><polygon class="cls-1" points="14 6 14 10 15 11 15 5 14 6"/><polygon class="cls-3" points="10 6 9 5 9 11 10 10 10 6"/><polygon class="cls-1" points="10 10 9 11 15 11 14 10 10 10"/><rect class="cls-4" x="10" y="6" width="4" height="4"/><polygon class="cls-3" points="21 6 22 5 16 5 17 6 21 6"/><polygon class="cls-1" points="21 6 21 10 22 11 22 5 21 6"/><polygon class="cls-3" points="17 6 16 5 16 11 17 10 17 6"/><polygon class="cls-1" points="17 10 16 11 22 11 21 10 17 10"/><rect class="cls-4" x="17" y="6" width="4" height="4"/><polygon class="cls-3" points="7 14 8 13 2 13 3 14 7 14"/><polygon class="cls-1" points="7 14 7 18 8 19 8 13 7 14"/><polygon class="cls-3" points="3 14 2 13 2 19 3 18 3 14"/><polygon class="cls-1" points="3 18 2 19 8 19 7 18 3 18"/><rect class="cls-4" x="3" y="14" width="4" height="4"/><polygon class="cls-1" points="14 14 15 13 9 13 10 14 14 14"/><polygon class="cls-2" points="14 14 14 18 15 19 15 13 14 14"/><polygon class="cls-1" points="10 14 9 13 9 19 10 18 10 14"/><polygon class="cls-3" points="10 18 9 19 15 19 14 18 10 18"/><rect class="cls-1" x="10" y="14" width="4" height="4"/><polygon class="cls-1" points="21 14 22 13 16 13 17 14 21 14"/><polygon class="cls-2" points="21 14 21 18 22 19 22 13 21 14"/><polygon class="cls-1" points="17 14 16 13 16 19 17 18 17 14"/><polygon class="cls-3" points="17 18 16 19 22 19 21 18 17 18"/><rect class="cls-1" x="17" y="14" width="4" height="4"/></g></svg>