<?xml version="1.0" encoding="UTF-8"?>
<svg width="40px" height="40px" viewBox="0 0 40 40" version="1.1" xmlns="http://www.w3.org/2000/svg" xmlns:xlink="http://www.w3.org/1999/xlink">
    <!-- Generator: Sketch 64 (93537) - https://sketch.com -->
    <title>Icon-Architecture/32/Arch_AWS-Data-Sync_32</title>
    <desc>Created with Sketch.</desc>
    <defs>
        <linearGradient x1="0%" y1="100%" x2="100%" y2="0%" id="linearGradient-1">
            <stop stop-color="#055F4E" offset="0%"></stop>
            <stop stop-color="#56C0A7" offset="100%"></stop>
        </linearGradient>
    </defs>
    <g id="Icon-Architecture/32/Arch_AWS-Data-Sync_32" stroke="none" stroke-width="1" fill="none" fill-rule="evenodd">
        <g id="Icon-Architecture-BG/32/Migration-Transfer" fill="url(#linearGradient-1)">
            <rect id="Rectangle" x="0" y="0" width="40" height="40"></rect>
        </g>
        <path d="M29.7839245,16.836413 C29.3356226,14.727837 28.2158868,13.2911805 26.6723019,12.8684564 C25.660566,12.5910122 24.588717,12.8069142 23.7023019,13.4293981 C23.5606792,12.6354033 23.269283,11.7475818 22.6416604,11.0121024 C20.8229811,8.88435759 16.642566,8.34258472 13.8671698,9.87710341 C11.4310566,11.2239689 10.564,14.1235131 10.564,16.3864489 L10.564,16.9483996 C9.07033962,17.4023992 7.51554717,18.3880828 7.51554717,21.3834713 L8.53441509,21.3834713 C8.53441509,18.9863534 9.59913208,18.2256518 11.1997736,17.8200788 C11.4249434,17.7625722 11.5828679,17.5618035 11.5828679,17.331777 L11.5828679,16.3864489 C11.5828679,14.4998283 12.3113585,11.8928617 14.3643774,10.7578627 C16.9390566,9.33432165 20.5081509,10.0768632 21.8642642,11.6638441 C22.4124151,12.3054969 22.7129811,13.2074428 22.806717,14.4998283 C22.822,14.7046326 22.9615849,14.8801791 23.1572075,14.9437391 C23.3579245,15.0083079 23.5708679,14.9457568 23.7043396,14.7893792 C24.4246792,13.9459488 25.4618868,13.5827491 26.401283,13.8410245 C27.6402264,14.1810197 28.5347925,15.4784497 28.854717,17.4023992 C28.8944528,17.6455412 29.1073962,17.8241144 29.3570189,17.8241144 C29.5057736,17.8241144 32.9811321,17.8654788 32.9811321,21.3834713 C32.9811321,25.8124897 29.5536604,25.918423 29.4150943,25.9214497 L26.3421887,25.9214497 L26.3421887,26.9303377 L29.4191698,26.9303377 C29.4650189,26.9293288 34,26.8314667 34,21.3834713 C34,18.0702831 31.4456981,16.9927906 29.7839245,16.836413 L29.7839245,16.836413 Z M20.5825283,21.0243072 C20.430717,20.8992051 20.2177736,20.8719651 20.0404906,20.9567117 C19.8621887,21.0394405 19.7480755,21.2170048 19.7480755,21.4127291 L19.7480755,22.8867145 L17.6981132,22.8867145 L17.6981132,23.8956025 L20.2575094,23.8956025 C20.5397358,23.8956025 20.7669434,23.6696116 20.7669434,23.3911585 L20.7669434,22.4841682 L23.7563019,24.9307216 L20.7669434,27.4055239 L20.7669434,26.3986537 C20.7669434,26.1191917 20.5397358,25.8942097 20.2575094,25.8942097 L12.6037736,25.8942097 L12.6037736,25.3897657 C12.6037736,25.2031214 12.4998491,25.0316104 12.3337736,24.9438372 C12.1656604,24.8560639 11.9639245,24.8661528 11.8090566,24.9710771 L7.22415094,28.026999 C7.08354717,28.1208255 7,28.2782121 7,28.4466964 C7,28.6141718 7.08558491,28.7715583 7.22516981,28.864376 L11.8345283,31.9152534 C11.9201132,31.9717511 12.0179245,32 12.1177736,32 C12.2003019,32 12.2828302,31.9808311 12.3572075,31.9404756 C12.5243019,31.8527023 12.6272075,31.6822003 12.6272075,31.495556 L12.6272075,30.9588276 L14.6415094,30.9588276 L14.6415094,29.9499395 L12.1177736,29.9499395 C11.836566,29.9499395 11.6083396,30.1749216 11.6083396,30.4543835 L11.6083396,30.5522457 L8.42335849,28.4436697 L11.5849057,26.3371115 L11.5849057,26.3986537 C11.5849057,26.6771068 11.8121132,26.9030977 12.0943396,26.9030977 L19.7480755,26.9030977 L19.7480755,28.4840252 C19.7480755,28.6807584 19.8632075,28.8583227 20.0415094,28.9420604 C20.2198113,29.0237803 20.4317358,28.9975492 20.584566,28.8714382 L24.8801132,25.315108 C24.9962642,25.2192636 25.0624906,25.0760015 25.0624906,24.9266861 C25.0624906,24.7773706 24.9942264,24.6351174 24.8780755,24.5392731 L20.5825283,21.0243072 Z M15.6603774,30.9497476 L17.6981132,30.9497476 L17.6981132,29.9408595 L15.6603774,29.9408595 L15.6603774,30.9497476 Z M18.7159623,30.9497476 L24.8291698,30.9558009 L24.8312075,29.9469129 L18.718,29.9408595 L18.7159623,30.9497476 Z M7.50943396,23.8976203 L13.6226415,23.8976203 L13.6226415,22.8887323 L7.50943396,22.8887323 L7.50943396,23.8976203 Z M14.6415094,23.8976203 L15.6603774,23.8976203 L15.6603774,22.8887323 L14.6415094,22.8887323 L14.6415094,23.8976203 Z" id="AWS-Data-Sync_Icon_32_Squid" fill="#FFFFFF"></path>
    </g>
</svg>