<?xml version="1.0" encoding="UTF-8"?>
<svg width="40px" height="40px" viewBox="0 0 40 40" version="1.1" xmlns="http://www.w3.org/2000/svg" xmlns:xlink="http://www.w3.org/1999/xlink">
    <!-- Generator: Sketch 64 (93537) - https://sketch.com -->
    <title>Icon-Architecture/32/Arch_AWS-Transfer-Family_32</title>
    <desc>Created with Sketch.</desc>
    <defs>
        <linearGradient x1="0%" y1="100%" x2="100%" y2="0%" id="linearGradient-1">
            <stop stop-color="#055F4E" offset="0%"></stop>
            <stop stop-color="#56C0A7" offset="100%"></stop>
        </linearGradient>
    </defs>
    <g id="Icon-Architecture/32/Arch_AWS-Transfer-Family_32" stroke="none" stroke-width="1" fill="none" fill-rule="evenodd">
        <g id="Icon-Architecture-BG/32/Migration-Transfer" fill="url(#linearGradient-1)">
            <rect id="Rectangle" x="0" y="0" width="40" height="40"></rect>
        </g>
        <path d="M32.482,13.19125 C32.405,13.37825 32.222,13.50025 32.02,13.50025 L28.997,13.50025 L28.997,17.50025 L30.5,17.50025 C30.776,17.50025 31,17.72325 31,18.00025 L31,32.00025 C31,32.27625 30.776,32.50025 30.5,32.50025 L9.5,32.50025 C8.672,32.50025 8,31.82725 8,31.00025 L8,14.00025 C8,13.72325 8.223,13.50025 8.5,13.50025 L14.621,13.50025 C14.783,13.50025 14.934,13.57825 15.028,13.71025 L16.299,15.50025 L19,15.50025 L19,16.50025 L16.042,16.50025 C15.879,16.50025 15.728,16.42125 15.634,16.28925 L14.363,14.50025 L9,14.50025 L9,31.00025 C9,31.27525 9.224,31.50025 9.5,31.50025 C9.775,31.50025 10,31.27525 10,31.00025 L10,18.00025 C10,17.72325 10.223,17.50025 10.5,17.50025 L19,17.50025 L19,18.50025 L11,18.50025 L11,31.00025 C11,31.17625 10.963,31.34225 10.908,31.50025 L30,31.50025 L30,18.50025 L29.02,18.50025 L28.02,18.50025 L27,18.50025 L27,17.50025 L27.997,17.50025 L27.997,13.00025 C27.997,12.72325 28.22,12.50025 28.497,12.50025 L30.813,12.50025 L26.52,8.20725 L22.227,12.50025 L24.502,12.50025 C24.778,12.50025 25.002,12.72325 25.002,13.00025 L25.002,15.50025 L25.002,18.50025 L25.002,19.50025 L28.02,19.50025 C28.222,19.50025 28.405,19.62125 28.482,19.80825 C28.559,19.99525 28.516,20.21025 28.374,20.35325 L22.874,25.85325 C22.776,25.95125 22.648,26.00025 22.52,26.00025 C22.392,26.00025 22.264,25.95125 22.167,25.85325 L16.667,20.35325 C16.524,20.21025 16.481,19.99525 16.558,19.80825 C16.635,19.62125 16.818,19.50025 17.02,19.50025 L20,19.50025 L20,15.50025 L21,15.50025 L21,20.00025 C21,20.27625 20.776,20.50025 20.5,20.50025 L18.227,20.50025 L22.52,24.79325 L26.813,20.50025 L24.502,20.50025 C24.225,20.50025 24.002,20.27625 24.002,20.00025 L24.002,18.50025 L24.002,15.50025 L24.002,13.50025 L21.02,13.50025 C20.818,13.50025 20.635,13.37825 20.558,13.19125 C20.481,13.00425 20.524,12.78925 20.667,12.64625 L26.167,7.14625 C26.362,6.95125 26.678,6.95125 26.874,7.14625 L32.374,12.64625 C32.516,12.78925 32.559,13.00425 32.482,13.19125" id="AWS-Transfer-Family_Icon-32_Squid" fill="#FFFFFF"></path>
    </g>
</svg>