<?xml version="1.0" encoding="UTF-8"?>
<svg width="40px" height="40px" viewBox="0 0 40 40" version="1.1" xmlns="http://www.w3.org/2000/svg" xmlns:xlink="http://www.w3.org/1999/xlink">
    <!-- Generator: Sketch 64 (93537) - https://sketch.com -->
    <title>Icon-Architecture/32/Arch_AWS-Server-Migration-Service_32</title>
    <desc>Created with Sketch.</desc>
    <defs>
        <linearGradient x1="0%" y1="100%" x2="100%" y2="0%" id="linearGradient-1">
            <stop stop-color="#055F4E" offset="0%"></stop>
            <stop stop-color="#56C0A7" offset="100%"></stop>
        </linearGradient>
    </defs>
    <g id="Icon-Architecture/32/Arch_AWS-Server-Migration-Service_32" stroke="none" stroke-width="1" fill="none" fill-rule="evenodd">
        <g id="Icon-Architecture-BG/32/Migration-Transfer" fill="url(#linearGradient-1)">
            <rect id="Rectangle" x="0" y="0" width="40" height="40"></rect>
        </g>
        <path d="M9.94824535,16 L15.8447361,16 L15.8447361,15 L9.94824535,15 L9.94824535,16 Z M9.94824535,14 L15.8447361,14 L15.8447361,13 L9.94824535,13 L9.94824535,14 Z M9.94824535,12 L15.8447361,12 L15.8447361,11 L9.94824535,11 L9.94824535,12 Z M22.7239752,33 L23.7067237,33 L23.7067237,28 L22.7239752,28 L22.7239752,33 Z M19.7757299,34 L20.7584783,34 L20.7584783,28 L19.7757299,28 L19.7757299,34 Z M16.8274845,33 L17.810233,33 L17.810233,28 L16.8274845,28 L16.8274845,33 Z M7.98274845,26 L17.810233,26 L17.810233,8 L7.98274845,8 L7.98274845,26 Z M18.7929814,7.5 L18.7929814,26.5 C18.7929814,26.776 18.5728458,27 18.3016072,27 L7.49137423,27 C7.22013565,27 7,26.776 7,26.5 L7,7.5 C7,7.224 7.22013565,7 7.49137423,7 L18.3016072,7 C18.5728458,7 18.7929814,7.224 18.7929814,7.5 L18.7929814,7.5 Z M33.9990482,22.125 C34.0275479,23.667 33.4162784,24.891 32.1318261,25.859 C30.7304268,26.922 29.0047206,26.997 28.9310144,27 L22.7239752,27 L22.7239752,26 L28.9143077,26 C28.9103767,26 30.3953096,25.93 31.5461081,25.057 C32.5858559,24.272 33.038903,23.372 33.0162997,22.134 C33.0162997,20.037 31.6797618,18.337 29.9098319,18.172 C29.6405588,18.146 29.4420436,17.906 29.4646468,17.632 C29.4695606,17.576 29.4774226,17.519 29.4872501,17.458 C29.5196808,17.25 29.5560424,17.013 29.2592524,16.364 C29.0912024,15.995 28.8101364,15.692 28.4701054,15.51 C27.4490298,14.964 26.3847132,15.077 25.6279969,15.815 C25.5090843,15.932 25.3400516,15.98 25.1788808,15.941 C25.0177101,15.904 24.8860218,15.787 24.8290224,15.629 C24.0290652,13.458 21.9652934,12 19.693179,12 L19.6902307,12 C19.4209577,11.999 19.200822,11.775 19.200822,11.5 C19.200822,11.224 19.4189922,11 19.6902307,11 L19.693179,11.032 L19.693179,11 C22.1529984,11 24.4044751,12.449 25.4874639,14.666 C26.4898673,14.026 27.7536818,14 28.9270834,14.625 C29.4567849,14.907 29.8911597,15.375 30.1506053,15.942 C30.4257748,16.543 30.4945672,16.939 30.4906362,17.253 C32.5219773,17.703 33.9990482,19.708 33.9990482,22.125 L33.9990482,22.125 Z" id="AWS-Server-Migration-Service_Icon_32_Squid" fill="#FFFFFF"></path>
    </g>
</svg>