<?xml version="1.0" encoding="UTF-8"?>
<svg width="40px" height="40px" viewBox="0 0 40 40" version="1.1" xmlns="http://www.w3.org/2000/svg" xmlns:xlink="http://www.w3.org/1999/xlink">
    <title>Icon-Architecture/32/Arch_AWS-Migration-Evaluator_32</title>
    <defs>
        <linearGradient x1="0%" y1="100%" x2="100%" y2="0%" id="linearGradient-1">
            <stop stop-color="#055F4E" offset="0%"></stop>
            <stop stop-color="#56C0A7" offset="100%"></stop>
        </linearGradient>
    </defs>
    <g id="Icon-Architecture/32/Arch_AWS-Migration-Evaluator_32" stroke="none" stroke-width="1" fill="none" fill-rule="evenodd">
        <g id="Rectangle" fill="url(#linearGradient-1)">
            <rect x="0" y="0" width="40" height="40"></rect>
        </g>
        <g id="Icon-Service/32/AWS-Migration-Evaluator_32" transform="translate(4.000000, 4.000000)" fill="#FFFFFF">
            <path d="M16.438,17.91075 C15.611,17.91075 14.938,17.23775 14.938,16.41075 C14.938,15.58375 15.611,14.91075 16.438,14.91075 C17.265,14.91075 17.938,15.58375 17.938,16.41075 C17.938,17.23775 17.265,17.91075 16.438,17.91075 L16.438,17.91075 Z M16.438,13.91075 C15.059,13.91075 13.938,15.03275 13.938,16.41075 C13.938,17.78875 15.059,18.91075 16.438,18.91075 C17.817,18.91075 18.938,17.78875 18.938,16.41075 C18.938,15.03275 17.817,13.91075 16.438,13.91075 L16.438,13.91075 Z M20.395,19.63975 C20.282,19.68975 20.192,19.78075 20.141,19.89375 L16.486,28.11675 L12.855,19.94675 C12.804,19.83375 12.714,19.74375 12.601,19.69275 L4.732,16.19575 L12.839,12.59275 C12.953,12.54175 13.042,12.45175 13.093,12.33875 L16.486,4.70475 L19.903,12.39175 C19.954,12.50475 20.043,12.59575 20.157,12.64575 L28.144,16.19575 L20.395,19.63975 Z M24.809,24.74675 L19.915,22.86475 L20.977,20.47575 L22.846,19.64475 L24.809,24.74675 Z M8.067,24.62875 L9.991,19.62775 L12.019,20.52875 L12.999,22.73275 L8.067,24.62875 Z M8.253,8.19275 L13.026,10.02775 L12.257,11.75675 L10.008,12.75575 L8.253,8.19275 Z M24.623,8.07475 L22.829,12.73875 L20.739,11.80975 L19.887,9.89475 L24.623,8.07475 Z M29.579,15.73875 L23.744,13.14475 L25.959,7.38375 C26.031,7.19875 25.986,6.98975 25.846,6.84975 C25.706,6.70975 25.497,6.66475 25.313,6.73675 L19.481,8.97975 L16.943,3.27075 C16.783,2.90975 16.189,2.90975 16.029,3.27075 L13.432,9.11275 L7.563,6.85475 C7.379,6.78375 7.169,6.82775 7.03,6.96875 C6.89,7.10775 6.845,7.31675 6.917,7.50175 L9.093,13.16275 L3.297,15.73875 C3.117,15.81875 3,15.99775 3,16.19575 C3,16.39275 3.117,16.57175 3.297,16.65275 L9.076,19.22075 L6.73,25.31975 C6.659,25.50475 6.704,25.71375 6.843,25.85275 C6.939,25.94875 7.067,25.99975 7.197,25.99975 C7.257,25.99975 7.318,25.98875 7.376,25.96675 L13.405,23.64775 L16.029,29.55075 C16.109,29.73175 16.289,29.84775 16.486,29.84775 C16.683,29.84775 16.863,29.73175 16.943,29.55075 L19.508,23.78075 L25.5,26.08475 C25.558,26.10675 25.619,26.11775 25.679,26.11775 C25.809,26.11775 25.937,26.06675 26.033,25.97175 C26.172,25.83175 26.217,25.62275 26.146,25.43775 L23.761,19.23875 L29.579,16.65275 C29.759,16.57175 29.876,16.39275 29.876,16.19575 C29.876,15.99775 29.759,15.81875 29.579,15.73875 L29.579,15.73875 Z" id="AWS-Migration-Evaluator_Icon_32_Squid"></path>
        </g>
    </g>
</svg>