<?xml version="1.0" encoding="UTF-8"?>
<svg width="40px" height="40px" viewBox="0 0 40 40" version="1.1" xmlns="http://www.w3.org/2000/svg" xmlns:xlink="http://www.w3.org/1999/xlink">
    <!-- Generator: Sketch 64 (93537) - https://sketch.com -->
    <title>Icon-Architecture/32/Arch_AWS-CloudEndure-Migration_32</title>
    <desc>Created with Sketch.</desc>
    <defs>
        <linearGradient x1="0%" y1="100%" x2="100%" y2="0%" id="linearGradient-1">
            <stop stop-color="#055F4E" offset="0%"></stop>
            <stop stop-color="#56C0A7" offset="100%"></stop>
        </linearGradient>
    </defs>
    <g id="Icon-Architecture/32/Arch_AWS-CloudEndure-Migration_32" stroke="none" stroke-width="1" fill="none" fill-rule="evenodd">
        <g id="Icon-Architecture-BG/32/Migration-Transfer" fill="url(#linearGradient-1)">
            <rect id="Rectangle" x="0" y="0" width="40" height="40"></rect>
        </g>
        <path d="M29.592,17.7396545 C29.376,15.9096545 28.413,14.5836545 26.974,14.1626545 C25.924,13.8556545 24.821,14.1106545 23.988,14.8086545 C23.55,13.8226545 22.976,12.9706545 22.276,12.2676545 C20.021,10.0056545 16.934,9.3916545 14.02,10.6256545 C11.534,11.6786545 9.659,14.5856545 9.659,17.3866545 C9.659,17.5516545 9.664,17.7146545 9.675,17.8756545 C8.317,18.3236545 6,19.5906545 6,23.0176545 C6,23.2006545 6.008,23.3786545 6.022,23.5496545 C6.231,26.2216545 7.509,27.9816545 9.53,28.3776545 L9.721,27.3956545 C7.605,26.9816545 7.119,24.7596545 7.018,23.4706545 C7.006,23.3246545 7,23.1736545 7,23.0176545 C7,20.0226545 9.089,19.0426545 10.333,18.7256545 C10.576,18.6636545 10.737,18.4306545 10.706,18.1816545 C10.676,17.9226545 10.659,17.6566545 10.659,17.3866545 C10.659,15.0026545 12.307,12.4376545 14.41,11.5466545 C18.048,10.0056545 20.628,12.0316545 21.567,12.9736545 C22.332,13.7416545 22.93,14.7216545 23.341,15.8876545 C23.403,16.0616545 23.556,16.1886545 23.738,16.2156545 C23.926,16.2386545 24.104,16.1666545 24.215,16.0186545 C24.814,15.2086545 25.787,14.8566545 26.694,15.1226545 C27.797,15.4456545 28.519,16.5706545 28.62,18.0816545 C28.582,18.3496545 28.764,18.5996545 29.03,18.6456545 C30.224,18.8506545 33,19.6916545 33,23.0586545 C33,27.0726545 29.116,27.5476545 28.992,27.5596545 L22.638,27.5596545 L22.638,28.4606545 L29.032,28.4646545 C29.082,28.4596545 34,28.0036545 34,23.0586545 C34,19.2246545 31.001,18.0706545 29.592,17.7396545 L29.592,17.7396545 Z M17.638,25.5596545 L18.638,25.5596545 L18.638,21.5596545 L14.638,21.5596545 L14.638,22.5596545 L16.931,22.5596545 L10.284,29.2066545 L10.991,29.9136545 L17.638,23.2666545 L17.638,25.5596545 Z M25.638,21.2666545 L16.991,29.9136545 L16.284,29.2066545 L24.931,20.5596545 L20.638,20.5596545 L20.638,19.5596545 L26.638,19.5596545 L26.638,25.5596545 L25.638,25.5596545 L25.638,21.2666545 Z" id="AWS-CloudEndure-Migration_Icon_32_Squid" fill="#FFFFFF"></path>
    </g>
</svg>