<svg xmlns="http://www.w3.org/2000/svg" width="24px" height="24px" viewBox="0 0 24 24"><defs><style>.cls-1{fill:#669df6;}.cls-2{fill:#4285f4;}</style></defs><title>Icon_24px_VPN-01_Color</title><g data-name="Product Icons"><g ><rect class="cls-1" x="14.73" y="11.28" width="4.18" height="1.38"/><rect class="cls-1" x="17.95" y="6.12" width="1.38" height="11.71"/><rect class="cls-2" x="16.3" y="17.32" width="4.68" height="4.68" rx="0.28"/><rect class="cls-2" x="16.3" y="2" width="4.68" height="4.68" rx="0.28"/><rect class="cls-1" x="6.98" y="11.28" width="4.28" height="1.38"/><rect class="cls-2" x="3.03" y="9.63" width="4.68" height="4.68" rx="0.28"/><path class="cls-2" d="M13,14.17a2.2,2.2,0,1,1,2.2-2.2A2.19,2.19,0,0,1,13,14.17Zm0-3.57A1.38,1.38,0,1,0,14.33,12,1.37,1.37,0,0,0,13,10.6Z"/></g></g></svg>