<svg width="24px" height="24px" viewBox="0 0 24 24" version="1.1" xmlns="http://www.w3.org/2000/svg" xmlns:xlink="http://www.w3.org/1999/xlink">
    <g stroke="none" stroke-width="1" fill="none" fill-rule="evenodd">
        <path d="M12,19.81893 C12.5996808,19.81893 13.0858182,20.3071792 13.0858182,20.909465 C13.0858182,21.5117509 12.5996808,22 12,22 C11.4003192,22 10.9141818,21.5117509 10.9141818,20.909465 C10.9141818,20.3071792 11.4003192,19.81893 12,19.81893 Z M13.3387764,5.45679012 C13.4992262,5.45679012 13.6463052,5.5745679 13.6596761,5.73160494 L13.6596761,5.73160494 L13.9137216,7.45901235 C14.3282171,7.61604938 14.7026,7.83851852 15.0502413,8.10024691 L15.0502413,8.10024691 L16.708223,7.44592593 C16.8686729,7.39358025 17.0424935,7.44592593 17.1227184,7.58987654 L17.1227184,7.58987654 L18.4598004,9.85382716 C18.5400254,9.99777778 18.4999129,10.1679012 18.3795755,10.2725926 L18.3795755,10.2725926 L16.9622686,11.3587654 C17.0023811,11.5681481 17.0157519,11.7775309 17.0157519,12 C17.0157519,12.2224691 16.9890102,12.4318519 16.9622686,12.6412346 L16.9622686,12.6412346 L18.3929463,13.7274074 C18.5132837,13.8320988 18.5533962,14.0022222 18.4731713,14.1461728 L18.4731713,14.1461728 L17.1360893,16.4101235 C17.0424935,16.5540741 16.8686729,16.6064198 16.7215938,16.5540741 L16.7215938,16.5540741 L15.0502413,15.8997531 C14.7159708,16.1614815 14.3282171,16.3708642 13.9270925,16.5409877 L13.9270925,16.5409877 L13.6730469,18.2683951 C13.6463052,18.4254321 13.4992262,18.5432099 13.3387764,18.5432099 L13.3387764,18.5432099 L10.6646124,18.5432099 C10.4907917,18.5432099 10.3570835,18.4254321 10.3303419,18.2683951 L10.3303419,18.2683951 L10.0762963,16.5409877 C9.66180088,16.3839506 9.28741792,16.1614815 8.9397766,15.8997531 L8.9397766,15.8997531 L7.28179492,16.5540741 C7.12134508,16.6064198 6.94752442,16.5540741 6.8672995,16.4101235 L6.8672995,16.4101235 L5.5302175,14.1461728 C5.44999258,14.0022222 5.49010504,13.8320988 5.61044242,13.7274074 L5.61044242,13.7274074 L7.02774934,12.6412346 C7.0010077,12.4318519 6.98763688,12.2224691 6.98763688,12 C6.98763688,11.7775309 7.0010077,11.5681481 7.02774934,11.3587654 L7.02774934,11.3587654 L5.61044242,10.2725926 C5.47673422,10.1679012 5.44999258,9.99777778 5.5302175,9.85382716 L5.5302175,9.85382716 L6.8672995,7.58987654 C6.96089524,7.44592593 7.1347159,7.39358025 7.28179492,7.44592593 L7.28179492,7.44592593 L8.9397766,8.10024691 C9.28741792,7.83851852 9.6751717,7.6291358 10.0762963,7.45901235 L10.0762963,7.45901235 L10.3303419,5.73160494 C10.3570835,5.5745679 10.5041625,5.45679012 10.6646124,5.45679012 L10.6646124,5.45679012 Z M3.55960092,15.4520437 C4.08409448,15.1600514 4.74496386,15.3503758 5.03569653,15.877146 C5.32642592,16.403918 5.13692467,17.0676582 4.61243292,17.3596538 C4.08793935,17.6516461 3.42706998,17.4613217 3.13633731,16.9345515 C2.84560792,16.4077795 3.03510916,15.7440393 3.55960092,15.4520437 Z M18.9643035,15.877146 C19.2550361,15.3503758 19.9159055,15.1600514 20.4403991,15.4520437 C20.9648908,15.7440393 21.1543921,16.4077795 20.8636627,16.9345515 C20.57293,17.4613217 19.9120606,17.6516461 19.3875671,17.3596538 C18.8630753,17.0676582 18.6735741,16.403918 18.9643035,15.877146 Z M12.0016944,10.037037 C10.8919163,10.037037 9.99607138,10.9138272 9.99607138,12 C9.99607138,13.0861728 10.8919163,13.962963 12.0016944,13.962963 C13.1114724,13.962963 14.0073174,13.0861728 14.0073174,12 C14.0073174,10.9138272 13.1114724,10.037037 12.0016944,10.037037 Z M19.3875671,6.64034623 C19.9120606,6.3483539 20.57293,6.53867834 20.8636627,7.0654485 C21.1543921,7.59222047 20.9648908,8.25596067 20.4403991,8.54795628 C19.9159055,8.83994861 19.2550361,8.64962417 18.9643035,8.12285402 C18.6735741,7.59608204 18.8630753,6.93234184 19.3875671,6.64034623 Z M3.13633731,7.0654485 C3.42706998,6.53867834 4.08793935,6.3483539 4.61243292,6.64034623 C5.13692467,6.93234184 5.32642592,7.59608204 5.03569653,8.12285402 C4.74496386,8.64962417 4.08409448,8.83994861 3.55960092,8.54795628 C3.03510916,8.25596067 2.84560792,7.59222047 3.13633731,7.0654485 Z M12,2 C12.5996808,2 13.0858182,2.48824914 13.0858182,3.09053498 C13.0858182,3.69282082 12.5996808,4.18106996 12,4.18106996 C11.4003192,4.18106996 10.9141818,3.69282082 10.9141818,3.09053498 C10.9141818,2.48824914 11.4003192,2 12,2 Z" fill="#4285F4" fill-rule="nonzero"></path>
    </g>
</svg>