<?xml version="1.0" encoding="UTF-8"?>
<svg width="24px" height="24px" viewBox="0 0 24 24" version="1.1" xmlns="http://www.w3.org/2000/svg" xmlns:xlink="http://www.w3.org/1999/xlink">
    <!-- Generator: Sketch 64 (93537) - https://sketch.com -->
    <title>Icon-Architecture/16/Arch_AWS-Device-Farm_16</title>
    <desc>Created with Sketch.</desc>
    <defs>
        <linearGradient x1="0%" y1="100%" x2="100%" y2="0%" id="linearGradient-1">
            <stop stop-color="#BD0816" offset="0%"></stop>
            <stop stop-color="#FF5252" offset="100%"></stop>
        </linearGradient>
    </defs>
    <g id="Icon-Architecture/16/Arch_AWS-Device-Farm_16" stroke="none" stroke-width="1" fill="none" fill-rule="evenodd">
        <g id="Icon-Architecture-BG/16/Mobile" fill="url(#linearGradient-1)">
            <rect id="Rectangle" x="0" y="0" width="24" height="24"></rect>
        </g>
        <path d="M17.9877079,15.4553818 L12,18.9103843 L6.01229212,15.4553818 L6.01229212,8.54436523 L12,5.08936278 L17.9877079,8.54436523 L17.9877079,15.4553818 Z M18.746927,7.8139079 L12.253073,4.06753189 C12.09718,3.97748937 11.90282,3.97748937 11.746927,4.06753189 L5.25307303,7.8139079 C5.09718004,7.90496214 5,8.07189491 5,8.25197996 L5,15.7477671 C5,15.9278522 5.09718004,16.0947849 5.25307303,16.1858392 L11.746927,19.9322152 C11.8248735,19.9777423 11.9129429,20 12,20 C12.0870571,20 12.1751265,19.9777423 12.253073,19.9322152 L18.746927,16.1858392 C18.90282,16.0947849 19,15.9278522 19,15.7477671 L19,8.25197996 C19,8.07189491 18.90282,7.90496214 18.746927,7.8139079 L18.746927,7.8139079 Z M15.562256,9.50346986 C15.7272596,9.50346986 15.8598698,9.63701608 15.8598698,9.8009137 C15.8598698,9.96481133 15.7272596,10.0983575 15.562256,10.0983575 C15.3982646,10.0983575 15.2656544,9.96481133 15.2656544,9.8009137 C15.2656544,9.63701608 15.3982646,9.50346986 15.562256,9.50346986 L15.562256,9.50346986 Z M11.9979754,16.3456899 C11.8339841,16.3456899 11.7003615,16.2131554 11.7003615,16.0492578 C11.7003615,15.8853602 11.8339841,15.751814 11.9979754,15.751814 C12.1609544,15.751814 12.294577,15.8853602 12.294577,16.0492578 C12.294577,16.2131554 12.1609544,16.3456899 11.9979754,16.3456899 L11.9979754,16.3456899 Z M8.37498192,10.0983575 C8.21200289,10.0983575 8.07838033,9.96481133 8.07838033,9.8009137 C8.07838033,9.63701608 8.21200289,9.50346986 8.37498192,9.50346986 C8.53897325,9.50346986 8.67259581,9.63701608 8.67259581,9.8009137 C8.67259581,9.96481133 8.53897325,10.0983575 8.37498192,10.0983575 L8.37498192,10.0983575 Z M11.9696312,11.6715724 C12.1326103,11.6715724 12.2662328,11.8051186 12.2662328,11.9680046 C12.2662328,12.1319022 12.1326103,12.2654484 11.9696312,12.2654484 C11.8056399,12.2654484 11.6720174,12.1319022 11.6720174,11.9680046 C11.6720174,11.8051186 11.8056399,11.6715724 11.9696312,11.6715724 L11.9696312,11.6715724 Z M12.6225597,10.860178 C12.4271873,10.7438309 12.2125813,10.6598587 11.9696312,10.6598587 C11.7256688,10.6598587 11.5110629,10.7438309 11.3146782,10.860178 L9.6626175,9.90714365 C9.66666667,9.86971024 9.68488792,9.83834711 9.68488792,9.8009137 C9.68488792,9.0795618 9.0977585,8.49175611 8.37498192,8.49175611 C7.65321764,8.49175611 7.06608821,9.0795618 7.06608821,9.8009137 C7.06608821,10.5232773 7.65321764,11.1100713 8.37498192,11.1100713 C8.6867679,11.1100713 8.96312364,10.9846188 9.18886479,10.8014986 L10.7164136,11.683713 C10.6951555,11.7778024 10.6597252,11.8678449 10.6597252,11.9680046 C10.6597252,12.5183768 11.00188,12.9857886 11.483731,13.1790259 L11.483731,14.8463302 C11.0160521,15.0466495 10.6880694,15.5100144 10.6880694,16.0492578 C10.6880694,16.7706097 11.2751988,17.3574037 11.9979754,17.3574037 C12.7197397,17.3574037 13.3068691,16.7706097 13.3068691,16.0492578 C13.3068691,15.5039441 12.9707881,15.0375441 12.4960231,14.8412716 L12.4960231,13.1618268 C12.9545915,12.9584723 13.2785249,12.5021894 13.2785249,11.9680046 C13.2785249,11.8678449 13.2430947,11.7778024 13.2208243,11.683713 L14.7493854,10.8014986 C14.9741142,10.9846188 15.25047,11.1100713 15.562256,11.1100713 C16.2850325,11.1100713 16.872162,10.5232773 16.872162,9.8009137 C16.872162,9.0795618 16.2850325,8.49175611 15.562256,8.49175611 C14.8404917,8.49175611 14.2533623,9.0795618 14.2533623,9.8009137 C14.2533623,9.83834711 14.2715835,9.86971024 14.2746204,9.90714365 L12.6225597,10.860178 Z" id="AWS-Device-Farm_Icon_16_Squid" fill="#FFFFFF"></path>
    </g>
</svg>