<?xml version="1.0" encoding="UTF-8"?>
<svg width="24px" height="24px" viewBox="0 0 24 24" version="1.1" xmlns="http://www.w3.org/2000/svg" xmlns:xlink="http://www.w3.org/1999/xlink">
    <title>Icon-Architecture/16/Arch_Amazon-Location-Service_16</title>
    <defs>
        <linearGradient x1="0%" y1="100%" x2="100%" y2="0%" id="linearGradient-1">
            <stop stop-color="#BD0816" offset="0%"></stop>
            <stop stop-color="#FF5252" offset="100%"></stop>
        </linearGradient>
    </defs>
    <g id="Icon-Architecture/16/Arch_Amazon-Location-Service_16" stroke="none" stroke-width="1" fill="none" fill-rule="evenodd">
        <g id="Rectangle" fill="url(#linearGradient-1)">
            <rect x="0" y="0" width="24" height="24"></rect>
        </g>
        <g id="Icon-Service/16/Amazon-Location-Service_16" transform="translate(4.000000, 4.000000)" fill="#FFFFFF">
            <path d="M7.91842311,11.987 L1.55042311,9.369 L3.28342311,8.19 L7.72842311,10.021 C7.78842311,10.046 7.85442311,10.059 7.91842311,10.059 C7.98242311,10.059 8.04842311,10.046 8.10842311,10.021 L12.5514231,8.191 L14.2864231,9.37 L7.91842311,11.987 Z M14.2864231,12.361 L7.91842311,15.002 L1.55442311,12.362 L3.32142311,11.179 L7.72842311,12.99 C7.78942311,13.015 7.85442311,13.028 7.91842311,13.028 C7.98242311,13.028 8.04742311,13.015 8.10842311,12.99 L12.5274231,11.174 L14.2864231,12.361 Z M15.8334231,9.53 C15.8534231,9.347 15.7704231,9.169 15.6174231,9.065 L13.6594231,7.734 L15.5264231,6.965 C15.7064231,6.89 15.8274231,6.718 15.8364231,6.524 C15.8444231,6.329 15.7384231,6.147 15.5654231,6.058 L11.3264231,3.869 L11.3804231,4.23 C11.4184231,4.489 11.3974231,4.75 11.3364231,4.999 L14.1474231,6.451 L7.91842311,9.018 L1.68942311,6.451 L4.50042311,4.999 C4.43842311,4.748 4.41842311,4.486 4.45742311,4.224 L4.51142311,3.868 L0.271423105,6.058 C0.0984231053,6.147 -0.0075768947,6.329 0.000423105298,6.524 C0.0094231053,6.718 0.130423105,6.89 0.310423105,6.965 L2.17642311,7.734 L0.219423105,9.065 C0.0664231053,9.169 -0.0165768947,9.347 0.0034231053,9.53 C0.0224231053,9.714 0.140423105,9.871 0.310423105,9.941 L2.20742311,10.721 L0.222423105,12.051 C0.0684231053,12.154 -0.0155768947,12.333 0.0024231053,12.516 C0.0214231053,12.7 0.139423105,12.858 0.309423105,12.929 L7.72742311,16.005 C7.78842311,16.03 7.85342311,16.043 7.91842311,16.043 C7.98342311,16.043 8.04842311,16.03 8.10942311,16.005 L15.5274231,12.929 C15.6974231,12.859 15.8154231,12.7 15.8334231,12.517 C15.8524231,12.334 15.7694231,12.155 15.6164231,12.052 L13.6394231,10.717 L15.5264231,9.941 C15.6964231,9.871 15.8144231,9.714 15.8334231,9.53 L15.8334231,9.53 Z M8.68642311,2.241 C8.61942311,2.343 8.59242311,2.466 8.61042311,2.588 L8.82242311,4.022 L7.01642311,4.022 L7.23242311,2.582 C7.25142311,2.46 7.22442311,2.336 7.15642311,2.233 L6.34442311,1 L9.49642311,1 L8.68642311,2.241 Z M10.8594231,0.262 C10.7724231,0.101 10.6044231,-1.66977543e-13 10.4204231,-1.66977543e-13 L5.41642311,-1.66977543e-13 C5.23242311,-1.66977543e-13 5.06442311,0.101 4.97642311,0.263 C4.88942311,0.425 4.89742311,0.622 4.99842311,0.775 L6.21542311,2.623 L5.94042311,4.447 C5.91842311,4.591 5.96142311,4.738 6.05642311,4.848 C6.15042311,4.959 6.28942311,5.022 6.43542311,5.022 L7.41842311,5.022 L7.41842311,7.455 L8.41842311,7.455 L8.41842311,5.022 L9.40142311,5.022 C9.54742311,5.022 9.68542311,4.959 9.78042311,4.849 C9.87542311,4.739 9.91742311,4.593 9.89642311,4.449 L9.62742311,2.629 L10.8394231,0.774 C10.9394231,0.62 10.9474231,0.424 10.8594231,0.262 L10.8594231,0.262 Z" id="Fill-7"></path>
        </g>
    </g>
</svg>