<?xml version="1.0" encoding="UTF-8"?>
<svg width="40px" height="40px" viewBox="0 0 40 40" version="1.1" xmlns="http://www.w3.org/2000/svg" xmlns:xlink="http://www.w3.org/1999/xlink">
    <title>Icon-Architecture/32/Arch_RedHat-OpenShift_32</title>
    <defs>
        <linearGradient x1="0%" y1="100%" x2="100%" y2="0%" id="linearGradient-1">
            <stop stop-color="#C8511B" offset="0%"></stop>
            <stop stop-color="#FF9900" offset="100%"></stop>
        </linearGradient>
    </defs>
    <g id="Icon-Architecture/32/Arch_RedHat-OpenShift_32" stroke="none" stroke-width="1" fill="none" fill-rule="evenodd">
        <g id="Rectangle" fill="url(#linearGradient-1)">
            <rect x="0" y="0" width="40" height="40"></rect>
        </g>
        <g id="Icon-Service/32/RedHat-OpenShift_32" transform="translate(4.000000, 4.000000)" fill="#FFFFFF">
            <path d="M25.8144267,9.87611345 C25.5904267,9.51511345 25.3444267,9.17511345 25.0784267,8.85711345 L28.3554267,7.49711345 C28.5554267,7.81211345 28.8514267,8.28511345 29.0844267,8.68611345 L25.8144267,9.87611345 Z M23.2804267,16.1371135 C23.2634267,14.8841135 22.9754267,13.6491135 22.4324267,12.5051135 L25.6714267,11.3261135 C26.1764267,12.4701135 26.5014267,13.6741135 26.6394267,14.9161135 L23.2804267,16.1371135 Z M28.7954267,15.1951135 C28.8424267,17.0591135 28.4574267,18.9161135 27.6684267,20.6051135 C24.8354267,26.6821135 17.5874267,29.3171135 11.5114267,26.4871135 C9.81942674,25.6971135 8.32942674,24.5221135 7.16942674,23.0661135 L10.6524267,21.7971135 C11.3324267,22.4441135 12.1074267,22.9741135 12.9634267,23.3731135 C15.0714267,24.3561135 17.4384267,24.4591135 19.6314267,23.6611135 C21.8234267,22.8631135 23.5714267,21.2621135 24.5544267,19.1541135 C24.9544267,18.2981135 25.2004267,17.3951135 25.3044267,16.4651135 L28.7954267,15.1951135 Z M2.90242674,19.6141135 L6.14142674,18.4351135 C6.46042674,19.6571135 7.03342674,20.7891135 7.82842674,21.7621135 L6.19342674,22.3571135 C6.19342674,22.3571135 6.19342674,22.3581135 6.19242674,22.3581135 L4.46842674,22.9851135 C3.77742674,21.9471135 3.25242674,20.8161135 2.90242674,19.6141135 L2.90242674,19.6141135 Z M9.71942674,14.5721135 C9.72442674,14.9471135 9.75342674,15.3241135 9.80842674,15.7001135 L6.52742674,16.8951135 C6.45042674,16.5251135 6.39142674,16.1581135 6.35042674,15.7981135 L9.71942674,14.5721135 Z M21.2924267,12.4731135 C22.0374267,13.8111135 22.3724267,15.3151135 22.2584267,16.8221135 C22.2464267,16.9911135 22.3204267,17.1551135 22.4564267,17.2571135 C22.5434267,17.3241135 22.6504267,17.3591135 22.7574267,17.3591135 C22.8154267,17.3591135 22.8734267,17.3491135 22.9284267,17.3291135 L24.2434267,16.8511135 C24.1274267,17.4981135 23.9304267,18.1271135 23.6484267,18.7301135 C22.7784267,20.5981135 21.2304267,22.0151135 19.2904267,22.7211135 C17.3504267,23.4271135 15.2544267,23.3371135 13.3854267,22.4661135 C12.5414267,22.0721135 11.7854267,21.5361135 11.1374267,20.8711135 C11.0014267,20.7291135 10.7914267,20.6811135 10.6084267,20.7501135 L8.84742674,21.3911135 C7.93142674,20.3691135 7.30042674,19.1331135 7.02342674,17.7781135 L10.5414267,16.4981135 C10.7714267,16.4141135 10.9074267,16.1741135 10.8614267,15.9331135 C10.7294267,15.2511135 10.6884267,14.5621135 10.7404267,13.8881135 C10.7524267,13.7191135 10.6784267,13.5541135 10.5434267,13.4521135 C10.4084267,13.3491135 10.2294267,13.3231135 10.0704267,13.3801135 L9.00242674,13.7691135 C9.11742674,13.1171135 9.31142674,12.4881135 9.58842674,11.8931135 C11.3874267,8.03411345 15.9894267,6.35711345 19.8524267,8.15711345 C20.6824267,8.54411345 21.4374267,9.08211345 22.0954267,9.75611345 C22.2394267,9.90211345 22.4574267,9.94611345 22.6444267,9.86811345 L24.1034267,9.26211345 C24.4434267,9.63411345 24.7434267,10.0551135 25.0124267,10.5021135 L21.5574267,11.7601135 C21.4194267,11.8101135 21.3114267,11.9181135 21.2594267,12.0551135 C21.2094267,12.1921135 21.2204267,12.3451135 21.2924267,12.4731135 L21.2924267,12.4731135 Z M4.43842674,15.4301135 C4.39342674,13.5671135 4.78042674,11.7091135 5.56942674,10.0181135 C8.40242674,3.94211345 15.6524267,1.30411345 21.7254267,4.13711345 C23.3574267,4.89911345 24.7924267,6.03711345 25.9334267,7.41911345 L22.5674267,8.81711345 C21.8834267,8.16811345 21.1144267,7.64211345 20.2744267,7.25111345 C15.9184267,5.21811345 10.7134267,7.11011345 8.68242674,11.4701135 C8.28942674,12.3141135 8.04542674,13.2181135 7.93942674,14.1561135 L4.43842674,15.4301135 Z M30.2504267,8.74011345 C29.9304267,8.08111345 29.0074267,6.66211345 28.9684267,6.60211345 C28.8364267,6.40011345 28.5774267,6.32011345 28.3584267,6.41311345 L26.9034267,7.01711345 C25.6394267,5.41111345 24.0064267,4.09911345 22.1484267,3.23111345 C15.5754267,0.167113454 7.72842674,3.02011345 4.66342674,9.59511345 C3.70842674,11.6431135 3.29642674,13.9171135 3.47542674,16.1701135 C3.48742674,16.3261135 3.57242674,16.4671135 3.70342674,16.5511135 C3.83542674,16.6361135 3.99842674,16.6551135 4.14442674,16.6011135 L5.38542674,16.1491135 C5.44742674,16.6081135 5.54242674,17.0781135 5.65542674,17.5481135 L2.12842674,18.8321135 C1.88742674,18.9191135 1.75242674,19.1751135 1.81542674,19.4231135 C2.22042674,21.0331135 2.91242674,22.5311135 3.86942674,23.8761135 C3.96442674,24.0111135 4.11842674,24.0871135 4.27642674,24.0871135 C4.33442674,24.0871135 4.39142674,24.0771135 4.44742674,24.0571135 L6.20242674,23.4181135 C7.48442674,25.1141135 9.15742674,26.4921135 11.0894267,27.3931135 C12.8824267,28.2291135 14.7694267,28.6251135 16.6284267,28.6251135 C21.5864267,28.6251135 26.3444267,25.8101135 28.5744267,21.0291135 C29.5304267,18.9831135 29.9394267,16.7101135 29.7574267,14.4551135 C29.7464267,14.2991135 29.6614267,14.1581135 29.5304267,14.0741135 C29.3984267,13.9891135 29.2364267,13.9711135 29.0884267,14.0251135 L27.7534267,14.5111135 L27.6044267,14.5651135 C27.4304267,13.2251135 27.0474267,11.9291135 26.4774267,10.6981135 L29.9704267,9.42711345 C30.1034267,9.37911345 30.2104267,9.27611345 30.2624267,9.14611345 C30.3164267,9.01511345 30.3114267,8.86711345 30.2504267,8.74011345 L30.2504267,8.74011345 Z" id="Fill-3"></path>
        </g>
    </g>
</svg>