<?xml version="1.0" encoding="UTF-8"?>
<svg width="40px" height="40px" viewBox="0 0 40 40" version="1.1" xmlns="http://www.w3.org/2000/svg" xmlns:xlink="http://www.w3.org/1999/xlink">
    <!-- Generator: Sketch 64 (93537) - https://sketch.com -->
    <title>Icon-Architecture/32/Arch_Amazon-Elastic-Container-Registry_32</title>
    <desc>Created with Sketch.</desc>
    <defs>
        <linearGradient x1="0%" y1="100%" x2="100%" y2="0%" id="linearGradient-1">
            <stop stop-color="#C8511B" offset="0%"></stop>
            <stop stop-color="#FF9900" offset="100%"></stop>
        </linearGradient>
    </defs>
    <g id="Icon-Architecture/32/Arch_Amazon-Elastic-Container-Registry_32" stroke="none" stroke-width="1" fill="none" fill-rule="evenodd">
        <g id="Icon-Architecture-BG/32/Containers" fill="url(#linearGradient-1)">
            <rect id="Rectangle" x="0" y="0" width="40" height="40"></rect>
        </g>
        <path d="M19.404,19.0059205 C19.155,19.1466961 19,19.4095429 19,19.6920786 L19,32.8747795 L9,27.190595 L9,14.4075786 L20.253,8.01164047 L30.22,12.8580625 L19.404,19.0059205 Z M31.455,12.8432958 C31.455,12.5656823 31.303,12.3077578 31.031,12.1551688 L20.639,7.10201343 C20.393,6.96616004 20.092,6.96517559 19.85,7.10398232 L8.404,13.6101783 C8.155,13.7499695 8,14.0128163 8,14.2963364 L8,27.3028217 C8,27.5853574 8.155,27.8482041 8.402,27.9879953 L18.794,33.8946644 C18.918,33.9655444 19.057,34 19.196,34 C19.335,34 19.474,33.9655444 19.598,33.8946644 C19.845,33.7538888 20,33.491042 20,33.2094908 L20,19.8043053 L31.058,13.5186249 C31.303,13.3798182 31.455,13.1209092 31.455,12.8432958 L31.455,12.8432958 Z M32,27.5341662 L22.961,32.8235884 L22.961,27.8619864 L27.955,24.8623829 L27.988,24.6310384 C27.997,24.5709872 28,24.5709872 28,24.2904205 L28,18.7440582 L32,16.4699906 L32,27.5341662 Z M32.598,15.4510902 C32.35,15.3093301 32.042,15.3093301 31.794,15.4501057 L27.322,17.9929268 C27.127,18.1051535 27,18.3227158 27,18.5452003 L27,24.2825449 L22.357,27.0704927 C22.112,27.2122528 21.961,27.4731307 21.961,27.752713 L21.961,33.1632219 C21.961,33.4487109 22.111,33.7046665 22.362,33.8483955 C22.485,33.9182911 22.624,33.9537311 22.762,33.9537311 C22.903,33.9537311 23.045,33.9173066 23.173,33.8454422 L32.595,28.3305821 C32.844,28.190791 33,27.9279442 33,27.6444241 L33,16.1352794 C33,15.8497903 32.849,15.5938347 32.598,15.4510902 L32.598,15.4510902 Z" id="Amazon-Elastic-Container-Registry_Icon_32_Squid" fill="#FFFFFF"></path>
    </g>
</svg>