<?xml version="1.0" encoding="UTF-8"?>
<svg width="40px" height="40px" viewBox="0 0 40 40" version="1.1" xmlns="http://www.w3.org/2000/svg" xmlns:xlink="http://www.w3.org/1999/xlink">
    <!-- Generator: Sketch 64 (93537) - https://sketch.com -->
    <title>Icon-Architecture/32/Arch_AWS-Fargate_32</title>
    <desc>Created with Sketch.</desc>
    <defs>
        <linearGradient x1="0%" y1="100%" x2="100%" y2="0%" id="linearGradient-1">
            <stop stop-color="#C8511B" offset="0%"></stop>
            <stop stop-color="#FF9900" offset="100%"></stop>
        </linearGradient>
    </defs>
    <g id="Icon-Architecture/32/Arch_AWS-Fargate_32" stroke="none" stroke-width="1" fill="none" fill-rule="evenodd">
        <g id="Icon-Architecture-BG/32/Containers" fill="url(#linearGradient-1)">
            <rect id="Rectangle" x="0" y="0" width="40" height="40"></rect>
        </g>
        <path d="M26.8732809,29.3426248 L26.8732809,25.9139741 L28.8408644,25.248207 L28.8408644,28.6339372 L26.8732809,29.3426248 Z M23.9292731,28.0080961 L23.9292731,25.248207 L25.8909627,25.912976 L25.8909627,29.3426248 L23.9292731,28.6339372 L23.9292731,28.0080961 Z M22.9469548,32.0865434 L20.9793713,32.7942329 L20.9793713,29.3665804 L22.9469548,28.7008133 L22.9469548,28.9862847 L22.9469548,32.0865434 Z M18.0353635,28.9862847 L18.0353635,28.7008133 L19.997053,29.3655823 L19.997053,32.7942329 L18.0353635,32.0865434 L18.0353635,28.9862847 Z M15.0854617,29.3426248 L15.0854617,25.9139741 L17.0530452,25.248207 L17.0530452,28.0080961 L17.0530452,28.6339372 L15.0854617,29.3426248 Z M12.1414538,25.248207 L14.1031434,25.912976 L14.1031434,29.3426248 L12.1414538,28.6339372 L12.1414538,25.248207 Z M14.5943026,24.0733826 L15.9980354,24.5534935 L14.5943026,25.0286137 L13.1935167,24.5534935 L14.5943026,24.0733826 Z M20.4882122,27.5249908 L21.891945,28.0051017 L20.4882122,28.4802218 L19.0874263,28.0051017 L20.4882122,27.5249908 Z M26.3821218,24.0733826 L27.7858546,24.5534935 L26.3821218,25.0286137 L24.981336,24.5534935 L26.3821218,24.0733826 Z M29.4882122,24.0833641 L26.5383104,23.0732348 C26.4371316,23.0382994 26.3261297,23.0382994 26.2249509,23.0732348 L23.280943,24.0833641 C23.0815324,24.1522366 22.9479371,24.3418854 22.9469548,24.556488 L22.9469548,27.3133826 L20.6444008,26.525841 C20.543222,26.4909057 20.43222,26.4909057 20.3310413,26.525841 L18.0353635,27.3133826 L18.0353635,24.556488 C18.0343811,24.3418854 17.9007859,24.1512384 17.7003929,24.0833641 L14.7504912,23.0732348 C14.6493124,23.0382994 14.5383104,23.0382994 14.4371316,23.0732348 L11.4931238,24.0833641 C11.2937132,24.1522366 11.1601179,24.3418854 11.1591356,24.556488 L11.1591356,28.9862847 C11.1591356,29.1968946 11.2897839,29.3855453 11.4862475,29.456414 L14.4302554,30.5194455 C14.4833006,30.5384104 14.5383104,30.5483919 14.5943026,30.5483919 C14.6502947,30.5483919 14.7053045,30.5384104 14.7583497,30.5194455 L17.0530452,29.692976 L17.0530452,32.4388909 C17.0530452,32.6495009 17.1836935,32.8381516 17.3801572,32.9090203 L20.324165,33.9710536 C20.3772102,33.9900185 20.43222,34 20.4882122,34 C20.5442043,34 20.5992141,33.9900185 20.6522593,33.9710536 L23.6021611,32.9090203 C23.7976424,32.8381516 23.9292731,32.6495009 23.9292731,32.4388909 L23.9292731,29.692976 L26.2180747,30.5194455 C26.2711198,30.5384104 26.3261297,30.5483919 26.3821218,30.5483919 C26.4381139,30.5483919 26.4931238,30.5384104 26.546169,30.5194455 L29.4960707,29.456414 C29.6915521,29.3855453 29.8231827,29.1978928 29.8231827,28.9862847 L29.8231827,24.556488 C29.8222004,24.3418854 29.6886051,24.1512384 29.4882122,24.0833641 L29.4882122,24.0833641 Z M33,17.6063586 C33,20.6826617 26.302554,22.3425878 20,22.3425878 C13.697446,22.3425878 7,20.6826617 7,17.6063586 C7,16.1430684 8.60412574,14.8524584 11.5196464,13.9720887 L11.7996071,14.9283179 C9.44499018,15.64 7.98231827,16.6660998 7.98231827,17.6063586 C7.98231827,19.3750832 12.9174853,21.3444362 20,21.3444362 C27.0825147,21.3444362 32.0176817,19.3750832 32.0176817,17.6063586 C32.0176817,16.8836969 31.154224,16.0971534 29.6483301,15.4503512 L30.0324165,14.5310536 C32.4852652,15.5860998 33,16.785878 33,17.6063586 L33,17.6063586 Z M20.4911591,8.03009242 L25.9390963,10.0443623 L20.4911591,12.0825878 L15.043222,10.0443623 L20.4911591,8.03009242 Z M26.1090373,18.1693161 C25.1011788,18.6284658 23.4076621,19.1624769 20.9823183,19.229353 L20.9823183,12.9629575 L26.8762279,10.7570425 L26.8762279,16.9755268 C26.8762279,17.4875786 26.5746562,17.9567098 26.1090373,18.1693161 L26.1090373,18.1693161 Z M14.1060904,16.9755268 L14.1060904,10.7570425 L20,12.9629575 L20,19.229353 C17.5746562,19.1624769 15.8811395,18.6284658 14.8742633,18.1693161 C14.4076621,17.9567098 14.1060904,17.4875786 14.1060904,16.9755268 L14.1060904,16.9755268 Z M14.4724951,19.0796303 C15.6345776,19.6096488 17.6218075,20.2404806 20.4911591,20.2404806 C23.3605108,20.2404806 25.3477407,19.6096488 26.5108055,19.0796303 C27.3290766,18.7063216 27.8585462,17.8798521 27.8585462,16.9755268 L27.8585462,10.0413678 L27.8585462,10.0403697 C27.8585462,9.83075786 27.7288802,9.64410351 27.5353635,9.5722366 L20.6591356,7.02994455 C20.5510806,6.99001848 20.4302554,6.99001848 20.3231827,7.02994455 L13.4469548,9.5722366 C13.2534381,9.64410351 13.1237721,9.83075786 13.1237721,10.0403697 L13.1237721,10.0413678 L13.1237721,16.9755268 C13.1237721,17.8798521 13.6532417,18.7063216 14.4724951,19.0796303 L14.4724951,19.0796303 Z" id="AWS-Fargate_Icon_32_Squid" fill="#FFFFFF"></path>
    </g>
</svg>