<svg id="Product_Icons" data-name="Product Icons" xmlns="http://www.w3.org/2000/svg" width="24px" height="24px" viewBox="0 0 24 24"><defs><style>.cls-1,.cls-2{fill:#4285f4;}.cls-1,.cls-4{fill-rule:evenodd;}.cls-3,.cls-4{fill:#669df6;}</style></defs><title>Icon_24px_Color_ServiceDiscovery</title><path class="cls-1" d="M18.18,17.24a9,9,0,0,1-1.51,1.32l2.94,2.94a1,1,0,0,0,1.41,0h0a1,1,0,0,0,0-1.41Z"/><polygon class="cls-2" points="14 15.5 9.19 15.5 13.19 7.5 10 7.5 10 6.5 14.81 6.5 10.81 14.5 14 14.5 14 15.5"/><circle class="cls-3" cx="14" cy="15" r="1.25"/><circle class="cls-3" cx="10" cy="15" r="1.25"/><rect class="cls-2" x="8" y="10.5" width="8" height="1"/><path class="cls-4" d="M12,4a7,7,0,1,1-7,7,7,7,0,0,1,7-7m0-2a9,9,0,1,0,9,9,9,9,0,0,0-9-9"/><circle class="cls-3" cx="12" cy="11" r="1.25"/><circle class="cls-3" cx="8" cy="11" r="1.25"/><circle class="cls-3" cx="16" cy="11" r="1.25"/><circle class="cls-3" cx="14" cy="7" r="1.25"/><circle class="cls-3" cx="10" cy="7" r="1.25"/></svg>