<svg xmlns="http://www.w3.org/2000/svg" width="24px" height="24px" viewBox="0 0 24 24"><defs><style>.cls-1{fill:#aecbfa;}.cls-2{fill:#4285f4;}.cls-3{fill:#669df6;}</style></defs><title>Icon_24px_Recommendation_Color</title><g data-name="Product Icons"><g data-name="colored-32/recommendation"><g ><g ><path class="cls-1" d="M12,2H22V12H12Zm4.46,6.76L19.3,5.93l-.8-.8-2,2-1-1-.8.8Z"/></g><g ><path class="cls-2" d="M2,14v8h8V14Zm6,6H4V16H8Z"/></g><polygon id="Shape-2" data-name="Shape" class="cls-2" points="12 12 22 12 22 10.03 14 10 12 12"/><polygon id="Shape-3" data-name="Shape" class="cls-3" points="20 4 20 10.02 22 12 22 2 20 4"/></g></g><polygon class="cls-1" points="10 22 8 20 8 16 10 14 10 22"/><polygon class="cls-3" points="2 22 4 20 8 20 10 22 2 22"/><g data-name="Group"><path id="Shape-4" data-name="Shape" class="cls-2" d="M2,4v8h8V4Zm6,6H4V6H8Z"/></g><polygon class="cls-1" points="10 12 8 10 8 6 10 4 10 12"/><polygon class="cls-3" points="2 12 4 10 8 10 10 12 2 12"/><g data-name="Group"><path id="Shape-5" data-name="Shape" class="cls-2" d="M12,14v8h8V14Zm6,6H14V16h4Z"/></g><polygon class="cls-1" points="20 22 18 20 18 16 20 14 20 22"/><polygon class="cls-3" points="12 22 14 20 18 20 20 22 12 22"/></g></svg>