<?xml version="1.0" encoding="UTF-8"?>
<svg width="24px" height="24px" viewBox="0 0 24 24" version="1.1" xmlns="http://www.w3.org/2000/svg" xmlns:xlink="http://www.w3.org/1999/xlink">
    <!-- Generator: Sketch 64 (93537) - https://sketch.com -->
    <title>Icon-Architecture/16/Arch_Amazon-GameLift_16</title>
    <desc>Created with Sketch.</desc>
    <defs>
        <linearGradient x1="0%" y1="100%" x2="100%" y2="0%" id="linearGradient-1">
            <stop stop-color="#4D27A8" offset="0%"></stop>
            <stop stop-color="#A166FF" offset="100%"></stop>
        </linearGradient>
    </defs>
    <g id="Icon-Architecture/16/Arch_Amazon-GameLift_16" stroke="none" stroke-width="1" fill="none" fill-rule="evenodd">
        <g id="Icon-Architecture-BG/16/Game-Tech" fill="url(#linearGradient-1)">
            <rect id="Rectangle" x="0" y="0" width="24" height="24"></rect>
        </g>
        <path d="M15.9998861,10 L16.9998312,10 L16.9998312,9 L15.9998861,9 L15.9998861,10 Z M7.00038007,10 L6.00043496,10 L6.00043496,9 L7.00038007,9 L7.00038007,8 L8.00032518,8 L8.00032518,9 L9.0002703,9 L9.0002703,10 L8.00032518,10 L8.00032518,11 L7.00038007,11 L7.00038007,10 Z M18.6367413,16.718 C18.4537514,16.907 18.1987654,17 17.859784,17 C16.8558391,17 16.0658825,15.015 15.4889141,13.566 C15.3709206,13.269 15.2559269,12.99 15.1439331,12.726 C15.5609102,12.902 16.018885,13 16.4998586,13 C17.4788049,13 18.3637563,12.592 18.9997222,11.941 L18.9997222,15.662 C18.9997222,15.668 19.0027212,16.339 18.6367413,16.718 L18.6367413,16.718 Z M6.13942733,17 C5.80244583,17 5.54845977,16.909 5.36646976,16.721 C4.9904904,16.338 5.00046434,15.667 5.00046434,15.646 L5.00046434,11.941 C5.63545499,12.592 6.52040642,13 7.50035263,13 C7.98032628,13 8.43830114,12.902 8.85527825,12.726 C8.7432844,12.99 8.62829071,13.269 8.51029719,13.566 C7.93332886,15.015 7.14337222,17 6.13942733,17 L6.13942733,17 Z M7.50035263,7 C8.87827699,7 10.0002154,8.121 10.0002154,9.5 C10.0002154,10.878 8.87827699,12 7.50035263,12 C6.12142832,12 5.00048985,10.878 5.00048985,9.5 C5.00048985,8.121 6.12142832,7 7.50035263,7 L7.50035263,7 Z M14.0579927,12 L9.94121865,12 C10.5921829,11.364 11.0001605,10.479 11.0001605,9.5 C11.0001605,8.96 10.8671678,8.456 10.6481798,8 L13.3510315,8 C13.1320435,8.456 13.0000507,8.96 13.0000507,9.5 C13.0000507,10.479 13.4070284,11.364 14.0579927,12 L14.0579927,12 Z M16.4998586,7 C17.877783,7 18.9997214,8.121 18.9997214,9.5 C18.9997214,10.878 17.877783,12 16.4998586,12 C15.1209343,12 13.9999959,10.878 13.9999959,9.5 C13.9999959,8.121 15.1209343,7 16.4998586,7 L16.4998586,7 Z M19.9996665,15.646 L19.9996665,10 L19.9996665,9.5 C19.9996665,7.57 18.4287528,6 16.4998586,6 C15.5489108,6 14.688958,6.383 14.0579927,7 L9.94121865,7 C9.31025328,6.383 8.45030048,6 7.50035263,6 C5.57045856,6 4.00054474,7.57 4.00054474,9.5 L4.00054474,10 L4.00054474,15.631 C3.9975449,15.742 3.98554556,16.734 4.64450939,17.414 C5.0214887,17.803 5.52446109,18 6.13942733,18 C7.82133501,18 8.71828577,15.747 9.4392462,13.937 C9.5722389,13.604 9.69823198,13.285 9.82222518,13 L14.1769861,13 C14.3009793,13.285 14.4269724,13.604 14.5599651,13.937 C15.2809255,15.747 16.1778763,18 17.859784,18 C18.4747502,18 18.9777226,17.803 19.3547019,17.414 C20.0136658,16.734 20.0016664,15.742 19.9996665,15.646 L19.9996665,15.646 Z" id="Amazon-GameLift_Icon_16_Squid" fill="#FFFFFF"></path>
    </g>
</svg>