<svg width="24px" height="24px" viewBox="0 0 24 24" version="1.1" xmlns="http://www.w3.org/2000/svg" xmlns:xlink="http://www.w3.org/1999/xlink">
    <g stroke="none" stroke-width="1" fill="none" fill-rule="evenodd">
        <path d="M22,2 L22,22 L2,22 L2,2 L22,2 Z M12,6.61538462 C10.2131185,6.61538462 8.69051386,7.74688823 8.10959985,9.33248166 L8.10959985,9.33248166 L7.94899666,9.33277592 C5.93795979,9.33277592 4.30769231,10.9630434 4.30769231,12.9740803 C4.30769231,14.9851171 5.93795979,16.6153846 7.94899666,16.6153846 L7.94899666,16.6153846 L16.0510033,16.6153846 C18.0620402,16.6153846 19.6923077,14.9851171 19.6923077,12.9740803 C19.6923077,10.9630434 18.0620402,9.33277592 16.0510033,9.33277592 L16.0510033,9.33277592 L15.8904002,9.33248166 C15.3094861,7.74688823 13.7868815,6.61538462 12,6.61538462 Z" fill="#4285F4"></path>
    </g>
</svg>