<?xml version="1.0" encoding="UTF-8"?>
<svg width="64px" height="64px" viewBox="0 0 64 64" version="1.1" xmlns="http://www.w3.org/2000/svg" xmlns:xlink="http://www.w3.org/1999/xlink">
    <!-- Generator: Sketch 64 (93537) - https://sketch.com -->
    <title>Icon-Architecture/48/Arch_AWS-Managed-Services_48</title>
    <desc>Created with Sketch.</desc>
    <defs>
        <linearGradient x1="0%" y1="100%" x2="100%" y2="0%" id="linearGradient-1">
            <stop stop-color="#2E27AD" offset="0%"></stop>
            <stop stop-color="#527FFF" offset="100%"></stop>
        </linearGradient>
    </defs>
    <g id="Icon-Architecture/48/Arch_AWS-Managed-Services_48" stroke="none" stroke-width="1" fill="none" fill-rule="evenodd">
        <g id="Icon-Architecture-BG/48/Customer-Enablement" fill="url(#linearGradient-1)">
            <rect id="Rectangle" x="0" y="0" width="64" height="64"></rect>
        </g>
        <g id="Icon-Service/48/AWS-Managed-Services" transform="translate(8.000000, 8.000000)" fill="#FFFFFF">
            <path d="M28.442,38.035 L28.967,39.965 C27.452,40.377 25.438,40.633 23.713,40.633 C16.609,40.633 9.976,36.638 6.814,30.455 L8.595,29.545 C11.419,35.066 17.352,38.633 23.713,38.633 C25.25,38.633 27.106,38.398 28.442,38.035 L28.442,38.035 Z M37.998,24.293 L40.998,21.293 C41.388,20.902 42.021,20.902 42.412,21.293 L45.412,24.293 L43.998,25.707 L42.575,24.285 C42.422,25.717 42.13,27.033 41.642,28.347 L39.767,27.652 C40.135,26.66 40.376,25.66 40.525,24.594 L39.412,25.707 L37.998,24.293 Z M9.41,18.723 L6.41,21.709 C6.215,21.903 5.96,22 5.705,22 C5.45,22 5.194,21.903 5,21.709 L2,18.723 L3.41,17.305 L4.861,18.75 C5.999,9.759 13.858,3 23.705,3 C30.69,3 37.32,7.139 40.595,13.545 L38.814,14.455 C35.878,8.711 29.947,5 23.705,5 C15.135,5 8.254,10.686 6.947,18.353 L8,17.305 L9.41,18.723 Z M23.727,24.948 C21.877,24.948 20.371,23.442 20.371,21.591 C20.371,19.741 21.877,18.235 23.727,18.235 C25.579,18.235 27.085,19.741 27.085,21.591 C27.085,23.442 25.579,24.948 23.727,24.948 L23.727,24.948 Z M23.727,16.235 C20.774,16.235 18.371,18.638 18.371,21.591 C18.371,24.545 20.774,26.948 23.727,26.948 C26.681,26.948 29.085,24.545 29.085,21.591 C29.085,18.638 26.681,16.235 23.727,16.235 L23.727,16.235 Z M28.163,28.63 C27.363,29.136 26.49,29.497 25.568,29.705 C25.091,29.813 24.762,30.25 24.791,30.738 L24.833,31.483 L22.622,31.483 L22.665,30.737 C22.693,30.249 22.364,29.812 21.887,29.704 C20.967,29.496 20.095,29.135 19.295,28.629 C18.881,28.368 18.339,28.441 18.014,28.808 L17.515,29.368 L15.952,27.804 L16.51,27.306 C16.875,26.98 16.951,26.439 16.69,26.026 C16.185,25.225 15.825,24.353 15.618,23.433 C15.51,22.956 15.044,22.635 14.586,22.654 L13.837,22.697 L13.837,20.485 L14.588,20.528 C15.042,20.543 15.511,20.228 15.621,19.751 C15.83,18.832 16.191,17.961 16.696,17.163 C16.957,16.75 16.88,16.208 16.516,15.883 L15.952,15.379 L17.515,13.815 L18.018,14.378 C18.342,14.743 18.883,14.818 19.297,14.559 C20.096,14.056 20.968,13.695 21.887,13.487 C22.364,13.379 22.693,12.943 22.665,12.454 L22.622,11.7 L24.834,11.7 L24.791,12.455 C24.762,12.943 25.091,13.38 25.568,13.488 C26.485,13.696 27.356,14.056 28.156,14.56 C28.566,14.821 29.11,14.745 29.435,14.38 L29.94,13.815 L31.504,15.379 L30.941,15.881 C30.577,16.206 30.501,16.747 30.761,17.16 C31.265,17.959 31.628,18.83 31.836,19.751 C31.944,20.228 32.395,20.543 32.868,20.528 L33.619,20.485 L33.619,22.697 L32.869,22.654 C32.395,22.622 31.944,22.955 31.837,23.433 C31.63,24.351 31.268,25.223 30.763,26.024 C30.503,26.437 30.579,26.978 30.943,27.304 L31.504,27.804 L29.94,29.367 L29.443,28.81 C29.117,28.444 28.575,28.37 28.163,28.63 L28.163,28.63 Z M30.605,31.53 L33.667,28.469 C33.861,28.275 33.967,28.009 33.96,27.734 C33.952,27.458 33.831,27.199 33.626,27.016 L32.88,26.351 C33.157,25.82 33.386,25.267 33.565,24.697 L34.562,24.754 C34.841,24.768 35.106,24.671 35.305,24.483 C35.505,24.294 35.619,24.031 35.619,23.756 L35.619,19.427 C35.619,19.152 35.505,18.889 35.305,18.7 C35.106,18.511 34.842,18.415 34.562,18.428 L33.563,18.485 C33.383,17.915 33.155,17.363 32.879,16.833 L33.626,16.166 C33.831,15.983 33.952,15.723 33.96,15.449 C33.967,15.174 33.861,14.908 33.667,14.713 L30.605,11.652 C30.411,11.457 30.141,11.346 29.87,11.36 C29.594,11.368 29.335,11.488 29.152,11.694 L28.483,12.444 C27.953,12.168 27.402,11.939 26.834,11.76 L26.89,10.757 C26.906,10.482 26.808,10.213 26.619,10.014 C26.43,9.813 26.168,9.7 25.892,9.7 L21.563,9.7 C21.288,9.7 21.025,9.813 20.837,10.014 C20.647,10.213 20.549,10.482 20.565,10.757 L20.622,11.759 C20.052,11.938 19.501,12.166 18.971,12.442 L18.303,11.694 C18.121,11.488 17.861,11.368 17.586,11.36 C17.301,11.348 17.045,11.457 16.85,11.652 L13.789,14.713 C13.594,14.908 13.488,15.174 13.496,15.449 C13.504,15.723 13.625,15.983 13.83,16.166 L14.579,16.835 C14.302,17.365 14.073,17.916 13.893,18.485 L12.893,18.428 C12.621,18.414 12.349,18.511 12.15,18.7 C11.95,18.889 11.837,19.152 11.837,19.427 L11.837,23.756 C11.837,24.031 11.95,24.294 12.15,24.483 C12.349,24.671 12.622,24.769 12.893,24.754 L13.888,24.697 C14.068,25.268 14.296,25.822 14.574,26.353 L13.83,27.015 C13.625,27.199 13.504,27.458 13.496,27.734 C13.488,28.009 13.594,28.275 13.789,28.469 L16.85,31.53 C17.045,31.725 17.326,31.83 17.586,31.823 C17.861,31.815 18.121,31.694 18.303,31.489 L18.966,30.745 C19.498,31.023 20.051,31.252 20.622,31.432 L20.565,32.426 C20.549,32.7 20.647,32.969 20.836,33.169 C21.025,33.369 21.288,33.483 21.563,33.483 L25.892,33.483 C26.168,33.483 26.43,33.369 26.62,33.169 C26.808,32.969 26.906,32.7 26.89,32.426 L26.834,31.434 C27.405,31.254 27.959,31.025 28.491,30.747 L29.152,31.489 C29.335,31.694 29.594,31.815 29.87,31.823 C30.117,31.833 30.411,31.725 30.605,31.53 L30.605,31.53 Z M38.512,37.446 C38.313,37.653 38.045,37.77 37.756,37.776 C37.486,37.768 37.196,37.674 36.989,37.475 C36.781,37.276 36.664,37.008 36.658,36.72 C36.653,36.432 36.759,36.159 36.959,35.952 C37.158,35.744 37.426,35.627 37.714,35.621 L37.736,35.621 C38.015,35.621 38.28,35.727 38.482,35.922 C38.911,36.333 38.923,37.017 38.512,37.446 L38.512,37.446 Z M37.675,33.621 C36.853,33.638 36.087,33.973 35.517,34.566 C34.948,35.159 34.642,35.937 34.659,36.759 C34.674,37.581 35.01,38.347 35.602,38.917 C36.18,39.472 36.935,39.776 37.734,39.776 C37.755,39.776 37.775,39.776 37.796,39.776 C38.618,39.76 39.384,39.424 39.954,38.831 C41.13,37.608 41.091,35.656 39.869,34.48 C39.276,33.91 38.489,33.594 37.675,33.621 L37.675,33.621 Z M42.646,39.488 L41.072,39.172 C40.799,39.117 40.51,39.181 40.285,39.346 L39.419,39.98 C39.194,40.144 39.048,40.394 39.016,40.67 L38.83,42.255 L36.567,42.253 L36.384,40.682 C36.352,40.407 36.209,40.158 35.986,39.993 L35.109,39.345 C34.881,39.176 34.594,39.11 34.318,39.168 L32.758,39.48 L32.061,37.327 L33.524,36.656 C33.778,36.539 33.971,36.322 34.058,36.057 L34.387,35.048 C34.473,34.782 34.445,34.492 34.308,34.248 L33.521,32.848 L35.353,31.519 L36.432,32.691 C36.622,32.896 36.888,33.013 37.168,33.013 L37.173,33.013 L38.264,33.007 C38.542,33.005 38.806,32.889 38.994,32.684 L40.064,31.523 L41.894,32.854 L41.11,34.248 C40.974,34.49 40.945,34.777 41.029,35.042 L41.354,36.062 C41.44,36.33 41.634,36.55 41.89,36.667 L43.346,37.336 L42.646,39.488 Z M44.99,35.89 L43.126,35.034 L43.067,34.849 L44.074,33.059 C44.322,32.617 44.2,32.059 43.79,31.761 L40.52,29.382 C40.109,29.083 39.542,29.138 39.197,29.513 L37.818,31.009 L37.604,31.011 L36.221,29.51 C35.878,29.136 35.306,29.08 34.899,29.378 L31.627,31.752 C31.215,32.05 31.093,32.609 31.341,33.051 L32.349,34.845 L32.292,35.02 L30.419,35.88 C29.958,36.092 29.728,36.615 29.884,37.097 L31.13,40.943 C31.287,41.426 31.778,41.714 32.278,41.616 L34.276,41.216 L34.448,41.343 L34.683,43.367 C34.742,43.871 35.169,44.251 35.675,44.252 L39.718,44.256 L39.719,44.256 C40.226,44.256 40.653,43.876 40.713,43.372 L40.952,41.336 L41.111,41.22 L43.126,41.624 C43.617,41.722 44.115,41.435 44.273,40.953 L45.524,37.109 C45.681,36.626 45.452,36.102 44.99,35.89 L44.99,35.89 Z" id="AWS-Managed-Services_Icon_48_Squid"></path>
        </g>
    </g>
</svg>