<?xml version="1.0" encoding="UTF-8"?>
<svg width="64px" height="64px" viewBox="0 0 64 64" version="1.1" xmlns="http://www.w3.org/2000/svg" xmlns:xlink="http://www.w3.org/1999/xlink">
    <title>Icon-Architecture/48/Arch_AWS-IQ_48</title>
    <defs>
        <linearGradient x1="0%" y1="100%" x2="100%" y2="0%" id="linearGradient-1">
            <stop stop-color="#2E27AD" offset="0%"></stop>
            <stop stop-color="#527FFF" offset="100%"></stop>
        </linearGradient>
    </defs>
    <g id="Icon-Architecture/48/Arch_AWS-IQ_48" stroke="none" stroke-width="1" fill="none" fill-rule="evenodd">
        <g id="Rectangle" fill="url(#linearGradient-1)">
            <rect x="0" y="0" width="64" height="64"></rect>
        </g>
        <g id="Icon-Service/48/AWS-IQ_48" transform="translate(8.000000, 8.000000)" fill="#FFFFFF">
            <path d="M18.057094,30.264 L19.325094,31.812 L11.624094,38.113 L6.61909403,34.463 L7.79709403,32.847 L11.554094,35.587 L18.057094,30.264 Z M8.00009403,9 C8.00009403,6.243 10.244094,4 13.001094,4 C15.758094,4 18.000094,6.243 18.000094,9 C18.000094,11.755 15.762094,13.996 13.008094,14 L12.998094,14 C10.242094,13.998 8.00009403,11.756 8.00009403,9 L8.00009403,9 Z M13.037094,16 C13.072094,15.993 16.248094,15.911 18.850094,17.8 L20.026094,16.182 C19.055094,15.477 18.036094,15.001 17.080094,14.677 C18.845094,13.405 20.000094,11.337 20.000094,9 C20.000094,5.14 16.861094,2 13.001094,2 C9.14109403,2 6.00009403,5.14 6.00009403,9 C6.00009403,11.347 7.16509403,13.423 8.94409403,14.694 C1.97109403,17.099 1.99809403,24.925 2,25.017 L4.00009403,24.986 C3.99609403,24.63 4.00309403,16.254 13.037094,16 L13.037094,16 Z M23.000094,39 L23.000094,27.881 L22.807094,27.769 C25.074094,26.028 28.065094,25 31.000094,25 C33.303094,25 35.297094,25.62 37.466094,27.01 C41.126094,29.353 43.662094,34.082 43.969094,39 L23.000094,39 Z M4.00009403,38.881 L4.00009403,29.038 L12.500094,24 L21.000094,29.038 L21.000094,38.881 L12.500094,44 L4.00009403,38.881 Z M24.000094,15.912 C24.000094,12.081 27.140094,8.965 30.999094,8.965 C34.858094,8.965 37.997094,12.081 37.997094,15.912 C37.997094,19.743 34.858094,22.86 30.999094,22.86 C27.140094,22.86 24.000094,19.743 24.000094,15.912 L24.000094,15.912 Z M46.000094,40 C46.000094,34.078 43.004094,28.18 38.544094,25.326 C37.473094,24.639 36.415094,24.12 35.344094,23.743 C38.116094,22.216 39.997094,19.28 39.997094,15.912 C39.997094,10.979 35.961094,6.965 30.999094,6.965 C26.037094,6.965 22.000094,10.979 22.000094,15.912 C22.000094,19.234 23.834094,22.133 26.545094,23.677 C24.467094,24.3 22.528094,25.338 20.953094,26.704 L12.500094,22 L2.00009403,27.881 L2.00009403,40.038 L12.500094,46 L21.326094,41 L46.000094,41 L46.000094,40 Z" id="AWS-IQ_48_Squid"></path>
        </g>
    </g>
</svg>