<?xml version="1.0" encoding="UTF-8"?>
<svg width="64px" height="64px" viewBox="0 0 64 64" version="1.1" xmlns="http://www.w3.org/2000/svg" xmlns:xlink="http://www.w3.org/1999/xlink">
    <title>Icon-Architecture/48/Arch_AWS-Professional-Services_48</title>
    <defs>
        <linearGradient x1="0%" y1="100%" x2="100%" y2="0%" id="linearGradient-1">
            <stop stop-color="#2E27AD" offset="0%"></stop>
            <stop stop-color="#527FFF" offset="100%"></stop>
        </linearGradient>
    </defs>
    <g id="Icon-Architecture/48/Arch_AWS-Professional-Services_48" stroke="none" stroke-width="1" fill="none" fill-rule="evenodd">
        <g id="Rectangle" fill="url(#linearGradient-1)">
            <rect x="0" y="0" width="64" height="64"></rect>
        </g>
        <g id="Icon-Service/48/AWS-Professional-Services_48" transform="translate(8.000000, 8.000000)" fill="#FFFFFF">
            <path d="M39.217,37.354 C38.982,37.584 38.874,37.915 38.93,38.239 L39.761,43.085 L35.409,40.797 C35.263,40.721 35.104,40.683 34.944,40.683 C34.783,40.683 34.624,40.721 34.478,40.797 L30.126,43.085 L30.957,38.239 C31.013,37.915 30.905,37.584 30.67,37.354 L27.15,33.922 L32.015,33.216 C32.341,33.168 32.622,32.964 32.768,32.668 L34.944,28.26 L37.12,32.669 C37.266,32.964 37.547,33.168 37.873,33.216 L42.738,33.922 L39.217,37.354 Z M45.838,32.915 C45.72,32.553 45.407,32.289 45.03,32.234 L38.681,31.312 L35.84,25.558 C35.504,24.874 34.383,24.875 34.047,25.558 L31.207,31.312 L24.857,32.234 C24.48,32.289 24.167,32.553 24.049,32.915 C23.932,33.277 24.029,33.674 24.302,33.94 L28.898,38.419 L27.813,44.745 C27.748,45.12 27.903,45.499 28.21,45.723 C28.52,45.947 28.927,45.976 29.264,45.799 L34.944,42.812 L40.623,45.799 C40.77,45.875 40.93,45.914 41.089,45.914 C41.296,45.914 41.503,45.849 41.677,45.723 C41.985,45.499 42.139,45.12 42.074,44.745 L40.989,38.419 L45.585,33.94 C45.858,33.674 45.955,33.277 45.838,32.915 L45.838,32.915 Z M11.413,13.193 C11.413,8.124 15.538,4 20.608,4 C25.676,4 29.8,8.124 29.8,13.193 C29.8,18.262 25.676,22.386 20.608,22.386 C15.538,22.386 11.413,18.262 11.413,13.193 L11.413,13.193 Z M20.578,24.467 C23.568,24.467 26.497,25.317 29.05,26.926 C29.379,27.134 29.701,27.353 30.016,27.584 L31.199,25.972 C30.848,25.713 30.487,25.468 30.117,25.234 C28.702,24.343 27.183,23.66 25.604,23.195 C29.272,21.355 31.8,17.568 31.8,13.193 C31.8,7.021 26.779,2 20.608,2 C14.435,2 9.413,7.021 9.413,13.193 C9.413,17.57 11.944,21.357 15.613,23.196 C7.776,25.488 2,33.039 2,42 C2,42.552 2.447,43 3,43 L26,43 L26,41 L4.027,41 C4.519,31.796 11.754,24.467 20.578,24.467 L20.578,24.467 Z" id="AWS-Professional-Services_48_Squid"></path>
        </g>
    </g>
</svg>