<?xml version="1.0" encoding="UTF-8"?>
<svg width="64px" height="64px" viewBox="0 0 64 64" version="1.1" xmlns="http://www.w3.org/2000/svg" xmlns:xlink="http://www.w3.org/1999/xlink">
    <!-- Generator: Sketch 64 (93537) - https://sketch.com -->
    <title>Icon-Architecture/48/Arch_AWS-Support_48</title>
    <desc>Created with Sketch.</desc>
    <defs>
        <linearGradient x1="0%" y1="100%" x2="100%" y2="0%" id="linearGradient-1">
            <stop stop-color="#2E27AD" offset="0%"></stop>
            <stop stop-color="#527FFF" offset="100%"></stop>
        </linearGradient>
    </defs>
    <g id="Icon-Architecture/48/Arch_AWS-Support_48" stroke="none" stroke-width="1" fill="none" fill-rule="evenodd">
        <g id="Icon-Architecture-BG/48/Customer-Enablement" fill="url(#linearGradient-1)">
            <rect id="Rectangle" x="0" y="0" width="64" height="64"></rect>
        </g>
        <path d="M45,46.161 C43.897,46.161 43,45.264 43,44.161 C43,43.058 43.897,42.161 45,42.161 C46.103,42.161 47,43.058 47,44.161 C47,45.264 46.103,46.161 45,46.161 L45,46.161 Z M45,40.161 C42.794,40.161 41,41.955 41,44.161 C41,46.367 42.794,48.161 45,48.161 C47.206,48.161 49,46.367 49,44.161 C49,41.955 47.206,40.161 45,40.161 L45,40.161 Z M52,44.692 L51.729,44.677 C51.277,44.647 50.805,44.977 50.697,45.455 C50.552,46.1 50.299,46.713 49.943,47.275 C49.683,47.689 49.759,48.23 50.123,48.556 L50.325,48.735 L49.574,49.486 L49.397,49.287 C49.071,48.922 48.53,48.845 48.116,49.107 C47.554,49.462 46.941,49.716 46.294,49.862 C45.817,49.97 45.488,50.407 45.517,50.894 L45.531,51.161 L44.469,51.161 L44.483,50.893 C44.512,50.406 44.183,49.97 43.706,49.862 C43.061,49.715 42.448,49.461 41.886,49.106 C41.473,48.846 40.931,48.919 40.605,49.286 L40.426,49.487 L39.675,48.735 L39.875,48.557 C40.239,48.231 40.315,47.69 40.055,47.277 C39.701,46.717 39.448,46.103 39.302,45.455 C39.193,44.977 38.733,44.647 38.27,44.677 L38,44.692 L38,43.63 L38.272,43.645 C38.733,43.669 39.195,43.345 39.305,42.868 C39.45,42.223 39.704,41.612 40.06,41.05 C40.32,40.637 40.244,40.095 39.879,39.769 L39.675,39.587 L40.426,38.836 L40.608,39.04 C40.933,39.406 41.474,39.48 41.888,39.221 C42.449,38.867 43.062,38.613 43.706,38.468 C44.183,38.36 44.512,37.924 44.483,37.435 L44.468,37.161 L45.532,37.161 L45.517,37.436 C45.488,37.924 45.817,38.36 46.293,38.468 C46.938,38.614 47.55,38.868 48.111,39.222 C48.524,39.48 49.065,39.406 49.391,39.041 L49.574,38.836 L50.325,39.587 L50.122,39.769 C49.758,40.094 49.682,40.636 49.942,41.049 C50.297,41.61 50.551,42.222 50.696,42.868 C50.804,43.345 51.277,43.669 51.729,43.645 L52,43.63 L52,44.692 Z M53.687,41.844 C53.487,41.656 53.212,41.558 52.943,41.573 L52.413,41.603 C52.31,41.305 52.189,41.013 52.051,40.729 L52.447,40.375 C52.652,40.192 52.773,39.932 52.781,39.657 C52.789,39.382 52.683,39.116 52.488,38.922 L50.239,36.673 C50.045,36.478 49.77,36.371 49.504,36.381 C49.229,36.389 48.969,36.509 48.786,36.715 L48.431,37.113 C48.146,36.975 47.855,36.854 47.558,36.752 L47.588,36.217 C47.604,35.943 47.506,35.674 47.316,35.474 C47.128,35.274 46.865,35.161 46.59,35.161 L43.41,35.161 C43.135,35.161 42.872,35.274 42.684,35.474 C42.494,35.674 42.396,35.943 42.412,36.218 L42.441,36.75 C42.144,36.853 41.853,36.974 41.568,37.112 L41.214,36.715 C41.031,36.509 40.771,36.389 40.496,36.381 C40.224,36.373 39.955,36.478 39.761,36.673 L37.512,38.922 C37.317,39.116 37.211,39.382 37.219,39.658 C37.227,39.932 37.348,40.192 37.554,40.375 L37.951,40.73 C37.813,41.014 37.691,41.305 37.589,41.603 L37.057,41.573 C36.775,41.557 36.513,41.656 36.313,41.844 C36.113,42.033 36,42.296 36,42.571 L36,45.751 C36,46.026 36.113,46.289 36.313,46.478 C36.513,46.666 36.776,46.761 37.057,46.749 L37.584,46.719 C37.688,47.019 37.809,47.311 37.947,47.596 L37.553,47.948 C37.348,48.131 37.227,48.39 37.219,48.665 C37.211,48.94 37.317,49.206 37.512,49.401 L39.761,51.649 C39.955,51.844 40.221,51.957 40.496,51.942 C40.771,51.934 41.031,51.813 41.214,51.608 L41.565,51.214 C41.85,51.353 42.143,51.474 42.441,51.578 L42.412,52.104 C42.396,52.379 42.494,52.648 42.684,52.848 C42.872,53.048 43.135,53.161 43.41,53.161 L46.59,53.161 C46.865,53.161 47.128,53.048 47.316,52.848 C47.506,52.648 47.604,52.379 47.588,52.104 L47.559,51.579 C47.858,51.476 48.151,51.354 48.437,51.215 L48.785,51.607 C48.969,51.813 49.229,51.934 49.503,51.942 C49.772,51.96 50.045,51.845 50.239,51.649 L52.488,49.401 C52.683,49.206 52.789,48.94 52.781,48.665 C52.773,48.39 52.652,48.131 52.447,47.947 L52.052,47.595 C52.19,47.31 52.312,47.018 52.414,46.719 L52.943,46.749 C53.211,46.76 53.487,46.666 53.687,46.478 C53.887,46.289 54,46.026 54,45.751 L54,42.571 C54,42.296 53.887,42.033 53.687,41.844 L53.687,41.844 Z M24.054,26.564 C24.054,23.577 26.483,21.147 29.471,21.147 C32.458,21.147 34.888,23.577 34.888,26.564 C34.888,29.536 32.481,31.955 29.515,31.979 C29.511,31.979 29.507,31.978 29.503,31.978 C29.489,31.978 29.477,31.981 29.463,31.981 C26.479,31.976 24.054,29.549 24.054,26.564 L24.054,26.564 Z M29.464,33.981 C29.467,33.981 29.469,33.981 29.471,33.981 C29.485,33.981 29.5,33.979 29.515,33.979 C31.647,33.983 33.661,34.968 35.338,36.83 L36.824,35.492 C35.793,34.346 34.617,33.463 33.36,32.868 C35.473,31.558 36.888,29.226 36.888,26.564 C36.888,22.474 33.561,19.147 29.471,19.147 C25.381,19.147 22.054,22.474 22.054,26.564 C22.054,29.229 23.472,31.564 25.588,32.872 C21.606,34.728 18.692,39.339 18.198,45.021 L12,41.675 L12,21.512 L29.5,12.262 L47,21.512 L47,33.161 L49,33.161 L49,20.307 L29.5,10 L10,20.307 L10,42.868 L29.477,53.382 L35.279,50.556 L34.404,48.758 L29.523,51.135 L20.146,46.072 C20.398,39.276 24.423,34.008 29.464,33.981 L29.464,33.981 Z" id="AWS-Support_48_Squid" fill="#FFFFFF"></path>
    </g>
</svg>