<?xml version="1.0" encoding="UTF-8"?>
<svg width="64px" height="64px" viewBox="0 0 64 64" version="1.1" xmlns="http://www.w3.org/2000/svg" xmlns:xlink="http://www.w3.org/1999/xlink">
    <title>Icon-Architecture/48/Arch_AWS-Activate_48</title>
    <defs>
        <linearGradient x1="0%" y1="100%" x2="100%" y2="0%" id="linearGradient-1">
            <stop stop-color="#2E27AD" offset="0%"></stop>
            <stop stop-color="#527FFF" offset="100%"></stop>
        </linearGradient>
    </defs>
    <g id="Icon-Architecture/48/Arch_AWS-Activate_48" stroke="none" stroke-width="1" fill="none" fill-rule="evenodd">
        <g id="Rectangle" fill="url(#linearGradient-1)">
            <rect x="0" y="0" width="64" height="64"></rect>
        </g>
        <g id="Icon-Service/48/AWS-Activate_48" transform="translate(8.000000, 8.000000)" fill="#FFFFFF">
            <path d="M45.834,24.1206 C45.834,32.6476 40.728,39.9916 33.42,43.2956 L33.42,41.0786 C39.591,37.9226 43.834,31.5146 43.834,24.1206 C43.834,15.0906 37.512,7.5236 29.064,5.5736 L28.12,3.3616 C38.144,4.9686 45.834,13.6516 45.834,24.1206 L45.834,24.1206 Z M15.42,41.0816 L15.42,43.2996 C8.109,39.9956 3,32.6506 3,24.1206 C3,13.6546 10.687,4.9726 20.706,3.3626 L19.762,5.5756 C11.318,7.5286 5,15.0926 5,24.1206 C5,31.5166 9.246,37.9266 15.42,41.0816 L15.42,41.0816 Z M17.42,45.9996 L19.42,45.9996 L19.42,30.9996 L17.42,30.9996 L17.42,45.9996 Z M29.42,45.9996 L31.42,45.9996 L31.42,30.9996 L29.42,30.9996 L29.42,45.9996 Z M23.42,42.9996 L25.42,42.9996 L25.42,25.9996 L23.42,25.9996 L23.42,42.9996 Z M24.522,5.4246 L32.246,23.4936 L25.133,18.0686 C24.816,17.8266 24.369,17.8046 24.021,18.0006 C23.98,18.0236 23.941,18.0496 23.904,18.0776 L16.799,23.4946 L24.522,5.4246 Z M13.773,27.3786 C13.954,27.5196 14.171,27.5896 14.388,27.5896 C14.602,27.5896 14.814,27.5216 14.994,27.3856 L24.524,20.1196 L34.051,27.3846 C34.414,27.6606 34.913,27.6586 35.271,27.3786 C35.63,27.0996 35.755,26.6146 35.577,26.1966 L25.494,2.6066 C25.336,2.2386 24.975,1.9996 24.574,1.9996 L24.472,1.9996 C24.071,1.9996 23.71,2.2386 23.552,2.6066 L13.468,26.1966 C13.29,26.6146 13.415,27.0996 13.773,27.3786 L13.773,27.3786 Z" id="AWS-Activate_48_Squid"></path>
        </g>
    </g>
</svg>