<?xml version="1.0" encoding="UTF-8"?>
<svg width="64px" height="64px" viewBox="0 0 64 64" version="1.1" xmlns="http://www.w3.org/2000/svg" xmlns:xlink="http://www.w3.org/1999/xlink">
    <!-- Generator: Sketch 64 (93537) - https://sketch.com -->
    <title>Icon-Architecture/48/Arch_Amazon-Fraud-Detector_48</title>
    <desc>Created with Sketch.</desc>
    <defs>
        <linearGradient x1="0%" y1="100%" x2="100%" y2="0%" id="linearGradient-1">
            <stop stop-color="#055F4E" offset="0%"></stop>
            <stop stop-color="#56C0A7" offset="100%"></stop>
        </linearGradient>
    </defs>
    <g id="Icon-Architecture/48/Arch_Amazon-Fraud-Detector_48" stroke="none" stroke-width="1" fill="none" fill-rule="evenodd">
        <g id="Icon-Architecture-BG/48/Machine-Learning" fill="url(#linearGradient-1)">
            <rect id="Rectangle" x="0" y="0" width="64" height="64"></rect>
        </g>
        <path d="M39.9684068,35 C39.9684068,35.552 39.5218775,36 38.9694599,36 C38.4170422,36 37.970513,35.552 37.970513,35 C37.970513,34.448 38.4170422,34 38.9694599,34 C39.5218775,34 39.9684068,34.448 39.9684068,35 L39.9684068,35 Z M37.970513,33 L39.9684068,33 L39.9684068,27 L37.970513,27 L37.970513,33 Z M49.6462042,23.125 L47.9899503,22.008 L50.4423649,18.36 L52.0996178,19.478 L49.6462042,23.125 Z M36.8197261,19.243 L35.8207793,15.243 L37.7577373,14.757 L38.7566842,18.757 L36.8197261,19.243 Z M44.7503655,19.728 L42.8134075,19.243 L43.8123544,15.243 L45.7493124,15.728 L44.7503655,19.728 Z M51.5761696,45.624 C51.2884729,45.912 50.7460448,46.228 50.4303776,45.914 L45.3307537,40.689 C45.8452113,40.331 46.3287016,39.931 46.7742319,39.492 L51.86986,44.457 C51.9377884,44.525 52.0256957,44.643 51.9957273,44.872 C51.963761,45.116 51.8099232,45.39 51.5761696,45.624 L51.5761696,45.624 Z M30.0748367,31.666 C30.0748367,26.703 34.1075853,22.666 39.0653588,22.666 C44.0231322,22.666 48.0558808,26.703 48.0558808,31.666 C48.0558808,36.628 44.0231322,40.666 39.0653588,40.666 C34.1075853,40.666 30.0748367,36.628 30.0748367,31.666 L30.0748367,31.666 Z M28.7482353,41.124 C28.0289935,40.431 27.0570182,40 25.9831503,40 C25.8792598,40 25.7823619,40.023 25.6804694,40.031 L22.7046066,32.324 L26.6594373,22.967 C26.7673236,22.976 26.8712141,23 26.9820972,23 C28.094924,23 29.1008635,22.541 29.826099,21.804 L32.3923935,22.946 C29.7741537,24.958 28.076943,28.113 28.076943,31.666 C28.076943,34.772 29.3755739,37.576 31.4503866,39.578 L28.7482353,41.124 Z M25.9831503,46 C24.8813118,46 23.9852565,45.103 23.9852565,44 C23.9852565,42.897 24.8813118,42 25.9831503,42 C27.0849887,42 27.9810441,42.897 27.9810441,44 C27.9810441,45.103 27.0849887,46 25.9831503,46 L25.9831503,46 Z M17.2543523,47.699 C17.0495682,47.41 16.8018294,47.159 16.5301158,46.934 L19.6068723,39.653 L22.2341026,42.659 L22.2351015,42.657 C22.0842605,43.079 21.9873627,43.527 21.9873627,44 C21.9873627,44.319 22.0343132,44.625 22.1052384,44.923 L17.2543523,47.699 Z M13.9957876,52 C12.8939491,52 11.9978938,51.103 11.9978938,50 C11.9978938,48.897 12.8939491,48 13.9957876,48 C15.097626,48 15.9936814,48.897 15.9936814,50 C15.9936814,51.103 15.097626,52 13.9957876,52 L13.9957876,52 Z M23.4098631,40.965 L20.4719603,37.605 L21.5857861,34.972 L23.7844682,40.666 C23.6506093,40.754 23.5317346,40.862 23.4098631,40.965 L23.4098631,40.965 Z M16.9906303,33.621 C17.6049827,32.917 17.9915751,32.007 17.9915751,31 C17.9915751,30.003 17.6119753,29.101 17.0076124,28.399 L18.4780623,26.927 L20.5498781,32.29 L19.010501,35.932 L16.9906303,33.621 Z M11.9978938,31 C11.9978938,29.897 12.8939491,29 13.9957876,29 C15.097626,29 15.9936814,29.897 15.9936814,31 C15.9936814,32.103 15.097626,33 13.9957876,33 C12.8939491,33 11.9978938,32.103 11.9978938,31 L11.9978938,31 Z M16.7438905,16.89 C16.9526704,16.69 17.1454671,16.475 17.3082955,16.234 L23.0092854,18.771 C23.0052896,18.849 22.9863096,18.922 22.9863096,19 C22.9863096,19.182 23.016278,19.356 23.0402527,19.532 L19.235264,23.341 L16.7438905,16.89 Z M11.9978938,14 C11.9978938,12.897 12.8939491,12 13.9957876,12 C15.097626,12 15.9936814,12.897 15.9936814,14 C15.9936814,15.103 15.097626,16 13.9957876,16 C12.8939491,16 11.9978938,15.103 11.9978938,14 L11.9978938,14 Z M24.7614382,22.323 L21.6686986,29.642 L20.0224342,25.381 L23.8933534,21.506 C24.145088,21.816 24.4287889,22.1 24.7614382,22.323 L24.7614382,22.323 Z M26.9820972,17 C28.0839356,17 28.9799909,17.897 28.9799909,19 C28.9799909,20.103 28.0839356,21 26.9820972,21 C25.8802587,21 24.9842034,20.103 24.9842034,19 C24.9842034,17.897 25.8802587,17 26.9820972,17 L26.9820972,17 Z M53.2723815,43.032 L48.0638724,37.958 C49.3135549,36.173 50.0537746,34.006 50.0537746,31.666 C50.0537746,25.6 45.1239717,20.666 39.0653588,20.666 C37.425088,20.666 35.8737234,21.037 34.4751978,21.685 L30.8180532,20.057 C30.9119542,19.718 30.9778847,19.368 30.9778847,19 C30.9778847,16.794 29.185774,15 26.9820972,15 C25.5685873,15 24.3318911,15.743 23.6206409,16.855 L17.9576109,14.335 C17.9676004,14.223 17.9915751,14.115 17.9915751,14 C17.9915751,11.794 16.1994644,10 13.9957876,10 C11.7921107,10 10,11.794 10,14 C10,16.206 11.7921107,18 13.9957876,18 C14.3364285,18 14.6620851,17.944 14.9777524,17.863 L17.6908921,24.887 L15.3333775,27.247 C14.9128208,27.097 14.4672905,27 13.9957876,27 C11.7921107,27 10,28.794 10,31 C10,33.206 11.7921107,35 13.9957876,35 C14.4642937,35 14.9078261,34.904 15.3253859,34.755 L18.144414,37.98 L14.7240199,46.074 C14.4872694,46.03 14.2455243,46 13.9957876,46 C11.7921107,46 10,47.794 10,50 C10,52.206 11.7921107,54 13.9957876,54 C16.1994644,54 17.9915751,52.206 17.9915751,50 C17.9915751,49.864 17.9646036,49.735 17.9516173,49.603 L23.0452475,46.689 C23.7764766,47.489 24.8173792,48 25.9831503,48 C28.1868271,48 29.9789378,46.206 29.9789378,44 C29.9789378,43.592 29.8990221,43.205 29.7861411,42.833 L33.1396058,40.915 C34.8518008,42.018 36.8826598,42.666 39.0653588,42.666 C40.6556822,42.666 42.165091,42.318 43.5306514,41.707 L49.0098751,47.32 C49.4903685,47.801 50.1067188,48.037 50.7510395,48.037 C51.5192297,48.037 52.3283766,47.7 52.9886805,47.039 C53.5341055,46.492 53.8857348,45.817 53.9756401,45.136 C54.0825274,44.339 53.8357875,43.595 53.2723815,43.032 L53.2723815,43.032 Z M39.0653588,37.666 C35.7039025,37.666 33.0716774,35.03 33.0716774,31.666 C33.0716774,28.301 35.7039025,25.666 39.0653588,25.666 C42.4258161,25.666 45.0590401,28.301 45.0590401,31.666 C45.0590401,35.03 42.4258161,37.666 39.0653588,37.666 L39.0653588,37.666 Z M39.0653588,23.666 C34.5830841,23.666 31.0737836,27.18 31.0737836,31.666 C31.0737836,36.151 34.5830841,39.666 39.0653588,39.666 C43.5466345,39.666 47.0569339,36.151 47.0569339,31.666 C47.0569339,27.18 43.5466345,23.666 39.0653588,23.666 L39.0653588,23.666 Z" id="Amazon-Fraud-Detector_Icon_48_Squid" fill="#FFFFFF"></path>
    </g>
</svg>