<?xml version="1.0" encoding="UTF-8"?>
<svg width="64px" height="64px" viewBox="0 0 64 64" version="1.1" xmlns="http://www.w3.org/2000/svg" xmlns:xlink="http://www.w3.org/1999/xlink">
    <!-- Generator: Sketch 64 (93537) - https://sketch.com -->
    <title>Icon-Architecture/48/Arch_Amazon-Personalize_48</title>
    <desc>Created with Sketch.</desc>
    <defs>
        <linearGradient x1="0%" y1="100%" x2="100%" y2="0%" id="linearGradient-1">
            <stop stop-color="#055F4E" offset="0%"></stop>
            <stop stop-color="#56C0A7" offset="100%"></stop>
        </linearGradient>
    </defs>
    <g id="Icon-Architecture/48/Arch_Amazon-Personalize_48" stroke="none" stroke-width="1" fill="none" fill-rule="evenodd">
        <g id="Icon-Architecture-BG/48/Machine-Learning" fill="url(#linearGradient-1)">
            <rect id="Rectangle" x="0" y="0" width="64" height="64"></rect>
        </g>
        <path d="M33.9889189,28.5412447 C33.9889189,29.6328715 33.0968888,30.5206224 32,30.5206224 C30.8474215,30.5206224 30.0110811,29.7526238 30.0110811,28.6946465 C30.0110811,27.5584837 30.9409007,26.5618671 32,26.5618671 C33.0968888,26.5618671 33.9889189,27.4496179 33.9889189,28.5412447 L33.9889189,28.5412447 Z M36.831084,36.4359925 L27.1718994,36.4359925 C27.4970877,34.9821396 28.5502202,32.5 31.9552493,32.5 C35.4428186,32.5 36.5068902,34.9663045 36.831084,36.4359925 L36.831084,36.4359925 Z M28.0221622,28.6946465 C28.0221622,29.6348509 28.3751953,30.474107 28.9470095,31.1312604 C26.0531325,32.4366599 25.0994459,35.5492313 25.0397784,37.3940112 C25.0308282,37.6612272 25.1312686,37.9215154 25.318227,38.1145047 C25.5061799,38.3065043 25.7637449,38.4153701 26.0332434,38.4153701 L37.9667566,38.4153701 C38.2362551,38.4153701 38.4938201,38.3065043 38.681773,38.1145047 C38.8687314,37.9215154 38.9691718,37.6612272 38.9602216,37.3940112 C38.9005541,35.5452725 37.932945,32.4257733 34.9893451,31.1243325 C35.5969598,30.429571 35.9778378,29.5329129 35.9778378,28.5412447 C35.9778378,26.3579912 34.1937775,24.5824894 32,24.5824894 C29.8440119,24.5824894 28.0221622,26.4658672 28.0221622,28.6946465 L28.0221622,28.6946465 Z M50.8281006,33.1630915 L50.7883222,33.139339 C50.6809206,33.2868026 50.5377184,33.409524 50.3607046,33.4817713 C50.2373917,33.5322454 50.1081119,33.5569877 49.9798267,33.5569877 C49.7212672,33.5569877 49.4666856,33.4570291 49.2767439,33.2670088 L46.3818724,30.3860247 L47.7880381,28.9866047 L48.7815031,29.9753038 C47.8457167,24.0668615 43.7654496,18.9481909 38.0453189,16.7877002 L38.7503907,14.9359925 C45.1029976,17.3359878 49.6387271,22.999977 50.7216934,29.5497376 L51.3044467,28.6035951 L53,29.6388096 L50.8281006,33.1630915 Z M26.0123597,48.3468974 L25.3082824,50.1976155 C18.9715869,47.8035583 14.443813,42.1583732 13.3489132,35.6284064 L12.6955533,36.6873734 L11,35.6531486 L13.1718994,32.1288667 L13.1957664,32.1427223 C13.2991902,31.9279599 13.4702372,31.7488262 13.7019463,31.6538161 C14.0748686,31.501404 14.5004972,31.5845378 14.7849126,31.8675888 L17.6807785,34.748573 L16.2746129,36.1489827 L15.2811479,35.1602836 C16.2169342,41.0677361 20.2942179,46.1864067 26.0123597,48.3468974 L26.0123597,48.3468974 Z M47.887484,38.5549162 L49.7461287,39.2575953 C47.2490411,45.8043869 41.2295781,50.4054502 34.3499077,51.2625207 L35.7242506,52.5669306 L34.3509021,54 L31.3446512,51.1467271 L31.3516124,51.1388096 C31.253161,51.0457789 31.166643,50.9388925 31.1119477,50.8092432 C30.9578065,50.4390996 31.04333,50.0135334 31.3277454,49.7304824 L34.2226168,46.8494983 L35.6287825,48.2489182 L34.6353175,49.2376174 C40.5722404,48.3063202 45.7155846,44.2466166 47.887484,38.5549162 L47.887484,38.5549162 Z M16.1741725,26.5806711 L14.3155278,25.8779921 C16.8245489,19.2975511 22.8927404,14.6846115 29.8161671,13.8602007 L28.3115499,12.4330694 L29.6848984,11 L32.6911493,13.8532729 L32.6275039,13.9215614 C32.7657338,14.0254787 32.8810911,14.1600764 32.9497088,14.3263441 C33.10385,14.6964878 33.0183265,15.1210643 32.7339111,15.405105 L29.8390396,18.2860891 L28.432874,16.8866691 L29.426339,15.89797 C23.4884217,16.8292672 18.3460719,20.887981 16.1741725,26.5806711 L16.1741725,26.5806711 Z M42.9390538,32.5 C42.9390538,38.5024627 38.0313965,43.3865771 32,43.3865771 C25.9686035,43.3865771 21.0609462,38.5024627 21.0609462,32.5 C21.0609462,26.4975373 25.9686035,21.6134229 32,21.6134229 C38.0313965,21.6134229 42.9390538,26.4975373 42.9390538,32.5 L42.9390538,32.5 Z M19.0720273,32.5 C19.0720273,39.5940895 24.8717147,45.3659547 32,45.3659547 C39.1282853,45.3659547 44.9279727,39.5940895 44.9279727,32.5 C44.9279727,25.4059105 39.1282853,19.6340453 32,19.6340453 C24.8717147,19.6340453 19.0720273,25.4059105 19.0720273,32.5 L19.0720273,32.5 Z" id="Amazon-Personalize-Icon_48_Squid" fill="#FFFFFF"></path>
    </g>
</svg>