<?xml version="1.0" encoding="UTF-8"?>
<svg width="64px" height="64px" viewBox="0 0 64 64" version="1.1" xmlns="http://www.w3.org/2000/svg" xmlns:xlink="http://www.w3.org/1999/xlink">
    <!-- Generator: Sketch 64 (93537) - https://sketch.com -->
    <title>Icon-Architecture/48/Arch_Amazon-Elastic-Inference_48</title>
    <desc>Created with Sketch.</desc>
    <defs>
        <linearGradient x1="0%" y1="100%" x2="100%" y2="0%" id="linearGradient-1">
            <stop stop-color="#055F4E" offset="0%"></stop>
            <stop stop-color="#56C0A7" offset="100%"></stop>
        </linearGradient>
    </defs>
    <g id="Icon-Architecture/48/Arch_Amazon-Elastic-Inference_48" stroke="none" stroke-width="1" fill="none" fill-rule="evenodd">
        <g id="Icon-Architecture-BG/48/Machine-Learning" fill="url(#linearGradient-1)">
            <rect id="Rectangle" x="0" y="0" width="64" height="64"></rect>
        </g>
        <path d="M48.1851322,33.6368457 C48.1851322,32.8012633 47.5121475,32.121279 46.6851662,32.121279 C45.858185,32.121279 45.1852003,32.8012633 45.1852003,33.6368457 C45.1852003,34.4724282 45.858185,35.1524124 46.6851662,35.1524124 C47.5121475,35.1524124 48.1851322,34.4724282 48.1851322,33.6368457 L48.1851322,33.6368457 Z M43.00025,20.776757 C43.00025,19.9411746 42.3282653,19.2611903 41.5002841,19.2611903 C40.6733029,19.2611903 40.0003182,19.9411746 40.0003182,20.776757 C40.0003182,21.6133498 40.6733029,22.2923237 41.5002841,22.2923237 C42.3282653,22.2923237 43.00025,21.6133498 43.00025,20.776757 L43.00025,20.776757 Z M37.0943842,29.4417571 C37.0943842,30.2773395 37.7673689,30.9573238 38.5943501,30.9573238 C39.4213313,30.9573238 40.094316,30.2773395 40.094316,29.4417571 C40.094316,28.6061746 39.4213313,27.9261904 38.5943501,27.9261904 C37.7673689,27.9261904 37.0943842,28.6061746 37.0943842,29.4417571 L37.0943842,29.4417571 Z M15.7718688,24.9829598 L12.0009545,27.5594232 L11.9999545,30.3066405 L15.3318788,28.2707292 L16.3678553,29.9994856 L11.9999545,32.6689038 L12.0009545,36.5649206 L16.0508625,39.2302973 L20.2367673,36.3971979 L21.3497421,38.0764458 L17.0008409,41.018666 L17.0008409,45.9856833 L20.956751,48.5106174 L25.2636531,45.7593586 L26.3316288,47.4668971 L22.8287084,49.7058943 L26.0736347,51.7791896 L30.0005454,49.0430865 L30.0005454,38.7523885 L21.1027477,44.0467682 L20.0867708,42.3058873 L25.3036522,39.2020067 L25.3036522,35.9142373 L21.133747,33.1771238 L16.4158542,35.846542 L15.4398764,34.0834327 L20.0637713,31.4665542 L20.0637713,27.4422194 L15.7718688,24.9829598 Z M54,27.3442128 L54,38.0814977 C54,38.4462441 53.8060044,38.7826999 53.4930115,38.9615368 C53.1790187,39.141384 52.7940274,39.1363321 52.4850344,38.9473915 L48.6091225,36.5891697 C48.0561351,36.9589679 47.3951501,37.173168 46.6851662,37.173168 C44.7552101,37.173168 43.1852458,35.5868749 43.1852458,33.6368457 C43.1852458,31.6868166 44.7552101,30.1005234 46.6851662,30.1005234 C48.6151224,30.1005234 50.1850867,31.6868166 50.1850867,33.6368457 C50.1850867,34.126879 50.085089,34.5946839 49.906093,35.0200529 L52.0000455,36.2941393 L52.0000455,27.8857753 L46.4461717,24.1433359 C46.167178,23.956416 46.0001818,23.6411781 46.0001818,23.3027015 L46.0001818,21.7871348 L44.8552078,21.7871348 C44.4232177,23.2471308 43.0832481,24.3130793 41.5002841,24.3130793 C39.5713279,24.3130793 38.0003636,22.7267862 38.0003636,20.776757 C38.0003636,18.8277382 39.5713279,17.2404347 41.5002841,17.2404347 C43.0832481,17.2404347 44.4232177,18.3073937 44.8552078,19.7663792 L46.0001818,19.7663792 L46.0001818,17.8153397 L36.621395,12.1784419 L32.0005,14.8003723 L32.0005,23.7351432 L36.6593941,26.4965058 C37.2133815,26.1236764 37.8793664,25.9054348 38.5943501,25.9054348 C40.5243063,25.9054348 42.0942706,27.4917279 42.0942706,29.4417571 C42.0942706,31.3917862 40.5243063,32.9780794 38.5943501,32.9780794 C36.664394,32.9780794 35.0944297,31.3917862 35.0944297,29.4417571 C35.0944297,28.9567757 35.1914275,28.4950331 35.3674235,28.0737055 L30.4955342,25.1850354 C30.1885412,25.0041778 30.0005454,24.6717635 30.0005454,24.3130793 L30.0005454,14.7377289 L26.4646258,12.2572514 L22.0007273,14.9529394 L22.0007273,20.2715681 L20.0007727,20.2715681 L20.0007727,16.1603408 L17.0008409,17.9719482 L17.0008409,23.3643346 L21.0667485,25.6932554 L26.0006363,22.7288069 L26.0006363,19.2611903 L28.0005909,19.2611903 L28.0005909,23.3027015 C28.0005909,23.6593649 27.8155951,23.9897584 27.511602,24.1716264 L22.0637258,27.4462609 L22.0637258,31.377641 L26.8486171,34.5189055 C27.1326106,34.7048151 27.3036067,35.0240944 27.3036067,35.3656021 L27.3036067,38.0117816 L30.0005454,36.4073017 L30.0005454,32.8820935 L25.3756506,29.1436956 L26.6256221,27.5664959 L31.6255085,31.6080071 C31.8635031,31.7989685 32.0005,32.0899573 32.0005,32.3961018 L32.0005,39.4687464 L34.0004545,39.4687464 L34.0004545,41.489502 L32.0005,41.489502 L32.0005,49.5725245 C32.0005,49.9049388 31.8395036,50.2161351 31.5685098,50.4050758 L26.6646213,53.8211631 C26.4956251,53.9403877 26.2956296,54 26.0976341,54 C25.9126383,54 25.7266426,53.9484707 25.5636463,53.8433914 L15.4668758,47.3961707 C15.1768823,47.2112715 15.0008863,46.8879506 15.0008863,46.541391 L15.0008863,40.9509707 L10.4559896,37.959242 C10.1719961,37.7733325 10.001,37.4550634 10.001,37.1125454 L10,32.0990507 L10.001,27.0229126 C10.001,26.6874672 10.1659962,26.3742501 10.44099,26.1863198 L15.0008863,23.0703146 L15.0008863,17.399064 C15.0008863,17.043411 15.1858821,16.7140279 15.4888753,16.5311495 L25.9936365,10.1879976 C26.3316288,9.98390131 26.7546192,10 27.0766119,10.2253816 L31.0565214,13.0190762 L36.1454058,10.1304061 C36.4563987,9.9525796 36.8373901,9.95662111 37.147383,10.1425306 L47.5121475,16.3725202 C47.8151406,16.5543882 48.0001364,16.8847817 48.0001364,17.2404347 L48.0001364,22.7621494 L53.5550101,26.5035784 C53.8330038,26.6915087 54,27.0067466 54,27.3442128 L54,27.3442128 Z M51.538056,42.5180666 L50.786073,41.8552588 L44.1382241,48.5712401 C44.0652258,48.563157 43.9932274,48.5490117 43.9172292,48.5490117 C42.8112543,48.5490117 41.9112747,49.4583518 41.9112747,50.57684 C41.9112747,51.6943178 42.8112543,52.6036579 43.9172292,52.6036579 C45.024204,52.6036579 45.9241835,51.6943178 45.9241835,50.57684 C45.9241835,50.4050758 45.8971842,50.2424049 45.8571851,50.0827653 L51.538056,42.5180666 Z M46.5261699,43.420334 L47.2371537,41.5319379 C46.166178,41.1197037 45.0492034,40.9115659 43.9172292,40.9115659 C38.4523534,40.9115659 33.8344583,45.8038152 33.8344583,51.5932801 L35.8344129,51.5932801 C35.8344129,46.979895 39.612327,42.9323215 43.9172292,42.9323215 C44.805209,42.9323215 45.683189,43.0960027 46.5261699,43.420334 L46.5261699,43.420334 Z M52.2630395,45.7169228 C53.4000136,47.4972084 54,49.5290782 54,51.5932801 L52.0000455,51.5932801 C52.0000455,49.919084 51.5100566,48.266106 50.5810777,46.8121723 L52.2630395,45.7169228 Z" id="Amazon-Elastic-Inference_Icon_48_Squid" fill="#FFFFFF"></path>
    </g>
</svg>