<?xml version="1.0" encoding="UTF-8"?>
<svg width="64px" height="64px" viewBox="0 0 64 64" version="1.1" xmlns="http://www.w3.org/2000/svg" xmlns:xlink="http://www.w3.org/1999/xlink">
    <title>Icon-Architecture/48/Arch_CN-Capstone_48</title>
    <defs>
        <linearGradient x1="0%" y1="100%" x2="100%" y2="0%" id="linearGradient-1">
            <stop stop-color="#055F4E" offset="0%"></stop>
            <stop stop-color="#56C0A7" offset="100%"></stop>
        </linearGradient>
    </defs>
    <g id="Icon-Architecture/48/Arch_CN-Capstone_48" stroke="none" stroke-width="1" fill="none" fill-rule="evenodd">
        <g id="Rectangle" fill="url(#linearGradient-1)">
            <rect x="0" y="0" width="64" height="64"></rect>
        </g>
        <g id="Icon-Service/48/CN-Capstone_48" transform="translate(8.000000, 8.000000)" fill="#FFFFFF">
            <path d="M21.023,41.581 C21.051,41.093 20.722,40.656 20.246,40.548 C18.37,40.124 16.589,39.386 14.956,38.354 C14.543,38.094 14.001,38.166 13.675,38.534 L12.06,40.345 L7.655,35.94 L9.465,34.325 C9.83,34 9.906,33.458 9.645,33.045 C8.617,31.416 7.88,29.636 7.457,27.755 C7.348,27.277 6.877,26.948 6.424,26.977 L4,27.115 L4,20.885 L6.431,21.023 C6.877,21.039 7.355,20.723 7.463,20.246 C7.887,18.373 8.626,16.597 9.656,14.966 C9.917,14.552 9.84,14.011 9.476,13.685 L7.655,12.06 L12.06,7.655 L13.684,9.475 C14.008,9.84 14.552,9.914 14.963,9.655 C16.593,8.628 18.37,7.893 20.246,7.469 C20.722,7.361 21.051,6.925 21.023,6.436 L20.884,4 L27.115,4 L26.976,6.438 C26.948,6.927 27.277,7.363 27.753,7.471 C29.627,7.895 31.404,8.631 33.033,9.659 C33.444,9.919 33.987,9.843 34.312,9.479 L35.939,7.655 L40.344,12.06 L38.526,13.682 C38.162,14.007 38.085,14.549 38.346,14.962 C39.377,16.592 40.114,18.37 40.538,20.246 C40.645,20.723 41.101,21.039 41.57,21.023 L44,20.885 L44,27.115 L41.572,26.977 C41.101,26.948 40.647,27.277 40.54,27.755 C40.117,29.63 39.38,31.409 38.351,33.042 C38.09,33.456 38.167,33.997 38.531,34.322 L40.344,35.94 L35.94,40.345 L34.327,38.537 C34,38.17 33.458,38.097 33.046,38.357 C31.416,39.388 29.635,40.126 27.754,40.55 C27.277,40.658 26.948,41.095 26.976,41.583 L27.115,44 L20.884,44 L21.023,41.581 Z M28.901,45.686 C29.089,45.486 29.187,45.217 29.171,44.943 L29.02,42.295 C30.547,41.878 32.01,41.272 33.385,40.486 L35.152,42.466 C35.335,42.672 35.594,42.792 35.87,42.8 C36.147,42.823 36.411,42.703 36.605,42.508 L42.507,36.605 C42.702,36.411 42.808,36.145 42.8,35.87 C42.793,35.595 42.671,35.335 42.466,35.152 L40.48,33.38 C41.264,32.004 41.869,30.543 42.285,29.02 L44.943,29.172 C45.21,29.186 45.487,29.089 45.686,28.901 C45.886,28.712 46,28.449 46,28.174 L46,19.826 C46,19.551 45.886,19.288 45.686,19.099 C45.487,18.911 45.211,18.811 44.943,18.828 L42.283,18.979 C41.866,17.456 41.26,15.997 40.476,14.623 L42.466,12.848 C42.671,12.665 42.793,12.406 42.8,12.13 C42.808,11.855 42.702,11.589 42.507,11.395 L36.605,5.493 C36.411,5.298 36.144,5.185 35.87,5.2 C35.594,5.208 35.336,5.329 35.152,5.534 L33.371,7.53 C31.999,6.747 30.541,6.143 29.02,5.727 L29.171,3.057 C29.187,2.782 29.089,2.513 28.9,2.313 C28.711,2.113 28.449,2 28.173,2 L19.826,2 C19.55,2 19.288,2.113 19.099,2.313 C18.91,2.513 18.812,2.782 18.828,3.057 L18.979,5.724 C17.458,6.14 15.999,6.744 14.626,7.526 L12.847,5.534 C12.664,5.329 12.405,5.208 12.129,5.2 C11.861,5.187 11.588,5.298 11.394,5.493 L5.492,11.395 C5.297,11.589 5.191,11.855 5.199,12.13 C5.207,12.405 5.328,12.665 5.533,12.848 L7.527,14.626 C6.742,16 6.136,17.458 5.719,18.979 L3.056,18.828 C2.785,18.81 2.512,18.911 2.313,19.099 C2.113,19.288 2,19.551 2,19.826 L2,28.174 C2,28.449 2.113,28.712 2.313,28.901 C2.512,29.089 2.786,29.187 3.056,29.172 L5.711,29.02 C6.127,30.548 6.733,32.009 7.516,33.384 L5.533,35.152 C5.328,35.335 5.207,35.595 5.199,35.87 C5.191,36.145 5.297,36.411 5.492,36.605 L11.394,42.508 C11.588,42.703 11.858,42.821 12.129,42.8 C12.405,42.792 12.665,42.672 12.847,42.466 L14.617,40.483 C15.994,41.269 17.455,41.875 18.979,42.293 L18.828,44.943 C18.812,45.217 18.91,45.486 19.098,45.686 C19.288,45.887 19.55,46 19.826,46 L28.173,46 C28.449,46 28.711,45.887 28.901,45.686 L28.901,45.686 Z M22.588,28.659 L30.492,20.755 L29.078,19.341 L21.881,26.538 L18.921,23.577 L17.507,24.991 L21.174,28.659 C21.362,28.846 21.616,28.952 21.881,28.952 C22.147,28.952 22.401,28.846 22.588,28.659 L22.588,28.659 Z M39.529,23.151 L36.98,24.512 C37.246,17.861 32.381,11.974 25.658,11.109 C20.106,10.395 14.74,13.296 12.301,18.329 L14.1,19.201 C16.165,14.944 20.712,12.493 25.402,13.093 C30.966,13.809 35.024,18.59 34.988,24.065 L33.265,22.365 L31.861,23.789 L35.625,27.503 L40.47,24.916 L39.529,23.151 Z M35.698,29.67 C33.505,34.196 28.944,36.998 24.012,36.998 C23.459,36.998 22.901,36.963 22.341,36.891 C15.618,36.026 10.753,30.139 11.019,23.488 L8.47,24.849 L7.529,23.084 L12.375,20.497 L16.138,24.211 L14.734,25.635 L13.011,23.935 C12.975,29.41 17.033,34.191 22.597,34.907 C27.287,35.508 31.835,33.056 33.899,28.798 L35.698,29.67 Z" id="Fill-3"></path>
        </g>
    </g>
</svg>