<?xml version="1.0" encoding="UTF-8"?>
<svg width="64px" height="64px" viewBox="0 0 64 64" version="1.1" xmlns="http://www.w3.org/2000/svg" xmlns:xlink="http://www.w3.org/1999/xlink">
    <!-- Generator: Sketch 64 (93537) - https://sketch.com -->
    <title>Icon-Architecture/48/Arch_AWS-SageMaker-Ground-Truth_48</title>
    <desc>Created with Sketch.</desc>
    <defs>
        <linearGradient x1="0%" y1="100%" x2="100%" y2="0%" id="linearGradient-1">
            <stop stop-color="#055F4E" offset="0%"></stop>
            <stop stop-color="#56C0A7" offset="100%"></stop>
        </linearGradient>
    </defs>
    <g id="Icon-Architecture/48/Arch_AWS-SageMaker-Ground-Truth_48" stroke="none" stroke-width="1" fill="none" fill-rule="evenodd">
        <g id="Icon-Architecture-BG/48/Machine-Learning" fill="url(#linearGradient-1)">
            <rect id="Rectangle" x="0" y="0" width="64" height="64"></rect>
        </g>
        <path d="M33.0005227,38.999957 C33.0005227,39.5509612 32.5525126,39.999957 32.0005,39.999957 C31.4484875,39.999957 31.0004773,39.5509612 31.0004773,38.999957 C31.0004773,38.4489582 31.4484875,37.999957 32.0005,37.999957 C32.5525126,37.999957 33.0005227,38.4489582 33.0005227,38.999957 L33.0005227,38.999957 Z M29.0004318,38.9999516 C29.0004318,40.6539641 30.3464624,41.9999678 32.0005,41.9999678 C33.6545376,41.9999678 35.0005682,40.6539641 35.0005682,38.9999516 C35.0005682,37.3459553 33.6545376,35.9999516 32.0005,35.9999516 C30.3464624,35.9999516 29.0004318,37.3459553 29.0004318,38.9999516 L29.0004318,38.9999516 Z M30.0004546,47.9999785 L34.0005455,47.9999785 L34.0005455,45.9999785 L30.0004546,45.9999785 L30.0004546,47.9999785 Z M29.0004318,48.9999866 L35.0005682,48.9999866 L35.0005682,44.9999758 L29.0004318,44.9999758 L29.0004318,48.9999866 Z M27.0003864,43.9999704 L27.0003864,49.9999893 C27.0003864,50.5519907 27.4473965,50.9999919 28.0004091,50.9999919 L36.0005909,50.9999919 C36.5536035,50.9999919 37.0006137,50.5519907 37.0006137,49.9999893 L37.0006137,43.9999704 C37.0006137,43.4479716 36.5536035,42.9999704 36.0005909,42.9999704 L28.0004091,42.9999704 C27.4473965,42.9999704 27.0003864,43.4479716 27.0003864,43.9999704 L27.0003864,43.9999704 Z M38.0006364,51.9999946 L26.0003636,51.9999946 L26.0003636,39.4599609 L32.0005,34.3169471 L38.0006364,39.4599609 L38.0006364,51.9999946 Z M32.6505148,32.2409415 C32.2775063,31.9189407 31.7234937,31.9189407 31.3504852,32.2409415 L24.3503261,38.2409577 C24.1283211,38.4309582 24.0003182,38.7079589 24.0003182,38.9999597 L24.0003182,52.9999973 C24.0003182,53.5519988 24.4473283,54 25.0003409,54 L39.0006591,54 C39.5536717,54 40.0006818,53.5519988 40.0006818,52.9999973 L40.0006818,38.9999597 C40.0006818,38.7079589 39.8726789,38.4309582 39.6506739,38.2409577 L32.6505148,32.2409415 Z M45.0587968,33.9679408 C44.5067842,33.9679408 44.0587741,33.519945 44.0587741,32.9679408 C44.0587741,32.416942 44.5067842,31.9679408 45.0587968,31.9679408 C45.6098093,31.9679408 46.0588195,32.416942 46.0588195,32.9679408 C46.0588195,33.519945 45.6098093,33.9679408 45.0587968,33.9679408 L45.0587968,33.9679408 Z M42.0007273,20.999906 C41.4487147,20.999906 41.0007046,20.5509101 41.0007046,19.999906 C41.0007046,19.4489072 41.4487147,18.999906 42.0007273,18.999906 C42.5527398,18.999906 43.00075,19.4489072 43.00075,19.999906 C43.00075,20.5509101 42.5527398,20.999906 42.0007273,20.999906 L42.0007273,20.999906 Z M39.0006591,27.9999301 C39.5526717,27.9999301 40.0006818,28.4489313 40.0006818,28.9999301 C40.0006818,29.5509343 39.5526717,29.9999301 39.0006591,29.9999301 C38.4486466,29.9999301 38.0006364,29.5509343 38.0006364,28.9999301 C38.0006364,28.4489313 38.4486466,27.9999301 39.0006591,27.9999301 L39.0006591,27.9999301 Z M53.4469874,26.1049251 L48.0008637,23.3819177 L48.0008637,16.9999006 C48.0008637,16.6658997 47.8338599,16.3538989 47.5558535,16.1678984 L38.555649,10.1678822 C38.2576422,9.9698817 37.8756335,9.94488163 37.5536262,10.1048821 L32.0035001,12.8798895 L26.4473738,10.1048821 C26.1503671,9.95788167 25.8033592,9.96588169 25.5153526,10.1258821 L16.5151481,15.1258956 C16.1971408,15.301896 16.0001364,15.6368969 16.0001364,15.9998979 L16.0001364,23.3819177 L10.5530126,26.1049251 C10.2140049,26.2749255 10,26.6209264 10,26.9999275 L10,36.9999543 C10,37.3509553 10.1850042,37.6769561 10.485011,37.8569566 L15.0001136,40.5659639 L15.0001136,46.9999812 C15.0001136,47.3789822 15.2141185,47.7249831 15.5531262,47.8949836 L21.5532626,50.8949917 L22.4472829,49.1049868 L17.0001591,46.3819795 L17.0001591,39.9999624 C17.0001591,39.6489614 16.8151549,39.3229606 16.5151481,39.1429601 L12.0000455,36.4339528 L12.0000455,32.5659424 L16.5151481,29.8569351 L15.4851247,28.1429305 L12.0000455,30.2339361 L12.0000455,27.6179291 L16.9561581,25.1399225 L21.00025,27.565929 L21.00025,31.3819392 L17.5531717,33.1049439 L18.447192,34.8949487 L22.0032728,33.1169439 L25.5573536,34.8769486 L26.4433737,33.0849438 L23.0002955,31.3799392 L23.0002955,27.565929 L27.5153981,24.8569217 C27.8154049,24.6769212 28.0004091,24.3509203 28.0004091,23.9999194 L28.0004091,18.999906 L26.0003636,18.999906 L26.0003636,23.4339179 L22.0002727,25.8339243 L18.0001818,23.4339179 L18.0001818,16.5878995 L21.00025,14.921895 L21.00025,20.9999113 L23.0002955,20.9999113 L23.0002955,13.810892 L26.0243642,12.1298875 L31.0004773,14.6148942 L31.0014773,23.9999194 C31.0014773,24.3369203 31.1714812,24.6509211 31.4524876,24.8359216 L36.1995954,27.95193 C36.0765926,28.2799309 36.0005909,28.6299318 36.0005909,28.9999328 C36.0005909,30.6539373 37.3466215,31.9999409 39.0006591,31.9999409 C40.6546967,31.9999409 42.0007273,30.6539373 42.0007273,28.9999328 C42.0007273,27.3459284 40.6546967,25.9999248 39.0006591,25.9999248 C38.4526467,25.9999248 37.9456351,26.1579252 37.5036251,26.4159259 L33.0015228,23.4599179 L33.0005227,14.6178942 L37.9286347,12.1538876 L46.0008182,17.534902 L46.0008182,18.999906 L44.8157913,18.999906 C44.4017819,17.8379028 43.3027569,16.9999006 42.0007273,16.9999006 C40.3466897,16.9999006 39.0006591,18.3459042 39.0006591,19.9999086 C39.0006591,21.6539131 40.3466897,22.9999167 42.0007273,22.9999167 C43.3027569,22.9999167 44.4017819,22.1619145 44.8157913,20.9999113 L46.0008182,20.9999113 L46.0008182,23.9999194 C46.0008182,24.3789204 46.2148231,24.7249213 46.5538308,24.8949218 L51.9999545,27.6179291 L51.9999545,35.3669499 L48.0218641,33.3369445 C48.0358645,33.2149442 48.058865,33.0949438 48.058865,32.9679435 C48.058865,31.313939 46.7128344,29.9679354 45.0587968,29.9679354 C43.4037592,29.9679354 42.0587286,31.313939 42.0587286,32.9679435 C42.0587286,34.6229479 43.4037592,35.9679516 45.0587968,35.9679516 C45.8628151,35.9679516 46.5918316,35.6459507 47.1318439,35.1279493 L50.9379304,37.0709545 L47.485852,39.1429601 C47.1858451,39.3229606 47.0008409,39.6489614 47.0008409,39.9999624 L47.0008409,46.3819795 L41.5537171,49.1049868 L42.4477374,50.8949917 L48.4478738,47.8949836 C48.7868815,47.7249831 49.0008864,47.3789822 49.0008864,46.9999812 L49.0008864,40.5659639 L53.514989,37.8569566 C53.8149958,37.6769561 54,37.3509553 54,36.9999543 L54,26.9999275 C54,26.6209264 53.7859951,26.2749255 53.4469874,26.1049251 L53.4469874,26.1049251 Z" id="AWS-SageMaker-Ground-Truth_Icon_48_Squid" fill="#FFFFFF"></path>
    </g>
</svg>