<?xml version="1.0" encoding="UTF-8"?>
<svg width="64px" height="64px" viewBox="0 0 64 64" version="1.1" xmlns="http://www.w3.org/2000/svg" xmlns:xlink="http://www.w3.org/1999/xlink">
    <!-- Generator: Sketch 64 (93537) - https://sketch.com -->
    <title>Icon-Architecture/48/Arch_AWS-TensorFlow-on-AWS_48</title>
    <desc>Created with Sketch.</desc>
    <defs>
        <linearGradient x1="0%" y1="100%" x2="100%" y2="0%" id="linearGradient-1">
            <stop stop-color="#055F4E" offset="0%"></stop>
            <stop stop-color="#56C0A7" offset="100%"></stop>
        </linearGradient>
    </defs>
    <g id="Icon-Architecture/48/Arch_AWS-TensorFlow-on-AWS_48" stroke="none" stroke-width="1" fill="none" fill-rule="evenodd">
        <g id="Icon-Architecture-BG/48/Machine-Learning" fill="url(#linearGradient-1)">
            <rect id="Rectangle" x="0" y="0" width="64" height="64"></rect>
        </g>
        <path d="M43,39.5853575 L43,26.9503005 L33,32.7032882 L33,45.4499463 L43,39.5853575 Z M21,39.5853575 L31,45.4499463 L31,32.7032882 L21,26.9503005 L21,39.5853575 Z M21.985,25.1988666 L32,30.960903 L42.015,25.1988666 L32,19.213628 L21.985,25.1988666 Z M44.504,41.031145 L32.504,48.0690538 C32.349,48.1605466 32.174,48.2057903 32,48.2057903 C31.826,48.2057903 31.651,48.1605466 31.496,48.0690538 L19.496,41.031145 C19.188,40.8511757 19,40.5203939 19,40.162466 L19,25.2159587 C19,24.861047 19.186,24.5322761 19.489,24.3513013 L31.489,17.1796723 C31.804,16.9906542 32.196,16.9906542 32.511,17.1796723 L44.511,24.3513013 C44.814,24.5322761 45,24.861047 45,25.2159587 L45,40.162466 C45,40.5203939 44.812,40.8511757 44.504,41.031145 L44.504,41.031145 Z M53.744,28.9540936 L51.766,29.2527021 C51.917,30.2621393 52,31.4233942 52,32.5223134 C52,41.8244179 45.734,49.8526609 36.764,52.0464776 L37.236,54 C47.106,51.5880081 54,42.7544273 54,32.5223134 C54,31.3258689 53.909,30.0590453 53.744,28.9540936 L53.744,28.9540936 Z M12,32.5223134 C12,31.4163563 12.089,30.3214588 12.263,29.2677833 L10.29,28.938007 C10.098,30.0992619 10,31.3057606 10,32.5223134 C10,42.7544273 16.894,51.5880081 26.764,54 L27.236,52.0464776 C18.266,49.8526609 12,41.8244179 12,32.5223134 L12,32.5223134 Z M16.764,19.6972328 L15.236,18.4002468 C19.72,13.0624957 25.83,10 32,10 C38.292,10 44.405,13.065512 48.772,18.4103009 L47.228,19.6871787 C43.241,14.8089025 37.69,12.0108311 32,12.0108311 C26.421,12.0108311 20.867,14.8129242 16.764,19.6972328 L16.764,19.6972328 Z" id="AWS-TensorFlow-on-AWS_Icon_48_Squid" fill="#FFFFFF"></path>
    </g>
</svg>