<?xml version="1.0" encoding="UTF-8"?>
<svg width="64px" height="64px" viewBox="0 0 64 64" version="1.1" xmlns="http://www.w3.org/2000/svg" xmlns:xlink="http://www.w3.org/1999/xlink">
    <!-- Generator: Sketch 64 (93537) - https://sketch.com -->
    <title>Icon-Architecture/48/Arch_Amazon-Translate_48</title>
    <desc>Created with Sketch.</desc>
    <defs>
        <linearGradient x1="0%" y1="100%" x2="100%" y2="0%" id="linearGradient-1">
            <stop stop-color="#055F4E" offset="0%"></stop>
            <stop stop-color="#56C0A7" offset="100%"></stop>
        </linearGradient>
    </defs>
    <g id="Icon-Architecture/48/Arch_Amazon-Translate_48" stroke="none" stroke-width="1" fill="none" fill-rule="evenodd">
        <g id="Icon-Architecture-BG/48/Machine-Learning" fill="url(#linearGradient-1)">
            <rect id="Rectangle" x="0" y="0" width="64" height="64"></rect>
        </g>
        <path d="M38,12 L34,12 L34,10 L38,10 C40.99,10 43,12.009 43,15 L43,19.149 L45.219,16.375 L46.781,17.625 L42.781,22.625 C42.591,22.862 42.304,23 42,23 C41.696,23 41.409,22.862 41.219,22.625 L37.219,17.625 L38.781,16.375 L41,19.149 L41,15 C41,13.122 39.879,12 38,12 L38,12 Z M26,52 L29,52 L29,54 L26,54 C23.01,54 21,51.991 21,49 L21,44.851 L18.781,47.625 L17.219,46.375 L21.219,41.375 C21.6,40.901 22.4,40.901 22.781,41.375 L26.781,46.375 L25.219,47.625 L23,44.851 L23,49 C23,50.878 24.121,52 26,52 L26,52 Z M43.232,39.001 C42.676,40.443 41.943,41.646 41.005,42.659 C40.036,41.636 39.261,40.409 38.693,39.001 L43.232,39.001 Z M41.789,36.17 C41.97,36.048 42.018,35.876 42.029,35.788 C42.045,35.681 42.015,35.573 41.947,35.489 C41.879,35.405 41.778,35.353 41.67,35.346 L40.58,35.2719144 C40.473,35.27 40.367,35.303 40.289,35.376 C40.211,35.45 40.166,35.553 40.166,35.66 L40.166,37.415 L35.423,37.415 C35.208,37.415 35.034,37.588 35.034,37.804 L35.034,38.612 C35.034,38.827 35.208,39.001 35.423,39.001 L36.954,39.001 C37.646,40.877 38.588,42.48 39.762,43.775 C38.542,44.704 37.047,45.414 35.206,45.942 C35.08,45.978 34.981,46.074 34.942,46.199 C34.902,46.323 34.929,46.459 35.011,46.561 C35.157,46.742 35.366,47.053 35.43,47.21 C35.506,47.396 35.711,47.494 35.904,47.435 C37.947,46.81 39.604,45.982 40.953,44.912 C42.386,46.102 44.066,46.934 46.079,47.452 C46.111,47.46 46.145,47.464 46.176,47.464 C46.318,47.464 46.452,47.386 46.521,47.256 C46.645,47.019 46.883,46.686 47.039,46.529 C47.139,46.429 47.178,46.283 47.138,46.146 C47.098,46.011 46.988,45.907 46.851,45.875 C45.077,45.472 43.518,44.759 42.208,43.755 C43.342,42.533 44.221,41.056 44.883,39.258 C45.063,39.205 45.168,39.103 45.228,39.001 L46.617,39.001 C46.832,39.001 47.006,38.827 47.006,38.612 L47.006,37.804 C47.006,37.588 46.832,37.415 46.617,37.415 L41.789,37.415 L41.789,36.17 Z M20.437,28.436 L22.465,22.489 L24.512,28.436 L20.437,28.436 Z M21.539,20.88 L17.061,33 L18.897,33 L19.982,29.782 L24.967,29.782 L26.085,33 L27.939,33 L23.463,20.88 L21.539,20.88 Z M14,38 L29,38 L29,40 L13,40 C12.447,40 12,39.552 12,39 L12,33 L14,33 L14,38 Z M50,52 L33,52 L33,26 L43,26 L43,32 C43,32.552 43.447,33 44,33 L50,33 L50,52 Z M45,27.408 L48.588,31 L45,31 L45,27.408 Z M51.708,31.293 L44.708,24.285 C44.517,24.093 44.261,24.001 44,24.001 L44,24 L43.981,24 C43.951,24 43.89,24 43.89,24 L32,24 C31.447,24 31,24.448 31,25 L31,53 C31,53.552 31.447,54 32,54 L51,54 C51.553,54 52,53.552 52,53 L52,32 C52,31.74 51.898,31.484 51.708,31.293 L51.708,31.293 Z M27,13.703 L29.826,17 L27,17 L27,13.703 Z M14,12.003 L25,12 L25,18 C25,18.552 25.447,19 26,19 L31,19 L31,22 L33,22 L33,17.996 C32.999,17.763 32.916,17.533 32.759,17.349 L26.759,10.349 C26.565,10.123 26.285,10 26,10 L13,10.003 C12.447,10.003 12,10.451 12,11.003 L12,30 L14,30 L14,12.003 Z" id="Amazon-Translate_Icon_48_Squid" fill="#FFFFFF"></path>
    </g>
</svg>