<?xml version="1.0" encoding="UTF-8"?>
<svg width="64px" height="64px" viewBox="0 0 64 64" version="1.1" xmlns="http://www.w3.org/2000/svg" xmlns:xlink="http://www.w3.org/1999/xlink">
    <!-- Generator: Sketch 64 (93537) - https://sketch.com -->
    <title>Icon-Architecture/48/Arch_AWS-Deep-Composer_48</title>
    <desc>Created with Sketch.</desc>
    <defs>
        <linearGradient x1="0%" y1="100%" x2="100%" y2="0%" id="linearGradient-1">
            <stop stop-color="#055F4E" offset="0%"></stop>
            <stop stop-color="#56C0A7" offset="100%"></stop>
        </linearGradient>
    </defs>
    <g id="Icon-Architecture/48/Arch_AWS-Deep-Composer_48" stroke="none" stroke-width="1" fill="none" fill-rule="evenodd">
        <g id="Icon-Architecture-BG/48/Machine-Learning" fill="url(#linearGradient-1)">
            <rect id="Rectangle" x="0" y="0" width="64" height="64"></rect>
        </g>
        <path d="M52,28.422 C48.073,31.753 42.781,32.705 38,31.023 L38,33.101 C39.562,33.586 41.16,33.848 42.755,33.848 C46.018,33.848 49.235,32.847 52,30.932 L52,50 C52,51.103 51.103,52 50,52 L14,52 C12.897,52 12,51.103 12,50 L12,36.222 L13.445,34.296 C16.883,29.712 22.584,27.7 28,28.903 L28,26.854 C22.037,25.7 15.837,27.943 12,32.907 L12,14 C12,12.897 12.897,12 14,12 L50,12 C51.103,12 52,12.897 52,14 L52,28.422 Z M50,10 L14,10 C11.794,10 10,11.795 10,14 L10,50 C10,52.206 11.794,54 14,54 L50,54 C52.206,54 54,52.206 54,50 L54,14 C54,11.795 52.206,10 50,10 L50,10 Z M39.744,25.708 C39.367,26.084 38.734,26.109 38.307,25.684 L35.683,23.232 C35.392,22.959 34.966,22.885 34.602,23.045 C34.236,23.203 34,23.564 34,23.962 L34,40.5 C34,43.533 31.532,46 28.5,46 C25.468,46 23,43.533 23,40.5 C23,37.467 25.468,35 28.5,35 C29.231,35 29.942,35.142 30.614,35.423 C30.922,35.552 31.274,35.518 31.555,35.332 C31.833,35.147 32,34.835 32,34.5 L32,18.906 C32,18.386 32.424,17.962 32.944,17.962 L32.953,17.962 C32.979,17.965 33.005,17.966 33.03,17.967 C33.214,17.973 33.479,18.027 33.707,18.255 L39.745,24.293 L39.745,24.294 C39.935,24.482 40.038,24.733 40.038,25 C40.038,25.267 39.935,25.518 39.744,25.708 L39.744,25.708 Z M35.121,16.841 C34.61,16.33 33.937,16.025 33.213,15.974 C33.161,15.966 33.108,15.962 33.056,15.962 L32.944,15.962 C31.321,15.962 30,17.283 30,18.906 L30,26 L30,27.361 L30,29.493 L30,30 L30,33.151 C29.509,33.05 29.008,33 28.5,33 C24.364,33 21,36.364 21,40.5 C21,44.636 24.364,48 28.5,48 C32.636,48 36,44.636 36,40.5 L36,34 L36,32.355 L36,30.16 L36,30 L36,26.265 L36.917,27.121 C38.051,28.256 40.029,28.253 41.159,27.122 C41.726,26.555 42.038,25.801 42.038,25 C42.038,24.199 41.726,23.445 41.159,22.879 L35.121,16.841 Z" id="AWS-Deep-Composer_Icon_48_Squid" fill="#FFFFFF"></path>
    </g>
</svg>