<?xml version="1.0" encoding="UTF-8"?>
<svg width="64px" height="64px" viewBox="0 0 64 64" version="1.1" xmlns="http://www.w3.org/2000/svg" xmlns:xlink="http://www.w3.org/1999/xlink">
    <!-- Generator: Sketch 64 (93537) - https://sketch.com -->
    <title>Icon-Architecture/48/Arch_Amazon-CodeGuru_48</title>
    <desc>Created with Sketch.</desc>
    <defs>
        <linearGradient x1="0%" y1="100%" x2="100%" y2="0%" id="linearGradient-1">
            <stop stop-color="#055F4E" offset="0%"></stop>
            <stop stop-color="#56C0A7" offset="100%"></stop>
        </linearGradient>
    </defs>
    <g id="Icon-Architecture/48/Arch_Amazon-CodeGuru_48" stroke="none" stroke-width="1" fill="none" fill-rule="evenodd">
        <g id="Icon-Architecture-BG/48/Machine-Learning" fill="url(#linearGradient-1)">
            <rect id="Rectangle" x="0" y="0" width="64" height="64"></rect>
        </g>
        <path d="M21.707,17.293 L18.707,14.293 L17.293,15.707 L20.293,18.707 L21.707,17.293 Z M46.707,15.707 L45.293,14.293 L42.293,17.293 L43.707,18.707 L46.707,15.707 Z M33.99,22.142 L32.01,21.858 L30.01,35.858 L31.99,36.142 L33.99,22.142 Z M39.8,29.6 C40.066,29.245 40.066,28.755 39.8,28.4 L36.8,24.4 L35.2,25.6 L37.75,29 L35.2,32.4 L36.8,33.6 L39.8,29.6 Z M28.8,32.4 L26.25,29 L28.8,25.6 L27.2,24.4 L24.2,28.4 C23.934,28.755 23.934,29.245 24.2,29.6 L27.2,33.6 L28.8,32.4 Z M27.805,50 L36.195,50 L34.945,52 L29.055,52 L27.805,50 Z M36.348,53.53 L38.848,49.53 C39.041,49.222 39.051,48.833 38.875,48.515 C38.698,48.197 38.363,48 38,48 L26,48 C25.637,48 25.302,48.197 25.125,48.515 C24.949,48.833 24.959,49.222 25.152,49.53 L27.652,53.53 C27.835,53.822 28.155,54 28.5,54 L35.5,54 C35.845,54 36.165,53.822 36.348,53.53 L36.348,53.53 Z M26,38.733 C26,38.412 25.846,38.11 25.585,37.922 C22.714,35.854 21,32.518 21,29 C21,22.935 25.935,18 32,18 C38.065,18 43,22.935 43,29 C43,32.518 41.286,35.854 38.415,37.922 C38.154,38.11 38,38.412 38,38.733 L38,44 L26,44 L26,38.733 Z M40,45 L40,39.232 C43.14,36.773 45,32.987 45,29 C45,21.832 39.168,16 32,16 C24.832,16 19,21.832 19,29 C19,32.987 20.86,36.773 24,39.232 L24,45 C24,45.552 24.447,46 25,46 L39,46 C39.553,46 40,45.552 40,45 L40,45 Z M47,30 L51,30 L51,28 L47,28 L47,30 Z M13,30 L17,30 L17,28 L13,28 L13,30 Z M31,14 L33,14 L33,10 L31,10 L31,14 Z" id="Amazon-CodeGuru_Icon_48_Squid" fill="#FFFFFF"></path>
    </g>
</svg>