<?xml version="1.0" encoding="UTF-8"?>
<svg width="64px" height="64px" viewBox="0 0 64 64" version="1.1" xmlns="http://www.w3.org/2000/svg" xmlns:xlink="http://www.w3.org/1999/xlink">
    <!-- Generator: Sketch 64 (93537) - https://sketch.com -->
    <title>Icon-Architecture/48/Arch_Amazon-Augmented-AI-A2I_48</title>
    <desc>Created with Sketch.</desc>
    <defs>
        <linearGradient x1="0%" y1="100%" x2="100%" y2="0%" id="linearGradient-1">
            <stop stop-color="#055F4E" offset="0%"></stop>
            <stop stop-color="#56C0A7" offset="100%"></stop>
        </linearGradient>
    </defs>
    <g id="Icon-Architecture/48/Arch_Amazon-Augmented-AI-A2I_48" stroke="none" stroke-width="1" fill="none" fill-rule="evenodd">
        <g id="Icon-Architecture-BG/48/Machine-Learning" fill="url(#linearGradient-1)">
            <rect id="Rectangle" x="0" y="0" width="64" height="64"></rect>
        </g>
        <path d="M40.9610042,51.8229978 C40.6650042,49.0469978 39.1490042,46.5229978 36.8570042,45.0789978 C35.5520042,44.2579978 34.0560042,43.8229978 32.5300042,43.8229978 C28.1710042,43.8229978 24.5680042,47.3289978 24.0980042,51.8229978 L40.9610042,51.8229978 Z M28.0460042,37.3229978 C28.0460042,39.8039978 30.0650042,41.8229978 32.5460042,41.8229978 C35.0270042,41.8229978 37.0460042,39.8039978 37.0460042,37.3229978 C37.0460042,34.8419978 35.0270042,32.8229978 32.5460042,32.8229978 C30.0650042,32.8229978 28.0460042,34.8419978 28.0460042,37.3229978 L28.0460042,37.3229978 Z M43.0150042,52.8229978 C43.0150042,53.3749978 42.5670042,53.8229978 42.0150042,53.8229978 L23.0460042,53.8229978 C22.4930042,53.8229978 22.0460042,53.3749978 22.0460042,52.8229978 C22.0460042,48.1619978 24.8280042,44.1779978 28.7380042,42.5789978 C27.1100042,41.3969978 26.0460042,39.4839978 26.0460042,37.3229978 C26.0460042,33.7389978 28.9620042,30.8229978 32.5460042,30.8229978 C36.1300042,30.8229978 39.0460042,33.7389978 39.0460042,37.3229978 C39.0460042,39.4909978 37.9750042,41.4099978 36.3380042,42.5919978 C36.8830042,42.8149978 37.4180042,43.0689978 37.9230042,43.3869978 C41.0640042,45.3659978 43.0150042,48.9819978 43.0150042,52.8229978 L43.0150042,52.8229978 Z M16.5310042,32.9659978 L17.5610042,34.6799978 L22.0180042,32.0059978 L24.4910042,33.6549978 L25.6010042,31.9909978 L23.0450042,30.2869978 L23.0460042,27.0429978 L27.5430042,24.4639978 C27.8550042,24.2849978 28.0460042,23.9539978 28.0460042,23.5959978 L28.0460042,17.0379978 L26.0460042,17.0379978 L26.0460042,23.0169978 L21.7210042,25.4969978 L17.0460042,22.8879978 L17.0460042,17.6089978 L21.0460042,15.2229978 L21.0460042,19.8229978 L23.0460042,19.8229978 L23.0460042,14.0309978 L26.2270042,12.1339978 L31.0460042,14.4519978 L31.0460042,28.8229978 L33.0460042,28.8229978 L33.0460042,13.8229978 C33.0460042,13.4389978 32.8250042,13.0879978 32.4800042,12.9219978 L26.6090042,10.0979978 C26.3060042,9.95399783 25.9530042,9.96899783 25.6630042,10.1409978 L15.5330042,16.1819978 C15.2320042,16.3629978 15.0460042,16.6889978 15.0460042,17.0409978 L15.0460042,23.1459978 L10.6750042,24.8939978 C10.2960042,25.0459978 10.0480042,25.4109978 10.0460042,25.8189978 L10,36.6599978 C9.99900421,37.0059978 10.1760042,37.3279978 10.4700042,37.5119978 L15.0460042,40.3769978 L15.0460042,45.8229978 C15.0460042,46.1379978 15.1940042,46.4339978 15.4460042,46.6229978 L19.4460042,49.6229978 L20.6460042,48.0229978 L17.0460042,45.3229978 L17.0460042,40.3889978 L21.5610042,37.6799978 L20.5310042,35.9659978 L16.0570042,38.6499978 L12.0020042,36.1119978 L12.0180042,32.4059978 L16.5610042,29.6799978 L15.5310042,27.9659978 L12.0280042,30.0679978 L12.0430042,26.5009978 L16.3370042,24.7829978 L21.0460042,27.4099978 L21.0450042,30.2569978 L16.5310042,32.9659978 Z M40.6270042,34.1149978 C40.8950042,33.2329978 41.0300042,32.3269978 41.0300042,31.4259978 C41.0300042,27.3109978 38.2750042,23.6619978 34.3300042,22.5519978 L33.7890042,24.4779978 C36.8750042,25.3459978 39.0300042,28.2029978 39.0300042,31.4259978 C39.0300042,32.1309978 38.9240042,32.8409978 38.7130042,33.5349978 L40.6270042,34.1149978 Z M52.9840042,35.1419978 L50.1140042,42.6529978 C50.0160042,42.9099978 49.8150042,43.1149978 49.5610042,43.2199978 C49.3060042,43.3249978 49.0210042,43.3199978 48.7690042,43.2069978 L46.4970042,42.1819978 C46.4290042,42.2919978 46.3630042,42.3989978 46.2990042,42.5039978 C45.6110042,43.6249978 45.0170042,44.5939978 43.6520042,45.6239978 L42.4470042,44.0269978 C43.5100042,43.2249978 43.9650042,42.4839978 44.5950042,41.4579978 C44.8040042,41.1159978 45.0260042,40.7539978 45.2870042,40.3619978 C45.5590042,39.9539978 46.0850042,39.8019978 46.5310042,40.0039978 L48.6240042,40.9479978 L50.7370042,35.4179978 L48.5370042,34.7189978 C48.0700042,34.5699978 47.7790042,34.1049978 47.8510042,33.6199978 C48.1170042,31.8029978 48.0660042,29.9529978 47.6990042,28.1219978 C47.6040042,27.6419978 47.8680042,27.1639978 48.3250042,26.9899978 L50.4740042,26.1769978 L48.0520042,20.7719978 L46.0120042,21.8329978 C45.5760042,22.0569978 45.0460042,21.9379978 44.7520042,21.5479978 C43.6290042,20.0599978 42.2810042,18.7879978 40.7460042,17.7679978 C40.3390042,17.4969978 40.1880042,16.9709978 40.3880042,16.5249978 L41.3330042,14.4229978 L35.7120042,12.2819978 L34.9200042,14.1379978 L33.0800042,13.3529978 L34.2500042,10.6129978 C34.4610042,10.1189978 35.0240042,9.88099783 35.5250042,10.0709978 L43.0350042,12.9309978 C43.2930042,13.0289978 43.4980042,13.2289978 43.6040042,13.4829978 C43.7090042,13.7379978 43.7050042,14.0239978 43.5920042,14.2759978 L42.5520042,16.5899978 C43.7610042,17.4779978 44.8570042,18.5119978 45.8210042,19.6769978 L48.0680042,18.5079978 C48.3140042,18.3819978 48.5980042,18.3619978 48.8590042,18.4509978 C49.1190042,18.5409978 49.3300042,18.7349978 49.4420042,18.9859978 L52.7320042,26.3259978 C52.8460042,26.5779978 52.8500042,26.8649978 52.7440042,27.1189978 C52.6380042,27.3739978 52.4330042,27.5729978 52.1750042,27.6709978 L49.8090042,28.5669978 C50.0380042,30.0659978 50.0790042,31.5719978 49.9330042,33.0629978 L52.3530042,33.8319978 C52.6150042,33.9159978 52.8310042,34.1029978 52.9500042,34.3509978 C53.0700042,34.5989978 53.0820042,34.8859978 52.9840042,35.1419978 L52.9840042,35.1419978 Z" id="Amazon-Augmented-AI-A2I_Icon_48_Squid" fill="#FFFFFF"></path>
    </g>
</svg>