<?xml version="1.0" encoding="UTF-8"?>
<svg width="64px" height="64px" viewBox="0 0 64 64" version="1.1" xmlns="http://www.w3.org/2000/svg" xmlns:xlink="http://www.w3.org/1999/xlink">
    <!-- Generator: Sketch 64 (93537) - https://sketch.com -->
    <title>Icon-Architecture/48/Arch_AWS-Deep-Lense_48</title>
    <desc>Created with Sketch.</desc>
    <defs>
        <linearGradient x1="0%" y1="100%" x2="100%" y2="0%" id="linearGradient-1">
            <stop stop-color="#055F4E" offset="0%"></stop>
            <stop stop-color="#56C0A7" offset="100%"></stop>
        </linearGradient>
    </defs>
    <g id="Icon-Architecture/48/Arch_AWS-Deep-Lense_48" stroke="none" stroke-width="1" fill="none" fill-rule="evenodd">
        <g id="Icon-Architecture-BG/48/Machine-Learning" fill="url(#linearGradient-1)">
            <rect id="Rectangle" x="0" y="0" width="64" height="64"></rect>
        </g>
        <path d="M36.9988577,54 L38.9979058,54 L38.9979058,44 L36.9988577,44 L36.9988577,54 Z M25.9980961,54 L27.9971442,54 L27.9971442,48 L25.9980961,48 L25.9980961,54 Z M25.9980961,45 L27.9971442,45 L27.9971442,42 L25.9980961,42 L25.9980961,45 Z M33.9942884,34 L33.9942884,31 L30.9957163,31 L30.9957163,34 L28.9966683,34 L28.9966683,31 L23.9990481,31 C23.6502142,31 22.7256545,31 22.2588767,30.193 C22,29.745 22,29.257 22,28.64 L22,12.51 C22,11.899 22,11.386 22.2308901,10.925 C22.5387435,10.311 23.1334603,10 23.9990481,10 L31.9952404,10 L31.9952404,12 L24.0050452,12 C23.9990481,12.143 23.9990481,12.33 23.9990481,12.493 L23.9990481,28.623 C23.9990481,28.748 23.9990481,28.884 24.0020466,29 L40.9879581,29 C40.9909567,28.886 40.9909567,28.756 40.9909567,28.64 L40.9909567,12.51 C40.9909567,12.336 40.9909567,12.145 40.98396,12 L37.9923846,12 L37.9923846,10 L40.9909567,10 C41.855545,10 42.4512613,10.311 42.7581152,10.925 C42.9900048,11.386 42.9900048,11.899 42.9900048,12.493 L42.9900048,28.623 C42.9900048,29.257 42.9900048,29.745 42.7301285,30.193 C42.2633508,31 41.3387911,31 40.9909567,31 L35.9933365,31 L35.9933365,34 L33.9942884,34 Z M33.5365064,52 C33.5365064,52.552 33.0877201,53 32.5369824,53 C31.9842456,53 31.5374584,52.552 31.5374584,52 C31.5374584,51.447 31.9842456,51 32.5369824,51 C33.0877201,51 33.5365064,51.447 33.5365064,52 L33.5365064,52 Z M33.5365064,48 C33.5365064,48.552 33.0877201,49 32.5369824,49 C31.9842456,49 31.5374584,48.552 31.5374584,48 C31.5374584,47.447 31.9842456,47 32.5369824,47 C33.0877201,47 33.5365064,47.447 33.5365064,48 L33.5365064,48 Z M33.9942884,12 L35.9933365,12 L35.9933365,10 L33.9942884,10 L33.9942884,12 Z M34.9938125,39 L36.9928605,39 L36.9928605,37 L34.9938125,37 L34.9938125,39 Z M31.5374584,20.536 C31.5374584,19.983 31.9842456,19.536 32.5369824,19.536 C33.0877201,19.536 33.5365064,19.983 33.5365064,20.536 C33.5365064,21.088 33.0877201,21.536 32.5369824,21.536 C31.9842456,21.536 31.5374584,21.088 31.5374584,20.536 L31.5374584,20.536 Z M33.5365064,44 C33.5365064,44.552 33.0877201,45 32.5369824,45 C31.9842456,45 31.5374584,44.552 31.5374584,44 C31.5374584,43.447 31.9842456,43 32.5369824,43 C33.0877201,43 33.5365064,43.447 33.5365064,44 L33.5365064,44 Z M41.0009519,54 L40.9919562,39 L38.9919086,39 L38.9919086,37 L40.9909567,37 C40.9909567,34.729 40.1623513,34.554 38.9919086,34.554 L37.9923846,34.554 L37.9923846,32.554 L38.9919086,32.554 C41.6816278,32.554 42.9900048,34.008 42.9900048,37 L43,53.999 L41.0009519,54 Z M24.0010471,39 L24.0090433,45.999 L22.0099952,46 L22,37 C22,34.009 23.3073774,32.555 25.9980961,32.555 L26.9976202,32.555 L26.9976202,34.555 L25.9980961,34.555 C24.8276535,34.555 23.9990481,34.73 23.9990481,37 L32.9947644,37 L32.9947644,39 L24.0010471,39 Z M32.5369824,17.577 C34.1662066,17.577 35.4935745,18.904 35.4935745,20.536 C35.4935745,22.167 34.1662066,23.494 32.5369824,23.494 C30.9057592,23.494 29.5793908,22.167 29.5793908,20.536 C29.5793908,18.904 30.9057592,17.577 32.5369824,17.577 L32.5369824,17.577 Z M27.5803427,20.536 C27.5803427,23.27 29.8032842,25.494 32.5369824,25.494 C35.2686816,25.494 37.4926226,23.27 37.4926226,20.536 C37.4926226,17.802 35.2686816,15.577 32.5369824,15.577 C29.8032842,15.577 27.5803427,17.802 27.5803427,20.536 L27.5803427,20.536 Z" id="AWS-Deep-Lense_Icon_48_Squid" fill="#FFFFFF"></path>
    </g>
</svg>