<?xml version="1.0" encoding="UTF-8"?>
<svg width="64px" height="64px" viewBox="0 0 64 64" version="1.1" xmlns="http://www.w3.org/2000/svg" xmlns:xlink="http://www.w3.org/1999/xlink">
    <title>Icon-Architecture/48/Arch_Amazon-Poirot_48</title>
    <defs>
        <linearGradient x1="0%" y1="100%" x2="100%" y2="0%" id="linearGradient-1">
            <stop stop-color="#055F4E" offset="0%"></stop>
            <stop stop-color="#56C0A7" offset="100%"></stop>
        </linearGradient>
    </defs>
    <g id="Icon-Architecture/48/Arch_Amazon-Poirot_48" stroke="none" stroke-width="1" fill="none" fill-rule="evenodd">
        <g id="Rectangle" fill="url(#linearGradient-1)">
            <rect x="0" y="0" width="64" height="64"></rect>
        </g>
        <g id="Icon-Service/48/Amazon-Poirot_48" transform="translate(8.000000, 8.000000)" fill="#FFFFFF">
            <path d="M4,44 L46,44 L46,46 L2,46 L2,2 L4,2 L4,44 Z M6.74377811,42.507 L5,41.493 L10.9464452,31.493 C11.1264873,31.19 11.4542043,31.003 11.809231,31 C12.1500972,31.003 12.4960207,31.178 12.6801086,31.478 L17.4603263,39.198 L21.9472171,12.834 C22.0281349,12.36 22.4377811,12.01 22.9232878,12 C23.4229551,12.021 23.8346243,12.323 23.9337486,12.793 L29.7750007,40.15 L34.4267614,36.238 C34.6331018,36.065 34.9021534,35.982 35.171205,36.004 C35.4412681,36.027 35.6900902,36.157 35.8620405,36.364 L39.322287,40.514 L41.5697783,38.293 L43,39.707 L39.9655833,42.707 C39.7653118,42.906 39.4891799,43.01 39.2019218,42.999 C38.9166866,42.985 38.6506694,42.854 38.4706274,42.636 L34.9547499,38.42 L29.7901727,42.762 C29.5180867,42.99 29.1448535,43.059 28.8090447,42.946 C28.4722244,42.833 28.2203679,42.551 28.1455189,42.207 L23.0568022,18.368 L19.0068674,42.166 C18.9370758,42.577 18.6164391,42.902 18.2017355,42.982 C18.1380127,42.994 18.0732785,43 18.0095558,43 C17.6616093,43 17.3328808,42.823 17.1467699,42.522 L11.8355293,33.944 L6.74377811,42.507 Z M31.9053075,15.6215305 C31.3172156,10.7935374 26.9339035,7.45854608 21.9523599,8.024181 C16.958649,8.59275683 13.5071582,12.819824 14.0942361,17.6487974 C14.4440494,20.5210857 16.1119995,22.9365526 18.6701991,24.276627 L17.7039033,26 C14.5586259,24.3530907 12.508416,21.3925752 12.0795146,17.8781883 C11.360623,11.9571573 15.5918424,6.77429448 21.7140814,6.07729893 C24.6727917,5.74007465 27.5615394,6.51353384 29.8429302,8.25455224 C32.123307,9.99557065 33.5712297,12.5306346 33.920029,15.3931198 C34.4280187,19.5652901 32.4893435,23.5021876 28.8604112,25.6666969 L27.7957622,23.998221 C30.746361,22.2385768 32.3200136,19.0290642 31.9053075,15.6215305 L31.9053075,15.6215305 Z M44.5744633,31.8403671 C45.2757337,32.3685292 45.0286385,33.3848123 44.4234051,34.1160404 C44.0612654,34.5545866 43.6160938,34.8539421 43.1729229,34.9588118 C42.7917759,35.0522412 42.4476432,34.9855059 42.1635336,34.7709996 L33,27.7113594 C33.8593314,26.8962356 34.6006172,25.9829155 35.2238576,25 L44.5744633,31.8403671 Z M16.0038763,29.9878676 L16.9092358,28.1997136 C13.1342458,26.2630485 10.5836847,22.559302 10.0851387,18.2916146 C9.68530487,14.879873 10.61958,11.531349 12.713473,8.86115949 C14.8083631,6.19096996 17.8275575,4.49914752 21.2186671,4.09776615 C24.6057883,3.69538133 27.9360753,4.63561718 30.5893369,6.74387279 C33.2416014,8.85112495 34.9226984,11.8905853 35.3215351,15.3023269 C35.9427234,20.6136058 33.1967323,25.7964427 28.4894613,28.1967032 L29.3908324,29.9878676 C30.1446339,29.6025415 30.850575,29.1519909 31.512644,28.6522711 L40.939151,36.320662 C41.503505,36.7692057 42.1675682,37 42.8645355,37 C43.1297619,37 43.4009709,36.966886 43.6711828,36.8986512 C44.540647,36.6809018 45.3682333,36.1159575 46.0023837,35.3071741 C47.3993095,33.5260443 47.3225334,31.2853328 45.8139334,30.0852026 L36.1959847,22.6556335 C37.1960679,20.3145767 37.6108582,17.7055978 37.3027568,15.0675188 C36.8411032,11.1239469 34.896774,7.60784618 31.8247338,5.16845094 C28.7526936,2.7290557 24.9069101,1.64030875 20.9843505,2.10490768 C17.0667763,2.56850316 13.5729663,4.52724421 11.1480387,7.61788071 C8.72410826,10.7085172 7.64326063,14.5828508 8.10391709,18.5264227 C8.68123331,23.4614066 11.6336225,27.7461527 16.0038763,29.9878676 L16.0038763,29.9878676 Z" id="Fill-1"></path>
        </g>
    </g>
</svg>