<?xml version="1.0" encoding="UTF-8"?>
<svg width="64px" height="64px" viewBox="0 0 64 64" version="1.1" xmlns="http://www.w3.org/2000/svg" xmlns:xlink="http://www.w3.org/1999/xlink">
    <!-- Generator: Sketch 64 (93537) - https://sketch.com -->
    <title>Icon-Architecture/48/Arch_AWS-Deep-Learning-Containers_48</title>
    <desc>Created with Sketch.</desc>
    <defs>
        <linearGradient x1="0%" y1="100%" x2="100%" y2="0%" id="linearGradient-1">
            <stop stop-color="#055F4E" offset="0%"></stop>
            <stop stop-color="#56C0A7" offset="100%"></stop>
        </linearGradient>
    </defs>
    <g id="Icon-Architecture/48/Arch_AWS-Deep-Learning-Containers_48" stroke="none" stroke-width="1" fill="none" fill-rule="evenodd">
        <g id="Icon-Architecture-BG/48/Machine-Learning" fill="url(#linearGradient-1)">
            <rect id="Rectangle" x="0" y="0" width="64" height="64"></rect>
        </g>
        <path d="M13.2950013,23 L17.0000027,23 L17.0000027,21 L14.4380017,21 L15.5800022,19 L19.8820039,19 L20.8820042,21 L19.3820037,24 L15.000002,24 L15.000002,26 L20.0000039,26 C20.379004,26 20.7250042,25.786 20.8950042,25.447 L22.6180049,22 L24.3820056,22 L26.1060063,25.447 C26.2750063,25.786 26.6210065,26 27.0000066,26 L29.5630076,26 L28.4200072,28 L13.6180014,28 L12.1340008,25.031 L13.2950013,23 Z M22.5350049,16 L27.4650068,16 L29.1680075,18.555 C29.3540075,18.833 29.6660077,19 30.0000078,19 L34.3820095,19 L35.8820101,22 L34.1060094,25.553 L35.8950101,26.447 L37.0000105,24.236 L37.8460109,25.928 L36.4650103,28 L30.7230081,28 L33.8680093,22.496 L32.1320086,21.504 L30.7050081,24 L27.6180069,24 L26.1540063,21.072 L27.832007,18.555 L26.1680063,17.445 L24.4650056,20 L22.6180049,20 L21.4400045,17.643 L22.5350049,16 Z M12.1060008,29.447 C12.2750009,29.786 12.621001,30 13.0000012,30 L37.0000105,30 C37.3340107,30 37.6470108,29.833 37.8320109,29.555 L39.8320116,26.555 C40.0310117,26.256 40.0550117,25.874 39.8950117,25.553 L35.8950101,17.553 C35.72501,17.214 35.3790099,17 35.0000098,17 L30.535008,17 L28.8320073,14.445 C28.6470073,14.167 28.3340072,14 28.000007,14 L22.0000047,14 C21.6660045,14 21.3540044,14.167 21.1680044,14.445 L19.4650037,17 L15.000002,17 C14.6420018,17 14.3100017,17.192 14.1320016,17.504 L10.1320001,24.504 C9.96599999,24.794 9.95599998,25.148 10.106,25.447 L12.1060008,29.447 Z M47.0990145,34.005 C46.6390143,33.96 46.2140141,34.232 46.0590141,34.663 C46.011014,34.796 41.1260121,48 29.0000074,48 C24.0180055,48 12.595001,46.61 12.0230008,34 L43.0000129,34 C43.343013,34 43.6620131,33.824 43.8460132,33.534 C44.0280133,33.244 44.0510133,32.88 43.9030132,32.571 C42.4030126,29.417 43.425013,26.795 44.1710133,25.509 C45.1370137,26.512 46.6000143,28.477 46.0300141,30.757 C45.944014,31.098 46.0450141,31.457 46.2930142,31.706 C46.5390143,31.953 46.8940144,32.054 47.2410145,31.971 C48.0650148,31.768 50.2230157,31.497 51.6460162,32.239 C50.987016,33.045 49.5760154,34.251 47.0990145,34.005 L47.0990145,34.005 Z M53.707017,31.293 C52.1410164,29.727 49.6980155,29.658 48.1620149,29.805 C48.2330149,25.974 44.7650136,23.324 44.6000135,23.2 C44.1820133,22.885 43.5930131,22.949 43.247013,23.342 C43.1040129,23.506 40.0360117,27.1 41.5390123,32 L11,32 C10.4470002,32 10,32.448 10,33 C10,48.774 24.5430057,50 29,50 C40.815012,50 46.3890142,38.96 47.6550147,36.038 C52.1290164,36.115 53.8270171,32.588 53.9020171,32.431 C54.0850172,32.048 54.0070172,31.592 53.707017,31.293 L53.707017,31.293 Z" id="AWS-Deep-Learning-Containers_Icon_48_Squid" fill="#FFFFFF"></path>
    </g>
</svg>