<?xml version="1.0" encoding="UTF-8"?>
<svg width="64px" height="64px" viewBox="0 0 64 64" version="1.1" xmlns="http://www.w3.org/2000/svg" xmlns:xlink="http://www.w3.org/1999/xlink">
    <!-- Generator: Sketch 64 (93537) - https://sketch.com -->
    <title>Icon-Architecture/48/Arch_AWS-Deepracer_48</title>
    <desc>Created with Sketch.</desc>
    <defs>
        <linearGradient x1="0%" y1="100%" x2="100%" y2="0%" id="linearGradient-1">
            <stop stop-color="#055F4E" offset="0%"></stop>
            <stop stop-color="#56C0A7" offset="100%"></stop>
        </linearGradient>
    </defs>
    <g id="Icon-Architecture/48/Arch_AWS-Deepracer_48" stroke="none" stroke-width="1" fill="none" fill-rule="evenodd">
        <g id="Icon-Architecture-BG/48/Machine-Learning" fill="url(#linearGradient-1)">
            <rect id="Rectangle" x="0" y="0" width="64" height="64"></rect>
        </g>
        <path d="M30.669036,39.4822947 C30.2755305,40.8157591 30.4938109,41.8298309 30.7731697,42.1232729 L29.3203037,43.4976596 C28.4291591,42.5604417 28.2038697,40.7638578 28.7485693,38.9193651 C29.4214336,36.6367055 30.9463922,35.1655029 32.4813637,35.3261974 L32.262082,37.3104244 C32.0197708,37.2844738 31.1116044,37.9841434 30.669036,39.4822947 L30.669036,39.4822947 Z M15.172132,39.6689398 C14.7586009,40.9814441 14.9868941,41.9795462 15.2812722,42.2689958 L13.8754666,43.6902933 C12.9162346,42.7470868 12.6749247,40.9335352 13.2616783,39.0710766 C13.9635798,36.8383221 15.6116966,35.3431651 17.1586835,35.4948766 L16.9534199,37.4801018 C16.6159865,37.4511568 15.6467416,38.1608074 15.172132,39.6689398 L15.172132,39.6689398 Z M25.0778547,33.9677803 L23.335617,32.9836516 C27.9855894,24.8071989 35.5903568,28.0570195 35.6664545,28.0889587 L34.8574154,29.9154856 C34.6121003,29.8086887 28.8166568,27.3932815 25.0778547,33.9677803 L25.0778547,33.9677803 Z M51.5518575,43.325986 C51.0832556,44.2841641 49.9798384,44.8001829 48.2866637,44.8750405 C48.5880508,44.7193366 48.8333659,44.5416744 49.0005806,44.3729952 C49.3890796,43.9777467 49.8496712,43.2541227 49.8286442,42.0144798 L49.8146262,41.7390036 C49.9357818,41.6381953 50.0419181,41.5144306 50.1039978,41.361721 L50.9290575,39.35853 L51.2574794,38.4532514 C52.1045673,40.1031142 52.2437461,41.9156677 51.5518575,43.325986 L51.5518575,43.325986 Z M35.4151317,42.9027907 C35.2839633,42.7510792 35.2379041,42.5554512 35.2769543,42.3039294 C35.4822179,40.931539 35.5863517,39.6869056 35.6073787,38.5560559 C35.713515,38.987236 35.811641,39.3994522 35.8967503,39.7657557 C36.0509484,40.4284955 36.1731053,40.9524991 36.2952622,41.3068254 C36.4534654,41.7669505 36.9210659,42.0573982 37.4026845,41.9755538 L40.4946558,41.9765519 C40.9482384,41.9765519 41.3437463,41.674127 41.4618981,41.2389544 L41.5800499,40.7997895 C41.8073418,40.4574405 42.1938382,40.247839 42.6113745,40.247839 L46.113873,40.247839 L45.987711,40.7289242 C45.9096107,41.0273568 45.9746942,41.3457514 46.1639373,41.5912845 C46.3531804,41.8358195 46.6455559,41.9785481 46.9569558,41.9785481 L47.822067,41.9795462 L47.8270734,42.0803545 C47.8320798,42.3648137 47.7920284,42.7510792 47.5727468,42.973656 C47.335442,43.2141986 46.8968787,43.2651018 46.5714607,43.2651018 L36.4324384,43.2651018 C35.9908712,43.2651018 35.6113838,43.1293599 35.4151317,42.9027907 L35.4151317,42.9027907 Z M52.040485,36.0178821 C52.2487525,35.2124137 52.4129634,34.3919737 52.520101,33.5575604 L53.2009755,27.5310196 C53.4623112,25.4988837 52.9666746,23.5815294 51.8051828,22.131287 C50.6176576,20.6451129 48.893443,19.756802 47.0580857,19.6809463 C47.0000111,19.6689691 46.939934,19.6629804 46.8798568,19.6619823 L44.8662706,19.6300431 C44.7781574,19.2617434 44.4817768,18.9623127 44.0902739,18.8834627 C38.7524181,17.8085067 34.6020875,17.8055124 31.3629272,18.388404 L14.9808864,18.3524723 L14.9808864,20.3486766 L25.7076637,20.3486766 C24.6473017,20.9665018 23.7891996,21.6591847 23.0933058,22.3448809 L17.9847445,22.3448809 L17.9847445,24.3410852 L21.4652147,24.3410852 L20.3467782,26.3372895 L11.0137911,26.3372895 L11.0137911,28.3334937 L15.2892825,28.3334937 C13.1955934,28.8225638 11.6415975,30.1570264 10.7624683,32.2959592 C10.6122754,32.7071773 10.3719668,33.4068469 10.2878588,33.8819436 C10.2738407,33.9218676 10.2628266,33.9627898 10.253815,34.0047101 C9.92639449,35.6216356 10.036536,36.9700716 10.0405411,37.0269634 C10.0725823,37.4002536 10.3118896,37.7246368 10.6603372,37.8663673 L10.6863706,37.8773464 C10.6753564,37.9112819 10.6643423,37.9462155 10.6533282,37.981149 C10.4400542,38.6568642 10.2788472,39.348549 10.1677044,40.0921351 C10.1677044,40.0921351 10.0525565,41.3457514 10.0485514,41.3457514 L10.0485514,41.341759 C9.71512314,44.9229494 11.1629827,46.267393 12.4356173,46.7644479 C12.8541549,46.9271385 13.2736937,47 13.6862235,47 C15.0479726,47 16.3286174,46.2124974 17.1857182,45.3231884 C17.2317774,45.2752795 17.2728301,45.2143953 17.3188893,45.1644902 L23.7611636,45.1644902 L23.7611636,43.1682859 L18.756736,43.1682859 C19.201307,42.3767909 19.5807944,41.5054477 19.8691648,40.5881918 C20.7502965,37.7915096 20.6741988,34.9798559 19.6729127,33.251143 L17.937684,34.2492451 C18.6576087,35.4908842 18.665619,37.7445988 17.958711,39.9903287 C17.4620732,41.5693262 16.6730598,42.9726579 15.7418638,43.9408169 C15.1030433,44.6015606 14.0466865,45.2473326 13.1665561,44.9059817 C12.0190823,44.4578338 11.9219576,42.8209463 12.0431132,41.5234135 L12.1542559,40.335672 C12.2443717,39.7487879 12.3805466,39.1579115 12.5637819,38.5790122 C12.8741806,37.5928873 13.3117426,36.6476846 13.8304087,35.8452105 C14.0967508,35.4329943 14.0226557,34.8880305 13.6551837,34.560653 C13.2867104,34.2322774 12.7350018,34.2212983 12.3555144,34.531708 C12.2914321,34.5836094 12.2283511,34.6355107 12.1642688,34.6884101 C12.1742816,34.6245315 12.1862971,34.5596549 12.1993138,34.4947783 C12.2273498,34.4079434 12.2483768,34.3141218 12.2573884,34.2352717 C12.2774141,34.0775716 12.4576456,33.4906875 12.6288655,33.0155909 C13.3788287,31.1940545 14.7195507,30.2478537 16.6340096,30.1250871 C19.2403572,30.1909618 20.8263942,29.0371558 21.6594642,28.0460403 C21.6985144,28.0001276 21.7335594,27.9492244 21.7625967,27.896325 L23.2294807,25.3042537 C24.9326683,22.7451199 29.3162985,18.9473412 40.0831272,20.2528588 C39.1789659,21.0583272 38.7123667,22.0504408 38.6973474,22.7541028 C38.6873345,23.1842848 38.9556792,23.5725465 39.3632026,23.7172713 C39.7717273,23.860998 40.2243086,23.7292486 40.4896494,23.3878976 C41.9765591,21.476532 43.9320707,21.5973024 44.0832649,21.6112758 L46.7306652,21.6561904 C46.7847346,21.6661714 46.8378028,21.6721601 46.8938748,21.6731582 C48.1775235,21.701105 49.3970899,22.3219245 50.2391715,23.3749223 C51.0592247,24.3999732 51.4056697,25.7863371 51.2124215,27.2924732 L50.531547,33.320012 C50.3663348,34.6055676 50.0599413,35.8731573 49.6233806,37.0868495 L49.0616591,38.6408946 L48.5069466,39.9833419 L48.1935441,39.9833419 C48.1785248,39.6938923 48.0934155,39.407437 47.9382162,39.1459342 C47.6057892,38.5859989 47.0180343,38.2516347 46.3661971,38.2516347 L42.6113745,38.2516347 C41.4278544,38.2516347 40.3394565,38.8944125 39.7717273,39.9284463 C39.7617144,39.9454141 39.7527028,39.9623818 39.7446926,39.9803476 L38.0044574,39.9793495 C37.9553944,39.778731 37.9033275,39.5531599 37.8472555,39.3146135 C37.6890523,38.6299154 37.4958041,37.8064812 37.2544942,36.9501095 L35.5813452,37.4192175 C35.5463002,36.6237301 35.4772115,35.8761516 35.3340276,35.2313776 C35.2178784,34.7043797 34.6982109,34.3630288 34.1715345,34.4658333 C33.6398516,34.5656435 33.2833938,35.0676889 33.3665005,35.5996773 C33.5667577,36.8782462 33.4215713,38.4432703 32.9599784,40.0072964 C32.4913765,41.5942788 31.880592,42.8209463 31.1446468,43.6533635 C30.4928096,44.3889648 29.4044117,45.0646799 28.7926259,44.8880159 C27.648156,44.5516554 27.0543934,41.8717512 28.029646,38.5620445 C29.0048986,35.2613207 31.0084719,33.1692986 32.2000023,33.5166382 C32.2771013,33.5385964 32.3521978,33.57353 32.4272942,33.622437 L33.5126883,31.9436292 C33.2763848,31.7919177 33.0230594,31.6761378 32.7637263,31.6012802 C30.2685215,30.866677 27.4018396,33.6164484 26.1091794,37.9991149 C24.8215255,42.3618193 25.7126701,46.0647783 28.2279006,46.8023758 C28.488235,46.8792296 28.7525745,46.9141632 29.016914,46.9141632 C30.4117054,46.9141632 31.7954827,45.9360231 32.6465759,44.9738527 C32.9729951,44.6035568 33.2773861,44.1813596 33.5597487,43.7082591 C33.651867,43.8849232 33.7650124,44.0516063 33.8981834,44.205314 C34.477928,44.8760386 35.4011137,45.2613061 36.4324384,45.2613061 L45.4410088,45.2613061 L45.3468879,45.4729037 C45.2117143,45.778323 45.238749,46.130653 45.4179792,46.4121178 C45.5972094,46.6935826 45.9066068,46.8662543 46.2410363,46.8742391 C46.2410363,46.8742391 46.8287912,46.8872145 47.5637352,46.8872145 C47.6858921,46.8872145 47.8120541,46.8872145 47.94122,46.8862164 C51.336581,46.8642581 52.7574058,45.4140157 53.3511685,44.2023197 C54.5697336,41.7150492 54.0380507,38.5590502 52.040485,36.0178821 L52.040485,36.0178821 Z M43.891018,32.5923956 C43.6647274,32.34287 43.5435718,32.0224793 43.5355615,31.6911093 C43.8790026,31.8418228 44.2574887,31.9286577 44.6580031,31.9286577 C45.3218558,31.9286577 45.9236287,31.688115 46.4062485,31.3038457 L46.3381611,31.8278493 C46.2500479,32.5225284 45.6743084,33.0395453 44.9383632,33.0575112 C44.5398514,33.0575112 44.1583614,32.8878338 43.891018,32.5923956 L43.891018,32.5923956 Z M44.6580031,28.316526 C45.1045767,28.316526 45.4680435,28.6788371 45.4680435,29.1239906 C45.4680435,29.5691442 45.1045767,29.9324534 44.6580031,29.9324534 C44.2104283,29.9324534 43.8479627,29.5691442 43.8479627,29.1239906 C43.8479627,28.6788371 44.2104283,28.316526 44.6580031,28.316526 L44.6580031,28.316526 Z M45.550149,25.1974568 C45.5621644,25.1974568 45.5741798,25.1964587 45.585194,25.1964587 C45.9837058,25.1964587 46.3641945,25.365138 46.6315379,25.6615743 C46.9078928,25.9659955 47.0360574,26.3752173 46.9839906,26.7814449 L46.8988813,27.447179 C46.3842202,26.7674715 45.5761824,26.3203217 44.6580031,26.3203217 C44.5018025,26.3203217 44.3516096,26.3412819 44.2034193,26.3662344 C44.3175659,25.7034946 44.8692745,25.2144246 45.550149,25.1974568 L45.550149,25.1974568 Z M45.0214699,35.0517193 C46.7196511,35.0107971 48.1094361,33.7611732 48.3257139,32.0803692 L48.9705421,27.0339648 C49.0967041,26.049836 48.7863054,25.0617149 48.1184476,24.3241174 C47.4515911,23.58652 46.4923591,23.1643228 45.501086,23.2022506 C43.8009023,23.2431728 42.4131198,24.4927967 42.1978433,26.1736007 L41.5520138,31.2200051 C41.4258518,32.205132 41.7372518,33.1932531 42.4041083,33.9298525 C43.0479352,34.6424974 43.9701196,35.0517193 45.0164635,35.0517193 L45.0214699,35.0517193 Z" id="AWS-Deepracer_Icon_48_Squid" fill="#FFFFFF"></path>
    </g>
</svg>