<?xml version="1.0" encoding="UTF-8"?>
<svg width="64px" height="64px" viewBox="0 0 64 64" version="1.1" xmlns="http://www.w3.org/2000/svg" xmlns:xlink="http://www.w3.org/1999/xlink">
    <!-- Generator: Sketch 64 (93537) - https://sketch.com -->
    <title>Icon-Architecture/48/Arch_Amazon-Lex_48</title>
    <desc>Created with Sketch.</desc>
    <defs>
        <linearGradient x1="0%" y1="100%" x2="100%" y2="0%" id="linearGradient-1">
            <stop stop-color="#055F4E" offset="0%"></stop>
            <stop stop-color="#56C0A7" offset="100%"></stop>
        </linearGradient>
    </defs>
    <g id="Icon-Architecture/48/Arch_Amazon-Lex_48" stroke="none" stroke-width="1" fill="none" fill-rule="evenodd">
        <g id="Icon-Architecture-BG/48/Machine-Learning" fill="url(#linearGradient-1)">
            <rect id="Rectangle" x="0" y="0" width="64" height="64"></rect>
        </g>
        <path d="M38.921,36.3672411 C38.773,36.2186716 38.578,36.1443868 38.384,36.1443868 C38.19,36.1443868 37.995,36.2186716 37.848,36.3672411 C37.552,36.6643801 37.552,37.1472311 37.848,37.4443701 C38.143,37.7415091 38.626,37.7415091 38.921,37.4443701 C39.217,37.1462272 39.216,36.6633763 38.921,36.3672411 L38.921,36.3672411 Z M40.335,34.9467961 C41.41,36.0279404 41.41,37.7846746 40.335,38.8638113 L40.335,38.8648151 C39.797,39.4038815 39.09,39.6729128 38.384,39.6729128 C37.678,39.6729128 36.971,39.4038815 36.434,38.8638113 C35.358,37.7846746 35.358,36.0279404 36.434,34.9477999 C37.508,33.8686632 39.259,33.8686632 40.335,34.9467961 L40.335,34.9467961 Z M43.293,38.3588757 L42.131,37.5818973 C41.9,37.4283085 41.742,37.1833696 41.697,36.9083152 L41.538,35.9295633 C41.493,35.6514974 41.567,35.3674084 41.74,35.1465618 L42.612,34.0383135 L41.241,32.6630417 L40.142,33.5363895 C39.92,33.7110591 39.636,33.7863477 39.359,33.7401707 L38.387,33.5805588 C38.112,33.5353856 37.87,33.3777815 37.716,33.1468964 L36.94,31.9774134 L35.212,32.8607997 L35.692,34.1617868 C35.789,34.4227874 35.774,34.7118956 35.65,34.9608499 L35.2,35.8613017 C35.073,36.1142714 34.847,36.301991 34.576,36.3782834 L33.234,36.7557303 L33.537,38.6780994 L34.942,38.62088 C35.217,38.6108416 35.493,38.7162456 35.692,38.9140037 L36.381,39.6076627 C36.578,39.8064246 36.684,40.0774636 36.672,40.3575372 L36.615,41.7709553 L38.53,42.0761251 L38.905,40.7309687 C38.982,40.457922 39.169,40.2300485 39.422,40.1035637 L40.32,39.6528359 C40.567,39.5293626 40.856,39.5143048 41.114,39.6096704 L42.412,40.0925213 L43.293,38.3588757 Z M45.479,38.4743182 L43.789,41.8000669 C43.559,42.2548101 43.025,42.4626067 42.551,42.2859294 L40.825,41.6444705 L40.712,41.700686 L40.216,43.4774971 C40.094,43.9171825 39.695,44.21131 39.254,44.21131 C39.202,44.21131 39.15,44.2072946 39.096,44.1992638 L35.423,43.6140204 C34.923,43.5337126 34.561,43.0900117 34.581,42.5810607 L34.656,40.7149071 L34.586,40.6446378 L32.73,40.7209302 C32.716,40.7209302 32.702,40.7219341 32.688,40.7219341 C32.198,40.7219341 31.778,40.3645642 31.701,39.8746863 L31.12,36.1875523 C31.04,35.6846244 31.349,35.2017735 31.837,35.0642463 L33.609,34.5653338 L33.666,34.4508951 L33.027,32.7212648 C32.851,32.244437 33.059,31.709386 33.511,31.4774971 L36.824,29.7830015 C37.275,29.5531203 37.828,29.6966706 38.11,30.1212983 L39.139,31.6692321 L39.246,31.6873013 L40.697,30.532876 C41.096,30.2176677 41.665,30.2497909 42.025,30.6111762 L44.655,33.2502928 C45.014,33.6096704 45.048,34.1828677 44.733,34.5823992 L43.583,36.0429982 L43.602,36.1534214 L45.142,37.1823657 C45.565,37.4654509 45.709,38.0205789 45.479,38.4743182 L45.479,38.4743182 Z M51,29.0692655 C50.999,29.1074117 50.96,29.0702694 50.937,29.0612347 L25.092,29.0692655 C25.061,29.092354 25.024,29.1305003 25,29.1616195 L25,45.0384808 C25.024,45.0696001 25.061,45.1077464 25.092,45.1308349 L37.731,45.1308349 C38.191,45.1308349 38.593,45.2904467 38.963,45.6177012 L44,50.3026602 L44,47.138531 C44,46.1437176 45.01,45.1308349 46,45.1308349 L51,45.1308349 L51,29.0692655 Z M53,29.0692655 L53,45.1308349 C53,46.1818638 52.047,47.138531 51,47.138531 L46.092,47.138531 C46.061,47.1616195 46.024,47.1997658 46,47.2308851 L46,51.5353856 C46,52.1085829 45.662,52.6325916 45.14,52.8694997 C44.946,52.9568345 44.739,53 44.534,53 C44.183,53 43.835,52.8735151 43.562,52.6315878 L37.656,47.138531 L25,47.138531 C24.01,47.138531 23,46.1256483 23,45.1308349 L23,29.0692655 C23,28.0744521 24.01,27.0615693 25,27.0615693 L51,27.0615693 C52.048,27.0645809 53,28.022252 53,29.0692655 L53,29.0692655 Z M29,25.0538732 L32,25.0538732 L32,23.046177 L29,23.046177 L29,25.0538732 Z M15,25.0538732 L27,25.0538732 L27,23.046177 L15,23.046177 L15,25.0538732 Z M25,21.0384808 L34,21.0384808 L34,19.0307847 L25,19.0307847 L25,21.0384808 Z M15,21.0384808 L22,21.0384808 L22,19.0307847 L15,19.0307847 L15,21.0384808 Z M31,17.0230885 L34,17.0230885 L34,15.0153923 L31,15.0153923 L31,17.0230885 Z M15,17.0230885 L29,17.0230885 L29,15.0153923 L15,15.0153923 L15,17.0230885 Z M20.204,30.4696336 L21.796,31.6842898 L18.44,36.0881713 C18.145,36.3501757 17.775,36.4887067 17.405,36.4887067 C17.202,36.4887067 17,36.4465451 16.812,36.3622219 C16.312,36.136356 16,35.6444705 16,35.079304 L16,30.0731136 L13,30.0731136 C11.935,30.0731136 11,29.1345156 11,28.0654174 L11,13.0076962 C11,11.938598 11.935,11 13,11 L36,11 C36.99,11 38,12.0128827 38,13.0076962 L38,25.0538732 L36,25.0538732 L36,13.1000502 C35.977,13.0689309 35.94,13.0307847 35.908,13.0076962 L13,13.0076962 L13,28.0654174 L16,28.0654174 C17.066,28.0654174 18,29.0040154 18,30.0731136 L18,33.380793 L20.204,30.4696336 Z" id="Amazon-Lex-Icon_48_Squid" fill="#FFFFFF"></path>
    </g>
</svg>