<?xml version="1.0" encoding="UTF-8"?>
<svg width="64px" height="64px" viewBox="0 0 64 64" version="1.1" xmlns="http://www.w3.org/2000/svg" xmlns:xlink="http://www.w3.org/1999/xlink">
    <!-- Generator: Sketch 64 (93537) - https://sketch.com -->
    <title>Icon-Architecture/48/Arch_Amazon-Forecast_48</title>
    <desc>Created with Sketch.</desc>
    <defs>
        <linearGradient x1="0%" y1="100%" x2="100%" y2="0%" id="linearGradient-1">
            <stop stop-color="#055F4E" offset="0%"></stop>
            <stop stop-color="#56C0A7" offset="100%"></stop>
        </linearGradient>
    </defs>
    <g id="Icon-Architecture/48/Arch_Amazon-Forecast_48" stroke="none" stroke-width="1" fill="none" fill-rule="evenodd">
        <g id="Icon-Architecture-BG/48/Machine-Learning" fill="url(#linearGradient-1)">
            <rect id="Rectangle" x="0" y="0" width="64" height="64"></rect>
        </g>
        <path d="M40.6817398,46.897 L44.8308363,46.897 L44.8308363,23.256 L40.6817398,23.256 L40.6817398,46.897 Z M38.6841006,48.897 L46.8284754,48.897 L46.8284754,21.256 L38.6841006,21.256 L38.6841006,48.897 Z M29.4130573,46.897 L33.5621538,46.897 L33.5621538,29.41 L29.4130573,29.41 L29.4130573,46.897 Z M27.4154181,48.897 L35.559793,48.897 L35.559793,27.41 L27.4154181,27.41 L27.4154181,48.897 Z M17.1195859,46.898 L21.2686825,46.898 L21.2686825,36.59 L17.1195859,36.59 L17.1195859,46.898 Z M15.1219468,48.897 L23.2663216,48.897 L23.2663216,34.589 L15.1219468,34.589 L15.1219468,48.897 Z M47.8782348,11 L47.8782348,13 L51.1014256,13 L46.9373468,17.154 L38.3934441,17.154 C38.0308726,17.154 37.6972669,17.35 37.5214746,17.666 L34.3682012,23.308 L25.9241805,23.308 C25.5096704,23.308 25.1381095,23.564 24.991283,23.953 L22.5122128,30.487 L15.0969763,30.487 L15.0969763,32.487 L23.2023972,32.487 C23.6169073,32.487 23.9884682,32.23 24.1352947,31.842 L26.6143648,25.308 L34.9535095,25.308 C35.316081,25.308 35.6496867,25.112 35.825479,24.796 L38.9787524,19.154 L47.3508581,19.154 C47.6145464,19.154 47.8682466,19.049 48.0560247,18.862 L52.0023608,14.925 L52.0023608,17.128 L54,17.128 L54,11 L47.8782348,11 Z M49.9527831,21.231 L51.9504222,21.231 L51.9504222,53 L45.8296559,53 L10,53 L10,13.051 L43.7800781,13.051 L43.7800781,15.051 L11.9976392,15.051 L11.9976392,51 L45.8296559,51 L49.9527831,51 L49.9527831,21.231 Z" id="Amazon-Forecast_Icon_48_Squid" fill="#FFFFFF"></path>
    </g>
</svg>