<?xml version="1.0" encoding="UTF-8"?>
<svg width="64px" height="64px" viewBox="0 0 64 64" version="1.1" xmlns="http://www.w3.org/2000/svg" xmlns:xlink="http://www.w3.org/1999/xlink">
    <!-- Generator: Sketch 64 (93537) - https://sketch.com -->
    <title>Icon-Architecture/48/Arch_AWS-Textract_48</title>
    <desc>Created with Sketch.</desc>
    <defs>
        <linearGradient x1="0%" y1="100%" x2="100%" y2="0%" id="linearGradient-1">
            <stop stop-color="#055F4E" offset="0%"></stop>
            <stop stop-color="#56C0A7" offset="100%"></stop>
        </linearGradient>
    </defs>
    <g id="Icon-Architecture/48/Arch_AWS-Textract_48" stroke="none" stroke-width="1" fill="none" fill-rule="evenodd">
        <g id="Icon-Architecture-BG/48/Machine-Learning" fill="url(#linearGradient-1)">
            <rect id="Rectangle" x="0" y="0" width="64" height="64"></rect>
        </g>
        <path d="M18.464,41 C20.255,43.549 23.211,45.222 26.556,45.222 C32.008,45.222 36.444,40.786 36.444,35.333 C36.444,29.88 32.008,25.444 26.556,25.444 C22.659,25.444 19.291,27.716 17.681,31 L18.932,31 C20.443,28.35 23.291,26.556 26.556,26.556 C31.396,26.556 35.333,30.493 35.333,35.333 C35.333,40.174 31.396,44.111 26.556,44.111 C23.875,44.111 21.474,42.9 19.862,41 L18.464,41 Z M30,37 L30,35 L33.317,35 C33.141,31.418 30.181,28.556 26.556,28.556 C22.931,28.556 19.97,31.418 19.794,35 L23,35 L23,37 L19.993,37 C20.739,39.933 23.395,42.111 26.556,42.111 C27.924,42.111 29.197,41.7 30.264,41 L28,41 L28,39 L32.247,39 C32.64,38.393 32.935,37.719 33.117,37 L30,37 Z M17.38,39 L18.59,39 C18.074,37.883 17.777,36.644 17.777,35.333 C17.777,34.524 17.897,33.744 18.102,33 L16.957,33 C16.775,33.75 16.667,34.528 16.667,35.333 C16.667,36.629 16.925,37.865 17.38,39 L17.38,39 Z M16.107,41 L14,41 L14,39 L15.252,39 C15.043,38.356 14.895,37.687 14.798,37 L12.869,37 L13.832,38.445 L12.168,39.555 L10.168,36.555 C9.944,36.219 9.944,35.781 10.168,35.445 L12.168,32.445 L13.832,33.555 L12.869,35 L14.684,35 C14.703,34.318 14.771,33.648 14.901,33 L14,33 L14,31 L15.496,31 C17.234,26.583 21.53,23.444 26.556,23.444 C29.867,23.444 32.863,24.808 35.022,27 L46,27 L46,29 L36.6,29 C37.705,30.748 38.366,32.798 38.428,35 L46,35 L46,37 L38.314,37 C37.499,42.768 32.544,47.222 26.556,47.222 C22.051,47.222 18.123,44.703 16.107,41 L16.107,41 Z M28.889,31.222 L24.223,31.222 C23.67,31.222 23.223,31.67 23.223,32.222 L23.223,33.778 L25.223,33.778 L25.223,33.222 L25.556,33.222 L25.556,35.111 L25,35.111 L25,37.111 L28.111,37.111 L28.111,35.111 L27.556,35.111 L27.556,33.222 L27.889,33.222 L27.889,33.778 L29.889,33.778 L29.889,32.222 C29.889,31.67 29.442,31.222 28.889,31.222 L28.889,31.222 Z M40,33 L46,33 L46,31 L40,31 L40,33 Z M40,41 L46,41 L46,39 L40,39 L40,41 Z M44,23 L46.586,23 L44,20.414 L44,23 Z M49.707,23.293 C49.895,23.48 50,23.735 50,24 L50,51 C50,51.552 49.553,52 49,52 L25.777,52 C25.225,52 24.777,51.552 24.777,51 L24.777,49 L26.777,49 L26.777,50 L48,50 L48,25 L43,25 C42.447,25 42,24.552 42,24 L42,19 L27,19 L27,22 L25,22 L25,18 C25,17.448 25.447,17 26,17 L43,17 C43.266,17 43.52,17.105 43.707,17.293 L49.707,23.293 Z M54,20 L54,50 L52,50 L52,20.414 L46.586,15 L29,15 L29,16 L27,16 L27,14 C27,13.448 27.447,13 28,13 L47,13 C47.266,13 47.52,13.105 47.707,13.293 L53.707,19.293 C53.895,19.48 54,19.735 54,20 L54,20 Z" id="AWS-Textract_Icon_48_Squid" fill="#FFFFFF"></path>
    </g>
</svg>