<?xml version="1.0" encoding="UTF-8"?>
<svg width="64px" height="64px" viewBox="0 0 64 64" version="1.1" xmlns="http://www.w3.org/2000/svg" xmlns:xlink="http://www.w3.org/1999/xlink">
    <!-- Generator: Sketch 64 (93537) - https://sketch.com -->
    <title>Icon-Architecture/48/Arch_Amazon-Rekognition_48</title>
    <desc>Created with Sketch.</desc>
    <defs>
        <linearGradient x1="0%" y1="100%" x2="100%" y2="0%" id="linearGradient-1">
            <stop stop-color="#055F4E" offset="0%"></stop>
            <stop stop-color="#56C0A7" offset="100%"></stop>
        </linearGradient>
    </defs>
    <g id="Icon-Architecture/48/Arch_Amazon-Rekognition_48" stroke="none" stroke-width="1" fill="none" fill-rule="evenodd">
        <g id="Icon-Architecture-BG/48/Machine-Learning" fill="url(#linearGradient-1)">
            <rect id="Rectangle" x="0" y="0" width="64" height="64"></rect>
        </g>
        <path d="M50.579398,47.2307137 L40.8506722,37.76423 C39.9616452,38.9211211 38.9269757,39.9556487 37.7689144,40.8455649 L47.2640052,50.5618318 C48.0711082,51.3668015 49.2959223,50.8803814 50.0908884,50.0865357 C50.9212537,49.255273 51.3571702,48.0073678 50.579398,47.2307137 L50.579398,47.2307137 Z M27.6528196,42.2785322 C35.7198034,42.2785322 42.2818134,35.7164114 42.2818134,27.6505345 C42.2818134,19.5846576 35.7198034,13.0225368 27.6528196,13.0225368 C19.5858357,13.0225368 13.0228144,19.5846576 13.0228144,27.6505345 C13.0228144,35.7164114 19.5858357,42.2785322 27.6528196,42.2785322 L27.6528196,42.2785322 Z M51.5210181,51.5164692 C50.5389417,52.4984109 49.3727892,53 48.269344,53 C47.3671688,53 46.5074726,52.6652702 45.8257842,51.9836752 L36.0657047,41.9953771 C33.5928141,43.4505923 30.7234518,44.3010691 27.6528196,44.3010691 C18.4702536,44.3010691 11,36.8318405 11,27.6505345 C11,18.4702398 18.4702536,11 27.6528196,11 C36.8343742,11 44.3046278,18.4702398 44.3046278,27.6505345 C44.3046278,30.7197342 43.4550457,33.5887027 42.0006421,36.0602427 L51.9994137,45.7906674 C53.500342,47.2903785 53.2899693,49.7477608 51.5210181,51.5164692 L51.5210181,51.5164692 Z M37.8437585,27.6505345 C37.8437585,21.9358567 33.3672703,17.4599827 27.6528196,17.4599827 C21.9383689,17.4599827 17.4608692,21.9358567 17.4608692,27.6505345 C17.4608692,33.3652124 21.9383689,37.8410864 27.6528196,37.8410864 C33.3672703,37.8410864 37.8437585,33.3652124 37.8437585,27.6505345 L37.8437585,27.6505345 Z M39.866573,27.6505345 C39.866573,34.4998555 34.5020692,39.8636232 27.6528196,39.8636232 C20.80357,39.8636232 15.4380548,34.4998555 15.4380548,27.6505345 C15.4380548,20.8022248 20.80357,15.4374458 27.6528196,15.4374458 C34.5020692,15.4374458 39.866573,20.8022248 39.866573,27.6505345 L39.866573,27.6505345 Z M24.25348,30.1594915 L22.2306656,30.1594915 L22.2306656,34.2045652 L26.2762944,34.2045652 L26.2762944,32.1820283 L24.25348,32.1820283 L24.25348,30.1594915 Z M22.2306656,25.1031494 L24.25348,25.1031494 L24.25348,23.0806125 L26.2762944,23.0806125 L26.2762944,21.0580757 L22.2306656,21.0580757 L22.2306656,25.1031494 Z M29.310516,23.0806125 L31.3333304,23.0806125 L31.3333304,25.1031494 L33.3561448,25.1031494 L33.3561448,21.0580757 L29.310516,21.0580757 L29.310516,23.0806125 Z M31.3333304,30.1594915 L33.3561448,30.1594915 L33.3561448,34.2045652 L29.310516,34.2045652 L29.310516,32.1820283 L31.3333304,32.1820283 L31.3333304,30.1594915 Z" id="Amazon-Rekognition-Icon_48_Squid" fill="#FFFFFF"></path>
    </g>
</svg>