<?xml version="1.0" encoding="UTF-8"?>
<svg width="64px" height="64px" viewBox="0 0 64 64" version="1.1" xmlns="http://www.w3.org/2000/svg" xmlns:xlink="http://www.w3.org/1999/xlink">
    <!-- Generator: Sketch 64 (93537) - https://sketch.com -->
    <title>Icon-Architecture/48/Arch_Amazon-Polly_48</title>
    <desc>Created with Sketch.</desc>
    <defs>
        <linearGradient x1="0%" y1="100%" x2="100%" y2="0%" id="linearGradient-1">
            <stop stop-color="#055F4E" offset="0%"></stop>
            <stop stop-color="#56C0A7" offset="100%"></stop>
        </linearGradient>
    </defs>
    <g id="Icon-Architecture/48/Arch_Amazon-Polly_48" stroke="none" stroke-width="1" fill="none" fill-rule="evenodd">
        <g id="Icon-Architecture-BG/48/Machine-Learning" fill="url(#linearGradient-1)">
            <rect id="Rectangle" x="0" y="0" width="64" height="64"></rect>
        </g>
        <path d="M32.0080962,31.0015713 L37.0100239,31.0015713 L37.0100239,29.0017142 L32.0080962,29.0017142 L32.0080962,31.0015713 Z M32.0080962,40.0009285 L34.0088673,40.0009285 L34.0088673,36.0012142 L32.0080962,36.0012142 L32.0080962,40.0009285 Z M23.0046264,27.001857 L26.005783,27.001857 L26.005783,25.0019999 L23.0046264,25.0019999 L23.0046264,27.001857 Z M14.0011566,35.0012856 L26.005783,35.0012856 L26.005783,33.0014285 L14.0011566,33.0014285 L14.0011566,35.0012856 Z M14.0011566,31.0015713 L30.0073251,31.0015713 L30.0073251,29.0017142 L14.0011566,29.0017142 L14.0011566,31.0015713 Z M29.0069396,41.0008571 L31.0077107,41.0008571 L31.0077107,34.001357 L29.0069396,34.001357 L29.0069396,41.0008571 Z M44.0127226,41.0008571 L46.0134937,41.0008571 L46.0134937,35.0012856 L44.0127226,35.0012856 L44.0127226,41.0008571 Z M41.011566,43.0007142 L43.0123371,43.0007142 L43.0123371,33.0014285 L41.011566,33.0014285 L41.011566,43.0007142 Z M38.0104094,42.0007857 L40.0111805,42.0007857 L40.0111805,34.001357 L38.0104094,34.001357 L38.0104094,42.0007857 Z M35.0092528,41.0008571 L37.0100239,41.0008571 L37.0100239,34.001357 L35.0092528,34.001357 L35.0092528,41.0008571 Z M52.8641338,51.2231269 L49.4108029,44.4686094 C50.6092648,42.4447539 51.2395077,40.1279194 51.2395077,37.7300907 C51.2395077,30.347618 45.2341933,24.3410471 37.8533489,24.3410471 C35.6645053,24.3410471 33.4986706,24.8770088 31.5899351,25.8919363 L32.5292971,27.6568102 C34.150922,26.7958717 35.990631,26.3409042 37.8533489,26.3409042 C44.1307681,26.3409042 49.2387366,31.4505392 49.2387366,37.7300907 C49.2387366,39.9369331 48.6124953,42.0617813 47.426038,43.872652 C47.2299625,44.1736305 47.2089544,44.5556032 47.3720172,44.8755803 L50.0040316,50.0242126 L44.7600106,47.4004 C44.4538926,47.246411 44.0877515,47.2624098 43.7926378,47.4403971 C41.9929442,48.533319 39.9401531,49.1112778 37.8533489,49.1112778 C32.1851644,49.1112778 27.3312938,44.8875795 26.5659989,39.2859796 L24.5822344,39.5579601 C25.4845821,46.1444897 31.1897808,51.1111349 37.8533489,51.1111349 C40.1202225,51.1111349 42.3540834,50.5321763 44.3478518,49.430255 L51.2405081,52.8790086 C51.4105736,52.9610028 51.5916434,53 51.7717128,53 C52.0978385,53 52.4189622,52.8700093 52.657054,52.6230269 C53.0221947,52.2450539 53.1032259,51.6780944 52.8641338,51.2231269 L52.8641338,51.2231269 Z M14.0011566,27.001857 L21.0038553,27.001857 L21.0038553,25.0019999 L14.0011566,25.0019999 L14.0011566,27.001857 Z M25.0053975,19.0024284 L30.3774678,19.0024284 L25.0053975,14.2297693 L25.0053975,19.0024284 Z M13.0007711,31.0015713 L11,31.0015713 L11,12.0029284 C11,11.4509678 11.4471723,11.0029998 12.0003855,11.0029998 L24.0050119,11 C24.2451045,11 24.4831962,11.0899936 24.6692679,11.2559817 L33.6727377,19.2554103 C33.8908218,19.4483965 34.0088673,19.7233769 34.0088673,20.002357 L34.0088673,23.0021427 L32.0080962,23.0021427 L32.0080962,21.0022856 L24.0050119,21.0022856 C23.4517987,21.0022856 23.0046264,20.5553175 23.0046264,20.002357 L23.0046264,12.9998572 L13.0007711,13.0028569 L13.0007711,31.0015713 Z M13.0007711,41.0008571 L24.0050119,41.0008571 L24.0050119,43.0007142 L12.0003855,43.0007142 C11.4471723,43.0007142 11,42.5537462 11,42.0007857 L11,35.0012856 L13.0007711,35.0012856 L13.0007711,41.0008571 Z" id="Amazon-Polly-Icon_48_Squid" fill="#FFFFFF"></path>
    </g>
</svg>