<?xml version="1.0" encoding="UTF-8"?>
<svg width="64px" height="64px" viewBox="0 0 64 64" version="1.1" xmlns="http://www.w3.org/2000/svg" xmlns:xlink="http://www.w3.org/1999/xlink">
    <title>Icon-Architecture/48/Arch_AWS-Colossus_48</title>
    <defs>
        <linearGradient x1="0%" y1="100%" x2="100%" y2="0%" id="linearGradient-1">
            <stop stop-color="#055F4E" offset="0%"></stop>
            <stop stop-color="#56C0A7" offset="100%"></stop>
        </linearGradient>
    </defs>
    <g id="Icon-Architecture/48/Arch_AWS-Colossus_48" stroke="none" stroke-width="1" fill="none" fill-rule="evenodd">
        <g id="Rectangle" fill="url(#linearGradient-1)">
            <rect x="0" y="0" width="64" height="64"></rect>
        </g>
        <g id="Icon-Service/48/AWS-Colossus_48" transform="translate(8.000000, 8.000000)" fill="#FFFFFF">
            <path d="M39,29 L41,29 L41,25 L39,25 L39,29 Z M44,37 L41,37 C40.447,37 40,36.552 40,36 L40,33 L37,33 L37,36 C37,36.552 36.553,37 36,37 L33,37 L33,40 L36,40 C36.553,40 37,40.448 37,41 L37,44 L40,44 L40,41 C40,40.448 40.447,40 41,40 L44,40 L44,37 Z M46,36 L46,41 C46,41.552 45.553,42 45,42 L42,42 L42,45 C42,45.552 41.553,46 41,46 L36,46 C35.447,46 35,45.552 35,45 L35,42 L32,42 C31.447,42 31,41.552 31,41 L31,36 C31,35.448 31.447,35 32,35 L35,35 L35,32 C35,31.448 35.447,31 36,31 L41,31 C41.553,31 42,31.448 42,32 L42,35 L45,35 C45.553,35 46,35.448 46,36 L46,36 Z M19,8 L29,8 L29,4 L19,4 L19,8 Z M17,9 L17,3 C17,2.448 17.447,2 18,2 L30,2 C30.553,2 31,2.448 31,3 L31,9 C31,9.552 30.553,10 30,10 L18,10 C17.447,10 17,9.552 17,9 L17,9 Z M9,6 C9,5.449 9.448,5 10,5 L15,5 L15,3 L10,3 C8.346,3 7,4.346 7,6 L7,18 L9,18 L9,6 Z M39,6 L39,18 L41,18 L41,6 C41,4.346 39.654,3 38,3 L33,3 L33,5 L38,5 C38.552,5 39,5.449 39,6 L39,6 Z M9,43 L9,25 L7,25 L7,43 C7,44.654 8.346,46 10,46 L32,46 L32,44 L10,44 C9.448,44 9,43.551 9,43 L9,43 Z M32.693,21 L29.937,13.649 C29.797,13.276 29.449,13.022 29.053,13.001 C28.67,12.981 28.284,13.197 28.105,13.553 L23.849,22.067 L19.813,16.419 C19.619,16.145 19.313,15.99 18.96,16.001 C18.623,16.014 18.316,16.196 18.143,16.485 L15.434,21 L2,21 L2,23 L16,23 C16.352,23 16.677,22.816 16.857,22.515 L19.073,18.822 L23.187,24.581 C23.375,24.845 23.679,25 24,25 C24.025,25 24.052,24.999 24.078,24.997 C24.428,24.97 24.737,24.761 24.895,24.447 L28.869,16.499 L31.063,22.351 C31.21,22.741 31.583,23 32,23 L46,23 L46,21 L32.693,21 Z M12,35 L26,35 L26,33 L12,33 L12,35 Z M12,40 L26,40 L26,38 L12,38 L12,40 Z" id="Fill-5"></path>
        </g>
    </g>
</svg>