<?xml version="1.0" encoding="UTF-8"?>
<svg width="64px" height="64px" viewBox="0 0 64 64" version="1.1" xmlns="http://www.w3.org/2000/svg" xmlns:xlink="http://www.w3.org/1999/xlink">
    <title>Icon-Architecture/48/Arch_TorchServe_48</title>
    <defs>
        <linearGradient x1="0%" y1="100%" x2="100%" y2="0%" id="linearGradient-1">
            <stop stop-color="#055F4E" offset="0%"></stop>
            <stop stop-color="#56C0A7" offset="100%"></stop>
        </linearGradient>
    </defs>
    <g id="Icon-Architecture/48/Arch_TorchServe_48" stroke="none" stroke-width="1" fill="none" fill-rule="evenodd">
        <g id="Rectangle" fill="url(#linearGradient-1)">
            <rect x="0" y="0" width="64" height="64"></rect>
        </g>
        <g id="Icon-Service/48/TorchServe_48" transform="translate(8.000000, 8.000000)" fill="#FFFFFF">
            <path d="M28.954,9.237 C28.954,10.112 29.666,10.825 30.542,10.825 C31.418,10.825 32.13,10.112 32.13,9.237 C32.13,8.362 31.418,7.649 30.542,7.649 C29.666,7.649 28.954,8.362 28.954,9.237 M26.954,9.237 C26.954,7.258 28.563,5.649 30.542,5.649 C32.52,5.649 34.13,7.258 34.13,9.237 C34.13,11.216 32.52,12.825 30.542,12.825 C28.563,12.825 26.954,11.216 26.954,9.237 M42.072,26.952 C42.072,37.173 33.757,45.488 23.536,45.488 C13.315,45.488 5,37.173 5,26.952 C5,21.877 7.011,17.14 10.663,13.615 L22.8,2 L24.183,3.445 L12.049,15.057 C8.794,18.199 7,22.424 7,26.952 C7,36.07 14.418,43.488 23.536,43.488 C32.654,43.488 40.072,36.07 40.072,26.952 C40.072,22.378 38.247,18.122 34.932,14.969 L36.31,13.52 C40.026,17.054 42.072,21.824 42.072,26.952" id="TorchServe-Icon_48_Squid"></path>
        </g>
    </g>
</svg>