<?xml version="1.0" encoding="UTF-8"?>
<svg width="64px" height="64px" viewBox="0 0 64 64" version="1.1" xmlns="http://www.w3.org/2000/svg" xmlns:xlink="http://www.w3.org/1999/xlink">
    <!-- Generator: Sketch 64 (93537) - https://sketch.com -->
    <title>Icon-Architecture/48/Arch_Amazon-Kendra_48</title>
    <desc>Created with Sketch.</desc>
    <defs>
        <linearGradient x1="0%" y1="100%" x2="100%" y2="0%" id="linearGradient-1">
            <stop stop-color="#055F4E" offset="0%"></stop>
            <stop stop-color="#56C0A7" offset="100%"></stop>
        </linearGradient>
    </defs>
    <g id="Icon-Architecture/48/Arch_Amazon-Kendra_48" stroke="none" stroke-width="1" fill="none" fill-rule="evenodd">
        <g id="Icon-Architecture-BG/48/Machine-Learning" fill="url(#linearGradient-1)">
            <rect id="Rectangle" x="0" y="0" width="64" height="64"></rect>
        </g>
        <path d="M29.0022541,14.0007501 L47.0041862,14.0007501 L47.0041862,12.0005001 L29.0022541,12.0005001 L29.0022541,14.0007501 Z M21.0013954,14.0007501 L23.0016101,14.0007501 L23.0016101,12.0005001 L21.0013954,12.0005001 L21.0013954,14.0007501 Z M17.0009661,14.0007501 L19.0011807,14.0007501 L19.0011807,12.0005001 L17.0009661,12.0005001 L17.0009661,14.0007501 Z M13.0005367,14.0007501 L15.0007514,14.0007501 L15.0007514,12.0005001 L13.0005367,12.0005001 L13.0005367,14.0007501 Z M44.1468796,39.6749594 C44.1468796,42.1872734 42.1786683,44.1555194 39.6663987,44.1555194 C37.1531289,44.1555194 35.1859178,42.1872734 35.1859178,39.6749594 C35.1859178,37.1626453 37.1531289,35.1933992 39.6663987,35.1933992 C42.1786683,35.1933992 44.1468796,37.1626453 44.1468796,39.6749594 L44.1468796,39.6749594 Z M46.1470942,39.6749594 C46.1470942,36.0405051 43.3007888,33.1931491 39.6663987,33.1931491 C36.0320086,33.1931491 33.1857031,36.0405051 33.1857031,39.6749594 C33.1857031,43.3094137 36.0320086,46.1557695 39.6663987,46.1557695 C43.3007888,46.1557695 46.1470942,43.3094137 46.1470942,39.6749594 L46.1470942,39.6749594 Z M53.8539214,52.2685336 L48.0222955,46.5938242 C47.589249,47.1158895 47.1081974,47.5959495 46.5861414,48.0290036 L52.2807526,53.8577322 C52.6097879,54.1847731 53.1678478,53.9327416 53.5458883,53.5546943 C53.9419309,53.1586448 54.1749559,52.5895737 53.8539214,52.2685336 L53.8539214,52.2685336 Z M39.6663987,48.5290661 C44.5479226,48.5290661 48.520349,44.5565696 48.520349,39.6749594 C48.520349,34.792349 44.5479226,30.8208526 39.6663987,30.8208526 C34.7838747,30.8208526 30.8124484,34.792349 30.8124484,39.6749594 C30.8124484,44.5565696 34.7838747,48.5290661 39.6663987,48.5290661 L39.6663987,48.5290661 Z M54.9600401,54.9698712 C54.2769668,55.6519565 53.4418772,56 52.6497922,56 C51.986721,56 51.3526529,55.7569696 50.8585999,55.263908 L44.9079613,49.1731466 C43.3537944,50.0352544 41.5666026,50.5293162 39.6663987,50.5293162 C33.6817564,50.5293162 28.8122337,45.6597075 28.8122337,39.6749594 C28.8122337,33.6892112 33.6817564,28.8206026 39.6663987,28.8206026 C45.651041,28.8206026 50.5205636,33.6892112 50.5205636,39.6749594 C50.5205636,41.5751969 50.0255105,43.3604201 49.1654182,44.9156145 L55.2580721,50.8443555 C56.3531896,51.9404926 56.2211755,53.7097137 54.9600401,54.9698712 L54.9600401,54.9698712 Z M10.0002147,16.0010001 L50.0045083,16.0010001 L50.0045083,11.000375 C50.0045083,10.4493062 49.5564602,10.00025 49.0044009,10.00025 L11.000322,10.00025 C10.4482628,10.00025 10.0002147,10.4493062 10.0002147,11.000375 L10.0002147,16.0010001 Z M33.6057482,51.0053757 L9.00010734,51.0053757 C8.44704798,51.0053757 8,50.5573197 8,50.0052507 L8,17.0011251 L8,11.000375 C8,9.34616827 9.34614448,8 11.000322,8 L49.0044009,8 C50.6585785,8 52.0047229,9.34616827 52.0047229,11.000375 L52.0047229,17.0011251 L52.0047229,36.0035004 L51.9797203,36.0035004 C51.5506742,34.5693212 50.8726014,33.2451556 50.0045083,32.0680085 L50.0045083,18.0012502 L10.0002147,18.0012502 L10.0002147,49.0051256 L30.8504525,49.0051256 C31.675541,49.7852232 32.5966399,50.4633079 33.6057482,51.0053757 L33.6057482,51.0053757 Z M13.0005367,27.0023753 L47.0041862,27.0023753 L47.0041862,25.0021253 L13.0005367,25.0021253 L13.0005367,27.0023753 Z M13.0005367,37.0036255 L13.0005367,39.0038755 L26.8460227,39.0038755 C26.8810265,38.3227903 26.9570346,37.6527066 27.0950494,37.0036255 L13.0005367,37.0036255 Z M13.0005367,31.0028754 L30.2053833,31.0028754 C29.6413227,31.6179522 29.1372686,32.2870359 28.6992216,33.0031254 L13.0005367,33.0031254 L13.0005367,31.0028754 Z" id="Amazon-Kendra_Icon_48_Squid" fill="#FFFFFF"></path>
    </g>
</svg>