<?xml version="1.0" encoding="UTF-8"?>
<svg width="64px" height="64px" viewBox="0 0 64 64" version="1.1" xmlns="http://www.w3.org/2000/svg" xmlns:xlink="http://www.w3.org/1999/xlink">
    <!-- Generator: Sketch 64 (93537) - https://sketch.com -->
    <title>Icon-Architecture/48/Arch_Amazon-Transcribe_48</title>
    <desc>Created with Sketch.</desc>
    <defs>
        <linearGradient x1="0%" y1="100%" x2="100%" y2="0%" id="linearGradient-1">
            <stop stop-color="#055F4E" offset="0%"></stop>
            <stop stop-color="#56C0A7" offset="100%"></stop>
        </linearGradient>
    </defs>
    <g id="Icon-Architecture/48/Arch_Amazon-Transcribe_48" stroke="none" stroke-width="1" fill="none" fill-rule="evenodd">
        <g id="Icon-Architecture-BG/48/Machine-Learning" fill="url(#linearGradient-1)">
            <rect id="Rectangle" x="0" y="0" width="64" height="64"></rect>
        </g>
        <path d="M32.0085559,24.0015911 L38.0062225,24.0015911 L38.0062225,22.0013638 L32.0085559,22.0013638 L32.0085559,24.0015911 Z M32.0085559,18.9710194 L40.0054447,18.9710194 L40.0054447,16.9707921 L32.0085559,16.9707921 L32.0085559,18.9710194 Z M38.0062225,28.0020457 L48.0023334,28.0020457 L48.0023334,26.0018184 L38.0062225,26.0018184 L38.0062225,28.0020457 Z M40.0054447,24.0015911 L48.0023334,24.0015911 L48.0023334,22.0013638 L40.0054447,22.0013638 L40.0054447,24.0015911 Z M52.0007778,43.0037504 L40.0054447,43.0037504 L40.0054447,45.0039777 L53.0003889,45.0039777 C53.5521742,45.0039777 54,44.5559268 54,44.0038641 L54,30.002273 L52.0007778,30.002273 L52.0007778,43.0037504 Z M50.3714117,18.0009092 L45.0035002,13.2273667 L45.0035002,18.0009092 L50.3714117,18.0009092 Z M54,19.0010228 L54,25.0017047 L52.0007778,25.0017047 L52.0007778,20.0011365 L44.0038891,20.0011365 C43.4511041,20.0011365 43.004278,19.5530856 43.004278,19.0010228 L43.004278,12.0002273 L30.0093337,12.0032276 L30.0093337,22.0013638 L28.0101116,22.0013638 L28.0101116,11.003114 C28.0101116,10.4510513 28.4569377,10.0030003 29.0097227,10.0030003 L44.0038891,10 C44.2437957,10 44.4807036,10.0860098 44.6676308,10.2520286 L53.6641307,18.2529378 C53.8810463,18.4469599 54,18.720991 54,19.0010228 L54,19.0010228 Z M16.0147784,41.0035231 L18.0140006,41.0035231 L18.0140006,35.0028412 L16.0147784,35.0028412 L16.0147784,41.0035231 Z M19.0136117,43.0037504 L21.0128339,43.0037504 L21.0128339,32.0025003 L19.0136117,32.0025003 L19.0136117,43.0037504 Z M22.012445,41.0035231 L24.0116672,41.0035231 L24.0116672,33.0026139 L22.012445,33.0026139 L22.012445,41.0035231 Z M25.0112783,44.0038641 L27.0105005,44.0038641 L27.0105005,31.0023866 L25.0112783,31.0023866 L25.0112783,44.0038641 Z M28.0101116,41.0035231 L30.0093337,41.0035231 L30.0093337,33.0026139 L28.0101116,33.0026139 L28.0101116,41.0035231 Z M31.0089448,44.0038641 L33.008167,44.0038641 L33.008167,31.0023866 L31.0089448,31.0023866 L31.0089448,44.0038641 Z M34.0077781,40.0034095 L36.0070003,40.0034095 L36.0070003,34.0027276 L34.0077781,34.0027276 L34.0077781,40.0034095 Z M36.1729358,44.4529151 L37.8402871,45.5550403 C35.2133091,49.5334924 30.6800728,52.0047733 26.0108894,52.0047733 C23.6108231,52.0047733 21.1387849,51.3476986 18.9836234,50.145562 L11.7944204,53.8689851 C11.6074931,53.9579952 11.4135686,54 11.2246421,54 C10.8937708,54 10.5768941,53.8699852 10.3419855,53.6249574 C9.97612782,53.2439141 9.89515932,52.6718491 10.1410636,52.2017957 L13.8606165,45.0549835 C12.6260968,43.08776 11.5555133,40.8945107 11.5555133,38.230208 C11.5555133,29.9852711 17.635148,24.0015911 26.0108894,24.0015911 C28.6418658,24.0015911 31.2428538,24.7446755 33.5309636,26.1498352 L32.4843708,27.8540289 C30.5401272,26.6598932 28.2410217,26.0018184 26.0108894,26.0018184 C19.8202979,26.0018184 13.5547355,30.2022957 13.5547355,38.230208 C13.5547355,40.5984771 14.6593058,42.6227071 15.8528414,44.4579157 C16.0497648,44.7609501 16.0677578,45.1459939 15.9008228,45.4660302 L13.0329385,50.9756563 L18.5537906,48.1163314 C18.8636701,47.954313 19.2345258,47.9683146 19.5344091,48.1513354 C21.4606597,49.3294693 23.8207415,50.004546 26.0108894,50.004546 C30.016331,50.004546 33.9108158,47.8773042 36.1729358,44.4529151 L36.1729358,44.4529151 Z" id="Amazon-Transcribe_Icon_48_Squid" fill="#FFFFFF"></path>
    </g>
</svg>