<?xml version="1.0" encoding="UTF-8"?>
<svg width="64px" height="64px" viewBox="0 0 64 64" version="1.1" xmlns="http://www.w3.org/2000/svg" xmlns:xlink="http://www.w3.org/1999/xlink">
    <!-- Generator: Sketch 64 (93537) - https://sketch.com -->
    <title>Icon-Architecture/48/Arch_Amazon-Comprehend_48</title>
    <desc>Created with Sketch.</desc>
    <defs>
        <linearGradient x1="0%" y1="100%" x2="100%" y2="0%" id="linearGradient-1">
            <stop stop-color="#055F4E" offset="0%"></stop>
            <stop stop-color="#56C0A7" offset="100%"></stop>
        </linearGradient>
    </defs>
    <g id="Icon-Architecture/48/Arch_Amazon-Comprehend_48" stroke="none" stroke-width="1" fill="none" fill-rule="evenodd">
        <g id="Icon-Architecture-BG/48/Machine-Learning" fill="url(#linearGradient-1)">
            <rect id="Rectangle" x="0" y="0" width="64" height="64"></rect>
        </g>
        <path d="M42.9998061,54 L48.9997708,54 L48.9997708,52.0688399 L42.9998061,52.0688399 L42.9998061,54 Z M14.9999706,42.0524495 L26.9999001,42.0524495 L26.9999001,40.0491714 L14.9999706,40.0491714 L14.9999706,42.0524495 Z M27.9998942,37.0442542 L33.999859,37.0442542 L33.999859,35.0409761 L27.9998942,35.0409761 L27.9998942,37.0442542 Z M14.9999706,37.0442542 L25.999906,37.0442542 L25.999906,35.0409761 L14.9999706,35.0409761 L14.9999706,37.0442542 Z M14.9999706,22.0196685 L24.9999119,22.0196685 L24.9999119,20.0163905 L14.9999706,20.0163905 L14.9999706,22.0196685 Z M49.1137702,44.3371881 C48.6797727,44.6396831 48.3257748,44.9271535 48.0617763,45.6383172 C48.0207766,45.7494992 47.9997767,45.8676926 47.9997767,45.9868876 L47.9997767,48.9918048 L46.9997826,48.9918048 L46.9997826,42.9819705 L48.9997708,42.9819705 L48.9997708,41.0508104 L42.9998061,41.0508104 L42.9998061,42.9819705 L44.9997943,42.9819705 L44.9997943,48.9918048 L43.9998002,48.9918048 L43.9998002,45.9868876 C43.9998002,45.8676926 43.9788003,45.7494992 43.9378006,45.6383172 C43.6738021,44.9271535 43.3198042,44.6396831 42.8848068,44.3371881 C40.7408194,42.8487525 39.6698257,40.2995811 40.0908232,37.6853032 C40.5568204,34.7815516 43.013806,32.4437261 45.9407888,32.108177 L46.0587881,32.108177 C48.9857709,32.4437261 51.4427565,34.7815516 51.9087537,37.6853032 C52.3297513,40.2995811 51.2587576,42.8487525 49.1137702,44.3371881 L49.1137702,44.3371881 Z M53.8837421,37.366782 C53.2737457,33.57057 50.0507646,30.5185759 46.2187872,30.1109088 C46.1837874,30.1069022 46.1477876,30.1048989 46.1127878,30.1048989 L45.8867891,30.1048989 C45.8517893,30.1048989 45.8157895,30.1069022 45.7807897,30.1109088 C41.9488123,30.5185759 38.7258312,33.57057 38.1158348,37.366782 C37.571838,40.7503187 38.9628298,44.051721 41.7448135,45.9838827 C41.9028125,46.0930614 41.9618122,46.1341286 41.999812,46.1922236 L41.999812,49.9934438 C41.999812,50.5463486 42.4468093,50.9950829 42.9998061,50.9950829 L48.9997708,50.9950829 C49.5527676,50.9950829 49.9997649,50.5463486 49.9997649,49.9934438 L49.9997649,46.1922236 C50.0377647,46.1341286 50.0967644,46.0930614 50.2537635,45.9838827 C53.0367471,44.051721 54.4277389,40.7503187 53.8837421,37.366782 L53.8837421,37.366782 Z M14.9999706,32.036059 L33.999859,32.036059 L33.999859,30.0327809 L14.9999706,30.0327809 L14.9999706,32.036059 Z M21.9999295,27.0278638 L33.999859,27.0278638 L33.999859,25.0245857 L21.9999295,25.0245857 L21.9999295,27.0278638 Z M14.9999706,27.0278638 L19.9999412,27.0278638 L19.9999412,25.0245857 L14.9999706,25.0245857 L14.9999706,27.0278638 Z M28.9998884,13.2503187 L35.3948508,19.0147514 L28.9998884,19.0147514 L28.9998884,13.2503187 Z M37.9998355,50.0655618 L11.9999882,50.0655618 L11.9999882,12.0072846 L26.9999001,12.0032781 L26.9999001,20.0163905 C26.9999001,20.5692952 27.4468975,21.0180295 27.9998942,21.0180295 L36.9998413,21.0180295 L36.9998413,31.03442 L38.9998296,31.03442 L38.9998296,20.0163905 L38.9918296,20.0163905 C38.9918296,19.7379348 38.8838303,19.465489 38.6688315,19.2721726 L28.6688903,10.2574212 C28.4808914,10.0881442 28.2418928,10.0100164 27.9998942,10.0100164 L27.9998942,10 L11,10.0040066 C10.4469974,10.0040066 10,10.4527408 10,11.0056456 L10,51.0672009 C10,51.6201056 10.4469974,52.0688399 11,52.0688399 L38.9998296,52.0688399 C39.5528263,52.0688399 39.9998237,51.6201056 39.9998237,51.0672009 L39.9998237,47.0606447 L37.9998355,47.0606447 L37.9998355,50.0655618 Z" id="Amazon-Comprehend_Icon_48_Squid" fill="#FFFFFF"></path>
    </g>
</svg>