<?xml version="1.0" encoding="UTF-8"?>
<svg width="64px" height="64px" viewBox="0 0 64 64" version="1.1" xmlns="http://www.w3.org/2000/svg" xmlns:xlink="http://www.w3.org/1999/xlink">
    <title>Icon-Architecture/48/Arch_CN-Lyra_48</title>
    <defs>
        <linearGradient x1="0%" y1="100%" x2="100%" y2="0%" id="linearGradient-1">
            <stop stop-color="#055F4E" offset="0%"></stop>
            <stop stop-color="#56C0A7" offset="100%"></stop>
        </linearGradient>
    </defs>
    <g id="Icon-Architecture/48/Arch_CN-Lyra_48" stroke="none" stroke-width="1" fill="none" fill-rule="evenodd">
        <g id="Rectangle" fill="url(#linearGradient-1)">
            <rect x="0" y="0" width="64" height="64"></rect>
        </g>
        <g id="Icon-Service/48/CN-Lyra_48" transform="translate(8.000000, 8.000000)" fill="#FFFFFF">
            <path d="M8,9.5 C8,8.673 8.673,8 9.5,8 C10.327,8 11,8.673 11,9.5 C11,10.327 10.327,11 9.5,11 C8.673,11 8,10.327 8,9.5 L8,9.5 Z M13,9.5 C13,7.57 11.43,6 9.5,6 C7.57,6 6,7.57 6,9.5 C6,11.43 7.57,13 9.5,13 C11.43,13 13,11.43 13,9.5 L13,9.5 Z M39.5,41 C37.57,41 36,39.43 36,37.5 C36,35.57 37.57,34 39.5,34 C41.43,34 43,35.57 43,37.5 C43,39.43 41.43,41 39.5,41 L39.5,41 Z M25,22 C26.103,22 27,22.897 27,24 C27,25.103 26.103,26 25,26 C23.897,26 23,25.103 23,24 C23,22.897 23.897,22 25,22 L25,22 Z M21.556,22.002 C21.211,22.592 21,23.269 21,24 C21,26.206 22.794,28 25,28 C27.206,28 29,26.206 29,24 C29,21.794 27.206,20 25,20 C24.253,20 23.562,20.219 22.963,20.577 L19.869,17.87 C21.26,16.705 23.049,16 25,16 C29.411,16 33,19.589 33,24 C33,28.411 29.411,32 25,32 C20.589,32 17,28.411 17,24 C17,22.26 17.564,20.653 18.512,19.338 L21.556,22.002 Z M6,24 C6,21.469 6.508,19.024 7.47,16.713 C8.116,16.896 8.796,17 9.5,17 C11.216,17 12.794,16.415 14.059,15.442 L17.004,18.02 C15.752,19.69 15,21.756 15,24 C15,29.514 19.486,34 25,34 C30.514,34 35,29.514 35,24 C35,18.486 30.514,14 25,14 C22.449,14 20.125,14.968 18.357,16.546 L15.471,14.021 C16.426,12.762 17,11.199 17,9.5 C17,8.616 16.838,7.771 16.557,6.983 C21.699,4.435 28.068,4.403 33.242,6.887 C33.086,7.397 33,7.938 33,8.5 C33,11.533 35.468,14 38.5,14 C39.326,14 40.106,13.812 40.811,13.484 C42.891,16.603 44,20.217 44,24 C44,26.988 43.287,29.935 41.947,32.582 C41.209,32.213 40.38,32 39.5,32 C36.468,32 34,34.467 34,37.5 C34,38.519 34.283,39.471 34.769,40.29 C31.822,42.061 28.472,43 25,43 C14.523,43 6,34.477 6,24 L6,24 Z M4,9.5 C4,6.467 6.468,4 9.5,4 C12.532,4 15,6.467 15,9.5 C15,12.533 12.532,15 9.5,15 C6.468,15 4,12.533 4,9.5 L4,9.5 Z M38.5,5 C40.43,5 42,6.57 42,8.5 C42,10.43 40.43,12 38.5,12 C36.57,12 35,10.43 35,8.5 C35,6.57 36.57,5 38.5,5 L38.5,5 Z M46,24 C46,19.799 44.763,15.787 42.44,12.329 C43.403,11.337 44,9.988 44,8.5 C44,5.467 41.532,3 38.5,3 C36.744,3 35.181,3.831 34.173,5.116 C28.432,2.336 21.353,2.365 15.641,5.206 C14.282,3.271 12.039,2 9.5,2 C5.364,2 2,5.364 2,9.5 C2,12.216 3.456,14.592 5.623,15.908 C4.551,18.474 4,21.191 4,24 C4,35.58 13.421,45 25,45 C28.956,45 32.77,43.893 36.099,41.813 C37.035,42.554 38.216,43 39.5,43 C42.532,43 45,40.533 45,37.5 C45,36.077 44.452,34.783 43.563,33.806 C45.152,30.798 46,27.423 46,24 L46,24 Z" id="Fill-3"></path>
        </g>
    </g>
</svg>