<?xml version="1.0" encoding="UTF-8"?>
<svg width="64px" height="64px" viewBox="0 0 64 64" version="1.1" xmlns="http://www.w3.org/2000/svg" xmlns:xlink="http://www.w3.org/1999/xlink">
    <title>Icon-Architecture/48/Arch_AWS-Deep-Learning-AMIs_48</title>
    <defs>
        <linearGradient x1="0%" y1="100%" x2="100%" y2="0%" id="linearGradient-1">
            <stop stop-color="#055F4E" offset="0%"></stop>
            <stop stop-color="#56C0A7" offset="100%"></stop>
        </linearGradient>
    </defs>
    <g id="Icon-Architecture/48/Arch_AWS-Deep-Learning-AMIs_48" stroke="none" stroke-width="1" fill="none" fill-rule="evenodd">
        <g id="Rectangle" fill="url(#linearGradient-1)">
            <rect x="0" y="0" width="64" height="64"></rect>
        </g>
        <g id="Icon-Service/48/AWS-Deep-Learning-AMIs_48" transform="translate(8.000000, 8.000000)" fill="#FFFFFF">
            <path d="M37.771,24.952 C37.197,25.548 36.246,25.566 35.651,24.994 C35.362,24.716 35.199,24.343 35.191,23.942 C35.183,23.541 35.332,23.162 35.609,22.873 C35.903,22.568 36.296,22.414 36.69,22.414 C37.064,22.414 37.439,22.553 37.729,22.831 C38.018,23.109 38.181,23.483 38.189,23.884 C38.197,24.284 38.048,24.663 37.771,24.952 L37.771,24.952 Z M34.167,21.487 C32.83,22.878 32.874,25.098 34.264,26.435 C34.942,27.087 35.816,27.41 36.689,27.41 C37.609,27.41 38.527,27.052 39.212,26.339 C39.861,25.665 40.208,24.779 40.189,23.844 C40.17,22.91 39.79,22.038 39.116,21.39 C37.724,20.053 35.503,20.097 34.167,21.487 L34.167,21.487 Z M42.803,27.551 L40.702,27.13 C40.423,27.074 40.141,27.138 39.915,27.304 L38.863,28.075 C38.638,28.239 38.493,28.489 38.46,28.765 L38.211,30.88 L35.079,30.877 L34.834,28.779 C34.802,28.504 34.659,28.255 34.436,28.09 L33.371,27.301 C33.144,27.133 32.856,27.068 32.58,27.124 L30.497,27.541 L29.531,24.56 L31.482,23.665 C31.736,23.549 31.929,23.332 32.015,23.067 L32.416,21.84 C32.502,21.574 32.474,21.284 32.337,21.04 L31.288,19.171 L33.824,17.331 L35.265,18.896 C35.456,19.103 35.703,19.195 36.006,19.219 L37.332,19.211 C37.609,19.209 37.874,19.093 38.061,18.889 L39.492,17.336 L42.025,19.18 L40.979,21.04 C40.843,21.282 40.814,21.57 40.898,21.834 L41.293,23.074 C41.379,23.342 41.574,23.561 41.83,23.679 L43.773,24.572 L42.803,27.551 Z M45.416,23.126 L43.065,22.045 L42.936,21.64 L44.205,19.384 C44.453,18.942 44.331,18.384 43.92,18.085 L39.948,15.195 C39.537,14.897 38.969,14.952 38.625,15.326 L36.885,17.213 L36.437,17.216 L34.692,15.322 C34.347,14.948 33.779,14.893 33.37,15.19 L29.392,18.075 C28.981,18.373 28.859,18.932 29.107,19.374 L30.378,21.637 L30.25,22.03 L27.888,23.114 C27.427,23.325 27.198,23.848 27.354,24.33 L28.869,29.004 C29.025,29.487 29.514,29.775 30.016,29.677 L32.538,29.172 L32.898,29.44 L33.195,31.992 C33.253,32.495 33.68,32.876 34.187,32.876 L39.1,32.881 L39.101,32.881 C39.608,32.881 40.035,32.502 40.094,31.998 L40.396,29.431 L40.741,29.178 L43.283,29.687 C43.773,29.785 44.272,29.498 44.43,29.016 L45.951,24.344 C46.108,23.861 45.878,23.338 45.416,23.126 L45.416,23.126 Z M39.5,44 C38.121,44 37,42.878 37,41.5 C37,40.121 38.121,39 39.5,39 C40.878,39 42,40.121 42,41.5 C42,42.878 40.878,44 39.5,44 L39.5,44 Z M15.5,43.999 C14.122,43.999 13,42.878 13,41.499 C13,40.121 14.122,39 15.5,39 C16.878,39 18,40.121 18,41.499 C18,42.878 16.878,43.999 15.5,43.999 L15.5,43.999 Z M9.345,27.456 C9.507,27.323 9.662,27.184 9.804,27.03 L15,29.827 L15,37.051 C14.732,37.081 14.473,37.132 14.221,37.207 L9.345,27.456 Z M4,23.999 C4,22.621 5.121,21.499 6.5,21.499 C7.878,21.499 9,22.621 9,23.999 C9,25.378 7.878,26.499 6.5,26.499 C5.121,26.499 4,25.378 4,23.999 L4,23.999 Z M14.221,10.792 C14.473,10.868 14.732,10.919 15,10.949 L15,18.172 L9.804,20.97 C9.663,20.815 9.507,20.677 9.346,20.543 L14.221,10.792 Z M15.5,4.001 C16.878,4.001 18,5.122 18,6.5 C18,7.879 16.878,9 15.5,9 C14.122,9 13,7.879 13,6.5 C13,5.122 14.122,4.001 15.5,4.001 L15.5,4.001 Z M39.499,4 C40.877,4 41.999,5.121 41.999,6.499 C41.999,7.878 40.877,8.999 39.499,8.999 C38.121,8.999 37,7.878 37,6.499 C37,5.121 38.121,4 39.499,4 L39.499,4 Z M24.481,13.067 L19.65,8.236 C19.812,7.85 19.901,7.431 19.949,7 L35.05,7 C35.064,7.119 35.064,7.241 35.086,7.356 L24.481,13.067 Z M17,17.095 L17,10.723 C17.541,10.531 18.03,10.24 18.454,9.868 L22.642,14.056 L17,17.095 Z M23.013,34.142 L18.519,38.186 C18.082,37.787 17.568,37.479 17,37.276 L17,30.905 L23.013,34.142 Z M35.086,40.643 C35.064,40.759 35.063,40.881 35.05,41 L19.949,41 C19.904,40.596 19.819,40.204 19.673,39.839 L24.883,35.15 L35.086,40.643 Z M39.5,37 C38.028,37 36.731,37.72 35.91,38.816 L26.462,33.729 L28.668,31.743 L27.331,30.257 L24.591,32.722 L17,28.634 L17,27 L15,27 L15,27.556 L10.789,25.289 C10.818,25.192 10.856,25.099 10.878,25 L26,25 L26,23 L10.878,23 C10.856,22.9 10.818,22.807 10.789,22.71 L15,20.443 L15,21 L17,21 L17,19.366 L24.119,15.533 L27.292,18.707 L28.707,17.293 L25.957,14.543 L35.91,9.183 C36.731,10.279 38.028,10.999 39.499,10.999 C41.98,10.999 43.999,8.98 43.999,6.499 C43.999,4.018 41.98,2 39.499,2 C37.546,2 35.897,3.258 35.276,5 L19.723,5 C19.101,3.258 17.453,2.001 15.5,2.001 C13.019,2.001 11,4.019 11,6.5 C11,7.814 11.576,8.986 12.476,9.809 L7.562,19.64 C7.219,19.556 6.867,19.499 6.5,19.499 C4.018,19.499 2,21.518 2,23.999 C2,26.481 4.018,28.499 6.5,28.499 C6.867,28.499 7.219,28.443 7.561,28.359 L12.476,38.19 C11.576,39.014 11,40.186 11,41.499 C11,43.98 13.019,45.999 15.5,45.999 C17.453,45.999 19.101,44.742 19.723,43 L35.276,43 C35.897,44.742 37.546,46 39.5,46 C41.981,46 44,43.981 44,41.5 C44,39.018 41.981,37 39.5,37 L39.5,37 Z" id="AWS-Deep-Learning-AMIs_48_Squid"></path>
        </g>
    </g>
</svg>