<?xml version="1.0" encoding="UTF-8"?>
<svg width="64px" height="64px" viewBox="0 0 64 64" version="1.1" xmlns="http://www.w3.org/2000/svg" xmlns:xlink="http://www.w3.org/1999/xlink">
    <title>Icon-Architecture/48/Arch_Amazon-Monitron_48</title>
    <defs>
        <linearGradient x1="0%" y1="100%" x2="100%" y2="0%" id="linearGradient-1">
            <stop stop-color="#055F4E" offset="0%"></stop>
            <stop stop-color="#56C0A7" offset="100%"></stop>
        </linearGradient>
    </defs>
    <g id="Icon-Architecture/48/Arch_Amazon-Monitron_48" stroke="none" stroke-width="1" fill="none" fill-rule="evenodd">
        <g id="Rectangle" fill="url(#linearGradient-1)">
            <rect x="0" y="0" width="64" height="64"></rect>
        </g>
        <g id="Icon-Service/48/Amazon-Monitron_48" transform="translate(8.000000, 8.000000)" fill="#FFFFFF">
            <path d="M24,12 C30.28,12 35.439,16.851 35.95,23 L31.762,23 L28.295,14.519 C28.138,14.136 27.758,13.9 27.349,13.897 C26.936,13.906 26.57,14.168 26.429,14.557 L20.94,29.716 L18.029,23.572 C17.864,23.223 17.512,23 17.125,23 L12.051,23 C12.562,16.851 17.721,12 24,12 L24,12 Z M24,36 C17.721,36 12.562,31.15 12.051,25 L16.493,25 L20.16,32.74 C20.332,33.105 20.687,33.324 21.111,33.311 C21.513,33.291 21.866,33.032 22.003,32.652 L27.426,17.678 L30.164,24.379 C30.318,24.755 30.684,25 31.09,25 L35.95,25 C35.439,31.15 30.28,36 24,36 L24,36 Z M10.051,25 C10.567,32.253 16.619,38 24,38 C31.382,38 37.434,32.253 37.95,25 L45,25 C45.553,25 46,24.552 46,24 L46,19.876 C46,18.842 45.16,18 44.125,18 L41.415,18 C41.107,17.016 40.709,16.059 40.228,15.141 L42.146,13.223 C42.877,12.492 42.877,11.302 42.146,10.571 L37.429,5.853 C36.698,5.123 35.507,5.124 34.778,5.854 L32.86,7.773 C31.94,7.291 30.984,6.893 30,6.585 L30,3.876 C30,2.842 29.16,2 28.125,2 L19.875,2 C18.841,2 18,2.842 18,3.876 L18,6.585 C17.017,6.893 16.061,7.291 15.141,7.773 L13.223,5.854 C12.493,5.124 11.303,5.124 10.571,5.854 L5.855,10.571 C5.123,11.302 5.123,12.492 5.855,13.223 L7.773,15.141 C7.291,16.059 6.894,17.016 6.585,18 L3.875,18 C2.841,18 2,18.842 2,19.876 L2,21 L4,21 L4,20 L7.337,20 C7.791,20 8.188,19.695 8.304,19.256 C8.654,17.935 9.183,16.66 9.876,15.469 C10.105,15.077 10.04,14.58 9.719,14.259 L7.357,11.897 L11.897,7.356 L14.259,9.718 C14.581,10.04 15.076,10.104 15.469,9.876 C16.663,9.181 17.937,8.653 19.256,8.304 C19.695,8.188 20,7.791 20,7.337 L20,4 L28,4 L28,7.337 C28,7.791 28.306,8.188 28.745,8.304 C30.064,8.653 31.338,9.181 32.532,9.876 C32.924,10.104 33.421,10.04 33.742,9.718 L36.104,7.356 L40.644,11.897 L38.282,14.259 C37.96,14.58 37.896,15.077 38.124,15.469 C38.818,16.66 39.347,17.935 39.697,19.256 C39.813,19.695 40.209,20 40.664,20 L44,20 L44,23 L37.95,23 C37.434,15.747 31.382,10 24,10 C16.619,10 10.567,15.747 10.051,23 L3,23 C2.448,23 2,23.448 2,24 L2,28.125 C2,29.159 2.841,30 3.875,30 L6.797,30 C7.124,30.981 7.546,31.935 8.056,32.851 L6.044,34.735 C5.667,35.088 5.451,35.587 5.451,36.104 C5.452,36.621 5.667,37.119 6.044,37.472 L11.127,42.228 C11.844,42.902 12.97,42.901 13.691,42.228 L15.856,40.202 C16.865,40.703 17.918,41.114 19,41.429 L19,44.125 C19,45.159 19.841,46 20.875,46 L28.125,46 C29.16,46 30,45.159 30,44.125 L30,41.429 C31.082,41.114 32.136,40.703 33.145,40.202 L35.311,42.229 C36.031,42.901 37.157,42.902 37.882,42.219 L42.729,37.568 C43.107,37.214 43.324,36.715 43.324,36.197 C43.324,35.68 43.107,35.181 42.775,34.874 L40.919,32.897 C41.441,31.967 41.871,30.997 42.204,30 L44.125,30 C45.16,30 46,29.159 46,28.125 L46,27 L44,27 L44,28 L41.465,28 C41.018,28 40.624,28.298 40.503,28.728 C40.131,30.045 39.567,31.316 38.827,32.506 C38.587,32.891 38.637,33.389 38.948,33.719 L41.272,36.194 L36.59,40.687 L33.996,38.259 C33.679,37.965 33.211,37.905 32.834,38.111 C31.551,38.809 30.18,39.341 28.76,39.693 C28.314,39.803 28,40.203 28,40.663 L28,44 L21,44 L21,40.663 C21,40.203 20.687,39.803 20.241,39.693 C18.821,39.341 17.45,38.809 16.166,38.111 C15.789,37.904 15.321,37.965 15.005,38.259 L12.409,40.688 L7.508,36.103 L10.008,33.764 C10.356,33.439 10.426,32.912 10.174,32.506 C9.434,31.316 8.87,30.045 8.498,28.728 C8.376,28.298 7.983,28 7.536,28 L4,28 L4,25 L10.051,25 Z" id="Fill-3"></path>
        </g>
    </g>
</svg>