<?xml version="1.0" encoding="UTF-8"?>
<svg width="64px" height="64px" viewBox="0 0 64 64" version="1.1" xmlns="http://www.w3.org/2000/svg" xmlns:xlink="http://www.w3.org/1999/xlink">
    <!-- Generator: Sketch 64 (93537) - https://sketch.com -->
    <title>Icon-Architecture/48/Arch_Amazon-Neuron-ML-SDK_48</title>
    <desc>Created with Sketch.</desc>
    <defs>
        <linearGradient x1="0%" y1="100%" x2="100%" y2="0%" id="linearGradient-1">
            <stop stop-color="#055F4E" offset="0%"></stop>
            <stop stop-color="#56C0A7" offset="100%"></stop>
        </linearGradient>
    </defs>
    <g id="Icon-Architecture/48/Arch_Amazon-Neuron-ML-SDK_48" stroke="none" stroke-width="1" fill="none" fill-rule="evenodd">
        <g id="Icon-Architecture-BG/48/Machine-Learning" fill="url(#linearGradient-1)">
            <rect id="Rectangle" x="0" y="0" width="64" height="64"></rect>
        </g>
        <path d="M49,42.412 L32,51.856 L15,42.412 L15,21.589 L32,12.144 L49,21.589 L49,42.412 Z M50.485,20.126 L32.485,10.126 C32.185,9.958 31.815,9.958 31.515,10.126 L13.515,20.126 C13.197,20.303 13,20.637 13,21 L13,43 C13,43.364 13.197,43.698 13.515,43.874 L31.515,53.874 C31.665,53.958 31.833,54 32,54 C32.167,54 32.335,53.958 32.485,53.874 L50.485,43.874 C50.803,43.698 51,43.364 51,43 L51,21 C51,20.637 50.803,20.303 50.485,20.126 L50.485,20.126 Z M33.5,20.5 C33.5,21.328 32.827,22 32,22 C31.173,22 30.5,21.328 30.5,20.5 C30.5,19.673 31.173,19 32,19 C32.827,19 33.5,19.673 33.5,20.5 L33.5,20.5 Z M44,29.5 C44,30.328 43.327,31 42.5,31 C41.673,31 41,30.328 41,29.5 C41,28.673 41.673,28 42.5,28 C43.327,28 44,28.673 44,29.5 L44,29.5 Z M38.5,43 C37.673,43 37,42.328 37,41.5 C37,40.673 37.673,40 38.5,40 C39.327,40 40,40.673 40,41.5 C40,42.328 39.327,43 38.5,43 L38.5,43 Z M35.094,35.93 L36.602,38.568 C36.454,38.664 36.32,38.776 36.189,38.892 L33.666,37 L35.094,35.93 Z M27.811,38.892 C27.68,38.776 27.546,38.664 27.398,38.568 L28.906,35.93 L30.334,37 L27.811,38.892 Z M25.5,43 C24.673,43 24,42.328 24,41.5 C24,40.673 24.673,40 25.5,40 C26.327,40 27,40.673 27,41.5 C27,42.328 26.327,43 25.5,43 L25.5,43 Z M20,29.5 C20,28.673 20.673,28 21.5,28 C22.327,28 23,28.673 23,29.5 C23,30.328 22.327,31 21.5,31 C20.673,31 20,30.328 20,29.5 L20,29.5 Z M25.415,38.009 C25.197,38.014 24.982,38.034 24.777,38.078 L23.195,32.543 C23.417,32.419 23.623,32.275 23.811,32.108 L27.294,34.721 L25.415,38.009 Z M31,26.163 C29.56,26.597 28.5,27.92 28.5,29.5 C28.5,30.25 28.742,30.941 29.145,31.512 L29.132,31.504 L28.294,32.971 L24.867,30.402 C24.945,30.112 25,29.814 25,29.5 C25,28.684 24.707,27.942 24.237,27.346 L29.912,23.292 C30.236,23.536 30.603,23.718 31,23.837 L31,26.163 Z M30.723,32.751 C31.119,32.908 31.549,33 32,33 C32.451,33 32.881,32.908 33.277,32.751 L34.094,34.18 L32,35.751 L29.906,34.18 L30.723,32.751 Z M32,28 C32.827,28 33.5,28.673 33.5,29.5 C33.5,30.328 32.827,31 32,31 C31.173,31 30.5,30.328 30.5,29.5 C30.5,28.673 31.173,28 32,28 L32,28 Z M38.585,38.009 L36.706,34.721 L40.189,32.108 C40.377,32.275 40.583,32.419 40.805,32.543 L39.223,38.078 C39.018,38.034 38.803,38.014 38.585,38.009 L38.585,38.009 Z M34.088,23.292 L39.763,27.346 C39.293,27.942 39,28.684 39,29.5 C39,29.814 39.055,30.112 39.133,30.402 L35.706,32.971 L34.868,31.504 L34.855,31.512 C35.258,30.941 35.5,30.25 35.5,29.5 C35.5,27.92 34.44,26.597 33,26.163 L33,23.837 C33.397,23.718 33.764,23.536 34.088,23.292 L34.088,23.292 Z M28.5,20.5 C28.5,20.918 28.586,21.313 28.721,21.685 L22.466,26.153 C22.157,26.063 21.837,26 21.5,26 C19.57,26 18,27.571 18,29.5 C18,31.34 19.432,32.837 21.237,32.974 L22.982,39.08 C22.377,39.709 22,40.56 22,41.5 C22,43.43 23.57,45 25.5,45 C27.43,45 29,43.43 29,41.5 C29,41.187 28.945,40.889 28.867,40.599 L32,38.25 L35.133,40.599 C35.055,40.889 35,41.187 35,41.5 C35,43.43 36.57,45 38.5,45 C40.43,45 42,43.43 42,41.5 C42,40.56 41.623,39.709 41.018,39.08 L42.763,32.974 C44.568,32.837 46,31.34 46,29.5 C46,27.571 44.43,26 42.5,26 C42.163,26 41.843,26.063 41.534,26.153 L35.279,21.685 C35.414,21.313 35.5,20.918 35.5,20.5 C35.5,18.571 33.93,17 32,17 C30.07,17 28.5,18.571 28.5,20.5 L28.5,20.5 Z" id="Amazon-Neuron-ML-SDK_Icon_48_Squid" fill="#FFFFFF"></path>
    </g>
</svg>