<?xml version="1.0" encoding="UTF-8"?>
<svg width="80px" height="80px" viewBox="0 0 80 80" version="1.1" xmlns="http://www.w3.org/2000/svg" xmlns:xlink="http://www.w3.org/1999/xlink">
    <!-- Generator: Sketch 64 (93537) - https://sketch.com -->
    <title>Icon-Architecture/64/Arch_Amazon-Cloud-Directory_64</title>
    <desc>Created with Sketch.</desc>
    <defs>
        <linearGradient x1="0%" y1="100%" x2="100%" y2="0%" id="linearGradient-1">
            <stop stop-color="#4D27A8" offset="0%"></stop>
            <stop stop-color="#A166FF" offset="100%"></stop>
        </linearGradient>
    </defs>
    <g id="Icon-Architecture/64/Arch_Amazon-Cloud-Directory_64" stroke="none" stroke-width="1" fill="none" fill-rule="evenodd">
        <g id="Icon-Architecture-BG/64/Networking-Content-Delivery" fill="url(#linearGradient-1)">
            <rect id="Rectangle" x="0" y="0" width="80" height="80"></rect>
        </g>
        <path d="M50,58.031 C48.897,58.031 48,57.134 48,56.031 C48,54.928 48.897,54.031 50,54.031 C51.103,54.031 52,54.928 52,56.031 C52,57.134 51.103,58.031 50,58.031 M42,56.031 C42,57.134 41.103,58.031 40,58.031 C38.897,58.031 38,57.134 38,56.031 C38,54.928 38.897,54.031 40,54.031 C41.103,54.031 42,54.928 42,56.031 M32,56.031 C32,57.134 31.103,58.031 30,58.031 C28.897,58.031 28,57.134 28,56.031 C28,54.928 28.897,54.031 30,54.031 C31.103,54.031 32,54.928 32,56.031 M36,37.031 C36,34.825 37.794,33.031 40,33.031 C42.206,33.031 44,34.825 44,37.031 C44,39.237 42.206,41.031 40,41.031 C37.794,41.031 36,39.237 36,37.031 M51,52.173 L51,47.031 C51,46.479 50.553,46.031 50,46.031 L41,46.031 L41,42.941 C43.833,42.462 46,39.998 46,37.031 C46,33.722 43.309,31.031 40,31.031 C36.691,31.031 34,33.722 34,37.031 C34,39.998 36.167,42.462 39,42.941 L39,46.031 L30,46.031 C29.447,46.031 29,46.479 29,47.031 L29,52.173 C27.279,52.62 26,54.173 26,56.031 C26,58.237 27.794,60.031 30,60.031 C32.206,60.031 34,58.237 34,56.031 C34,54.173 32.721,52.62 31,52.173 L31,48.031 L39,48.031 L39,52.173 C37.279,52.62 36,54.173 36,56.031 C36,58.237 37.794,60.031 40,60.031 C42.206,60.031 44,58.237 44,56.031 C44,54.173 42.721,52.62 41,52.173 L41,48.031 L49,48.031 L49,52.173 C47.279,52.62 46,54.173 46,56.031 C46,58.237 47.794,60.031 50,60.031 C52.206,60.031 54,58.237 54,56.031 C54,54.173 52.721,52.62 51,52.173 M40,65.031 C30.309,65.031 23,62.882 23,60.031 L23,23.426 C26.322,25.904 33.268,27.062 39.852,27.062 C46.562,27.062 53.639,25.896 57,23.401 L57,60.031 C57,62.882 49.691,65.031 40,65.031 M39.852,15 C50.109,15 57,17.601 57,20.031 C57,22.461 50.109,25.062 39.852,25.062 C29.771,25.062 23,22.461 23,20.031 C23,17.601 29.771,15 39.852,15 M39.852,13 C30.772,13 21.001,15.2 21,20.031 L21,60.031 C21,65.192 30.814,67.031 40,67.031 C49.186,67.031 59,65.192 59,60.031 L59,20.031 C59,15.2 49.074,13 39.852,13" id="Amazon-Cloud-Directory_Icon_64_Squid" fill="#FFFFFF"></path>
    </g>
</svg>