<?xml version="1.0" encoding="UTF-8"?>
<svg width="80px" height="80px" viewBox="0 0 80 80" version="1.1" xmlns="http://www.w3.org/2000/svg" xmlns:xlink="http://www.w3.org/1999/xlink">
    <title>Icon-Architecture/64/Arch_AWS-Site-to-Site-VPN_64</title>
    <defs>
        <linearGradient x1="0%" y1="100%" x2="100%" y2="0%" id="linearGradient-1">
            <stop stop-color="#4D27A8" offset="0%"></stop>
            <stop stop-color="#A166FF" offset="100%"></stop>
        </linearGradient>
    </defs>
    <g id="Icon-Architecture/64/Arch_AWS-Site-to-Site-VPN_64" stroke="none" stroke-width="1" fill="none" fill-rule="evenodd">
        <g id="Rectangle" fill="url(#linearGradient-1)">
            <rect x="0" y="0" width="80" height="80"></rect>
        </g>
        <g id="Icon-Service/64/AWS-Site-to-Site-VPN_64" transform="translate(8.000000, 8.000000)" fill="#FFFFFF">
            <path d="M29.271,40.0100568 C29.271,41.5810568 30.549,42.8590568 32.121,42.8590568 C33.691,42.8590568 34.969,41.5810568 34.969,40.0100568 C34.969,38.4390568 33.691,37.1610568 32.121,37.1610568 C30.549,37.1610568 29.271,38.4390568 29.271,40.0100568 L29.271,40.0100568 Z M27.271,40.0100568 C27.271,37.3360568 29.447,35.1610568 32.121,35.1610568 C34.794,35.1610568 36.969,37.3360568 36.969,40.0100568 C36.969,42.3970568 35.232,44.3750568 32.958,44.7750568 L32.958,51.3160568 L30.958,51.3160568 L30.958,44.7020568 C28.846,44.1780568 27.271,42.2810568 27.271,40.0100568 L27.271,40.0100568 Z M15.086,58.2590568 L48.831,58.2590568 L48.831,32.0600568 L15.086,32.0600568 L15.086,58.2590568 Z M44.476,30.0600568 L50.831,30.0600568 L50.831,60.2590568 L13.085,60.2590568 L13.085,30.0600568 L19.837,30.0600568 L19.837,24.3080568 L21.837,24.3080568 L21.837,30.0600568 L42.476,30.0600568 L42.476,24.3080568 L44.476,24.3080568 L44.476,30.0600568 Z M50.682,14.5000568 L49.292,15.9390568 L53.218,19.7340568 L9.958,19.7340568 L13.763,15.9270568 L12.349,14.5120568 L6,20.8620568 L12.504,27.1480568 L13.895,25.7090568 L9.782,21.7340568 L53.41,21.7340568 L49.423,25.7210568 L50.837,27.1350568 L57.186,20.7860568 L50.682,14.5000568 Z M21.837,17.5560568 L19.837,17.5560568 L19.837,16.4690568 C19.837,10.3210568 24.138,5.14805682 30.063,4.16905682 C33.688,3.57205682 37.357,4.57205682 40.123,6.91805682 C42.889,9.26505682 44.476,12.6910568 44.476,16.3160568 L44.476,17.5560568 L42.476,17.5560568 L42.476,16.3160568 C42.476,13.2790568 41.147,10.4090568 38.829,8.44305682 C36.513,6.47905682 33.437,5.64005682 30.389,6.14305682 C25.514,6.94705682 21.837,11.3870568 21.837,16.4690568 L21.837,17.5560568 Z" id="Fill-1"></path>
        </g>
    </g>
</svg>