<svg xmlns="http://www.w3.org/2000/svg" width="24px" height="24px" viewBox="0 0 24 24"><defs><style>.cls-1{fill:#669df6;}.cls-2{fill:#4285f4;}.cls-3{fill:#aecbfa;}</style></defs><title>Icon_24px_NaturalLanguage_Color</title><g data-name="Product Icons"><polygon class="cls-1" points="20 5 17 5 17 7 20 7 20 19 17 19 17 21 20 21 22 21 22 19 22 7 22 5 20 5"/><g ><polygon class="cls-2" points="20 8 22 7 20 7 20 8"/><polygon class="cls-2" points="22 18 20 19 22 19 22 18"/></g><polygon class="cls-1" points="4 21 7 21 7 19 4 19 4 7 7 7 7 5 4 5 2 5 2 7 2 19 2 21 4 21"/><g data-name="Shape"><polygon class="cls-2" points="2 18 4 19 2 19 2 18"/><polygon class="cls-2" points="4 8 2 7 4 7 4 8"/></g><rect id="Rectangle-7-Copy" class="cls-3" x="7" y="12" width="10" height="2"/><rect id="Rectangle-7-Copy-2" data-name="Rectangle-7-Copy" class="cls-3" x="7" y="15" width="10" height="2"/><rect id="Rectangle-7-Copy-3" data-name="Rectangle-7-Copy" class="cls-3" x="7" y="9" width="10" height="2"/></g></svg>