<svg xmlns="http://www.w3.org/2000/svg" width="24px" height="24px" viewBox="0 0 24 24"><defs><style>.cls-1,.cls-4{fill:#669df6;}.cls-2{fill:#4285f4;}.cls-2,.cls-3,.cls-4{fill-rule:evenodd;}.cls-3{fill:#aecbfa;}</style></defs><title>Icon_24px_MemoryStore_Color</title><g data-name="Product Icons"><g ><rect class="cls-1" x="2" y="3.94" width="3.33" height="2.58"/><rect class="cls-1" x="2" y="8.45" width="3.33" height="2.58"/><rect class="cls-1" x="2" y="12.97" width="3.33" height="2.58"/><rect class="cls-1" x="2" y="17.48" width="3.33" height="2.58"/><rect class="cls-1" x="18.67" y="3.94" width="3.33" height="2.58"/><rect class="cls-1" x="18.67" y="8.45" width="3.33" height="2.58"/><rect class="cls-1" x="18.67" y="12.97" width="3.33" height="2.58"/><rect class="cls-1" x="18.67" y="17.48" width="3.33" height="2.58"/><polygon class="cls-2" points="21.33 6.52 18.67 6.52 18.67 3.94 21.33 6.52"/><polygon class="cls-2" points="21.33 11.03 18.67 11.03 18.67 8.45 21.33 11.03"/><polygon class="cls-2" points="21.33 15.55 18.67 15.55 18.67 12.97 21.33 15.55"/><polygon class="cls-2" points="21.33 20.07 18.67 20.07 18.67 17.48 21.33 20.07"/><path class="cls-3" d="M5.33,22H18.67V2H5.33Zm6-9H8l4.67-7.74V11H16l-4.67,7.74Z"/><polygon class="cls-4" points="11.33 22 11.33 18.77 16 11.03 12.67 11.03 12.67 2 18.67 2 18.67 22 11.33 22"/></g></g></svg>