<svg xmlns="http://www.w3.org/2000/svg" width="24px" height="24px" viewBox="0 0 24 24"><defs><style>.cls-1{fill:#4285f4;}.cls-2{fill:#aecbfa;}</style></defs><title>Icon_24px_CloudDataCatalog_Color</title><g data-name="Product Icons"><polygon class="cls-1" points="2.81 9.37 5.19 5.13 8.25 5.13 8.25 7 6.26 7 4.94 9.34 5.75 10.7 4.16 11.63 2.81 9.37"/><polygon class="cls-2" points="14.5 13.07 17 11.63 19.5 13.07 19.5 15.96 17 17.4 14.5 15.96 14.5 13.07"/><polygon class="cls-2" points="4.5 13.07 7 11.63 9.5 13.07 9.5 15.96 7 17.4 4.5 15.96 4.5 13.07"/><polygon class="cls-2" points="9.5 4.59 12 3.15 14.5 4.59 14.5 7.47 12 8.92 9.5 7.47 9.5 4.59"/><polygon class="cls-1" points="17 11.63 19.5 13.07 19.5 15.96 17 17.4 17 11.63"/><polygon class="cls-1" points="7 11.63 9.5 13.07 9.5 15.96 7 17.4 7 11.63"/><polygon class="cls-1" points="12 3.15 14.5 4.59 14.5 7.47 12 8.92 12 3.15"/><polygon class="cls-1" points="18.25 10.7 19.06 9.35 17.74 7 15.75 7 15.75 5.13 18.81 5.13 21.19 9.37 19.84 11.63 18.25 10.7"/><polygon class="cls-1" points="9.61 20.75 8.13 18.29 9.73 17.36 10.66 18.88 13.31 18.88 14.25 17.36 15.85 18.28 14.36 20.75 9.61 20.75"/></g></svg>