<?xml version="1.0" encoding="UTF-8"?>
<svg width="40px" height="40px" viewBox="0 0 40 40" version="1.1" xmlns="http://www.w3.org/2000/svg" xmlns:xlink="http://www.w3.org/1999/xlink">
    <!-- Generator: Sketch 64 (93537) - https://sketch.com -->
    <title>Icon-Architecture/32/Arch_Amazon-Keyspaces_32</title>
    <desc>Created with Sketch.</desc>
    <defs>
        <linearGradient x1="0%" y1="100%" x2="100%" y2="0%" id="linearGradient-1">
            <stop stop-color="#2E27AD" offset="0%"></stop>
            <stop stop-color="#527FFF" offset="100%"></stop>
        </linearGradient>
    </defs>
    <g id="Icon-Architecture/32/Arch_Amazon-Keyspaces_32" stroke="none" stroke-width="1" fill="none" fill-rule="evenodd">
        <g id="Icon-Architecture-BG/32/Database" fill="url(#linearGradient-1)">
            <rect id="Rectangle" x="0" y="0" width="40" height="40"></rect>
        </g>
        <path d="M34.086,15.905 L32.131,16.364 L33.661,18.081 C33.547,18.307 33.395,18.492 33.202,18.634 C33.01,18.775 32.794,18.863 32.557,18.897 L31.366,16.84 L30.176,18.897 C29.938,18.863 29.723,18.775 29.529,18.634 C29.337,18.492 29.184,18.307 29.07,18.081 L30.602,16.364 L28.647,15.905 C28.623,15.792 28.611,15.701 28.611,15.633 C28.611,15.248 28.76,14.908 29.055,14.613 L30.891,15.514 L30.652,13.321 C30.879,13.219 31.117,13.168 31.366,13.168 C31.627,13.168 31.865,13.219 32.08,13.321 L31.842,15.514 L33.678,14.613 C33.973,14.908 34.12,15.248 34.12,15.633 C34.12,15.701 34.108,15.792 34.086,15.905 M25.402,28.076 C26.209,28.076 27.104,27.914 28.086,27.592 L28.086,28.626 C27.176,29.036 26.26,29.242 25.336,29.242 C23.635,29.242 22.344,28.754 21.464,27.779 C20.584,26.803 20.145,25.37 20.145,23.478 C20.145,21.6 20.592,20.167 21.486,19.176 C22.381,18.187 23.678,17.692 25.38,17.692 C26.289,17.692 27.148,17.868 27.954,18.22 L27.954,19.254 C27.148,18.99 26.311,18.858 25.445,18.858 C24.053,18.858 23.045,19.214 22.421,19.925 C21.797,20.636 21.486,21.777 21.486,23.346 L21.486,23.61 C21.486,25.135 21.801,26.261 22.432,26.987 C23.063,27.713 24.053,28.076 25.402,28.076 M16,7 C21.304,7 25,8.581 25,10 C25,11.419 21.304,13 16,13 C10.696,13 7,11.419 7,10 C7,8.581 10.696,7 16,7 M15.648,33.102 C10.552,33.102 7,31.487 7,30.037 L7,25.882 C8.895,27.068 12.444,27.85 16.231,27.85 C17.175,27.85 18.123,27.802 19.051,27.707 L18.949,26.712 C14.107,27.206 8.713,26.216 7,24.638 L7,18.88 C8.899,20.067 12.45,20.85 16.231,20.85 C17.123,20.85 18.046,20.8 19.051,20.697 L18.949,19.702 C17.979,19.801 17.089,19.85 16.231,19.85 C12.221,19.85 8.406,18.928 7,17.641 L7,11.813 C8.729,13.242 12.442,14 16,14 C19.558,14 23.272,13.242 25,11.813 L25,14 L26,14 L26,10 C26,7.402 20.848,6 16,6 C11.152,6 6,7.402 6,10 L6,30.037 C6,32.355 10.148,34.102 15.648,34.102 C19.301,34.102 22.579,33.287 24.204,31.975 L23.575,31.197 C22.143,32.354 19.03,33.102 15.648,33.102" id="Amazon-Keyspaces-Service_Icon_32_Squid" fill="#FFFFFF"></path>
    </g>
</svg>