<?xml version="1.0" encoding="UTF-8"?>
<svg width="40px" height="40px" viewBox="0 0 40 40" version="1.1" xmlns="http://www.w3.org/2000/svg" xmlns:xlink="http://www.w3.org/1999/xlink">
    <!-- Generator: Sketch 64 (93537) - https://sketch.com -->
    <title>Icon-Architecture/32/Arch_Amazon-Timestream_32</title>
    <desc>Created with Sketch.</desc>
    <defs>
        <linearGradient x1="0%" y1="100%" x2="100%" y2="0%" id="linearGradient-1">
            <stop stop-color="#2E27AD" offset="0%"></stop>
            <stop stop-color="#527FFF" offset="100%"></stop>
        </linearGradient>
    </defs>
    <g id="Icon-Architecture/32/Arch_Amazon-Timestream_32" stroke="none" stroke-width="1" fill="none" fill-rule="evenodd">
        <g id="Icon-Architecture-BG/32/Database" fill="url(#linearGradient-1)">
            <rect id="Rectangle" x="0" y="0" width="40" height="40"></rect>
        </g>
        <path d="M33,15.9958539 L33,19.0102223 L32.0005382,19.0102223 L32.0005382,17.6221317 L28.1835934,21.0738437 L25.2121934,21.0738437 L23.7149996,22.707127 L22.9793957,22.0295947 L24.7734297,20.0730574 L27.7988006,20.0730574 L31.2009687,16.9966402 L29.989621,16.9966402 L29.989621,15.9958539 L33,15.9958539 Z M32.0005382,20.0110086 L33,20.0110086 L33,22.0005719 L30.9890828,22.0005719 L30.9890828,20.9997855 L31.3009149,20.9997855 L30.1475359,19.8348703 L30.8551549,19.1303167 L32.0005382,20.2862249 L32.0005382,20.0110086 Z M28.1466134,24.0041461 L31.0520489,24.0041461 L30.5743061,23.292587 L31.4038595,22.7341483 L32.5892212,24.5025377 L31.4058584,26.2919437 L30.5723072,25.7395096 L31.0590451,25.0049324 L27.8357807,25.0049324 L26.4935035,24.0812067 L24.9773199,25.1420402 L20.6886292,21.8014154 L21.3012993,21.011795 L25.0083032,23.8980628 L26.4895057,22.8632497 L28.1466134,24.0041461 Z M25.7678942,16.8925584 L28.7133082,16.8925584 L29.5678481,17.8052756 L28.8402399,18.4898134 L28.2795418,17.8933448 L26.2166526,17.8933448 L24.9923118,19.2754307 L23.7689706,17.8933448 L20.9944645,17.8933448 L20.9944645,16.8925584 L24.2177289,16.8925584 L24.9923118,17.7672457 L25.7678942,16.8925584 Z M16.6238179,7.00078633 C21.7970324,7.00078633 24.9983086,8.55901065 24.9983086,10.0031453 C24.9983086,11.4412753 21.8659952,12.9304453 16.6238179,12.9304453 C11.2966864,12.9304453 7.99946183,11.4102509 7.99946183,10.0031453 C7.99946183,8.55300593 11.4655954,7.00078633 16.6238179,7.00078633 L16.6238179,7.00078633 Z M20.0579688,16.0078633 L19.058507,16.0078633 L19.058507,27.4598613 C19.058507,27.7360783 19.2813869,27.9602545 19.5582379,27.9602545 L24.9983086,27.9602545 L24.9983086,30.018872 C24.9983086,31.451998 21.7970324,32.9992137 16.6238179,32.9992137 C11.4655954,32.9992137 7.99946183,31.4580027 7.99946183,30.018872 L7.99946183,25.6194153 C9.73052971,26.9794839 13.2936111,27.9602545 16.9966172,27.9602545 L16.9966172,26.9594682 C12.4630584,26.9594682 8.67010071,25.4963185 7.99946183,24.1562656 L7.99946183,18.6729573 C9.7465211,20.0120094 13.2866149,20.9567517 16.9966172,20.9567517 L16.9966172,19.9559654 C12.5929884,19.9559654 8.78703775,18.5468582 7.99946183,17.2488384 L7.99946183,11.8395882 C9.65856846,13.2166702 13.152687,13.9312317 16.6238179,13.9312317 C20.4767433,13.9312317 23.5131083,13.1416113 24.9983086,11.8806205 L24.9983086,15.007077 L25.9977704,15.007077 L25.9977704,10.0031453 C25.9977704,7.68332261 22.055893,6 16.6238179,6 C11.8413931,6 7,7.37508042 7,10.0031453 L7,30.018872 C7,32.6049039 11.9583301,34 16.6238179,34 C22.055893,34 25.9977704,32.3256845 25.9977704,30.018872 L25.9977704,27.9602545 L32.9880065,27.9602545 L32.9880065,26.9594682 L20.0579688,26.9594682 L20.0579688,16.0078633 Z" id="Amazon-Timestream_Icon_32_Squid" fill="#FFFFFF"></path>
    </g>
</svg>