<?xml version="1.0" encoding="UTF-8"?>
<svg width="64px" height="64px" viewBox="0 0 64 64" version="1.1" xmlns="http://www.w3.org/2000/svg" xmlns:xlink="http://www.w3.org/1999/xlink">
    <!-- Generator: Sketch 64 (93537) - https://sketch.com -->
    <title>Icon-Architecture/32/Arch_Amazon-DocumentDB_32</title>
    <desc>Created with Sketch.</desc>
    <defs>
        <linearGradient x1="0%" y1="100%" x2="100%" y2="0%" id="linearGradient-1">
            <stop stop-color="#2E27AD" offset="0%"></stop>
            <stop stop-color="#527FFF" offset="100%"></stop>
        </linearGradient>
    </defs>
    <g id="Icon-Architecture/32/Arch_Amazon-DocumentDB_32" stroke="none" stroke-width="1" fill="none" fill-rule="evenodd">
        <g id="Icon-Architecture-BG/48/Database" fill="url(#linearGradient-1)">
            <rect id="Rectangle" x="0" y="0" width="64" height="64"></rect>
        </g>
        <path d="M28,12.9814299 C35.44,12.9814299 41,15.3353685 41,17.439647 C41,19.5439255 35.44,21.8978642 28,21.8978642 C20.56,21.8978642 15,19.5439255 15,17.439647 C15,15.3353685 20.56,12.9814299 28,12.9814299 L28,12.9814299 Z M27.721,52.0185701 C20.44,52.0185701 15,49.7448794 15,47.7119324 L15,41.7121628 C17.71,43.6737783 22.769,44.7080847 27.621,44.7080847 C28.96,44.7080847 30.308,44.6347718 31.626,44.4891367 L31.405,42.5195954 C30.159,42.6573048 28.887,42.7266548 27.621,42.7266548 C20.397,42.7266548 15,40.4529641 15,38.420017 L15,31.3037117 C17.71,33.266318 22.769,34.3006244 27.621,34.3006244 C28.988,34.3006244 30.337,34.22533 31.631,34.0767228 L31.4,32.109163 C30.183,32.2478631 28.911,32.3191945 27.621,32.3191945 C20.397,32.3191945 15,30.0455038 15,28.011566 L15,20.7743935 C17.768,22.8073405 22.991,23.8792941 28,23.8792941 C33.009,23.8792941 38.232,22.8073405 41,20.7743935 L41,22.8885791 L43,22.8885791 L43,17.439647 C43,13.2568486 35.271,11 28,11 C20.729,11 13,13.2568486 13,17.439647 L13,47.7119324 C13,51.79665 20.584,54 27.721,54 C33.255,54 38.233,52.7685413 40.712,50.7841393 L39.456,49.2435776 C37.348,50.9297744 32.742,52.0185701 27.721,52.0185701 L27.721,52.0185701 Z M48.839,37.898901 C48.823,38.3407599 48.533,38.7241665 48.102,38.8311637 C48.046,38.850978 47.299,39.1333318 47.299,40.5738313 C47.323,41.7904292 46.657,42.6731562 45.679,42.7028777 L45,42.7028777 L45,40.7214478 L45.29,40.7214478 C45.296,40.6699306 45.3,40.6213856 45.299,40.5936456 C45.299,39.2849112 45.701,38.4279428 46.17,37.8721517 C45.701,37.3193328 45.299,36.4673179 45.299,35.1674999 C45.299,35.1060756 45.305,35.045642 45.315,34.9852084 C45.326,34.9237841 45.332,34.8484897 45.333,34.7771583 L45,34.7771583 L45,32.7957284 L45.649,32.7957284 C46.148,32.7957284 46.591,32.9958528 46.895,33.3574638 C47.416,33.9796327 47.356,34.8623597 47.3,35.243785 C47.325,36.6169159 48.048,36.8903532 48.131,36.9171025 C48.555,37.0538212 48.854,37.4580329 48.839,37.898901 L48.839,37.898901 Z M42.146,32.7957284 L43,32.7957284 L43,34.7771583 L42.533,34.7771583 C42.527,34.8286754 42.523,34.8782112 42.524,34.9059512 C42.524,36.2136949 42.122,37.0706633 41.653,37.6264544 C42.122,38.1792733 42.524,39.0312882 42.524,40.3311061 C42.524,40.3925305 42.519,40.4529641 42.508,40.5133977 C42.497,40.574822 42.491,40.6501164 42.49,40.7214478 L43,40.7214478 L43,42.7028777 L42.175,42.7028777 C41.676,42.7028777 41.233,42.5027533 40.929,42.1401516 C40.407,41.5189733 40.467,40.6362463 40.523,40.2548211 C40.498,38.8816902 39.776,38.6082529 39.693,38.5815036 C39.27,38.4447849 38.97,38.0405732 38.985,37.5997051 C39.001,37.1578462 39.291,36.7744396 39.723,36.6674423 C39.778,36.647628 40.524,36.3652743 40.524,34.9247748 C40.501,33.7081769 41.167,32.8254499 42.146,32.7957284 L42.146,32.7957284 Z M38,44.6843075 L38,26.8514388 L45,26.8514388 L45,30.8142986 C45,31.3611732 45.447,31.8050135 46,31.8050135 L50,31.8050135 L50,44.6843075 L38,44.6843075 Z M50,29.5451927 L50,29.8235836 L47,29.8235836 L47,26.8514388 L47.375,26.8514388 L50,29.5451927 Z M51.72,28.4573877 L48.52,25.1731678 C48.331,24.9789876 48.071,24.870009 47.8,24.870009 L37,24.870009 C36.447,24.870009 36,25.3138493 36,25.8607239 L36,45.6750225 C36,46.2218971 36.447,46.6657374 37,46.6657374 L51,46.6657374 C51.553,46.6657374 52,46.2218971 52,45.6750225 L52,29.1449439 C52,28.8883487 51.899,28.6416607 51.72,28.4573877 L51.72,28.4573877 Z" id="Amazon-DocumentDB_Icon_32_Squid" fill="#FFFFFF"></path>
    </g>
</svg>