<?xml version="1.0" encoding="UTF-8"?>
<svg width="40px" height="40px" viewBox="0 0 40 40" version="1.1" xmlns="http://www.w3.org/2000/svg" xmlns:xlink="http://www.w3.org/1999/xlink">
    <!-- Generator: Sketch 64 (93537) - https://sketch.com -->
    <title>Icon-Architecture/32/Arch_Amazon-ElastiCache_32</title>
    <desc>Created with Sketch.</desc>
    <defs>
        <linearGradient x1="0%" y1="100%" x2="100%" y2="0%" id="linearGradient-1">
            <stop stop-color="#2E27AD" offset="0%"></stop>
            <stop stop-color="#527FFF" offset="100%"></stop>
        </linearGradient>
    </defs>
    <g id="Icon-Architecture/32/Arch_Amazon-ElastiCache_32" stroke="none" stroke-width="1" fill="none" fill-rule="evenodd">
        <g id="Icon-Architecture-BG/32/Database" fill="url(#linearGradient-1)">
            <rect id="Rectangle" x="0" y="0" width="40" height="40"></rect>
        </g>
        <path d="M25,22.0361566 L25,19.1324721 C23.919,19.837028 22.128,20.2812261 20.016,20.2812261 C17.788,20.2812261 16.048,19.8827396 15,19.2040208 L15,22.0361566 C15,22.7635683 16.918,23.5496102 20.016,23.5496102 C23.136,23.5496102 25,22.7804617 25,22.0361566 L25,22.0361566 Z M25,26.155175 L25,23.5327167 C23.983,24.1706926 22.245,24.543342 20.016,24.543342 C17.771,24.543342 16.021,24.1696988 15,23.5297355 L15,26.155175 C15,26.8468124 16.786,27.8484941 20.016,27.8484941 C23.225,27.8484941 25,26.8468124 25,26.155175 L25,26.155175 Z M25,29.9641492 L25,27.7222902 C23.965,28.4188962 22.194,28.842226 20.016,28.842226 C17.822,28.842226 16.04,28.4169087 15,27.719309 L15,29.9641492 C15,30.6846048 16.904,32.0062682 20.016,32.0062682 C23.107,32.0062682 25,30.6846048 25,29.9641492 L25,29.9641492 Z M14.903,17.5047393 C14.903,18.3812108 16.815,19.2874943 20.016,19.2874943 C23.117,19.2874943 25.097,18.232151 25.097,17.5047393 C25.097,16.8498701 23.331,15.9425929 20.016,15.9425929 C16.849,15.9425929 14.903,16.8528512 14.903,17.5047393 L14.903,17.5047393 Z M26.097,17.5047393 C26.097,17.6776487 26.061,17.8455894 26,18.0075677 L26,29.9641492 C26,31.6097691 23.26,33 20.016,33 C16.755,33 14,31.6097691 14,29.9641492 L14,18.0343984 C13.943,17.8644703 13.903,17.6895735 13.903,17.5047393 C13.903,15.7488152 17.071,14.948861 20.016,14.948861 C23.043,14.948861 26.097,15.7388778 26.097,17.5047393 L26.097,17.5047393 Z M33.5,11.4717933 C33.776,11.4717933 34,11.2501911 34,10.9749274 L34,7.49686592 C34,7.22259593 33.776,7 33.5,7 L6.5,7 C6.224,7 6,7.22259593 6,7.49686592 L6,10.9749274 C6,11.2501911 6.224,11.4717933 6.5,11.4717933 C7.052,11.4717933 7.5,11.9179789 7.5,12.4655251 C7.5,13.0130714 7.052,13.459257 6.5,13.459257 C6.224,13.459257 6,13.6818529 6,13.9561229 L6,23.3965754 C6,23.6718392 6.224,23.8934414 6.5,23.8934414 L8,23.8934414 L9,23.8934414 L12,23.8934414 L12,22.8997095 L9,22.8997095 L9,21.9059777 L12,21.9059777 L12,20.9122458 L8.5,20.9122458 C8.224,20.9122458 8,21.1348418 8,21.4091118 L8,22.8997095 L7,22.8997095 L7,14.3903837 C7.861,14.1687815 8.5,13.3896958 8.5,12.4655251 C8.5,11.5413545 7.861,10.7622688 7,10.5416603 L7,7.99373185 L33,7.99373185 L33,10.5416603 C32.139,10.7622688 31.5,11.5413545 31.5,12.4655251 C31.5,13.3896958 32.139,14.1687815 33,14.3903837 L33,22.8997095 L32,22.8997095 L32,21.4091118 C32,21.1348418 31.776,20.9122458 31.5,20.9122458 L28,20.9122458 L28,21.9059777 L31,21.9059777 L31,22.8997095 L28,22.8997095 L28,23.8934414 L31,23.8934414 L32,23.8934414 L33.5,23.8934414 C33.776,23.8934414 34,23.6718392 34,23.3965754 L34,13.9561229 C34,13.6818529 33.776,13.459257 33.5,13.459257 C32.948,13.459257 32.5,13.0130714 32.5,12.4655251 C32.5,11.9179789 32.948,11.4717933 33.5,11.4717933 L33.5,11.4717933 Z M12.5,9.98119554 L10.5,9.98119554 C10.224,9.98119554 10,10.2037915 10,10.4780615 L10,18.4279162 C10,18.7031799 10.224,18.9247821 10.5,18.9247821 L12,18.9247821 L12,17.9310503 L11,17.9310503 L11,10.9749274 L12,10.9749274 L12,13.9561229 L13,13.9561229 L13,10.4780615 C13,10.2037915 12.776,9.98119554 12.5,9.98119554 L12.5,9.98119554 Z M28,17.9310503 L28,18.9247821 L29.5,18.9247821 C29.776,18.9247821 30,18.7031799 30,18.4279162 L30,10.4780615 C30,10.2037915 29.776,9.98119554 29.5,9.98119554 L27.5,9.98119554 C27.224,9.98119554 27,10.2037915 27,10.4780615 L27,13.9561229 L28,13.9561229 L28,10.9749274 L29,10.9749274 L29,17.9310503 L28,17.9310503 Z M25,12.9623911 L25,10.4780615 C25,10.2037915 24.776,9.98119554 24.5,9.98119554 L21.5,9.98119554 C21.224,9.98119554 21,10.2037915 21,10.4780615 L21,12.9623911 L22,12.9623911 L22,10.9749274 L24,10.9749274 L24,12.9623911 L25,12.9623911 Z M18,12.9623911 L18,10.9749274 L16,10.9749274 L16,12.9623911 L15,12.9623911 L15,10.4780615 C15,10.2037915 15.224,9.98119554 15.5,9.98119554 L18.5,9.98119554 C18.776,9.98119554 19,10.2037915 19,10.4780615 L19,12.9623911 L18,12.9623911 Z" id="Amazon-ElastiCache_Icon_32_Squid" fill="#FFFFFF"></path>
    </g>
</svg>