<?xml version="1.0" encoding="UTF-8"?>
<svg width="40px" height="40px" viewBox="0 0 40 40" version="1.1" xmlns="http://www.w3.org/2000/svg" xmlns:xlink="http://www.w3.org/1999/xlink">
    <!-- Generator: Sketch 64 (93537) - https://sketch.com -->
    <title>Icon-Architecture/32/Arch_Amazon-RDS-for-VMware_32</title>
    <desc>Created with Sketch.</desc>
    <defs>
        <linearGradient x1="0%" y1="100%" x2="100%" y2="0%" id="linearGradient-1">
            <stop stop-color="#2E27AD" offset="0%"></stop>
            <stop stop-color="#527FFF" offset="100%"></stop>
        </linearGradient>
    </defs>
    <g id="Icon-Architecture/32/Arch_Amazon-RDS-for-VMware_32" stroke="none" stroke-width="1" fill="none" fill-rule="evenodd">
        <g id="Icon-Architecture-BG/32/Database" fill="url(#linearGradient-1)">
            <rect id="Rectangle" x="0" y="0" width="40" height="40"></rect>
        </g>
        <path d="M30.9842126,29 L31.9911533,29 L31.9911533,27 L30.9842126,27 L30.9842126,29 Z M28.9522063,29 L29.959147,29 L29.959147,27 L28.9522063,27 L28.9522063,29 Z M32.9930593,32 L20.9097709,32 L20.9097709,29.121 L22.9176107,27.063 L26.2052721,28.861 C26.3603409,28.946 26.5496458,28.943 26.7037077,28.854 C26.8567627,28.764 26.9514151,28.6 26.9514151,28.423 L26.9514151,26 L32.9930593,26 L32.9930593,32 Z M33.4965297,25 L26.4479448,25 C26.1690222,25 25.9444744,25.224 25.9444744,25.5 L25.9444744,27.577 L23.0666379,26.003 C22.8682706,25.896 22.6205632,25.932 22.4624735,26.093 L20.0438019,28.57 C19.9541842,28.664 19.9028302,28.789 19.9028302,28.918 L19.9028302,32.5 C19.9028302,32.776 20.127378,33 20.4063006,33 L33.4965297,33 C33.7744453,33 34,32.776 34,32.5 L34,25.5 C34,25.224 33.7744453,25 33.4965297,25 L33.4965297,25 Z M8.53144892,8 L12.2027547,11.646 L11.4908476,12.354 L7.81954184,8.707 L7.81954184,12 L6.81260114,12 L6.81260114,7.5 C6.81260114,7.224 7.03714892,7 7.31607149,7 L11.8473046,7 L11.8473046,8 L8.53144892,8 Z M12.2027547,26.354 L8.53144892,30 L11.8473046,30 L11.8473046,31 L7.31607149,31 C7.03714892,31 6.81260114,30.776 6.81260114,30.5 L6.81260114,26 L7.81954184,26 L7.81954184,29.293 L11.4908476,25.646 L12.2027547,26.354 Z M25.5880174,11.646 L29.2603301,8 L25.9444744,8 L25.9444744,7 L30.4757076,7 C30.7536232,7 30.9791779,7.224 30.9791779,7.5 L30.9791779,12 L29.9722372,12 L29.9722372,8.707 L26.2999245,12.354 L25.5880174,11.646 Z M29.9682094,18.538 C29.9682094,17.162 28.4034236,15.814 25.7833639,14.933 L26.1055849,13.986 C29.1999137,15.026 30.9751501,16.685 30.9751501,18.538 C30.9751501,20.391 29.1999137,22.05 26.1055849,23.09 L25.7833639,22.143 C28.4034236,21.262 29.9682094,19.915 29.9682094,18.538 L29.9682094,18.538 Z M7.0069407,18.538 C7.0069407,19.837 8.50325458,21.148 11.00953,22.046 L10.6671701,22.987 C7.70172978,21.924 6,20.302 6,18.538 C6,16.773 7.70172978,15.152 10.6671701,14.089 L11.00953,15.03 C8.50325458,15.928 7.0069407,17.239 7.0069407,18.538 L7.0069407,18.538 Z M18.8958895,24.041 C16.3704823,24.041 14.9084044,23.301 14.8681267,23 L14.8681267,21.793 C15.84788,22.284 17.4015895,22.482 18.8958895,22.482 C20.3891826,22.482 21.943899,22.284 22.9236523,21.793 L22.9236523,22.999 C22.8833747,23.301 21.4212968,24.041 18.8958895,24.041 L18.8958895,24.041 Z M14.8681267,18.821 C15.84788,19.312 17.4015895,19.509 18.8958895,19.509 C20.3891826,19.509 21.943899,19.312 22.9236523,18.821 L22.9236523,20.496 C22.9236523,20.776 21.7253929,21.482 18.8958895,21.482 C16.0653792,21.482 14.8681267,20.776 14.8681267,20.496 L14.8681267,18.821 Z M14.8681267,16.211 C16.0422196,16.759 17.9755457,16.934 19.1949509,16.934 C20.5210918,16.934 21.9791419,16.75 22.9236523,16.295 L22.9236523,17.522 C22.9236523,17.803 21.7253929,18.509 18.8958895,18.509 C16.0653792,18.509 14.8681267,17.803 14.8681267,17.522 L14.8681267,16.211 Z M19.1949509,14.066 C21.8019204,14.066 22.9236523,14.811 22.9236523,15.047 C22.9236523,15.292 21.7767469,15.934 19.1949509,15.934 C16.6685367,15.934 15.0181609,15.334 14.8681267,15.076 L14.8681267,15.068 C15.0020498,14.765 16.6141619,14.066 19.1949509,14.066 L19.1949509,14.066 Z M23.930593,23 L23.9205236,15 C23.8661488,13.86 21.943899,13.066 19.1949509,13.066 C17.155896,13.066 13.9407343,13.593 13.8682346,15 L13.861186,23 C13.861186,24.326 16.4550653,25.041 18.8958895,25.041 C21.3367138,25.041 23.930593,24.326 23.930593,23 L23.930593,23 Z" id="Amazon-RDS-for-VMware-Icon_32_Squid" fill="#FFFFFF"></path>
    </g>
</svg>