<?xml version="1.0" encoding="UTF-8"?>
<svg width="40px" height="40px" viewBox="0 0 40 40" version="1.1" xmlns="http://www.w3.org/2000/svg" xmlns:xlink="http://www.w3.org/1999/xlink">
    <!-- Generator: Sketch 64 (93537) - https://sketch.com -->
    <title>Icon-Architecture/32/Arch_AWS-Database-Migration_32</title>
    <desc>Created with Sketch.</desc>
    <defs>
        <linearGradient x1="0%" y1="100%" x2="100%" y2="0%" id="linearGradient-1">
            <stop stop-color="#2E27AD" offset="0%"></stop>
            <stop stop-color="#527FFF" offset="100%"></stop>
        </linearGradient>
    </defs>
    <g id="Icon-Architecture/32/Arch_AWS-Database-Migration_32" stroke="none" stroke-width="1" fill="none" fill-rule="evenodd">
        <g id="Icon-Architecture-BG/32/Database" fill="url(#linearGradient-1)">
            <rect id="Rectangle" x="0" y="0" width="40" height="40"></rect>
        </g>
        <path d="M22.024,33 L23.024,33 L23.024,30.0034575 L22.024,30.0034575 L22.024,33 Z M17.005,33 L18.005,33 L18.005,30.0034575 L17.005,30.0034575 L17.005,33 Z M26,32.0011525 L27,32.0011525 L27,29.0046101 L26,29.0046101 L26,32.0011525 Z M13,32.0011525 L14,32.0011525 L14,29.0046101 L13,29.0046101 L13,32.0011525 Z M20.018,17.0414138 C16.301,17.0414138 14,16.0825202 14,15.1935459 L14,11.6456396 C15.173,12.5306185 17.304,13.0640031 20.018,13.0640031 C22.622,13.0640031 24.8,12.4806761 26,11.5737226 L26,15.1935459 C26,16.1024971 23.762,17.0414138 20.018,17.0414138 L20.018,17.0414138 Z M20.018,22.0596235 C16.471,22.0596235 14,20.975874 14,20.0029965 L14,16.7996927 C15.34,17.6916635 17.805,18.0402612 20.018,18.0402612 C22.743,18.0402612 24.843,17.5777949 26,16.7897042 L26,20.0029965 C26,20.975874 23.544,22.0596235 20.018,22.0596235 L20.018,22.0596235 Z M20.018,27.0658471 C16.527,27.0658471 14,25.5625816 14,24.5497503 L14,21.650096 C15.294,22.5780254 17.664,23.058471 20.018,23.058471 C22.653,23.058471 24.811,22.5111026 26,21.6421053 L26,24.5497503 C26,25.5505955 23.614,27.0658471 20.018,27.0658471 L20.018,27.0658471 Z M20.018,7.99884748 C23.713,7.99884748 26,8.98770649 26,9.90364964 C26,10.8066078 23.724,12.0651556 20.018,12.0651556 C16.588,12.0651556 14,11.1362274 14,9.90364964 C14,9.12554745 16.143,7.99884748 20.018,7.99884748 L20.018,7.99884748 Z M20.018,7 C16.638,7 13,7.90895121 13,9.90364964 L13,24.5497503 C13,26.4225893 16.279,28.0646946 20.018,28.0646946 C23.737,28.0646946 27,26.4225893 27,24.5497503 L27,9.90364964 C27,7.89796389 23.493,7 20.018,7 L20.018,7 Z" id="AWS-Database-Migration_Icon_32_Squid" fill="#FFFFFF"></path>
    </g>
</svg>