<?xml version="1.0" encoding="UTF-8"?>
<svg width="40px" height="40px" viewBox="0 0 40 40" version="1.1" xmlns="http://www.w3.org/2000/svg" xmlns:xlink="http://www.w3.org/1999/xlink">
    <!-- Generator: Sketch 64 (93537) - https://sketch.com -->
    <title>Icon-Architecture/32/Arch_Amazon-DynamoDB_32</title>
    <desc>Created with Sketch.</desc>
    <defs>
        <linearGradient x1="0%" y1="100%" x2="100%" y2="0%" id="linearGradient-1">
            <stop stop-color="#2E27AD" offset="0%"></stop>
            <stop stop-color="#527FFF" offset="100%"></stop>
        </linearGradient>
    </defs>
    <g id="Icon-Architecture/32/Arch_Amazon-DynamoDB_32" stroke="none" stroke-width="1" fill="none" fill-rule="evenodd">
        <g id="Icon-Architecture-BG/32/Database" fill="url(#linearGradient-1)">
            <rect id="Rectangle" x="0" y="0" width="40" height="40"></rect>
        </g>
        <path d="M26.0661851,31.0185863 L26.0661851,31.0175845 L26.0661851,28.1532509 C24.5397015,29.4606854 21.3722727,30.3222898 17.5279417,30.3222898 C13.6806504,30.3222898 10.5132216,29.4596835 8.98673795,28.1512471 L8.98673795,31.013577 L8.98772469,31.013577 C8.98772469,32.4252056 12.4945914,33.9981345 17.5279417,33.9981345 C22.5543848,33.9981345 26.0582912,32.4282112 26.0661851,31.0185863 L26.0661851,31.0185863 Z M26.0671719,22.8443654 L27.0539098,22.8383542 L27.0539098,22.8443654 C27.0539098,23.4685276 26.7421006,24.0506115 26.1480844,24.5856077 C26.8743235,25.238824 27.0539098,25.880018 27.0539098,26.3358668 C27.0539098,26.3388724 27.0529231,26.341878 27.0529231,26.3438817 L27.0529231,31.013577 L27.0539098,31.013577 C27.0539098,33.2858081 22.9589473,35 17.5279417,35 C12.1245646,35 8.04736342,33.3038416 8.00493369,31.0486423 C8.00493369,31.0396255 8,31.0326125 8,31.0235957 L8,26.3338631 C8,26.3308575 8.00197348,26.3288537 8.00197348,26.3258481 C8.00394695,25.872003 8.18452,25.2368203 8.90286522,24.5886133 C8.18649347,23.9384025 8.00493369,23.3052235 8.00098674,22.8553859 C8.00098674,22.8533822 8,22.8513784 8,22.8493747 L8,18.1596421 C8,18.1566365 8.00197348,18.1536309 8.00197348,18.1516272 C8.00394695,17.6967802 8.18550673,17.0615975 8.90385196,16.4143923 C8.18649347,15.7631797 8.00493369,15.1310026 8.00098674,14.6801631 C8.00098674,14.6781593 8,14.6761556 8,14.6751537 L8,9.98441926 C8,9.97940994 8.00296021,9.97640434 8.00296021,9.97139501 C8.02269497,7.70617702 12.1087768,6 17.5279417,6 C20.1358901,6 22.6422044,6.42980032 24.4015582,7.17719201 L24.0206774,8.10191391 C22.3777587,7.40261176 20.0105743,7.00186554 17.5279417,7.00186554 C12.4945914,7.00186554 8.98772469,8.57479444 8.98772469,9.98642299 C8.98772469,11.3990534 12.4945914,12.9719823 17.5279417,12.9719823 C17.666085,12.9729842 17.7963344,12.9719823 17.9305307,12.9659711 L17.970987,13.9668348 C17.8229763,13.9738479 17.6749656,13.9738479 17.5279417,13.9738479 C13.6806504,13.9738479 10.5132216,13.1112416 8.98673795,11.8018034 L8.98673795,14.6641332 L8.98772469,14.6641332 L8.98772469,14.6761556 C8.99265838,15.2211705 9.53043056,15.6960547 9.97939633,15.9976163 C11.3272804,16.8872729 13.7418281,17.4944034 16.4326625,17.6196366 L16.3862858,18.6205002 C13.6628891,18.4942652 11.27597,17.9081738 9.74060574,17.0115042 C9.35676468,17.3070545 8.98772469,17.7037933 8.98772469,18.1616458 C8.98772469,19.5732744 12.4945914,21.1462033 17.5279417,21.1462033 C18.0242708,21.1462033 18.5087592,21.1291716 18.9814067,21.0951081 L19.0534385,22.0939681 C18.5571093,22.1300352 18.0469658,22.1480688 17.5279417,22.1480688 C13.6806504,22.1480688 10.5132216,21.2864645 8.98673795,19.9770262 L8.98673795,22.8383542 L8.98772469,22.8383542 C8.99265838,23.3963933 9.52944382,23.8712776 9.97939633,24.1718372 C11.5196943,25.1897326 14.4128099,25.8229116 17.5279417,25.8229116 L17.7469975,25.8229116 L17.7469975,26.8247772 L17.5279417,26.8247772 C14.3624863,26.8247772 11.497986,26.2126373 9.74159248,25.1837214 C9.35775142,25.4792717 8.98772469,25.8770124 8.98772469,26.3358668 C8.98772469,27.7474953 12.4945914,29.3204242 17.5279417,29.3204242 C22.5524113,29.3204242 26.055331,27.7525047 26.0661851,26.341878 L26.0661851,26.3338631 L26.0661851,26.3328612 C26.0651984,25.8780142 25.6991186,25.4822773 25.317251,25.1877289 C25.0735268,25.3309956 24.8120412,25.4682512 24.5160198,25.5944863 L24.1341522,24.6717681 C24.4962851,24.516479 24.8120412,24.3491674 25.07254,24.1728391 C25.5264395,23.8662682 26.0671719,23.3863746 26.0671719,22.8443654 L26.0671719,22.8443654 Z M31.3551006,14.4888067 L28.0722234,14.4888067 C27.9133586,14.4888067 27.7643611,14.4106612 27.6716078,14.2794168 C27.5788544,14.1481725 27.554186,13.979859 27.6054963,13.8265736 L29.0599481,9.47947903 L22.5316898,9.47947903 L19.4106377,15.4906723 L22.58004,15.4906723 C22.7339711,15.4906723 22.8790216,15.5638085 22.9717749,15.6880398 C23.065515,15.8112693 23.0961039,15.9725696 23.0556476,16.1238513 L20.3381713,26.2316728 L31.3551006,14.4888067 Z M32.8648096,14.3335176 L19.7056723,28.3596352 C19.608972,28.4618255 19.4787226,28.5149243 19.3474864,28.5149243 C19.2646004,28.5149243 19.1807277,28.4938852 19.1047489,28.4508049 C18.908388,28.3375941 18.8116877,28.1031576 18.8718787,27.8817453 L21.9347133,16.4925378 L18.5926319,16.4925378 C18.4199528,16.4925378 18.2591145,16.4003662 18.1703081,16.2500864 C18.0805149,16.0998065 18.0745945,15.9134595 18.155507,15.7581704 L21.7975568,8.74511159 C21.883403,8.58080564 22.0511484,8.47761349 22.2336949,8.47761349 L29.7486912,8.47761349 C29.9085427,8.47761349 30.0575401,8.555759 30.1502935,8.68700339 C30.2420601,8.81824777 30.2677153,8.98656118 30.216405,9.13984661 L28.7609665,13.4869412 L32.5066237,13.4869412 C32.7049581,13.4869412 32.8825709,13.6061632 32.9605232,13.7905065 C33.0374888,13.9748497 33,14.1882471 32.8648096,14.3335176 L32.8648096,14.3335176 Z M9.72777815,31.0406274 C10.2990994,31.3732467 10.9986966,31.6667933 11.806835,31.9112485 L12.0880553,30.9514613 C11.3539223,30.7290472 10.7253702,30.4665584 10.2191737,30.1720099 L9.72777815,31.0406274 Z M11.806835,23.8091619 L12.0880553,22.8493747 C11.3558958,22.6279624 10.7273437,22.3654736 10.2191737,22.0689214 L9.72777815,22.9385407 C10.3010729,23.2731638 11.0006701,23.5657086 11.806835,23.8091619 L11.806835,23.8091619 Z M9.72777815,14.8354522 L10.2191737,13.9668348 C10.7243835,14.2613833 11.3539223,14.5248739 12.0880553,14.7472881 L11.806835,15.7070752 C10.9977099,15.4626201 10.2990994,15.1690734 9.72777815,14.8354522 L9.72777815,14.8354522 Z" id="Amazon-DynamoDB_Icon_32_Squid" fill="#FFFFFF"></path>
    </g>
</svg>