<?xml version="1.0" encoding="UTF-8"?>
<svg width="40px" height="40px" viewBox="0 0 40 40" version="1.1" xmlns="http://www.w3.org/2000/svg" xmlns:xlink="http://www.w3.org/1999/xlink">
    <!-- Generator: Sketch 64 (93537) - https://sketch.com -->
    <title>Icon-Architecture/32/Arch_Amazon-Aurora_32</title>
    <desc>Created with Sketch.</desc>
    <defs>
        <linearGradient x1="0%" y1="100%" x2="100%" y2="0%" id="linearGradient-1">
            <stop stop-color="#2E27AD" offset="0%"></stop>
            <stop stop-color="#527FFF" offset="100%"></stop>
        </linearGradient>
    </defs>
    <g id="Icon-Architecture/32/Arch_Amazon-Aurora_32" stroke="none" stroke-width="1" fill="none" fill-rule="evenodd">
        <g id="Icon-Architecture-BG/32/Database" fill="url(#linearGradient-1)">
            <rect id="Rectangle" x="0" y="0" width="40" height="40"></rect>
        </g>
        <path d="M22.9431195,9.97776987 L21.9464654,9.97776987 L21.9464654,8.98888493 L22.9431195,8.98888493 L22.9431195,8 L23.9397736,8 L23.9397736,8.98888493 L24.9364277,8.98888493 L24.9364277,9.97776987 L23.9397736,9.97776987 L23.9397736,10.9666548 L22.9431195,10.9666548 L22.9431195,9.97776987 Z M28.9230441,15.9110795 L27.92639,15.9110795 L27.92639,14.9221945 L28.9230441,14.9221945 L28.9230441,13.9333096 L29.9196982,13.9333096 L29.9196982,14.9221945 L30.9163522,14.9221945 L30.9163522,15.9110795 L29.9196982,15.9110795 L29.9196982,16.8999644 L28.9230441,16.8999644 L28.9230441,15.9110795 Z M26.0267673,30.1510225 C25.122802,27.9537202 23.0966043,25.953206 20.8800456,25.0711206 C23.0786645,24.1366243 25.1168221,22.0431549 26.0267673,19.7865195 C26.9367125,22.0431549 28.9748701,24.1366243 31.173489,25.0711206 C28.9559337,25.953206 26.9307325,27.9537202 26.0267673,30.1510225 L26.0267673,30.1510225 Z M33.501673,24.5944781 C30.3063999,24.5944781 26.5250943,20.6943159 26.5250943,17.3993513 C26.5250943,17.126419 26.3018438,16.9049088 26.0267673,16.9049088 C25.7506941,16.9049088 25.5284402,17.126419 25.5284402,17.3993513 C25.5284402,20.6943159 21.7471346,24.5944781 18.5518616,24.5944781 C18.2757884,24.5944781 18.0535346,24.8159883 18.0535346,25.0889205 C18.0535346,25.3628417 18.2757884,25.583363 18.5518616,25.583363 C21.8119171,25.583363 25.5284402,29.2709149 25.5284402,32.5055575 C25.5284402,32.7794787 25.7506941,33 26.0267673,33 C26.3018438,33 26.5250943,32.7794787 26.5250943,32.5055575 C26.5250943,29.2709149 30.2406208,25.583363 33.501673,25.583363 C33.7767495,25.583363 34,25.3628417 34,25.0889205 C34,24.8159883 33.7767495,24.5944781 33.501673,24.5944781 L33.501673,24.5944781 Z M13.4749057,11.9555397 C17.4296291,11.9555397 19.9531573,13.1273684 19.9531573,13.9333096 C19.9531573,14.7392508 17.4296291,15.9110795 13.4749057,15.9110795 C9.52018225,15.9110795 6.99665409,14.7392508 6.99665409,13.9333096 C6.99665409,13.1273684 9.52018225,11.9555397 13.4749057,11.9555397 L13.4749057,11.9555397 Z M12.8250872,21.4162019 C10.5905887,21.4162019 8.45475902,21.088881 6.99665409,20.539061 L6.99665409,15.4700368 C8.37602335,16.4065108 10.9792838,16.8999644 13.4749057,16.8999644 C15.9705275,16.8999644 18.573788,16.4065108 19.9531573,15.4700368 L19.9531573,19.850797 C18.8169716,20.7872711 15.9535844,21.4162019 12.8250872,21.4162019 L12.8250872,21.4162019 Z M19.9531573,29.0217159 C19.9531573,30.0699339 17.1824589,31.2427515 13.4729124,31.2427515 C9.76635581,31.2427515 6.99665409,30.0699339 6.99665409,29.0217159 L6.99665409,26.7818915 C8.54146793,27.3603892 10.7181605,27.697599 13.0104649,27.697599 C14.5732185,27.697599 16.0941126,27.5433329 17.4086994,27.2516119 L17.1914288,26.2874491 C15.9466078,26.5623591 14.5004627,26.7087141 13.0104649,26.7087141 C10.6364348,26.7087141 8.42286609,26.3359044 6.99665409,25.7099403 L6.99665409,21.5922234 C8.54944116,22.1123769 10.6184951,22.4050868 12.8250872,22.4050868 C15.7602335,22.4050868 18.4272798,21.8780112 19.9531573,21.0315257 L19.9531573,22.833274 L20.9498113,22.833274 L20.9498113,13.9333096 C20.9498113,12.0059729 17.0987399,10.9666548 13.4749057,10.9666548 C9.8510714,10.9666548 6,12.0059729 6,13.9333096 L6,29.0217159 C6,31.1062854 9.85007475,32.2316364 13.4729124,32.2316364 C17.0977433,32.2316364 20.9498113,31.1062854 20.9498113,29.0217159 L20.9498113,27.7776987 L19.9531573,27.7776987 L19.9531573,29.0217159 Z" id="Amazon-Aurora_Icon_32_Squid" fill="#FFFFFF"></path>
    </g>
</svg>