<?xml version="1.0" encoding="UTF-8"?>
<svg width="40px" height="40px" viewBox="0 0 40 40" version="1.1" xmlns="http://www.w3.org/2000/svg" xmlns:xlink="http://www.w3.org/1999/xlink">
    <!-- Generator: Sketch 64 (93537) - https://sketch.com -->
    <title>Icon-Architecture/32/Arch_Amazon-Neptune_32</title>
    <desc>Created with Sketch.</desc>
    <defs>
        <linearGradient x1="0%" y1="100%" x2="100%" y2="0%" id="linearGradient-1">
            <stop stop-color="#2E27AD" offset="0%"></stop>
            <stop stop-color="#527FFF" offset="100%"></stop>
        </linearGradient>
    </defs>
    <g id="Icon-Architecture/32/Arch_Amazon-Neptune_32" stroke="none" stroke-width="1" fill="none" fill-rule="evenodd">
        <g id="Icon-Architecture-BG/32/Database" fill="url(#linearGradient-1)">
            <rect id="Rectangle" x="0" y="0" width="40" height="40"></rect>
        </g>
        <path d="M32.5,30 C32.225,30 32,29.776 32,29.5 C32,29.224 32.225,29 32.5,29 C32.775,29 33,29.224 33,29.5 C33,29.776 32.775,30 32.5,30 L32.5,30 Z M28,33 C27.448,33 27,32.551 27,32 C27,31.449 27.448,31 28,31 C28.552,31 29,31.449 29,32 C29,32.551 28.552,33 28,33 L28,33 Z M25,24 C25,22.897 25.897,22 27,22 C28.103,22 29,22.897 29,24 C29,25.103 28.103,26 27,26 C25.897,26 25,25.103 25,24 L25,24 Z M22.5,20 C22.225,20 22,19.776 22,19.5 C22,19.224 22.225,19 22.5,19 C22.775,19 23,19.224 23,19.5 C23,19.776 22.775,20 22.5,20 L22.5,20 Z M32,16 C32.552,16 33,16.449 33,17 C33,17.551 32.552,18 32,18 C31.448,18 31,17.551 31,17 C31,16.449 31.448,16 32,16 L32,16 Z M21,27 C20.448,27 20,26.551 20,26 C20,25.449 20.448,25 21,25 C21.552,25 22,25.449 22,26 C22,26.551 21.552,27 21,27 L21,27 Z M32.5,28 C31.673,28 31,28.673 31,29.5 C31,29.621 31.019,29.738 31.046,29.851 L29.608,30.823 C29.285,30.382 28.787,30.084 28.216,30.022 L28.01,26.812 C29.166,26.396 30,25.298 30,24 C30,23.242 29.708,22.557 29.243,22.028 L31.369,18.888 C31.568,18.955 31.778,19 32,19 C33.103,19 34,18.103 34,17 C34,15.897 33.103,15 32,15 C30.897,15 30,15.897 30,17 C30,17.52 30.204,17.989 30.529,18.345 L28.463,21.397 C28.028,21.152 27.534,21 27,21 C26.407,21 25.857,21.178 25.393,21.476 L23.918,19.968 C23.967,19.82 24,19.665 24,19.5 C24,18.673 23.327,18 22.5,18 C21.673,18 21,18.673 21,19.5 C21,20.327 21.673,21 22.5,21 C22.794,21 23.066,20.912 23.299,20.765 L24.654,22.152 C24.251,22.663 24,23.3 24,24 C24,24.128 24.022,24.25 24.038,24.374 L22.502,24.693 C22.135,24.272 21.602,24 21,24 C19.897,24 19,24.897 19,26 C19,27.103 19.897,28 21,28 C22.103,28 23,27.103 23,26 C23,25.87 22.985,25.743 22.962,25.619 L24.328,25.335 C24.821,26.318 25.828,27 27,27 C27.007,27 27.014,26.998 27.02,26.998 L27.223,30.158 C26.505,30.461 26,31.173 26,32 C26,33.103 26.897,34 28,34 C29.103,34 30,33.103 30,32 C30,31.925 29.986,31.854 29.978,31.78 L31.594,30.687 C31.847,30.88 32.158,31 32.5,31 C33.327,31 34,30.327 34,29.5 C34,28.673 33.327,28 32.5,28 L32.5,28 Z M15,7 C19.715,7 23,8.581 23,10 C23,11.419 19.715,13 15,13 C10.285,13 7,11.419 7,10 C7,8.581 10.285,7 15,7 L15,7 Z M23,29.642 C23,30.996 19.715,32.504 15,32.504 C10.285,32.504 7,30.996 7,29.642 L7,25.574 C8.642,26.931 12.07,27.704 15.425,27.704 C16.261,27.704 17.106,27.656 17.937,27.563 L17.825,26.569 C17.031,26.658 16.224,26.704 15.425,26.704 C10.603,26.704 7,25.16 7,23.78 L7,18.85 C8.642,20.207 12.07,20.979 15.425,20.979 C17.127,20.979 18.78,20.787 20.205,20.424 L19.959,19.455 C18.612,19.798 17.045,19.979 15.425,19.979 C10.603,19.979 7,18.436 7,17.057 L7,11.887 C8.469,13.164 11.426,14 15,14 C18.574,14 21.531,13.164 23,11.887 L23,17 L24,17 L24,10 C24,7.72 20.131,6 15,6 C9.869,6 6,7.72 6,10 L6,29.642 C6,31.844 9.869,33.504 15,33.504 C20.131,33.504 24,31.844 24,29.642 L24,27 L23,27 L23,29.642 Z" id="Amazon-Neptune_Icon_32_Squid" fill="#FFFFFF"></path>
    </g>
</svg>