<svg id="b2f464cb-b92f-4bc9-9d8a-b83d938321a8" xmlns="http://www.w3.org/2000/svg" width="18" height="18" viewBox="0 0 18 18"><defs><linearGradient id="fbb0c6d7-8dd3-4464-9217-32033b9dbe40" x1="7.37" y1="0.5" x2="7.37" y2="13.23" gradientUnits="userSpaceOnUse"><stop offset="0" stop-color="#b3b2b3" /><stop offset="0.38" stop-color="#afaeaf" /><stop offset="0.76" stop-color="#a2a2a2" /><stop offset="1" stop-color="#979797" /></linearGradient><linearGradient id="f4df9409-8db7-49ba-98de-c39ce5949175" x1="8.96" y1="13.29" x2="17.32" y2="13.29" gradientUnits="userSpaceOnUse"><stop offset="0" stop-color="#005ba1" /><stop offset="0.07" stop-color="#0060a9" /><stop offset="0.36" stop-color="#0071c8" /><stop offset="0.52" stop-color="#0078d4" /><stop offset="0.64" stop-color="#0074cd" /><stop offset="0.82" stop-color="#006abb" /><stop offset="1" stop-color="#005ba1" /></linearGradient></defs><title>Icon-databases-125</title><g><polygon points="7.37 0.5 0.68 4.38 0.68 5.34 1.91 5.34 1.91 12.62 3.12 12.62 3.12 5.34 11.62 5.34 11.62 13.23 12.83 13.23 12.83 5.34 14.06 5.34 14.06 4.38 7.37 0.5" fill="url(#fbb0c6d7-8dd3-4464-9217-32033b9dbe40)" /><path d="M4.33,12.62H6.76V10.2H4.33Zm3.64,0H10.4V10.2H8ZM4.33,9H6.76V6.55H4.33ZM8,6.55V9H10.4V6.55Z" fill="#50e6ff" /><path d="M13.14,10.41C10.83,10.41,9,9.81,9,9.08v7.09c0,.73,1.84,1.32,4.12,1.33h.06c2.31,0,4.18-.6,4.18-1.33V9.08C17.32,9.81,15.45,10.41,13.14,10.41Z" fill="url(#f4df9409-8db7-49ba-98de-c39ce5949175)" /><path d="M17.32,9.08c0,.73-1.87,1.33-4.18,1.33S9,9.81,9,9.08s1.87-1.33,4.18-1.33,4.18.59,4.18,1.33" fill="#e8e8e8" /><path d="M16.35,9c0,.47-1.44.85-3.21.85S9.94,9.44,9.94,9s1.43-.85,3.2-.85,3.21.38,3.21.85" fill="#50e6ff" /><path d="M13.14,9.17a8.59,8.59,0,0,0-2.54.32,8.5,8.5,0,0,0,2.54.33,8.5,8.5,0,0,0,2.54-.33A8.59,8.59,0,0,0,13.14,9.17Z" fill="#32bedd" /></g></svg>