<svg id="f78ef37b-fde4-461c-94e2-dccff32dd5d7" xmlns="http://www.w3.org/2000/svg" width="18" height="18" viewBox="0 0 18 18"><defs><linearGradient id="bf8a9583-aae9-48ff-87d8-fb8f44e7d6bd" x1="9" y1="16.82" x2="9" y2="1.18" gradientUnits="userSpaceOnUse"><stop offset="0" stop-color="#198ab3" /><stop offset="0.09" stop-color="#1f9dc4" /><stop offset="0.24" stop-color="#28b5d9" /><stop offset="0.4" stop-color="#2dc6e9" /><stop offset="0.57" stop-color="#31d1f2" /><stop offset="0.78" stop-color="#32d4f5" /></linearGradient><linearGradient id="f9b1bb8c-728e-4abf-bce5-6c11ac170c5b" x1="8.36" y1="11.35" x2="8.36" y2="14.46" gradientUnits="userSpaceOnUse"><stop offset="0" stop-color="#c69aeb" /><stop offset="1" stop-color="#6f4bb2" /></linearGradient></defs><title>Icon-web-42</title><path d="M14.18,5.89A4.85,4.85,0,0,0,9.23,1.18,5,5,0,0,0,4.48,4.47,4.61,4.61,0,0,0,.5,9,4.67,4.67,0,0,0,5.29,13.5a3,3,0,0,0,.42,0h1.2a1.47,1.47,0,0,1-.11-.56v0A1.51,1.51,0,0,1,7,12.21H5.6l-.31,0A3.41,3.41,0,0,1,1.77,9,3.33,3.33,0,0,1,4.68,5.73l.76-.12.25-.73A3.73,3.73,0,0,1,9.23,2.45,3.6,3.6,0,0,1,12.91,5.9V7L14,7.15a2.59,2.59,0,0,1,2.26,2.49,2.63,2.63,0,0,1-2.62,2.54h-.15l-.08,0h-1A3.92,3.92,0,0,0,8.54,9a.64.64,0,1,0,0,1.27,2.65,2.65,0,0,1,0,5.29.64.64,0,1,0,0,1.27,3.92,3.92,0,0,0,3.87-3.34h1.05a.64.64,0,0,0,.2,0A3.91,3.91,0,0,0,17.5,9.64,3.86,3.86,0,0,0,14.18,5.89Z" fill="url(#bf8a9583-aae9-48ff-87d8-fb8f44e7d6bd)" /><rect x="6.8" y="11.35" width="3.12" height="3.12" rx="1.54" fill="url(#f9b1bb8c-728e-4abf-bce5-6c11ac170c5b)" /></svg>