<svg xmlns="http://www.w3.org/2000/svg" width="18" height="18" viewBox="0 0 18 18"><defs><linearGradient id="afc27830-8354-4c08-adf9-e299527ebe55" x1="7.94" y1="7.7" x2="7.94" y2="3.75" gradientUnits="userSpaceOnUse"><stop offset="0" stop-color="#5e9624" /><stop offset="1" stop-color="#76bc2d" /></linearGradient><linearGradient id="edc561ac-a1d6-439f-a08b-594ef0214ee3" x1="7.94" y1="14.26" x2="7.94" y2="10.31" gradientUnits="userSpaceOnUse"><stop offset="0" stop-color="#5e9624" /><stop offset="1" stop-color="#76bc2d" /></linearGradient></defs><title>Icon-integration-206</title><g><g id="aa7ea84e-faaa-4698-89ff-203b553089f2"><g><g><path d="M1.06,1.42H2.35a0,0,0,0,1,0,0V5a.29.29,0,0,1-.29.29H.77A.29.29,0,0,1,.48,5V2A.57.57,0,0,1,1.06,1.42Z" fill="#a3a3a3" /><path d="M1.06,1.42H2.35a0,0,0,0,1,0,0V5a.29.29,0,0,1-.29.29H.77A.29.29,0,0,1,.48,5V2A.57.57,0,0,1,1.06,1.42Z" fill="#a3a3a3" opacity="0.5" /></g><g><path d="M15.65,1.42h1.29a.57.57,0,0,1,.57.57V5a.29.29,0,0,1-.29.29H15.94A.29.29,0,0,1,15.65,5V1.42A0,0,0,0,1,15.65,1.42Z" fill="#a3a3a3" /><path d="M15.65,1.42h1.29a.57.57,0,0,1,.57.57V5a.29.29,0,0,1-.29.29H15.94A.29.29,0,0,1,15.65,5V1.42A0,0,0,0,1,15.65,1.42Z" fill="#a3a3a3" opacity="0.5" /></g><path d="M8.66-6.19H9.91a0,0,0,0,1,0,0v17a0,0,0,0,1,0,0H8.66a.57.57,0,0,1-.57-.57V-5.62A.57.57,0,0,1,8.66-6.19Z" transform="translate(11.32 -6.68) rotate(90)" fill="#949494" /><g><path d="M.77,12.69H2.06a.29.29,0,0,1,.29.29v3.61a0,0,0,0,1,0,0H1.06A.57.57,0,0,1,.48,16V13A.29.29,0,0,1,.77,12.69Z" fill="#a3a3a3" /><path d="M.77,12.69H2.06a.29.29,0,0,1,.29.29v3.61a0,0,0,0,1,0,0H1.06A.57.57,0,0,1,.48,16V13A.29.29,0,0,1,.77,12.69Z" fill="#a3a3a3" opacity="0.5" /></g><g><path d="M15.94,12.69h1.29a.29.29,0,0,1,.29.29v3a.57.57,0,0,1-.57.57H15.65a0,0,0,0,1,0,0V13A.29.29,0,0,1,15.94,12.69Z" fill="#a3a3a3" /><path d="M15.94,12.69h1.29a.29.29,0,0,1,.29.29v3a.57.57,0,0,1-.57.57H15.65a0,0,0,0,1,0,0V13A.29.29,0,0,1,15.94,12.69Z" fill="#a3a3a3" opacity="0.5" /></g><path d="M8.66,7.16H9.91a0,0,0,0,1,0,0v17a0,0,0,0,1,0,0H8.66a.57.57,0,0,1-.57-.57V7.73A.57.57,0,0,1,8.66,7.16Z" transform="translate(-6.68 24.68) rotate(-90)" fill="#949494" /><path d="M14.91,8.84,13.09,7a.09.09,0,0,0-.16.07V8.2a.09.09,0,0,1-.1.1H7.59a1.05,1.05,0,0,0-.83-.41,1.1,1.1,0,1,0,0,2.19,1.08,1.08,0,0,0,.84-.42h5.23a.09.09,0,0,1,.1.09v1.11a.09.09,0,0,0,.16.06l1.82-1.81A.2.2,0,0,0,14.91,8.84Z" fill="#5ea0ef" /><path d="M11.55,5.59,9.73,3.78a.09.09,0,0,0-.16.07V5a.09.09,0,0,1-.09.1H6.2a1.07,1.07,0,0,0-.84-.41,1.1,1.1,0,1,0,.85,1.77H9.48a.09.09,0,0,1,.09.09V7.61a.09.09,0,0,0,.16.06l1.82-1.81A.2.2,0,0,0,11.55,5.59Z" fill="url(#afc27830-8354-4c08-adf9-e299527ebe55)" /><path d="M11.55,12.15,9.73,10.34a.09.09,0,0,0-.16.07v1.1a.1.1,0,0,1-.09.1H6.2a1.07,1.07,0,0,0-.84-.41A1.1,1.1,0,1,0,6.21,13H9.48a.09.09,0,0,1,.09.09v1.11a.09.09,0,0,0,.16.06l1.82-1.81A.2.2,0,0,0,11.55,12.15Z" fill="url(#edc561ac-a1d6-439f-a08b-594ef0214ee3)" /></g></g></g></svg>