<svg xmlns="http://www.w3.org/2000/svg" width="18" height="18" viewBox="0 0 18 18"><defs><linearGradient id="bc749e5b-d92e-4108-bd03-94292d319bad" x1="6.11" y1="12.5" x2="6.11" y2="9.42" gradientUnits="userSpaceOnUse"><stop offset="0" stop-color="#6f4bb2" /><stop offset="1" stop-color="#c69aeb" /></linearGradient><linearGradient id="a6c0d9d6-4ddb-42bb-a4e1-0936b3e0d5bd" x1="12.06" y1="12.5" x2="12.06" y2="9.42" gradientUnits="userSpaceOnUse"><stop offset="0" stop-color="#6f4bb2" /><stop offset="1" stop-color="#c69aeb" /></linearGradient></defs><title>Icon-integration-209</title><g><g id="a648095e-7302-4e27-a235-6a21bc33cd8e"><polygon points="12.38 10.79 9.4 6.01 9.13 6.18 8.87 6.01 5.88 10.79 6.49 11.16 9.13 6.93 11.78 11.17 12.38 10.79" fill="#949494" /><circle id="ba379c67-2b18-4ca9-949e-135360c6791b" cx="9.08" cy="6.21" r="1.54" fill="#86d633" /><circle id="f9fc8275-0c73-430b-aa4d-fa59c8a3d174" cx="6.11" cy="10.96" r="1.54" fill="url(#bc749e5b-d92e-4108-bd03-94292d319bad)" /><circle id="bcd6bcfb-f475-487d-a26d-eedd4cead763" cx="12.06" cy="10.96" r="1.54" fill="url(#a6c0d9d6-4ddb-42bb-a4e1-0936b3e0d5bd)" /><g><path d="M1.15,1.27H2.44a0,0,0,0,1,0,0v3.6a.29.29,0,0,1-.29.29H.87a.29.29,0,0,1-.29-.29v-3A.57.57,0,0,1,1.15,1.27Z" fill="#999" /><path d="M1.15,1.27H2.44a0,0,0,0,1,0,0v3.6a.29.29,0,0,1-.29.29H.87a.29.29,0,0,1-.29-.29v-3A.57.57,0,0,1,1.15,1.27Z" fill="#999" opacity="0.5" /></g><g><path d="M15.72,1.27H17a.57.57,0,0,1,.57.57v3a.29.29,0,0,1-.29.29H16a.29.29,0,0,1-.29-.29V1.27A0,0,0,0,1,15.72,1.27Z" fill="#999" /><path d="M15.72,1.27H17a.57.57,0,0,1,.57.57v3a.29.29,0,0,1-.29.29H16a.29.29,0,0,1-.29-.29V1.27A0,0,0,0,1,15.72,1.27Z" fill="#999" opacity="0.5" /></g><path d="M8.74-6.32H10a0,0,0,0,1,0,0v17a0,0,0,0,1,0,0H8.74a.57.57,0,0,1-.57-.57V-5.75A.57.57,0,0,1,8.74-6.32Z" transform="translate(11.26 -6.9) rotate(90)" fill="#949494" /><g><path d="M.87,12.52H2.16a.29.29,0,0,1,.29.29v3.6a0,0,0,0,1,0,0H1.15a.57.57,0,0,1-.57-.57v-3A.29.29,0,0,1,.87,12.52Z" fill="#999" /><path d="M.87,12.52H2.16a.29.29,0,0,1,.29.29v3.6a0,0,0,0,1,0,0H1.15a.57.57,0,0,1-.57-.57v-3A.29.29,0,0,1,.87,12.52Z" fill="#999" opacity="0.5" /></g><g><path d="M16,12.52H17.3a.29.29,0,0,1,.29.29v3a.57.57,0,0,1-.57.57H15.72a0,0,0,0,1,0,0v-3.6A.29.29,0,0,1,16,12.52Z" fill="#999" /><path d="M16,12.52H17.3a.29.29,0,0,1,.29.29v3a.57.57,0,0,1-.57.57H15.72a0,0,0,0,1,0,0v-3.6A.29.29,0,0,1,16,12.52Z" fill="#999" opacity="0.5" /></g><path d="M8.74,7H10a0,0,0,0,1,0,0V24a0,0,0,0,1,0,0H8.74a.57.57,0,0,1-.57-.57V7.57A.57.57,0,0,1,8.74,7Z" transform="translate(-6.42 24.59) rotate(-90)" fill="#949494" /></g></g></svg>