<svg id="be35ad43-1aa6-4603-935f-1197686f7c0c" xmlns="http://www.w3.org/2000/svg" width="18" height="18" viewBox="0 0 18 18"><defs><linearGradient id="eecac283-5787-4815-966b-5038e8694ef9" x1="9" y1="1.99" x2="9" y2="14.03" gradientUnits="userSpaceOnUse"><stop offset="0" stop-color="#5ea0ef" /><stop offset="0.18" stop-color="#559cec" /><stop offset="0.47" stop-color="#3c91e5" /><stop offset="0.84" stop-color="#1380da" /><stop offset="1" stop-color="#0078d4" /></linearGradient><linearGradient id="f10368bd-0855-4655-99c6-f816802ac965" x1="9.06" y1="6.39" x2="9.06" y2="16.01" gradientUnits="userSpaceOnUse"><stop offset="0" stop-color="#b3b3b3" /><stop offset="0.12" stop-color="#adadad" /><stop offset="0.64" stop-color="#9b9b9b" /><stop offset="1" stop-color="#949494" /></linearGradient></defs><path d="M17.5,10.26a3.82,3.82,0,0,0-3.32-3.67A4.8,4.8,0,0,0,9.23,2,4.94,4.94,0,0,0,4.51,5.2a4.56,4.56,0,0,0-4,4.39A4.62,4.62,0,0,0,5.29,14h8.17a1.2,1.2,0,0,0,.2,0A3.87,3.87,0,0,0,17.5,10.26Z" fill="url(#eecac283-5787-4815-966b-5038e8694ef9)" /><path d="M11.88,15.53a.48.48,0,0,1-.49.48H6.72a.48.48,0,0,1-.49-.48V6.87a.48.48,0,0,1,.49-.48h4.67a.48.48,0,0,1,.49.48Z" fill="url(#f10368bd-0855-4655-99c6-f816802ac965)" /><path id="b27878c5-7f3c-4613-bf1f-666b5e29766a" d="M6.9,7.39H8V8.74H6.9Zm1.62,0H9.6V8.74H8.52Zm1.62,0h1.08V8.74H10.14ZM6.9,9.55H8V10.9H6.9Zm1.62,0H9.6V10.9H8.52Zm1.62,0h1.08V10.9H10.14ZM6.9,11.71H8v1.35H6.9Zm1.62,0H9.6v1.35H8.52Zm0,2.16H9.6v1.62H8.52Zm1.62-2.16h1.08v1.35H10.14Z" fill="#fff" /></svg>