<svg id="eee52b4a-717a-410e-b54d-5e8fdc913b96" xmlns="http://www.w3.org/2000/svg" width="18" height="18" viewBox="0 0 18 18"><defs><linearGradient id="b6d2ab89-b9ea-48bf-8e7f-c0a0e94aaccb" x1="5.06" y1="11.62" x2="5.06" y2="14.5" gradientUnits="userSpaceOnUse"><stop offset="0" stop-color="#b77af4" /><stop offset="1" stop-color="#773adc" /></linearGradient><linearGradient id="aa835ab6-90f2-4950-9adc-1bef25952f94" x1="13.06" y1="11.62" x2="13.06" y2="14.5" gradientUnits="userSpaceOnUse"><stop offset="0" stop-color="#b77af4" /><stop offset="1" stop-color="#773adc" /></linearGradient></defs><title>Icon-integration-218</title><path id="a2734abb-83a3-460e-90d8-64455870d970" d="M1.06,1.6V16.52a.54.54,0,0,0,.54.54H16.52a.54.54,0,0,0,.54-.54V1.6a.54.54,0,0,0-.54-.54H1.6A.54.54,0,0,0,1.06,1.6Zm14.56,14H3a.54.54,0,0,1-.54-.54V2.5H15.62Z" fill="#0078d4" /><path id="ba3f6f82-9a3b-4057-ad2f-e8d6b6ae1b0d" d="M3.62,3.62H6.5V6.5H3.62Z" fill="#ffca00" /><path id="f46b9afd-fd39-4ca3-b68e-e5ca657f5953" d="M3.62,7.62H6.5V10.5H3.62Z" fill="#e62323" /><path id="e7dd79f4-ae03-42ec-8f08-c2efdcdd3517" d="M7.62,7.62H10.5V10.5H7.62Z" fill="#5ea0ef" /><path id="bdd26cbb-f087-4b40-a809-b68b4e92b643" d="M3.62,11.62H6.5V14.5H3.62Z" fill="url(#b6d2ab89-b9ea-48bf-8e7f-c0a0e94aaccb)" /><path id="b42c6875-f245-4ba4-9264-2088283c3036" d="M7.62,11.62H10.5V14.5H7.62Z" fill="#e62323" /><path id="a8d52762-2bc4-48b4-9685-903c7c3b7d84" d="M11.62,11.62H14.5V14.5H11.62Z" fill="url(#aa835ab6-90f2-4950-9adc-1bef25952f94)" /></svg>