<svg xmlns="http://www.w3.org/2000/svg" width="24px" height="24px" viewBox="0 0 24 24"><defs><style>.cls-1{fill:#aecbfa;}.cls-2{fill:#669df6;}.cls-3{fill:#4285f4;}</style></defs><title>Icon_24px_CloudCode_Color</title><g data-name="Product Icons"><g ><g data-name="Layer 1-2"><polygon class="cls-1" points="5.45 8.53 8.55 5.42 11.65 8.53 8.55 11.65 5.45 8.53"/><polygon class="cls-2" points="2 12 5.1 8.88 8.2 12 5.1 15.12 2 12"/><polygon class="cls-3" points="5.45 15.47 8.55 12.35 11.65 15.47 8.55 18.59 5.45 15.47"/><polygon class="cls-1" points="12.35 8.53 15.45 5.42 18.55 8.53 15.45 11.65 12.35 8.53"/><polygon class="cls-2" points="15.8 12 18.9 8.88 22 12 18.9 15.12 15.8 12"/><polygon class="cls-3" points="12.35 15.47 15.45 12.35 18.55 15.47 15.45 18.59 12.35 15.47"/></g></g></g></svg>