<svg version="1.1" id="Artwork" xmlns="http://www.w3.org/2000/svg" xmlns:xlink="http://www.w3.org/1999/xlink" x="0px" y="0px"
	 width="24px" height="24px" viewBox="0 0 24 24" style="enable-background:new 0 0 24 24;" xml:space="preserve">
<style type="text/css">
	.st0{fill:#669DF6;}
	.st1{fill:#AECBFA;}
	.st2{fill:#4285F4;}
</style>
<path class="st0" d="M10.48,6.35c0-0.203,0.04-0.404,0.12-0.591C7.743,6.4,5.6,8.953,5.6,12c0,0.414,0.336,0.75,0.75,0.75
	S7.1,12.414,7.1,12c0-2.283,1.571-4.2,3.688-4.742C10.589,6.997,10.481,6.678,10.48,6.35z M17.65,11.25
	c-0.414,0-0.75,0.336-0.75,0.75c0,2.283-1.571,4.2-3.688,4.742c0.328,0.43,0.4,1.003,0.188,1.5C16.257,17.6,18.4,15.047,18.4,12
	C18.4,11.586,18.064,11.25,17.65,11.25z"/>
<path class="st1" d="M20.605,10.48c0.221,0.001,0.438,0.05,0.638,0.145C20.573,6.118,16.69,2.645,12,2.645
	c-0.414,0-0.75,0.336-0.75,0.75s0.336,0.75,0.75,0.75c3.904,0,7.143,2.866,7.745,6.603C19.998,10.573,20.298,10.48,20.605,10.48z
	 M12,19.855c-3.904,0-7.143-2.866-7.745-6.603c-0.441,0.307-1.012,0.354-1.497,0.123c0.669,4.507,4.555,7.98,9.242,7.98
	c0.414,0,0.75-0.336,0.75-0.75C12.75,20.191,12.414,19.855,12,19.855z"/>
<path class="st2" d="M12,15.543c-1.957,0-3.543-1.586-3.543-3.543S10.043,8.457,12,8.457s3.543,1.586,3.543,3.543c0,0,0,0,0,0
	C15.54,13.956,13.956,15.54,12,15.543z M12,9.957c-1.128,0-2.043,0.915-2.043,2.043s0.915,2.043,2.043,2.043
	s2.043-0.915,2.043-2.043C14.041,10.872,13.128,9.959,12,9.957L12,9.957z M20.605,11.23c-0.425,0-0.77,0.345-0.77,0.77
	c0,0.425,0.345,0.77,0.77,0.77c0.425,0,0.77-0.345,0.77-0.77C21.374,11.575,21.03,11.23,20.605,11.23L20.605,11.23z M12,5.578
	c-0.425,0-0.77,0.345-0.77,0.77s0.345,0.77,0.77,0.77c0.425,0,0.77-0.345,0.77-0.77v0C12.77,5.923,12.425,5.579,12,5.578z
	 M3.395,11.23c-0.425,0-0.77,0.345-0.77,0.77s0.345,0.77,0.77,0.77s0.77-0.345,0.77-0.77l0,0C4.165,11.575,3.82,11.23,3.395,11.23z
	 M12,16.88c-0.425,0-0.77,0.345-0.77,0.77c0,0.425,0.345,0.77,0.77,0.77c0.425,0,0.77-0.345,0.77-0.77c0,0,0,0,0,0
	C12.77,17.225,12.425,16.88,12,16.88z"/>
</svg>
