<svg id="b716ac5b-e950-447e-8b9b-c943a9f31cb0" data-name="Artwork" xmlns="http://www.w3.org/2000/svg" width="24px" height="24px" viewBox="0 0 24 24"><path d="M16.791,6.375a.841.841,0,0,1,.834.846V17.64a.685.685,0,0,1-.75.735H4.688L2.25,20.812V7.221a.841.841,0,0,1,.834-.846Z" fill="#4285f4"/><rect x="12.375" y="11.438" width="2.813" height="4.875" fill="#669df6"/><rect x="8.625" y="8.625" width="2.813" height="7.688" fill="#aecbfa"/><rect x="4.875" y="10.125" width="2.813" height="6.188" fill="#fff"/><path d="M20.916,3.188a.839.839,0,0,1,.833.8V17.625l-2.25-2.25h-.75v-9.3a.823.823,0,0,0-.824-.821H6.375V4.033a.841.841,0,0,1,.8-.845H20.916Z" fill="#669df6"/></svg>