<svg width="24px" height="24px" viewBox="0 0 24 24" version="1.1" xmlns="http://www.w3.org/2000/svg" xmlns:xlink="http://www.w3.org/1999/xlink">
    <g stroke="none" stroke-width="1" fill="none" fill-rule="evenodd">
        <path d="M20.8835903,10.5440944 C20.9781493,11.1487379 21.0047782,11.7601883 20.9643631,12.3696235 C20.7317506,15.8772761 18.3216166,19.0005983 14.8062031,20.2110523 C13.8104499,20.5539176 12.7832093,20.7246977 11.7634663,20.7264936 L11.5601898,21.8910638 C11.5626966,21.9271021 11.5456933,21.9614214 11.5152525,21.981812 C11.4847841,22.0021634 11.4452097,22.005689 11.410617,21.9911129 L9.811,20.5184813 L9.64372067,20.4822901 L9.669,20.3874813 L8.78966748,19.5781491 C8.76161099,19.5538155 8.74825872,19.5175404 8.75434453,19.4821846 C8.76043034,19.4468289 8.78509384,19.417391 8.81959096,19.4043076 L12.0321393,17.973291 C12.0749711,17.9334373 12.1426661,17.9313049 12.1898407,17.9683233 C12.2370152,18.0053417 12.2488154,18.0698547 12.2173301,18.1186121 L12.0155875,19.2794595 C12.7948186,19.2565173 13.5772065,19.1150241 14.3385449,18.8528743 C17.2683224,17.844071 19.2768815,15.2411546 19.4707365,12.317941 C19.4976443,11.9121881 19.4888442,11.5053997 19.4439444,11.1012002 L19.4034948,10.7985926 L20.8835903,10.5440944 Z M4.16166314,15.3538645 C5.12973994,14.6049837 6.55002462,14.7475869 7.33395776,15.6723777 C8.11789089,16.5971686 7.96861296,17.9539476 7.00053616,18.7028284 C6.03245936,19.4517093 4.61217468,19.3091061 3.82824154,18.3843152 C3.04430841,17.4595244 3.19358634,16.1027454 4.16166314,15.3538645 Z M13.8250162,10.7362412 C14.524471,11.6989581 14.2745256,13.0729544 13.2667476,13.805148 C12.2589696,14.5373416 10.8749841,14.3504655 10.1755293,13.3877487 C9.47607461,12.4250318 9.72601998,11.0510355 10.733798,10.3188419 C11.7415759,9.58664834 13.1255615,9.77352439 13.8250162,10.7362412 Z M12.7013761,2.00888708 L15.3223256,4.42185088 C15.3503821,4.44618452 15.3637344,4.48245962 15.3576485,4.51781536 C15.3515627,4.5531711 15.3268992,4.58260905 15.2924021,4.59569241 L12.0798537,6.02670903 C12.0370219,6.06656265 11.969327,6.06869507 11.9221524,6.03167669 C11.8749778,5.99465831 11.8631777,5.93014527 11.894663,5.88138788 L12.0755478,4.84237494 C11.2665703,4.85667135 10.4529422,4.99873862 9.66196307,5.27109456 C6.25632791,6.44374878 4.14790995,9.7467706 4.56704927,13.1120067 L4.59462909,13.3100179 L3.11405504,13.5614332 C2.47899284,9.43950174 5.02711863,5.34779388 9.19430489,3.91291658 C10.219335,3.55997041 11.277569,3.38946276 12.3263068,3.39774471 L12.5518032,2.10893619 C12.5492965,2.07289786 12.5662998,2.03857863 12.5967406,2.01818797 C12.6272089,1.99783657 12.6667834,1.99431096 12.7013761,2.00888708 Z M11.1559562,10.8998929 C10.4841042,11.388022 10.317474,12.3040195 10.7837772,12.9458308 C11.2500803,13.587642 12.1727373,13.712226 12.8445893,13.224097 C13.5164413,12.7359679 13.6830716,11.8199704 13.2167684,11.1781591 C12.7504653,10.5363479 11.8278082,10.4117639 11.1559562,10.8998929 Z M16.949404,5.71838409 C17.8895322,4.93768469 19.3141614,5.03285013 20.1314024,5.93094206 C20.9486434,6.82903398 20.8490236,8.18996324 19.9088954,8.97066264 C18.9687672,9.75136204 17.544138,9.6561966 16.726897,8.75810467 C15.909656,7.86001275 16.0092758,6.49908349 16.949404,5.71838409 Z" fill="#4285F4" fill-rule="nonzero"></path>
    </g>
</svg>