<svg width="48" height="48" viewBox="0 0 48 48" fill="none" xmlns="http://www.w3.org/2000/svg">
<rect width="48" height="48" rx="12" fill="#E0095F"/>
<mask id="mask0_1_24" style="mask-type:alpha" maskUnits="userSpaceOnUse" x="9" y="9" width="30" height="30">
<rect x="9" y="9" width="30" height="30" fill="#D9D9D9"/>
</mask>
<g mask="url(#mask0_1_24)">
<path d="M24 30.875C25.2083 30.875 26.3229 30.5833 27.3438 30C28.3646 29.4167 29.1875 28.625 29.8125 27.625C29.9375 27.375 29.9271 27.125 29.7812 26.875C29.6354 26.625 29.4167 26.5 29.125 26.5H18.875C18.5833 26.5 18.3646 26.625 18.2188 26.875C18.0729 27.125 18.0625 27.375 18.1875 27.625C18.8125 28.625 19.6406 29.4167 20.6719 30C21.7031 30.5833 22.8125 30.875 24 30.875ZM20.125 21.4375L20.7813 22.0938C20.9688 22.2813 21.1875 22.375 21.4375 22.375C21.6875 22.375 21.9063 22.2813 22.0938 22.0938C22.2813 21.9063 22.3698 21.6875 22.3594 21.4375C22.349 21.1875 22.2604 20.9688 22.0938 20.7813L21 19.6563C20.75 19.4063 20.4531 19.2812 20.1094 19.2812C19.7656 19.2812 19.4688 19.4063 19.2188 19.6563L18.0938 20.7813C17.9063 20.9688 17.8125 21.1875 17.8125 21.4375C17.8125 21.6875 17.9063 21.9063 18.0938 22.0938C18.2604 22.2604 18.474 22.349 18.7344 22.3594C18.9948 22.3698 19.2188 22.2917 19.4063 22.125L20.125 21.4375ZM27.875 21.4375L28.5938 22.125C28.7813 22.2917 29 22.375 29.25 22.375C29.5 22.375 29.7188 22.2813 29.9063 22.0938C30.0938 21.9063 30.1875 21.6875 30.1875 21.4375C30.1875 21.1875 30.0938 20.9688 29.9063 20.7813L28.7812 19.6563C28.5312 19.4063 28.2344 19.2812 27.8906 19.2812C27.5469 19.2812 27.25 19.4063 27 19.6563L25.875 20.7813C25.7083 20.9688 25.625 21.1875 25.625 21.4375C25.625 21.6875 25.7188 21.9063 25.9063 22.0938C26.0938 22.2813 26.3125 22.375 26.5625 22.375C26.8125 22.375 27.0312 22.2813 27.2187 22.0938L27.875 21.4375ZM24 36.5C22.2708 36.5 20.6458 36.1719 19.125 35.5156C17.6042 34.8594 16.2812 33.9688 15.1562 32.8438C14.0312 31.7188 13.1406 30.3958 12.4844 28.875C11.8281 27.3542 11.5 25.7292 11.5 24C11.5 22.2708 11.8281 20.6458 12.4844 19.125C13.1406 17.6042 14.0312 16.2812 15.1562 15.1562C16.2812 14.0312 17.6042 13.1406 19.125 12.4844C20.6458 11.8281 22.2708 11.5 24 11.5C25.7292 11.5 27.3542 11.8281 28.875 12.4844C30.3958 13.1406 31.7188 14.0312 32.8438 15.1562C33.9688 16.2812 34.8594 17.6042 35.5156 19.125C36.1719 20.6458 36.5 22.2708 36.5 24C36.5 25.7292 36.1719 27.3542 35.5156 28.875C34.8594 30.3958 33.9688 31.7188 32.8438 32.8438C31.7188 33.9688 30.3958 34.8594 28.875 35.5156C27.3542 36.1719 25.7292 36.5 24 36.5ZM24 34C26.7917 34 29.1563 33.0313 31.0938 31.0938C33.0313 29.1563 34 26.7917 34 24C34 21.2083 33.0313 18.8438 31.0938 16.9063C29.1563 14.9688 26.7917 14 24 14C21.2083 14 18.8438 14.9688 16.9063 16.9063C14.9688 18.8438 14 21.2083 14 24C14 26.7917 14.9688 29.1563 16.9063 31.0938C18.8438 33.0313 21.2083 34 24 34Z" fill="white"/>
</g>
</svg>
