<svg width="48" height="48" viewBox="0 0 48 48" fill="none" xmlns="http://www.w3.org/2000/svg">
<rect width="48" height="48" rx="12" fill="#E0095F"/>
<mask id="mask0_2_44" style="mask-type:alpha" maskUnits="userSpaceOnUse" x="9" y="9" width="30" height="30">
<rect x="9" y="9" width="30" height="30" fill="#D9D9D9"/>
</mask>
<g mask="url(#mask0_2_44)">
<path d="M32.75 27.75C32.3958 27.75 32.099 27.6302 31.8594 27.3906C31.6198 27.151 31.5 26.8542 31.5 26.5C31.5 26.1458 31.6198 25.849 31.8594 25.6094C32.099 25.3698 32.3958 25.25 32.75 25.25H34C34.3542 25.25 34.651 25.3698 34.8906 25.6094C35.1302 25.849 35.25 26.1458 35.25 26.5C35.25 26.8542 35.1302 27.151 34.8906 27.3906C34.651 27.6302 34.3542 27.75 34 27.75H32.75ZM32.75 32.75C32.3958 32.75 32.099 32.6302 31.8594 32.3906C31.6198 32.151 31.5 31.8542 31.5 31.5C31.5 31.1458 31.6198 30.849 31.8594 30.6094C32.099 30.3698 32.3958 30.25 32.75 30.25H34C34.3542 30.25 34.651 30.3698 34.8906 30.6094C35.1302 30.849 35.25 31.1458 35.25 31.5C35.25 31.8542 35.1302 32.151 34.8906 32.3906C34.651 32.6302 34.3542 32.75 34 32.75H32.75ZM26.5 34C25.8125 34 25.224 33.7552 24.7344 33.2656C24.2448 32.776 24 32.1875 24 31.5H22.75C22.3958 31.5 22.099 31.3802 21.8594 31.1406C21.6198 30.901 21.5 30.6042 21.5 30.25V27.75C21.5 27.3958 21.6198 27.099 21.8594 26.8594C22.099 26.6198 22.3958 26.5 22.75 26.5H24C24 25.8125 24.2448 25.224 24.7344 24.7344C25.224 24.2448 25.8125 24 26.5 24H29C29.3542 24 29.651 24.1198 29.8906 24.3594C30.1302 24.599 30.25 24.8958 30.25 25.25V32.75C30.25 33.1042 30.1302 33.401 29.8906 33.6406C29.651 33.8802 29.3542 34 29 34H26.5ZM17.75 30.25C16.375 30.25 15.1979 29.7604 14.2188 28.7812C13.2396 27.8021 12.75 26.625 12.75 25.25C12.75 23.875 13.2396 22.6979 14.2188 21.7188C15.1979 20.7396 16.375 20.25 17.75 20.25H19.625C20.1458 20.25 20.5885 20.0677 20.9531 19.7031C21.3177 19.3385 21.5 18.8958 21.5 18.375C21.5 17.8542 21.3177 17.4115 20.9531 17.0469C20.5885 16.6823 20.1458 16.5 19.625 16.5H15.25C14.8958 16.5 14.599 16.3802 14.3594 16.1406C14.1198 15.901 14 15.6042 14 15.25C14 14.8958 14.1198 14.599 14.3594 14.3594C14.599 14.1198 14.8958 14 15.25 14H19.625C20.8333 14 21.8646 14.4271 22.7187 15.2812C23.5729 16.1354 24 17.1667 24 18.375C24 19.5833 23.5729 20.6146 22.7187 21.4687C21.8646 22.3229 20.8333 22.75 19.625 22.75H17.75C17.0625 22.75 16.474 22.9948 15.9844 23.4844C15.4948 23.974 15.25 24.5625 15.25 25.25C15.25 25.9375 15.4948 26.526 15.9844 27.0156C16.474 27.5052 17.0625 27.75 17.75 27.75H19C19.3542 27.75 19.651 27.8698 19.8906 28.1094C20.1302 28.349 20.25 28.6458 20.25 29C20.25 29.3542 20.1302 29.651 19.8906 29.8906C19.651 30.1302 19.3542 30.25 19 30.25H17.75Z" fill="white"/>
</g>
</svg>
