<?xml version="1.0" encoding="UTF-8"?>
<svg width="64px" height="64px" viewBox="0 0 64 64" version="1.1" xmlns="http://www.w3.org/2000/svg" xmlns:xlink="http://www.w3.org/1999/xlink">
    <!-- Generator: Sketch 64 (93537) - https://sketch.com -->
    <title>Icon-Architecture/48/Arch_Amazon-Managed-Blockchain_48</title>
    <desc>Created with Sketch.</desc>
    <defs>
        <linearGradient x1="0%" y1="100%" x2="100%" y2="0%" id="linearGradient-1">
            <stop stop-color="#C8511B" offset="0%"></stop>
            <stop stop-color="#FF9900" offset="100%"></stop>
        </linearGradient>
    </defs>
    <g id="Icon-Architecture/48/Arch_Amazon-Managed-Blockchain_48" stroke="none" stroke-width="1" fill="none" fill-rule="evenodd">
        <g id="Icon-Architecture-BG/48/Blockchain" fill="url(#linearGradient-1)">
            <rect id="Rectangle" x="0" y="0" width="64" height="64"></rect>
        </g>
        <path d="M17.789,26.4 L15.957,25.599 C18.505,19.768 24.262,16 30.625,16 C36.987,16 42.744,19.768 45.293,25.599 L43.461,26.4 C41.23,21.297 36.192,18 30.625,18 C25.057,18 20.018,21.297 17.789,26.4 L17.789,26.4 Z M42.753,38.999 L44.483,40.001 C41.629,44.935 36.319,48 30.625,48 C24.931,48 19.621,44.935 16.767,40.001 L18.497,38.999 C20.996,43.317 25.643,46 30.625,46 C35.607,46 40.254,43.317 42.753,38.999 L42.753,38.999 Z M40,35 L36,35 L36,31 L40,31 L40,32 L40,34 L40,35 Z M26,35 L30,35 L30,31 L26,31 L26,35 Z M16,35 L20,35 L20,31 L16,31 L16,35 Z M49.388,32.401 L47.139,29.392 L45.537,30.589 L46.592,32 L42,32 L42,30 C42,29.448 41.553,29 41,29 L35,29 C34.447,29 34,29.448 34,30 L34,32 L32,32 L32,30 C32,29.448 31.553,29 31,29 L25,29 C24.447,29 24,29.448 24,30 L24,32 L22,32 L22,30 C22,29.448 21.553,29 21,29 L15,29 C14.447,29 14,29.448 14,30 L14,36 C14,36.552 14.447,37 15,37 L21,37 C21.553,37 22,36.552 22,36 L22,34 L24,34 L24,36 C24,36.552 24.447,37 25,37 L31,37 C31.553,37 32,36.552 32,36 L32,34 L34,34 L34,36 C34,36.552 34.447,37 35,37 L41,37 C41.553,37 42,36.552 42,36 L42,34 L46.592,34 L45.537,35.411 L47.139,36.608 L49.388,33.599 C49.653,33.244 49.653,32.756 49.388,32.401 L49.388,32.401 Z" id="Amazon-Managed-Blockchain-Icon_48_Squid" fill="#FFFFFF"></path>
    </g>
</svg>