<svg xmlns="http://www.w3.org/2000/svg" width="24px" height="24px" viewBox="0 0 24 24"><defs><style>.cls-1{fill:#4285f4;}.cls-2{fill:#669df6;}.cls-3{fill:#aecbfa;}</style></defs><title>Icon_24px_CloudBuild_Color</title><g data-name="Product Icons"><g ><g ><g ><polygon class="cls-1" points="12.15 16.24 15.67 14.21 15.67 10.15 14.49 9.46 10.97 15.56 12.15 16.24"/><polygon class="cls-2" points="8.63 10.15 8.63 14.21 9.81 14.89 13.34 8.8 12.15 8.11 8.63 10.15"/></g></g></g><polygon class="cls-3" points="11.46 17.45 7.24 15.01 7.24 10.15 3.49 7.98 3.49 17.18 11.46 21.78 11.46 17.45"/><polygon class="cls-3" points="7.93 8.95 12.15 6.51 16.37 8.95 20.13 6.78 12.15 2.17 4.17 6.78 7.93 8.95"/><polygon class="cls-3" points="17.06 15.01 12.84 17.45 12.84 21.78 20.82 17.18 20.82 7.98 17.06 10.15 17.06 15.01"/></g></svg>