<svg xmlns="http://www.w3.org/2000/svg" width="18" height="18" viewBox="0 0 18 18"><path fill="#773adc" d="M13.276 3.608V10.6l-6.01 3.514V7.11l6.01-3.503z" /><path fill="#b796f9" d="M13.276 3.608L7.268 7.12l-6-3.514 6-3.514 6.008 3.515z" /><path fill="#a67af4" d="M7.267 7.12v6.994L1.258 10.6V3.607l6.01 3.514z" /><path d="M11.66 13.1c0 .033-.006.066-.012.1s-.013.054-.02.08l-.027.095c-.01.032-.02.05-.032.076l-.047.1a1.434 1.434 0 0 1-.08.134l-.016.02a1.531 1.531 0 0 1-.1.129l-.02.025-.133.13a1.03 1.03 0 0 1-.1.08l-.09.07-.113.076-.12.077a3.322 3.322 0 0 1-.3.151l-.1.038-.25.094-.1.03-.163.047-.124.033-.175.038-.12.024-.36.05c-.037 0-.075.006-.113.01l-.212.015H8.3l-.16-.008-.296-.034-.142-.02-.167-.03-.13-.027-.2-.048-.108-.03-.34-.114-.16-.068-.08-.035-.232-.12a1.582 1.582 0 0 1-.932-1.3v1.406a1.582 1.582 0 0 0 .932 1.3l.232.12c.026.013.054.024.082.036l.14.062.018.006.366.123c.026.008.054.013.08.02l.2.048.052.013.08.014.167.03.067.01c.025 0 .05.006.075.01l.157.017c.026 0 .05.007.075.01h.072l.16.008h.455q.107-.006.213-.015h.112l.36-.05h.017l.1-.02.176-.038.123-.033.164-.047.034-.01c.02-.006.037-.014.056-.02l.25-.094.1-.038.3-.15.04-.023c.03-.017.053-.036.08-.054l.114-.076.088-.07.1-.08.02-.016c.04-.037.078-.076.114-.114l.02-.025.06-.07a.68.68 0 0 0 .042-.059l.016-.02.07-.11.01-.024a1.079 1.079 0 0 0 .046-.1l.027-.058.006-.02a1.01 1.01 0 0 0 .027-.094l.018-.064v-.017a1.09 1.09 0 0 0 .012-.1c.003-.034.007-.044.007-.065V13l-.013.1z" fill="#32bedd" /><path d="M10.735 11.7c1.238.714 1.244 1.873.015 2.587a4.925 4.925 0 0 1-4.468 0c-1.238-.715-1.243-1.874-.013-2.588a4.92 4.92 0 0 1 4.466.001z" fill="#50e6ff" /><path d="M16.734 14.774c0 .033-.005.066-.01.1s-.014.054-.02.08l-.027.095c-.01.03-.02.05-.032.077l-.046.1c-.017.034-.05.1-.08.134l-.015.02-.1.13-.02.024-.133.13a1.46 1.46 0 0 1-.1.08l-.088.07c-.03.023-.075.05-.114.075l-.12.077a3.078 3.078 0 0 1-.3.151l-.1.04-.248.094-.09.03-.163.046-.124.034-.175.037-.12.024-.36.05-.113.01-.213.014h-.455c-.054 0-.107 0-.16-.01s-.1-.007-.146-.012l-.158-.018-.14-.02-.168-.03-.13-.026-.2-.048-.108-.03-.34-.115-.16-.068-.08-.035-.232-.12a1.581 1.581 0 0 1-.932-1.3v1.405a1.582 1.582 0 0 0 .932 1.3l.232.12.08.035.143.062.017.006q.165.064.34.114l.027.01.08.02.2.05c.018 0 .035.01.052.012l.08.014.168.03c.022 0 .044.01.066.012l.075.008.158.018.075.008h.07c.053 0 .106.006.16.008h.455c.07 0 .142-.01.213-.014.028 0 .057 0 .086-.006h.027l.36-.05h.017l.1-.022.174-.037.124-.034.163-.046.035-.01.056-.02.248-.095.1-.038a3.322 3.322 0 0 0 .3-.151l.04-.023c.03-.017.054-.036.08-.054l.114-.076.088-.07.1-.08.02-.017a1.532 1.532 0 0 0 .114-.114l.02-.025.06-.07.043-.058.015-.02.07-.1.012-.024c.017-.032.03-.065.046-.1l.027-.058v-.02c.01-.032.02-.063.027-.095l.02-.063v-.018c.006-.033.008-.066.01-.1s.007-.043.007-.065v-1.428c.007.026.002.057-.001.088z" fill="#32bedd" /><path d="M15.8 13.38a1.367 1.367 0 0 1 .014 2.587 4.921 4.921 0 0 1-4.468 0c-1.237-.715-1.243-1.874-.013-2.588a4.922 4.922 0 0 1 4.467.001z" fill="#50e6ff" /><path d="M16.742 11.62c0 .03-.005.062-.008.092l-.01.1c-.006.033-.014.054-.02.08l-.027.094c-.01.03-.02.05-.032.077l-.046.1c-.017.034-.05.1-.08.134l-.015.02-.1.13-.02.024a2.06 2.06 0 0 1-.133.131 1.46 1.46 0 0 1-.1.08l-.09.07-.113.075-.12.078a3.191 3.191 0 0 1-.3.15l-.1.04-.25.094-.1.03-.163.047-.124.033-.175.037-.12.024-.36.05-.113.01-.213.014h-.454c-.054 0-.107 0-.16-.01s-.1-.007-.146-.012l-.158-.018-.14-.02-.168-.03-.13-.026-.2-.05-.108-.03q-.174-.05-.34-.114l-.16-.068-.082-.035-.232-.12a1.583 1.583 0 0 1-.933-1.3v1.406a1.583 1.583 0 0 0 .933 1.3l.232.12.08.035.143.062.017.006.34.114.027.01.08.02.2.048c.018 0 .035.01.053.013l.078.014.168.03c.022 0 .044.01.067.012l.074.008.158.018.075.008h.07c.053 0 .106.006.16.008h.454c.072 0 .143-.008.214-.014.028 0 .057 0 .086-.006h.026l.36-.05h.018l.1-.022.175-.037.123-.034.164-.046.035-.01c.02-.006.036-.015.055-.02l.25-.094.1-.04a3.2 3.2 0 0 0 .3-.151l.038-.022.082-.055.113-.075.09-.07.1-.08.02-.017a1.75 1.75 0 0 0 .114-.114l.02-.024.06-.072.043-.058.015-.02a1.18 1.18 0 0 0 .069-.11l.012-.024c.017-.032.03-.065.046-.1l.027-.057v-.02a1.03 1.03 0 0 0 .027-.095l.02-.063v-.017c.006-.033.008-.067.01-.1s.007-.043.007-.064v-.028z" fill="#32bedd" /><ellipse cx="13.583" cy="11.61" rx="1.83" ry="3.159" transform="matrix(.002827 -.999996 .999996 .002827 1.935 25.16)" fill="#50e6ff" /></svg>