<svg xmlns="http://www.w3.org/2000/svg" width="18" height="18" viewBox="0 0 18 18"><title>Icon-Blockchain-364</title><polygon points="14.68 4.13 14.68 10.7 9.04 13.99 9.04 7.42 14.68 4.13" fill="#773adc" /><polygon points="14.68 4.13 9.04 7.43 3.4 4.13 9.04 0.83 14.68 4.13" fill="#b796f9" /><polygon points="9.04 7.43 9.04 13.99 3.4 10.7 3.4 4.13 9.04 7.43" fill="#a67af4" /><path d="M6.06,7.52c-.74-.42-1.34-.08-1.34.77A2.93,2.93,0,0,0,6.06,10.6c.73.43,1.34.09,1.34-.76A3,3,0,0,0,6.06,7.52Z" fill="#773adc" /><path d="M18,14.35l-2.59-2.6a.14.14,0,0,0-.21,0v2H3.36a2,2,0,1,1,0-4H5.75a.68.68,0,0,0,.67-.68.67.67,0,0,0-.67-.67H3.36a3.36,3.36,0,0,0,0,6.72h11.8v2a.14.14,0,0,0,.21,0L18,14.53A.13.13,0,0,0,18,14.35Z" fill="#32bedd" /></svg>