<svg xmlns="http://www.w3.org/2000/svg" width="18" height="18" viewBox="0 0 18 18"><title>Icon-Blockchain-366</title><polygon points="13.13 2.4 13.13 6.99 9.18 9.3 9.18 4.7 13.13 2.4" fill="#773adc" /><path d="M11.45,4.71c.55-.32,1-.07,1,.56a2.18,2.18,0,0,1-1,1.72c-.55.32-1,.07-1-.57A2.17,2.17,0,0,1,11.45,4.71Z" fill="#552f99" /><polygon points="7.9 11 7.9 15.59 3.95 17.9 3.95 13.3 7.9 11" fill="#773adc" /><path d="M5.92,13.53c.55-.31,1-.06,1,.57a2.2,2.2,0,0,1-1,1.72c-.55.32-1,.06-1-.57A2.2,2.2,0,0,1,5.92,13.53Z" fill="#552f99" /><polygon points="3.95 13.3 3.95 17.9 0 15.59 0 11 3.95 13.3" fill="#a67af4" /><polygon points="18 11.01 18 15.6 14.05 17.91 14.05 13.31 18 11.01" fill="#773adc" /><path d="M11.49,6.2a4.17,4.17,0,0,1,2.37,2.61l.19-.11,1,.58A5.21,5.21,0,0,0,11.9,5.22a.53.53,0,0,0-.41,1Z" fill="#32bedd" /><polygon points="14.05 13.32 14.05 17.91 10.1 15.6 10.1 11.01 14.05 13.32" fill="#a67af4" /><path d="M12.19,13.59c-.52-.3-.94-.05-.94.54a2.08,2.08,0,0,0,.94,1.63c.52.3.94.06.94-.54A2.08,2.08,0,0,0,12.19,13.59Z" fill="#552f99" /><path d="M9.2,16.11a5.46,5.46,0,0,1-3.18-1,.55.55,0,1,1,.64-.89,4.36,4.36,0,0,0,4.81.18.55.55,0,1,1,.58.94A5.54,5.54,0,0,1,9.2,16.11Z" fill="#32bedd" /><polygon points="13.13 2.4 9.19 4.71 5.24 2.4 9.19 0.09 13.13 2.4" fill="#b796f9" /><path d="M5.24,5.3a5.25,5.25,0,0,0-2.36,4L4,8.69,4,8.74A4.2,4.2,0,0,1,5.24,6.67Z" fill="#32bedd" /><polygon points="18 11.01 14.05 13.32 10.1 11.01 14.05 8.7 18 11.01" fill="#b796f9" /><polygon points="7.9 11 3.95 13.3 0 11 3.95 8.69 7.9 11" fill="#b796f9" /><polygon points="9.18 4.71 9.18 9.3 5.24 6.99 5.24 2.4 9.18 4.71" fill="#a67af4" /></svg>