<svg xmlns="http://www.w3.org/2000/svg" width="18" height="18" viewBox="0 0 18 18"><g id="b7868355-0001-41e8-84e1-ae842d94a5aa"><g><polygon points="12.1 2.05 12.1 5.85 8.9 7.75 8.9 3.95 12.1 2.05" fill="#773adc" /><path d="M10.7,4.062c.439-.263.7-.088.7.439a1.776,1.776,0,0,1-.7,1.228c-.351.263-.7.088-.7-.439A1.776,1.776,0,0,1,10.7,4.062Z" fill="#552f99" /><polygon points="12.1 2.05 8.9 3.95 5.6 2.05 8.9 0.15 12.1 2.05" fill="#b796f9" /><polygon points="8.9 3.95 8.9 7.75 5.6 5.85 5.6 2.05 8.9 3.95" fill="#a67af4" /><path d="M7.116,4.05c-.4-.2-.8,0-.8.4a1.441,1.441,0,0,0,.8,1.3c.4.2.8,0,.8-.4A1.653,1.653,0,0,0,7.116,4.05Z" fill="#773adc" /><polygon points="17.8 7.05 17.8 10.85 14.6 12.75 14.6 8.95 17.8 7.05" fill="#5e9624" /><polygon points="14.6 8.95 14.6 12.75 11.4 10.85 11.4 7.05 14.6 8.95" fill="#76bc2d" /><path d="M13.1,9.25c-.4-.2-.8,0-.8.4a1.441,1.441,0,0,0,.8,1.3c.4.2.8,0,.8-.4A1.653,1.653,0,0,0,13.1,9.25Z" fill="#5e9624" /><g><path d="M13.137,6.073A5.151,5.151,0,0,0,11.2,4.65a.517.517,0,0,0-.7.3.446.446,0,0,0,.3.6,4.256,4.256,0,0,1,1.459,1.017Z" fill="#32bedd" /><path d="M13.134,8.079c.018.059.051.111.066.171l.12-.06Z" fill="#32bedd" /></g><polygon points="6.7 7.25 6.7 10.95 3.4 12.85 3.4 9.15 6.7 7.25" fill="#258277" /><polygon points="3.4 9.15 3.4 12.85 0.2 10.95 0.2 7.25 3.4 9.15" fill="#37c2b1" /><path d="M7.4,4.95a.67.67,0,0,0-.8-.3A6.6,6.6,0,0,0,4.742,6.123L5.8,6.729A4.646,4.646,0,0,1,7.1,5.75.67.67,0,0,0,7.4,4.95Z" fill="#32bedd" /><polygon points="12.4 12.15 12.4 15.95 9.2 17.85 9.2 14.05 12.4 12.15" fill="#d15900" /><polygon points="9.2 14.05 9.2 17.85 6 15.95 6 12.15 9.2 14.05" fill="#f78d1e" /><path d="M13.2,10.05a.521.521,0,0,0-.8.1,5.26,5.26,0,0,1-1.339,1.205l.966.573A5.972,5.972,0,0,0,13.3,10.85.521.521,0,0,0,13.2,10.05Z" fill="#32bedd" /><path d="M5.212,9.188c.456-.249.788-.041.788.456a1.809,1.809,0,0,1-.788,1.368c-.455.249-.787.041-.787-.456A1.7,1.7,0,0,1,5.212,9.188Z" fill="#207067" /><path d="M7.423,11.305A4.264,4.264,0,0,1,5.8,10.05a.529.529,0,0,0-.8-.1.529.529,0,0,0-.1.8,5.524,5.524,0,0,0,1.379,1.235Z" fill="#32bedd" /><polygon points="12.4 12.15 9.2 14.05 6 12.15 9.2 10.25 12.4 12.15" fill="#ffb34d" /><polygon points="6.7 7.25 3.4 9.15 0.2 7.25 3.4 5.35 6.7 7.25" fill="#42e8ca" /><polygon points="17.8 7.05 14.6 8.95 11.4 7.05 14.6 5.25 17.8 7.05" fill="#b4ec36" /></g></g></svg>