<svg id="b300f0d1-2ad8-4418-a1c5-23d0b9d21841" xmlns="http://www.w3.org/2000/svg" width="18" height="18" viewBox="0 0 18 18"><defs><linearGradient id="b8cad6fd-ec7f-45e9-be2a-125e8b87bd03" x1="10.79" y1="2.17" x2="10.79" y2="16.56" gradientUnits="userSpaceOnUse"><stop offset="0.18" stop-color="#5ea0ef" /><stop offset="1" stop-color="#0078d4" /></linearGradient></defs><title>Icon-web-43</title><rect x="3.7" y="5.49" width="1.18" height="5.26" rx="0.52" transform="translate(-3.83 12.41) rotate(-90)" fill="#b3b3b3" /><rect x="2.04" y="7.88" width="1.18" height="5.26" rx="0.52" transform="translate(-7.88 13.14) rotate(-90)" fill="#a3a3a3" /><rect x="3.7" y="10.26" width="1.18" height="5.26" rx="0.52" transform="translate(-8.6 17.19) rotate(-90)" fill="#7a7a7a" /><path d="M18,11a3.28,3.28,0,0,0-2.81-3.18,4.13,4.13,0,0,0-4.21-4,4.23,4.23,0,0,0-4,2.8,3.89,3.89,0,0,0-3.38,3.8,4,4,0,0,0,4.06,3.86l.36,0h6.58l.17,0A3.32,3.32,0,0,0,18,11Z" fill="url(#b8cad6fd-ec7f-45e9-be2a-125e8b87bd03)" /></svg>