<svg xmlns="http://www.w3.org/2000/svg" width="18" height="18" viewBox="0 0 18 18"><defs><linearGradient id="fd061228-22be-425e-9131-0b8cca0e5d17" x1="7.699" y1="259.22" x2="7.699" y2="263.711" gradientTransform="translate(0 -250)" gradientUnits="userSpaceOnUse"><stop offset="0.23" stop-color="#5ea0ef" /><stop offset="0.32" stop-color="#5b9fee" /><stop offset="0.48" stop-color="#509aeb" /><stop offset="0.57" stop-color="#3f92e6" /><stop offset="0.75" stop-color="#2688df" /><stop offset="0.93" stop-color="#127fd9" /></linearGradient><linearGradient id="ea9649a6-04b5-47d6-8247-ed3ab9ff9d06" x1="9.927" y1="261.091" x2="9.927" y2="265.582" gradientTransform="translate(0 -250)" gradientUnits="userSpaceOnUse"><stop offset="0.02" stop-color="#5ea0ef" /><stop offset="0.14" stop-color="#5b9fee" /><stop offset="0.23" stop-color="#5b9fee" /><stop offset="0.34" stop-color="#509aeb" /><stop offset="0.44" stop-color="#3f92e6" /><stop offset="0.63" stop-color="#2688df" /><stop offset="0.93" stop-color="#127fd9" /></linearGradient></defs><path d="M8.252,2.521H9.374V9.594H8.252Z" fill="#7a7a7a" /><path d="M10.459,2.3A1.647,1.647,0,1,1,8.813.65h0A1.646,1.646,0,0,1,10.459,2.3Z" fill="#1490df" /><path d="M8.588,9.22h-1.8a2.246,2.246,0,0,0-.348,4.461,2.415,2.415,0,0,1,.022-.835,1.418,1.418,0,0,1,.326-2.8h1.8a1.422,1.422,0,0,1,0,2.844H8.094a1.078,1.078,0,0,0-.1.45,1.022,1.022,0,0,0,.071.374h.527a2.246,2.246,0,1,0,0-4.491Z" fill="url(#fd061228-22be-425e-9131-0b8cca0e5d17)" /><path d="M11.182,11.121a2.642,2.642,0,0,1,.026.344,2.317,2.317,0,0,1-.049.491,1.418,1.418,0,0,1-.325,2.8h-1.8a1.423,1.423,0,0,1,0-2.845h.494a1.042,1.042,0,0,0,.1-.449,1.018,1.018,0,0,0-.071-.374H9.037a2.246,2.246,0,0,0,0,4.491h1.8a2.246,2.246,0,0,0,.348-4.461Z" fill="url(#ea9649a6-04b5-47d6-8247-ed3ab9ff9d06)" /><path d="M5.58,16.525l-.412.415a.28.28,0,0,1-.4,0l-4.607-4.6a.566.566,0,0,1,0-.8l.416-.412,5,4.992a.276.276,0,0,1,0,.391h0Z" fill="#50e6ff" /><path d="M5.082,7.02l.46.46a.282.282,0,0,1,0,.4L.625,12.809l-.461-.457a.566.566,0,0,1,0-.8L4.685,7.02A.28.28,0,0,1,5.082,7.02Z" fill="#1490df" /><path d="M12.417,16.851a.278.278,0,0,1-.006-.392h0l.006,0,5-4.989.416.416a.566.566,0,0,1,0,.8l-4.611,4.588a.277.277,0,0,1-.391.006h0l-.006-.005Z" fill="#50e6ff" /><path d="M13.311,7.349l4.525,4.536a.563.563,0,0,1,0,.793l-.461.46L12.454,8.206a.289.289,0,0,1,0-.4l.46-.456A.282.282,0,0,1,13.311,7.349Z" fill="#1490df" /></svg>