<svg xmlns="http://www.w3.org/2000/svg" width="18" height="18" viewBox="0 0 18 18"><defs><linearGradient id="f739297d-1dff-4878-8e69-be6860163e71" x1="12.726" y1="2199.244" x2="12.726" y2="2193.605" gradientTransform="translate(0 -2183.642)" gradientUnits="userSpaceOnUse"><stop offset="0" stop-color="#32bedd" /><stop offset="0.18" stop-color="#32caea" /><stop offset="0.41" stop-color="#32d2f2" /><stop offset="0.78" stop-color="#32d4f5" /></linearGradient></defs><g id="aaa7102a-579e-4074-9dfb-2c1893535ac2"><g><path d="M.5,4.429h9.548V9.756a.321.321,0,0,1-.321.321H.821A.321.321,0,0,1,.5,9.756h0Z" fill="#83b9f9" /><path d="M.821,2.389H9.727a.321.321,0,0,1,.321.321h0V4.429H.5V2.71A.321.321,0,0,1,.821,2.389Z" fill="#1f56a3" /><rect x="1.784" y="3.003" width="6.979" height="0.822" rx="0.161" fill="#f2f2f2" /><path d="M4.221,7.187h9.558v5.326a.321.321,0,0,1-.321.321H4.542a.321.321,0,0,1-.321-.321h0Z" fill="#83b9f9" /><path d="M4.542,5.156h8.906a.321.321,0,0,1,.321.321h0v1.71H4.231V5.477A.321.321,0,0,1,4.542,5.156Z" fill="#1f56a3" /><rect x="5.506" y="5.77" width="6.979" height="0.822" rx="0.161" fill="#f2f2f2" /><g><path d="M7.952,9.963H17.5V15.29a.321.321,0,0,1-.321.321H8.273a.321.321,0,0,1-.321-.321h0Z" fill="url(#f739297d-1dff-4878-8e69-be6860163e71)" /><path d="M8.273,7.923h8.906a.321.321,0,0,1,.321.321V9.963H7.952V8.244A.321.321,0,0,1,8.273,7.923Z" fill="#0078d4" /><g><circle cx="14.874" cy="12.438" r="0.774" fill="#0078d4" /><circle cx="12.759" cy="12.438" r="0.774" fill="#0078d4" /><circle cx="10.577" cy="12.438" r="0.774" fill="#0078d4" /></g><rect x="9.236" y="8.537" width="6.979" height="0.822" rx="0.161" fill="#f2f2f2" /></g></g></g></svg>