<svg xmlns="http://www.w3.org/2000/svg" width="18" height="18" viewBox="0 0 18 18"><defs><linearGradient id="ee395d7d-9e11-4093-b455-9b6ca9e15a63" x1="7.699" y1="956.076" x2="7.699" y2="960.567" gradientTransform="translate(0 -950)" gradientUnits="userSpaceOnUse"><stop offset="0.23" stop-color="#5ea0ef" /><stop offset="0.93" stop-color="#127fd9" /></linearGradient><linearGradient id="b8105328-c2c4-4923-8d18-6c844e8a389e" x1="9.927" y1="957.947" x2="9.927" y2="962.438" gradientTransform="translate(0 -950)" gradientUnits="userSpaceOnUse"><stop offset="0.02" stop-color="#5ea0ef" /><stop offset="0.93" stop-color="#127fd9" /></linearGradient></defs><g id="a5229e7a-2c78-4db9-99cc-ca7fbe64368b"><g><path d="M8.588,6.076h-1.8a2.246,2.246,0,0,0-.348,4.461A2.409,2.409,0,0,1,6.466,9.7a1.418,1.418,0,0,1,.326-2.8h1.8a1.422,1.422,0,0,1,0,2.844H8.094a1.07,1.07,0,0,0-.1.449,1.018,1.018,0,0,0,.071.374h.527a2.246,2.246,0,1,0,0-4.491Z" fill="url(#ee395d7d-9e11-4093-b455-9b6ca9e15a63)" /><path d="M11.182,7.977a2.644,2.644,0,0,1,.026.345,2.308,2.308,0,0,1-.049.49,1.418,1.418,0,0,1-.325,2.8h-1.8a1.422,1.422,0,0,1,0-2.844h.494a1.045,1.045,0,0,0,.1-.449,1.028,1.028,0,0,0-.071-.375H9.037a2.246,2.246,0,0,0,0,4.491h1.8a2.246,2.246,0,0,0,.348-4.461Z" fill="url(#b8105328-c2c4-4923-8d18-6c844e8a389e)" /><path d="M5.58,13.381l-.412.416a.282.282,0,0,1-.4,0L.164,9.2a.566.566,0,0,1,0-.8L.58,7.992l5,4.993a.276.276,0,0,1,0,.391h0Z" fill="#50e6ff" /><path d="M5.082,3.876l.46.46a.282.282,0,0,1,0,.4L.625,9.665.164,9.209a.566.566,0,0,1,0-.8L4.685,3.876A.282.282,0,0,1,5.082,3.876Z" fill="#1490df" /><path d="M12.417,13.707a.276.276,0,0,1-.006-.391h0l.006,0,5-4.988.416.415a.566.566,0,0,1,0,.8l-4.611,4.588a.276.276,0,0,1-.391.006h0l-.006-.005Z" fill="#50e6ff" /><path d="M13.311,4.205l4.525,4.536a.563.563,0,0,1,0,.793l-.461.46L12.454,5.062a.287.287,0,0,1,0-.4l.46-.457A.282.282,0,0,1,13.311,4.205Z" fill="#1490df" /></g></g></svg>