<svg id="a18b905d-93c6-4fee-ba5b-699e2562e00f" xmlns="http://www.w3.org/2000/svg" width="18" height="18" viewBox="0 0 18 18"><defs><linearGradient id="b02c7a20-01da-4daf-91b9-e11528418dfc" x1="9" y1="17.5" x2="9" y2="0.5" gradientUnits="userSpaceOnUse"><stop offset="0.16" stop-color="#6f4bb2" /><stop offset="0.32" stop-color="#7450b5" /><stop offset="0.51" stop-color="#825dbf" /><stop offset="0.72" stop-color="#9a72ce" /><stop offset="0.94" stop-color="#bb90e4" /><stop offset="1" stop-color="#c69aeb" /></linearGradient></defs><title>Icon-networking-65</title><path d="M12.29.5H5.71a.56.56,0,0,0-.4.17L.67,5.31a.56.56,0,0,0-.17.4v6.58a.56.56,0,0,0,.17.4l4.64,4.64a.56.56,0,0,0,.4.17h6.58a.56.56,0,0,0,.4-.17l4.64-4.64a.56.56,0,0,0,.17-.4V5.71a.56.56,0,0,0-.17-.4L12.69.67A.56.56,0,0,0,12.29.5Z" fill="url(#b02c7a20-01da-4daf-91b9-e11528418dfc)" /><path d="M6,7.64l-.07.07-1,1a.14.14,0,0,0,.1.23h3.8a.14.14,0,0,0,.14-.14V5.05A.14.14,0,0,0,8.64,5l-1,1-.07.07a.15.15,0,0,1-.2,0L4.8,3.54,3.43,4.92,6,7.44A.15.15,0,0,1,6,7.64Z" fill="#f2f2f2" /><path d="M16.18,5.91,12.09,1.82a.28.28,0,0,0-.2-.08H6.11a.28.28,0,0,0-.2.08L1.82,5.91a.28.28,0,0,0-.08.2v5.78a.3.3,0,0,0,.08.2l4.09,4.09a.28.28,0,0,0,.2.08h5.78a.28.28,0,0,0,.2-.08l4.09-4.09a.3.3,0,0,0,.08-.2V6.11A.28.28,0,0,0,16.18,5.91Zm-.36,5.45L12.67,8.21l.76-.77a.16.16,0,0,0,0-.24.16.16,0,0,0-.11,0l-2.71-.07a.17.17,0,0,0-.17.16h0L10.51,10a.16.16,0,0,0,.17.16h0a.13.13,0,0,0,.12,0l.85-.84L15,12.62l-2.54,2.54L9,11.71,9.8,11a.16.16,0,0,0,0-.24.16.16,0,0,0-.11-.05L7,10.59a.17.17,0,0,0-.17.16h0l.07,2.71a.16.16,0,0,0,.17.16h0a.17.17,0,0,0,.12-.05L8,12.74l3.08,3.08H6.17l-4-4V6.17L3.43,4.92,4.8,3.54,6.17,2.17h5.66l4,4Z" fill="#f2f2f2" /></svg>