<svg id="b6f74ca5-3ae6-426f-9ef1-9ff6bbaa7f1c" xmlns="http://www.w3.org/2000/svg" width="18" height="18" viewBox="0 0 18 18"><defs><linearGradient id="bd7305f8-8789-4600-a1f2-6594e60eefcc" x1="8.59" y1="-7.79" x2="9.12" y2="20.05" gradientUnits="userSpaceOnUse"><stop offset="0.22" stop-color="#32d4f5" /><stop offset="0.47" stop-color="#31d1f3" /><stop offset="0.63" stop-color="#2ec9eb" /><stop offset="0.77" stop-color="#29bade" /><stop offset="0.89" stop-color="#22a5cb" /><stop offset="1" stop-color="#198ab3" /><stop offset="1" stop-color="#198ab3" /></linearGradient></defs><title>Icon-networking-63</title><path d="M15.06,8.67h-1V5.59a5.81,5.81,0,0,0-1.49-3.92A4.79,4.79,0,0,0,8.91,0a4.79,4.79,0,0,0-3.7,1.67A5.73,5.73,0,0,0,3.72,5.59V8.67H2.91a.7.7,0,0,0-.69.69v8a.7.7,0,0,0,.69.69H15.06a.71.71,0,0,0,.7-.69V9.36A.71.71,0,0,0,15.06,8.67Zm-3.37,0H6.13V5.54A3.18,3.18,0,0,1,7,3.39a2.51,2.51,0,0,1,1.88-.86,2.54,2.54,0,0,1,1.89.86,3.19,3.19,0,0,1,.32.43h0a3,3,0,0,1,.61,1.71Z" fill="url(#bd7305f8-8789-4600-a1f2-6594e60eefcc)" /><path d="M15.09,8.67H2.92a.66.66,0,0,0-.44.17l13.05,9a.67.67,0,0,0,.25-.52v-8A.71.71,0,0,0,15.09,8.67Z" fill="#50e6ff" /><path d="M2.94,8.67H15.1a.7.7,0,0,1,.45.17l-13.06,9a.7.7,0,0,1-.25-.52v-8A.72.72,0,0,1,2.94,8.67Z" fill="#fff" opacity="0.2" /><path d="M7.8,10.6,9,9.4a.07.07,0,0,1,.09,0l1.19,1.2a.06.06,0,0,1,0,.1h-.7a.06.06,0,0,0-.06.06V12.3a.06.06,0,0,1-.06.06H8.67a.05.05,0,0,1-.06-.06V10.76a.07.07,0,0,0-.07-.06h-.7A.06.06,0,0,1,7.8,10.6Zm2.47,5.48L9.08,17.27a.06.06,0,0,1-.09,0L7.8,16.08a.06.06,0,0,1,0-.1h.7a.07.07,0,0,0,.07-.06V14.37a.06.06,0,0,1,.06-.06h.74a.06.06,0,0,1,.06.06v1.55a.06.06,0,0,0,.06.06h.7A.06.06,0,0,1,10.27,16.08Zm-4.7-1.55v-.7a.06.06,0,0,0-.06-.06H4a.06.06,0,0,1-.06-.06V13A.06.06,0,0,1,4,12.91H5.51a.06.06,0,0,0,.06-.06v-.7a.07.07,0,0,1,.11-.05l1.19,1.2a.06.06,0,0,1,0,.08l-1.19,1.2A.07.07,0,0,1,5.57,14.53Zm6.93-2.38v.7a.06.06,0,0,0,.06.06H14.1s.07,0,.07.06v.74a.07.07,0,0,1-.07.06H12.56a.06.06,0,0,0-.06.06v.7a.06.06,0,0,1-.1.05l-1.19-1.2a0,0,0,0,1,0-.08l1.19-1.2S12.5,12.09,12.5,12.15Z" fill="#fff" /></svg>