<svg id="aca4def4-7046-48a7-83fb-780b9f6d65ac" xmlns="http://www.w3.org/2000/svg" width="18" height="18" viewBox="0 0 18 18"><defs><radialGradient id="ec945175-c80b-46fd-89db-7eac10420933" cx="6.61" cy="45.13" r="6.4" gradientTransform="translate(5.04 -35.89) scale(0.94)" gradientUnits="userSpaceOnUse"><stop offset="0" stop-color="#5ea0ef" /><stop offset="0.28" stop-color="#5b9fee" /><stop offset="0.47" stop-color="#529bec" /><stop offset="0.64" stop-color="#4394e7" /><stop offset="0.79" stop-color="#2d8be1" /><stop offset="0.93" stop-color="#117fd9" /><stop offset="1" stop-color="#0078d4" /></radialGradient></defs><title>Icon-networking-66</title><rect x="-0.15" y="14.53" width="5.89" height="1.34" rx="0.63" transform="translate(-9.93 6.43) rotate(-45)" fill="#198ab3" /><path d="M17,4.35A6.44,6.44,0,0,0,16.25,3,6.24,6.24,0,0,0,7.51,1.76l-.06.05A6.18,6.18,0,0,0,5.24,5.14c0,.22-.1.44-.13.66A6.25,6.25,0,0,0,7,11.26H7a2.09,2.09,0,0,0,.22.2l0,0,.22.18h0a5.76,5.76,0,0,0,.94.6l.1.06.17.07.14.07.15.06.16.06.14.05.2.06.11,0,.29.08h0l.32.07h.08a1.9,1.9,0,0,0,.25,0l.1,0h1.07l.23,0h0l.12,0a5.1,5.1,0,0,0,.76-.15h0a6.2,6.2,0,0,0,2.21-1.1,6.36,6.36,0,0,0,1.13-1.13A6.28,6.28,0,0,0,17,4.35Zm-1.45-.93H14.33a5.92,5.92,0,0,0-.88-1.66A5.34,5.34,0,0,1,15.58,3.42Zm-3.91-2a3.27,3.27,0,0,1,1.8,2h-1.8Zm0,2.84h2.07a9.23,9.23,0,0,1,.33,2.11h-2.4Zm0,2.91h2.4a9.23,9.23,0,0,1-.33,2.12H11.67V7.13ZM8.52,5.74A8.73,8.73,0,0,1,8.8,4.22h2.07V6.33H8.48C8.49,6.13,8.5,5.93,8.52,5.74Zm2.35-4.36v2H9.08A3.23,3.23,0,0,1,10.87,1.38ZM7.94,2.44l0,0a5.83,5.83,0,0,1,1.1-.64,6.12,6.12,0,0,0-.88,1.67H7A5.68,5.68,0,0,1,7.94,2.44ZM6.45,4.22H8a9.11,9.11,0,0,0-.24,1.34c0,.25-.05.51-.05.77H5.85A6.46,6.46,0,0,1,6,5.58,6,6,0,0,1,6.45,4.22Zm-.6,2.91H7.68A9.35,9.35,0,0,0,8,9.25H6.45A5.36,5.36,0,0,1,5.85,7.13ZM7,10.07l0,0H8.21a5.92,5.92,0,0,0,.88,1.66A5.31,5.31,0,0,1,7,10.07Zm3.89,2a3.23,3.23,0,0,1-1.79-2h1.79Zm0-2.84H8.8a9.24,9.24,0,0,1-.32-2.12h2.39V9.25Zm1.53,2.42a2,2,0,0,1-.73.42v-2h1.8A4.44,4.44,0,0,1,12.4,11.67ZM14.6,11h0a5.19,5.19,0,0,1-1.15.68,5.92,5.92,0,0,0,.88-1.66h1.25A5.35,5.35,0,0,1,14.6,11Zm1.48-1.78h-1.5a10.64,10.64,0,0,0,.29-2.12h1.81A5.27,5.27,0,0,1,16.08,9.25ZM14.87,6.33a10.64,10.64,0,0,0-.29-2.11h1.51a5.54,5.54,0,0,1,.6,2.11Z" fill="url(#ec945175-c80b-46fd-89db-7eac10420933)" /><circle cx="6.36" cy="10.94" r="4.04" fill="#50e6ff" /><circle cx="6.35" cy="10.87" r="3.17" fill="#fff" /><path d="M4.72,10.94l.8,1.86.81-2.39L7,11.77l.83-1.4H9.12A3.57,3.57,0,0,0,9,9.9H7.61l-.54.91L6.24,9.23,5.47,11.5l-.7-1.61-.86,1.57H3.45a2.57,2.57,0,0,0,.15.47h.58Z" fill="#76bc2d" /></svg>