<svg id="e1e71e29-065a-46f7-ad4b-52af36a0bfcb" xmlns="http://www.w3.org/2000/svg" width="18" height="18" viewBox="0 0 18 18"><defs><linearGradient id="ef84663a-a7b6-46a7-a275-1e419f5eae62" x1="9" y1="19.85" x2="9" y2="-1.02" gradientUnits="userSpaceOnUse"><stop offset="0" stop-color="#5e9624" /><stop offset="0.02" stop-color="#5f9724" /><stop offset="1" stop-color="#76bc2d" /></linearGradient></defs><title>Icon-networking-62</title><path d="M.18,8.57,8.57.18a.6.6,0,0,1,.86,0l8.39,8.39a.6.6,0,0,1,0,.86l-8.4,8.4a.6.6,0,0,1-.84,0L.18,9.43A.6.6,0,0,1,.18,8.57Z" fill="url(#ef84663a-a7b6-46a7-a275-1e419f5eae62)" /><path d="M11.2,4,9.08,1.89a.12.12,0,0,0-.16,0L6.8,4a.1.1,0,0,0,.08.18H8.12a.11.11,0,0,1,.11.11v2a.11.11,0,0,0,.11.11H9.66a.11.11,0,0,0,.11-.11v-2a.11.11,0,0,1,.11-.11h1.24A.1.1,0,0,0,11.2,4Z" fill="#b4ec36" /><path d="M4,6.61,1.9,8.74a.11.11,0,0,0,0,.15L4,11a.11.11,0,0,0,.19-.08V9.69a.11.11,0,0,1,.11-.11h2a.1.1,0,0,0,.1-.11V8.15A.1.1,0,0,0,6.33,8h-2a.1.1,0,0,1-.11-.1V6.69A.11.11,0,0,0,4,6.61Z" fill="#b4ec36" /><path d="M14.08,11l2.13-2.12a.11.11,0,0,0,0-.15L14.08,6.61a.11.11,0,0,0-.18.08V7.94a.1.1,0,0,1-.11.1h-2a.1.1,0,0,0-.1.11V9.47a.1.1,0,0,0,.1.11h2a.11.11,0,0,1,.11.11v1.24A.11.11,0,0,0,14.08,11Z" fill="#b4ec36" /><path d="M11.79,9a2.79,2.79,0,1,0-3.54,2.67v.95a1.71,1.71,0,1,0,1.57,0v-1A2.77,2.77,0,0,0,11.79,9Z" fill="#fff" /><circle id="e99c3387-15c3-4f28-bd4b-cb209b430e06" cx="9.01" cy="8.99" r="1.62" fill="#5ea0ef" /></svg>