<svg id="a7fced15-da9f-41e0-8b9e-21a862586c87" xmlns="http://www.w3.org/2000/svg" width="18" height="18" viewBox="0 0 18 18"><defs><linearGradient id="ace104d6-1f53-40e3-a991-cb43c1f1aa51" x1="5.82" y1="25.68" x2="5.82" y2="14.64" gradientTransform="translate(0 -11.41) scale(1 1.01)" gradientUnits="userSpaceOnUse"><stop offset="0" stop-color="#5e9624" /><stop offset="0.01" stop-color="#5f9724" /><stop offset="0.35" stop-color="#6cab29" /><stop offset="0.68" stop-color="#73b82c" /><stop offset="1" stop-color="#76bc2d" /></linearGradient></defs><title>Icon-networking-71</title><path d="M18,9.16l-2.12,2.12a.1.1,0,0,1-.18-.08V10a.11.11,0,0,0-.11-.1H12.09L14.27,12a.09.09,0,0,0,.12,0l0,0,.61-.62a.08.08,0,0,1,.14.06v2.19a.12.12,0,0,1-.12.12H12.87a.08.08,0,0,1-.06-.14l.62-.61,0,0a.09.09,0,0,0,0-.12L11.64,11V7.17l1.83-1.82a.08.08,0,0,0,0-.11l0,0-.62-.61a.08.08,0,0,1,.06-.14h2.19a.13.13,0,0,1,.12.13V6.75a.08.08,0,0,1-.14.06l-.61-.61,0,0a.09.09,0,0,0-.12,0L12.12,8.31h3.43a.11.11,0,0,0,.11-.11V7a.1.1,0,0,1,.18-.08L18,9A.1.1,0,0,1,18,9.16Z" fill="#0078d4" /><rect y="3.41" width="11.64" height="11.18" rx="0.58" fill="url(#ace104d6-1f53-40e3-a991-cb43c1f1aa51)" /><g><rect x="2.27" y="4.78" width="2.73" height="2.61" rx="0.29" fill="#fff" /><rect x="6.92" y="7.77" width="2.73" height="2.61" rx="0.29" fill="#fff" /><rect x="2.27" y="10.61" width="2.73" height="2.61" rx="0.29" fill="#fff" /></g></svg>