<svg id="a264d655-1dbb-49d2-ab11-5661636dcac3" xmlns="http://www.w3.org/2000/svg" width="18" height="18" viewBox="0 0 18 18"><defs><linearGradient id="a852e611-5849-4670-89ce-518ddf7edeae" x1="10.7" y1="11.32" x2="10.7" y2="9" gradientTransform="translate(2.03 -1.15) rotate(-0.08)" gradientUnits="userSpaceOnUse"><stop offset="0" stop-color="#0078d4" /><stop offset="0.82" stop-color="#5ea0ef" /></linearGradient><linearGradient id="a2350862-f997-4c57-aad0-c16f9ca4c0c3" x1="6.99" y1="11.32" x2="7" y2="9" gradientUnits="userSpaceOnUse"><stop offset="0" stop-color="#0078d4" /><stop offset="0.82" stop-color="#5ea0ef" /></linearGradient><linearGradient id="e5473695-068a-44ff-b3dc-927159226a8e" x1="3.29" y1="11.32" x2="3.3" y2="9" gradientUnits="userSpaceOnUse"><stop offset="0" stop-color="#0078d4" /><stop offset="0.82" stop-color="#5ea0ef" /></linearGradient></defs><title>Icon-networking-75</title><circle cx="12.74" cy="8.99" r="1.16" fill="url(#a852e611-5849-4670-89ce-518ddf7edeae)" /><circle cx="9.04" cy="9" r="1.16" fill="url(#a2350862-f997-4c57-aad0-c16f9ca4c0c3)" /><circle cx="5.34" cy="9" r="1.16" fill="url(#e5473695-068a-44ff-b3dc-927159226a8e)" /><path d="M2.61,7.28h.94a.3.3,0,0,1,.3.3v6.94a.6.6,0,0,1-.6.6H2.31a0,0,0,0,1,0,0V7.58A.3.3,0,0,1,2.61,7.28Z" transform="translate(13.18 16.93) rotate(134.92)" fill="#50e6ff" /><path d="M2.56,2.91H3.5a.3.3,0,0,1,.3.3v7.43a0,0,0,0,1,0,0H2.86a.6.6,0,0,1-.6-.6V3.21a.3.3,0,0,1,.3-.3Z" transform="translate(5.66 -0.16) rotate(44.92)" fill="#1490df" /><path d="M14.15,7.28h.94a.6.6,0,0,1,.6.6v6.94a.3.3,0,0,1-.3.3h-.94a.3.3,0,0,1-.3-.3V7.28a0,0,0,0,1,0,0Z" transform="translate(12.32 -7.28) rotate(45.08)" fill="#50e6ff" /><path d="M14.81,2.91h.94a0,0,0,0,1,0,0v7.43a.3.3,0,0,1-.3.3H14.5a.3.3,0,0,1-.3-.3V3.51a.6.6,0,0,1,.6-.6Z" transform="translate(30.36 0.99) rotate(135.08)" fill="#1490df" /></svg>