<svg id="b22678f2-604d-47bc-b419-116b961e0d07" xmlns="http://www.w3.org/2000/svg" width="18" height="18" viewBox="0 0 18 18"><defs><linearGradient id="b1a497bc-2886-4e22-b230-918a36444c3e" x1="9" y1="17.79" x2="9" y2="1.82" gradientTransform="translate(9 -3.73) rotate(45)" gradientUnits="userSpaceOnUse"><stop offset="0" stop-color="#258277" /><stop offset="0.42" stop-color="#49a498" /><stop offset="0.78" stop-color="#60baad" /><stop offset="1" stop-color="#68c2b5" /></linearGradient></defs><title>Icon-networking-77</title><rect x="2.82" y="2.82" width="12.35" height="12.35" rx="0.57" transform="translate(-3.73 9) rotate(-45)" fill="url(#b1a497bc-2886-4e22-b230-918a36444c3e)" /><path d="M7.05,4.68,8.93,2.8a.1.1,0,0,1,.14,0L11,4.68a.09.09,0,0,1-.07.16H9.78a.1.1,0,0,0-.1.1V7.37a.09.09,0,0,1-.09.09H8.42a.09.09,0,0,1-.1-.09V4.94a.1.1,0,0,0-.09-.1H7.12A.1.1,0,0,1,7.05,4.68ZM11,13.32,9.07,15.2a.1.1,0,0,1-.14,0L7.05,13.32a.1.1,0,0,1,.07-.16H8.23a.1.1,0,0,0,.09-.1V10.63a.09.09,0,0,1,.1-.09H9.59a.09.09,0,0,1,.09.09v2.43a.1.1,0,0,0,.1.1h1.1A.09.09,0,0,1,11,13.32ZM5.34,10.84V9.74a.11.11,0,0,0-.1-.1H2.81a.1.1,0,0,1-.1-.09V8.38a.11.11,0,0,1,.1-.1H5.24a.1.1,0,0,0,.1-.09V7.08A.09.09,0,0,1,5.5,7L7.38,8.9a.09.09,0,0,1,0,.13L5.5,10.91A.09.09,0,0,1,5.34,10.84Zm7.32-3.76V8.19a.1.1,0,0,0,.1.09h2.43a.11.11,0,0,1,.1.1V9.55a.1.1,0,0,1-.1.09H12.76a.11.11,0,0,0-.1.1v1.1a.09.09,0,0,1-.16.07L10.62,9a.09.09,0,0,1,0-.13L12.5,7A.09.09,0,0,1,12.66,7.08Z" fill="#fff" /></svg>