<svg id="b9c24df5-e0dd-4838-a385-7c11c2d34304" xmlns="http://www.w3.org/2000/svg" width="18" height="18" viewBox="0 0 18 18"><defs><linearGradient id="aa2ee697-e8d1-4da1-a8c5-64c8ebbb74cf" x1="9" y1="13.83" x2="9" y2="1.07" gradientUnits="userSpaceOnUse"><stop offset="0" stop-color="#0078d4" /><stop offset="0.82" stop-color="#5ea0ef" /></linearGradient></defs><title>Icon-networking-73</title><path d="M18,9.83A4,4,0,0,0,14.49,6,5.1,5.1,0,0,0,9.24,1.07a5.23,5.23,0,0,0-5,3.41A4.83,4.83,0,0,0,0,9.12a4.9,4.9,0,0,0,5.07,4.71l.44,0h8.21a.78.78,0,0,0,.22,0A4.09,4.09,0,0,0,18,9.83Z" fill="url(#aa2ee697-e8d1-4da1-a8c5-64c8ebbb74cf)" /><path id="f0276135-0079-4897-a518-21eb63472c16" d="M6.63,6.82h5.06v7H6.63Z" fill="#f2f2f2" /><path id="e528878d-2ed7-4392-94e6-99c6fc971bcb" d="M12.61,6.37l-3.49-2a.25.25,0,0,0-.31.15s0,.06,0,.08V16.68a.25.25,0,0,0,.24.25h.08l3.49-2.06a.25.25,0,0,0,.17-.23v-8A.26.26,0,0,0,12.61,6.37Z" fill="#50e6ff" /></svg>