<svg id="af463d32-ec10-44d9-a607-ebad6378a52b" xmlns="http://www.w3.org/2000/svg" width="18" height="18" viewBox="0 0 18 18"><defs><linearGradient id="b012de7b-7a0e-4618-9fec-703622e3e8c3" x1="9" y1="14.14" x2="9" y2="1.38" gradientUnits="userSpaceOnUse"><stop offset="0" stop-color="#0078d4" /><stop offset="0.82" stop-color="#5ea0ef" /></linearGradient></defs><title>Icon-networking-84</title><path d="M18,10.14a4.06,4.06,0,0,0-3.51-3.89A5.1,5.1,0,0,0,9.24,1.38a5.23,5.23,0,0,0-5,3.41A4.82,4.82,0,0,0,0,9.43a4.9,4.9,0,0,0,5.07,4.71l.44,0h8.21a1.46,1.46,0,0,0,.22,0A4.1,4.1,0,0,0,18,10.14Z" fill="url(#b012de7b-7a0e-4618-9fec-703622e3e8c3)" /><path d="M14.29,11.19a.42.42,0,0,0-.42-.41H4.13a.42.42,0,0,0-.42.41v5a.42.42,0,0,0,.42.41h9.74a.42.42,0,0,0,.42-.41v-5Z" fill="#821010" /><rect x="4.3" y="11.36" width="2.87" height="1.27" fill="#e62323" /><rect x="7.6" y="11.36" width="2.87" height="1.27" fill="#ff7381" /><rect x="10.9" y="11.36" width="2.87" height="1.27" fill="#e62323" /><rect x="4.3" y="13.06" width="1.19" height="1.27" fill="#e62323" /><rect x="12.58" y="13.06" width="1.19" height="1.27" fill="#ff7381" /><rect x="5.92" y="13.06" width="2.87" height="1.27" fill="#ff7381" /><rect x="9.23" y="13.06" width="2.87" height="1.27" fill="#e62323" /><rect x="4.3" y="14.76" width="2.87" height="1.27" fill="#e62323" /><rect x="7.6" y="14.76" width="2.87" height="1.27" fill="#ff7381" /><rect x="10.9" y="14.76" width="2.87" height="1.27" fill="#e62323" /></svg>