<svg id="b5825b2c-532e-4596-8681-4e75b6a53529" xmlns="http://www.w3.org/2000/svg" width="18" height="18" viewBox="0 0 18 18"><defs><linearGradient id="b5baf554-e9b4-4fe7-b8e9-cf87296b34cc" x1="9.19" y1="17.5" x2="9.19" y2="0.5" gradientUnits="userSpaceOnUse"><stop offset="0" stop-color="#0078d4" /><stop offset="0.82" stop-color="#5ea0ef" /></linearGradient></defs><title>Icon-networking-85</title><path d="M13.35,2.88A2.31,2.31,0,0,1,15.65.56h0a1.86,1.86,0,0,1,1.59,1.88,1.86,1.86,0,0,1-.41,1.18.71.71,0,0,1-.55.26h-3Z" fill="#0078d4" /><path d="M13.56.51h-9A2.29,2.29,0,0,0,2.29,2.8V17.49a0,0,0,0,0,0,0h9a2.29,2.29,0,0,0,2.29-2.29l0-2.43V5.29a25.76,25.76,0,0,1,0-3C13.94.3,16.09.65,16.09.65A11.13,11.13,0,0,0,13.56.51Z" fill="url(#b5baf554-e9b4-4fe7-b8e9-cf87296b34cc)" /><path d="M8,11.64V6.94a.53.53,0,0,0,.27-.46.54.54,0,0,0-.54-.54.54.54,0,0,0-.26,1v4.7a.55.55,0,0,0-.27.47.54.54,0,1,0,1.07,0A.55.55,0,0,0,8,11.64Z" fill="#f2f2f2" /><path d="M11.45,17.43h0a1.84,1.84,0,0,1-.89-3.24.23.23,0,0,0-.15-.41l-7.82,0-.29,0h0a1.85,1.85,0,0,0,0,3.64h0a1.36,1.36,0,0,0,.29,0Z" fill="#5ea0ef" /><circle cx="9.44" cy="6.49" r="0.55" fill="#f2f2f2" /><circle cx="7.69" cy="6.49" r="0.55" fill="#f2f2f2" /><circle cx="5.95" cy="6.49" r="0.55" fill="#f2f2f2" /><path d="M6,9l.32-.32a.15.15,0,0,0,0-.2L3.83,6l-.32.32a.28.28,0,0,0,0,.4L5.83,9A.15.15,0,0,0,6,9Z" fill="#b3b3b3" /><path d="M6.3,4.3,6,4a.15.15,0,0,0-.2,0L3.51,6.27a.28.28,0,0,0,0,.4L3.82,7,6.3,4.5A.13.13,0,0,0,6.3,4.3Z" fill="#f2f2f2" /><path d="M9.32,9,9,8.67a.13.13,0,0,1,0-.2L11.53,6l.31.32a.28.28,0,0,1,0,.4L9.52,9A.15.15,0,0,1,9.32,9Z" fill="#b3b3b3" /><path d="M9.05,4.3,9.37,4a.15.15,0,0,1,.2,0l2.27,2.28a.28.28,0,0,1,0,.4L11.53,7,9.05,4.5A.15.15,0,0,1,9.05,4.3Z" fill="#f2f2f2" /></svg>