<svg id="f8cc67b6-88d2-4d65-b9d4-0887e04d1f38" xmlns="http://www.w3.org/2000/svg" width="18" height="18" viewBox="0 0 18 18"><defs><radialGradient id="b1cd44f2-d62b-4753-a859-aa68f089cdca" cx="46.42" cy="43.21" r="9" gradientTransform="translate(-34.84 -31.81) scale(0.94 0.94)" gradientUnits="userSpaceOnUse"><stop offset="0.18" stop-color="#5ea0ef" /><stop offset="0.56" stop-color="#5c9fee" /><stop offset="0.69" stop-color="#559ced" /><stop offset="0.78" stop-color="#4a97e9" /><stop offset="0.86" stop-color="#3990e4" /><stop offset="0.93" stop-color="#2387de" /><stop offset="0.99" stop-color="#087bd6" /><stop offset="1" stop-color="#0078d4" /></radialGradient><clipPath id="f0c68de7-8aac-4038-bd4b-8e0fb8fab5fc"><path d="M10.58,8.34,13,10.92a.22.22,0,0,1,0,.3l-.47.49a.2.2,0,0,1-.3,0h0L9,8.34A.22.22,0,0,1,9,8l3.15-3.32a.2.2,0,0,1,.3,0h0l.47.49a.23.23,0,0,1,0,.31L10.58,8A.22.22,0,0,0,10.58,8.34Z" fill="none" /></clipPath><clipPath id="e1eb0374-eab6-40b9-91d8-e8a5f1c9b58a"><path d="M7.11,9.91,4.68,12.48a.23.23,0,0,0,0,.31l.47.49a.2.2,0,0,0,.3,0h0l3.2-3.37a.22.22,0,0,0,0-.3L5.5,6.29a.2.2,0,0,0-.3,0h0l-.47.49a.22.22,0,0,0,0,.3L7.11,9.61A.2.2,0,0,1,7.11,9.91Z" fill="none" /></clipPath></defs><title>Icon-networking-81</title><circle cx="9" cy="9" r="8.5" fill="url(#b1cd44f2-d62b-4753-a859-aa68f089cdca)" /><circle cx="9" cy="9" r="7.4" fill="#fff" /><g clip-path="url(#f0c68de7-8aac-4038-bd4b-8e0fb8fab5fc)"><polygon points="10.43 8.19 13.16 11.07 12.39 11.87 8.89 8.19 12.34 4.56 13.11 5.36 10.43 8.19" fill="#5e9624" /><polygon points="13.16 11.07 10.43 8.19 9.67 8.99 12.39 11.87 13.16 11.07" fill="#86d633" /></g><g clip-path="url(#e1eb0374-eab6-40b9-91d8-e8a5f1c9b58a)"><polygon points="7.26 9.76 4.54 12.64 5.3 13.44 8.8 9.76 5.35 6.13 4.58 6.93 7.26 9.76" fill="#5e9624" /><polygon points="4.54 12.64 7.26 9.76 8.02 10.56 5.3 13.44 4.54 12.64" fill="#86d633" /></g></svg>