<svg id="b8a38613-92d9-40bd-9920-20dea78733ab" xmlns="http://www.w3.org/2000/svg" width="18" height="18" viewBox="0 0 18 18"><defs><linearGradient id="bb278f11-acc5-4f81-a956-3c7e2103f9e0" x1="9" y1="18.17" x2="9" y2="1.506" gradientTransform="translate(9 -3.728) rotate(45)" gradientUnits="userSpaceOnUse"><stop offset="0" stop-color="#238ab0" /><stop offset="0.109" stop-color="#2da4c8" /><stop offset="0.775" stop-color="#3ed3f2" /></linearGradient></defs><g><rect x="2.553" y="2.553" width="12.893" height="12.893" rx="0.591" transform="translate(-3.728 9) rotate(-45)" fill="url(#bb278f11-acc5-4f81-a956-3c7e2103f9e0)" /><polygon points="14.092 10.067 13.734 9.709 13.734 8.33 10.877 8.33 10.877 9.85 12.158 9.85 8.94 13.069 5.721 9.85 7.023 9.85 7.023 8.33 3.885 8.33 3.885 9.85 4.004 9.85 3.788 10.067 8.286 14.565 8.94 13.912 9.593 14.565 14.092 10.067" fill="#9cebff" /><g><ellipse id="e7444779-97d4-41c0-b615-8f20dff7b430" cx="3.977" cy="9.09" rx="1.577" ry="1.585" transform="translate(-5.271 5.494) rotate(-45.121)" fill="#fff" /><ellipse id="f49a3027-2a70-4956-8377-b9fde0692268" cx="3.977" cy="9.09" rx="0.896" ry="0.905" transform="translate(-5.267 5.484) rotate(-45.061)" fill="#86d633" /><ellipse id="a1afee39-6bd9-4799-a876-a587d30d68e2" cx="14.014" cy="9.09" rx="1.577" ry="1.585" transform="translate(-2.316 12.607) rotate(-45.121)" fill="#fff" /><ellipse id="e3be4992-7cb5-4729-a727-b6df3846a260" cx="14.014" cy="9.09" rx="0.896" ry="0.905" transform="translate(-2.319 12.59) rotate(-45.061)" fill="#86d633" /></g><g><path d="M11.04,4.806l-2-2a.15.15,0,0,0-.213,0l-2,2a.15.15,0,0,0,.106.257H8.068a.107.107,0,0,1,.107.107V15.433H9.7V5.17A.107.107,0,0,1,9.8,5.063h1.131A.15.15,0,0,0,11.04,4.806Z" fill="#fff" /><ellipse id="b39a4da1-83b2-4022-9206-dc01785cf428" cx="8.935" cy="14.139" rx="1.577" ry="1.585" transform="translate(-7.388 10.494) rotate(-45.121)" fill="#fff" /><ellipse id="fc8023b8-202d-4292-8ba0-f1db060a36ef" cx="8.935" cy="14.139" rx="0.896" ry="0.905" transform="translate(-7.384 10.477) rotate(-45.061)" fill="#86d633" /></g></g></svg>