<svg id="bc5816c9-c40c-4700-a3cd-6054b6abe2f7" xmlns="http://www.w3.org/2000/svg" width="18" height="18" viewBox="0 0 18 18"><defs><radialGradient id="bb8edb14-0b70-46fb-997d-f3a277915c9b" cx="15013.284" cy="4584.191" r="56.626" gradientTransform="translate(-2243.333 -678.832) scale(0.15)" gradientUnits="userSpaceOnUse"><stop offset="0.183" stop-color="#5ea0ef" /><stop offset="1" stop-color="#0078d4" /></radialGradient><linearGradient id="a6f3c115-b661-478c-8384-79eca0b050eb" x1="4.022" y1="171.297" x2="3.991" y2="167.338" gradientTransform="translate(0 -160)" gradientUnits="userSpaceOnUse"><stop offset="0" stop-color="#ccc" /><stop offset="0.123" stop-color="#d7d7d7" /><stop offset="0.421" stop-color="#ebebeb" /><stop offset="0.716" stop-color="#f8f8f8" /><stop offset="1" stop-color="#fcfcfc" /></linearGradient></defs><title>Icon-362Artboard 1</title><path id="a365ed42-c10c-4d6b-b8da-5311b6818174" d="M13.9,15.5A8.512,8.512,0,0,1,3.4,2.1L3.5,2A8.521,8.521,0,0,1,13.9,15.5" fill="url(#bb8edb14-0b70-46fb-997d-f3a277915c9b)" /><path d="M2.1,10.5a25.824,25.824,0,0,0-.8,2.6l.6.9.6.6a14.249,14.249,0,0,1,1.1-3.5A2.529,2.529,0,0,1,2.1,10.5Z" fill="#83b9f9" /><path d="M3.1,5.9A13.655,13.655,0,0,1,2.4,3,7.551,7.551,0,0,0,1.3,4.4a10.548,10.548,0,0,0,.6,2.4A2.73,2.73,0,0,1,3.1,5.9Z" fill="#83b9f9" /><circle cx="4" cy="8.5" r="2.7" fill="url(#a6f3c115-b661-478c-8384-79eca0b050eb)" /><path d="M8,13.5a2.106,2.106,0,0,1,.5-1.3A9.2,9.2,0,0,1,6,10.3a2.751,2.751,0,0,1-1.5.8A19.2,19.2,0,0,0,6,12.5a8.175,8.175,0,0,0,2,1.2Z" fill="#83b9f9" /><path d="M14.3,13.7a13.329,13.329,0,0,1-2.8-.3v.1a1.656,1.656,0,0,1-.5,1.2,12.967,12.967,0,0,0,3.4.2c.4-.4.8-.9,1.2-1.3A5.283,5.283,0,0,1,14.3,13.7Z" fill="#83b9f9" /><circle cx="9.8" cy="13.5" r="1.8" fill="none" /><path d="M9.3,4.9a13.468,13.468,0,0,1,5.9-1.4,6.73,6.73,0,0,0-1.5-1.4A15.335,15.335,0,0,0,9,3.2a9.25,9.25,0,0,0-1,.5A18.723,18.723,0,0,1,6,.8a1.9,1.9,0,0,0-.9.3A21.123,21.123,0,0,0,7.2,4.2,9.841,9.841,0,0,0,5,5.9,2.85,2.85,0,0,1,6.3,7,8.961,8.961,0,0,1,8.2,5.5a22.363,22.363,0,0,0,3.7,3.2,2.075,2.075,0,0,1,.6-1A27.892,27.892,0,0,1,9.3,4.9Z" fill="#83b9f9" /><circle cx="13.8" cy="9.1" r="1.9" fill="#f2f2f2" /><path d="M17,10.4c-.1-.1-.2-.1-.3-.2h0c-.1-.1-.2-.1-.3-.2h-.1L16,9.8h-.1l-.3-.2a1.456,1.456,0,0,1-.6.9c.1.1.2.1.4.2h.1c.1.1.2.1.3.2h0c.3.2.6.3.9.5h0c.1-.3.2-.7.3-1Z" fill="#83b9f9" /><circle cx="4" cy="8.5" r="2.7" fill="#f2f2f2" /><circle cx="9.8" cy="13.5" r="1.8" fill="#f2f2f2" /><path d="M5.2,10.5H17.3c.2,0,.5.2.5.4v6.4a.536.536,0,0,1-.5.5H5.2a.458.458,0,0,1-.4-.5V11A.458.458,0,0,1,5.2,10.5Z" fill="#821010" /><rect x="5.3" y="11.3" width="3.6" height="1.6" fill="#e62323" /><rect x="9.5" y="11.3" width="3.6" height="1.6" fill="#ff7381" /><rect x="13.6" y="11.3" width="3.6" height="1.6" fill="#e62323" /><rect x="5.3" y="13.4" width="1.5" height="1.6" fill="#e62323" /><rect x="15.7" y="13.4" width="1.5" height="1.6" fill="#ff7381" /><rect x="7.4" y="13.4" width="3.6" height="1.6" fill="#ff7381" /><rect x="11.5" y="13.4" width="3.6" height="1.6" fill="#e62323" /><rect x="5.3" y="15.5" width="3.6" height="1.6" fill="#e62323" /><rect x="9.5" y="15.5" width="3.6" height="1.6" fill="#ff7381" /><rect x="13.6" y="15.5" width="3.6" height="1.6" fill="#e62323" /></svg>