<svg id="f3b54d7d-7db0-469c-afc7-ffc9b14d26c9" data-name="azure-fluent-icons" xmlns="http://www.w3.org/2000/svg" xmlns:xlink="http://www.w3.org/1999/xlink" width="18" height="18" viewBox="0 0 18 18"><defs><linearGradient id="b6125be5-5e46-486d-bdee-ef1ac2eafdaa" x1="5.055" y1="-1401.772" x2="5.055" y2="-1395.802" gradientTransform="matrix(1, 0, 0, -1, 0, -1391.642)" gradientUnits="userSpaceOnUse"><stop offset="0" stop-color="#32bedd" /><stop offset="0.18" stop-color="#32caea" /><stop offset="0.41" stop-color="#32d2f2" /><stop offset="0.78" stop-color="#32d4f5" /></linearGradient><linearGradient id="adf1cfb9-1a2a-44ee-aac6-05ac5cdb186f" x1="9" y1="-1404.702" x2="9" y2="-1398.732" xlink:href="#b6125be5-5e46-486d-bdee-ef1ac2eafdaa" /><linearGradient id="f0461ac7-cb08-44b4-94c6-8fe04f936f9b" x1="12.945" y1="-1407.632" x2="12.945" y2="-1401.662" xlink:href="#b6125be5-5e46-486d-bdee-ef1ac2eafdaa" /></defs><title>Lighthouse-GS-networking-372</title><g><path d="M0,4.16H10.11V9.8a.34.34,0,0,1-.34.34H.34A.34.34,0,0,1,0,9.8H0V4.16Z" fill="url(#b6125be5-5e46-486d-bdee-ef1ac2eafdaa)" /><path d="M.34,2H9.77a.34.34,0,0,1,.34.34h0V4.16H0V2.34A.34.34,0,0,1,.34,2Z" fill="#767676" /><rect x="1.36" y="2.65" width="7.39" height="0.87" rx="0.17" fill="#f2f2f2" /><path d="M3.94,7.08H14.06v5.64a.34.34,0,0,1-.34.34H4.28a.34.34,0,0,1-.34-.34h0Z" fill="url(#adf1cfb9-1a2a-44ee-aac6-05ac5cdb186f)" /><path d="M4.28,4.93h9.43a.34.34,0,0,1,.34.34h0V7.08H3.95V5.27A.34.34,0,0,1,4.28,4.93Z" fill="#767676" /><rect x="5.3" y="5.58" width="7.39" height="0.87" rx="0.17" fill="#f2f2f2" /><g><path d="M7.89,10.02H18v5.64a.34.34,0,0,1-.34.34H8.23a.34.34,0,0,1-.34-.34h0Z" fill="url(#f0461ac7-cb08-44b4-94c6-8fe04f936f9b)" /><path d="M8.23,7.86h9.43A.34.34,0,0,1,18,8.2v1.82H7.89V8.2A.34.34,0,0,1,8.23,7.86Z" fill="#767676" /><g><circle cx="15.22" cy="12.64" r="0.82" fill="#f2f2f2" /><circle cx="12.98" cy="12.64" r="0.82" fill="#f2f2f2" /><circle cx="10.67" cy="12.64" r="0.82" fill="#f2f2f2" /></g><rect x="9.25" y="8.51" width="7.39" height="0.87" rx="0.17" fill="#f2f2f2" /></g></g></svg>