<?xml version="1.0" encoding="UTF-8"?>
<svg width="64px" height="64px" viewBox="0 0 64 64" version="1.1" xmlns="http://www.w3.org/2000/svg" xmlns:xlink="http://www.w3.org/1999/xlink">
    <title>Icon-Architecture/48/Arch_AWS-Compute-Optimizer_48</title>
    <defs>
        <linearGradient x1="0%" y1="100%" x2="100%" y2="0%" id="linearGradient-1">
            <stop stop-color="#C8511B" offset="0%"></stop>
            <stop stop-color="#FF9900" offset="100%"></stop>
        </linearGradient>
    </defs>
    <g id="Icon-Architecture/48/Arch_AWS-Compute-Optimizer_48" stroke="none" stroke-width="1" fill="none" fill-rule="evenodd">
        <g id="Rectangle" fill="url(#linearGradient-1)">
            <rect x="0" y="0" width="64" height="64"></rect>
        </g>
        <g id="Icon-Service/48/AWS-Compute-Optimizer_48" transform="translate(8.000000, 8.000000)" fill="#FFFFFF">
            <path d="M27,28.5110037 C29.847,28.1100037 32,25.6400037 32,22.6460037 C32,19.6520037 29.847,17.1820037 27,16.7820037 L27,14.7760037 C30.963,15.1880037 34,18.5460037 34,22.6460037 C34,26.7460037 30.963,30.1040037 27,30.5160037 L27,28.5110037 Z M28.472,5.00000367 L27,5.00000367 L27,3.00000367 L29.529,3.00000367 C29.805,3.00000367 30.067,3.11300367 30.256,3.31300367 C30.445,3.51300367 30.543,3.78200367 30.527,4.05600367 L30.4,6.32900367 C31.703,6.69000367 32.951,7.20500367 34.13,7.86700367 L35.643,6.16700367 C35.826,5.96200367 36.085,5.84100367 36.36,5.83300367 C36.639,5.81600367 36.901,5.93100367 37.096,6.12400367 L42.341,11.3580037 C42.536,11.5530037 42.642,11.8190037 42.635,12.0940037 C42.627,12.3690037 42.507,12.6280037 42.302,12.8120037 L40.607,14.3270037 C41.271,15.5020037 41.79,16.7510037 42.156,18.0540037 L44.425,17.9220037 C44.694,17.9130037 44.968,18.0040037 45.168,18.1930037 C45.368,18.3820037 45.482,18.6440037 45.482,18.9200037 L45.491,26.3290037 C45.491,26.6040037 45.379,26.8680037 45.179,27.0570037 C44.979,27.2450037 44.707,27.3440037 44.436,27.3290037 L42.174,27.2020037 C41.736,28.7790037 41.073,30.2790037 40.197,31.6700037 L38.504,30.6040037 C39.41,29.1650037 40.058,27.5960037 40.43,25.9390037 C40.537,25.4610037 41.011,25.1410037 41.461,25.1590037 L43.49,25.2730037 L43.483,19.9800037 L41.448,20.0990037 C40.957,20.1200037 40.523,19.7990037 40.416,19.3220037 C40.038,17.6640037 39.387,16.0980037 38.48,14.6660037 C38.219,14.2530037 38.294,13.7120037 38.658,13.3860037 L40.179,12.0260037 L36.433,8.28800367 L35.075,9.81300367 C34.75,10.1780037 34.208,10.2540037 33.796,9.99400367 C32.36,9.09100367 30.793,8.44500367 29.137,8.07300367 C28.659,7.96600367 28.33,7.52900367 28.357,7.04100367 L28.472,5.00000367 Z M18.045,43.8600037 L16.035,42.6540037 L19.626,39.7810037 L18.376,38.2190037 L14.205,41.5560037 L9.001,38.4330037 L9.001,32.4990037 L12.601,29.8000037 L11.401,28.2000037 L7.85,30.8620037 L4.001,29.3230037 L4,24.5640037 L8.478,21.8550037 L7.442,20.1440037 L4,22.2260037 L4.001,19.5750037 L7.988,17.1750037 L12.001,19.5680037 L12.001,22.5000037 L8.401,25.2000037 L9.601,26.8000037 L12.907,24.3200037 L15.001,26.4140037 L15.001,28.0000037 L17.001,28.0000037 L17.001,26.0000037 C17.001,25.7350037 16.896,25.4800037 16.708,25.2930037 L14.001,22.5860037 L14.001,19.5660037 L18.516,16.8570037 C18.816,16.6770037 19.001,16.3510037 19.001,16.0000037 L19.001,11.0110037 L17.001,11.0110037 L17.001,15.4330037 L12.999,17.8350037 L9.001,15.4510037 L9.001,9.53500367 L13.001,6.86800367 L13.001,12.0000037 L15.001,12.0000037 L15.001,5.53500367 L17.104,4.13200367 L23.001,6.65900367 L23.001,22.0000037 L20.6,20.2000037 L19.4,21.8000037 L23.001,24.5000037 L23.001,26.5190037 L13.376,34.2190037 L14.626,35.7810037 L23.001,29.0800037 L23.001,41.3820037 L18.045,43.8600037 Z M17.395,2.08100367 C17.085,1.94800367 16.729,1.98000367 16.446,2.16800367 L7.446,8.16800367 C7.168,8.35300367 7.001,8.66500367 7.001,9 L7.001,15.4340037 L2.485,18.1530037 C2.185,18.3340037 2.001,18.6590037 2.001,19.0100037 L2,23.7580037 L2.001,30 C2.001,30.4090037 2.25,30.7770037 2.63,30.9290037 L7.001,32.6770037 L7.001,39 C7.001,39.3510037 7.186,39.6770037 7.486,39.8570037 L17.486,45.8570037 C17.645,45.9520037 17.822,46 18.001,46 C18.154,46 18.307,45.9650037 18.448,45.8940037 L24.448,42.8940037 C24.787,42.7250037 25.001,42.3790037 25.001,42 L25.001,6 C25.001,5.60000367 24.763,5.23800367 24.395,5.08100367 L17.395,2.08100367 Z M30.449,42.0000037 C30.274,41.9990037 30.141,41.9730037 30.061,41.9220037 C29.563,41.6090037 28.971,41.0030037 28.971,39.9000037 C28.971,38.8120037 29.503,38.1240037 30.553,37.8540037 C31.016,37.7350037 31.33,37.3050037 31.302,36.8280037 L31.272,36.3480037 C31.272,35.1180037 32.144,33.7480037 33.214,33.2930037 C33.708,33.0830037 34.165,33.0000037 34.58,33.0000037 C35.761,33.0000037 36.597,33.6790037 36.962,34.0460037 C37.365,34.4520037 37.695,34.9990037 37.917,35.6290037 C38.04,35.9780037 38.347,36.2310037 38.713,36.2860037 C39.077,36.3410037 39.446,36.1880037 39.665,35.8900037 C39.915,35.5510037 40.307,35.4920037 40.581,35.5810037 C40.963,35.7070037 41.188,36.1270037 41.2,36.7390037 C41.152,37.2560037 41.51,37.7270037 42.026,37.8160037 C42.764,37.9430037 44.001,38.3860037 44.001,39.9260037 C44.001,41.6830037 42.468,41.9580037 42.077,42.0000037 L30.449,42.0000037 Z M41.205,33.6820037 C40.552,33.4670037 39.858,33.5050037 39.247,33.7630037 C38.999,33.3440037 38.71,32.9680037 38.38,32.6360037 C36.758,31.0030037 34.533,30.5600037 32.433,31.4530037 C30.694,32.1900037 29.368,34.1770037 29.279,36.1880037 C27.819,36.8470037 26.971,38.1860037 26.971,39.9000037 C26.971,42.0210037 28.237,43.1370037 28.991,43.6130037 C29.396,43.8690037 29.885,43.9990037 30.447,44.0000037 L42.124,44.0000037 C42.148,44.0000037 42.173,43.9990037 42.197,43.9970037 C43.513,43.9010037 46.001,42.9270037 46.001,39.9260037 C46.001,37.7500037 44.631,36.5350037 43.136,36.0380037 C42.895,34.7030037 42.025,33.9510037 41.205,33.6820037 Z" id="AWS-Compute-Optimizer_Icon_48_Squid"></path>
        </g>
    </g>
</svg>