<?xml version="1.0" encoding="UTF-8"?>
<svg width="64px" height="64px" viewBox="0 0 64 64" version="1.1" xmlns="http://www.w3.org/2000/svg" xmlns:xlink="http://www.w3.org/1999/xlink">
    <title>Icon-Architecture/48/Arch_AWS-Fusion_48</title>
    <defs>
        <linearGradient x1="0%" y1="100%" x2="100%" y2="0%" id="linearGradient-1">
            <stop stop-color="#C8511B" offset="0%"></stop>
            <stop stop-color="#FF9900" offset="100%"></stop>
        </linearGradient>
    </defs>
    <g id="Icon-Architecture/48/Arch_AWS-Fusion_48" stroke="none" stroke-width="1" fill="none" fill-rule="evenodd">
        <g id="Rectangle" fill="url(#linearGradient-1)">
            <rect x="0" y="0" width="64" height="64"></rect>
        </g>
        <g id="Icon-Service/48/AWS-Fusion_48" transform="translate(8.000000, 8.000000)" fill="#FFFFFF">
            <path d="M14.707,34.707 L13.293,33.293 L4,42.586 L4,38 L2,38 L2,45 C2,45.552 2.447,46 3,46 L10,46 L10,44 L5.414,44 L14.707,34.707 Z M45,2 L38,2 L38,4 L42.586,4 L33.793,12.793 L35.207,14.207 L44,5.414 L44,10 L46,10 L46,3 C46,2.448 45.553,2 45,2 L45,2 Z M27,39 L39,39 L39,27 L27,27 L27,39 Z M41,26 L41,40 C41,40.552 40.553,41 40,41 L26,41 C25.447,41 25,40.552 25,40 L25,26 C25,25.448 25.447,25 26,25 L40,25 C40.553,25 41,25.448 41,26 L41,26 Z M9,21 L21,21 L21,9 L9,9 L9,21 Z M23,8 L23,22 C23,22.552 22.553,23 22,23 L8,23 C7.447,23 7,22.552 7,22 L7,8 C7,7.448 7.447,7 8,7 L22,7 C22.553,7 23,7.448 23,8 L23,8 Z M22,25 L8,25 C7.447,25 7,25.448 7,26 L7,36.758 L9,34.758 L9,27 L21,27 L21,39 L13.242,39 L11.242,41 L22,41 C22.553,41 23,40.552 23,40 L23,26 C23,25.448 22.553,25 22,25 L22,25 Z M39,13.242 L41,11.242 L41,22 C41,22.552 40.553,23 40,23 L26,23 C25.447,23 25,22.552 25,22 L25,8 C25,7.448 25.447,7 26,7 L36.758,7 L34.758,9 L27,9 L27,21 L39,21 L39,13.242 Z" id="Fill-4"></path>
        </g>
    </g>
</svg>