<?xml version="1.0" encoding="UTF-8"?>
<svg width="64px" height="64px" viewBox="0 0 64 64" version="1.1" xmlns="http://www.w3.org/2000/svg" xmlns:xlink="http://www.w3.org/1999/xlink">
    <!-- Generator: Sketch 64 (93537) - https://sketch.com -->
    <title>Icon-Architecture/48/Arch_Amazon-Elastic-Container-Registry_48</title>
    <desc>Created with Sketch.</desc>
    <defs>
        <linearGradient x1="0%" y1="100%" x2="100%" y2="0%" id="linearGradient-1">
            <stop stop-color="#C8511B" offset="0%"></stop>
            <stop stop-color="#FF9900" offset="100%"></stop>
        </linearGradient>
    </defs>
    <g id="Icon-Architecture/48/Arch_Amazon-Elastic-Container-Registry_48" stroke="none" stroke-width="1" fill="none" fill-rule="evenodd">
        <g id="Icon-Architecture-BG/48/Compute" fill="url(#linearGradient-1)">
            <rect id="Rectangle" x="0" y="0" width="64" height="64"></rect>
        </g>
        <g id="Icon-Service/48/Amazon-Elastic-Container-Registry" transform="translate(8.000000, 8.000000)" fill="#FFFFFF">
            <path d="M22.726,21.9221953 C22.279,22.1827125 22,22.6666734 22,23.1847019 L22,43.5341041 L7,34.8578781 L7,15.0114745 L24.172,5.07775185 L39.088,12.4574036 L22.726,21.9221953 Z M41.704,12.42033 C41.704,11.9023015 41.426,11.4203446 40.921,11.1317717 L24.879,3.1960158 C24.433,2.93549856 23.876,2.93449657 23.428,3.19401182 L5.729,13.4333413 C5.28,13.6928565 5,14.1768174 5,14.6968499 L5,35.1725028 C5,35.6905313 5.279,36.1744922 5.728,36.4350094 L21.816,45.7414867 C22.04,45.8717454 22.292,45.9368747 22.545,45.9368747 C22.796,45.9368747 23.047,45.8727473 23.272,45.7424887 C23.721,45.4829735 24,44.9990126 24,44.4789801 L24,23.4993265 L40.978,13.6778267 C41.426,13.4193134 41.704,12.9373565 41.704,12.42033 L41.704,12.42033 Z M42,34.9410432 L29.004,43.5331022 L29.004,36.4099597 L35.603,31.4160446 C35.853,31.2266686 36,30.9300798 36,30.6164571 L36,22.4803034 L42,19.0064062 L42,34.9410432 Z M43.273,16.7990236 C42.825,16.5385063 42.267,16.5375044 41.817,16.7990236 L34.879,20.812993 C34.639,20.9422497 34,21.287936 34,22.0304101 L34,30.1174664 L27.663,34.9129875 C27.255,35.1805187 27.004,35.6414338 27.004,36.1344126 L27.004,44.5461134 C27.004,45.0661459 27.284,45.5501068 27.733,45.809622 C27.951,45.9348707 28.195,46 28.445,46 C28.709,46 28.982,45.9278568 29.239,45.7775584 L43.275,36.4971327 C43.722,36.2376175 44,35.7536566 44,35.2356281 L44,18.0625322 C44,17.5424997 43.721,17.0585388 43.273,16.7990236 L43.273,16.7990236 Z" id="Amazon-Elastic-Container-Registry_Icon_48_Squid"></path>
        </g>
    </g>
</svg>