<?xml version="1.0" encoding="UTF-8"?>
<svg width="64px" height="64px" viewBox="0 0 64 64" version="1.1" xmlns="http://www.w3.org/2000/svg" xmlns:xlink="http://www.w3.org/1999/xlink">
    <!-- Generator: Sketch 64 (93537) - https://sketch.com -->
    <title>Icon-Architecture/48/Arch_Amazon-EC2-M5n_48</title>
    <desc>Created with Sketch.</desc>
    <defs>
        <linearGradient x1="0%" y1="100%" x2="100%" y2="0%" id="linearGradient-1">
            <stop stop-color="#C8511B" offset="0%"></stop>
            <stop stop-color="#FF9900" offset="100%"></stop>
        </linearGradient>
    </defs>
    <g id="Icon-Architecture/48/Arch_Amazon-EC2-M5n_48" stroke="none" stroke-width="1" fill="none" fill-rule="evenodd">
        <g id="Icon-Architecture-BG/48/Compute" fill="url(#linearGradient-1)">
            <rect id="Rectangle" x="0" y="0" width="64" height="64"></rect>
        </g>
        <path d="M38.208,34.88 L38.208,32.168 C38.208,31.885 38.15,31.677 38.036,31.544 C37.921,31.411 37.741,31.344 37.496,31.344 C37.074,31.344 36.661,31.48 36.256,31.752 L36.256,34.88 L35.464,34.88 L35.464,30.824 L36.128,30.824 L36.208,31.272 C36.715,30.893 37.248,30.704 37.808,30.704 C38.197,30.704 38.493,30.807 38.696,31.012 C38.898,31.217 39,31.515 39,31.904 L39,34.88 L38.208,34.88 Z M30.728,34.04 C31.319,34.232 31.826,34.328 32.248,34.328 C32.653,34.328 32.964,34.236 33.18,34.052 C33.396,33.868 33.504,33.603 33.504,33.256 C33.504,32.878 33.402,32.603 33.199,32.432 C32.997,32.261 32.666,32.176 32.208,32.176 C31.877,32.176 31.464,32.203 30.968,32.256 L30.968,31.728 L31.119,29.336 L34.04,29.336 L34.04,29.992 L31.792,29.992 L31.687,31.616 C31.98,31.563 32.245,31.536 32.479,31.536 C33.056,31.536 33.506,31.688 33.832,31.992 C34.157,32.296 34.319,32.715 34.319,33.248 C34.319,33.771 34.13,34.193 33.752,34.516 C33.373,34.839 32.874,35 32.256,35 C31.712,35 31.202,34.893 30.728,34.68 L30.728,34.04 Z M28.76,34.88 L28.76,30.52 L27.2,33.464 L26.456,33.464 L24.888,30.512 L24.888,34.88 L24.136,34.88 L24.136,29.336 L25.048,29.336 L26.84,32.736 L28.624,29.336 L29.512,29.336 L29.512,34.88 L28.76,34.88 Z M23,41 L41,41 L41,23 L23,23 L23,41 Z M43,23 L46,23 L46,25 L43,25 L43,27 L46,27 L46,29 L43,29 L43,31 L46,31 L46,33 L43,33 L43,35 L46,35 L46,37 L43,37 L43,39 L46,39 L46,41 L43,41 L43,41.344 C43,42.257 42.257,43 41.344,43 L41,43 L41,46 L39,46 L39,43 L37,43 L37,46 L35,46 L35,43 L33,43 L33,46 L31,46 L31,43 L29,43 L29,46 L27,46 L27,43 L25,43 L25,46 L23,46 L23,43 L22.656,43 C21.743,43 21,42.257 21,41.344 L21,41 L18,41 L18,39 L21,39 L21,37 L18,37 L18,35 L21,35 L21,33 L18,33 L18,31 L21,31 L21,29 L18,29 L18,27 L21,27 L21,25 L18,25 L18,23 L21,23 L21,22.656 C21,21.743 21.743,21 22.656,21 L23,21 L23,18 L25,18 L25,21 L27,21 L27,18 L29,18 L29,21 L31,21 L31,18 L33,18 L33,21 L35,21 L35,18 L37,18 L37,21 L39,21 L39,18 L41,18 L41,21 L41.344,21 C42.257,21 43,21.743 43,22.656 L43,23 Z M32,52 L12,52 L12,32 L16,32 L16,30 L11.843,30 C10.826,30 10,30.827 10,31.843 L10,52.157 C10,53.173 10.826,54 11.843,54 L32.157,54 C33.174,54 34,53.173 34,52.157 L34,48 L32,48 L32,52 Z M52.157,10 L31.843,10 C30.826,10 30,10.827 30,11.843 L30,16 L32,16 L32,12 L52,12 L52,32 L48,32 L48,34 L52.157,34 C53.174,34 54,33.173 54,32.157 L54,11.843 C54,10.827 53.174,10 52.157,10 L52.157,10 Z" id="Amazon-EC2-M5n_Icon_48px_Squid" fill="#FFFFFF"></path>
    </g>
</svg>