<?xml version="1.0" encoding="UTF-8"?>
<svg width="64px" height="64px" viewBox="0 0 64 64" version="1.1" xmlns="http://www.w3.org/2000/svg" xmlns:xlink="http://www.w3.org/1999/xlink">
    <!-- Generator: Sketch 64 (93537) - https://sketch.com -->
    <title>Icon-Architecture/48/Arch_AWS-Outposts_48</title>
    <desc>Created with Sketch.</desc>
    <defs>
        <linearGradient x1="0%" y1="100%" x2="100%" y2="0%" id="linearGradient-1">
            <stop stop-color="#C8511B" offset="0%"></stop>
            <stop stop-color="#FF9900" offset="100%"></stop>
        </linearGradient>
    </defs>
    <g id="Icon-Architecture/48/Arch_AWS-Outposts_48" stroke="none" stroke-width="1" fill="none" fill-rule="evenodd">
        <g id="Icon-Architecture-BG/48/Compute" fill="url(#linearGradient-1)">
            <rect id="Rectangle" x="0" y="0" width="64" height="64"></rect>
        </g>
        <path d="M39.9871097,52.0006974 L41.9866671,52.0006974 L41.9866671,51.0010461 L39.9871097,51.0010461 L39.9871097,52.0006974 Z M31.9888804,52.0006974 L33.9884377,52.0006974 L33.9884377,51.0010461 L31.9888804,51.0010461 L31.9888804,52.0006974 Z M29.989323,48.0020923 C29.989323,48.3719633 29.989323,48.7508311 30.007319,48.9837499 C30.2412672,49.0017436 30.6201833,49.0017436 30.9891017,49.0017436 L34.9882164,49.0017436 L38.9873311,49.0017436 L41.9866671,49.0017436 C42.3615841,49.0017436 42.7464989,49.0017436 42.9804471,48.9827502 C43.0004427,48.7398349 43.0004427,48.3399744 43.0004427,48.0020923 L43.0004427,23.0288039 C43.0004427,22.6839242 43.0004427,22.2760665 42.9804471,22.0301523 C42.7454991,22.0111589 42.3615841,22.0111589 41.9866671,22.0111589 L30.9891017,22.0111589 C30.6201833,22.0111589 30.2412672,22.0111589 30.007319,22.0291526 C29.989323,22.2620714 29.989323,22.6409392 29.989323,23.0108102 L29.989323,48.0020923 Z M45,23.0288039 L45,48.0020923 C45,49.6445194 44.8040434,50.4092526 43.9862244,50.7501337 L43.9862244,53.0003487 C43.9862244,53.5521562 43.5383236,54 42.9864458,54 L38.9873311,54 C38.4344535,54 37.9875524,53.5521562 37.9875524,53.0003487 L37.9875524,51.0010461 L35.987995,51.0010461 L35.987995,53.0003487 C35.987995,53.5521562 35.5400942,54 34.9882164,54 L30.9891017,54 C30.4362241,54 29.989323,53.5521562 29.989323,53.0003487 L29.989323,50.9590608 C28.3276909,50.8131117 27.9897657,50.1693363 27.9897657,48.0020923 L27.9897657,23.0108102 C27.9897657,20.4606998 28.4376665,20.0118563 30.9891017,20.0118563 L41.9866671,20.0118563 C44.5490998,20.0118563 45,20.4626991 45,23.0288039 L45,23.0288039 Z M38.9873311,35.0066256 C38.9873311,34.4558177 39.4352319,34.0069743 39.9871097,34.0069743 C40.5379878,34.0069743 40.9868884,34.4558177 40.9868884,35.0066256 C40.9868884,35.5574335 40.5379878,36.0062769 39.9871097,36.0062769 C39.4352319,36.0062769 38.9873311,35.5574335 38.9873311,35.0066256 L38.9873311,35.0066256 Z M38.9873311,31.0080205 C38.9873311,30.4572126 39.4352319,30.0083692 39.9871097,30.0083692 C40.5379878,30.0083692 40.9868884,30.4572126 40.9868884,31.0080205 C40.9868884,31.5588283 40.5379878,32.0076717 39.9871097,32.0076717 C39.4352319,32.0076717 38.9873311,31.5588283 38.9873311,31.0080205 L38.9873311,31.0080205 Z M38.9873311,27.0094153 C38.9873311,26.4586075 39.4352319,26.009764 39.9871097,26.009764 C40.5379878,26.009764 40.9868884,26.4586075 40.9868884,27.0094153 C40.9868884,27.5602232 40.5379878,28.0090666 39.9871097,28.0090666 C39.4352319,28.0090666 38.9873311,27.5602232 38.9873311,27.0094153 L38.9873311,27.0094153 Z M31.9888804,28.0090666 L37.9875524,28.0090666 L37.9875524,26.009764 L31.9888804,26.009764 L31.9888804,28.0090666 Z M31.9888804,36.0062769 L37.9875524,36.0062769 L37.9875524,34.0069743 L31.9888804,34.0069743 L31.9888804,36.0062769 Z M31.9888804,32.0076717 L37.9875524,32.0076717 L37.9875524,30.0083692 L31.9888804,30.0083692 L31.9888804,32.0076717 Z M31.705943,12.9993026 C29.4424441,12.9993026 28.0347557,14.0699291 27.251929,14.9666163 C25.919224,16.4970824 25.5013165,18.4803906 25.6792771,19.7669418 C25.7532608,20.2997559 25.3923407,20.7955829 24.8634577,20.8885505 C24.5335308,20.9515285 21.5891826,21.6302918 22.0560792,25.5219342 C22.075075,25.7868418 22.2680323,27.4782518 25.0804097,28.0090666 L26.989987,28.0090666 L26.989987,30.0083692 L24.9904296,30.0083692 C24.9314427,30.0083692 24.8724558,30.0033709 24.8154684,29.9933744 C20.2174863,29.177659 20.0685192,25.8118331 20.0635203,25.6698826 C19.590625,21.7532489 21.8551237,19.8419156 23.6397287,19.1651517 C23.6357295,17.2598163 24.4165567,15.1785424 25.7452625,13.6540742 C26.7990293,12.4434965 28.6896107,11.0009997 31.705943,11 C35.8440269,11 38.0685345,13.4581425 39.0323211,15.5364175 C39.9721131,15.0245961 40.9858886,15.0415901 41.5847561,15.1905382 C44.2211724,15.6993607 44.9670073,17.9025921 44.9860031,18.995211 L42.9864458,19.0291991 C42.9754482,18.7812856 42.8354792,17.4677438 41.1528517,17.1418575 C41.0048844,17.1098687 40.0161033,16.9229339 39.4062383,17.845612 C39.1822879,18.1854934 38.7813767,18.3554342 38.3764663,18.275462 C37.9785544,18.1964896 37.6676232,17.8835987 37.5906403,17.4847379 C37.5536484,17.3058003 36.6238543,12.9993026 31.705943,12.9993026 L31.705943,12.9993026 Z" id="AWS-Outposts_Icon_48_Squid" fill="#FFFFFF"></path>
    </g>
</svg>