<?xml version="1.0" encoding="UTF-8"?>
<svg width="64px" height="64px" viewBox="0 0 64 64" version="1.1" xmlns="http://www.w3.org/2000/svg" xmlns:xlink="http://www.w3.org/1999/xlink">
    <!-- Generator: Sketch 64 (93537) - https://sketch.com -->
    <title>Icon-Architecture/48/Arch_Amazon-EC2-R5n_48</title>
    <desc>Created with Sketch.</desc>
    <defs>
        <linearGradient x1="0%" y1="100%" x2="100%" y2="0%" id="linearGradient-1">
            <stop stop-color="#C8511B" offset="0%"></stop>
            <stop stop-color="#FF9900" offset="100%"></stop>
        </linearGradient>
    </defs>
    <g id="Icon-Architecture/48/Arch_Amazon-EC2-R5n_48" stroke="none" stroke-width="1" fill="none" fill-rule="evenodd">
        <g id="Icon-Architecture-BG/48/Compute" fill="url(#linearGradient-1)">
            <rect id="Rectangle" x="0" y="0" width="64" height="64"></rect>
        </g>
        <path d="M38.461,34.917 L38.461,31.866 C38.461,31.548 38.397,31.314 38.268,31.164 C38.139,31.014 37.936,30.939 37.66,30.939 C37.186,30.939 36.721,31.092 36.265,31.398 L36.265,34.917 L35.374,34.917 L35.374,30.354 L36.121,30.354 L36.211,30.858 C36.781,30.432 37.381,30.219 38.011,30.219 C38.449,30.219 38.782,30.334 39.01,30.565 C39.238,30.796 39.352,31.131 39.352,31.569 L39.352,34.917 L38.461,34.917 Z M30.046,33.972 C30.712,34.188 31.281,34.296 31.756,34.296 C32.212,34.296 32.562,34.192 32.804,33.985 C33.047,33.778 33.169,33.48 33.169,33.09 C33.169,32.664 33.055,32.355 32.826,32.163 C32.599,31.971 32.227,31.875 31.711,31.875 C31.339,31.875 30.874,31.905 30.315,31.965 L30.315,31.371 L30.486,28.68 L33.772,28.68 L33.772,29.418 L31.242,29.418 L31.126,31.245 C31.455,31.185 31.753,31.155 32.017,31.155 C32.665,31.155 33.172,31.326 33.537,31.668 C33.903,32.01 34.087,32.481 34.087,33.081 C34.087,33.669 33.874,34.145 33.447,34.507 C33.022,34.871 32.461,35.052 31.765,35.052 C31.152,35.052 30.579,34.932 30.046,34.692 L30.046,33.972 Z M25.565,31.677 L26.833,31.677 C27.217,31.677 27.51,31.581 27.711,31.389 C27.911,31.197 28.012,30.912 28.012,30.534 C28.012,30.162 27.916,29.881 27.724,29.692 C27.532,29.503 27.247,29.409 26.869,29.409 L25.565,29.409 L25.565,31.677 Z M24.673,34.917 L24.673,28.68 L26.95,28.68 C27.556,28.68 28.039,28.847 28.399,29.18 C28.759,29.513 28.94,29.961 28.94,30.525 C28.94,30.939 28.826,31.297 28.602,31.601 C28.377,31.903 28.06,32.124 27.652,32.262 L29.308,34.917 L28.309,34.917 L26.779,32.406 L25.565,32.406 L25.565,34.917 L24.673,34.917 Z M23,41 L41,41 L41,23 L23,23 L23,41 Z M43,23 L46,23 L46,25 L43,25 L43,27 L46,27 L46,29 L43,29 L43,31 L46,31 L46,33 L43,33 L43,35 L46,35 L46,37 L43,37 L43,39 L46,39 L46,41 L43,41 L43,41.345 C43,42.258 42.257,43 41.344,43 L41,43 L41,46 L39,46 L39,43 L37,43 L37,46 L35,46 L35,43 L33,43 L33,46 L31,46 L31,43 L29,43 L29,46 L27,46 L27,43 L25,43 L25,46 L23,46 L23,43 L22.656,43 C21.743,43 21,42.258 21,41.345 L21,41 L18,41 L18,39 L21,39 L21,37 L18,37 L18,35 L21,35 L21,33 L18,33 L18,31 L21,31 L21,29 L18,29 L18,27 L21,27 L21,25 L18,25 L18,23 L21,23 L21,22.656 C21,21.743 21.743,21 22.656,21 L23,21 L23,18 L25,18 L25,21 L27,21 L27,18 L29,18 L29,21 L31,21 L31,18 L33,18 L33,21 L35,21 L35,18 L37,18 L37,21 L39,21 L39,18 L41,18 L41,21 L41.344,21 C42.257,21 43,21.743 43,22.656 L43,23 Z M32,52 L12,52 L12,32 L16,32 L16,30 L11.843,30 C10.826,30 10,30.827 10,31.843 L10,52.158 C10,53.174 10.826,54 11.843,54 L32.157,54 C33.174,54 34,53.174 34,52.158 L34,48 L32,48 L32,52 Z M52.157,10 L31.843,10 C30.826,10 30,10.827 30,11.843 L30,16 L32,16 L32,12 L52,12 L52,32 L48,32 L48,34 L52.157,34 C53.174,34 54,33.174 54,32.158 L54,11.843 C54,10.827 53.174,10 52.157,10 L52.157,10 Z" id="Amazon-EC2-R5n_Icon_48px_Squid" fill="#FFFFFF"></path>
    </g>
</svg>