<?xml version="1.0" encoding="UTF-8"?>
<svg width="64px" height="64px" viewBox="0 0 64 64" version="1.1" xmlns="http://www.w3.org/2000/svg" xmlns:xlink="http://www.w3.org/1999/xlink">
    <title>Icon-Architecture/48/Arch_AWS-ThinkBox-Krakatoa_48</title>
    <defs>
        <linearGradient x1="0%" y1="100%" x2="100%" y2="0%" id="linearGradient-1">
            <stop stop-color="#C8511B" offset="0%"></stop>
            <stop stop-color="#FF9900" offset="100%"></stop>
        </linearGradient>
    </defs>
    <g id="Icon-Architecture/48/Arch_AWS-ThinkBox-Krakatoa_48" stroke="none" stroke-width="1" fill="none" fill-rule="evenodd">
        <g id="Rectangle" fill="url(#linearGradient-1)">
            <rect x="0" y="0" width="64" height="64"></rect>
        </g>
        <g id="Icon-Service/48/AWS-ThinkBox-Krakatoa_48" transform="translate(8.000000, 8.000000)" fill="#FFFFFF">
            <path d="M23.0001392,4.78325 L23.0001392,8.00025 L25.0001392,8.00025 L25.0001392,4.78325 L27.4791392,6.29825 L28.5211392,4.59125 L24.5211392,2.14625 C24.2011392,1.95125 23.7991392,1.95125 23.4791392,2.14625 L19.4791392,4.59125 L20.5211392,6.29825 L23.0001392,4.78325 Z M21.0001392,46.00025 L27.0001392,46.00025 L27.0001392,44.00025 L21.0001392,44.00025 L21.0001392,46.00025 Z M29.6971392,40.00025 L24.0001392,36.20125 L18.3031392,40.00025 L29.6971392,40.00025 Z M43.0002783,14.00025 L43.0002783,18.00025 L41.0001392,18.00025 L41.0001392,15.15925 C32.0741392,16.71125 25.4201392,23.24425 25.0001392,31.04425 L25.0001392,34.46525 L27.0001392,35.79825 L27.0001392,32.96425 C27.2241392,27.82425 30.8351392,24.41725 35.8391392,24.63225 C39.9631392,24.81225 43.1721392,28.31325 42.9931392,32.43825 C42.8491392,35.75725 40.1021392,38.35925 36.8121392,38.35925 C36.7221392,38.35925 36.6311392,38.35725 36.5401392,38.35325 C33.7011392,38.22925 31.4931392,35.82025 31.6161392,32.98225 C31.7201392,30.60825 33.6281392,28.89625 36.0431392,29.00125 L35.9571392,30.99925 C34.6901392,30.95025 33.6681392,31.81225 33.6141392,33.06925 C33.5391392,34.80525 34.8911392,36.27925 36.6271392,36.35525 C38.9511392,36.45025 40.8951392,34.65825 40.9951392,32.35125 C41.1261392,29.32825 38.7741392,26.76225 35.7511392,26.63025 C35.6321392,26.62525 35.5131392,26.62225 35.3951392,26.62225 C31.7211392,26.62225 29.1681392,29.14825 28.9991392,33.00725 L29.0001392,37.13125 L33.5551392,40.16825 C33.9211392,40.41225 34.0851392,40.86825 33.9571392,41.28925 C33.8291392,41.71125 33.4401392,42.00025 33.0001392,42.00025 L15.0001392,42.00025 C14.5601392,42.00025 14.1711392,41.71125 14.0431392,41.28925 C13.9151392,40.86825 14.0791392,40.41225 14.4451392,40.16825 L19.0001392,37.13125 L19.0001392,32.96425 C18.8271392,29.02525 16.1171392,26.45725 12.2491392,26.63025 C9.22613916,26.76225 6.87413916,29.32825 7.00513916,32.35125 C7.10513916,34.65825 9.02013916,36.44825 11.3741392,36.35525 C13.1091392,36.27925 14.4611392,34.80525 14.3861392,33.06925 C14.3311392,31.81225 13.3641392,30.95225 12.0431392,30.99925 L11.9571392,29.00125 C14.3841392,28.89625 16.2801392,30.60725 16.3841392,32.98225 C16.5071392,35.82025 14.2991392,38.22925 11.4611392,38.35325 C11.3701392,38.35725 11.2781392,38.35925 11.1881392,38.35925 C7.89713916,38.35925 5.15113916,35.75725 5.00713916,32.43825 C4.82813916,28.31325 8.03713916,24.81225 12.1611392,24.63225 C17.1401392,24.41025 20.7761392,27.82325 20.9991392,32.92025 L21.0001392,35.79825 L23.0001392,34.46525 L23.0001392,32.00025 L23.0001392,31.00025 C22.5861392,23.24725 15.9301392,16.71125 7.00013916,15.15925 L7.00013916,18.00025 L5,18.00025 L5,14.00025 C5,13.71325 5.12313916,13.44025 5.33813916,13.25025 C5.38313916,13.21125 5.43913916,13.19525 5.49013916,13.16525 L5.47913916,13.14625 L9.47913916,10.70225 L10.5211392,12.40925 L8.74813916,13.49325 C15.1351392,14.98725 20.3111392,18.86425 23.0001392,23.91125 L23.0001392,22.00025 C23.0001392,16.26425 20.2281392,11.16425 16.0521392,9.12325 L13.4981392,10.58925 L12.5021392,8.85525 L15.5021392,7.13325 C15.7731392,6.97725 16.1031392,6.95725 16.3931392,7.08025 C19.9411392,8.59525 22.6331392,11.78225 24.0001392,15.80625 C25.3661392,11.78125 28.0591392,8.59525 31.6071392,7.08025 C31.8971392,6.95725 32.2281392,6.97725 32.4981392,7.13325 L35.4981392,8.85525 L34.5021392,10.58925 L31.9481392,9.12325 C27.7721392,11.16325 25.0001392,16.26425 25.0001392,22.00025 L25.0001392,23.93025 C27.6901392,18.86625 32.8651392,14.98725 39.2521392,13.49325 L37.4791392,12.40925 L38.5211392,10.70225 L42.5211392,13.14625 L42.5101392,13.16525 C42.5611392,13.19525 42.6171392,13.21125 42.6621392,13.25025 C42.8771392,13.44025 43.0002783,13.71325 43.0002783,14.00025 L43.0002783,14.00025 Z M41.0001392,24.00025 L43.0001392,24.00025 L43.0001392,21.00025 L41.0001392,21.00025 L41.0001392,24.00025 Z M5.00013916,24.00025 L7.00013916,24.00025 L7.00013916,21.00025 L5.00013916,21.00025 L5.00013916,24.00025 Z" id="AWS-ThinkBox-Krakatoa_48_Squid"></path>
        </g>
    </g>
</svg>