<?xml version="1.0" encoding="UTF-8"?>
<svg width="64px" height="64px" viewBox="0 0 64 64" version="1.1" xmlns="http://www.w3.org/2000/svg" xmlns:xlink="http://www.w3.org/1999/xlink">
    <!-- Generator: Sketch 64 (93537) - https://sketch.com -->
    <title>Icon-Architecture/48/Arch_AWS-Bottlerocket_48</title>
    <desc>Created with Sketch.</desc>
    <defs>
        <linearGradient x1="0%" y1="100%" x2="100%" y2="0%" id="linearGradient-1">
            <stop stop-color="#C8511B" offset="0%"></stop>
            <stop stop-color="#FF9900" offset="100%"></stop>
        </linearGradient>
    </defs>
    <g id="Icon-Architecture/48/Arch_AWS-Bottlerocket_48" stroke="none" stroke-width="1" fill="none" fill-rule="evenodd">
        <g id="Icon-Architecture-BG/48/Compute" fill="url(#linearGradient-1)">
            <rect id="Rectangle" x="0" y="0" width="64" height="64"></rect>
        </g>
        <g id="Icon-Service/48/Bottlerocket" transform="translate(8.000000, 8.000000)" fill="#FFFFFF">
            <path d="M25,27.77125 L25,24.88325 L27,23.88325 L27,26.61625 L25,27.77125 Z M21,23.88325 L23,24.88325 L23,27.77125 L21,26.61625 L21,23.88325 Z M24,21.38325 L25.764,22.26525 L24,23.14725 L22.236,22.26525 L24,21.38325 Z M24.447,19.37125 C24.166,19.23025 23.834,19.23025 23.553,19.37125 L19.553,21.37125 C19.214,21.54125 19,21.88625 19,22.26525 L19,27.19325 C19,27.55025 19.19,27.88025 19.5,28.05925 L23.5,30.36925 C23.654,30.45825 23.827,30.50225 24,30.50225 C24.173,30.50225 24.346,30.45825 24.5,30.36925 L28.5,28.05925 C28.81,27.88025 29,27.55025 29,27.19325 L29,22.26525 C29,21.88625 28.786,21.54125 28.447,21.37125 L24.447,19.37125 Z M23.999,4.06225 L30.72,11.95525 C28.905,11.42625 26.565,10.95325 24,10.95325 C21.478,10.95325 19.099,11.44825 17.25,11.99025 L23.999,4.06225 Z M14,15.26525 C14.149,15.26525 14.3,15.23225 14.44,15.16325 C14.485,15.14125 19.002,12.95325 24,12.95325 C29.185,12.95325 33.5,15.13225 33.543,15.15525 C33.97,15.37325 34.488,15.25825 34.784,14.88525 C35.08,14.51125 35.07,13.98025 34.762,13.61725 L25.426,2.65325 C24.734,1.77225 23.241,1.80225 22.599,2.62325 L13.238,13.61725 C12.932,13.97825 12.92,14.50425 13.211,14.87925 C13.405,15.12925 13.699,15.26525 14,15.26525 L14,15.26525 Z M22,44.26525 L26,44.26525 L26,43.26525 L22,43.26525 L22,44.26525 Z M18,43.26525 L20,43.26525 L20,45.26525 C20,45.81825 20.447,46.26525 21,46.26525 L27,46.26525 C27.553,46.26525 28,45.81825 28,45.26525 L28,43.26525 L30,43.26525 L30,41.26525 L18,41.26525 L18,43.26525 Z M32.928,30.78525 C32.998,29.83225 33,28.82625 33,27.82825 L33,22.20625 L36,26.10525 L36,33.92825 L32.928,30.78525 Z M32.508,33.21625 L36.285,37.08225 C36.477,37.27825 36.736,37.38225 37,37.38225 C37.127,37.38225 37.255,37.35825 37.377,37.30825 C37.754,37.15525 38,36.78925 38,36.38225 L38,25.76525 C38,25.54425 37.927,25.33125 37.793,25.15625 L33,18.92525 L33,16.26525 L31,16.26525 L31,27.82825 C31,33.41125 30.324,34.25325 28,34.25325 C27.447,34.25325 27,34.70125 27,35.25325 L27,40.26525 L29,40.26525 L29,36.18925 C31.012,35.91325 32.011,34.77125 32.508,33.21625 L32.508,33.21625 Z M12,33.92825 L12,26.10525 L15,22.20625 L15,27.82825 C15,28.82625 15.002,29.83225 15.072,30.78525 L12,33.92825 Z M19,36.18925 L19,40.26525 L21,40.26525 L21,35.25325 C21,34.70125 20.553,34.25325 20,34.25325 C17.676,34.25325 17,33.41125 17,27.82825 L17,16.26525 L15,16.26525 L15,18.92525 L10.207,25.15625 C10.073,25.33125 10,25.54425 10,25.76525 L10,36.38225 C10,36.78925 10.246,37.15525 10.623,37.30825 C10.745,37.35825 10.873,37.38225 11,37.38225 C11.264,37.38225 11.523,37.27825 11.715,37.08225 L15.492,33.21625 C15.989,34.77125 16.988,35.91325 19,36.18925 L19,36.18925 Z" id="Bottlerocket_Icon_48_Squid"></path>
        </g>
    </g>
</svg>