<?xml version="1.0" encoding="UTF-8"?>
<svg width="64px" height="64px" viewBox="0 0 64 64" version="1.1" xmlns="http://www.w3.org/2000/svg" xmlns:xlink="http://www.w3.org/1999/xlink">
    <title>Icon-Architecture/48/Arch_AWS-ThinkBox-XMesh_48</title>
    <defs>
        <linearGradient x1="0%" y1="100%" x2="100%" y2="0%" id="linearGradient-1">
            <stop stop-color="#C8511B" offset="0%"></stop>
            <stop stop-color="#FF9900" offset="100%"></stop>
        </linearGradient>
    </defs>
    <g id="Icon-Architecture/48/Arch_AWS-ThinkBox-XMesh_48" stroke="none" stroke-width="1" fill="none" fill-rule="evenodd">
        <g id="Rectangle" fill="url(#linearGradient-1)">
            <rect x="0" y="0" width="64" height="64"></rect>
        </g>
        <g id="Icon-Service/48/AWS-ThinkBox-XMesh_48" transform="translate(8.000000, 8.000000)" fill="#FFFFFF">
            <path d="M34.195,24.688251 L30.993,26.547251 L37.576,31.183251 C37.841,31.370251 38,31.675251 38,32.000251 L38,36.234251 L41,34.434251 L41,29.517251 L34.195,24.688251 Z M24.549,28.616251 L36,36.146251 L36,32.519251 L28.565,27.284251 C28.287,27.088251 28.128,26.763251 28.142,26.422251 C28.157,26.082251 28.344,25.772251 28.639,25.602251 L40.033,18.986251 L36.927,17.123251 L11.526,32.850251 C11.365,32.950251 11.182,33.000251 11,33.000251 C10.822,33.000251 10.643,32.953251 10.485,32.857251 L7,30.766251 L7,34.434251 L10.975,36.819251 L23.45,28.616251 C23.784,28.396251 24.216,28.396251 24.549,28.616251 L24.549,28.616251 Z M14.074,22.532251 L17.004,20.618251 L10.5,16.866251 C10.19,16.688251 10,16.357251 10,16.000251 L10,11.767251 L7,13.566251 L7,18.424251 L14.074,22.532251 Z M23.498,18.413251 L12,11.737251 L12,15.422251 L19.413,19.699251 C19.714,19.873251 19.903,20.190251 19.913,20.537251 C19.922,20.885251 19.751,21.212251 19.46,21.402251 L7.883,28.964251 L10.992,30.829251 L36.431,15.078251 C36.661,14.936251 36.937,14.893251 37.2,14.958251 C37.391,15.005251 37.561,15.107251 37.693,15.250251 L41,17.234251 L41,13.566251 L36.991,11.161251 L24.502,18.413251 C24.191,18.594251 23.808,18.594251 23.498,18.413251 L23.498,18.413251 Z M42.502,19.865251 L36.096,23.584251 L42.579,28.185251 C42.842,28.372251 43,28.676251 43,29.000251 L43,35.000251 C43,35.351251 42.815,35.677251 42.514,35.857251 L37.514,38.857251 C37.355,38.953251 37.177,39.000251 37,39.000251 C36.808,39.000251 36.617,38.945251 36.45,38.835251 L24,30.648251 L11.549,38.835251 C11.227,39.046251 10.816,39.055251 10.485,38.857251 L5.485,35.857251 C5.184,35.677251 5,35.351251 5,35.000251 L5,29.000251 C5,28.662251 5.17,28.348251 5.453,28.163251 L12.199,23.756251 L5.498,19.865251 C5.189,19.686251 5,19.356251 5,19.000251 L5,13.000251 C5,12.649251 5.184,12.323251 5.485,12.143251 L10.485,9.14325098 C10.798,8.95425098 11.187,8.95225098 11.502,9.13525098 L24,16.392251 L36.498,9.13525098 C36.811,8.95325098 37.201,8.95425098 37.514,9.14325098 L42.514,12.143251 C42.815,12.323251 43,12.649251 43,13.000251 L43,19.000251 C43,19.356251 42.81,19.686251 42.502,19.865251 L42.502,19.865251 Z M20,6.56525098 L23.982,4.16625098 L27.053,6.00125098 L23.485,8.14325098 C23.184,8.32325098 23,8.64925098 23,9.00025098 L23,13.000251 L25,13.000251 L25,9.56625098 L28,7.76625098 L28,10.000251 L30,10.000251 L30,6.00025098 C30,5.64825098 29.815,5.32225098 29.512,5.14225098 L24.493,2.14225098 C24.177,1.95225098 23.78,1.95225098 23.465,2.14425098 L18.484,5.14425098 C18.183,5.32425098 18,5.64925098 18,6.00025098 L18,10.000251 L20,10.000251 L20,6.56525098 Z M28,38.000251 L30,38.000251 L30,42.000251 C30,42.351251 29.816,42.676251 29.515,42.856251 L24.535,45.856251 C24.377,45.952251 24.198,46.000251 24.019,46.000251 C23.841,46.000251 23.664,45.953251 23.507,45.858251 L18.487,42.858251 C18.184,42.678251 18,42.352251 18,42.000251 L18,38.000251 L20,38.000251 L20,40.234251 L23,38.434251 L23,35.000251 L25,35.000251 L25,39.000251 C25,39.351251 24.815,39.677251 24.514,39.857251 L20.946,41.999251 L24.017,43.834251 L28,41.435251 L28,38.000251 Z" id="AWS-ThinkBox-Mesh_48_Squid"></path>
        </g>
    </g>
</svg>