<?xml version="1.0" encoding="UTF-8"?>
<svg width="64px" height="64px" viewBox="0 0 64 64" version="1.1" xmlns="http://www.w3.org/2000/svg" xmlns:xlink="http://www.w3.org/1999/xlink">
    <!-- Generator: Sketch 64 (93537) - https://sketch.com -->
    <title>Icon-Architecture/48/Arch_AWS-Serverless-Application-Repository_48</title>
    <desc>Created with Sketch.</desc>
    <defs>
        <linearGradient x1="0%" y1="100%" x2="100%" y2="0%" id="linearGradient-1">
            <stop stop-color="#C8511B" offset="0%"></stop>
            <stop stop-color="#FF9900" offset="100%"></stop>
        </linearGradient>
    </defs>
    <g id="Icon-Architecture/48/Arch_AWS-Serverless-Application-Repository_48" stroke="none" stroke-width="1" fill="none" fill-rule="evenodd">
        <g id="Icon-Architecture-BG/48/Compute" fill="url(#linearGradient-1)">
            <rect id="Rectangle" x="0" y="0" width="64" height="64"></rect>
        </g>
        <path d="M45.4378596,45.0083007 L19.4028856,45.0083007 C16.2588805,45.0083007 12.8989133,42.1422453 12.1626335,39.0332027 L20.5972057,39.0332027 C21.0080358,39.0332027 21.3766779,38.7852361 21.529358,38.4078091 C21.6820382,38.0293862 21.5876176,37.5971874 21.2902931,37.3163578 C20.9507808,36.9956942 20.7639485,36.5674789 20.7639485,36.1103839 C20.7639485,35.5855711 21.0060268,35.1005923 21.4279061,34.7809246 C21.8578212,34.4552817 22.3982285,34.3596802 22.9426536,34.5070659 C23.4559401,34.645489 23.8888686,35.0567749 24.0465711,35.5546998 C24.2524884,36.2049896 24.0897635,36.8632462 23.6096247,37.3163578 C23.3123002,37.5971874 23.2178796,38.0293862 23.3695553,38.4078091 C23.5232399,38.7852361 23.891882,39.0332027 24.3027121,39.0332027 L32.7272395,39.0332027 C32.647886,39.3329534 32.6067026,39.6446544 32.6067026,39.9643221 C32.6067026,41.1155243 33.1360606,42.1771001 34.0611816,42.8771824 C34.9863026,43.5772647 36.1776094,43.7993392 37.3237147,43.4896299 C38.4979454,43.1719539 39.4532006,42.2627431 39.8148114,41.1165202 C40.0357958,40.4194254 40.0478495,39.6994261 39.871062,39.0332027 L51.9066752,39.0332027 C51.3230755,43.3890491 47.8445804,45.0083007 45.4378596,45.0083007 L45.4378596,45.0083007 Z M17.0142453,31.5035833 C17.5074422,31.3840814 17.832892,30.9180237 17.771619,30.4181072 C17.7254132,30.0396843 17.7033148,29.6612614 17.7033148,29.2619257 C17.7033148,25.8093149 20.1994338,22.0878247 23.3866314,20.7912285 C25.2850881,20.0204408 27.2377865,19.8192792 29.0850151,20.1558764 L29.0850151,28.8974448 C29.0850151,29.3047473 29.3351292,29.6722158 29.717834,29.8225891 C30.0985298,29.9729624 30.5354762,29.8803484 30.8177335,29.5835852 C31.5047941,28.8635859 32.7543603,28.9362829 33.3630719,29.7060747 C33.6925395,30.1223398 33.7990138,30.6451609 33.6654187,31.1789363 C33.536846,31.6937906 33.1280248,32.1389354 32.6227742,32.3112174 C31.9608255,32.5382711 31.2868231,32.3789352 30.8177335,31.889973 C30.5344717,31.5932098 30.0975253,31.4995999 29.717834,31.6499732 C29.3351292,31.8013424 29.0850151,32.1678151 29.0850151,32.5751176 L29.0850151,37.0415033 L26.0203634,37.0415033 C26.1971509,36.3742841 26.1840928,35.6542847 25.9631084,34.9581858 C25.6004931,33.8119629 24.6462424,32.9027521 23.4730162,32.5850761 C22.3228929,32.2753668 21.1356041,32.4974413 20.2084741,33.1985195 C19.2843576,33.8976059 18.7549995,34.9591817 18.7549995,36.1103839 C18.7549995,36.4300516 18.796183,36.7417526 18.8755365,37.0415033 L12.0310474,37.0415033 C12.3143092,33.2313825 15.2373299,31.9387696 17.0142453,31.5035833 L17.0142453,31.5035833 Z M31.093964,20.7533862 C32.2450918,21.2343816 33.3259063,21.9454182 34.2902018,22.8755418 C35.4272669,23.9679889 36.3594192,25.4358713 36.9862113,27.1218448 C37.1127751,27.4624254 37.4171309,27.7074044 37.7787417,27.7621761 C38.1373391,27.8199354 38.5039722,27.670558 38.7269656,27.3817616 C39.4029769,26.504418 40.4034335,26.0025098 41.4731988,26.0025098 C43.057255,26.0025098 44.9778102,27.1696456 45.1736828,30.4619246 C45.2008036,30.9140403 45.5312757,31.2904715 45.9782668,31.3791021 C49.6958269,32.1200143 51.7057803,34.023083 51.9629258,37.0415033 L38.1544151,37.0415033 C37.7435851,37.0415033 37.3749429,37.2894699 37.2212583,37.6668969 C37.0695827,38.0453198 37.1640033,38.4775185 37.4613277,38.7583482 C37.9404621,39.2114598 38.1041914,39.8697164 37.8982741,40.5210021 C37.7415761,41.017931 37.3076431,41.429217 36.7943567,41.5676401 C36.2479226,41.7150258 35.7085198,41.6194242 35.2796092,41.2937814 C34.8577299,40.9741137 34.6156515,40.4891349 34.6156515,39.9643221 C34.6156515,39.5072271 34.8024838,39.0790117 35.1419962,38.7583482 C35.4393206,38.4775185 35.5337412,38.0453198 35.3810611,37.6668969 C35.228381,37.2894699 34.8597388,37.0415033 34.4489088,37.0415033 L31.093964,37.0415033 L31.093964,34.2839956 C31.7930783,34.4682278 32.5484431,34.4433315 33.2776915,34.1943691 C34.4268103,33.8020044 35.3228016,32.8300551 35.6161081,31.65794 C35.897361,30.5336258 35.6532737,29.3754526 34.9461236,28.4791879 C34.0420966,27.3339608 32.4921925,26.8210982 31.093964,27.1915543 L31.093964,20.7533862 Z M47.1062917,29.591552 C46.5879828,25.7435889 43.9673089,24.0108104 41.4731988,24.0108104 C40.3100174,24.0108104 39.2010775,24.3792748 38.2779655,25.0524692 C37.5929139,23.6602714 36.7129942,22.430397 35.6904392,21.4464975 C32.1245548,18.0098203 27.2418044,17.0767092 22.6242352,18.9479107 C18.6726326,20.5562079 15.6943658,24.9897307 15.6943658,29.2619257 C15.6943658,29.4471538 15.6983837,29.6283984 15.705415,29.8076513 C12.1154232,30.9947041 10,33.8747014 10,37.6549467 C10,37.7485566 10.0020089,37.8391789 10.0050224,37.9337846 C10.0020089,37.9676435 10,38.0024983 10,38.037353 C10,38.1020832 10.0060268,38.1648218 10.0170761,38.2255686 C10.0170761,38.2275603 10.0180805,38.229552 10.0180805,38.2315437 C10.2681947,42.6570996 14.9169026,47 19.4028856,47 L45.4378596,47 C48.7486074,47 54,44.4814962 54,37.7226645 C54,33.5749506 51.561136,30.7098911 47.1062917,29.591552 L47.1062917,29.591552 Z" id="AWS-Serverless-Application-Repository_Icon_48_Squid" fill="#FFFFFF"></path>
    </g>
</svg>