<?xml version="1.0" encoding="UTF-8"?>
<svg width="64px" height="64px" viewBox="0 0 64 64" version="1.1" xmlns="http://www.w3.org/2000/svg" xmlns:xlink="http://www.w3.org/1999/xlink">
    <!-- Generator: Sketch 64 (93537) - https://sketch.com -->
    <title>Icon-Architecture/48/Arch_Amazon-EC2-Auto-Scaling_48</title>
    <desc>Created with Sketch.</desc>
    <defs>
        <linearGradient x1="0%" y1="100%" x2="100%" y2="0%" id="linearGradient-1">
            <stop stop-color="#C8511B" offset="0%"></stop>
            <stop stop-color="#FF9900" offset="100%"></stop>
        </linearGradient>
    </defs>
    <g id="Icon-Architecture/48/Arch_Amazon-EC2-Auto-Scaling_48" stroke="none" stroke-width="1" fill="none" fill-rule="evenodd">
        <g id="Icon-Architecture-BG/48/Compute" fill="url(#linearGradient-1)">
            <rect id="Rectangle" x="0" y="0" width="64" height="64"></rect>
        </g>
        <path d="M54,31.4308059 L46.6003289,31.4308059 L49.9101791,28.1201749 L48.4889437,26.6986042 L42.7527412,32.43616 L48.4889437,38.1737158 L49.9101791,36.7521451 L46.6003289,33.4415141 L54,33.4415141 L54,31.4308059 Z M14.0898209,28.1201749 L17.3996711,31.4308059 L10,31.4308059 L10,33.4415141 L17.3996711,33.4415141 L14.0898209,36.7521451 L15.5110563,38.1737158 L21.2472588,32.43616 L15.5110563,26.6986042 L14.0898209,28.1201749 Z M25.8567251,39.4736387 L37.9181287,39.4736387 L37.9181287,27.4093895 L25.8567251,27.4093895 L25.8567251,39.4736387 Z M39.9283626,26.4040354 L41.9385965,26.4040354 L41.9385965,28.4147436 L39.9283626,28.4147436 L39.9283626,30.4254518 L41.9385965,30.4254518 L41.9385965,32.43616 L39.9283626,32.43616 L39.9283626,34.4468682 L41.9385965,34.4468682 L41.9385965,36.4575764 L39.9283626,36.4575764 L39.9283626,38.4682846 L41.9385965,38.4682846 L41.9385965,40.4789928 L39.9283626,40.4789928 L39.9283626,39.7842931 C39.9283626,40.7222885 39.1654788,41.4843469 38.2297149,41.4843469 L38.9232456,41.4843469 L38.9232456,43.4950551 L36.9130117,43.4950551 L36.9130117,41.4843469 L34.9027778,41.4843469 L34.9027778,43.4950551 L32.8925439,43.4950551 L32.8925439,41.4843469 L30.8823099,41.4843469 L30.8823099,43.4950551 L28.872076,43.4950551 L28.872076,41.4843469 L26.8618421,41.4843469 L26.8618421,43.4950551 L24.8516082,43.4950551 L24.8516082,41.4843469 L25.5451389,41.4843469 C24.609375,41.4843469 23.8464912,40.7222885 23.8464912,39.7842931 L23.8464912,40.4789928 L21.8362573,40.4789928 L21.8362573,38.4682846 L23.8464912,38.4682846 L23.8464912,36.4575764 L21.8362573,36.4575764 L21.8362573,34.4468682 L23.8464912,34.4468682 L23.8464912,32.43616 L21.8362573,32.43616 L21.8362573,30.4254518 L23.8464912,30.4254518 L23.8464912,28.4147436 L21.8362573,28.4147436 L21.8362573,26.4040354 L23.8464912,26.4040354 L23.8464912,27.0987351 C23.8464912,26.1607398 24.609375,25.3986813 25.5451389,25.3986813 L24.8516082,25.3986813 L24.8516082,23.3879732 L26.8618421,23.3879732 L26.8618421,25.3986813 L28.872076,25.3986813 L28.872076,23.3879732 L30.8823099,23.3879732 L30.8823099,25.3986813 L32.8925439,25.3986813 L32.8925439,23.3879732 L34.9027778,23.3879732 L34.9027778,25.3986813 L36.9130117,25.3986813 L36.9130117,23.3879732 L38.9232456,23.3879732 L38.9232456,25.3986813 L38.2297149,25.3986813 C39.1654788,25.3986813 39.9283626,26.1607398 39.9283626,27.0987351 L39.9283626,26.4040354 Z M32.8925439,50.1515045 L32.8925439,44.5004092 L30.8823099,44.5004092 L30.8823099,50.1515045 L27.281981,46.5503262 L25.8607456,47.9718968 L31.8874269,54 L37.9141082,47.9718968 L36.4928728,46.5503262 L32.8925439,50.1515045 Z M27.204587,17.3870146 L25.9381396,15.8246943 L31.8874269,11 L37.8367142,15.8246943 L36.5702668,17.3870146 L32.8925439,14.404129 L32.8925439,21.377265 L30.8823099,21.377265 L30.8823099,14.404129 L27.204587,17.3870146 Z" id="Amazon-EC2-Auto-Scaling_Icon_48_Squid" fill="#FFFFFF"></path>
    </g>
</svg>