<?xml version="1.0" encoding="UTF-8"?>
<svg width="64px" height="64px" viewBox="0 0 64 64" version="1.1" xmlns="http://www.w3.org/2000/svg" xmlns:xlink="http://www.w3.org/1999/xlink">
    <!-- Generator: Sketch 64 (93537) - https://sketch.com -->
    <title>Icon-Architecture/48/Arch_AWS-Nitro-Enclaves_48</title>
    <desc>Created with Sketch.</desc>
    <defs>
        <linearGradient x1="0%" y1="100%" x2="100%" y2="0%" id="linearGradient-1">
            <stop stop-color="#C8511B" offset="0%"></stop>
            <stop stop-color="#FF9900" offset="100%"></stop>
        </linearGradient>
    </defs>
    <g id="Icon-Architecture/48/Arch_AWS-Nitro-Enclaves_48" stroke="none" stroke-width="1" fill="none" fill-rule="evenodd">
        <g id="Icon-Architecture-BG/48/Compute" fill="url(#linearGradient-1)">
            <rect id="Rectangle" x="0" y="0" width="64" height="64"></rect>
        </g>
        <path d="M26.943,37 L31,37 C31.303,37 31.589,37.138 31.78,37.375 C31.969,37.611 32.042,37.921 31.976,38.217 L31.042,42.421 L37.056,34 L33,34 C32.696,34 32.41,33.862 32.219,33.625 C32.03,33.389 31.958,33.079 32.023,32.783 L32.958,28.579 L26.943,37 Z M29,48 C28.862,48 28.724,47.972 28.592,47.913 C28.158,47.72 27.921,47.247 28.023,46.783 L29.753,39 L25,39 C24.625,39 24.282,38.791 24.11,38.458 C23.939,38.125 23.968,37.724 24.186,37.419 L34.186,23.419 C34.463,23.03 34.974,22.893 35.407,23.087 C35.841,23.28 36.079,23.753 35.976,24.217 L34.247,32 L39,32 C39.375,32 39.717,32.209 39.889,32.542 C40.06,32.875 40.031,33.276 39.813,33.581 L29.813,47.581 C29.621,47.851 29.314,48 29,48 L29,48 Z M19,52 L45,52 L45,21 C45,20.448 45.447,20 46,20 L49,20 L49,12 L44,12 L44,16 C44,16.552 43.552,17 43,17 L36,17 C35.447,17 35,16.552 35,16 L35,12 L29,12 L29,16 C29,16.552 28.552,17 28,17 L21,17 C20.447,17 20,16.552 20,16 L20,12 L15,12 L15,20 L18,20 C18.552,20 19,20.448 19,21 L19,52 Z M46,54 L18,54 C17.447,54 17,53.552 17,53 L17,22 L14,22 C13.447,22 13,21.552 13,21 L13,11 C13,10.448 13.447,10 14,10 L21,10 C21.552,10 22,10.448 22,11 L22,15 L27,15 L27,11 C27,10.448 27.447,10 28,10 L36,10 C36.552,10 37,10.448 37,11 L37,15 L42,15 L42,11 C42,10.448 42.447,10 43,10 L50,10 C50.552,10 51,10.448 51,11 L51,21 C51,21.552 50.552,22 50,22 L47,22 L47,53 C47,53.552 46.552,54 46,54 L46,54 Z" id="AWS-Nitro-Enclaves_Icon_48_Squid" fill="#FFFFFF"></path>
    </g>
</svg>