<?xml version="1.0" encoding="UTF-8"?>
<svg width="64px" height="64px" viewBox="0 0 64 64" version="1.1" xmlns="http://www.w3.org/2000/svg" xmlns:xlink="http://www.w3.org/1999/xlink">
    <!-- Generator: Sketch 64 (93537) - https://sketch.com -->
    <title>Icon-Architecture/48/Arch_Amazon-Elastic-Container-Service_48</title>
    <desc>Created with Sketch.</desc>
    <defs>
        <linearGradient x1="0%" y1="100%" x2="100%" y2="0%" id="linearGradient-1">
            <stop stop-color="#C8511B" offset="0%"></stop>
            <stop stop-color="#FF9900" offset="100%"></stop>
        </linearGradient>
    </defs>
    <g id="Icon-Architecture/48/Arch_Amazon-Elastic-Container-Service_48" stroke="none" stroke-width="1" fill="none" fill-rule="evenodd">
        <g id="Icon-Architecture-BG/48/Compute" fill="url(#linearGradient-1)">
            <rect id="Rectangle" x="0" y="0" width="64" height="64"></rect>
        </g>
        <g id="Icon-Service/48/Amazon-Elastic-Container-Service" transform="translate(8.000000, 8.000000)" fill="#FFFFFF">
            <path d="M42,28.3822466 L36,25.3822885 L36,17.0004058 C36,16.6374109 35.803,16.3024156 35.485,16.1264181 L27,11.412484 L27,4.7495773 L42,13.5724538 L42,28.3822466 Z M43.507,12.1384739 L26.507,2.13861384 C26.199,1.95761637 25.815,1.95461641 25.504,2.13261392 C25.192,2.31061143 25,2.6416068 25,3.00060177 L25,12.0004758 C25,12.3634707 25.197,12.6984661 25.515,12.8744636 L34,17.5883976 L34,26.0002799 C34,26.3792746 34.214,26.7252697 34.553,26.8952674 L42.553,30.8952114 C42.694,30.9652104 42.847,31.0002099 43,31.0002099 C43.183,31.0002099 43.365,30.9502106 43.525,30.851212 C43.82,30.6682146 44,30.3472191 44,30.0002239 L44,13.0004618 C44,12.6464668 43.812,12.3184714 43.507,12.1384739 L43.507,12.1384739 Z M24,43.8280304 L7,33.4391758 L7,13.5544541 L21,4.80457653 L21,11.4464836 L13.47,16.1524177 C13.178,16.3354152 13,16.6554107 13,17.0004058 L13,30.0002239 C13,30.351219 13.185,30.6772144 13.485,30.8572119 L23.485,36.857128 C23.789,37.0401254 24.167,37.0481253 24.479,36.8781277 L34.988,31.1462079 L40.035,34.0291675 L24,43.8280304 Z M42.496,33.1321801 L35.496,29.1322361 C35.194,28.9592385 34.825,28.9562385 34.521,29.1222362 L24.023,34.8481561 L15,29.4342318 L15,17.5543981 L22.53,12.848464 C22.822,12.6654665 23,12.345471 23,12.0004758 L23,3.00060177 C23,2.63660687 22.803,2.30261154 22.484,2.12561402 C22.168,1.9486165 21.778,1.95961634 21.47,2.15261364 L5.47,12.1524737 C5.178,12.3354711 5,12.6554667 5,13.0004618 L5,34.0001679 C5,34.3481631 5.182,34.6711585 5.479,34.854156 L23.479,45.854002 C23.639,45.9510007 23.819,46 24,46 C24.181,46 24.361,45.9510007 24.521,45.854002 L42.521,34.854156 C42.823,34.6691586 43.005,34.3391632 43.0001004,33.9851681 C42.995,33.6321731 42.803,33.3071776 42.496,33.1321801 L42.496,33.1321801 Z" id="Amazon-Elastic-Container-Service_Icon_48_Squid"></path>
        </g>
    </g>
</svg>