<?xml version="1.0" encoding="UTF-8"?>
<svg width="64px" height="64px" viewBox="0 0 64 64" version="1.1" xmlns="http://www.w3.org/2000/svg" xmlns:xlink="http://www.w3.org/1999/xlink">
    <!-- Generator: Sketch 64 (93537) - https://sketch.com -->
    <title>Icon-Architecture/48/Arch_AWS-Local-Zones_48</title>
    <desc>Created with Sketch.</desc>
    <defs>
        <linearGradient x1="0%" y1="100%" x2="100%" y2="0%" id="linearGradient-1">
            <stop stop-color="#C8511B" offset="0%"></stop>
            <stop stop-color="#FF9900" offset="100%"></stop>
        </linearGradient>
    </defs>
    <g id="Icon-Architecture/48/Arch_AWS-Local-Zones_48" stroke="none" stroke-width="1" fill="none" fill-rule="evenodd">
        <g id="Icon-Architecture-BG/48/Compute" fill="url(#linearGradient-1)">
            <rect id="Rectangle" x="0" y="0" width="64" height="64"></rect>
        </g>
        <path d="M33.9988981,26.98755 C33.9988981,26.1601823 33.3257925,25.4868831 32.4986629,25.4868831 C31.6715332,25.4868831 30.9984277,26.1601823 30.9984277,26.98755 C30.9984277,27.8149177 31.6715332,28.488217 32.4986629,28.488217 C33.3257925,28.488217 33.9988981,27.8149177 33.9988981,26.98755 L33.9988981,26.98755 Z M34.0018986,23.8391507 L45.2566631,11.3125834 L46.7448964,12.6491774 L35.4831308,25.1837483 C35.8041811,25.7129835 35.9992117,26.3252557 35.9992117,26.98755 C35.9992117,28.9184082 34.4289655,30.4891063 32.4986629,30.4891063 C30.5683602,30.4891063 28.998114,28.9184082 28.998114,26.98755 C28.998114,25.0566919 30.5683602,23.4859938 32.4986629,23.4859938 C33.0387475,23.4859938 33.5448269,23.6190529 34.0018986,23.8391507 L34.0018986,23.8391507 Z M37.5094485,16.072699 C35.9292007,15.3523788 34.2489373,14.9822143 32.4986629,14.9822143 C25.8776248,14.9822143 20.4967812,20.3646065 20.4967812,26.98755 C20.4967812,31.0593597 22.5371011,34.8210316 25.9376342,37.0420187 L27.0378067,35.3612717 C24.1973614,33.5104491 22.4970948,30.3790574 22.4970948,26.98755 C22.4970948,21.4751 26.9877989,16.9831036 32.4986629,16.9831036 C33.7788636,16.9831036 35.0090565,17.2232103 36.1692384,17.6834149 L37.5094485,16.072699 Z M41.3700538,22.3755002 C42.1101698,23.7961316 42.5002309,25.3868386 42.5002309,26.98755 C42.5002309,30.3790574 40.7999644,33.5104491 37.959519,35.3612717 L39.0596915,37.0420187 C42.4602247,34.8110271 44.5005446,31.0493553 44.5005446,26.98755 C44.5005446,24.8666074 43.9304552,22.7656736 42.8602874,20.9348599 L41.3700538,22.3755002 Z M29.3391675,32.0728101 C27.3098494,31.1914184 25.9976436,29.1915296 25.9976436,26.9775456 C25.9976436,26.0861494 26.2036759,25.2337706 26.6097396,24.4444197 L24.8324609,23.5280124 C24.2863753,24.5874833 23.99733,25.7800133 23.99733,26.9775456 C23.99733,29.9888839 25.7806096,32.7090929 28.5420425,33.9076256 L29.3391675,32.0728101 Z M38.7296398,25.3168075 C38.909668,25.8470431 38.9996821,26.4072921 38.9996821,26.9775456 C38.9996821,29.1485104 37.729483,31.1193864 35.7591741,32.0197866 C35.7291694,32.0397955 35.6891631,32.0598044 35.6591584,32.0698088 L35.6591584,32.0798133 L36.4592838,33.9106269 C39.2197166,32.7100934 40.9999957,29.9888839 40.9999957,26.9775456 C40.9999957,25.8270342 40.7299534,24.6765229 40.229875,23.6460649 L38.7296398,25.3168075 Z M48.9812471,26.7574478 C48.5011718,36.9319698 33.8788793,53.9395287 33.258782,54.6498444 C33.0687523,54.8699422 32.7887083,55 32.4986629,55 C32.2086174,55 31.9285735,54.8699422 31.7385437,54.6498444 C31.1184465,53.9395287 16.4961539,36.9319698 16.0160787,26.7574478 C15.9920749,26.2632281 15.9970757,25.7740107 16.0170788,25.2857937 C16.0240799,25.0656959 16.0410826,24.8485994 16.0580853,24.6315029 C16.0750879,24.4094042 16.0960912,24.1883059 16.1230955,23.9672076 C17.0162355,16.1407292 23.2792174,10.4311916 31.9485766,10.0100044 L32.9987413,10 C36.0092133,10.1500667 38.7096366,10.9004002 41.0700067,12.2309916 L39.6887902,13.7616719 C37.6884765,12.711205 35.4291223,12.1209426 32.9487334,12.0008893 L31.9985845,12.0008893 C26.7407601,12.2620053 22.4760915,14.7371054 20.0887172,18.5087817 L20.0967185,18.5137839 C19.7226598,19.1110494 19.3956085,19.7343264 19.1195653,20.3796132 C19.1195653,20.3806136 19.1185651,20.3826145 19.1175649,20.3836149 C18.7315044,21.2870165 18.4494602,22.235438 18.2624309,23.2128724 C18.2464284,23.2979102 18.2254251,23.3819475 18.2114229,23.4679858 C18.1714166,23.698088 18.1434122,23.9311916 18.1154078,24.1642952 C18.0894037,24.3843931 18.0654,24.6074922 18.0503976,24.8325923 C18.0363954,25.0116719 18.0223932,25.1927523 18.0163923,25.3738328 C18.0013899,25.8000222 17.995389,26.229213 18.0163923,26.6674077 C18.0283942,26.924522 18.0513978,27.1866385 18.0834028,27.4547577 C18.148413,27.9899956 18.2534295,28.5452423 18.3924513,29.1164962 C18.7405058,30.5461316 19.3065946,32.0778124 20.0187062,33.6515118 C20.5887956,34.9100711 21.2528997,36.1956425 21.9740128,37.4752112 C22.1530409,37.7963539 22.3380699,38.1164962 22.524099,38.4346376 C22.8971575,39.0729213 23.283218,39.7082036 23.6772798,40.3364829 C23.8733106,40.6506225 24.0713416,40.9627612 24.2703728,41.2728991 C25.0694981,42.5134504 25.8886265,43.7169853 26.6917524,44.8544909 C26.892784,45.1396176 27.0928153,45.4197421 27.2908464,45.6948644 C27.6869085,46.2461094 28.0769696,46.7793464 28.4560291,47.2885727 C30.1622966,49.5835927 31.6485296,51.4214095 32.4986629,52.4488662 C33.3487962,51.4214095 34.8350292,49.5835927 36.5412967,47.2885727 C36.9203561,46.7793464 37.3104173,46.2461094 37.7064794,45.6948644 C37.9045104,45.4197421 38.1045418,45.1396176 38.3055733,44.8544909 C39.7107936,42.8646065 41.1650216,40.6686305 42.4732267,38.4346376 C42.6592559,38.1164962 42.8442849,37.7963539 43.023313,37.4752112 C43.744426,36.1956425 44.4085301,34.9100711 44.9786195,33.6515118 C45.6907312,32.0778124 46.2568199,30.5461316 46.6048745,29.1164962 C46.7438963,28.5452423 46.8489127,27.9899956 46.9139229,27.4547577 C46.945928,27.1866385 46.9689316,26.924522 46.9809334,26.6674077 C47.1209554,23.716096 46.4008425,20.9048466 44.9006073,18.5137839 L44.9026076,18.511783 C44.8956065,18.4997777 44.8886054,18.4857715 44.8806041,18.4737661 L46.2808237,16.9130725 C47.9530859,19.3301467 48.917237,22.2494442 48.9932489,25.4808804 C49.0052508,25.9040685 49.0012502,26.3292574 48.9812471,26.7574478 L48.9812471,26.7574478 Z" id="AWS-Local-Zones_Icon_48_Squid" fill="#FFFFFF"></path>
    </g>
</svg>