<?xml version="1.0" encoding="UTF-8"?>
<svg width="64px" height="64px" viewBox="0 0 64 64" version="1.1" xmlns="http://www.w3.org/2000/svg" xmlns:xlink="http://www.w3.org/1999/xlink">
    <!-- Generator: Sketch 64 (93537) - https://sketch.com -->
    <title>Icon-Architecture/48/Arch_AWS-Elastic-Beanstalk_48</title>
    <desc>Created with Sketch.</desc>
    <defs>
        <linearGradient x1="0%" y1="100%" x2="100%" y2="0%" id="linearGradient-1">
            <stop stop-color="#C8511B" offset="0%"></stop>
            <stop stop-color="#FF9900" offset="100%"></stop>
        </linearGradient>
    </defs>
    <g id="Icon-Architecture/48/Arch_AWS-Elastic-Beanstalk_48" stroke="none" stroke-width="1" fill="none" fill-rule="evenodd">
        <g id="Icon-Architecture-BG/48/Compute" fill="url(#linearGradient-1)">
            <rect id="Rectangle" x="0" y="0" width="64" height="64"></rect>
        </g>
        <path d="M38.9916766,38.005282 C38.9916766,36.9027302 38.0957432,36.0060947 36.9940547,36.0060947 C35.8923662,36.0060947 34.9964328,36.9027302 34.9964328,38.005282 C34.9964328,39.1078339 35.8923662,40.0044694 36.9940547,40.0044694 C38.0957432,40.0044694 38.9916766,39.1078339 38.9916766,38.005282 M31.0011891,29.0089388 C32.1028775,29.0089388 32.9988109,28.1123033 32.9988109,27.0097515 C32.9988109,25.9071996 32.1028775,25.0105641 31.0011891,25.0105641 C29.8995006,25.0105641 29.0035672,25.9071996 29.0035672,27.0097515 C29.0035672,28.1123033 29.8995006,29.0089388 31.0011891,29.0089388 M24.0095125,38.005282 C25.111201,38.005282 26.0071344,37.1086465 26.0071344,36.0060947 C26.0071344,34.9035428 25.111201,34.0069073 24.0095125,34.0069073 C22.907824,34.0069073 22.0118906,34.9035428 22.0118906,36.0060947 C22.0118906,37.1086465 22.907824,38.005282 24.0095125,38.005282 M40.9892985,38.005282 C40.9892985,39.8625271 39.7118193,41.4148961 37.9928656,41.8617145 L37.9928656,46.0020316 C37.9928656,46.5538073 37.5463971,47.0016252 36.9940547,47.0016252 L32,47.0016252 L32,51 L30.0023781,51 L30.0023781,43.0032505 L24.0095125,43.0032505 C23.45717,43.0032505 23.0107015,42.5554325 23.0107015,42.0036568 L23.0107015,39.8625271 C21.2917479,39.4157087 20.0142687,37.8633397 20.0142687,36.0060947 C20.0142687,33.800991 21.8061356,32.0077199 24.0095125,32.0077199 C26.2128894,32.0077199 28.0047562,33.800991 28.0047562,36.0060947 C28.0047562,37.8633397 26.7272771,39.4157087 25.0083234,39.8625271 L25.0083234,41.0040631 L30.0023781,41.0040631 L30.0023781,30.8661839 C28.2834245,30.4193655 27.0059453,28.8669965 27.0059453,27.0097515 C27.0059453,24.8046478 28.7978121,23.0113767 31.0011891,23.0113767 C33.204566,23.0113767 34.9964328,24.8046478 34.9964328,27.0097515 C34.9964328,28.8669965 33.7189536,30.4193655 32,30.8661839 L32,45.0024379 L35.9952438,45.0024379 L35.9952438,41.8617145 C34.2762901,41.4148961 32.9988109,39.8625271 32.9988109,38.005282 C32.9988109,35.8001784 34.7906778,34.0069073 36.9940547,34.0069073 C39.1974316,34.0069073 40.9892985,35.8001784 40.9892985,38.005282 M53,32.9983172 C53,38.900918 48.6102259,41.0040631 44.5011177,41.0040631 L44.5011177,39.0048757 C46.4557907,39.0048757 51.0023781,38.4201134 51.0023781,32.9983172 C51.0023781,29.7426406 49.0856599,27.7074679 45.3041617,26.9467771 C44.8596908,26.8578132 44.531082,26.4799668 44.505113,26.0261513 C44.3183353,22.8854279 42.5134839,21.7708809 41.0252556,21.7708809 C40.0234483,21.7708809 39.0825684,22.2506859 38.4443282,23.0873458 C38.223591,23.3782276 37.8580262,23.5261674 37.5014507,23.4691906 C37.1408799,23.4152125 36.839239,23.1683129 36.7133888,22.8254523 C36.1111058,21.1891174 35.2481332,19.819674 34.1474435,18.7541072 C32.7900595,17.4366427 29.0674911,14.6087921 23.8117479,16.7669149 C20.7883472,17.9984143 18.4221641,21.5589671 18.4221641,24.8746193 C18.4221641,25.2404706 18.4451367,25.6083211 18.4900832,25.9691744 C18.5520095,26.4709705 18.2293936,26.9417791 17.7389774,27.0627299 C15.9680856,27.5015516 12.9976219,28.8490038 12.9976219,32.9403408 C12.9976219,33.0882807 13.0046136,33.2292234 13.0106064,33.3631689 C13.1893936,36.5358793 15.9840666,39.0048757 19.3740309,39.0048757 L20.0142687,39.0048757 L20.0142687,41.0040631 L19.3740309,41.0040631 C14.9243282,41.0040631 11.253698,37.7064035 11.0179786,33.4971145 C11.0069917,33.2961962 11,33.1222669 11,32.9403408 C11,28.002348 14.3360285,26.0831281 16.4355291,25.3644202 C16.4285375,25.2014865 16.4245422,25.0375531 16.4245422,24.8746193 C16.4245422,20.7373011 19.2761474,16.4560413 23.0566468,14.9156674 C27.456409,13.1104012 32.1258502,14.0070367 35.5377883,17.317691 C36.5266112,18.2753018 37.3506302,19.4278333 37.9998573,20.7552937 C38.8788109,20.1195522 39.9275624,19.7716936 41.0252556,19.7716936 C43.4124138,19.7716936 45.9194293,21.4430142 46.4248276,25.1525064 C50.6727705,26.2380651 53,29.0009421 53,32.9983172" id="AWS-Elastic-Beanstalk_Icon_48_Squid" fill="#FFFFFF"></path>
    </g>
</svg>