<?xml version="1.0" encoding="UTF-8"?>
<svg width="64px" height="64px" viewBox="0 0 64 64" version="1.1" xmlns="http://www.w3.org/2000/svg" xmlns:xlink="http://www.w3.org/1999/xlink">
    <!-- Generator: Sketch 64 (93537) - https://sketch.com -->
    <title>Icon-Architecture/48/Arch_AWS-Fargate_48</title>
    <desc>Created with Sketch.</desc>
    <defs>
        <linearGradient x1="0%" y1="100%" x2="100%" y2="0%" id="linearGradient-1">
            <stop stop-color="#C8511B" offset="0%"></stop>
            <stop stop-color="#FF9900" offset="100%"></stop>
        </linearGradient>
    </defs>
    <g id="Icon-Architecture/48/Arch_AWS-Fargate_48" stroke="none" stroke-width="1" fill="none" fill-rule="evenodd">
        <g id="Icon-Architecture-BG/48/Compute" fill="url(#linearGradient-1)">
            <rect id="Rectangle" x="0" y="0" width="64" height="64"></rect>
        </g>
        <g id="Icon-Service/48/AWS-Fargate" transform="translate(8.000000, 8.000000)" fill="#FFFFFF">
            <path d="M34.4670854,38.382 L34.4670854,34.618 L36.4605025,33.618 L36.4605025,37.382 L34.4670854,38.382 Z M30.4802513,33.618 L32.4736684,34.618 L32.4736684,38.382 L30.4802513,37.382 L30.4802513,33.618 Z M25.4967085,43.382 L25.4967085,39.618 L27.4901256,38.618 L27.4901256,42.382 L25.4967085,43.382 Z M21.5098744,38.618 L23.5032915,39.618 L23.5032915,43.382 L21.5098744,42.382 L21.5098744,38.618 Z M16.5263316,38.382 L16.5263316,34.618 L18.5197487,33.618 L18.5197487,37.382 L16.5263316,38.382 Z M12.5394975,33.618 L14.5329146,34.618 L14.5329146,38.382 L12.5394975,37.382 L12.5394975,33.618 Z M15.5296231,31.118 L17.287817,32 L15.5296231,32.882 L13.7714292,32 L15.5296231,31.118 Z M24.5,36.118 L26.2581939,37 L24.5,37.882 L22.7418061,37 L24.5,36.118 Z M33.4703769,31.118 L35.2285708,32 L33.4703769,32.882 L31.712183,32 L33.4703769,31.118 Z M37.9027398,31.106 L33.9159056,29.106 C33.6358305,28.965 33.3049233,28.965 33.0248482,29.106 L29.038014,31.106 C28.7001298,31.275 28.4868342,31.621 28.4868342,32 L28.4868342,35.882 L24.9455287,34.106 C24.6654536,33.965 24.3345464,33.965 24.0544713,34.106 L20.5131658,35.882 L20.5131658,32 C20.5131658,31.621 20.2998702,31.275 19.961986,31.106 L15.9751518,29.106 C15.6950767,28.965 15.3641695,28.965 15.0840944,29.106 L11.0972602,31.106 C10.759376,31.275 10.5460804,31.621 10.5460804,32 L10.5460804,38 C10.5460804,38.379 10.759376,38.725 11.0972602,38.895 L15.0840944,40.895 C15.2236336,40.965 15.3771267,41 15.5296231,41 C15.6821195,41 15.8356126,40.965 15.9751518,40.895 L19.5164573,39.118 L19.5164573,43 C19.5164573,43.379 19.7297529,43.725 20.0676371,43.895 L24.0544713,45.895 C24.1940105,45.965 24.3475036,46 24.5,46 C24.6524964,46 24.8059895,45.965 24.9455287,45.895 L28.9323629,43.895 C29.2702471,43.725 29.4835427,43.379 29.4835427,43 L29.4835427,39.118 L33.0248482,40.895 C33.1643874,40.965 33.3178805,41 33.4703769,41 C33.6228733,41 33.7763664,40.965 33.9159056,40.895 L37.9027398,38.895 C38.240624,38.725 38.4539196,38.379 38.4539196,38 L38.4539196,32 C38.4539196,31.621 38.240624,31.275 37.9027398,31.106 L37.9027398,31.106 Z M46,20.09 C46,25.193 34.9225812,27.946 24.5,27.946 C14.0774188,27.946 3,25.193 3,20.09 C3,17.629 5.68014927,15.474 10.5470771,14.023 L11.115201,15.94 C7.33867229,17.066 4.99341709,18.656 4.99341709,20.09 C4.99341709,22.854 13.3358676,25.946 24.5,25.946 C35.6641324,25.946 44.0065829,22.854 44.0065829,20.09 C44.0065829,18.656 41.6613277,17.066 37.884799,15.94 L38.4529229,14.023 C43.3198507,15.474 46,17.629 46,20.09 L46,20.09 Z M24.5,4.064 L32.5474248,7 L24.5,9.936 L16.4525752,7 L24.5,4.064 Z M33.3677159,20.648 C31.8118539,21.348 29.2134347,22.164 25.4967085,22.293 L25.4967085,11.701 L34.4670854,8.428 L34.4670854,18.913 C34.4670854,19.667 34.0355106,20.348 33.3677159,20.648 L33.3677159,20.648 Z M14.5329146,18.913 L14.5329146,8.428 L23.5032915,11.701 L23.5032915,22.293 C19.7865653,22.164 17.1881461,21.348 15.6322841,20.648 C14.9644894,20.348 14.5329146,19.667 14.5329146,18.913 L14.5329146,18.913 Z M14.8159798,22.473 C16.6868017,23.315 19.8852394,24.319 24.5,24.319 C29.1147606,24.319 32.3131983,23.315 34.1840202,22.473 C35.5674517,21.851 36.4605025,20.454 36.4605025,18.913 L36.4605025,7 C36.4605025,6.58 36.1983682,6.204 35.8046683,6.06 L24.8408743,2.06 C24.6206017,1.98 24.3793983,1.98 24.1591257,2.06 L13.1953317,6.06 C12.8016318,6.204 12.5394975,6.58 12.5394975,7 L12.5394975,18.913 C12.5394975,20.454 13.4325483,21.851 14.8159798,22.473 L14.8159798,22.473 Z" id="AWS-Fargate_Icon_48_Squid"></path>
        </g>
    </g>
</svg>