<?xml version="1.0" encoding="UTF-8"?>
<svg width="64px" height="64px" viewBox="0 0 64 64" version="1.1" xmlns="http://www.w3.org/2000/svg" xmlns:xlink="http://www.w3.org/1999/xlink">
    <title>Icon-Architecture/48/Arch_AWS-Parallel-Cluster_48</title>
    <defs>
        <linearGradient x1="0%" y1="100%" x2="100%" y2="0%" id="linearGradient-1">
            <stop stop-color="#C8511B" offset="0%"></stop>
            <stop stop-color="#FF9900" offset="100%"></stop>
        </linearGradient>
    </defs>
    <g id="Icon-Architecture/48/Arch_AWS-Parallel-Cluster_48" stroke="none" stroke-width="1" fill="none" fill-rule="evenodd">
        <g id="Rectangle" fill="url(#linearGradient-1)">
            <rect x="0" y="0" width="64" height="64"></rect>
        </g>
        <g id="Icon-Service/48/AWS-ParallelClusters_48" transform="translate(8.000000, 8.000000)" fill="#FFFFFF">
            <path d="M30.2981273,41 L36.2981273,41 L36.2981273,35 L30.2981273,35 L30.2981273,41 Z M38.2981273,34 L38.2981273,42 C38.2981273,42.552 37.8501273,43 37.2981273,43 L29.2981273,43 C28.7451273,43 28.2981273,42.552 28.2981273,42 L28.2981273,34 C28.2981273,33.448 28.7451273,33 29.2981273,33 L37.2981273,33 C37.8501273,33 38.2981273,33.448 38.2981273,34 L38.2981273,34 Z M42.2981273,28 L34.2981273,28 C33.7451273,28 33.2981273,28.448 33.2981273,29 L33.2981273,31 C33.2981273,31.552 33.7451273,32 34.2981273,32 C34.8501273,32 35.2981273,31.552 35.2981273,31 L35.2981273,30 L41.2981273,30 L41.2981273,36 L40.2981273,36 C39.7451273,36 39.2981273,36.448 39.2981273,37 C39.2981273,37.552 39.7451273,38 40.2981273,38 L42.2981273,38 C42.8501273,38 43.2981273,37.552 43.2981273,37 L43.2981273,29 C43.2981273,28.448 42.8501273,28 42.2981273,28 L42.2981273,28 Z M10.2981273,13 L16.2981273,13 L16.2981273,7 L10.2981273,7 L10.2981273,13 Z M8.29812728,14 L8.29812728,6 C8.29812728,5.448 8.74512728,5 9.29812728,5 L17.2981273,5 C17.8501273,5 18.2981273,5.448 18.2981273,6 L18.2981273,14 C18.2981273,14.552 17.8501273,15 17.2981273,15 L9.29812728,15 C8.74512728,15 8.29812728,14.552 8.29812728,14 L8.29812728,14 Z M4.29812728,20 L12.2981273,20 C12.8501273,20 13.2981273,19.552 13.2981273,19 L13.2981273,17 C13.2981273,16.448 12.8501273,16 12.2981273,16 C11.7451273,16 11.2981273,16.448 11.2981273,17 L11.2981273,18 L5.29812728,18 L5.29812728,12 L6.29812728,12 C6.85012728,12 7.29812728,11.552 7.29812728,11 C7.29812728,10.448 6.85012728,10 6.29812728,10 L4.29812728,10 C3.74512728,10 3.29812728,10.448 3.29812728,11 L3.29812728,19 C3.29812728,19.552 3.74512728,20 4.29812728,20 L4.29812728,20 Z M44.9381273,27.252 C44.7871273,27.784 44.2271273,28.09 43.7041273,27.941 C43.1731273,27.791 42.8641273,27.238 43.0141273,26.707 C43.6251273,24.555 43.2311273,22.195 41.9871273,20.549 C40.8281273,19.017 39.0521273,18.207 36.8471273,18.207 C31.1551273,18.207 27.9911273,21.357 24.8931273,24.937 C26.8321273,27.144 28.8801273,29.293 31.4071273,30.507 C31.9051273,30.747 32.1151273,31.344 31.8761273,31.842 C31.7041273,32.2 31.3461273,32.409 30.9731273,32.409 C30.8291273,32.409 30.6811273,32.377 30.5421273,32.31 C27.7541273,30.971 25.5961273,28.753 23.5791273,26.468 C20.4991273,30.056 17.2091273,33.582 11.5431273,33.582 C8.32912728,33.582 5.58312728,32.274 3.81012728,29.9 C2.11812728,27.633 1.57012728,24.719 2.34512728,22.105 C2.50212728,21.577 3.05812728,21.274 3.58812728,21.43 C4.11712728,21.587 4.42012728,22.144 4.26212728,22.673 C3.67512728,24.656 4.11612728,26.966 5.41312728,28.704 C6.79912728,30.56 8.97512728,31.582 11.5431273,31.582 C16.4231273,31.582 19.2901273,28.403 22.2491273,24.946 C20.0191273,22.382 17.8721273,20.003 15.0831273,18.881 C14.5701273,18.675 14.3221273,18.093 14.5281273,17.581 C14.7351273,17.067 15.3221273,16.821 15.8291273,17.026 C18.9621273,18.286 21.3231273,20.843 23.5661273,23.415 C26.7031273,19.82 30.4351273,16.207 36.8471273,16.207 C39.6621273,16.207 42.0541273,17.32 43.5821273,19.343 C45.1961273,21.479 45.7171273,24.509 44.9381273,27.252 L44.9381273,27.252 Z" id="AWS-ParallelClusters_Icon_48_Squid"></path>
        </g>
    </g>
</svg>