<?xml version="1.0" encoding="UTF-8"?>
<svg width="64px" height="64px" viewBox="0 0 64 64" version="1.1" xmlns="http://www.w3.org/2000/svg" xmlns:xlink="http://www.w3.org/1999/xlink">
    <title>Icon-Architecture/48/Arch_AWS-Scout_48</title>
    <defs>
        <linearGradient x1="0%" y1="100%" x2="100%" y2="0%" id="linearGradient-1">
            <stop stop-color="#C8511B" offset="0%"></stop>
            <stop stop-color="#FF9900" offset="100%"></stop>
        </linearGradient>
    </defs>
    <g id="Icon-Architecture/48/Arch_AWS-Scout_48" stroke="none" stroke-width="1" fill="none" fill-rule="evenodd">
        <g id="Rectangle" transform="translate(-0.000000, 0.000000)" fill="url(#linearGradient-1)">
            <rect x="0" y="0" width="64" height="64"></rect>
        </g>
        <g id="Icon-Service/48/AWS-Scout_48" transform="translate(8.000000, 8.000000)" fill="#FFFFFF">
            <path d="M13,34.9967401 L15,34.9967401 L15,32.9967401 L13,32.9967401 L13,34.9967401 Z M44,31.9967401 C44,31.4457401 43.552,30.9967401 43,30.9967401 L11,30.9967401 C10.448,30.9967401 10,31.4457401 10,31.9967401 L10,35.9967401 C10,36.5477401 10.448,36.9967401 11,36.9967401 L43,36.9967401 C43.552,36.9967401 44,36.5477401 44,35.9967401 L44,31.9967401 Z M46,31.9967401 L46,35.9967401 C46,37.6507401 44.654,38.9967401 43,38.9967401 L11,38.9967401 C9.346,38.9967401 8,37.6507401 8,35.9967401 L8,31.9967401 C8,30.3427401 9.346,28.9967401 11,28.9967401 L43,28.9967401 C44.654,28.9967401 46,30.3427401 46,31.9967401 L46,31.9967401 Z M17,34.9967401 L23,34.9967401 L23,32.9967401 L17,32.9967401 L17,34.9967401 Z M25,34.9967401 L41,34.9967401 L41,32.9967401 L25,32.9967401 L25,34.9967401 Z M8.115,19.4857401 C8.175,19.9837401 7.855,20.4497401 7.369,20.5737401 C6.111,20.8937401 4,21.8837401 4,24.9107401 C4,25.0117401 4.003,25.1097401 4.008,25.2057401 C4.074,26.5907401 4.569,28.9597401 7.134,29.3067401 L6.866,31.2887401 C3.987,30.8987401 2.172,28.6627401 2.01,25.3057401 C2.003,25.1787401 2,25.0467401 2,24.9107401 C2,22.0487401 3.504,19.8507401 6.068,18.8867401 C6.066,18.8097401 6.065,18.7327401 6.065,18.6547401 C6.065,15.3737401 8.266,11.9687401 11.183,10.7327401 C14.592,9.28774013 18.204,10.0067401 20.843,12.6527401 C21.539,13.3517401 22.128,14.1767401 22.603,15.1157401 C23.57,14.5027401 24.745,14.3167401 25.873,14.6457401 C27.563,15.1407401 28.72,16.6217401 29.054,18.6697401 C30.843,19.0997401 34,20.4947401 34,26.4807401 L32,26.4807401 C32,21.1857401 29.27,20.7167401 27.958,20.4907401 C27.439,20.4017401 27.082,19.9287401 27.131,19.4117401 C27.005,17.9237401 26.329,16.8627401 25.312,16.5657401 C24.484,16.3247401 23.592,16.6507401 23.041,17.3977401 C22.82,17.6957401 22.453,17.8477401 22.089,17.7927401 C21.723,17.7387401 21.417,17.4867401 21.294,17.1377401 C20.857,15.9047401 20.229,14.8707401 19.426,14.0647401 C18.446,13.0807401 15.754,10.9687401 11.962,12.5747401 C9.813,13.4847401 8.065,16.2117401 8.065,18.6547401 C8.065,18.9367401 8.083,19.2137401 8.115,19.4857401 L8.115,19.4857401 Z" id="Fill-7"></path>
        </g>
    </g>
</svg>