<?xml version="1.0" encoding="UTF-8"?>
<svg width="64px" height="64px" viewBox="0 0 64 64" version="1.1" xmlns="http://www.w3.org/2000/svg" xmlns:xlink="http://www.w3.org/1999/xlink">
    <title>Icon-Architecture/48/Arch_AWS-ThinkBox-Deadline_48</title>
    <defs>
        <linearGradient x1="0%" y1="100%" x2="100%" y2="0%" id="linearGradient-1">
            <stop stop-color="#C8511B" offset="0%"></stop>
            <stop stop-color="#FF9900" offset="100%"></stop>
        </linearGradient>
    </defs>
    <g id="Icon-Architecture/48/Arch_AWS-ThinkBox-Deadline_48" stroke="none" stroke-width="1" fill="none" fill-rule="evenodd">
        <g id="Rectangle" fill="url(#linearGradient-1)">
            <rect x="0" y="0" width="64" height="64"></rect>
        </g>
        <g id="Icon-Service/48/AWS-ThinkBox-Deadline_48" transform="translate(8.000000, 8.000000)" fill="#FFFFFF">
            <path d="M42,34.395289 L25,43.342289 L25,40.621289 L25,35.339289 L33.466,30.883289 C33.577,30.825289 33.668,30.741289 33.748,30.649289 L36.354,32.285289 L37.417,30.590289 L34,28.446289 L34,19.895289 L42,15.660289 L42,34.395289 Z M15,38.342289 L15,29.836289 L20.045,27.165289 L20.045,28.998289 C20.045,29.359289 20.239,29.692289 20.554,29.869289 C20.706,29.955289 20.876,29.998289 21.045,29.998289 C21.225,29.998289 21.403,29.950289 21.563,29.853289 L23,28.983289 L23,34.132289 L15,38.342289 Z M6,32.337289 L6,13.602289 L23,4.65528899 L23,7.37728899 L23,13.132289 L14.535,17.587289 L11.272,15.741289 L10.288,17.482289 L13,19.016289 L13,28.631289 L6,32.337289 Z M26.518,26.854289 C26.817,26.673289 27,26.349289 27,25.999289 L27,23.601289 L32,20.954289 L32,29.395289 L25,33.079289 L25,27.772289 L26.518,26.854289 Z M22,23.475289 L25,21.743289 L25,25.435289 L22,27.224289 L22,23.475289 Z M20.539,22.039289 C20.233,22.218289 20,22.546289 20,22.901289 L20,24.902289 L15,27.573289 L15,19.602289 L23,15.392289 L23,20.597289 L20.539,22.039289 Z M32,10.655289 L32,18.690289 L27,21.338289 L27,19.998289 C27,19.640289 26.809,19.309289 26.497,19.130289 C26.187,18.952289 25.805,18.955289 25.494,19.135289 L25,19.425289 L25,14.339289 L32,10.655289 Z M43.516,13.142289 C43.404,13.075289 43.281,13.039289 43.156,13.019289 L39.169,10.693289 L38.161,12.420289 L40.864,13.998289 L34,17.632289 L34,8.99928899 C34,8.64828899 33.816,8.32428899 33.517,8.14328899 C33.217,7.96228899 32.846,7.95028899 32.534,8.11428899 L25,12.079289 L25,7.37728899 L25,4.73128899 L27.292,6.05428899 L28.292,4.32228899 L24.5,2.13228899 L24.499,2.13528899 C24.203,1.96428899 23.839,1.95328899 23.534,2.11428899 L4.534,12.114289 C4.206,12.287289 4,12.627289 4,12.999289 L4,33.999289 C4,34.349289 4.184,34.674289 4.484,34.855289 C4.493,34.861289 4.503,34.862289 4.512,34.867289 L4.51,34.870289 L8.846,37.312289 L9.826,35.569289 L7.086,34.026289 L13,30.895289 L13,39.999289 C13,40.349289 13.184,40.673289 13.483,40.854289 C13.642,40.950289 13.82,40.999289 14,40.999289 C14.16,40.999289 14.319,40.960289 14.466,40.883289 L23,36.392289 L23,40.621289 L23,43.256289 L20.506,41.798289 L19.496,43.525289 L23.495,45.862289 L23.496,45.860289 C23.651,45.951289 23.825,45.999289 24,45.999289 C24.16,45.999289 24.319,45.960289 24.466,45.883289 L43.466,35.883289 C43.794,35.710289 44,35.370289 44,34.999289 L44,13.999289 C44,13.648289 43.816,13.323289 43.516,13.142289 L43.516,13.142289 Z" id="AWS-ThinkBox-Deadline_48_Squid"></path>
        </g>
    </g>
</svg>