<?xml version="1.0" encoding="UTF-8"?>
<svg width="64px" height="64px" viewBox="0 0 64 64" version="1.1" xmlns="http://www.w3.org/2000/svg" xmlns:xlink="http://www.w3.org/1999/xlink">
    <title>Icon-Architecture/48/Arch_AWS-ThinkBox-Stoke_48</title>
    <defs>
        <linearGradient x1="0%" y1="100%" x2="100%" y2="0%" id="linearGradient-1">
            <stop stop-color="#C8511B" offset="0%"></stop>
            <stop stop-color="#FF9900" offset="100%"></stop>
        </linearGradient>
    </defs>
    <g id="Icon-Architecture/48/Arch_AWS-ThinkBox-Stoke_48" stroke="none" stroke-width="1" fill="none" fill-rule="evenodd">
        <g id="Rectangle" fill="url(#linearGradient-1)">
            <rect x="0" y="0" width="64" height="64"></rect>
        </g>
        <g id="Icon-Service/48/AWS-ThinkBox-Stoke_48" transform="translate(8.000000, 8.000000)" fill="#FFFFFF">
            <path d="M33.355,9.31875 L29.947,7.35075 L30.947,5.61875 L34.355,7.58775 L33.355,9.31875 Z M14.418,9.31875 L13.418,7.58675 L16.827,5.61875 L17.827,7.35075 L14.418,9.31875 Z M42,19.26175 C41.304,17.20075 40.428,15.10375 39.375,12.97275 L42,14.63475 L42,19.26175 Z M24.697,28.36875 C24.31,27.99075 23.689,27.99075 23.302,28.36875 C23.085,28.57875 18,33.59975 18,39.58575 L18,39.84775 C18,39.89375 18.01,39.93975 18.011,39.98575 C17.361,38.64775 17,37.10875 17,35.48575 C17,27.87575 22.033,20.18775 24,17.47375 C25.966,20.18775 31,27.87575 31,35.48575 C31,37.10975 30.638,38.65075 29.987,39.98775 C29.988,39.94175 30,39.89475 30,39.84775 L30,39.58575 C30,33.59975 24.914,28.57875 24.697,28.36875 L24.697,28.36875 Z M14.157,20.29175 L15.942,21.43375 L17.02,19.74875 L14.947,18.42275 C17.914,11.83675 22.286,6.45775 24,4.48475 C25.717,6.45975 30.099,11.84675 33.066,18.44675 L31,19.78775 L32.089,21.46575 L33.855,20.31975 C35.13,23.57875 36,27.06775 36,30.54975 C36,34.01975 34.613,37.28475 32.295,39.62475 C32.748,38.33275 33,36.93575 33,35.48575 C33,25.35275 25.109,15.59375 24.773,15.18375 C24.394,14.71975 23.605,14.71975 23.226,15.18375 C22.89,15.59375 15,25.35275 15,35.48575 C15,36.93675 15.252,38.33375 15.705,39.62575 C13.386,37.28575 12,34.02075 12,30.54975 C12,27.05875 12.874,23.55975 14.157,20.29175 L14.157,20.29175 Z M6,14.63475 L8.625,12.97275 C7.571,15.10375 6.695,17.20075 6,19.26175 L6,14.63475 Z M44,14.08575 C44,13.74275 43.824,13.42275 43.535,13.23975 L37.241,9.25375 C36.851,9.00675 36.345,9.05775 36.014,9.37575 C35.682,9.69375 35.61,10.19675 35.838,10.59575 C39.817,17.53475 41.892,24.11475 42,30.16075 L42,34.63775 L35.938,38.13375 C37.254,35.88575 38,33.27175 38,30.54975 C38,26.63575 37.016,22.76175 35.587,19.19475 L37.544,17.92375 L36.455,16.24575 L34.786,17.32975 C30.975,8.96475 25.089,2.68275 24.725,2.29775 C24.346,1.90075 23.653,1.90075 23.274,2.29775 C22.91,2.68175 17.03,8.95875 13.219,17.31775 L11.539,16.24275 L10.46,17.92675 L12.418,19.17975 C10.986,22.75075 10,26.62975 10,30.54975 C10,33.28475 10.751,35.91175 12.08,38.16775 L6,34.63975 L6,30.16075 C6.107,24.11475 8.182,17.53475 12.161,10.59575 C12.389,10.19675 12.317,9.69375 11.985,9.37575 C11.654,9.05875 11.148,9.00775 10.758,9.25375 L4.464,13.23975 C4.175,13.42275 4,13.74275 4,14.08575 L4.005,35.21575 C4.005,35.57175 4.195,35.90175 4.503,36.07975 L21.498,45.94975 L22.54,44.24275 C21.318,43.46075 20,41.55675 20,39.84775 L20,39.58575 C20,35.68175 22.691,32.08175 24,30.56275 C25.308,32.08175 28,35.68175 28,39.58575 L28,39.84775 C28,41.46475 26.634,43.42575 25.359,44.24275 L26.399,45.95075 L43.494,36.08175 C43.803,35.90275 43.994,35.57275 43.994,35.21575 L44,14.08575 Z" id="AWS-ThinkBox-Stoke_48_Squid"></path>
        </g>
    </g>
</svg>