<?xml version="1.0" encoding="UTF-8"?>
<svg width="64px" height="64px" viewBox="0 0 64 64" version="1.1" xmlns="http://www.w3.org/2000/svg" xmlns:xlink="http://www.w3.org/1999/xlink">
    <!-- Generator: Sketch 64 (93537) - https://sketch.com -->
    <title>Icon-Architecture/48/Arch_AWS-Wavelength_48</title>
    <desc>Created with Sketch.</desc>
    <defs>
        <linearGradient x1="0%" y1="100%" x2="100%" y2="0%" id="linearGradient-1">
            <stop stop-color="#C8511B" offset="0%"></stop>
            <stop stop-color="#FF9900" offset="100%"></stop>
        </linearGradient>
    </defs>
    <g id="Icon-Architecture/48/Arch_AWS-Wavelength_48" stroke="none" stroke-width="1" fill="none" fill-rule="evenodd">
        <g id="Icon-Architecture-BG/48/Compute" fill="url(#linearGradient-1)">
            <rect id="Rectangle" x="0" y="0" width="64" height="64"></rect>
        </g>
        <path d="M32,47.7964148 C30.829,47.7964148 29.687,47.676063 28.578,47.4632095 L31.6,35.1644551 L34.523,47.5994756 C33.696,47.7158487 32.858,47.7964148 32,47.7964148 L32,47.7964148 Z M20.773,31.8821349 L25.098,31.8821349 C25.332,35.2619301 26.217,38.294595 27.543,40.3624568 C23.977,38.9043109 21.398,35.6975835 20.773,31.8821349 L20.773,31.8821349 Z M27.569,19.7862875 C26.941,20.7500961 26.411,21.9297421 25.998,23.2705202 C25.148,23.0646292 24.353,22.81199 23.624,22.5165811 C24.72,21.3448923 26.059,20.4039605 27.569,19.7862875 L27.569,19.7862875 Z M39.934,22.4539187 C39.22,22.7533061 38.437,23.0089292 37.602,23.220788 C37.19,21.9008974 36.665,20.7381604 36.045,19.7862875 C37.529,20.3930194 38.849,21.3110744 39.934,22.4539187 L39.934,22.4539187 Z M36.094,40.3465425 C37.417,38.2916111 38.288,35.292764 38.517,31.8821349 L42.838,31.8821349 C42.203,35.6667496 39.615,38.8784502 36.094,40.3465425 L36.094,40.3465425 Z M36.513,31.8821349 C36.299,34.7377535 35.586,37.3039311 34.563,39.0306305 L32.881,31.8821349 L36.513,31.8821349 Z M38.575,29.8928499 C38.563,28.2059362 38.395,26.6065511 38.096,25.143432 C39.224,24.8579696 40.274,24.5008929 41.209,24.0702127 C42.303,25.7561317 42.949,27.7503899 42.985,29.8928499 L38.575,29.8928499 Z M31.808,18.9517824 C33.21,18.9517824 34.711,20.7172729 35.646,23.6256075 C34.393,23.8215521 33.062,23.9249949 31.7,23.9249949 C30.411,23.9249949 29.153,23.8275199 27.958,23.6524629 C28.894,20.7272193 30.4,18.9517824 31.808,18.9517824 L31.808,18.9517824 Z M27.46,25.5880372 C28.816,25.8008907 30.244,25.9142799 31.7,25.9142799 C33.23,25.9142799 34.73,25.7899496 36.147,25.5562086 C36.41,26.8591903 36.564,28.3183308 36.576,29.8928499 L27.039,29.8928499 C27.05,28.3322558 27.201,26.8830617 27.46,25.5880372 L27.46,25.5880372 Z M20.63,29.8928499 C20.665,27.7832131 21.295,25.8187942 22.357,24.1497841 C23.305,24.5725072 24.371,24.9186428 25.509,25.1951534 C25.216,26.6443475 25.051,28.2248344 25.039,29.8928499 L20.63,29.8928499 Z M28.734,38.4427968 C27.879,36.7399688 27.293,34.4224518 27.103,31.8821349 L30.346,31.8821349 L28.734,38.4427968 Z M48.852,23.5838325 C49.613,25.5969889 50,27.719556 50,29.8928499 C50,38.2219861 44.243,45.2202907 36.485,47.2105703 L35.421,42.6819631 C40.979,41.0974976 44.995,35.9561905 44.995,30.0798427 C44.995,22.8468025 39.079,16.9624975 31.808,16.9624975 C24.536,16.9624975 18.62,22.8468025 18.62,30.0798427 C18.62,35.8308656 22.361,40.8150191 27.727,42.5437078 L26.636,46.9837918 C19.322,44.7080498 14,37.9076791 14,29.8928499 C14,20.0210231 22.075,11.989285 32,11.989285 C36.155,11.989285 40.078,13.385763 43.262,15.9390103 L40.143,15.9390103 L40.143,17.9282953 L46.571,17.9282953 L46.571,11.5347334 L44.571,11.5347334 L44.571,14.4331216 C41.024,11.5665619 36.643,10 32,10 C20.972,10 12,18.9239325 12,29.8928499 C12,38.8416484 17.974,46.4248028 26.161,48.9153876 L25.028,53.5285395 L26.972,54 L28.102,49.3997785 C29.363,49.6494337 30.666,49.7856998 32,49.7856998 C33.016,49.7856998 34.005,49.6862355 34.979,49.5400231 L36.026,53.9910482 L37.974,53.5374912 L36.941,49.1461446 C45.583,46.9489794 52,39.1629179 52,29.8928499 C52,27.4798472 51.57,25.1215498 50.723,22.8826096 L48.852,23.5838325 Z" id="AWS-Wavelength_Icon_48_Squid" fill="#FFFFFF"></path>
    </g>
</svg>