<?xml version="1.0" encoding="UTF-8"?>
<svg width="64px" height="64px" viewBox="0 0 64 64" version="1.1" xmlns="http://www.w3.org/2000/svg" xmlns:xlink="http://www.w3.org/1999/xlink">
    <!-- Generator: Sketch 64 (93537) - https://sketch.com -->
    <title>Icon-Architecture/48/Arch_AWS-EC2-Image-Builder_48</title>
    <desc>Created with Sketch.</desc>
    <defs>
        <linearGradient x1="0%" y1="100%" x2="100%" y2="0%" id="linearGradient-1">
            <stop stop-color="#C8511B" offset="0%"></stop>
            <stop stop-color="#FF9900" offset="100%"></stop>
        </linearGradient>
    </defs>
    <g id="Icon-Architecture/48/Arch_AWS-EC2-Image-Builder_48" stroke="none" stroke-width="1" fill="none" fill-rule="evenodd">
        <g id="Icon-Architecture-BG/48/Compute" fill="url(#linearGradient-1)">
            <rect id="Rectangle" x="0" y="0" width="64" height="64"></rect>
        </g>
        <path d="M25.793,26.293 L19.586,32.5 L25.793,38.707 L27.207,37.293 L22.414,32.5 L27.207,27.707 L25.793,26.293 Z M12,50 L31,50 L31,14 L12,14 L12,50 Z M10,52 L33,52 L33,12 L10,12 L10,52 Z M14,32 C14,40.822 21.178,48 30,48 L30,46 C22.28,46 16,39.72 16,32 C16,24.28 22.28,18 30,18 L30,16 C21.178,16 14,23.178 14,32 L14,32 Z M34.448,39.705 L34.448,41.705 C39.8,41.705 44.154,37.352 44.154,32 C44.154,26.648 39.8,22.295 34.448,22.295 L34.448,24.295 C38.697,24.295 42.154,27.751 42.154,32 C42.154,36.249 38.697,39.705 34.448,39.705 L34.448,39.705 Z M54,28.834 L54,35.167 C54,36.155 53.196,36.959 52.208,36.959 L49.674,36.959 C49.39,37.857 49.025,38.732 48.587,39.575 L50.381,41.369 C50.72,41.707 50.906,42.157 50.906,42.636 C50.906,43.115 50.72,43.565 50.381,43.903 L45.903,48.381 C45.204,49.078 44.068,49.08 43.369,48.382 L41.575,46.587 C40.733,47.025 39.857,47.389 38.958,47.673 L38.958,50.209 C38.958,51.196 38.154,52 37.167,52 L34,52 L34,50 L36.958,50 L36.958,46.153 L37.702,45.956 C38.939,45.629 40.132,45.134 41.248,44.484 L41.914,44.097 L44.636,46.82 L48.819,42.636 L46.097,39.914 L46.484,39.248 C47.135,38.13 47.63,36.937 47.956,35.703 L48.152,34.959 L52,34.959 L52,29.042 L48.152,29.042 L47.956,28.297 C47.63,27.063 47.135,25.87 46.484,24.752 L46.097,24.086 L48.819,21.364 L44.637,17.18 L41.914,19.903 L41.248,19.516 C40.132,18.866 38.939,18.371 37.702,18.044 L36.958,17.847 L36.958,14 L34.064,14 L34.064,12 L37.167,12 C38.154,12 38.958,12.804 38.958,13.792 L38.958,16.327 C39.857,16.611 40.733,16.975 41.575,17.413 L43.369,15.619 C44.067,14.921 45.203,14.919 45.903,15.618 L50.381,20.097 C50.72,20.435 50.906,20.885 50.906,21.364 C50.906,21.843 50.72,22.293 50.381,22.631 L48.587,24.425 C49.025,25.268 49.39,26.143 49.674,27.042 L52.208,27.042 C53.196,27.042 54,27.845 54,28.834 L54,28.834 Z" id="AWS-EC2-Image-Builder_Icon_48_Squid" fill="#FFFFFF"></path>
    </g>
</svg>