<?xml version="1.0" encoding="UTF-8"?>
<svg width="64px" height="64px" viewBox="0 0 64 64" version="1.1" xmlns="http://www.w3.org/2000/svg" xmlns:xlink="http://www.w3.org/1999/xlink">
    <!-- Generator: Sketch 64 (93537) - https://sketch.com -->
    <title>Icon-Architecture/48/Arch_VMware-Cloud-on-AWS_48</title>
    <desc>Created with Sketch.</desc>
    <defs>
        <linearGradient x1="0%" y1="100%" x2="100%" y2="0%" id="linearGradient-1">
            <stop stop-color="#C8511B" offset="0%"></stop>
            <stop stop-color="#FF9900" offset="100%"></stop>
        </linearGradient>
    </defs>
    <g id="Icon-Architecture/48/Arch_VMware-Cloud-on-AWS_48" stroke="none" stroke-width="1" fill="none" fill-rule="evenodd">
        <g id="Icon-Architecture-BG/48/Compute" fill="url(#linearGradient-1)">
            <rect id="Rectangle" x="0" y="0" width="64" height="64"></rect>
        </g>
        <path d="M46.692,39.0897817 L48.571,38.4037817 L47.104,34.3827817 C46.914,33.8637817 46.34,33.5997817 45.822,33.7867817 L41.706,35.2877817 L42.391,37.1667817 L44.136,36.5297817 C43.179,38.3567817 42.13,40.0517817 41.036,41.5077817 C40.823,41.7967817 40.609,42.0677817 40.394,42.3317817 C37.876,45.4427817 35.35,47.0577817 33.949,46.4497817 C33.498,46.2537817 33.134,45.8197817 32.868,45.1587817 L31.012,45.9067817 C31.476,47.0557817 32.216,47.8787817 33.151,48.2837817 C33.614,48.4857817 34.104,48.5857817 34.619,48.5857817 C36.753,48.5857817 39.296,46.8667817 41.948,43.5907817 C42.179,43.3057817 42.411,43.0117817 42.639,42.7047817 C43.836,41.1107817 44.985,39.2537817 46.021,37.2517817 L46.692,39.0897817 Z M38.531,17.1247817 C39.592,17.5927817 40.187,19.4427817 40.12,22.0727817 C40.119,22.1117817 40.119,22.2187817 40.123,22.2577817 L40.121,22.3517817 C40.025,24.8847817 39.379,27.9167817 38.293,31.0707817 L37.653,29.4987817 L35.799,30.2517817 L37.412,34.2167817 C37.512,34.4637817 37.706,34.6587817 37.95,34.7617817 C38.074,34.8147817 38.207,34.8407817 38.338,34.8407817 C38.466,34.8407817 38.594,34.8167817 38.715,34.7667817 L42.774,33.1157817 L42.02,31.2637817 L40.065,32.0587817 C41.287,28.5997817 42.011,25.2407817 42.119,22.4277817 C42.12,22.4147817 42.122,22.3307817 42.122,22.3177817 C42.124,22.2357817 42.125,22.1557817 42.121,22.0767817 C42.202,18.5297817 41.214,16.1227817 39.33,15.2917817 C38.392,14.8877817 36.814,14.7017817 34.629,16.1157817 L35.714,17.7957817 C36.512,17.2797817 37.649,16.7447817 38.531,17.1247817 L38.531,17.1247817 Z M26,30.7887817 L29,30.7887817 L29,28.7887817 L26,28.7887817 L26,30.7887817 Z M26,26.7887817 L29,26.7887817 L29,24.7887817 L26,24.7887817 L26,26.7887817 Z M24,37.7887817 L31,37.7887817 L31,22.7887817 L24,22.7887817 L24,37.7887817 Z M32,20.7887817 C32.552,20.7887817 33,21.2357817 33,21.7887817 L33,38.7887817 C33,39.3407817 32.552,39.7887817 32,39.7887817 L23,39.7887817 C22.447,39.7887817 22,39.3407817 22,38.7887817 L22,21.7887817 C22,21.2357817 22.447,20.7887817 23,20.7887817 L32,20.7887817 Z M47.1,27.4187817 C46.79,25.1467817 45.727,23.4027817 44.063,22.4617817 L43.079,24.2027817 C44.313,24.9017817 45.059,26.3547817 45.178,28.2967817 C45.206,28.7497817 45.536,29.1267817 45.98,29.2157817 C49.974,30.0147817 52,32.1657817 52,35.6067817 C52,40.9857817 47.691,41.7887817 45.123,41.7887817 L44,41.7887817 L44,43.7887817 L45.123,43.7887817 C47.205,43.7887817 54,43.1987817 54,35.6067817 C54,31.4267817 51.557,28.5417817 47.1,27.4187817 L47.1,27.4187817 Z M37,43.7887817 L18.74,43.7887817 C14.086,43.7887817 10.254,40.4227817 10.019,36.1247817 C10.008,35.9327817 10,35.7447817 10,35.5467817 C10,31.7337817 12.114,28.8287817 15.704,27.6317817 C15.695,27.4487817 15.691,27.2637817 15.691,27.0787817 C15.691,22.7657817 18.671,18.2957817 22.622,16.6807817 C27.223,14.7937817 32.109,15.7347817 35.686,19.1937817 C37.068,20.5397817 38.138,22.2337817 38.871,24.2317817 L36.992,24.9197817 C36.374,23.2297817 35.44,21.7457817 34.294,20.6287817 C32.86,19.2437817 28.926,16.2587817 23.379,18.5317817 C20.189,19.8357817 17.691,23.5897817 17.691,27.0787817 C17.691,27.4747817 17.714,27.8667817 17.76,28.2417817 C17.823,28.7447817 17.5,29.2137817 17.007,29.3347817 C15.137,29.7967817 12,31.2167817 12,35.5467817 C12,35.7097817 12.008,35.8637817 12.016,36.0187817 C12.193,39.2527817 15.147,41.7887817 18.74,41.7887817 L37,41.7887817 L37,43.7887817 Z" id="VMware-Cloud-on-AWS_Icon_48_Squid" fill="#FFFFFF"></path>
    </g>
</svg>