<?xml version="1.0" encoding="UTF-8"?>
<svg width="40px" height="40px" viewBox="0 0 40 40" version="1.1" xmlns="http://www.w3.org/2000/svg" xmlns:xlink="http://www.w3.org/1999/xlink">
    <!-- Generator: Sketch 64 (93537) - https://sketch.com -->
    <title>Icon-Architecture/32/Arch_Amazon-Quantum-Ledger-Database_32</title>
    <desc>Created with Sketch.</desc>
    <defs>
        <linearGradient x1="0%" y1="100%" x2="100%" y2="0%" id="linearGradient-1">
            <stop stop-color="#C8511B" offset="0%"></stop>
            <stop stop-color="#FF9900" offset="100%"></stop>
        </linearGradient>
    </defs>
    <g id="Icon-Architecture/32/Arch_Amazon-Quantum-Ledger-Database_32" stroke="none" stroke-width="1" fill="none" fill-rule="evenodd">
        <g id="Icon-Architecture-BG/32/Blockchain" fill="url(#linearGradient-1)">
            <rect id="Rectangle" x="0" y="0" width="40" height="40"></rect>
        </g>
        <path d="M30,20.7414546 L31,20.7414546 L31,19.7613428 L30,19.7613428 L30,20.7414546 Z M29,21.7215665 L32,21.7215665 L32,18.7812309 L29,18.7812309 L29,21.7215665 Z M22,20.7414546 L23,20.7414546 L23,19.7613428 L22,19.7613428 L22,20.7414546 Z M21,21.7215665 L24,21.7215665 L24,18.7812309 L21,18.7812309 L21,21.7215665 Z M14,20.7414546 L15,20.7414546 L15,19.7613428 L14,19.7613428 L14,20.7414546 Z M13,21.7215665 L16,21.7215665 L16,18.7812309 L13,18.7812309 L13,21.7215665 Z M33,22.7016784 L28,22.7016784 L28,20.7414546 L25,20.7414546 L25,22.7016784 L20,22.7016784 L20,20.7414546 L17,20.7414546 L17,22.7016784 L12,22.7016784 L12,17.801119 L17,17.801119 L17,19.7613428 L20,19.7613428 L20,17.801119 L25,17.801119 L25,19.7613428 L28,19.7613428 L28,17.801119 L33,17.801119 L33,22.7016784 Z M33.201,16.8210071 L27.799,16.8210071 C27.358,16.8210071 27,17.1718871 27,17.6041165 L27,18.7812309 L26,18.7812309 L26,17.6041165 C26,17.1718871 25.642,16.8210071 25.201,16.8210071 L19.799,16.8210071 C19.358,16.8210071 19,17.1718871 19,17.6041165 L19,18.7812309 L18,18.7812309 L18,17.6041165 C18,17.1718871 17.642,16.8210071 17.201,16.8210071 L11.799,16.8210071 C11.358,16.8210071 11,17.1718871 11,17.6041165 L11,22.8977008 C11,23.3299302 11.358,23.6817903 11.799,23.6817903 L17.201,23.6817903 C17.642,23.6817903 18,23.3299302 18,22.8977008 L18,21.7215665 L19,21.7215665 L19,22.8977008 C19,23.3299302 19.358,23.6817903 19.799,23.6817903 L25.201,23.6817903 C25.642,23.6817903 26,23.3299302 26,22.8977008 L26,21.7215665 L27,21.7215665 L27,22.8977008 C27,23.3299302 27.358,23.6817903 27.799,23.6817903 L33.201,23.6817903 C33.642,23.6817903 34,23.3299302 34,22.8977008 L34,17.6041165 C34,17.1718871 33.642,16.8210071 33.201,16.8210071 L33.201,16.8210071 Z M15.5,8.9801119 C19.793,8.9801119 23,10.2738596 23,11.4303916 C23,12.5869237 19.793,13.8806714 15.5,13.8806714 C11.207,13.8806714 8,12.5869237 8,11.4303916 C8,10.2738596 11.207,8.9801119 15.5,8.9801119 L15.5,8.9801119 Z M23,28.4539552 C23,29.6673337 19.92,31.0198881 15.5,31.0198881 C11.08,31.0198881 8,29.6673337 8,28.4539552 L8,24.5746723 C9.318,25.7272839 11.693,26.6926941 14.902,26.6926941 C18.744,26.6926941 20.756,25.8066729 20.84,25.7684486 L20.423,24.8775269 C20.404,24.8863479 18.502,25.7125822 14.902,25.7125822 C11.306,25.7125822 8.738,24.3855107 8,23.0505983 L8,18.8468984 C8.407,19.2360028 8.947,19.5908033 9.712,19.8740556 L10.065,18.957651 C8.813,18.4940581 8.331,17.8109201 8,17.1895291 L8,13.1024625 C9.526,14.2521338 12.574,14.8607833 15.5,14.8607833 C18.426,14.8607833 21.474,14.2521338 23,13.1024625 L23,15.8408952 L24,15.8408952 L24,10.9403357 L23.918,10.9403357 C23.325,9.02813738 19.306,8 15.5,8 C11.694,8 7.675,9.02813738 7.082,10.9403357 L7,10.9403357 L7,28.4539552 C7,30.756238 11.38,32 15.5,32 C19.62,32 24,30.756238 24,28.4539552 L24,24.6619022 L23,24.6619022 L23,28.4539552 Z" id="Amazon-Quantum-Ledger-Database_Icon_32_Squid" fill="#FFFFFF"></path>
    </g>
</svg>