<?xml version="1.0" encoding="UTF-8"?>
<svg width="80px" height="80px" viewBox="0 0 80 80" version="1.1" xmlns="http://www.w3.org/2000/svg" xmlns:xlink="http://www.w3.org/1999/xlink">
    <!-- Generator: Sketch 64 (93537) - https://sketch.com -->
    <title>Icon-Architecture/64/Arch_Amazon-Kinesis-Data-Streams_64</title>
    <desc>Created with Sketch.</desc>
    <defs>
        <linearGradient x1="0%" y1="100%" x2="100%" y2="0%" id="linearGradient-1">
            <stop stop-color="#4D27A8" offset="0%"></stop>
            <stop stop-color="#A166FF" offset="100%"></stop>
        </linearGradient>
    </defs>
    <g id="Icon-Architecture/64/Arch_Amazon-Kinesis-Data-Streams_64" stroke="none" stroke-width="1" fill="none" fill-rule="evenodd">
        <g id="Icon-Architecture-BG/64/Analytics" fill="url(#linearGradient-1)">
            <rect id="Rectangle" x="0" y="0" width="80" height="80"></rect>
        </g>
        <g id="Icon-Service/64/Amazon-Kinesis-Data-Streams" transform="translate(8.000000, 8.000000)" fill="#FFFFFF">
            <path d="M41,43 L47,43 L47,41 L41,41 L41,43 Z M45,54 L48,54 L48,51 L45,51 L45,54 Z M50,50 L50,55 C50,55.552 49.553,56 49,56 L44,56 C43.448,56 43,55.552 43,55 L43,50 C43,49.448 43.448,49 44,49 L49,49 C49.553,49 50,49.448 50,50 L50,50 Z M44,47 L47,47 L47,45 L44,45 L44,47 Z M51,45 L54,45 L54,42 L51,42 L51,45 Z M55,47 L50,47 C49.448,47 49,46.552 49,46 L49,41 C49,40.448 49.448,40 50,40 L52.975,40 C51.305,38.75 49.242,38 47,38 C42.532,38 38.739,40.947 37.461,45 L42,45 L42,47 L37.051,47 C37.018,47.329 37,47.663 37,48 C37,48.337 37.018,48.671 37.051,49 L41,49 L41,51 L37.461,51 C37.684,51.705 37.989,52.372 38.354,53 L41,53 L41,55 L39.871,55 C41.687,56.849 44.21,58 47,58 C49.79,58 52.314,56.849 54.129,55 L52,55 L52,53 L55.647,53 C56.012,52.372 56.317,51.705 56.539,51 L52,51 L52,49 L56.95,49 C56.983,48.671 57,48.337 57,48 C57,46.447 56.634,44.982 56,43.67 L56,46 C56,46.552 55.553,47 55,47 L55,47 Z M59,48 C59,54.617 53.618,60 47,60 C40.383,60 35,54.617 35,48 C35,41.383 40.383,36 47,36 C53.618,36 59,41.383 59,48 L59,48 Z M40.127,35.817 C25.434,37.238 11,40.72 11,54 L13,54 C13,47.633 16,40.878 37.034,38.185 C37.946,37.258 38.989,36.462 40.127,35.817 L40.127,35.817 Z M17,60 L19,60 C19,54.185 19.012,47.068 33.801,43.377 C34.082,42.577 34.429,41.81 34.844,41.084 C17.014,45.047 17,53.982 17,60 L17,60 Z M7,18 L5,18 C5,25.396 15.039,30.08 34.893,32 C15.039,33.92 5,38.604 5,46 L7,46 C7,41.145 13.756,33 59,33 L59,31 C13.756,31 7,22.855 7,18 L7,18 Z M13,10 L11,10 C11,19.396 16.703,29 59,29 L59,27 C18.465,27 13,18.406 13,10 L13,10 Z M59,23 L59,25 C40.663,25 28.728,22.641 22.51,17.788 C17,13.488 17,8.004 17,4 L19,4 C19,11.566 19,23 59,23 L59,23 Z" id="Amazon-Kinesis-Data-Streams_Icon_64_Squid"></path>
        </g>
    </g>
</svg>