<?xml version="1.0" encoding="UTF-8"?>
<svg width="80px" height="80px" viewBox="0 0 80 80" version="1.1" xmlns="http://www.w3.org/2000/svg" xmlns:xlink="http://www.w3.org/1999/xlink">
    <title>Icon-Architecture/64/Arch_AWS-Glue-Elastic-Views_64</title>
    <defs>
        <linearGradient x1="0%" y1="100%" x2="100%" y2="0%" id="linearGradient-1">
            <stop stop-color="#4D27A8" offset="0%"></stop>
            <stop stop-color="#A166FF" offset="100%"></stop>
        </linearGradient>
    </defs>
    <g id="Icon-Architecture/64/Arch_AWS-Glue-Elastic-Views_64" stroke="none" stroke-width="1" fill="none" fill-rule="evenodd">
        <g id="Rectangle" fill="url(#linearGradient-1)">
            <rect x="0" y="0" width="80" height="80"></rect>
        </g>
        <g id="Icon-Service/64/AWS-Glue-Elastic-Views_64" transform="translate(8.000000, 8.000000)" fill="#FFFFFF">
            <path d="M34,30 L39,30 L39,32 L34,32 L34,37 L32,37 L32,32 L27,32 L27,30 L32,30 L32,25 L34,25 L34,30 Z M53.865,20 C51.253,20 50.11,19.342 50,19.157 L49.988,6.905 C50.107,6.673 51.293,6 53.865,6 C56.29,6 57.736,6.588 58,6.916 L58.021,19.061 C57.833,19.378 56.377,20 53.865,20 L53.865,20 Z M33,40 C28.037,40 24,35.962 24,31 C24,26.038 28.037,22 33,22 C37.963,22 42,26.038 42,31 C42,35.962 37.963,40 33,40 L33,40 Z M52.892,34 C54.646,34 55.75,34.437 56,34.692 L56,44.313 C55.755,44.566 54.652,45 52.892,45 C50.985,45 50.092,44.5 50,44.403 L49.979,34.687 C50.092,34.504 50.99,34 52.892,34 L52.892,34 Z M42,57.637 C41.732,57.784 41.028,58 39.919,58 C38.806,58 38.215,57.784 38,57.664 L38,51.34 C38.216,51.218 38.809,51 39.919,51 C40.976,51 41.717,51.211 42,51.367 L42,57.637 Z M10.838,53 C7.617,53 6.052,52.13 6,51.8 L6,39.205 C6.08,38.862 7.638,38 10.838,38 C14.119,38 15.817,38.854 16,39.225 L16.005,51.769 C15.862,52.131 14.175,53 10.838,53 L10.838,53 Z M14,19.649 C13.724,19.793 13.02,20 11.919,20 C10.883,20 10.247,19.812 10,19.678 L10,13.328 C10.225,13.208 10.82,13 11.919,13 C13.017,13 13.722,13.209 14,13.354 L14,19.649 Z M53.865,4 C50.302,4 48,5.116 48,6.843 L48,14.565 L39.379,22.056 C37.577,20.767 35.379,20 33,20 C29.524,20 26.425,21.625 24.408,24.15 L16,17.119 L16,13.105 C16,11.553 13.892,11 11.919,11 C9.502,11 8,11.807 8,13.105 L8,19.895 C8,21.193 9.502,22 11.919,22 C13.892,22 16,21.447 16,19.895 L16,19.726 L23.297,25.829 C22.472,27.372 22,29.131 22,31 C22,32.972 22.528,34.82 23.441,36.422 L18,41.005 L18,39.2 C18,36.99 14.403,36 10.838,36 C6.684,36 4,37.256 4,39.2 L4,51.8 C4,53.744 6.684,55 10.838,55 C14.142,55 18,54.162 18,51.8 L18,43.62 L24.587,38.072 C26.606,40.471 29.627,42 33,42 C33.74,42 34.463,41.924 35.163,41.784 L38.388,49.134 C36.888,49.414 36,50.126 36,51.135 L36,57.865 C36,59.182 37.502,60 39.919,60 C42.398,60 44,59.162 44,57.865 L44,51.135 C44,49.949 42.65,49.155 40.525,49.026 L37.092,41.202 C39.299,40.313 41.146,38.729 42.376,36.723 L48,39.18 L48,44.403 C48,45.981 49.92,47 52.892,47 C55.248,47 58,46.32 58,44.403 L58,34.597 C58,32.803 55.435,32 52.892,32 C49.92,32 48,33.019 48,34.597 L48,36.997 L43.263,34.927 C43.732,33.705 44,32.385 44,31 C44,28.04 42.819,25.354 40.91,23.375 L48,17.215 L48,19.157 C48,20.911 50.247,22 53.865,22 C56.695,22 60,21.255 60,19.157 L60,6.843 C60,4.745 56.695,4 53.865,4 L53.865,4 Z" id="Fill-1"></path>
        </g>
    </g>
</svg>