<?xml version="1.0" encoding="UTF-8"?>
<svg width="80px" height="80px" viewBox="0 0 80 80" version="1.1" xmlns="http://www.w3.org/2000/svg" xmlns:xlink="http://www.w3.org/1999/xlink">
    <title>Icon-Architecture/64/Arch_AWS-Glue-DataBrew_64</title>
    <defs>
        <linearGradient x1="0%" y1="100%" x2="100%" y2="0%" id="linearGradient-1">
            <stop stop-color="#4D27A8" offset="0%"></stop>
            <stop stop-color="#A166FF" offset="100%"></stop>
        </linearGradient>
    </defs>
    <g id="Icon-Architecture/64/Arch_AWS-Glue-DataBrew_64" stroke="none" stroke-width="1" fill="none" fill-rule="evenodd">
        <g id="Rectangle" fill="url(#linearGradient-1)">
            <rect x="0" y="0" width="80" height="80"></rect>
        </g>
        <g id="Icon-Service/64/AWS-Glue-DataBrew_64" transform="translate(8.000000, 8.000000)" fill="#FFFFFF">
            <path d="M10,32 C10,33.103 9.103,34 8,34 C6.897,34 6,33.103 6,32 C6,30.897 6.897,30 8,30 C9.103,30 10,30.897 10,32 L10,32 Z M4,32 C4,34.206 5.794,36 8,36 C10.206,36 12,34.206 12,32 C12,29.794 10.206,28 8,28 C5.794,28 4,29.794 4,32 L4,32 Z M60,7.945 L60,56.055 C60,58.23 58.23,60 56.056,60 L7.944,60 C5.77,60 4,58.23 4,56.055 L4,38 L6,38 L6,56.055 C6,57.127 6.872,58 7.944,58 L56.056,58 C57.128,58 58,57.127 58,56.055 L58,7.945 C58,6.873 57.128,6 56.056,6 L7.944,6 C6.872,6 6,6.873 6,7.945 L6,26 L4,26 L4,7.945 C4,5.77 5.77,4 7.944,4 L56.056,4 C58.23,4 60,5.77 60,7.945 L60,7.945 Z M13.389,48 C19.098,48 25.646,44.251 28.299,39.466 L30.049,40.436 C27.026,45.888 19.864,50 13.389,50 L9,50 L9,48 L13.389,48 Z M48.129,13 L52.66,13 L50.177,10.517 L51.591,9.103 L55.723,13.234 C55.91,13.421 56.016,13.676 56.016,13.941 C56.016,14.206 55.91,14.46 55.723,14.648 L51.591,18.779 L50.177,17.365 L52.542,15 L48.129,15 C43.091,15 36.534,17.758 33.244,23.919 L31.48,22.977 C34.667,17.009 41.357,13 48.129,13 L48.129,13 Z M26.401,18.428 C29.857,21.918 31.761,26.559 31.759,31.495 C31.758,35.903 33.474,40.048 36.591,43.166 C39.708,46.283 43.854,48 48.263,48 L52.54,48 L50.149,45.61 L51.563,44.196 L55.695,48.327 C55.883,48.515 55.988,48.769 55.988,49.034 C55.988,49.299 55.883,49.554 55.695,49.741 L51.563,53.873 L50.149,52.458 L52.608,50 L48.263,50 C43.319,50 38.672,48.075 35.177,44.58 C31.682,41.084 29.757,36.437 29.759,31.494 C29.76,27.089 28.063,22.948 24.98,19.835 C21.893,16.717 17.776,15 13.39,15 L9,15 L9,13 L13.39,13 C18.314,13 22.936,14.928 26.401,18.428 L26.401,18.428 Z M18,25 C16.897,25 16,24.103 16,23 C16,21.897 16.897,21 18,21 C19.103,21 20,21.897 20,23 C20,24.103 19.103,25 18,25 L18,25 Z M18,19 C15.794,19 14,20.794 14,23 C14,25.206 15.794,27 18,27 C20.206,27 22,25.206 22,23 C22,20.794 20.206,19 18,19 L18,19 Z M22.301,35.974 L20.979,38.883 L18.069,37.56 L19.392,34.651 L22.301,35.974 Z M15.421,38.553 L21.971,41.531 L24.949,34.981 L18.399,32.003 L15.421,38.553 Z M49.999,23 L54.03,23 L54.002,37 L49.986,37 L49.999,23 Z M47.984,39 L55.998,39 L56.034,21 L48.001,21 L47.984,39 Z M37.999,25 L42.03,25 L42.002,37 L37.986,37 L37.999,25 Z M35.984,39 L43.998,39 L44.034,23 L36.001,23 L35.984,39 Z" id="Fill-7"></path>
        </g>
    </g>
</svg>