<?xml version="1.0" encoding="UTF-8"?>
<svg width="64px" height="64px" viewBox="0 0 64 64" version="1.1" xmlns="http://www.w3.org/2000/svg" xmlns:xlink="http://www.w3.org/1999/xlink">
    <!-- Generator: Sketch 64 (93537) - https://sketch.com -->
    <title>Icon-Architecture/48/Arch_AWS-IoT-Analytics_48</title>
    <desc>Created with Sketch.</desc>
    <defs>
        <linearGradient x1="0%" y1="100%" x2="100%" y2="0%" id="linearGradient-1">
            <stop stop-color="#1B660F" offset="0%"></stop>
            <stop stop-color="#6CAE3E" offset="100%"></stop>
        </linearGradient>
    </defs>
    <g id="Icon-Architecture/48/Arch_AWS-IoT-Analytics_48" stroke="none" stroke-width="1" fill="none" fill-rule="evenodd">
        <g id="Icon-Architecture-BG/48/Internet-of-Things" fill="url(#linearGradient-1)">
            <rect id="Rectangle" x="0" y="0" width="64" height="64"></rect>
        </g>
        <path d="M48,35.018872 C46.346,35.018872 45,33.6718136 45,32.016513 C45,30.3612124 46.346,29.014154 48,29.014154 C49.654,29.014154 51,30.3612124 51,32.016513 C51,33.6718136 49.654,35.018872 48,35.018872 M41.268,46.1416113 C38.138,49.2730717 33.981,50.9984273 29.564,50.9984273 C26.759,50.9984273 24.038,50.2918722 21.612,48.9548216 C21.861,48.3613554 22,47.7108442 22,47.028308 C22,46.981271 21.987,46.9372364 21.986,46.8901994 L44.348,35.4101794 C44.804,35.9005647 45.35,36.30188 45.968,36.5790979 C45.496,40.1789263 43.846,43.5615841 41.268,46.1416113 M17,50.030667 C15.346,50.030667 14,48.6836085 14,47.028308 C14,45.3730074 15.346,44.025949 17,44.025949 C18.654,44.025949 20,45.3730074 20,47.028308 C20,48.6836085 18.654,50.030667 17,50.030667 M17.853,22.7081993 C20.437,20.1231682 23.823,18.47087 27.424,18.0055043 C27.695,18.6239903 28.091,19.1724212 28.574,19.6297805 L17.092,42.0333834 C17.062,42.0253771 17.031,42.0243763 17,42.0243763 C16.314,42.0243763 15.661,42.1644864 15.066,42.414683 C13.716,39.9797698 13,37.2376153 13,34.4204017 C13,29.9999285 14.724,25.8406605 17.853,22.7081993 M32,13.0015727 C33.654,13.0015727 35,14.3486311 35,16.0039317 C35,17.6592323 33.654,19.0062907 32,19.0062907 C30.346,19.0062907 29,17.6592323 29,16.0039317 C29,14.3486311 30.346,13.0015727 32,13.0015727 M40.523,22.0376725 L19.731,42.8460219 C19.531,42.7149189 19.317,42.6048324 19.099,42.5027522 L30.281,20.6846093 C30.819,20.882765 31.394,21.0078633 32,21.0078633 C33.573,21.0078633 34.962,20.2622775 35.879,19.1223819 C37.565,19.8199299 39.143,20.8157123 40.523,22.0376725 M47,14.002359 C48.654,14.002359 50,15.3494174 50,17.004718 C50,18.6600186 48.654,20.007077 47,20.007077 C45.346,20.007077 44,18.6600186 44,17.004718 C44,15.3494174 45.346,14.002359 47,14.002359 M43,32.016513 C43,32.6079777 43.121,33.1664165 43.311,33.6938309 L21.502,44.8896276 C21.397,44.6704554 21.289,44.4522839 21.155,44.2511259 L41.938,23.4517835 C43.18,24.8508828 44.165,26.4221174 44.87,28.1454714 C43.739,29.0641933 43,30.4492816 43,32.016513 M48,27.0125813 C47.528,27.0125813 47.08,27.0996497 46.647,27.2217457 C45.849,25.323254 44.748,23.5928944 43.365,22.0516835 L44.267,21.1850025 C45.053,21.702409 45.99,22.0086497 47,22.0086497 C49.757,22.0086497 52,19.7638859 52,17.004718 C52,14.2455501 49.757,12.0007863 47,12.0007863 C44.243,12.0007863 42,14.2455501 42,17.004718 C42,18.030524 42.313,18.9842734 42.844,19.7788977 L41.951,20.6355708 C40.424,19.2604904 38.672,18.1396097 36.795,17.341983 C36.915,16.9136464 37,16.4702981 37,16.0039317 C37,13.2447637 34.757,11 32,11 C29.243,11 27,13.2447637 27,16.0039317 C27,16.0189435 27.004,16.0319537 27.004,16.0469655 C23.027,16.597398 19.294,18.4348417 16.438,21.2930874 C12.932,24.8028451 11,29.4655086 11,34.4204017 C11,37.6429337 11.839,40.7793981 13.416,43.552577 C12.543,44.4542855 12,45.6772464 12,47.028308 C12,49.7874759 14.243,52.0322396 17,52.0322396 C18.35,52.0322396 19.571,51.4888126 20.472,50.616127 C23.236,52.1793552 26.353,53 29.564,53 C34.516,53 39.174,51.0664808 42.682,47.5567231 C45.529,44.7074845 47.364,40.9835585 47.925,37.0124383 C47.95,37.0134391 47.975,37.0204446 48,37.0204446 C50.757,37.0204446 53,34.7756809 53,32.016513 C53,29.2573451 50.757,27.0125813 48,27.0125813" id="AWS-IoT-Analytics-_Icon_48_Squid" fill="#FFFFFF"></path>
    </g>
</svg>