<?xml version="1.0" encoding="UTF-8"?>
<svg width="64px" height="64px" viewBox="0 0 64 64" version="1.1" xmlns="http://www.w3.org/2000/svg" xmlns:xlink="http://www.w3.org/1999/xlink">
    <!-- Generator: Sketch 64 (93537) - https://sketch.com -->
    <title>Icon-Architecture/48/Arch_AWS-IoT-1-Click_48</title>
    <desc>Created with Sketch.</desc>
    <defs>
        <linearGradient x1="0%" y1="100%" x2="100%" y2="0%" id="linearGradient-1">
            <stop stop-color="#1B660F" offset="0%"></stop>
            <stop stop-color="#6CAE3E" offset="100%"></stop>
        </linearGradient>
    </defs>
    <g id="Icon-Architecture/48/Arch_AWS-IoT-1-Click_48" stroke="none" stroke-width="1" fill="none" fill-rule="evenodd">
        <g id="Icon-Architecture-BG/48/Internet-of-Things" fill="url(#linearGradient-1)">
            <rect id="Rectangle" x="0" y="0" width="64" height="64"></rect>
        </g>
        <path d="M48.5,49 C47.121,49 46,47.878 46,46.5 C46,45.122 47.121,44 48.5,44 C49.879,44 51,45.122 51,46.5 C51,47.878 49.879,49 48.5,49 L48.5,49 Z M22.76,38 C20.431,37.998 18.512,36.312 18.391,34.16 C18.385,34.06 18.382,33.957 18.382,33.852 C18.382,31.053 20.416,30.134 21.629,29.835 C22.121,29.714 22.444,29.244 22.382,28.741 C22.351,28.49 22.335,28.233 22.335,27.972 C22.335,25.703 24.021,23.167 26.095,22.317 C27.055,21.924 27.942,21.768 28.746,21.768 C31.029,21.768 32.641,23.03 33.344,23.712 C34.118,24.463 34.725,25.427 35.145,26.576 C35.271,26.919 35.573,27.167 35.934,27.221 C36.299,27.276 36.657,27.13 36.879,26.839 C37.424,26.125 38.305,25.823 39.119,26.073 C40.108,26.375 40.727,27.38 40.813,28.832 C40.841,29.284 41.169,29.662 41.614,29.752 C44.225,30.278 45.549,31.672 45.549,33.896 C45.549,37.6 42.424,38 41.08,38 L22.76,38 Z M14,15.5 C14,14.122 15.121,13 16.5,13 C17.879,13 19,14.122 19,15.5 C19,16.878 17.879,18 16.5,18 C15.121,18 14,16.878 14,15.5 L14,15.5 Z M34,48.5 C34,49.878 32.879,51 31.5,51 C30.121,51 29,49.878 29,48.5 C29,47.122 30.121,46 31.5,46 C32.879,46 34,47.122 34,48.5 L34,48.5 Z M15.5,48 C14.121,48 13,46.878 13,45.5 C13,44.122 14.121,43 15.5,43 C16.879,43 18,44.122 18,45.5 C18,46.878 16.879,48 15.5,48 L15.5,48 Z M44.5,13 C45.879,13 47,14.122 47,15.5 C47,16.878 45.879,18 44.5,18 C43.121,18 42,16.878 42,15.5 C42,14.122 43.121,13 44.5,13 L44.5,13 Z M48.5,42 C48.052,42 47.627,42.086 47.219,42.208 L44.997,38.94 C46.469,38.008 47.549,36.403 47.549,33.896 C47.549,30.901 45.844,28.816 42.726,27.961 C42.478,26.488 41.769,25.327 40.726,24.644 L43.152,19.771 C43.581,19.907 44.027,20 44.5,20 C46.981,20 49,17.981 49,15.5 C49,13.019 46.981,11 44.5,11 C42.019,11 40,13.019 40,15.5 C40,16.787 40.551,17.942 41.42,18.763 L38.812,23.999 C37.979,23.941 37.156,24.143 36.444,24.579 C35.982,23.702 35.411,22.931 34.736,22.277 C32.169,19.786 28.657,19.108 25.337,20.467 C24.555,20.787 23.832,21.273 23.186,21.859 L20.195,18.057 C20.7,17.33 21,16.45 21,15.5 C21,13.019 18.981,11 16.5,11 C14.019,11 12,13.019 12,15.5 C12,17.981 14.019,20 16.5,20 C17.306,20 18.051,19.77 18.705,19.398 L21.845,23.389 C20.907,24.752 20.335,26.375 20.335,27.972 C20.335,28.028 20.336,28.084 20.337,28.14 C17.844,29.058 16.382,31.141 16.382,33.852 C16.382,33.996 16.387,34.137 16.395,34.273 C16.513,36.377 17.76,38.178 19.559,39.173 L17.324,41.395 C16.766,41.145 16.15,41 15.5,41 C13.019,41 11,43.019 11,45.5 C11,47.981 13.019,50 15.5,50 C17.981,50 20,47.981 20,45.5 C20,44.399 19.587,43.403 18.929,42.62 L21.659,39.904 C22.017,39.964 22.384,40 22.759,40 L31.821,40 L30.836,44.067 C28.671,44.391 27,46.246 27,48.5 C27,50.981 29.019,53 31.5,53 C33.981,53 36,50.981 36,48.5 C36,46.493 34.672,44.81 32.854,44.231 L33.879,40 L41.08,40 C41.75,40 42.445,39.914 43.121,39.738 L45.471,43.195 C44.573,44.018 44,45.189 44,46.5 C44,48.981 46.019,51 48.5,51 C50.981,51 53,48.981 53,46.5 C53,44.019 50.981,42 48.5,42 L48.5,42 Z" id="AWS-IoT-1-Click_Icon_48_Squid" fill="#FFFFFF"></path>
    </g>
</svg>