<?xml version="1.0" encoding="UTF-8"?>
<svg width="64px" height="64px" viewBox="0 0 64 64" version="1.1" xmlns="http://www.w3.org/2000/svg" xmlns:xlink="http://www.w3.org/1999/xlink">
    <!-- Generator: Sketch 64 (93537) - https://sketch.com -->
    <title>Icon-Architecture/48/Arch_AWS-IoT-Events_48</title>
    <desc>Created with Sketch.</desc>
    <defs>
        <linearGradient x1="0%" y1="100%" x2="100%" y2="0%" id="linearGradient-1">
            <stop stop-color="#1B660F" offset="0%"></stop>
            <stop stop-color="#6CAE3E" offset="100%"></stop>
        </linearGradient>
    </defs>
    <g id="Icon-Architecture/48/Arch_AWS-IoT-Events_48" stroke="none" stroke-width="1" fill="none" fill-rule="evenodd">
        <g id="Icon-Architecture-BG/48/Internet-of-Things" fill="url(#linearGradient-1)">
            <rect id="Rectangle" x="0" y="0" width="64" height="64"></rect>
        </g>
        <path d="M21.9693878,18 C23.0693182,18 23.9638219,18.897 23.9638219,20 C23.9638219,21.103 23.0693182,22 21.9693878,22 C20.8694573,22 19.9749536,21.103 19.9749536,20 C19.9749536,18.673 20.6460807,18 21.9693878,18 L21.9693878,18 Z M21.9693878,24 C22.7611781,24 23.4941327,23.761 24.1153989,23.361 L26.8288265,25.388 C26.6682746,25.767 26.518692,26.152 26.3910482,26.549 L28.2877551,27.168 C29.8434137,22.377 34.089564,19.078 39.1055659,18.764 L38.9809137,16.768 C34.250116,17.064 30.1086735,19.643 27.7442718,23.578 L25.4696197,21.878 C25.7717764,21.315 25.958256,20.682 25.958256,20 C25.958256,17.794 24.1692486,16 21.9693878,16 C19.5461503,16 17.9805195,17.57 17.9805195,20 C17.9805195,22.206 19.7695269,24 21.9693878,24 L21.9693878,24 Z M52.0095547,30.183 C51.9277829,28.864 51.63859,27.583 51.1519481,26.372 L52.9997913,25.623 C53.568205,27.033 53.9042672,28.525 54,30.058 L52.0095547,30.183 Z M51.7632421,33.518 L53.7128015,33.94 C53.3218924,35.757 52.5889378,37.458 51.532885,38.996 L49.8894712,37.862 C50.7969388,36.54 51.4281772,35.079 51.7632421,33.518 L51.7632421,33.518 Z M42.9109462,33 L53.880334,33 L53.880334,31 L42.9109462,31 L42.9109462,33 Z M14.9888683,34 C13.8889378,34 12.9944341,33.103 12.9944341,32 C12.9944341,30.897 13.8889378,30 14.9888683,30 C16.0887987,30 16.9833024,30.897 16.9833024,32 C16.9833024,33.103 16.0887987,34 14.9888683,34 L14.9888683,34 Z M32.8370594,33 C33.0793831,34.316 33.666744,35.548 34.5801948,36.571 C35.8895408,38.042 37.6915121,38.912 39.653038,39.023 C39.7946429,39.031 39.9352505,39.035 40.0748609,39.035 C43.107398,39.035 45.8298006,37.181 46.9327226,34.318 L45.0729128,33.598 C44.2312616,35.779 42.1221475,37.151 39.7657236,37.026 C38.3357143,36.945 37.0223794,36.311 36.0670455,35.239 C35.1127087,34.167 34.6310529,32.787 34.7108302,31.352 C34.7916048,29.917 35.4248377,28.6 36.4938544,27.643 C37.5638683,26.685 38.9619666,26.204 40.3690399,26.283 C42.7144944,26.416 44.6810065,28.035 45.2653757,30.313 L47.1979824,29.815 C46.3952226,26.69 43.6967532,24.468 40.4817254,24.286 C38.5032468,24.179 36.6314703,24.838 35.164564,26.151 C33.7594852,27.41 32.9108534,29.126 32.7463126,31 L18.8351345,31 C18.3903757,29.28 16.8416976,28 14.9888683,28 C12.7890074,28 11,29.794 11,32 C11,34.206 12.7890074,36 14.9888683,36 C16.8416976,36 18.3903757,34.72 18.8351345,33 L32.8370594,33 Z M40.4518089,39.807 L40.576461,41.803 C40.3560761,41.816 40.1376855,41.823 39.919295,41.823 C35.1815167,41.823 30.9453386,38.617 29.69782,33.99 L31.622449,33.467 C32.6814935,37.395 36.3981215,40.059 40.4518089,39.807 L40.4518089,39.807 Z M39.37282,20.61 C44.5892625,20.293 49.1864332,23.737 50.3501855,28.818 L48.4066095,29.266 C47.4602505,25.143 43.7037338,22.342 39.4974722,22.606 C35.4298237,22.861 32.0751855,25.98 31.5197356,30.021 L29.5452458,29.749 C30.2283395,24.768 34.3618043,20.924 39.37282,20.61 L39.37282,20.61 Z M21.9693878,47 C20.8694573,47 19.9749536,46.103 19.9749536,45 C19.9749536,43.897 20.8694573,43 21.9693878,43 C23.0693182,43 23.9638219,43.897 23.9638219,45 C23.9638219,46.103 23.0693182,47 21.9693878,47 L21.9693878,47 Z M40.622333,43.123 C35.807769,43.428 31.2325371,40.826 29.0237013,36.497 L27.2476577,37.408 C27.419179,37.743 27.6036642,38.066 27.7991187,38.384 L24.0535714,41.605 C23.4442718,41.229 22.7362477,41 21.9693878,41 C19.7695269,41 17.9805195,42.794 17.9805195,45 C17.9805195,47.206 19.7695269,49 21.9693878,49 C24.1692486,49 25.958256,47.206 25.958256,45 C25.958256,44.29 25.7578154,43.633 25.4327226,43.054 L28.9678571,40.015 C31.6324212,43.234 35.6123145,45.147 39.8574675,45.147 C40.1526438,45.147 40.4498145,45.138 40.7469852,45.119 C43.5790816,44.942 46.2596011,43.934 48.5003479,42.203 L47.283743,40.618 C45.3591141,42.104 43.0565399,42.971 40.622333,43.123 L40.622333,43.123 Z" id="AWS-IoT-Events_Icon_48_Squid" fill="#FFFFFF"></path>
    </g>
</svg>