<?xml version="1.0" encoding="UTF-8"?>
<svg width="64px" height="64px" viewBox="0 0 64 64" version="1.1" xmlns="http://www.w3.org/2000/svg" xmlns:xlink="http://www.w3.org/1999/xlink">
    <!-- Generator: Sketch 64 (93537) - https://sketch.com -->
    <title>Icon-Architecture/48/Arch_AWS-IoT-Button_48</title>
    <desc>Created with Sketch.</desc>
    <defs>
        <linearGradient x1="0%" y1="100%" x2="100%" y2="0%" id="linearGradient-1">
            <stop stop-color="#1B660F" offset="0%"></stop>
            <stop stop-color="#6CAE3E" offset="100%"></stop>
        </linearGradient>
    </defs>
    <g id="Icon-Architecture/48/Arch_AWS-IoT-Button_48" stroke="none" stroke-width="1" fill="none" fill-rule="evenodd">
        <g id="Icon-Architecture-BG/48/Internet-of-Things" fill="url(#linearGradient-1)">
            <rect id="Rectangle" x="0" y="0" width="64" height="64"></rect>
        </g>
        <path d="M33,34.5 C34.104,34.5 35,33.604 35,32.5 C35,31.396 34.104,30.5 33,30.5 C31.896,30.5 31,31.396 31,32.5 C31,33.604 31.896,34.5 33,34.5 L33,34.5 Z M39,32.5 C39,34.43 40.57,36 42.5,36 C44.43,36 46,34.43 46,32.5 C46,30.57 44.43,29 42.5,29 C40.57,29 39,30.57 39,32.5 L39,32.5 Z M37,32.5 C37,29.467 39.468,27 42.5,27 C45.532,27 48,29.467 48,32.5 C48,35.533 45.532,38 42.5,38 C39.468,38 37,35.533 37,32.5 L37,32.5 Z M13,32.499 C13,36.843 15.944,39.997 20,39.997 C20.026,39.997 20.052,39.998 20.077,40 L43.923,40 C43.948,39.998 43.975,39.997 44,39.997 C48.056,39.997 51,36.843 51,32.499 C51,28.155 48.056,25.003 44,25.003 C43.974,25.003 43.948,25.002 43.923,25 L20.077,25 C20.052,25.002 20.025,25.003 20,25.003 C15.944,25.003 13,28.155 13,32.499 L13,32.499 Z M11,32.499 C11,27.114 14.828,23.046 19.919,23.003 C19.945,23.001 19.973,23 20,23 L44,23 C44.027,23 44.055,23.001 44.081,23.003 C49.172,23.046 53,27.114 53,32.499 C53,37.885 49.172,41.954 44.081,41.997 C44.055,41.999 44.027,42 44,42 L20,42 C19.973,42 19.945,41.999 19.919,41.997 C14.828,41.954 11,37.885 11,32.499 L11,32.499 Z M14,14 L21,14 L21,12 L13,12 C12.447,12 12,12.448 12,13 L12,21 L14,21 L14,14 Z M50,21 L52,21 L52,13 C52,12.448 51.553,12 51,12 L43,12 L43,14 L50,14 L50,21 Z M14,43 L12,43 L12,51 C12,51.552 12.447,52 13,52 L21,52 L21,50 L14,50 L14,43 Z M50,43 L52,43 L52,51 C52,51.552 51.553,52 51,52 L43,52 L43,50 L50,50 L50,43 Z" id="AWS-IoT-Button_Icon_48_Squid" fill="#FFFFFF"></path>
    </g>
</svg>