<?xml version="1.0" encoding="UTF-8"?>
<svg width="64px" height="64px" viewBox="0 0 64 64" version="1.1" xmlns="http://www.w3.org/2000/svg" xmlns:xlink="http://www.w3.org/1999/xlink">
    <!-- Generator: Sketch 64 (93537) - https://sketch.com -->
    <title>Icon-Architecture/48/Arch_AWS-IoT-Things-Graph_48</title>
    <desc>Created with Sketch.</desc>
    <defs>
        <linearGradient x1="0%" y1="100%" x2="100%" y2="0%" id="linearGradient-1">
            <stop stop-color="#1B660F" offset="0%"></stop>
            <stop stop-color="#6CAE3E" offset="100%"></stop>
        </linearGradient>
    </defs>
    <g id="Icon-Architecture/48/Arch_AWS-IoT-Things-Graph_48" stroke="none" stroke-width="1" fill="none" fill-rule="evenodd">
        <g id="Icon-Architecture-BG/48/Internet-of-Things" fill="url(#linearGradient-1)">
            <rect id="Rectangle" x="0" y="0" width="64" height="64"></rect>
        </g>
        <path d="M13,27.3672653 L15,27.3672653 L15,22.3672653 L13,22.3672653 L13,27.3672653 Z M20,27.3672653 L22,27.3672653 L22,22.3672653 L20,22.3672653 L20,27.3672653 Z M20,17.3672653 L22,17.3672653 L22,12.3672653 L20,12.3672653 L20,17.3672653 Z M30,21.3672653 L32,21.3672653 L32,16.3672653 L30,16.3672653 L30,21.3672653 Z M16,29.3672653 C16.552,29.3672653 17,28.9192653 17,28.3672653 L17,26.3672653 L18,26.3672653 L18,28.3672653 C18,28.9192653 18.447,29.3672653 19,29.3672653 L23,29.3672653 C23.552,29.3672653 24,28.9192653 24,28.3672653 L24,26.3672653 L26,26.3672653 C26.552,26.3672653 27,25.9192653 27,25.3672653 L27,20.3672653 L28,20.3672653 L28,22.3672653 C28,22.9192653 28.447,23.3672653 29,23.3672653 L33,23.3672653 C33.552,23.3672653 34,22.9192653 34,22.3672653 L34,15.3672653 C34,14.8152653 33.552,14.3672653 33,14.3672653 L29,14.3672653 C28.447,14.3672653 28,14.8152653 28,15.3672653 L28,18.3672653 L27,18.3672653 L27,15.3672653 C27,14.8152653 26.552,14.3672653 26,14.3672653 L24,14.3672653 L24,11.3672653 C24,10.8152653 23.552,10.3672653 23,10.3672653 L19,10.3672653 C18.447,10.3672653 18,10.8152653 18,11.3672653 L18,18.3672653 C18,18.9192653 18.447,19.3672653 19,19.3672653 L23,19.3672653 C23.552,19.3672653 24,18.9192653 24,18.3672653 L24,16.3672653 L25,16.3672653 L25,24.3672653 L24,24.3672653 L24,21.3672653 C24,20.8152653 23.552,20.3672653 23,20.3672653 L19,20.3672653 C18.447,20.3672653 18,20.8152653 18,21.3672653 L18,24.3672653 L17,24.3672653 L17,21.3672653 C17,20.8152653 16.552,20.3672653 16,20.3672653 L12,20.3672653 C11.447,20.3672653 11,20.8152653 11,21.3672653 L11,28.3672653 C11,28.9192653 11.447,29.3672653 12,29.3672653 L16,29.3672653 Z M26.389,12.5522653 L25.888,10.6152653 C27.722,10.1412653 29.619,9.93826527 31.529,10.0162653 C38.47,10.2932653 44.769,14.3012653 47.967,20.4752653 L46.192,21.3952653 C43.323,15.8582653 37.673,12.2632653 31.449,12.0142653 C29.73,11.9472653 28.035,12.1262653 26.389,12.5522653 L26.389,12.5522653 Z M44.609,39.8662653 L46.203,41.0742653 C44.288,43.5992653 41.758,45.6372653 38.888,46.9672653 L38.046,45.1532653 C40.622,43.9592653 42.891,42.1312653 44.609,39.8662653 L44.609,39.8662653 Z M15.359,37.4422653 L13.589,38.3732653 C12.456,36.2172653 11.75,33.8962653 11.489,31.4742653 L13.477,31.2602653 C13.71,33.4312653 14.344,35.5112653 15.359,37.4422653 L15.359,37.4422653 Z M26.053,45.2762653 C24.436,45.2762653 23.12,43.9592653 23.12,42.3422653 C23.12,40.7242653 24.436,39.4082653 26.053,39.4082653 C27.671,39.4082653 28.988,40.7242653 28.988,42.3422653 C28.988,43.9592653 27.671,45.2762653 26.053,45.2762653 L26.053,45.2762653 Z M26.053,37.4082653 C23.333,37.4082653 21.12,39.6222653 21.12,42.3422653 C21.12,45.0622653 23.333,47.2762653 26.053,47.2762653 C28.774,47.2762653 30.988,45.0622653 30.988,42.3422653 C30.988,39.6222653 28.774,37.4082653 26.053,37.4082653 L26.053,37.4082653 Z M34.888,43.2382653 L34.313,43.2052653 C33.85,43.1742653 33.389,43.5062653 33.281,43.9832653 C33.096,44.8042653 32.774,45.5802653 32.325,46.2932653 C32.064,46.7062653 32.14,47.2472653 32.504,47.5732653 L32.934,47.9562653 L31.667,49.2232653 L31.287,48.7962653 C30.96,48.4302653 30.417,48.3572653 30.006,48.6172653 C29.295,49.0662653 28.518,49.3882653 27.695,49.5742653 C27.218,49.6822653 26.889,50.1192653 26.917,50.6072653 L26.95,51.1772653 L25.158,51.1772653 L25.19,50.6062653 C25.218,50.1182653 24.889,49.6812653 24.413,49.5732653 C23.593,49.3892653 22.816,49.0662653 22.102,48.6152653 C21.689,48.3542653 21.147,48.4282653 20.822,48.7952653 L20.44,49.2232653 L19.173,47.9562653 L19.601,47.5742653 C19.965,47.2492653 20.041,46.7082653 19.781,46.2942653 C19.331,45.5812653 19.009,44.8042653 18.825,43.9842653 C18.717,43.5062653 18.237,43.1742653 17.792,43.2052653 L17.219,43.2382653 L17.219,41.4462653 L17.795,41.4792653 C18.26,41.4942653 18.719,41.1792653 18.828,40.7022653 C19.013,39.8832653 19.335,39.1072653 19.786,38.3952653 C20.046,37.9812653 19.97,37.4402653 19.606,37.1152653 L19.173,36.7282653 L20.44,35.4612653 L20.826,35.8942653 C21.15,36.2592653 21.693,36.3342653 22.105,36.0742653 C22.817,35.6252653 23.593,35.3042653 24.412,35.1192653 C24.889,35.0122653 25.218,34.5752653 25.19,34.0872653 L25.158,33.5072653 L26.95,33.5072653 L26.917,34.0882653 C26.889,34.5762653 27.218,35.0122653 27.695,35.1202653 C28.513,35.3052653 29.289,35.6262653 30,36.0752653 C30.411,36.3352653 30.954,36.2602653 31.28,35.8952653 L31.666,35.4612653 L32.934,36.7282653 L32.502,37.1132653 C32.138,37.4382653 32.062,37.9802653 32.323,38.3932653 C32.772,39.1042653 33.094,39.8812653 33.28,40.7012653 C33.388,41.1792653 33.85,41.4942653 34.312,41.4792653 L34.888,41.4462653 L34.888,43.2382653 Z M35.832,39.3892653 L35.004,39.4362653 C34.852,38.9652653 34.663,38.5082653 34.437,38.0682653 L35.056,37.5172653 C35.261,37.3332653 35.382,37.0742653 35.39,36.7982653 C35.398,36.5232653 35.291,36.2572653 35.097,36.0632653 L32.333,33.2992653 C32.138,33.1042653 31.877,32.9962653 31.597,33.0062653 C31.322,33.0142653 31.062,33.1352653 30.879,33.3402653 L30.325,33.9612653 C29.885,33.7362653 29.429,33.5472653 28.959,33.3952653 L29.006,32.5642653 C29.022,32.2892653 28.924,32.0202653 28.735,31.8202653 C28.546,31.6212653 28.284,31.5072653 28.008,31.5072653 L24.099,31.5072653 C23.824,31.5072653 23.561,31.6212653 23.373,31.8202653 C23.183,32.0202653 23.085,32.2892653 23.101,32.5642653 L23.148,33.3932653 C22.677,33.5462653 22.221,33.7352653 21.781,33.9602653 L21.227,33.3402653 C21.043,33.1352653 20.785,33.0142653 20.509,33.0062653 C20.246,32.9982653 19.968,33.1042653 19.774,33.2992653 L17.01,36.0632653 C16.816,36.2572653 16.709,36.5232653 16.717,36.7982653 C16.725,37.0742653 16.846,37.3332653 17.051,37.5162653 L17.671,38.0692653 C17.446,38.5102653 17.256,38.9662653 17.103,39.4362653 L16.276,39.3892653 C16.008,39.3742653 15.732,39.4712653 15.533,39.6602653 C15.333,39.8492653 15.219,40.1122653 15.219,40.3872653 L15.219,44.2972653 C15.219,44.5722653 15.333,44.8352653 15.533,45.0242653 C15.733,45.2122653 15.995,45.3112653 16.277,45.2952653 L17.099,45.2482653 C17.251,45.7202653 17.441,46.1782653 17.666,46.6202653 L17.051,47.1682653 C16.846,47.3512653 16.725,47.6112653 16.717,47.8862653 C16.709,48.1612653 16.816,48.4272653 17.01,48.6222653 L19.774,51.3862653 C19.968,51.5812653 20.243,51.6972653 20.509,51.6782653 C20.785,51.6702653 21.044,51.5502653 21.227,51.3442653 L21.776,50.7292653 C22.218,50.9552653 22.676,51.1452653 23.148,51.2982653 L23.101,52.1202653 C23.085,52.3942653 23.183,52.6642653 23.373,52.8632653 C23.561,53.0632653 23.824,53.1772653 24.099,53.1772653 L28.008,53.1772653 C28.284,53.1772653 28.546,53.0632653 28.735,52.8632653 C28.924,52.6642653 29.022,52.3942653 29.006,52.1202653 L28.959,51.2992653 C29.432,51.1462653 29.89,50.9562653 30.333,50.7312653 L30.879,51.3442653 C31.062,51.5502653 31.322,51.6702653 31.597,51.6782653 C31.853,51.7002653 32.139,51.5812653 32.333,51.3862653 L35.097,48.6222653 C35.291,48.4272653 35.398,48.1612653 35.39,47.8862653 C35.382,47.6112653 35.261,47.3512653 35.056,47.1682653 L34.439,46.6182653 C34.665,46.1772653 34.854,45.7192653 35.006,45.2482653 L35.832,45.2952653 C36.099,45.3112653 36.375,45.2122653 36.575,45.0242653 C36.775,44.8352653 36.888,44.5722653 36.888,44.2972653 L36.888,40.3872653 C36.888,40.1122653 36.775,39.8492653 36.575,39.6602653 C36.375,39.4712653 36.1,39.3752653 35.832,39.3892653 L35.832,39.3892653 Z M46.203,31.9942653 C45.892,32.1822653 45.527,32.2402653 45.172,32.1522653 C44.819,32.0652653 44.521,31.8462653 44.333,31.5362653 C43.944,30.8932653 44.149,30.0542653 44.791,29.6652653 C45.011,29.5322653 45.254,29.4682653 45.495,29.4682653 C45.956,29.4682653 46.406,29.7022653 46.662,30.1242653 C47.05,30.7662653 46.844,31.6042653 46.203,31.9942653 L46.203,31.9942653 Z M48.373,29.0872653 C47.411,27.5022653 45.339,26.9942653 43.754,27.9552653 C42.169,28.9152653 41.662,30.9872653 42.622,32.5722653 C43.087,33.3402653 43.824,33.8802653 44.696,34.0942653 C44.964,34.1602653 45.235,34.1922653 45.503,34.1922653 C46.11,34.1922653 46.708,34.0272653 47.24,33.7042653 C48.825,32.7432653 49.333,30.6722653 48.373,29.0872653 Z M50.607,33.4142653 L49.023,33.1842653 C48.751,33.1472653 48.472,33.2202653 48.255,33.3932653 L47.397,34.0782653 C47.176,34.2542653 47.041,34.5152653 47.023,34.7962653 L46.921,36.4022653 L44.632,36.5242653 L44.356,34.9202653 C44.309,34.6452653 44.149,34.4022653 43.916,34.2502653 L43.019,33.6682653 C42.855,33.5622653 42.666,33.5072653 42.474,33.5072653 C42.391,33.5072653 42.307,33.5182653 42.225,33.5392653 L40.651,33.9432653 L39.828,31.8032653 L41.253,31.0532653 C41.502,30.9222653 41.685,30.6922653 41.755,30.4192653 L42.032,29.3562653 C42.101,29.0882653 42.057,28.8022653 41.908,28.5682653 L41.051,27.2192653 L42.833,25.7742653 L43.992,26.9032653 C44.19,27.0962653 44.467,27.1992653 44.737,27.1852653 L45.814,27.1342653 C46.095,27.1202653 46.358,26.9892653 46.537,26.7722653 L47.57,25.5212653 L49.495,26.7682653 L48.777,28.2252653 C48.653,28.4772653 48.64,28.7692653 48.742,29.0302653 L49.134,30.0382653 C49.235,30.2972653 49.439,30.5032653 49.698,30.6052653 L51.199,31.1992653 L50.607,33.4142653 Z M52.763,29.6672653 L50.839,28.9062653 L50.765,28.7152653 L51.681,26.8552653 C51.906,26.4002653 51.754,25.8502653 51.329,25.5742653 L47.911,23.3592653 C47.485,23.0822653 46.918,23.1712653 46.596,23.5612653 L45.277,25.1572653 L45.076,25.1672653 L43.59,23.7212653 C43.228,23.3672653 42.657,23.3412653 42.263,23.6612653 L39.1,26.2272653 C38.706,26.5472653 38.614,27.1112653 38.886,27.5402653 L39.987,29.2732653 L39.931,29.4892653 L38.109,30.4472653 C37.661,30.6832653 37.459,31.2182653 37.641,31.6912653 L39.104,35.4932653 C39.286,35.9662653 39.794,36.2262653 40.287,36.1022653 L42.297,35.5852653 L42.459,35.6902653 L42.812,37.7402653 C42.895,38.2222653 43.313,38.5702653 43.796,38.5702653 C43.815,38.5702653 43.833,38.5702653 43.851,38.5692653 L47.917,38.3522653 C48.423,38.3252653 48.83,37.9232653 48.862,37.4162653 L48.991,35.3642653 L49.165,35.2262653 L51.2,35.5212653 C51.702,35.5932653 52.178,35.2802653 52.309,34.7902653 L53.361,30.8552653 C53.493,30.3642653 53.235,29.8532653 52.763,29.6672653 L52.763,29.6672653 Z" id="AWS-IoT-Things-Graph_Icon_48_Squid" fill="#FFFFFF"></path>
    </g>
</svg>