<?xml version="1.0" encoding="UTF-8"?>
<svg width="64px" height="64px" viewBox="0 0 64 64" version="1.1" xmlns="http://www.w3.org/2000/svg" xmlns:xlink="http://www.w3.org/1999/xlink">
    <!-- Generator: Sketch 64 (93537) - https://sketch.com -->
    <title>Icon-Architecture/48/Arch_AWS-IoT-Device-Defender_48</title>
    <desc>Created with Sketch.</desc>
    <defs>
        <linearGradient x1="0%" y1="100%" x2="100%" y2="0%" id="linearGradient-1">
            <stop stop-color="#1B660F" offset="0%"></stop>
            <stop stop-color="#6CAE3E" offset="100%"></stop>
        </linearGradient>
    </defs>
    <g id="Icon-Architecture/48/Arch_AWS-IoT-Device-Defender_48" stroke="none" stroke-width="1" fill="none" fill-rule="evenodd">
        <g id="Icon-Architecture-BG/48/Internet-of-Things" fill="url(#linearGradient-1)">
            <rect id="Rectangle" x="0" y="0" width="64" height="64"></rect>
        </g>
        <path d="M32,23.9892878 C33.654,23.9892878 35,22.6451818 35,20.9935091 C35,19.3418365 33.654,17.9977305 32,17.9977305 C30.346,17.9977305 29,19.3418365 29,20.9935091 C29,22.6451818 30.346,23.9892878 32,23.9892878 L32,23.9892878 Z M21,32.9766238 C21,31.3249512 19.654,29.9808452 18,29.9808452 C16.346,29.9808452 15,31.3249512 15,32.9766238 C15,34.6282965 16.346,35.9724025 18,35.9724025 C19.654,35.9724025 21,34.6282965 21,32.9766238 L21,32.9766238 Z M43,32.9766238 C43,34.6282965 44.346,35.9724025 46,35.9724025 C47.654,35.9724025 49,34.6282965 49,32.9766238 C49,31.3249512 47.654,29.9808452 46,29.9808452 C44.346,29.9808452 43,31.3249512 43,32.9766238 L43,32.9766238 Z M37,33.9752167 L37,49.4753756 L46.558,44.7759975 C48.062,44.024057 49,42.5121874 49,40.8305569 L49,38.9681812 L51,38.9681812 L51,40.8305569 C51,43.2731152 49.639,45.4700195 47.446,46.5644773 L32.534,53.8971449 C32.396,53.9660478 32.244,54 32.093,54 C31.934,54 31.775,53.9630521 31.631,53.887159 L17.539,46.5574872 C15.361,45.4700195 14,43.2731152 14,40.8305569 L14,38.9681812 L16,38.9681812 L16,40.8305569 C16,42.5121874 16.938,44.024057 18.448,44.7779946 L27,49.226726 L27,33.9752167 L22.898,33.9752167 C22.435,36.2510099 20.414,37.9695883 18,37.9695883 C15.243,37.9695883 13,35.7297445 13,32.9766238 C13,30.2235032 15.243,27.9836594 18,27.9836594 C20.414,27.9836594 22.435,29.7022378 22.898,31.978031 L28,31.978031 C28.553,31.978031 29,32.4254006 29,32.9766238 L29,50.2662612 L30.998,51.3057964 L31,25.8856157 C28.721,25.42127 27,23.405111 27,20.9935091 C27,18.2403885 29.243,16.0005447 32,16.0005447 C34.757,16.0005447 37,18.2403885 37,20.9935091 C37,23.405111 35.279,25.42127 33,25.8856157 L32.998,51.4436022 L35,50.4589896 L35,32.9766238 C35,32.4254006 35.447,31.978031 36,31.978031 L41.102,31.978031 C41.565,29.7022378 43.586,27.9836594 46,27.9836594 C48.757,27.9836594 51,30.2235032 51,32.9766238 C51,35.7297445 48.757,37.9695883 46,37.9695883 C43.586,37.9695883 41.565,36.2510099 41.102,33.9752167 L37,33.9752167 Z M51,15.4083791 L51,26.9850665 L49,26.9850665 L49,16.3909945 C41.921,16.2252281 34.638,14.8501657 32.064,12.6692388 C29.385,14.8311924 21.983,16.2012619 16,16.3870001 L16,26.9850665 L14,26.9850665 L14,15.4083791 C14,14.8601516 14.442,14.4147792 14.991,14.4097862 C23.963,14.3308974 30.518,11.9382688 31.095,10.8767646 C31.099,10.8288321 31.105,10.7818982 31.114,10.735963 C31.171,10.2436567 31.587,10 32.101,10 C32.653,10 33.093,10.3934456 33.093,10.9446689 C33.448,11.8214334 39.204,14.3289002 50.008,14.4097862 C50.557,14.4137806 51,14.859153 51,15.4083791 L51,15.4083791 Z" id="AWS-IoT-Device-Defender_Icon_48_Squid" fill="#FFFFFF"></path>
    </g>
</svg>