<?xml version="1.0" encoding="UTF-8"?>
<svg width="64px" height="64px" viewBox="0 0 64 64" version="1.1" xmlns="http://www.w3.org/2000/svg" xmlns:xlink="http://www.w3.org/1999/xlink">
    <!-- Generator: Sketch 64 (93537) - https://sketch.com -->
    <title>Icon-Architecture/48/Arch_AWS-IoT-Core_48</title>
    <desc>Created with Sketch.</desc>
    <defs>
        <linearGradient x1="0%" y1="100%" x2="100%" y2="0%" id="linearGradient-1">
            <stop stop-color="#1B660F" offset="0%"></stop>
            <stop stop-color="#6CAE3E" offset="100%"></stop>
        </linearGradient>
    </defs>
    <g id="Icon-Architecture/48/Arch_AWS-IoT-Core_48" stroke="none" stroke-width="1" fill="none" fill-rule="evenodd">
        <g id="Icon-Architecture-BG/48/Internet-of-Things" fill="url(#linearGradient-1)">
            <rect id="Rectangle" x="0" y="0" width="64" height="64"></rect>
        </g>
        <path d="M47.147006,38.9953317 C47.147006,38.1680347 46.4747136,37.494793 45.6485832,37.494793 C44.8224527,37.494793 44.1501603,38.1680347 44.1501603,38.9953317 C44.1501603,39.8226286 44.8224527,40.4958703 45.6485832,40.4958703 C46.4747136,40.4958703 47.147006,39.8226286 47.147006,38.9953317 M44.2840194,42.2184887 C43.3360173,41.8133433 42.6157753,40.9950495 42.3150918,39.9956908 L41.1533147,39.9956908 L41.1533147,45.9008105 C42.4589404,45.013492 43.5857544,43.6960191 44.2840194,42.2184887 M39.1554175,46.8531524 L39.1554175,38.9953317 C39.1554175,38.4431334 39.6019476,37.9949726 40.1543661,37.9949726 L42.3150918,37.9949726 C42.6197711,36.9836095 43.3539983,36.1593136 44.3199816,35.7601703 C43.3959542,33.5883907 41.6258173,31.4696301 39.4650916,30.7163597 C39.0824943,31.7327246 38.2453754,32.5150054 37.1994763,32.8301185 L37.1994763,47.1762684 C37.8597813,47.1192479 38.5700337,47.0102088 39.1554175,46.8531524 M35.2015792,47.172267 L35.2015792,32.8301185 C34.1516842,32.514005 33.3125674,31.7267224 32.932967,30.7053558 C30.7322833,31.4426204 28.8952169,33.6033961 27.962199,35.7611707 C28.9261843,36.1613143 29.6594126,36.9846099 29.9630929,37.9949726 L32.1238187,37.9949726 C32.6762372,37.9949726 33.1227672,38.4431334 33.1227672,38.9953317 L33.1227672,46.7801262 C33.6881721,46.9601908 34.447373,47.1012415 35.2015792,47.172267 M31.1248701,45.7707639 L31.1248701,39.9956908 L29.9630929,39.9956908 C29.6614105,40.9970502 28.9391707,41.818345 27.9871727,42.2214898 C28.6654588,43.5869799 29.7982664,44.8654389 31.1248701,45.7707639 M26.6296016,40.4958703 C27.4557321,40.4958703 28.1280244,39.8226286 28.1280244,38.9953317 C28.1280244,38.1680347 27.4557321,37.494793 26.6296016,37.494793 C25.8034711,37.494793 25.1311788,38.1680347 25.1311788,38.9953317 C25.1311788,39.8226286 25.8034711,40.4958703 26.6296016,40.4958703 M34.7021049,29.4919202 C34.7021049,30.3192172 35.3743973,30.9924588 36.2005277,30.9924588 C37.0266582,30.9924588 37.6989506,30.3192172 37.6989506,29.4919202 C37.6989506,28.6646232 37.0266582,27.9913815 36.2005277,27.9913815 C35.3743973,27.9913815 34.7021049,28.6646232 34.7021049,29.4919202 M49.1449031,38.9953317 C49.1449031,40.6819371 47.9481627,42.0924434 46.3608335,42.4225619 C45.3808649,44.9164572 43.4369111,47.0762325 41.1533147,48.208639 L41.1533147,52 L39.1554175,52 L39.1554175,48.90789 C38.5130936,49.0449392 37.8278149,49.1379726 37.1994763,49.1849895 L37.1994763,52 L35.2015792,52 L35.2015792,49.1799877 C34.5302857,49.1259683 33.7980564,49.0209306 33.1227672,48.8568717 L33.1227672,52 L31.1248701,52 L31.1248701,48.0955984 C28.8013158,46.8921664 26.8283924,44.7483969 25.9003692,42.4175601 C24.3220304,42.0804391 23.1332817,40.6749346 23.1332817,38.9953317 C23.1332817,37.3217309 24.3140389,35.9232289 25.8823881,35.5791053 C26.9882241,32.5700251 29.572504,29.4789155 32.817089,28.6506182 C33.1956905,27.1280716 34.563251,25.9906633 36.2005277,25.9906633 C37.8398023,25.9906633 39.2093608,27.1310727 39.5859644,28.6576207 C42.8874894,29.5269327 45.3339144,32.6630585 46.3967956,35.5791053 C47.9651449,35.9242292 49.1449031,37.3227312 49.1449031,38.9953317 M52.9988466,31.3655928 C53.0368067,33.6284051 52.1357551,35.8281947 50.5903817,37.2837172 L49.2228211,35.826194 C50.3646193,34.750808 51.0289201,33.1082183 50.9999506,31.4316165 C51.0009495,28.190453 48.6274478,25.5735136 45.4817588,25.279408 C44.9433255,25.22939 44.5427471,24.7592213 44.5777103,24.218027 C44.5876998,24.0729749 44.5926945,24.0219566 44.5926945,23.9699379 C44.5926945,21.9362079 42.9514221,20.2816139 40.932547,20.2816139 C39.9895396,20.2816139 39.0924838,20.6447443 38.409203,21.3029806 C38.1654595,21.5370646 37.8198233,21.6310983 37.495165,21.5580721 C37.1675099,21.4830452 36.8987928,21.2479608 36.7809168,20.9328477 C35.456311,17.3845739 32.0459007,15.0007182 28.2938499,15.0007182 C23.2891176,15.0007182 19.2184023,19.1011902 19.2184023,24.1430001 C19.2184023,24.5751552 18.9406946,24.9632945 18.5301267,25.098343 C15.8199793,25.9856615 13.9978971,28.5105679 13.9978971,31.3825989 C13.9978971,35.0289078 16.9427975,37.9949726 20.5609891,37.9949726 L20.5609891,39.9956908 C15.8399582,39.9956908 12,36.1313035 12,31.3825989 C12,27.8833427 14.0788119,24.7782281 17.2414831,23.4457498 C17.6031025,17.6226594 22.4220303,13 28.2938499,13 C32.4364896,13 36.2384878,15.3778536 38.1225047,19.0331658 C38.9696131,18.5429898 39.9335985,18.2808957 40.932547,18.2808957 C43.8694558,18.2808957 46.2899081,20.5407069 46.564619,23.4217411 C50.2896982,24.1890166 52.9988466,27.4581901 52.9988466,31.3655928" id="AWS-IoT-Core_Icon_48_Squid" fill="#FFFFFF"></path>
    </g>
</svg>