<?xml version="1.0" encoding="UTF-8"?>
<svg width="64px" height="64px" viewBox="0 0 64 64" version="1.1" xmlns="http://www.w3.org/2000/svg" xmlns:xlink="http://www.w3.org/1999/xlink">
    <!-- Generator: Sketch 64 (93537) - https://sketch.com -->
    <title>Icon-Architecture/48/Arch_Amazon-FreeRTOS_48</title>
    <desc>Created with Sketch.</desc>
    <defs>
        <linearGradient x1="0%" y1="100%" x2="100%" y2="0%" id="linearGradient-1">
            <stop stop-color="#1B660F" offset="0%"></stop>
            <stop stop-color="#6CAE3E" offset="100%"></stop>
        </linearGradient>
    </defs>
    <g id="Icon-Architecture/48/Arch_Amazon-FreeRTOS_48" stroke="none" stroke-width="1" fill="none" fill-rule="evenodd">
        <g id="Icon-Architecture-BG/48/Internet-of-Things" fill="url(#linearGradient-1)">
            <rect id="Rectangle" x="0" y="0" width="64" height="64"></rect>
        </g>
        <path d="M22.526,29.355 C23.492,29.355 24.278,30.141 24.278,31.106 C24.278,32.072 23.492,32.858 22.526,32.858 C21.56,32.858 20.774,32.072 20.774,31.106 C20.774,30.141 21.56,29.355 22.526,29.355 L22.526,29.355 Z M28.635,23.168 C29.101,24.125 29.957,24.847 31,25.138 L31,39.402 C30.327,39.323 29.666,39.163 29.038,38.921 L29.038,31 C29.038,30.447 28.59,30 28.038,30 L26.092,30 C25.781,29.002 25.075,28.187 24.147,27.738 C24.992,25.683 26.596,24.046 28.635,23.168 L28.635,23.168 Z M32,19.787 C32.965,19.787 33.752,20.573 33.752,21.539 C33.752,22.504 32.965,23.291 32,23.291 C31.034,23.291 30.248,22.504 30.248,21.539 C30.248,20.573 31.034,19.787 32,19.787 L32,19.787 Z M39.853,27.738 C38.925,28.187 38.218,29.002 37.907,30 L35.962,30 C35.409,30 34.962,30.447 34.962,31 L34.962,38.922 C34.338,39.163 33.675,39.324 33,39.403 L33,25.138 C34.043,24.847 34.9,24.124 35.365,23.166 C37.405,24.043 39.007,25.68 39.853,27.738 L39.853,27.738 Z M43.225,31.106 C43.225,32.072 42.439,32.858 41.473,32.858 C40.507,32.858 39.721,32.072 39.721,31.106 C39.721,30.141 40.507,29.355 41.473,29.355 C42.439,29.355 43.225,30.141 43.225,31.106 L43.225,31.106 Z M36.962,37.846 L36.962,32 L37.84,32 C38.102,33.061 38.815,33.937 39.765,34.428 C39.154,35.789 38.175,36.969 36.962,37.846 L36.962,37.846 Z M25.477,36.408 C25.445,36.371 25.413,36.335 25.352,36.253 C24.906,35.698 24.533,35.076 24.24,34.424 C25.187,33.933 25.898,33.059 26.159,32 L27.038,32 L27.038,37.862 C26.462,37.448 25.936,36.961 25.477,36.408 L25.477,36.408 Z M22.24,34.83 C22.621,35.789 23.13,36.681 23.759,37.46 C23.817,37.542 23.884,37.623 23.953,37.704 C24.807,38.732 25.864,39.581 27.038,40.209 L27.038,45 L29.038,45 L29.038,41.043 C29.672,41.232 30.328,41.359 31,41.422 L31,45 L33,45 L33,41.422 C33.673,41.359 34.33,41.233 34.962,41.043 L34.962,45 L36.962,45 L36.962,40.211 C39.13,39.043 40.841,37.113 41.752,34.83 C43.688,34.685 45.225,33.08 45.225,31.106 C45.225,29.168 43.742,27.587 41.854,27.394 C40.807,24.509 38.578,22.251 35.714,21.167 C35.524,19.274 33.941,17.787 32,17.787 C30.058,17.787 28.474,19.275 28.285,21.168 C25.423,22.252 23.192,24.513 22.146,27.394 C20.257,27.587 18.774,29.168 18.774,31.106 C18.774,33.077 20.306,34.68 22.24,34.83 L22.24,34.83 Z M15,48 L49,48 L49,16 L15,16 L15,48 Z M54,18 L54,16 L51,16 L51,15 C51,14.447 50.552,14 50,14 L14,14 C13.447,14 13,14.447 13,15 L13,16 L10,16 L10,18 L13,18 L13,21 L10,21 L10,23 L13,23 L13,26 L10,26 L10,28 L13,28 L13,31 L10,31 L10,33 L13,33 L13,36 L10,36 L10,38 L13,38 L13,41 L10,41 L10,43 L13,43 L13,46 L10,46 L10,48 L13,48 L13,49 C13,49.552 13.447,50 14,50 L50,50 C50.552,50 51,49.552 51,49 L51,48 L54,48 L54,46 L51,46 L51,43 L54,43 L54,41 L51,41 L51,38 L54,38 L54,36 L51,36 L51,33 L54,33 L54,31 L51,31 L51,28 L54,28 L54,26 L51,26 L51,23 L54,23 L54,21 L51,21 L51,18 L54,18 Z" id="Amazon-FreeRTOS_Icon_48_Squid" fill="#FFFFFF"></path>
    </g>
</svg>