<?xml version="1.0" encoding="UTF-8"?>
<svg width="64px" height="64px" viewBox="0 0 64 64" version="1.1" xmlns="http://www.w3.org/2000/svg" xmlns:xlink="http://www.w3.org/1999/xlink">
    <!-- Generator: Sketch 64 (93537) - https://sketch.com -->
    <title>Icon-Architecture/48/Arch_AWS-IoT-SiteWise_48</title>
    <desc>Created with Sketch.</desc>
    <defs>
        <linearGradient x1="0%" y1="100%" x2="100%" y2="0%" id="linearGradient-1">
            <stop stop-color="#1B660F" offset="0%"></stop>
            <stop stop-color="#6CAE3E" offset="100%"></stop>
        </linearGradient>
    </defs>
    <g id="Icon-Architecture/48/Arch_AWS-IoT-SiteWise_48" stroke="none" stroke-width="1" fill="none" fill-rule="evenodd">
        <g id="Icon-Architecture-BG/48/Internet-of-Things" fill="url(#linearGradient-1)">
            <rect id="Rectangle" x="0" y="0" width="64" height="64"></rect>
        </g>
        <path d="M47.1113265,39.882 L43.0022807,37.868 L44.3462957,36.971 C45.0543036,37.604 45.9783139,38 47.0003252,38 C48.0213366,38 48.9453469,37.604 49.6533548,36.971 L51.0243701,37.885 L47.1113265,39.882 Z M47.0003252,32 C48.1023375,32 49.0003475,32.897 49.0003475,34 C49.0003475,35.103 48.1023375,36 47.0003252,36 C45.8973129,36 45.000303,35.103 45.000303,34 C45.000303,32.897 45.8973129,32 47.0003252,32 L47.0003252,32 Z M32.0001581,28 C28.9671243,28 26.5000968,25.533 26.5000968,22.5 C26.5000968,19.467 28.9671243,17 32.0001581,17 C35.0321919,17 37.5002194,19.467 37.5002194,22.5 C37.5002194,25.533 35.0321919,28 32.0001581,28 L32.0001581,28 Z M34.5001859,40.5 C34.5001859,41.879 33.3791735,43 32.0001581,43 C30.6211427,43 29.5001302,41.879 29.5001302,40.5 C29.5001302,39.122 30.6211427,38 32.0001581,38 C33.3791735,38 34.5001859,39.122 34.5001859,40.5 L34.5001859,40.5 Z M32.0001581,46.882 L27.9881134,44.876 L29.2501274,44.036 C30.0121359,44.631 30.9591465,45 32.0001581,45 C33.0411697,45 33.9871802,44.631 34.7501887,44.036 L36.0112028,44.876 L32.0001581,46.882 Z M16.9609905,39.878 L12.9849462,37.879 L14.3459614,36.971 C15.0539692,37.604 15.9779795,38 16.9999909,38 C18.0170023,38 18.9380125,37.606 19.6440204,36.978 L20.8590339,37.858 L16.9609905,39.878 Z M16.9999909,32 C18.1020032,32 19.0000132,32.897 19.0000132,34 C19.0000132,35.103 18.1020032,36 16.9999909,36 C15.8969786,36 14.9999686,35.103 14.9999686,34 C14.9999686,32.897 15.8969786,32 16.9999909,32 L16.9999909,32 Z M53.5543983,37.168 L50.7623672,35.307 C50.9063688,34.895 51.0003698,34.46 51.0003698,34 C51.0003698,31.795 49.2063498,30 47.0003252,30 C46.2553169,30 45.5653092,30.218 44.9673026,30.574 L38.9492355,25.308 C39.3012394,24.44 39.5002417,23.493 39.5002417,22.5 C39.5002417,18.364 36.1352042,15 32.0001581,15 C27.864112,15 24.5000745,18.364 24.5000745,22.5 C24.5000745,23.493 24.6980767,24.44 25.0500806,25.308 L19.0320136,30.574 C18.4340069,30.218 17.7449992,30 17,30 C14.7939664,30 12.9999464,31.795 12.9999464,34 C12.9999464,34.46 13.0929474,34.895 13.236949,35.307 L10.4449179,37.168 C10.1489146,37.365 9.97991271,37.706 10.001913,38.061 C10.0229132,38.417 10.2319155,38.734 10.5499191,38.894 L16.5179856,41.894 C16.6599871,41.965 16.8129888,42 16.9669906,42 C17.1259923,42 17.2829941,41.963 17.4269957,41.888 L23.2190602,38.888 C23.5270637,38.729 23.7310659,38.421 23.7570662,38.075 C23.7830665,37.729 23.6280648,37.394 23.3460617,37.191 L20.7590328,35.316 C20.9050344,34.902 21.0000355,34.464 21.0000355,34 C21.0000355,33.267 20.7870331,32.589 20.4420293,31.997 L26.069092,27.073 C27.2481051,28.6 28.9991246,29.657 31.0001469,29.925 L31.0001469,36.121 C29.0001247,36.578 27.5001079,38.363 27.5001079,40.5 C27.5001079,41.214 27.68111,41.88 27.9781133,42.479 L25.445085,44.168 C25.1480817,44.366 24.9790798,44.707 25.0020801,45.062 C25.0240803,45.418 25.2340827,45.735 25.5520862,45.895 L31.5521531,48.895 C31.6931547,48.965 31.8461564,49 32.0001581,49 C32.1531598,49 32.3061615,48.965 32.4471631,48.895 L38.4472299,45.895 C38.7652335,45.735 38.9752358,45.418 38.9982361,45.062 C39.0202363,44.707 38.8512344,44.366 38.5542311,44.168 L36.0212029,42.479 C36.3182062,41.88 36.5002082,41.214 36.5002082,40.5 C36.5002082,38.363 35.0001915,36.578 33.0001692,36.121 L33.0001692,29.925 C35.0011915,29.657 36.752211,28.6 37.9302242,27.073 L43.5572869,31.997 C43.213283,32.589 43.0002807,33.267 43.0002807,34 C43.0002807,34.46 43.0932817,34.895 43.2372833,35.307 L40.4452522,37.168 C40.1472489,37.367 39.978247,37.709 40.0022473,38.066 C40.0252475,38.424 40.2382499,38.74 40.5592535,38.898 L46.6793217,41.898 C46.8193232,41.966 46.9693249,42 47.1203266,42 C47.2763283,42 47.43133,41.964 47.5743316,41.891 L53.4543972,38.891 C53.7704007,38.73 53.977403,38.413 53.9984032,38.058 C54.0184034,37.704 53.8494016,37.365 53.5543983,37.168 L53.5543983,37.168 Z" id="AWS-IoT-SiteWise_Icon_48_Squid" fill="#FFFFFF"></path>
    </g>
</svg>