<?xml version="1.0" encoding="UTF-8"?>
<svg width="64px" height="64px" viewBox="0 0 64 64" version="1.1" xmlns="http://www.w3.org/2000/svg" xmlns:xlink="http://www.w3.org/1999/xlink">
    <!-- Generator: Sketch 64 (93537) - https://sketch.com -->
    <title>Icon-Architecture/48/Arch_AWS-IoT-Greengrass-Core_48</title>
    <desc>Created with Sketch.</desc>
    <defs>
        <linearGradient x1="0%" y1="100%" x2="100%" y2="0%" id="linearGradient-1">
            <stop stop-color="#1B660F" offset="0%"></stop>
            <stop stop-color="#6CAE3E" offset="100%"></stop>
        </linearGradient>
    </defs>
    <g id="Icon-Architecture/48/Arch_AWS-IoT-Greengrass-Core_48" stroke="none" stroke-width="1" fill="none" fill-rule="evenodd">
        <g id="Icon-Architecture-BG/48/Internet-of-Things" fill="url(#linearGradient-1)">
            <rect id="Rectangle" x="0" y="0" width="64" height="64"></rect>
        </g>
        <path d="M19.5,16 C20.879,16 22,17.122 22,18.5 C22,19.878 20.879,21 19.5,21 C18.121,21 17,19.878 17,18.5 C17,17.122 18.121,16 19.5,16 L19.5,16 Z M19.5,23 C20.329,23 21.098,22.759 21.766,22.366 L39.653,41 L38,41 L38,43 L42,43 C42.553,43 43,42.552 43,42 L43,38 L41,38 L41,39.514 L23.234,21.008 C23.717,20.291 24,19.428 24,18.5 C24,16.019 21.981,14 19.5,14 C17.019,14 15,16.019 15,18.5 C15,20.981 17.019,23 19.5,23 L19.5,23 Z M41,35 L43,35 L43,31 L41,31 L41,35 Z M41,29 L43,29 L43,25 L41,25 L41,29 Z M31,43 L35,43 L35,41 L31,41 L31,43 Z M25,43 L29,43 L29,41 L25,41 L25,43 Z M13,41.5 C13,40.122 14.121,39 15.5,39 C16.879,39 18,40.122 18,41.5 C18,42.878 16.879,44 15.5,44 C14.121,44 13,42.878 13,41.5 L13,41.5 Z M41.5,18 C40.121,18 39,16.878 39,15.5 C39,14.122 40.121,13 41.5,13 C42.879,13 44,14.122 44,15.5 C44,16.878 42.879,18 41.5,18 L41.5,18 Z M45.793,16.775 C45.915,16.368 46,15.946 46,15.5 C46,13.019 43.981,11 41.5,11 C39.019,11 37,13.019 37,15.5 C37,17.81 38.756,19.697 41,19.949 L41,22 L43,22 L43,19.724 C43.689,19.478 44.301,19.076 44.789,18.549 C48.696,22.045 51,27.168 51,32.487 C51,42.695 42.638,51 32.358,51 C27.045,51 22.077,48.75 18.549,44.789 C19.076,44.301 19.478,43.69 19.724,43 L22,43 L22,41 L19.949,41 C19.697,38.756 17.811,37 15.5,37 C13.019,37 11,39.019 11,41.5 C11,43.981 13.019,46 15.5,46 C15.946,46 16.369,45.915 16.775,45.793 C20.698,50.381 26.325,53 32.358,53 C43.74,53 53,43.798 53,32.487 C53,26.456 50.318,20.651 45.793,16.775 L45.793,16.775 Z" id="AWS-IoT-Greengrass-Core_Icon_48_Squid" fill="#FFFFFF"></path>
    </g>
</svg>