<?xml version="1.0" encoding="UTF-8"?>
<svg width="24px" height="24px" viewBox="0 0 24 24" version="1.1" xmlns="http://www.w3.org/2000/svg" xmlns:xlink="http://www.w3.org/1999/xlink">
    <!-- Generator: Sketch 64 (93537) - https://sketch.com -->
    <title>Icon-Architecture/16/Arch_AWS-Local-Zones_16</title>
    <desc>Created with Sketch.</desc>
    <defs>
        <linearGradient x1="0%" y1="100%" x2="100%" y2="0%" id="linearGradient-1">
            <stop stop-color="#C8511B" offset="0%"></stop>
            <stop stop-color="#FF9900" offset="100%"></stop>
        </linearGradient>
    </defs>
    <g id="Icon-Architecture/16/Arch_AWS-Local-Zones_16" stroke="none" stroke-width="1" fill="none" fill-rule="evenodd">
        <g id="Icon-Architecture-BG/16/Compute" fill="url(#linearGradient-1)">
            <rect id="Rectangle" x="0" y="0" width="24" height="24"></rect>
        </g>
        <path d="M11.9988778,10.4388498 C11.7976965,10.4388498 11.6338478,10.2773163 11.6338478,10.0779553 C11.6338478,9.87961661 11.7976965,9.71808307 11.9988778,9.71808307 C12.2000592,9.71808307 12.3649449,9.87961661 12.3649449,10.0779553 C12.3649449,10.2773163 12.2000592,10.4388498 11.9988778,10.4388498 L11.9988778,10.4388498 Z M11.9988778,8.69571885 C11.2263001,8.69571885 10.5968308,9.31629393 10.5968308,10.0779553 C10.5968308,10.840639 11.2263001,11.4612141 11.9988778,11.4612141 C12.7724926,11.4612141 13.4019619,10.840639 13.4019619,10.0779553 C13.4019619,9.86121406 13.345963,9.65674121 13.2547055,9.47373802 L17.1580378,5.19207668 L16.3854601,4.50913738 L12.4862759,8.78670927 C12.3327973,8.7315016 12.1710227,8.69571885 11.9988778,8.69571885 L11.9988778,8.69571885 Z M13.0794496,6.60702875 C12.737234,6.49456869 12.3639079,6.43322684 12.0009519,6.43322684 C9.9984719,6.43322684 8.37139211,8.03833866 8.37139211,10.0115016 C8.37139211,11.228115 8.98323219,12.3527157 10.0202493,13.0172524 L10.5802385,12.1584665 C9.84395636,11.6881789 9.40840919,10.8805112 9.40840919,10.0115016 C9.40840919,8.61086262 10.5698683,7.45559105 12.0009519,7.45559105 C12.0942834,7.45559105 12.1969481,7.4658147 12.2902796,7.47603834 L13.0794496,6.60702875 Z M15.3712574,8.69265176 C15.5371801,9.11182109 15.6305116,9.56166134 15.6305116,10.0115016 C15.6305116,11.228115 15.0072644,12.3527157 13.9816545,13.0070288 L13.4102581,12.1584665 C14.1465402,11.6779553 14.5934946,10.8805112 14.5934946,10.0115016 C14.5934946,9.86837061 14.5831244,9.72523962 14.5520139,9.58210863 L15.3712574,8.69265176 Z M17.1549267,6.72971246 C17.7563966,7.70095847 18.0467614,8.82555911 17.9938736,10.0115016 C17.8175807,13.6102236 12.612792,19.570607 12.3950184,19.8261981 C12.2902796,19.9386581 12.1461343,20 12.0009519,20 C11.8453993,20 11.7105871,19.9386581 11.6068854,19.8261981 C11.3891118,19.570607 6.18328608,13.6102236 6.00699318,10.0115016 C5.8504036,6.75015974 8.3402816,4.16357827 11.7935485,4 L12.1772448,4 C13.162411,4.04089457 14.0532087,4.2658147 14.8527488,4.66453674 L14.1268369,5.46198083 C13.525367,5.19616613 12.861676,5.05303514 12.1461343,5.02236422 L11.824659,5.02236422 C8.93138133,5.16549521 6.90919803,7.24089457 7.04401025,9.96038339 C7.17882247,12.6696486 10.7876419,17.229393 12.0009519,18.6913738 C13.2142619,17.229393 16.8220443,12.6696486 16.9568565,9.96038339 C16.989004,9.0913738 16.8127111,8.26325879 16.4279778,7.52715655 L17.1549267,6.72971246 Z" id="AWS-Local-Zones_Icon_16_Squid" fill="#FFFFFF"></path>
    </g>
</svg>