<?xml version="1.0" encoding="UTF-8"?>
<svg width="24px" height="24px" viewBox="0 0 24 24" version="1.1" xmlns="http://www.w3.org/2000/svg" xmlns:xlink="http://www.w3.org/1999/xlink">
    <!-- Generator: Sketch 64 (93537) - https://sketch.com -->
    <title>Icon-Architecture/16/Arch_Amazon-Elastic-Container-Kubernetes_16</title>
    <desc>Created with Sketch.</desc>
    <defs>
        <linearGradient x1="0%" y1="100%" x2="100%" y2="0%" id="linearGradient-1">
            <stop stop-color="#C8511B" offset="0%"></stop>
            <stop stop-color="#FF9900" offset="100%"></stop>
        </linearGradient>
    </defs>
    <g id="Icon-Architecture/16/Arch_Amazon-Elastic-Container-Kubernetes_16" stroke="none" stroke-width="1" fill="none" fill-rule="evenodd">
        <g id="Icon-Architecture-BG/16/Compute" fill="url(#linearGradient-1)">
            <rect id="Rectangle" x="0" y="0" width="24" height="24"></rect>
        </g>
        <g id="Icon-Service/16/Amazon-Elastic-Container-Kubernetes" transform="translate(4.000000, 4.000000)" fill="#FFFFFF">
            <path d="M10.2912173,5.85625881 L8.43417967,7.82898404 L10.4540095,9.98646601 L9.70034166,9.98646601 L7.84933342,8.01374078 L7.84933342,9.98646601 L7.23434046,9.98646601 L7.23434046,5.85625881 L7.84933342,5.85625881 L7.84933342,7.70382624 L9.56769612,5.85625881 L10.2912173,5.85625881 Z M14.9951095,10.0569914 L13.036578,8.5362249 L13.036578,5.70726144 C13.036578,5.5354178 12.9471428,5.37549395 12.7994239,5.28510221 L9.99577946,3.56765916 L9.99577946,1.38435098 L14.9951095,4.31065939 L14.9951095,10.0569914 Z M15.7538018,3.60043858 L9.7495813,0.0850938804 C9.59482816,-0.00529785955 9.4008843,-0.0072844912 9.24412139,0.0811206171 C9.08836337,0.169525725 8.99088899,0.333422836 8.99088899,0.512219684 L8.99088899,3.84380096 C8.99088899,4.01564459 9.08132914,4.17556844 9.22804314,4.26596018 L12.0316875,5.98340324 L12.0316875,8.77760065 C12.0316875,8.92957797 12.1030348,9.07360876 12.2246265,9.16797377 L15.1870436,11.4704798 C15.2774838,11.5410053 15.3860119,11.5767646 15.4975548,11.5767646 C15.5719167,11.5767646 15.6472834,11.5598783 15.7166209,11.5261055 C15.889462,11.4436603 16,11.26983 16,11.0801067 L16,4.02756438 C16,3.85174748 15.9065452,3.68884369 15.7538018,3.60043858 L15.7538018,3.60043858 Z M8.53466872,14.959005 L2.00489047,11.6701363 L2.00489047,4.30966608 L6.9871374,1.37143787 L6.9871374,3.55573937 L4.24780599,5.27020248 C4.10310176,5.36158753 4.0146714,5.51952475 4.0146714,5.69037507 L4.0146714,10.2566479 C4.0146714,10.4453779 4.12219468,10.6172216 4.29403095,10.7016534 L8.25631406,12.6425925 C8.39699873,12.7121246 8.56481544,12.710138 8.70650499,12.6396126 L11.816641,11.0751401 L13.9058083,12.8154295 L8.53466872,14.959005 Z M12.2085483,10.1036773 C12.0558049,9.97553953 11.8357339,9.95169995 11.6568634,10.0410984 L8.47538018,11.6413302 L5.01956187,9.94872 L5.01956187,5.96254361 L7.75788839,4.2480805 C7.90359751,4.15669544 7.99202787,3.99875822 7.99202787,3.8279079 L7.99202787,0.497319947 C7.99202787,0.318523099 7.89455349,0.153632672 7.73779058,0.0652275639 C7.57901789,-0.0241708602 7.38507403,-0.0211909127 7.23233068,0.0711874588 L1.24519327,3.60043858 C1.09345481,3.689837 1,3.85174748 1,4.02756438 L1,11.974091 C1,12.1608343 1.1055135,12.3316847 1.2743351,12.4161165 L8.28244121,15.9463609 C8.35278355,15.9821203 8.431165,16 8.51055135,16 C8.57385945,16 8.63716755,15.9880802 8.69846587,15.9642406 L15.0564079,13.4283053 C15.2192001,13.3627465 15.3367723,13.2177224 15.3649092,13.0448854 C15.3920413,12.8730418 15.3267234,12.6992115 15.1920681,12.5869668 L12.2085483,10.1036773 Z" id="Amazon-Elastic-Container-Kubernetes_Icon_16_Squid"></path>
        </g>
    </g>
</svg>