<?xml version="1.0" encoding="UTF-8"?>
<svg width="24px" height="24px" viewBox="0 0 24 24" version="1.1" xmlns="http://www.w3.org/2000/svg" xmlns:xlink="http://www.w3.org/1999/xlink">
    <title>Icon-Architecture/16/Arch_AWS-Scout_16</title>
    <defs>
        <linearGradient x1="0%" y1="100%" x2="100%" y2="0%" id="linearGradient-1">
            <stop stop-color="#C8511B" offset="0%"></stop>
            <stop stop-color="#FF9900" offset="100%"></stop>
        </linearGradient>
    </defs>
    <g id="Icon-Architecture/16/Arch_AWS-Scout_16" stroke="none" stroke-width="1" fill="none" fill-rule="evenodd">
        <g id="Rectangle" transform="translate(0.000000, 0.000000)" fill="url(#linearGradient-1)">
            <rect x="0" y="0" width="24" height="24"></rect>
        </g>
        <g id="Icon-Service/16/AWS-Scout_16" transform="translate(4.000000, 4.000000)" fill="#FFFFFF">
            <path d="M7,12.0042549 L9,12.0042549 L9,11.0042549 L7,11.0042549 L7,12.0042549 Z M5,12.0042549 L6,12.0042549 L6,11.0042549 L5,11.0042549 L5,12.0042549 Z M10,12.0042549 L13,12.0042549 L13,11.0042549 L10,11.0042549 L10,12.0042549 Z M15,10.5042549 C15,10.2282549 14.775,10.0042549 14.5,10.0042549 L14,10.0042549 L8,10.0042549 L7,10.0042549 L6,10.0042549 L3.5,10.0042549 C3.225,10.0042549 3,10.2282549 3,10.5042549 L3,12.5042549 C3,12.7802549 3.225,13.0042549 3.5,13.0042549 L14.5,13.0042549 C14.775,13.0042549 15,12.7802549 15,12.5042549 L15,10.5042549 Z M16,10.5042549 L16,12.5042549 C16,13.3312549 15.327,14.0042549 14.5,14.0042549 L3.5,14.0042549 C2.673,14.0042549 2,13.3312549 2,12.5042549 L2,10.5042549 C2,9.67725489 2.673,9.00425489 3.5,9.00425489 L6,9.00425489 L7,9.00425489 L8,9.00425489 L14,9.00425489 L14.5,9.00425489 C15.327,9.00425489 16,9.67725489 16,10.5042549 L16,10.5042549 Z M1.974,8.00825489 L1.839,9.00025489 C0.751,8.85225489 0.065,8.01425489 0.004,6.75625489 L0,6.61025489 C0,5.57425489 0.526,4.77025489 1.43,4.39225489 C1.438,3.18825489 2.248,1.94325489 3.318,1.48925489 C4.575,0.95825489 5.905,1.22225489 6.878,2.19625489 C7.1,2.41925489 7.291,2.67425489 7.451,2.96225489 C7.798,2.78925489 8.196,2.74825489 8.583,2.85925489 C9.209,3.04225489 9.645,3.57125489 9.79,4.30325489 C10.956,4.64825489 11.547,5.60825489 11.547,7.16225489 L10.547,7.16225489 C10.547,5.42525489 9.703,5.28125489 9.249,5.20325489 C8.983,5.15725489 8.802,4.90925489 8.839,4.64325489 C8.806,4.24525489 8.605,3.90825489 8.302,3.81925489 C8.072,3.75125489 7.824,3.84225489 7.665,4.05725489 C7.556,4.20625489 7.375,4.27825489 7.188,4.25525489 C7.006,4.22825489 6.853,4.10125489 6.791,3.92625489 C6.646,3.51525489 6.437,3.17125489 6.17,2.90325489 C5.845,2.57825489 4.956,1.88225489 3.709,2.41025489 C3.004,2.70925489 2.43,3.60725489 2.43,4.41125489 C2.43,4.50425489 2.436,4.59725489 2.446,4.68725489 C2.475,4.93625489 2.315,5.16825489 2.073,5.22925489 C1.583,5.35425489 1,5.69525489 1,6.61025489 C1.028,7.24525489 1.219,7.90625489 1.974,8.00825489 L1.974,8.00825489 Z" id="Fill-5"></path>
        </g>
    </g>
</svg>