<?xml version="1.0" encoding="UTF-8"?>
<svg width="24px" height="24px" viewBox="0 0 24 24" version="1.1" xmlns="http://www.w3.org/2000/svg" xmlns:xlink="http://www.w3.org/1999/xlink">
    <!-- Generator: Sketch 64 (93537) - https://sketch.com -->
    <title>Icon-Architecture/16/Arch_VMware-Cloud-on-AWS_16</title>
    <desc>Created with Sketch.</desc>
    <defs>
        <linearGradient x1="0%" y1="100%" x2="100%" y2="0%" id="linearGradient-1">
            <stop stop-color="#C8511B" offset="0%"></stop>
            <stop stop-color="#FF9900" offset="100%"></stop>
        </linearGradient>
    </defs>
    <g id="Icon-Architecture/16/Arch_VMware-Cloud-on-AWS_16" stroke="none" stroke-width="1" fill="none" fill-rule="evenodd">
        <g id="Icon-Architecture-BG/16/Compute" fill="url(#linearGradient-1)">
            <rect id="Rectangle" x="0" y="0" width="24" height="24"></rect>
        </g>
        <path d="M13.2993128,8.913 L8.42431278,8.846 L8.35731278,18.933 L13.2323128,19 C13.2693128,19 13.2993128,18.97 13.2993128,18.933 L13.2993128,8.913 Z M14.2993128,8.913 L14.2993128,18.933 C14.2993128,19.521 13.8203128,20 13.2323128,20 L8.42431278,20 C7.83531278,20 7.35731278,19.521 7.35731278,18.933 L7.35731278,8.913 C7.35731278,8.325 7.83531278,7.846 8.42431278,7.846 L13.2323128,7.846 C13.8203128,7.846 14.2993128,8.325 14.2993128,8.913 L14.2993128,8.913 Z M9.29631278,10.991 L12.2703128,10.991 L12.2703128,9.991 L9.29631278,9.991 L9.29631278,10.991 Z M9.29631278,12.983 L12.2703128,12.983 L12.2703128,11.983 L9.29631278,11.983 L9.29631278,12.983 Z M8.82931278,5.037 L8.83031278,5.037 C10.7033128,5.037 11.0673128,6.578 11.1023128,6.75 C11.1423128,6.963 11.3143128,7.125 11.5283128,7.153 C11.7393128,7.181 11.9503128,7.069 12.0443128,6.873 C12.2283128,6.488 12.7313128,6.536 12.7373128,6.536 C13.1843128,6.623 13.1923128,7.196 13.1913128,7.257 L14.1913128,7.284 C14.2033128,6.773 13.9573128,5.755 12.9293128,5.554 C12.6393128,5.496 12.1883128,5.532 11.7903128,5.753 C11.3573128,4.932 10.4463128,4.037 8.83031278,4.037 L8.82931278,4.037 C7.57231278,4.037 6.78431278,4.638 6.34531278,5.143 C5.80831278,5.759 5.48731278,6.596 5.47031278,7.371 C4.72931278,7.678 3.83131278,8.487 4.02731278,10.117 C4.10831278,10.789 4.64131278,12.059 6.07831278,12.059 L6.79031278,12.059 L6.79031278,11.059 L6.07831278,11.059 C5.18731278,11.059 5.03331278,10.103 5.01931278,9.997 C4.84531278,8.544 5.87331278,8.267 6.07631278,8.227 C6.34131278,8.181 6.52231278,7.933 6.48531278,7.667 C6.41631278,7.167 6.57931278,6.396 7.09931278,5.8 C7.40331278,5.452 7.94831278,5.037 8.82931278,5.037 L8.82931278,5.037 Z M19.2433128,14.277 L18.2433128,12.277 C18.1193128,12.029 17.8203128,11.93 17.5723128,12.053 L15.5723128,13.053 L16.0203128,13.948 L16.9183128,13.498 C16.2453128,15.346 15.8033128,16.018 15.3043128,16.018 L15.3043128,17.018 C16.4333128,17.018 17.0653128,16.047 17.8803128,13.787 L18.3493128,14.724 L19.2433128,14.277 Z M16.7603128,9.31 C17.2773128,7.913 17.5163128,6.345 17.0303128,5.56 C16.7973128,5.184 16.3943128,5 15.7963128,5 L15.7963128,4 C16.9913128,4 17.5893128,4.563 17.8813128,5.034 C18.6003128,6.198 18.2753128,8.025 17.7773128,9.451 L18.5723128,9.053 L19.0203128,9.948 L17.0203128,10.948 C16.9473128,10.983 16.8713128,11 16.7963128,11 C16.6133128,11 16.4373128,10.899 16.3493128,10.724 L15.3493128,8.724 L16.2433128,8.277 L16.7603128,9.31 Z" id="VMware-Cloud-on-AWS_Icon_16_Squid" fill="#FFFFFF"></path>
    </g>
</svg>