<?xml version="1.0" encoding="UTF-8"?>
<svg width="24px" height="24px" viewBox="0 0 24 24" version="1.1" xmlns="http://www.w3.org/2000/svg" xmlns:xlink="http://www.w3.org/1999/xlink">
    <!-- Generator: Sketch 64 (93537) - https://sketch.com -->
    <title>Icon-Architecture/16/Arch_AWS-Batch_16</title>
    <desc>Created with Sketch.</desc>
    <defs>
        <linearGradient x1="0%" y1="100%" x2="100%" y2="0%" id="linearGradient-1">
            <stop stop-color="#C8511B" offset="0%"></stop>
            <stop stop-color="#FF9900" offset="100%"></stop>
        </linearGradient>
    </defs>
    <g id="Icon-Architecture/16/Arch_AWS-Batch_16" stroke="none" stroke-width="1" fill="none" fill-rule="evenodd">
        <g id="Icon-Architecture-BG/16/Compute" fill="url(#linearGradient-1)">
            <rect id="Rectangle" x="0" y="0" width="24" height="24"></rect>
        </g>
        <path d="M18.0105471,18.966 C17.4726434,18.966 17.0514173,18.559 17.0514173,18.039 C17.0514173,17.504 17.4815425,17.069 18.0105471,17.069 C18.5395517,17.069 18.9706658,17.504 18.9706658,18.039 C18.9706658,18.559 18.5484509,18.966 18.0105471,18.966 M17.0108767,12.518 C17.0108767,11.96 17.4588003,11.507 18.0105471,11.507 C18.562294,11.507 19.0112063,11.96 19.0112063,12.518 C19.0112063,13.075 18.562294,13.529 18.0105471,13.529 C17.4588003,13.529 17.0108767,13.075 17.0108767,12.518 M12.619644,13.489 C12.0906394,13.489 11.6595254,13.054 11.6595254,12.519 C11.6595254,11.984 12.0906394,11.549 12.619644,11.549 C13.1486486,11.549 13.5797627,11.984 13.5797627,12.519 C13.5797627,13.054 13.1486486,13.489 12.619644,13.489 M11.2857614,7.349 C11.2857614,6.656 11.9334212,6 12.619644,6 C13.304878,6 13.9535267,6.656 13.9535267,7.349 C13.9535267,8.043 13.304878,8.698 12.619644,8.698 C11.9334212,8.698 11.2857614,8.043 11.2857614,7.349 M8.01779829,18.032 C8.01779829,18.557 7.59558339,18.968 7.05767963,18.968 C6.51977587,18.968 6.09756098,18.557 6.09756098,18.032 C6.09756098,17.497 6.52867502,17.062 7.05767963,17.062 C7.58668425,17.062 8.01779829,17.497 8.01779829,18.032 M18.504944,16.141 L18.504944,14.459 C19.3622281,14.235 20,13.453 20,12.518 C20,11.409 19.1071193,10.507 18.0105471,10.507 C17.0850363,10.507 16.3127884,11.152 16.0922874,12.019 L14.4963744,12.019 C14.3154252,11.324 13.7715887,10.78 13.0784443,10.61 L13.0784443,9.648 C14.1137113,9.419 14.9423204,8.443 14.9423204,7.349 C14.9423204,6.098 13.8576137,5 12.619644,5 C11.3826632,5 10.2969677,6.098 10.2969677,7.349 C10.2969677,8.417 11.0889914,9.366 12.0896506,9.624 L12.0896506,10.632 C11.431114,10.822 10.9169413,11.348 10.7419249,12.019 L9.06097561,12.019 C8.843441,11.075 8.0316414,10.37 7.06163481,10.37 C5.92452208,10.37 5,11.335 5,12.52 C5,13.515 5.65853659,14.321 6.56723797,14.541 L6.56723797,16.133 C5.73071852,16.354 5.1087673,17.118 5.1087673,18.032 C5.1087673,19.118 5.96407383,19.968 7.05767963,19.968 C8.15029664,19.968 9.00659196,19.118 9.00659196,18.032 C9.00659196,17.121 8.38859591,16.36 7.55603164,16.135 L7.55603164,14.541 C8.30652604,14.36 8.88101516,13.778 9.05899802,13.019 L10.7419249,13.019 C10.9169413,13.69 11.431114,14.216 12.0896506,14.406 L12.0896506,15.905 C11.1997363,16.138 10.5580092,16.934 10.5580092,17.915 C10.5580092,19.084 11.4637442,20 12.619644,20 C13.7755438,20 14.6812788,19.084 14.6812788,17.915 C14.6812788,16.907 14.004944,16.09 13.0784443,15.883 L13.0784443,14.428 C13.7715887,14.258 14.3154252,13.715 14.4963744,13.019 L16.0932762,13.019 C16.2732367,13.724 16.8190508,14.276 17.5161503,14.458 L17.5161503,16.141 C16.6825972,16.364 16.0626236,17.127 16.0626236,18.039 C16.0626236,19.12 16.9189189,19.966 18.0105471,19.966 C19.1031641,19.966 19.9594595,19.12 19.9594595,18.039 C19.9594595,17.127 19.3394858,16.363 18.504944,16.141" id="AWS-Batch_Icon_16_Squid" fill="#FFFFFF"></path>
    </g>
</svg>