<?xml version="1.0" encoding="UTF-8"?>
<svg width="24px" height="24px" viewBox="0 0 24 24" version="1.1" xmlns="http://www.w3.org/2000/svg" xmlns:xlink="http://www.w3.org/1999/xlink">
    <title>Icon-Architecture/16/Arch_AWS-Compute-Optimizer_16</title>
    <defs>
        <linearGradient x1="0%" y1="100%" x2="100%" y2="0%" id="linearGradient-1">
            <stop stop-color="#C8511B" offset="0%"></stop>
            <stop stop-color="#FF9900" offset="100%"></stop>
        </linearGradient>
    </defs>
    <g id="Icon-Architecture/16/Arch_AWS-Compute-Optimizer_16" stroke="none" stroke-width="1" fill="none" fill-rule="evenodd">
        <g id="Rectangle" fill="url(#linearGradient-1)">
            <rect x="0" y="0" width="24" height="24"></rect>
        </g>
        <g id="Icon-Service/16/AWS-Compute-Optimizer_16" transform="translate(4.000000, 4.000000)" fill="#FFFFFF">
            <path d="M9.668,1.96925446 C9.653,2.21425446 9.818,2.43325446 10.058,2.48725446 C10.609,2.61125446 11.131,2.82525446 11.607,3.12625446 C11.816,3.25725446 12.085,3.21825446 12.247,3.03525446 L12.603,2.63625446 L13.654,3.68425446 L13.256,4.04125446 C13.073,4.20325446 13.036,4.47425446 13.167,4.68125446 C13.468,5.15725446 13.685,5.67825446 13.811,6.23025446 C13.864,6.46825446 14.083,6.63425446 14.327,6.61825446 L14.86,6.58725446 L14.861,8.07225446 L14.331,8.04225446 C14.051,8.01825446 13.868,8.19425446 13.814,8.43225446 C13.691,8.98325446 13.476,9.50525446 13.175,9.98425446 L14.021,10.5162545 C14.307,10.0622545 14.528,9.57425446 14.683,9.06325446 L15.334,9.09925446 C15.49,9.10925446 15.607,9.05725446 15.706,8.96425446 C15.806,8.86925446 15.862,8.73725446 15.862,8.60025446 L15.859,6.05625446 C15.859,5.91925446 15.803,5.78725446 15.702,5.69325446 C15.603,5.59825446 15.471,5.55225446 15.33,5.55825446 L14.676,5.59625446 C14.563,5.22025446 14.412,4.85925446 14.227,4.51425446 L14.715,4.07725446 C14.817,3.98625446 14.878,3.85625446 14.882,3.71825446 C14.886,3.58025446 14.832,3.44825446 14.735,3.35025446 L12.935,1.55425446 C12.836,1.45625446 12.695,1.41025446 12.566,1.40825446 C12.429,1.41225446 12.299,1.47325446 12.208,1.57525446 L11.772,2.06525446 C11.427,1.88225446 11.065,1.73225446 10.69,1.61925446 L10.726,1.02425446 C10.733,0.886254459 10.685,0.752254459 10.591,0.652254459 C10.496,0.551254459 10.364,0.494254459 10.227,0.494254459 L8.917,0.494254459 L8.917,1.49425446 L9.696,1.49425446 L9.668,1.96925446 Z M6.958,13.5952545 L6.958,8.63925446 L5.714,9.85725446 L5.015,9.14225446 L6.958,7.24025446 L6.958,6.70725446 L5.857,5.62925446 L6.557,4.91425446 L6.958,5.30725446 L6.958,1.84425446 L5.417,1.10725446 L5.417,3.35325446 L4.417,3.35325446 L4.417,1.69325446 L2.717,2.82625446 L2.717,4.78625446 L4.209,5.77225446 C4.35,5.86425446 4.434,6.02125446 4.434,6.18925446 L4.434,8.49925446 L3.434,8.49925446 L3.434,6.45825446 L2.192,5.63725446 L1.001,6.29125446 L1,7.62525446 L1.001,9.42825446 L2.402,9.98925446 C2.593,10.0652545 2.717,10.2492545 2.717,10.4532545 L2.717,12.5732545 L3.399,12.9822545 L5.354,11.5162545 L5.953,12.3162545 L4.325,13.5372545 L5.656,14.3362545 L6.958,13.5952545 Z M7.958,1.52925446 L7.958,13.8862545 C7.958,14.0652545 7.861,14.2312545 7.705,14.3202545 L5.897,15.3502545 C5.82,15.3932545 5.734,15.4152545 5.649,15.4152545 C5.561,15.4152545 5.472,15.3912545 5.393,15.3442545 L1.96,13.2842545 C1.809,13.1942545 1.717,13.0322545 1.717,12.8562545 L1.717,10.7922545 L0.315,10.2312545 C0.126,10.1552545 0.001,9.97125446 0.001,9.76725446 L7.10542736e-15,7.62425446 L0.001,5.99425446 C0.001,5.81225446 0.101,5.64425446 0.261,5.55625446 L1.717,4.75825446 L1.717,2.55925446 C1.717,2.39225446 1.801,2.23625446 1.939,2.14325446 L5.028,0.0832544589 C5.175,-0.0137455411 5.364,-0.0267455411 5.522,0.0482544589 L7.674,1.07825446 C7.848,1.16125446 7.958,1.33725446 7.958,1.52925446 L7.958,1.52925446 Z M14.884,13.4442545 C14.884,13.1292545 14.699,12.9372545 14.336,12.8742545 C14.065,12.8282545 13.883,12.5712545 13.928,12.3002545 C13.923,12.2572545 13.896,12.1272545 13.817,12.1022545 C13.778,12.0872545 13.718,12.0992545 13.679,12.1522545 C13.569,12.3012545 13.389,12.3762545 13.202,12.3502545 C13.019,12.3222545 12.866,12.1962545 12.805,12.0212545 C12.736,11.8272545 12.636,11.6602545 12.514,11.5362545 C12.381,11.4032545 12.141,11.2232545 11.811,11.2232545 C11.687,11.2232545 11.549,11.2492545 11.399,11.3122545 C11.09,11.4442545 10.828,11.8582545 10.828,12.2162545 L10.839,12.3692545 C10.855,12.6092545 10.696,12.8252545 10.464,12.8852545 C10.038,12.9942545 10.038,13.3152545 10.038,13.4352545 C10.038,13.6822545 10.14,13.8712545 10.34,13.9972545 L14.371,13.9992545 C14.538,13.9792545 14.884,13.8852545 14.884,13.4442545 L14.884,13.4442545 Z M15.884,13.4442545 C15.884,14.5062545 15.017,14.9552545 14.433,14.9982545 C14.421,14.9992545 14.408,14.9992545 14.397,14.9992545 L10.389,14.9992545 C10.167,14.9992545 9.971,14.9472545 9.806,14.8432545 C9.519,14.6612545 9.038,14.2382545 9.038,13.4352545 C9.038,12.8252545 9.336,12.3262545 9.838,12.0612545 C9.91,11.3412545 10.389,10.6552545 11.009,10.3922545 C11.791,10.0592545 12.618,10.2232545 13.223,10.8312545 C13.315,10.9252545 13.399,11.0282545 13.475,11.1392545 C13.685,11.0782545 13.913,11.0802545 14.13,11.1522545 C14.439,11.2532545 14.765,11.5232545 14.88,11.9942545 C15.4,12.1992545 15.884,12.6592545 15.884,13.4442545 L15.884,13.4442545 Z M8.917,9.99925446 L8.917,8.99925446 C9.744,8.99925446 10.417,8.32625446 10.417,7.49925446 C10.417,6.67225446 9.744,5.99925446 8.917,5.99925446 L8.917,4.99925446 C10.296,4.99925446 11.417,6.12125446 11.417,7.49925446 C11.417,8.87825446 10.296,9.99925446 8.917,9.99925446 L8.917,9.99925446 Z" id="AWS-Compute-Optimizer_Icon_16_Squid"></path>
        </g>
    </g>
</svg>