<?xml version="1.0" encoding="UTF-8"?>
<svg width="24px" height="24px" viewBox="0 0 24 24" version="1.1" xmlns="http://www.w3.org/2000/svg" xmlns:xlink="http://www.w3.org/1999/xlink">
    <!-- Generator: Sketch 64 (93537) - https://sketch.com -->
    <title>Icon-Architecture/16/Arch_Amazon-Elastic-Container-Registry_16</title>
    <desc>Created with Sketch.</desc>
    <defs>
        <linearGradient x1="0%" y1="100%" x2="100%" y2="0%" id="linearGradient-1">
            <stop stop-color="#C8511B" offset="0%"></stop>
            <stop stop-color="#FF9900" offset="100%"></stop>
        </linearGradient>
    </defs>
    <g id="Icon-Architecture/16/Arch_Amazon-Elastic-Container-Registry_16" stroke="none" stroke-width="1" fill="none" fill-rule="evenodd">
        <g id="Icon-Architecture-BG/16/Compute" fill="url(#linearGradient-1)">
            <rect id="Rectangle" x="0" y="0" width="24" height="24"></rect>
        </g>
        <g id="Icon-Service/16/Amazon-Elastic-Container-Registry" transform="translate(4.000000, 4.000000)" fill="#FFFFFF">
            <path d="M7.19911441,7.53415901 C7.00114269,7.65001998 6.87816026,7.86476229 6.87816026,8.09448662 L6.87816026,14.7544946 L1.99985716,12.0297643 L1.99985716,5.37075509 L7.78903014,2.03276069 L12.6123411,4.41190571 L7.19911441,7.53415901 Z M13.9981431,4.38893328 C13.9981431,4.15421494 13.8711613,3.93647623 13.6411941,3.80663204 L7.95500643,1 L7.55506356,1.01398322 L1.32095415,4.6086696 C1.12298243,4.72453056 1,4.93927287 1,5.1679984 L1,12.2365162 C1,12.4672393 1.12498215,12.6829804 1.32995286,12.800839 L6.90315669,15.9131043 C7.00414227,15.9710348 7.11612627,16 7.22811027,16 C7.34109413,16 7.45307813,15.9710348 7.55306385,15.9141031 C7.75303528,15.7982421 7.87801743,15.5834998 7.87801743,15.3527767 L7.87801743,8.29624451 L13.6681903,4.9572513 C13.8711613,4.84039153 13.9981431,4.62265282 13.9981431,4.38893328 L13.9981431,4.38893328 Z M14.0001428,11.7780663 L9.99871447,14.6705953 L9.99871447,12.5271674 L11.9574347,11.140831 L11.9904299,10.9330803 C11.9964291,10.894127 12.0004285,10.894127 12.0004285,10.7163404 L12.0004285,8.28126249 L14.0001428,7.18557731 L14.0001428,11.7780663 Z M14.6250536,6.14982022 C14.3890873,6.00799041 14.104128,6.0009988 13.8611627,6.12884539 L11.4695044,7.43128246 C11.1795458,7.58409908 11.0005713,7.88174191 11.0005713,8.20834998 L11.0025711,10.5934878 L9.2978146,11.7990412 C9.11284102,11.9188973 8.99885731,12.1256492 8.99885731,12.3463843 L8.99885731,15.3497803 C8.99885731,15.5815022 9.12383945,15.7982421 9.3258106,15.9141031 C9.42079703,15.9680384 9.52678189,15.9970036 9.63676618,15.9970036 C9.76174832,15.9970036 9.8907299,15.9610467 10.0187116,15.8851378 L14.6730467,12.5211746 C14.874018,12.4053136 15,12.1895725 15,11.9568518 L15,6.81302437 C15,6.53935278 14.8590201,6.29165002 14.6250536,6.14982022 L14.6250536,6.14982022 Z" id="Amazon-Elastic-Container-Registry_Icon_16_Squid"></path>
        </g>
    </g>
</svg>