<?xml version="1.0" encoding="UTF-8"?>
<svg width="24px" height="24px" viewBox="0 0 24 24" version="1.1" xmlns="http://www.w3.org/2000/svg" xmlns:xlink="http://www.w3.org/1999/xlink">
    <!-- Generator: Sketch 64 (93537) - https://sketch.com -->
    <title>Icon-Architecture/16/Arch_AWS-EC2-Image-Builder_16</title>
    <desc>Created with Sketch.</desc>
    <defs>
        <linearGradient x1="0%" y1="100%" x2="100%" y2="0%" id="linearGradient-1">
            <stop stop-color="#C8511B" offset="0%"></stop>
            <stop stop-color="#FF9900" offset="100%"></stop>
        </linearGradient>
    </defs>
    <g id="Icon-Architecture/16/Arch_AWS-EC2-Image-Builder_16" stroke="none" stroke-width="1" fill="none" fill-rule="evenodd">
        <g id="Icon-Architecture-BG/16/Compute" fill="url(#linearGradient-1)">
            <rect id="Rectangle" x="0" y="0" width="24" height="24"></rect>
        </g>
        <path d="M9.93117307,9.646 L7.63727707,11.929 L9.93117307,14.209 L10.6415473,13.501 L9.05802562,11.929 L10.6415473,10.353 L9.93117307,9.646 Z M5.00477267,19 L11.0334087,19 L11.0334087,5 L5.00477267,5 L5.00477267,19 Z M4,20 L12.0381814,20 L12.0381814,4 L4,4 L4,20 Z M6.8123587,11.91 C6.8123587,9.792 8.16880181,7.917 10.1883949,7.244 L9.86887717,6.295 C7.44034162,7.105 5.80758603,9.361 5.80758603,11.91 C5.80758603,14.458 7.44034162,16.714 9.86887717,17.523 L10.1873901,16.575 C8.16880181,15.903 6.8123587,14.028 6.8123587,11.91 L6.8123587,11.91 Z M13.042954,14.51 L13.042954,15.51 C14.9811605,15.51 16.5596584,13.94 16.5596584,12.01 C16.5596584,10.081 14.9811605,8.51 13.042954,8.51 L13.042954,9.51 C14.4285355,9.51 15.5548857,10.632 15.5548857,12.01 C15.5548857,13.389 14.4285355,14.51 13.042954,14.51 L13.042954,14.51 Z M20,11.007 L20,13.291 C20,13.724 19.64632,14.076 19.2112535,14.076 L18.395378,14.076 C18.3059533,14.341 18.1984426,14.601 18.0708365,14.853 L18.6495855,15.429 C18.957046,15.735 18.957046,16.233 18.6495855,16.539 L17.0268777,18.154 C16.7304697,18.451 16.2079879,18.451 15.9095705,18.153 L15.3328309,17.579 C15.0796282,17.705 14.8183873,17.813 14.5521226,17.901 L14.5521226,18.714 C14.5521226,19.147 14.1974378,19.5 13.7623713,19.5 L12.6159256,19.5 L12.6159256,18.5 L13.5473499,18.5 L13.5473499,17.145 L13.9211253,17.046 C14.3551871,16.932 14.7761869,16.758 15.1710625,16.53 L15.5046471,16.336 L16.4682241,17.295 L17.785481,15.984 L16.821904,15.025 L17.0168299,14.693 C17.2469229,14.298 17.4217533,13.88 17.5352926,13.449 L17.6337604,13.076 L18.9952273,13.076 L18.9952273,11.222 L17.6337604,11.222 L17.5352926,10.85 C17.4217533,10.418 17.2469229,10 17.0168299,9.605 L16.821904,9.273 L17.7864858,8.314 L16.4682241,7.003 L15.5046471,7.962 L15.1710625,7.769 C14.7761869,7.54 14.3551871,7.366 13.9211253,7.252 L13.5473499,7.153 L13.5473499,5.799 L12.6380306,5.799 L12.6380306,4.799 L13.7623713,4.799 C14.1974378,4.799 14.5521226,5.151 14.5521226,5.584 L14.5521226,6.397 C14.8183873,6.486 15.0796282,6.594 15.3328309,6.72 L15.9105752,6.145 C16.2069832,5.849 16.729465,5.846 17.0268777,6.146 L18.6495855,7.759 C18.9560412,8.066 18.9560412,8.564 18.6495855,8.87 L18.0708365,9.445 C18.1984426,9.698 18.3059533,9.957 18.395378,10.222 L19.2112535,10.222 C19.64632,10.222 20,10.574 20,11.007 L20,11.007 Z" id="AWS-EC2-Image-Builder_Icon_16_Squid" fill="#FFFFFF"></path>
    </g>
</svg>