<?xml version="1.0" encoding="UTF-8"?>
<svg width="24px" height="24px" viewBox="0 0 24 24" version="1.1" xmlns="http://www.w3.org/2000/svg" xmlns:xlink="http://www.w3.org/1999/xlink">
    <!-- Generator: Sketch 64 (93537) - https://sketch.com -->
    <title>Icon-Architecture/16/Arch_AWS-Lambda_16</title>
    <desc>Created with Sketch.</desc>
    <defs>
        <linearGradient x1="0%" y1="100%" x2="100%" y2="0%" id="linearGradient-1">
            <stop stop-color="#C8511B" offset="0%"></stop>
            <stop stop-color="#FF9900" offset="100%"></stop>
        </linearGradient>
    </defs>
    <g id="Icon-Architecture/16/Arch_AWS-Lambda_16" stroke="none" stroke-width="1" fill="none" fill-rule="evenodd">
        <g id="Icon-Architecture-BG/16/Compute" fill="url(#linearGradient-1)">
            <rect id="Rectangle" x="0" y="0" width="24" height="24"></rect>
        </g>
        <path d="M8.35471698,19 L5.33377354,19 L8.87677893,11.806 L10.3893141,14.832 L8.35471698,19 Z M9.3369363,10.435 C9.25026989,10.262 9.06971487,10.153 8.87265196,10.153 L8.87058847,10.153 C8.67352556,10.153 8.49297054,10.264 8.40733588,10.437 L4.05028527,19.285 C3.97393629,19.439 3.98528546,19.622 4.07917407,19.767 C4.17409443,19.912 4.33814156,20 4.51560135,20 L8.68074777,20 C8.8809059,20 9.06249267,19.889 9.14812734,19.714 L11.4282793,15.043 C11.4943109,14.907 11.4932791,14.748 11.4262158,14.611 L9.3369363,10.435 Z M18.968257,19 L15.7987426,19 L10.1747116,7.289 C10.0901087,7.113 9.90749017,7 9.70733203,7 L7.61598901,7 L7.6180525,5 L11.7883576,5 L17.386595,16.71 C17.471198,16.887 17.6548482,17 17.8550063,17 L18.968257,17 L18.968257,19 Z M19.4841285,16 L18.1841324,16 L12.5869267,4.29 C12.5023238,4.113 12.3186735,4 12.1174836,4 L7.10321275,4 C6.81845169,4 6.58734126,4.224 6.58734126,4.5 L6.58424603,7.5 C6.58424603,7.632 6.63892841,7.759 6.73591225,7.854 C6.83186434,7.947 6.9628957,8 7.10011752,8 L9.37820602,8 L15.002237,19.711 C15.0868399,19.887 15.2694584,20 15.4696166,20 L19.4841285,20 C19.7688896,20 20,19.776 20,19.5 L20,16.5 C20,16.224 19.7688896,16 19.4841285,16 L19.4841285,16 Z" id="AWS-Lambda_Icon_16_Squid" fill="#FFFFFF"></path>
    </g>
</svg>