<?xml version="1.0" encoding="UTF-8"?>
<svg width="24px" height="24px" viewBox="0 0 24 24" version="1.1" xmlns="http://www.w3.org/2000/svg" xmlns:xlink="http://www.w3.org/1999/xlink">
    <!-- Generator: Sketch 64 (93537) - https://sketch.com -->
    <title>Icon-Architecture/16/Arch_Amazon-EC2-M5n_16</title>
    <desc>Created with Sketch.</desc>
    <defs>
        <linearGradient x1="0%" y1="100%" x2="100%" y2="0%" id="linearGradient-1">
            <stop stop-color="#C8511B" offset="0%"></stop>
            <stop stop-color="#FF9900" offset="100%"></stop>
        </linearGradient>
    </defs>
    <g id="Icon-Architecture/16/Arch_Amazon-EC2-M5n_16" stroke="none" stroke-width="1" fill="none" fill-rule="evenodd">
        <g id="Icon-Architecture-BG/16/Compute" fill="url(#linearGradient-1)">
            <rect id="Rectangle" x="0" y="0" width="24" height="24"></rect>
        </g>
        <path d="M19.127,14.8731785 L19.127,12.0004804 C19.127,11.7007206 19.064,11.4807046 18.938,11.3394716 C18.811,11.1982386 18.612,11.1271417 18.342,11.1271417 C17.877,11.1271417 17.421,11.271257 16.975,11.5594876 L16.975,14.8731785 L16.102,14.8731785 L16.102,10.5766213 L16.833,10.5766213 L16.922,11.051241 C17.481,10.6496397 18.068,10.4497998 18.686,10.4497998 C19.115,10.4497998 19.441,10.5583667 19.665,10.7755004 C19.888,10.9926341 20,11.308727 20,11.7208967 L20,14.8731785 L19.127,14.8731785 Z M11.074,13.9835068 C11.727,14.1871898 12.285,14.2890312 12.75,14.2890312 C13.197,14.2890312 13.54,14.1910328 13.777,13.9959968 C14.016,13.8009608 14.135,13.5194556 14.135,13.152442 C14.135,12.7518014 14.023,12.4606886 13.799,12.2800641 C13.576,12.0994396 13.211,12.0091273 12.706,12.0091273 C12.342,12.0091273 11.886,12.0369896 11.339,12.0936749 L11.339,11.5345076 L11.506,9 L14.727,9 L14.727,9.69463571 L12.248,9.69463571 L12.133,11.4153723 C12.455,11.3586869 12.747,11.3298639 13.006,11.3298639 C13.641,11.3298639 14.138,11.491273 14.497,11.8131305 C14.856,12.1359488 15.034,12.5798239 15.034,13.1447558 C15.034,13.6981585 14.825,14.1458767 14.408,14.4879103 C13.991,14.829944 13.44,15 12.759,15 C12.159,15 11.598,14.8875901 11.074,14.6608487 L11.074,13.9835068 Z M9.099,14.8731785 L9.099,10.2547638 L7.379,13.372458 L6.559,13.372458 L4.829,10.2461169 L4.829,14.8731785 L4,14.8731785 L4,9 L5.006,9 L6.981,12.6019215 L8.948,9 L9.928,9 L9.928,14.8731785 L9.099,14.8731785 Z" id="Amazon-EC2-M5n_Icon_16px_Squid" fill="#FFFFFF"></path>
    </g>
</svg>