<?xml version="1.0" encoding="UTF-8"?>
<svg width="24px" height="24px" viewBox="0 0 24 24" version="1.1" xmlns="http://www.w3.org/2000/svg" xmlns:xlink="http://www.w3.org/1999/xlink">
    <!-- Generator: Sketch 64 (93537) - https://sketch.com -->
    <title>Icon-Architecture/16/Arch_Amazon-Lightsail_16</title>
    <desc>Created with Sketch.</desc>
    <defs>
        <linearGradient x1="0%" y1="100%" x2="100%" y2="0%" id="linearGradient-1">
            <stop stop-color="#C8511B" offset="0%"></stop>
            <stop stop-color="#FF9900" offset="100%"></stop>
        </linearGradient>
    </defs>
    <g id="Icon-Architecture/16/Arch_Amazon-Lightsail_16" stroke="none" stroke-width="1" fill="none" fill-rule="evenodd">
        <g id="Icon-Architecture-BG/16/Compute" fill="url(#linearGradient-1)">
            <rect id="Rectangle" x="0" y="0" width="24" height="24"></rect>
        </g>
        <path d="M20,12.5 C20,16.636 16.636,20 12.5,20 C9.458,20 6.738,18.185 5.571,15.376 L6.495,14.992 C7.506,17.427 9.863,19 12.5,19 C16.084,19 19,16.084 19,12.5 C19,8.916 16.084,6 12.5,6 C9.826,6 7.386,7.677 6.429,10.173 L5.495,9.815 C6.6,6.935 9.415,5 12.5,5 C16.636,5 20,8.364 20,12.5 L20,12.5 Z M7,13 L10,13 L10,12 L7,12 L7,13 Z M4,13 L6,13 L6,12 L4,12 L4,13 Z M14.193,9.163 C14.792,10.014 15.392,11.192 15.392,12.501 C15.392,13.794 14.737,15.02 14.188,15.82 C13.856,14.343 13.213,13.192 12.331,12.501 C13.217,11.807 13.862,10.65 14.193,9.163 L14.193,9.163 Z M13.382,17.081 C13.402,17.277 13.537,17.443 13.725,17.504 C13.775,17.521 13.827,17.528 13.879,17.528 C14.018,17.528 14.153,17.47 14.25,17.363 C14.753,16.806 16.392,14.81 16.392,12.501 C16.392,10.33 15.051,8.521 14.251,7.636 C14.118,7.49 13.913,7.434 13.725,7.496 C13.537,7.557 13.403,7.723 13.383,7.919 C13.163,10 12.334,11.541 11.165,12.042 C10.981,12.12 10.862,12.301 10.862,12.501 C10.862,12.701 10.981,12.882 11.165,12.96 C12.334,13.462 13.162,15.002 13.382,17.081 L13.382,17.081 Z" id="Amazon-Lightsail-Icon_16_Squid" fill="#FFFFFF"></path>
    </g>
</svg>