<?xml version="1.0" encoding="UTF-8"?>
<svg width="24px" height="24px" viewBox="0 0 24 24" version="1.1" xmlns="http://www.w3.org/2000/svg" xmlns:xlink="http://www.w3.org/1999/xlink">
    <!-- Generator: Sketch 64 (93537) - https://sketch.com -->
    <title>Icon-Architecture/16/Arch_AWS-Outposts_16</title>
    <desc>Created with Sketch.</desc>
    <defs>
        <linearGradient x1="0%" y1="100%" x2="100%" y2="0%" id="linearGradient-1">
            <stop stop-color="#C8511B" offset="0%"></stop>
            <stop stop-color="#FF9900" offset="100%"></stop>
        </linearGradient>
    </defs>
    <g id="Icon-Architecture/16/Arch_AWS-Outposts_16" stroke="none" stroke-width="1" fill="none" fill-rule="evenodd">
        <g id="Icon-Architecture-BG/16/Compute" fill="url(#linearGradient-1)">
            <rect id="Rectangle" x="0" y="0" width="24" height="24"></rect>
        </g>
        <path d="M16.0290614,8.88730189 L11.2957359,8.82014659 L11.230683,18.9305268 L15.9640085,18.9976821 C15.9999333,18.9976821 16.0290614,18.9676126 16.0290614,18.9305268 L16.0290614,8.88730189 Z M17,8.88730189 L17,18.9305268 C17,19.5198897 16.5349204,20 15.9640085,20 L11.2957359,20 C10.7238531,20 10.2597445,19.5198897 10.2597445,18.9305268 L10.2597445,8.88730189 C10.2597445,8.29793898 10.7238531,7.81782873 11.2957359,7.81782873 L15.9640085,7.81782873 C16.5349204,7.81782873 17,8.29793898 17,8.88730189 L17,8.88730189 Z M12.1423943,10.9701184 L15.0299656,10.9701184 L15.0299656,9.96780054 L12.1423943,9.96780054 L12.1423943,10.9701184 Z M12.1423943,12.9667356 L15.0299656,12.9667356 L15.0299656,11.9644177 L12.1423943,11.9644177 L12.1423943,12.9667356 Z M10.0092423,5.76708639 C9.50435425,6.36446783 9.34609127,7.1372549 9.41308603,7.63841383 C9.44901076,7.90503038 9.27327087,8.15360521 9.01597215,8.19971183 C8.81887162,8.23980455 7.82074678,8.5174466 7.98969009,9.97381445 C8.00328323,10.0800601 8.15280777,11.038276 9.01791403,11.038276 L9.70922229,11.038276 L9.70922229,12.0405939 L9.01791403,12.0405939 C7.62267531,12.0405939 7.10516505,10.7676502 7.02651903,10.0940926 C6.83621507,8.46031448 7.7081179,7.64943933 8.42758338,7.34172775 C8.44408934,6.5649314 8.75576062,5.72599136 9.27715463,5.10856355 C9.70339666,4.60239303 10.4684963,4 11.688966,4 L11.689937,4 C13.2589737,4 14.1434987,4.89707448 14.5639151,5.71997745 C14.9503487,5.4984652 15.388242,5.46238176 15.6698142,5.52051619 C16.667939,5.72198208 16.9067899,6.74234167 16.8951386,7.25452609 L15.9242001,7.22746351 C15.925171,7.16632212 15.9174035,6.59199399 15.483394,6.50479233 C15.4795102,6.50479233 14.9891862,6.45668107 14.8105335,6.84257345 C14.7202362,7.03902775 14.5173101,7.15128735 14.3095292,7.12322245 C14.1017484,7.09515755 13.9347469,6.93278206 13.8959094,6.71928835 C13.8619265,6.54688968 13.5085049,5.00231786 11.689937,5.00231786 L11.688966,5.00231786 C10.8335692,5.00231786 10.3044076,5.41827977 10.0092423,5.76708639 L10.0092423,5.76708639 Z" id="AWS-Outposts_Icon_16_Squid" fill="#FFFFFF"></path>
    </g>
</svg>