<?xml version="1.0" encoding="UTF-8"?>
<svg width="24px" height="24px" viewBox="0 0 24 24" version="1.1" xmlns="http://www.w3.org/2000/svg" xmlns:xlink="http://www.w3.org/1999/xlink">
    <!-- Generator: Sketch 64 (93537) - https://sketch.com -->
    <title>Icon-Architecture/16/Arch_AWS-Elastic-Beanstalk_16</title>
    <desc>Created with Sketch.</desc>
    <defs>
        <linearGradient x1="0%" y1="100%" x2="100%" y2="0%" id="linearGradient-1">
            <stop stop-color="#C8511B" offset="0%"></stop>
            <stop stop-color="#FF9900" offset="100%"></stop>
        </linearGradient>
    </defs>
    <g id="Icon-Architecture/16/Arch_AWS-Elastic-Beanstalk_16" stroke="none" stroke-width="1" fill="none" fill-rule="evenodd">
        <g id="Icon-Architecture-BG/16/Compute" fill="url(#linearGradient-1)">
            <rect id="Rectangle" x="0" y="0" width="24" height="24"></rect>
        </g>
        <path d="M14.9985007,13.6428238 C14.9985007,13.373991 14.7736132,13.1558078 14.4987506,13.1558078 C14.2238881,13.1558078 13.9990005,13.373991 13.9990005,13.6428238 C13.9990005,13.9116567 14.2238881,14.1298398 14.4987506,14.1298398 C14.7736132,14.1298398 14.9985007,13.9116567 14.9985007,13.6428238 M11.0004998,9.7466957 C11.0004998,10.0155285 11.2253873,10.2337117 11.5002499,10.2337117 C11.7751124,10.2337117 12,10.0155285 12,9.7466957 C12,9.47786286 11.7751124,9.25967968 11.5002499,9.25967968 C11.2253873,9.25967968 11.0004998,9.47786286 11.0004998,9.7466957 M8.001999,12.6687918 C8.001999,12.9376246 8.22688656,13.1558078 8.50174913,13.1558078 C8.77661169,13.1558078 9.00149925,12.9376246 9.00149925,12.6687918 C9.00149925,12.399959 8.77661169,12.1817758 8.50174913,12.1817758 C8.22688656,12.1817758 8.001999,12.399959 8.001999,12.6687918 M15.998001,13.6428238 C15.998001,14.2769187 15.5792104,14.8126363 14.9985007,15.0142609 L14.9985007,16.5649199 C14.9985007,16.8337528 14.7746127,17.0519359 14.4987506,17.0519359 L12,17.0519359 L12,19 L11.0004998,19 L11.0004998,16.0779039 L8.50174913,16.0779039 C8.22588706,16.0779039 8.001999,15.8597207 8.001999,15.5908879 L8.001999,14.0402289 C7.42128936,13.8386043 7.00249875,13.3028866 7.00249875,12.6687918 C7.00249875,11.8632673 7.67516242,11.2077437 8.50174913,11.2077437 C9.32833583,11.2077437 10.0009995,11.8632673 10.0009995,12.6687918 C10.0009995,13.3028866 9.5822089,13.8386043 9.00149925,14.0402289 L9.00149925,15.1038719 L11.0004998,15.1038719 L11.0004998,11.1181328 C10.4197901,10.9165082 10.0009995,10.3807906 10.0009995,9.7466957 C10.0009995,8.94117121 10.6736632,8.28564765 11.5002499,8.28564765 C12.3268366,8.28564765 12.9995002,8.94117121 12.9995002,9.7466957 C12.9995002,10.3807906 12.5807096,10.9165082 12,11.1181328 L12,16.0779039 L13.9990005,16.0779039 L13.9990005,15.0142609 C13.4182909,14.8126363 12.9995002,14.2769187 12.9995002,13.6428238 C12.9995002,12.8372993 13.6721639,12.1817758 14.4987506,12.1817758 C15.3253373,12.1817758 15.998001,12.8372993 15.998001,13.6428238 M20,12.0590477 C20,13.8054872 18.8965517,14.9392605 17.0504748,15.0892614 L16.9665167,14.1191255 C17.894053,14.043151 19.0004998,13.6243172 19.0004998,12.0590477 C19.0004998,10.9369628 18.3148426,10.2337117 16.9635182,9.96974904 C16.7406297,9.92591759 16.5767116,9.74182554 16.5627186,9.52072027 C16.4987506,8.45805132 15.888056,8.08207496 15.3843078,8.08207496 C15.0474763,8.08207496 14.7306347,8.23889412 14.5167416,8.51357115 C14.4067966,8.65480579 14.2218891,8.7249361 14.0449775,8.7005853 C13.864068,8.6733124 13.7131434,8.55350646 13.6501749,8.38694698 C13.4312844,7.80739793 13.1174413,7.32232997 12.7186407,6.94635361 C12.2278861,6.48174033 10.8795602,5.48530556 8.97751124,6.24505055 C7.88805597,6.67752077 7.03448276,7.9281779 7.03448276,9.09312021 C7.03448276,9.22169244 7.04247876,9.3512387 7.05847076,9.47786286 C7.08945527,9.7223449 6.92853573,9.9502684 6.68265867,10.0106584 C6.05397301,10.1616333 4.99950025,10.6272207 4.99950025,12.037619 L5.00449775,12.1652172 C5.06246877,13.1850288 5.93203398,14.011982 7.02848576,14.1181515 L6.93053473,15.0873133 C5.34732634,14.9353643 4.09095452,13.7139282 4.007996,12.2470359 L4,12.037619 C4,10.6827405 4.75262369,9.64150024 6.03598201,9.18467922 C6.03498251,9.15448423 6.03498251,9.1233152 6.03498251,9.09312021 C6.03498251,7.53466896 7.13743128,5.92361998 8.59970015,5.34309689 C10.2988506,4.66614462 12.0989505,5.00315971 13.4132934,6.24602458 C13.7631184,6.57524741 14.0589705,6.96583425 14.2978511,7.40999286 C14.6216892,7.21323839 14.9945027,7.10804293 15.3843078,7.10804293 C16.2858571,7.10804293 17.2903548,7.73337149 17.5192404,9.09701634 C19.1224388,9.52072027 20,10.5619605 20,12.0590477" id="AWS-Elastic-Beanstalk_Icon_16_Squid" fill="#FFFFFF"></path>
    </g>
</svg>