<?xml version="1.0" encoding="UTF-8"?>
<svg width="24px" height="24px" viewBox="0 0 24 24" version="1.1" xmlns="http://www.w3.org/2000/svg" xmlns:xlink="http://www.w3.org/1999/xlink">
    <!-- Generator: Sketch 64 (93537) - https://sketch.com -->
    <title>Icon-Architecture/16/Arch_Amazon-EC2-R5n_16</title>
    <desc>Created with Sketch.</desc>
    <defs>
        <linearGradient x1="0%" y1="100%" x2="100%" y2="0%" id="linearGradient-1">
            <stop stop-color="#C8511B" offset="0%"></stop>
            <stop stop-color="#FF9900" offset="100%"></stop>
        </linearGradient>
    </defs>
    <g id="Icon-Architecture/16/Arch_Amazon-EC2-R5n_16" stroke="none" stroke-width="1" fill="none" fill-rule="evenodd">
        <g id="Icon-Architecture-BG/16/Compute" fill="url(#linearGradient-1)">
            <rect id="Rectangle" x="0" y="0" width="24" height="24"></rect>
        </g>
        <path d="M18.1054889,15.586378 L18.1054889,12.3647572 C18.1054889,12.0290182 18.0414523,11.781687 17.9113779,11.6227635 C17.7823042,11.4648925 17.5781875,11.3849045 17.3010292,11.3849045 C16.824757,11.3849045 16.3584906,11.5469854 15.9002287,11.8700947 L15.9002287,15.586378 L15.0057176,15.586378 L15.0057176,10.7671027 L15.7561464,10.7671027 L15.8461978,11.2996542 C16.4185249,10.8502481 17.0208691,10.6250188 17.6532304,10.6250188 C18.093482,10.6250188 18.427673,10.7471057 18.6568039,10.9912795 C18.8849342,11.2344008 19,11.5880319 19,12.0511201 L19,15.586378 L18.1054889,15.586378 Z M10.0028588,14.8601714 C10.6712407,15.0875056 11.2435678,15.2022252 11.7198399,15.2022252 C12.1781018,15.2022252 12.5293025,15.092768 12.7724414,14.8738536 C13.0155803,14.6549391 13.1386507,14.3402496 13.1386507,13.9287325 C13.1386507,13.4793264 13.0235849,13.1520072 12.794454,12.9499323 C12.5663236,12.746805 12.1931103,12.6457676 11.6748142,12.6457676 C11.3006003,12.6457676 10.8343339,12.6773418 10.2740137,12.7404902 L10.2740137,12.1132161 L10.4461121,9.27153811 L13.7439966,9.27153811 L13.7439966,10.0503684 L11.2045455,10.0503684 L11.0874786,11.9806044 C11.4176672,11.9164035 11.7168382,11.8848293 11.9819897,11.8848293 C12.6323613,11.8848293 13.1416524,12.0658548 13.5078616,12.4268531 C13.8750715,12.7878515 14.0601772,13.2846189 14.0601772,13.9192603 C14.0601772,14.5402195 13.8460549,15.0422493 13.4178102,15.4253496 C12.990566,15.8084499 12.4272441,16 11.7288451,16 C11.114494,16 10.5391652,15.8737032 10.0028588,15.6200571 L10.0028588,14.8601714 Z M5.89551172,12.1647873 L7.16923957,12.1647873 C7.55445969,12.1647873 7.84862779,12.0637498 8.05074328,11.8606225 C8.25085763,11.6585476 8.35291595,11.3564877 8.35291595,10.9586528 C8.35291595,10.5650278 8.25586049,10.2682303 8.06375071,10.0693129 C7.87064037,9.86934296 7.58447684,9.77041046 7.20526015,9.77041046 L5.89551172,9.77041046 L5.89551172,12.1647873 Z M5,15.586378 L5,9 L7.28630646,9 C7.89465409,9 8.37993139,9.17576304 8.74213836,9.52728913 C9.1023442,9.87881522 9.28444826,10.3524282 9.28444826,10.9481281 C9.28444826,11.3849045 9.1693825,11.7637949 8.94525443,12.0837468 C8.71912521,12.4036987 8.4009434,12.6373478 7.99170955,12.7825891 L9.65365923,15.586378 L8.65108634,15.586378 L7.11520869,12.9341452 L5.89551172,12.9341452 L5.89551172,15.586378 L5,15.586378 Z" id="Amazon-EC2-R5n_Icon_16px_Squid" fill="#FFFFFF"></path>
    </g>
</svg>