<?xml version="1.0" encoding="UTF-8"?>
<svg width="24px" height="24px" viewBox="0 0 24 24" version="1.1" xmlns="http://www.w3.org/2000/svg" xmlns:xlink="http://www.w3.org/1999/xlink">
    <title>Icon-Architecture/16/Arch_AWS-Parallel-Cluster_16</title>
    <defs>
        <linearGradient x1="0%" y1="100%" x2="100%" y2="0%" id="linearGradient-1">
            <stop stop-color="#C8511B" offset="0%"></stop>
            <stop stop-color="#FF9900" offset="100%"></stop>
        </linearGradient>
    </defs>
    <g id="Icon-Architecture/16/Arch_AWS-Parallel-Cluster_16" stroke="none" stroke-width="1" fill="none" fill-rule="evenodd">
        <g id="Rectangle" fill="url(#linearGradient-1)">
            <rect x="0" y="0" width="24" height="24"></rect>
        </g>
        <g id="Icon-Service/16/AWS-ParallelClusters_16" transform="translate(4.000000, 4.000000)" fill="#FFFFFF">
            <path d="M11.5230996,13 L13.5230996,13 L13.5230996,11 L11.5230996,11 L11.5230996,13 Z M14.5230996,10.5 L14.5230996,13.5 C14.5230996,13.776 14.2990996,14 14.0230996,14 L11.0230996,14 C10.7460996,14 10.5230996,13.776 10.5230996,13.5 L10.5230996,10.5 C10.5230996,10.224 10.7460996,10 11.0230996,10 L14.0230996,10 C14.2990996,10 14.5230996,10.224 14.5230996,10.5 L14.5230996,10.5 Z M12.0230996,15 L9.52309958,15 L9.52309958,12.5 C9.52309958,12.224 9.29909958,12 9.02309958,12 C8.74609958,12 8.52309958,12.224 8.52309958,12.5 L8.52309958,15.5 C8.52309958,15.776 8.74609958,16 9.02309958,16 L12.0230996,16 C12.2990996,16 12.5230996,15.776 12.5230996,15.5 C12.5230996,15.224 12.2990996,15 12.0230996,15 L12.0230996,15 Z M1.52309958,6 L3.52309958,6 L3.52309958,4 L1.52309958,4 L1.52309958,6 Z M0.523099583,6.5 L0.523099583,3.5 C0.523099583,3.224 0.746099583,3 1.02309958,3 L4.02309958,3 C4.29909958,3 4.52309958,3.224 4.52309958,3.5 L4.52309958,6.5 C4.52309958,6.776 4.29909958,7 4.02309958,7 L1.02309958,7 C0.746099583,7 0.523099583,6.776 0.523099583,6.5 L0.523099583,6.5 Z M3.02309958,2 L5.52309958,2 L5.52309958,4.5 C5.52309958,4.776 5.74609958,5 6.02309958,5 C6.29909958,5 6.52309958,4.776 6.52309958,4.5 L6.52309958,1.5 C6.52309958,1.224 6.29909958,1 6.02309958,1 L3.02309958,1 C2.74609958,1 2.52309958,1.224 2.52309958,1.5 C2.52309958,1.776 2.74609958,2 3.02309958,2 L3.02309958,2 Z M15.0120996,9.066 C14.9730996,9.339 14.7140996,9.526 14.4460996,9.491 C14.1730996,9.452 13.9830996,9.199 14.0220996,8.925 C14.1130996,8.28 13.9390996,7.631 13.5550996,7.189 C13.1940996,6.772 12.6590996,6.551 12.0120996,6.551 C10.1980996,6.551 9.15409958,7.54 8.15209958,8.687 C8.41909958,8.996 8.74809958,9.355 9.04609958,9.638 C9.24609958,9.828 9.35509958,10.09 9.21009958,10.325 C9.11609958,10.479 8.95209958,10.563 8.78409958,10.563 C8.69509958,10.563 8.60209958,10.543 8.52309958,10.489 C8.20009958,10.267 7.91009958,9.936 7.49409958,9.449 C6.45809958,10.646 5.32609958,11.781 3.40409958,11.781 C2.40509958,11.781 1.50909958,11.413 0.880099583,10.743 C0.270099583,10.094 -0.048900417,9.217 0.00609958302,8.336 C0.024099583,8.06 0.270099583,7.857 0.536099583,7.868 C0.812099583,7.885 1.02209958,8.122 1.00409958,8.398 C0.966099583,9.004 1.18709958,9.609 1.60909958,10.059 C1.91809958,10.388 2.48209958,10.781 3.40409958,10.781 C4.94509958,10.781 5.84909958,9.83 6.83309958,8.685 C6.55809958,8.37 6.28209958,8.059 5.99209958,7.776 C5.79409958,7.583 5.79009958,7.267 5.98309958,7.069 C6.17809958,6.871 6.49409958,6.869 6.69009958,7.06 C6.96909958,7.332 7.23809958,7.622 7.49709958,7.919 C8.56209958,6.717 9.84409958,5.551 12.0120996,5.551 C13.2070996,5.551 13.9210996,6.085 14.3110996,6.534 C14.8820996,7.192 15.1440996,8.138 15.0120996,9.066 L15.0120996,9.066 Z" id="AWS-ParallelClusters_Icon_16_Squid"></path>
        </g>
    </g>
</svg>