<?xml version="1.0" encoding="UTF-8"?>
<svg width="24px" height="24px" viewBox="0 0 24 24" version="1.1" xmlns="http://www.w3.org/2000/svg" xmlns:xlink="http://www.w3.org/1999/xlink">
    <!-- Generator: Sketch 64 (93537) - https://sketch.com -->
    <title>Icon-Architecture/16/Arch_AWS-Serverless-Application-Repository_16</title>
    <desc>Created with Sketch.</desc>
    <defs>
        <linearGradient x1="0%" y1="100%" x2="100%" y2="0%" id="linearGradient-1">
            <stop stop-color="#C8511B" offset="0%"></stop>
            <stop stop-color="#FF9900" offset="100%"></stop>
        </linearGradient>
    </defs>
    <g id="Icon-Architecture/16/Arch_AWS-Serverless-Application-Repository_16" stroke="none" stroke-width="1" fill="none" fill-rule="evenodd">
        <g id="Icon-Architecture-BG/16/Compute" fill="url(#linearGradient-1)">
            <rect id="Rectangle" x="0" y="0" width="24" height="24"></rect>
        </g>
        <path d="M16.988927,16.035726 L8.29178268,16.035726 C7.30395649,16.035726 6.21025707,15.0810947 6.00725248,14.1071779 L13.5329923,14.1071779 C13.5271644,14.1611773 13.5242505,14.2151766 13.5242505,14.269176 C13.5242505,14.702135 13.7223985,15.1003802 14.0681862,15.3626627 C14.4159166,15.6249453 14.8588357,15.7098014 15.2891278,15.5931242 C15.7320469,15.47259 16.0904617,15.1302727 16.224503,14.7002065 C16.2866671,14.5034946 16.3051221,14.3019613 16.2808392,14.1071779 L19.0092599,14.1071779 C18.833452,15.6779803 17.5182931,16.035726 16.988927,16.035726 L16.988927,16.035726 Z M7.53027262,11.8122058 C7.76824451,11.7533851 7.92462604,11.527745 7.89548663,11.2857122 C7.88091692,11.1651779 7.87314641,11.0436794 7.87314641,10.9173595 C7.87314641,9.81808712 8.66670984,8.63395863 9.6797902,8.22124935 C9.90902027,8.12771477 10.1304798,8.06214413 10.3422263,8.02068035 L10.3422263,10.204761 C10.3422263,10.4024372 10.4626692,10.5788993 10.6481901,10.6521841 C10.8298258,10.7245047 11.0425435,10.6801481 11.1804701,10.5374355 C11.35045,10.3590448 11.6554426,10.3792946 11.8040536,10.567328 C11.8506767,10.627113 11.9215826,10.7524686 11.8769022,10.9327879 C11.8467914,11.0542864 11.7457748,11.1651779 11.6263032,11.2056774 C11.3815321,11.2905335 11.2232079,11.1487853 11.1804701,11.1034644 C11.0444862,10.9607518 10.8346824,10.915431 10.6481901,10.9877515 C10.4636405,11.0600721 10.3422263,11.2374985 10.3422263,11.4351746 L10.3422263,13.1429039 L6.04319109,13.1429039 C6.27922036,12.2577004 7.04267306,11.9317758 7.53027262,11.8122058 L7.53027262,11.8122058 Z M11.3135401,7.98114512 C12.219776,8.0930009 12.8608431,8.59924476 13.1609791,8.88852697 C13.5242505,9.23759416 13.8234151,9.70912416 14.0254484,10.2529747 C14.0866412,10.4178656 14.2333096,10.5364713 14.4091174,10.5634709 C14.5800686,10.5866135 14.7587904,10.5181501 14.8666062,10.3783303 C15.0637829,10.1227977 15.3542058,9.97526378 15.6650262,9.97526378 C16.1283429,9.97526378 16.6907337,10.3301166 16.7509551,11.327176 C16.7645535,11.5460662 16.923849,11.7283139 17.1394807,11.7717063 C18.1350774,11.9703467 18.7411772,12.4303054 18.9480671,13.1429039 L15.5270997,13.1429039 C15.3289516,13.1429039 15.1492586,13.2634382 15.07641,13.445686 C15.0025902,13.628898 15.0482419,13.8381455 15.1919964,13.9741081 C15.2483326,14.0271432 15.3726608,14.17757 15.2978696,14.4118885 C15.261931,14.52953 15.1541151,14.6298145 15.0327009,14.6625998 C14.8520365,14.7098492 14.7189665,14.64235 14.6587451,14.5960649 C14.5548145,14.5179587 14.4955643,14.3983887 14.4955643,14.269176 C14.4955643,14.1582845 14.5402448,14.0531786 14.6237778,13.9741081 C14.7685035,13.8381455 14.8141553,13.628898 14.7403354,13.445686 C14.6665156,13.2634382 14.4877938,13.1429039 14.2896458,13.1429039 L11.3135401,13.1429039 L11.3135401,12.1863441 C11.5184873,12.2094867 11.734119,12.1882727 11.9429515,12.1178807 C12.3742149,11.9693825 12.7112608,11.6039226 12.8200479,11.1642136 C12.9249498,10.7437902 12.8346176,10.3098669 12.5684776,9.97333524 C12.2702843,9.59437555 11.7894839,9.39477083 11.3135401,9.45455581 L11.3135401,7.98114512 Z M17.6795312,10.908681 C17.4590429,9.60787538 16.5149259,9.01098977 15.6650262,9.01098977 C15.3036975,9.01098977 14.9569384,9.10934572 14.6558311,9.29062923 C14.4324289,8.87213431 14.1585184,8.50474591 13.8370135,8.19617822 C12.6024736,7.00337126 10.9104449,6.67937519 9.31166224,7.32929588 C7.93822444,7.88857481 6.90183255,9.43044896 6.90183255,10.9173595 C6.90183255,10.9433949 6.90183255,10.9694303 6.90280386,10.9954657 C5.70323124,11.4342104 5,12.4293412 5,13.7253254 C5,13.7957174 5.00291394,13.8593595 5.0067992,13.9258944 C5.09616007,15.5063395 6.69202875,17 8.29178268,17 L16.988927,17 C18.152561,17 20,16.116725 20,13.7475037 C20,12.3145925 19.1792398,11.3165689 17.6795312,10.908681 L17.6795312,10.908681 Z" id="AWS-Serverless-Application-Repository_Icon_16_Squid" fill="#FFFFFF"></path>
    </g>
</svg>