<?xml version="1.0" encoding="UTF-8"?>
<svg width="24px" height="24px" viewBox="0 0 24 24" version="1.1" xmlns="http://www.w3.org/2000/svg" xmlns:xlink="http://www.w3.org/1999/xlink">
    <title>Icon-Architecture/16/Arch_AWS-ThinkBox-Stoke_16</title>
    <defs>
        <linearGradient x1="0%" y1="100%" x2="100%" y2="0%" id="linearGradient-1">
            <stop stop-color="#C8511B" offset="0%"></stop>
            <stop stop-color="#FF9900" offset="100%"></stop>
        </linearGradient>
    </defs>
    <g id="Icon-Architecture/16/Arch_AWS-ThinkBox-Stoke_16" stroke="none" stroke-width="1" fill="none" fill-rule="evenodd">
        <g id="Rectangle" fill="url(#linearGradient-1)">
            <rect x="0" y="0" width="24" height="24"></rect>
        </g>
        <g id="Icon-Service/16/AWS-ThinkBox-Stoke_16" transform="translate(4.000000, 4.000000)" fill="#FFFFFF">
            <path d="M8.363,6.6485 C8.174,6.4495 7.826,6.4495 7.636,6.6485 C7.529,6.7625 5,9.4685 5,12.4925 C5,12.8225 5.006,13.2775 5.095,13.7765 C4.398,12.9055 4,11.7575 4,10.4925 C4,6.6285 6.941,2.6005 8,1.2755 C9.058,2.6005 12,6.6285 12,10.4925 C12,11.7505 11.605,12.8905 10.916,13.7595 C10.995,13.2915 11,12.8535 11,12.4925 C11,9.4685 8.47,6.7625 8.363,6.6485 L8.363,6.6485 Z M9.706,15.9475 L10.442,15.5415 L15.743,12.5955 C15.901,12.5075 16,12.3405 16,12.1585 L16,4.3805 C16,4.2295 15.931,4.0865 15.813,3.9915 L12.813,1.5755 L12.186,2.3535 L15,4.6205 L15,11.8645 L12.346,13.3385 C12.761,12.4925 13,11.5275 13,10.4925 C13,5.4205 8.562,0.3725 8.374,0.1605 C8.182,-0.0535 7.817,-0.0535 7.626,0.1605 C7.437,0.3725 3,5.4205 3,10.4925 C3,11.5275 3.238,12.4925 3.653,13.3385 L1,11.8645 L1,4.6205 L3.813,2.3535 L3.186,1.5755 L0.186,3.9915 C0.068,4.0865 0,4.2295 0,4.3805 L0,12.1585 C0,12.3405 0.098,12.5075 0.257,12.5955 L5.557,15.5415 L6.294,15.9475 L6.853,15.1385 C6,14.2855 6,13.2065 6,12.4925 C6,10.5105 7.338,8.5915 8.001,7.7625 C8.663,8.5895 10,10.5045 10,12.4925 C10,13.2915 10,14.2855 9.146,15.1385 L9.706,15.9475 Z" id="AWS-ThinkBox-Stoke_16_Squid"></path>
        </g>
    </g>
</svg>