<?xml version="1.0" encoding="UTF-8"?>
<svg width="24px" height="24px" viewBox="0 0 24 24" version="1.1" xmlns="http://www.w3.org/2000/svg" xmlns:xlink="http://www.w3.org/1999/xlink">
    <title>Icon-Architecture/16/Arch_AWS-ThinkBox-Krakatoa_16</title>
    <defs>
        <linearGradient x1="0%" y1="100%" x2="100%" y2="0%" id="linearGradient-1">
            <stop stop-color="#C8511B" offset="0%"></stop>
            <stop stop-color="#FF9900" offset="100%"></stop>
        </linearGradient>
    </defs>
    <g id="Icon-Architecture/16/Arch_AWS-ThinkBox-Krakatoa_16" stroke="none" stroke-width="1" fill="none" fill-rule="evenodd">
        <g id="Rectangle" fill="url(#linearGradient-1)">
            <rect x="0" y="0" width="24" height="24"></rect>
        </g>
        <g id="Icon-Service/16/AWS-ThinkBox-Krakatoa_16" transform="translate(4.000000, 4.000000)" fill="#FFFFFF">
            <path d="M15,4.50012554 L15,7.00012554 L14,7.00012554 L14,5.08312554 C10.564,5.72112554 8.181,8.24912554 8,11.5201255 L8,12.0001255 L7.999,12.0001255 L8,13.0001255 L7.999,13.0001255 L8,15.0001255 L9,15.0001255 L9,12.0001255 C9,10.3461255 10.346,9.00012554 12,9.00012554 C13.103,9.00012554 14,9.89712554 14,11.0001255 C14,12.1031255 13.103,13.0001255 12,13.0001255 L12,12.0001255 C12.552,12.0001255 13,11.5511255 13,11.0001255 C13,10.4491255 12.552,10.0001255 12,10.0001255 C10.897,10.0001255 10,10.8971255 10,12.0001255 L10,15.0001255 L11,15.0001255 L11,16.0001255 L4,16.0001255 L4,15.0001255 L5,15.0001255 L5,12.0001255 C5,10.8971255 4.103,10.0001255 3,10.0001255 C2.448,10.0001255 2,10.4491255 2,11.0001255 C2,11.5511255 2.448,12.0001255 3,12.0001255 L3,13.0001255 C1.897,13.0001255 1,12.1031255 1,11.0001255 C1,9.89712554 1.897,9.00012554 3,9.00012554 C4.654,9.00012554 6,10.3461255 6,12.0001255 L6,15.0001255 L7,15.0001255 L7,13.0001255 L7,12.0001255 L7,11.5001255 C6.823,8.25112554 4.438,5.72212554 1,5.08312554 L1,7.00012554 L0,7.00012554 L0,4.50012554 C0,4.35712554 0.062,4.22112554 0.169,4.12512554 C0.194,4.10312554 0.228,4.09312554 0.257,4.07612554 L0.251,4.06612554 L2.751,2.63012554 L3.249,3.49812554 L1.908,4.26812554 C4.163,4.86612554 5.957,6.21712554 7,8.04312554 L7,1.34212554 L5.101,2.43412554 L4.603,1.56612554 L7.214,0.0661255357 C7.367,-0.0218744643 7.557,-0.0218744643 7.71,0.0651255357 L10.349,1.56512554 L9.854,2.43512554 L8,1.38012554 L8,8.05112554 C9.043,6.22112554 10.832,4.86912554 13.083,4.27012554 L11.753,3.51412554 L12.247,2.64512554 L14.747,4.06512554 L14.741,4.07512554 C14.771,4.09212554 14.805,4.10312554 14.831,4.12512554 C14.938,4.22112554 15,4.35712554 15,4.50012554" id="AWS-ThinkBox-Krakatoa_16_Squid"></path>
        </g>
    </g>
</svg>