<?xml version="1.0" encoding="UTF-8"?>
<svg width="24px" height="24px" viewBox="0 0 24 24" version="1.1" xmlns="http://www.w3.org/2000/svg" xmlns:xlink="http://www.w3.org/1999/xlink">
    <title>Icon-Architecture/16/Arch_AWS-ThinkBox-XMesh_16</title>
    <defs>
        <linearGradient x1="0%" y1="100%" x2="100%" y2="0%" id="linearGradient-1">
            <stop stop-color="#C8511B" offset="0%"></stop>
            <stop stop-color="#FF9900" offset="100%"></stop>
        </linearGradient>
    </defs>
    <g id="Icon-Architecture/16/Arch_AWS-ThinkBox-XMesh_16" stroke="none" stroke-width="1" fill="none" fill-rule="evenodd">
        <g id="Rectangle" fill="url(#linearGradient-1)">
            <rect x="0" y="0" width="24" height="24"></rect>
        </g>
        <g id="Icon-Service/16/AWS-ThinkBox-XMesh_16" transform="translate(4.000000, 4.000000)" fill="#FFFFFF">
            <path d="M15,4.453 L14.016,4.041 L8.22,6.869 C8.081,6.936 7.919,6.936 7.78,6.869 L1.984,4.041 L1,4.453 L1,5.61 L4.979,7.551 C5.15,7.635 5.26,7.809 5.26,8 C5.26,8.191 5.15,8.366 4.979,8.45 L1,10.391 L1,11.548 L1.984,11.96 L7.78,9.132 L11.021,7.551 L11.021,7.552 C11.021,7.552 11.021,7.551 11.021,7.551 L15,5.61 L15,4.453 Z M11.24,8.557 L9.141,9.581 L14.016,11.96 L15,11.548 L15,10.391 L11.24,8.557 Z M15.719,6.371 L12.381,8 L15.719,9.629 C15.891,9.713 16,9.888 16,10.078 L16,11.88 C16,12.082 15.879,12.264 15.693,12.341 L14.193,12.97 C14.131,12.996 14.065,13.009 14,13.009 C13.925,13.009 13.85,12.992 13.78,12.958 L8,10.138 L2.22,12.958 C2.09,13.021 1.941,13.026 1.807,12.97 L0.307,12.341 C0.121,12.264 0,12.082 0,11.88 L0,10.078 C0,9.888 0.109,9.713 0.281,9.629 L3.619,8 L0.281,6.371 C0.109,6.288 0,6.113 0,5.922 L0,4.12 C0,3.919 0.121,3.737 0.307,3.66 L1.807,3.031 C1.94,2.974 2.09,2.979 2.22,3.043 L8,5.863 L13.78,3.043 C13.911,2.98 14.06,2.975 14.193,3.031 L15.693,3.66 C15.879,3.737 16,3.919 16,4.12 L16,5.922 C16,6.113 15.891,6.288 15.719,6.371 L15.719,6.371 Z M9,14.233 L8,14.899 L7,14.233 L7,12 L6,12 L6,14.5 C6,14.667 6.084,14.824 6.223,14.916 L7.723,15.916 C7.807,15.973 7.903,16 8,16 C8.097,16 8.193,15.973 8.277,15.916 L9.777,14.916 C9.916,14.824 10,14.667 10,14.5 L10,12 L9,12 L9,14.233 Z M7,4 L6,4 L6,1.5 C6,1.333 6.084,1.177 6.223,1.084 L7.723,0.084 C7.891,-0.028 8.109,-0.028 8.277,0.084 L9.777,1.084 C9.916,1.177 10,1.333 10,1.5 L10,4 L9,4 L9,1.768 L8,1.101 L7,1.768 L7,4 Z" id="AWS-ThinkBox-Mesh_16_Squid"></path>
        </g>
    </g>
</svg>