<?xml version="1.0" encoding="UTF-8"?>
<svg width="24px" height="24px" viewBox="0 0 24 24" version="1.1" xmlns="http://www.w3.org/2000/svg" xmlns:xlink="http://www.w3.org/1999/xlink">
    <!-- Generator: Sketch 64 (93537) - https://sketch.com -->
    <title>Icon-Architecture/16/Arch_AWS-Fargate_16</title>
    <desc>Created with Sketch.</desc>
    <defs>
        <linearGradient x1="0%" y1="100%" x2="100%" y2="0%" id="linearGradient-1">
            <stop stop-color="#C8511B" offset="0%"></stop>
            <stop stop-color="#FF9900" offset="100%"></stop>
        </linearGradient>
    </defs>
    <g id="Icon-Architecture/16/Arch_AWS-Fargate_16" stroke="none" stroke-width="1" fill="none" fill-rule="evenodd">
        <g id="Icon-Architecture-BG/16/Compute" fill="url(#linearGradient-1)">
            <rect id="Rectangle" x="0" y="0" width="24" height="24"></rect>
        </g>
        <g id="Icon-Service/16/AWS-Fargate" transform="translate(4.000000, 4.000000)" fill="#FFFFFF">
            <path d="M7.604,1.032 L10.725,2.168 L7.604,3.317 L4.483,2.168 L7.604,1.032 Z M11.271,7.328 C10.643,7.61 9.583,7.925 8.104,7.99 L8.104,4.6 L8.104,4.199 L11.679,2.882 L11.679,6.705 C11.679,6.972 11.519,7.218 11.271,7.328 L11.271,7.328 Z M3.529,6.705 L3.529,2.882 L7.104,4.199 L7.104,4.6 L7.104,7.99 C5.625,7.925 4.565,7.61 3.938,7.329 C3.689,7.218 3.529,6.972 3.529,6.705 L3.529,6.705 Z M3.529,8.241 C4.318,8.594 5.666,9.016 7.604,9.016 C9.542,9.016 10.89,8.594 11.68,8.241 C12.287,7.969 12.679,7.365 12.679,6.705 L12.679,2.165 L12.679,2.164 C12.679,1.954 12.547,1.767 12.35,1.695 L7.775,0.03 C7.666,-0.01 7.542,-0.01 7.433,0.03 L2.858,1.695 C2.661,1.767 2.529,1.954 2.529,2.164 L2.529,2.165 L2.529,6.705 C2.529,7.365 2.921,7.969 3.529,8.241 L3.529,8.241 Z M15.208,7.517 C15.208,9.532 11.939,11.05 7.604,11.05 C3.269,11.05 4.17443857e-14,9.532 4.17443857e-14,7.517 C4.17443857e-14,6.993 0.229,6.215 1.321,5.481 L1.879,6.311 C1.478,6.58 1,7.009 1,7.517 C1,8.715 3.711,10.05 7.604,10.05 C11.497,10.05 14.208,8.715 14.208,7.517 C14.208,7.011 13.733,6.583 13.333,6.314 L13.894,5.485 C14.98,6.219 15.208,6.995 15.208,7.517 L15.208,7.517 Z M9.604,13.99 L10.604,13.99 L10.604,12.99 L9.604,12.99 L9.604,13.99 Z M7.104,14.99 L8.104,14.99 L8.104,13.99 L7.104,13.99 L7.104,14.99 Z M4.604,13.99 L5.604,13.99 L5.604,12.99 L4.604,12.99 L4.604,13.99 Z M11.104,11.99 L9.104,11.99 C8.828,11.99 8.604,12.214 8.604,12.49 L8.604,12.99 L6.604,12.99 L6.604,12.49 C6.604,12.214 6.38,11.99 6.104,11.99 L4.104,11.99 C3.828,11.99 3.604,12.214 3.604,12.49 L3.604,14.49 C3.604,14.766 3.828,14.99 4.104,14.99 L6.104,14.99 L6.104,15.49 C6.104,15.766 6.328,15.99 6.604,15.99 L8.604,15.99 C8.88,15.99 9.104,15.766 9.104,15.49 L9.104,14.99 L11.104,14.99 C11.38,14.99 11.604,14.766 11.604,14.49 L11.604,12.49 C11.604,12.214 11.38,11.99 11.104,11.99 L11.104,11.99 Z" id="AWS-Fargate_Icon_16_Squid"></path>
        </g>
    </g>
</svg>