<?xml version="1.0" encoding="UTF-8"?>
<svg width="24px" height="24px" viewBox="0 0 24 24" version="1.1" xmlns="http://www.w3.org/2000/svg" xmlns:xlink="http://www.w3.org/1999/xlink">
    <!-- Generator: Sketch 64 (93537) - https://sketch.com -->
    <title>Icon-Architecture/16/Arch_AWS-Wavelength_16</title>
    <desc>Created with Sketch.</desc>
    <defs>
        <linearGradient x1="0%" y1="100%" x2="100%" y2="0%" id="linearGradient-1">
            <stop stop-color="#C8511B" offset="0%"></stop>
            <stop stop-color="#FF9900" offset="100%"></stop>
        </linearGradient>
    </defs>
    <g id="Icon-Architecture/16/Arch_AWS-Wavelength_16" stroke="none" stroke-width="1" fill="none" fill-rule="evenodd">
        <g id="Icon-Architecture-BG/16/Compute" fill="url(#linearGradient-1)">
            <rect id="Rectangle" x="0" y="0" width="24" height="24"></rect>
        </g>
        <path d="M12,16.9128383 C11.726,16.9128383 11.457,16.888006 11.192,16.8522473 L12,13.2426124 L12.808,16.8522473 C12.543,16.888006 12.274,16.9128383 12,16.9128383 L12,16.9128383 Z M12.053,7.48149988 C13.936,7.52421157 15.467,9.08070524 15.467,10.9510802 C15.467,12.3913583 14.552,13.6766824 13.235,14.1842563 L12.488,10.8457909 C12.437,10.6183263 12.234,10.4564192 12,10.4564192 C11.766,10.4564192 11.563,10.6183263 11.512,10.8457909 L10.761,14.2031289 C9.397,13.7134343 8.467,12.4291036 8.467,10.9510802 C8.467,9.08070524 9.996,7.52421157 11.932,7.4765334 L12.053,7.48149988 Z M17.617,8.85324063 C17.871,9.52272163 18,10.2289546 18,10.9530668 C18,13.6220512 16.225,15.8867643 13.785,16.6436553 L13.452,15.1537124 C15.222,14.5388627 16.467,12.8532406 16.467,10.9510802 C16.467,8.5453191 14.497,6.54382915 12.133,6.4931711 C12.074,6.48423144 12.024,6.48323814 11.965,6.48323814 L11.854,6.48820462 C9.435,6.54382915 7.467,8.5453191 7.467,10.9510802 C7.467,12.894959 8.721,14.5805811 10.543,15.1755649 L10.215,16.6436553 C7.775,15.8867643 6,13.6220512 6,10.9530668 C6,7.66625279 8.691,4.99329526 12,4.99329526 C13.181,4.99329526 14.304,5.33200894 15.268,5.95778495 L14.86,5.95778495 L14.86,6.95108021 L17.18,6.95108021 L17.18,4.64564192 L16.18,4.64564192 L16.18,5.38465359 C14.979,4.49068786 13.531,4 12,4 C8.141,4 5,7.11894711 5,10.9530668 C5,14.095853 7.111,16.7549044 9.998,17.6131115 L9.512,19.7854482 L10.488,20 L10.976,17.8236901 C11.311,17.8723616 11.651,17.9061336 12,17.9061336 C12.349,17.9061336 12.689,17.8723616 13.024,17.8236901 L13.512,20 L14.488,19.7854482 L14.002,17.6131115 C16.889,16.7549044 19,14.095853 19,10.9530668 C19,10.1087658 18.85,9.28433077 18.553,8.5026074 L17.617,8.85324063 Z" id="AWS-Wavelength_Icon_16_Squid" fill="#FFFFFF"></path>
    </g>
</svg>