<?xml version="1.0" encoding="UTF-8"?>
<svg width="24px" height="24px" viewBox="0 0 24 24" version="1.1" xmlns="http://www.w3.org/2000/svg" xmlns:xlink="http://www.w3.org/1999/xlink">
    <title>Icon-Architecture/16/Arch_AWS-ThinkBox-Deadline_16</title>
    <defs>
        <linearGradient x1="0%" y1="100%" x2="100%" y2="0%" id="linearGradient-1">
            <stop stop-color="#C8511B" offset="0%"></stop>
            <stop stop-color="#FF9900" offset="100%"></stop>
        </linearGradient>
    </defs>
    <g id="Icon-Architecture/16/Arch_AWS-ThinkBox-Deadline_16" stroke="none" stroke-width="1" fill="none" fill-rule="evenodd">
        <g id="Rectangle" fill="url(#linearGradient-1)">
            <rect x="0" y="0" width="24" height="24"></rect>
        </g>
        <g id="Icon-Service/16/AWS-ThinkBox-Deadline_16" transform="translate(4.000000, 4.000000)" fill="#FFFFFF">
            <path d="M15,12.1677795 L9,14.6997795 L9,12.0967795 L11.694,10.9597795 C11.88,10.8817795 12,10.7007795 12,10.4997795 L12,6.59077952 L15,5.26677952 L15,12.1677795 Z M5,12.6997795 L5,10.0967795 L7.694,8.95977952 C7.88,8.88177952 8,8.70077952 8,8.49977952 L8,11.4337795 L5,12.6997795 Z M7,5.03277952 L7,8.16777952 L5,9.01177952 L5,5.91577952 L7,5.03277952 Z M1,10.6997795 L1,3.91577952 L7,1.26677952 L7,3.93977952 L4.298,5.13277952 C4.117,5.21277952 4,5.39177952 4,5.58977952 L4,9.43377952 L1,10.6997795 Z M11,7.03277952 L11,10.1677795 L9,11.0117795 L9,7.91577952 L11,7.03277952 Z M11,3.26677952 L11,5.93977952 L8.298,7.13277952 C8.117,7.21277952 8,7.39177952 8,7.58977952 L8,4.59077952 L11,3.26677952 Z M15.773,4.08077952 C15.632,3.98877952 15.454,3.97477952 15.298,4.04177952 L12,5.49777952 L12,2.49977952 C12,2.33077952 11.915,2.17277952 11.773,2.08077952 C11.632,1.98877952 11.453,1.97377952 11.298,2.04177952 L8,3.49777952 L8,0.499779518 C8,0.330779518 7.915,0.172779518 7.773,0.080779518 C7.632,-0.011220482 7.453,-0.025220482 7.298,0.041779518 L0.298,3.13277952 C0.117,3.21277952 0,3.39177952 0,3.58977952 L0,11.4537795 C0,11.6217795 0.084,11.7777795 0.224,11.8707795 C0.307,11.9257795 0.403,11.9537795 0.5,11.9537795 C0.565,11.9537795 0.632,11.9407795 0.694,11.9147795 L4,10.5187795 L4,13.4537795 C4,13.6217795 4.084,13.7777795 4.224,13.8707795 C4.307,13.9257795 4.403,13.9537795 4.5,13.9537795 C4.565,13.9537795 4.632,13.9407795 4.694,13.9147795 L8,12.5187795 L8,15.4537795 C8,15.6217795 8.084,15.7777795 8.224,15.8707795 C8.307,15.9257795 8.403,15.9537795 8.5,15.9537795 C8.565,15.9537795 8.632,15.9407795 8.694,15.9147795 L15.694,12.9597795 C15.88,12.8817795 16,12.7007795 16,12.4997795 L16,4.49977952 C16,4.33077952 15.915,4.17277952 15.773,4.08077952 L15.773,4.08077952 Z" id="AWS-ThinkBox-Deadline_16_Squid"></path>
        </g>
    </g>
</svg>