<?xml version="1.0" encoding="UTF-8"?>
<svg width="24px" height="24px" viewBox="0 0 24 24" version="1.1" xmlns="http://www.w3.org/2000/svg" xmlns:xlink="http://www.w3.org/1999/xlink">
    <!-- Generator: Sketch 64 (93537) - https://sketch.com -->
    <title>Icon-Architecture/16/Arch_AWS-Support_16</title>
    <desc>Created with Sketch.</desc>
    <defs>
        <linearGradient x1="0%" y1="100%" x2="100%" y2="0%" id="linearGradient-1">
            <stop stop-color="#2E27AD" offset="0%"></stop>
            <stop stop-color="#527FFF" offset="100%"></stop>
        </linearGradient>
    </defs>
    <g id="Icon-Architecture/16/Arch_AWS-Support_16" stroke="none" stroke-width="1" fill="none" fill-rule="evenodd">
        <g id="Icon-Architecture-BG/16/Customer-Enablement" fill="url(#linearGradient-1)">
            <rect id="Rectangle" x="0" y="0" width="24" height="24"></rect>
        </g>
        <path d="M15.8780556,16.096 C15.6920556,16.289 15.4430556,16.398 15.1770556,16.403 C15.1700556,16.403 15.1630556,16.403 15.1570556,16.403 C14.8980556,16.403 14.6520556,16.304 14.4650556,16.124 C14.2720556,15.938 14.1630556,15.689 14.1570556,15.422 C14.1520556,15.156 14.2510556,14.902 14.4370556,14.71 C14.6330556,14.506 14.8950556,14.403 15.1570556,14.403 C15.4070556,14.403 15.6570556,14.496 15.8510556,14.682 C16.2480556,15.064 16.2600556,15.699 15.8780556,16.096 L15.8780556,16.096 Z M13.7160556,14.016 C13.3460556,14.402 13.1480556,14.908 13.1580556,15.442 C13.1680556,15.976 13.3870556,16.474 13.7720556,16.845 C14.1470556,17.205 14.6370556,17.403 15.1560556,17.403 C15.1700556,17.403 15.1830556,17.403 15.1960556,17.403 C15.7310556,17.392 16.2290556,17.174 16.5990556,16.789 C17.3630556,15.994 17.3390556,14.726 16.5440556,13.961 C15.7480556,13.197 14.4800556,13.222 13.7160556,14.016 L13.7160556,14.016 Z M18.0910556,17.109 L17.1030556,16.911 C16.9650556,16.884 16.8220556,16.914 16.7080556,16.998 L16.2040556,17.367 C16.0930556,17.449 16.0200556,17.574 16.0030556,17.712 L15.8870556,18.708 L14.4220556,18.706 L14.3080556,17.719 C14.2910556,17.582 14.2190556,17.457 14.1080556,17.375 L13.5980556,16.997 C13.4840556,16.913 13.3420556,16.883 13.2020556,16.908 L12.2220556,17.104 L11.7700556,15.711 L12.6890556,15.29 C12.8150556,15.232 12.9110556,15.123 12.9550556,14.991 L13.1480556,14.404 C13.1900556,14.27 13.1770556,14.125 13.1070556,14.003 L12.6140556,13.123 L13.7990556,12.263 L14.4770556,13 C14.5710556,13.102 14.7050556,13.161 14.8450556,13.161 L14.8480556,13.161 L15.4830556,13.157 C15.6220556,13.156 15.7540556,13.098 15.8490556,12.996 L16.5210556,12.266 L17.7050556,13.127 L17.2130556,14.003 C17.1450556,14.124 17.1300556,14.267 17.1720556,14.4 L17.3610556,14.994 C17.4040556,15.128 17.5010556,15.238 17.6290556,15.297 L18.5440556,15.717 L18.0910556,17.109 Z M19.3660556,14.993 L18.2470556,14.48 L18.1910556,14.303 L18.7940556,13.23 C18.9190556,13.009 18.8570556,12.73 18.6520556,12.58 L16.7490556,11.195 C16.5450556,11.046 16.2610556,11.074 16.0870556,11.261 L15.2600556,12.158 L15.0630556,12.159 L14.2330556,11.259 C14.0610556,11.072 13.7780556,11.045 13.5710556,11.193 L11.6660556,12.575 C11.4610556,12.724 11.3990556,13.004 11.5240556,13.225 L12.1280556,14.301 L12.0720556,14.472 L10.9480556,14.988 C10.7180556,15.094 10.6040556,15.355 10.6820556,15.596 L11.4070556,17.836 C11.4840556,18.077 11.7330556,18.222 11.9810556,18.172 L13.1810556,17.932 L13.3390556,18.05 L13.4800556,19.263 C13.5090556,19.515 13.7230556,19.705 13.9760556,19.706 L16.3300556,19.708 L16.3310556,19.708 C16.5850556,19.708 16.7980556,19.518 16.8270556,19.266 L16.9710556,18.045 L17.1220556,17.935 L18.3300556,18.177 C18.5830556,18.226 18.8250556,18.082 18.9040556,17.842 L19.6330556,15.603 C19.7110556,15.362 19.5970556,15.099 19.3660556,14.993 L19.3660556,14.993 Z M6.84105563,7.495 C6.84105563,6.119 7.96005563,5 9.33605563,5 C10.7120556,5 11.8310556,6.119 11.8310556,7.495 C11.8310556,8.871 10.7120556,9.991 9.33605563,9.991 C7.96005563,9.991 6.84105563,8.871 6.84105563,7.495 L6.84105563,7.495 Z M9.42505563,11.035 C10.2010556,11.035 10.9080556,11.28 11.5290556,11.763 L12.1440556,10.974 C11.8520556,10.747 11.5400556,10.575 11.2200556,10.43 C12.1860556,9.808 12.8310556,8.728 12.8310556,7.495 C12.8310556,5.568 11.2630556,4 9.33605563,4 C7.40905563,4 5.84105563,5.568 5.84105563,7.495 C5.84105563,8.761 6.52405563,9.862 7.53405563,10.475 C5.52505563,11.419 4.03505563,13.791 4,16.494 C3.99805563,16.628 4.05005563,16.756 4.14505563,16.851 C4.23805563,16.947 4.36605563,17 4.50005563,17 L9.83605563,17 L9.83605563,16 L5.02405563,16 C5.28105563,13.009 7.43305563,11.035 9.42505563,11.035 L9.42505563,11.035 Z" id="AWS-Support_16_Squid" fill="#FFFFFF"></path>
    </g>
</svg>