<?xml version="1.0" encoding="UTF-8"?>
<svg width="24px" height="24px" viewBox="0 0 24 24" version="1.1" xmlns="http://www.w3.org/2000/svg" xmlns:xlink="http://www.w3.org/1999/xlink">
    <title>Icon-Architecture/16/Arch_AWS-IQ_16</title>
    <defs>
        <linearGradient x1="0%" y1="100%" x2="100%" y2="0%" id="linearGradient-1">
            <stop stop-color="#2E27AD" offset="0%"></stop>
            <stop stop-color="#527FFF" offset="100%"></stop>
        </linearGradient>
    </defs>
    <g id="Icon-Architecture/16/Arch_AWS-IQ_16" stroke="none" stroke-width="1" fill="none" fill-rule="evenodd">
        <g id="Rectangle" fill="url(#linearGradient-1)">
            <rect x="0" y="0" width="24" height="24"></rect>
        </g>
        <g id="Icon-Service/16/AWS-IQ_16" transform="translate(4.000000, 4.000000)" fill="#FFFFFF">
            <path d="M4,11.293 L6.146,9.147 L6.854,9.854 L4.354,12.354 C4.26,12.447 4.133,12.5 4,12.5 C3.867,12.5 3.74,12.447 3.646,12.354 L2.163,10.87 L2.87,10.163 L4,11.293 Z M9,12 L9,8.5 C9,8.311 8.893,8.138 8.724,8.053 L8.101,7.741 C8.816,7.257 9.609,7 10.466,7 C11.264,7 12.066,7.217 12.726,7.612 C13.999,8.374 14.856,10.063 14.983,12 L9,12 Z M8,13.191 L4.5,14.941 L1,13.191 L1,8.809 L4.5,7.059 L8,8.809 L8,13.191 Z M8,3.5 C8,2.122 9.121,1 10.5,1 C11.879,1 13,2.122 13,3.5 C13,4.878 11.879,6 10.5,6 C9.121,6 8,4.878 8,3.5 L8,3.5 Z M16,12.5 C16,10.013 14.916,7.757 13.239,6.754 C12.998,6.61 12.739,6.492 12.473,6.387 C13.394,5.756 14,4.698 14,3.5 C14,1.57 12.43,0 10.5,0 C8.57,0 7,1.57 7,3.5 C7,4.7 7.608,5.76 8.532,6.391 C8.102,6.565 7.684,6.783 7.296,7.074 L7.094,7.238 L4.724,6.053 C4.583,5.982 4.417,5.982 4.276,6.053 L0.276,8.053 C0.107,8.138 0,8.311 0,8.5 L0,13.5 C0,13.689 0.107,13.862 0.276,13.947 L4.276,15.947 C4.347,15.982 4.424,16 4.5,16 C4.576,16 4.653,15.982 4.724,15.947 L8.724,13.947 C8.893,13.862 9,13.689 9,13.5 L9,13 L16,13 L16,12.5 Z" id="AWS-IQ_16_Squid"></path>
        </g>
    </g>
</svg>