<?xml version="1.0" encoding="UTF-8"?>
<svg width="24px" height="24px" viewBox="0 0 24 24" version="1.1" xmlns="http://www.w3.org/2000/svg" xmlns:xlink="http://www.w3.org/1999/xlink">
    <title>Icon-Architecture/16/Arch_AWS-Activate_16</title>
    <defs>
        <linearGradient x1="0%" y1="100%" x2="100%" y2="0%" id="linearGradient-1">
            <stop stop-color="#2E27AD" offset="0%"></stop>
            <stop stop-color="#527FFF" offset="100%"></stop>
        </linearGradient>
    </defs>
    <g id="Icon-Architecture/16/Arch_AWS-Activate_16" stroke="none" stroke-width="1" fill="none" fill-rule="evenodd">
        <g id="Rectangle" fill="url(#linearGradient-1)">
            <rect x="0" y="0" width="24" height="24"></rect>
        </g>
        <g id="Icon-Service/16/AWS-Activate_16" transform="translate(4.000000, 4.000000)" fill="#FFFFFF">
            <path d="M15.3203,7.9138 C15.3203,10.7848 13.6833,13.4188 11.1403,14.7228 L11.1403,13.5808 C13.0903,12.3788 14.3203,10.2348 14.3203,7.9138 C14.3203,5.1298 12.5583,2.6628 10.0193,1.6948 L9.4993,0.4818 C12.8853,1.3198 15.3203,4.4008 15.3203,7.9138 L15.3203,7.9138 Z M4.1723,13.5718 L4.1723,14.7328 C1.5983,13.4148 0.0003,10.8078 0.0003,7.9138 C0.0003,4.3588 2.3873,1.3248 5.8213,0.4798 L5.2993,1.6988 C2.7323,2.6638 1.0003,5.0948 1.0003,7.9138 C1.0003,10.2508 2.2083,12.3628 4.1723,13.5718 L4.1723,13.5718 Z M5.1833,15.9988 L6.1833,15.9988 L6.1833,10.3528 L5.1833,10.3528 L5.1833,15.9988 Z M9.1363,15.9988 L10.1363,15.9988 L10.1363,10.3528 L9.1363,10.3528 L9.1363,15.9988 Z M7.1613,14.8698 L8.1613,14.8698 L8.1613,8.6588 L7.1613,8.6588 L7.1613,14.8698 Z M7.9643,5.7408 C7.8003,5.6168 7.5283,5.6378 7.3533,5.7438 L5.2453,7.3508 L7.6603,1.7008 L10.0753,7.3498 L7.9643,5.7408 Z M11.5883,9.2918 C11.7663,9.1528 11.8293,8.9098 11.7403,8.7018 L8.1383,0.2758 C7.9803,-0.0922 7.3403,-0.0922 7.1813,0.2758 L3.5803,8.7018 C3.4913,8.9098 3.5533,9.1528 3.7323,9.2918 C3.9123,9.4318 4.1633,9.4328 4.3423,9.2948 L7.6583,6.7648 L10.9773,9.2948 C11.0663,9.3638 11.1743,9.3978 11.2803,9.3978 C11.3883,9.3978 11.4973,9.3628 11.5883,9.2918 L11.5883,9.2918 Z" id="AWS-Activate_16_Squid"></path>
        </g>
    </g>
</svg>