<?xml version="1.0" encoding="UTF-8"?>
<svg width="24px" height="24px" viewBox="0 0 24 24" version="1.1" xmlns="http://www.w3.org/2000/svg" xmlns:xlink="http://www.w3.org/1999/xlink">
    <!-- Generator: Sketch 64 (93537) - https://sketch.com -->
    <title>Icon-Architecture/16/Arch_AWS-Managed-Services_16</title>
    <desc>Created with Sketch.</desc>
    <defs>
        <linearGradient x1="0%" y1="100%" x2="100%" y2="0%" id="linearGradient-1">
            <stop stop-color="#2E27AD" offset="0%"></stop>
            <stop stop-color="#527FFF" offset="100%"></stop>
        </linearGradient>
    </defs>
    <g id="Icon-Architecture/16/Arch_AWS-Managed-Services_16" stroke="none" stroke-width="1" fill="none" fill-rule="evenodd">
        <g id="Icon-Architecture-BG/16/Customer-Enablement" fill="url(#linearGradient-1)">
            <rect id="Rectangle" x="0" y="0" width="24" height="24"></rect>
        </g>
        <g id="Icon-Service/16/AWS-Managed-Services" transform="translate(4.000000, 4.000000)" fill="#FFFFFF">
            <path d="M7.979,1 C4.13,1 1,4.131 1,7.979 C1,11.827 4.13,14.958 7.979,14.958 C9.647,14.958 11.254,14.351 12.511,13.278 L11.331,12.988 L11.569,12.017 L13.633,12.523 L13.629,12.538 C13.651,12.543 13.673,12.534 13.695,12.542 C13.887,12.617 14.014,12.802 14.014,13.009 L14.014,14.979 L13.014,14.979 L13.014,14.168 C11.6,15.316 9.82,15.958 7.979,15.958 C3.579,15.958 7.23865412e-13,12.378 7.23865412e-13,7.979 C7.23865412e-13,3.58 3.579,2.69118061e-13 7.979,2.69118061e-13 C12.379,2.69118061e-13 15.958,3.58 15.958,7.979 L14.958,7.979 C14.958,4.131 11.828,1 7.979,1 L7.979,1 Z M7.421,7.41 C7.57,7.255 7.769,7.168 7.983,7.164 L7.999,7.164 C8.207,7.164 8.403,7.243 8.553,7.388 C8.708,7.536 8.794,7.735 8.799,7.949 C8.803,8.163 8.724,8.365 8.576,8.52 C8.268,8.838 7.762,8.847 7.444,8.542 C7.125,8.236 7.116,7.728 7.421,7.41 L7.421,7.41 Z M7.999,9.764 C8.471,9.764 8.944,9.58 9.296,9.213 C9.63,8.866 9.808,8.41 9.798,7.929 C9.79,7.448 9.593,7 9.247,6.667 C8.531,5.979 7.388,6.001 6.701,6.716 C6.012,7.432 6.035,8.574 6.75,9.263 C7.099,9.598 7.548,9.764 7.999,9.764 L7.999,9.764 Z M5.743,6.492 L5.196,5.518 L6.524,4.555 L7.275,5.37 C7.371,5.473 7.526,5.534 7.646,5.531 L8.329,5.527 C8.467,5.526 8.599,5.468 8.693,5.366 L9.439,4.557 L10.766,5.522 L10.221,6.492 C10.153,6.613 10.138,6.757 10.18,6.89 L10.384,7.528 C10.427,7.662 10.525,7.771 10.652,7.831 L11.666,8.296 L11.158,9.856 L10.063,9.637 C9.924,9.61 9.783,9.641 9.669,9.723 L9.126,10.12 C9.014,10.203 8.941,10.328 8.924,10.466 L8.795,11.569 L7.155,11.568 L7.028,10.473 C7.011,10.336 6.939,10.211 6.829,10.129 L6.28,9.722 C6.167,9.639 6.024,9.606 5.884,9.634 L4.798,9.851 L4.292,8.29 L5.309,7.824 C5.436,7.766 5.533,7.657 5.577,7.524 L5.783,6.892 C5.826,6.759 5.812,6.614 5.743,6.492 L5.743,6.492 Z M3.471,7.566 C3.241,7.672 3.125,7.934 3.204,8.175 L3.984,10.583 C4.061,10.824 4.311,10.969 4.557,10.919 L5.863,10.658 L6.059,10.804 L6.212,12.125 C6.242,12.377 6.456,12.567 6.709,12.567 L9.241,12.569 C9.495,12.569 9.708,12.379 9.738,12.127 L9.893,10.799 L10.082,10.661 L11.397,10.924 C11.647,10.974 11.892,10.83 11.971,10.589 L12.754,8.182 C12.833,7.941 12.718,7.679 12.488,7.573 L11.27,7.014 L11.2,6.792 L11.856,5.625 C11.981,5.403 11.919,5.124 11.714,4.975 L9.667,3.486 C9.463,3.337 9.178,3.365 9.006,3.552 L8.105,4.529 L7.861,4.53 L6.958,3.55 C6.786,3.363 6.503,3.336 6.296,3.484 L4.248,4.97 C4.042,5.119 3.981,5.398 4.106,5.62 L4.764,6.791 L4.694,7.006 L3.471,7.566 Z" id="AWS-Managed-Services_Icon_16_Squid"></path>
        </g>
    </g>
</svg>