<?xml version="1.0" encoding="UTF-8"?>
<svg width="24px" height="24px" viewBox="0 0 24 24" version="1.1" xmlns="http://www.w3.org/2000/svg" xmlns:xlink="http://www.w3.org/1999/xlink">
    <title>Icon-Architecture/16/Arch_AWS-Professional-Services_16</title>
    <defs>
        <linearGradient x1="0%" y1="100%" x2="100%" y2="0%" id="linearGradient-1">
            <stop stop-color="#2E27AD" offset="0%"></stop>
            <stop stop-color="#527FFF" offset="100%"></stop>
        </linearGradient>
    </defs>
    <g id="Icon-Architecture/16/Arch_AWS-Professional-Services_16" stroke="none" stroke-width="1" fill="none" fill-rule="evenodd">
        <g id="Rectangle" fill="url(#linearGradient-1)">
            <rect x="0" y="0" width="24" height="24"></rect>
        </g>
        <g id="Icon-Service/16/AWS-Professional-Services_16" transform="translate(4.000000, 4.000000)" fill="#FFFFFF">
            <path d="M13.152,12.427 C13.033,12.542 12.977,12.709 13.006,12.873 L13.305,14.595 L11.727,13.777 C11.655,13.739 11.576,13.721 11.497,13.721 C11.418,13.721 11.339,13.739 11.266,13.777 L9.689,14.595 L9.988,12.873 C10.017,12.709 9.963,12.542 9.842,12.427 L8.58,11.213 L10.332,10.962 C10.494,10.939 10.634,10.837 10.708,10.691 L11.497,9.113 L12.287,10.691 C12.36,10.838 12.501,10.939 12.663,10.962 L14.415,11.213 L13.152,12.427 Z M15.975,10.71 C15.917,10.528 15.759,10.396 15.571,10.368 L13.064,10.009 L11.944,7.772 C11.774,7.433 11.219,7.433 11.049,7.772 L9.93,10.009 L7.423,10.368 C7.235,10.396 7.078,10.528 7.019,10.71 C6.961,10.892 7.01,11.092 7.148,11.224 L8.958,12.964 L8.531,15.418 C8.498,15.605 8.574,15.795 8.727,15.907 C8.815,15.971 8.919,16.004 9.023,16.004 C9.102,16.004 9.18,15.985 9.254,15.948 L11.497,14.784 L13.74,15.948 C13.911,16.035 14.112,16.02 14.266,15.907 C14.42,15.795 14.496,15.605 14.463,15.418 L14.037,12.964 L15.846,11.224 C15.984,11.092 16.034,10.892 15.975,10.71 L15.975,10.71 Z M4.69,3.481 C4.69,2.113 5.803,1 7.172,1 C8.54,1 9.652,2.113 9.652,3.481 C9.652,4.849 8.54,5.962 7.172,5.962 C5.803,5.962 4.69,4.849 4.69,3.481 L4.69,3.481 Z M6.752,7.405 C7.614,7.405 8.444,7.602 9.217,7.991 L9.667,7.097 C9.307,6.916 8.934,6.781 8.556,6.671 C9.787,6.134 10.652,4.908 10.652,3.481 C10.652,1.562 9.09,-4.79616347e-14 7.172,-4.79616347e-14 C5.252,-4.79616347e-14 3.69,1.562 3.69,3.481 C3.69,4.801 4.437,5.938 5.523,6.528 C2.386,7.137 -2.25330865e-12,10.027 -2.25330865e-12,13.496 C-2.25330865e-12,13.772 0.223,13.996 0.5,13.996 L7,13.996 L7,12.996 L1.019,12.996 C1.259,9.87 3.739,7.405 6.752,7.405 L6.752,7.405 Z" id="AWS-Professional-Services_16_Squid"></path>
        </g>
    </g>
</svg>