<?xml version="1.0" encoding="UTF-8"?>
<svg width="40px" height="40px" viewBox="0 0 40 40" version="1.1" xmlns="http://www.w3.org/2000/svg" xmlns:xlink="http://www.w3.org/1999/xlink">
    <!-- Generator: Sketch 64 (93537) - https://sketch.com -->
    <title>Icon-Architecture/32/Arch_Amazon-Cloud-Directory_32</title>
    <desc>Created with Sketch.</desc>
    <defs>
        <linearGradient x1="0%" y1="100%" x2="100%" y2="0%" id="linearGradient-1">
            <stop stop-color="#4D27A8" offset="0%"></stop>
            <stop stop-color="#A166FF" offset="100%"></stop>
        </linearGradient>
    </defs>
    <g id="Icon-Architecture/32/Arch_Amazon-Cloud-Directory_32" stroke="none" stroke-width="1" fill="none" fill-rule="evenodd">
        <g id="Icon-Architecture-BG/32/Networking-Content-Delivery" fill="url(#linearGradient-1)">
            <rect id="Rectangle" x="0" y="0" width="40" height="40"></rect>
        </g>
        <path d="M25.485,28.053 C24.933,28.053 24.485,27.604 24.485,27.053 C24.485,26.502 24.933,26.053 25.485,26.053 C26.037,26.053 26.485,26.502 26.485,27.053 C26.485,27.604 26.037,28.053 25.485,28.053 L25.485,28.053 Z M21.004,27.053 C21.004,27.604 20.555,28.053 20.005,28.053 C19.454,28.053 19.006,27.604 19.006,27.053 C19.006,26.502 19.454,26.053 20.005,26.053 C20.555,26.053 21.004,26.502 21.004,27.053 L21.004,27.053 Z M15.506,27.053 C15.506,27.604 15.057,28.053 14.506,28.053 C13.954,28.053 13.506,27.604 13.506,27.053 C13.506,26.502 13.954,26.053 14.506,26.053 C15.057,26.053 15.506,26.502 15.506,27.053 L15.506,27.053 Z M18.006,18.053 C18.006,16.95 18.903,16.053 20.006,16.053 C21.108,16.053 22.006,16.95 22.006,18.053 C22.006,19.156 21.108,20.053 20.006,20.053 C18.903,20.053 18.006,19.156 18.006,18.053 L18.006,18.053 Z M25.985,25.124 L25.985,22.553 C25.985,22.277 25.761,22.053 25.485,22.053 L20.506,22.053 L20.506,21.002 C21.922,20.763 23.006,19.536 23.006,18.053 C23.006,16.399 21.66,15.053 20.006,15.053 C18.351,15.053 17.006,16.399 17.006,18.053 C17.006,19.536 18.089,20.763 19.506,21.002 L19.506,22.053 L14.506,22.053 C14.229,22.053 14.006,22.277 14.006,22.553 L14.006,25.124 C13.145,25.347 12.506,26.124 12.506,27.053 C12.506,28.156 13.403,29.053 14.506,29.053 C15.608,29.053 16.506,28.156 16.506,27.053 C16.506,26.124 15.866,25.347 15.006,25.124 L15.006,23.053 L19.506,23.053 L19.506,25.124 C18.645,25.347 18.006,26.123 18.006,27.053 C18.006,28.156 18.902,29.053 20.005,29.053 C21.107,29.053 22.004,28.156 22.004,27.053 C22.004,26.124 21.365,25.348 20.506,25.124 L20.506,23.053 L24.985,23.053 L24.985,25.124 C24.125,25.347 23.485,26.124 23.485,27.053 C23.485,28.156 24.382,29.053 25.485,29.053 C26.588,29.053 27.485,28.156 27.485,27.053 C27.485,26.124 26.845,25.347 25.985,25.124 L25.985,25.124 Z M20.006,32.053 C14.933,32.053 11,30.444 11,29.06 L11,10.607 C13.031,11.948 17.693,12.13 20.006,12.13 C22.316,12.13 26.971,11.949 29.006,10.611 L29.006,29.06 C29.006,30.444 25.074,32.053 20.006,32.053 L20.006,32.053 Z M20.006,7 C25.849,7 29.003,8.065 29.003,9.067 C29.003,10.067 25.849,11.13 20.006,11.13 C14.162,11.13 11.008,10.067 11.008,9.067 C11.008,8.065 14.162,7 20.006,7 L20.006,7 Z M30.006,9.053 C29.981,6.299 23.006,6 20.006,6 C17.006,6 10.025,6.299 10,9.053 L10,29.06 C10,31.526 15.193,33.053 20.006,33.053 C24.815,33.053 30.006,31.526 30.006,29.06 L30.006,9.053 Z" id="Amazon-Cloud-Directory_Icon_32_Squid" fill="#FFFFFF"></path>
    </g>
</svg>