<?xml version="1.0" encoding="UTF-8"?>
<svg width="40px" height="40px" viewBox="0 0 40 40" version="1.1" xmlns="http://www.w3.org/2000/svg" xmlns:xlink="http://www.w3.org/1999/xlink">
    <!-- Generator: Sketch 64 (93537) - https://sketch.com -->
    <title>Icon-Architecture/32/Arch_AWS-App-Mesh_32</title>
    <desc>Created with Sketch.</desc>
    <defs>
        <linearGradient x1="0%" y1="100%" x2="100%" y2="0%" id="linearGradient-1">
            <stop stop-color="#4D27A8" offset="0%"></stop>
            <stop stop-color="#A166FF" offset="100%"></stop>
        </linearGradient>
    </defs>
    <g id="Icon-Architecture/32/Arch_AWS-App-Mesh_32" stroke="none" stroke-width="1" fill="none" fill-rule="evenodd">
        <g id="Icon-Architecture-BG/32/Networking-Content-Delivery" fill="url(#linearGradient-1)">
            <rect id="Rectangle" x="0" y="0" width="40" height="40"></rect>
        </g>
        <path d="M31.66,27.08175 C31.241,27.49875 30.513,27.49775 30.098,27.08175 C29.889,26.87375 29.774,26.59575 29.774,26.30075 C29.774,26.00575 29.889,25.72775 30.098,25.51975 C30.306,25.31075 30.583,25.19575 30.879,25.19575 C31.174,25.19575 31.451,25.31075 31.66,25.51975 C32.091,25.94975 32.091,26.65075 31.66,27.08175 L31.66,27.08175 Z M31.438,24.29675 L31.438,20.98375 L30.438,20.98375 L30.438,24.26375 C30.049,24.34175 29.681,24.52275 29.39,24.81175 C28.993,25.20975 28.774,25.73775 28.774,26.30075 C28.774,26.63175 28.858,26.94875 29.003,27.23675 L26.303,28.53275 L26.736,29.43475 L29.676,28.02275 C30.026,28.26875 30.441,28.40475 30.879,28.40475 C31.44,28.40475 31.97,28.18575 32.367,27.78875 C33.187,26.96775 33.187,25.63275 32.367,24.81175 C32.107,24.55275 31.783,24.38675 31.438,24.29675 L31.438,24.29675 Z M9.323,27.08175 C9.114,26.87375 9,26.59575 9,26.30075 C9,26.00575 9.114,25.72775 9.323,25.51975 C9.531,25.31075 9.808,25.19575 10.104,25.19575 C10.399,25.19575 10.677,25.31075 10.886,25.51975 C11.316,25.94975 11.316,26.65075 10.886,27.08175 C10.467,27.49875 9.738,27.49775 9.323,27.08175 L9.323,27.08175 Z M11.593,24.81175 C11.276,24.49675 10.867,24.31175 10.438,24.24675 L10.438,20.98375 L9.438,20.98375 L9.438,24.32775 C9.134,24.42375 8.848,24.57975 8.616,24.81175 C8.219,25.20975 8,25.73775 8,26.30075 C8,26.86275 8.219,27.39175 8.616,27.78875 C9.014,28.18575 9.542,28.40475 10.104,28.40475 C10.542,28.40475 10.958,28.26875 11.308,28.02175 L14.223,29.40975 L14.653,28.50675 L11.979,27.23375 C12.37,26.44675 12.247,25.46775 11.593,24.81175 L11.593,24.81175 Z M9.323,12.70575 C9.531,12.49775 9.808,12.38275 10.104,12.38275 C10.399,12.38275 10.677,12.49775 10.886,12.70575 C11.316,13.13675 11.316,13.83775 10.886,14.26875 C10.467,14.68575 9.738,14.68375 9.323,14.26875 C9.114,14.05975 9,13.78175 9,13.48675 C9,13.19175 9.114,12.91475 9.323,12.70575 L9.323,12.70575 Z M9.438,15.47475 L9.438,18.98375 L10.438,18.98375 L10.438,15.55875 C10.749,15.50975 11.043,15.39475 11.301,15.21475 L13.674,16.42875 L14.129,15.53875 L11.973,14.43575 C12.275,13.83675 12.274,13.12975 11.969,12.53175 L14.125,11.39375 L13.658,10.50975 L11.294,11.75775 C10.484,11.21675 9.319,11.29575 8.616,11.99875 C8.219,12.39575 8,12.92475 8,13.48675 C8,14.04975 8.219,14.57775 8.616,14.97575 C8.85,15.20975 9.133,15.37275 9.438,15.47475 L9.438,15.47475 Z M21.22,8.88475 C20.79,9.31475 20.087,9.31475 19.657,8.88475 C19.448,8.67675 19.334,8.39875 19.334,8.10375 C19.334,7.80875 19.448,7.53075 19.657,7.32275 C19.872,7.10775 20.155,6.99975 20.438,6.99975 C20.722,6.99975 21.005,7.10775 21.22,7.32275 C21.429,7.53075 21.543,7.80875 21.543,8.10375 C21.543,8.39875 21.429,8.67675 21.22,8.88475 L21.22,8.88475 Z M21.927,6.61575 C21.106,5.79475 19.77,5.79475 18.95,6.61575 C18.569,6.99675 18.357,7.49975 18.341,8.03675 L16.311,9.10775 L16.778,9.99175 L18.566,9.04775 C18.666,9.24475 18.789,9.43075 18.95,9.59175 C19.36,10.00175 19.899,10.20675 20.438,10.20675 C20.977,10.20675 21.516,10.00175 21.927,9.59175 C22.102,9.41575 22.237,9.21075 22.34,8.99175 L24.451,10.11075 L24.92,9.22775 L22.528,7.95875 C22.494,7.45175 22.29,6.97775 21.927,6.61575 L21.927,6.61575 Z M21.22,32.65375 C20.79,33.08275 20.087,33.08275 19.657,32.65375 C19.448,32.44475 19.334,32.16675 19.334,31.87275 C19.334,31.57775 19.448,31.29975 19.657,31.09075 C19.872,30.87575 20.155,30.76875 20.438,30.76875 C20.722,30.76875 21.005,30.87575 21.22,31.09075 C21.429,31.29975 21.543,31.57775 21.543,31.87275 C21.543,32.16675 21.429,32.44475 21.22,32.65375 L21.22,32.65375 Z M24.221,29.53275 L22.074,30.56275 C22.025,30.50275 21.982,30.43975 21.927,30.38375 C21.644,30.10275 21.3,29.92375 20.938,29.83575 L20.938,27.48675 L19.938,27.48675 L19.938,29.83575 C19.577,29.92375 19.232,30.10275 18.95,30.38375 C18.913,30.42075 18.886,30.46475 18.851,30.50375 L16.808,29.53175 L16.379,30.43575 L18.393,31.39375 C18.357,31.54975 18.334,31.70875 18.334,31.87275 C18.334,32.43475 18.553,32.96275 18.95,33.36075 C19.36,33.77075 19.899,33.97575 20.438,33.97575 C20.977,33.97575 21.516,33.77075 21.927,33.36075 C22.324,32.96275 22.543,32.43475 22.543,31.87275 C22.543,31.73475 22.529,31.59875 22.503,31.46675 L24.654,30.43475 L24.221,29.53275 Z M30.879,12.38275 C31.174,12.38275 31.451,12.49775 31.66,12.70575 C32.091,13.13675 32.091,13.83775 31.66,14.26875 C31.241,14.68575 30.513,14.68375 30.098,14.26875 C29.889,14.05975 29.774,13.78175 29.774,13.48675 C29.774,13.19175 29.889,12.91475 30.098,12.70575 C30.306,12.49775 30.583,12.38275 30.879,12.38275 L30.879,12.38275 Z M27.272,16.42975 L29.681,15.21375 C29.91,15.37375 30.166,15.48575 30.438,15.54275 L30.438,18.98375 L31.438,18.98375 L31.438,15.50675 C31.785,15.41175 32.106,15.23675 32.367,14.97575 C33.187,14.15475 33.187,12.81975 32.367,11.99875 C31.664,11.29575 30.5,11.21775 29.69,11.75775 L27.57,10.63275 L27.101,11.51675 L29.014,12.53075 C28.863,12.82475 28.774,13.14675 28.774,13.48675 C28.774,13.82275 28.861,14.14275 29.009,14.43275 L26.821,15.53775 L27.272,16.42975 Z M21.22,20.66375 C20.79,21.09375 20.087,21.09375 19.657,20.66375 C19.448,20.45575 19.334,20.17775 19.334,19.88275 C19.334,19.58775 19.448,19.30975 19.657,19.10175 C19.872,18.88675 20.155,18.77875 20.438,18.77875 C20.722,18.77875 21.005,18.88675 21.22,19.10175 C21.429,19.30975 21.543,19.58775 21.543,19.88275 C21.543,20.17775 21.429,20.45575 21.22,20.66375 L21.22,20.66375 Z M21.636,18.15675 C20.918,17.65875 19.961,17.65875 19.243,18.15475 L16.666,16.83675 L16.211,17.72775 L18.569,18.93375 C18.421,19.22575 18.334,19.54575 18.334,19.88275 C18.334,20.44475 18.553,20.97375 18.95,21.37075 C19.232,21.65275 19.577,21.83075 19.938,21.91875 L19.938,25.48675 L20.938,25.48675 L20.938,21.91875 C21.3,21.83075 21.644,21.65275 21.927,21.37075 C22.324,20.97375 22.543,20.44475 22.543,19.88275 C22.543,19.54675 22.456,19.22775 22.309,18.93575 L24.664,17.74775 L24.213,16.85475 L21.636,18.15675 Z" id="AWS-App-Mesh_Icon_32_Squid" fill="#FFFFFF"></path>
    </g>
</svg>