<?xml version="1.0" encoding="UTF-8"?>
<svg width="40px" height="40px" viewBox="0 0 40 40" version="1.1" xmlns="http://www.w3.org/2000/svg" xmlns:xlink="http://www.w3.org/1999/xlink">
    <!-- Generator: Sketch 64 (93537) - https://sketch.com -->
    <title>Icon-Architecture/32/Arch_AWS-VPN_32</title>
    <desc>Created with Sketch.</desc>
    <defs>
        <linearGradient x1="0%" y1="100%" x2="100%" y2="0%" id="linearGradient-1">
            <stop stop-color="#4D27A8" offset="0%"></stop>
            <stop stop-color="#A166FF" offset="100%"></stop>
        </linearGradient>
    </defs>
    <g id="Icon-Architecture/32/Arch_AWS-VPN_32" stroke="none" stroke-width="1" fill="none" fill-rule="evenodd">
        <g id="Icon-Architecture-BG/32/Networking-Content-Delivery" fill="url(#linearGradient-1)">
            <rect id="Rectangle" x="0" y="0" width="40" height="40"></rect>
        </g>
        <path d="M19.0535485,26.5930817 C19.0535485,26.8690817 19.2785485,27.0930817 19.5535485,27.0930817 C19.8285485,27.0930817 20.0535485,26.8690817 20.0535485,26.5930817 C20.0535485,26.3170817 19.8285485,26.0930817 19.5535485,26.0930817 C19.2785485,26.0930817 19.0535485,26.3170817 19.0535485,26.5930817 L19.0535485,26.5930817 Z M18.0535485,26.5930817 C18.0535485,25.7660817 18.7265485,25.0930817 19.5535485,25.0930817 C20.3805485,25.0930817 21.0535485,25.7660817 21.0535485,26.5930817 C21.0535485,27.2440817 20.6345485,27.7940817 20.0535485,28.0010817 L20.0535485,29.0930817 L19.0535485,29.0930817 L19.0535485,28.0010817 C18.4725485,27.7940817 18.0535485,27.2440817 18.0535485,26.5930817 L18.0535485,26.5930817 Z M24.0535485,24.0930817 L15.0535485,24.0930817 L15.0535485,30.0930817 L24.0535485,30.0930817 L24.0535485,29.0930817 L22.0535485,29.0930817 L22.0535485,28.0930817 L24.0535485,28.0930817 L24.0535485,26.0930817 L22.0535485,26.0930817 L22.0535485,25.0930817 L24.0535485,25.0930817 L24.0535485,24.0930817 Z M16.0535485,23.0930817 L23.0535485,23.0930817 L23.0535485,20.6370817 C23.0535485,20.0200817 22.7285485,19.3940817 22.1605485,18.9190817 C21.5085485,18.3730817 20.5905485,18.0720817 19.5745485,18.0720817 C17.3715485,18.0720817 16.0545485,19.3770817 16.0535485,20.6380817 L16.0535485,23.0930817 Z M25.0535485,23.5930817 L25.0535485,25.0930817 L25.0535485,26.0930817 L25.0535485,28.0930817 L25.0535485,29.0930817 L25.0535485,30.5930817 C25.0535485,30.8690817 24.8295485,31.0930817 24.5535485,31.0930817 L14.5535485,31.0930817 C14.2775485,31.0930817 14.0535485,30.8690817 14.0535485,30.5930817 L14.0535485,23.5930817 C14.0535485,23.3170817 14.2775485,23.0930817 14.5535485,23.0930817 L15.0535485,23.0930817 L15.0535485,20.6370817 C15.0545485,18.8850817 16.7455485,17.0720817 19.5745485,17.0720817 C20.8245485,17.0720817 21.9715485,17.4560817 22.8035485,18.1520817 C23.5985485,18.8180817 24.0545485,19.7240817 24.0535485,20.6380817 L24.0535485,23.0930817 L24.5535485,23.0930817 C24.8295485,23.0930817 25.0535485,23.3170817 25.0535485,23.5930817 L25.0535485,23.5930817 Z M34.1065485,21.1470817 C34.1065485,22.6350817 33.6585485,23.8330817 32.7755485,24.7090817 C31.3375485,26.1350817 29.2645485,26.1670817 29.0865485,26.1670817 L29.0775485,26.1670817 L27.0805485,26.1640817 L27.0825485,25.1640817 L29.0825485,25.1670817 C29.1165485,25.1670817 30.9105485,25.1550817 32.0765485,23.9930817 C32.7595485,23.3130817 33.1065485,22.3550817 33.1065485,21.1470817 C33.1065485,17.5100817 29.6905485,16.7380817 29.0045485,16.6200817 C28.8715485,16.5970817 28.7535485,16.5220817 28.6765485,16.4100817 C28.6005485,16.2980817 28.5735485,16.1600817 28.5995485,16.0280817 C28.8805485,14.6450817 28.0695485,13.7460817 27.2145485,13.3660817 C26.3675485,12.9900817 25.1485485,13.0000817 24.4725485,13.9150817 C24.3625485,14.0640817 24.1855485,14.1360817 23.9955485,14.1130817 C23.8135485,14.0850817 23.6595485,13.9590817 23.5985485,13.7840817 C23.2575485,12.8170817 22.6395485,11.8930817 21.7085485,10.9600817 C20.2325485,9.47808173 17.3855485,8.22208173 14.2285485,9.56208173 C11.9055485,10.5450817 10.5175485,13.3680817 10.5175485,15.5300817 L10.5105485,15.8670817 C10.5035485,16.1130817 10.4925485,16.3970817 10.5135485,16.5730817 C10.5435485,16.8220817 10.3835485,17.0540817 10.1405485,17.1160817 C8.00054845,17.6610817 7.00354845,18.9420817 7.00354845,21.1470817 L7.00154845,21.3040817 C7.00054845,21.4140817 6.99754845,21.5390817 7.00254845,21.6190817 C7.15654845,24.0540817 9.45254845,25.1640817 11.5235485,25.1640817 L12.0315485,25.1660817 L12.0275485,26.1660817 L11.5215485,26.1640817 C9.00054845,26.1640817 6.19854845,24.7600817 6.00454845,21.6800817 C5.99854845,21.5800817 5.99954845,21.4260817 6.00154845,21.2900817 L6.00354845,21.1470817 C6.00354845,18.6260817 7.18054845,16.9830817 9.50354845,16.2560817 C9.50354845,16.1180817 9.50754845,15.9740817 9.51054845,15.8390817 L9.51754845,15.5300817 C9.51754845,13.0430817 11.1335485,9.78608173 13.8375485,8.64108173 C16.8155485,7.37908173 20.1825485,8.01308173 22.4175485,10.2540817 C23.2305485,11.0700817 23.8325485,11.8880817 24.2435485,12.7390817 C25.1495485,12.0570817 26.4375485,11.9260817 27.6205485,12.4520817 C28.9845485,13.0590817 29.7425485,14.3140817 29.6465485,15.7340817 C31.8015485,16.2640817 34.1065485,17.9400817 34.1065485,21.1470817 L34.1065485,21.1470817 Z" id="AWS-VPN_Icon_32_Squid" fill="#FFFFFF"></path>
    </g>
</svg>