<?xml version="1.0" encoding="UTF-8"?>
<svg width="40px" height="40px" viewBox="0 0 40 40" version="1.1" xmlns="http://www.w3.org/2000/svg" xmlns:xlink="http://www.w3.org/1999/xlink">
    <!-- Generator: Sketch 64 (93537) - https://sketch.com -->
    <title>Icon-Architecture/32/Arch_AWS-Global-Accelerator_32</title>
    <desc>Created with Sketch.</desc>
    <defs>
        <linearGradient x1="0%" y1="100%" x2="100%" y2="0%" id="linearGradient-1">
            <stop stop-color="#4D27A8" offset="0%"></stop>
            <stop stop-color="#A166FF" offset="100%"></stop>
        </linearGradient>
    </defs>
    <g id="Icon-Architecture/32/Arch_AWS-Global-Accelerator_32" stroke="none" stroke-width="1" fill="none" fill-rule="evenodd">
        <g id="Icon-Architecture-BG/32/Networking-Content-Delivery" fill="url(#linearGradient-1)">
            <rect id="Rectangle" x="0" y="0" width="40" height="40"></rect>
        </g>
        <path d="M26.39025,30.125 C26.39025,29.574 25.94225,29.125 25.39025,29.125 C24.83825,29.125 24.39025,29.574 24.39025,30.125 C24.39025,30.676 24.83825,31.125 25.39025,31.125 C25.94225,31.125 26.39025,30.676 26.39025,30.125 L26.39025,30.125 Z M20.39025,30.125 C19.83825,30.125 19.39025,30.574 19.39025,31.125 C19.39025,31.676 19.83825,32.125 20.39025,32.125 C20.94225,32.125 21.39025,31.676 21.39025,31.125 C21.39025,30.574 20.94225,30.125 20.39025,30.125 L20.39025,30.125 Z M15.38425,29.125 C14.83225,29.125 14.38425,29.574 14.38425,30.125 C14.38425,30.676 14.83225,31.125 15.38425,31.125 C15.93625,31.125 16.38425,30.676 16.38425,30.125 C16.38425,29.574 15.93625,29.125 15.38425,29.125 L15.38425,29.125 Z M18.04925,24.763 C17.50525,24.072 17.04725,23.149 16.70425,22.06 C16.01425,22.233 15.37825,22.453 14.82025,22.718 C15.70225,23.646 16.80625,24.357 18.04925,24.763 L18.04925,24.763 Z M14.95025,11.842 C15.49225,12.087 16.10625,12.289 16.76325,12.45 C17.09825,11.443 17.53625,10.592 18.04925,9.941 C16.86925,10.327 15.80925,10.983 14.95025,11.842 L14.95025,11.842 Z M22.87525,9.941 C23.38825,10.592 23.82625,11.443 24.16125,12.45 C24.81825,12.289 25.43225,12.087 25.97425,11.842 C25.11625,10.983 24.05625,10.327 22.87525,9.941 L22.87525,9.941 Z M26.10425,22.719 C25.54425,22.454 24.90925,22.234 24.21925,22.061 C23.87725,23.15 23.41925,24.072 22.87525,24.763 C24.11925,24.357 25.22225,23.646 26.10425,22.719 L26.10425,22.719 Z M17.67525,21.854 C18.21825,23.541 19.04125,24.666 19.89025,25.023 L19.89025,21.629 C19.12425,21.655 18.38025,21.73 17.67525,21.854 L17.67525,21.854 Z M23.24725,21.854 C22.49825,21.723 21.70525,21.646 20.89025,21.626 L20.89025,25.073 C21.78825,24.789 22.67425,23.636 23.24725,21.854 L23.24725,21.854 Z M17.41525,20.887 C18.37925,20.712 19.40825,20.615 20.46125,20.615 C21.51625,20.615 22.54325,20.712 23.50825,20.887 C23.73125,19.925 23.86825,18.83 23.88525,17.625 L17.03825,17.625 C17.05625,18.83 17.19325,19.925 17.41525,20.887 L17.41525,20.887 Z M12.67825,17.625 C12.73425,19.23 13.27625,20.711 14.16325,21.929 C14.83025,21.589 15.60125,21.31 16.44425,21.097 C16.20025,20.042 16.05725,18.871 16.03825,17.625 L12.67825,17.625 Z M16.49125,13.411 C15.67725,13.208 14.93025,12.944 14.27725,12.624 C13.40925,13.756 12.84025,15.127 12.70225,16.625 L16.04925,16.625 C16.09525,15.471 16.24925,14.388 16.49125,13.411 L16.49125,13.411 Z M28.22225,16.625 C28.08325,15.127 27.51525,13.756 26.64725,12.624 C25.99425,12.944 25.24725,13.208 24.43325,13.411 C24.67525,14.388 24.82825,15.471 24.87425,16.625 L28.22225,16.625 Z M24.88525,17.625 C24.86725,18.872 24.72425,20.043 24.48025,21.098 C25.32325,21.31 26.09325,21.59 26.76025,21.93 C27.64825,20.712 28.18925,19.23 28.24525,17.625 L24.88525,17.625 Z M17.46125,13.618 C17.24125,14.506 17.09425,15.516 17.04925,16.625 L23.87425,16.625 C23.82925,15.516 23.68325,14.506 23.46225,13.618 C22.51125,13.788 21.49925,13.881 20.46225,13.881 C19.42525,13.881 18.41225,13.788 17.46125,13.618 L17.46125,13.618 Z M17.74425,12.655 C18.60525,12.801 19.52125,12.881 20.46225,12.881 C21.40425,12.881 22.31925,12.801 23.17925,12.655 C22.51025,10.711 21.46625,9.555 20.46225,9.555 C19.45825,9.555 18.41325,10.71 17.74425,12.655 L17.74425,12.655 Z M27.39025,30.125 C27.39025,31.228 26.49325,32.125 25.39025,32.125 C24.28725,32.125 23.39025,31.228 23.39025,30.125 C23.39025,29.196 24.03025,28.419 24.89025,28.196 L24.89025,27.625 L20.89025,27.625 L20.89025,29.196 C21.75025,29.419 22.39025,30.196 22.39025,31.125 C22.39025,32.228 21.49325,33.125 20.39025,33.125 C19.28725,33.125 18.39025,32.228 18.39025,31.125 C18.39025,30.196 19.03025,29.419 19.89025,29.196 L19.89025,27.625 L15.88425,27.625 L15.88425,28.196 C16.74425,28.419 17.38425,29.196 17.38425,30.125 C17.38425,31.228 16.48725,32.125 15.38425,32.125 C14.28225,32.125 13.38425,31.228 13.38425,30.125 C13.38425,29.196 14.02425,28.419 14.88425,28.196 L14.88425,26.625 L19.89025,26.625 L19.89025,26.121 C15.30625,25.823 11.66425,22.01 11.66425,17.352 C11.66425,12.501 15.61125,8.555 20.46225,8.555 C25.31325,8.555 29.25925,12.501 29.25925,17.352 C29.25925,22.059 25.54125,25.902 20.89025,26.128 L20.89025,26.625 L25.89025,26.625 L25.89025,28.196 C26.75025,28.419 27.39025,29.196 27.39025,30.125 L27.39025,30.125 Z M28.44825,25.448 L27.74125,24.741 C31.79325,20.687 31.79325,14.093 27.74125,10.04 C23.68825,5.987 17.09225,5.987 13.03925,10.04 C8.98725,14.093 8.98725,20.687 13.03925,24.741 L12.33225,25.448 C7.88925,21.005 7.88925,13.775 12.33225,9.333 C16.77625,4.889 24.00425,4.889 28.44825,9.333 C32.89125,13.775 32.89125,21.005 28.44825,25.448 L28.44825,25.448 Z" id="AWS-Global-Accelerator_Icon_32_Squid" fill="#FFFFFF"></path>
    </g>
</svg>