<?xml version="1.0" encoding="UTF-8"?>
<svg width="40px" height="40px" viewBox="0 0 40 40" version="1.1" xmlns="http://www.w3.org/2000/svg" xmlns:xlink="http://www.w3.org/1999/xlink">
    <!-- Generator: Sketch 64 (93537) - https://sketch.com -->
    <title>Icon-Architecture/32/Arch_Amazon-CloudFront_32</title>
    <desc>Created with Sketch.</desc>
    <defs>
        <linearGradient x1="0%" y1="100%" x2="100%" y2="0%" id="linearGradient-1">
            <stop stop-color="#4D27A8" offset="0%"></stop>
            <stop stop-color="#A166FF" offset="100%"></stop>
        </linearGradient>
    </defs>
    <g id="Icon-Architecture/32/Arch_Amazon-CloudFront_32" stroke="none" stroke-width="1" fill="none" fill-rule="evenodd">
        <g id="Icon-Architecture-BG/32/Networking-Content-Delivery" fill="url(#linearGradient-1)">
            <rect id="Rectangle" x="0" y="0" width="40" height="40"></rect>
        </g>
        <path d="M28,26.4968343 C28,25.6694852 27.327,24.9962012 26.5,24.9962012 C25.673,24.9962012 25,25.6694852 25,26.4968343 C25,27.3241834 25.673,27.9974675 26.5,27.9974675 C27.327,27.9974675 28,27.3241834 28,26.4968343 L28,26.4968343 Z M29,26.4968343 C29,27.875416 27.879,28.9978895 26.5,28.9978895 C25.121,28.9978895 24,27.875416 24,26.4968343 C24,25.1182527 25.121,23.9957791 26.5,23.9957791 C27.879,23.9957791 29,25.1182527 29,26.4968343 L29,26.4968343 Z M15,18.4934576 C15,17.6661085 14.327,16.9928244 13.5,16.9928244 C12.673,16.9928244 12,17.6661085 12,18.4934576 C12,19.3208067 12.673,19.9940907 13.5,19.9940907 C14.327,19.9940907 15,19.3208067 15,18.4934576 L15,18.4934576 Z M16,18.4934576 C16,19.8720392 14.879,20.9945128 13.5,20.9945128 C12.121,20.9945128 11,19.8720392 11,18.4934576 C11,17.1148759 12.121,15.9924024 13.5,15.9924024 C14.879,15.9924024 16,17.1148759 16,18.4934576 L16,18.4934576 Z M20,10.4900808 C20,11.3174299 20.673,11.990714 21.5,11.990714 C22.327,11.990714 23,11.3174299 23,10.4900808 C23,9.66273178 22.327,8.98944771 21.5,8.98944771 C20.673,8.98944771 20,9.66273178 20,10.4900808 L20,10.4900808 Z M19,10.4900808 C19,9.11149921 20.121,7.98902562 21.5,7.98902562 C22.879,7.98902562 24,9.11149921 24,10.4900808 C24,11.8686625 22.879,12.9911361 21.5,12.9911361 C20.121,12.9911361 19,11.8686625 19,10.4900808 L19,10.4900808 Z M33,19.9940907 C33,15.3561339 30.515,11.0643231 26.506,8.74334388 C25.785,8.8894055 25.09,9.0884895 24.226,9.40062119 L23.886,8.46022442 C24.332,8.29915647 24.732,8.16810117 25.119,8.0560539 C23.512,7.36376181 21.771,6.98860353 20,6.98860353 C19.156,6.98860353 18.325,7.07564025 17.513,7.23470736 C18.1,7.57785214 18.621,7.92099692 19.128,8.30615942 L18.524,9.10349583 C17.809,8.56026663 17.067,8.10207332 16.098,7.59385889 C11.188,9.1385106 7.652,13.4703383 7.091,18.5564842 C8.121,18.3483964 9.109,18.2353487 10.207,18.2073369 L10.232,19.207759 C9.081,19.2367712 8.094,19.3588227 7.014,19.5959227 C7.01,19.7279784 7,19.8630354 7,19.9940907 C7,24.3289196 9.146,28.3246055 12.676,30.7296202 C12.049,28.8608317 11.726,27.0920855 11.726,25.3693586 C11.726,24.3849433 11.895,23.5766022 12.073,22.7212413 L12.197,22.1189872 L13.178,22.3120687 L13.053,22.9263279 C12.877,23.7646816 12.726,24.4879868 12.726,25.3693586 C12.726,27.3211821 13.158,29.3420347 14.028,31.53496 C15.889,32.5003673 17.895,32.9995779 20,32.9995779 C21.379,32.9995779 22.724,32.7784846 24.006,32.3563065 C24.508,31.3668891 24.881,30.4294936 25.195,29.3470369 L26.156,29.6261546 C25.928,30.4144872 25.666,31.1277882 25.355,31.8370874 C26.159,31.4759351 26.919,31.027746 27.634,30.5065261 C27.461,30.0813467 27.284,29.6571677 27.08,29.2469946 L27.975,28.8008064 C28.146,29.1439512 28.288,29.5021023 28.438,29.8552513 C31.335,27.3772058 33,23.8287086 33,19.9940907 L33,19.9940907 Z M34,19.9940907 C34,24.3589323 32.018,28.3966359 28.56,31.072765 C27.34,32.0211651 25.98,32.7534741 24.518,33.2456817 C23.078,33.7458928 21.557,34 20,34 C17.7,34 15.416,33.4267581 13.394,32.3413002 C8.833,29.9002703 6,25.1692742 6,19.9940907 C6,19.7099708 6.007,19.4268514 6.029,19.1487341 C6.37,13.3032678 10.377,8.24513368 16,6.57142752 C19.527,5.50797883 23.589,5.93916075 26.842,7.77893698 C31.257,10.2519804 34,14.9329554 34,19.9940907 L34,19.9940907 Z M18.657,12.7220225 L17.999,11.9687047 C16.879,12.9471175 16.007,13.9855556 14.989,15.5552179 L15.827,16.0994475 C16.792,14.6138207 17.611,13.6354079 18.657,12.7220225 L18.657,12.7220225 Z M16.812,20.1531578 C19.108,20.9414904 21.111,22.2000214 23.117,24.1138289 L23.807,23.3905237 C21.694,21.3726724 19.574,20.0441118 17.137,19.2067585 L16.812,20.1531578 Z M23.823,13.3252771 C25.699,16.1874847 26.756,19.3298104 26.963,22.6642173 L25.965,22.7262435 C25.769,19.5679109 24.767,16.5896543 22.987,13.8735084 L23.823,13.3252771 Z" id="Amazon-CloudFront_Icon_32_Squid" fill="#FFFFFF"></path>
    </g>
</svg>