<?xml version="1.0" encoding="UTF-8"?>
<svg width="40px" height="40px" viewBox="0 0 40 40" version="1.1" xmlns="http://www.w3.org/2000/svg" xmlns:xlink="http://www.w3.org/1999/xlink">
    <!-- Generator: Sketch 64 (93537) - https://sketch.com -->
    <title>Icon-Architecture/32/Arch_Amazon-Route-53_32</title>
    <desc>Created with Sketch.</desc>
    <defs>
        <linearGradient x1="0%" y1="100%" x2="100%" y2="0%" id="linearGradient-1">
            <stop stop-color="#4D27A8" offset="0%"></stop>
            <stop stop-color="#A166FF" offset="100%"></stop>
        </linearGradient>
    </defs>
    <g id="Icon-Architecture/32/Arch_Amazon-Route-53_32" stroke="none" stroke-width="1" fill="none" fill-rule="evenodd">
        <g id="Icon-Architecture-BG/32/Networking-Content-Delivery" fill="url(#linearGradient-1)">
            <rect id="Rectangle" x="0" y="0" width="40" height="40"></rect>
        </g>
        <path d="M24.0244033,20.3143713 C24.3665874,20.6307385 24.5381782,21.0548902 24.5381782,21.5858283 C24.5381782,22.1656687 24.3296754,22.6277445 23.9136674,22.9740519 C23.4976594,23.3193613 22.9369964,23.492016 22.2346712,23.492016 C21.6789962,23.492016 21.1303047,23.3732535 20.5866012,23.1377246 L20.5866012,22.4281437 C21.2300668,22.6417166 21.779756,22.747505 22.2346712,22.747505 C22.682603,22.747505 23.0287775,22.6467066 23.2711994,22.4461078 C23.5126237,22.245509 23.6343335,21.9580838 23.6343335,21.5858283 C23.6343335,20.8712575 23.1824112,20.5139721 22.2785665,20.5139721 C21.9952421,20.5139721 21.7149106,20.5289421 21.4365743,20.5578842 L21.4365743,19.9730539 L23.2971376,17.9431138 L20.6753895,17.9431138 L20.6753895,17.2165669 L24.2817896,17.2165669 L24.2817896,17.9171657 L22.456143,19.8493014 C22.4860717,19.8433134 22.5150027,19.8403194 22.5449313,19.8403194 L22.632722,19.8403194 C23.2173279,19.8403194 23.6812217,19.999002 24.0244033,20.3143713 M18.8766787,20.1596806 C19.2358223,20.496008 19.4173893,20.9600798 19.4173893,21.5508982 C19.4173893,22.1297405 19.2068913,22.5988024 18.7878904,22.9550898 C18.3678919,23.3133733 17.8152099,23.492016 17.1308418,23.492016 C16.5282787,23.492016 15.9646228,23.3732535 15.4388765,23.1377246 L15.4388765,22.4281437 C16.0943136,22.6417166 16.6549766,22.747505 17.1218632,22.747505 C17.5697951,22.747505 17.914972,22.6457086 18.154401,22.4421158 C18.3928325,22.237525 18.5135446,21.9441118 18.5135446,21.5598802 C18.5135446,21.1407186 18.4008134,20.8353293 18.1763487,20.6467066 C17.951884,20.4580838 17.585757,20.3632735 17.0769703,20.3632735 C16.7108434,20.3632735 16.2539329,20.3932136 15.7042437,20.4520958 L15.7042437,19.8662675 L15.8728417,17.2165669 L19.1061315,17.2165669 L19.1061315,17.9431138 L16.617067,17.9431138 L16.501343,19.742515 C16.8265674,19.6836327 17.1188704,19.6536926 17.3792495,19.6536926 C18.0167293,19.6536926 18.5165375,19.8223553 18.8766787,20.1596806 M25.5298135,26.6217565 C23.288159,27.0249501 21.3228455,27.9351297 20,28.6806387 C18.6771545,27.9351297 16.711841,27.0249501 14.4691889,26.6217565 C13.8426828,26.508982 10.7151408,25.8572854 10.7151408,24.0628743 C10.7151408,23.2265469 11.0164224,22.6706587 11.5920497,21.6776447 C12.2883892,20.4780439 13.1543243,18.9850299 13.1543243,16.8303393 C13.1543243,15.3023952 12.7552759,13.8343313 11.9671552,12.4620758 L12.2165605,12.1556886 C14.8273348,13.4491018 17.7503645,13.2744511 20,11.8522954 C22.2506331,13.2734531 25.1726652,13.4491018 27.7834395,12.1556886 L28.0328448,12.4620758 C27.2447241,13.8343313 26.8446781,15.3023952 26.8446781,16.8303393 C26.8446781,18.9850299 27.7106132,20.4780439 28.4079503,21.6776447 C28.9835776,22.6706587 29.2838616,23.2265469 29.2838616,24.0628743 C29.2838616,25.8572854 26.1573172,26.508982 25.5298135,26.6217565 M27.8422991,16.8303393 C27.8422991,15.3762475 28.2523214,13.9810379 29.0623897,12.6836327 C29.1751209,12.501996 29.1601565,12.2684631 29.0264753,12.1037924 L28.3002072,11.2105788 C28.1475712,11.0219561 27.8812064,10.9690619 27.6707083,11.0878244 C26.5364132,11.7145709 25.3512394,12.0329341 24.1520988,12.0329341 C22.7035531,12.0329341 21.4375719,11.6437126 20.284322,10.8433134 C20.1127312,10.7255489 19.8872688,10.7255489 19.715678,10.8433134 C18.5614304,11.6437126 17.2964469,12.0329341 15.8479012,12.0329341 C14.6487606,12.0329341 13.4635868,11.7145709 12.3282941,11.0878244 C12.1167984,10.9690619 11.8514312,11.0219561 11.6997928,11.2105788 L10.9735247,12.1037924 C10.8388458,12.2684631 10.8248791,12.501996 10.9376103,12.6836327 C11.746681,13.9810379 12.1567032,15.3762475 12.1567032,16.8303393 C12.1567032,18.7165669 11.3655897,20.0808383 10.7291075,21.1766467 C10.1026015,22.257485 9.71751976,22.9750499 9.71751976,24.0628743 C9.71751976,26.5868263 13.2201673,27.4111776 14.2926099,27.6037924 C16.5392526,28.006986 18.4995779,28.9590818 19.7485995,29.6866267 C19.8264139,29.7325349 19.913207,29.754491 20,29.754491 C20.086793,29.754491 20.1735861,29.7325349 20.2514005,29.6866267 C21.5004221,28.9590818 23.4607474,28.006986 25.7063924,27.6037924 C26.7798327,27.4111776 30.2814826,26.5868263 30.2814826,24.0628743 C30.2814826,22.9750499 29.8973985,22.257485 29.2708925,21.1766467 C28.6344103,20.0808383 27.8422991,18.7165669 27.8422991,16.8303393 M26.0096693,29.2974052 C23.1883969,29.8043912 20.8200445,31.3133733 20,31.8852295 C19.1799555,31.3133733 16.8116031,29.8043912 13.9893331,29.2974052 C12.5836851,29.0449102 7.99762106,27.9211577 7.99762106,24.0628743 C7.99762106,22.4570858 8.62911519,21.3672655 9.24165452,20.3133733 C9.82925332,19.3003992 10.4368045,18.253493 10.4368045,16.8303393 C10.4368045,14.6127745 9.17182104,13.0389222 8.52436498,12.3782435 C9.19975443,11.5568862 10.8378482,9.55988024 11.6708618,8.48802395 C12.93385,9.66866267 14.3993554,10.3123752 15.8479012,10.3123752 C17.4570639,10.3123752 18.7898857,9.66267465 20,8.27644711 C21.2101143,9.66267465 22.5429361,10.3123752 24.1520988,10.3123752 C25.6006446,10.3123752 27.06615,9.66866267 28.3281406,8.48802395 C29.1611542,9.55988024 30.8002456,11.5568862 31.475635,12.3782435 C30.8271813,13.0389222 29.5631955,14.6127745 29.5631955,16.8303393 C29.5631955,18.253493 30.1707467,19.3003992 30.7583455,20.3133733 C31.3698872,21.3672655 32.0023789,22.4570858 32.0023789,24.0628743 C32.0023789,27.9211577 27.4153173,29.0449102 26.0096693,29.2974052 M31.6212877,19.8123752 C31.0516461,18.8313373 30.5608165,17.9840319 30.5608165,16.8303393 C30.5608165,14.4001996 32.4533037,12.8263473 32.4732561,12.8103792 C32.5750134,12.7255489 32.641854,12.6037924 32.6538255,12.4720559 C32.6667946,12.3403194 32.6278873,12.2075848 32.5430896,12.1047904 C32.5121633,12.0678643 29.4774,8.38922156 28.7840534,7.43712575 C28.6962628,7.31736527 28.5595887,7.24151697 28.4099455,7.23353293 C28.2672857,7.2255489 28.1176425,7.28243513 28.0158852,7.39021956 C26.8556519,8.63073852 25.483923,9.31437126 24.1520988,9.31437126 C22.6806078,9.31437126 21.5223697,8.65768463 20.3960556,7.18562874 C20.2075052,6.93812375 19.7924948,6.93812375 19.6029468,7.18562874 C18.4766326,8.65768463 17.3183946,9.31437126 15.8479012,9.31437126 C14.516077,9.31437126 13.1443481,8.63073852 11.9841148,7.39021956 C11.8823575,7.28243513 11.7337119,7.22654691 11.5890569,7.23353293 C11.4404113,7.24151697 11.3037372,7.31736527 11.2159466,7.43712575 C10.5226,8.38922156 7.4878367,12.0678643 7.45691044,12.1047904 C7.37211265,12.2075848 7.33220781,12.3403194 7.34517689,12.4730539 C7.35814596,12.6057884 7.42398895,12.7265469 7.52774154,12.8103792 C7.54669634,12.8263473 9.43918349,14.3852295 9.43918349,16.8303393 C9.43918349,17.9840319 8.94835393,18.8313373 8.37771468,19.8123752 C7.73225386,20.9261477 7,22.1876248 7,24.0628743 C7,27.1886228 9.54592894,29.5129741 13.8127542,30.2794411 C17.0021487,30.8532934 19.6697874,32.8762475 19.6957256,32.8962076 C19.7855115,32.9650699 19.8922569,33 20,33 C20.1067455,33 20.2144885,32.9650699 20.3042744,32.8962076 C20.3302126,32.8762475 22.9978513,30.8532934 26.1872458,30.2794411 C30.4530734,29.5129741 33,27.1886228 33,24.0628743 C33,22.1876248 32.2677461,20.9261477 31.6212877,19.8123752" id="Amazon-Route-53-Icon_32_Squid" fill="#FFFFFF"></path>
    </g>
</svg>