<?xml version="1.0" encoding="UTF-8"?>
<svg width="40px" height="40px" viewBox="0 0 40 40" version="1.1" xmlns="http://www.w3.org/2000/svg" xmlns:xlink="http://www.w3.org/1999/xlink">
    <!-- Generator: Sketch 64 (93537) - https://sketch.com -->
    <title>Icon-Architecture/32/Arch_AWS-PrivateLink_32</title>
    <desc>Created with Sketch.</desc>
    <defs>
        <linearGradient x1="0%" y1="100%" x2="100%" y2="0%" id="linearGradient-1">
            <stop stop-color="#4D27A8" offset="0%"></stop>
            <stop stop-color="#A166FF" offset="100%"></stop>
        </linearGradient>
    </defs>
    <g id="Icon-Architecture/32/Arch_AWS-PrivateLink_32" stroke="none" stroke-width="1" fill="none" fill-rule="evenodd">
        <g id="Icon-Architecture-BG/32/Networking-Content-Delivery" fill="url(#linearGradient-1)">
            <rect id="Rectangle" x="0" y="0" width="40" height="40"></rect>
        </g>
        <path d="M21.1105877,20.148338 C21.7041002,20.8125883 22.0308318,21.650165 22.0308318,22.5047736 C22.0308318,24.5105492 20.6389751,25.9672913 18.7215502,25.9672913 L14.4660457,25.9672913 C12.538629,25.9672913 11.0848232,24.4784889 11.0848232,22.5047736 C11.0848232,20.5200376 12.5696035,18.9641088 14.4660457,18.9641088 L16.0147736,18.9641088 L16.0147736,19.9659947 L14.4660457,19.9659947 C13.107162,19.9659947 12.0840024,21.0580504 12.0840024,22.5047736 C12.0840024,23.9304573 13.0861792,24.9654054 14.4660457,24.9654054 L18.7215502,24.9654054 C20.0824323,24.9654054 21.0316526,23.9535007 21.0316526,22.5047736 C21.0316526,21.8966289 20.7958463,21.2964992 20.3671984,20.8165959 L21.1105877,20.148338 Z M28.0878564,21.5660065 C28.0878564,23.6108557 26.6999964,24.9313413 24.5497627,24.9313413 L23.0090283,24.9313413 L23.0090283,23.9294554 L24.5497627,23.9294554 C25.1452735,23.9294554 27.0886772,23.7591348 27.0886772,21.5660065 C27.0886772,19.972006 26.1014881,18.90099 24.6326946,18.90099 L20.599008,18.90099 C19.1711808,18.90099 17.91821,20.1122701 17.91821,21.4938707 C17.91821,21.8805987 18.1660065,22.3074021 18.3838276,22.6841112 L17.5195375,23.1880598 C17.2527567,22.7261904 16.9190308,22.1511079 16.9190308,21.4938707 C16.9190308,19.5792668 18.6386183,17.8991041 20.599008,17.8991041 L24.6326946,17.8991041 C26.6680227,17.8991041 28.0878564,19.4069424 28.0878564,21.5660065 L28.0878564,21.5660065 Z M28.7243336,27.9981141 L11.3006459,27.9981141 C8.9415837,27.9961103 7.13706598,26.3359854 7.00817186,24.0486798 C7.00217678,23.9474893 6.99917925,23.8432932 6.99917925,23.7370933 C6.99917925,20.7985619 9.04150162,19.8557873 10.2595011,19.5542196 C10.5043,19.4941065 10.6661671,19.2586633 10.6351925,19.0071899 C10.604218,18.7537128 10.5882311,18.4962281 10.5882311,18.2327321 C10.5882311,15.9093587 12.2478678,13.4076496 14.367127,12.5380126 C15.2354138,12.1813412 16.1206866,12.0070131 16.9889733,12.0070131 C18.6745887,12.0070131 20.2972558,12.6652521 21.6011847,13.9336397 C22.3725511,14.6830503 22.9730578,15.6398514 23.3867181,16.77599 C23.4496663,16.9483144 23.6005424,17.0725482 23.7813939,17.0995991 C23.9612461,17.1296557 24.1420976,17.0545143 24.2540056,16.9092408 C24.8744959,16.0947076 25.8816686,15.7510607 26.8159012,16.0396038 C27.9080041,16.3732319 28.6134247,17.4843233 28.7053492,19.0111975 C28.7183385,19.2386256 28.8822039,19.427982 29.1050209,19.4730669 C31.6908968,19.9950494 33.0008208,21.4437765 33.0008208,23.7781706 C33.0008208,27.4500825 30.3220212,27.9981141 28.7243336,27.9981141 L28.7243336,27.9981141 Z M29.6675588,18.5723714 C29.4557328,16.8040428 28.5155051,15.5126119 27.1076616,15.080799 C26.028548,14.7491748 24.8894836,14.9976425 24.0291903,15.7079796 C23.5865539,14.7401578 23.0050316,13.9035831 22.2966135,13.2152875 C20.0254791,11.006129 16.9190308,10.4059994 13.9884381,11.6102662 C11.479499,12.6402049 9.58905185,15.4875647 9.58905185,18.2327321 C9.58905185,18.3900282 9.59404775,18.5453205 9.60304036,18.6986091 C8.26613853,19.1324257 6,20.3667491 6,23.7370933 C6,23.8633309 6.00299754,23.9885667 6.01099097,24.1077911 C6.16686293,26.8930339 8.43999572,28.9969943 11.2996467,29 L28.7243336,29 C32.0286193,29 34,27.0483262 34,23.7781706 C34,21.0951202 32.4662599,19.2586633 29.6675588,18.5723714 L29.6675588,18.5723714 Z" id="AWS-PrivateLink_Icon_32_Squid" fill="#FFFFFF"></path>
    </g>
</svg>