<?xml version="1.0" encoding="UTF-8"?>
<svg width="40px" height="40px" viewBox="0 0 40 40" version="1.1" xmlns="http://www.w3.org/2000/svg" xmlns:xlink="http://www.w3.org/1999/xlink">
    <!-- Generator: Sketch 64 (93537) - https://sketch.com -->
    <title>Icon-Architecture/32/Arch_AWS-Direct-Connect_32</title>
    <desc>Created with Sketch.</desc>
    <defs>
        <linearGradient x1="0%" y1="100%" x2="100%" y2="0%" id="linearGradient-1">
            <stop stop-color="#4D27A8" offset="0%"></stop>
            <stop stop-color="#A166FF" offset="100%"></stop>
        </linearGradient>
    </defs>
    <g id="Icon-Architecture/32/Arch_AWS-Direct-Connect_32" stroke="none" stroke-width="1" fill="none" fill-rule="evenodd">
        <g id="Icon-Architecture-BG/32/Networking-Content-Delivery" fill="url(#linearGradient-1)">
            <rect id="Rectangle" x="0" y="0" width="40" height="40"></rect>
        </g>
        <path d="M15.3678355,30.106506 L24.6321645,30.106506 L24.6321645,27.0557988 C24.6321645,26.7815666 24.3326993,26.5485195 23.9779636,26.5485195 L16.0210315,26.5485195 C15.6673007,26.5485195 15.3678355,26.7815666 15.3678355,27.0557988 L15.3678355,30.106506 Z M16.6782471,20.0101417 C17.3163694,20.0101417 17.8359114,19.4908083 17.8359114,18.8519378 C17.8359114,18.2140718 17.3163694,17.6947383 16.6782471,17.6947383 C16.03912,17.6947383 15.518573,18.2140718 15.518573,18.8519378 C15.518573,19.4908083 16.03912,20.0101417 16.6782471,20.0101417 L16.6782471,20.0101417 Z M19.9633205,16.1357335 C20.6024477,16.1357335 21.1229947,15.6164001 21.1229947,14.9775296 C21.1229947,14.3396635 20.6024477,13.8203301 19.9633205,13.8203301 C19.3251983,13.8203301 18.8056562,14.3396635 18.8056562,14.9775296 C18.8056562,15.6164001 19.3251983,16.1357335 19.9633205,16.1357335 L19.9633205,16.1357335 Z M23.3217529,20.0101417 C23.96088,20.0101417 24.4804221,19.4908083 24.4804221,18.8519378 C24.4804221,18.2140718 23.96088,17.6947383 23.3217529,17.6947383 C22.6826257,17.6947383 22.1640886,18.2140718 22.1640886,18.8519378 C22.1640886,19.4908083 22.6826257,20.0101417 23.3217529,20.0101417 L23.3217529,20.0101417 Z M27.3484549,31.8151833 L27.3484549,34 L26.343538,34 L26.343538,31.8151833 C26.343538,31.4003193 26.0993432,31.1110194 25.8802713,31.1110194 L14.1197287,31.1110194 C13.9006568,31.1110194 13.656462,31.4003193 13.656462,31.8151833 L13.656462,34 L12.6515451,34 L12.6515451,31.8151833 C12.6515451,30.8729498 13.3097656,30.106506 14.1197287,30.106506 L14.3629186,30.106506 L14.3629186,27.0557988 C14.3629186,26.2230572 15.1065571,25.5440061 16.0210315,25.5440061 L16.1757887,25.5440061 L16.1757887,20.9503663 C15.2241324,20.7223418 14.5136561,19.8715189 14.5136561,18.8519378 C14.5136561,17.6595804 15.4844058,16.6902249 16.6782471,16.6902249 C17.8700786,16.6902249 18.8408283,17.6595804 18.8408283,18.8519378 C18.8408283,19.8715189 18.1303521,20.7223418 17.1807056,20.9503663 L17.1807056,25.5440061 L19.4970391,25.5440061 L19.4970391,17.0870077 C18.5293041,16.8730464 17.8007393,16.0101693 17.8007393,14.9775296 C17.8007393,13.7851721 18.7714891,12.8158167 19.9633205,12.8158167 C21.1571618,12.8158167 22.1279116,13.7851721 22.1279116,14.9775296 C22.1279116,15.9830475 21.4345189,16.8238252 20.501956,17.0649084 L20.501956,25.5440061 L22.8192944,25.5440061 L22.8192944,20.9503663 C21.8696479,20.7223418 21.1591717,19.8715189 21.1591717,18.8519378 C21.1591717,17.6595804 22.1299214,16.6902249 23.3217529,16.6902249 C24.5155942,16.6902249 25.485339,17.6595804 25.485339,18.8519378 C25.485339,19.8715189 24.7748627,20.7223418 23.8242113,20.9503663 L23.8242113,25.5440061 L23.9779636,25.5440061 C24.8934429,25.5440061 25.6370814,26.2230572 25.6370814,27.0557988 L25.6370814,30.106506 L25.8802713,30.106506 C26.6902344,30.106506 27.3484549,30.8729498 27.3484549,31.8151833 L27.3484549,31.8151833 Z M34,18.4561595 C34,23.17235 29.8115063,23.17235 28.435775,23.17235 L25.9747335,23.17235 L25.9747335,22.1678365 L28.435775,22.1678365 C30.5581596,22.1678365 32.9950831,21.7459409 32.9950831,18.4561595 C32.9950831,16.1688825 31.6545239,14.7404644 29.0115924,14.2100813 C28.787496,14.1648782 28.6226896,13.9750252 28.6096257,13.7470006 C28.4759717,11.5109538 27.1685748,10.7173882 26.090299,10.7173882 C25.3597244,10.7173882 24.6753759,11.0659543 24.2121092,11.6726804 C24.0995586,11.8173304 23.9176686,11.8876463 23.7377885,11.8645425 C23.5558985,11.8374206 23.404156,11.712861 23.3418512,11.5410892 C22.9790762,10.5606841 22.4324014,9.75004178 21.5681728,8.91328211 C19.6126045,7.01274274 16.9365108,6.49742736 14.4091447,7.53308068 C12.2757061,8.40600284 10.6658292,10.7465191 10.6658292,12.9755343 C10.6658292,13.2346988 10.6819079,13.4898452 10.7130603,13.7389645 C10.7452177,13.9921019 10.5814162,14.2291671 10.3332017,14.2894379 C9.09011951,14.5938054 7.00491691,15.5330255 7.00491691,18.4169835 C7.00491691,18.5204484 7.01094642,18.6229087 7.01496608,18.7273781 C7.14862003,21.1040568 9.35441266,22.1678365 11.4798119,22.1678365 L14.0292862,22.1678365 L14.0292862,23.17235 L11.4798119,23.17235 C8.40577109,23.17235 6.15777196,21.3672394 6.012059,18.7826264 C6.0060295,18.6590712 6,18.5375251 6,18.4169835 C6,15.0890306 8.31231382,13.8645287 9.67498116,13.4315834 C9.66593691,13.2809064 9.66091232,13.1292249 9.66091232,12.9755343 C9.66091232,10.3185964 11.4968955,7.63955911 14.0282812,6.60390578 C16.9385206,5.41255288 20.0165811,6.00521579 22.267595,8.19304599 C23.030327,8.93035884 23.5770018,9.65561752 23.9779636,10.476305 C25.7707354,9.00167929 29.1392169,9.59132866 29.5793705,13.3060192 C32.4333345,13.9971245 34,15.8142892 34,18.4561595 L34,18.4561595 Z" id="AWS-Direct-Connect_Icon_32_Squid" fill="#FFFFFF"></path>
    </g>
</svg>