<?xml version="1.0" encoding="UTF-8"?>
<svg width="40px" height="40px" viewBox="0 0 40 40" version="1.1" xmlns="http://www.w3.org/2000/svg" xmlns:xlink="http://www.w3.org/1999/xlink">
    <title>Icon-Architecture/32/Arch_Amazon-FSx_32</title>
    <defs>
        <linearGradient x1="0%" y1="100%" x2="100%" y2="0%" id="linearGradient-1">
            <stop stop-color="#1B660F" offset="0%"></stop>
            <stop stop-color="#6CAE3E" offset="100%"></stop>
        </linearGradient>
    </defs>
    <g id="Icon-Architecture/32/Arch_Amazon-FSx_32" stroke="none" stroke-width="1" fill="none" fill-rule="evenodd">
        <g id="Rectangle" fill="url(#linearGradient-1)">
            <rect x="0" y="0" width="40" height="40"></rect>
        </g>
        <g id="Icon-Service/32/Amazon-FSx_32" transform="translate(4.000000, 4.000000)" fill="#FFFFFF">
            <path d="M23.537,18.267 L19.989,23.182 L21.589,23.182 L24.258,19.284 L23.537,18.267 Z M28.313,23.182 L30,23.182 L25.806,17.216 L29.625,11.891 L28.047,11.891 L25.028,16.201 L24.221,17.319 L28.313,23.182 Z M24.358,15.245 L22.01,11.891 L20.344,11.891 L23.517,16.364 L24.358,15.245 Z M13.545,16.154 C12.525,15.756 11.777,15.283 11.3,14.733 C10.823,14.183 10.585,13.504 10.585,12.696 C10.585,11.597 10.978,10.706 11.766,10.023 C12.555,9.341 13.592,9 14.877,9 C15.46,9 16.072,9.07 16.715,9.208 C17.357,9.348 17.963,9.543 18.533,9.795 L18.533,10.808 C17.182,10.331 15.982,10.093 14.936,10.093 C13.916,10.093 13.135,10.315 12.592,10.759 C12.048,11.203 11.777,11.835 11.777,12.656 C11.777,13.12 11.859,13.494 12.025,13.779 C12.19,14.064 12.463,14.322 12.84,14.554 C13.218,14.786 13.757,15.034 14.459,15.299 L16.586,16.114 C17.539,16.485 18.235,16.938 18.672,17.475 C19.109,18.012 19.328,18.684 19.328,19.492 C19.328,20.671 18.893,21.625 18.026,22.353 C17.158,23.082 16.016,23.446 14.599,23.446 C13.128,23.446 11.816,23.168 10.664,22.612 L10.664,21.598 C12.055,22.102 13.333,22.353 14.499,22.353 C15.599,22.353 16.476,22.095 17.132,21.578 C17.788,21.061 18.115,20.36 18.115,19.472 C18.115,18.929 17.936,18.465 17.579,18.081 C17.222,17.697 16.645,17.352 15.85,17.048 L13.545,16.154 Z M2,23.108 L2,9.338 L9.729,9.338 L9.729,10.391 L3.172,10.391 L3.172,15.657 L8.717,15.657 L8.717,16.71 L3.172,16.71 L3.172,23.108 L2,23.108 Z" id="Amazon-FSx_32_Squid"></path>
        </g>
    </g>
</svg>