<?xml version="1.0" encoding="UTF-8"?>
<svg width="40px" height="40px" viewBox="0 0 40 40" version="1.1" xmlns="http://www.w3.org/2000/svg" xmlns:xlink="http://www.w3.org/1999/xlink">
    <!-- Generator: Sketch 64 (93537) - https://sketch.com -->
    <title>Icon-Architecture/32/Arch_Amazon-Elastic-File-System_32</title>
    <desc>Created with Sketch.</desc>
    <defs>
        <linearGradient x1="0%" y1="100%" x2="100%" y2="0%" id="linearGradient-1">
            <stop stop-color="#1B660F" offset="0%"></stop>
            <stop stop-color="#6CAE3E" offset="100%"></stop>
        </linearGradient>
    </defs>
    <g id="Icon-Architecture/32/Arch_Amazon-Elastic-File-System_32" stroke="none" stroke-width="1" fill="none" fill-rule="evenodd">
        <g id="Icon-Architecture-BG/32/Storage" fill="url(#linearGradient-1)">
            <rect id="Rectangle" x="0" y="0" width="40" height="40"></rect>
        </g>
        <path d="M33,29 L34,29 L34,33.5 C34,33.776 33.776,34 33.5,34 L29,34 L29,33 L32.293,33 L28.646,29.354 L29.354,28.646 L33,32.293 L33,29 Z M11.354,29.354 L7.707,33 L11,33 L11,34 L6.5,34 C6.224,34 6,33.776 6,33.5 L6,29 L7,29 L7,32.293 L10.646,28.646 L11.354,29.354 Z M34,6.5 L34,11 L33,11 L33,7.707 L29.354,11.354 L28.646,10.646 L32.293,7 L29,7 L29,6 L33.5,6 C33.776,6 34,6.224 34,6.5 L34,6.5 Z M7,11 L6,11 L6,6.5 C6,6.224 6.224,6 6.5,6 L11,6 L11,7 L7.707,7 L11.354,10.646 L10.646,11.354 L7,7.707 L7,11 Z M12.474,16.31 C12.474,16.539 12.492,16.768 12.518,16.988 C12.548,17.238 12.387,17.471 12.142,17.532 C11.077,17.796 9.292,18.62 9.292,21.162 L9.299,21.397 C9.381,22.902 10.373,24.178 11.825,24.68 L11.499,25.625 C9.66,24.99 8.405,23.365 8.302,21.486 C8.296,21.349 8.292,21.256 8.292,21.162 C8.292,18.989 9.477,17.341 11.485,16.681 C11.479,16.558 11.474,16.434 11.474,16.31 C11.474,13.871 13.124,11.34 15.312,10.423 C17.867,9.351 20.579,9.886 22.561,11.85 C23.158,12.443 23.651,13.159 24.031,13.983 C25.631,12.723 28.532,13.288 28.933,16.561 C31.418,17.2 32.781,18.833 32.781,21.191 C32.781,23.792 31.368,24.895 30.184,25.362 L29.816,24.431 C31.139,23.911 31.781,22.851 31.781,21.191 C31.781,19.188 30.632,17.931 28.364,17.455 C28.144,17.409 27.98,17.22 27.968,16.995 C27.86,15.168 26.82,14.351 25.836,14.351 C25.225,14.351 24.647,14.651 24.254,15.175 C24.145,15.321 23.967,15.396 23.779,15.369 C23.598,15.341 23.445,15.216 23.384,15.042 C23.034,14.064 22.506,13.205 21.856,12.559 C21.047,11.758 18.828,10.033 15.698,11.346 C13.89,12.103 12.474,14.284 12.474,16.31 L12.474,16.31 Z M26,29 L14,29 L14,21.5 C14,21.289 14.04,21.131 14.109,21.067 C14.188,20.992 14.366,20.993 14.5,21 L15.897,21 C16.168,21 16.39,20.772 16.397,20.502 C16.4,20.403 16.467,20.155 16.53,19.999 L18.387,19.991 C18.433,20.147 18.475,20.384 18.475,20.5 C18.475,20.776 18.698,21 18.975,21 L25.675,20.999 C25.793,20.99 25.832,21.023 25.845,21.035 C25.92,21.105 26,21.326 26,21.733 L26,29 Z M28.307,22.5 L27,26.419 L27,22.5 L28.307,22.5 Z M29.475,22.158 C29.525,22.006 29.5,21.838 29.405,21.708 C29.312,21.577 29.161,21.5 29,21.5 L26.984,21.5 C26.949,20.967 26.801,20.56 26.527,20.304 C26.36,20.149 26.072,19.969 25.641,20 L19.414,20 C19.329,19.599 19.128,19.089 18.646,19 L16.312,19 C15.816,19 15.585,19.564 15.479,20 L14.534,20.001 C14.079,19.969 13.698,20.081 13.427,20.336 C13.144,20.6 13,20.992 13,21.5 L13,29.5 C13,29.776 13.224,30 13.5,30 L26.5,30 C26.721,30 26.902,29.854 26.969,29.656 L26.975,29.658 L29.475,22.158 Z" id="Amazon-Elastic-File-System_Icon_32_Squid" fill="#FFFFFF"></path>
    </g>
</svg>