<?xml version="1.0" encoding="UTF-8"?>
<svg width="40px" height="40px" viewBox="0 0 40 40" version="1.1" xmlns="http://www.w3.org/2000/svg" xmlns:xlink="http://www.w3.org/1999/xlink">
    <title>Icon-Architecture/32/Arch_Amazon-S3-On-Outposts_Storage_32</title>
    <defs>
        <linearGradient x1="0%" y1="100%" x2="100%" y2="0%" id="linearGradient-1">
            <stop stop-color="#1B660F" offset="0%"></stop>
            <stop stop-color="#6CAE3E" offset="100%"></stop>
        </linearGradient>
    </defs>
    <g id="Icon-Architecture/32/Arch_Amazon-S3-On-Outposts_Storage_32" stroke="none" stroke-width="1" fill="none" fill-rule="evenodd">
        <g id="Rectangle" fill="url(#linearGradient-1)">
            <rect x="0" y="0" width="40" height="40"></rect>
        </g>
        <g id="Icon-Service/32/Amazon-S3-On-Outposts_32" transform="translate(4.000000, 4.000000)" fill="#FFFFFF">
            <path d="M28.831,21.8 C28.716,21.682 28.492,21.499 28.096,21.249 L28.037,21.681 C28.431,21.773 28.68,21.798 28.831,21.8 L28.831,21.8 Z M27.944,14.816 C27.897,14.225 25.127,12.869 20.781,12.869 C16.397,12.869 13.617,14.249 13.617,14.831 L13.634,14.922 C13.8,15.541 16.676,16.526 20.781,16.526 C24.887,16.526 27.763,15.541 27.94,14.863 L27.944,14.816 Z M27.758,16.265 C26.223,17.102 23.438,17.526 20.781,17.526 C18.123,17.526 15.339,17.102 13.808,16.286 L14.536,21.699 C15.037,21.871 15.509,22.16 15.921,22.566 C16.176,22.819 16.395,23.112 16.577,23.443 C16.964,23.235 17.416,23.181 17.855,23.31 C18.536,23.511 19.006,24.09 19.156,24.886 C19.457,24.978 19.761,25.115 20.026,25.284 C20.859,25.811 21.281,26.497 21.281,27.323 C21.281,27.997 21.098,28.554 20.756,29 L20.781,29 C22.057,29 23.332,28.867 24.372,28.627 C24.772,28.535 25.128,28.428 25.428,28.31 C26.015,28.077 26.191,27.871 26.207,27.817 L26.932,22.419 C24.462,21.726 22.673,21.177 21.597,20.781 C21.429,20.91 21.228,21 21,21 C20.448,21 20,20.551 20,20 C20,19.448 20.448,19 21,19 C21.5,19 21.896,19.374 21.971,19.853 C22.991,20.227 24.722,20.758 27.066,21.419 L27.758,16.265 Z M20.281,27.323 C20.281,27 20.191,26.572 19.491,26.129 C19.226,25.96 18.897,25.831 18.613,25.783 C18.342,25.737 18.159,25.479 18.204,25.208 C18.165,24.76 17.93,24.375 17.572,24.269 C17.283,24.184 16.98,24.296 16.792,24.549 C16.682,24.696 16.498,24.769 16.317,24.744 C16.135,24.716 15.983,24.591 15.921,24.418 C15.757,23.959 15.519,23.576 15.218,23.278 C14.945,23.008 14.32,22.51 13.435,22.51 C13.124,22.51 12.781,22.571 12.41,22.726 C11.607,23.061 10.954,24.064 10.954,24.962 C10.954,25.066 10.961,25.167 10.973,25.267 C11.004,25.517 10.843,25.751 10.599,25.813 C10.035,25.954 9.363,26.34 9.363,27.372 C9.363,28.217 9.835,28.675 10.229,28.911 C10.328,28.97 10.443,29 10.572,29 L18.645,29.008 C18.919,29.007 20.281,28.92 20.281,27.323 L20.281,27.323 Z M9.954,24.971 L9.954,24.962 C9.954,23.654 10.845,22.296 12.025,21.803 C12.516,21.599 13.015,21.509 13.504,21.519 L12.644,15.13 L12.66,15.128 C12.659,15.123 12.656,15.119 12.655,15.115 L12.622,14.899 C12.62,14.025 13.577,13.3 15,12.777 L15,3.781 C15,3.35 14.649,3 14.219,3 L3.781,3 C3.351,3 3,3.35 3,3.781 L3,26.218 C3,26.649 3.351,27 3.781,27 L8.414,27 C8.533,26.06 9.068,25.326 9.954,24.971 L9.954,24.971 Z M18.644,30 L18.641,30 L10.571,29.991 C10.265,29.991 9.97,29.92 9.718,29.77 C9.296,29.518 8.642,28.974 8.435,28 L6,28 L6,30 L5,30 L5,28 L3.781,28 C2.799,28 2,27.2 2,26.218 L2,3.781 C2,2.799 2.799,2 3.781,2 L14.219,2 C15.201,2 16,2.799 16,3.781 L16,12.462 C17.421,12.082 19.124,11.869 20.781,11.869 C24.724,11.869 28.945,13.059 28.945,14.831 C28.945,14.854 28.943,14.876 28.94,14.899 L28.919,15.056 C28.913,15.08 28.898,15.103 28.891,15.126 L28.919,15.13 L28.24,20.17 C29.332,20.798 29.851,21.289 29.942,21.782 C29.988,22.028 29.925,22.268 29.765,22.459 C29.574,22.686 29.28,22.8 28.847,22.8 C28.591,22.8 28.266,22.745 27.904,22.667 L27.201,27.893 C27.206,28.394 26.731,28.869 25.795,29.239 C25.449,29.376 25.046,29.498 24.597,29.602 C23.485,29.858 22.131,29.991 20.781,29.991 L18.644,30 Z M6,11 L13,11 L13,10 L6,10 L6,11 Z M6,14 L11,14 L11,13 L6,13 L6,14 Z M6,8 L13,8 L13,7 L6,7 L6,8 Z" id="Fill-6"></path>
        </g>
    </g>
</svg>