<?xml version="1.0" encoding="UTF-8"?>
<svg width="40px" height="40px" viewBox="0 0 40 40" version="1.1" xmlns="http://www.w3.org/2000/svg" xmlns:xlink="http://www.w3.org/1999/xlink">
    <title>Icon-Architecture/32/Arch_AWS-Snowcone_32</title>
    <defs>
        <linearGradient x1="0%" y1="100%" x2="100%" y2="0%" id="linearGradient-1">
            <stop stop-color="#1B660F" offset="0%"></stop>
            <stop stop-color="#6CAE3E" offset="100%"></stop>
        </linearGradient>
    </defs>
    <g id="Icon-Architecture/32/Arch_AWS-Snowcone_32" stroke="none" stroke-width="1" fill="none" fill-rule="evenodd">
        <g id="Rectangle" fill="url(#linearGradient-1)">
            <rect x="0" y="0" width="40" height="40"></rect>
        </g>
        <g id="Icon-Service/32/AWS-Snowcone_32" transform="translate(4.000000, 4.000000)" fill="#FFFFFF">
            <path d="M24,16.5 L24,22.5 C24,22.776 23.776,23 23.5,23 L8.5,23 C8.224,23 8,22.776 8,22.5 L8,16.5 C8,16.224 8.224,16 8.5,16 L12,16 L12,17 L9,17 L9,22 L23,22 L23,17 L20,17 L20,16 L23.5,16 C23.776,16 24,16.224 24,16.5 L24,16.5 Z M29,25.857 C29,25.936 28.937,26 28.857,26 L27,26 L27,25.5 L27,14.5 C27,13.673 26.327,13 25.5,13 L6.469,13 C5.642,13 5,13.673 5,14.5 L5,26 L3.143,26 C3.063,26 3,25.936 3,25.857 L3,12.429 C3,11.641 3.641,11 4.429,11 L27.571,11 C28.359,11 29,11.641 29,12.429 L29,25.857 Z M5.969,25 L5.969,14.5 C5.969,14.224 6.193,14 6.469,14 L25.5,14 C25.775,14 26,14.224 26,14.5 L26,25 L5.969,25 Z M23.293,10 L8.707,10 L10.707,8 L21.293,8 L23.293,10 Z M8.686,6.488 C8.957,6.178 9.349,6 9.761,6 L22.239,6 C22.651,6 23.043,6.178 23.325,6.5 L26.602,10 L24.707,10 L21.854,7.146 C21.76,7.053 21.633,7 21.5,7 L10.5,7 C10.367,7 10.24,7.053 10.146,7.146 L7.293,10 L5.398,10 L8.686,6.488 Z M28.014,10.045 L24.066,5.83 C23.605,5.302 22.939,5 22.239,5 L9.761,5 C9.061,5 8.395,5.302 7.944,5.817 L3.985,10.045 C2.858,10.254 2,11.241 2,12.429 L2,25.857 C2,26.487 2.513,27 3.143,27 L5.5,27 C5.776,27 6,26.776 6,26.5 L6,26 L26,26 L26,26.5 C26,26.776 26.224,27 26.5,27 L28.857,27 C29.487,27 30,26.487 30,25.857 L30,12.429 C30,11.241 29.142,10.254 28.014,10.045 L28.014,10.045 Z M14,19 L18,19 L18,17 L14,17 L14,19 Z M13.5,20 L18.5,20 C18.776,20 19,19.776 19,19.5 L19,16.5 C19,16.224 18.776,16 18.5,16 L13.5,16 C13.224,16 13,16.224 13,16.5 L13,19.5 C13,19.776 13.224,20 13.5,20 L13.5,20 Z" id="AWS-Snowcone_32_Squid"></path>
        </g>
    </g>
</svg>