<?xml version="1.0" encoding="UTF-8"?>
<svg width="40px" height="40px" viewBox="0 0 40 40" version="1.1" xmlns="http://www.w3.org/2000/svg" xmlns:xlink="http://www.w3.org/1999/xlink">
    <!-- Generator: Sketch 64 (93537) - https://sketch.com -->
    <title>Icon-Architecture/32/Arch_Amazon-FSx-for-Lustre_32</title>
    <desc>Created with Sketch.</desc>
    <defs>
        <linearGradient x1="0%" y1="100%" x2="100%" y2="0%" id="linearGradient-1">
            <stop stop-color="#1B660F" offset="0%"></stop>
            <stop stop-color="#6CAE3E" offset="100%"></stop>
        </linearGradient>
    </defs>
    <g id="Icon-Architecture/32/Arch_Amazon-FSx-for-Lustre_32" stroke="none" stroke-width="1" fill="none" fill-rule="evenodd">
        <g id="Icon-Architecture-BG/32/Storage" fill="url(#linearGradient-1)">
            <rect id="Rectangle" x="0" y="0" width="40" height="40"></rect>
        </g>
        <path d="M32.345,20.255 L31.983,19.913 L29.11,22.547 C29.019,22.523 28.931,22.491 28.832,22.491 C28.22,22.491 27.722,22.989 27.722,23.601 C27.722,24.213 28.22,24.712 28.832,24.712 C29.445,24.712 29.944,24.213 29.944,23.601 C29.944,23.484 29.91,23.377 29.876,23.27 L32.345,20.255 Z M30.193,20.638 L30.597,19.723 C30.032,19.474 29.438,19.347 28.832,19.347 C26.273,19.347 24.028,21.735 24.028,24.457 L25.028,24.457 C25.028,22.268 26.806,20.347 28.832,20.347 C29.298,20.347 29.756,20.445 30.193,20.638 L30.193,20.638 Z M32.575,21.323 L31.775,21.922 C32.331,22.667 32.638,23.568 32.638,24.457 L33.638,24.457 C33.638,23.353 33.261,22.24 32.575,21.323 L32.575,21.323 Z M19.073,24.518 L20.147,24.518 L21.938,21.901 L21.454,21.219 L19.073,24.518 Z M25.54,16.94 L24.481,16.94 L22.455,19.832 L21.913,20.583 L23.454,22.792 C23.533,22.419 23.66,22.061 23.824,21.72 L22.977,20.513 L25.54,16.94 Z M22.005,19.191 L20.429,16.94 L19.311,16.94 L21.442,19.942 L22.005,19.191 Z M16.789,19.774 L15.362,19.227 C14.891,19.049 14.529,18.882 14.275,18.727 C14.022,18.571 13.839,18.398 13.729,18.207 C13.617,18.016 13.562,17.765 13.562,17.453 C13.562,16.902 13.743,16.478 14.109,16.18 C14.473,15.882 14.997,15.733 15.682,15.733 C16.384,15.733 17.189,15.893 18.096,16.213 L18.096,15.533 C17.713,15.364 17.307,15.233 16.875,15.14 C16.444,15.047 16.033,15 15.642,15 C14.78,15 14.084,15.229 13.555,15.686 C13.026,16.144 12.761,16.742 12.761,17.48 C12.761,18.023 12.921,18.478 13.241,18.847 C13.562,19.216 14.064,19.534 14.748,19.8 L16.295,20.401 C16.828,20.605 17.215,20.837 17.455,21.094 C17.696,21.352 17.816,21.663 17.816,22.027 C17.816,22.624 17.596,23.094 17.156,23.441 C16.715,23.788 16.126,23.962 15.389,23.962 C14.606,23.962 13.748,23.793 12.815,23.455 L12.815,24.135 C13.588,24.508 14.468,24.695 15.455,24.695 C16.407,24.695 17.173,24.45 17.756,23.962 C18.338,23.472 18.629,22.833 18.629,22.041 C18.629,21.499 18.483,21.047 18.189,20.687 C17.896,20.327 17.429,20.023 16.789,19.774 L16.789,19.774 Z M7,15.226 L12.188,15.226 L12.188,15.933 L7.786,15.933 L7.786,19.467 L11.508,19.467 L11.508,20.174 L7.786,20.174 L7.786,24.468 L7,24.468 L7,15.226 Z" id="Amazon-FSx-for-Lustre-Icon_32_Squid" fill="#FFFFFF"></path>
    </g>
</svg>