<?xml version="1.0" encoding="UTF-8"?>
<svg width="40px" height="40px" viewBox="0 0 40 40" version="1.1" xmlns="http://www.w3.org/2000/svg" xmlns:xlink="http://www.w3.org/1999/xlink">
    <!-- Generator: Sketch 64 (93537) - https://sketch.com -->
    <title>Icon-Architecture/32/Arch_AWS-CloudEndure-Disaster-Recovery_32</title>
    <desc>Created with Sketch.</desc>
    <defs>
        <linearGradient x1="0%" y1="100%" x2="100%" y2="0%" id="linearGradient-1">
            <stop stop-color="#1B660F" offset="0%"></stop>
            <stop stop-color="#6CAE3E" offset="100%"></stop>
        </linearGradient>
    </defs>
    <g id="Icon-Architecture/32/Arch_AWS-CloudEndure-Disaster-Recovery_32" stroke="none" stroke-width="1" fill="none" fill-rule="evenodd">
        <g id="Icon-Architecture-BG/32/Storage" fill="url(#linearGradient-1)">
            <rect id="Rectangle" x="0" y="0" width="40" height="40"></rect>
        </g>
        <path d="M17.347,18.5601708 L21.197,18.5601708 L18.55,22.7951708 C18.453,22.9491708 18.449,23.1431708 18.536,23.3021708 C18.624,23.4611708 18.792,23.5601708 18.974,23.5601708 L20.671,23.5601708 L16.243,29.5191708 L17.043,25.1501708 C17.07,25.0041708 17.031,24.8541708 16.935,24.7401708 C16.84,24.6261708 16.7,24.5601708 16.551,24.5601708 L14.075,24.5601708 L17.347,18.5601708 Z M15.767,31.8381708 L22.067,23.3581708 C22.179,23.2061708 22.197,23.0041708 22.112,22.8351708 C22.027,22.6661708 21.855,22.5601708 21.665,22.5601708 L19.876,22.5601708 L22.523,18.3251708 C22.619,18.1711708 22.624,17.9771708 22.536,17.8181708 C22.449,17.6591708 22.281,17.5601708 22.099,17.5601708 L17.05,17.5601708 C16.868,17.5601708 16.699,17.6601708 16.612,17.8211708 L12.793,24.8211708 C12.708,24.9761708 12.711,25.1641708 12.802,25.3151708 C12.892,25.4671708 13.055,25.5601708 13.232,25.5601708 L15.951,25.5601708 L14.873,31.4501708 C14.832,31.6781708 14.953,31.9051708 15.166,31.9981708 C15.231,32.0261708 15.298,32.0391708 15.366,32.0391708 C15.52,32.0391708 15.67,31.9681708 15.767,31.8381708 L15.767,31.8381708 Z M29.033,25.4641708 L23.638,25.4611708 L23.638,24.5601708 L28.993,24.5601708 C29.117,24.5471708 33,24.0731708 33,20.0591708 C33,16.6921708 30.224,15.8511708 29.031,15.6451708 C28.764,15.6001708 28.582,15.3501708 28.62,15.0821708 C28.519,13.5701708 27.797,12.4461708 26.694,12.1231708 C25.786,11.8561708 24.814,12.2081708 24.215,13.0181708 C24.105,13.1671708 23.923,13.2391708 23.739,13.2161708 C23.556,13.1881708 23.403,13.0621708 23.341,12.8881708 C22.93,11.7221708 22.332,10.7421708 21.567,9.97417084 C20.628,9.03217084 18.047,7.00617084 14.41,8.54617084 C12.307,9.43717084 10.66,12.0031708 10.66,14.3871708 C10.66,14.6571708 10.676,14.9221708 10.706,15.1821708 C10.737,15.4311708 10.576,15.6641708 10.333,15.7261708 C9.089,16.0431708 7,17.0221708 7,20.0181708 C7,20.1731708 7.006,20.3251708 7.018,20.4711708 C7.118,21.7381708 7.526,23.3981708 8.909,24.1161708 C9.061,24.1811708 9.784,24.2691708 10.131,24.3121708 C10.392,24.3451708 10.617,24.3731708 10.734,24.3961708 L10.542,25.3771708 C10.438,25.3571708 10.239,25.3331708 10.008,25.3051708 C9.118,25.1951708 8.682,25.1251708 8.448,25.0031708 C7.051,24.2791708 6.189,22.6971708 6.022,20.5501708 C6.008,20.3781708 6,20.2011708 6,20.0181708 C6,16.5911708 8.317,15.3241708 9.675,14.8751708 C9.664,14.7141708 9.66,14.5521708 9.66,14.3871708 C9.66,11.5851708 11.535,8.67917084 14.02,7.62517084 C16.934,6.39217084 20.021,7.00517084 22.276,9.26817084 C22.976,9.97117084 23.55,10.8231708 23.988,11.8091708 C24.823,11.1101708 25.923,10.8551708 26.974,11.1631708 C28.413,11.5841708 29.376,12.9101708 29.592,14.7401708 C31.001,15.0701708 34,16.2251708 34,20.0591708 C34,25.0031708 29.082,25.4601708 29.033,25.4641708 L29.033,25.4641708 Z" id="AWS-CloudEndure-Disaster-Recovery_Icon_32_Squid" fill="#FFFFFF"></path>
    </g>
</svg>