<?xml version="1.0" encoding="UTF-8"?>
<svg width="40px" height="40px" viewBox="0 0 40 40" version="1.1" xmlns="http://www.w3.org/2000/svg" xmlns:xlink="http://www.w3.org/1999/xlink">
    <!-- Generator: Sketch 64 (93537) - https://sketch.com -->
    <title>Icon-Architecture/32/Arch_Amazon-Glacier_32</title>
    <desc>Created with Sketch.</desc>
    <defs>
        <linearGradient x1="0%" y1="100%" x2="100%" y2="0%" id="linearGradient-1">
            <stop stop-color="#1B660F" offset="0%"></stop>
            <stop stop-color="#6CAE3E" offset="100%"></stop>
        </linearGradient>
    </defs>
    <g id="Icon-Architecture/32/Arch_Amazon-Glacier_32" stroke="none" stroke-width="1" fill="none" fill-rule="evenodd">
        <g id="Icon-Architecture-BG/32/Storage" fill="url(#linearGradient-1)">
            <rect id="Rectangle" x="0" y="0" width="40" height="40"></rect>
        </g>
        <path d="M32.7143594,29.3842653 L33.735616,30.395606 L33.0249581,31.0993636 L31.8086977,29.8949127 L29.8204638,29.8949127 L30.7974928,31.5731807 L32.4821642,32.0420207 L32.2087569,33.0006044 L30.8427257,32.6193608 L30.4698062,34 L29.497803,33.7421878 L29.9420899,32.0997547 L28.9489781,30.3926197 L27.9699388,32.0688969 L28.4011584,33.7491557 L27.4271449,33.9940275 L27.0783496,32.6323012 L25.6841734,33.0025952 L25.4228282,32.0410253 L27.0813651,31.6010523 L28.0784976,29.8949127 L26.1214241,29.8949127 L24.8699826,31.1033453 L24.1673661,30.3906289 L25.1835969,29.4091507 L24.1633454,28.3988055 L24.8740033,27.6950478 L26.0892585,28.8994987 L28.0784976,28.8994987 L27.0974479,27.2202353 L25.4167972,26.7513954 L25.6902045,25.7938071 L27.0552306,26.1740552 L27.4281501,24.793416 L28.4001532,25.0512283 L27.9548612,26.6996338 L28.9489781,28.4017917 L29.9280174,26.7205375 L29.4967979,25.0452558 L30.4708113,24.7993885 L30.8206118,26.1621103 L32.2157931,25.7918163 L32.475128,26.7533862 L30.8125704,27.1943546 L29.8204638,28.8994987 L31.7765322,28.8994987 L33.0289788,27.6910662 L33.7305901,28.4037826 L32.7143594,29.3842653 Z M30.8859481,21.3801415 L31.0749208,19.9975115 C32.9505752,21.0964485 32.9948029,21.5672793 32.9948029,21.5672793 C32.9907822,21.5702656 32.6620903,21.8250915 30.8859481,21.3801415 L30.8859481,21.3801415 Z M19.6923321,6.99541399 C26.3274847,6.99541399 31.330235,9.0250631 31.3845144,10.3559316 L31.3694368,10.4893171 C31.3684316,10.4923033 31.3654161,10.4952896 31.3644109,10.4992712 C31.0156156,11.8400939 26.1365017,13.3342102 19.6953476,13.3342102 C13.2642453,13.3342102 8.38915208,11.8440755 8.02226362,10.5042483 L8.00115497,10.3768353 C8.00115497,9.04696221 13.0209932,6.99541399 19.6923321,6.99541399 L19.6923321,6.99541399 Z M19.489287,17.4313342 C19.489287,17.3198478 19.5807578,17.2292652 19.6933373,17.2292652 C19.8059167,17.2292652 19.8973875,17.3198478 19.8973875,17.4313342 C19.8973875,17.6543069 19.489287,17.6543069 19.489287,17.4313342 L19.489287,17.4313342 Z M31.2216762,18.9294323 L32.3474709,10.7023357 C32.3494813,10.698354 32.3524968,10.6943724 32.353502,10.6893953 L32.3856675,10.4405418 C32.388683,10.4196381 32.3896882,10.3987344 32.3896882,10.3768353 C32.3896882,7.79771766 25.6982459,6 19.6923321,6 C13.6864183,6 6.99598112,7.79771766 7,10.4425326 L7.03618807,10.6824274 C7.03618807,10.6854136 7.0351829,10.6874045 7.0351829,10.6903907 L9.76121439,30.7360375 C9.76121439,33.0205126 15.8545783,33.8715916 19.6953476,33.8715916 C21.0010684,33.8715916 22.31081,33.7889722 23.5924066,33.6267198 L23.4647496,32.6392691 C22.2253702,32.7965445 20.957846,32.8761776 19.6953476,32.8761776 C14.1558345,32.8761776 10.7663882,31.4905613 10.7613624,30.6703402 L8.24641739,12.1456859 C8.2805933,12.1685805 8.32180543,12.1884887 8.35899686,12.2113833 C8.44142112,12.261154 8.5268609,12.3119201 8.6153162,12.3606954 C8.70276632,12.4084752 8.79624749,12.4552597 8.88972866,12.5010487 C8.9882357,12.549824 9.08473239,12.5995947 9.19027564,12.6473746 C9.26968438,12.6822141 9.35612933,12.7150627 9.43855358,12.7499022 C9.66974357,12.845462 9.91400082,12.9380355 10.1713253,13.0256319 C10.2547548,13.0544989 10.337179,13.0833659 10.4246291,13.1112375 C10.5764104,13.1600128 10.7332175,13.2067973 10.892035,13.2525863 C10.9734541,13.2764762 11.0568835,13.2993708 11.1403129,13.3222653 C11.3132028,13.3690497 11.4870979,13.4158342 11.667024,13.4596324 C11.7032103,13.4685911 11.7424121,13.4775499 11.7796035,13.4855132 C12.4269355,13.6407978 13.1174899,13.7741832 13.8361892,13.8876604 C13.8884582,13.8956237 13.9397221,13.9045825 13.9929963,13.9125458 C14.2251915,13.9473853 14.459397,13.9802339 14.696618,14.0120872 C14.7257681,14.0160688 14.7559233,14.0190551 14.7850733,14.0230367 C15.5620727,14.1215827 16.3591756,14.1972342 17.1623095,14.2480003 C17.1763819,14.2489957 17.1904544,14.2499911 17.2045268,14.2509865 C17.4638616,14.2679086 17.7231965,14.2808489 17.9835365,14.2917985 L18.0890798,14.2967756 C18.6258426,14.3186747 19.1626055,14.3326105 19.6923321,14.3326105 C20.212007,14.3326105 20.7377129,14.3186747 21.2624136,14.297771 C21.3207137,14.2957802 21.3780086,14.2937893 21.4342984,14.2908031 C21.6745349,14.2808489 21.911756,14.2679086 22.1509873,14.2529774 C22.2072771,14.2499911 22.2635668,14.2460095 22.3188514,14.2420278 C22.9983489,14.1962388 23.6728205,14.1345231 24.3332198,14.05489 C24.4990735,14.0349817 24.663922,14.0150734 24.8267601,13.9931743 C24.953412,13.9762523 25.0790588,13.9573394 25.2037003,13.9394219 C25.4369007,13.9055779 25.6660803,13.869743 25.8932496,13.8309218 C25.95356,13.8209677 26.0148756,13.8110135 26.0751861,13.8010594 C28.1719787,13.4337516 29.9963693,12.8803015 31.1362364,12.1496676 L29.9089191,21.1093889 C26.8371078,20.1736997 22.6153777,18.255537 20.8985407,17.4522379 C20.8985407,17.44527 20.9025614,17.4392975 20.9025614,17.4313342 C20.9025614,16.7713747 20.3597675,16.2338512 19.6933373,16.2338512 C19.026907,16.2338512 18.4841131,16.7713747 18.4841131,17.4313342 C18.4841131,18.0922891 19.026907,18.6288172 19.6933373,18.6288172 C19.9838325,18.6288172 20.241157,18.5133492 20.4502332,18.3431334 C22.4696274,19.2887767 26.6722593,21.1870312 29.7722155,22.1077891 L29.6757188,22.8135376 L30.6708409,22.9479185 L30.7492445,22.3745601 C31.4659334,22.5497529 32.0549653,22.641331 32.5203608,22.641331 C33.1154237,22.641331 33.5184985,22.4979914 33.7627557,22.2093213 C33.9627853,21.9724128 34.0381733,21.686729 33.9818836,21.3821323 C33.8481955,20.6763838 32.9867615,19.9138967 31.2216762,18.9294323 L31.2216762,18.9294323 Z" id="Amazon-Glacier_Icon_32_Squid" fill="#FFFFFF"></path>
    </g>
</svg>