<?xml version="1.0" encoding="UTF-8"?>
<svg width="40px" height="40px" viewBox="0 0 40 40" version="1.1" xmlns="http://www.w3.org/2000/svg" xmlns:xlink="http://www.w3.org/1999/xlink">
    <!-- Generator: Sketch 64 (93537) - https://sketch.com -->
    <title>Icon-Architecture/32/Arch_Amazon-FSx-For-WFS_32</title>
    <desc>Created with Sketch.</desc>
    <defs>
        <linearGradient x1="0%" y1="100%" x2="100%" y2="0%" id="linearGradient-1">
            <stop stop-color="#1B660F" offset="0%"></stop>
            <stop stop-color="#6CAE3E" offset="100%"></stop>
        </linearGradient>
    </defs>
    <g id="Icon-Architecture/32/Arch_Amazon-FSx-For-WFS_32" stroke="none" stroke-width="1" fill="none" fill-rule="evenodd">
        <g id="Icon-Architecture-BG/32/Storage" fill="url(#linearGradient-1)">
            <rect id="Rectangle" x="0" y="0" width="40" height="40"></rect>
        </g>
        <path d="M33,25 L27,25 L27,25.5 C27,25.776 27.225,26 27.5,26 L32.5,26 C32.775,26 33,25.776 33,25.5 L33,25 Z M28,24 L32,24 L32,21 L28,21 L28,24 Z M34,24.5 L34,25.5 C34,26.327 33.327,27 32.5,27 L27.5,27 C26.673,27 26,26.327 26,25.5 L26,24.5 C26,24.224 26.224,24 26.5,24 L27,24 L27,20.5 C27,20.224 27.224,20 27.5,20 L32.5,20 C32.776,20 33,20.224 33,20.5 L33,24 L33.5,24 C33.776,24 34,24.224 34,24.5 L34,24.5 Z M17.414,19.773 L15.75,19.112 C15.2,18.897 14.777,18.695 14.482,18.507 C14.188,18.319 13.975,18.109 13.845,17.878 C13.715,17.647 13.65,17.344 13.65,16.967 C13.65,16.301 13.863,15.787 14.288,15.427 C14.713,15.067 15.324,14.887 16.123,14.887 C16.941,14.887 17.88,15.081 18.937,15.467 L18.937,14.645 C18.491,14.441 18.018,14.282 17.515,14.169 C17.012,14.057 16.532,14 16.076,14 C15.07,14 14.26,14.277 13.643,14.831 C13.025,15.384 12.718,16.107 12.718,16.999 C12.718,17.655 12.904,18.206 13.277,18.652 C13.65,19.099 14.236,19.482 15.034,19.805 L16.838,20.531 C17.46,20.778 17.911,21.058 18.191,21.369 C18.471,21.681 18.611,22.057 18.611,22.498 C18.611,23.218 18.354,23.788 17.841,24.207 C17.328,24.626 16.642,24.836 15.781,24.836 C14.868,24.836 13.868,24.632 12.779,24.224 L12.779,25.046 C13.682,25.497 14.708,25.723 15.858,25.723 C16.968,25.723 17.861,25.428 18.541,24.836 C19.22,24.245 19.56,23.471 19.56,22.514 C19.56,21.858 19.389,21.313 19.046,20.877 C18.704,20.442 18.16,20.074 17.414,19.773 L17.414,19.773 Z M20.077,25.509 L21.329,25.509 L23.417,22.346 L22.854,21.52 L20.077,25.509 Z M6,25.449 L6.917,25.449 L6.917,20.257 L11.256,20.257 L11.256,19.402 L6.917,19.402 L6.917,15.129 L12.049,15.129 L12.049,14.274 L6,14.274 L6,25.449 Z M23.496,19.067 L21.658,16.346 L20.354,16.346 L22.838,19.976 L23.496,19.067 Z M26.21,23 L25,23 L23.389,20.751 L26.383,16.346 L27.617,16.346 L24.629,20.667 L26.21,23 Z" id="Amazon-FSx-for-WFS_Icon_32_Squid" fill="#FFFFFF"></path>
    </g>
</svg>