<?xml version="1.0" encoding="UTF-8"?>
<svg width="40px" height="40px" viewBox="0 0 40 40" version="1.1" xmlns="http://www.w3.org/2000/svg" xmlns:xlink="http://www.w3.org/1999/xlink">
    <!-- Generator: Sketch 64 (93537) - https://sketch.com -->
    <title>Icon-Architecture/32/Arch_AWS-Storage-Gateway_32</title>
    <desc>Created with Sketch.</desc>
    <defs>
        <linearGradient x1="0%" y1="100%" x2="100%" y2="0%" id="linearGradient-1">
            <stop stop-color="#1B660F" offset="0%"></stop>
            <stop stop-color="#6CAE3E" offset="100%"></stop>
        </linearGradient>
    </defs>
    <g id="Icon-Architecture/32/Arch_AWS-Storage-Gateway_32" stroke="none" stroke-width="1" fill="none" fill-rule="evenodd">
        <g id="Icon-Architecture-BG/32/Storage" fill="url(#linearGradient-1)">
            <rect id="Rectangle" x="0" y="0" width="40" height="40"></rect>
        </g>
        <path d="M27,19.1049143 C25.212,17.7816401 22.616,16.9964775 20,16.9964775 C17.083,16.9964775 14.669,17.7186271 13,19.088911 L13,32.9997928 L15,32.9997928 L15,20.4972027 C15,20.320166 15.094,20.1561321 15.246,20.0661134 L15.475,19.9300852 C16.644,19.233941 17.853,18.514792 20,18.514792 C21.874,18.514792 23.135,19.1949329 24.247,19.7950573 L24.73,20.0531107 C24.896,20.1391285 25,20.310164 25,20.4972027 L25,32.9997928 L27,32.9997928 L27,19.1049143 Z M27.81,18.4647817 C27.93,18.5598014 28,18.7048314 28,18.8578631 L28,33.4998964 C28,33.7759536 27.776,34 27.5,34 L24.5,34 C24.224,34 24,33.7759536 24,33.4998964 L24,20.7972649 L23.772,20.6752396 C22.715,20.1051215 21.622,19.5149992 20,19.5149992 C18.136,19.5149992 17.144,20.1011207 16,20.7812616 L16,33.4998964 C16,33.7759536 15.776,34 15.5,34 L12.5,34 C12.224,34 12,33.7759536 12,33.4998964 L12,18.8578631 C12,18.7138333 12.062,18.5768049 12.171,18.480785 C14.029,16.8554483 16.736,15.9962703 20,15.9962703 C22.928,15.9962703 25.848,16.9184613 27.81,18.4647817 L27.81,18.4647817 Z M34,18.2227315 C34,20.9893047 32.473,22.6836557 29.698,22.9947201 L29.587,22.0005141 C31.884,21.7434609 33,20.508205 33,18.2227315 C33,16.0282769 31.661,14.6519918 29.021,14.1298836 C28.799,14.0858745 28.634,13.8978356 28.619,13.6707885 C28.481,11.5233437 27.175,10.7611858 26.098,10.7611858 C25.359,10.7611858 24.67,11.0982556 24.205,11.6853772 C24.095,11.8254062 23.912,11.8944205 23.736,11.8684151 C23.559,11.8404093 23.409,11.7193843 23.346,11.5503492 C22.944,10.4821279 22.335,9.54693421 21.583,8.84578896 C20.641,7.962606 18.054,6.07021396 14.401,7.51051234 C12.305,8.34168453 10.662,10.7211775 10.662,12.9276346 C10.662,13.1766862 10.677,13.4147355 10.708,13.6527848 C10.711,13.6747894 10.713,13.6977941 10.713,13.7207989 C10.713,13.9738513 10.525,14.184895 10.281,14.2189021 C9.033,14.5289663 7,15.4531578 7,18.1797226 C7,18.2837442 7.006,18.3827647 7.011,18.4827854 C7.117,20.3361693 8.459,21.7174555 10.429,22.0025146 L10.286,22.9917195 C7.825,22.6366459 6.147,20.8892839 6.013,18.5397972 C6.006,18.4187721 6,18.3027481 6,18.1797226 C6,14.9670571 8.313,13.7738099 9.675,13.3507222 C9.667,13.2156942 9.662,13.0736648 9.662,12.9276346 C9.662,10.2960894 11.541,7.56752415 14.033,6.58131984 C16.937,5.43308197 20.013,6.00720091 22.266,8.11463749 C22.959,8.76177155 23.545,9.57694043 23.984,10.4991315 C24.581,10.024033 25.32,9.76097855 26.098,9.76097855 C27.647,9.76097855 29.279,10.8372015 29.581,13.2286969 C32.435,13.904837 34,15.6672021 34,18.2227315 L34,18.2227315 Z" id="AWS-Storage-Gateway_Icon_32_Squid" fill="#FFFFFF"></path>
    </g>
</svg>