<?xml version="1.0" encoding="UTF-8"?>
<svg width="40px" height="40px" viewBox="0 0 40 40" version="1.1" xmlns="http://www.w3.org/2000/svg" xmlns:xlink="http://www.w3.org/1999/xlink">
    <!-- Generator: Sketch 64 (93537) - https://sketch.com -->
    <title>Icon-Architecture/32/Arch_AWS-Backup_32</title>
    <desc>Created with Sketch.</desc>
    <defs>
        <linearGradient x1="0%" y1="100%" x2="100%" y2="0%" id="linearGradient-1">
            <stop stop-color="#1B660F" offset="0%"></stop>
            <stop stop-color="#6CAE3E" offset="100%"></stop>
        </linearGradient>
    </defs>
    <g id="Icon-Architecture/32/Arch_AWS-Backup_32" stroke="none" stroke-width="1" fill="none" fill-rule="evenodd">
        <g id="Icon-Architecture-BG/32/Storage" fill="url(#linearGradient-1)">
            <rect id="Rectangle" x="0" y="0" width="40" height="40"></rect>
        </g>
        <path d="M26.3206337,20.6623073 C26.5304413,22.1032299 26.1678612,23.5390646 25.2960392,24.705235 C24.2266315,26.1380168 22.5817805,26.895114 20.9165598,26.895114 C19.784006,26.8961293 18.6412674,26.5450571 17.6645417,25.8174726 C16.3262542,24.8212415 15.5929461,23.5573814 15.4829498,22.0604907 L16.4993965,21.9862059 C16.5849491,23.1757811 17.1817805,24.190329 18.2735949,25.0023744 C20.2351943,26.463649 23.0197284,26.0555912 24.4792154,24.0967098 C25.18808,23.1483059 25.4844587,21.9801003 25.3133535,20.8098594 C25.1422482,19.638601 24.5240287,18.6037011 23.574802,17.8964685 C22.5003018,17.0966344 20.902301,16.8432518 19.5110524,17.2563977 C18.5221049,17.5494667 17.7450019,18.1590095 17.2408525,18.9863189 L18.9824594,18.9842837 L18.9844964,20.0018844 L16.4158808,20.0049372 L16.4148623,20.0049372 C16.2804225,20.0049372 16.1510751,19.9510044 16.0553376,19.8553499 C15.9596002,19.7596955 15.9056205,19.6304602 15.9056205,19.4961369 L15.9056205,16.9348359 L16.9241041,16.9348359 L16.9241041,17.7010892 C17.5250094,17.0427015 18.3031309,16.552218 19.2218031,16.2805186 C20.9135043,15.7808766 22.860845,16.0953153 24.1828367,17.0803528 C25.3510373,17.9493838 26.1098076,19.2224023 26.3206337,20.6623073 M26.9133912,29.3485471 C26.7117314,29.3485471 26.523312,29.3688991 26.3440588,29.4014623 L24.998642,27.3113104 L24.1410788,27.8618324 L25.3968691,29.8115554 C24.9894757,30.1219236 24.718559,30.5767912 24.6248585,31.165982 L16.3975481,31.165982 C16.3038476,30.5767912 16.0319125,30.120906 15.624519,29.8105378 L16.8752169,27.8608148 L16.0176537,27.312328 L14.6773293,29.4014623 C14.4990947,29.3688991 14.3106752,29.3485471 14.1090155,29.3485471 C14.0010562,29.3485471 13.9053187,29.3627935 13.8044889,29.3719519 L10.5310826,19.5266649 C10.7775556,19.4025176 10.9863448,19.2366487 11.1554131,19.0300758 L13.640513,20.431312 L14.1416069,19.5449817 L11.5852131,18.1040591 C11.626971,17.905627 11.656507,17.6970188 11.656507,17.4680586 C11.656507,17.0773 11.5882686,16.7323333 11.4680875,16.4311235 L19.0751415,11.3787359 C19.3399472,11.556816 19.6485477,11.6819809 20.0019615,11.7410018 L20.0019615,13.8820337 L21.0204451,13.8820337 L21.0204451,11.7410018 C21.3738589,11.6819809 21.6824594,11.556816 21.9472652,11.3787359 L29.5431158,16.4240003 C29.4168238,16.7282629 29.3445115,17.0762824 29.3445115,17.4680586 C29.3445115,17.6858252 29.3679366,17.8852749 29.4035836,18.0745487 L26.8746888,19.5480345 L27.3880045,20.4282591 L29.8170879,19.0127765 C30.0880045,19.3597784 30.4740098,19.5958618 30.9639004,19.7088154 L27.2342135,29.3760223 C27.1293097,29.3638111 27.0254244,29.3485471 26.9133912,29.3485471 M26.9133912,32.9823993 C26.055828,32.9823993 25.6036213,32.5305846 25.6036213,31.6747823 C25.6036213,30.7823465 26.0191626,30.3661478 26.9133912,30.3661478 C27.7699359,30.3661478 28.2221426,30.8179625 28.2221426,31.6747823 C28.2221426,32.5305846 27.7699359,32.9823993 26.9133912,32.9823993 M14.1090155,32.9823993 C13.2280272,32.9823993 12.8002641,32.555007 12.8002641,31.6747823 C12.8002641,30.7823465 13.2158054,30.3661478 14.1090155,30.3661478 C15.0032441,30.3661478 15.4187854,30.7823465 15.4187854,31.6747823 C15.4187854,32.5672182 15.0032441,32.9823993 14.1090155,32.9823993 M8.01848359,17.4680586 C8.01848359,16.5756228 8.4340249,16.1604417 9.32825349,16.1604417 C10.2214636,16.1604417 10.6380234,16.5756228 10.6380234,17.4680586 C10.6380234,18.3727057 10.2336854,18.7766932 9.32825349,18.7766932 C8.41059977,18.7766932 8.01848359,18.3859345 8.01848359,17.4680586 M20.5112033,8.01760072 C21.4115428,8.01760072 21.8871747,8.49383786 21.8871747,9.3933969 C21.8871747,10.2919383 21.4115428,10.7661403 20.5112033,10.7661403 C19.6241041,10.7661403 19.1342135,10.2787095 19.1342135,9.3933969 C19.1342135,8.49383786 19.6108638,8.01760072 20.5112033,8.01760072 M31.672765,16.1604417 C32.5659751,16.1604417 32.9815164,16.5756228 32.9815164,17.4680586 C32.9815164,18.3604945 32.5659751,18.7766932 31.672765,18.7766932 C30.7551113,18.7766932 30.3629951,18.3859345 30.3629951,17.4680586 C30.3629951,16.587834 30.7917767,16.1604417 31.672765,16.1604417 M34,17.4680586 C34,16.011872 33.130215,15.142841 31.672765,15.142841 C31.0576009,15.142841 30.5503961,15.3148155 30.1613353,15.6139901 L22.6225198,10.606377 C22.8007544,10.2614103 22.9056582,9.85742283 22.9056582,9.3933969 C22.9056582,7.93924547 21.9666164,7 20.5112033,7 C19.0557903,7 18.1157299,7.93924547 18.1157299,9.3933969 C18.1157299,9.85742283 18.2216522,10.2614103 18.3998868,10.606377 L10.8569974,15.6160253 C10.4699736,15.3137979 9.95869483,15.142841 9.32825349,15.142841 C7.87080347,15.142841 7,16.011872 7,17.4680586 C7,18.9466325 7.84839683,19.7942939 9.32825349,19.7942939 C9.40362127,19.7942939 9.46982271,19.7820827 9.54111656,19.7780123 L12.8247077,29.6558625 C12.1596379,30.0272868 11.7817805,30.7223081 11.7817805,31.6747823 C11.7817805,33.1085818 12.6739721,34 14.1090155,34 C15.3882309,34 16.214221,33.3304187 16.3975481,32.1835827 L24.625877,32.1835827 C24.815315,33.3171899 25.6555639,34 26.9133912,34 C28.3484346,34 29.2406262,33.1085818 29.2406262,31.6747823 C29.2406262,30.7640297 28.8566579,30.0659556 28.2089023,29.6813025 L32.0322897,19.7668187 C33.2677103,19.6304602 34,18.7980628 34,17.4680586" id="AWS-Backup_Icon_32_Squid" fill="#FFFFFF"></path>
    </g>
</svg>