<?xml version="1.0" encoding="UTF-8"?>
<svg width="64px" height="64px" viewBox="0 0 64 64" version="1.1" xmlns="http://www.w3.org/2000/svg" xmlns:xlink="http://www.w3.org/1999/xlink">
    <!-- Generator: Sketch 64 (93537) - https://sketch.com -->
    <title>Icon-Architecture/48/Arch_AWS-Cost-and-Usage-Report_48</title>
    <desc>Created with Sketch.</desc>
    <defs>
        <linearGradient x1="0%" y1="100%" x2="100%" y2="0%" id="linearGradient-1">
            <stop stop-color="#1B660F" offset="0%"></stop>
            <stop stop-color="#6CAE3E" offset="100%"></stop>
        </linearGradient>
    </defs>
    <g id="Icon-Architecture/48/Arch_AWS-Cost-and-Usage-Report_48" stroke="none" stroke-width="1" fill="none" fill-rule="evenodd">
        <g id="Icon-Architecture-BG/48/AWS-Cost-Management" fill="url(#linearGradient-1)">
            <rect id="Rectangle" x="0" y="0" width="64" height="64"></rect>
        </g>
        <path d="M35,32 L41,32 L41,30 L35,30 L35,32 Z M47,32 L51,32 L51,30 L47,30 L47,32 Z M35,28 L45,28 L45,26 L35,26 L35,28 Z M14,51 C12.898,51 12,50.103 12,49 C12,47.897 12.898,47 14,47 C15.103,47 16,47.897 16,49 C16,50.103 15.103,51 14,51 L14,51 Z M14,40 C12.898,40 12,39.103 12,38 C12,36.901 12.898,36.007 14,36.007 C15.103,36.007 16,36.901 16,38 C16,39.103 15.103,40 14,40 L14,40 Z M14,29 C12.898,29 12,28.103 12,27 C12,25.897 12.898,25 14,25 C15.103,25 16,25.897 16,27 C16,28.103 15.103,29 14,29 L14,29 Z M14,18 C12.953,18 12,17.047 12,16 C12,14.953 12.953,14 14,14 C15.047,14 16,14.953 16,16 C16,17.047 15.047,18 14,18 L14,18 Z M42,39 L42,37 L25,37 L25,16 C25,15.448 24.553,15 24,15 L17.852,15 C17.393,13.3 15.823,12 14,12 C11.832,12 10,13.832 10,16 C10,18.168 11.832,20 14,20 C15.823,20 17.393,18.7 17.852,17 L23,17 L23,26 L17.858,26 C17.411,24.28 15.859,23 14,23 C11.794,23 10,24.794 10,27 C10,29.206 11.794,31 14,31 C15.859,31 17.411,29.72 17.858,28 L23,28 L23,37 L17.858,37 C17.41,35.284 15.859,34.007 14,34.007 C11.794,34.007 10,35.798 10,38 C10,40.206 11.794,42 14,42 C15.859,42 17.411,40.72 17.858,39 L23,39 L23,48 L17.858,48 C17.411,46.28 15.859,45 14,45 C11.794,45 10,46.794 10,49 C10,51.206 11.794,53 14,53 C15.859,53 17.411,51.72 17.858,50 L24,50 C24.553,50 25,49.552 25,49 L25,39 L42,39 Z M45,39 L51,39 L51,37 L45,37 L45,39 Z M47,28 L51,28 L51,26 L47,26 L47,28 Z M47,22 L47,18.414 L50.586,22 L47,22 Z M53.989,22.938 C53.983,22.85 53.965,22.764 53.936,22.679 C53.926,22.647 53.917,22.617 53.904,22.586 C53.855,22.48 53.793,22.379 53.707,22.293 L46.707,15.293 C46.621,15.207 46.521,15.146 46.414,15.098 C46.384,15.083 46.352,15.075 46.32,15.063 C46.237,15.035 46.153,15.011 46.065,15.005 C46.042,15.004 46.023,15 46,15 L32,15 C31.448,15 31,15.448 31,16 L31,35 L33,35 L33,17 L45,17 L45,23 C45,23.552 45.448,24 46,24 L52,24 L52,48 L33,48 L33,41 L31,41 L31,49 C31,49.552 31.448,50 32,50 L53,50 C53.553,50 54,49.552 54,49 L54,23 C54,22.979 53.99,22.959 53.989,22.938 L53.989,22.938 Z" id="AWS-Cost-and-Usage-Report_Icon_48_Squid" fill="#FFFFFF"></path>
    </g>
</svg>