<?xml version="1.0" encoding="UTF-8"?>
<svg width="64px" height="64px" viewBox="0 0 64 64" version="1.1" xmlns="http://www.w3.org/2000/svg" xmlns:xlink="http://www.w3.org/1999/xlink">
    <title>Icon-Architecture/48/Arch_Savings-Plans_48</title>
    <defs>
        <linearGradient x1="0%" y1="100%" x2="100%" y2="0%" id="linearGradient-1">
            <stop stop-color="#1B660F" offset="0%"></stop>
            <stop stop-color="#6CAE3E" offset="100%"></stop>
        </linearGradient>
    </defs>
    <g id="Icon-Architecture/48/Arch_Savings-Plans_48" stroke="none" stroke-width="1" fill="none" fill-rule="evenodd">
        <g id="Rectangle" fill="url(#linearGradient-1)">
            <rect x="0" y="0" width="64" height="64"></rect>
        </g>
        <g id="Icon-Service/48/AWS-Savings-Plans_48" transform="translate(8.000000, 8.000000)" fill="#FFFFFF">
            <path d="M46,28.388 L40.967,30.905 C40.837,30.97 40.699,31 40.564,31 C40.233,31 39.914,30.817 39.756,30.501 L37.24,25.467 L38.854,24.66 L40.241,27.437 C40.802,25.665 41.097,23.822 41.097,21.931 C41.097,12.047 33.226,4.006 23.551,4.006 C13.876,4.006 6.005,12.047 6.005,21.931 C6.005,24.354 6.471,26.703 7.387,28.914 L5.534,29.683 C4.516,27.227 4,24.619 4,21.931 C4,10.941 12.771,2 23.551,2 C34.331,2 43.102,10.941 43.102,21.931 C43.102,24.138 42.732,26.287 42.044,28.348 L45.193,26.773 L46,28.388 Z M23,44 C16.076,44 11.775,40.249 11.775,34.212 C11.775,27.849 16.745,24.261 18.378,23.082 C18.417,23.054 18.455,23.026 18.49,23 L27.51,23 C27.545,23.026 27.583,23.054 27.622,23.082 C29.255,24.261 34.225,27.849 34.225,34.212 C34.225,40.249 29.924,44 23,44 L23,44 Z M28.793,21.46 C28.65,21.357 28.538,21.277 28.463,21.218 C28.286,21.077 28.067,21 27.841,21 L18.159,21 C17.933,21 17.714,21.077 17.537,21.218 C17.462,21.277 17.35,21.357 17.207,21.46 C12.275,25.021 9.775,29.311 9.775,34.212 C9.775,41.373 14.967,46 23,46 C31.033,46 36.225,41.373 36.225,34.212 C36.225,29.311 33.725,25.021 28.793,21.46 L28.793,21.46 Z M35,17 L37,17 C37,18.488 35.977,19.769 34.511,20.115 C34.271,20.172 34.032,20.2 33.799,20.2 C32.674,20.2 31.662,19.559 31.105,18.448 C31.077,18.391 31.053,18.352 31.034,18.326 C30.736,18.424 30.116,19.005 29.712,19.576 C29.524,19.841 29.219,20 28.895,20 L17,20 L17,18 L28.399,18 C28.969,17.303 30.04,16.223 31.232,16.318 C31.638,16.348 32.393,16.549 32.895,17.553 C33.223,18.21 33.701,18.25 34.052,18.169 C34.508,18.061 35,17.649 35,17 L35,17 Z M25.245,36.855 C25.245,37.721 24.732,38.464 24,38.803 L24,35.041 C24.686,35.388 25.245,35.974 25.245,36.855 L25.245,36.855 Z M21,30.564 C21,29.799 21.401,29.131 22,28.751 L22,32.25 C21.425,31.892 21,31.346 21,30.564 L21,30.564 Z M25.245,30.564 L27.245,30.564 C27.245,28.582 25.852,26.924 24,26.518 L24,25 L22,25 L22,26.595 C20.274,27.09 19,28.673 19,30.564 C19,32.342 20.175,33.81 22,34.445 L22,38.668 C21.401,38.288 21,37.62 21,36.855 L19,36.855 C19,38.746 20.274,40.329 22,40.825 L22,43 L24,43 L24,40.901 C25.852,40.495 27.245,38.837 27.245,36.855 C27.245,34.997 25.965,33.48 24,32.896 L24,28.616 C24.732,28.954 25.245,29.698 25.245,30.564 L25.245,30.564 Z M19.676,13.517 C19.927,13.604 20.201,13.587 20.44,13.47 C20.574,13.404 20.646,13.368 23.005,11.321 L25.35,13.331 C25.618,13.561 25.99,13.635 26.324,13.517 L28.792,12.672 L27.441,15 L18.574,15 L17.218,12.675 L19.676,13.517 Z M18,17 L28.018,17 C28.374,17 28.704,16.81 28.883,16.502 L31.865,11.359 C32.074,10.998 32.037,10.545 31.772,10.222 C31.508,9.9 31.071,9.775 30.676,9.911 L26.217,11.44 L23.65,9.241 C23.274,8.917 22.718,8.92 22.344,9.246 C21.396,10.07 20.351,10.974 19.796,11.445 L15.324,9.911 C14.929,9.775 14.491,9.9 14.227,10.223 C13.962,10.547 13.926,11 14.136,11.361 L17.136,16.504 C17.315,16.811 17.645,17 18,17 L18,17 Z" id="AWS-Savings-Plans_48_Squid"></path>
        </g>
    </g>
</svg>