<?xml version="1.0" encoding="UTF-8"?>
<svg width="80px" height="80px" viewBox="0 0 80 80" version="1.1" xmlns="http://www.w3.org/2000/svg" xmlns:xlink="http://www.w3.org/1999/xlink">
    <title>Icon-Architecture/64/Arch_AWS-Console-Mobile-Application _64</title>
    <defs>
        <linearGradient x1="0%" y1="100%" x2="100%" y2="0%" id="linearGradient-1">
            <stop stop-color="#B0084D" offset="0%"></stop>
            <stop stop-color="#FF4F8B" offset="100%"></stop>
        </linearGradient>
    </defs>
    <g id="Icon-Architecture/64/Arch_AWS-Console-Mobile-Application-_64" stroke="none" stroke-width="1" fill="none" fill-rule="evenodd">
        <g id="Rectangle" fill="url(#linearGradient-1)">
            <rect x="0" y="0" width="80" height="80"></rect>
        </g>
        <g id="Icon-Service/64/AWS-Console-Mobile-Application_64" transform="translate(8.000000, 8.000000)" fill="#FFFFFF">
            <path d="M6,37.823 L30.442,37.823 L30.442,35.823 L6,35.823 L6,37.823 Z M14.452,31.92 L32.243,31.92 L32.243,29.92 L14.452,29.92 L14.452,31.92 Z M37.182,32.906 C37.668,32.782 37.987,32.317 37.928,31.818 C37.908,31.662 37.898,31.502 37.898,31.34 C37.898,29.939 38.896,28.376 40.123,27.857 C40.689,27.617 41.213,27.521 41.688,27.521 C43.04,27.521 43.995,28.296 44.412,28.715 C44.878,29.181 45.244,29.785 45.5,30.509 C45.623,30.858 45.929,31.11 46.295,31.165 C46.659,31.217 47.027,31.067 47.247,30.77 C47.504,30.421 47.897,30.269 48.272,30.382 C48.754,30.522 49.079,31.057 49.149,31.821 C49.122,32.322 49.474,32.774 49.979,32.861 C50.813,33.004 52.214,33.513 52.214,35.305 C52.214,37.416 50.35,37.702 50.064,37.735 L37.816,37.722 C36.492,37.721 35.407,36.721 35.345,35.439 L35.341,35.276 C35.341,33.705 36.342,33.12 37.182,32.906 L37.182,32.906 Z M37.814,39.722 L50.145,39.731 C51.552,39.617 54.214,38.545 54.214,35.305 C54.214,32.903 52.691,31.584 51.056,31.069 C50.73,29.544 49.737,28.726 48.834,28.462 C48.149,28.262 47.444,28.325 46.822,28.61 C46.541,28.121 46.209,27.684 45.828,27.303 C44.06,25.527 41.635,25.045 39.344,26.015 C37.41,26.834 35.945,29.064 35.899,31.236 C34.282,31.94 33.341,33.401 33.341,35.276 C33.341,35.368 33.344,35.459 33.348,35.542 C33.461,37.884 35.423,39.72 37.814,39.722 L37.814,39.722 Z M38.509,9.465 L40.588,9.465 L40.588,7.465 L38.509,7.465 L38.509,9.465 Z M41.975,9.465 L48.905,9.465 L48.905,7.465 L41.975,7.465 L41.975,9.465 Z M54.279,58.055 L33.134,58.055 C31.682,58.055 30.5,56.894 30.5,55.467 L30.5,53.818 L56.913,53.818 L56.913,55.467 C56.913,56.894 55.731,58.055 54.279,58.055 L54.279,58.055 Z M30.5,10.93 L30.5,9.653 C30.5,7.639 32.165,6 34.212,6 L53.201,6 C55.248,6 56.913,7.639 56.913,9.653 L56.913,10.93 L30.5,10.93 Z M58.913,9.649 C58.913,6.729 56.661,4.319 53.784,4.03 C53.593,4.01 53.398,4 53.201,4 L34.212,4 C31.062,4 28.5,6.536 28.5,9.653 L28.5,13.135 L28.5,26.763 L30.5,26.763 L30.5,13.135 L30.5,12.93 L56.913,12.93 L56.913,51.818 L30.5,51.818 L30.5,41.727 L28.5,41.727 L28.5,55.467 C28.5,57.997 30.579,60.055 33.134,60.055 L54.279,60.055 C56.834,60.055 58.913,57.997 58.913,55.467 L58.913,9.653 L58.913,9.649 Z" id="Fill-1"></path>
        </g>
    </g>
</svg>