<?xml version="1.0" encoding="UTF-8"?>
<svg width="80px" height="80px" viewBox="0 0 80 80" version="1.1" xmlns="http://www.w3.org/2000/svg" xmlns:xlink="http://www.w3.org/1999/xlink">
    <title>Icon-Architecture/64/Arch_CN-Pinwheel_64</title>
    <defs>
        <linearGradient x1="0%" y1="100%" x2="100%" y2="0%" id="linearGradient-1">
            <stop stop-color="#B0084D" offset="0%"></stop>
            <stop stop-color="#FF4F8B" offset="100%"></stop>
        </linearGradient>
    </defs>
    <g id="Icon-Architecture/64/Arch_CN-Pinwheel_64" stroke="none" stroke-width="1" fill="none" fill-rule="evenodd">
        <g id="Rectangle" fill="url(#linearGradient-1)">
            <rect x="0" y="0" width="80" height="80"></rect>
        </g>
        <g id="Icon-Service/64/CN-Pinwheel_64" transform="translate(8.000000, 8.000000)" fill="#FFFFFF">
            <path d="M53.084,52 C50.374,52 48.169,49.795 48.169,47.084 C48.169,44.374 50.374,42.168 53.084,42.168 C55.795,42.168 58,44.374 58,47.084 C58,49.795 55.795,52 53.084,52 L53.084,52 Z M53.084,40.168 C49.271,40.168 46.169,43.271 46.169,47.084 C46.169,50.897 49.271,54 53.084,54 C56.897,54 60,50.897 60,47.084 C60,43.271 56.897,40.168 53.084,40.168 L53.084,40.168 Z M53.084,37 C50.374,37 48.169,34.795 48.169,32.084 C48.169,29.374 50.374,27.168 53.084,27.168 C55.795,27.168 58,29.374 58,32.084 C58,34.795 55.795,37 53.084,37 L53.084,37 Z M53.084,25.168 C49.271,25.168 46.169,28.271 46.169,32.084 C46.169,35.897 49.271,39 53.084,39 C56.897,39 60,35.897 60,32.084 C60,28.271 56.897,25.168 53.084,25.168 L53.084,25.168 Z M53.084,21.832 C50.374,21.832 48.169,19.626 48.169,16.916 C48.169,14.205 50.374,12 53.084,12 C55.795,12 58,14.205 58,16.916 C58,19.626 55.795,21.832 53.084,21.832 L53.084,21.832 Z M53.084,10 C49.271,10 46.169,13.103 46.169,16.916 C46.169,20.729 49.271,23.832 53.084,23.832 C56.897,23.832 60,20.729 60,16.916 C60,13.103 56.897,10 53.084,10 L53.084,10 Z M60,4 L60,6 L42,6 L42,58 L60,58 L60,60 L41,60 C40.447,60 40,59.552 40,59 L40,33 L24.105,33 L24.105,31 L40,31 L40,5 C40,4.448 40.447,4 41,4 L60,4 Z M6,38.333 L6,25.667 L17.875,32 L6,38.333 Z M20.471,31.118 L5.471,23.118 C5.159,22.951 4.786,22.962 4.485,23.143 C4.185,23.323 4,23.649 4,24 L4,40 C4,40.351 4.185,40.677 4.485,40.857 C4.644,40.952 4.821,41 5,41 C5.161,41 5.323,40.961 5.471,40.882 L20.471,32.882 C20.797,32.708 21,32.369 21,32 C21,31.631 20.797,31.292 20.471,31.118 L20.471,31.118 Z M6,18 L18,18 L18,6 L6,6 L6,18 Z M5,20 L19,20 C19.553,20 20,19.552 20,19 L20,5 C20,4.448 19.553,4 19,4 L5,4 C4.447,4 4,4.448 4,5 L4,19 C4,19.552 4.447,20 5,20 L5,20 Z M12.258,58 C8.808,58 6,55.192 6,51.742 C6,48.291 8.808,45.484 12.258,45.484 C15.709,45.484 18.517,48.291 18.517,51.742 C18.517,55.192 15.709,58 12.258,58 L12.258,58 Z M12.258,43.484 C7.704,43.484 4,47.188 4,51.742 C4,56.295 7.704,60 12.258,60 C16.812,60 20.517,56.295 20.517,51.742 C20.517,47.188 16.812,43.484 12.258,43.484 L12.258,43.484 Z" id="Fill-1"></path>
        </g>
    </g>
</svg>