<svg version="1.1" baseProfile="tiny" id="Layer_1" xmlns="http://www.w3.org/2000/svg" xmlns:xlink="http://www.w3.org/1999/xlink"
	 x="0px" y="0px" width="24px" height="24px" viewBox="0 0 24 24" overflow="visible" xml:space="preserve">
<g >
	<rect y="0" fill="none" width="24" height="24"/>
	<g transform="translate(1.000000, 1.000000)">
		<path fill-rule="evenodd" fill="#5C85DE" d="M19.9,12.5l1.9,1.5c0.2,0.2,0.3,0.5,0.1,0.7l-2.2,3.9c-0.1,0.2-0.4,0.3-0.7,0.2
			l-2.2-0.9c-0.8,0.6-1.7,1.1-2.6,1.5l-0.3,2.4c0,0.3-0.3,0.5-0.6,0.5H8.7c-0.3,0-0.5-0.2-0.6-0.5l-0.3-2.4
			c-0.9-0.3-1.8-0.9-2.6-1.5l-2.2,0.9c-0.3,0.1-0.5,0-0.7-0.2l-2.2-3.9C0,14.4,0,14.1,0.3,14l1.9-1.5c-0.2-1-0.2-2,0-3L0.3,8
			C0,7.9,0,7.6,0.1,7.3l2.2-3.9c0.1-0.2,0.4-0.3,0.7-0.2l2.2,0.9C6,3.4,6.9,2.9,7.9,2.6l0.3-2.4c0-0.3,0.3-0.5,0.6-0.5h4.5
			c0.3,0,0.5,0.2,0.6,0.5l0.3,2.4c0.9,0.3,1.8,0.9,2.6,1.5l2.2-0.9c0.3-0.1,0.5,0,0.7,0.2l2.2,3.9C22,7.6,22,7.9,21.7,8l-1.9,1.5
			C20,10.5,20,11.5,19.9,12.5z M11,17c0.8,0,1.5-0.7,1.5-1.5h-3C9.5,16.3,10.2,17,11,17z M14.8,10.2c0-2.3-0.5-3.5-2.6-4V5.8
			c0-0.6-0.5-1.1-1.1-1.1S9.9,5.1,9.9,5.8v0.5c-2.2,0.5-2.6,1.7-2.6,4v2.2L5.8,14v0.8h10.5V14l-1.5-1.5V10.2z"/>
		<path fill-rule="evenodd" fill="#3367D6" d="M11,22.2V17c0.8,0,1.5-0.7,1.5-1.5H11v-0.8h5.2V14l-1.5-1.5v-2.2c0-2.3-0.5-3.5-2.6-4
			V5.8c0-0.6-0.5-1.1-1.1-1.1v-4.9h2.2c0.3,0,0.5,0.2,0.6,0.5l0.3,2.4c0.9,0.3,1.8,0.9,2.6,1.5l2.2-0.9c0.3-0.1,0.5,0,0.7,0.2
			l2.2,3.9C22,7.6,22,7.9,21.7,8l-1.9,1.5c0.2,1,0.2,2,0,3l1.9,1.5c0.2,0.2,0.3,0.5,0.1,0.7l-2.2,3.9c-0.1,0.2-0.4,0.3-0.7,0.2
			l-2.2-0.9c-0.8,0.6-1.7,1.1-2.6,1.5l-0.3,2.4c0,0.3-0.3,0.5-0.6,0.5H11z"/>
	</g>
</g>
</svg>
