<svg xmlns="http://www.w3.org/2000/svg" width="24px" height="24px" viewBox="0 0 24 24"><defs><style>.cls-1{fill:#4285f4;}.cls-2{fill:#669df6;}</style></defs><title>Icon_24px_TPU_Color</title><g data-name="Product Icons"><g data-name="colored-32/TPU"><g ><path class="cls-1" d="M6.48,9.62a.37.37,0,1,1-.05-.74l2.3-.32a.37.37,0,0,1,.42.32.38.38,0,0,1-.32.43l-2.3.31Z"/><rect class="cls-1" x="11.11" y="7.43" width="0.75" height="4.36" transform="translate(-1.21 17.55) rotate(-71.93)"/><path id="Shape-2" data-name="Shape" class="cls-1" d="M9.18,9.16H9.07a.37.37,0,0,1-.24-.46l.83-2.84a.37.37,0,0,1,.46-.24.36.36,0,0,1,.26.45L9.54,8.88A.38.38,0,0,1,9.18,9.16Z"/><path id="Shape-3" data-name="Shape" class="cls-1" d="M14.31,10.56a.36.36,0,0,1-.31-.17A.36.36,0,0,1,14,10l1.67-4.23a.38.38,0,0,1,.47-.18.38.38,0,0,1,.23.45l-1.68,4.24A.39.39,0,0,1,14.31,10.56Z"/><rect id="Rectangle-path-2" data-name="Rectangle-path" class="cls-1" x="5.35" y="14.95" width="5.03" height="0.75" transform="translate(-7.84 8.26) rotate(-38.61)"/><polygon id="Rectangle-path-3" data-name="Rectangle-path" class="cls-1" points="14.12 10.71 14.41 10.02 18.05 11.61 17.75 12.29 14.12 10.71"/><polygon id="Rectangle-path-4" data-name="Rectangle-path" class="cls-1" points="13.99 14.59 14.51 14.04 17.74 17.09 17.22 17.63 13.99 14.59"/><rect id="Rectangle-path-5" data-name="Rectangle-path" class="cls-1" x="9.18" y="9" width="0.75" height="4.06" transform="translate(-2 2.12) rotate(-11.48)"/><polygon id="Rectangle-path-6" data-name="Rectangle-path" class="cls-1" points="9.96 13.6 14.06 10 14.56 10.56 10.46 14.16 9.96 13.6"/><polygon id="Rectangle-path-7" data-name="Rectangle-path" class="cls-1" points="13.75 14.22 13.99 10.25 14.74 10.3 14.49 14.27 13.75 14.22"/><circle id="Oval" class="cls-1" cx="10.01" cy="13.82" r="1.36"/><circle id="Oval-2" data-name="Oval" class="cls-1" cx="14.37" cy="10.36" r="1.61"/><circle id="Oval-3" data-name="Oval" class="cls-1" cx="14.36" cy="14.54" r="0.84"/><circle id="Oval-4" data-name="Oval" class="cls-1" cx="9.04" cy="8.67" r="0.99"/></g></g><polygon class="cls-2" points="13 3 11 3 11 7 13 7 13 3 13 3"/><polygon class="cls-2" points="17 3 15 3 15 7 17 7 17 3 17 3"/><polygon class="cls-2" points="9 3 7 3 7 7 9 7 9 3 9 3"/><polygon class="cls-2" points="13 17 11 17 11 21 13 21 13 17 13 17"/><polygon class="cls-2" points="17 17 15 17 15 21 17 21 17 17 17 17"/><polygon class="cls-2" points="9 17 7 17 7 21 9 21 9 17 9 17"/><polygon class="cls-2" points="7 11 3 11 3 13 7 13 7 11 7 11"/><polygon class="cls-2" points="7 7 3 7 3 9 7 9 7 7 7 7"/><polygon class="cls-2" points="7 15 3 15 3 17 7 17 7 15 7 15"/><polygon class="cls-2" points="21 11 17 11 17 13 21 13 21 11 21 11"/><polygon class="cls-2" points="21 7 17 7 17 9 21 9 21 7 21 7"/><polygon class="cls-2" points="21 15 17 15 17 17 21 17 21 15 21 15"/><path class="cls-2" d="M18,5H6A1,1,0,0,0,5,6V18a1,1,0,0,0,1,1H18a1,1,0,0,0,1-1V6A1,1,0,0,0,18,5ZM17,16.47a.53.53,0,0,1-.53.53H7.53A.53.53,0,0,1,7,16.47V7.53A.53.53,0,0,1,7.53,7h8.94a.53.53,0,0,1,.53.53Z"/></g></svg>