<svg width="24px" height="24px" viewBox="0 0 24 24" version="1.1" xmlns="http://www.w3.org/2000/svg" xmlns:xlink="http://www.w3.org/1999/xlink">
    <g stroke="none" stroke-width="1" fill="none" fill-rule="evenodd">
        <g transform="translate(2.000000, 6.000000)" fill="#4285F4" fill-rule="nonzero">
            <path d="M20,9.41469125e-14 L20,11.8867925 L16.0377358,11.8867925 C15.9335312,11.8867925 15.8490566,11.8023179 15.8490566,11.6981132 L15.8490566,10.5660377 C15.8490566,10.4618331 15.9335312,10.3773585 16.0377358,10.3773585 L18.4900566,10.377 L18.4900566,1.509 L16.0377358,1.50943396 C15.9335312,1.50943396 15.8490566,1.42495939 15.8490566,1.32075472 L15.8490566,0.188679245 C15.8490566,0.0844745755 15.9335312,9.41105434e-14 16.0377358,9.41469125e-14 L20,9.41469125e-14 Z M4.309101,9.41469125e-14 C4.41330567,9.3877869e-14 4.49778024,0.0844745755 4.49778024,0.188679245 L4.49778024,1.32075472 C4.49778024,1.42495939 4.41330567,1.50943396 4.309101,1.50943396 L1.509,1.509 L1.509,10.377 L4.29245283,10.3773585 C4.3966575,10.3773585 4.48113208,10.4618331 4.48113208,10.5660377 L4.48113208,11.6981132 C4.48113208,11.8023179 4.3966575,11.8867925 4.29245283,11.8867925 L2.14050999e-13,11.8867925 L2.14050999e-13,9.41469125e-14 L4.309101,9.41469125e-14 Z M15.4271098,3.86792453 L15.4271098,5.3240566 L15.4879305,5.34852941 L16.8381494,4.87130966 L17.1179245,5.69114872 L15.7555414,6.15613208 L15.719049,6.25402331 L16.6556874,7.51437292 L15.9501676,8.02830189 L15.0378575,6.76795228 L14.9527085,6.76795228 L14.0403984,8.02830189 L13.3348786,7.51437292 L14.2593529,6.25402331 L14.2350246,6.15613208 L12.8726415,5.69114872 L13.1524166,4.87130966 L14.4904714,5.34852941 L14.5634562,5.3240566 L14.5634562,3.86792453 L15.4271098,3.86792453 Z M5.19597773,3.86792453 L5.19597773,5.30963945 L5.2567984,5.33386996 L6.60701735,4.86137515 L6.88679245,5.673097 L5.52440936,6.13347656 L5.48791696,6.23039857 L6.42455533,7.47826947 L5.71903552,7.98711003 L4.80672541,6.73923913 L4.72157647,6.73923913 L3.80926637,7.98711003 L3.10374655,7.47826947 L4.02822079,6.23039857 L4.00389252,6.13347656 L2.64150943,5.673097 L2.92128453,4.86137515 L4.25933935,5.33386996 L4.33232416,5.30963945 L4.33232416,3.86792453 L5.19597773,3.86792453 Z M10.2903173,3.86792453 L10.2903173,5.30963945 L10.351138,5.33386996 L11.701357,4.86137515 L11.9811321,5.673097 L10.618749,6.13347656 L10.5822566,6.23039857 L11.518895,7.47826947 L10.8133751,7.98711003 L9.90106504,6.73923913 L9.81591609,6.73923913 L8.90360599,7.98711003 L8.19808618,7.47826947 L9.12256042,6.23039857 L9.09823215,6.13347656 L7.73584906,5.673097 L8.01562416,4.86137515 L9.35367897,5.33386996 L9.42666378,5.30963945 L9.42666378,3.86792453 L10.2903173,3.86792453 Z" ></path>
        </g>
    </g>
</svg>