<svg id="Artwork" xmlns="http://www.w3.org/2000/svg" width="24px" height="24px" viewBox="0 0 24 24"><polygon points="16.38 5.77 11.29 18.22 12.71 5.77 16.38 5.77" style="fill:#669df6;fill-rule:evenodd"/><polygon points="12.71 5.77 11.29 18.22 7.62 18.22 12.71 5.77" style="fill:#aecbfa;fill-rule:evenodd"/><path d="M3.71,14.65,2.25,18.22H4.82l.41-3.57Z" style="fill:#aecbfa;fill-rule:evenodd"/><polygon points="5.83 9.49 5.42 13.07 4.35 13.07 5.83 9.49" style="fill:#aecbfa;fill-rule:evenodd"/><polygon points="9.48 9.49 9.47 9.52 8.02 13.07 5.42 13.07 5.83 9.49 9.48 9.49" style="fill:#669df6;fill-rule:evenodd"/><polygon points="21.75 5.77 16.65 18.23 18.08 5.77 21.75 5.77" style="fill:#669df6;fill-rule:evenodd"/><polygon points="18.08 5.77 16.65 18.23 12.98 18.23 18.08 5.77" style="fill:#aecbfa;fill-rule:evenodd"/><polygon points="7.38 14.65 5.91 18.22 4.82 18.22 5.23 14.65 7.38 14.65" style="fill:#669df6;fill-rule:evenodd"/></svg>