<?xml version="1.0" encoding="UTF-8"?>
<svg width="40px" height="40px" viewBox="0 0 40 40" version="1.1" xmlns="http://www.w3.org/2000/svg" xmlns:xlink="http://www.w3.org/1999/xlink">
    <!-- Generator: Sketch 64 (93537) - https://sketch.com -->
    <title>Icon-Architecture/32/Arch_AWS-Personal-Health-Dashboard_32</title>
    <desc>Created with Sketch.</desc>
    <defs>
        <linearGradient x1="0%" y1="100%" x2="100%" y2="0%" id="linearGradient-1">
            <stop stop-color="#B0084D" offset="0%"></stop>
            <stop stop-color="#FF4F8B" offset="100%"></stop>
        </linearGradient>
    </defs>
    <g id="Icon-Architecture/32/Arch_AWS-Personal-Health-Dashboard_32" stroke="none" stroke-width="1" fill="none" fill-rule="evenodd">
        <g id="Icon-Architecture-BG/32/Management-Governance" fill="url(#linearGradient-1)">
            <rect id="Rectangle" x="0" y="0" width="40" height="40"></rect>
        </g>
        <path d="M7,22.7356647 L8.99078341,22.7356647 L8.99078341,21.7544645 L7,21.7544645 L7,22.7356647 Z M25.3968295,15.6965344 C25.3390968,15.4973508 25.1619171,15.3540955 24.9528848,15.3403587 C24.7338986,15.3256407 24.5477604,15.4404411 24.4621567,15.6298128 L20.9096037,23.5108128 L18.3952442,18.5537894 C18.3146175,18.394835 18.1533641,18.2918089 17.9741935,18.2829781 C17.8,18.2643353 17.6238157,18.3614742 17.5282581,18.5115978 L15.4548571,21.7544645 L9.98617512,21.7544645 L9.98617512,22.7356647 L15.7295853,22.7356647 C15.9007926,22.7356647 16.0590599,22.649319 16.1506359,22.507045 L17.9005346,19.7714588 L20.4905438,24.8795871 C20.5751521,25.0454099 20.7473548,25.1503984 20.9354839,25.1503984 L20.9474286,25.1503984 C21.1395392,25.1464736 21.3117419,25.0326543 21.3903779,24.8589819 L24.8125346,17.2693983 L26.2757604,22.3785078 C26.3364793,22.5894658 26.531576,22.7356647 26.7545438,22.7356647 L33.875576,22.7356647 L33.875576,21.7544645 L27.1308018,21.7544645 L25.3968295,15.6965344 Z M21.3933641,31.7362141 L14.2723318,23.3636328 L13.5098618,23.9945445 L21.0210876,32.8253464 C21.1156498,32.936222 21.256,33 21.4023226,33 L21.4072995,33 C21.5566083,32.9990188 21.6969585,32.931316 21.7905253,32.8165156 L28.9802396,23.9857137 L28.2048295,23.3714824 L21.3933641,31.7362141 Z M10.8093641,20.9852035 L9.16895853,18.2545233 C8.62746544,17.2693983 8.35771429,16.2695553 8.35771429,15.2657875 C8.35771429,11.906158 11.2881475,8 15.0676498,8 C17.8517604,8 20.2436866,9.64351034 21.2420645,11.9718984 C22.2404424,9.64351034 24.6323687,8 27.4164793,8 C31.1840369,8 34,11.8364928 34,15.2657875 C34,16.4226226 33.7859908,17.3822364 33.3460276,18.1985949 C33.1947281,18.4821618 33.0105806,18.7647474 32.7866175,19.0630323 L32.3645714,19.5536324 L31.1591521,21.0411319 L30.3817512,20.428863 L32.0072258,18.4527258 C32.1814194,18.2201813 32.3376959,17.9788061 32.4661014,17.7393932 C32.8294194,17.0672711 33.0046083,16.2577809 33.0046083,15.2657875 C33.0046083,12.3594725 30.5639078,8.9812002 27.4164793,8.9812002 C24.2869677,8.9812002 21.7397604,11.4096707 21.7397604,14.3954629 C21.7397604,14.6662742 21.5167926,14.886063 21.2420645,14.886063 C20.9673364,14.886063 20.7443687,14.6662742 20.7443687,14.3954629 C20.7443687,11.4096707 18.1971613,8.9812002 15.0676498,8.9812002 C11.848553,8.9812002 9.35310599,12.3594725 9.35310599,15.2657875 C9.35310599,16.1047137 9.58204608,16.9475647 10.0349493,17.7698104 L11.6663963,20.4847914 L10.8093641,20.9852035 Z" id="AWS-Personal-Health-Dashboard_Icon_32_Squid" fill="#FFFFFF"></path>
    </g>
</svg>