<?xml version="1.0" encoding="UTF-8"?>
<svg width="40px" height="40px" viewBox="0 0 40 40" version="1.1" xmlns="http://www.w3.org/2000/svg" xmlns:xlink="http://www.w3.org/1999/xlink">
    <!-- Generator: Sketch 64 (93537) - https://sketch.com -->
    <title>Icon-Architecture/32/Arch_AWS-Organizations_32</title>
    <desc>Created with Sketch.</desc>
    <defs>
        <linearGradient x1="0%" y1="100%" x2="100%" y2="0%" id="linearGradient-1">
            <stop stop-color="#B0084D" offset="0%"></stop>
            <stop stop-color="#FF4F8B" offset="100%"></stop>
        </linearGradient>
    </defs>
    <g id="Icon-Architecture/32/Arch_AWS-Organizations_32" stroke="none" stroke-width="1" fill="none" fill-rule="evenodd">
        <g id="Icon-Architecture-BG/32/Management-Governance" fill="url(#linearGradient-1)">
            <rect id="Rectangle" x="0" y="0" width="40" height="40"></rect>
        </g>
        <path d="M28.985744,32.0010489 L32.0016772,32.0010489 L32.0016772,28.9622396 L28.985744,28.9622396 L28.985744,32.0010489 Z M18.9605862,32.0010489 L22.0384155,32.0010489 L22.0384155,28.9622396 L18.9605862,28.9622396 L18.9605862,32.0010489 Z M8.99832282,32.0010489 L12.0352208,32.0010489 L12.0352208,28.9622396 L8.99832282,28.9622396 L8.99832282,32.0010489 Z M32.5008386,27.9632885 L31.0033544,27.9632885 L31.0033544,25.4659108 C31.0033544,25.1902003 30.7797301,24.9664352 30.504193,24.9664352 L21.0201262,24.9664352 L21.0201262,22.968533 L20.0218034,22.968533 L20.0218034,24.9664352 L10.5377366,24.9664352 C10.2612012,24.9664352 10.0385752,25.1902003 10.0385752,25.4659108 L10.0385752,27.9632885 L8.49916141,27.9632885 C8.22262599,27.9632885 8,28.1870536 8,28.4627641 L8,32.5005244 C8,32.776235 8.22262599,33 8.49916141,33 L12.5343822,33 C12.8099193,33 13.0335436,32.776235 13.0335436,32.5005244 L13.0335436,28.4627641 C13.0335436,28.1870536 12.8099193,27.9632885 12.5343822,27.9632885 L11.036898,27.9632885 L11.036898,25.9653863 L20.0218034,25.9653863 L20.0218034,27.9632885 L18.4614248,27.9632885 C18.1858877,27.9632885 17.9622634,28.1870536 17.9622634,28.4627641 L17.9622634,32.5005244 C17.9622634,32.776235 18.1858877,33 18.4614248,33 L22.5375769,33 C22.8141123,33 23.0367383,32.776235 23.0367383,32.5005244 L23.0367383,28.4627641 C23.0367383,28.1870536 22.8141123,27.9632885 22.5375769,27.9632885 L21.0201262,27.9632885 L21.0201262,25.9653863 L30.0050315,25.9653863 L30.0050315,27.9632885 L28.4865825,27.9632885 C28.2110454,27.9632885 27.9874211,28.1870536 27.9874211,28.4627641 L27.9874211,32.5005244 C27.9874211,32.776235 28.2110454,33 28.4865825,33 L32.5008386,33 C32.7763757,33 33,32.776235 33,32.5005244 L33,28.4627641 C33,28.1870536 32.7763757,27.9632885 32.5008386,27.9632885 L32.5008386,27.9632885 Z M20.5369379,9.04015783 L25.3248942,11.0230758 L20.5219631,13.4195595 L15.7469851,11.0240747 L20.5369379,9.04015783 Z M21.0341027,20.639978 L21.0211245,14.286649 L26.0277134,11.7882723 L26.0277134,17.6700964 L21.0341027,20.639978 Z M15.0461624,11.7902702 L20.0228017,14.286649 L20.0357799,20.6379801 L15.0461624,17.6700964 L15.0461624,11.7902702 Z M20.2813673,21.9466061 C20.3602348,21.9925578 20.4490855,22.0165326 20.5369379,22.0165326 C20.6247904,22.0165326 20.7136411,21.9925578 20.7925086,21.9466061 L26.7824455,18.3843464 C26.9331922,18.2944408 27.0260363,18.1306129 27.0260363,17.9547975 L27.0260363,10.9811198 C27.0260363,10.7793317 26.9042409,10.5965237 26.7185528,10.5196044 L20.7286159,8.03820988 C20.6058222,7.98726337 20.469052,7.98726337 20.3462583,8.03820988 L14.3563214,10.5196044 C14.169635,10.5965237 14.0478396,10.7793317 14.0478396,10.9811198 L14.0478396,17.9547975 C14.0478396,18.1306129 14.1406837,18.2944408 14.2914304,18.3843464 L20.2813673,21.9466061 Z" id="AWS-Organizations_Icon_32_Squid" fill="#FFFFFF"></path>
    </g>
</svg>