<?xml version="1.0" encoding="UTF-8"?>
<svg width="40px" height="40px" viewBox="0 0 40 40" version="1.1" xmlns="http://www.w3.org/2000/svg" xmlns:xlink="http://www.w3.org/1999/xlink">
    <!-- Generator: Sketch 64 (93537) - https://sketch.com -->
    <title>Icon-Architecture/32/Arch_AWS-Systems-Manager_32</title>
    <desc>Created with Sketch.</desc>
    <defs>
        <linearGradient x1="0%" y1="100%" x2="100%" y2="0%" id="linearGradient-1">
            <stop stop-color="#B0084D" offset="0%"></stop>
            <stop stop-color="#FF4F8B" offset="100%"></stop>
        </linearGradient>
    </defs>
    <g id="Icon-Architecture/32/Arch_AWS-Systems-Manager_32" stroke="none" stroke-width="1" fill="none" fill-rule="evenodd">
        <g id="Icon-Architecture-BG/32/Management-Governance" fill="url(#linearGradient-1)">
            <rect id="Rectangle" x="0" y="0" width="40" height="40"></rect>
        </g>
        <path d="M24,26.99917 L29,26.99917 L29,27.9992886 L24,27.9992886 L24,28.9994071 L23,28.9994071 L23,27.9992886 L21,27.9992886 L21,26.99917 L23,26.99917 L23,25.9990514 L24,25.9990514 L24,26.99917 Z M28,21.9985771 L29,21.9985771 L29,22.9986957 L28,22.9986957 L28,23.9988143 L27,23.9988143 L27,22.9986957 L21,22.9986957 L21,21.9985771 L27,21.9985771 L27,20.9984586 L28,20.9984586 L28,21.9985771 Z M10.357,22.9986957 L15,22.9986957 L15,23.9988143 L10.357,23.9988143 C9.826,23.9988143 9.276,23.9988143 8.71,23.6457724 C7.698,23.0186981 6,21.5495239 6,18.7641937 C6,15.3877934 8.33,14.1486465 9.689,13.714595 L9.663,13.2765431 C9.662,10.4942132 11.538,7.64387528 14.026,6.61575338 C16.934,5.40260956 20.014,6.00468094 22.269,8.22194381 C22.97,8.90902527 23.546,9.74712463 23.987,10.72024 C24.883,9.98615297 26.102,9.7401238 27.232,10.1181686 C28.63,10.5842239 29.502,11.8623754 29.612,13.5725782 C31.243,13.8466107 34,14.4326801 34,17.9981029 L33,17.9981029 C33,15.3587899 31.309,14.8657315 29.266,14.5286915 L29.028,14.4896869 C28.893,14.4666842 28.771,14.3886749 28.695,14.2726612 C28.619,14.1576475 28.594,14.0166308 28.626,13.8816148 C28.624,12.4784485 28.001,11.4293241 26.916,11.066281 C25.927,10.7382421 24.843,11.0802827 24.213,11.9193822 C24.104,12.0663996 23.927,12.1384081 23.739,12.1134052 C23.558,12.086402 23.406,11.9613872 23.344,11.7893668 C22.928,10.6432309 22.331,9.68411716 21.568,8.93502835 C19.609,7.00879998 16.934,6.48773821 14.41,7.53886283 C12.308,8.40796587 10.662,10.914263 10.662,13.2465395 L10.712,14.0546353 C10.727,14.2956639 10.567,14.5116895 10.334,14.5706965 C9.089,14.8797331 7,15.8368466 7,18.7641937 C7,20.9504529 8.217,22.1635967 9.238,22.7966718 C9.547,22.9886945 9.864,22.9986957 10.357,22.9986957 L10.357,22.9986957 Z M33,26.1590704 L32.118,26.1090645 C31.887,26.1010635 31.656,26.2590823 31.602,26.4981106 C31.434,27.2471994 31.14,27.9572836 30.729,28.6083608 C30.598,28.8153853 30.636,29.0854173 30.818,29.2484367 L31.478,29.8355063 L29.836,31.4767008 L29.251,30.8206231 C29.088,30.6376014 28.817,30.5995969 28.61,30.7296123 C27.96,31.1416611 27.249,31.4366961 26.498,31.6057161 C26.26,31.6597225 26.095,31.8777484 26.109,32.1227774 L26.16,32.9998814 L23.84,32.9998814 L23.891,32.1217773 C23.905,31.8777484 23.74,31.6597225 23.502,31.604716 C22.753,31.435696 22.042,31.1416611 21.39,30.7286122 C21.184,30.600597 20.913,30.6366012 20.75,30.8196229 L20.164,31.4767008 L18.522,29.8365064 L19.181,29.2494368 C19.363,29.0874176 19.401,28.8163854 19.271,28.6093609 C18.86,27.9612841 18.566,27.2501998 18.396,26.4981106 C18.343,26.2600824 18.151,26.1030638 17.881,26.1090645 L17,26.1590704 L17,23.8387953 L17.884,23.8888012 C18.155,23.894802 18.346,23.7377833 18.399,23.4997551 C18.569,22.7516664 18.863,22.0425824 19.274,21.3925053 C19.405,21.1864809 19.367,20.9154487 19.185,20.7524294 L18.522,20.1623594 L20.164,18.5211649 L20.754,19.1832434 C20.916,19.3642648 21.187,19.4012692 21.394,19.2722539 C22.045,18.8622053 22.754,18.5681704 23.502,18.4001505 C23.74,18.3461441 23.904,18.1271181 23.891,17.8830892 L23.84,16.9979843 L26.16,16.9979843 L26.109,17.8840893 C26.096,18.1281183 26.26,18.3471442 26.498,18.4011506 C27.246,18.5701707 27.955,18.8642055 28.605,19.2742541 C28.812,19.4042696 29.084,19.3672652 29.245,19.1842435 L29.836,18.5211649 L31.478,20.1623594 L30.816,20.7514293 C30.634,20.9144486 30.596,21.1854807 30.727,21.3925053 C31.138,22.0405821 31.432,22.7496662 31.602,23.4997551 C31.655,23.7377833 31.847,23.9048031 32.117,23.8888012 L33,23.8387953 L33,26.1590704 Z M33.472,22.8106734 L32.472,22.8676802 C32.309,22.2936121 32.08,21.7435469 31.79,21.2234852 L32.538,20.555406 C32.641,20.4643952 32.701,20.3343798 32.705,20.1963635 C32.709,20.0593472 32.656,19.9263315 32.559,19.82932 L30.169,17.4390366 C30.072,17.3420251 29.946,17.2920191 29.801,17.2930193 C29.664,17.2970197 29.534,17.3570268 29.442,17.4600391 L28.772,18.2111281 C28.253,17.9210937 27.703,17.6930667 27.131,17.5310475 L27.188,16.5269284 C27.196,16.3889121 27.147,16.2548962 27.053,16.1548843 C26.959,16.0548725 26.827,15.9978657 26.689,15.9978657 L23.311,15.9978657 C23.173,15.9978657 23.041,16.0548725 22.947,16.1548843 C22.853,16.2548962 22.804,16.3889121 22.812,16.5269284 L22.869,17.5290472 C22.297,17.6920666 21.747,17.9190935 21.227,18.2091279 L20.558,17.4600391 C20.466,17.3570268 20.336,17.2970197 20.199,17.2930193 C20.063,17.2950195 19.928,17.3430252 19.831,17.4390366 L17.441,19.82932 C17.344,19.9263315 17.291,20.0593472 17.295,20.1963635 C17.299,20.3343798 17.359,20.4633951 17.462,20.555406 L18.211,21.2244854 C17.921,21.7455471 17.693,22.2946122 17.53,22.8676802 L16.528,22.8106734 C16.394,22.8076731 16.257,22.8516783 16.156,22.9456894 C16.057,23.0407007 16,23.1717162 16,23.3097326 L16,26.6881331 C16,26.8261495 16.057,26.957165 16.156,27.0521763 C16.257,27.1461874 16.394,27.1971935 16.528,27.1871923 L17.526,27.1301855 C17.689,27.7062538 17.918,28.2573192 18.207,28.7773808 L17.462,29.4424597 C17.359,29.5334705 17.299,29.6634859 17.295,29.8015022 C17.291,29.9385185 17.344,30.0715342 17.441,30.1685458 L19.831,32.5588291 C19.928,32.6558406 20.06,32.7018461 20.199,32.7048464 C20.337,32.700846 20.466,32.6408389 20.558,32.5378266 L21.222,31.7917382 C21.744,32.0837728 22.296,32.3117999 22.869,32.4758193 L22.812,33.4709373 C22.804,33.6079535 22.853,33.7429695 22.947,33.8429814 C23.041,33.9429932 23.173,34 23.311,34 L26.689,34 C26.827,34 26.959,33.9429932 27.053,33.8429814 C27.147,33.7429695 27.196,33.6079535 27.188,33.4709373 L27.131,32.4768194 C27.706,32.3128 28.258,32.0837728 28.779,31.7927383 L29.442,32.5378266 C29.534,32.6408389 29.663,32.700846 29.801,32.7048464 C29.95,32.7058466 30.072,32.6558406 30.169,32.5588291 L32.559,30.1685458 C32.656,30.0715342 32.709,29.9385185 32.705,29.8015022 C32.701,29.6634859 32.641,29.5334705 32.538,29.4424597 L31.791,28.7763807 C32.082,28.2543188 32.31,27.7042536 32.473,27.1301855 L33.472,27.1871923 C33.606,27.1971935 33.743,27.1461874 33.844,27.0521763 C33.943,26.957165 34,26.8261495 34,26.6881331 L34,23.3097326 C34,23.1717162 33.943,23.0407007 33.844,22.9456894 C33.743,22.8516783 33.606,22.8076731 33.472,22.8106734 L33.472,22.8106734 Z" id="AWS-Systems-Manager_Icon_32_Squid" fill="#FFFFFF"></path>
    </g>
</svg>