<?xml version="1.0" encoding="UTF-8"?>
<svg width="40px" height="40px" viewBox="0 0 40 40" version="1.1" xmlns="http://www.w3.org/2000/svg" xmlns:xlink="http://www.w3.org/1999/xlink">
    <title>Icon-Architecture/32/Arch_AWS-Valkyrie_32</title>
    <defs>
        <linearGradient x1="0%" y1="100%" x2="100%" y2="0%" id="linearGradient-1">
            <stop stop-color="#B0084D" offset="0%"></stop>
            <stop stop-color="#FF4F8B" offset="100%"></stop>
        </linearGradient>
    </defs>
    <g id="Icon-Architecture/32/Arch_AWS-Valkyrie_32" stroke="none" stroke-width="1" fill="none" fill-rule="evenodd">
        <g id="Rectangle" fill="url(#linearGradient-1)">
            <rect x="0" y="0" width="40" height="40"></rect>
        </g>
        <g id="Icon-Service/32/AWS-Valkyrie_32" transform="translate(4.000000, 4.000000)" fill="#FFFFFF">
            <path d="M13.496,9.98865627 C14.323,9.98865627 14.996,9.31565627 14.996,8.48865627 C14.996,7.66165627 14.323,6.98865627 13.496,6.98865627 C12.669,6.98865627 11.996,7.66165627 11.996,8.48865627 C11.996,9.31565627 12.669,9.98865627 13.496,9.98865627 L13.496,9.98865627 Z M13.496,10.9886563 C12.117,10.9886563 10.996,9.86665627 10.996,8.48865627 C10.996,7.11065627 12.117,5.98865627 13.496,5.98865627 C14.875,5.98865627 15.996,7.11065627 15.996,8.48865627 C15.996,9.86665627 14.875,10.9886563 13.496,10.9886563 L13.496,10.9886563 Z M7.996,15.4886563 L8.996,15.4886563 C8.996,14.6616563 9.669,13.9886563 10.496,13.9886563 C11.323,13.9886563 11.996,14.6616563 11.996,15.4886563 L12.996,15.4886563 C12.996,14.1106563 11.875,12.9886563 10.496,12.9886563 C9.117,12.9886563 7.996,14.1106563 7.996,15.4886563 L7.996,15.4886563 Z M18.35,16.3426563 L19.996,14.6956563 L21.642,16.3426563 L22.35,15.6346563 L20.703,13.9886563 L22.35,12.3426563 L21.642,11.6346563 L19.996,13.2816563 L18.35,11.6346563 L17.642,12.3426563 L19.289,13.9886563 L17.642,15.6346563 L18.35,16.3426563 Z M8.996,17.9886563 L8.996,24.9166563 C10.535,24.5216563 11.996,22.4556563 11.996,21.4886563 L11.996,17.9886563 L8.996,17.9886563 Z M11.996,23.8766563 C11.243,24.8716563 10.149,25.7376563 8.996,25.9396563 L8.996,26.4886563 C8.996,28.0316563 9.247,28.9886563 10.496,28.9886563 C11.745,28.9886563 11.996,28.0316563 11.996,26.4886563 L11.996,23.8766563 Z M6.996,16.9886563 L13.996,16.9886563 L13.996,17.9886563 L12.996,17.9886563 L12.996,26.4886563 C12.996,27.4456563 12.996,29.9886563 10.496,29.9886563 C7.996,29.9886563 7.996,27.4456563 7.996,26.4886563 L7.996,17.9886563 L6.996,17.9886563 L6.996,16.9886563 Z M29.5,14.7956563 C29.5,19.5776563 24.734,19.9836563 24.686,19.9876563 L14.996,19.9886563 L14.996,18.9886563 L24.649,18.9886563 C24.77,18.9776563 28.5,18.6396563 28.5,14.7956563 C28.5,11.4866563 25.54,10.7186563 24.633,10.5626563 C24.362,10.5166563 24.18,10.2596563 24.225,9.98865627 C24.226,8.56465627 23.624,7.53265627 22.573,7.18765627 C21.646,6.88465627 20.623,7.21865627 20.028,8.02465627 C19.919,8.17465627 19.739,8.24765627 19.552,8.22265627 C19.369,8.19565627 19.216,8.06965627 19.154,7.89465627 C18.761,6.77565627 18.188,5.83365627 17.455,5.09465627 C16.555,4.18965627 14.088,2.24365627 10.604,3.72465627 C8.592,4.57965627 7.015,7.04365627 7.015,9.33265627 L7.061,10.1246563 C7.075,10.3636563 6.919,10.5786563 6.686,10.6376563 C5.497,10.9436563 3.5,11.8846563 3.5,14.7556563 C3.5,16.9076563 4.665,18.0946563 5.642,18.7116563 C5.973,18.9206563 6.213,18.9886563 6.628,18.9886563 L6.626,19.9886563 C6.024,19.9886563 5.599,19.8666563 5.108,19.5576563 C4.134,18.9426563 2.5,17.5016563 2.5,14.7556563 C2.5,11.4456563 4.73,10.2196563 6.04,9.78665627 L6.016,9.36265627 C6.015,6.62765627 7.82,3.82165627 10.214,2.80465627 C13.019,1.61265627 15.991,2.20465627 18.164,4.38965627 C18.834,5.06465627 19.383,5.87965627 19.803,6.82165627 C20.658,6.12165627 21.811,5.88465627 22.886,6.23765627 C24.258,6.68865627 25.112,7.95565627 25.216,9.66165627 C27.358,10.1656563 29.5,11.7416563 29.5,14.7956563 L29.5,14.7956563 Z" id="Fill-3"></path>
        </g>
    </g>
</svg>