<?xml version="1.0" encoding="UTF-8"?>
<svg width="40px" height="40px" viewBox="0 0 40 40" version="1.1" xmlns="http://www.w3.org/2000/svg" xmlns:xlink="http://www.w3.org/1999/xlink">
    <!-- Generator: Sketch 64 (93537) - https://sketch.com -->
    <title>Icon-Architecture/32/Arch_AWS-Cloud-Trail_32</title>
    <desc>Created with Sketch.</desc>
    <defs>
        <linearGradient x1="0%" y1="100%" x2="100%" y2="0%" id="linearGradient-1">
            <stop stop-color="#B0084D" offset="0%"></stop>
            <stop stop-color="#FF4F8B" offset="100%"></stop>
        </linearGradient>
    </defs>
    <g id="Icon-Architecture/32/Arch_AWS-Cloud-Trail_32" stroke="none" stroke-width="1" fill="none" fill-rule="evenodd">
        <g id="Icon-Architecture-BG/32/Management-Governance" fill="url(#linearGradient-1)">
            <rect id="Rectangle" x="0" y="0" width="40" height="40"></rect>
        </g>
        <path d="M14.0269476,24.1310926 L18.0404214,24.1310926 L18.0404214,23.1604686 L14.0269476,23.1604686 L14.0269476,24.1310926 Z M29.9855228,18.8217791 C29.8751523,17.34546 29.1396832,16.2612729 27.9687522,15.8827295 C27.0416398,15.5808655 26.0111804,15.7992559 25.2225328,16.4194846 C24.7389092,15.5012743 24.0114671,14.5985939 23.4104494,14.0239845 C21.4037125,12.1089433 18.8501398,11.5168626 16.4009174,12.4020717 C14.1433384,13.2173959 11.5185265,15.9720269 11.5185265,18.3015246 L11.5185265,18.3306433 C10.0445782,18.6985099 9.01411883,20.6057861 9.01411883,21.6472657 L10.0174873,21.6472657 C10.0174873,20.8950321 10.9857378,19.2391474 12.0202107,19.2391474 C12.2971404,19.2391474 12.5218949,19.0226983 12.5218949,18.7538354 L12.5218949,18.3015246 C12.5218949,16.4359852 14.847703,13.9987483 16.7520963,13.3115465 C19.5785853,12.29045 21.6956927,13.7522098 22.7050813,14.7150688 C23.3562675,15.3352976 24.2241812,16.4534565 24.591414,17.4396105 C24.6546262,17.6075284 24.8071382,17.7288564 24.9897513,17.7560339 C25.1693543,17.7802995 25.3539741,17.709444 25.4643446,17.5677329 C26.0121838,16.8640304 26.8881244,16.5582839 27.6506844,16.8028811 C28.5065577,17.079509 28.9972049,17.959865 28.9972049,19.2168231 C28.9972049,19.454626 29.1748011,19.6565158 29.4166129,19.6953407 C30.6547696,19.8943187 32.9966315,20.9755938 32.9966315,23.6457806 C32.9966315,26.9662854 29.6403641,27.0284053 29.4988891,27.029376 L18.0404214,27.029376 L18.0404214,28 L29.4998925,28 C31.0571203,27.9970881 34,27.0837309 34,23.6457806 C34,20.5989917 31.5678349,19.2187643 29.9855228,18.8217791 L29.9855228,18.8217791 Z M16.0336845,26.0655463 L23.0572637,26.0655463 L23.0572637,25.0949223 L16.0336845,25.0949223 L16.0336845,26.0655463 Z M13.0235792,28 L16.0336845,28 L16.0336845,27.029376 L13.0235792,27.029376 L13.0235792,28 Z M12.0202107,26.0655463 L14.0269476,26.0655463 L14.0269476,25.0949223 L12.0202107,25.0949223 L12.0202107,26.0655463 Z M7.00336845,24.1310926 L12.0202107,24.1310926 L12.0202107,23.1604686 L7.00336845,23.1604686 L7.00336845,24.1310926 Z M6,26.0655463 L11.0168423,26.0655463 L11.0168423,25.0949223 L6,25.0949223 L6,26.0655463 Z M8.0067369,28 L11.0168423,28 L11.0168423,27.029376 L8.0067369,27.029376 L8.0067369,28 Z" id="AWS-Cloud-Trail_Icon_32_Squid" fill="#FFFFFF"></path>
    </g>
</svg>