<?xml version="1.0" encoding="UTF-8"?>
<svg width="40px" height="40px" viewBox="0 0 40 40" version="1.1" xmlns="http://www.w3.org/2000/svg" xmlns:xlink="http://www.w3.org/1999/xlink">
    <!-- Generator: Sketch 64 (93537) - https://sketch.com -->
    <title>Icon-Architecture/32/Arch_AWS-OpsWorks_32</title>
    <desc>Created with Sketch.</desc>
    <defs>
        <linearGradient x1="0%" y1="100%" x2="100%" y2="0%" id="linearGradient-1">
            <stop stop-color="#B0084D" offset="0%"></stop>
            <stop stop-color="#FF4F8B" offset="100%"></stop>
        </linearGradient>
    </defs>
    <g id="Icon-Architecture/32/Arch_AWS-OpsWorks_32" stroke="none" stroke-width="1" fill="none" fill-rule="evenodd">
        <g id="Icon-Architecture-BG/32/Management-Governance" fill="url(#linearGradient-1)">
            <rect id="Rectangle" x="0" y="0" width="40" height="40"></rect>
        </g>
        <path d="M19.521,10.879 C20.671,10.879 21.607,11.815 21.607,12.965 C21.607,14.115 20.671,15.051 19.521,15.051 C18.371,15.051 17.435,14.115 17.435,12.965 C17.435,11.815 18.371,10.879 19.521,10.879 L19.521,10.879 Z M19.521,16.051 C21.222,16.051 22.607,14.667 22.607,12.965 C22.607,11.263 21.222,9.879 19.521,9.879 C17.82,9.879 16.435,11.263 16.435,12.965 C16.435,14.667 17.82,16.051 19.521,16.051 L19.521,16.051 Z M13.556,12.21 L14.101,12.24 C14.356,12.244 14.563,12.089 14.617,11.852 C14.743,11.297 14.961,10.771 15.267,10.286 C15.397,10.08 15.36,9.809 15.177,9.647 L14.768,9.282 L15.837,8.213 L16.202,8.622 C16.364,8.803 16.635,8.842 16.841,8.712 C17.325,8.407 17.852,8.189 18.408,8.064 C18.646,8.01 18.81,7.791 18.796,7.547 L18.765,7 L20.276,7 L20.246,7.548 C20.232,7.792 20.396,8.01 20.634,8.064 C21.189,8.19 21.715,8.408 22.199,8.712 C22.405,8.843 22.677,8.805 22.838,8.623 L23.204,8.213 L24.273,9.282 L23.865,9.646 C23.682,9.808 23.644,10.079 23.775,10.286 C24.081,10.769 24.299,11.296 24.425,11.852 C24.479,12.089 24.67,12.254 24.941,12.24 L25.486,12.21 L25.486,13.721 L24.941,13.69 C24.705,13.677 24.479,13.84 24.424,14.079 C24.299,14.635 24.082,15.162 23.776,15.646 C23.645,15.852 23.683,16.123 23.866,16.286 L24.273,16.649 L23.204,17.717 L22.843,17.313 C22.681,17.129 22.409,17.091 22.204,17.222 C21.719,17.528 21.192,17.747 20.634,17.873 C20.396,17.927 20.232,18.145 20.246,18.389 L20.276,18.93 L18.765,18.93 L18.796,18.388 C18.811,18.144 18.646,17.925 18.408,17.872 C17.852,17.747 17.325,17.527 16.838,17.221 C16.633,17.092 16.362,17.129 16.199,17.312 L15.837,17.717 L14.768,16.649 L15.174,16.287 C15.357,16.124 15.395,15.854 15.264,15.647 C14.959,15.164 14.741,14.636 14.615,14.078 C14.561,13.84 14.338,13.677 14.099,13.69 L13.556,13.721 L13.556,12.21 Z M13.084,14.749 L13.749,14.711 C13.864,15.093 14.016,15.461 14.204,15.812 L13.708,16.255 C13.605,16.346 13.544,16.476 13.541,16.614 C13.537,16.752 13.589,16.884 13.687,16.982 L15.504,18.798 C15.602,18.896 15.742,18.955 15.873,18.945 C16.01,18.941 16.139,18.88 16.231,18.777 L16.673,18.282 C17.026,18.471 17.394,18.624 17.775,18.738 L17.737,19.401 C17.729,19.539 17.778,19.673 17.873,19.773 C17.966,19.873 18.098,19.93 18.236,19.93 L20.805,19.93 C20.943,19.93 21.074,19.873 21.168,19.773 C21.263,19.673 21.312,19.539 21.304,19.401 L21.267,18.739 C21.649,18.624 22.017,18.472 22.369,18.283 L22.81,18.777 C22.902,18.88 23.031,18.941 23.168,18.945 C23.319,18.958 23.44,18.896 23.537,18.798 L25.354,16.982 C25.452,16.884 25.504,16.752 25.5,16.614 C25.497,16.476 25.436,16.346 25.333,16.255 L24.836,15.812 C25.025,15.46 25.177,15.092 25.292,14.711 L25.958,14.749 C26.085,14.76 26.229,14.708 26.33,14.614 C26.429,14.519 26.486,14.388 26.486,14.25 L26.486,11.68 C26.486,11.543 26.429,11.411 26.33,11.317 C26.229,11.223 26.099,11.178 25.958,11.181 L25.292,11.219 C25.176,10.838 25.024,10.471 24.835,10.12 L25.333,9.675 C25.436,9.584 25.497,9.454 25.5,9.317 C25.504,9.179 25.452,9.046 25.354,8.949 L23.537,7.132 C23.44,7.035 23.315,6.989 23.168,6.985 C23.032,6.989 22.902,7.05 22.81,7.152 L22.364,7.652 C22.014,7.464 21.647,7.312 21.267,7.197 L21.304,6.528 C21.312,6.391 21.263,6.256 21.168,6.157 C21.074,6.057 20.943,6 20.805,6 L18.236,6 C18.098,6 17.966,6.057 17.873,6.157 C17.778,6.257 17.729,6.391 17.737,6.528 L17.775,7.196 C17.394,7.311 17.027,7.463 16.676,7.651 L16.231,7.152 C16.139,7.05 16.009,6.989 15.873,6.985 C15.746,6.992 15.602,7.035 15.504,7.132 L13.687,8.949 C13.589,9.046 13.537,9.179 13.541,9.317 C13.544,9.454 13.605,9.584 13.708,9.675 L14.207,10.121 C14.018,10.472 13.866,10.839 13.75,11.219 L13.084,11.181 C12.947,11.178 12.814,11.223 12.712,11.317 C12.613,11.411 12.556,11.543 12.556,11.68 L12.556,14.25 C12.556,14.388 12.613,14.519 12.712,14.614 C12.814,14.708 12.96,14.76 13.084,14.749 L13.084,14.749 Z M28.021,32.471 L31.042,32.471 L31.042,27.429 L28.021,27.429 L28.021,32.471 Z M17.979,32.471 L21.062,32.471 L21.062,27.429 L17.979,27.429 L17.979,32.471 Z M8,32.471 L11.042,32.471 L11.042,27.429 L8,27.429 L8,32.471 Z M31.542,26.43 L30.042,26.43 L30.042,23.93 C30.042,23.653 29.818,23.43 29.542,23.43 L20.042,23.43 L20.042,21.43 L19.042,21.43 L19.042,23.43 L9.542,23.43 C9.265,23.43 9.042,23.653 9.042,23.93 L9.042,26.43 L7.5,26.43 C7.223,26.43 7,26.653 7,26.93 L7,32.971 C7,33.248 7.223,33.471 7.5,33.471 L11.542,33.471 C11.818,33.471 12.042,33.248 12.042,32.971 L12.042,26.93 C12.042,26.653 11.818,26.43 11.542,26.43 L10.042,26.43 L10.042,24.43 L19.042,24.43 L19.042,26.43 L17.479,26.43 C17.203,26.43 16.979,26.653 16.979,26.93 L16.979,32.971 C16.979,33.248 17.203,33.471 17.479,33.471 L21.562,33.471 C21.838,33.471 22.062,33.248 22.062,32.971 L22.062,26.93 C22.062,26.653 21.838,26.43 21.562,26.43 L20.042,26.43 L20.042,24.43 L29.042,24.43 L29.042,26.43 L27.521,26.43 C27.245,26.43 27.021,26.653 27.021,26.93 L27.021,32.971 C27.021,33.248 27.245,33.471 27.521,33.471 L31.542,33.471 C31.818,33.471 32.042,33.248 32.042,32.971 L32.042,26.93 C32.042,26.653 31.818,26.43 31.542,26.43 L31.542,26.43 Z" id="AWS-OpsWorks_Icon_32_Squid" fill="#FFFFFF"></path>
    </g>
</svg>