<?xml version="1.0" encoding="UTF-8"?>
<svg width="40px" height="40px" viewBox="0 0 40 40" version="1.1" xmlns="http://www.w3.org/2000/svg" xmlns:xlink="http://www.w3.org/1999/xlink">
    <!-- Generator: Sketch 64 (93537) - https://sketch.com -->
    <title>Icon-Architecture/32/Arch_AWS-App-Config_32</title>
    <desc>Created with Sketch.</desc>
    <defs>
        <linearGradient x1="0%" y1="100%" x2="100%" y2="0%" id="linearGradient-1">
            <stop stop-color="#B0084D" offset="0%"></stop>
            <stop stop-color="#FF4F8B" offset="100%"></stop>
        </linearGradient>
    </defs>
    <g id="Icon-Architecture/32/Arch_AWS-App-Config_32" stroke="none" stroke-width="1" fill="none" fill-rule="evenodd">
        <g id="Icon-Architecture-BG/32/Management-Governance" fill="url(#linearGradient-1)">
            <rect id="Rectangle" x="0" y="0" width="40" height="40"></rect>
        </g>
        <path d="M25.869,18.833 C25.869,21.314 23.85,23.333 21.369,23.333 C18.888,23.333 16.869,21.314 16.869,18.833 C16.869,16.352 18.888,14.333 21.369,14.333 C23.85,14.333 25.869,16.352 25.869,18.833 L25.869,18.833 Z M26.869,18.833 C26.869,15.8 24.401,13.333 21.369,13.333 C18.337,13.333 15.869,15.8 15.869,18.833 C15.869,21.866 18.337,24.333 21.369,24.333 C24.401,24.333 26.869,21.866 26.869,18.833 L26.869,18.833 Z M24.168,31.509 C24.263,31.409 24.311,31.275 24.304,31.138 L24.211,29.512 C25.148,29.262 26.045,28.891 26.884,28.404 L27.969,29.621 C28.06,29.723 28.19,29.784 28.327,29.788 C28.486,29.79 28.598,29.739 28.695,29.641 L32.161,26.174 C32.259,26.077 32.311,25.944 32.307,25.807 C32.304,25.669 32.243,25.539 32.14,25.448 L30.921,24.36 C31.407,23.521 31.778,22.626 32.027,21.69 L33.658,21.784 C33.796,21.791 33.93,21.743 34.03,21.648 C34.13,21.554 34.186,21.422 34.186,21.285 L34.186,16.382 C34.186,16.245 34.13,16.113 34.03,16.019 C33.93,15.924 33.796,15.878 33.658,15.883 L32.025,15.976 C31.775,15.04 31.404,14.146 30.919,13.308 L32.14,12.218 C32.243,12.127 32.304,11.997 32.307,11.859 C32.311,11.722 32.259,11.589 32.161,11.492 L28.695,8.026 C28.598,7.929 28.455,7.879 28.328,7.879 C28.19,7.883 28.06,7.944 27.969,8.046 L26.875,9.271 C26.038,8.786 25.144,8.416 24.211,8.166 L24.304,6.528 C24.311,6.391 24.263,6.256 24.168,6.157 C24.073,6.057 23.942,6 23.805,6 L18.902,6 C18.765,6 18.634,6.057 18.539,6.157 C18.444,6.257 18.395,6.391 18.403,6.528 L18.497,8.166 C17.563,8.414 16.669,8.784 15.83,9.269 L14.739,8.046 C14.647,7.944 14.517,7.883 14.381,7.879 C14.248,7.883 14.11,7.929 14.013,8.026 L10.546,11.492 C10.448,11.589 10.395,11.722 10.399,11.859 C10.403,11.997 10.464,12.126 10.566,12.218 L11.79,13.311 C11.304,14.149 10.932,15.042 10.683,15.976 L9.049,15.883 C8.913,15.878 8.777,15.924 8.677,16.019 C8.577,16.113 8.52,16.245 8.52,16.382 L8.52,21.285 C8.52,21.422 8.577,21.554 8.678,21.648 C8.777,21.744 8.913,21.791 9.05,21.784 L11.05,21.666 L10.991,20.668 L9.52,20.754 L9.52,16.912 L11.041,16.998 C11.299,17.012 11.502,16.846 11.556,16.609 C11.808,15.5 12.245,14.447 12.855,13.481 C12.986,13.274 12.948,13.003 12.765,12.841 L11.627,11.825 L14.346,9.107 L15.36,10.245 C15.522,10.426 15.793,10.465 16,10.334 C16.967,9.726 18.019,9.29 19.13,9.04 C19.368,8.986 19.532,8.768 19.518,8.523 L19.432,7 L23.275,7 L23.189,8.524 C23.176,8.769 23.34,8.986 23.578,9.041 C24.688,9.291 25.74,9.728 26.705,10.337 C26.912,10.467 27.182,10.429 27.345,10.247 L28.362,9.107 L31.08,11.825 L29.943,12.838 C29.761,13.001 29.723,13.272 29.853,13.479 C30.463,14.442 30.899,15.496 31.152,16.609 C31.206,16.847 31.396,17.022 31.668,16.998 L33.186,16.912 L33.186,20.755 L31.669,20.668 C31.441,20.656 31.207,20.819 31.153,21.058 C30.902,22.17 30.466,23.224 29.855,24.19 C29.724,24.396 29.763,24.667 29.945,24.83 L31.08,25.842 L28.362,28.56 L27.353,27.429 C27.191,27.247 26.919,27.208 26.714,27.339 C25.748,27.949 24.693,28.386 23.578,28.638 C23.34,28.692 23.176,28.911 23.189,29.154 L23.275,30.666 L19.448,30.666 L19.518,29.877 L18.522,29.789 L18.404,31.122 C18.391,31.262 18.438,31.4 18.533,31.503 C18.628,31.607 18.762,31.666 18.902,31.666 L23.805,31.666 C23.942,31.666 24.073,31.609 24.168,31.509 L24.168,31.509 Z M18.697,27.529 L18.01,26.803 L11.677,32.803 L12.364,33.529 L18.697,27.529 Z M12.696,23.53 L12.011,22.802 L6.344,28.135 L7.029,28.864 L12.696,23.53 Z M6.707,34.187 L6,33.479 L16,23.479 L16.707,24.187 L6.707,34.187 Z" id="AWS-App-Config_Icon_32_Squid" fill="#FFFFFF"></path>
    </g>
</svg>