<?xml version="1.0" encoding="UTF-8"?>
<svg width="40px" height="40px" viewBox="0 0 40 40" version="1.1" xmlns="http://www.w3.org/2000/svg" xmlns:xlink="http://www.w3.org/1999/xlink">
    <!-- Generator: Sketch 64 (93537) - https://sketch.com -->
    <title>Icon-Architecture/32/Arch_AWS-App-Wizard_32</title>
    <desc>Created with Sketch.</desc>
    <defs>
        <linearGradient x1="0%" y1="100%" x2="100%" y2="0%" id="linearGradient-1">
            <stop stop-color="#B0084D" offset="0%"></stop>
            <stop stop-color="#FF4F8B" offset="100%"></stop>
        </linearGradient>
    </defs>
    <g id="Icon-Architecture/32/Arch_AWS-App-Wizard_32" stroke="none" stroke-width="1" fill="none" fill-rule="evenodd">
        <g id="Icon-Architecture-BG/32/Management-Governance" fill="url(#linearGradient-1)">
            <rect id="Rectangle" x="0" y="0" width="40" height="40"></rect>
        </g>
        <path d="M25.10325,24 L27.10325,24 L27.10325,25 L25.10325,25 L25.10325,27 L24.10325,27 L24.10325,25 L22.10325,25 L22.10325,24 L24.10325,24 L24.10325,22 L25.10325,22 L25.10325,24 Z M28.10325,18 L32.10325,18 L32.10325,14 L28.10325,14 L28.10325,18 Z M32.60325,13 L27.60325,13 C27.32725,13 27.10325,13.224 27.10325,13.5 L27.10325,18.5 C27.10325,18.776 27.32725,19 27.60325,19 L32.60325,19 C32.87925,19 33.10325,18.776 33.10325,18.5 L33.10325,13.5 C33.10325,13.224 32.87925,13 32.60325,13 L32.60325,13 Z M31.10325,31 L33.10325,31 L33.10325,32 L31.10325,32 L31.10325,34 L30.10325,34 L30.10325,32 L28.10325,32 L28.10325,31 L30.10325,31 L30.10325,29 L31.10325,29 L31.10325,31 Z M20.10325,32 L25.10325,32 L25.10325,31 L20.10325,31 L20.10325,32 Z M22.86025,17.771 L21.76525,16.676 L23.60725,14.834 L24.70225,15.929 L22.86025,17.771 Z M8.30125,32.329 L7.20725,31.234 L21.05825,17.383 L22.15325,18.478 L8.30125,32.329 Z M25.76225,15.576 L23.96025,13.773 C23.86725,13.68 23.74025,13.627 23.60725,13.627 C23.47425,13.627 23.34725,13.68 23.25325,13.773 L6.14625,30.88 C5.95125,31.076 5.95125,31.392 6.14625,31.587 L7.94825,33.39 C8.04125,33.483 8.16825,33.536 8.30125,33.536 C8.43425,33.536 8.56125,33.483 8.65525,33.39 L25.76225,16.283 C25.95725,16.087 25.95725,15.771 25.76225,15.576 L25.76225,15.576 Z M13.10325,16 L11.10325,16 L11.10325,15 L13.10325,15 L13.10325,13 L14.10325,13 L14.10325,15 L16.10325,15 L16.10325,16 L14.10325,16 L14.10325,18 L13.10325,18 L13.10325,16 Z M21.10325,11 L25.10325,11 L25.10325,7 L21.10325,7 L21.10325,11 Z M20.60325,12 L25.60325,12 C25.87925,12 26.10325,11.776 26.10325,11.5 L26.10325,6.5 C26.10325,6.224 25.87925,6 25.60325,6 L20.60325,6 C20.32725,6 20.10325,6.224 20.10325,6.5 L20.10325,11.5 C20.10325,11.776 20.32725,12 20.60325,12 L20.60325,12 Z M11.10325,9 L14.10325,9 L14.10325,8 L11.10325,8 L11.10325,9 Z M6.10325,9 L10.10325,9 L10.10325,8 L6.10325,8 L6.10325,9 Z M28.10325,11 L32.10325,11 L32.10325,7 L28.10325,7 L28.10325,11 Z M32.60325,6 L27.60325,6 C27.32725,6 27.10325,6.224 27.10325,6.5 L27.10325,11.5 C27.10325,11.776 27.32725,12 27.60325,12 L32.60325,12 C32.87925,12 33.10325,11.776 33.10325,11.5 L33.10325,6.5 C33.10325,6.224 32.87925,6 32.60325,6 L32.60325,6 Z" id="AWS-App-Wizard_Icon_32_Squid" fill="#FFFFFF"></path>
    </g>
</svg>