<?xml version="1.0" encoding="UTF-8"?>
<svg width="40px" height="40px" viewBox="0 0 40 40" version="1.1" xmlns="http://www.w3.org/2000/svg" xmlns:xlink="http://www.w3.org/1999/xlink">
    <title>Icon-Architecture/32/Arch_Amazon-Managed-Service-for-Prometheus_32</title>
    <defs>
        <linearGradient x1="0%" y1="100%" x2="100%" y2="0%" id="linearGradient-1">
            <stop stop-color="#B0084D" offset="0%"></stop>
            <stop stop-color="#FF4F8B" offset="100%"></stop>
        </linearGradient>
    </defs>
    <g id="Icon-Architecture/32/Arch_Amazon-Managed-Service-for-Prometheus_32" stroke="none" stroke-width="1" fill="none" fill-rule="evenodd">
        <g id="Rectangle" fill="url(#linearGradient-1)">
            <rect x="0" y="0" width="40" height="40"></rect>
        </g>
        <g id="Icon-Service/32/Amazon-Managed-Service-for-Prometheus_32" transform="translate(4.000000, 4.000000)" fill="#FFFFFF">
            <path d="M22.5,11 C21.673,11 21,10.327 21,9.5 C21,8.673 21.673,8 22.5,8 C23.327,8 24,8.673 24,9.5 C24,10.327 23.327,11 22.5,11 L22.5,11 Z M17.5,6 C16.673,6 16,5.327 16,4.5 C16,3.673 16.673,3 17.5,3 C18.327,3 19,3.673 19,4.5 C19,5.327 18.327,6 17.5,6 L17.5,6 Z M14.5,15 C13.673,15 13,14.327 13,13.5 C13,12.673 13.673,12 14.5,12 C15.327,12 16,12.673 16,13.5 C16,14.327 15.327,15 14.5,15 L14.5,15 Z M8.5,10 C7.673,10 7,9.327 7,8.5 C7,7.673 7.673,7 8.5,7 C9.327,7 10,7.673 10,8.5 C10,9.327 9.327,10 8.5,10 L8.5,10 Z M22.5,7 C21.991,7 21.519,7.154 21.123,7.417 L19.584,5.876 C19.846,5.481 20,5.009 20,4.5 C20,3.122 18.879,2 17.5,2 C16.121,2 15,3.122 15,4.5 C15,5.423 15.508,6.222 16.254,6.655 L14.796,11.03 C14.697,11.018 14.602,11 14.5,11 C13.736,11 13.06,11.352 12.601,11.894 L10.584,9.876 C10.846,9.481 11,9.009 11,8.5 C11,7.122 9.879,6 8.5,6 C7.121,6 6,7.122 6,8.5 C6,9.878 7.121,11 8.5,11 C9.009,11 9.481,10.846 9.877,10.583 L12.107,12.814 C12.045,13.034 12,13.261 12,13.5 C12,14.878 13.121,16 14.5,16 C15.879,16 17,14.878 17,13.5 C17,12.577 16.492,11.778 15.746,11.345 L17.204,6.97 C17.303,6.982 17.398,7 17.5,7 C18.009,7 18.481,6.846 18.877,6.583 L20.416,8.124 C20.154,8.519 20,8.991 20,9.5 C20,10.878 21.121,12 22.5,12 C23.879,12 25,10.878 25,9.5 C25,8.122 23.879,7 22.5,7 L22.5,7 Z M19.25,21 L12.75,21 L10.5,18 L21.5,18 L19.25,21 Z M17.109,29 L14.891,29 L13.141,22 L18.859,22 L17.109,29 Z M22.5,17 L9.5,17 C9.311,17 9.138,17.107 9.053,17.276 C8.968,17.446 8.986,17.648 9.1,17.8 L12.039,21.719 L14.015,29.621 C14.07,29.844 14.271,30 14.5,30 L17.5,30 C17.729,30 17.93,29.844 17.985,29.621 L19.961,21.719 L22.9,17.8 C23.014,17.648 23.032,17.446 22.947,17.276 C22.862,17.107 22.689,17 22.5,17 L22.5,17 Z" id="Fill-3"></path>
        </g>
    </g>
</svg>