<?xml version="1.0" encoding="UTF-8"?>
<svg width="40px" height="40px" viewBox="0 0 40 40" version="1.1" xmlns="http://www.w3.org/2000/svg" xmlns:xlink="http://www.w3.org/1999/xlink">
    <!-- Generator: Sketch 64 (93537) - https://sketch.com -->
    <title>Icon-Architecture/32/Arch_AWS-Well-Architect-Tool_32</title>
    <desc>Created with Sketch.</desc>
    <defs>
        <linearGradient x1="0%" y1="100%" x2="100%" y2="0%" id="linearGradient-1">
            <stop stop-color="#B0084D" offset="0%"></stop>
            <stop stop-color="#FF4F8B" offset="100%"></stop>
        </linearGradient>
    </defs>
    <g id="Icon-Architecture/32/Arch_AWS-Well-Architect-Tool_32" stroke="none" stroke-width="1" fill="none" fill-rule="evenodd">
        <g id="Icon-Architecture-BG/32/Management-Governance" fill="url(#linearGradient-1)">
            <rect id="Rectangle" x="0" y="0" width="40" height="40"></rect>
        </g>
        <path d="M16.707,34 L9.305,34 L6.068,28 L9.305,22 L16.707,22 L19.943,28 L16.707,34 Z M17.446,21.263 C17.358,21.101 17.189,21 17.006,21 L9.006,21 C8.822,21 8.653,21.101 8.565,21.263 L5.06,27.763 C4.98,27.911 4.98,28.089 5.06,28.237 L8.565,34.737 C8.653,34.899 8.822,35 9.006,35 L17.006,35 C17.189,35 17.358,34.899 17.446,34.737 L20.952,28.237 C21.031,28.089 21.031,27.911 20.952,27.763 L17.446,21.263 Z M8.676,13.5 L10.553,16.75 C10.582,16.802 10.621,16.847 10.665,16.884 L11.887,19 L9.305,19 L6.338,13.5 L8.676,13.5 Z M9.305,7 L16.707,7 L19.674,12.5 L17.336,12.5 L15.459,9.25 C15.37,9.095 15.205,9 15.026,9 L10.985,9 C10.807,9 10.642,9.095 10.553,9.25 L8.676,12.5 L6.338,12.5 L9.305,7 Z M16.947,18.555 L15.552,16.59 L17.336,13.5 L19.674,13.5 L16.947,18.555 Z M11.31,16 L9.56,12.97 L11.274,10 L14.737,10 L16.47,13 L14.737,16 L11.31,16 Z M13.042,19 L11.887,17 L14.617,17 L16.037,19 L13.042,19 Z M8.565,19.737 C8.653,19.899 8.822,20 9.006,20 L17.006,20 C17.189,20 17.358,19.899 17.446,19.737 L20.952,13.237 C21.031,13.089 21.031,12.911 20.952,12.763 L17.446,6.263 C17.358,6.101 17.189,6 17.006,6 L9.006,6 C8.822,6 8.653,6.101 8.565,6.263 L5.06,12.763 C4.98,12.911 4.98,13.089 5.06,13.237 L8.565,19.737 Z M14.737,31 L11.274,31 L9.542,28 L11.274,25 L14.737,25 L16.47,28 L14.737,31 Z M15.026,24 L10.985,24 C10.807,24 10.642,24.095 10.553,24.25 L8.532,27.75 C8.442,27.905 8.442,28.095 8.532,28.25 L10.553,31.75 C10.642,31.905 10.807,32 10.985,32 L15.026,32 C15.205,32 15.37,31.905 15.459,31.75 L17.479,28.25 C17.569,28.095 17.569,27.905 17.479,27.75 L15.459,24.25 C15.37,24.095 15.205,24 15.026,24 L15.026,24 Z M23.293,14 L30.719,14 L33.641,19 L31.273,19 L29.422,16.223 C29.329,16.083 29.173,16 29.006,16 L25.006,16 C24.839,16 24.683,16.083 24.59,16.223 L22.738,19 L20.371,19 L23.293,14 Z M19.066,19.749 C19.155,19.904 19.321,20 19.5,20 L23.006,20 C23.173,20 23.329,19.917 23.422,19.777 L25.273,17 L28.738,17 L30.59,19.777 C30.683,19.917 30.839,20 31.006,20 L34.512,20 C34.69,20 34.856,19.904 34.945,19.749 C35.034,19.594 35.034,19.402 34.943,19.248 L31.437,13.248 C31.348,13.094 31.184,13 31.006,13 L23.006,13 C22.828,13 22.664,13.094 22.574,13.248 L19.068,19.248 C18.978,19.402 18.978,19.594 19.066,19.749 L19.066,19.749 Z M30.719,27.01 L23.293,27.01 L20.37,21.99 L22.737,21.99 L24.59,24.777 C24.682,24.916 24.839,25 25.006,25 L29.006,25 C29.173,25 29.33,24.916 29.422,24.777 L31.274,21.99 L33.642,21.99 L30.719,27.01 Z M34.512,20.99 L31.006,20.99 C30.839,20.99 30.682,21.074 30.59,21.213 L28.737,24 L25.274,24 L23.422,21.213 C23.33,21.074 23.173,20.99 23.006,20.99 L19.5,20.99 C19.321,20.99 19.155,21.085 19.066,21.241 C18.978,21.396 18.978,21.587 19.068,21.741 L22.574,27.762 C22.663,27.916 22.828,28.01 23.006,28.01 L31.006,28.01 C31.184,28.01 31.349,27.916 31.437,27.762 L34.943,21.741 C35.034,21.587 35.034,21.396 34.945,21.241 C34.856,21.085 34.69,20.99 34.512,20.99 L34.512,20.99 Z" id="AWS-Well-Architect-Tool_Icon_32_Squid" fill="#FFFFFF"></path>
    </g>
</svg>