<?xml version="1.0" encoding="UTF-8"?>
<svg width="40px" height="40px" viewBox="0 0 40 40" version="1.1" xmlns="http://www.w3.org/2000/svg" xmlns:xlink="http://www.w3.org/1999/xlink">
    <title>Icon-Architecture/32/Arch_AWS-Systems-Manager-Incident-Manager_32</title>
    <defs>
        <linearGradient x1="0%" y1="100%" x2="100%" y2="0%" id="linearGradient-1">
            <stop stop-color="#B0084D" offset="0%"></stop>
            <stop stop-color="#FF4F8B" offset="100%"></stop>
        </linearGradient>
    </defs>
    <g id="Icon-Architecture/32/Arch_AWS-Systems-Manager-Incident-Manager_32" stroke="none" stroke-width="1" fill="none" fill-rule="evenodd">
        <g id="Rectangle" fill="url(#linearGradient-1)">
            <rect x="0" y="0" width="40" height="40"></rect>
        </g>
        <g id="Icon-Service/32/AWS-Systems-Manager-Incident-Manager_32" transform="translate(4.000000, 4.000000)" fill="#FFFFFF">
            <path d="M18.286,9.14432933 C17.172,9.30432933 16.127,9.68632933 15.18,10.2783293 L14.65,9.43032933 C15.716,8.76432933 16.891,8.33432933 18.143,8.15432933 L18.286,9.14432933 Z M14.326,10.8943293 C12.576,12.3423293 11.517,14.4673293 11.423,16.7243293 L10.423,16.6823293 C10.53,14.1433293 11.721,11.7523293 13.689,10.1243293 L14.326,10.8943293 Z M15.103,15.1603293 C14.837,15.8243293 14.75,16.5523293 14.852,17.2653293 L13.862,17.4073293 C13.735,16.5203293 13.844,15.6153293 14.176,14.7873293 L15.103,15.1603293 Z M14.649,13.8813293 C15.45,12.6653293 16.736,11.8483293 18.178,11.6413293 L18.32,12.6313293 C17.162,12.7973293 16.129,13.4543293 15.485,14.4313293 L14.649,13.8813293 Z M29.983,15.6953293 L28.985,15.6483293 C28.989,15.5563293 28.986,15.1223293 28.985,14.8583293 L28.984,14.6643293 C28.984,11.4173293 26.213,10.6023293 25.021,10.4013293 C24.887,10.3783293 24.766,10.3023293 24.69,10.1883293 C24.613,10.0753293 24.587,9.93632933 24.616,9.80232933 C24.615,8.41832933 23.998,7.38532933 22.923,7.02232933 C21.948,6.69532933 20.83,7.03932933 20.206,7.86032933 C20.095,8.00532933 19.912,8.07832933 19.733,8.05232933 C19.553,8.02532933 19.401,7.90132933 19.338,7.73032933 C18.924,6.59932933 18.326,5.65032933 17.564,4.91232933 C15.607,3.00832933 12.933,2.49132933 10.405,3.53232933 C8.305,4.39032933 6.66,6.86532933 6.66,9.16632933 L6.71,9.96432933 C6.724,10.2063293 6.565,10.4233293 6.331,10.4803293 C5.087,10.7883293 3,11.7333293 3,14.6203293 C3,16.7763293 4.216,17.9753293 5.236,18.6003293 C5.646,18.8533293 5.952,18.9523293 6.329,18.9523293 L14.978,18.9523293 L14.978,19.9523293 L6.329,19.9523293 C5.763,19.9523293 5.279,19.8023293 4.712,19.4523293 C3.7,18.8313293 2,17.3773293 2,14.6203293 C2,11.2813293 4.328,10.0543293 5.687,9.62332933 L5.661,9.19732933 C5.66,6.44332933 7.537,3.62332933 10.025,2.60632933 C12.933,1.41132933 16.01,2.00432933 18.261,4.19432933 C18.962,4.87432933 19.538,5.70332933 19.98,6.66532933 C20.881,5.93332933 22.11,5.69432933 23.242,6.07532933 C24.631,6.54232933 25.497,7.80932933 25.603,9.49832933 C27.022,9.82832933 29.984,10.9613293 29.984,14.6643293 L29.985,14.8533293 C29.98625,15.1343293 29.988,15.5973293 29.983,15.6953293 L29.983,15.6953293 Z M23.397,28.0193293 L24.397,28.0193293 C24.397,29.0733293 23.54,29.9313293 22.485,29.9313293 C21.431,29.9313293 20.573,29.0733293 20.573,28.0193293 L21.573,28.0193293 C21.573,28.5213293 21.982,28.9313293 22.485,28.9313293 C22.988,28.9313293 23.397,28.5213293 23.397,28.0193293 L23.397,28.0193293 Z M27.978,26.9363293 L16.978,26.9363293 C16.427,26.9363293 15.978,26.4883293 15.978,25.9363293 C15.978,25.3853293 16.427,24.9363293 16.978,24.9363293 L27.978,24.9363293 C28.53,24.9363293 28.978,25.3853293 28.978,25.9363293 C28.978,26.4883293 28.53,26.9363293 27.978,26.9363293 L27.978,26.9363293 Z M21.062,15.1203293 C21.283,15.0623293 21.436,14.8643293 21.436,14.6363293 L21.436,13.2953293 C21.436,13.0003293 21.587,12.7383293 21.82,12.6273293 C22.134,12.4773293 22.465,12.4853293 22.727,12.6523293 C22.96,12.7983293 23.098,13.0433293 23.098,13.3063293 L23.098,14.5073293 C23.098,14.7423293 23.262,14.9453293 23.491,14.9953293 C25.529,15.4433293 26.898,17.1893293 26.898,19.3393293 L26.898,23.9363293 L17.919,23.9363293 L17.919,19.2603293 C17.919,17.2743293 19.182,15.6103293 21.062,15.1203293 L21.062,15.1203293 Z M27.978,23.9363293 L27.898,23.9363293 L27.898,19.3393293 C27.898,16.8483293 26.388,14.7983293 24.098,14.1203293 L24.098,13.3063293 C24.098,12.6983293 23.786,12.1373293 23.262,11.8063293 C22.712,11.4593293 22.013,11.4283293 21.39,11.7243293 C20.81,11.9993293 20.436,12.6173293 20.436,13.2953293 L20.436,14.2643293 C18.317,14.9843293 16.919,16.9453293 16.919,19.2603293 L16.919,23.9423293 C15.845,23.9753293 14.978,24.8543293 14.978,25.9363293 C14.978,27.0403293 15.876,27.9363293 16.978,27.9363293 L27.978,27.9363293 C29.081,27.9363293 29.978,27.0403293 29.978,25.9363293 C29.978,24.8333293 29.081,23.9363293 27.978,23.9363293 L27.978,23.9363293 Z" id="Fill-5"></path>
        </g>
    </g>
</svg>