<?xml version="1.0" encoding="UTF-8"?>
<svg width="40px" height="40px" viewBox="0 0 40 40" version="1.1" xmlns="http://www.w3.org/2000/svg" xmlns:xlink="http://www.w3.org/1999/xlink">
    <title>Icon-Architecture/32/Arch_Application-Auto-Scaling_32</title>
    <defs>
        <linearGradient x1="0%" y1="100%" x2="100%" y2="0%" id="linearGradient-1">
            <stop stop-color="#B0084D" offset="0%"></stop>
            <stop stop-color="#FF4F8B" offset="100%"></stop>
        </linearGradient>
    </defs>
    <g id="Icon-Architecture/32/Arch_Application-Auto-Scaling_32" stroke="none" stroke-width="1" fill="none" fill-rule="evenodd">
        <g id="Rectangle" fill="url(#linearGradient-1)">
            <rect x="0" y="0" width="40" height="40"></rect>
        </g>
        <g id="Icon-Service/32/AWS-Application-Auto-Scaling_32" transform="translate(4.000000, 4.000000)" fill="#FFFFFF">
            <path d="M8.854,15.14625 C9.049,15.34125 9.049,15.65825 8.854,15.85325 L5.354,19.35325 L4.647,18.64625 L7.293,16.00025 L2,16.00025 L2,15.00025 L7.293,15.00025 L4.647,12.35325 L5.354,11.64625 L8.854,15.14625 Z M30,16.00025 L24.708,16.00025 L27.354,18.64625 L26.647,19.35325 L23.147,15.85325 C22.952,15.65825 22.952,15.34125 23.147,15.14625 L26.647,11.64625 L27.354,12.35325 L24.708,15.00025 L30,15.00025 L30,16.00025 Z M19.647,25.64625 L20.354,26.35325 L16.854,29.85325 C16.756,29.95125 16.628,30.00025 16.5,30.00025 C16.373,30.00025 16.245,29.95125 16.147,29.85325 L12.647,26.35325 L13.354,25.64625 L16,28.29225 L16,24.00025 L17,24.00025 L17,28.29225 L19.647,25.64625 Z M13.354,6.35325 L12.647,5.64625 L16.147,2.14625 C16.342,1.95125 16.659,1.95125 16.854,2.14625 L20.354,5.64625 L19.647,6.35325 L17,3.70725 L17,8.00025 L16,8.00025 L16,3.70725 L13.354,6.35325 Z M20,12.79325 C19.524,12.64925 18.991,12.68625 18.494,12.91725 C18.115,13.09525 17.809,13.39825 17.632,13.77225 C17.317,14.44025 17.351,15.16425 17.726,15.75625 C18.202,16.50725 19.169,16.85325 20,16.60025 L20,19.00025 L17.5,19.00025 C17.295,19.00025 17.112,19.12425 17.036,19.31425 C16.96,19.50425 17.008,19.72225 17.157,19.86225 C17.292,19.99225 17.717,20.45225 17.45,20.95125 C17.379,21.08325 17.254,21.26025 17.06,21.35125 C16.568,21.58125 16.198,21.42625 16.019,21.31325 C15.731,21.12925 15.559,20.81725 15.559,20.47925 C15.559,20.22425 15.634,20.06325 15.844,19.86225 C15.993,19.72125 16.041,19.50425 15.965,19.31425 C15.889,19.12425 15.706,19.00025 15.5,19.00025 L12,19.00025 L12,11.50025 C12,11.30725 12.274,11.00025 12.5,11.00025 L20,11.00025 L20,12.79325 Z M20.5,10.00025 L12.5,10.00025 C11.744,10.00025 11,10.74325 11,11.50025 L11,19.50025 C11,19.77625 11.224,20.00025 11.5,20.00025 L14.619,20.00025 C14.579,20.15025 14.559,20.30925 14.559,20.47925 C14.559,21.16125 14.904,21.78825 15.482,22.15625 C15.81,22.36525 16.178,22.47025 16.555,22.47025 C16.864,22.47025 17.18,22.39925 17.485,22.25725 C17.835,22.09225 18.128,21.80425 18.333,21.42225 C18.57,20.97725 18.593,20.47325 18.422,20.00025 L20.5,20.00025 C20.777,20.00025 21,19.77625 21,19.50025 L21,15.72225 C21,15.51825 20.876,15.33425 20.687,15.25825 C20.498,15.18125 20.283,15.22825 20.14,15.37525 C19.705,15.82925 18.902,15.74225 18.571,15.22225 C18.46,15.04725 18.309,14.68225 18.537,14.19925 C18.614,14.03625 18.75,13.90225 18.917,13.82325 C19.368,13.61325 19.823,13.68525 20.14,14.01525 C20.281,14.16225 20.498,14.21025 20.687,14.13325 C20.876,14.05725 21,13.87325 21,13.66925 L21,10.50025 C21,10.22325 20.777,10.00025 20.5,10.00025 L20.5,10.00025 Z" id="AWS-Application-Auto-Scaling_32_Squid"></path>
        </g>
    </g>
</svg>