<?xml version="1.0" encoding="UTF-8"?>
<svg width="40px" height="40px" viewBox="0 0 40 40" version="1.1" xmlns="http://www.w3.org/2000/svg" xmlns:xlink="http://www.w3.org/1999/xlink">
    <title>Icon-Architecture/32/Arch_CN-Himalia_32</title>
    <defs>
        <linearGradient x1="0%" y1="100%" x2="100%" y2="0%" id="linearGradient-1">
            <stop stop-color="#B0084D" offset="0%"></stop>
            <stop stop-color="#FF4F8B" offset="100%"></stop>
        </linearGradient>
    </defs>
    <g id="Icon-Architecture/32/Arch_CN-Himalia_32" stroke="none" stroke-width="1" fill="none" fill-rule="evenodd">
        <g id="Rectangle" fill="url(#linearGradient-1)">
            <rect x="0" y="0" width="40" height="40"></rect>
        </g>
        <g id="Icon-Service/32/CN-Himalia_32" transform="translate(4.000000, 4.000000)" fill="#FFFFFF">
            <path d="M29,5 L27.5,5 C26.175,5 26.016,6.352 26,6.53 L26,12 L25,12 L25,7 L23,7 L23,14 L25.5,14 C25.763,14 25.98,14.203 25.999,14.464 C26.012,14.62 26.162,16 27.5,16 L29,16 L29,5 Z M3,12 L11,12 L11,9 L3,9 L3,12 Z M30,4.5 L30,16.5 C30,16.776 29.776,17 29.5,17 L27.5,17 C25.961,17 25.289,15.868 25.076,15 L22.5,15 L21,15 L21,14 L22,14 L22,7 L13.5,7 C12.673,7 12,7.673 12,8.5 L12,9 L12,12 L12,12.5 C12,13.327 12.673,14 13.5,14 L15,14 L15,15 L13.5,15 C12.292,15 11.283,14.14 11.051,13 L3,13 L3,15 L2,15 L2,12.5 L2,8.5 L2,6 L3,6 L3,8 L11.051,8 C11.283,6.86 12.292,6 13.5,6 L22.5,6 L23,6 L25.076,6 C25.289,5.132 25.961,4 27.5,4 L29.5,4 C29.776,4 30,4.224 30,4.5 L30,4.5 Z M25.5,22 L29,22 L29,23 L25.839,23 L23.964,27.686 C23.889,27.876 23.704,28 23.5,28 L23.489,28 C23.281,27.996 23.098,27.863 23.028,27.667 L17.514,12.041 L12.975,25.658 C12.909,25.855 12.729,25.991 12.521,26 C12.318,26.012 12.121,25.887 12.04,25.697 L9.507,19.786 L7.467,24.692 C7.389,24.878 7.207,25 7.005,25 L3,25 L3,24 L6.671,24 L9.038,18.308 C9.115,18.123 9.296,18.001 9.497,18 L9.5,18 C9.7,18 9.881,18.119 9.96,18.303 L12.441,24.094 L17.025,10.342 C17.093,10.139 17.282,10.002 17.496,10 C17.718,9.984 17.901,10.133 17.972,10.333 L23.529,26.081 L25.036,22.314 C25.111,22.125 25.296,22 25.5,22 L25.5,22 Z" id="Fill-5"></path>
        </g>
    </g>
</svg>