<?xml version="1.0" encoding="UTF-8"?>
<svg width="40px" height="40px" viewBox="0 0 40 40" version="1.1" xmlns="http://www.w3.org/2000/svg" xmlns:xlink="http://www.w3.org/1999/xlink">
    <!-- Generator: Sketch 64 (93537) - https://sketch.com -->
    <title>Icon-Architecture/32/Arch_AWS-Control-Tower_32</title>
    <desc>Created with Sketch.</desc>
    <defs>
        <linearGradient x1="0%" y1="100%" x2="100%" y2="0%" id="linearGradient-1">
            <stop stop-color="#B0084D" offset="0%"></stop>
            <stop stop-color="#FF4F8B" offset="100%"></stop>
        </linearGradient>
    </defs>
    <g id="Icon-Architecture/32/Arch_AWS-Control-Tower_32" stroke="none" stroke-width="1" fill="none" fill-rule="evenodd">
        <g id="Icon-Architecture-BG/32/Management-Governance" fill="url(#linearGradient-1)">
            <rect id="Rectangle" x="0" y="0" width="40" height="40"></rect>
        </g>
        <path d="M10.8475407,23.3402744 L13.0198024,25.4125317 L13.7357423,24.7139186 L11.5634807,22.6416613 L10.8475407,23.3402744 Z M15.9171696,28.1765239 L18.0884128,30.2487812 L18.8043527,29.5501682 L16.6331095,27.4779109 L15.9171696,28.1765239 Z M28.1451795,16.3531613 L30.2889258,18.4529307 L31.0150498,17.7641435 L28.8713036,15.664374 L28.1451795,16.3531613 Z M26.0136542,12.8630437 L23.869908,10.7622917 L23.1437839,11.4510789 L25.2875302,13.551831 L26.0136542,12.8630437 Z M22.2394387,29.5501682 L22.9553787,30.2487812 L25.1266219,28.1755414 L24.410682,27.4769283 L22.2394387,29.5501682 Z M27.3070308,24.712936 L28.0229707,25.4115491 L30.1952323,23.3392918 L29.4792924,22.6406787 L27.3070308,24.712936 Z M12.1989665,15.6692869 L10.0491098,17.7631609 L10.773197,18.4548959 L12.9230537,16.3610219 L12.1989665,15.6692869 Z M17.9417622,11.4746608 L17.217675,10.7829258 L15.0667999,12.8777824 L15.7908871,13.5695174 L17.9417622,11.4746608 Z M23.0195383,20.5802124 L20.9908721,20.5802124 L20.9908721,22.4372851 C21.4858177,22.3439401 21.9583585,22.1130343 22.3412794,21.7435849 C22.6793905,21.417369 22.9044584,21.0154945 23.0195383,20.5802124 L23.0195383,20.5802124 Z M19.9724653,22.4372851 L19.9724653,20.5802124 L17.9448174,20.5802124 C18.0578606,21.0066513 18.2757996,21.4114735 18.6210395,21.7435849 C19.0039605,22.1130343 19.4775196,22.3439401 19.9724653,22.4372851 L19.9724653,22.4372851 Z M17.8867683,19.5976343 L19.9724653,19.5976343 L19.9724653,17.4605268 C19.4775196,17.5538717 19.0039605,17.7847776 18.6210395,18.154227 C18.2014559,18.5600317 17.9621304,19.0699898 17.8867683,19.5976343 L17.8867683,19.5976343 Z M20.9908721,17.4605268 L20.9908721,19.5976343 L23.0765691,19.5976343 C22.9991702,19.0542685 22.7506789,18.5492234 22.3412794,18.154227 C21.9583585,17.7857602 21.4858177,17.5538717 20.9908721,17.4605268 L20.9908721,17.4605268 Z M29.3896726,20.0908885 L26.9342939,22.4058426 L26.2224276,21.7032992 L27.4139635,20.5802124 L24.0664605,20.5802124 C23.9361044,21.279808 23.5939197,21.9253619 23.061293,22.4382676 C22.4808011,22.9993198 21.7485667,23.3186576 20.9908721,23.4208458 L20.9908721,26.8166358 L22.2414756,25.6208382 L22.9584339,26.3184687 L20.4745398,28.6953252 L18.0812839,26.3106081 L18.8125,25.6277163 L19.9724653,26.7822456 L19.9724653,23.4208458 C19.2147707,23.3186576 18.4825362,22.9993198 17.901026,22.4382676 C17.3571967,21.9135709 17.0241777,21.261139 16.8968769,20.5802124 L13.6002942,20.5802124 L14.859045,21.6915083 L14.1736572,22.4176335 L11.5288549,20.084993 L14.1777308,17.8034466 L14.8559897,18.5364499 L13.6237176,19.5976343 L16.8693799,19.5976343 C16.949834,18.8174672 17.2818346,18.0569517 17.901026,17.4595442 C18.4825362,16.8984921 19.2147707,16.5801368 19.9724653,16.4769661 L19.9724653,13.4024791 L18.8298129,14.5501304 L18.0955416,13.8682212 L20.4714846,11.483504 L22.9726916,13.859378 L22.2587885,14.5589736 L20.9908721,13.3553154 L20.9908721,16.4769661 C21.7485667,16.5791542 22.4808011,16.8984921 23.061293,17.4595442 C23.6631714,18.0402479 24.0124849,18.7919202 24.0949759,19.5976343 L27.4190555,19.5976343 L26.2214092,18.4588262 L26.9353123,17.758248 L29.3896726,20.0908885 Z M19.3492004,31.8769132 L20.5132393,33 L21.6782966,31.8769132 L20.5132393,30.7528438 L19.3492004,31.8769132 Z M7,20.0820453 L8.31985516,21.3554665 L9.63971032,20.0820453 L8.31985516,18.8076414 L7,20.0820453 Z M32.7463413,18.871509 L31.4916642,20.0820453 L32.7463413,21.2925815 L34,20.0820453 L32.7463413,18.871509 Z M20.4816687,9.42991573 L19.2229179,8.21446657 L20.4816687,7 L21.7404194,8.21446657 L20.4816687,9.42991573 Z" id="AWS-Control-Tower_Icon_32_Squid" fill="#FFFFFF"></path>
    </g>
</svg>