<?xml version="1.0" encoding="UTF-8"?>
<svg width="40px" height="40px" viewBox="0 0 40 40" version="1.1" xmlns="http://www.w3.org/2000/svg" xmlns:xlink="http://www.w3.org/1999/xlink">
    <!-- Generator: Sketch 64 (93537) - https://sketch.com -->
    <title>Icon-Architecture/32/Arch_AWS-Chatbot_32</title>
    <desc>Created with Sketch.</desc>
    <defs>
        <linearGradient x1="0%" y1="100%" x2="100%" y2="0%" id="linearGradient-1">
            <stop stop-color="#B0084D" offset="0%"></stop>
            <stop stop-color="#FF4F8B" offset="100%"></stop>
        </linearGradient>
    </defs>
    <g id="Icon-Architecture/32/Arch_AWS-Chatbot_32" stroke="none" stroke-width="1" fill="none" fill-rule="evenodd">
        <g id="Icon-Architecture-BG/32/Management-Governance" fill="url(#linearGradient-1)">
            <rect id="Rectangle" x="0" y="0" width="40" height="40"></rect>
        </g>
        <path d="M31.5,28 L31.5,24 C32.327,24 33,24.897 33,26 C33,27.103 32.327,28 31.5,28 L31.5,28 Z M9.5,28 C8.673,28 8,27.103 8,26 C8,24.897 8.673,24 9.5,24 L9.5,28 Z M31.5,23 L31.5,22.944 C31.5,21.321 30.229,20 28.667,20 L20.5,20 L20.5,21 L28.667,21 C29.678,21 30.5,21.872 30.5,22.944 L30.5,29.056 C30.5,30.128 29.678,31 28.667,31 L12.333,31 C11.322,31 10.5,30.128 10.5,29.056 L10.5,22.944 C10.5,21.872 11.322,21 12.333,21 L15.5,21 L15.5,20 L12.333,20 C10.771,20 9.5,21.321 9.5,22.944 L9.5,23 C8.121,23 7,24.346 7,26 C7,27.654 8.121,29 9.5,29 L9.5,29.056 C9.5,30.679 10.771,32 12.333,32 L17.5,32 L17.5,34 L18.5,34 L18.5,32 L22.5,32 L22.5,34 L23.5,34 L23.5,32 L28.667,32 C30.229,32 31.5,30.679 31.5,29.056 L31.5,29 C32.879,29 34,27.654 34,26 C34,24.346 32.879,23 31.5,23 L31.5,23 Z M20.5,11 L22.5,11 L22.5,10 L20.5,10 L20.5,11 Z M16.5,11 L18.5,11 L18.5,10 L16.5,10 L16.5,11 Z M12.5,11 L14.5,11 L14.5,10 L12.5,10 L12.5,11 Z M16,27 C15.173,27 14.5,26.327 14.5,25.5 C14.5,24.673 15.173,24 16,24 C16.827,24 17.5,24.673 17.5,25.5 C17.5,26.327 16.827,27 16,27 L16,27 Z M16,23 C14.621,23 13.5,24.122 13.5,25.5 C13.5,26.878 14.621,28 16,28 C17.379,28 18.5,26.878 18.5,25.5 C18.5,24.122 17.379,23 16,23 L16,23 Z M23.5,25.5 C23.5,24.673 24.173,24 25,24 C25.827,24 26.5,24.673 26.5,25.5 C26.5,26.327 25.827,27 25,27 C24.173,27 23.5,26.327 23.5,25.5 L23.5,25.5 Z M27.5,25.5 C27.5,24.122 26.379,23 25,23 C23.621,23 22.5,24.122 22.5,25.5 C22.5,26.878 23.621,28 25,28 C26.379,28 27.5,26.878 27.5,25.5 L27.5,25.5 Z M10.5,7.455 C10.5,7.204 10.704,7 10.955,7 L24.067,7 C24.306,7 24.5,7.194 24.5,7.432 L24.5,14.529 C24.5,14.789 24.289,15 24.029,15 L18,15 C17.724,15 17.5,15.224 17.5,15.5 L17.5,18.261 L15.298,15.208 C15.204,15.077 15.054,15 14.893,15 L10.955,15 C10.704,15 10.5,14.796 10.5,14.545 L10.5,7.455 Z M10.955,16 L14.637,16 L17.595,20.102 C17.69,20.235 17.843,20.31 18,20.31 C18.051,20.31 18.104,20.302 18.153,20.285 C18.36,20.219 18.5,20.026 18.5,19.81 L18.5,16 L24.029,16 C24.84,16 25.5,15.34 25.5,14.529 L25.5,7.432 C25.5,6.643 24.857,6 24.067,6 L10.955,6 C10.152,6 9.5,6.652 9.5,7.455 L9.5,14.545 C9.5,15.348 10.152,16 10.955,16 L10.955,16 Z" id="AWS-Chatbot_Icon_32_Squid" fill="#FFFFFF"></path>
    </g>
</svg>