<?xml version="1.0" encoding="UTF-8"?>
<svg width="40px" height="40px" viewBox="0 0 40 40" version="1.1" xmlns="http://www.w3.org/2000/svg" xmlns:xlink="http://www.w3.org/1999/xlink">
    <!-- Generator: Sketch 64 (93537) - https://sketch.com -->
    <title>Icon-Architecture/32/Arch_AWS-License-Manager_32</title>
    <desc>Created with Sketch.</desc>
    <defs>
        <linearGradient x1="0%" y1="100%" x2="100%" y2="0%" id="linearGradient-1">
            <stop stop-color="#B0084D" offset="0%"></stop>
            <stop stop-color="#FF4F8B" offset="100%"></stop>
        </linearGradient>
    </defs>
    <g id="Icon-Architecture/32/Arch_AWS-License-Manager_32" stroke="none" stroke-width="1" fill="none" fill-rule="evenodd">
        <g id="Icon-Architecture-BG/32/Management-Governance" fill="url(#linearGradient-1)">
            <rect id="Rectangle" x="0" y="0" width="40" height="40"></rect>
        </g>
        <path d="M20,26.015 C17.777,26.015 15.969,24.206 15.969,21.984 C15.969,19.761 17.777,17.953 20,17.953 C22.223,17.953 24.031,19.761 24.031,21.984 C24.031,24.206 22.223,26.015 20,26.015 L20,26.015 Z M20,16.953 C17.226,16.953 14.969,19.21 14.969,21.984 C14.969,24.758 17.226,27.015 20,27.015 C22.774,27.015 25.031,24.758 25.031,21.984 C25.031,19.21 22.774,16.953 20,16.953 L20,16.953 Z M21.919,20.116 L22.626,20.823 L19.596,23.852 C19.498,23.95 19.37,23.998 19.242,23.998 C19.114,23.998 18.986,23.95 18.889,23.852 L17.374,22.337 L18.081,21.63 L19.242,22.791 L21.919,20.116 Z M13,14.974 L27,14.974 L27,13.974 L13,13.974 L13,14.974 Z M13,12.974 L27,12.974 L27,11.974 L13,11.974 L13,12.974 Z M13,9.974 L19,9.974 L19,8.974 L13,8.974 L13,9.974 Z M21.977,28.022 L22.977,28.022 L22.977,32.974 C22.977,33.177 22.854,33.359 22.668,33.436 C22.606,33.462 22.541,33.474 22.477,33.474 C22.347,33.474 22.219,33.424 22.123,33.328 L20,31.205 L17.877,33.328 C17.733,33.472 17.518,33.515 17.332,33.436 C17.146,33.359 17.023,33.177 17.023,32.974 L17.023,28.022 L18.023,28.022 L18.023,31.767 L19.646,30.145 C19.842,29.95 20.158,29.95 20.354,30.145 L21.977,31.767 L21.977,28.022 Z M25,7.702 L27.287,9.974 L25,9.974 L25,7.702 Z M28.853,10.12 L24.853,6.145 C24.759,6.052 24.632,6 24.5,6 L11.5,6 C11.224,6 11,6.223 11,6.5 L11,30.474 C11,30.751 11.224,30.974 11.5,30.974 L16,30.974 L16,29.974 L12,29.974 L12,7 L24,7 L24,10.474 C24,10.751 24.224,10.974 24.5,10.974 L28,10.974 L28,29.974 L24,29.974 L24,30.974 L28.5,30.974 C28.776,30.974 29,30.751 29,30.474 L29,10.474 C29,10.341 28.947,10.214 28.853,10.12 L28.853,10.12 Z" id="AWS-License-Manager_Icon_32_Squid" fill="#FFFFFF"></path>
    </g>
</svg>