<?xml version="1.0" encoding="UTF-8"?>
<svg width="40px" height="40px" viewBox="0 0 40 40" version="1.1" xmlns="http://www.w3.org/2000/svg" xmlns:xlink="http://www.w3.org/1999/xlink">
    <title>Icon-Architecture/32/Arch_CN-Arrow_Management-Governance_32</title>
    <defs>
        <linearGradient x1="0%" y1="100%" x2="100%" y2="0%" id="linearGradient-1">
            <stop stop-color="#B0084D" offset="0%"></stop>
            <stop stop-color="#FF4F8B" offset="100%"></stop>
        </linearGradient>
    </defs>
    <g id="Icon-Architecture/32/Arch_CN-Arrow_Management-Governance_32" stroke="none" stroke-width="1" fill="none" fill-rule="evenodd">
        <g id="Rectangle" fill="url(#linearGradient-1)">
            <rect x="0" y="0" width="40" height="40"></rect>
        </g>
        <g id="Icon-Service/32/CN-Arrow_32" transform="translate(4.000000, 4.000000)" fill="#FFFFFF">
            <path d="M13.133,9.812 L10.657,6.717 L11.439,6.092 L13.764,9 L22.293,9 L21.147,7.853 L21.854,7.146 L23.854,9.146 C24.049,9.341 24.049,9.658 23.854,9.853 L21.854,11.853 L21.147,11.146 L22.293,9.999 L13.524,9.999 C13.371,9.999 13.228,9.931 13.133,9.812 L13.133,9.812 Z M23.854,22.146 C24.049,22.341 24.049,22.658 23.854,22.853 L21.854,24.853 L21.147,24.146 L22.293,23 L13.764,23 L11.439,25.907 L10.657,25.282 L13.133,22.187 C13.228,22.068 13.371,22 13.524,22 L22.293,22 L21.147,20.853 L21.854,20.146 L23.854,22.146 Z M29.854,16.353 L27.854,18.353 L27.147,17.646 L28.293,16.499 L17,16.499 L17,15.499 L28.293,15.499 L27.147,14.353 L27.854,13.646 L29.854,15.646 C30.049,15.841 30.049,16.158 29.854,16.353 L29.854,16.353 Z M5,28.999 C3.898,28.999 3,28.103 3,26.999 C3,25.896 3.898,25 5,25 C6.103,25 7,25.896 7,26.999 C7,28.103 6.103,28.999 5,28.999 L5,28.999 Z M12,13.999 C13.103,13.999 14,14.896 14,15.999 C14,17.103 13.103,18 12,18 C10.898,18 10,17.103 10,15.999 C10,14.896 10.898,13.999 12,13.999 L12,13.999 Z M3,5 C3,3.896 3.898,3 5,3 C6.103,3 7,3.896 7,5 C7,6.103 6.103,6.999 5,6.999 C3.898,6.999 3,6.103 3,5 L3,5 Z M6.947,24.737 L11.339,18.92 C11.553,18.969 11.773,19 12,19 C13.654,19 15,17.654 15,15.999 C15,14.345 13.654,13 12,13 C11.773,13 11.553,13.03 11.339,13.079 L6.947,7.262 C7.586,6.712 8,5.907 8,5 C8,3.345 6.654,2 5,2 C3.346,2 2,3.345 2,5 C2,6.654 3.346,8 5,8 C5.404,8 5.787,7.917 6.139,7.772 L6.101,7.801 L10.387,13.478 C9.556,14.012 9,14.94 9,15.999 C9,17.059 9.556,17.987 10.387,18.521 L6.101,24.198 L6.139,24.227 C5.787,24.082 5.404,24 5,24 C3.346,24 2,25.345 2,26.999 C2,28.654 3.346,29.999 5,29.999 C6.654,29.999 8,28.654 8,26.999 C8,26.092 7.586,25.287 6.947,24.737 L6.947,24.737 Z" id="Fill-3"></path>
        </g>
    </g>
</svg>