<?xml version="1.0" encoding="UTF-8"?>
<svg width="40px" height="40px" viewBox="0 0 40 40" version="1.1" xmlns="http://www.w3.org/2000/svg" xmlns:xlink="http://www.w3.org/1999/xlink">
    <!-- Generator: Sketch 64 (93537) - https://sketch.com -->
    <title>Icon-Architecture/32/Arch_AWS-Service-Catalog_32</title>
    <desc>Created with Sketch.</desc>
    <defs>
        <linearGradient x1="0%" y1="100%" x2="100%" y2="0%" id="linearGradient-1">
            <stop stop-color="#B0084D" offset="0%"></stop>
            <stop stop-color="#FF4F8B" offset="100%"></stop>
        </linearGradient>
    </defs>
    <g id="Icon-Architecture/32/Arch_AWS-Service-Catalog_32" stroke="none" stroke-width="1" fill="none" fill-rule="evenodd">
        <g id="Icon-Architecture-BG/32/Management-Governance" fill="url(#linearGradient-1)">
            <rect id="Rectangle" x="0" y="0" width="40" height="40"></rect>
        </g>
        <path d="M31.9210119,15.8376109 C31.7340919,15.9101889 31.5422006,15.9449866 31.3353955,15.9449866 C30.414715,15.9449866 29.6650464,15.1953456 29.6650464,14.274699 C29.6650464,13.6900983 29.9653115,13.1581913 30.4713875,12.8499834 C30.7318825,12.6879258 31.0231993,12.6054056 31.3353955,12.6054056 C32.256076,12.6054056 33.0057446,13.3540524 33.0057446,14.274699 C33.0057446,14.9666753 32.571255,15.5930331 31.9210119,15.8376109 L31.9210119,15.8376109 Z M31.3353955,11.6111868 C30.9953601,11.6111868 30.6712329,11.6966896 30.3630137,11.820967 C30.0925762,11.4749788 29.8102077,11.1409213 29.5099426,10.8366904 C27.1247238,8.36207976 23.9152673,7 20.4721608,7 C17.0499337,7 13.8484313,8.35213757 11.4582413,10.807858 L12.1711224,11.5008285 C14.3724039,9.23997496 17.3203712,7.9942188 20.4721608,7.9942188 C23.6428414,7.9942188 26.5977684,9.24892293 28.7970614,11.5306551 C29.0496023,11.7861693 29.274304,12.075487 29.5009943,12.3608278 C28.9800044,12.856943 28.670791,13.5350002 28.670791,14.274699 C28.670791,15.7441544 29.8668802,16.9392054 31.3353955,16.9392054 C31.6615113,16.9392054 31.979673,16.8805465 32.2739726,16.7672055 C33.307004,16.3794602 34,15.3782818 34,14.274699 C34,12.8062378 32.804905,11.6111868 31.3353955,11.6111868 L31.3353955,11.6111868 Z M22.1385329,31.4398866 C22.0828546,32.3177818 21.3520769,33.0057812 20.4721608,33.0057812 C19.5932391,33.0057812 18.8614671,32.3177818 18.8077773,31.4398866 C18.806783,31.427956 18.8047945,31.3474242 18.802806,31.3354936 C18.802806,30.414847 19.5524746,29.665206 20.4721608,29.665206 C21.3928414,29.665206 22.1425099,30.414847 22.1425099,31.3354936 L22.1385329,31.4398866 Z M31.9428856,17.9771698 C32.0194432,18.4911809 32.0582192,19.0300475 32.0582192,19.5788563 C32.0582192,24.6016497 28.857711,29.0259233 24.0862793,30.5888353 C23.7720946,30.6972051 23.435042,30.7856906 23.0890411,30.8652281 C22.8663279,29.6204662 21.780601,28.6709872 20.4721608,28.6709872 C19.0036456,28.6709872 17.8085506,29.8660382 17.8085506,31.3354936 C17.8085506,31.4001178 17.8105391,31.4726958 17.8145161,31.5015282 C17.9010163,32.9023824 19.0682722,34 20.4721608,34 C21.7507733,34 22.8235749,33.0873071 23.0711445,31.8852966 C23.536456,31.7888574 23.987848,31.6745222 24.4024525,31.5313547 C29.5765577,29.8362117 33.0524746,25.0331406 33.0524746,19.5788563 C33.0524746,18.982325 33.0107159,18.3947417 32.9281927,17.8320138 L31.9428856,17.9771698 Z M9.66361025,12.6054056 C9.95790985,12.6054056 10.2472382,12.6839489 10.5037561,12.8360644 C11.0227574,13.1373127 11.3339593,13.675185 11.3339593,14.274699 C11.3339593,15.1953456 10.5842908,15.9449866 9.66361025,15.9449866 C9.44387981,15.9449866 9.23409191,15.9042236 9.0382236,15.8246861 C8.4048829,15.565195 7.99425541,14.9577273 7.99425541,14.274699 C7.99425541,13.3540524 8.74292974,12.6054056 9.66361025,12.6054056 L9.66361025,12.6054056 Z M8.88809103,19.5788563 C8.88809103,19.0201053 8.92587274,18.4752734 9.00143615,17.9572854 C9.05214317,17.5934013 9.14361467,17.246419 9.22812638,16.8974482 C9.3703049,16.9213094 9.5154662,16.9392054 9.66361025,16.9392054 C11.1331198,16.9392054 12.3282148,15.7441544 12.3282148,14.274699 C12.3282148,13.3311853 11.8201502,12.4503075 11.0068493,11.9780535 C10.6011931,11.7374526 10.1368758,11.6111868 9.66361025,11.6111868 C8.19509501,11.6111868 7,12.8062378 7,14.274699 C7,15.2162242 7.48917366,16.065287 8.27364118,16.5454947 C8.16825011,16.960084 8.07876712,17.3846154 8.01712329,17.8171006 C7.93559434,18.3798284 7.89383562,18.9723828 7.89383562,19.5788563 C7.89383562,25.0331406 11.3687583,29.8362117 16.5418692,31.5313547 L16.8510826,30.5868469 C12.0885992,29.0259233 8.88809103,24.6016497 8.88809103,19.5788563 L8.88809103,19.5788563 Z M17.1314627,25.7638914 L17.1314627,22.5277092 L20.0028723,20.9011673 L20.0028723,24.1373495 L17.1314627,25.7638914 Z M13.2648034,20.9001731 L16.1372072,22.5277092 L16.1372072,25.7638914 L13.2648034,24.1373495 L13.2648034,20.9001731 Z M16.634335,18.4295393 L19.4908308,20.0481276 L16.634335,21.6657215 L13.7768449,20.0481276 L16.634335,18.4295393 Z M17.1314627,14.3323637 L20.0028723,15.9589056 L20.0028723,19.1950878 L17.1314627,17.5685459 L17.1314627,14.3323637 Z M20.5,11.8607357 L23.3564958,13.4793239 L20.5,15.0979121 L17.6435042,13.4793239 L20.5,11.8607357 Z M23.8675431,17.5685459 L20.9971277,19.1950878 L20.9971277,15.9589056 L23.8675431,14.3323637 L23.8675431,17.5685459 Z M27.2221608,20.0481276 L24.3646708,21.6657215 L21.508175,20.0481276 L24.3646708,18.4295393 L27.2221608,20.0481276 Z M27.7342024,24.1373495 L24.8617985,25.7638914 L24.8617985,22.5277092 L27.7342024,20.9011673 L27.7342024,24.1373495 Z M23.8675431,25.7638914 L20.9971277,24.1373495 L20.9971277,20.9011673 L23.8675431,22.5277092 L23.8675431,25.7638914 Z M24.120084,27.0494164 C24.1956474,27.0921678 24.2801591,27.1140406 24.3646708,27.1140406 C24.4491825,27.1140406 24.5336942,27.0921678 24.6092576,27.0494164 L28.4759169,24.8601466 C28.632015,24.7716611 28.7284578,24.6066208 28.7284578,24.4276614 L28.7284578,20.0481276 C28.7284578,19.8691682 28.632015,19.7041278 28.4759169,19.6156424 L24.8617985,17.5685459 L24.8617985,13.4793239 C24.8617985,13.3003645 24.76635,13.1353242 24.6092576,13.0468388 L20.7445868,10.857569 C20.5924658,10.7710719 20.40654,10.7710719 20.2554132,10.857569 L16.3897481,13.0468388 C16.23365,13.1353242 16.1372072,13.3003645 16.1372072,13.4793239 L16.1372072,17.5685459 L12.5230888,19.6156424 C12.3669907,19.7041278 12.2705479,19.8691682 12.2705479,20.0481276 L12.2705479,24.4276614 C12.2705479,24.6066208 12.3669907,24.7716611 12.5230888,24.8601466 L16.3897481,27.0494164 C16.5408749,27.1359134 16.727795,27.1359134 16.8789218,27.0494164 L20.5,24.998343 L24.120084,27.0494164 Z" id="AWS-Service-Catalog_Icon_32_Squid" fill="#FFFFFF"></path>
    </g>
</svg>