<?xml version="1.0" encoding="UTF-8"?>
<svg width="40px" height="40px" viewBox="0 0 40 40" version="1.1" xmlns="http://www.w3.org/2000/svg" xmlns:xlink="http://www.w3.org/1999/xlink">
    <title>Icon-Architecture/32/Arch_Amazon-Managed-Service-for-Grafana_32</title>
    <defs>
        <linearGradient x1="0%" y1="100%" x2="100%" y2="0%" id="linearGradient-1">
            <stop stop-color="#B0084D" offset="0%"></stop>
            <stop stop-color="#FF4F8B" offset="100%"></stop>
        </linearGradient>
    </defs>
    <g id="Icon-Architecture/32/Arch_Amazon-Managed-Service-for-Grafana_32" stroke="none" stroke-width="1" fill="none" fill-rule="evenodd">
        <g id="Rectangle" fill="url(#linearGradient-1)">
            <rect x="0" y="0" width="40" height="40"></rect>
        </g>
        <g id="Icon-Service/32/Amazon-Managed-Service-for-Grafana_32" transform="translate(4.000000, 4.000000)" fill="#FFFFFF">
            <path d="M9.99996026,22.0014224 L10.9999603,22.0014224 L10.9999603,17.0014224 L9.99996026,17.0014224 L9.99996026,22.0014224 Z M18.9999603,22.0014224 L19.9999603,22.0014224 L19.9999603,17.0014224 L18.9999603,17.0014224 L18.9999603,22.0014224 Z M15.9999603,22.0014224 L16.9999603,22.0014224 L16.9999603,10.0014224 L15.9999603,10.0014224 L15.9999603,22.0014224 Z M12.9999603,22.0014224 L13.9999603,22.0014224 L13.9999603,14.0014224 L12.9999603,14.0014224 L12.9999603,22.0014224 Z M28.9999603,24.8854224 L10.7259603,28.9394224 L3.06196026,17.4424224 L8.81296026,3.06642236 L19.0499603,4.92742236 L20.0039603,12.5634224 C20.0379603,12.8344224 20.2689603,13.0274224 20.5559603,12.9984224 L28.9999603,12.0604224 L28.9999603,24.8854224 Z M29.8329603,11.1284224 C29.7279603,11.0334224 29.5839603,10.9884224 29.4449603,11.0044224 L20.9349603,11.9504224 L19.9959603,4.43942236 C19.9689603,4.22242236 19.8049603,4.04842236 19.5899603,4.00942236 L8.58996026,2.00942236 C8.35296026,1.96242236 8.12296026,2.09542236 8.03596026,2.31542236 L2.03596026,17.3154224 C1.97496026,17.4684224 1.99196026,17.6414224 2.08396026,17.7784224 L10.0839603,29.7784224 C10.1779603,29.9194224 10.3349603,30.0014224 10.4999603,30.0014224 C10.5359603,30.0014224 10.5729603,29.9974224 10.6089603,29.9894224 L29.6089603,25.7754224 C29.8369603,25.7244224 29.9999603,25.5214224 29.9999603,25.2874224 L29.9999603,11.5014224 C29.9999603,11.3594224 29.9399603,11.2234224 29.8329603,11.1284224 L29.8329603,11.1284224 Z" id="Fill-3"></path>
        </g>
    </g>
</svg>