<?xml version="1.0" encoding="UTF-8"?>
<svg width="40px" height="40px" viewBox="0 0 40 40" version="1.1" xmlns="http://www.w3.org/2000/svg" xmlns:xlink="http://www.w3.org/1999/xlink">
    <!-- Generator: Sketch 64 (93537) - https://sketch.com -->
    <title>Icon-Architecture/32/Arch_AWS-Management-Console_32</title>
    <desc>Created with Sketch.</desc>
    <defs>
        <linearGradient x1="0%" y1="100%" x2="100%" y2="0%" id="linearGradient-1">
            <stop stop-color="#B0084D" offset="0%"></stop>
            <stop stop-color="#FF4F8B" offset="100%"></stop>
        </linearGradient>
    </defs>
    <g id="Icon-Architecture/32/Arch_AWS-Management-Console_32" stroke="none" stroke-width="1" fill="none" fill-rule="evenodd">
        <g id="Icon-Architecture-BG/32/Management-Governance" fill="url(#linearGradient-1)">
            <rect id="Rectangle" x="0" y="0" width="40" height="40"></rect>
        </g>
        <path d="M14,9 L16,9 L16,8 L14,8 L14,9 Z M11,9 L13,9 L13,8 L11,8 L11,9 Z M8,9 L10,9 L10,8 L8,8 L8,9 Z M7,10 L33,10 L33,7 L7,7 L7,10 Z M33.5,6 L6.5,6 C6.224,6 6,6.224 6,6.5 L6,10 L6,11 L6,33.5 C6,33.776 6.224,34 6.5,34 L24,34 L24,33 L7,33 L7,11 L33,11 L33,33 L30,33 L30,34 L33.5,34 C33.776,34 34,33.776 34,33.5 L34,11 L34,10 L34,6.5 C34,6.224 33.776,6 33.5,6 L33.5,6 Z M20,24.696 C18.511,24.696 17.3,23.485 17.3,21.996 C17.3,20.507 18.511,19.296 20,19.296 C21.489,19.296 22.7,20.507 22.7,21.996 C22.7,23.485 21.489,24.696 20,24.696 L20,24.696 Z M20,18.296 C17.96,18.296 16.3,19.956 16.3,21.996 C16.3,24.036 17.96,25.696 20,25.696 C22.04,25.696 23.7,24.036 23.7,21.996 C23.7,19.956 22.04,18.296 20,18.296 L20,18.296 Z M27.5,23.057 L26.701,23.011 C26.437,22.998 26.237,23.163 26.186,23.4 C26.027,24.101 25.752,24.766 25.366,25.377 C25.235,25.584 25.273,25.854 25.456,26.017 L26.054,26.55 L24.554,28.049 L24.023,27.455 C23.86,27.272 23.589,27.234 23.384,27.365 C22.773,27.75 22.107,28.026 21.404,28.185 C21.166,28.238 21.002,28.457 21.016,28.701 L21.061,29.496 L18.939,29.496 L18.984,28.7 C18.998,28.457 18.834,28.238 18.596,28.184 C17.894,28.025 17.229,27.749 16.619,27.363 C16.412,27.234 16.142,27.271 15.979,27.454 L15.447,28.049 L13.946,26.549 L14.542,26.018 C14.725,25.855 14.762,25.585 14.632,25.378 C14.248,24.77 13.973,24.104 13.813,23.4 C13.76,23.163 13.568,23.008 13.298,23.011 L12.5,23.057 L12.5,20.935 L13.301,20.981 C13.554,20.992 13.763,20.831 13.816,20.592 C13.976,19.892 14.251,19.228 14.637,18.618 C14.768,18.412 14.729,18.141 14.547,17.978 L13.946,17.443 L15.447,15.943 L15.981,16.542 C16.144,16.723 16.414,16.763 16.621,16.632 C17.231,16.248 17.896,15.973 18.596,15.814 C18.834,15.761 18.998,15.542 18.984,15.298 L18.939,14.496 L21.061,14.496 L21.016,15.299 C21.002,15.543 21.166,15.761 21.404,15.815 C22.104,15.974 22.769,16.249 23.378,16.633 C23.584,16.764 23.856,16.727 24.018,16.543 L24.553,15.943 L26.054,17.443 L25.455,17.977 C25.272,18.139 25.234,18.41 25.365,18.617 C25.75,19.226 26.025,19.891 26.185,20.592 C26.238,20.831 26.462,20.992 26.7,20.981 L27.5,20.935 L27.5,23.057 Z M27.972,19.907 L27.054,19.959 C26.902,19.434 26.692,18.928 26.428,18.449 L27.114,17.836 C27.217,17.745 27.277,17.615 27.281,17.478 C27.285,17.34 27.232,17.207 27.135,17.11 L24.886,14.861 C24.789,14.765 24.659,14.719 24.518,14.715 C24.381,14.719 24.251,14.779 24.159,14.882 L23.545,15.571 C23.066,15.306 22.562,15.097 22.037,14.946 L22.089,14.024 C22.097,13.887 22.048,13.752 21.953,13.653 C21.858,13.553 21.728,13.496 21.59,13.496 L18.41,13.496 C18.272,13.496 18.142,13.553 18.047,13.653 C17.952,13.752 17.903,13.887 17.911,14.024 L17.963,14.945 C17.438,15.096 16.934,15.305 16.454,15.57 L15.841,14.882 C15.749,14.779 15.619,14.719 15.482,14.715 C15.354,14.723 15.212,14.765 15.114,14.861 L12.865,17.11 C12.768,17.207 12.715,17.34 12.719,17.478 C12.723,17.615 12.783,17.745 12.886,17.836 L13.574,18.45 C13.309,18.929 13.1,19.435 12.947,19.959 L12.028,19.907 C11.909,19.904 11.757,19.948 11.656,20.042 C11.557,20.137 11.5,20.268 11.5,20.406 L11.5,23.586 C11.5,23.724 11.557,23.855 11.656,23.949 C11.757,24.044 11.896,24.094 12.028,24.085 L12.944,24.033 C13.096,24.56 13.305,25.066 13.569,25.545 L12.886,26.156 C12.783,26.248 12.723,26.377 12.719,26.515 C12.715,26.652 12.768,26.785 12.865,26.882 L15.114,29.131 C15.212,29.228 15.351,29.288 15.482,29.277 C15.619,29.273 15.749,29.213 15.841,29.11 L16.451,28.426 C16.931,28.692 17.437,28.902 17.963,29.054 L17.911,29.968 C17.903,30.105 17.952,30.24 18.047,30.339 C18.142,30.439 18.272,30.496 18.41,30.496 L21.59,30.496 C21.728,30.496 21.858,30.439 21.953,30.339 C22.048,30.24 22.097,30.105 22.089,29.968 L22.037,29.054 C22.564,28.903 23.07,28.693 23.551,28.427 L24.159,29.11 C24.25,29.213 24.38,29.273 24.518,29.277 C24.662,29.291 24.789,29.229 24.886,29.131 L27.135,26.882 C27.232,26.785 27.285,26.652 27.281,26.515 C27.277,26.377 27.217,26.247 27.114,26.156 L26.429,25.544 C26.694,25.064 26.904,24.558 27.055,24.033 L27.972,24.085 C28.11,24.094 28.243,24.044 28.344,23.949 C28.443,23.855 28.5,23.724 28.5,23.586 L28.5,20.406 C28.5,20.268 28.443,20.137 28.344,20.042 C28.243,19.948 28.097,19.904 27.972,19.907 L27.972,19.907 Z" id="AWS-Management-Console_Icon_32_Squid" fill="#FFFFFF"></path>
    </g>
</svg>