<svg width="24px" height="24px" viewBox="0 0 24 24" version="1.1" xmlns="http://www.w3.org/2000/svg" xmlns:xlink="http://www.w3.org/1999/xlink">
    <g stroke="none" stroke-width="1" fill="none" fill-rule="evenodd">
        <path d="M16.1843472,12.4178657 L20.125,14.2055265 L20.125,16.8870177 C20.125,17.9506758 19.8141263,18.9830499 19.2843274,19.8590037 L19.2843274,19.8590037 L18.0145615,18.5629496 C18.5750099,17.6959342 18.4830613,16.516078 17.7343373,15.7518531 C16.8805292,14.8803684 15.4925437,14.8803684 14.6387356,15.7518531 C13.7849275,16.6233377 13.7849275,18.0400589 14.6387356,18.9115435 C15.3874596,19.6757685 16.5433844,19.7740898 17.392814,19.1975692 L17.392814,19.1975692 L18.758907,20.5919446 C18.080239,21.4008611 17.1914029,21.9997275 16.1843472,22.25 C13.9250396,21.6868869 12.2436944,19.367397 12.2436944,16.8870177 L12.2436944,16.8870177 L12.2436944,14.2055265 L16.1843472,12.4178657 Z M16.2206149,2.25 L16.3602738,2.25605034 C17.1400163,2.32391093 17.7609452,2.95457947 17.8312976,3.74109011 L17.837941,3.89028777 L17.843,12.452 L16.22,11.714 L16.2206149,3.89028777 L5.76237127,3.89028777 L5.76237127,17.0125899 L11.677,17.012 L11.6789235,17.0719751 C11.7003003,17.6117712 11.7902952,18.1429057 11.9401529,18.6526991 L5.75418441,18.6528777 C4.9010278,18.6528777 4.20217416,17.9904014 4.13097393,17.1535892 L4.125,17.0125899 L4.13318686,3.89028777 C4.13318686,3.03561151 4.78713752,2.32815222 5.6216884,2.25605034 L5.76237127,2.25 L16.2206149,2.25 Z M11.6739614,13.7128297 L11.6739614,15.3435252 L7.35348665,15.3435252 L7.35348665,13.7128297 L11.6739614,13.7128297 Z M14.4751484,10.4514388 L14.4751484,12.0821343 L7.35348665,12.0821343 L7.35348665,10.4514388 L14.4751484,10.4514388 Z M13.5730712,7.19004796 L13.5730712,8.77278177 L7.35348665,8.77278177 L7.35348665,7.19004796 L13.5730712,7.19004796 Z M16.1843472,18.6746784 C16.9098013,18.6746784 17.4978981,18.0744062 17.4978981,17.3339329 C17.4978981,16.5934595 16.9098013,15.9931873 16.1843472,15.9931873 C15.458893,15.9931873 14.8707962,16.5934595 14.8707962,17.3339329 C14.8707962,18.0744062 15.458893,18.6746784 16.1843472,18.6746784 Z" fill="#4285F4" fill-rule="nonzero"></path>
    </g>
</svg>