<?xml version="1.0" encoding="UTF-8"?>
<svg width="80px" height="80px" viewBox="0 0 80 80" version="1.1" xmlns="http://www.w3.org/2000/svg" xmlns:xlink="http://www.w3.org/1999/xlink">
    <title>Icon-Architecture/64/Arch_Amazon-GameLift_64</title>
    <defs>
        <linearGradient x1="0%" y1="100%" x2="100%" y2="0%" id="linearGradient-1">
            <stop stop-color="#4D27A8" offset="0%"></stop>
            <stop stop-color="#A166FF" offset="100%"></stop>
        </linearGradient>
    </defs>
    <g id="Icon-Architecture/64/Arch_Amazon-GameLift_64" stroke="none" stroke-width="1" fill="none" fill-rule="evenodd">
        <g id="Rectangle" fill="url(#linearGradient-1)">
            <rect x="0" y="0" width="80" height="80"></rect>
        </g>
        <g id="Icon-Service/64/Amazon-GameLift_64" transform="translate(8.000000, 8.000000)" fill="#FFFFFF">
            <path d="M30,43 L28,43 L28,41 L30,41 L30,39 L32,39 L32,41 L34,41 L34,43 L32,43 L32,45 L30,45 L30,43 Z M50,42 C50,40.896 50.895,40 52,40 C53.104,40 54,40.896 54,42 C54,43.104 53.104,44 52,44 C50.895,44 50,43.104 50,42 L50,42 Z M57.18,57.365 C56.762,57.792 56.186,58 55.421,58 C53.242,58 51.676,53.913 50.418,50.629 C50.305,50.333 50.193,50.043 50.083,49.758 C50.698,49.91 51.338,50 51.999,50 C54.389,50 56.531,48.941 57.999,47.274 L57.999,55.001 C58,55.016 58.022,56.504 57.18,57.365 L57.18,57.365 Z M27.579,58 C26.814,58 26.238,57.792 25.82,57.365 C24.978,56.504 25,55.016 25.001,54.975 L25.001,47.275 C26.468,48.941 28.61,50 31,50 C31.662,50 32.302,49.91 32.918,49.758 C32.807,50.043 32.695,50.333 32.582,50.629 C31.324,53.913 29.758,58 27.579,58 L27.579,58 Z M35.459,38 C36.414,39.063 37,40.462 37,42 C37,45.309 34.309,48 31,48 C27.691,48 25,45.309 25,42 C25,38.691 27.691,36 31,36 C32.537,36 33.938,36.586 35,37.541 L35.459,38 Z M45.082,38 C44.397,39.178 43.999,40.542 43.999,42 C43.999,43.892 44.662,45.629 45.764,47 L37.235,47 C38.337,45.629 39,43.892 39,42 C39,40.542 38.602,39.178 37.918,38 L45.082,38 Z M51.999,36 C55.308,36 57.999,38.691 57.999,42 C57.999,45.309 55.308,48 51.999,48 C48.69,48 45.999,45.309 45.999,42 C45.999,38.691 48.69,36 51.999,36 L51.999,36 Z M59.999,54.975 L59.995,43 C59.995,42.929 60.009,42.712 59.995,42.646 C60.016,42.386 59.995,42.27 59.995,42 C59.995,37.589 56.41,34 51.999,34 C49.979,34 48.135,34.759 46.726,36 L36.273,36 C34.864,34.759 33.021,34 31,34 C26.589,34 23.012,37.589 23.012,42 C23.012,42.457 22.99,42.781 23.012,43.238 C23.0008463,43.404 23.012,43.625 23.012,43.791 L23.002,54.943 C22.998,55.038 22.945,57.272 24.377,58.75 C25.182,59.58 26.259,60 27.579,60 C31.133,60 32.896,55.402 34.45,51.345 C34.772,50.503 35.081,49.698 35.383,49 L47.617,49 C47.919,49.698 48.228,50.503 48.55,51.345 C50.104,55.402 51.867,60 55.421,60 C56.741,60 57.818,59.58 58.623,58.75 C60.055,57.272 60.002,55.038 59.999,54.975 L59.999,54.975 Z M10.201,39.549 C7.764,36.294 6.256,32.32 6.051,28 L15.013,28 C15.083,31.301 15.5,34.401 16.197,37.175 C13.973,37.784 11.948,38.581 10.201,39.549 L10.201,39.549 Z M10.201,14.452 C11.949,15.42 13.973,16.218 16.197,16.827 C15.499,19.601 15.083,22.7 15.013,26 L6.051,26 C6.256,21.68 7.764,17.706 10.201,14.452 L10.201,14.452 Z M21.131,6.851 C19.32,8.758 17.809,11.534 16.74,14.907 C14.806,14.379 13.036,13.703 11.496,12.886 C14.063,10.067 17.375,7.947 21.131,6.851 L21.131,6.851 Z M27,6 C30.394,6 33.457,9.771 35.273,15.383 C32.692,15.922 29.896,16.222 27,16.222 C24.099,16.222 21.305,15.922 18.726,15.384 C20.543,9.771 23.605,6 27,6 L27,6 Z M42.502,12.883 C40.962,13.7 39.194,14.377 37.26,14.906 C36.19,11.533 34.68,8.758 32.869,6.851 C36.623,7.946 39.934,10.066 42.502,12.883 L42.502,12.883 Z M43.798,14.451 C46.236,17.706 47.744,21.68 47.949,26 L38.987,26 C38.917,22.699 38.5,19.599 37.803,16.825 C40.028,16.216 42.052,15.419 43.798,14.451 L43.798,14.451 Z M17.025,26 C17.099,22.896 17.502,19.944 18.176,17.307 C20.934,17.895 23.914,18.222 27,18.222 C30.081,18.222 33.064,17.895 35.824,17.307 C36.497,19.943 36.901,22.896 36.975,26 L17.025,26 Z M8.758,13.015 C5.777,16.893 4,21.742 4,27 C4,37.606 11.219,46.555 21,49.201 L21,47.106 C17.301,46 14.035,43.9 11.498,41.117 C13.038,40.3 14.806,39.623 16.74,39.094 C17.783,42.384 19.249,45.099 21,47 L21,43.655 C20.121,42.242 19.349,40.541 18.726,38.617 C19.466,38.462 20.228,38.334 21,38.22 L21,36.208 C20.039,36.344 19.092,36.499 18.176,36.694 C17.503,34.057 17.099,31.104 17.025,28 L36.975,28 C36.942,29.37 36.836,30.703 36.68,32 L38.711,32 C38.855,30.704 38.958,29.375 38.987,28 L47.949,28 C47.884,29.374 47.674,30.708 47.356,32 L49.446,32 C49.805,30.389 50,28.717 50,27 C50,21.572 48.105,16.581 44.949,12.642 C44.945,12.637 44.945,12.63 44.942,12.625 C44.93,12.604 44.91,12.594 44.896,12.575 C40.677,7.35 34.224,4 27,4 C20.013,4 13.747,7.136 9.525,12.07 L8.758,13.015 Z" id="Fill-1"></path>
        </g>
    </g>
</svg>