<?xml version="1.0" encoding="UTF-8"?>
<svg width="24px" height="24px" viewBox="0 0 24 24" version="1.1" xmlns="http://www.w3.org/2000/svg" xmlns:xlink="http://www.w3.org/1999/xlink">
    <!-- Generator: Sketch 64 (93537) - https://sketch.com -->
    <title>Icon-Architecture/16/Arch_Amazon-Aurora_16</title>
    <desc>Created with Sketch.</desc>
    <defs>
        <linearGradient x1="0%" y1="100%" x2="100%" y2="0%" id="linearGradient-1">
            <stop stop-color="#2E27AD" offset="0%"></stop>
            <stop stop-color="#527FFF" offset="100%"></stop>
        </linearGradient>
    </defs>
    <g id="Icon-Architecture/16/Arch_Amazon-Aurora_16" stroke="none" stroke-width="1" fill="none" fill-rule="evenodd">
        <g id="Icon-Architecture-BG/16/Database" fill="url(#linearGradient-1)">
            <rect id="Rectangle" x="0" y="0" width="24" height="24"></rect>
        </g>
        <path d="M5,10.291 C5.868,10.755 7.183,11 8.5,11 C9.817,11 11.132,10.755 12,10.291 L12,12 C12,12.29 10.773,13 8.5,13 C6.227,13 5,12.29 5,12 L5,10.291 Z M8.5,8 C10.773,8 12,8.71 12,9 C12,9.29 10.773,10 8.5,10 C6.227,10 5,9.29 5,9 C5,8.71 6.227,8 8.5,8 L8.5,8 Z M12,18 C12,18.29 10.773,19 8.5,19 C6.227,19 5,18.29 5,18 L5,16.291 C5.868,16.755 7.183,17 8.5,17 C9.851,17 11.102,16.761 11.932,16.343 L11.482,15.45 C10.797,15.794 9.682,16 8.5,16 C6.227,16 5,15.29 5,15 L5,13.291 C5.868,13.755 7.183,14 8.5,14 C10.068,14 11.633,13.655 12.437,13 L13,13 L13,9 C13,6.374 4,6.374 4,9 L4,18 C4,19.313 6.264,20 8.5,20 C10.736,20 13,19.313 13,18 L13,16.5 L12,16.5 L12,18 Z M20,9 L20,10 L19,10 L19,11 L18,11 L18,10 L17,10 L17,9 L18,9 L18,8 L19,8 L19,9 L20,9 Z M14,7 L13,7 L13,6 L14,6 L14,5 L15,5 L15,6 L16,6 L16,7 L15,7 L15,8 L14,8 L14,7 Z M15.5,16.884 C15.002,15.924 14.183,15.058 13.273,14.531 C14.192,14.05 15.006,13.246 15.5,12.331 C15.994,13.246 16.808,14.05 17.727,14.531 C16.817,15.058 15.998,15.924 15.5,16.884 L15.5,16.884 Z M19.5,14 C17.864,14 16,12.136 16,10.5 C16,10.224 15.776,10 15.5,10 C15.224,10 15,10.224 15,10.5 C15,12.136 13.136,14 11.5,14 C11.224,14 11,14.224 11,14.5 C11,14.776 11.224,15 11.5,15 C13.07,15 15,17.068 15,18.75 C15,19.026 15.224,19.25 15.5,19.25 C15.776,19.25 16,19.026 16,18.75 C16,17.068 17.93,15 19.5,15 C19.776,15 20,14.776 20,14.5 C20,14.224 19.776,14 19.5,14 L19.5,14 Z" id="Amazon-Aurora_Icon_16_Squid" fill="#FFFFFF"></path>
    </g>
</svg>