<?xml version="1.0" encoding="UTF-8"?>
<svg width="24px" height="24px" viewBox="0 0 24 24" version="1.1" xmlns="http://www.w3.org/2000/svg" xmlns:xlink="http://www.w3.org/1999/xlink">
    <!-- Generator: Sketch 64 (93537) - https://sketch.com -->
    <title>Icon-Architecture/16/Arch_Amazon-Timestream_16</title>
    <desc>Created with Sketch.</desc>
    <defs>
        <linearGradient x1="0%" y1="100%" x2="100%" y2="0%" id="linearGradient-1">
            <stop stop-color="#2E27AD" offset="0%"></stop>
            <stop stop-color="#527FFF" offset="100%"></stop>
        </linearGradient>
    </defs>
    <g id="Icon-Architecture/16/Arch_Amazon-Timestream_16" stroke="none" stroke-width="1" fill="none" fill-rule="evenodd">
        <g id="Icon-Architecture-BG/16/Database" fill="url(#linearGradient-1)">
            <rect id="Rectangle" x="0" y="0" width="24" height="24"></rect>
        </g>
        <path d="M10.3921569,5 C13.0852941,5 14.8039216,5.888 14.8039216,6.5 C14.8039216,7.112 13.0852941,8 10.3921569,8 C7.69901961,8 5.98039216,7.112 5.98039216,6.5 C5.98039216,5.888 7.69901961,5 10.3921569,5 L10.3921569,5 Z M13.8235294,12.51 L13.8235294,12 L17.5813725,12 L19.4117647,13.4 L20,12.6 L17.9088235,11 L13.8235294,11 L13.8235294,10 L12.8431373,10 L12.8431373,16.5 C12.8431373,16.776 13.0627451,17 13.3333333,17 L14.8039216,17 L14.8039216,17.662 C14.8039216,18.221 13.1254902,19 10.3921569,19 C7.65882353,19 5.98039216,18.221 5.98039216,17.662 L5.98039216,16.107 C7.02058824,16.776 8.73823529,17.128 10.3921569,17.128 C10.9156863,17.128 11.4313725,17.096 11.9235294,17.033 L11.8009804,16.041 C11.35,16.099 10.8754902,16.128 10.3921569,16.128 C7.69901961,16.128 5.98039216,15.24 5.98039216,14.628 L5.98039216,11.979 C7.02058824,12.648 8.73823529,13 10.3921569,13 C10.9117647,13 11.427451,12.968 11.9235294,12.905 L11.8019608,11.913 C11.3460784,11.971 10.8715686,12 10.3921569,12 C7.69901961,12 5.98039216,11.112 5.98039216,10.5 L5.98039216,7.979 C7.02058824,8.648 8.73823529,9 10.3921569,9 C12.0460784,9 13.7637255,8.648 14.8039216,7.979 L14.8039216,10 L15.7843137,10 L15.7843137,6.5 C15.7843137,4.876 13.0058824,4 10.3921569,4 C7.77843137,4 5,4.876 5,6.5 L5,17.662 C5,19.277 7.70882353,20 10.3921569,20 C13.0754902,20 15.7843137,19.277 15.7843137,17.662 L15.7843137,17 L19.7058824,17 L19.7058824,16 L13.8235294,16 L13.8235294,13.726 L15.6313725,15 L19.7058824,15 L19.7058824,14 L15.9372549,14 L13.8235294,12.51 Z" id="Amazon-Timestream_Icon_16_Squid" fill="#FFFFFF"></path>
    </g>
</svg>