<?xml version="1.0" encoding="UTF-8"?>
<svg width="24px" height="24px" viewBox="0 0 24 24" version="1.1" xmlns="http://www.w3.org/2000/svg" xmlns:xlink="http://www.w3.org/1999/xlink">
    <!-- Generator: Sketch 64 (93537) - https://sketch.com -->
    <title>Icon-Architecture/16/Arch_AWS-Database-Migration_16</title>
    <desc>Created with Sketch.</desc>
    <defs>
        <linearGradient x1="0%" y1="100%" x2="100%" y2="0%" id="linearGradient-1">
            <stop stop-color="#2E27AD" offset="0%"></stop>
            <stop stop-color="#527FFF" offset="100%"></stop>
        </linearGradient>
    </defs>
    <g id="Icon-Architecture/16/Arch_AWS-Database-Migration_16" stroke="none" stroke-width="1" fill="none" fill-rule="evenodd">
        <g id="Icon-Architecture-BG/16/Database" fill="url(#linearGradient-1)">
            <rect id="Rectangle" x="0" y="0" width="24" height="24"></rect>
        </g>
        <path d="M13.000369,20 L13.9844999,20 L13.9844999,17.9354839 L13.000369,17.9354839 L13.000369,20 Z M10.1601673,20 L11.1442982,20 L11.1442982,17.9354839 L10.1601673,17.9354839 L10.1601673,20 Z M14.969615,18.9677419 L15.9537458,18.9677419 L15.9537458,16.9032258 L14.969615,16.9032258 L14.969615,18.9677419 Z M8.10530201,18.9677419 L9.08943289,18.9677419 L9.08943289,16.9032258 L8.10530201,16.9032258 L8.10530201,18.9677419 Z M12.0457621,9.69083871 C9.92594415,9.69083871 8.98413089,9.10141935 8.98413089,8.87741935 L8.98413089,7.20412903 C9.59724443,7.49316129 10.5597244,7.68825806 12.0457621,7.68825806 C13.3280846,7.68825806 14.3348505,7.50348387 15.0158691,7.17109677 L15.0158691,8.87741935 C15.0158691,9.10864516 14.1321196,9.69083871 12.0457621,9.69083871 L12.0457621,9.69083871 Z M12.0457621,12.7597419 C10.1719769,12.7597419 8.98413089,11.9463226 8.98413089,11.6025806 L8.98413089,10.1646452 C9.77438799,10.555871 10.9258211,10.7230968 12.0457621,10.7230968 C13.3182433,10.7230968 14.330914,10.5269677 15.0158691,10.1811613 L15.0158691,11.6025806 C15.0158691,11.9380645 13.9746586,12.7597419 12.0457621,12.7597419 L12.0457621,12.7597419 Z M12.0457621,15.3713548 C10.1719769,15.3713548 8.98413089,14.5331613 8.98413089,14.1790968 L8.98413089,13.0178065 C9.72714971,13.4874839 10.8165826,13.792 12.0457621,13.792 C13.2345922,13.792 14.2905646,13.4936774 15.0158691,13.0322581 L15.0158691,14.1790968 C15.0158691,14.5434839 13.8939599,15.3713548 12.0457621,15.3713548 L12.0457621,15.3713548 Z M12.0457621,5.03225806 C14.1321196,5.03225806 15.0158691,5.63819355 15.0158691,5.87870968 C15.0158691,6.10787097 14.1616435,6.656 12.0457621,6.656 C9.81572149,6.656 8.98413089,6.17909677 8.98413089,5.87870968 C8.98413089,5.68154839 9.93873785,5.03225806 12.0457621,5.03225806 L12.0457621,5.03225806 Z M12.0457621,4 C10.0312462,4 8,4.58116129 8,5.87870968 L8,14.1790968 C8,15.3847742 9.85311846,16.4036129 12.0457621,16.4036129 C14.225612,16.4036129 16,15.4054194 16,14.1790968 L16,5.87870968 C16,4.73703226 14.4480256,4 12.0457621,4 L12.0457621,4 Z" id="AWS-Database-Migration_Icon_16_Squid" fill="#FFFFFF"></path>
    </g>
</svg>