<?xml version="1.0" encoding="UTF-8"?>
<svg width="24px" height="24px" viewBox="0 0 24 24" version="1.1" xmlns="http://www.w3.org/2000/svg" xmlns:xlink="http://www.w3.org/1999/xlink">
    <!-- Generator: Sketch 64 (93537) - https://sketch.com -->
    <title>Icon-Architecture/16/Arch_Amazon-Keyspaces_16</title>
    <desc>Created with Sketch.</desc>
    <defs>
        <linearGradient x1="0%" y1="100%" x2="100%" y2="0%" id="linearGradient-1">
            <stop stop-color="#2E27AD" offset="0%"></stop>
            <stop stop-color="#527FFF" offset="100%"></stop>
        </linearGradient>
    </defs>
    <g id="Icon-Architecture/16/Arch_Amazon-Keyspaces_16" stroke="none" stroke-width="1" fill="none" fill-rule="evenodd">
        <g id="Icon-Architecture-BG/16/Database" fill="url(#linearGradient-1)">
            <rect id="Rectangle" x="0" y="0" width="24" height="24"></rect>
        </g>
        <path d="M18.43,9.92 L19.33,10.93 C19.264,11.063 19.174,11.171 19.06,11.254 C18.947,11.338 18.82,11.39 18.68,11.41 L17.98,10.2 L17.279,11.41 C17.141,11.39 17.014,11.338 16.9,11.254 C16.787,11.171 16.697,11.063 16.63,10.93 L17.529,9.92 L16.38,9.65 C16.367,9.584 16.359,9.53 16.359,9.49 C16.359,9.263 16.447,9.063 16.62,8.89 L17.7,9.42 L17.56,8.129 C17.693,8.07 17.834,8.04 17.98,8.04 C18.133,8.04 18.273,8.07 18.4,8.129 L18.26,9.42 L19.34,8.89 C19.514,9.063 19.6,9.263 19.6,9.49 C19.6,9.53 19.594,9.584 19.58,9.65 L18.43,9.92 Z M15.95,15.74 L15.95,16.733 C15.408,17.014 14.783,17.153 14.074,17.153 C12.973,17.153 12.131,16.838 11.547,16.209 C10.963,15.579 10.672,14.667 10.672,13.472 C10.672,12.286 10.973,11.369 11.575,10.721 C12.177,10.072 13.029,9.748 14.13,9.748 C14.756,9.748 15.344,9.879 15.894,10.14 L15.894,11.133 C15.361,10.965 14.84,10.881 14.326,10.881 C13.542,10.881 12.976,11.08 12.632,11.477 C12.287,11.874 12.113,12.505 12.113,13.374 L12.113,13.556 C12.113,14.405 12.289,15.028 12.639,15.424 C12.988,15.821 13.542,16.02 14.298,16.02 C14.802,16.02 15.352,15.926 15.95,15.74 Z M14,6.5 C14,7.111 12.247,8 9.5,8 C6.753,8 5,7.111 5,6.5 C5,5.888 6.753,5 9.5,5 C12.247,5 14,5.888 14,6.5 Z M5,17.217 L5,15.479 C6.06,16.148 7.812,16.5 9.5,16.5 C9.676,16.5 9.849,16.496 10.019,16.489 L9.98,15.49 C9.823,15.496 9.662,15.5 9.5,15.5 C6.753,15.5 5,14.611 5,14 L5,11.479 C6.06,12.148 7.812,12.5 9.5,12.5 C9.676,12.5 9.849,12.496 10.019,12.489 L9.98,11.49 C9.823,11.496 9.662,11.5 9.5,11.5 C6.753,11.5 5,10.611 5,10 L5,7.979 C6.06,8.648 7.812,9 9.5,9 C11.187,9 12.939,8.648 14,7.979 L14,9 L15,9 L15,6.495 C14.994,4.874 12.164,4 9.5,4 C6.894,4 4.136,4.838 4.012,6.393 L4,6.393 L4,17.217 C4,18.716 6.552,19.5 9.073,19.5 C10.24,19.5 11.371,19.333 12.255,19.029 L11.931,18.083 C11.147,18.352 10.133,18.5 9.073,18.5 C6.437,18.5 5,17.652 5,17.217 Z" id="Amazon-Keyspaces-Service_Icon_16_Squid" fill="#FFFFFF"></path>
    </g>
</svg>