<?xml version="1.0" encoding="UTF-8"?>
<svg width="24px" height="24px" viewBox="0 0 24 24" version="1.1" xmlns="http://www.w3.org/2000/svg" xmlns:xlink="http://www.w3.org/1999/xlink">
    <!-- Generator: Sketch 64 (93537) - https://sketch.com -->
    <title>Icon-Architecture/16/Arch_Amazon-Neptune_16</title>
    <desc>Created with Sketch.</desc>
    <defs>
        <linearGradient x1="0%" y1="100%" x2="100%" y2="0%" id="linearGradient-1">
            <stop stop-color="#2E27AD" offset="0%"></stop>
            <stop stop-color="#527FFF" offset="100%"></stop>
        </linearGradient>
    </defs>
    <g id="Icon-Architecture/16/Arch_Amazon-Neptune_16" stroke="none" stroke-width="1" fill="none" fill-rule="evenodd">
        <g id="Icon-Architecture-BG/16/Database" fill="url(#linearGradient-1)">
            <rect id="Rectangle" x="0" y="0" width="24" height="24"></rect>
        </g>
        <path d="M16.4345806,18.9677419 C16.2611613,18.9677419 16.1197419,18.8263226 16.1197419,18.651871 C16.1197419,18.4784516 16.2611613,18.3370323 16.4345806,18.3370323 C16.6090323,18.3370323 16.7504516,18.4784516 16.7504516,18.651871 C16.7504516,18.8263226 16.6090323,18.9677419 16.4345806,18.9677419 M15.0110968,14.2172903 C15.0110968,13.7383226 15.4012903,13.348129 15.8802581,13.348129 C16.3602581,13.348129 16.7504516,13.7383226 16.7504516,14.2172903 C16.7504516,14.6972903 16.3602581,15.0874839 15.8802581,15.0874839 C15.4012903,15.0874839 15.0110968,14.6972903 15.0110968,14.2172903 M18.651871,10.0211613 C18.8263226,10.0211613 18.9677419,10.1625806 18.9677419,10.3370323 C18.9677419,10.5104516 18.8263226,10.651871 18.651871,10.651871 C18.4774194,10.651871 18.3370323,10.5104516 18.3370323,10.3370323 C18.3370323,10.1625806 18.4774194,10.0211613 18.651871,10.0211613 M12.5543226,15.6418065 C12.379871,15.6418065 12.2394839,15.5003871 12.2394839,15.3259355 C12.2394839,15.1525161 12.379871,15.0110968 12.5543226,15.0110968 C12.7287742,15.0110968 12.8701935,15.1525161 12.8701935,15.3259355 C12.8701935,15.5003871 12.7287742,15.6418065 12.5543226,15.6418065 M18.9295484,15.6418065 C18.3390968,15.6418065 17.8590968,16.1218065 17.8590968,16.7122581 C17.8590968,16.7370323 17.8714839,16.7576774 17.8735484,16.7814194 L16.8877419,17.3966452 C16.8185806,17.3708387 16.7421935,17.3656774 16.6689032,17.3522581 L16.6689032,15.9432258 C17.3233548,15.6428387 17.7827097,14.9842581 17.7827097,14.2172903 C17.7827097,13.7930323 17.6371613,13.4049032 17.4018065,13.088 L18.2823226,11.6098065 C18.4020645,11.6449032 18.5207742,11.684129 18.651871,11.684129 C19.3950968,11.684129 20,11.0792258 20,10.3370323 C20,9.59380645 19.3950968,8.98890323 18.651871,8.98890323 C17.9096774,8.98890323 17.3047742,9.59380645 17.3047742,10.3370323 C17.3047742,10.5620645 17.3739355,10.7643871 17.472,10.9512258 L16.5790968,12.452129 C16.3623226,12.3664516 16.1269677,12.315871 15.8802581,12.315871 C15.5747097,12.315871 15.2908387,12.3943226 15.0348387,12.5233548 L14.4216774,11.8957419 C14.432,11.8379355 14.4567742,11.7842581 14.4567742,11.7223226 C14.4567742,11.1329032 13.9767742,10.651871 13.3863226,10.651871 C12.795871,10.651871 12.315871,11.1329032 12.315871,11.7223226 C12.315871,12.3127742 12.795871,12.7938065 13.3863226,12.7938065 C13.5256774,12.7938065 13.6557419,12.7618065 13.7775484,12.7143226 L14.2699355,13.2180645 C14.0892903,13.5091613 13.9788387,13.8498065 13.9788387,14.2172903 C13.9788387,14.2234839 13.9809032,14.2286452 13.9809032,14.2348387 L13.4606452,14.3432258 C13.2211613,14.1212903 12.9063226,13.9788387 12.5543226,13.9788387 C11.8110968,13.9788387 11.2072258,14.5827097 11.2072258,15.3259355 C11.2072258,16.0691613 11.8110968,16.6740645 12.5543226,16.6740645 C13.2975484,16.6740645 13.9024516,16.0691613 13.9024516,15.3259355 C13.9024516,15.3187097 13.8983226,15.3135484 13.8983226,15.3063226 L14.2750968,15.227871 C14.5703226,15.6954839 15.0637419,16.0206452 15.6366452,16.0949677 L15.6366452,17.595871 C15.3114839,17.8425806 15.0874839,18.2141935 15.0874839,18.651871 C15.0874839,19.3950968 15.6913548,20 16.4345806,20 C17.1778065,20 17.7827097,19.3950968 17.7827097,18.651871 C17.7827097,18.4650323 17.7434839,18.2864516 17.6732903,18.1233548 L18.436129,17.6474839 C18.5868387,17.7259355 18.7489032,17.7827097 18.9295484,17.7827097 C19.52,17.7827097 20,17.3027097 20,16.7122581 C20,16.1218065 19.52,15.6418065 18.9295484,15.6418065 M9.2283871,5.03225806 C11.7894194,5.03225806 13.4245161,5.8756129 13.4245161,6.45574194 C13.4245161,7.03690323 11.7894194,7.88025806 9.2283871,7.88025806 C6.66632258,7.88025806 5.03225806,7.03690323 5.03225806,6.45574194 C5.03225806,5.8756129 6.66632258,5.03225806 9.2283871,5.03225806 M9.2283871,18.6931613 C6.70554839,18.6931613 5.03225806,17.8818065 5.03225806,17.3450323 L5.03225806,15.5489032 C6.09032258,16.1796129 7.81006452,16.5099355 9.46374194,16.5099355 L9.46374194,15.4776774 C6.71483871,15.4776774 5.03225806,14.5827097 5.03225806,14.0954839 L5.03225806,11.8214194 C6.09032258,12.452129 7.81006452,12.7814194 9.46374194,12.7814194 C9.94890323,12.7814194 10.4299355,12.7535484 10.8944516,12.699871 L10.7736774,11.6748387 C10.3483871,11.7243871 9.90864516,11.7491613 9.46374194,11.7491613 C6.71483871,11.7491613 5.03225806,10.8552258 5.03225806,10.3669677 L5.03225806,7.96077419 C6.04696774,8.58529032 7.66658065,8.91251613 9.2283871,8.91251613 C10.7891613,8.91251613 12.4098065,8.58529032 13.4245161,7.96077419 L13.4245161,9.30477419 L14.4567742,9.30477419 L14.4567742,6.45574194 C14.4567742,4.86090323 11.7636129,4 9.2283871,4 C6.69316129,4 4,4.86090323 4,6.45574194 L4,17.3450323 C4,18.907871 6.63019355,19.7254194 9.2283871,19.7254194 C11.8265806,19.7254194 14.4567742,18.907871 14.4567742,17.3450323 L13.4245161,17.3450323 C13.4245161,17.8818065 11.7512258,18.6931613 9.2283871,18.6931613" id="Amazon-Neptune_Icon_16_Squid" fill="#FFFFFF"></path>
    </g>
</svg>