<svg xmlns="http://www.w3.org/2000/svg" width="24px" height="24px" viewBox="0 0 24 24"><defs><style>.cls-1{fill:#4285f4;}.cls-2{fill:#669df6;}</style></defs><title>Icon_24px_DevPortal_Color</title><g data-name="Product Icons"><path class="cls-1" d="M12,6.4A5.59,5.59,0,0,1,16,8l1-1A7.07,7.07,0,0,0,7,7H7L8,8A5.59,5.59,0,0,1,12,6.4Z"/><path class="cls-1" d="M12,17.6A5.59,5.59,0,0,1,8,16L7,17a7.07,7.07,0,0,0,10,0h0l-1-1A5.59,5.59,0,0,1,12,17.6Z"/><path class="cls-2" d="M12,15.07a3.06,3.06,0,0,1-3-2.34H5.11v2.38L2,12l3.11-3.1v2.38H9a3.06,3.06,0,0,1,3-2.34h0a3.06,3.06,0,0,1,3,2.34h3.91V8.89L22,12l-3.11,3.12V12.73H15A3.06,3.06,0,0,1,12,15.07Zm0-4.68A1.61,1.61,0,1,0,13.61,12h0A1.61,1.61,0,0,0,12,10.39Z"/></g></svg>