<?xml version="1.0" encoding="UTF-8"?>
<svg width="40px" height="40px" viewBox="0 0 40 40" version="1.1" xmlns="http://www.w3.org/2000/svg" xmlns:xlink="http://www.w3.org/1999/xlink">
    <title>Icon-Architecture/32/Arch_Amazon-Pinpoint_32</title>
    <defs>
        <linearGradient x1="0%" y1="100%" x2="100%" y2="0%" id="linearGradient-1">
            <stop stop-color="#BD0816" offset="0%"></stop>
            <stop stop-color="#FF5252" offset="100%"></stop>
        </linearGradient>
    </defs>
    <g id="Icon-Architecture/32/Arch_Amazon-Pinpoint_32" stroke="none" stroke-width="1" fill="none" fill-rule="evenodd">
        <g id="Rectangle" fill="url(#linearGradient-1)">
            <rect x="0" y="0" width="40" height="40"></rect>
        </g>
        <g id="Icon-Service/32/Amazon-Pinpoint" transform="translate(4.000000, 4.000000)" fill="#FFFFFF">
            <path d="M23.882454,6.50697974 C23.882454,7.40496814 24.6130718,8.13558594 25.510058,8.13558594 C26.4080464,8.13558594 27.137662,7.40496814 27.137662,6.50697974 C27.137662,5.60899134 26.4080464,4.87837354 25.510058,4.87837354 C24.6130718,4.87837354 23.882454,5.60899134 23.882454,6.50697974 L23.882454,6.50697974 Z M15.6452144,15.6462166 L18.4935214,12.7969074 C17.8029923,12.2577135 16.9440905,11.9229723 16.0020044,11.9229723 C13.755029,11.9229723 11.925979,13.7510201 11.925979,15.9979956 C11.925979,18.244971 13.755029,20.074021 16.0020044,20.074021 C18.2489799,20.074021 20.0770277,18.244971 20.0770277,15.9979956 C20.0770277,15.0549073 19.7422865,14.1970077 19.2020903,13.5054764 L16.3537834,16.3547856 L15.6452144,15.6462166 Z M22.0473907,10.6611783 L19.9106593,12.7979097 C20.6302527,13.6738492 21.0792469,14.779297 21.0792469,15.9979956 C21.0792469,18.798196 18.8022049,21.0762402 16.0020044,21.0762402 C13.201804,21.0762402 10.9237598,18.798196 10.9237598,15.9979956 C10.9237598,13.1987973 13.201804,10.9207531 16.0020044,10.9207531 C17.2217052,10.9207531 18.3261508,11.3707495 19.2020903,12.0893407 L21.3388217,9.95260935 C19.913666,8.69281982 18.048536,7.92211325 16.0020044,7.92211325 C11.5481423,7.92211325 7.92511991,11.5451357 7.92511991,15.9979956 C7.92511991,20.4518577 11.5481423,24.0748801 16.0020044,24.0748801 C20.4548643,24.0748801 24.0778867,20.4518577 24.0778867,15.9979956 C24.0778867,13.951464 23.3071802,12.086334 22.0473907,10.6611783 L22.0473907,10.6611783 Z M23.3242179,7.96721311 C23.0445988,7.54928771 22.8802348,7.04717589 22.8802348,6.50697974 C22.8802348,5.05676856 24.0598468,3.87615434 25.510058,3.87615434 C26.9602692,3.87615434 28.1398812,5.05676856 28.1398812,6.50697974 C28.1398812,7.95719092 26.9602692,9.13780514 25.510058,9.13780514 C24.9608419,9.13780514 24.4517145,8.96742788 24.0297802,8.67878875 L22.7559596,9.95260935 C24.1951464,11.5601689 25.0801059,13.6748515 25.0801059,15.9979956 C25.0801059,21.0040805 21.0080893,25.0770993 16.0020044,25.0770993 C10.9959195,25.0770993 6.92290071,21.0040805 6.92290071,15.9979956 C6.92290071,10.9919107 10.9959195,6.91989405 16.0020044,6.91989405 C18.3251485,6.91989405 20.4398311,7.80385139 22.0473907,9.24404038 L23.3242179,7.96721311 Z M30,16 C30,23.7190923 23.7190923,30 16,30 C8.28090772,30 2,23.7190923 2,16 C2,8.28090772 8.28090772,2 16,2 C17.9603408,2 19.8565395,2.39888324 21.6394874,3.18562531 L21.2335887,4.10265588 C19.5809292,3.3730403 17.8200301,3.0022192 16,3.0022192 C8.83212828,3.0022192 3.0022192,8.8331305 3.0022192,16 C3.0022192,23.1668695 8.83212828,28.9977808 16,28.9977808 C23.1668695,28.9977808 28.9977808,23.1668695 28.9977808,16 C28.9977808,14.1759611 28.6289641,12.4230797 27.9043597,10.7914668 L28.820388,10.3845658 C29.6031212,12.145465 30,14.0346481 30,16 L30,16 Z" id="Amazon-Pinpoint-Icon_32_Squid"></path>
        </g>
    </g>
</svg>