<svg width="24px" height="24px" viewBox="0 0 24 24" version="1.1" xmlns="http://www.w3.org/2000/svg" xmlns:xlink="http://www.w3.org/1999/xlink">
    <g stroke="none" stroke-width="1" fill="none" fill-rule="evenodd">
        <path d="M19.8571428,15 C19.9154586,15 19.9732303,15.0024459 20.03037,15.0072454 L19.8571428,15 C19.9364643,15 20.0147791,15.0045254 20.0918659,15.0133436 C20.1296023,15.017656 20.1672758,15.0230368 20.204625,15.0294315 C20.2228357,15.0325534 20.2405402,15.0358309 20.2581684,15.039335 C20.3004586,15.0477292 20.3428604,15.0575748 20.3847702,15.0687171 C20.3945717,15.0713258 20.4037876,15.0738482 20.4129791,15.0764331 C21.326852,15.3333106 22,16.2091137 22,17.25 C22,18.4926407 21.0406102,19.5 19.8571428,19.5 C18.6736755,19.5 17.7142857,18.4926407 17.7142857,17.25 C17.7142857,16.3780735 18.1866355,15.6219864 18.877311,15.2484638 L18.877311,15.2484638 L18.9100635,15.2311231 C18.9443305,15.2133666 18.9791149,15.1965436 19.0143864,15.1806857 L18.877311,15.2484638 C18.9359787,15.2167359 18.9962217,15.1877682 19.0578843,15.1617243 C19.092742,15.147007 19.127803,15.1333139 19.1632837,15.120571 C19.1799825,15.1145715 19.196991,15.108711 19.2140918,15.1030695 C19.2440321,15.0931962 19.2740208,15.08406 19.3042728,15.0756014 C19.3275691,15.0690883 19.3509656,15.0629905 19.3745104,15.0573 C19.4090225,15.0489486 19.4444165,15.041367 19.4801161,15.0347136 C19.4951724,15.0319081 19.5102036,15.0292807 19.5252868,15.0268184 C19.5673329,15.0199602 19.6095163,15.0144124 19.6520621,15.0101708 C19.6644546,15.0089354 19.676855,15.0078128 19.689285,15.0068015 C19.7445217,15.0023014 19.8005763,15 19.8571428,15 Z M4.14285715,15 C4.20453512,15 4.26560446,15.0027361 4.32596111,15.008099 L4.14285715,15 C4.22099312,15 4.29815234,15.0043911 4.37412318,15.0129511 C4.41377796,15.0174134 4.45340005,15.0230618 4.49266284,15.0298307 C4.51622521,15.0338982 4.53921496,15.0382768 4.56207385,15.0430372 C4.59932988,15.0507942 4.63631823,15.0595866 4.67293012,15.0693689 C4.69227667,15.0745419 4.71115609,15.0798831 4.72993048,15.0854864 C4.78499018,15.101898 4.83981004,15.120824 4.89360476,15.1419552 C4.89843332,15.1438513 4.90348444,15.1458578 4.9085264,15.1478837 C4.95626927,15.1670739 5.00297667,15.1879002 5.04880142,15.2103791 C5.0557635,15.2137946 5.06263155,15.2172111 5.06947941,15.2206647 C5.78919794,15.5838596 6.28571429,16.3560468 6.28571429,17.25 C6.28571429,18.4926407 5.32632447,19.5 4.14285715,19.5 C2.95938982,19.5 2,18.4926407 2,17.25 C2,16.1315866 2.77715683,15.2037637 3.79537497,15.0294315 C3.80956815,15.0269998 3.8240384,15.02468 3.83855549,15.0225131 C3.84496075,15.0215574 3.85124772,15.0206492 3.85754332,15.0197697 C3.95078898,15.0067371 4.04607376,15 4.14285715,15 Z M15.4598214,11.25 C15.7926716,11.25 16.0625,11.5270238 16.0625,11.86875 C16.0625,11.9639726 16.0415487,12.0541712 16.0041206,12.1347521 L16.0054932,12.1376953 L12.8637678,17.2979702 C12.8066,17.4200681 12.7304896,17.5310493 12.6393482,17.6268979 C12.4204614,17.8570898 12.1148793,18 11.7767857,18 C11.1110853,18 10.5714286,17.4459524 10.5714286,16.7625 C10.5714286,16.4545164 10.6810149,16.1728107 10.8623386,15.9562408 L10.9104286,15.904 L10.905761,15.8998089 L15.0686907,11.3939392 C15.1765001,11.3046817 15.3119408,11.25 15.4598214,11.25 Z M15.1084656,6.74999999 C18.0133804,7.96416588 20.1205244,10.8309306 20.3846768,14.2448779 C20.2133113,14.2116027 20.0371354,14.1944444 19.8571428,14.1944444 C19.5047649,14.1944444 19.1670153,14.2602074 18.8544189,14.3806824 C18.6458212,11.6496536 16.9939266,9.34567127 14.7001301,8.30940586 C14.9225155,7.91941454 15.0636704,7.47141054 15.0994619,6.99212551 L15.1084656,6.74999999 L15.1093811,6.74302677 Z M9.29346787,6.56744263 C9.29007843,6.62784011 9.28835979,6.68870931 9.28835979,6.74999999 C9.28835979,7.25746639 9.40617758,7.73603909 9.61465868,8.15720585 C7.13740589,9.10125276 5.32069548,11.4942975 5.09293665,14.3614713 C4.7957723,14.2531696 4.47584615,14.1944444 4.14285715,14.1944444 C3.94392076,14.1944444 3.74964674,14.2154045 3.56192887,14.2553362 C3.82170799,10.8395737 5.92768658,7.96933021 8.83193007,6.74545938 L9.07893274,6.64609366 L9.29346787,6.56744263 Z M12.1984127,4.5 C13.2880884,4.5 14.1877963,5.35401683 14.3235586,6.45937411 C14.3225899,6.45891609 14.3229209,6.45901659 14.3232518,6.45911712 L14.3342978,6.5671734 C14.338916,6.6274758 14.3412698,6.68844927 14.3412698,6.74999999 C14.3412698,6.81120876 14.3389421,6.87184669 14.3343745,6.93182148 L14.3412698,6.74999999 C14.3412698,6.83199531 14.3370927,6.91296621 14.3289496,6.99269089 C14.3249152,7.03215486 14.3199409,7.07110573 14.3140304,7.10972796 C14.3105222,7.13264589 14.3067023,7.15535074 14.3025607,7.17793539 C14.2960853,7.21325462 14.2888028,7.24836831 14.2807498,7.28316552 C14.2755037,7.3058206 14.2700089,7.32804534 14.2642014,7.35013384 C14.2178427,7.52645849 14.1515529,7.69410805 14.0680383,7.85023519 C14.0619422,7.8616315 14.0557534,7.87296822 14.0494739,7.88424243 C14.0268949,7.92477797 14.0031721,7.96445944 13.9783277,8.00328343 C13.9729077,8.01175038 13.9676223,8.01989111 13.9622876,8.02799329 C13.5756237,8.61524983 12.9298102,9 12.1984127,9 C11.3127281,9 10.5525435,8.43580391 10.2260645,7.63102749 C10.2176184,7.60950003 10.209201,7.58788153 10.2010993,7.56609628 C10.1914361,7.54067045 10.1825194,7.51526539 10.1740313,7.48964964 C10.1652496,7.46271515 10.1567381,7.43541169 10.1487178,7.40788185 C10.1235691,7.32180028 10.10327,7.23326672 10.0881101,7.14287301 C10.0854232,7.12676177 10.0828451,7.11035025 10.0804375,7.09387954 C10.0640354,6.98157333 10.0555556,6.86682646 10.0555556,6.74999999 C10.0555556,6.61878948 10.066252,6.49020219 10.0867794,6.36514704 C10.0885999,6.35405881 10.0904832,6.34307908 10.0924421,6.33212733 C10.2789951,5.28915512 11.1509339,4.5 12.1984127,4.5 Z" fill="#4285F4" fill-rule="nonzero"></path>
    </g>
</svg>