<?xml version="1.0" encoding="UTF-8"?>
<svg width="80px" height="80px" viewBox="0 0 80 80" version="1.1" xmlns="http://www.w3.org/2000/svg" xmlns:xlink="http://www.w3.org/1999/xlink">
    <!-- Generator: Sketch 64 (93537) - https://sketch.com -->
    <title>Icon-Architecture/64/Arch_Alexa-For-Business_64</title>
    <desc>Created with Sketch.</desc>
    <defs>
        <linearGradient x1="0%" y1="100%" x2="100%" y2="0%" id="linearGradient-1">
            <stop stop-color="#BD0816" offset="0%"></stop>
            <stop stop-color="#FF5252" offset="100%"></stop>
        </linearGradient>
    </defs>
    <g id="Icon-Architecture/64/Arch_Alexa-For-Business_64" stroke="none" stroke-width="1" fill="none" fill-rule="evenodd">
        <g id="Icon-Architecture-BG/64/Business-Applications" fill="url(#linearGradient-1)">
            <rect id="Rectangle" x="0" y="0" width="80" height="80"></rect>
        </g>
        <path d="M30.753,41.4956914 L41.753,41.4956914 L41.753,39.5043086 L30.753,39.5043086 L30.753,41.4956914 Z M30.753,36.5172345 L51.753,36.5172345 L51.753,34.5258518 L30.753,34.5258518 L30.753,36.5172345 Z M30.753,31.5387777 L48.753,31.5387777 L48.753,29.5473949 L30.753,29.5473949 L30.753,31.5387777 Z M40,14.9913827 C28.421,14.9913827 19,24.3707955 19,35.9009016 C19,44.3075238 24.032,51.865817 31.819,55.1575727 C32.406,55.4045041 32.697,55.9133024 32.685,56.6690322 L32.684,65.7338064 L36.588,64.7749556 C50.729,61.1426735 61,48.9982259 61,35.9009016 C61,24.3707955 51.579,14.9913827 40,14.9913827 L40,14.9913827 Z M31.684,68 C31.462,68 31.245,67.9263188 31.067,67.7879177 C30.825,67.5997321 30.684,67.3099859 30.684,67.0043086 L30.684,56.837304 C22.358,53.1542416 17,44.9786198 17,35.9009016 C17,23.2735436 27.317,13 40,13 C52.683,13 63,23.2735436 63,35.9009016 C63,49.8923567 52.098,62.8472972 37.077,66.7056012 L31.923,67.971125 C31.844,67.9900431 31.764,68 31.684,68 L31.684,68 Z M39.883,20.6011079 C31.46,20.6628408 24.602,27.5490423 24.602,35.9496904 C24.602,41.4200188 27.787,46.5438466 33.124,49.6573735 C33.894,50.1034433 35.949,51.5531699 36.036,51.6139071 C37.544,52.7519823 38.443,54.5143561 38.596,56.595351 L38.598,58.4015352 C48.489,55.2262754 55.542,46.2451392 55.542,36.5909157 C55.542,35.1113183 55.342,33.6446649 54.946,32.2297875 C54.913,32.089395 54.884,31.9987871 54.854,31.9041964 C53.115,25.6731598 47.692,21.19454 41.331,20.6638365 L41.182,20.6568666 C40.821,20.6379485 40.112,20.6011079 39.883,20.6011079 L39.883,20.6011079 Z M37.599,60.7264745 C37.381,60.7264745 37.166,60.6557804 36.989,60.5203664 C36.743,60.3321807 36.599,60.0404432 36.599,59.7307832 L36.599,56.6680365 C36.491,55.2382237 35.871,53.9876353 34.854,53.2199573 C34.307,52.8346247 32.693,51.7114848 32.115,51.3769325 C26.157,47.900974 22.602,42.1339295 22.602,35.9496904 C22.602,26.4587603 30.351,18.6794236 39.875,18.6097252 C40.131,18.6097252 40.896,18.6485572 41.284,18.668471 L41.463,18.6764365 C48.689,19.2788298 54.819,24.3419204 56.752,31.2779065 C56.808,31.4521525 56.851,31.5915493 56.885,31.7399073 C57.317,33.2842246 57.542,34.9310982 57.542,36.5909157 C57.542,47.5365509 49.263,57.6736848 37.855,60.6936167 C37.771,60.7155219 37.685,60.7264745 37.599,60.7264745 L37.599,60.7264745 Z" id="Alexa-For-Business_Icon_64_Squid" fill="#FFFFFF"></path>
    </g>
</svg>