<?xml version="1.0" encoding="UTF-8"?>
<svg width="80px" height="80px" viewBox="0 0 80 80" version="1.1" xmlns="http://www.w3.org/2000/svg" xmlns:xlink="http://www.w3.org/1999/xlink">
    <title>Icon-Architecture/64/Arch_Amazon-Pinpoint_64</title>
    <defs>
        <linearGradient x1="0%" y1="100%" x2="100%" y2="0%" id="linearGradient-1">
            <stop stop-color="#BD0816" offset="0%"></stop>
            <stop stop-color="#FF5252" offset="100%"></stop>
        </linearGradient>
    </defs>
    <g id="Icon-Architecture/64/Arch_Amazon-Pinpoint_64" stroke="none" stroke-width="1" fill="none" fill-rule="evenodd">
        <g id="Rectangle" fill="url(#linearGradient-1)">
            <rect x="0" y="0" width="80" height="80"></rect>
        </g>
        <g id="Icon-Service/64/Amazon-Pinpoint" transform="translate(8.000000, 8.000000)" fill="#FFFFFF">
            <path d="M31.293,31.293 L35.473,27.114 C34.492,26.416 33.297,26 32.004,26 C28.697,26 26.007,28.69 26.007,31.997 C26.007,35.303 28.697,37.993 32.004,37.993 C35.311,37.993 38,35.303 38,31.997 C38,30.704 37.585,29.508 36.887,28.528 L32.707,32.707 L31.293,31.293 Z M42.569,22.845 L38.313,27.102 C39.366,28.456 40,30.152 40,31.997 C40,36.406 36.413,39.993 32.004,39.993 C27.595,39.993 24.007,36.406 24.007,31.997 C24.007,27.587 27.595,24 32.004,24 C33.849,24 35.544,24.634 36.898,25.688 L41.155,21.431 C38.699,19.3 35.504,18 32.004,18 C24.286,18 18.007,24.279 18.007,31.997 C18.007,39.714 24.286,45.993 32.004,45.993 C39.722,45.993 46,39.714 46,31.997 C46,28.497 44.7,25.301 42.569,22.845 L42.569,22.845 Z M45.03,15.515 C45.03,17.437 46.594,19 48.515,19 C50.437,19 52,17.437 52,15.515 C52,13.594 50.437,12.03 48.515,12.03 C46.594,12.03 45.03,13.594 45.03,15.515 L45.03,15.515 Z M42.568,20.017 L43.984,18.602 C43.383,17.722 43.03,16.659 43.03,15.515 C43.03,12.491 45.49,10.03 48.515,10.03 C51.539,10.03 54,12.491 54,15.515 C54,18.54 51.539,21 48.515,21 C47.355,21 46.281,20.636 45.395,20.02 L43.982,21.431 C46.475,24.253 48,27.946 48,31.997 C48,40.817 40.824,47.993 32.004,47.993 C23.183,47.993 16.007,40.817 16.007,31.997 C16.007,23.176 23.183,16 32.004,16 C36.055,16 39.747,17.526 42.568,20.017 L42.568,20.017 Z M56,32 C56,45.233 45.233,56 32,56 C18.767,56 8,45.233 8,32 C8,18.767 18.767,8 32,8 C35.361,8 38.614,8.684 41.669,10.032 L40.86,11.862 C38.063,10.626 35.081,10 32,10 C19.869,10 10,19.869 10,32 C10,44.131 19.869,54 32,54 C44.131,54 54,44.131 54,32 C54,28.91 53.378,25.944 52.149,23.186 L53.978,22.372 C55.319,25.389 56,28.628 56,32 L56,32 Z" id="Amazon-Pinpoint-Icon_64_Squid"></path>
        </g>
    </g>
</svg>