<svg version="1.1" baseProfile="tiny" id="Layer_1" xmlns="http://www.w3.org/2000/svg" xmlns:xlink="http://www.w3.org/1999/xlink"
	 x="0px" y="0px" width="24px" height="24px" viewBox="0 0 24 24" overflow="visible" xml:space="preserve">
<g >
	<rect y="0" fill="none" width="24" height="24"/>
	<path fill-rule="evenodd" fill="#5C85DE" d="M20.9,13.5l1.9,1.5c0.2,0.2,0.3,0.5,0.1,0.7l-2.2,3.9
		c-0.1,0.2-0.4,0.3-0.7,0.2l-2.2-0.9c-0.8,0.6-1.7,1.1-2.6,1.5l-0.3,2.4c0,0.3-0.3,0.5-0.6,0.5H9.7c-0.3,0-0.5-0.2-0.6-0.5l-0.3-2.4
		c-0.9-0.3-1.8-0.9-2.6-1.5l-2.2,0.9c-0.3,0.1-0.5,0-0.7-0.2l-2.2-3.9C1,15.4,1,15.1,1.3,15l1.9-1.5c-0.2-1-0.2-2,0-3L1.3,9
		C1,8.9,1,8.6,1.1,8.3l2.2-3.9c0.1-0.2,0.4-0.3,0.7-0.2l2.2,0.9C7,4.4,7.9,3.9,8.9,3.6l0.3-2.4c0-0.3,0.3-0.5,0.6-0.5h4.5
		c0.3,0,0.5,0.2,0.6,0.5l0.3,2.4c0.9,0.3,1.8,0.9,2.6,1.5l2.2-0.9c0.3-0.1,0.5,0,0.7,0.2l2.2,3.9C23,8.6,23,8.9,22.7,9l-1.9,1.5
		C21,11.5,21,12.5,20.9,13.5z M8.6,14.4L8.6,14.4l0.6-1.2h4.9c0.5,0,0.9-0.3,1.2-0.7l2.5-4.6l-1.1-0.6l-0.7,1.3l-1.8,3.3H9.5
		l-0.1-0.2l-2-5H5.3V8h1.3l1.6,4.3l-0.9,1.6c-0.1,0.2-0.2,0.4-0.2,0.6c0,0.7,0.6,1.3,1.3,1.3h7.9v-1.3H8.8
		C8.7,14.6,8.6,14.5,8.6,14.4z M9.4,16.4c-0.7,0-1.2,0.6-1.2,1.2s0.6,1.2,1.2,1.2c0.7,0,1.2-0.6,1.2-1.2S10,16.4,9.4,16.4z
		 M14.8,16.4c-0.7,0-1.2,0.6-1.2,1.2s0.6,1.2,1.2,1.2c0.7,0,1.2-0.6,1.2-1.2S15.4,16.4,14.8,16.4z M12,4.5v3.3h3.3L12,4.5z M12,4.5
		L8.7,7.8H12V4.5z M12,7.8H8.7l3.3,3.3V7.8z M15.3,7.8H12v3.3L15.3,7.8z"/>
	<path id="Combined-Shape_00000119825879366419215390000016611991910470830780_" fill-rule="evenodd" fill="#3367D6" d="M12,11.1
		l3.3-3.3L12,4.5V0.8h2.2c0.3,0,0.5,0.2,0.6,0.5l0.3,2.4c0.9,0.3,1.8,0.9,2.6,1.5l2.2-0.9c0.3-0.1,0.5,0,0.7,0.2l2.2,3.9
		C23,8.6,23,8.9,22.7,9l-1.9,1.5c0.2,1,0.2,2,0,3l1.9,1.5c0.2,0.2,0.3,0.5,0.1,0.7l-2.2,3.9c-0.1,0.2-0.4,0.3-0.7,0.2l-2.2-0.9
		c-0.8,0.6-1.7,1.1-2.6,1.5l-0.3,2.4c0,0.3-0.3,0.5-0.6,0.5H12v-7.4h4.4v-1.3H12v-1.3h2.1c0.5,0,0.9-0.3,1.2-0.7l2.5-4.6l-1.1-0.6
		l-0.7,1.3l-1.8,3.3H12V11.1z M14.8,16.4c-0.7,0-1.2,0.6-1.2,1.2s0.6,1.2,1.2,1.2c0.7,0,1.2-0.6,1.2-1.2S15.4,16.4,14.8,16.4z"/>
</g>
</svg>
