<svg xmlns="http://www.w3.org/2000/svg" width="24px" height="24px" viewBox="0 0 24 24"><defs><style>.cls-1{fill:#4285f4;}.cls-2{fill:#669df6;}</style></defs><title>Icon_24px_PartnerInterconnect_Color</title><g data-name="Product Icons"><rect class="cls-1" x="11.19" y="6.86" width="1.62" height="10.27"/><rect class="cls-2" x="2" y="11.19" width="2.7" height="1.62"/><rect class="cls-1" x="4.43" y="8.76" width="4.86" height="6.49" rx="0.24"/><rect class="cls-2" x="11.19" y="6.86" width="1.62" height="10.27"/><rect class="cls-2" x="19.3" y="11.19" width="2.7" height="1.62"/><path class="cls-2" d="M6.59,17.14v1.33a.29.29,0,0,0,.29.29H17.12a.29.29,0,0,0,.29-.29h0V17.14Z"/><path class="cls-2" d="M17.12,5.24H6.88a.29.29,0,0,0-.29.29h0V6.86H17.41V5.53a.29.29,0,0,0-.29-.29Z"/><rect class="cls-1" x="14.7" y="8.76" width="4.86" height="6.49" rx="0.24"/></g></svg>