<?xml version="1.0" encoding="UTF-8"?>
<svg width="40px" height="40px" viewBox="0 0 40 40" version="1.1" xmlns="http://www.w3.org/2000/svg" xmlns:xlink="http://www.w3.org/1999/xlink">
    <!-- Generator: Sketch 64 (93537) - https://sketch.com -->
    <title>Icon-Architecture/32/Arch_Amazon-Athena_32</title>
    <desc>Created with Sketch.</desc>
    <defs>
        <linearGradient x1="0%" y1="100%" x2="100%" y2="0%" id="linearGradient-1">
            <stop stop-color="#4D27A8" offset="0%"></stop>
            <stop stop-color="#A166FF" offset="100%"></stop>
        </linearGradient>
    </defs>
    <g id="Icon-Architecture/32/Arch_Amazon-Athena_32" stroke="none" stroke-width="1" fill="none" fill-rule="evenodd">
        <g id="Icon-Architecture-BG/32/Analytics" fill="url(#linearGradient-1)">
            <rect id="Rectangle" x="0" y="0" width="40" height="40"></rect>
        </g>
        <path d="M18.7260205,14.2853988 C20.5266711,14.2853988 21.7081256,14.5696577 22.1453248,14.7840986 C21.7081256,14.9985395 20.5266711,15.2827984 18.7260205,15.2827984 C16.92537,15.2827984 15.7439155,14.9985395 15.3067163,14.7840986 C15.7439155,14.5696577 16.92537,14.2853988 18.7260205,14.2853988 L18.7260205,14.2853988 Z M18.7402549,17.483062 C18.6517984,17.4561322 18.5755427,17.4042674 18.5755427,17.3015353 C18.5755427,17.1618993 18.6904346,17.0491932 18.8317617,17.0491932 C18.8744649,17.0491932 18.9039504,17.0751256 18.9385197,17.0920814 L18.7402549,17.483062 Z M21.6786401,21.6392263 C21.6410206,21.6681509 21.5545975,21.7260001 21.3756509,21.7948206 C21.2139889,21.8576568 21.0228413,21.9135112 20.8103422,21.9613864 C20.238933,22.0910483 19.5363641,22.1628611 18.8317617,22.1628611 C17.2903805,22.1628611 16.2156839,21.840701 15.9859001,21.6412211 L15.2975656,15.8473266 C16.4851206,16.2482813 18.234934,16.2801981 18.7260205,16.2801981 C19.2221908,16.2801981 21.0014897,16.2472839 22.1900614,15.8353578 L21.9877297,18.1333666 C21.2526251,17.8570869 20.3792435,17.4770776 19.5475483,17.0850996 C19.4509578,16.7808927 19.1723704,16.5554804 18.8317617,16.5554804 C18.4128639,16.5554804 18.0722553,16.8906066 18.0722553,17.3015353 C18.0722553,17.7124639 18.4128639,18.0465928 18.8317617,18.0465928 C18.9324192,18.0465928 19.0269762,18.0256474 19.1144161,17.9907384 C20.2918036,18.551277 21.2048382,18.9352759 21.8952062,19.1766466 L21.6786401,21.6392263 Z M14.1537306,14.8419478 L14.9762751,21.7329819 C14.9762751,23.1443024 18.6741667,23.1602607 18.8317617,23.1602607 C19.611603,23.1602607 20.3955113,23.0794714 21.0380924,22.933851 C21.3065124,22.8730097 21.5454468,22.8011969 21.7487953,22.7224023 C22.3720583,22.4810316 22.6872484,22.1479001 22.6862316,21.7758701 L22.8895801,19.4708795 C23.1885023,19.5387027 23.4243865,19.5686247 23.6053667,19.5686247 C24.0832355,19.5686247 24.2093116,19.3801161 24.2957347,19.2504542 L24.3719903,18.7736971 C24.2499812,18.2819791 23.3725327,17.5867916 23.0746272,17.3703559 L23.2993272,14.8269868 L23.2942435,14.8259894 C23.2952603,14.8120258 23.3013607,14.7990596 23.3013607,14.7840986 C23.3013607,13.3598119 19.489594,13.2879991 18.7260205,13.2879991 C17.9624471,13.2879991 14.1506804,13.3598119 14.1506804,14.7840986 C14.1506804,14.8040466 14.1588143,14.8210024 14.1608478,14.8409504 L14.1537306,14.8419478 Z M18.7453386,9.39415096 C23.5097929,9.39415096 27.3876479,13.1972358 27.3876479,17.8720479 C27.3876479,22.54686 23.5097929,26.3499448 18.7453386,26.3499448 C13.9798677,26.3499448 10.1030294,22.54686 10.1030294,17.8720479 C10.1030294,13.1972358 13.9798677,9.39415096 18.7453386,9.39415096 L18.7453386,9.39415096 Z M6.01674226,21.2671962 L6.01674226,22.2645959 L10.1935195,22.2645959 C11.8111564,25.2817298 15.0342294,27.3473444 18.7453386,27.3473444 C24.0710346,27.3473444 28.4043901,23.0964272 28.4043901,17.8720479 C28.4043901,12.6476686 24.0710346,8.39675133 18.7453386,8.39675133 C14.3357275,8.39675133 10.613434,11.3141453 9.46248179,15.2827984 L6.01674226,15.2827984 L6.01674226,16.2801981 L9.23371478,16.2801981 C9.14322472,16.7988459 9.08628715,17.3284651 9.08628715,17.8720479 C9.08628715,18.0076942 9.10052154,18.1403484 9.106622,18.2749973 L5,18.2749973 L5,19.272397 L9.20321251,19.272397 C9.30793696,19.9645923 9.48790034,20.6318527 9.73801894,21.2671962 L6.01674226,21.2671962 Z M33.5033526,32.5318277 C32.8892402,33.1352545 31.8226776,33.1402415 31.2075485,32.5368147 L25.955058,27.3852456 C26.8355568,26.7419228 27.6214986,25.9878887 28.294582,25.1391016 L33.509453,30.2806968 C33.8154925,30.580914 33.9832549,30.9808713 33.9832549,31.4067609 C33.9822382,31.8316532 33.8124422,32.2316104 33.5033526,32.5318277 L33.5033526,32.5318277 Z M34.2293066,29.5765326 L28.8954766,24.3172443 C30.124718,22.4590888 30.8476218,20.2488512 30.8476218,17.8720479 C30.8476218,11.3261141 25.4182181,6 18.7453386,6 C13.9493654,6 9.59974199,8.78174759 7.66589821,13.0865244 L8.59520064,13.4894739 C10.3683991,9.54575571 14.3519953,6.99739964 18.7453386,6.99739964 C24.8569764,6.99739964 29.8308795,11.8756813 29.8308795,17.8720479 C29.8308795,23.8684145 24.8569764,28.7476935 18.7453386,28.7476935 C15.0128778,28.7476935 11.5529039,26.9214548 9.49095057,23.8634275 L8.64298753,24.4139921 C10.8940549,27.7522887 14.6702357,29.7450932 18.7453386,29.7450932 C21.0777454,29.7450932 23.2505236,29.0828198 25.1009945,27.9567556 L30.4887118,33.2429737 C30.9869155,33.7307021 31.6477979,34 32.3493501,34 C33.055986,34 33.7209354,33.7287073 34.2211726,33.2389841 C34.7214098,32.7512557 34.9979637,32.1009511 35,31.4077583 C35.0010139,30.715563 34.7264935,30.064261 34.2293066,29.5765326 L34.2293066,29.5765326 Z" id="Amazon-Athena_Icon_32_Squid" fill="#FFFFFF"></path>
    </g>
</svg>