<?xml version="1.0" encoding="UTF-8"?>
<svg width="40px" height="40px" viewBox="0 0 40 40" version="1.1" xmlns="http://www.w3.org/2000/svg" xmlns:xlink="http://www.w3.org/1999/xlink">
    <!-- Generator: Sketch 64 (93537) - https://sketch.com -->
    <title>Icon-Architecture/32/Arch_AWS-Data-Pipeline_32</title>
    <desc>Created with Sketch.</desc>
    <defs>
        <linearGradient x1="0%" y1="100%" x2="100%" y2="0%" id="linearGradient-1">
            <stop stop-color="#4D27A8" offset="0%"></stop>
            <stop stop-color="#A166FF" offset="100%"></stop>
        </linearGradient>
    </defs>
    <g id="Icon-Architecture/32/Arch_AWS-Data-Pipeline_32" stroke="none" stroke-width="1" fill="none" fill-rule="evenodd">
        <g id="Icon-Architecture-BG/32/Analytics" fill="url(#linearGradient-1)">
            <rect id="Rectangle" x="0" y="0" width="40" height="40"></rect>
        </g>
        <path d="M31.5001731,31 L30.5352844,31 C30.3083106,31 30.018344,30.72 30.018344,30.5 L30.018344,29.047 L32.0001154,29.047 L32.0001154,30.5 C32.0001154,30.724 31.7251471,31 31.5001731,31 L31.5001731,31 Z M11.0205361,29.029 L29.0184594,29.029 L29.0184594,28 L11.0205361,28 L11.0205361,29.029 Z M9.44371803,31 L8.53782256,31 C8.19586202,31 7.99988463,30.818 7.99988463,30.5 L7.99988463,29.042 L10.0206515,29.042 L10.0206515,30.5 C10.0206515,30.74 9.79967696,31 9.44371803,31 L9.44371803,31 Z M8.5418221,16 L9.52070915,16 C9.74468331,16 10.0206515,16.276 10.0206515,16.5 L10.0206515,18 L7.99988463,18 L7.99988463,16.5 C7.99988463,16.285 8.30884898,16 8.5418221,16 L8.5418221,16 Z M11.0205361,19 L29.0184594,19 L29.0184594,18.016 L11.0205361,18.016 L11.0205361,19 Z M19.0086144,14 L20.9873861,14 L20.9863862,17.016 L19.0076145,17.016 L19.0086144,14 Z M16.489905,13 C16.3019267,13 16.1269469,13.11 16.0419567,13.279 C16.0269584,13.307 15.6859978,13.971 15.0160751,13.971 C14.1111795,13.971 14.0141907,12.937 14.0141907,12.492 C14.0141907,10.979 14.7161097,10.979 15.0160751,10.979 C15.6769988,10.979 16.0259585,11.668 16.038957,11.695 C16.1219475,11.869 16.2979272,11.979 16.489905,11.979 L23.4541014,11.979 C23.6320809,11.979 23.7970619,11.884 23.8860516,11.73 C23.891051,11.723 24.3409991,10.982 25.0219205,10.982 C25.2678922,10.982 26.0128062,10.982 26.0128062,12.518 C26.0128062,13.498 25.6798446,13.994 25.0219205,13.994 C24.3399992,13.994 23.8890513,13.253 23.8860516,13.248 C23.796062,13.094 23.6320809,13 23.4541014,13 L16.489905,13 Z M19.0346114,10.516 C19.0346114,9.991 19.2405876,9 20.0194978,9 C20.7854094,9 20.9893858,9.943 20.9893858,10.5 L20.9893858,10.979 L19.0346114,10.979 L19.0346114,10.516 Z M30.018344,28.047 L32.0001154,28.047 L32.0001154,19 L30.018344,19 L30.018344,28.047 Z M11.0205361,27 L29.0184594,27 L29.0184594,20 L11.0205361,20 L11.0205361,27 Z M7.99988463,28.042 L10.0206515,28.042 L10.0206515,19 L7.99988463,19 L7.99988463,28.042 Z M30.5182864,16 L31.4711764,16 C31.6991501,16 32.0001154,16.314 32.0001154,16.5 L32.0001154,18 L30.018344,18 L30.018344,16.5 C30.018344,16.31 30.2973118,16 30.5182864,16 L30.5182864,16 Z M31.4711764,15 L30.5182864,15 C29.7613737,15 29.0184594,15.743 29.0184594,16.5 L29.0184594,17.016 L21.9862708,17.016 L21.9872707,14 L23.1951313,14 C23.4800985,14.363 24.1050263,14.994 25.0219205,14.994 C26.2687767,14.994 27.0126908,14.068 27.0126908,12.518 C27.0126908,10.93 26.2687767,9.982 25.0219205,9.982 C24.1050263,9.982 23.4790986,10.615 23.1941314,10.979 L21.9892705,10.979 L21.9892705,10.5 C21.9892705,9.028 21.1793639,8 20.0194978,8 C18.8516325,8 18.0347268,9.035 18.0347268,10.516 L18.0347268,10.979 L16.7708726,10.979 C16.5079029,10.6 15.9369688,9.979 15.0160751,9.979 C14.4141445,9.979 13.014306,10.224 13.014306,12.492 C13.014306,13.998 13.8002154,14.971 15.0160751,14.971 C15.9369688,14.971 16.5049033,14.37 16.7678729,14 L18.0087298,14 L18.0077299,17.016 L11.0205361,17.016 L11.0205361,16.5 C11.0205361,15.729 10.2916202,15 9.52070915,15 L8.5418221,15 C7.74891359,15 7,15.729 7,16.5 L7,30.5 C7,31.369 7.64692535,32 8.53782256,32 L9.44371803,32 C10.3136177,32 11.0205361,31.327 11.0205361,30.5 L11.0205361,30.029 L29.0184594,30.029 L29.0184594,30.5 C29.0184594,31.271 29.7553744,32 30.5352844,32 L31.5001731,32 C32.2710841,32 33,31.271 33,30.5 L33,16.5 C33,15.743 32.2420875,15 31.4711764,15 L31.4711764,15 Z" id="AWS-Data-Pipeline_Icon_32_Squid" fill="#FFFFFF"></path>
    </g>
</svg>