<?xml version="1.0" encoding="UTF-8"?>
<svg width="40px" height="40px" viewBox="0 0 40 40" version="1.1" xmlns="http://www.w3.org/2000/svg" xmlns:xlink="http://www.w3.org/1999/xlink">
    <!-- Generator: Sketch 64 (93537) - https://sketch.com -->
    <title>Icon-Architecture/32/Arch_Amazon-Managed-Streaming-for-Kafka_32</title>
    <desc>Created with Sketch.</desc>
    <defs>
        <linearGradient x1="0%" y1="100%" x2="100%" y2="0%" id="linearGradient-1">
            <stop stop-color="#4D27A8" offset="0%"></stop>
            <stop stop-color="#A166FF" offset="100%"></stop>
        </linearGradient>
    </defs>
    <g id="Icon-Architecture/32/Arch_Amazon-Managed-Streaming-for-Kafka_32" stroke="none" stroke-width="1" fill="none" fill-rule="evenodd">
        <g id="Icon-Architecture-BG/32/Analytics" fill="url(#linearGradient-1)">
            <rect id="Rectangle" x="0" y="0" width="40" height="40"></rect>
        </g>
        <path d="M19.0026125,18.5447346 L18.0047255,18.5447346 L18.0047255,14.0492741 L19.0026125,14.0492741 L19.0026125,16.0470344 L20.3501095,14.0492741 L21.4538784,14.0492741 L19.8936187,16.1510219 L21.5827346,18.5447346 L20.3990549,18.5447346 L19.0026125,16.3719954 L19.0026125,18.5447346 Z M33,25.0589529 L32.6663721,25.3479182 C31.3178762,26.5287765 29.0374198,26.5267768 27.6889239,25.3469184 L27.022667,24.7689877 C26.0447578,23.9140903 24.3336663,23.9120905 23.3567559,24.766988 L22.6865035,25.3479182 C22.0132544,25.9388473 21.1062661,26.2338119 20.1992777,26.2338119 C19.2922894,26.2338119 18.385301,25.9378475 17.7100542,25.3459185 L17.0427984,24.7689877 C16.065888,23.9120905 14.3537977,23.9130904 13.3778862,24.766988 L12.7066349,25.3479182 C11.3611357,26.5287765 9.08067924,26.5297764 7.73118445,25.3459185 L7.39855546,25.0589529 L8.05182681,24.3020438 L8.38645357,24.592009 C9.36436283,25.449906 11.0754543,25.4489061 12.0513658,24.5940087 L12.7226171,24.0130784 C14.0691152,22.83322 16.3485727,22.8322201 17.6980675,24.0140783 L18.3653233,24.592009 C19.3432325,25.449906 21.0553229,25.4489061 22.0302355,24.5940087 L22.7014868,24.0130784 C24.0489838,22.8322201 26.3294402,22.8342199 27.678935,24.0140783 L28.3451919,24.592009 C29.3231012,25.4479063 31.0341926,25.449906 32.0101041,24.5940087 L32.3457298,24.3030436 L33,25.0589529 Z M31.9491721,31.0682318 L32.6024434,31.825141 L32.2678167,32.1151062 C31.5945676,32.7050354 30.6885781,33 29.7815898,33 C28.8746014,33 27.967613,32.7040355 27.2923662,32.1121065 L26.6251105,31.5361757 C25.6472012,30.6772787 23.9351108,30.6792785 22.9601982,31.533176 L22.2889469,32.1151062 C20.9424488,33.2939647 18.6629913,33.2959645 17.3134965,32.1121065 L16.6462407,31.5361757 C15.6693304,30.6802784 13.9562411,30.6792785 12.9803296,31.5341759 L12.3100772,32.1141063 C10.9625802,33.2949646 8.68212379,33.2929648 7.33262899,32.1131064 L7.00099889,31.825141 L7.65526912,31.0692317 L7.988897,31.358197 C8.96580737,32.2130944 10.6768988,32.2160941 11.6548081,31.3601968 L12.3240616,30.7792665 C13.6725575,29.5984082 15.9530139,29.6014078 17.3015099,30.7812662 L17.9687656,31.358197 C18.945676,32.2160941 20.6577663,32.2150942 21.6336778,31.3601968 L22.3049291,30.7792665 C23.6504284,29.5994081 25.9308848,29.5984082 27.2803796,30.7812662 L27.9476353,31.358197 C28.9255446,32.2160941 30.6366361,32.2150942 31.6125475,31.3601968 L31.9491721,31.0682318 Z M31.9491721,27.9026117 L32.6024434,28.658521 L32.2678167,28.9484862 C30.9223174,30.1273447 28.641861,30.1293445 27.2923662,28.9464864 L26.6251105,28.3685558 C25.6472012,27.5116586 23.9351108,27.5126585 22.9601982,28.366556 L22.2889469,28.9484862 C21.6156979,29.5384154 20.7097084,29.83338 19.80272,29.83338 C18.8957317,29.83338 17.9877444,29.5384154 17.3134965,28.9464864 L16.6462407,28.3685558 C15.6693304,27.5136584 13.9562411,27.5126585 12.9803296,28.3675559 L12.3100772,28.9484862 C10.9625802,30.1283446 8.68212379,30.1273447 7.33262899,28.9464864 L7,28.6575211 L7.65626801,27.9026117 L7.98989589,28.1925769 C8.96480848,29.0474743 10.6768988,29.0494741 11.6548081,28.1935768 L12.3240616,27.6126465 C13.6725575,26.4317882 15.9530139,26.4347878 17.3015099,27.6146462 L17.9687656,28.1925769 C18.945676,29.0484742 20.6577663,29.0484742 21.6336778,28.1935768 L22.3049291,27.6126465 C23.6504284,26.4327881 25.9308848,26.4317882 27.2803796,27.6146462 L27.9476353,28.1925769 C28.9255446,29.0484742 30.6366361,29.0484742 31.6125475,28.1935768 L31.9491721,27.9026117 Z M12.5088555,18.9986802 C13.0602405,18.9986802 13.5077414,19.4476263 13.5077414,19.9985602 C13.5077414,20.5494941 13.0602405,20.9984402 12.5088555,20.9984402 C11.9574705,20.9984402 11.5099696,20.5494941 11.5099696,19.9985602 C11.5099696,19.4476263 11.9574705,18.9986802 12.5088555,18.9986802 L12.5088555,18.9986802 Z M18.5660994,11.7555493 C18.8477852,11.9055313 19.1614353,11.9995201 19.5010565,11.9995201 C19.8406777,11.9995201 20.1553268,11.9055313 20.4360137,11.7555493 L25.3005878,18.4047514 C24.9429867,18.6727193 24.6822775,19.0546734 24.5664067,19.4986202 L14.4357063,19.4986202 C14.3208345,19.0546734 14.0591264,18.6727193 13.7025241,18.4047514 L18.5660994,11.7555493 Z M19.5010565,8.99988001 C20.0524415,8.99988001 20.4999424,9.44782626 20.4999424,9.99976003 C20.4999424,10.5506939 20.0524415,10.99964 19.5010565,10.99964 C18.9496715,10.99964 18.5021707,10.5506939 18.5021707,9.99976003 C18.5021707,9.44782626 18.9496715,8.99988001 19.5010565,8.99988001 L19.5010565,8.99988001 Z M27.4921434,19.9985602 C27.4921434,20.5494941 27.0446425,20.9984402 26.4932575,20.9984402 C25.9418725,20.9984402 25.4943717,20.5494941 25.4943717,19.9985602 C25.4943717,19.4476263 25.9418725,18.9986802 26.4932575,18.9986802 C27.0446425,18.9986802 27.4921434,19.4476263 27.4921434,19.9985602 L27.4921434,19.9985602 Z M12.5088555,21.9983202 C13.4368205,21.9983202 14.2119559,21.358397 14.4357063,20.4985002 L24.5664067,20.4985002 C24.7901571,21.358397 25.5652926,21.9983202 26.4932575,21.9983202 C27.5950286,21.9983202 28.4910292,21.1014278 28.4910292,19.9985602 C28.4910292,18.8956925 27.5950286,17.9988001 26.4932575,17.9988001 C26.4133467,17.9988001 26.3364324,18.0137983 26.2585193,18.0227973 L21.1781859,11.0786306 C21.3789619,10.766668 21.4988282,10.3977123 21.4988282,9.99976003 C21.4988282,8.89689237 20.6028276,8 19.5010565,8 C18.3992854,8 17.5032848,8.89689237 17.5032848,9.99976003 C17.5032848,10.3977123 17.6231511,10.766668 17.8239272,11.0786306 L12.7445926,18.0227973 C12.6656806,18.0137983 12.5897653,17.9988001 12.5088555,17.9988001 C11.4070844,17.9988001 10.5110838,18.8956925 10.5110838,19.9985602 C10.5110838,21.1014278 11.4070844,21.9983202 12.5088555,21.9983202 L12.5088555,21.9983202 Z" id="Amazon-Managed-Streaming-for-Kafka-Icon_32_Squid" fill="#FFFFFF"></path>
    </g>
</svg>