<?xml version="1.0" encoding="UTF-8"?>
<svg width="40px" height="40px" viewBox="0 0 40 40" version="1.1" xmlns="http://www.w3.org/2000/svg" xmlns:xlink="http://www.w3.org/1999/xlink">
    <!-- Generator: Sketch 64 (93537) - https://sketch.com -->
    <title>Icon-Architecture/32/Arch_Amazon-CloudSearch_32</title>
    <desc>Created with Sketch.</desc>
    <defs>
        <linearGradient x1="0%" y1="100%" x2="100%" y2="0%" id="linearGradient-1">
            <stop stop-color="#4D27A8" offset="0%"></stop>
            <stop stop-color="#A166FF" offset="100%"></stop>
        </linearGradient>
    </defs>
    <g id="Icon-Architecture/32/Arch_Amazon-CloudSearch_32" stroke="none" stroke-width="1" fill="none" fill-rule="evenodd">
        <g id="Icon-Architecture-BG/32/Analytics" fill="url(#linearGradient-1)">
            <rect id="Rectangle" x="0" y="0" width="40" height="40"></rect>
        </g>
        <path d="M23.4349467,14.4324664 L23.4349467,15.4435534 C23.0924407,15.4435534 22.7678566,15.5699393 22.5219294,15.7994561 C22.4014549,15.9126979 22.2302019,15.9581968 22.0728881,15.9187644 C21.9125874,15.8813542 21.7811607,15.7660902 21.7214213,15.6103828 C21.2245885,14.3141692 19.9362086,13.4426121 18.5173976,13.4426121 C17.5366756,13.4426121 16.6037452,13.8531135 15.9555726,14.5689631 C15.3999961,15.1806708 15.0943294,15.9642633 15.0943294,16.7751551 C15.0943294,16.9955721 14.9529462,17.1957674 14.7448539,17.2624991 C13.9015326,17.5314483 13.2732731,18.225054 13.1079941,19.0733561 C13.0831027,19.2169305 13.0671721,19.3635381 13.0671721,19.5182344 C13.0671721,20.8286033 14.1623946,21.8953002 15.510514,21.8953002 L21.1927275,21.8953002 L21.1927275,22.9063873 L15.510514,22.9063873 C13.6147834,22.9063873 12.0715153,21.3857123 12.0715153,19.5182344 C12.0715153,19.3008507 12.0924241,19.0935779 12.1302591,18.8873161 C12.3443253,17.7821979 13.0910679,16.8691862 14.1136075,16.4232968 C14.1922644,15.4829858 14.5785792,14.5942403 15.2237648,13.8844572 C16.0581252,12.9613346 17.2588874,12.431525 18.5173976,12.431525 C20.132353,12.431525 21.6168773,13.3152151 22.3845287,14.6811938 C22.7071215,14.5184088 23.065558,14.4324664 23.4349467,14.4324664 M33.4532456,33.4277596 C32.7154639,34.1779862 31.5147018,34.175964 30.7759244,33.4287707 L24.6197783,27.1792413 C25.6373396,26.3946378 26.5294481,25.4543268 27.2453253,24.3785301 L33.4552369,30.7129907 C34.1900317,31.4622063 34.189036,32.6795551 33.4532456,33.4277596 M6.99565682,17.7943309 C6.99565682,11.8481277 11.7588791,7.01108709 17.6143369,7.01108709 C23.4697946,7.01108709 28.2330169,11.8481277 28.2330169,17.7943309 C28.2330169,23.7405341 23.4697946,28.5775748 17.6143369,28.5775748 C11.7588791,28.5775748 6.99565682,23.7405341 6.99565682,17.7943309 M34.1611576,29.9991632 L27.7780017,23.4897845 C28.6999799,21.7992469 29.2286737,19.8589708 29.2286737,17.7943309 C29.2286737,11.2910188 24.0184016,6 17.6143369,6 C11.2112678,6 6,11.2910188 6,17.7943309 C6,24.2976431 11.2112678,29.5886619 17.6143369,29.5886619 C19.8854301,29.5886619 21.9992095,28.9142668 23.7894005,27.7656718 L30.0719951,34.1436092 C30.6355368,34.7148734 31.3753098,35 32.1150829,35 C32.8538602,35 33.5936332,34.7148734 34.157175,34.1425981 C35.2792802,33.0010808 35.2812716,31.1427027 34.1611576,29.9991632 M17.6143369,25.8132627 C13.2603296,25.8132627 9.71877824,22.2158148 9.71877824,17.7943309 C9.71877824,13.3728471 13.2603296,9.77641029 17.6143369,9.77641029 C21.9683442,9.77641029 25.5108911,13.3728471 25.5108911,17.7943309 C25.5108911,22.2158148 21.9683442,25.8132627 17.6143369,25.8132627 M17.6143369,8.7653232 C12.710727,8.7653232 8.72312142,12.8157381 8.72312142,17.7943309 C8.72312142,22.7739349 12.710727,26.8243498 17.6143369,26.8243498 C22.5179467,26.8243498 26.506548,22.7739349 26.506548,17.7943309 C26.506548,12.8157381 22.5179467,8.7653232 17.6143369,8.7653232" id="Amazon-CloudSearch_Icon_32_Squid" fill="#FFFFFF"></path>
    </g>
</svg>