<?xml version="1.0" encoding="UTF-8"?>
<svg width="40px" height="40px" viewBox="0 0 40 40" version="1.1" xmlns="http://www.w3.org/2000/svg" xmlns:xlink="http://www.w3.org/1999/xlink">
    <!-- Generator: Sketch 64 (93537) - https://sketch.com -->
    <title>Icon-Architecture/32/Arch_AWS-Glue_32</title>
    <desc>Created with Sketch.</desc>
    <defs>
        <linearGradient x1="0%" y1="100%" x2="100%" y2="0%" id="linearGradient-1">
            <stop stop-color="#4D27A8" offset="0%"></stop>
            <stop stop-color="#A166FF" offset="100%"></stop>
        </linearGradient>
    </defs>
    <g id="Icon-Architecture/32/Arch_AWS-Glue_32" stroke="none" stroke-width="1" fill="none" fill-rule="evenodd">
        <g id="Icon-Architecture-BG/32/Analytics" fill="url(#linearGradient-1)">
            <rect id="Rectangle" x="0" y="0" width="40" height="40"></rect>
        </g>
        <path d="M27.163,15.5430186 C25.324,15.9547097 22.49,16.0378492 20.5,16.0378492 C18.523,16.0378492 15.715,15.9557114 13.875,15.5520338 L19.414,23.7487926 C19.47,23.8319322 19.5,23.9300969 19.5,24.0302651 L19.5,25.0980575 C20.201,25.3003971 20.849,25.3034021 21.5,25.1050692 L21.5,24.0302651 C21.5,23.9290953 21.53,23.8309305 21.587,23.7477909 L27.163,15.5430186 Z M28.853,14.771724 L28.883,14.7917576 L22.5,24.1835223 L22.5,25.4596644 C22.5,25.6640074 22.376,25.8483168 22.186,25.9244446 C21.641,26.1438128 21.093,26.2529961 20.533,26.2529961 C19.977,26.2529961 19.412,26.1448145 18.827,25.929453 C18.631,25.857332 18.5,25.6690158 18.5,25.4596644 L18.5,24.1835223 L12.105,14.7186349 C12.043,14.6224734 12,14.5203019 12,14.410117 C12,12.9847244 16.692,12.7212822 19.488,12.69023 L19.5,13.6919114 C16.157,13.727972 14.079,14.1015991 13.288,14.391085 C14.231,14.7006046 16.821,15.0361679 20.5,15.0361679 C23.95,15.0361679 26.443,14.7406718 27.517,14.4491826 C27.017,14.3159589 26.101,14.1336529 24.439,13.9303116 L24.56,12.935642 C28.682,13.4394877 29,13.8642006 29,14.410117 C29,14.5413372 28.94,14.6605373 28.853,14.771724 L28.853,14.771724 Z M16.5,11.008407 L17.5,11.008407 L17.5,10.0067256 L16.5,10.0067256 L16.5,11.008407 Z M15.5,11.5092477 L15.5,9.50588488 C15.5,9.22841913 15.724,9.00504418 16,9.00504418 L18,9.00504418 C18.276,9.00504418 18.5,9.22841913 18.5,9.50588488 L18.5,11.5092477 C18.5,11.7857117 18.276,12.0100884 18,12.0100884 L16,12.0100884 C15.724,12.0100884 15.5,11.7857117 15.5,11.5092477 L15.5,11.5092477 Z M20.5,8.00336279 L21.5,8.00336279 L21.5,7.00168139 L20.5,7.00168139 L20.5,8.00336279 Z M19.5,8.50420348 L19.5,6.5008407 C19.5,6.22337495 19.724,6 20,6 L22,6 C22.276,6 22.5,6.22337495 22.5,6.5008407 L22.5,8.50420348 C22.5,8.78066755 22.276,9.00504418 22,9.00504418 L20,9.00504418 C19.724,9.00504418 19.5,8.78066755 19.5,8.50420348 L19.5,8.50420348 Z M21.5,13.0117698 L22.5,13.0117698 L22.5,12.0100884 L21.5,12.0100884 L21.5,13.0117698 Z M21,11.008407 L23,11.008407 C23.276,11.008407 23.5,11.2317819 23.5,11.5092477 L23.5,13.5126105 C23.5,13.7890745 23.276,14.0134512 23,14.0134512 L21,14.0134512 C20.724,14.0134512 20.5,13.7890745 20.5,13.5126105 L20.5,11.5092477 C20.5,11.2317819 20.724,11.008407 21,11.008407 L21,11.008407 Z M24.424,29.3331664 C24.505,29.5114657 24.474,29.7218188 24.345,29.8690659 L20.876,33.8287125 C20.781,33.9378958 20.643,34 20.5,34 C20.356,34 20.219,33.9378958 20.124,33.8287125 L16.655,29.8690659 C16.526,29.7218188 16.495,29.5114657 16.576,29.3331664 C16.657,29.1528637 16.835,29.0386721 17.031,29.0386721 L18.484,29.0386721 L18.484,28.0369907 L19.484,28.0369907 L19.484,29.5395128 C19.484,29.8159768 19.261,30.0403535 18.984,30.0403535 L18.135,30.0403535 L20.5,32.7388831 L22.865,30.0403535 L22,30.0403535 C21.724,30.0403535 21.5,29.8159768 21.5,29.5395128 L21.5,28.0369907 L22.5,28.0369907 L22.5,29.0386721 L23.969,29.0386721 C24.165,29.0386721 24.343,29.1528637 24.424,29.3331664 L24.424,29.3331664 Z" id="AWS-Glue_Icon_32_Squid" fill="#FFFFFF"></path>
    </g>
</svg>