<?xml version="1.0" encoding="UTF-8"?>
<svg width="40px" height="40px" viewBox="0 0 40 40" version="1.1" xmlns="http://www.w3.org/2000/svg" xmlns:xlink="http://www.w3.org/1999/xlink">
    <!-- Generator: Sketch 64 (93537) - https://sketch.com -->
    <title>Icon-Architecture/32/Arch_AWS-Lake-Formation_32</title>
    <desc>Created with Sketch.</desc>
    <defs>
        <linearGradient x1="0%" y1="100%" x2="100%" y2="0%" id="linearGradient-1">
            <stop stop-color="#4D27A8" offset="0%"></stop>
            <stop stop-color="#A166FF" offset="100%"></stop>
        </linearGradient>
    </defs>
    <g id="Icon-Architecture/32/Arch_AWS-Lake-Formation_32" stroke="none" stroke-width="1" fill="none" fill-rule="evenodd">
        <g id="Icon-Architecture-BG/32/Analytics" fill="url(#linearGradient-1)">
            <rect id="Rectangle" x="0" y="0" width="40" height="40"></rect>
        </g>
        <path d="M14.5555199,14.1797528 C12.9003489,14.1797528 11.7434335,14.100568 10.9263745,13.9712663 L13.4006095,17.7400601 C13.4537434,17.8222519 13.4828167,17.9174741 13.4828167,18.0157033 L13.4828167,19.6144337 C14.0482416,19.7196793 14.8913662,19.7226863 15.433733,19.6194454 L15.4367406,17.9996659 C15.4367406,17.8974273 15.4678189,17.7981958 15.526968,17.7150017 L18.094438,14.0203809 C17.2092072,14.1396592 16.0392589,14.1797528 14.5555199,14.1797528 L14.5555199,14.1797528 Z M9.06668805,12.8145673 C9.06668805,12.023722 10.0421462,11.644838 12.4321691,11.5045105 L12.4903156,12.5048446 C11.2471829,12.577013 10.6196014,12.7123288 10.3108233,12.8145673 C10.75795,12.9619111 11.8717568,13.177414 14.5555199,13.177414 C17.5109676,13.177414 18.5626178,12.9819579 18.9225248,12.8185767 C18.7370574,12.7383896 18.3290292,12.6221183 17.4558287,12.5439359 L17.5430485,11.5456064 C18.780166,11.6558637 20.0443518,11.8924156 20.0443518,12.8145673 C20.0443518,13.1202807 19.9039981,13.3568326 19.6443437,13.54427 L16.439267,18.1580354 L16.4352568,20.0003341 C16.4352568,20.2038089 16.3109436,20.3872369 16.1214661,20.464417 C15.7254682,20.6227865 15.1149296,20.6939526 14.5043911,20.6939526 C13.8507439,20.6939526 13.1970967,20.6117608 12.8081165,20.4694287 C12.6116213,20.3972603 12.4802903,20.2088206 12.4802903,19.9993318 L12.4802903,18.1650518 L9.39451418,13.4630805 C9.13886995,13.2656198 9.06668805,13.0431006 9.06668805,12.8145673 L9.06668805,12.8145673 Z M28.4114368,22.6104243 C28.7944019,23.0564651 29.3618318,23.340127 29.9934234,23.340127 L29.9934234,22.3377882 C29.3979228,22.3377882 28.9127,21.8526562 28.9127,21.257267 L27.9101736,21.257267 C27.9101736,21.8526562 27.4259534,22.3377882 26.8294502,22.3377882 C26.232947,22.3377882 25.7487268,21.8526562 25.7487268,21.257267 L24.7462004,21.257267 C24.7462004,21.8526562 24.2609777,22.3377882 23.6644745,22.3377882 C23.0679713,22.3377882 22.5837511,21.8526562 22.5837511,21.257267 L21.5812247,21.257267 C21.5812247,21.8526562 21.0960019,22.3377882 20.5005013,22.3377882 L20.5005013,23.340127 C21.1330954,23.340127 21.6995228,23.0564651 22.0824879,22.6104243 C22.4654529,23.0564651 23.0318803,23.340127 23.6644745,23.340127 C24.2970686,23.340127 24.8644985,23.0564651 25.2474636,22.6104243 C25.6294262,23.0564651 26.1968561,23.340127 26.8294502,23.340127 C27.4620444,23.340127 28.0284717,23.0564651 28.4114368,22.6104243 L28.4114368,22.6104243 Z M28.1918835,15.7915135 L27.1893572,15.7915135 C27.1893572,16.3879051 26.7031319,16.8730371 26.1066287,16.8730371 C25.511128,16.8730371 25.0259053,16.3879051 25.0259053,15.7915135 L24.0233789,15.7915135 C24.0233789,16.3879051 23.5391587,16.8730371 22.9426555,16.8730371 C22.3461523,16.8730371 21.8619321,16.3879051 21.8619321,15.7915135 L20.8594057,15.7915135 C20.8594057,16.3879051 20.3741829,16.8730371 19.7776798,16.8730371 L19.7776798,17.8753759 C20.4102739,17.8753759 20.9777038,17.591714 21.3606689,17.1456732 C21.7426314,17.591714 22.3100614,17.8753759 22.9426555,17.8753759 C23.5752496,17.8753759 24.1426796,17.591714 24.5246421,17.1456732 C24.9076072,17.591714 25.4750371,17.8753759 26.1066287,17.8753759 C26.7392228,17.8753759 27.3076553,17.591714 27.6906204,17.1456732 C28.0715804,17.591714 28.6400128,17.8753759 29.272607,17.8753759 L29.272607,16.8730371 C28.6761038,16.8730371 28.1918835,16.3879051 28.1918835,15.7915135 L28.1918835,15.7915135 Z M19.0989694,29.4834614 C19.7315635,29.4834614 20.2989935,29.1997995 20.680956,28.7537588 C21.0639211,29.1997995 21.631351,29.4834614 22.2629426,29.4834614 C22.8955368,29.4834614 23.4639692,29.1997995 23.8469343,28.7537588 C24.2278943,29.1997995 24.7963267,29.4834614 25.4289209,29.4834614 L25.4289209,28.4811226 C24.8324177,28.4811226 24.3481975,27.9959906 24.3481975,27.3995991 L23.3456711,27.3995991 C23.3456711,27.9959906 22.8594458,28.4811226 22.2629426,28.4811226 C21.667442,28.4811226 21.1822192,27.9959906 21.1822192,27.3995991 L20.1796928,27.3995991 C20.1796928,27.9959906 19.6954726,28.4811226 19.0989694,28.4811226 C18.5034687,28.4811226 18.018246,27.9959906 18.018246,27.3995991 L17.0157196,27.3995991 C17.0157196,27.9959906 16.5304969,28.4811226 15.9339937,28.4811226 L15.9339937,29.4834614 C16.5665878,29.4834614 17.1340177,29.1997995 17.5169828,28.7537588 C17.8989453,29.1997995 18.4663753,29.4834614 19.0989694,29.4834614 L19.0989694,29.4834614 Z M10.434134,9.00467758 L11.4366604,9.00467758 L11.4366604,8.00233879 L10.434134,8.00233879 L10.434134,9.00467758 Z M9.43160765,9.50584698 L9.43160765,7.5011694 C9.43160765,7.22452389 9.65517103,7 9.93287083,7 L11.9379236,7 C12.2146208,7 12.4391868,7.22452389 12.4391868,7.5011694 L12.4391868,9.50584698 C12.4391868,9.78249248 12.2146208,10.0070164 11.9379236,10.0070164 L9.93287083,10.0070164 C9.65517103,10.0070164 9.43160765,9.78249248 9.43160765,9.50584698 L9.43160765,9.50584698 Z M14.4853431,11.0093552 L15.4878694,11.0093552 L15.4878694,10.0070164 L14.4853431,10.0070164 L14.4853431,11.0093552 Z M13.4828167,11.5105246 L13.4828167,9.50584698 C13.4828167,9.22920147 13.7063801,9.00467758 13.9840799,9.00467758 L15.9891326,9.00467758 C16.2658299,9.00467758 16.4903958,9.22920147 16.4903958,9.50584698 L16.4903958,11.5105246 C16.4903958,11.7871701 16.2658299,12.011694 15.9891326,12.011694 L13.9840799,12.011694 C13.7063801,12.011694 13.4828167,11.7871701 13.4828167,11.5105246 L13.4828167,11.5105246 Z M13.4477283,23.4604076 L13.4477283,21.0016706 L12.4452019,21.0016706 L12.4452019,22.9592382 L11.477764,22.9592382 C11.2762562,22.9592382 11.0947989,23.0785165 11.0166018,23.2639492 C10.9374023,23.4493819 10.9775033,23.6628801 11.1158519,23.8072168 L14.123431,26.9325092 C14.2186711,27.0307384 14.3489995,27.085867 14.4853431,27.085867 C14.6206841,27.085867 14.7510126,27.0307384 14.8462526,26.9325092 L17.8538317,23.8072168 C17.9931828,23.6628801 18.0332839,23.4493819 17.9540843,23.2639492 C17.8758872,23.0785165 17.6934274,22.9592382 17.4929222,22.9592382 L16.4723503,22.9592382 L16.4723503,21.0016706 L15.469824,21.0016706 L15.469824,23.4604076 C15.469824,23.7370531 15.6943899,23.961577 15.9710871,23.961577 L16.3149537,23.961577 L14.4853431,25.8620114 L12.6547299,23.961577 L12.9464651,23.961577 C13.2231624,23.961577 13.4477283,23.7370531 13.4477283,23.4604076 L13.4477283,23.4604076 Z M33,21.50284 C33,28.3939191 27.39287,34 20.5005013,34 C13.6081325,34 8,28.3939191 8,21.50284 C8,19.5993986 8.41705097,17.7711326 9.24012512,16.068159 L10.1434014,16.5041764 C9.38649396,18.0698296 9.00252637,19.7517541 9.00252637,21.50284 C9.00252637,27.8406281 14.159522,32.9976612 20.5005013,32.9976612 C26.840478,32.9976612 31.9974736,27.8406281 31.9974736,21.50284 C31.9974736,15.1640494 26.840478,10.0070164 20.5005013,10.0070164 C19.8308137,10.0070164 19.1571159,10.065152 18.4994586,10.180421 L18.3270241,9.19211493 C19.0418254,9.06782492 19.7726671,9.00467758 20.5005013,9.00467758 C27.39287,9.00467758 33,14.6107584 33,21.50284 L33,21.50284 Z" id="AWS-Lake-Formation_Icon_32_Squid" fill="#FFFFFF"></path>
    </g>
</svg>