<?xml version="1.0" encoding="UTF-8"?>
<svg width="24px" height="24px" viewBox="0 0 24 24" version="1.1" xmlns="http://www.w3.org/2000/svg" xmlns:xlink="http://www.w3.org/1999/xlink">
    <!-- Generator: Sketch 64 (93537) - https://sketch.com -->
    <title>Icon-Architecture/16/Arch_AWS-WorkLink_16</title>
    <desc>Created with Sketch.</desc>
    <defs>
        <linearGradient x1="0%" y1="100%" x2="100%" y2="0%" id="linearGradient-1">
            <stop stop-color="#055F4E" offset="0%"></stop>
            <stop stop-color="#56C0A7" offset="100%"></stop>
        </linearGradient>
    </defs>
    <g id="Icon-Architecture/16/Arch_AWS-WorkLink_16" stroke="none" stroke-width="1" fill="none" fill-rule="evenodd">
        <g id="Icon-Architecture-BG/16/End-User-Computing" fill="url(#linearGradient-1)">
            <rect id="Rectangle" x="0" y="0" width="24" height="24"></rect>
        </g>
        <path d="M9.99949962,13.9994996 L13.9964974,13.9994996 L13.9964974,9.98949212 L9.99949962,9.98949212 L9.99949962,13.9994996 Z M8.99874906,14.3517638 L8.99874906,9.63722792 C8.99874906,9.27995997 9.28996748,8.98874156 9.64823618,8.98874156 L14.3487616,8.98874156 C14.7060295,8.98874156 14.9972479,9.27995997 14.9972479,9.63722792 L14.9972479,14.3517638 C14.9972479,14.7090318 14.7060295,15.0002502 14.3487616,15.0002502 L9.64823618,15.0002502 C9.28996748,15.0002502 8.99874906,14.7090318 8.99874906,14.3517638 L8.99874906,14.3517638 Z M19.9649737,8.99974981 L17.0037528,8.99974981 L17.0037528,10.0005004 L18.9992494,10.0005004 L18.9992494,18.9992494 L10.0005004,18.9992494 L10.0005004,17.0037528 L8.99974981,17.0037528 L8.99974981,19.4645984 L9.03477608,20 L19.4645984,20 L20,19.963973 L20,9.53615211 L19.9649737,8.99974981 Z M5.00075056,13.9994996 L6.99624719,13.9994996 L6.99624719,15.0002502 L4.03802852,15.0002502 L4,14.4618464 L4,4.03802852 L4.5384038,4 L14.9622217,4 L15.0002502,4.5384038 L15.0002502,6.99624719 L13.9994996,6.99624719 L13.9994996,5.00075056 L5.00075056,5.00075056 L5.00075056,13.9994996 Z" id="AWS-WorkLink_Icon_16_Squid" fill="#FFFFFF"></path>
    </g>
</svg>