<?xml version="1.0" encoding="UTF-8"?>
<svg width="24px" height="24px" viewBox="0 0 24 24" version="1.1" xmlns="http://www.w3.org/2000/svg" xmlns:xlink="http://www.w3.org/1999/xlink">
    <!-- Generator: Sketch 64 (93537) - https://sketch.com -->
    <title>Icon-Architecture/16/Arch_AWS-WorkSpaces_16</title>
    <desc>Created with Sketch.</desc>
    <defs>
        <linearGradient x1="0%" y1="100%" x2="100%" y2="0%" id="linearGradient-1">
            <stop stop-color="#055F4E" offset="0%"></stop>
            <stop stop-color="#56C0A7" offset="100%"></stop>
        </linearGradient>
    </defs>
    <g id="Icon-Architecture/16/Arch_AWS-WorkSpaces_16" stroke="none" stroke-width="1" fill="none" fill-rule="evenodd">
        <g id="Icon-Architecture-BG/16/End-User-Computing" fill="url(#linearGradient-1)">
            <rect id="Rectangle" x="0" y="0" width="24" height="24"></rect>
        </g>
        <path d="M5,8.16450347 L5,13.4475035 L6.004,14.0305035 L5.502,14.8955035 L4.249,14.1685035 C4.095,14.0785035 4,13.9145035 4,13.7355035 L4,7.35750347 C4,7.18550347 4.09,7.02350347 4.236,6.93350347 C4.259,6.91850347 4.286,6.92050347 4.31,6.91050347 L4.305,6.89750347 L8.685,5.03950347 C8.811,4.98650347 8.952,4.98650347 9.078,5.04150347 L10.465,5.64150347 L10.068,6.55950347 L8.878,6.04450347 L5.696,7.39350347 L6.399,7.74350347 L5.954,8.63850347 L5,8.16450347 Z M13.991,18.4025035 L13.991,12.1365035 L18.976,9.67250347 L18.976,15.4545035 L13.991,18.4025035 Z M7.96,15.4535035 L7.96,9.64550347 L12.991,12.1365035 L12.991,18.4055035 L7.96,15.4535035 Z M13.489,6.82250347 L18.286,8.89750347 L13.491,11.2685035 L8.657,8.87550347 L13.489,6.82250347 Z M19.976,8.85450347 C19.971,8.65950347 19.853,8.48550347 19.674,8.40850347 L13.689,5.81950347 C13.563,5.76550347 13.421,5.76450347 13.296,5.81850347 L7.265,8.38050347 C7.085,8.45650347 6.966,8.63050347 6.96,8.82650347 C6.96,8.83150347 6.964,8.83550347 6.964,8.84050347 L6.96,8.84050347 L6.96,15.7395035 C6.96,15.9165035 7.054,16.0805035 7.207,16.1705035 L13.238,19.7095035 C13.316,19.7555035 13.403,19.7785 13.491,19.7785 C13.577,19.7785 13.663,19.7565035 13.739,19.7125035 C13.741,19.7115035 13.743,19.7085035 13.745,19.7065035 L13.746,19.7085035 L19.73,16.1695035 C19.882,16.0795035 19.976,15.9155035 19.976,15.7395035 L19.976,8.86750347 L19.972,8.86750347 C19.972,8.86250347 19.976,8.85850347 19.976,8.85450347 L19.976,8.85450347 Z" id="AWS-WorkSpaces_Icon_16_Squid" fill="#FFFFFF"></path>
    </g>
</svg>