<?xml version="1.0" encoding="UTF-8"?>
<svg width="40px" height="40px" viewBox="0 0 40 40" version="1.1" xmlns="http://www.w3.org/2000/svg" xmlns:xlink="http://www.w3.org/1999/xlink">
    <!-- Generator: Sketch 64 (93537) - https://sketch.com -->
    <title>Icon-Architecture/32/Arch_AWS-Device-Farm_32</title>
    <desc>Created with Sketch.</desc>
    <defs>
        <linearGradient x1="0%" y1="100%" x2="100%" y2="0%" id="linearGradient-1">
            <stop stop-color="#BD0816" offset="0%"></stop>
            <stop stop-color="#FF5252" offset="100%"></stop>
        </linearGradient>
    </defs>
    <g id="Icon-Architecture/32/Arch_AWS-Device-Farm_32" stroke="none" stroke-width="1" fill="none" fill-rule="evenodd">
        <g id="Icon-Architecture-BG/32/Mobile" fill="url(#linearGradient-1)">
            <rect id="Rectangle" x="0" y="0" width="40" height="40"></rect>
        </g>
        <path d="M25.1323559,25.6956182 L25.6391059,26.5599069 L23.5860674,27.7627002 L23.0793174,26.8984116 L25.1323559,25.6956182 Z M15.7134159,25.6795943 L17.784481,26.8493384 L17.2917518,27.721639 L15.2206866,26.5518949 L15.7134159,25.6795943 Z M25.1323559,14.0752924 L23.0793174,12.8735005 L23.5860674,12.0082104 L25.6391059,13.2110038 L25.1323559,14.0752924 Z M15.7134159,14.0923178 L15.2206866,13.2190157 L17.2917518,12.0492716 L17.784481,12.9215722 L15.7134159,14.0923178 Z M28.0466691,20.9745792 L29.0481513,20.9745792 L29.0481513,18.9976316 L28.0466691,18.9976316 L28.0466691,20.9745792 Z M12.0009214,20.9745792 L13.0024036,20.9745792 L13.0024036,19.0096495 L12.0009214,19.0096495 L12.0009214,20.9745792 Z M31.9985178,26.4567531 L20.5415615,32.9243963 L9.00148219,26.4557516 L9.00148219,13.5434995 L20.5415615,7.07485481 L31.9985178,13.542498 L31.9985178,26.4567531 Z M32.746625,12.8144124 L20.7889276,6.06434815 C20.6377038,5.97922122 20.4494251,5.97821973 20.2982013,6.06334666 L8.25537796,12.813411 C8.09714377,12.9025438 8,13.0687917 8,13.250062 L8,26.7491891 C8,26.9304594 8.09714377,27.0967072 8.25537796,27.1858401 L20.2982013,33.9359044 C20.3733125,33.9779671 20.4584385,34 20.542563,34 C20.627689,34 20.712815,33.9779671 20.7889276,33.9349029 L32.746625,27.1848386 C32.9038577,27.0957057 33,26.9294579 33,26.7491891 L33,13.250062 C33,13.0697932 32.9038577,12.9035453 32.746625,12.8144124 L32.746625,12.8144124 Z M12.6338581,25.4051852 C12.1120859,25.4051852 11.6884589,24.9805521 11.6884589,24.4597756 C11.6884589,23.9379976 12.1120859,23.514366 12.6338581,23.514366 C13.1546289,23.514366 13.5792573,23.9379976 13.5792573,24.4597756 C13.5792573,24.9805521 13.1546289,25.4051852 12.6338581,25.4051852 L12.6338581,25.4051852 Z M12.6338581,22.5128728 C11.5602692,22.5128728 10.6869767,23.3861749 10.6869767,24.4597756 C10.6869767,25.5333763 11.5602692,26.4066784 12.6338581,26.4066784 C13.707447,26.4066784 14.5807395,25.5333763 14.5807395,24.4597756 C14.5807395,23.3861749 13.707447,22.5128728 12.6338581,22.5128728 L12.6338581,22.5128728 Z M28.3381004,25.4051852 C27.8173296,25.4051852 27.3927012,24.9805521 27.3927012,24.4597756 C27.3927012,23.9379976 27.8173296,23.514366 28.3381004,23.514366 C28.8598726,23.514366 29.2845011,23.9379976 29.2845011,24.4597756 C29.2845011,24.9805521 28.8598726,25.4051852 28.3381004,25.4051852 L28.3381004,25.4051852 Z M28.3381004,22.5128728 C27.2645115,22.5128728 26.391219,23.3861749 26.391219,24.4597756 C26.391219,25.5333763 27.2645115,26.4066784 28.3381004,26.4066784 C29.4116893,26.4066784 30.2859833,25.5333763 30.2859833,24.4597756 C30.2859833,23.3861749 29.4116893,22.5128728 28.3381004,22.5128728 L28.3381004,22.5128728 Z M21.4318792,10.8584962 C21.4318792,11.3792727 21.0072507,11.8029043 20.4854785,11.8029043 C19.9647078,11.8029043 19.5410808,11.3792727 19.5410808,10.8584962 C19.5410808,10.3367182 19.9647078,9.9120851 20.4854785,9.9120851 C21.0072507,9.9120851 21.4318792,10.3367182 21.4318792,10.8584962 L21.4318792,10.8584962 Z M18.5395986,10.8584962 C18.5395986,11.9310954 19.4128911,12.8043975 20.4854785,12.8043975 C21.5600689,12.8043975 22.4333614,11.9310954 22.4333614,10.8584962 C22.4333614,9.78389396 21.5600689,8.91059188 20.4854785,8.91059188 C19.4128911,8.91059188 18.5395986,9.78389396 18.5395986,10.8584962 L18.5395986,10.8584962 Z M28.3381004,14.4468464 C28.8598726,14.4468464 29.2845011,14.870478 29.2845011,15.392256 C29.2845011,15.9130325 28.8598726,16.3376656 28.3381004,16.3376656 C27.8173296,16.3376656 27.3927012,15.9130325 27.3927012,15.392256 C27.3927012,14.870478 27.8173296,14.4468464 28.3381004,14.4468464 L28.3381004,14.4468464 Z M20.4854785,20.8884508 C19.9647078,20.8884508 19.5410808,20.4638177 19.5410808,19.9430412 C19.5410808,19.4212632 19.9647078,18.9976316 20.4854785,18.9976316 C21.0072507,18.9976316 21.4318792,19.4212632 21.4318792,19.9430412 C21.4318792,20.4638177 21.0072507,20.8884508 20.4854785,20.8884508 L20.4854785,20.8884508 Z M21.4318792,28.9925339 C21.4318792,29.5133104 21.0072507,29.9379435 20.4854785,29.9379435 C19.9647078,29.9379435 19.5410808,29.5133104 19.5410808,28.9925339 C19.5410808,28.4707559 19.9647078,28.0471243 20.4854785,28.0471243 C21.0072507,28.0471243 21.4318792,28.4707559 21.4318792,28.9925339 L21.4318792,28.9925339 Z M12.6338581,16.3376656 C12.1120859,16.3376656 11.6884589,15.9130325 11.6884589,15.392256 C11.6884589,14.870478 12.1120859,14.4468464 12.6338581,14.4468464 C13.1546289,14.4468464 13.5792573,14.870478 13.5792573,15.392256 C13.5792573,15.9130325 13.1546289,16.3376656 12.6338581,16.3376656 L12.6338581,16.3376656 Z M21.7894083,18.5068999 C21.4428955,18.192431 20.9882226,17.9961384 20.4854785,17.9961384 C19.9576974,17.9961384 19.4779874,18.2094564 19.1274687,18.5529686 L14.5126387,15.8749757 C14.552698,15.7197443 14.5807395,15.5595054 14.5807395,15.392256 C14.5807395,14.3186553 13.707447,13.4453532 12.6338581,13.4453532 C11.5602692,13.4453532 10.6869767,14.3186553 10.6869767,15.392256 C10.6869767,16.4658567 11.5602692,17.3391588 12.6338581,17.3391588 C13.1786644,17.3391588 13.6713937,17.1128213 14.0249169,16.7502808 L18.6207187,19.4172572 C18.573649,19.5855081 18.5395986,19.7597679 18.5395986,19.9430412 C18.5395986,20.8634134 19.1835517,21.6315587 20.0418219,21.8348619 L20.0418219,27.1007132 C19.1835517,27.3030148 18.5395986,28.0721616 18.5395986,28.9925339 C18.5395986,30.0661346 19.4128911,30.9394367 20.4854785,30.9394367 C21.5600689,30.9394367 22.4333614,30.0661346 22.4333614,28.9925339 C22.4333614,28.1142244 21.8444898,27.3781268 21.0433041,27.1357655 L21.0433041,21.7988081 C21.8444898,21.5574482 22.4333614,20.8213507 22.4333614,19.9430412 C22.4333614,19.7347306 22.3923006,19.5384379 22.3312102,19.3501572 L26.9059809,16.7022091 C27.26351,17.0907885 27.77026,17.3391588 28.3381004,17.3391588 C29.4116893,17.3391588 30.2859833,16.4658567 30.2859833,15.392256 C30.2859833,14.3186553 29.4116893,13.4453532 28.3381004,13.4453532 C27.2645115,13.4453532 26.391219,14.3186553 26.391219,15.392256 C26.391219,15.5374725 26.4092457,15.6786831 26.4412931,15.8158876 L21.7894083,18.5068999 Z" id="AWS-Device-Farm_Icon_32_Squid" fill="#FFFFFF"></path>
    </g>
</svg>