<?xml version="1.0" encoding="UTF-8"?>
<svg width="40px" height="40px" viewBox="0 0 40 40" version="1.1" xmlns="http://www.w3.org/2000/svg" xmlns:xlink="http://www.w3.org/1999/xlink">
    <title>Icon-Architecture/32/Arch_Amazon-Location-Service_32</title>
    <defs>
        <linearGradient x1="0%" y1="100%" x2="100%" y2="0%" id="linearGradient-1">
            <stop stop-color="#BD0816" offset="0%"></stop>
            <stop stop-color="#FF5252" offset="100%"></stop>
        </linearGradient>
    </defs>
    <g id="Icon-Architecture/32/Arch_Amazon-Location-Service_32" stroke="none" stroke-width="1" fill="none" fill-rule="evenodd">
        <g id="Rectangle" fill="url(#linearGradient-1)">
            <rect x="0" y="0" width="40" height="40"></rect>
        </g>
        <g id="Icon-Service/32/Amazon-Location-Service_32" transform="translate(4.000000, 4.000000)" fill="#FFFFFF">
            <path d="M16.0002336,23.957 L4.6582336,18.48 L7.6552336,17.058 L15.7822336,20.985 C15.8522336,21.019 15.9262336,21.035 16.0002336,21.035 C16.0742336,21.035 16.1482336,21.019 16.2182336,20.985 L24.3442336,17.059 L27.3422336,18.48 L16.0002336,23.957 Z M27.2692336,22.588 L16.0002336,28.049 L4.7312336,22.588 L8.0682336,21.238 L15.7822336,24.962 C15.8522336,24.996 15.9262336,25.012 16.0002336,25.012 C16.0742336,25.012 16.1482336,24.996 16.2182336,24.962 L23.9322336,21.238 L27.2692336,22.588 Z M29.0004672,18.475 C28.9992336,18.282 28.8892336,18.107 28.7142336,18.025 L25.4992336,16.5 L28.7182336,14.945 C28.8912336,14.861 29.0004672,14.686 29.0004672,14.495 C29.0004672,14.303 28.8912336,14.128 28.7182336,14.044 L20.4532336,10.05 L20.4732336,10.169 C20.5272336,10.496 20.4922336,10.824 20.3902336,11.131 L27.3512336,14.495 L16.0002336,19.98 L4.6492336,14.495 L11.6112336,11.13 C11.5082336,10.821 11.4732336,10.492 11.5282336,10.163 L11.5482336,10.05 L3.2822336,14.044 C3.1092336,14.128 3,14.303 3,14.495 C3,14.686 3.1092336,14.861 3.2822336,14.945 L6.5002336,16.5 L3.2862336,18.025 C3.1112336,18.107 3.0012336,18.282 3,18.475 C2.9992336,18.667 3.1092336,18.843 3.2822336,18.927 L6.8542336,20.651 L3.3122336,22.084 C3.1292336,22.158 3.0072336,22.333 3,22.531 C2.9942336,22.728 3.1042336,22.911 3.2822336,22.997 L15.7822336,29.055 C15.8512336,29.088 15.9262336,29.105 16.0002336,29.105 C16.0742336,29.105 16.1492336,29.088 16.2182336,29.055 L28.7182336,22.997 C28.8962336,22.911 29.0062336,22.728 29.0004672,22.531 C28.9932336,22.333 28.8712336,22.158 28.6882336,22.084 L25.1462336,20.651 L28.7182336,18.927 C28.8912336,18.843 29.0012336,18.667 29.0004672,18.475 L29.0004672,18.475 Z M17.5532336,7.301 C17.5052336,7.396 17.4892336,7.503 17.5072336,7.607 L17.9092336,10 L14.0932336,10 L14.5052336,7.597 C14.5222336,7.492 14.5072336,7.383 14.4592336,7.288 L12.8112336,4 L19.1932336,4 L17.5532336,7.301 Z M20.4252336,3.237 C20.3342336,3.09 20.1732336,3 20.0002336,3 L12.0002336,3 C11.8262336,3 11.6662336,3.09 11.5742336,3.238 C11.4832336,3.385 11.4762336,3.57 11.5532336,3.725 L13.4912336,7.589 L13.0072336,10.416 C12.9822336,10.561 13.0222336,10.71 13.1182336,10.823 C13.2132336,10.936 13.3532336,11 13.5002336,11 L15.5002336,11 L15.5002336,15 L16.5002336,15 L16.5002336,11 L18.5002336,11 C18.6472336,11 18.7872336,10.936 18.8822336,10.823 C18.9772336,10.711 19.0182336,10.562 18.9932336,10.417 L18.5202336,7.601 L20.4472336,3.723 C20.5242336,3.568 20.5172336,3.384 20.4252336,3.237 L20.4252336,3.237 Z" id="Fill-5"></path>
        </g>
    </g>
</svg>