<svg xmlns="http://www.w3.org/2000/svg" width="18" height="18" viewBox="0 0 18 18"><defs><linearGradient id="aeb3bebf-e891-43d3-b045-06c026f5040e" x1="9" y1="14.633" x2="9" y2="1.875" gradientUnits="userSpaceOnUse"><stop offset="0" stop-color="#0078d4" /><stop offset="1" stop-color="#5ea0ef" /></linearGradient><linearGradient id="a1a3bad5-bba7-4b2b-aeca-10273cb8629a" x1="11.443" y1="9.184" x2="11.443" y2="15.325" gradientUnits="userSpaceOnUse"><stop offset="0" stop-color="#fff" /><stop offset="1" stop-color="#f2f2f2" /></linearGradient></defs><g id="bbaf661a-4927-421b-af2a-366eca680343"><path d="M18,10.637A4.044,4.044,0,0,0,14.49,6.75,5.1,5.1,0,0,0,9.24,1.875a5.229,5.229,0,0,0-5,3.408A4.826,4.826,0,0,0,0,9.927a4.9,4.9,0,0,0,5.068,4.706c.151,0,.3-.007.447-.019h8.207a.819.819,0,0,0,.217-.033A4.092,4.092,0,0,0,18,10.637Z" fill="url(#aeb3bebf-e891-43d3-b045-06c026f5040e)" /><path d="M11.442,8.286c3.862,0,6.221,2.874,6.41,6.8a.994.994,0,0,1-.992,1.043H6.026a1,1,0,0,1-.992-1.044C5.227,11.16,7.587,8.286,11.442,8.286Z" fill="#50e6ff" /><path d="M6.026,15.463a.324.324,0,0,1-.239-.1.329.329,0,0,1-.092-.246c.185-3.752,2.768-6.166,5.747-6.166s5.569,2.414,5.749,6.166a.329.329,0,0,1-.092.246.324.324,0,0,1-.239.1Z" fill="url(#a1a3bad5-bba7-4b2b-aeca-10273cb8629a)" /><path d="M14.55,11.02a4.648,4.648,0,0,0-2.777-1.185V12a2.6,2.6,0,0,1,1.291.551Z" fill="#9cebff" /><path d="M8.335,11.02l1.486,1.528A2.6,2.6,0,0,1,11.112,12V9.835A4.648,4.648,0,0,0,8.335,11.02Z" fill="#50e6ff" /><path d="M13.532,13.029a2.753,2.753,0,0,1,.535,1.327h2.1A4.926,4.926,0,0,0,15.018,11.5Z" fill="#9cebff" /><path d="M9.354,13.029,7.867,11.5a4.933,4.933,0,0,0-1.153,2.855h2.1A2.745,2.745,0,0,1,9.354,13.029Z" fill="#32bedd" /><path d="M15.31,12.555a.331.331,0,0,0-.428-.188l-3.1,1.236.241.616,3.1-1.235A.332.332,0,0,0,15.31,12.555Z" fill="#32bedd" /><circle cx="11.442" cy="14.049" r="0.904" fill="#767676" /></g></svg>