<svg xmlns="http://www.w3.org/2000/svg" width="24px" height="24px" viewBox="0 0 24 24"><defs><style>.cls-1{fill:#4285f4;}.cls-2{fill:#669df6;}.cls-3{fill:#aecbfa;}</style></defs><title>Icon_24px_TransferAppliance_Color</title><g data-name="Product Icons"><path class="cls-1" d="M21.63,6.57H9.26a.32.32,0,0,0-.32.33V9.06a.32.32,0,0,0,.32.32H21.63A.32.32,0,0,0,22,9.06V6.9a.32.32,0,0,0-.31-.33ZM10.49,8.71a.7.7,0,0,1-.7-.7.7.7,0,1,1,1.4,0h0a.7.7,0,0,1-.7.7Z"/><path class="cls-1" d="M21.63,10.61H9.26a.32.32,0,0,0-.32.32v2.15a.32.32,0,0,0,.32.32H21.63a.32.32,0,0,0,.32-.32V10.93A.32.32,0,0,0,21.63,10.61ZM10.49,12.75a.7.7,0,1,1,.7-.7h0a.7.7,0,0,1-.7.7Z"/><path class="cls-1" d="M21.68,14.62H9.32a.32.32,0,0,0-.32.32V17.1a.32.32,0,0,0,.32.33H21.68A.32.32,0,0,0,22,17.1V14.94A.32.32,0,0,0,21.68,14.62ZM10.54,16.75a.71.71,0,0,1-.7-.71.71.71,0,0,1,1.41,0,.71.71,0,0,1-.71.71Z"/><path class="cls-2" d="M6.74,9.86H4.61A.81.81,0,0,1,4.4,8.25H6.74A.81.81,0,1,1,7,9.86Z"/><path class="cls-3" d="M6.74,12.81H2.92a.82.82,0,0,1-.21-1.62h4A.82.82,0,0,1,7,12.81Z"/><path class="cls-2" d="M6.74,15.75H4.61a.81.81,0,0,1-.21-1.61H6.74A.81.81,0,0,1,7,15.75Z"/></g></svg>