<?xml version="1.0" encoding="UTF-8"?>
<svg width="24px" height="24px" viewBox="0 0 24 24" version="1.1" xmlns="http://www.w3.org/2000/svg" xmlns:xlink="http://www.w3.org/1999/xlink">
    <!-- Generator: Sketch 64 (93537) - https://sketch.com -->
    <title>Icon-Architecture/16/Arch_Amazon-CloudWatch_16</title>
    <desc>Created with Sketch.</desc>
    <defs>
        <linearGradient x1="0%" y1="100%" x2="100%" y2="0%" id="linearGradient-1">
            <stop stop-color="#B0084D" offset="0%"></stop>
            <stop stop-color="#FF4F8B" offset="100%"></stop>
        </linearGradient>
    </defs>
    <g id="Icon-Architecture/16/Arch_Amazon-CloudWatch_16" stroke="none" stroke-width="1" fill="none" fill-rule="evenodd">
        <g id="Icon-Architecture-BG/16/Management-Governance" fill="url(#linearGradient-1)">
            <rect id="Rectangle" x="0" y="0" width="24" height="24"></rect>
        </g>
        <path d="M18.9074368,18.522369 L16.9527886,16.7879726 C16.8210145,16.9276688 16.6782593,17.0526083 16.5285161,17.1726289 L18.5220975,18.9453925 C18.6388972,19.048689 18.8235806,19.0408188 18.9303974,18.9227657 C19.0352176,18.8086477 19.0252348,18.627633 18.9074368,18.522369 M14.0248095,17.0831053 C15.6769763,17.0831053 17.0196739,15.7589433 17.0196739,14.1317785 C17.0196739,12.5046136 15.6769763,11.1804516 14.0248095,11.1804516 C12.3736409,11.1804516 11.0299451,12.5046136 11.0299451,14.1317785 C11.0299451,15.7589433 12.3736409,17.0831053 14.0248095,17.0831053 M19.6721255,19.5818954 C19.417562,19.8593201 19.0651663,20 18.7137689,20 C18.4062961,20 18.0988234,19.8937522 17.8542428,19.6763378 L15.6510209,17.7186243 C15.1528751,17.9380063 14.6048149,18.0668809 14.0248095,18.0668809 C11.8225858,18.0668809 10.0316569,16.3019875 10.0316569,14.1317785 C10.0316569,11.9625532 11.8225858,10.196676 14.0248095,10.196676 C16.2270331,10.196676 18.017962,11.9625532 18.017962,14.1317785 C18.017962,14.8017297 17.8312821,15.4234758 17.5307974,15.9763577 L19.5762898,17.7924075 C20.1013894,18.2606847 20.1443158,19.0634456 19.6721255,19.5818954 M6.53764845,14.1317785 L9.03336879,14.1317785 L9.03336879,15.1155541 L6.53764845,15.1155541 C5.3127489,15.1155541 4,13.9596177 4,12.2389942 C4,10.8459679 4.75171097,9.77660381 6.03251465,9.30832662 C6.03151636,9.27389447 6.03151636,9.23847855 6.03151636,9.2040464 C6.03151636,7.60934613 7.12963331,5.95463555 8.58713399,5.3555162 C10.2832255,4.65506796 12.0871322,5.00234075 13.4008794,6.28518415 C13.7492819,6.62458674 14.0437769,7.02498342 14.2813695,7.4814553 C14.6028183,7.28273263 14.9731832,7.17451731 15.3585224,7.17451731 C16.2619732,7.17451731 17.2722408,7.81593901 17.5048419,9.21388416 C18.7596901,9.54246521 19.9726102,10.4829547 19.9726102,12.2606372 C19.9726102,12.6334882 19.9206992,12.9876474 19.815879,13.3113096 L18.8645104,13.0142094 C18.9373854,12.7859734 18.9743221,12.5331431 18.9743221,12.2606372 C18.9743221,10.6147806 17.5637409,10.2035624 16.95778,10.1032173 C16.8250077,10.0805905 16.7072097,10.0077911 16.6313398,9.89859199 C16.5544716,9.79037667 16.524523,9.65559941 16.5504785,9.52574103 C16.4736103,8.54196541 15.8596631,8.15829292 15.3585224,8.15829292 C15.0270908,8.15829292 14.7146266,8.31963213 14.5009929,8.60099195 C14.3911812,8.74560697 14.2154825,8.81545504 14.0268061,8.7928282 C13.8461159,8.76626625 13.6933778,8.6432943 13.6314839,8.47310112 C13.4128588,7.87594932 13.0993964,7.37422376 12.6990828,6.98366484 C12.2099216,6.50751744 10.8652275,5.4804557 8.97247321,6.26354109 C7.88234257,6.71115899 7.0298045,8.00285638 7.0298045,9.2040464 C7.0298045,9.33882366 7.03679251,9.47163337 7.05376341,9.60050798 C7.07273089,9.74118789 7.02880621,9.8818678 6.93396884,9.98811557 C6.86009551,10.0707527 6.7602667,10.1258442 6.65245158,10.1465034 C6.02353005,10.3088264 4.99828814,10.7957953 4.99828814,12.2389942 C4.99828814,13.3545957 5.80989639,14.1317785 6.53764845,14.1317785" id="Amazon-CloudWatch_Icon_16_Squid" fill="#FFFFFF"></path>
    </g>
</svg>