<?xml version="1.0" encoding="UTF-8"?>
<svg width="24px" height="24px" viewBox="0 0 24 24" version="1.1" xmlns="http://www.w3.org/2000/svg" xmlns:xlink="http://www.w3.org/1999/xlink">
    <title>Icon-Architecture/16/Arch_CN-Himalia_16</title>
    <defs>
        <linearGradient x1="0%" y1="100%" x2="100%" y2="0%" id="linearGradient-1">
            <stop stop-color="#B0084D" offset="0%"></stop>
            <stop stop-color="#FF4F8B" offset="100%"></stop>
        </linearGradient>
    </defs>
    <g id="Icon-Architecture/16/Arch_CN-Himalia_16" stroke="none" stroke-width="1" fill="none" fill-rule="evenodd">
        <g id="Rectangle" fill="url(#linearGradient-1)">
            <rect x="0" y="0" width="24" height="24"></rect>
        </g>
        <g id="Icon-Service/16/CN-Himalia_16" transform="translate(4.000000, 4.000000)" fill="#FFFFFF">
            <path d="M15,1 L14.556,1 C14.268,1.062 14.105,1.3 14,1.536 L14,5 L13,5 L13,2 L12,2 L12,6 L13.444,6 C13.665,6 13.896,6.229 13.959,6.44 C14.034,6.691 14.147,6.94 14.622,7.004 L15,7.002 L15,1 Z M1,5 L5,5 L5,4 L1,4 L1,5 Z M16,0.5 L16,7.5 C16,7.776 15.776,8 15.5,8 L14.556,8 C13.832,7.907 13.358,7.572 13.102,7 L11.5,7 C11.224,7 11,6.776 11,6.5 L11,3 L6.611,3 C6.274,3 6,3.274 6,3.611 L6,5.389 C6,5.726 6.274,6 6.611,6 L8,6 L8,7 L6.611,7 C5.939,7 5.363,6.586 5.122,6 L1,6 L1,7 L0,7 L0,2 L1,2 L1,3 L5.122,3 C5.363,2.414 5.939,2 6.611,2 L11,2 L11,1.5 C11,1.224 11.224,1 11.5,1 L13,1 L13.15,1 C13.513,0.323 14.049,0.086 14.463,0.009 L15.5,-1.13686838e-13 C15.776,-1.13686838e-13 16,0.224 16,0.5 L16,0.5 Z M13.5,11 L16,11 L16,12 L13.891,12 L12.985,15.621 C12.931,15.84 12.736,15.995 12.512,16 L12.5,16 C12.279,16 12.085,15.855 12.021,15.644 L9.544,7.386 L7.985,13.621 C7.935,13.824 7.763,13.974 7.555,13.997 C7.337,14.02 7.146,13.91 7.053,13.724 L5.593,10.803 L4.975,12.658 C4.906,12.862 4.715,13 4.5,13 L0,13 L0,12 L4.14,12 L5.025,9.342 C5.09,9.15 5.263,9.016 5.465,9.001 C5.67,8.984 5.856,9.095 5.947,9.276 L7.343,12.067 L9.015,5.379 C9.069,5.16 9.264,5.005 9.488,5 C9.714,5.012 9.914,5.141 9.979,5.356 L12.456,13.614 L13.015,11.379 C13.07,11.156 13.271,11 13.5,11 L13.5,11 Z" id="Fill-7"></path>
        </g>
    </g>
</svg>