<?xml version="1.0" encoding="UTF-8"?>
<svg width="24px" height="24px" viewBox="0 0 24 24" version="1.1" xmlns="http://www.w3.org/2000/svg" xmlns:xlink="http://www.w3.org/1999/xlink">
    <title>Icon-Architecture/16/Arch_AWS-Systems-Manager-Incident-Manager_16</title>
    <defs>
        <linearGradient x1="0%" y1="100%" x2="100%" y2="0%" id="linearGradient-1">
            <stop stop-color="#B0084D" offset="0%"></stop>
            <stop stop-color="#FF4F8B" offset="100%"></stop>
        </linearGradient>
    </defs>
    <g id="Icon-Architecture/16/Arch_AWS-Systems-Manager-Incident-Manager_16" stroke="none" stroke-width="1" fill="none" fill-rule="evenodd">
        <g id="Rectangle" fill="url(#linearGradient-1)">
            <rect x="0" y="0" width="24" height="24"></rect>
        </g>
        <g id="Icon-Service/16/AWS-Systems-Manager-Incident-Manager_16" transform="translate(4.000000, 4.000000)" fill="#FFFFFF">
            <path d="M16,7.39107388 C16.001,7.69107388 16.003,8.38007388 15.999,8.43807388 L15.001,8.38307388 C15.003,8.30307388 15.001,7.67207388 15,7.39407388 L15,7.26307388 C15,5.62807388 13.589,5.21407388 12.982,5.11307388 C12.848,5.09007388 12.729,5.01407388 12.651,4.90007388 C12.575,4.78707388 12.548,4.64807388 12.576,4.51507388 C12.571,3.89307388 12.283,3.39507388 11.782,3.22607388 C11.326,3.07407388 10.81,3.23407388 10.52,3.61607388 C10.409,3.76107388 10.225,3.83007388 10.047,3.80807388 C9.866,3.78007388 9.715,3.65707388 9.651,3.48507388 C9.433,2.88807388 9.119,2.38907388 8.72,2.00107388 C8.229,1.52307388 6.879,0.499073878 4.979,1.28107388 C3.906,1.71907388 3.035,3.03107388 3.035,4.20707388 L3.062,4.63707388 C3.077,4.87807388 2.918,5.09607388 2.684,5.15307388 C2.288,5.25107388 1,5.69607388 1,7.33807388 C1,8.64707388 1.612,9.48707388 2.136,9.80807388 C2.329,9.92707388 2.462,9.97107388 2.629,9.97107388 L5.954,9.97107388 L5.954,10.9710739 L2.629,10.9710739 C2.175,10.9710739 1.847,10.8050739 1.612,10.6600739 C0.834,10.1830739 0,9.05907388 0,7.33807388 C0,5.66907388 0.992,4.70807388 2.04,4.30807388 L2.036,4.23807388 C2.035,2.60807388 3.138,0.953073878 4.599,0.355073878 C6.3,-0.344926122 8.1,0.00307387796 9.416,1.28407388 C9.766,1.62307388 10.063,2.02507388 10.302,2.48507388 C10.83,2.15807388 11.488,2.07107388 12.102,2.27807388 C12.917,2.55307388 13.441,3.26407388 13.55,4.21407388 C14.799,4.55107388 16,5.49307388 16,7.26307388 L16,7.39107388 Z M14.014,13.5760739 C14.014,13.7940739 13.837,13.9710739 13.619,13.9710739 L7.365,13.9710739 C7.147,13.9710739 6.971,13.7940739 6.971,13.5760739 L6.971,13.3670739 C6.971,13.1500739 7.147,12.9730739 7.365,12.9730739 L13.619,12.9730739 C13.837,12.9730739 14.014,13.1500739 14.014,13.3670739 L14.014,13.5760739 Z M9.757,7.46807388 C9.978,7.41107388 10.131,7.21207388 10.131,6.98407388 L10.131,6.17207388 C10.131,6.08707388 10.168,5.98407388 10.251,5.94507388 C10.429,5.86007388 10.554,5.91207388 10.611,5.94807388 C10.694,6.00107388 10.744,6.08707388 10.744,6.17907388 L10.744,6.90607388 C10.744,7.14107388 10.907,7.34407388 11.137,7.39407388 C12.28,7.64507388 13.048,8.62607388 13.048,9.83507388 L13.048,11.9730739 L7.999,11.9730739 L7.999,9.78707388 C7.999,8.67407388 8.705,7.74207388 9.757,7.46807388 L9.757,7.46807388 Z M14.048,12.0480739 L14.048,9.83507388 C14.048,8.28707388 13.138,7.00407388 11.744,6.52707388 L11.744,6.17907388 C11.744,5.74207388 11.521,5.34007388 11.146,5.10307388 C10.754,4.85607388 10.26,4.83307388 9.821,5.04107388 C9.402,5.24107388 9.131,5.68407388 9.131,6.17207388 L9.131,6.62107388 C7.841,7.11907388 6.999,8.34707388 6.999,9.78707388 L6.999,12.0280739 C6.408,12.1900739 5.971,12.7260739 5.971,13.3670739 L5.971,13.5760739 C5.971,14.3450739 6.597,14.9710739 7.365,14.9710739 L9.054,14.9710739 C9.236,15.5690739 9.773,15.9610739 10.492,15.9610739 C11.211,15.9610739 11.748,15.5690739 11.932,14.9710739 L13.619,14.9710739 C14.388,14.9710739 15.014,14.3450739 15.014,13.5760739 L15.014,13.3670739 C15.014,12.7490739 14.606,12.2290739 14.048,12.0480739 L14.048,12.0480739 Z" id="Fill-7"></path>
        </g>
    </g>
</svg>