<?xml version="1.0" encoding="UTF-8"?>
<svg width="24px" height="24px" viewBox="0 0 24 24" version="1.1" xmlns="http://www.w3.org/2000/svg" xmlns:xlink="http://www.w3.org/1999/xlink">
    <title>Icon-Architecture/16/Arch_Amazon-Managed-Service-for-Grafana_16</title>
    <defs>
        <linearGradient x1="0%" y1="100%" x2="100%" y2="0%" id="linearGradient-1">
            <stop stop-color="#B0084D" offset="0%"></stop>
            <stop stop-color="#FF4F8B" offset="100%"></stop>
        </linearGradient>
    </defs>
    <g id="Icon-Architecture/16/Arch_Amazon-Managed-Service-for-Grafana_16" stroke="none" stroke-width="1" fill="none" fill-rule="evenodd">
        <g id="Rectangle" fill="url(#linearGradient-1)">
            <rect x="0" y="0" width="24" height="24"></rect>
        </g>
        <g id="Icon-Service/16/Amazon-Managed-Service-for-Grafana_16" transform="translate(4.000000, 4.000000)" fill="#FFFFFF">
            <path d="M8.9999435,12.0002801 L9.9999435,12.0002801 L9.9999435,9.00028007 L8.9999435,9.00028007 L8.9999435,12.0002801 Z M6.9999435,12.0002801 L7.9999435,12.0002801 L7.9999435,5.00028007 L6.9999435,5.00028007 L6.9999435,12.0002801 Z M4.9999435,12.0002801 L5.9999435,12.0002801 L5.9999435,7.00028007 L4.9999435,7.00028007 L4.9999435,12.0002801 Z M14.9999435,13.2352801 L4.7369435,14.9542801 L1.0519435,9.42628007 L3.8429435,1.05428007 L9.9999435,1.93428007 L9.9999435,6.50028007 C9.9999435,6.65028007 10.0679435,6.79228007 10.1829435,6.88728007 C10.2999435,6.98128007 10.4529435,7.02028007 10.5979435,6.99028007 L14.9999435,6.11028007 L14.9999435,13.2352801 Z M15.8179435,5.11328007 C15.7009435,5.01928007 15.5509435,4.98228007 15.4029435,5.01028007 L10.9999435,5.89028007 L10.9999435,1.50028007 C10.9999435,1.25128007 10.8179435,1.04028007 10.5709435,1.00528007 L3.5709435,0.00528007151 C3.3299435,-0.0297199285 3.1029435,0.112280072 3.0259435,0.342280072 L0.025943498,9.34228007 C-0.023056502,9.48828007 -0.00205650195,9.64928007 0.083943498,9.77728007 L4.0839435,15.7772801 C4.1779435,15.9182801 4.3349435,16.0002801 4.4999435,16.0002801 C4.5279435,16.0002801 4.5549435,15.9982801 4.5829435,15.9932801 L15.5829435,14.1522801 C15.8239435,14.1112801 15.9999435,13.9032801 15.9999435,13.6592801 L15.9999435,5.50028007 C15.9999435,5.35028007 15.9329435,5.20828007 15.8179435,5.11328007 L15.8179435,5.11328007 Z" id="Fill-1"></path>
        </g>
    </g>
</svg>