<?xml version="1.0" encoding="UTF-8"?>
<svg width="24px" height="24px" viewBox="0 0 24 24" version="1.1" xmlns="http://www.w3.org/2000/svg" xmlns:xlink="http://www.w3.org/1999/xlink">
    <title>Icon-Architecture/16/Arch_Amazon-Managed-Service-for-Prometheus_16</title>
    <defs>
        <linearGradient x1="0%" y1="100%" x2="100%" y2="0%" id="linearGradient-1">
            <stop stop-color="#B0084D" offset="0%"></stop>
            <stop stop-color="#FF4F8B" offset="100%"></stop>
        </linearGradient>
    </defs>
    <g id="Icon-Architecture/16/Arch_Amazon-Managed-Service-for-Prometheus_16" stroke="none" stroke-width="1" fill="none" fill-rule="evenodd">
        <g id="Rectangle" fill="url(#linearGradient-1)">
            <rect x="0" y="0" width="24" height="24"></rect>
        </g>
        <g id="Icon-Service/16/Amazon-Managed-Service-for-Prometheus_16" transform="translate(4.000000, 4.000000)" fill="#FFFFFF">
            <path d="M12.5,5 C12.225,5 12,4.776 12,4.5 C12,4.224 12.225,4 12.5,4 C12.775,4 13,4.224 13,4.5 C13,4.776 12.775,5 12.5,5 L12.5,5 Z M9,1.5 C9,1.224 9.225,1 9.5,1 C9.775,1 10,1.224 10,1.5 C10,1.776 9.775,2 9.5,2 C9.225,2 9,1.776 9,1.5 L9,1.5 Z M6.5,6 C6.225,6 6,5.776 6,5.5 C6,5.224 6.225,5 6.5,5 C6.775,5 7,5.224 7,5.5 C7,5.776 6.775,6 6.5,6 L6.5,6 Z M3.5,3 C3.225,3 3,2.776 3,2.5 C3,2.224 3.225,2 3.5,2 C3.775,2 4,2.224 4,2.5 C4,2.776 3.775,3 3.5,3 L3.5,3 Z M12.5,3 C12.27,3 12.053,3.057 11.857,3.15 L10.85,2.143 C10.943,1.947 11,1.731 11,1.5 C11,0.673 10.327,0 9.5,0 C8.673,0 8,0.673 8,1.5 C8,1.796 8.089,2.071 8.238,2.305 L6.934,4.071 C6.795,4.029 6.651,4 6.5,4 C6.282,4 6.076,4.049 5.89,4.133 L4.858,3.127 C4.947,2.936 5,2.725 5,2.5 C5,1.673 4.327,1 3.5,1 C2.673,1 2,1.673 2,2.5 C2,3.327 2.673,4 3.5,4 C3.737,4 3.959,3.939 4.159,3.841 L5.168,4.825 C5.064,5.029 5,5.256 5,5.5 C5,6.327 5.673,7 6.5,7 C7.327,7 8,6.327 8,5.5 C8,5.189 7.904,4.9 7.742,4.66 L9.029,2.917 C9.178,2.967 9.334,3 9.5,3 C9.73,3 9.947,2.943 10.143,2.85 L11.15,3.857 C11.057,4.053 11,4.269 11,4.5 C11,5.327 11.673,6 12.5,6 C13.327,6 14,5.327 14,4.5 C14,3.673 13.327,3 12.5,3 L12.5,3 Z M10.232,11 L5.767,11 L4.424,9 L11.565,9 L10.232,11 Z M9.109,15 L6.891,15 L6.141,12 L9.859,12 L9.109,15 Z M12.5,8 L3.486,8 C3.302,8 3.132,8.102 3.045,8.265 C2.958,8.428 2.968,8.625 3.071,8.779 L5.036,11.706 L6.015,15.621 C6.07,15.844 6.271,16 6.5,16 L9.5,16 C9.729,16 9.93,15.844 9.985,15.621 L10.964,11.705 L12.916,8.777 C13.019,8.624 13.028,8.427 12.94,8.264 C12.854,8.102 12.685,8 12.5,8 L12.5,8 Z" id="Fill-5"></path>
        </g>
    </g>
</svg>