<?xml version="1.0" encoding="UTF-8"?>
<svg width="24px" height="24px" viewBox="0 0 24 24" version="1.1" xmlns="http://www.w3.org/2000/svg" xmlns:xlink="http://www.w3.org/1999/xlink">
    <!-- Generator: Sketch 64 (93537) - https://sketch.com -->
    <title>Icon-Architecture/16/Arch_AWS-Chatbot_16</title>
    <desc>Created with Sketch.</desc>
    <defs>
        <linearGradient x1="0%" y1="100%" x2="100%" y2="0%" id="linearGradient-1">
            <stop stop-color="#B0084D" offset="0%"></stop>
            <stop stop-color="#FF4F8B" offset="100%"></stop>
        </linearGradient>
    </defs>
    <g id="Icon-Architecture/16/Arch_AWS-Chatbot_16" stroke="none" stroke-width="1" fill="none" fill-rule="evenodd">
        <g id="Icon-Architecture-BG/16/Management-Governance" fill="url(#linearGradient-1)">
            <rect id="Rectangle" x="0" y="0" width="24" height="24"></rect>
        </g>
        <path d="M18.5,15.234 L18.5,13.766 C18.803,13.951 19,14.213 19,14.5 C19,14.788 18.803,15.049 18.5,15.234 L18.5,15.234 Z M6,14.5 C6,14.213 6.197,13.951 6.5,13.766 L6.5,15.234 C6.197,15.049 6,14.788 6,14.5 L6,14.5 Z M20,14.5 C20,13.663 19.354,12.947 18.439,12.65 C18.247,11.704 17.578,11 16.777,11 L13.5,11 L13.5,12 L16.777,12 C17.119,12 17.5,12.492 17.5,13.197 L17.5,13.5 L17.5,15.5 L17.5,15.803 C17.5,16.508 17.119,17 16.777,17 L8.223,17 C7.881,17 7.5,16.508 7.5,15.803 L7.5,15.5 L7.5,13.5 L7.5,13.197 C7.5,12.492 7.881,12 8.223,12 L9.5,12 L9.5,11 L8.223,11 C7.422,11 6.753,11.704 6.561,12.65 C5.646,12.947 5,13.663 5,14.5 C5,15.337 5.646,16.053 6.561,16.351 C6.753,17.297 7.422,18 8.223,18 L10.5,18 L10.5,20 L11.5,20 L11.5,18 L13.5,18 L13.5,20 L14.5,20 L14.5,18 L16.777,18 C17.578,18 18.247,17.297 18.439,16.351 C19.354,16.053 20,15.337 20,14.5 L20,14.5 Z M12.5,7 L13.5,7 L13.5,6 L12.5,6 L12.5,7 Z M10.5,7 L11.5,7 L11.5,6 L10.5,6 L10.5,7 Z M8.5,7 L9.5,7 L9.5,6 L8.5,6 L8.5,7 Z M10.5,14.5 C10.5,14.776 10.275,15 10,15 C9.725,15 9.5,14.776 9.5,14.5 C9.5,14.224 9.725,14 10,14 C10.275,14 10.5,14.224 10.5,14.5 L10.5,14.5 Z M8.5,14.5 C8.5,15.327 9.173,16 10,16 C10.827,16 11.5,15.327 11.5,14.5 C11.5,13.673 10.827,13 10,13 C9.173,13 8.5,13.673 8.5,14.5 L8.5,14.5 Z M14.5,14.5 C14.5,14.224 14.725,14 15,14 C15.275,14 15.5,14.224 15.5,14.5 C15.5,14.776 15.275,15 15,15 C14.725,15 14.5,14.776 14.5,14.5 L14.5,14.5 Z M16.5,14.5 C16.5,13.673 15.827,13 15,13 C14.173,13 13.5,13.673 13.5,14.5 C13.5,15.327 14.173,16 15,16 C15.827,16 16.5,15.327 16.5,14.5 L16.5,14.5 Z M7.5,5 L14.5,5 L14.5,8 L12,8 C11.724,8 11.5,8.224 11.5,8.5 L11.5,9.849 L10.416,8.223 C10.323,8.084 10.167,8 10,8 L7.5,8 L7.5,5 Z M7,9 L9.732,9 L11.584,11.777 C11.679,11.919 11.836,12 12,12 C12.048,12 12.097,11.993 12.145,11.979 C12.355,11.915 12.5,11.72 12.5,11.5 L12.5,9 L15,9 C15.276,9 15.5,8.776 15.5,8.5 L15.5,4.5 C15.5,4.224 15.276,4 15,4 L7,4 C6.724,4 6.5,4.224 6.5,4.5 L6.5,8.5 C6.5,8.776 6.724,9 7,9 L7,9 Z" id="AWS-Chatbot_Icon_16_Squid" fill="#FFFFFF"></path>
    </g>
</svg>