<?xml version="1.0" encoding="UTF-8"?>
<svg width="24px" height="24px" viewBox="0 0 24 24" version="1.1" xmlns="http://www.w3.org/2000/svg" xmlns:xlink="http://www.w3.org/1999/xlink">
    <!-- Generator: Sketch 64 (93537) - https://sketch.com -->
    <title>Icon-Architecture/16/Arch_AWS-Personal-Health-Dashboard_16</title>
    <desc>Created with Sketch.</desc>
    <defs>
        <linearGradient x1="0%" y1="100%" x2="100%" y2="0%" id="linearGradient-1">
            <stop stop-color="#B0084D" offset="0%"></stop>
            <stop stop-color="#FF4F8B" offset="100%"></stop>
        </linearGradient>
    </defs>
    <g id="Icon-Architecture/16/Arch_AWS-Personal-Health-Dashboard_16" stroke="none" stroke-width="1" fill="none" fill-rule="evenodd">
        <g id="Icon-Architecture-BG/16/Management-Governance" fill="url(#linearGradient-1)">
            <rect id="Rectangle" x="0" y="0" width="24" height="24"></rect>
        </g>
        <path d="M14.7598562,9.2414686 C14.7013184,9.03930421 14.5226771,8.89490108 14.3107298,8.87996282 C14.0725415,8.85805338 13.8989466,8.98253884 13.8131584,9.17474439 L11.8259005,13.5865091 L10.4876049,10.9464215 C10.4058538,10.7850883 10.2423516,10.6805205 10.0606825,10.6715576 C9.86690216,10.6536317 9.70541853,10.7522241 9.60852835,10.9035985 L8.40749385,12.7848227 L5.19296032,12.7848227 L5.19296032,13.7807064 L8.68504384,13.7807064 C8.85863874,13.7807064 9.02012237,13.6930686 9.11196619,13.5486655 L9.98599634,12.1823131 L11.4009967,14.9757668 C11.4867848,15.1450671 11.661389,15.2516266 11.8521416,15.2516266 L11.8642528,15.2516266 C12.0590425,15.2466472 12.2336466,15.1321206 12.3133792,14.9558492 L14.1674131,10.838866 L14.9062007,13.4182048 C14.9677664,13.6323197 15.1655838,13.7807064 15.3916609,13.7807064 L19.72245,13.7807064 L19.72245,12.7848227 L15.773166,12.7848227 L14.7598562,9.2414686 Z M12.0196808,18.7192936 L8.68302529,14.7118577 L7.9028575,15.3432479 L11.6270737,19.8177533 C11.7229546,19.9322799 11.8662714,19.9990041 12.016653,20 L12.0176623,20 C12.1680439,20 12.3103514,19.9332758 12.4062323,19.8197451 L16.1647638,15.3462356 L15.3876238,14.7108618 L12.0196808,18.7192936 Z M5.39986123,10.4634179 L4.51271053,10.9384544 C4.17258563,10.3200106 4,9.67866153 4,9.03332891 C4,6.80952065 5.92064593,5 8.28234404,5 C9.90525453,5 11.3192456,5.86343115 12.038857,7.13218696 C12.7574592,5.86343115 14.1714502,5 15.7933514,5 C18.1520217,5 20,6.77167707 20,9.03332891 C20,9.77127871 19.8627389,10.3857389 19.578124,10.9135573 L18.6879455,10.445492 C18.8918186,10.0660603 18.9907273,9.60397026 18.9907273,9.03332891 C18.9907273,7.33036781 17.586829,5.99588368 15.7933514,5.99588368 C13.9716142,5.99588368 12.5434933,7.3313637 12.5434933,9.03631656 C12.5434933,9.31118045 12.3174163,9.5342584 12.038857,9.5342584 C11.7592885,9.5342584 11.5342207,9.31118045 11.5342207,9.03631656 C11.5342207,7.3313637 10.1060998,5.99588368 8.28234404,5.99588368 C6.47776446,5.99588368 5.00927269,7.35825256 5.00927269,9.03332891 C5.00927269,9.51135307 5.14047814,9.99236489 5.39986123,10.4634179 L5.39986123,10.4634179 Z" id="AWS-Personal-Health-Dashboard_Icon_16_Squid" fill="#FFFFFF"></path>
    </g>
</svg>