<?xml version="1.0" encoding="UTF-8"?>
<svg width="24px" height="24px" viewBox="0 0 24 24" version="1.1" xmlns="http://www.w3.org/2000/svg" xmlns:xlink="http://www.w3.org/1999/xlink">
    <title>Icon-Architecture/16/Arch_AWS-Valkyrie_16</title>
    <defs>
        <linearGradient x1="0%" y1="100%" x2="100%" y2="0%" id="linearGradient-1">
            <stop stop-color="#B0084D" offset="0%"></stop>
            <stop stop-color="#FF4F8B" offset="100%"></stop>
        </linearGradient>
    </defs>
    <g id="Icon-Architecture/16/Arch_AWS-Valkyrie_16" stroke="none" stroke-width="1" fill="none" fill-rule="evenodd">
        <g id="Rectangle" fill="url(#linearGradient-1)">
            <rect x="0" y="0" width="24" height="24"></rect>
        </g>
        <g id="Icon-Service/16/AWS-Valkyrie_16" transform="translate(4.000000, 4.000000)" fill="#FFFFFF">
            <path d="M6.489,4.98595989 C6.764,4.98595989 6.989,4.76195989 6.989,4.48595989 C6.989,4.20995989 6.764,3.98595989 6.489,3.98595989 C6.214,3.98595989 5.989,4.20995989 5.989,4.48595989 C5.989,4.76195989 6.214,4.98595989 6.489,4.98595989 L6.489,4.98595989 Z M6.489,5.98595989 C5.662,5.98595989 4.989,5.31295989 4.989,4.48595989 C4.989,3.65895989 5.662,2.98595989 6.489,2.98595989 C7.316,2.98595989 7.989,3.65895989 7.989,4.48595989 C7.989,5.31295989 7.316,5.98595989 6.489,5.98595989 L6.489,5.98595989 Z M9.782,8.89995989 L10.489,8.19295989 L11.196,8.89995989 L11.903,8.19295989 L11.196,7.48595989 L11.903,6.77895989 L11.196,6.07195989 L10.489,6.77895989 L9.782,6.07195989 L9.075,6.77895989 L9.782,7.48595989 L9.075,8.19295989 L9.782,8.89995989 Z M5.989,8.98595989 L4.989,8.98595989 L4.989,13.9859599 C4.989,14.2619599 5.214,14.4859599 5.489,14.4859599 C5.764,14.4859599 5.989,14.2619599 5.989,13.9859599 L5.989,8.98595989 Z M7.989,8.98595989 L6.989,8.98595989 L6.989,13.9859599 C6.989,14.8129599 6.316,15.4859599 5.489,15.4859599 C4.662,15.4859599 3.989,14.8129599 3.989,13.9859599 L3.989,8.98595989 L2.989,8.98595989 L2.989,7.98595989 L7.989,7.98595989 L7.989,8.98595989 Z M15.765,7.81995989 C15.765,10.1519599 13.846,10.9099599 12.832,10.9849599 L7.989,10.9859599 L7.989,9.98595989 L12.795,9.98595989 C12.962,9.96995989 14.765,9.76495989 14.765,7.81995989 C14.765,6.15695989 13.355,5.73395989 12.749,5.62995989 C12.478,5.58295989 12.296,5.32695989 12.341,5.05595989 C12.339,4.38095989 12.051,3.86995989 11.549,3.70495989 C11.108,3.56195989 10.627,3.72295989 10.344,4.10395989 C10.235,4.25295989 10.056,4.32495989 9.868,4.30195989 C9.685,4.27495989 9.532,4.14795989 9.47,3.97295989 C9.257,3.36695989 8.949,2.85995989 8.555,2.46495989 C8.076,1.98195989 6.759,0.943959894 4.902,1.73195989 C3.85,2.17895989 2.995,3.51895989 2.995,4.71795989 L3.022,5.15395989 C3.037,5.39295989 2.88,5.60895989 2.647,5.66895989 C2.032,5.82695989 1,6.31395989 1,7.79795989 C1,8.92195989 1.606,9.54095989 2.115,9.86195989 C2.268,9.95895989 2.364,9.98595989 2.56,9.98595989 L2.989,9.98595989 L2.989,10.9859599 L2.559,10.9859599 C2.177,10.9859599 1.893,10.9049599 1.582,10.7079599 C0.991,10.3349599 4.97379915e-14,9.46095989 4.97379915e-14,7.79795989 C4.97379915e-14,6.38695989 0.74,5.30195989 2.001,4.82495989 L1.996,4.74895989 C1.995,3.10095989 3.077,1.42095989 4.511,0.811959894 C6.19,0.0979598935 7.968,0.453959894 9.264,1.75895989 C9.605,2.10195989 9.894,2.50595989 10.127,2.96595989 C10.637,2.64895989 11.268,2.56095989 11.861,2.75495989 C12.684,3.02595989 13.213,3.75295989 13.319,4.73395989 C14.565,5.07595989 15.765,6.03195989 15.765,7.81995989 L15.765,7.81995989 Z" id="Fill-1"></path>
        </g>
    </g>
</svg>