<?xml version="1.0" encoding="UTF-8"?>
<svg width="24px" height="24px" viewBox="0 0 24 24" version="1.1" xmlns="http://www.w3.org/2000/svg" xmlns:xlink="http://www.w3.org/1999/xlink">
    <!-- Generator: Sketch 64 (93537) - https://sketch.com -->
    <title>Icon-Architecture/16/Arch_AWS-Systems-Manager_16</title>
    <desc>Created with Sketch.</desc>
    <defs>
        <linearGradient x1="0%" y1="100%" x2="100%" y2="0%" id="linearGradient-1">
            <stop stop-color="#B0084D" offset="0%"></stop>
            <stop stop-color="#FF4F8B" offset="100%"></stop>
        </linearGradient>
    </defs>
    <g id="Icon-Architecture/16/Arch_AWS-Systems-Manager_16" stroke="none" stroke-width="1" fill="none" fill-rule="evenodd">
        <g id="Icon-Architecture-BG/16/Management-Governance" fill="url(#linearGradient-1)">
            <rect id="Rectangle" x="0" y="0" width="24" height="24"></rect>
        </g>
        <path d="M7.031,9.26845833 C7.031,9.40545833 7.04,9.54245833 7.055,9.67445833 C7.073,9.81645833 7.029,9.95945833 6.933,10.0664583 C6.861,10.1484583 6.763,10.2044583 6.657,10.2254583 C6.028,10.3894583 5,10.8824583 5,12.3504583 C5,13.4824583 5.811,14.2714583 6.54,14.2714583 L10.037,14.2714583 L10.037,15.2714583 L6.54,15.2714583 C5.313,15.2714583 4,14.0974583 4,12.3504583 C4,10.9354583 4.751,9.85045833 6.032,9.37445833 C6.031,9.33945833 6.031,9.30445833 6.031,9.26845833 C6.031,7.64845833 7.131,5.96945833 8.59,5.36145833 C10.29,4.64945833 12.091,5.00245833 13.407,6.30445833 C13.755,6.64945833 14.05,7.05645833 14.288,7.51845833 C14.609,7.31745833 14.979,7.20745833 15.365,7.20745833 C16.268,7.20745833 17.28,7.85845833 17.512,9.27845833 C18.768,9.61245833 19.982,10.5664583 19.982,12.3714583 L18.982,12.3714583 C18.982,10.7014583 17.571,10.2844583 16.965,10.1824583 C16.832,10.1594583 16.714,10.0844583 16.637,9.97445833 C16.56,9.86445833 16.531,9.72745833 16.556,9.59545833 C16.479,8.59645833 15.867,8.20745833 15.365,8.20745833 C15.033,8.20745833 14.72,8.37145833 14.508,8.65645833 C14.398,8.80345833 14.215,8.87845833 14.034,8.85145833 C13.852,8.82445833 13.7,8.69945833 13.637,8.52645833 C13.418,7.92045833 13.103,7.41245833 12.703,7.01545833 C12.214,6.53045833 10.868,5.49045833 8.975,6.28445833 C7.885,6.73845833 7.031,8.04945833 7.031,9.26845833 L7.031,9.26845833 Z M15.705,16.1044583 L15.705,16.1044583 C15.58,16.2344583 15.412,16.3084583 15.232,16.3114583 C15.024,16.3394583 14.881,16.2474583 14.751,16.1234583 C14.621,15.9984583 14.547,15.8304583 14.544,15.6504583 C14.54,15.4704583 14.607,15.2994583 14.732,15.1684583 C14.857,15.0394583 15.025,14.9654583 15.205,14.9624583 C15.21,14.9624583 15.215,14.9614583 15.219,14.9614583 C15.394,14.9614583 15.559,15.0284583 15.686,15.1504583 C15.816,15.2754583 15.89,15.4434583 15.893,15.6234583 C15.897,15.8034583 15.83,15.9744583 15.705,16.1044583 L15.705,16.1044583 Z M15.185,13.9624583 C14.738,13.9714583 14.321,14.1534583 14.011,14.4764583 C13.701,14.7984583 13.535,15.2224583 13.544,15.6694583 C13.552,16.1174583 13.735,16.5344583 14.057,16.8444583 C14.372,17.1464583 14.783,17.3114583 15.218,17.3114583 C15.229,17.3114583 15.24,17.3114583 15.252,17.3114583 C15.699,17.3024583 16.116,17.1204583 16.426,16.7974583 C16.736,16.4754583 16.902,16.0514583 16.893,15.6034583 C16.885,15.1564583 16.702,14.7394583 16.38,14.4294583 C16.057,14.1194583 15.658,13.9644583 15.185,13.9624583 L15.185,13.9624583 Z M18.127,17.3514583 L17.142,17.1534583 C17.005,17.1274583 16.862,17.1574583 16.749,17.2404583 L16.245,17.6094583 C16.133,17.6914583 16.059,17.8164583 16.043,17.9544583 L15.927,18.9464583 L14.468,18.9454583 L14.353,17.9604583 C14.337,17.8234583 14.264,17.6984583 14.153,17.6164583 L13.643,17.2394583 C13.531,17.1564583 13.388,17.1244583 13.249,17.1514583 L12.271,17.3464583 L11.822,15.9584583 L12.737,15.5384583 C12.864,15.4804583 12.961,15.3714583 13.005,15.2394583 L13.196,14.6524583 C13.239,14.5194583 13.225,14.3744583 13.156,14.2524583 L12.664,13.3754583 L13.844,12.5184583 L14.52,13.2524583 C14.615,13.3554583 14.749,13.4144583 14.888,13.4144583 L14.891,13.4144583 L15.525,13.4104583 C15.664,13.4094583 15.796,13.3514583 15.889,13.2484583 L16.561,12.5204583 L17.741,13.3794583 L17.251,14.2524583 C17.182,14.3734583 17.168,14.5174583 17.21,14.6494583 L17.399,15.2424583 C17.442,15.3764583 17.54,15.4854583 17.667,15.5444583 L18.579,15.9634583 L18.127,17.3514583 Z M19.401,15.2414583 L18.285,14.7274583 L18.229,14.5524583 L18.831,13.4824583 C18.956,13.2614583 18.894,12.9824583 18.689,12.8324583 L16.79,11.4504583 C16.587,11.3014583 16.302,11.3284583 16.129,11.5164583 L15.302,12.4114583 L15.106,12.4124583 L14.279,11.5144583 C14.107,11.3274583 13.824,11.3004583 13.617,11.4484583 L11.716,12.8274583 C11.51,12.9764583 11.449,13.2554583 11.574,13.4774583 L12.177,14.5514583 L12.122,14.7204583 L11.001,15.2344583 C10.769,15.3404583 10.655,15.6024583 10.733,15.8434583 L11.458,18.0784583 C11.535,18.3194583 11.785,18.4664583 12.031,18.4144583 L13.227,18.1754583 L13.385,18.2914583 L13.525,19.5024583 C13.554,19.7544583 13.768,19.9454583 14.022,19.9454583 L16.372,19.9474583 C16.626,19.9474583 16.839,19.7574583 16.869,19.5054583 L17.011,18.2874583 L17.161,18.1774583 L18.366,18.4194583 C18.616,18.4714583 18.861,18.3244583 18.94,18.0834583 L19.668,15.8504583 C19.746,15.6084583 19.632,15.3474583 19.401,15.2414583 L19.401,15.2414583 Z" id="AWS-Systems-Manager_Icon_16_Squid" fill="#FFFFFF"></path>
    </g>
</svg>