<?xml version="1.0" encoding="UTF-8"?>
<svg width="24px" height="24px" viewBox="0 0 24 24" version="1.1" xmlns="http://www.w3.org/2000/svg" xmlns:xlink="http://www.w3.org/1999/xlink">
    <!-- Generator: Sketch 64 (93537) - https://sketch.com -->
    <title>Icon-Architecture/16/Arch_AWS-App-Config_16</title>
    <desc>Created with Sketch.</desc>
    <defs>
        <linearGradient x1="0%" y1="100%" x2="100%" y2="0%" id="linearGradient-1">
            <stop stop-color="#B0084D" offset="0%"></stop>
            <stop stop-color="#FF4F8B" offset="100%"></stop>
        </linearGradient>
    </defs>
    <g id="Icon-Architecture/16/Arch_AWS-App-Config_16" stroke="none" stroke-width="1" fill="none" fill-rule="evenodd">
        <g id="Icon-Architecture-BG/16/Management-Governance" fill="url(#linearGradient-1)">
            <rect id="Rectangle" x="0" y="0" width="24" height="24"></rect>
        </g>
        <path d="M7.776,14.784 L7.069,14.077 L5,16.147 L5.707,16.854 L7.776,14.784 Z M14.93,11.667 C14.93,12.77 14.033,13.667 12.93,13.667 C11.828,13.667 10.93,12.77 10.93,11.667 C10.93,10.564 11.828,9.667 12.93,9.667 C14.033,9.667 14.93,10.564 14.93,11.667 L14.93,11.667 Z M15.93,11.667 C15.93,10.013 14.585,8.667 12.93,8.667 C11.276,8.667 9.93,10.013 9.93,11.667 C9.93,13.322 11.276,14.667 12.93,14.667 C14.585,14.667 15.93,13.322 15.93,11.667 L15.93,11.667 Z M14.511,18.177 C14.606,18.077 14.655,17.943 14.647,17.805 L14.612,17.192 C14.965,17.084 15.307,16.943 15.634,16.769 L16.044,17.227 C16.135,17.33 16.265,17.39 16.402,17.394 C16.554,17.398 16.673,17.346 16.77,17.248 L18.504,15.514 C18.601,15.417 18.654,15.284 18.65,15.147 C18.646,15.009 18.586,14.879 18.483,14.788 L18.022,14.377 C18.196,14.052 18.337,13.71 18.445,13.357 L19.061,13.392 C19.197,13.404 19.333,13.351 19.433,13.256 C19.533,13.162 19.589,13.031 19.589,12.893 L19.589,10.442 C19.589,10.304 19.533,10.173 19.433,10.078 C19.333,9.984 19.197,9.938 19.061,9.943 L18.444,9.977 C18.336,9.625 18.195,9.284 18.021,8.958 L18.483,8.546 C18.586,8.455 18.646,8.325 18.65,8.187 C18.654,8.05 18.601,7.917 18.504,7.82 L16.77,6.087 C16.673,5.99 16.523,5.939 16.403,5.94 C16.265,5.944 16.135,6.005 16.044,6.107 L15.63,6.571 C15.304,6.397 14.964,6.256 14.612,6.149 L14.647,5.529 C14.655,5.391 14.606,5.257 14.511,5.157 C14.417,5.057 14.286,5 14.148,5 L11.697,5 C11.559,5 11.428,5.057 11.334,5.157 C11.239,5.257 11.19,5.391 11.198,5.529 L11.233,6.148 C10.88,6.255 10.541,6.396 10.214,6.57 L9.801,6.107 C9.71,6.005 9.58,5.944 9.442,5.94 C9.339,5.942 9.172,5.99 9.075,6.087 L7.342,7.82 C7.245,7.917 7.192,8.05 7.196,8.187 C7.2,8.325 7.26,8.454 7.363,8.546 L7.826,8.959 C7.652,9.284 7.51,9.625 7.402,9.977 L6.784,9.943 C6.646,9.938 6.513,9.984 6.412,10.078 C6.312,10.173 6.255,10.304 6.255,10.442 L6.255,12.893 C6.255,13.031 6.312,13.162 6.413,13.257 C6.513,13.352 6.646,13.404 6.785,13.392 L7.785,13.333 L7.726,12.335 L7.255,12.363 L7.255,10.971 L7.752,10.999 C8.024,11.009 8.213,10.848 8.267,10.611 C8.388,10.083 8.595,9.583 8.885,9.125 C9.016,8.918 8.978,8.648 8.796,8.485 L8.423,8.153 L9.408,7.168 L9.74,7.539 C9.902,7.722 10.172,7.759 10.38,7.629 C10.839,7.34 11.339,7.133 11.866,7.014 C12.104,6.961 12.268,6.742 12.255,6.498 L12.226,6 L13.619,6 L13.59,6.499 C13.577,6.743 13.741,6.961 13.979,7.015 C14.506,7.134 15.006,7.341 15.464,7.63 C15.67,7.759 15.941,7.723 16.104,7.54 L16.437,7.168 L17.422,8.153 L17.051,8.483 C16.87,8.646 16.832,8.916 16.962,9.123 C17.251,9.583 17.459,10.083 17.578,10.61 C17.631,10.848 17.83,11.019 18.093,10.999 L18.589,10.971 L18.589,12.364 L18.094,12.335 C17.862,12.326 17.633,12.486 17.579,12.724 C17.459,13.254 17.252,13.755 16.963,14.212 C16.832,14.419 16.87,14.689 17.052,14.852 L17.422,15.181 L16.437,16.167 L16.109,15.799 C15.947,15.616 15.674,15.579 15.469,15.709 C15.01,15.999 14.508,16.206 13.979,16.326 C13.741,16.38 13.576,16.598 13.59,16.843 L13.619,17.334 L12.422,17.334 L12.422,18.334 L14.148,18.334 C14.286,18.334 14.418,18.277 14.511,18.177 L14.511,18.177 Z M11.776,16.854 L11.069,16.147 L8.069,19.147 L8.776,19.854 L11.776,16.854 Z M5.776,19.854 L5.069,19.147 L10.069,14.147 L10.776,14.854 L5.776,19.854 Z" id="AWS-App-Config_Icon_16_Squid" fill="#FFFFFF"></path>
    </g>
</svg>