<?xml version="1.0" encoding="UTF-8"?>
<svg width="24px" height="24px" viewBox="0 0 24 24" version="1.1" xmlns="http://www.w3.org/2000/svg" xmlns:xlink="http://www.w3.org/1999/xlink">
    <!-- Generator: Sketch 64 (93537) - https://sketch.com -->
    <title>Icon-Architecture/16/Arch_AWS-CloudFormation_16</title>
    <desc>Created with Sketch.</desc>
    <defs>
        <linearGradient x1="0%" y1="100%" x2="100%" y2="0%" id="linearGradient-1">
            <stop stop-color="#B0084D" offset="0%"></stop>
            <stop stop-color="#FF4F8B" offset="100%"></stop>
        </linearGradient>
    </defs>
    <g id="Icon-Architecture/16/Arch_AWS-CloudFormation_16" stroke="none" stroke-width="1" fill="none" fill-rule="evenodd">
        <g id="Icon-Architecture-BG/16/Management-Governance" fill="url(#linearGradient-1)">
            <rect id="Rectangle" x="0" y="0" width="24" height="24"></rect>
        </g>
        <path d="M5.97544475,14.9516681 L9.98446505,14.9516681 L9.98446505,13.9411009 L5.97544475,13.9411009 L5.97544475,14.9516681 Z M5.97544475,10.901315 L8.98220997,10.901315 L8.98220997,9.89074784 L5.97544475,9.89074784 L5.97544475,10.901315 Z M5.97544475,12.9618614 L11.9889752,12.9618614 L11.9889752,11.9512942 L5.97544475,11.9512942 L5.97544475,12.9618614 Z M10.9446254,17.9894329 L5.00225507,17.9894329 L5.00225507,8.78720853 L10.9446254,8.78720853 L10.9446254,10.9154629 L11.9468805,10.9154629 L11.9468805,8.28192497 C11.9468805,8.00199787 11.7223753,7.7766414 11.4457529,7.7766414 L4.50112754,7.7766414 C4.22450514,7.7766414 4,8.00199787 4,8.28192497 L4,18.4947164 C4,18.773633 4.22450514,19 4.50112754,19 L11.4457529,19 C11.7223753,19 11.9468805,18.773633 11.9468805,18.4947164 L11.9468805,13.9471643 L10.9446254,13.9471643 L10.9446254,17.9894329 Z M20,10.938706 C20,13.053823 18.3933851,13.8491393 17.5444751,13.9734391 L12.9912303,13.9784919 L12.9912303,12.9679248 L17.4713104,12.9679248 C17.5605112,12.9477134 18.9977449,12.6677863 18.9977449,10.938706 C18.9977449,10.051428 18.5206715,9.57444033 17.4512653,9.39253825 C17.1936858,9.34908386 17.0132799,9.11362172 17.0353295,8.85188483 C17.0353295,8.84784256 17.0363317,8.84278973 17.0363317,8.83773689 C17.0142821,8.07576927 16.5592583,7.84131769 16.3608118,7.77462026 C16.0090203,7.65638391 15.6401904,7.75643006 15.4427462,8.02524091 C15.3335004,8.17379428 15.1470809,8.24857625 14.966675,8.2223015 C14.7842646,8.19400563 14.6309196,8.06768473 14.569782,7.89184605 C14.412428,7.44719651 14.1789025,7.15413204 13.8521674,6.82468716 C13.4673014,6.43966108 12.4109246,5.60998546 10.9456277,6.23148425 C10.5607617,6.39418556 10.2099724,6.71049307 9.93435229,7.14604751 L9.09045352,6.60034125 C9.47632172,5.9929904 9.98346279,5.54328803 10.5577549,5.29974135 C11.9609121,4.70451731 13.4592834,5.00667688 14.5607617,6.10920563 C14.7902781,6.3406255 15.0197945,6.59730955 15.2172388,6.92372274 C15.6492107,6.694324 16.1794037,6.64985904 16.6755199,6.81458149 C17.2548234,7.00861038 17.8682035,7.54320039 18.0095214,8.47898556 C19.6421949,8.90241319 20,10.0322272 20,10.938706 L20,10.938706 Z" id="AWS-CloudFormation_Icon_16_Squid" fill="#FFFFFF"></path>
    </g>
</svg>