<?xml version="1.0" encoding="UTF-8"?>
<svg width="24px" height="24px" viewBox="0 0 24 24" version="1.1" xmlns="http://www.w3.org/2000/svg" xmlns:xlink="http://www.w3.org/1999/xlink">
    <!-- Generator: Sketch 64 (93537) - https://sketch.com -->
    <title>Icon-Architecture/16/Arch_AWS-Service-Catalog_16</title>
    <desc>Created with Sketch.</desc>
    <defs>
        <linearGradient x1="0%" y1="100%" x2="100%" y2="0%" id="linearGradient-1">
            <stop stop-color="#B0084D" offset="0%"></stop>
            <stop stop-color="#FF4F8B" offset="100%"></stop>
        </linearGradient>
    </defs>
    <g id="Icon-Architecture/16/Arch_AWS-Service-Catalog_16" stroke="none" stroke-width="1" fill="none" fill-rule="evenodd">
        <g id="Icon-Architecture-BG/16/Management-Governance" fill="url(#linearGradient-1)">
            <rect id="Rectangle" x="0" y="0" width="24" height="24"></rect>
        </g>
        <path d="M6.5,8 C6.775,8 7,8.224 7,8.5 C7,8.776 6.775,9 6.5,9 C6.225,9 6,8.776 6,8.5 C6,8.224 6.225,8 6.5,8 L6.5,8 Z M6,11.5 C6,10.98 6.076,10.47 6.197,9.969 C6.295,9.989 6.396,10 6.5,10 C7.327,10 8,9.327 8,8.5 C8,7.673 7.327,7 6.5,7 C5.673,7 5,7.673 5,8.5 C5,8.836 5.115,9.144 5.303,9.394 C5.104,10.076 5,10.785 5,11.5 C5,14.632 6.975,17.462 9.913,18.542 L10.259,17.604 C7.711,16.667 6,14.215 6,11.5 L6,11.5 Z M19,8.5 C19,8.776 18.775,9 18.5,9 C18.225,9 18,8.776 18,8.5 C18,8.224 18.225,8 18.5,8 C18.775,8 19,8.224 19,8.5 L19,8.5 Z M12.5,5 C14.469,5 16.273,5.868 17.514,7.379 C17.201,7.654 17,8.052 17,8.5 C17,9.327 17.673,10 18.5,10 C19.327,10 20,9.327 20,8.5 C20,7.673 19.327,7 18.5,7 L18.498,7 C17.085,5.122 14.848,4 12.5,4 C10.631,4 8.84,4.692 7.457,5.949 L8.129,6.689 C9.327,5.6 10.88,5 12.5,5 L12.5,5 Z M12.5,19 C12.225,19 12,18.776 12,18.5 C12,18.224 12.225,18 12.5,18 C12.775,18 13,18.224 13,18.5 C13,18.776 12.775,19 12.5,19 L12.5,19 Z M18.965,10.813 C18.988,11.039 19,11.268 19,11.5 C19,14.598 16.843,17.213 13.842,17.843 C13.597,17.346 13.09,17 12.5,17 C11.673,17 11,17.673 11,18.5 C11,19.327 11.673,20 12.5,20 C13.205,20 13.794,19.509 13.954,18.853 C17.469,18.163 20,15.109 20,11.5 C20,11.233 19.986,10.969 19.959,10.709 L18.965,10.813 Z M10.5,14.941 L9,14.191 L9,12.309 L10.258,11.68 C10.266,11.685 10.269,11.693 10.276,11.697 L12,12.559 L12,14.191 L10.5,14.941 Z M12.5,8.309 L14,9.059 L14,10.691 L12.5,11.441 L11,10.691 L11,9.059 L12.5,8.309 Z M16,14.191 L14.5,14.941 L13,14.191 L13,12.559 L14.724,11.697 C14.731,11.693 14.734,11.685 14.742,11.68 L16,12.309 L16,14.191 Z M14.276,15.947 C14.347,15.982 14.424,16 14.5,16 C14.576,16 14.653,15.982 14.724,15.947 L16.724,14.947 C16.893,14.862 17,14.689 17,14.5 L17,12 C17,11.811 16.893,11.638 16.724,11.553 L15,10.691 L15,8.75 C15,8.561 14.893,8.388 14.724,8.303 L12.724,7.303 C12.583,7.232 12.417,7.232 12.276,7.303 L10.276,8.303 C10.107,8.388 10,8.561 10,8.75 L10,10.691 L8.276,11.553 C8.107,11.638 8,11.811 8,12 L8,14.5 C8,14.689 8.107,14.862 8.276,14.947 L10.276,15.947 C10.347,15.982 10.424,16 10.5,16 C10.576,16 10.653,15.982 10.724,15.947 L12.5,15.059 L14.276,15.947 Z" id="AWS-Service-Catalog_Icon_16_Squid" fill="#FFFFFF"></path>
    </g>
</svg>