<?xml version="1.0" encoding="UTF-8"?>
<svg width="24px" height="24px" viewBox="0 0 24 24" version="1.1" xmlns="http://www.w3.org/2000/svg" xmlns:xlink="http://www.w3.org/1999/xlink">
    <!-- Generator: Sketch 64 (93537) - https://sketch.com -->
    <title>Icon-Architecture/16/Arch_AWS-Organizations_16</title>
    <desc>Created with Sketch.</desc>
    <defs>
        <linearGradient x1="0%" y1="100%" x2="100%" y2="0%" id="linearGradient-1">
            <stop stop-color="#B0084D" offset="0%"></stop>
            <stop stop-color="#FF4F8B" offset="100%"></stop>
        </linearGradient>
    </defs>
    <g id="Icon-Architecture/16/Arch_AWS-Organizations_16" stroke="none" stroke-width="1" fill="none" fill-rule="evenodd">
        <g id="Icon-Architecture-BG/16/Management-Governance" fill="url(#linearGradient-1)">
            <rect id="Rectangle" x="0" y="0" width="24" height="24"></rect>
        </g>
        <path d="M19.0010655,19.0025519 L17.9401971,19.0025519 L17.9401971,17.9432619 L18.0021311,17.9432619 L19.0010655,17.9432619 L19.0010655,19.0025519 Z M13.0074587,19.0025519 L11.9925413,19.0025519 L11.9925413,17.9432619 L12.0085242,17.9432619 L13.0074587,17.9432619 L13.0074587,19.0025519 Z M7.01385189,19.0025519 L5.99893447,19.0025519 L5.99893447,17.9432619 L6.01491742,17.9432619 L7.01385189,17.9432619 L7.01385189,19.0025519 Z M19.5005328,16.9448164 L19.0010655,16.9448164 L19.0010655,15.4486441 C19.0010655,15.1733485 18.7773042,14.9509175 18.5015983,14.9509175 L13.0074587,14.9509175 L13.0074587,14.3893542 L12.0085242,14.3893542 L12.0085242,14.9509175 L6.51438466,14.9509175 C6.23867874,14.9509175 6.01491742,15.1733485 6.01491742,15.4486441 L6.01491742,16.9448164 L5.49946723,16.9448164 C5.22376132,16.9448164 5,17.1682447 5,17.4445379 L5,19.5012759 C5,19.7765716 5.22376132,20 5.49946723,20 L7.51331913,20 C7.78902504,20 8.01278636,19.7765716 8.01278636,19.5012759 L8.01278636,17.4445379 C8.01278636,17.1682447 7.78902504,16.9448164 7.51331913,16.9448164 L7.01385189,16.9448164 L7.01385189,15.9473682 L12.0085242,15.9473682 L12.0085242,16.9448164 L11.4930741,16.9448164 C11.2173681,16.9448164 10.9936068,17.1682447 10.9936068,17.4445379 L10.9936068,19.5012759 C10.9936068,19.7765716 11.2173681,20 11.4930741,20 L13.5069259,20 C13.7826319,20 14.0063932,19.7765716 14.0063932,19.5012759 L14.0063932,17.4445379 C14.0063932,17.1682447 13.7826319,16.9448164 13.5069259,16.9448164 L13.0074587,16.9448164 L13.0074587,15.9473682 L18.0021311,15.9473682 L18.0021311,16.9448164 L17.4407299,16.9448164 C17.164025,16.9448164 16.9402637,17.1682447 16.9402637,17.4445379 L16.9402637,19.5012759 C16.9402637,19.7765716 17.164025,20 17.4407299,20 L19.5005328,20 C19.7762387,20 20,19.7765716 20,19.5012759 L20,17.4445379 C20,17.1682447 19.7762387,16.9448164 19.5005328,16.9448164 L19.5005328,16.9448164 Z M12.4990011,6.04171076 L15.2011188,7.20473529 L12.4890117,8.42261946 L9.7729089,7.20573273 L12.4990011,6.04171076 Z M12.9974694,12.6099067 L12.9894779,9.29139679 L15.9413292,7.96678566 L15.9413292,10.9242194 L12.9974694,12.6099067 Z M9.02770378,7.96479077 L11.9905434,9.29139679 L11.9985349,12.6109042 L9.02770378,10.9232219 L9.02770378,7.96479077 Z M8.28149973,11.6463718 L12.2532632,13.903597 C12.3291822,13.9464873 12.4150906,13.9684311 12.5,13.9684311 C12.5859084,13.9684311 12.6718167,13.9464873 12.7487347,13.9025995 L16.6905301,11.6463718 C16.8453649,11.557599 16.9402637,11.3920226 16.9402637,11.2134794 L16.9402637,7.19575825 C16.9402637,6.99626863 16.8213905,6.81573051 16.6395844,6.73792956 L12.697789,5.04127027 C12.5709243,4.98641063 12.4290757,4.98641063 12.3042088,5.04027283 L8.33144646,6.73693211 C8.14764251,6.81573051 8.02876931,6.99527118 8.02876931,7.19575825 L8.02876931,11.2134794 C8.02876931,11.39302 8.12466702,11.5585964 8.28149973,11.6463718 L8.28149973,11.6463718 Z" id="AWS-Organizations_Icon_16_Squid" fill="#FFFFFF"></path>
    </g>
</svg>