<?xml version="1.0" encoding="UTF-8"?>
<svg width="24px" height="24px" viewBox="0 0 24 24" version="1.1" xmlns="http://www.w3.org/2000/svg" xmlns:xlink="http://www.w3.org/1999/xlink">
    <!-- Generator: Sketch 64 (93537) - https://sketch.com -->
    <title>Icon-Architecture/16/Arch_AWS-Management-Console_16</title>
    <desc>Created with Sketch.</desc>
    <defs>
        <linearGradient x1="0%" y1="100%" x2="100%" y2="0%" id="linearGradient-1">
            <stop stop-color="#B0084D" offset="0%"></stop>
            <stop stop-color="#FF4F8B" offset="100%"></stop>
        </linearGradient>
    </defs>
    <g id="Icon-Architecture/16/Arch_AWS-Management-Console_16" stroke="none" stroke-width="1" fill="none" fill-rule="evenodd">
        <g id="Icon-Architecture-BG/16/Management-Governance" fill="url(#linearGradient-1)">
            <rect id="Rectangle" x="0" y="0" width="24" height="24"></rect>
        </g>
        <path d="M10,6.971 L11,6.971 L11,5.971 L10,5.971 L10,6.971 Z M8,6.971 L9,6.971 L9,5.971 L8,5.971 L8,6.971 Z M6,6.971 L7,6.971 L7,5.971 L6,5.971 L6,6.971 Z M5,8 L19,8 L19,5 L5,5 L5,8 Z M19.5,4 L4.5,4 C4.224,4 4,4.224 4,4.5 L4,8 L4,9 L4,19.5 C4,19.776 4.224,20 4.5,20 L14,20 L14,19 L5,19 L5,9 L19,9 L19,19 L18,19 L18,20 L19.5,20 C19.776,20 20,19.776 20,19.5 L20,4.5 C20,4.224 19.776,4 19.5,4 L19.5,4 Z M14.888,15.602 L13.919,15.408 C13.78,15.381 13.639,15.411 13.524,15.495 L13.027,15.859 C12.916,15.941 12.843,16.066 12.827,16.204 L12.712,17.18 L11.279,17.179 L11.167,16.211 C11.15,16.073 11.078,15.949 10.968,15.867 L10.464,15.494 C10.349,15.409 10.206,15.377 10.067,15.405 L9.108,15.598 L8.666,14.235 L9.567,13.822 C9.694,13.763 9.791,13.655 9.834,13.522 L10.022,12.942 C10.065,12.81 10.051,12.665 9.982,12.543 L9.499,11.681 L10.658,10.84 L11.322,11.562 C11.417,11.664 11.551,11.723 11.69,11.723 L11.693,11.723 L12.32,11.719 C12.459,11.718 12.591,11.66 12.686,11.558 L13.345,10.842 L14.503,11.685 L14.021,12.542 C13.952,12.664 13.938,12.807 13.979,12.939 L14.166,13.525 C14.209,13.66 14.306,13.77 14.434,13.829 L15.331,14.24 L14.888,15.602 Z M16.153,13.517 L15.052,13.012 L14.998,12.843 L15.592,11.787 C15.717,11.566 15.655,11.287 15.45,11.138 L13.572,9.771 C13.369,9.623 13.084,9.65 12.91,9.837 L12.097,10.72 L11.908,10.721 L11.093,9.835 C10.92,9.649 10.638,9.621 10.431,9.769 L8.551,11.132 C8.346,11.281 8.284,11.561 8.409,11.782 L9.004,12.841 L8.951,13.004 L7.845,13.511 C7.614,13.617 7.5,13.879 7.578,14.12 L8.294,16.33 C8.371,16.57 8.614,16.717 8.868,16.666 L10.047,16.429 L10.198,16.542 L10.337,17.736 C10.366,17.988 10.58,18.178 10.833,18.178 L13.155,18.181 L13.156,18.181 C13.41,18.181 13.623,17.991 13.652,17.739 L13.794,16.537 L13.938,16.432 L15.127,16.67 C15.378,16.722 15.622,16.575 15.701,16.334 L16.42,14.126 C16.498,13.885 16.384,13.623 16.153,13.517 L16.153,13.517 Z M12,14.609 C11.624,14.609 11.317,14.303 11.317,13.926 C11.317,13.55 11.624,13.244 12,13.244 C12.376,13.244 12.683,13.55 12.683,13.926 C12.683,14.303 12.376,14.609 12,14.609 L12,14.609 Z M12,12.244 C11.072,12.244 10.317,12.999 10.317,13.926 C10.317,14.854 11.072,15.609 12,15.609 C12.928,15.609 13.683,14.854 13.683,13.926 C13.683,12.999 12.928,12.244 12,12.244 L12,12.244 Z" id="AWS-Management-Console_Icon_16_Squid" fill="#FFFFFF"></path>
    </g>
</svg>