<?xml version="1.0" encoding="UTF-8"?>
<svg width="24px" height="24px" viewBox="0 0 24 24" version="1.1" xmlns="http://www.w3.org/2000/svg" xmlns:xlink="http://www.w3.org/1999/xlink">
    <!-- Generator: Sketch 64 (93537) - https://sketch.com -->
    <title>Icon-Architecture/16/Arch_AWS-Config_16</title>
    <desc>Created with Sketch.</desc>
    <defs>
        <linearGradient x1="0%" y1="100%" x2="100%" y2="0%" id="linearGradient-1">
            <stop stop-color="#B0084D" offset="0%"></stop>
            <stop stop-color="#FF4F8B" offset="100%"></stop>
        </linearGradient>
    </defs>
    <g id="Icon-Architecture/16/Arch_AWS-Config_16" stroke="none" stroke-width="1" fill="none" fill-rule="evenodd">
        <g id="Icon-Architecture-BG/16/Management-Governance" fill="url(#linearGradient-1)">
            <rect id="Rectangle" x="0" y="0" width="24" height="24"></rect>
        </g>
        <path d="M16.059,15.04 C16.011,14.777 15.781,14.592 15.522,14.592 C15.49,14.592 15.457,14.595 15.424,14.601 C15.281,14.627 15.156,14.707 15.073,14.827 C14.99,14.947 14.958,15.092 14.985,15.235 C15.038,15.532 15.323,15.736 15.62,15.675 C15.915,15.622 16.113,15.336 16.059,15.04 L16.059,15.04 Z M17.043,14.862 C17.195,15.701 16.636,16.507 15.798,16.659 C15.705,16.676 15.613,16.684 15.522,16.684 C14.789,16.684 14.136,16.16 14,15.414 C13.926,15.008 14.016,14.597 14.251,14.257 C14.487,13.918 14.84,13.69 15.247,13.617 C16.08,13.466 16.891,14.022 17.043,14.862 L17.043,14.862 Z M18.589,15.77 L18.586,14.473 L17.687,14.37 C17.548,14.354 17.421,14.281 17.339,14.167 L17.001,13.704 C16.919,13.591 16.888,13.449 16.915,13.312 L17.091,12.423 L15.856,12.024 L15.484,12.84 C15.425,12.968 15.315,13.066 15.18,13.109 L14.618,13.288 C14.488,13.33 14.342,13.315 14.222,13.248 L13.444,12.812 L12.683,13.864 L13.346,14.472 C13.449,14.566 13.507,14.698 13.508,14.837 L13.512,15.417 C13.513,15.558 13.455,15.692 13.352,15.788 L12.688,16.403 L13.454,17.451 L14.24,17.006 C14.315,16.963 14.4,16.941 14.486,16.941 C14.538,16.941 14.591,16.949 14.642,16.966 L15.193,17.146 C15.325,17.19 15.432,17.286 15.491,17.412 L15.869,18.23 L17.102,17.826 L16.924,16.953 C16.897,16.817 16.927,16.676 17.007,16.563 L17.35,16.082 C17.432,15.968 17.558,15.893 17.698,15.876 L18.589,15.77 Z M19.5900039,16.213 C19.591,16.466 19.402,16.68 19.15,16.71 L18.036,16.843 L17.948,16.967 L18.17,18.063 C18.22,18.312 18.077,18.559 17.835,18.638 L15.757,19.319 C15.706,19.336 15.654,19.344 15.602,19.344 C15.412,19.344 15.232,19.235 15.148,19.054 L14.674,18.029 L14.539,17.985 L13.558,18.54 C13.339,18.665 13.058,18.605 12.909,18.4 L11.619,16.634 C11.468,16.429 11.496,16.144 11.682,15.972 L12.51,15.204 L12.51,15.061 L11.679,14.3 C11.492,14.128 11.463,13.844 11.612,13.638 L12.894,11.866 C13.044,11.66 13.322,11.6 13.543,11.723 L14.521,12.269 L14.666,12.223 L15.131,11.204 C15.236,10.973 15.496,10.854 15.74,10.936 L17.821,11.608 C18.062,11.686 18.207,11.932 18.158,12.18 L17.939,13.291 L18.019,13.402 L19.142,13.53 C19.394,13.558 19.584,13.771 19.585,14.025 L19.5900039,16.213 Z M15.989,9.953 L15.989,7.984 L17,7.984 L17,6.984 L15.989,6.984 L15.989,5.953 L14.989,5.953 L14.989,6.984 L14.032,6.984 L14.032,7.984 L14.989,7.984 L14.989,9.953 L15.989,9.953 Z M12.049,11.953 L12.049,9.996 L13,9.996 L13,8.996 L12.049,8.996 L12.049,5.953 L11.049,5.953 L11.049,8.996 L10.032,8.996 L10.032,9.996 L11.049,9.996 L11.049,11.953 L12.049,11.953 Z M8.026,14.953 L8.026,8.91 L9,8.91 L9,7.91 L8.026,7.91 L8.026,5.953 L7.026,5.953 L7.026,7.91 L6.032,7.91 L6.032,8.91 L7.026,8.91 L7.026,14.953 L8.026,14.953 Z M5,15.984 L10,15.984 L10,16.984 L4.5,16.984 C4.224,16.984 4,16.761 4,16.484 L4,4.5 C4,4.224 4.224,4 4.5,4 L18.547,4 C18.824,4 19.047,4.224 19.047,4.5 L19.047,9.953 L18.047,9.953 L18.047,5 L5,5 L5,15.984 Z" id="AWS-Config_Icon_16_Squid" fill="#FFFFFF"></path>
    </g>
</svg>