<?xml version="1.0" encoding="UTF-8"?>
<svg width="24px" height="24px" viewBox="0 0 24 24" version="1.1" xmlns="http://www.w3.org/2000/svg" xmlns:xlink="http://www.w3.org/1999/xlink">
    <!-- Generator: Sketch 64 (93537) - https://sketch.com -->
    <title>Icon-Architecture/16/Arch_AWS-App-Wizard_16</title>
    <desc>Created with Sketch.</desc>
    <defs>
        <linearGradient x1="0%" y1="100%" x2="100%" y2="0%" id="linearGradient-1">
            <stop stop-color="#B0084D" offset="0%"></stop>
            <stop stop-color="#FF4F8B" offset="100%"></stop>
        </linearGradient>
    </defs>
    <g id="Icon-Architecture/16/Arch_AWS-App-Wizard_16" stroke="none" stroke-width="1" fill="none" fill-rule="evenodd">
        <g id="Icon-Architecture-BG/16/Management-Governance" fill="url(#linearGradient-1)">
            <rect id="Rectangle" x="0" y="0" width="24" height="24"></rect>
        </g>
        <path d="M4,7 L7,7 L7,6 L4,6 L4,7 Z M11,18 L14,18 L14,17 L11,17 L11,18 Z M7,10 L8,10 L8,11 L9,11 L9,10 L10,10 L10,9 L9,9 L9,8 L8,8 L8,9 L7,9 L7,10 Z M13.485,11.414 L12.778,10.707 L11.804,11.682 L12.511,12.389 L13.485,11.414 Z M11.803,13.096 L11.096,12.389 L5.707,17.778 L6.414,18.485 L11.803,13.096 Z M14.546,11.061 C14.741,11.256 14.741,11.572 14.546,11.768 L6.768,19.546 C6.67,19.644 6.542,19.692 6.414,19.692 C6.286,19.692 6.158,19.644 6.061,19.546 L4.646,18.132 C4.451,17.937 4.451,17.62 4.646,17.425 L12.425,9.646 C12.62,9.451 12.937,9.451 13.132,9.646 L14.546,11.061 Z M17,12 L19,12 L19,10 L17,10 L17,12 Z M20,9.5 L20,12.5 C20,12.776 19.776,13 19.5,13 L16.5,13 C16.224,13 16,12.776 16,12.5 L16,9.5 C16,9.224 16.224,9 16.5,9 L19.5,9 C19.776,9 20,9.224 20,9.5 L20,9.5 Z M12,7 L14,7 L14,5 L12,5 L12,7 Z M15,7.5 C15,7.776 14.776,8 14.5,8 L11.5,8 C11.224,8 11,7.776 11,7.5 L11,4.5 C11,4.224 11.224,4 11.5,4 L14.5,4 C14.776,4 15,4.224 15,4.5 L15,7.5 Z M17,7 L19,7 L19,5 L17,5 L17,7 Z M20,4.5 L20,7.5 C20,7.776 19.776,8 19.5,8 L16.5,8 C16.224,8 16,7.776 16,7.5 L16,4.5 C16,4.224 16.224,4 16.5,4 L19.5,4 C19.776,4 20,4.224 20,4.5 L20,4.5 Z M8,7 L10,7 L10,6 L8,6 L8,7 Z M18,17 L20,17 L20,18 L18,18 L18,20 L17,20 L17,18 L15,18 L15,17 L17,17 L17,15 L18,15 L18,17 Z" id="AWS-App-Wizard_Icon_16_Squid" fill="#FFFFFF"></path>
    </g>
</svg>