<?xml version="1.0" encoding="UTF-8"?>
<svg width="24px" height="24px" viewBox="0 0 24 24" version="1.1" xmlns="http://www.w3.org/2000/svg" xmlns:xlink="http://www.w3.org/1999/xlink">
    <!-- Generator: Sketch 64 (93537) - https://sketch.com -->
    <title>Icon-Architecture/16/Arch_AWS-Control-Tower_16</title>
    <desc>Created with Sketch.</desc>
    <defs>
        <linearGradient x1="0%" y1="100%" x2="100%" y2="0%" id="linearGradient-1">
            <stop stop-color="#B0084D" offset="0%"></stop>
            <stop stop-color="#FF4F8B" offset="100%"></stop>
        </linearGradient>
    </defs>
    <g id="Icon-Architecture/16/Arch_AWS-Control-Tower_16" stroke="none" stroke-width="1" fill="none" fill-rule="evenodd">
        <g id="Icon-Architecture-BG/16/Management-Governance" fill="url(#linearGradient-1)">
            <rect id="Rectangle" x="0" y="0" width="24" height="24"></rect>
        </g>
        <path d="M13.8198606,14.0060561 C13.549911,14.2782056 13.221151,14.450243 12.8750371,14.5348037 L12.874073,13.0535327 L14.3452981,13.0535327 C14.2604568,13.4014953 14.0898101,13.7339065 13.8198606,14.0060561 L13.8198606,14.0060561 Z M10.966108,14.0060561 C10.6961584,13.7339065 10.5264758,13.4014953 10.4406704,13.0535327 L11.9099674,13.0535327 L11.9109315,14.5348037 C11.5648176,14.450243 11.2350934,14.2782056 10.966108,14.0060561 L10.966108,14.0060561 Z M10.966108,11.1290467 C11.2341293,10.8578692 11.5628894,10.6868037 11.9080392,10.601271 L11.9090033,12.0815701 L10.4416345,12.0815701 C10.5264758,11.7326355 10.6961584,11.4002243 10.966108,11.1290467 L10.966108,11.1290467 Z M13.8198606,11.1290467 C14.088846,11.4002243 14.2594927,11.7326355 14.3452981,12.0815701 L12.8731089,12.0815701 L12.8721448,10.5993271 C13.2182587,10.6838879 13.5489469,10.8559252 13.8198606,11.1290467 L13.8198606,11.1290467 Z M16.5858796,10.2358131 L15.9196826,10.9375701 L17.1026402,12.0815701 L15.3267576,12.0815701 C15.2303471,11.4808972 14.9603975,10.9035514 14.5014832,10.4418692 C14.0551023,9.9908785 13.476639,9.72650467 12.8711807,9.63319626 L12.8692524,7.82242991 L14.0811332,8.99364486 L14.7482943,8.29188785 L12.3746663,6 L10.1389054,8.30257944 L10.8272768,8.98295327 L11.9051468,7.87394393 L11.9070751,9.63416822 C11.304509,9.7284486 10.7279739,9.99282243 10.2844853,10.4418692 C9.83714031,10.8918879 9.55754969,11.4634019 9.45824681,12.0815701 L7.7546722,12.0815701 L8.81808069,10.915215 L8.10753486,10.2581682 L6,12.5694953 L8.10946307,14.8516636 L8.81615248,14.188785 L7.76624147,13.0535327 L9.45824681,13.0535327 C9.55754969,13.670729 9.83714031,14.242243 10.2844853,14.6932336 C10.7318303,15.1442243 11.2987244,15.4260935 11.9118956,15.5262056 L11.9128597,17.1843738 L10.8185998,16.114243 L10.1475823,16.8130841 L12.3881637,19 L14.7405814,16.8218318 L14.088846,16.1064673 L12.8769653,17.2271402 L12.8760012,15.5262056 C13.4872441,15.4260935 14.0541382,15.1442243 14.5014832,14.6932336 C14.9603975,14.2305794 15.2303471,13.6542056 15.3267576,13.0535327 L17.0910709,13.0535327 L15.9216108,14.1674019 L16.5839513,14.8730467 L19,12.5694953 L16.5858796,10.2358131 Z" id="AWS-Control-Tower_Icon_16_Squid" fill="#FFFFFF"></path>
    </g>
</svg>