<svg id="Artwork" xmlns="http://www.w3.org/2000/svg" viewBox="0 0 24 24" width="24px" height="24px"><path d="M11.26,6.86l-3.39-2a.75.75,0,1,1,.78-1.28l3.36,2Z" style="fill:#aecbfa;fill-rule:evenodd"/><path d="M11.52,10.31,4.69,6.36a.75.75,0,0,1,.75-1.3l6.08,3.52Z" style="fill:#aecbfa;fill-rule:evenodd"/><path d="M19.6,5.33a.76.76,0,0,0-1-.27L12.75,8.4V6.85l3.39-2a.74.74,0,0,0,.25-1,.75.75,0,0,0-1-.25L11.65,5.78a.79.79,0,0,0-.39.68V21a.75.75,0,1,0,1.49,0V10.14l6.57-3.78A.76.76,0,0,0,19.6,5.33Z" style="fill:#669df6;fill-rule:evenodd"/><circle cx="12.01" cy="3.09" r="0.84" style="fill:#669df6"/><path d="M9.48,10.82a.73.73,0,0,1,.38.64v4.08a.74.74,0,0,1-.38.65.79.79,0,0,1-.37.1.86.86,0,0,1-.38-.1L4.41,13.7a.75.75,0,1,1,.75-1.3l3.2,1.84V11.9l-1.45-.83a.75.75,0,0,1-.27-1,.74.74,0,0,1,1-.27Z" style="fill:#aecbfa"/><circle cx="5.26" cy="9.26" r="0.84" style="fill:#aecbfa"/><path d="M16.34,9.77a.74.74,0,0,1,1,.27.75.75,0,0,1-.27,1l-1.45.83v2.34l3.2-1.84a.75.75,0,1,1,.75,1.3l-4.32,2.49a.86.86,0,0,1-.38.1.79.79,0,0,1-.37-.1.74.74,0,0,1-.38-.65V11.46a.73.73,0,0,1,.38-.64Z" style="fill:#4285f4"/><circle cx="18.74" cy="9.26" r="0.84" style="fill:#4285f4"/></svg>