<svg xmlns="http://www.w3.org/2000/svg" width="24px" height="24px" viewBox="0 0 24 24"><defs><style>.cls-1{fill:#669df6;}.cls-1,.cls-2{fill-rule:evenodd;}.cls-2{fill:#4285f4;}</style></defs><title>Icon_24px_CICP_Color</title><g data-name="Product Icons"><g ><path class="cls-1" d="M3.33,7,12,2l8.66,5v9.72L17.33,14H6.67L3.33,16.67ZM16,8.67a4,4,0,1,0-4,4A4,4,0,0,0,16,8.67Zm-1.33,0A2.67,2.67,0,1,1,12,6,2.67,2.67,0,0,1,14.67,8.67Z"/><path class="cls-2" d="M12,12.67a4,4,0,0,0,0-8V2l8.66,5v9.72L17.33,14H12Zm2.67-4A2.67,2.67,0,0,1,12,11.31V6A2.67,2.67,0,0,1,14.67,8.66Z"/><polygon class="cls-1" points="4 18 12 22 20 18 16.67 15.33 7.33 15.33 4 18"/><polygon class="cls-2" points="12 22 20 18 16.67 15.33 12 15.33 12 22"/></g></g></svg>