<?xml version="1.0" encoding="UTF-8"?>
<svg width="40px" height="40px" viewBox="0 0 40 40" version="1.1" xmlns="http://www.w3.org/2000/svg" xmlns:xlink="http://www.w3.org/1999/xlink">
    <title>Icon-Architecture/32/Arch_AWS-WAF_32</title>
    <defs>
        <linearGradient x1="0%" y1="100%" x2="100%" y2="0%" id="linearGradient-1">
            <stop stop-color="#BD0816" offset="0%"></stop>
            <stop stop-color="#FF5252" offset="100%"></stop>
        </linearGradient>
    </defs>
    <g id="Icon-Architecture/32/Arch_AWS-WAF_32" stroke="none" stroke-width="1" fill="none" fill-rule="evenodd">
        <g id="Rectangle" fill="url(#linearGradient-1)">
            <rect x="0" y="0" width="40" height="40"></rect>
        </g>
        <g id="Icon-Service/32/AWS-WAF_32" transform="translate(4.000000, 4.000000)" fill="#FFFFFF">
            <path d="M4.138,17 L3,17 L3,16 L4.139,16 C4.24,13.564 5.031,11.246 6.461,9.27 L7.272,9.855 C5.965,11.661 5.239,13.776 5.139,16 L7,16 L7,17 L5.138,17 C5.231,19.237 5.958,21.365 7.272,23.18 L6.461,23.766 C5.024,21.78 4.232,19.449 4.138,17 L4.138,17 Z M23.747,26.556 C21.768,27.99 19.443,28.782 17,28.878 L17,30 L16,30 L16,28.879 C13.558,28.782 11.233,27.991 9.251,26.557 L9.837,25.746 C11.648,27.056 13.77,27.783 16,27.879 L16,26 L17,26 L17,27.878 C19.231,27.783 21.353,27.056 23.161,25.747 L23.747,26.556 Z M9.251,6.479 C11.233,5.045 13.558,4.253 16,4.157 L16,3 L17,3 L17,4.157 C19.443,4.254 21.768,5.045 23.747,6.479 L23.161,7.289 C21.353,5.98 19.231,5.253 17,5.157 L17,7 L16,7 L16,5.157 C13.77,5.253 11.648,5.979 9.837,7.29 L9.251,6.479 Z M30,16 L30,17 L28.861,17 C28.768,19.45 27.975,21.781 26.538,23.766 L25.728,23.18 C27.041,21.366 27.768,19.237 27.861,17 L26,17 L26,16 L27.86,16 C27.76,13.775 27.034,11.66 25.728,9.855 L26.538,9.27 C27.968,11.245 28.76,13.563 28.86,16 L30,16 Z M23.706,8.604 L27.486,4.824 L28.193,5.531 L24.413,9.312 L23.706,8.604 Z M9.293,24.431 L5.513,28.211 L4.806,27.504 L8.586,23.724 L9.293,24.431 Z M10.341,11.048 L3.186,3.894 L3.893,3.187 L11.048,10.341 L10.341,11.048 Z M23.356,22.649 L29.813,29.106 L29.106,29.813 L22.649,23.356 L23.356,22.649 Z M11.941,17.364 C11.983,17.29 12.028,17.216 12.074,17.144 C13.001,15.685 12.699,13.676 12.403,12.519 C13.22,13.004 13.956,14.11 14.224,14.607 C14.319,14.781 14.49,14.893 14.703,14.868 C14.901,14.853 15.071,14.723 15.136,14.536 C15.966,12.178 15.498,10.429 14.904,9.327 C15.657,9.733 16.237,10.339 16.614,11.123 C17.385,12.726 17.214,14.917 16.167,16.841 C14.727,19.491 15.046,22.272 15.375,23.721 C14.532,23.362 13.783,22.955 13.139,22.506 C11.485,21.354 10.958,19.095 11.941,17.364 L11.941,17.364 Z M19.279,17.207 C19.246,17.411 19.343,17.614 19.522,17.718 C19.7,17.821 19.924,17.806 20.086,17.675 C20.13,17.64 21.035,16.892 21.452,15.072 C21.991,15.806 22.597,17.343 21.849,20.24 C21.123,23.054 17.659,23.821 16.482,24.002 C16.194,22.977 15.576,20.022 17.046,17.319 C18.108,15.367 18.365,13.152 17.779,11.359 C18.816,12.507 19.736,14.36 19.279,17.207 L19.279,17.207 Z M11.072,16.87 C9.836,19.046 10.493,21.882 12.567,23.327 C13.509,23.984 14.652,24.555 15.962,25.024 C16.018,25.043 16.075,25.053 16.131,25.053 C16.141,25.053 16.151,25.048 16.16,25.047 L16.16,25.052 C16.389,25.034 21.765,24.567 22.818,20.49 C24.172,15.241 21.469,13.689 21.353,13.625 C21.206,13.544 21.029,13.543 20.88,13.621 C20.733,13.699 20.633,13.846 20.616,14.012 C20.567,14.474 20.483,14.874 20.381,15.215 C20.111,10.909 16.707,9.179 16.056,8.887 C15.379,8.368 14.557,8.012 13.602,7.842 C13.387,7.803 13.159,7.918 13.063,8.124 C12.967,8.328 13.022,8.573 13.195,8.719 C13.278,8.788 15.016,10.293 14.477,13.157 C13.86,12.327 12.846,11.283 11.652,11.283 C11.487,11.283 11.332,11.365 11.24,11.5 C11.146,11.637 11.126,11.81 11.186,11.964 C11.197,11.993 12.306,14.916 11.23,16.607 C11.174,16.694 11.121,16.781 11.072,16.87 L11.072,16.87 Z" id="AWS-WAF_Icon_32_Squid"></path>
        </g>
    </g>
</svg>