<?xml version="1.0" encoding="UTF-8"?>
<svg width="40px" height="40px" viewBox="0 0 40 40" version="1.1" xmlns="http://www.w3.org/2000/svg" xmlns:xlink="http://www.w3.org/1999/xlink">
    <title>Icon-Architecture/32/Arch_Amazon-Cloud-Directory_32</title>
    <defs>
        <linearGradient x1="0%" y1="100%" x2="100%" y2="0%" id="linearGradient-1">
            <stop stop-color="#BD0816" offset="0%"></stop>
            <stop stop-color="#FF5252" offset="100%"></stop>
        </linearGradient>
    </defs>
    <g id="Icon-Architecture/32/Arch_Amazon-Cloud-Directory_32" stroke="none" stroke-width="1" fill="none" fill-rule="evenodd">
        <g id="Rectangle" fill="url(#linearGradient-1)">
            <rect x="0" y="0" width="40" height="40"></rect>
        </g>
        <g id="Icon-Service/32/Amazon-Cloud-Directory_32" transform="translate(4.000000, 4.000000)" fill="#FFFFFF">
            <path d="M21.485,24.053 C20.933,24.053 20.485,23.604 20.485,23.053 C20.485,22.502 20.933,22.053 21.485,22.053 C22.037,22.053 22.485,22.502 22.485,23.053 C22.485,23.604 22.037,24.053 21.485,24.053 L21.485,24.053 Z M17.004,23.053 C17.004,23.604 16.555,24.053 16.005,24.053 C15.454,24.053 15.006,23.604 15.006,23.053 C15.006,22.502 15.454,22.053 16.005,22.053 C16.555,22.053 17.004,22.502 17.004,23.053 L17.004,23.053 Z M11.506,23.053 C11.506,23.604 11.057,24.053 10.506,24.053 C9.954,24.053 9.506,23.604 9.506,23.053 C9.506,22.502 9.954,22.053 10.506,22.053 C11.057,22.053 11.506,22.502 11.506,23.053 L11.506,23.053 Z M14.006,14.053 C14.006,12.95 14.903,12.053 16.006,12.053 C17.108,12.053 18.006,12.95 18.006,14.053 C18.006,15.156 17.108,16.053 16.006,16.053 C14.903,16.053 14.006,15.156 14.006,14.053 L14.006,14.053 Z M21.985,21.124 L21.985,18.553 C21.985,18.277 21.761,18.053 21.485,18.053 L16.506,18.053 L16.506,17.002 C17.922,16.763 19.006,15.536 19.006,14.053 C19.006,12.399 17.66,11.053 16.006,11.053 C14.351,11.053 13.006,12.399 13.006,14.053 C13.006,15.536 14.089,16.763 15.506,17.002 L15.506,18.053 L10.506,18.053 C10.229,18.053 10.006,18.277 10.006,18.553 L10.006,21.124 C9.145,21.347 8.506,22.124 8.506,23.053 C8.506,24.156 9.403,25.053 10.506,25.053 C11.608,25.053 12.506,24.156 12.506,23.053 C12.506,22.124 11.866,21.347 11.006,21.124 L11.006,19.053 L15.506,19.053 L15.506,21.124 C14.645,21.347 14.006,22.123 14.006,23.053 C14.006,24.156 14.902,25.053 16.005,25.053 C17.107,25.053 18.004,24.156 18.004,23.053 C18.004,22.124 17.365,21.348 16.506,21.124 L16.506,19.053 L20.985,19.053 L20.985,21.124 C20.125,21.347 19.485,22.124 19.485,23.053 C19.485,24.156 20.382,25.053 21.485,25.053 C22.588,25.053 23.485,24.156 23.485,23.053 C23.485,22.124 22.845,21.347 21.985,21.124 L21.985,21.124 Z M16.006,28.053 C10.933,28.053 7,26.444 7,25.06 L7,6.607 C9.031,7.948 13.693,8.13 16.006,8.13 C18.316,8.13 22.971,7.949 25.006,6.611 L25.006,25.06 C25.006,26.444 21.074,28.053 16.006,28.053 L16.006,28.053 Z M16.006,3 C21.849,3 25.003,4.065 25.003,5.067 C25.003,6.067 21.849,7.13 16.006,7.13 C10.162,7.13 7.008,6.067 7.008,5.067 C7.008,4.065 10.162,3 16.006,3 L16.006,3 Z M26.006,5.053 C25.981,2.299 19.006,2 16.006,2 C13.006,2 6.025,2.299 6,5.053 L6,25.06 C6,27.526 11.193,29.053 16.006,29.053 C20.815,29.053 26.006,27.526 26.006,25.06 L26.006,5.053 Z" id="Amazon-Cloud-Directory_Icon_32_Squid"></path>
        </g>
    </g>
</svg>