<?xml version="1.0" encoding="UTF-8"?>
<svg width="40px" height="40px" viewBox="0 0 40 40" version="1.1" xmlns="http://www.w3.org/2000/svg" xmlns:xlink="http://www.w3.org/1999/xlink">
    <title>Icon-Architecture/32/Arch_AWS-Network-Firewall_32</title>
    <defs>
        <linearGradient x1="0%" y1="100%" x2="100%" y2="0%" id="linearGradient-1">
            <stop stop-color="#BD0816" offset="0%"></stop>
            <stop stop-color="#FF5252" offset="100%"></stop>
        </linearGradient>
    </defs>
    <g id="Icon-Architecture/32/Arch_AWS-Network-Firewall_32" stroke="none" stroke-width="1" fill="none" fill-rule="evenodd">
        <g id="Rectangle" fill="url(#linearGradient-1)">
            <rect x="0" y="0" width="40" height="40"></rect>
        </g>
        <g id="Icon-Service/32/AWS-Network-Firewall_32" transform="translate(4.000000, 4.000000)" fill="#FFFFFF">
            <path d="M29.007,25.006 L24.007,25.006 L23.007,25.006 L22.007,25.006 L22.007,22.006 L27.507,22.006 L29.007,22.006 L29.007,25.006 Z M23.007,29.006 L17.007,29.006 L17.007,26.006 L21.007,26.006 L21.507,26.006 L23.007,26.006 L23.007,29.006 Z M12.75,27.266 C10.659,27.266 8.738,26.211 7.613,24.443 C6.717,23.033 6.701,21.213 7.603,19.641 C8.652,18.048 8.275,15.834 7.939,14.614 C8.903,15.107 9.777,16.369 10.086,16.925 C10.181,17.096 10.353,17.198 10.564,17.181 C10.758,17.166 10.927,17.038 10.993,16.854 C11.96,14.199 11.303,12.243 10.593,11.078 C12.663,11.777 16.253,13.678 16.253,18.457 C16.253,18.593 16.309,18.723 16.407,18.818 C16.506,18.912 16.634,18.965 16.775,18.956 C17.365,18.931 18.426,18.483 18.935,17.07 C18.979,17.203 19.007,17.349 19.007,17.506 L19.007,21.006 L13.507,21.006 C13.231,21.006 13.007,21.23 13.007,21.506 L13.007,25.506 C13.007,25.782 13.231,26.006 13.507,26.006 L16.007,26.006 L16.007,26.39 C15.152,26.951 14.008,27.266 12.75,27.266 L12.75,27.266 Z M5.059,18.657 C4.083,18.011 2.92,16.783 2.92,14.598 C2.92,11.61 4.999,10.63 6.238,10.311 C6.471,10.252 6.628,10.036 6.613,9.797 L6.564,8.976 C6.564,6.646 8.299,2.95 12.955,2.95 C14.851,2.95 16.354,3.495 17.421,4.569 C18.184,5.335 18.777,6.314 19.188,7.478 C19.249,7.653 19.402,7.779 19.585,7.807 C19.772,7.833 19.952,7.758 20.062,7.609 C20.682,6.767 21.752,6.415 22.721,6.734 C23.819,7.094 24.447,8.171 24.444,9.67 C24.406,9.938 24.588,10.187 24.855,10.233 C27.649,10.714 29.007,12.06 29.007,14.346 C29.007,15.668 28.666,16.679 27.991,17.43 C27.954,17.192 27.756,17.006 27.507,17.006 L19.948,17.006 C19.742,16.069 19.027,15.507 18.992,15.48 C18.849,15.37 18.659,15.345 18.49,15.418 C18.324,15.489 18.21,15.645 18.192,15.825 C18.068,17.006 17.603,17.533 17.23,17.769 C16.765,10.939 9.402,9.733 9.324,9.721 C9.101,9.687 8.884,9.807 8.793,10.014 C8.701,10.22 8.761,10.463 8.936,10.605 C9.029,10.681 11.022,12.345 10.345,15.509 C9.675,14.618 8.521,13.411 7.185,13.411 C7.019,13.411 6.863,13.494 6.771,13.631 C6.678,13.769 6.659,13.943 6.721,14.097 C6.734,14.129 7.922,17.165 6.814,19.006 L6.25,19.006 C5.816,19.006 5.403,18.885 5.059,18.657 L5.059,18.657 Z M21.507,21.006 L20.007,21.006 L20.007,18.006 L27.007,18.006 L27.007,21.006 L22.007,21.006 L21.507,21.006 Z M21.007,25.006 L14.007,25.006 L14.007,22.006 L19.507,22.006 L21.007,22.006 L21.007,25.006 Z M29.507,21.006 L28.007,21.006 L28.007,18.765 C29.331,17.802 30.007,16.319 30.007,14.346 C30.007,12.478 29.201,10.125 25.437,9.327 C25.332,7.561 24.45,6.25 23.033,5.784 C21.921,5.418 20.72,5.667 19.836,6.402 C19.4,5.416 18.828,4.565 18.13,3.863 C16.868,2.594 15.127,1.95 12.955,1.95 C7.857,1.95 5.564,6.059 5.565,9.006 L5.592,9.459 C4.24,9.903 1.92,11.167 1.92,14.598 C1.92,17.366 3.54,18.852 4.507,19.491 C5.016,19.828 5.619,20.006 6.25,20.006 L6.325,20.006 C5.684,21.662 5.829,23.501 6.77,24.98 C8.079,27.037 10.316,28.266 12.75,28.266 C13.953,28.266 15.075,28.006 16.007,27.54 L16.007,29.506 C16.007,29.782 16.231,30.006 16.507,30.006 L23.507,30.006 C23.783,30.006 24.007,29.782 24.007,29.506 L24.007,26.006 L29.507,26.006 C29.783,26.006 30.007,25.782 30.007,25.506 L30.007,21.506 C30.007,21.23 29.783,21.006 29.507,21.006 L29.507,21.006 Z" id="Fill-5"></path>
        </g>
    </g>
</svg>