<?xml version="1.0" encoding="UTF-8"?>
<svg width="40px" height="40px" viewBox="0 0 40 40" version="1.1" xmlns="http://www.w3.org/2000/svg" xmlns:xlink="http://www.w3.org/1999/xlink">
    <!-- Generator: Sketch 64 (93537) - https://sketch.com -->
    <title>Icon-Architecture/32/Arch_AWS-Security-Hub_32</title>
    <desc>Created with Sketch.</desc>
    <defs>
        <linearGradient x1="0%" y1="100%" x2="100%" y2="0%" id="linearGradient-1">
            <stop stop-color="#BD0816" offset="0%"></stop>
            <stop stop-color="#FF5252" offset="100%"></stop>
        </linearGradient>
    </defs>
    <g id="Icon-Architecture/32/Arch_AWS-Security-Hub_32" stroke="none" stroke-width="1" fill="none" fill-rule="evenodd">
        <g id="Icon-Architecture-BG/32/Security-Identity-Compliance" fill="url(#linearGradient-1)">
            <rect id="Rectangle" x="0" y="0" width="40" height="40"></rect>
        </g>
        <path d="M22.034,20.429 C22.034,20.515 22,22.337 20.527,22.687 L20.527,17.189 L22.034,17.842 L22.034,20.429 Z M18.02,20.421 L18.02,17.842 L19.527,17.189 L19.527,22.689 C18.092,22.354 18.021,20.637 18.02,20.421 L18.02,20.421 Z M22.733,17.054 L20.226,15.969 C20.099,15.914 19.955,15.914 19.828,15.969 L17.321,17.054 C17.138,17.134 17.02,17.314 17.02,17.513 L17.02,20.421 C17.02,21.576 17.649,23.76 20.027,23.76 C22.405,23.76 23.034,21.581 23.034,20.429 L23.034,17.513 C23.034,17.314 22.916,17.134 22.733,17.054 L22.733,17.054 Z M29.39,26.846 C28.508,26.846 27.79,26.128 27.79,25.245 C27.79,24.362 28.508,23.644 29.39,23.644 C30.273,23.644 30.991,24.362 30.991,25.245 C30.991,26.128 30.273,26.846 29.39,26.846 L29.39,26.846 Z M20.075,24.745 C17.327,24.745 15.092,22.51 15.092,19.762 C15.092,17.013 17.327,14.778 20.075,14.778 C22.823,14.778 25.059,17.013 25.059,19.762 C25.059,22.51 22.823,24.745 20.075,24.745 L20.075,24.745 Z M21.628,30.803 C21.628,31.685 20.91,32.404 20.027,32.404 C19.144,32.404 18.427,31.685 18.427,30.803 C18.427,29.92 19.144,29.202 20.027,29.202 C20.91,29.202 21.628,29.92 21.628,30.803 L21.628,30.803 Z M18.427,8.601 C18.427,7.719 19.144,7 20.027,7 C20.91,7 21.628,7.719 21.628,8.601 C21.628,9.484 20.91,10.202 20.027,10.202 C19.144,10.202 18.427,9.484 18.427,8.601 L18.427,8.601 Z M10.6,26.24 C9.718,26.24 9,25.522 9,24.639 C9,23.757 9.718,23.038 10.6,23.038 C11.483,23.038 12.201,23.757 12.201,24.639 C12.201,25.522 11.483,26.24 10.6,26.24 L10.6,26.24 Z M11.008,15.611 C10.125,15.611 9.407,14.893 9.407,14.01 C9.407,13.127 10.125,12.409 11.008,12.409 C11.89,12.409 12.609,13.127 12.609,14.01 C12.609,14.893 11.89,15.611 11.008,15.611 L11.008,15.611 Z M29.454,12.154 C30.337,12.154 31.055,12.871 31.055,13.754 C31.055,14.637 30.337,15.355 29.454,15.355 C28.571,15.355 27.853,14.637 27.853,13.754 C27.853,12.871 28.571,12.154 29.454,12.154 L29.454,12.154 Z M29.39,22.644 C28.672,22.644 28.02,22.938 27.549,23.411 L25.58,22.106 C25.888,21.386 26.059,20.594 26.059,19.762 C26.059,18.673 25.763,17.655 25.253,16.774 L27.506,15.459 C27.983,16.004 28.676,16.355 29.454,16.355 C30.888,16.355 32.055,15.188 32.055,13.754 C32.055,12.32 30.888,11.154 29.454,11.154 C28.02,11.154 26.853,12.32 26.853,13.754 C26.853,14.05 26.914,14.329 27.005,14.595 L24.683,15.949 C23.676,14.733 22.195,13.926 20.527,13.801 L20.527,11.151 C21.722,10.917 22.628,9.864 22.628,8.601 C22.628,7.167 21.461,6 20.027,6 C18.594,6 17.427,7.167 17.427,8.601 C17.427,9.864 18.332,10.917 19.527,11.151 L19.527,13.805 C17.782,13.965 16.256,14.878 15.267,16.215 L13.41,15.004 C13.537,14.697 13.609,14.362 13.609,14.01 C13.609,12.576 12.442,11.409 11.008,11.409 C9.574,11.409 8.407,12.576 8.407,14.01 C8.407,15.444 9.574,16.611 11.008,16.611 C11.73,16.611 12.384,16.314 12.855,15.837 L14.741,17.066 C14.329,17.877 14.092,18.791 14.092,19.762 C14.092,20.501 14.232,21.206 14.478,21.86 L12.561,22.95 C12.084,22.397 11.387,22.038 10.6,22.038 C9.167,22.038 8,23.205 8,24.639 C8,26.074 9.167,27.24 10.6,27.24 C12.034,27.24 13.201,26.074 13.201,24.639 C13.201,24.351 13.142,24.079 13.056,23.82 L14.909,22.765 C15.86,24.395 17.555,25.537 19.527,25.717 L19.527,28.253 C18.332,28.487 17.427,29.54 17.427,30.803 C17.427,32.237 18.594,33.404 20.027,33.404 C21.461,33.404 22.628,32.237 22.628,30.803 C22.628,29.54 21.722,28.487 20.527,28.253 L20.527,25.722 C22.448,25.577 24.116,24.526 25.104,22.992 L26.992,24.242 C26.862,24.551 26.79,24.889 26.79,25.245 C26.79,26.679 27.957,27.846 29.39,27.846 C30.824,27.846 31.991,26.679 31.991,25.245 C31.991,23.811 30.824,22.644 29.39,22.644 L29.39,22.644 Z" id="AWS-Security-Hub_Icon_32_Squid" fill="#FFFFFF"></path>
    </g>
</svg>