<?xml version="1.0" encoding="UTF-8"?>
<svg width="40px" height="40px" viewBox="0 0 40 40" version="1.1" xmlns="http://www.w3.org/2000/svg" xmlns:xlink="http://www.w3.org/1999/xlink">
    <!-- Generator: Sketch 64 (93537) - https://sketch.com -->
    <title>Icon-Architecture/32/Arch_AWS-Single-Sign-On_32</title>
    <desc>Created with Sketch.</desc>
    <defs>
        <linearGradient x1="0%" y1="100%" x2="100%" y2="0%" id="linearGradient-1">
            <stop stop-color="#BD0816" offset="0%"></stop>
            <stop stop-color="#FF5252" offset="100%"></stop>
        </linearGradient>
    </defs>
    <g id="Icon-Architecture/32/Arch_AWS-Single-Sign-On_32" stroke="none" stroke-width="1" fill="none" fill-rule="evenodd">
        <g id="Icon-Architecture-BG/32/Security-Identity-Compliance" fill="url(#linearGradient-1)">
            <rect id="Rectangle" x="0" y="0" width="40" height="40"></rect>
        </g>
        <path d="M33.131,31.9553118 L26.133,24.9573118 C25.98,24.8043118 25.943,24.5693118 26.041,24.3763118 C26.986,22.5273118 26.671,20.1043118 25.309,18.7423118 C24.29,17.7243118 22.885,17.2373118 21.454,17.4123118 C20.022,17.5853118 18.758,18.4133118 17.988,19.6823118 C17.086,21.1723118 17.126,23.0823118 18.091,24.5503118 C19.445,26.6103118 22.068,27.3313118 24.185,26.2313118 C24.38,26.1313118 24.615,26.1673118 24.769,26.3223118 L25.963,27.5163118 C26.066,27.6193118 26.118,27.7603118 26.109,27.9053118 L26.02,29.1643118 L27.4,29.1613118 L27.401,29.1613118 C27.533,29.1613118 27.66,29.2143118 27.754,29.3083118 L28.352,29.9053118 C28.444,29.9973118 28.496,30.1223118 28.498,30.2523118 L28.515,31.6583118 L29.746,31.5523118 C29.895,31.5403118 30.038,31.5923118 30.143,31.6963118 L31.24,32.7933118 L33.001,33.2433118 L33.131,31.9553118 Z M34.15,31.8203118 L33.937,33.9213118 C33.922,34.0663118 33.845,34.1973118 33.726,34.2803118 C33.641,34.3403118 33.541,34.3713118 33.44,34.3713118 C33.399,34.3713118 33.357,34.3663118 33.316,34.3553118 L30.86,33.7283118 C30.773,33.7063118 30.693,33.6613118 30.63,33.5983118 L29.601,32.5683118 L28.064,32.7013118 C27.923,32.7133118 27.788,32.6663118 27.685,32.5733118 C27.582,32.4793118 27.523,32.3483118 27.521,32.2083118 L27.5,30.4683118 L27.194,30.1623118 L25.485,30.1663118 L25.484,30.1663118 C25.345,30.1663118 25.213,30.1083118 25.118,30.0073118 C25.024,29.9063118 24.975,29.7693118 24.985,29.6313118 L25.095,28.0623118 L24.312,27.2793118 C21.797,28.3793118 18.821,27.4813118 17.255,25.1003118 C16.079,23.3113118 16.031,20.9813118 17.133,19.1633118 C18.064,17.6303118 19.595,16.6293118 21.334,16.4193118 C23.071,16.2093118 24.778,16.7983118 26.016,18.0353118 C27.816,19.8353118 27.914,22.5703118 27.088,24.4983118 L34.006,31.4163118 C34.112,31.5223118 34.165,31.6703118 34.15,31.8203118 L34.15,31.8203118 Z M22.737,21.2083118 C22.53,21.0013118 22.255,20.8883118 21.963,20.8883118 C21.671,20.8883118 21.396,21.0013118 21.189,21.2083118 C20.762,21.6363118 20.762,22.3303118 21.189,22.7583118 C21.603,23.1723118 22.323,23.1723118 22.737,22.7583118 C23.164,22.3303118 23.164,21.6363118 22.737,21.2083118 L22.737,21.2083118 Z M23.444,20.5013118 C24.261,21.3183118 24.261,22.6483118 23.444,23.4653118 C23.036,23.8733118 22.499,24.0783118 21.963,24.0783118 C21.427,24.0783118 20.89,23.8733118 20.482,23.4653118 C19.665,22.6483118 19.665,21.3183118 20.482,20.5013118 C21.298,19.6853118 22.628,19.6843118 23.444,20.5013118 L23.444,20.5013118 Z M9.662,13.3123118 C9.662,13.5753118 9.678,13.8323118 9.709,14.0903118 C9.712,14.1113118 9.713,14.1323118 9.713,14.1533118 C9.713,14.4043118 9.527,14.6143118 9.286,14.6503118 C8.035,14.9813118 6,15.9683118 6,18.8823118 C6,18.9893118 6.006,19.0953118 6.011,19.1973118 C6.146,21.6583118 8.498,22.9913118 10.644,22.9963118 L15,22.9963118 L15,23.9963118 L10.643,23.9963118 C7.58,23.9893118 5.16,21.9493118 5.013,19.2513118 C5.006,19.1313118 5,19.0063118 5,18.8823118 C5,15.4933118 7.318,14.2353118 8.677,13.7883118 C8.667,13.6373118 8.662,13.4763118 8.662,13.3123118 C8.662,10.5353118 10.538,7.6593118 13.026,6.6223118 C15.936,5.3963118 19.018,6.0043118 21.271,8.2473118 C21.862,8.8283118 22.619,9.6983118 23.151,10.7583118 C23.717,10.2433118 24.358,9.9903118 25.092,9.9903118 C26.547,9.9903118 28.178,11.2073118 28.468,13.8693118 C31.476,14.5853118 33,16.2993118 33,18.9693118 C33,21.8973118 31.719,23.5393118 29.084,23.9893118 L28.916,23.0033118 C30.352,22.7583118 32,22.0793118 32,18.9693118 C32,15.9513118 29.66,15.1263118 27.901,14.7683118 C27.678,14.7233118 27.514,14.5333118 27.501,14.3073118 C27.388,12.3543118 26.398,10.9903118 25.092,10.9903118 C24.428,10.9903118 23.906,11.2923118 23.401,11.9713118 C23.291,12.1193118 23.115,12.1923118 22.926,12.1663118 C22.744,12.1393118 22.592,12.0143118 22.529,11.8413118 C22.092,10.6213118 21.221,9.6003118 20.568,8.9583118 C18.61,7.0083118 15.934,6.4823118 13.411,7.5443118 C11.309,8.4213118 9.662,10.9543118 9.662,13.3123118 L9.662,13.3123118 Z" id="AWS-Single-Sign-On_Icon_32_Squid" fill="#FFFFFF"></path>
    </g>
</svg>