<?xml version="1.0" encoding="UTF-8"?>
<svg width="40px" height="40px" viewBox="0 0 40 40" version="1.1" xmlns="http://www.w3.org/2000/svg" xmlns:xlink="http://www.w3.org/1999/xlink">
    <!-- Generator: Sketch 64 (93537) - https://sketch.com -->
    <title>Icon-Architecture/32/Arch_AWS-CloudHSM_32</title>
    <desc>Created with Sketch.</desc>
    <defs>
        <linearGradient x1="0%" y1="100%" x2="100%" y2="0%" id="linearGradient-1">
            <stop stop-color="#BD0816" offset="0%"></stop>
            <stop stop-color="#FF5252" offset="100%"></stop>
        </linearGradient>
    </defs>
    <g id="Icon-Architecture/32/Arch_AWS-CloudHSM_32" stroke="none" stroke-width="1" fill="none" fill-rule="evenodd">
        <g id="Icon-Architecture-BG/32/Security-Identity-Compliance" fill="url(#linearGradient-1)">
            <rect id="Rectangle" x="0" y="0" width="40" height="40"></rect>
        </g>
        <path d="M18.5755509,18.4901174 C17.3715939,18.4901174 16.6236206,17.7401891 16.6236206,16.5320825 C16.6236206,15.3249785 17.3715939,14.5750501 18.5755509,14.5750501 C19.7805078,14.5750501 20.5284811,15.3249785 20.5284811,16.5320825 C20.5284811,17.7401891 19.7805078,18.4901174 18.5755509,18.4901174 L18.5755509,18.4901174 Z M26.0282847,16.0307935 L21.483447,16.0307935 C21.2714546,14.5630192 20.139495,13.5724721 18.5755509,13.5724721 C16.8376129,13.5724721 15.6236563,14.7896018 15.6236563,16.5320825 C15.6236563,18.2755657 16.8376129,19.4926955 18.5755509,19.4926955 C20.139495,19.4926955 21.2714546,18.5021484 21.483447,17.0333715 L26.0282847,17.0333715 L26.0282847,16.0307935 Z M13.5237313,16.538098 C13.5237313,19.4044686 15.7676512,21.6492409 18.6335488,21.6492409 C20.6814757,21.6492409 22.4974108,20.1824692 23.2583836,17.9116299 L24.2053498,18.2314523 C23.3063819,20.9163563 21.11946,22.651819 18.6335488,22.651819 C15.2636692,22.651819 12.523767,19.9087654 12.523767,16.538098 C12.523767,13.1604125 15.2636692,10.4133486 18.6335488,10.4133486 C21.3004536,10.4133486 23.3843791,11.8791177 24.2053498,14.3334288 L23.2583836,14.6522486 C22.5684083,12.595961 20.8834684,11.4159267 18.6335488,11.4159267 C15.8156494,11.4159267 13.5237313,13.7138356 13.5237313,16.538098 L13.5237313,16.538098 Z M6.99996429,22.0312231 L8.96289418,22.0312231 L8.96289418,20.0611573 L6.99996429,20.0611573 L6.99996429,22.0312231 Z M6.99996429,13.0611573 L8.96289418,13.0611573 L8.96289418,11.0680321 L6.99996429,11.0680321 L6.99996429,13.0611573 Z M9.96285847,22.5325122 L9.96285847,19.5598682 L9.96285847,13.5624463 L9.96285847,10.5667431 L9.96285847,7.00257806 L28.0952109,7.00257806 L28.0952109,20.026067 L29.0951752,20.026067 L29.0951752,6.99255228 C29.0951752,6.07619593 28.5831935,6 28.1032106,6 L9.95385879,6 C9.47387593,6 8.96289418,6.07619593 8.96289418,6.99255228 L8.96289418,10.065454 L6.49998214,10.065454 C6.22299204,10.065454 6,10.2900315 6,10.5667431 L6,13.5624463 C6,13.8391578 6.22299204,14.0637353 6.49998214,14.0637353 L8.96289418,14.0637353 L8.96289418,19.0585792 L6.49998214,19.0585792 C6.22299204,19.0585792 6,19.2831567 6,19.5598682 L6,22.5325122 C6,22.8102263 6.22299204,23.0338012 6.49998214,23.0338012 L8.96289418,23.0338012 L8.96289418,26.0716127 C8.96289418,26.8425952 9.18488625,27.0651676 9.95385879,27.0651676 L20.028499,27.0651676 L20.028499,26.0625895 L9.96285847,26.0625895 L9.96285847,22.5325122 Z M33.0000357,32.9974219 L32.2580622,32.9974219 L31.4210921,32.1863363 C31.3270955,32.0961043 31.2030999,32.0459754 31.0731045,32.0459754 L30.0961394,32.0459754 L30.0961394,31.1366371 C30.0961394,31.0022916 30.0421414,30.8749642 29.9481447,30.7807219 L29.463162,30.2974792 C29.3691654,30.2052421 29.2421699,30.1521054 29.1101746,30.1521054 L28.1432092,30.1521054 L28.1432092,29.2056717 C28.1432092,29.081352 28.0972108,28.9620453 28.0152137,28.8708107 L27.3272383,28.1008307 C27.1812435,27.9374105 26.945252,27.8892867 26.748259,27.9785162 C26.3742723,28.1489545 25.9742866,28.2351762 25.5593015,28.2351762 C23.9723581,28.2351762 22.6814042,26.9408479 22.6814042,25.3497565 C22.6814042,23.7586651 23.9723581,22.4643369 25.5593015,22.4643369 C27.1462448,22.4643369 28.4371987,23.7586651 28.4371987,25.3497565 C28.4371987,25.8620739 28.3672012,26.2771412 28.2282061,26.5849327 C28.1432092,26.7754225 28.1832077,26.9979948 28.3312025,27.1453738 L33.0000357,31.8274133 L33.0000357,32.9974219 Z M33.8530052,31.2649671 L29.2641691,26.6641364 C29.380165,26.2891722 29.437163,25.8490404 29.437163,25.3497565 C29.437163,23.2062446 27.6982251,21.4617588 25.5593015,21.4617588 C23.4213778,21.4617588 21.6814399,23.2062446 21.6814399,25.3497565 C21.6814399,27.4932684 23.4213778,29.2377542 25.5593015,29.2377542 C25.991286,29.2377542 26.412271,29.1675738 26.8142566,29.0302206 L27.1432449,29.3971641 L27.1432449,30.6533944 C27.1432449,30.9311086 27.3672369,31.1546835 27.643227,31.1546835 L28.904182,31.1546835 L29.0961751,31.3451733 L29.0961751,32.5472644 C29.0961751,32.8239759 29.3191672,33.0485534 29.5961573,33.0485534 L30.8711117,33.0485534 L31.7080819,33.8586365 C31.8020785,33.9488685 31.9260741,34 32.0550695,34 L33.5000179,34 C33.776008,34 34,33.7754225 34,33.498711 L34,31.6198797 C34,31.4865368 33.9470019,31.3592094 33.8530052,31.2649671 L33.8530052,31.2649671 Z M25.5263026,25.8981667 C25.2573122,25.8981667 25.0383201,25.6775995 25.0383201,25.407906 C25.0383201,25.1382125 25.2573122,24.918648 25.5263026,24.918648 C25.796293,24.918648 26.0152852,25.1382125 26.0152852,25.407906 C26.0152852,25.6775995 25.796293,25.8981667 25.5263026,25.8981667 L25.5263026,25.8981667 Z M25.5263026,23.9160699 C24.7063319,23.9160699 24.0383558,24.585792 24.0383558,25.407906 C24.0383558,26.2310226 24.7063319,26.9007448 25.5263026,26.9007448 C26.3472733,26.9007448 27.0152495,26.2310226 27.0152495,25.407906 C27.0152495,24.585792 26.3472733,23.9160699 25.5263026,23.9160699 L25.5263026,23.9160699 Z" id="AWS-CloudHSM_Icon_32_Squid" fill="#FFFFFF"></path>
    </g>
</svg>