<?xml version="1.0" encoding="UTF-8"?>
<svg width="40px" height="40px" viewBox="0 0 40 40" version="1.1" xmlns="http://www.w3.org/2000/svg" xmlns:xlink="http://www.w3.org/1999/xlink">
    <!-- Generator: Sketch 64 (93537) - https://sketch.com -->
    <title>Icon-Architecture/32/Arch_AWS-Secrets-Manager_32</title>
    <desc>Created with Sketch.</desc>
    <defs>
        <linearGradient x1="0%" y1="100%" x2="100%" y2="0%" id="linearGradient-1">
            <stop stop-color="#BD0816" offset="0%"></stop>
            <stop stop-color="#FF5252" offset="100%"></stop>
        </linearGradient>
    </defs>
    <g id="Icon-Architecture/32/Arch_AWS-Secrets-Manager_32" stroke="none" stroke-width="1" fill="none" fill-rule="evenodd">
        <g id="Icon-Architecture-BG/32/Security-Identity-Compliance" fill="url(#linearGradient-1)">
            <rect id="Rectangle" x="0" y="0" width="40" height="40"></rect>
        </g>
        <path d="M21.08,22.12 C21.08,21.8 20.82,21.54 20.5,21.54 C20.18,21.54 19.92,21.8 19.92,22.12 C19.92,22.44 20.18,22.7 20.5,22.7 C20.82,22.7 21.08,22.44 21.08,22.12 L21.08,22.12 Z M22.08,22.12 C22.08,22.815 21.625,23.401 21,23.611 L21,25 L20,25 L20,23.611 C19.375,23.401 18.92,22.815 18.92,22.12 C18.92,21.249 19.629,20.54 20.5,20.54 C21.371,20.54 22.08,21.249 22.08,22.12 L22.08,22.12 Z M24.909,25.984 L24.909,24.998 L23,24.998 L23,23.998 L24.909,23.998 L24.909,21.986 L23,21.986 L23,20.986 L24.909,20.986 L24.909,20.012 L16.091,20.012 L16.091,25.984 L24.909,25.984 Z M16.971,19.012 L23.989,19.012 L23.989,17 C23.989,15.728 22.662,13.954 20.502,13.954 C18.314,13.954 16.971,15.728 16.971,17 L16.971,19.012 Z M24.989,17 L24.989,19.012 L25.409,19.012 C25.685,19.012 25.909,19.235 25.909,19.512 L25.909,26.484 C25.909,26.761 25.685,26.984 25.409,26.984 L15.591,26.984 C15.314,26.984 15.091,26.761 15.091,26.484 L15.091,19.512 C15.091,19.235 15.314,19.012 15.591,19.012 L15.971,19.012 L15.971,17 C15.971,15.086 17.832,12.954 20.502,12.954 C23.146,12.954 24.989,15.086 24.989,17 L24.989,17 Z M10.461,27.766 L11.271,27.18 C9.958,25.365 9.23,23.237 9.138,21 L11,21 L11,20 L9.139,20 C9.238,17.776 9.965,15.661 11.271,13.855 L10.461,13.269 C9.03,15.246 8.239,17.564 8.139,20 L7,20 L7,21 L8.138,21 C8.231,23.449 9.023,25.78 10.461,27.766 L10.461,27.766 Z M27.161,29.746 C25.352,31.056 23.23,31.783 21,31.878 L21,30 L20,30 L20,31.879 C17.769,31.783 15.647,31.056 13.837,29.746 L13.251,30.557 C15.232,31.991 17.558,32.782 20,32.879 L20,34 L21,34 L21,32.878 C23.442,32.782 25.767,31.99 27.747,30.556 L27.161,29.746 Z M13.837,11.289 C15.647,9.979 17.769,9.253 20,9.157 L20,11 L21,11 L21,9.157 C23.23,9.253 25.352,9.98 27.161,11.289 L27.747,10.479 C25.767,9.045 23.442,8.254 21,8.157 L21,7 L20,7 L20,8.157 C17.558,8.253 15.232,9.045 13.251,10.479 L13.837,11.289 Z M32.859,20 C32.76,17.563 31.968,15.245 30.538,13.269 L29.727,13.855 C31.033,15.66 31.76,17.775 31.859,20 L30,20 L30,21 L31.86,21 C31.768,23.237 31.041,25.366 29.727,27.18 L30.538,27.766 C31.975,25.781 32.768,23.45 32.86,21 L34,21 L34,20 L32.859,20 Z M28.413,13.311 L32.192,9.531 L31.485,8.824 L27.706,12.604 L28.413,13.311 Z M12.586,27.724 L8.806,31.504 L9.513,32.211 L13.293,28.431 L12.586,27.724 Z M15.048,14.341 L7.892,7.186 L7.185,7.893 L14.341,15.048 L15.048,14.341 Z M27.355,26.649 L33.812,33.106 L33.105,33.813 L26.648,27.356 L27.355,26.649 Z" id="AWS-Secrets-Manager_Icon_32_Squid" fill="#FFFFFF"></path>
    </g>
</svg>