<?xml version="1.0" encoding="UTF-8"?>
<svg width="40px" height="40px" viewBox="0 0 40 40" version="1.1" xmlns="http://www.w3.org/2000/svg" xmlns:xlink="http://www.w3.org/1999/xlink">
    <!-- Generator: Sketch 64 (93537) - https://sketch.com -->
    <title>Icon-Architecture/32/Arch_AWS-Artifact_32</title>
    <desc>Created with Sketch.</desc>
    <defs>
        <linearGradient x1="0%" y1="100%" x2="100%" y2="0%" id="linearGradient-1">
            <stop stop-color="#BD0816" offset="0%"></stop>
            <stop stop-color="#FF5252" offset="100%"></stop>
        </linearGradient>
    </defs>
    <g id="Icon-Architecture/32/Arch_AWS-Artifact_32" stroke="none" stroke-width="1" fill="none" fill-rule="evenodd">
        <g id="Icon-Architecture-BG/32/Security-Identity-Compliance" fill="url(#linearGradient-1)">
            <rect id="Rectangle" x="0" y="0" width="40" height="40"></rect>
        </g>
        <path d="M20,6 C12.2809517,6 6,12.2846551 6,20.0104794 C6,26.2721796 10.474854,31.8013188 16.8834592,33.4560684 L17.1327824,32.4889681 C11.1649808,30.947995 6.99729306,25.8170736 6.99729306,20.0104794 C6.99729306,12.835573 12.8304602,6.99803957 20,6.99803957 C27.1695398,6.99803957 33.0027069,12.835573 33.0027069,20.0104794 C33.0027069,26.1574051 29.4154438,31.0557833 23.8645106,32.4889681 L24.1138339,33.4560684 C30.1185354,31.905115 34,26.6274817 34,20.0104794 C34,12.2846551 27.7190483,6 20,6 L20,6 Z M16.0317709,14.0122616 L20.9972931,14.0122616 L20.9972931,13.0142221 L16.0317709,13.0142221 L16.0317709,14.0122616 Z M16.0317709,23.0545001 L21.9945861,23.0545001 L21.9945861,22.0564605 L16.0317709,22.0564605 L16.0317709,23.0545001 Z M16.0317709,19.9725539 L20,19.9725539 L20,18.9745143 L16.0317709,18.9745143 L16.0317709,19.9725539 Z M16.0317709,17.0193548 L24.9395925,17.0193548 L24.9395925,16.0213153 L16.0317709,16.0213153 L16.0317709,17.0193548 Z M26.0146745,14.9364463 L23.3967802,14.9364463 C23.1215273,14.9364463 22.8981336,14.7128854 22.8981336,14.4374265 L22.8981336,11.0470861 L14.9427269,11.0470861 L14.9427269,25.0595616 L26.0146745,25.0595616 L26.0146745,14.9364463 Z M23.8954267,13.9384067 L25.4741416,13.9384067 L23.8954267,11.9672786 L23.8954267,13.9384067 Z M26.513321,26.0576011 L14.4440804,26.0576011 C14.1678302,26.0576011 13.9454338,25.8340403 13.9454338,25.5585814 L13.9454338,10.5480663 C13.9454338,10.2716093 14.1678302,10.0490465 14.4440804,10.0490465 L23.3967802,10.0490465 C23.5443795,10.0490465 23.688987,10.1149171 23.7857245,10.2356799 L26.9022653,14.1250401 C26.9750677,14.2158617 27,14.3256461 27,14.4374265 L27.0119675,14.4374265 L27.0119675,25.5585814 C27.0119675,25.8340403 26.7895712,26.0576011 26.513321,26.0576011 L26.513321,26.0576011 Z M23.9243482,29.7663162 L20.8756233,33.8013901 C20.7818778,33.925147 20.636273,33.999002 20.4806953,34 L20.4777034,34 C20.3241202,34 20.1785155,33.9281412 20.0837726,33.8063803 L16.9582562,29.7713064 C16.8425702,29.6206024 16.8206297,29.4170023 16.9044023,29.2463376 C16.988175,29.0746747 17.1627012,28.9668865 17.3531842,28.9668865 L18.9658071,28.9668865 L18.9658071,26.9837819 L19.9631002,26.9837819 L19.9631002,29.4659063 C19.9631002,29.7413652 19.7397065,29.964926 19.4644536,29.964926 L18.3704231,29.964926 L20.4737142,32.6795937 L22.5241487,29.964926 L21.4351047,29.964926 C21.1598518,29.964926 20.9364582,29.7413652 20.9364582,29.4659063 L20.9364582,26.9837819 L21.9337512,26.9837819 L21.9337512,28.9668865 L23.5264283,28.9668865 C23.7159139,28.9668865 23.8884456,29.0736767 23.9722183,29.2433434 C24.0569882,29.4130102 24.0390369,29.6156122 23.9243482,29.7663162 L23.9243482,29.7663162 Z" id="AWS-Artifact_Icon_32_Squid" fill="#FFFFFF"></path>
    </g>
</svg>