<?xml version="1.0" encoding="UTF-8"?>
<svg width="40px" height="40px" viewBox="0 0 40 40" version="1.1" xmlns="http://www.w3.org/2000/svg" xmlns:xlink="http://www.w3.org/1999/xlink">
    <!-- Generator: Sketch 64 (93537) - https://sketch.com -->
    <title>Icon-Architecture/32/Arch_Amazon-Cognito_32</title>
    <desc>Created with Sketch.</desc>
    <defs>
        <linearGradient x1="0%" y1="100%" x2="100%" y2="0%" id="linearGradient-1">
            <stop stop-color="#BD0816" offset="0%"></stop>
            <stop stop-color="#FF5252" offset="100%"></stop>
        </linearGradient>
    </defs>
    <g id="Icon-Architecture/32/Arch_Amazon-Cognito_32" stroke="none" stroke-width="1" fill="none" fill-rule="evenodd">
        <g id="Icon-Architecture-BG/32/Security-Identity-Compliance" fill="url(#linearGradient-1)">
            <rect id="Rectangle" x="0" y="0" width="40" height="40"></rect>
        </g>
        <path d="M9,17 L15,17 L15,16 L9,16 L9,17 Z M31,13 L31,9.3 C31,8.583 30.535,8 29.963,8 L8.037,8 C7.475,8 7,8.596 7,9.3 L7,13 L18,13 L18,9.5 C18,9.224 18.224,9 18.5,9 L29.5,9 C29.776,9 30,9.224 30,9.5 L30,13 L31,13 Z M22,14 C22,15.104 22.897,16 24,16 C25.103,16 26,15.104 26,14 C26,12.897 25.103,12 24,12 C22.897,12 22,12.897 22,14 L22,14 Z M31,14 L30,14 L30,19 L29,19 L29,10 L19,10 L19,18.696 C19.691,17.568 20.774,16.707 22.097,16.3 C21.433,15.75 21,14.929 21,14 C21,12.346 22.346,11 24,11 C25.654,11 27,12.346 27,14 C27,14.966 26.533,15.817 25.823,16.366 C27.042,16.787 28.108,17.609 28.781,18.72 L27.926,19.238 C27.335,18.262 26.382,17.534 25.293,17.218 C24.396,17.637 23.34,17.633 22.457,17.218 C20.705,17.724 19.451,19.217 19.216,21 L23,21 L23,22 L18.5,22 C18.224,22 18,21.777 18,21.5 L18,14 L7,14 L7,23.701 C7,24.405 7.475,25 8.037,25 L21,25 L21,26 L8.037,26 C6.914,26 6,24.969 6,23.701 L6,9.3 C6,8.032 6.914,7 8.037,7 L29.963,7 C31.086,7 32,8.032 32,9.3 L32,21 L31.001,21 L31,14 Z M33,28 C33,30.757 30.757,33 28,33 C25.243,33 23,30.757 23,28 C23,25.244 25.243,23 28,23 C30.757,23 33,25.244 33,28 L33,28 Z M34,28 C34,24.692 31.309,22 28,22 C24.691,22 22,24.692 22,28 C22,31.309 24.691,34 28,34 C31.309,34 34,31.309 34,28 L34,28 Z M27.862,29.862 L31.576,26.149 L30.869,25.442 L27.509,28.802 L25.995,27.288 L25.288,27.995 L27.155,29.862 C27.249,29.956 27.376,30.009 27.509,30.009 C27.642,30.009 27.769,29.956 27.862,29.862 L27.862,29.862 Z M14,20 L16,20 L16,19 L14,19 L14,20 Z M9,20 L13,20 L13,19 L9,19 L9,20 Z" id="Amazon-Cognito_Icon_32_Squid" fill="#FFFFFF"></path>
    </g>
</svg>