<?xml version="1.0" encoding="UTF-8"?>
<svg width="40px" height="40px" viewBox="0 0 40 40" version="1.1" xmlns="http://www.w3.org/2000/svg" xmlns:xlink="http://www.w3.org/1999/xlink">
    <!-- Generator: Sketch 64 (93537) - https://sketch.com -->
    <title>Icon-Architecture/32/Arch_AWS-Shield_32</title>
    <desc>Created with Sketch.</desc>
    <defs>
        <linearGradient x1="0%" y1="100%" x2="100%" y2="0%" id="linearGradient-1">
            <stop stop-color="#BD0816" offset="0%"></stop>
            <stop stop-color="#FF5252" offset="100%"></stop>
        </linearGradient>
    </defs>
    <g id="Icon-Architecture/32/Arch_AWS-Shield_32" stroke="none" stroke-width="1" fill="none" fill-rule="evenodd">
        <g id="Icon-Architecture-BG/32/Security-Identity-Compliance" fill="url(#linearGradient-1)">
            <rect id="Rectangle" x="0" y="0" width="40" height="40"></rect>
        </g>
        <path d="M18.0050532,29.476 L18.0050532,11.631 L12.0050532,13.848 L12.0050532,24.497 C12.0160532,24.671 12.3490532,29.224 18.0050532,29.476 L18.0050532,29.476 Z M24.9630532,22.706 L24.9630532,13.848 L19.0050532,11.633 L19.0050532,29.481 C19.9170532,29.417 20.4520532,29.181 21.0530532,28.819 C21.1050532,29.166 21.1870532,29.504 21.3000532,29.828 C20.5660532,30.234 19.7920532,30.5 18.4840532,30.5 C11.3810532,30.5 11.0090532,24.581 11.0060532,24.521 L11.0050532,13.5 C11.0050532,13.29 11.1360532,13.103 11.3320532,13.031 L18.3320532,10.444 C18.4430532,10.403 18.5670532,10.403 18.6790532,10.445 L25.6370532,13.031 C25.8330532,13.104 25.9630532,13.291 25.9630532,13.5 L25.9630532,22.508 C25.6190532,22.542 25.2850532,22.611 24.9630532,22.706 L24.9630532,22.706 Z M27.0050532,25.497 L26.0050532,25.497 L26.0050532,27.497 L24.0050532,27.497 L24.0050532,28.497 L26.0050532,28.497 L26.0050532,30.497 L27.0050532,30.497 L27.0050532,28.497 L29.0050532,28.497 L29.0050532,27.497 L27.0050532,27.497 L27.0050532,25.497 Z M30.0520532,28.012 C30.0520532,26.064 28.4670532,24.479 26.5200532,24.479 C24.5720532,24.479 22.9870532,26.064 22.9870532,28.012 C22.9870532,29.959 24.5720532,31.544 26.5200532,31.544 C28.4670532,31.544 30.0520532,29.959 30.0520532,28.012 L30.0520532,28.012 Z M31.0520532,28.012 C31.0520532,30.511 29.0190532,32.544 26.5200532,32.544 C24.0210532,32.544 21.9870532,30.511 21.9870532,28.012 C21.9870532,25.513 24.0210532,23.479 26.5200532,23.479 C29.0190532,23.479 31.0520532,25.513 31.0520532,28.012 L31.0520532,28.012 Z M22.5190532,31.822 C22.7780532,32.094 23.0630532,32.341 23.3720532,32.556 C21.9740532,33.207 20.3470532,33.544 18.5050532,33.544 C15.2670532,33.544 12.7020532,32.576 10.8850532,30.666 C7.79905323,27.424 7.99505323,22.676 8.00605323,22.476 L8.00505323,11.5 C8.00505323,11.295 8.12905323,11.112 8.31905323,11.036 L18.3190532,7.036 C18.4390532,6.988 18.5710532,6.988 18.6910532,7.036 L28.6910532,11.036 C28.8810532,11.112 29.0050532,11.295 29.0050532,11.5 L29.0050532,22.5 C29.0050532,22.5 29.0130532,22.723 29.0030532,23.075 C28.6870532,22.915 28.3550532,22.786 28.0090532,22.688 C28.0070532,22.593 28.0060532,22.525 28.0060532,22.523 L28.0050532,11.838 L18.5050532,8.039 L9.00505323,11.838 L9.00505323,22.5 C9.00205323,22.569 8.82305323,27.056 11.6140532,29.982 C13.2350532,31.682 15.5540532,32.544 18.5050532,32.544 C20.0130532,32.544 21.3480532,32.29 22.5190532,31.822 L22.5190532,31.822 Z" id="AWS-Shield_Icon_32_Squid" fill="#FFFFFF"></path>
    </g>
</svg>