<?xml version="1.0" encoding="UTF-8"?>
<svg width="40px" height="40px" viewBox="0 0 40 40" version="1.1" xmlns="http://www.w3.org/2000/svg" xmlns:xlink="http://www.w3.org/1999/xlink">
    <!-- Generator: Sketch 64 (93537) - https://sketch.com -->
    <title>Icon-Architecture/32/Arch_Amazon-Detective_32</title>
    <desc>Created with Sketch.</desc>
    <defs>
        <linearGradient x1="0%" y1="100%" x2="100%" y2="0%" id="linearGradient-1">
            <stop stop-color="#BD0816" offset="0%"></stop>
            <stop stop-color="#FF5252" offset="100%"></stop>
        </linearGradient>
    </defs>
    <g id="Icon-Architecture/32/Arch_Amazon-Detective_32" stroke="none" stroke-width="1" fill="none" fill-rule="evenodd">
        <g id="Icon-Architecture-BG/32/Security-Identity-Compliance" fill="url(#linearGradient-1)">
            <rect id="Rectangle" x="0" y="0" width="40" height="40"></rect>
        </g>
        <path d="M13.466,13.2878979 C14.289,13.5448979 15.267,13.9488979 16.331,14.3878979 C18.165,15.1438979 20.244,16.0018979 21.457,16.0018979 C22.727,16.0018979 24.842,15.1338979 26.708,14.3678979 C27.748,13.9408979 28.705,13.5478979 29.514,13.2938979 L27.664,12.3348979 C26.719,12.6718979 22.896,14.0018979 21.457,14.0018979 C20.085,14.0018979 16.277,12.6948979 15.255,12.3348979 L13.466,13.2878979 Z M15.904,11.5018979 C17.475,12.0438979 20.458,13.0018979 21.457,13.0018979 C22.516,13.0018979 25.454,12.0498979 27.004,11.5078979 L24.591,7.15889791 C24.499,7.01289791 24.276,6.96189791 24.11,7.06189791 L22.158,8.23189791 C21.727,8.49189791 21.188,8.49189791 20.756,8.23189791 L18.806,7.06189791 C18.627,6.95689791 18.396,7.00589791 18.273,7.07389791 L15.904,11.5018979 Z M26.347,15.5958979 C24.541,16.3298979 22.747,17.0018979 21.457,17.0018979 C20.212,17.0018979 18.445,16.3328979 16.661,15.6038979 C17.29,18.1408979 19.678,22.0018979 21.473,22.0018979 C23.339,22.0018979 25.732,18.1588979 26.347,15.5958979 L26.347,15.5958979 Z M11.515,13.6228979 C11.459,13.3998979 11.563,13.1678979 11.765,13.0598979 L14.802,11.4428979 L17.445,6.50089791 C17.473,6.44889791 17.511,6.40089791 17.556,6.36189791 C17.953,6.01089791 18.704,5.83689791 19.32,6.20489791 L21.27,7.37489791 C21.385,7.44389791 21.528,7.44389791 21.645,7.37489791 L23.595,6.20489791 C24.228,5.82489791 25.06,6.02589791 25.452,6.65089791 L28.11,11.4388979 L31.231,13.0578979 C31.435,13.1638979 31.54,13.3958979 31.486,13.6208979 C31.431,13.8438979 31.231,14.0018979 31,14.0018979 C30.292,14.0018979 28.874,14.5618979 27.444,15.1468979 C27.029,17.9638979 24.19,23.0018979 21.473,23.0018979 C18.781,23.0018979 15.968,17.9678979 15.557,15.1498979 C14.124,14.5608979 12.71,14.0018979 12,14.0018979 C11.771,14.0018979 11.57,13.8458979 11.515,13.6228979 L11.515,13.6228979 Z M29.112,24.0968979 L29.354,23.8558979 C29.447,23.7618979 29.5,23.6348979 29.5,23.5018979 C29.5,23.3698979 29.447,23.2418979 29.354,23.1478979 L27.354,21.1478979 L26.647,21.8548979 L28.293,23.5018979 L24.642,27.1478979 C24.548,27.2418979 24.495,27.3688979 24.495,27.5018979 C24.495,27.6348979 24.548,27.7618979 24.642,27.8558979 L26.294,29.5028979 L23.152,32.6648979 L23.861,33.3698979 L27.355,29.8538979 C27.549,29.6588979 27.549,29.3428979 27.354,29.1478979 L25.703,27.5018979 L28.197,25.0098979 C30.578,25.0978979 32.971,26.7608979 32.971,29.5018979 L32.971,33.5018979 L33.971,33.5018979 L33.971,29.5018979 C33.971,26.7688979 31.91,24.5648979 29.112,24.0968979 L29.112,24.0968979 Z M18.698,31.4138979 L15.895,28.5978979 C15.619,28.9448979 15.305,29.2568979 14.947,29.5198979 L17.77,32.3408979 C18.014,32.5838979 18.42,32.5738979 18.676,32.3188979 C18.931,32.0638979 18.941,31.6578979 18.698,31.4138979 L18.698,31.4138979 Z M12,29.5018979 C14.206,29.5018979 16,27.7068979 16,25.5018979 C16,23.2958979 14.206,21.5018979 12,21.5018979 C9.794,21.5018979 8,23.2958979 8,25.5018979 C8,27.7068979 9.794,29.5018979 12,29.5018979 L12,29.5018979 Z M19.407,30.7088979 C20.037,31.3418979 20.027,32.3808979 19.383,33.0258979 C19.056,33.3518979 18.627,33.5168979 18.202,33.5168979 C17.787,33.5168979 17.375,33.3608979 17.063,33.0478979 L14.06,30.0458979 C13.43,30.3318979 12.737,30.5018979 12,30.5018979 C9.243,30.5018979 7,28.2588979 7,25.5018979 C7,22.7448979 9.243,20.5018979 12,20.5018979 C14.757,20.5018979 17,22.7448979 17,25.5018979 C17,26.3088979 16.789,27.0608979 16.448,27.7368979 L19.407,30.7088979 Z M24.167,23.6158979 L21.458,26.2808979 L18.852,23.6218979 L18.137,24.3228979 L21.094,27.3378979 C21.188,27.4328979 21.314,27.4868979 21.446,27.4878979 L21.451,27.4878979 C21.582,27.4878979 21.708,27.4368979 21.802,27.3448979 L24.868,24.3288979 L24.167,23.6158979 Z M29,33.5018979 L30,33.5018979 L30,29.5018979 L29,29.5018979 L29,33.5018979 Z" id="Amazon-Detective_Icon_32_Squid" fill="#FFFFFF"></path>
    </g>
</svg>