<?xml version="1.0" encoding="UTF-8"?>
<svg width="40px" height="40px" viewBox="0 0 40 40" version="1.1" xmlns="http://www.w3.org/2000/svg" xmlns:xlink="http://www.w3.org/1999/xlink">
    <title>Icon-Architecture/32/Arch_AWS-Audit-Manager_32</title>
    <defs>
        <linearGradient x1="0%" y1="100%" x2="100%" y2="0%" id="linearGradient-1">
            <stop stop-color="#BD0816" offset="0%"></stop>
            <stop stop-color="#FF5252" offset="100%"></stop>
        </linearGradient>
    </defs>
    <g id="Icon-Architecture/32/Arch_AWS-Audit-Manager_32" stroke="none" stroke-width="1" fill="none" fill-rule="evenodd">
        <g id="Rectangle" fill="url(#linearGradient-1)">
            <rect x="0" y="0" width="40" height="40"></rect>
        </g>
        <g id="Icon-Service/32/AWS-Audit-Manager_32" transform="translate(4.000000, 4.000000)" fill="#FFFFFF">
            <path d="M26.746,21.561 L26.039,22.268 L27.77,24 L23,24 L23,25 L27.739,25 L26.039,26.7 L26.746,27.407 L29.315,24.838 C29.511,24.643 29.511,24.326 29.315,24.131 L26.746,21.561 Z M14,25 L19.746,25 L18.045,26.7 L18.752,27.407 L21.322,24.838 C21.416,24.744 21.469,24.617 21.469,24.484 C21.469,24.352 21.416,24.225 21.322,24.131 L18.752,21.561 L18.045,22.268 L19.777,24 L14,24 L14,25 Z M9.759,27.407 L12.328,24.838 C12.523,24.643 12.523,24.326 12.328,24.131 L9.759,21.561 L9.052,22.268 L10.783,24 L5,24 L5,25 L10.752,25 L9.052,26.7 L9.759,27.407 Z M5,18 L13,18 L13,17 L5,17 L5,18 Z M5,13 L13,13 L13,12 L5,12 L5,13 Z M17,13 L20,13 L20,12 L17,12 L17,13 Z M20.5,11 C20.776,11 21,11.224 21,11.5 L21,13.5 C21,13.776 20.776,14 20.5,14 L16.5,14 C16.224,14 16,13.776 16,13.5 L16,11.5 C16,11.224 16.224,11 16.5,11 L20.5,11 Z M17,18 L29,18 L29,17 L17,17 L17,18 Z M30,16.5 L30,18.5 C30,18.776 29.776,19 29.5,19 L16.5,19 C16.224,19 16,18.776 16,18.5 L16,16.5 C16,16.224 16.224,16 16.5,16 L29.5,16 C29.776,16 30,16.224 30,16.5 L30,16.5 Z M19,3.165 L19,7 L22.797,7 L19,3.165 Z M23,28 L24,28 L24,29.5 C24,29.776 23.776,30 23.5,30 L2.5,30 C2.224,30 2,29.776 2,29.5 L2,2.5 C2,2.224 2.224,2 2.5,2 L19.046,2 C19.18,2 19.308,2.053 19.401,2.148 L23.855,6.648 C23.948,6.742 24,6.868 24,7 L24,14 L23,14 L23,8 L18.5,8 C18.224,8 18,7.776 18,7.5 L18,3 L3,3 L3,29 L23,29 L23,28 Z M13.256,5.565 L9.401,9.42 C9.304,9.518 9.176,9.566 9.048,9.566 C8.92,9.566 8.792,9.518 8.694,9.42 L6.767,7.493 L7.474,6.786 L9.048,8.359 L12.549,4.858 L13.256,5.565 Z" id="Fill-3"></path>
        </g>
    </g>
</svg>