<?xml version="1.0" encoding="UTF-8"?>
<svg width="40px" height="40px" viewBox="0 0 40 40" version="1.1" xmlns="http://www.w3.org/2000/svg" xmlns:xlink="http://www.w3.org/1999/xlink">
    <!-- Generator: Sketch 64 (93537) - https://sketch.com -->
    <title>Icon-Architecture/32/Arch_AWS-Directory-Service_32</title>
    <desc>Created with Sketch.</desc>
    <defs>
        <linearGradient x1="0%" y1="100%" x2="100%" y2="0%" id="linearGradient-1">
            <stop stop-color="#BD0816" offset="0%"></stop>
            <stop stop-color="#FF5252" offset="100%"></stop>
        </linearGradient>
    </defs>
    <g id="Icon-Architecture/32/Arch_AWS-Directory-Service_32" stroke="none" stroke-width="1" fill="none" fill-rule="evenodd">
        <g id="Icon-Architecture-BG/32/Security-Identity-Compliance" fill="url(#linearGradient-1)">
            <rect id="Rectangle" x="0" y="0" width="40" height="40"></rect>
        </g>
        <path d="M17,27 L18,27 L18,26 L17,26 L17,27 Z M12,27 L16,27 L16,26 L12,26 L12,27 Z M12,24 L18,24 L18,23 L12,23 L12,24 Z M33,14 L10,14 L10,19 L20,19 L20,16.5 C20,16.224 20.224,16 20.5,16 L31.5,16 C31.776,16 32,16.224 32,16.5 L32,19 L33,19 L33,14 Z M21.859,27 L30.244,27 C30.036,25.537 28.918,24.414 27.15,23.912 C26.791,24.06 26.414,24.158 26.027,24.158 C25.636,24.158 25.265,24.062 24.908,23.916 C23.167,24.417 22.064,25.537 21.859,27 L21.859,27 Z M27.971,21.24 C27.971,20.179 27.099,19.316 26.027,19.316 C24.956,19.316 24.084,20.179 24.084,21.24 C24.084,21.937 24.468,22.581 25.086,22.919 C25.665,23.234 26.377,23.238 26.966,22.918 C27.586,22.581 27.971,21.938 27.971,21.24 L27.971,21.24 Z M21,20 L21,26.256 C21.38,24.902 22.382,23.831 23.879,23.212 C23.384,22.68 23.084,21.985 23.084,21.24 C23.084,19.628 24.404,18.316 26.027,18.316 C27.65,18.316 28.971,19.628 28.971,21.24 C28.971,21.984 28.671,22.677 28.177,23.208 C29.551,23.776 30.541,24.729 31,25.919 L31,20 L31,19 L31,17 L21,17 L21,19 L21,20 Z M33,20 L32,20 L32,27.5 C32,27.776 31.776,28 31.5,28 L20.5,28 C20.224,28 20,27.776 20,27.5 L20,20 L10,20 L10,30 L33,30 L33,20 Z M34,13.5 L34,30.5 C34,30.776 33.776,31 33.5,31 L9.5,31 C9.224,31 9,30.776 9,30.5 L9,13.5 C9,13.224 9.224,13 9.5,13 L33.5,13 C33.776,13 34,13.224 34,13.5 L34,13.5 Z M7,26 L8,26 L8,27 L6.5,27 C6.224,27 6,26.776 6,26.5 L6,10.5 C6,10.224 6.224,10 6.5,10 L30.5,10 C30.776,10 31,10.224 31,10.5 L31,12 L30,12 L30,11 L7,11 L7,26 Z" id="AWS-Directory-Service_Icon_32_Squid" fill="#FFFFFF"></path>
    </g>
</svg>