<?xml version="1.0" encoding="UTF-8"?>
<svg width="40px" height="40px" viewBox="0 0 40 40" version="1.1" xmlns="http://www.w3.org/2000/svg" xmlns:xlink="http://www.w3.org/1999/xlink">
    <!-- Generator: Sketch 64 (93537) - https://sketch.com -->
    <title>Icon-Architecture/32/Arch_AWS-Resources-Access-Manager_32</title>
    <desc>Created with Sketch.</desc>
    <defs>
        <linearGradient x1="0%" y1="100%" x2="100%" y2="0%" id="linearGradient-1">
            <stop stop-color="#BD0816" offset="0%"></stop>
            <stop stop-color="#FF5252" offset="100%"></stop>
        </linearGradient>
    </defs>
    <g id="Icon-Architecture/32/Arch_AWS-Resources-Access-Manager_32" stroke="none" stroke-width="1" fill="none" fill-rule="evenodd">
        <g id="Icon-Architecture-BG/32/Security-Identity-Compliance" fill="url(#linearGradient-1)">
            <rect id="Rectangle" x="0" y="0" width="40" height="40"></rect>
        </g>
        <path d="M16.245,29.953 C16.245,29.7 16.039,29.494 15.785,29.494 C15.531,29.494 15.325,29.7 15.325,29.953 C15.325,30.206 15.531,30.413 15.785,30.413 C16.039,30.413 16.245,30.206 16.245,29.953 L16.245,29.953 Z M17.245,29.953 C17.245,30.758 16.59,31.413 15.785,31.413 C14.98,31.413 14.325,30.758 14.325,29.953 C14.325,29.148 14.98,28.494 15.785,28.494 C16.59,28.494 17.245,29.148 17.245,29.953 L17.245,29.953 Z M26.516,30.355 L25.655,29.494 L19.005,29.494 C18.783,29.494 18.589,29.348 18.525,29.136 C18.168,27.934 17.041,27.094 15.785,27.094 C14.208,27.094 12.926,28.377 12.926,29.953 C12.926,31.53 14.208,32.812 15.785,32.812 C16.884,32.812 17.898,32.171 18.37,31.179 C18.452,31.004 18.628,30.893 18.821,30.893 L20.103,30.893 C20.236,30.893 20.363,30.946 20.457,31.039 L21.063,31.645 L21.67,31.039 C21.764,30.946 21.891,30.893 22.023,30.893 L22.983,30.893 C23.116,30.893 23.243,30.946 23.337,31.039 L23.943,31.645 L24.549,31.039 C24.642,30.946 24.769,30.893 24.902,30.893 L25.711,30.893 L26.516,30.355 Z M27.655,30.079 C27.761,30.185 27.814,30.333 27.8,30.482 C27.784,30.631 27.704,30.766 27.579,30.849 L26.14,31.809 C26.058,31.864 25.961,31.893 25.862,31.893 L25.109,31.893 L24.297,32.706 C24.109,32.893 23.777,32.893 23.59,32.706 L22.776,31.893 L22.23,31.893 L21.417,32.706 C21.222,32.901 20.905,32.901 20.71,32.706 L19.896,31.893 L19.122,31.893 C18.436,33.069 17.159,33.812 15.785,33.812 C13.657,33.812 11.926,32.081 11.926,29.953 C11.926,27.825 13.657,26.094 15.785,26.094 C17.352,26.094 18.771,27.064 19.358,28.494 L25.862,28.494 C25.995,28.494 26.122,28.546 26.216,28.64 L27.655,30.079 Z M29.542,12.984 L26.45,10.169 L23.328,12.974 L26.514,15.724 L29.542,12.984 Z M30.622,13.355 L26.857,16.762 C26.762,16.848 26.641,16.891 26.521,16.891 C26.405,16.891 26.289,16.85 26.194,16.769 L22.244,13.36 C22.136,13.266 22.072,13.13 22.0709877,12.986 C22.07,12.843 22.13,12.705 22.237,12.609 L26.118,9.122 C26.309,8.95 26.599,8.953 26.789,9.125 L30.623,12.615 C30.726,12.71 30.786,12.845 30.786,12.986 C30.786,13.126 30.726,13.261 30.622,13.355 L30.622,13.355 Z M16.58,14.995 L13.565,10.397 L10.459,14.995 L16.58,14.995 Z M17.506,15.995 L9.517,15.995 C9.333,15.995 9.163,15.892 9.076,15.729 C8.989,15.566 9,15.368 9.103,15.215 L13.157,9.215 C13.25,9.077 13.405,8.995 13.571,8.995 L13.575,8.995 C13.742,8.995 13.897,9.08 13.989,9.22 L17.924,15.22 C18.024,15.374 18.033,15.571 17.945,15.732 C17.858,15.894 17.689,15.995 17.506,15.995 L17.506,15.995 Z M10.906,21.447 C10.906,22.884 12.075,24.053 13.512,24.053 C14.948,24.053 16.117,22.884 16.117,21.447 C16.117,20.01 14.948,18.841 13.512,18.841 C12.075,18.841 10.906,20.01 10.906,21.447 L10.906,21.447 Z M9.906,21.447 C9.906,19.458 11.523,17.841 13.512,17.841 C15.5,17.841 17.117,19.458 17.117,21.447 C17.117,23.435 15.5,25.053 13.512,25.053 C11.523,25.053 9.906,23.435 9.906,21.447 L9.906,21.447 Z M24.036,24 L29.008,24 L29.008,18.893 L24.036,18.893 L24.036,24 Z M29.508,17.893 C29.784,17.893 30.008,18.117 30.008,18.393 L30.008,24.5 C30.008,24.777 29.784,25 29.508,25 L23.536,25 C23.26,25 23.036,24.777 23.036,24.5 L23.036,18.393 C23.036,18.117 23.26,17.893 23.536,17.893 L29.508,17.893 Z M34,6.5 L34,31.572 C34,31.848 33.776,32.072 33.5,32.072 L29,32.072 L29,31.072 L33,31.072 L33,7 L7,7 L7,31.072 L11,31.072 L11,32.072 L6.5,32.072 C6.224,32.072 6,31.848 6,31.572 L6,6.5 C6,6.224 6.224,6 6.5,6 L33.5,6 C33.776,6 34,6.224 34,6.5 L34,6.5 Z" id="AWS-Resources-Access-Manager_Icon_32_Squid" fill="#FFFFFF"></path>
    </g>
</svg>