<?xml version="1.0" encoding="UTF-8"?>
<svg width="40px" height="40px" viewBox="0 0 40 40" version="1.1" xmlns="http://www.w3.org/2000/svg" xmlns:xlink="http://www.w3.org/1999/xlink">
    <!-- Generator: Sketch 64 (93537) - https://sketch.com -->
    <title>Icon-Architecture/32/Arch_AWS-Firewall-Manager_32</title>
    <desc>Created with Sketch.</desc>
    <defs>
        <linearGradient x1="0%" y1="100%" x2="100%" y2="0%" id="linearGradient-1">
            <stop stop-color="#BD0816" offset="0%"></stop>
            <stop stop-color="#FF5252" offset="100%"></stop>
        </linearGradient>
    </defs>
    <g id="Icon-Architecture/32/Arch_AWS-Firewall-Manager_32" stroke="none" stroke-width="1" fill="none" fill-rule="evenodd">
        <g id="Icon-Architecture-BG/32/Security-Identity-Compliance" fill="url(#linearGradient-1)">
            <rect id="Rectangle" x="0" y="0" width="40" height="40"></rect>
        </g>
        <path d="M31.5,20 C30.673,20 30,19.327 30,18.5 C30,17.673 30.673,17 31.5,17 C32.327,17 33,17.673 33,18.5 C33,19.327 32.327,20 31.5,20 M34,18.5 C34,17.122 32.879,16 31.5,16 C31.466,16 31.434,16.009 31.399,16.01 C31.107,15.221 30.751,14.462 30.314,13.763 L29.467,14.292 C29.848,14.903 30.159,15.567 30.421,16.255 C29.584,16.659 29,17.509 29,18.5 C29,19.753 29.93,20.784 31.135,20.963 C31.001,23.155 30.254,25.229 28.943,26.995 L29.746,27.59 C31.197,25.636 32.012,23.336 32.137,20.908 C33.206,20.624 34,19.657 34,18.5 M27.5,13 C26.673,13 26,12.327 26,11.5 C26,10.673 26.673,10 27.5,10 C28.327,10 29,10.673 29,11.5 C29,12.327 28.327,13 27.5,13 M30,11.5 C30,10.122 28.879,9 27.5,9 C26.121,9 25,10.122 25,11.5 C25,12.878 26.121,14 27.5,14 C28.879,14 30,12.878 30,11.5 M15.5,8 C16.327,8 17,8.673 17,9.5 C17,10.327 16.327,11 15.5,11 C14.673,11 14,10.327 14,9.5 C14,8.673 14.673,8 15.5,8 M15.5,12 C16.879,12 18,10.878 18,9.5 C18,8.122 16.879,7 15.5,7 C14.121,7 13,8.122 13,9.5 C13,10.878 14.121,12 15.5,12 M19.023,8.935 L18.953,7.937 C21.099,7.79 23.276,8.201 25.223,9.156 L24.781,10.053 C22.995,9.177 20.995,8.796 19.023,8.935 M8.5,19 C7.673,19 7,18.327 7,17.5 C7,16.673 7.673,16 8.5,16 C9.327,16 10,16.673 10,17.5 C10,18.327 9.327,19 8.5,19 M12.703,11.419 L12.078,10.639 C10.611,11.815 9.457,13.325 8.662,15.017 C8.607,15.013 8.556,15 8.5,15 C7.121,15 6,16.122 6,17.5 C6,18.516 6.611,19.388 7.482,19.779 C7.477,19.938 7.466,20.095 7.466,20.255 C7.466,23.828 9.016,27.225 11.718,29.576 L12.374,28.821 C9.891,26.661 8.466,23.538 8.466,20.255 C8.466,20.168 8.473,20.084 8.476,19.998 C8.483,19.998 8.491,20 8.5,20 C9.879,20 11,18.878 11,17.5 C11,16.534 10.443,15.703 9.639,15.287 C10.365,13.796 11.4,12.464 12.703,11.419 M25.759,27.831 C24.948,30.957 21.052,31.775 19.849,31.956 C19.551,30.95 18.876,27.995 20.194,25.157 C20.277,24.98 20.365,24.804 20.462,24.63 C21.212,23.29 21.817,22.038 21.62,20.296 C21.524,19.456 21.006,18.319 20.497,17.372 C21.905,18.537 23.574,20.759 22.968,24.534 C22.936,24.738 23.032,24.941 23.211,25.045 C23.391,25.149 23.615,25.132 23.775,25.002 C23.824,24.963 24.825,24.135 25.263,22.109 C25.866,22.883 26.6,24.569 25.759,27.831 M14.802,24.612 C14.848,24.535 14.894,24.458 14.945,24.378 C15.972,22.769 15.6,20.526 15.271,19.294 C16.205,19.799 17.053,21.066 17.354,21.626 C17.449,21.8 17.633,21.908 17.834,21.887 C18.031,21.872 18.201,21.741 18.267,21.555 C19.202,18.895 18.608,16.955 17.929,15.781 C18.194,15.906 18.434,16.057 18.658,16.226 C19.206,17.064 20.493,19.237 20.626,20.409 C20.791,21.857 20.277,22.913 19.588,24.145 C19.48,24.339 19.383,24.534 19.289,24.732 C18.02,27.464 18.389,30.22 18.733,31.658 C17.741,31.239 16.818,30.748 16.112,30.256 C14.298,28.995 13.721,26.519 14.802,24.612 M25.154,20.677 C25.006,20.596 24.83,20.594 24.682,20.672 C24.533,20.75 24.434,20.897 24.417,21.064 C24.354,21.673 24.233,22.182 24.092,22.601 C23.902,17.642 19.903,15.704 19.257,15.422 C18.542,14.887 17.685,14.533 16.634,14.349 C16.415,14.312 16.19,14.426 16.096,14.631 C16,14.835 16.055,15.08 16.228,15.226 C16.319,15.302 18.262,16.982 17.614,20.177 C16.956,19.271 15.84,18.081 14.523,18.081 C14.358,18.081 14.204,18.163 14.111,18.299 C14.018,18.435 13.998,18.608 14.058,18.762 C14.069,18.794 15.286,21.983 14.104,23.837 C14.047,23.925 13.994,24.015 13.929,24.125 C12.598,26.47 13.307,29.524 15.541,31.077 C16.124,31.483 17.39,32.268 19.322,32.963 C19.326,32.965 19.329,32.966 19.333,32.967 C19.336,32.968 19.339,32.97 19.342,32.971 L19.343,32.969 C19.396,32.988 19.453,33 19.511,33 C19.525,33 19.541,33 19.557,32.998 C20.175,32.941 25.627,32.324 26.728,28.082 C28.188,22.412 25.278,20.745 25.154,20.677" id="AWS-Firewall-Manager_Icon_32_Squid" fill="#FFFFFF"></path>
    </g>
</svg>