<?xml version="1.0" encoding="UTF-8"?>
<svg width="80px" height="80px" viewBox="0 0 80 80" version="1.1" xmlns="http://www.w3.org/2000/svg" xmlns:xlink="http://www.w3.org/1999/xlink">
    <title>Icon-Architecture/64/Arch_Amazon-FSx_64</title>
    <defs>
        <linearGradient x1="0%" y1="100%" x2="100%" y2="0%" id="linearGradient-1">
            <stop stop-color="#1B660F" offset="0%"></stop>
            <stop stop-color="#6CAE3E" offset="100%"></stop>
        </linearGradient>
    </defs>
    <g id="Icon-Architecture/64/Arch_Amazon-FSx_64" stroke="none" stroke-width="1" fill="none" fill-rule="evenodd">
        <g id="Rectangle" fill="url(#linearGradient-1)">
            <rect x="0" y="0" width="80" height="80"></rect>
        </g>
        <g id="Icon-Service/64/Amazon-FSx_64" transform="translate(8.000000, 8.000000)" fill="#FFFFFF">
            <path d="M46.536,36.534 L39.693,46.365 L42.779,46.365 L47.926,38.569 L46.536,36.534 Z M55.747,46.365 L59,46.365 L50.911,34.432 L58.277,23.783 L55.234,23.783 L49.412,32.402 L47.854,34.639 L55.747,46.365 Z M48.12,30.49 L43.59,23.783 L40.378,23.783 L46.499,32.729 L48.12,30.49 Z M27.265,32.307 C25.299,31.513 23.855,30.566 22.935,29.466 C22.015,28.367 21.556,27.009 21.556,25.392 C21.556,23.194 22.316,21.412 23.836,20.047 C25.355,18.683 27.355,18 29.834,18 C30.958,18 32.139,18.139 33.379,18.418 C34.617,18.696 35.786,19.087 36.885,19.59 L36.885,21.617 C34.279,20.663 31.967,20.186 29.948,20.186 C27.981,20.186 26.474,20.63 25.427,21.517 C24.379,22.406 23.855,23.67 23.855,25.313 C23.855,26.241 24.015,26.989 24.335,27.558 C24.653,28.128 25.178,28.645 25.905,29.108 C26.634,29.572 27.675,30.069 29.029,30.598 L33.13,32.228 C34.969,32.97 36.31,33.877 37.153,34.951 C37.996,36.023 38.418,37.368 38.418,38.984 C38.418,41.343 37.581,43.25 35.908,44.707 C34.234,46.164 32.03,46.893 29.297,46.893 C26.461,46.893 23.932,46.336 21.709,45.223 L21.709,43.197 C24.391,44.204 26.857,44.707 29.105,44.707 C31.225,44.707 32.919,44.19 34.183,43.157 C35.448,42.124 36.08,40.72 36.08,38.945 C36.08,37.858 35.735,36.931 35.046,36.162 C34.355,35.394 33.244,34.706 31.712,34.096 L27.265,32.307 Z M5,46.217 L5,18.676 L19.907,18.676 L19.907,20.783 L7.261,20.783 L7.261,31.314 L17.953,31.314 L17.953,33.42 L7.261,33.42 L7.261,46.217 L5,46.217 Z" id="Fill-1"></path>
        </g>
    </g>
</svg>