<?xml version="1.0" encoding="UTF-8"?>
<svg width="80px" height="80px" viewBox="0 0 80 80" version="1.1" xmlns="http://www.w3.org/2000/svg" xmlns:xlink="http://www.w3.org/1999/xlink">
    <title>Icon-Architecture/64/Arch_Amazon-S3-On-Outposts_Storage_64</title>
    <defs>
        <linearGradient x1="0%" y1="100%" x2="100%" y2="0%" id="linearGradient-1">
            <stop stop-color="#1B660F" offset="0%"></stop>
            <stop stop-color="#6CAE3E" offset="100%"></stop>
        </linearGradient>
    </defs>
    <g id="Icon-Architecture/64/Arch_Amazon-S3-On-Outposts_Storage_64" stroke="none" stroke-width="1" fill="none" fill-rule="evenodd">
        <g id="Rectangle" fill="url(#linearGradient-1)">
            <rect x="0" y="0" width="80" height="80"></rect>
        </g>
        <g id="Icon-Service/64/Amazon-S3-On-Outposts_64" transform="translate(8.000000, 8.000000)" fill="#FFFFFF">
            <path d="M57.682,43.59 C57.452,43.353 57.013,42.988 56.208,42.482 L56.091,43.352 C56.879,43.535 57.379,43.587 57.682,43.59 L57.682,43.59 Z M55.905,29.597 C55.768,28.407 50.233,25.714 41.569,25.714 C32.906,25.714 27.371,28.407 27.235,29.597 L27.254,29.75 C27.726,31.106 33.447,33.034 41.569,33.034 C49.693,33.034 55.413,31.106 55.885,29.75 L55.905,29.597 Z M55.528,32.552 C52.462,34.186 46.889,35.034 41.569,35.034 C36.249,35.034 30.676,34.186 27.612,32.552 L29.071,43.388 C30.074,43.732 31.016,44.31 31.84,45.123 C32.352,45.628 32.791,46.216 33.155,46.879 C33.929,46.463 34.84,46.355 35.713,46.613 C37.075,47.016 38.016,48.172 38.317,49.767 C38.917,49.949 39.524,50.225 40.057,50.562 C41.725,51.617 42.57,52.99 42.57,54.644 C42.57,55.992 42.203,57.109 41.519,58 L41.569,58 C44.125,58 46.678,57.735 48.756,57.254 C49.561,57.069 50.272,56.855 50.87,56.619 C52.044,56.154 52.397,55.74 52.428,55.632 C52.428,55.588 52.429,55.561 52.435,55.517 L53.876,44.816 C49.773,43.546 44.298,41.015 41.985,39.912 C41.832,39.965 41.671,40 41.5,40 C40.673,40 40,39.327 40,38.5 C40,37.673 40.673,37 41.5,37 C42.21,37 42.804,37.497 42.958,38.161 C44.822,39.047 50.153,41.521 54.148,42.801 L55.528,32.552 Z M40.57,54.644 C40.57,53.996 40.39,53.139 38.988,52.252 C38.454,51.915 37.797,51.656 37.232,51.56 C36.719,51.474 36.364,51.01 36.402,50.502 C36.307,49.47 35.841,48.736 35.146,48.531 C34.579,48.365 33.965,48.584 33.584,49.091 C33.365,49.385 33.004,49.539 32.636,49.48 C32.272,49.425 31.968,49.175 31.843,48.829 C31.513,47.911 31.039,47.143 30.435,46.546 C29.889,46.007 28.639,45.01 26.869,45.01 C26.245,45.01 25.559,45.133 24.816,45.443 C23.209,46.112 21.902,48.121 21.902,49.919 C21.902,50.125 21.913,50.329 21.938,50.528 C21.999,51.029 21.678,51.497 21.189,51.62 C20.061,51.903 18.716,52.675 18.716,54.742 C18.716,56.436 19.663,57.354 20.458,57.826 C20.649,57.94 20.884,57.999 21.139,58 L37.048,58.016 C37.107,58.016 37.215,58.015 37.362,58.014 C38.028,57.998 40.57,57.733 40.57,54.644 L40.57,54.644 Z M19.902,49.937 L19.902,49.919 C19.902,47.3 21.683,44.582 24.046,43.597 C25.026,43.188 26.026,43.007 27.003,43.026 L25.282,30.239 L25.315,30.235 C25.313,30.226 25.307,30.218 25.305,30.21 C25.294,30.17 25.286,30.128 25.282,30.086 L25.241,29.771 C25.235,29.728 25.232,29.685 25.232,29.642 C25.232,27.957 27.151,26.539 30,25.51 L30,7.565 C30,6.702 29.298,6 28.435,6 L7.566,6 C6.703,6 6,6.702 6,7.565 L6,52.435 C6,53.298 6.703,54 7.566,54 L16.765,54 C16.996,52.105 18.119,50.649 19.902,49.937 L19.902,49.937 Z M21.137,60 C20.524,59.999 19.936,59.842 19.437,59.546 C18.588,59.042 17.276,57.953 16.859,56 L11,56 L11,60 L9,60 L9,56 L7.566,56 C5.6,56 4,54.401 4,52.435 L4,7.565 C4,5.599 5.6,4 7.566,4 L28.435,4 C30.401,4 32,5.599 32,7.565 L32,24.89 C34.845,24.139 38.252,23.714 41.569,23.714 C49.459,23.714 57.908,26.096 57.908,29.642 C57.908,29.685 57.905,29.728 57.899,29.771 L57.858,30.086 C57.853,30.128 57.845,30.17 57.834,30.21 C57.832,30.218 57.827,30.226 57.825,30.235 L57.858,30.239 L56.498,40.327 C58.681,41.583 59.719,42.565 59.904,43.553 C59.995,44.045 59.87,44.526 59.548,44.907 C59.166,45.362 58.578,45.589 57.711,45.589 C57.192,45.589 56.561,45.5 55.824,45.338 L54.424,55.729 C54.382,56.831 53.434,57.756 51.605,58.479 C50.913,58.752 50.107,58.995 49.206,59.203 C46.985,59.716 44.273,60 41.569,60 C40.676,60 38.252,59.996 37.351,60 L21.137,60 Z M11,25 L26,25 L26,23 L11,23 L11,25 Z M11,32 L22,32 L22,30 L11,30 L11,32 Z M11,18 L26,18 L26,16 L11,16 L11,18 Z" id="Fill-1"></path>
        </g>
    </g>
</svg>