<?xml version="1.0" encoding="UTF-8"?>
<svg width="80px" height="80px" viewBox="0 0 80 80" version="1.1" xmlns="http://www.w3.org/2000/svg" xmlns:xlink="http://www.w3.org/1999/xlink">
    <!-- Generator: Sketch 64 (93537) - https://sketch.com -->
    <title>Icon-Architecture/64/Arch_AWS-Snowmobile_64</title>
    <desc>Created with Sketch.</desc>
    <defs>
        <linearGradient x1="0%" y1="100%" x2="100%" y2="0%" id="linearGradient-1">
            <stop stop-color="#1B660F" offset="0%"></stop>
            <stop stop-color="#6CAE3E" offset="100%"></stop>
        </linearGradient>
    </defs>
    <g id="Icon-Architecture/64/Arch_AWS-Snowmobile_64" stroke="none" stroke-width="1" fill="none" fill-rule="evenodd">
        <g id="Icon-Architecture-BG/64/Storage" fill="url(#linearGradient-1)">
            <rect id="Rectangle" x="0" y="0" width="80" height="80"></rect>
        </g>
        <path d="M68,40 C68,54.888 56.004,67 41.26,67 C29.947,67 19.819,59.765 16.056,48.997 L17.944,48.336 C21.427,58.304 30.797,65 41.26,65 C54.901,65 66,53.785 66,40 C66,26.215 54.901,15 41.26,15 C31.616,15 22.792,20.723 18.78,29.579 L16.958,28.754 C21.294,19.184 30.833,13 41.26,13 C56.004,13 68,25.112 68,40 L68,40 Z M13,44 L17,44 L17,42 L13,42 L13,44 Z M12,39 L17,39 L17,37 L12,37 L12,39 Z M14,34 L17,34 L17,32 L14,32 L14,34 Z M56.588,37 C59.021,37 61,38.965 61,41.38 L61,46 L60.724,46 C60.103,44.258 58.453,43 56.5,43 C54.665,43 53.089,44.107 52.389,45.686 L52,45.686 L52,37 L56.588,37 Z M56.5,50 C55.121,50 54,48.878 54,47.5 C54,46.122 55.121,45 56.5,45 C57.879,45 59,46.122 59,47.5 C59,48.878 57.879,50 56.5,50 L56.5,50 Z M50,46 L39.724,46 C39.103,44.258 37.453,43 35.5,43 C33.748,43 32.243,44.017 31.5,45.481 C30.757,44.017 29.252,43 27.5,43 C25.547,43 23.897,44.258 23.276,46 L22,46 L22,32 L50,32 L50,46 Z M35.5,50 C34.121,50 33,48.878 33,47.5 C33,46.122 34.121,45 35.5,45 C36.879,45 38,46.122 38,47.5 C38,48.878 36.879,50 35.5,50 L35.5,50 Z M27.5,50 C26.121,50 25,48.878 25,47.5 C25,46.122 26.121,45 27.5,45 C28.879,45 30,46.122 30,47.5 C30,48.878 28.879,50 27.5,50 L27.5,50 Z M51,30 L21,30 C20.447,30 20,30.448 20,31 L20,47 C20,47.552 20.447,48 21,48 L23.051,48 C23.303,50.244 25.189,52 27.5,52 C29.252,52 30.757,50.983 31.5,49.519 C32.243,50.983 33.748,52 35.5,52 C37.811,52 39.697,50.244 39.949,48 L51,48 C51.285,48 51.54,47.877 51.722,47.686 L52.019,47.686 C52.118,50.079 54.082,52 56.5,52 C58.811,52 60.697,50.244 60.949,48 L62,48 C62.553,48 63,47.552 63,47 L63,41.38 C63,37.862 60.124,35 56.588,35 L52,35 L52,31 C52,30.448 51.553,30 51,30 L51,30 Z" id="Fill-1" fill="#FFFFFF"></path>
    </g>
</svg>