<?xml version="1.0" encoding="UTF-8"?>
<svg width="80px" height="80px" viewBox="0 0 80 80" version="1.1" xmlns="http://www.w3.org/2000/svg" xmlns:xlink="http://www.w3.org/1999/xlink">
    <!-- Generator: Sketch 64 (93537) - https://sketch.com -->
    <title>Icon-Architecture/64/Arch_Amazon-Elastic-File-System_64</title>
    <desc>Created with Sketch.</desc>
    <defs>
        <linearGradient x1="0%" y1="100%" x2="100%" y2="0%" id="linearGradient-1">
            <stop stop-color="#1B660F" offset="0%"></stop>
            <stop stop-color="#6CAE3E" offset="100%"></stop>
        </linearGradient>
    </defs>
    <g id="Icon-Architecture/64/Arch_Amazon-Elastic-File-System_64" stroke="none" stroke-width="1" fill="none" fill-rule="evenodd">
        <g id="Icon-Architecture-BG/64/Storage" fill="url(#linearGradient-1)">
            <rect id="Rectangle" x="0" y="0" width="80" height="80"></rect>
        </g>
        <path d="M31.3953463,24.0244294 C37.6594582,21.4043359 42.0955374,24.8504589 43.7115663,26.4525162 C45.0295898,27.7615629 46.0576082,29.4336226 46.7676209,31.4196936 C46.890623,31.7657059 47.1956285,32.0167149 47.558635,32.0717168 C47.9266415,32.1227187 48.287648,31.9787135 48.5076519,31.684703 C49.295666,30.6366656 50.4496866,30.0356441 51.6707084,30.0356441 C53.495741,30.0356441 55.7077805,31.4206936 55.9367846,35.323833 C55.962785,35.7748491 56.2877909,36.1508625 56.7297987,36.2438659 C61.2628797,37.1958999 63.5619207,39.7109897 63.5619207,43.7161327 C63.5619207,47.4382657 61.8578903,49.7383478 58.4988303,50.5533769 L58.9688387,52.4964463 C63.2209147,51.4664095 65.5619565,48.3482982 65.5619565,43.7161327 C65.5619565,39.0009643 62.8359078,35.7348477 57.865819,34.455802 C57.3238094,30.0276438 54.4267576,28.0355727 51.6707084,28.0355727 C50.3536849,28.0355727 49.0976625,28.4835887 48.061644,29.3006179 C47.3006304,27.6505589 46.3156128,26.2205079 45.1215915,25.0324654 C41.1575207,21.1073253 35.7404239,20.0402872 30.6233326,22.1793635 C26.2472544,24.0154291 22.9471955,29.0766099 22.9471955,33.9547841 C22.9471955,34.1947927 22.9551956,34.4418015 22.9701959,34.6968106 C18.9531242,36.0188578 16.5820818,39.3119754 16.5820818,43.6581306 C16.5820818,43.8771385 16.592082,44.0951463 16.6040822,44.3071538 C16.8110859,48.065288 19.3211307,51.3154041 22.9991964,52.5854495 L23.6512081,50.6943819 C20.7461562,49.6913461 18.7631208,47.140255 18.6011179,44.20115 C18.5921177,44.0251438 18.5821175,43.8421372 18.5821175,43.6581306 C18.5821175,38.5749491 22.1551813,36.9278903 24.2842194,36.3988714 C24.7732281,36.276867 25.0952338,35.8098504 25.0362328,35.3088325 C24.9762317,34.8138148 24.9472312,34.370799 24.9472312,33.9547841 C24.9472312,29.9026394 27.7802818,25.5414836 31.3953463,24.0244294 L31.3953463,24.0244294 Z M51.9997143,45.0011786 C51.9997143,44.6041644 51.9147128,44.3051538 51.75871,44.1591485 C51.5877069,44.0001429 51.2897016,43.9851423 51.0666976,43.9991428 L37.9994643,44.0011429 C37.4474544,44.0011429 36.9994464,43.5531269 36.9994464,43.0011072 C36.9994464,42.7300975 36.8984446,41.9710704 36.7824425,41.5000536 L33.3233808,41.5000536 C33.170378,41.96007 33.0063751,42.7410979 32.999375,43.0051073 C32.9853747,43.5471267 32.5413668,44.0011429 31.9993571,44.0011429 L28.9993036,44.0011429 C28.7062983,43.9821422 28.4112931,44.0001429 28.24129,44.1591485 C28.0852872,44.3051538 27.9992857,44.6041644 27.9992857,45.0011786 L27.9992857,59.0016786 L51.9997143,59.0016786 L51.9997143,45.0011786 Z M53.99975,47.00125 L53.99975,54.2295082 L56.5817961,47.00125 L53.99975,47.00125 Z M53.941749,60.3387264 L53.9327488,60.3357263 C53.7947463,60.7217401 53.4347399,61.0017501 52.9997321,61.0017501 L26.9992678,61.0017501 C26.447258,61.0017501 25.99925,60.5537341 25.99925,60.0017143 L25.99925,45.0011786 C25.99925,43.7751348 26.4752585,43.0721097 26.8742656,42.6980964 C27.2572725,42.3400836 27.9372846,41.9210686 29.0663048,42.0040716 L31.1163414,42.0020715 C31.2943445,40.9670345 31.7383525,39.4999821 32.8073716,39.4999821 L37.3594528,39.4999821 C37.4204539,39.4999821 37.482455,39.5059824 37.5434561,39.5169827 C38.4844729,39.692989 38.8174789,41.0280367 38.935481,42.0010715 L50.9996964,42.0010715 C52.0567153,41.9280689 52.7417275,42.3400836 53.1247344,42.6980964 C53.5247415,43.0721097 53.99975,43.7751348 53.99975,45.0011786 L57.9998214,45.0011786 C58.3258272,45.0011786 58.6298327,45.1591843 58.817836,45.4251938 C59.0048394,45.6912033 59.0508402,46.0312154 58.9418382,46.3372263 L53.941749,60.3387264 Z M65.9999643,64.5868781 L58.3938285,56.9806065 L56.9798032,58.394657 L64.584939,65.9999286 L59.0818407,65.9999286 L59.0818407,68 L66.9999821,68 C67.552992,68 68,67.551984 68,66.9999643 L68,59.0816815 L65.9999643,59.0816815 L65.9999643,64.5868781 Z M22.64219,56.9456052 L14.0000357,64.7488839 L14.0000357,59.0816815 L12,59.0816815 L12,66.9999643 C12,67.551984 12.448008,68 13.0000179,68 L21.9191771,68 L21.9191771,65.9999286 L15.5990643,65.9999286 L23.982214,58.4296582 L22.64219,56.9456052 Z M66.9999821,12 L58.0818229,12 L58.0818229,14.0000714 L64.7489419,14.0000714 L56.9448026,22.6423801 L58.4288291,23.9824279 L65.9999643,15.5991285 L65.9999643,21.9193543 L68,21.9193543 L68,13.0000357 C68,12.448016 67.552992,12 66.9999821,12 L66.9999821,12 Z M14.0000357,21.9193543 L12,21.9193543 L12,13.0000357 C12,12.448016 12.448008,12 13.0000179,12 L21.9191771,12 L21.9191771,14.0000714 L15.414061,14.0000714 L24.0192146,22.6053788 L22.6051894,24.0194293 L14.0000357,15.415122 L14.0000357,21.9193543 Z" id="Amazon-Elastic-File-System_Icon_64_Squid" fill="#FFFFFF"></path>
    </g>
</svg>