<?xml version="1.0" encoding="UTF-8"?>
<svg width="80px" height="80px" viewBox="0 0 80 80" version="1.1" xmlns="http://www.w3.org/2000/svg" xmlns:xlink="http://www.w3.org/1999/xlink">
    <title>Icon-Architecture/64/Arch_AWS-Snowcone_64</title>
    <defs>
        <linearGradient x1="0%" y1="100%" x2="100%" y2="0%" id="linearGradient-1">
            <stop stop-color="#1B660F" offset="0%"></stop>
            <stop stop-color="#6CAE3E" offset="100%"></stop>
        </linearGradient>
    </defs>
    <g id="Icon-Architecture/64/Arch_AWS-Snowcone_64" stroke="none" stroke-width="1" fill="none" fill-rule="evenodd">
        <g id="Rectangle" fill="url(#linearGradient-1)">
            <rect x="0" y="0" width="80" height="80"></rect>
        </g>
        <g id="Icon-Service/64/AWS-Snowcone_64" transform="translate(8.000000, 8.000000)" fill="#FFFFFF">
            <path d="M48,32 L48,46 C48,46.552 47.553,47 47,47 L17,47 C16.447,47 16,46.552 16,46 L16,32 C16,31.448 16.447,31 17,31 L25,31 L25,33 L18,33 L18,45 L46,45 L46,33 L39,33 L39,31 L47,31 C47.553,31 48,31.448 48,32 L48,32 Z M58,51.696 C58,51.864 57.874,52 57.72,52 L55,52 L55,28.302 C55,27.033 53.98,26 52.728,26 L11.274,26 C10.021,26 9,27.034 9,28.304 L9,52 L6.278,52 C6.125,52 6,51.865 6,51.698 L6,25.913 C6,24.307 7.274,23 8.842,23 L55.166,23 C56.729,23 58,24.303 58,25.905 L58,51.696 Z M11,51 L11,28.304 C11,28.136 11.123,28 11.274,28 L52.728,28 C52.878,28 53,28.135 53,28.302 L53,51 L11,51 Z M45.233,21 L18.767,21 L20.566,18 L43.434,18 L45.233,21 Z M16.58,12.986 C17.116,12.359 17.89,12 18.702,12 L45.869,12 C46.682,12 47.456,12.359 47.952,12.937 L54,21 L47.566,21 L44.857,16.485 C44.677,16.184 44.352,16 44,16 L20,16 C19.648,16 19.323,16.184 19.143,16.485 L16.434,21 L10.096,21 L16.58,12.986 Z M56.71,21.28 L49.512,11.687 C48.595,10.615 47.268,10 45.869,10 L18.702,10 C17.305,10 15.978,10.615 15.043,11.708 L7.296,21.28 C5.387,21.938 4,23.755 4,25.913 L4,51.698 C4,52.967 5.022,54 6.278,54 L11,54 C11.553,54 12,53.552 12,53 L53,53 C53,53.552 53.447,54 54,54 L57.72,54 C58.978,54 60,52.966 60,51.696 L60,25.905 C60,23.751 58.616,21.938 56.71,21.28 L56.71,21.28 Z M29,36 L35,36 L35,33 L29,33 L29,36 Z M28,38 L36,38 C36.553,38 37,37.552 37,37 L37,32 C37,31.448 36.553,31 36,31 L28,31 C27.447,31 27,31.448 27,32 L27,37 C27,37.552 27.447,38 28,38 L28,38 Z" id="AWS-Snowcone_64_Squid"></path>
        </g>
    </g>
</svg>