<?xml version="1.0" encoding="UTF-8"?>
<svg width="80px" height="80px" viewBox="0 0 80 80" version="1.1" xmlns="http://www.w3.org/2000/svg" xmlns:xlink="http://www.w3.org/1999/xlink">
    <title>Icon-Architecture/64/Arch_Savings-Plans_64</title>
    <defs>
        <linearGradient x1="0%" y1="100%" x2="100%" y2="0%" id="linearGradient-1">
            <stop stop-color="#1B660F" offset="0%"></stop>
            <stop stop-color="#6CAE3E" offset="100%"></stop>
        </linearGradient>
    </defs>
    <g id="Icon-Architecture/64/Arch_Savings-Plans_64" stroke="none" stroke-width="1" fill="none" fill-rule="evenodd">
        <g id="Rectangle" fill="url(#linearGradient-1)">
            <rect x="0" y="0" width="80" height="80"></rect>
        </g>
        <g id="Icon-Service/64/AWS-Savings-Plans_64" transform="translate(8.000000, 8.000000)" fill="#FFFFFF">
            <path d="M45.833,26.961 C47.459,26.511 48.552,25.06 48.552,23.351 L46.552,23.351 C46.552,24.337 45.877,24.874 45.299,25.034 C44.543,25.244 43.803,24.899 43.326,24.107 C42.52,22.765 41.603,22.506 40.936,22.539 C39.522,22.597 38.45,24.03 37.932,24.892 L21.552,24.892 L21.552,26.892 L38.521,26.892 C38.902,26.892 39.25,26.676 39.418,26.335 C39.821,25.517 40.608,24.554 41.019,24.537 C41.104,24.531 41.36,24.718 41.611,25.136 C42.362,26.386 43.575,27.094 44.865,27.094 C45.186,27.094 45.51,27.051 45.833,26.961 L45.833,26.961 Z M33.568,47.451 C33.568,45.571 32.054,44.508 30.552,44.092 L30.552,50.888 C32.248,50.67 33.568,49.221 33.568,47.451 L33.568,47.451 Z M28.552,41.389 L28.552,35.409 C27.441,35.988 26.672,37.145 26.672,38.491 C26.672,39.885 27.509,40.823 28.552,41.389 L28.552,41.389 Z M35.568,47.451 C35.568,50.327 33.354,52.687 30.552,52.91 L30.552,54.892 L28.552,54.892 L28.552,52.698 C26.311,52.018 24.672,49.925 24.672,47.451 L26.672,47.451 C26.672,48.797 27.441,49.954 28.552,50.533 L28.552,43.573 C26.189,42.707 24.672,40.798 24.672,38.491 C24.672,36.017 26.311,33.923 28.552,33.244 L28.552,31.892 L30.552,31.892 L30.552,33.032 C33.354,33.255 35.568,35.615 35.568,38.491 L33.568,38.491 C33.568,36.721 32.248,35.272 30.552,35.054 L30.552,42.049 C33.559,42.658 35.568,44.792 35.568,47.451 L35.568,47.451 Z M20.166,18.572 L26.053,19.687 C26.289,19.732 26.528,19.691 26.736,19.572 C26.9,19.479 26.997,19.423 28.742,17.378 L32.046,19.541 C32.268,19.686 32.539,19.736 32.796,19.684 L37.98,18.611 L35.284,21.892 L23.012,21.892 L20.166,18.572 Z M36.529,23.527 L41.324,17.693 C41.594,17.366 41.627,16.904 41.408,16.542 C41.188,16.179 40.762,15.996 40.35,16.079 L32.796,17.642 L29.1,15.222 C28.677,14.945 28.115,15.027 27.789,15.411 C27.09,16.235 26.314,17.136 25.886,17.62 L17.738,16.076 C17.316,15.998 16.898,16.19 16.687,16.558 C16.474,16.925 16.517,17.387 16.793,17.71 L21.793,23.543 C21.982,23.765 22.26,23.892 22.552,23.892 L35.757,23.892 C36.056,23.892 36.34,23.758 36.529,23.527 L36.529,23.527 Z M35.427,29.892 C35.493,29.94 35.565,29.993 35.645,30.05 C37.769,31.583 44.231,36.249 44.231,44.555 C44.231,52.473 38.606,57.392 29.552,57.392 C20.497,57.392 14.872,52.473 14.872,44.555 C14.872,36.249 21.335,31.583 23.459,30.05 C23.538,29.993 23.61,29.94 23.677,29.892 L35.427,29.892 Z M46.231,44.555 C46.231,38.365 43.063,32.939 36.814,28.428 C36.627,28.293 36.479,28.187 36.382,28.109 C36.205,27.969 35.985,27.892 35.76,27.892 L23.344,27.892 C23.118,27.892 22.898,27.969 22.722,28.109 C22.624,28.187 22.477,28.293 22.289,28.428 C16.04,32.939 12.872,38.365 12.872,44.555 C12.872,53.568 19.419,59.392 29.552,59.392 C39.685,59.392 46.231,53.568 46.231,44.555 L46.231,44.555 Z M59.308,38.651 L51.731,42.296 L48.646,34.475 L49.949,33.96 L52.02,39.213 C53.042,36.526 53.562,33.697 53.562,30.781 C53.562,17.669 42.895,7 29.781,7 C16.668,7 6,17.669 6,30.781 C6,33.992 6.629,37.107 7.868,40.038 L6.026,40.817 C4.682,37.638 4,34.261 4,30.781 C4,16.565 15.565,5 29.781,5 C43.997,5 55.562,16.565 55.562,30.781 C55.562,33.846 55.027,36.823 53.985,39.658 L58.701,37.388 L59.308,38.651 Z" id="Fill-1"></path>
        </g>
    </g>
</svg>