<svg xmlns="http://www.w3.org/2000/svg" width="18" height="18" viewBox="0 0 18 18"><defs><linearGradient id="b0670cdb-9407-42e5-ae8f-f3558902da1a" x1="7.89" y1="6.9" x2="7.89" y2="19.35" gradientUnits="userSpaceOnUse"><stop offset="0.22" stop-color="#32d4f5" /><stop offset="1" stop-color="#198ab3" /></linearGradient><linearGradient id="fd04ffc0-49c3-4a18-9b27-999b23712bcb" x1="7.53" y1="0.22" x2="8.44" y2="11.53" gradientUnits="userSpaceOnUse"><stop offset="0.22" stop-color="#32d4f5" /><stop offset="1" stop-color="#198ab3" /></linearGradient><radialGradient id="aa3ecbb1-1061-42c8-aaf2-d5c01a3fcfd9" cx="-19.24" cy="6.51" r="6.13" gradientTransform="matrix(0.94, 0.01, -0.01, 0.94, 32.03, 6.26)" gradientUnits="userSpaceOnUse"><stop offset="0.27" stop-color="#ffd70f" /><stop offset="1" stop-color="#fea11b" /></radialGradient></defs><g id="b245b541-7d80-40be-a5d7-51667bcba1b3"><g><g><path d="M14.05,17.11a1.34,1.34,0,0,0,1.34-1.33.81.81,0,0,0,0-.16C14.86,11.42,12.47,8,7.9,8S.86,10.9.4,15.63A1.34,1.34,0,0,0,1.59,17.1H14.05Z" fill="url(#b0670cdb-9407-42e5-ae8f-f3558902da1a)" /><path d="M7.9,9a4.09,4.09,0,0,1-2.27-.67l2.25,5.89,2.24-5.85A4.17,4.17,0,0,1,7.9,9Z" fill="#fff" opacity="0.8" /><circle cx="7.9" cy="4.8" r="4.21" fill="url(#fd04ffc0-49c3-4a18-9b27-999b23712bcb)" /></g><g><path id="f2ddd4d7-46fc-4e48-ae24-8fde036c39bb" d="M17.27,11.45a1.13,1.13,0,0,0,0-1.6h0l-1.94-2a1.12,1.12,0,0,0-1.6,0h0l-2,1.94a1.14,1.14,0,0,0,0,1.61l1.61,1.64a.31.31,0,0,1,.09.22l0,3a.36.36,0,0,0,.12.28l.73.75a.27.27,0,0,0,.37,0l.72-.72h0l.42-.43a.14.14,0,0,0,0-.2l-.31-.31a.17.17,0,0,1,0-.23l.31-.31a.13.13,0,0,0,0-.2l-.3-.31a.17.17,0,0,1,0-.23l.31-.31a.14.14,0,0,0,0-.2l-.42-.43V13.3ZM14.54,8.34a.66.66,0,0,1,.64.65.63.63,0,0,1-.65.64.65.65,0,0,1,0-1.29Z" fill="url(#aa3ecbb1-1061-42c8-aaf2-d5c01a3fcfd9)" /><path id="e15034b6-eebb-4253-ac69-86068a1d4276" d="M14,16.38h0a.14.14,0,0,0,.24-.1V13.83a.16.16,0,0,0-.06-.13h0a.14.14,0,0,0-.22.12v2.46A.13.13,0,0,0,14,16.38Z" fill="#ff9300" opacity="0.75" /><rect id="f3d2a589-08f4-4e99-9635-cc67abadc8f4" x="14.38" y="9.07" width="0.38" height="3.21" rx="0.17" transform="translate(3.8 25.17) rotate(-89.65)" fill="#ff9300" opacity="0.75" /><rect id="bc7793e0-f7bc-4cc4-abb0-181c6c62350c" x="14.37" y="9.68" width="0.38" height="3.21" rx="0.17" transform="translate(3.18 25.78) rotate(-89.65)" fill="#ff9300" opacity="0.75" /></g></g></g></svg>