<svg xmlns="http://www.w3.org/2000/svg" width="18" height="18" viewBox="0 0 18 18"><defs><linearGradient id="e45c6200-6488-4339-a709-a13bd54e49f3" x1="13.01" y1="5.83" x2="12.78" y2="19.82" gradientUnits="userSpaceOnUse"><stop offset="0" stop-color="#9cebff" /><stop offset="1" stop-color="#50e6ff" /></linearGradient></defs><title>Icon-azurestack-8</title><g id="ea18473d-2ef4-4f9c-b256-443e4dcd2a2c"><g><path d="M13.1.26h-7a.45.45,0,0,0-.45.45v10.2a8.8,8.8,0,0,1,1.13-.83H8.11l.74,1v1.54l-.93,1.24-1.28-.17-1-.39v.27a.45.45,0,0,0,.45.46h7a.45.45,0,0,0,.45-.46V.71A.45.45,0,0,0,13.1.26Z" fill="#0078d4" /><path id="ad507295-c076-421c-9034-1cdfff692626" d="M6.7,2.07H8a.11.11,0,0,1,.12.11v1.7A.12.12,0,0,1,8,4H6.7a.11.11,0,0,1-.11-.12V2.18A.11.11,0,0,1,6.7,2.07ZM9,2.07h1.29a.11.11,0,0,1,.11.11v1.7a.11.11,0,0,1-.11.12H9a.11.11,0,0,1-.11-.12V2.18A.11.11,0,0,1,9,2.07Zm2.27,0h1.28a.11.11,0,0,1,.11.11v1.7a.11.11,0,0,1-.11.12H11.23a.12.12,0,0,1-.12-.12V2.18A.11.11,0,0,1,11.23,2.07ZM6.7,5.16H8a.11.11,0,0,1,.12.11V7A.11.11,0,0,1,8,7.09H6.7A.11.11,0,0,1,6.59,7V5.27A.11.11,0,0,1,6.7,5.16ZM9,5.16h1.29a.11.11,0,0,1,.11.11V7a.11.11,0,0,1-.11.11H9A.11.11,0,0,1,8.85,7V5.27A.11.11,0,0,1,9,5.16Zm2.27,0h1.28a.11.11,0,0,1,.11.11V7a.11.11,0,0,1-.11.11H11.23A.11.11,0,0,1,11.11,7V5.27A.11.11,0,0,1,11.23,5.16Z" fill="#f2f2f2" /><path d="M7.12,11.05a1,1,0,0,0-1,.76H2.53a3.07,3.07,0,0,0-.06.53v.05H6.12a1,1,0,1,0,1-1.34Z" fill="#50e6ff" /><path d="M9.88,10.6A2.64,2.64,0,0,0,7.2,8.05,2.67,2.67,0,0,0,4.64,9.83a2.57,2.57,0,0,0-2,1.64H5.9a1.37,1.37,0,0,1,1.22-.76,1.41,1.41,0,1,1-1.22,2H2.53a2.55,2.55,0,0,0,2.53,2H9.48l.12,0a2.05,2.05,0,0,0,.28-4.09Z" fill="#32bedd" /><path d="M7.12,11.05a1,1,0,0,0-1,.76H2.53a1.92,1.92,0,0,1-.37-.05,1.84,1.84,0,0,1,.2-3.63l.17,0,.06-.17a2,2,0,0,1,2-1.36,2.08,2.08,0,0,1,1.82,1A2.89,2.89,0,0,1,7,7.54,2.66,2.66,0,0,0,4.55,6,2.63,2.63,0,0,0,2.11,7.59,2.42,2.42,0,0,0,1.9,12.3h0a1.51,1.51,0,0,0,.59.1H6.12a1,1,0,1,0,1-1.34Z" fill="#50e6ff" /><path d="M8,11.29l4.5-4.5a.54.54,0,0,1,.76,0l4.49,4.5a.24.24,0,0,1-.17.41H14.86a.24.24,0,0,0-.24.24v5.61a.19.19,0,0,1-.19.19h-3a.18.18,0,0,1-.19-.19V11.94A.24.24,0,0,0,11,11.7H8.21A.24.24,0,0,1,8,11.29Z" fill="url(#e45c6200-6488-4339-a709-a13bd54e49f3)" /></g></g></svg>