<svg xmlns="http://www.w3.org/2000/svg" width="24px" height="24px" viewBox="0 0 24 24"><defs><style>.cls-1{fill:#4285f4;}.cls-2{fill:#aecbfa;}</style></defs><title>Icon_24px_Endpoints_Color</title><g data-name="Product Icons"><g data-name="colored-32/endpoints"><g ><polygon class="cls-1" points="15 10 9 10 8 12 9 14 15 14 16 12 15 10"/><polygon id="Shape-2" data-name="Shape" class="cls-2" points="16 12 15 10 9.51 10 9 10 8 12 16 12"/></g></g><polygon class="cls-1" points="18 6 15 6 18.97 12 20.47 9.75 18 6"/><polygon class="cls-2" points="21.95 12 20.47 9.75 18.97 12 18.97 12 15 18 18 18 21.95 12"/><polygon class="cls-1" points="5.95 18 8.95 18 4.98 12 3.48 14.25 5.95 18"/><polygon class="cls-2" points="2 12 3.48 14.25 4.98 12 4.98 12 8.95 6 5.95 6 2 12"/></g></svg>