<svg xmlns="http://www.w3.org/2000/svg" width="24px" height="24px" viewBox="0 0 24 24"><defs><style>.cls-1{fill:#669df6;}.cls-2{fill:#aecbfa;}.cls-3{fill:#4285f4;}</style></defs><title>Icon_24px_NetworkTiers_Color</title><g data-name="Product Icons"><path class="cls-1" d="M7.3,15.7A5.92,5.92,0,0,1,6,12H2a9.89,9.89,0,0,0,2.46,6.54Z"/><path class="cls-1" d="M12,2A10,10,0,0,0,5.45,4.45L8.29,7.29A6,6,0,0,1,18,12h4A10,10,0,0,0,12,2Z"/><circle id="Oval-2" class="cls-2" cx="8" cy="19" r="2"/><circle id="Oval-2-2" data-name="Oval-2" class="cls-3" cx="19" cy="16" r="2"/><circle id="Oval-2-3" data-name="Oval-2" class="cls-1" cx="14" cy="20" r="2"/><path class="cls-3" d="M6,12H2a10,10,0,0,0,.44,2.91l4-.79A6,6,0,0,1,6,12Z"/><g data-name="colored-32/network-tiers"><g ><circle id="Oval-2-4" data-name="Oval-2" class="cls-2" cx="5" cy="8" r="2"/></g></g><path class="cls-3" d="M17.61,9.88A6,6,0,0,1,18,12h4a10,10,0,0,0-.43-2.91Z"/></g></svg>