<?xml version="1.0" encoding="UTF-8"?>
<svg width="64px" height="64px" viewBox="0 0 64 64" version="1.1" xmlns="http://www.w3.org/2000/svg" xmlns:xlink="http://www.w3.org/1999/xlink">
    <title>Icon-Architecture/48/Arch_Amazon-EKS-Anywhere_48</title>
    <defs>
        <linearGradient x1="0%" y1="100%" x2="100%" y2="0%" id="linearGradient-1">
            <stop stop-color="#C8511B" offset="0%"></stop>
            <stop stop-color="#FF9900" offset="100%"></stop>
        </linearGradient>
    </defs>
    <g id="Icon-Architecture/48/Arch_Amazon-EKS-Anywhere_48" stroke="none" stroke-width="1" fill="none" fill-rule="evenodd">
        <g id="Rectangle" fill="url(#linearGradient-1)">
            <rect x="0" y="0" width="64" height="64"></rect>
        </g>
        <g id="Icon-Service/48/Amazon-EKS-Anywhere_48" transform="translate(8.000000, 8.000000)" fill="#FFFFFF">
            <path d="M31.998,36.0256158 L32.998,36.0256158 L32.998,35.0256158 L31.998,35.0256158 L31.998,36.0256158 Z M30.998,38.0256158 L33.998,38.0256158 C34.551,38.0256158 34.998,37.5776158 34.998,37.0256158 L34.998,34.0256158 C34.998,33.4736158 34.551,33.0256158 33.998,33.0256158 L30.998,33.0256158 C30.445,33.0256158 29.998,33.4736158 29.998,34.0256158 L29.998,37.0256158 C29.998,37.5776158 30.445,38.0256158 30.998,38.0256158 L30.998,38.0256158 Z M38.998,36.0256158 L39.998,36.0256158 L39.998,35.0256158 L38.998,35.0256158 L38.998,36.0256158 Z M37.998,38.0256158 L40.998,38.0256158 C41.551,38.0256158 41.998,37.5776158 41.998,37.0256158 L41.998,34.0256158 C41.998,33.4736158 41.551,33.0256158 40.998,33.0256158 L37.998,33.0256158 C37.445,33.0256158 36.998,33.4736158 36.998,34.0256158 L36.998,37.0256158 C36.998,37.5776158 37.445,38.0256158 37.998,38.0256158 L37.998,38.0256158 Z M31.998,28.0256158 L32.998,28.0256158 L32.998,27.0256158 L31.998,27.0256158 L31.998,28.0256158 Z M30.998,30.0256158 L33.998,30.0256158 C34.551,30.0256158 34.998,29.5776158 34.998,29.0256158 L34.998,26.0256158 C34.998,25.4736158 34.551,25.0256158 33.998,25.0256158 L30.998,25.0256158 C30.445,25.0256158 29.998,25.4736158 29.998,26.0256158 L29.998,29.0256158 C29.998,29.5776158 30.445,30.0256158 30.998,30.0256158 L30.998,30.0256158 Z M38.998,28.0256158 L39.998,28.0256158 L39.998,27.0256158 L38.998,27.0256158 L38.998,28.0256158 Z M37.998,30.0256158 L40.998,30.0256158 C41.551,30.0256158 41.998,29.5776158 41.998,29.0256158 L41.998,26.0256158 C41.998,25.4736158 41.551,25.0256158 40.998,25.0256158 L37.998,25.0256158 C37.445,25.0256158 36.998,25.4736158 36.998,26.0256158 L36.998,29.0256158 C36.998,29.5776158 37.445,30.0256158 37.998,30.0256158 L37.998,30.0256158 Z M27.998,44.0256158 L43.998,44.0256158 L43.998,23.0256158 L27.998,23.0256158 L27.998,44.0256158 Z M21,43.8286158 L4,33.4396158 L4,13.5546158 L18,4.80461578 L18,11.4456158 L10.47,16.1526158 C10.178,16.3356158 10,16.6556158 10,17.0006158 L10,30.0006158 C10,30.3516158 10.185,30.6766158 10.485,30.8576158 L20.485,36.8576158 C20.79,37.0396158 21.168,37.0486158 21.479,36.8786158 L25.998,34.4136158 L25.998,40.7746158 L21,43.8286158 Z M32.485,16.1266158 L24,11.4116158 L24,4.74861578 L39,13.5716158 L39,21.0256158 L33,21.0256158 L33,17.0006158 C33,16.6366158 32.803,16.3026158 32.485,16.1266158 L32.485,16.1266158 Z M44.998,21.0256158 L41,21.0256158 L41,13.0006158 C41,12.6456158 40.813,12.3186158 40.507,12.1386158 L23.507,2.13861578 C23.199,1.95661578 22.816,1.95461578 22.504,2.13261578 C22.193,2.31061578 22,2.64161578 22,3.00061578 L22,12.0006158 C22,12.3636158 22.197,12.6976158 22.515,12.8746158 L31,17.5886158 L31,21.0256158 L26.998,21.0256158 C26.445,21.0256158 25.998,21.4736158 25.998,22.0256158 L25.998,28.8036158 L21.651,23.3416158 L26.709,17.0006158 L24.463,17.0006158 L20,22.2416158 L20,17.0006158 L18,17.0006158 L18,30.0006158 L20,30.0006158 L20,24.0006158 L24.752,30.0216158 L25.998,30.0216158 L25.998,32.1356158 L21.024,34.8486158 L12,29.4336158 L12,17.5546158 L19.53,12.8486158 C19.822,12.6656158 20,12.3446158 20,12.0006158 L20,3.00061578 C20,2.63661578 19.803,2.30161578 19.485,2.12561578 C19.167,1.94861578 18.778,1.95961578 18.47,2.15261578 L2.47,12.1526158 C2.178,12.3356158 2,12.6556158 2,13.0006158 L2,34.0006158 C2,34.3486158 2.182,34.6716158 2.479,34.8536158 L20.479,45.8536158 C20.639,45.9516158 20.819,46.0006158 21,46.0006158 C21.181,46.0006158 21.361,45.9516158 21.522,45.8536158 L25.998,43.1186158 L25.998,45.0256158 C25.998,45.5776158 26.445,46.0256158 26.998,46.0256158 L44.998,46.0256158 C45.551,46.0256158 45.998,45.5776158 45.998,45.0256158 L45.998,22.0256158 C45.998,21.4736158 45.551,21.0256158 44.998,21.0256158 L44.998,21.0256158 Z" id="Fill-3"></path>
        </g>
    </g>
</svg>