<?xml version="1.0" encoding="UTF-8"?>
<svg width="64px" height="64px" viewBox="0 0 64 64" version="1.1" xmlns="http://www.w3.org/2000/svg" xmlns:xlink="http://www.w3.org/1999/xlink">
    <title>Icon-Architecture/48/Arch_RedHat-OpenShift_48</title>
    <defs>
        <linearGradient x1="0%" y1="100%" x2="100%" y2="0%" id="linearGradient-1">
            <stop stop-color="#C8511B" offset="0%"></stop>
            <stop stop-color="#FF9900" offset="100%"></stop>
        </linearGradient>
    </defs>
    <g id="Icon-Architecture/48/Arch_RedHat-OpenShift_48" stroke="none" stroke-width="1" fill="none" fill-rule="evenodd">
        <g id="Rectangle" fill="url(#linearGradient-1)">
            <rect x="0" y="0" width="64" height="64"></rect>
        </g>
        <g id="Icon-Service/48/RedHat-OpenShift_48" transform="translate(8.000000, 8.000000)" fill="#FFFFFF">
            <path d="M39.7073636,14.5585139 C39.4173636,14.1025139 39.1053636,13.6675139 38.7723636,13.2545139 L43.6093636,11.2455139 C43.8883636,11.6835139 44.2493636,12.2635139 44.5613636,12.7925139 L39.7073636,14.5585139 Z M43.3423636,23.9105139 L44.1993636,23.5975139 C44.2303636,26.4515139 43.6193636,29.2915139 42.4083636,31.8855139 C37.9213636,41.5055139 26.4443636,45.6825139 16.8243636,41.1985139 C14.2283636,39.9875139 11.9343636,38.2045139 10.1243636,35.9995139 L12.5703636,35.1095139 C12.5753636,35.1075139 12.5793636,35.1045139 12.5843636,35.1025139 L15.3173636,34.1075139 C16.3973636,35.1185139 17.6263636,35.9485139 18.9773636,36.5795139 C22.3983636,38.1755139 26.2413636,38.3405139 29.8003636,37.0465139 C33.3563636,35.7515139 36.1933636,33.1535139 37.7893636,29.7315139 C38.4193636,28.3835139 38.8133636,26.9585139 38.9913636,25.4915139 L43.3423636,23.9105139 Z M3.21036359,30.5075139 L8.01236359,28.7595139 C8.51236359,30.5725139 9.36136359,32.2565139 10.5163636,33.7275139 L5.55036359,35.5355139 C4.53136359,33.9775139 3.74736359,32.2925139 3.21036359,30.5075139 L3.21036359,30.5075139 Z M13.6783636,22.6005139 C13.6933636,23.0615139 13.7323636,23.5255139 13.7943636,23.9895139 L8.91436359,25.7655139 C8.82436359,25.3085139 8.75336359,24.8565139 8.69836359,24.4125139 L13.6783636,22.6005139 Z M32.7443636,17.6295139 C32.4693636,17.7295139 32.2513636,17.9455139 32.1483636,18.2195139 C32.0473636,18.4945139 32.0703636,18.7995139 32.2133636,19.0555139 C33.3873636,21.1615139 33.9133636,23.5285139 33.7353636,25.9005139 C33.7103636,26.2395139 33.8573636,26.5675139 34.1293636,26.7725139 C34.3053636,26.9065139 34.5183636,26.9755139 34.7323636,26.9755139 C34.8483636,26.9755139 34.9633636,26.9555139 35.0743636,26.9155139 L36.8383636,26.2745139 C36.6493636,27.1705139 36.3693636,28.0455139 35.9773636,28.8855139 C34.6063636,31.8245139 32.1703636,34.0555139 29.1153636,35.1675139 C26.0623636,36.2795139 22.7623636,36.1375139 19.8223636,34.7665139 C18.4933636,34.1465139 17.3033636,33.3015139 16.2843636,32.2545139 C16.0083636,31.9725139 15.5943636,31.8775139 15.2263636,32.0125139 L12.5183636,32.9985139 C11.1643636,31.4545139 10.2283636,29.5985139 9.78636359,27.5765139 L15.2553636,25.5855139 C15.7173636,25.4175139 15.9883636,24.9385139 15.8953636,24.4565139 C15.6873636,23.3795139 15.6233636,22.2965139 15.7033636,21.2375139 C15.7283636,20.8985139 15.5813636,20.5695139 15.3113636,20.3645139 C15.0393636,20.1595139 14.6843636,20.1075139 14.3643636,20.2215139 L12.9933636,20.7205139 C13.1823636,19.8175139 13.4583636,18.9425139 13.8443636,18.1135139 C16.6773636,12.0385139 23.9243636,9.40151392 30.0003636,12.2335139 C31.3053636,12.8425139 32.4933636,13.6895139 33.5303636,14.7505139 C33.8163636,15.0435139 34.2523636,15.1325139 34.6293636,14.9755139 L36.8333636,14.0595139 C37.2783636,14.5585139 37.6743636,15.1165139 38.0413636,15.7005139 L32.7443636,17.6295139 Z M35.7623636,24.5375139 C35.7003636,22.6725139 35.2693636,20.8375139 34.4863636,19.1225139 L39.2873636,17.3745139 C40.0243636,19.0875139 40.5073636,20.8825139 40.7273636,22.7325139 L35.7623636,24.5375139 Z M5.61636359,23.4055139 C5.59036359,20.5505139 6.20336359,17.7085139 7.41336359,15.1145139 C11.9003636,5.49351392 23.3763636,1.31951392 32.9973636,5.80251392 C35.5023636,6.97151392 37.7353636,8.68251392 39.5173636,10.7795139 L34.4723636,12.8745139 C33.3853636,11.8625139 32.1683636,11.0375139 30.8463636,10.4205139 C23.7693636,7.12151392 15.3303636,10.1945139 12.0313636,17.2685139 C11.4123636,18.5985139 11.0213636,20.0225139 10.8413636,21.5035139 L5.61636359,23.4055139 Z M46.9003636,12.8975139 C46.3853636,11.8315139 44.9003636,9.55151392 44.8383636,9.45451392 C44.5753636,9.05051392 44.0613636,8.89351392 43.6163636,9.07751392 L41.4393636,9.98051392 C39.4103636,7.43951392 36.8003636,5.37051392 33.8433636,3.98951392 C23.2183636,-0.962486081 10.5533636,3.65051392 5.60136359,14.2685139 C4.05836359,17.5775139 3.39436359,21.2495139 3.68136359,24.8895139 C3.70536359,25.2015139 3.87436359,25.4825139 4.13736359,25.6525139 C4.39836359,25.8215139 4.72836359,25.8565139 5.01936359,25.7505139 L6.77436359,25.1125139 C6.86136359,25.7175139 6.98536359,26.3325139 7.12936359,26.9525139 L1.65836359,28.9445139 C1.17636359,29.1195139 0.905363592,29.6305139 1.03036359,30.1285139 C1.68536359,32.7245139 2.80136359,35.1435139 4.34736359,37.3195139 C4.53936359,37.5895139 4.84636359,37.7405139 5.16236359,37.7405139 C5.27636359,37.7405139 5.39236359,37.7205139 5.50436359,37.6805139 L8.15336359,36.7165139 C10.2153636,39.4035139 12.9013636,41.5755139 15.9783636,43.0115139 C18.8753636,44.3615139 21.9233636,45.0005139 24.9263636,45.0005139 C32.9353636,44.9995139 40.6183636,40.4545139 44.2213636,32.7315139 C45.7653636,29.4235139 46.4263636,25.7505139 46.1333636,22.1125139 C46.1073636,21.8015139 45.9383636,21.5195139 45.6763636,21.3505139 C45.4143636,21.1835139 45.0853636,21.1465139 44.7943636,21.2535139 L42.6583636,22.0305139 L42.6583636,22.0305139 L42.6523636,22.0325139 C42.3703636,20.0265139 41.7913636,18.0865139 40.9543636,16.2335139 L46.3423636,14.2735139 C46.6073636,14.1765139 46.8203636,13.9715139 46.9273636,13.7095139 C47.0333636,13.4475139 47.0233636,13.1525139 46.9003636,12.8975139 L46.9003636,12.8975139 Z" id="Fill-5"></path>
        </g>
    </g>
</svg>