<?xml version="1.0" encoding="UTF-8"?>
<svg width="64px" height="64px" viewBox="0 0 64 64" version="1.1" xmlns="http://www.w3.org/2000/svg" xmlns:xlink="http://www.w3.org/1999/xlink">
    <title>Icon-Architecture/48/Arch_Amazon-EKS-Cloud_48</title>
    <defs>
        <linearGradient x1="0%" y1="100%" x2="100%" y2="0%" id="linearGradient-1">
            <stop stop-color="#C8511B" offset="0%"></stop>
            <stop stop-color="#FF9900" offset="100%"></stop>
        </linearGradient>
    </defs>
    <g id="Icon-Architecture/48/Arch_Amazon-EKS-Cloud_48" stroke="none" stroke-width="1" fill="none" fill-rule="evenodd">
        <g id="Rectangle" fill="url(#linearGradient-1)">
            <rect x="0" y="0" width="64" height="64"></rect>
        </g>
        <g id="Icon-Service/48/Amazon-EKS-Cloud_48" transform="translate(8.000000, 8.000000)" fill="#FFFFFF">
            <path d="M40.812,39.8652228 L24.97,39.8482228 C23.207,39.8462228 21.683,38.5482228 21.502,36.8912228 C21.485,36.7322228 21.475,36.5662228 21.475,36.3912228 C21.475,34.1712228 22.89,33.3442228 24.077,33.0422228 C24.563,32.9182228 24.882,32.4522228 24.823,31.9542228 C24.797,31.7402228 24.784,31.5222228 24.784,31.3012228 C24.784,29.3812228 26.155,27.2392228 27.84,26.5252228 C28.616,26.1962228 29.333,26.0662228 29.983,26.0662228 C31.833,26.0662228 33.139,27.1252228 33.709,27.6982228 C34.335,28.3252228 34.845,29.1652228 35.184,30.1272228 C35.307,30.4762228 35.614,30.7292228 35.979,30.7832228 C36.348,30.8402228 36.711,30.6862228 36.932,30.3892228 C37.341,29.8362228 37.974,29.6032228 38.578,29.7792228 C39.326,29.9982228 39.825,30.7942228 39.924,31.9172228 C39.885,32.4272228 40.24,32.8902228 40.752,32.9782228 C41.695,33.1402228 43.886,33.8012228 43.886,36.4292228 C43.886,39.4882228 41.048,39.8392228 40.812,39.8652228 L40.812,39.8652228 Z M21,43.8282228 L4,33.4392228 L4,13.5542228 L18,4.80422277 L18,11.4462228 L10.47,16.1522228 C10.178,16.3352228 10,16.6552228 10,17.0002228 L10,30.0002228 C10,30.3512228 10.185,30.6772228 10.486,30.8572228 L19.484,36.2562228 C19.483,36.3022228 19.475,36.3442228 19.475,36.3912228 C19.475,36.6422228 19.489,36.8822228 19.514,37.1102228 C19.786,39.6002228 21.811,41.5072228 24.333,41.7912228 L21,43.8282228 Z M32.486,16.1262228 L24,11.4112228 L24,4.74822277 L39,13.5722228 L39,27.8342228 C38.14,27.6202228 37.257,27.7392228 36.5,28.1592228 C36.123,27.4512228 35.663,26.8242228 35.125,26.2852228 C34.481,25.6382228 33.76,25.1472228 33,24.7812228 L33,17.0002228 C33,16.6362228 32.803,16.3022228 32.486,16.1262228 L32.486,16.1262228 Z M41.841,31.1792228 C41.7,30.3982228 41.409,29.7222228 41,29.1752228 L41,13.0002228 C41,12.6452228 40.813,12.3182228 40.507,12.1382228 L23.507,2.13822277 C23.2,1.95622277 22.816,1.95422277 22.504,2.13222277 C22.193,2.31022277 22,2.64122277 22,3.00022277 L22,12.0002228 C22,12.3632228 22.198,12.6982228 22.515,12.8742228 L31,17.5882228 L31,24.1642228 C29.714,23.9732228 28.372,24.1282228 27.061,24.6832228 C26.041,25.1152228 25.138,25.8742228 24.418,26.8002228 L21.651,23.3402228 L26.708,17.0002228 L24.463,17.0002228 L20,22.2412228 L20,17.0002228 L18,17.0002228 L18,30.0002228 L20,30.0002228 L20,24.0002228 L23.454,28.3772228 C23.031,29.3052228 22.784,30.3092228 22.784,31.3012228 L22.784,31.3622228 C21.411,31.9102228 20.423,32.8952228 19.901,34.1742228 L12,29.4332228 L12,17.5542228 L19.531,12.8482228 C19.823,12.6652228 20,12.3442228 20,12.0002228 L20,3.00022277 C20,2.63622277 19.803,2.30222277 19.485,2.12522277 C19.168,1.94922277 18.78,1.95922277 18.47,2.15222277 L2.47,12.1522228 C2.178,12.3352228 2,12.6552228 2,13.0002228 L2,34.0002228 C2,34.3482228 2.182,34.6712228 2.479,34.8532228 L20.479,45.8532228 C20.639,45.9512228 20.82,46.0002228 21,46.0002228 C21.181,46.0002228 21.362,45.9512228 21.522,45.8532228 L28.071,41.8512228 L40.892,41.8622228 C42.62,41.7212228 45.886,40.4052228 45.886,36.4292228 C45.886,33.4042228 43.914,31.7782228 41.841,31.1792228 L41.841,31.1792228 Z" id="Fill-4"></path>
        </g>
    </g>
</svg>