<svg width="24px" height="24px" viewBox="0 0 24 24" version="1.1" xmlns="http://www.w3.org/2000/svg" xmlns:xlink="http://www.w3.org/1999/xlink">
    <g stroke="none" stroke-width="1" fill="none" fill-rule="evenodd">
        <g >
            <rect x="0" y="0" width="24" height="24"></rect>
            <g transform="translate(2.062500, 2.812500)" fill-rule="nonzero">
                <ellipse fill="#185ABC" cx="1.649625" cy="1.65" rx="1.649625" ry="1.65"></ellipse>
                <ellipse fill="#185ABC" cx="1.649625" cy="9.1297616" rx="1.649625" ry="1.65"></ellipse>
                <ellipse fill="#185ABC" cx="1.649625" cy="16.6095232" rx="1.649625" ry="1.65"></ellipse>
                <circle fill="#185ABC" cx="17.6941875" cy="9.13062371" r="2.0625"></circle>
                <path d="M4.88925,10.120268 L8.3773125,10.120268 C8.51476433,9.88190788 8.66401604,9.65069595 8.8245,9.4275116 L9.0331875,9.12631314 C8.8145625,8.82511469 8.605875,8.51387629 8.3971875,8.1223183 L4.88925,8.1223183 C4.96522553,8.38052276 5.01190022,8.64661662 5.028375,8.91547423 L5.028375,9.33715206 C5.01273823,9.60282137 4.96603851,9.86568784 4.88925,10.120268 Z" fill="#669DF6"></path>
                <path d="M11.4380625,6.09424871 L11.2095,5.68261082 L10.93125,5.2207732 L10.494,4.34729768 C9.241875,1.83731057 7.95,0.682716495 5.346375,0.682716495 L4.88925,0.682716495 C4.98314234,1.0088872 5.02999933,1.34703044 5.028375,1.68671134 C5.0302779,2.0264111 4.98341533,2.36459463 4.88925,2.69070619 L5.346375,2.69070619 C6.95625,2.69070619 7.6618125,3.20274356 8.6356875,4.97981443 L8.8741875,5.41153222 L9.1126875,5.89344974 C10.553625,8.80503479 11.5970625,9.90942912 14.011875,10.1503879 C13.932969,9.82166447 13.8929393,9.48464468 13.892625,9.14639304 C13.8937418,8.80690401 13.9405456,8.46914494 14.03175,8.1423982 L14.091375,8.1423982 C12.91875,8.03195876 12.243,7.51992139 11.4380625,6.09424871 Z" fill="#185ABC"></path>
                <path d="M9.6095625,11.485701 L9.3710625,11.9374987 L8.9934375,12.7005348 L8.7549375,13.1523325 L8.526375,13.5639704 C7.612125,15.1804021 6.896625,15.6522796 5.346375,15.6522796 L4.88925,15.6522796 C4.96690716,15.9100795 5.01361706,16.1763741 5.028375,16.4454356 L5.028375,16.8169137 C5.01277982,17.0858764 4.96608733,17.3520717 4.88925,17.6100696 L5.60475,17.6100696 C7.9996875,17.5397899 9.2915625,16.3751559 10.5735,13.9555284 L11.110125,12.8812539 L11.3188125,12.4896959 L11.4976875,12.1583776 C11.641561,11.9075733 11.8008742,11.6661399 11.9746875,11.4355013 C11.3580959,11.202557 10.7864145,10.862807 10.2853125,10.4315064 C10.032207,10.7638576 9.80621522,11.116413 9.6095625,11.485701 Z" fill="#669DF6"></path>
            </g>
        </g>
    </g>
</svg>