<?xml version="1.0" encoding="UTF-8"?>
<svg width="24px" height="24px" viewBox="0 0 24 24" version="1.1" xmlns="http://www.w3.org/2000/svg" xmlns:xlink="http://www.w3.org/1999/xlink">
    <!-- Generator: Sketch 64 (93537) - https://sketch.com -->
    <title>Icon-Architecture/16/Arch_AWS-CloudEndure-Migration_16</title>
    <desc>Created with Sketch.</desc>
    <defs>
        <linearGradient x1="0%" y1="100%" x2="100%" y2="0%" id="linearGradient-1">
            <stop stop-color="#055F4E" offset="0%"></stop>
            <stop stop-color="#56C0A7" offset="100%"></stop>
        </linearGradient>
    </defs>
    <g id="Icon-Architecture/16/Arch_AWS-CloudEndure-Migration_16" stroke="none" stroke-width="1" fill="none" fill-rule="evenodd">
        <g id="Icon-Architecture-BG/16/Migration-Transfer" fill="url(#linearGradient-1)">
            <rect id="Rectangle" x="0" y="0" width="24" height="24"></rect>
        </g>
        <path d="M17.441,9.31470447 C17.276,8.29270447 16.701,7.55370447 15.858,7.30670447 C15.299,7.14470447 14.715,7.23470447 14.234,7.53870447 C13.999,7.07270447 13.707,6.66470447 13.362,6.31770447 C12.05,5.00270447 10.254,4.64670447 8.56,5.36370447 C7.111,5.97770447 6.018,7.67070447 6.018,9.30070447 C6.018,9.33870447 6.018,9.37670447 6.019,9.41370447 C4.747,9.89370447 4,10.9857045 4,12.4077045 C4,12.5137045 4.003,12.6177045 4.011,12.7187045 C4.121,14.1087045 4.689,15.1817045 5.53,15.5877045 C5.609,15.6257045 5.7,15.6697045 6.389,15.6697045 C6.704,15.6697045 7.145,15.6607045 7.766,15.6367045 L7.729,14.6377045 C7.016,14.6637045 6.159,14.6787045 5.912,14.6597045 C5.43,14.3857045 5.086,13.6207045 5.007,12.6407045 C5.002,12.5647045 5,12.4877045 5,12.4077045 C5,10.9067045 6.046,10.4157045 6.67,10.2567045 C6.914,10.1947045 7.073,9.96170447 7.043,9.71270447 C7.027,9.57770447 7.018,9.44070447 7.018,9.30070447 C7.018,8.08870447 7.885,6.73570447 8.951,6.28470447 C10.833,5.48870447 12.167,6.53670447 12.653,7.02370447 C13.051,7.42370447 13.363,7.93670447 13.58,8.54870447 C13.642,8.72370447 13.795,8.84970447 13.978,8.87670447 C14.16,8.89970447 14.343,8.82770447 14.454,8.67870447 C14.727,8.30870447 15.167,8.14670447 15.578,8.26670447 C16.092,8.41770447 16.43,8.96270447 16.483,9.64370447 C16.439,9.91470447 16.622,10.1697045 16.891,10.2157045 C17.495,10.3197045 18.748,10.7427045 18.748,12.4307045 C18.748,14.3987045 17.074,14.6207045 16.91,14.6377045 L15.748,14.6377045 L15.748,15.6347045 L16.949,15.6357045 C17.968,15.5527045 19.748,14.7767045 19.748,12.4307045 C19.748,10.6147045 18.689,9.65270447 17.441,9.31470447 L17.441,9.31470447 Z M14.748,14.6377045 L13.748,14.6377045 L13.748,12.4057045 L8.128,18.9627045 L7.368,18.3127045 L13.089,11.6377045 L10.748,11.6377045 L10.748,10.6377045 L14.748,10.6377045 L14.748,14.6377045 Z" id="AWS-CloudEndure-Migration_Icon_16_Squid" fill="#FFFFFF"></path>
    </g>
</svg>