<?xml version="1.0" encoding="UTF-8"?>
<svg width="24px" height="24px" viewBox="0 0 24 24" version="1.1" xmlns="http://www.w3.org/2000/svg" xmlns:xlink="http://www.w3.org/1999/xlink">
    <!-- Generator: Sketch 64 (93537) - https://sketch.com -->
    <title>Icon-Architecture/16/Arch_AWS-Data-Sync_16</title>
    <desc>Created with Sketch.</desc>
    <defs>
        <linearGradient x1="0%" y1="100%" x2="100%" y2="0%" id="linearGradient-1">
            <stop stop-color="#055F4E" offset="0%"></stop>
            <stop stop-color="#56C0A7" offset="100%"></stop>
        </linearGradient>
    </defs>
    <g id="Icon-Architecture/16/Arch_AWS-Data-Sync_16" stroke="none" stroke-width="1" fill="none" fill-rule="evenodd">
        <g id="Icon-Architecture-BG/16/Migration-Transfer" fill="url(#linearGradient-1)">
            <rect id="Rectangle" x="0" y="0" width="24" height="24"></rect>
        </g>
        <path d="M17.0174582,9.89592537 C16.8562668,8.2591472 15.8901195,7.71086683 15.4536012,7.54456855 C14.9209687,7.34400276 14.329266,7.3681916 13.8316751,7.58185968 C13.624429,6.99124884 13.2650022,6.38753571 12.866529,6.00656148 C11.5930167,4.79107227 8.65152368,4.54616027 7.15975221,5.9995064 C6.04442776,7.08699633 6.01238971,9.24685816 6.01238971,9.48975443 L6.01238971,9.87979948 C5.12733871,9.94127944 4,10.3020963 4,12.4256749 L5.00118891,12.4256749 C5.00118891,10.8755734 5.60290345,10.8755734 6.51298417,10.8755734 C6.78931231,10.8755734 7.01357862,10.6508187 7.01357862,10.3716392 L7.01357862,9.48975443 C7.01357862,8.81750625 7.18978787,7.37423881 7.85657969,6.72416373 C8.99092673,5.61651644 11.3517302,5.94911299 12.1767098,6.73726602 C12.5761842,7.11924812 12.9746574,7.9376372 13.0117014,8.45366579 C13.0267192,8.65624732 13.1598774,8.82960067 13.3521056,8.89511212 C13.5423315,8.95961569 13.7545836,8.90317506 13.8877417,8.74997908 C14.1610663,8.43552416 14.6666667,8.32465864 15.1011827,8.48894118 C15.6978912,8.71470368 16.0392967,9.40509349 16.0392967,10.3827258 C16.0392967,10.6619053 16.263563,10.8866599 16.5398911,10.8866599 C17.7553345,10.8866599 18.9988111,11.1305641 18.9988111,12.9346484 C18.9988111,14.8062599 17.615168,14.9171254 17.4729992,14.9241805 L15.5016582,14.9241805 L15.5016582,15.9320488 L17.4860146,15.9320488 C18.3550466,15.9098757 20,15.2557692 20,12.9346484 C20,11.6224038 19.4673675,10.0723023 17.0174582,9.89592537 L17.0174582,9.89592537 Z M14.7697891,13.9757764 C14.9079532,14.0695081 14.9900507,14.2267356 14.9900507,14.3940417 C14.9900507,14.5613479 14.906952,14.7175675 14.7687879,14.8112992 L11.7381891,16.8663427 C11.584006,16.9701532 11.3867718,16.9802319 11.2225768,16.8935552 C11.059383,16.8058706 10.9572617,16.6355409 10.9572617,16.4480774 L10.9572617,15.9169308 L7.50215881,15.9169308 C7.22583067,15.9169308 7.00156436,15.6911683 7.00156436,15.4129966 L7.00156436,15.3525245 L5.44872036,16.42792 L7.015581,17.5295201 L7.015581,17.4206703 C7.015581,17.1424987 7.23884613,16.9167362 7.51617546,16.9167362 L9.52656279,16.9167362 L9.52656279,17.9246045 L8.01676991,17.9246045 L8.01676991,18.4960658 C8.01676991,18.6835293 7.91264627,18.8558748 7.7474501,18.9425515 C7.67436331,18.9808505 7.59526938,19 7.51617546,19 C7.41505538,19 7.31493649,18.9687561 7.22983543,18.908284 L4.28433765,16.8381224 C4.14917715,16.7433828 4.06908203,16.5881711 4.07007395,16.4238885 C4.07108441,16.2575903 4.15117953,16.1033864 4.28734122,16.0096547 L7.21882235,13.9788 C7.37300544,13.8719659 7.57124085,13.8608794 7.73543583,13.9475561 C7.900632,14.0342327 8.00275327,14.2065782 8.00275327,14.3930339 L8.00275327,14.9090624 L11.4578562,14.9090624 C11.7351855,14.9090624 11.9584507,15.134825 11.9584507,15.4129966 L11.9584507,15.501689 L13.5943933,14.392026 L11.9584507,13.2793394 L11.9584507,13.4285039 C11.9584507,13.7076834 11.7351855,13.932438 11.4578562,13.932438 L9.48751643,13.932438 L9.48751643,12.9245697 L10.9572617,12.9245697 L10.9572617,12.3299274 C10.9572617,12.1434717 11.0603842,11.9721341 11.223578,11.8854575 C11.3857706,11.796765 11.5850072,11.8068437 11.7391903,11.9126699 L14.7697891,13.9757764 Z" id="AWS-Data-Sync_Icon_16_Squid" fill="#FFFFFF"></path>
    </g>
</svg>