<?xml version="1.0" encoding="UTF-8"?>
<svg width="24px" height="24px" viewBox="0 0 24 24" version="1.1" xmlns="http://www.w3.org/2000/svg" xmlns:xlink="http://www.w3.org/1999/xlink">
    <!-- Generator: Sketch 64 (93537) - https://sketch.com -->
    <title>Icon-Architecture/16/Arch_AWS-Server-Migration-Service_16</title>
    <desc>Created with Sketch.</desc>
    <defs>
        <linearGradient x1="0%" y1="100%" x2="100%" y2="0%" id="linearGradient-1">
            <stop stop-color="#055F4E" offset="0%"></stop>
            <stop stop-color="#56C0A7" offset="100%"></stop>
        </linearGradient>
    </defs>
    <g id="Icon-Architecture/16/Arch_AWS-Server-Migration-Service_16" stroke="none" stroke-width="1" fill="none" fill-rule="evenodd">
        <g id="Icon-Architecture-BG/16/Migration-Transfer" fill="url(#linearGradient-1)">
            <rect id="Rectangle" x="0" y="0" width="24" height="24"></rect>
        </g>
        <path d="M6.94950677,10 L9.87376693,10 L9.87376693,9 L6.94950677,9 L6.94950677,10 Z M6.94950677,8 L9.87376693,8 L9.87376693,7 L6.94950677,7 L6.94950677,8 Z M14.7475339,19 L15.7222872,19 L15.7222872,17 L14.7475339,17 L14.7475339,19 Z M11.8232737,20 L12.7980271,20 L12.7980271,17 L11.8232737,17 L11.8232737,20 Z M8.89901354,19 L9.87376693,19 L9.87376693,17 L8.89901354,17 L8.89901354,19 Z M5.97475339,15 L10.8485203,15 L10.8485203,6 L5.97475339,6 L5.97475339,15 Z M11.8232737,15.5 C11.8232737,15.776 11.6049289,16 11.335897,16 L5.48737669,16 C5.21834476,16 5,15.776 5,15.5 L5,5.5 C5,5.224 5.21834476,5 5.48737669,5 L11.335897,5 C11.6049289,5 11.8232737,5.224 11.8232737,5.5 L11.8232737,15.5 Z M19.9995051,13.167 C20.0151012,14.066 19.6622404,14.782 18.9185036,15.346 C18.1231048,15.955 17.1415282,15.998 17.0996138,16 L13.7727805,16 L13.7727805,15 L17.083043,15 C17.0723207,15 17.7897392,14.963 18.3385253,14.543 C18.829801,14.169 19.0344992,13.761 19.0247517,13.176 C19.0247517,12.174 18.4067581,11.368 17.5879652,11.291 C17.3218575,11.266 17.1239826,11.024 17.1473767,10.751 C17.1483514,10.739 17.1590737,10.654 17.1610232,10.642 C17.173695,10.56 17.1863668,10.475 17.0586741,10.192 C16.9923909,10.044 16.8763953,9.917 16.7409045,9.845 C16.2915432,9.603 15.8265859,9.65 15.5010182,9.97 C15.3830731,10.086 15.2154155,10.135 15.0555559,10.096 C14.8966711,10.059 14.7660542,9.942 14.7085437,9.785 C14.3449607,8.792 13.4491623,8.095 12.4256713,8.009 C12.3545143,8.003 12.280433,8 12.205377,8 L12.205377,7 C12.3048019,7 12.4042267,7.004 12.5026768,7.012 C13.7006487,7.113 14.7680037,7.822 15.3616285,8.872 C15.9191874,8.605 16.5800702,8.629 17.1941649,8.959 C17.5207072,9.136 17.7858402,9.424 17.9427755,9.771 C18.0577964,10.025 18.1114078,10.222 18.1328524,10.385 C19.2236014,10.716 19.9995051,11.833 19.9995051,13.167 L19.9995051,13.167 Z" id="AWS-Server-Migration-Service_Icon_16_Squid" fill="#FFFFFF"></path>
    </g>
</svg>