<?xml version="1.0" encoding="UTF-8"?>
<svg width="24px" height="24px" viewBox="0 0 24 24" version="1.1" xmlns="http://www.w3.org/2000/svg" xmlns:xlink="http://www.w3.org/1999/xlink">
    <!-- Generator: Sketch 64 (93537) - https://sketch.com -->
    <title>Icon-Architecture/16/Arch_AWS-Application-Discovery-Service_16</title>
    <desc>Created with Sketch.</desc>
    <defs>
        <linearGradient x1="0%" y1="100%" x2="100%" y2="0%" id="linearGradient-1">
            <stop stop-color="#055F4E" offset="0%"></stop>
            <stop stop-color="#56C0A7" offset="100%"></stop>
        </linearGradient>
    </defs>
    <g id="Icon-Architecture/16/Arch_AWS-Application-Discovery-Service_16" stroke="none" stroke-width="1" fill="none" fill-rule="evenodd">
        <g id="Icon-Architecture-BG/16/Migration-Transfer" fill="url(#linearGradient-1)">
            <rect id="Rectangle" x="0" y="0" width="24" height="24"></rect>
        </g>
        <path d="M7.99181414,12.029029 L10.9976983,12.029029 L10.9976983,11.028028 L7.99181414,11.028028 L7.99181414,12.029029 Z M18.9051775,17.3513514 L14.8642672,13.5465465 C14.4975494,14.044044 14.0556844,14.4824825 13.5547037,14.8488488 L17.3721766,18.8318318 C17.4413119,18.9019019 17.6487179,18.966967 17.9362808,18.9369369 C18.2238437,18.9099099 18.4983812,18.7967968 18.6506793,18.6446446 C18.8099911,18.4854855 18.9412481,18.1941942 18.9833305,17.9029029 C19.0254128,17.6196196 18.9723089,17.4174174 18.9051775,17.3513514 L18.9051775,17.3513514 Z M9.95565844,15.026026 C12.7571425,15.026026 15.0366046,12.7737738 15.0366046,10.005005 C15.0366046,7.24524525 12.7571425,5.001001 9.95565844,5.001001 C7.1782215,5.001001 5.00196138,7.1991992 5.00196138,10.005005 C5.00196138,12.8208208 7.1782215,15.026026 9.95565844,15.026026 L9.95565844,15.026026 Z M19.9752722,18.048048 C19.9011271,18.5535536 19.6716779,19.041041 19.359066,19.3533534 C19.0414442,19.6706707 18.5574969,19.8828829 18.0334711,19.9339339 C17.9553181,19.9409409 17.8781671,19.9449449 17.802018,19.9449449 C17.3331001,19.9449449 16.9222959,19.7997998 16.6557742,19.5325325 L12.6789895,15.3823824 C11.8593851,15.7907908 10.9355767,16.027027 9.95565844,16.027027 C6.61612116,16.027027 4,13.3823824 4,10.005005 C4,6.63763764 6.61612116,4 9.95565844,4 C13.3102251,4 16.038566,6.69369369 16.038566,10.005005 C16.038566,10.964965 15.804107,11.8698699 15.3993146,12.6756757 L19.6025426,16.6326326 C19.9271781,16.956957 20.059437,17.4684685 19.9752722,18.048048 L19.9752722,18.048048 Z M12.5166717,6.95595596 L7.99181414,6.95595596 L7.99181414,7.95695696 L12.015691,7.95695696 L12.015691,12.992993 L13.0176524,12.992993 L13.0176524,7.45645646 C13.0176524,7.17917918 12.7932131,6.95595596 12.5166717,6.95595596 L12.5166717,6.95595596 Z M11.0187395,18.998999 L6.98985276,18.998999 L6.98985276,15.995996 L5.98789138,15.995996 L5.98789138,19.4994995 C5.98789138,19.7767768 6.21233073,20 6.48887207,20 L11.5197202,20 C11.7962615,20 12.0207008,19.7767768 12.0207008,19.4994995 L12.0207008,16.996997 L11.0187395,16.996997 L11.0187395,18.998999 Z M6.98985276,10.021021 L10.9976983,10.021021 L10.9976983,9.02002002 L6.98985276,9.02002002 L6.98985276,10.021021 Z" id="AWS-Application-Discovery-Service_Icon_16_Squid" fill="#FFFFFF"></path>
    </g>
</svg>