<?xml version="1.0" encoding="UTF-8"?>
<svg width="24px" height="24px" viewBox="0 0 24 24" version="1.1" xmlns="http://www.w3.org/2000/svg" xmlns:xlink="http://www.w3.org/1999/xlink">
    <title>Icon-Architecture/16/Arch_AWS-Migration-Evaluator_16</title>
    <defs>
        <linearGradient x1="0%" y1="100%" x2="100%" y2="0%" id="linearGradient-1">
            <stop stop-color="#055F4E" offset="0%"></stop>
            <stop stop-color="#56C0A7" offset="100%"></stop>
        </linearGradient>
    </defs>
    <g id="Icon-Architecture/16/Arch_AWS-Migration-Evaluator_16" stroke="none" stroke-width="1" fill="none" fill-rule="evenodd">
        <g id="Rectangle" fill="url(#linearGradient-1)">
            <rect x="0" y="0" width="24" height="24"></rect>
        </g>
        <g id="Icon-Service/16/AWS-Migration-Evaluator_16" transform="translate(4.000000, 4.000000)" fill="#FFFFFF">
            <path d="M7.894,8.36775 C7.619,8.36775 7.394,8.14375 7.394,7.86775 C7.394,7.59175 7.619,7.36775 7.894,7.36775 C8.169,7.36775 8.394,7.59175 8.394,7.86775 C8.394,8.14375 8.169,8.36775 7.894,8.36775 L7.894,8.36775 Z M7.894,6.36775 C7.067,6.36775 6.394,7.04075 6.394,7.86775 C6.394,8.69475 7.067,9.36775 7.894,9.36775 C8.721,9.36775 9.394,8.69475 9.394,7.86775 C9.394,7.04075 8.721,6.36775 7.894,6.36775 L7.894,6.36775 Z M10.068,9.51675 C9.955,9.56775 9.865,9.65775 9.814,9.77075 L7.921,14.02975 L6.042,9.80175 C5.992,9.68775 5.902,9.59775 5.789,9.54775 L1.732,7.74475 L5.924,5.88175 C6.038,5.83075 6.127,5.74075 6.178,5.62775 L7.921,1.70475 L9.678,5.65775 C9.729,5.77075 9.819,5.86175 9.932,5.91175 L14.056,7.74475 L10.068,9.51675 Z M12.305,12.25875 L10.168,11.43675 L10.65,10.35275 L11.437,10.00275 L12.305,12.25875 Z M3.484,12.19175 L4.33,9.99375 L5.206,10.38375 L5.641,11.36175 L3.484,12.19175 Z M3.589,3.54375 L5.657,4.33875 L5.342,5.04575 L4.339,5.49175 L3.589,3.54375 Z M12.199,3.47675 L11.427,5.48175 L10.514,5.07575 L10.153,4.26375 L12.199,3.47675 Z M15.491,7.28775 L12.342,5.88875 L13.536,2.78575 C13.607,2.60075 13.562,2.39175 13.422,2.25275 C13.282,2.11175 13.073,2.06775 12.889,2.13875 L9.746,3.34775 L8.378,0.27075 C8.218,-0.09025 7.624,-0.09025 7.464,0.27075 L6.063,3.42375 L2.899,2.20675 C2.714,2.13575 2.506,2.17975 2.366,2.31975 C2.226,2.45975 2.181,2.66875 2.252,2.85275 L3.423,5.89775 L0.297,7.28775 C0.117,7.36775 0,7.54675 0,7.74475 C0,7.94275 0.117,8.12075 0.297,8.20175 L3.414,9.58675 L2.146,12.88275 C2.075,13.06675 2.12,13.27575 2.259,13.41575 C2.355,13.51175 2.483,13.56175 2.613,13.56175 C2.673,13.56175 2.734,13.55175 2.792,13.52875 L6.048,12.27675 L7.464,15.46475 C7.544,15.64475 7.724,15.76175 7.921,15.76175 C8.119,15.76175 8.298,15.64475 8.378,15.46475 L9.761,12.35175 L12.996,13.59675 C13.054,13.61875 13.115,13.62975 13.175,13.62975 C13.305,13.62975 13.433,13.57875 13.529,13.48275 C13.668,13.34375 13.713,13.13475 13.642,12.94975 L12.353,9.59675 L15.491,8.20175 C15.671,8.12075 15.788,7.94275 15.788,7.74475 C15.788,7.54675 15.671,7.36775 15.491,7.28775 L15.491,7.28775 Z" id="AWS-Migration-Evaluator_Icon_16_Squid"></path>
        </g>
    </g>
</svg>