<svg xmlns="http://www.w3.org/2000/svg" width="24px" height="24px" viewBox="0 0 24 24"><defs><style>.cls-1{fill:none;}.cls-2,.cls-5{fill:#4285f4;}.cls-3{fill:#aecbfa;}.cls-4{fill:#669df6;}.cls-4,.cls-5{fill-rule:evenodd;}</style></defs><title>Icon_24px_Jobs_Color</title><g data-name="Product Icons"><rect class="cls-1" x="2" y="2" width="20" height="20"/><g ><g ><path id="Fill-1" class="cls-2" d="M6.45,18.24a3,3,0,1,1,3-3A3,3,0,0,1,6.45,18.24Zm3.63-.4A4.43,4.43,0,1,0,2,15.32a4.91,4.91,0,0,0,0,.67,3.43,3.43,0,0,0,.09.44l.06.21a4.59,4.59,0,0,0,.34.79,4.24,4.24,0,0,0,.76,1l.15.15.33.27a4.16,4.16,0,0,0,.73.44A4.44,4.44,0,0,0,9,19l2.93,2.93a.33.33,0,0,0,.47,0l.66-.65a.33.33,0,0,0,0-.47Z"/><path class="cls-3" d="M11.8,16.58A5.41,5.41,0,0,0,12,15.07,5.53,5.53,0,0,0,6.39,9.65,5.82,5.82,0,0,0,4.47,10V5.83a.62.62,0,0,1,.62-.62H21.28a.63.63,0,0,1,.63.62V16a.63.63,0,0,1-.63.63Z"/><path id="Fill-4-path" class="cls-4" d="M15.58,5.21V3.73H11.14V5.21H9.65V2.87a.63.63,0,0,1,.63-.62h6.16a.62.62,0,0,1,.62.62V5.21Z"/></g><polygon id="Path-4" class="cls-5" points="15.58 5.21 17.06 4.74 17.06 5.21 15.58 5.21"/><polygon class="cls-5" points="9.64 5.21 11.13 4.67 11.13 5.21 9.64 5.21"/></g></g></svg>