<svg version="1.1" baseProfile="tiny" id="Layer_1" xmlns="http://www.w3.org/2000/svg" xmlns:xlink="http://www.w3.org/1999/xlink"
	 x="0px" y="0px" width="24px" height="24px" viewBox="0 0 24 24" overflow="visible" xml:space="preserve">
<g >
	<rect y="0" fill="none" width="24" height="24"/>
	<g transform="translate(2.000000, 2.000000)">
		<path fill-rule="evenodd" fill="#5C85DE" d="M10,10c2.9,0,5.2-2.3,5.2-5.2c0-2.9-2.3-5.2-5.2-5.2S4.8,1.9,4.8,4.8
			C4.8,7.7,7.1,10,10,10L10,10z"/>
		<path fill-rule="evenodd" fill="#5C85DE" d="M10,12.7c-3.5,0-10.5,1.7-10.5,5.2v2.6h21v-2.6C20.5,14.4,13.5,12.7,10,12.7L10,12.7z
			"/>
		<path fill-rule="evenodd" fill="#3367D6" d="M10,10c2.9,0,5.2-2.3,5.2-5.2c0-2.9-2.3-5.2-5.2-5.2V10L10,10z"/>
		<path fill-rule="evenodd" fill="#3367D6" d="M10,12.7v7.8h10.5v-2.6C20.5,14.4,13.5,12.7,10,12.7L10,12.7z"/>
	</g>
</g>
</svg>
