<?xml version="1.0" encoding="UTF-8"?>
<svg width="64px" height="64px" viewBox="0 0 64 64" version="1.1" xmlns="http://www.w3.org/2000/svg" xmlns:xlink="http://www.w3.org/1999/xlink">
    <!-- Generator: Sketch 64 (93537) - https://sketch.com -->
    <title>Icon-Architecture/48/Arch_AWS-Migration-Hub_48</title>
    <desc>Created with Sketch.</desc>
    <defs>
        <linearGradient x1="0%" y1="100%" x2="100%" y2="0%" id="linearGradient-1">
            <stop stop-color="#055F4E" offset="0%"></stop>
            <stop stop-color="#56C0A7" offset="100%"></stop>
        </linearGradient>
    </defs>
    <g id="Icon-Architecture/48/Arch_AWS-Migration-Hub_48" stroke="none" stroke-width="1" fill="none" fill-rule="evenodd">
        <g id="Icon-Architecture-BG/48/Migration-Transfer" fill="url(#linearGradient-1)">
            <rect id="Rectangle" x="0" y="0" width="64" height="64"></rect>
        </g>
        <path d="M39.371,27.657 L38.07,29.176 L31.721,23.733 L25.371,29.176 L24.07,27.657 L31.07,21.657 C31.443,21.336 31.998,21.336 32.371,21.657 L39.371,27.657 Z M32.371,31.657 L39.371,37.657 L38.07,39.176 L31.721,33.733 L25.371,39.176 L24.07,37.657 L31.07,31.657 C31.443,31.336 31.998,31.336 32.371,31.657 L32.371,31.657 Z M39.371,32.657 L38.07,34.176 L31.721,28.733 L25.371,34.176 L24.07,32.657 L31.07,26.657 C31.443,26.336 31.998,26.336 32.371,26.657 L39.371,32.657 Z M44.211,44.114 C43.56,44.763 42.428,44.763 41.777,44.114 C41.106,43.442 41.106,42.35 41.777,41.679 C42.102,41.355 42.534,41.176 42.994,41.176 C43.454,41.176 43.886,41.355 44.211,41.679 C44.882,42.35 44.882,43.442 44.211,44.114 L44.211,44.114 Z M32.937,50.329 C32.287,50.978 31.154,50.978 30.504,50.329 C30.179,50.004 30,49.572 30,49.112 C30,48.653 30.179,48.22 30.504,47.895 C30.829,47.571 31.261,47.391 31.721,47.391 C32.181,47.391 32.612,47.571 32.937,47.895 C33.263,48.22 33.441,48.653 33.441,49.112 C33.441,49.572 33.263,50.004 32.937,50.329 L32.937,50.329 Z M20.013,44.118 C19.687,43.793 19.509,43.361 19.509,42.901 C19.509,42.442 19.687,42.01 20.013,41.684 C20.338,41.36 20.769,41.18 21.229,41.18 C21.689,41.18 22.121,41.36 22.446,41.684 C22.771,42.01 22.95,42.442 22.95,42.901 C22.95,43.361 22.771,43.793 22.446,44.118 C21.796,44.767 20.663,44.767 20.013,44.118 L20.013,44.118 Z M40.363,40.265 C39.393,41.236 39.088,42.609 39.415,43.849 L34.444,46.595 C34.411,46.558 34.387,46.517 34.351,46.481 C32.9,45.03 30.541,45.03 29.09,46.481 C29.07,46.501 29.058,46.524 29.039,46.544 L24.77,43.984 C25.157,42.711 24.865,41.275 23.86,40.27 C22.409,38.819 20.05,38.819 18.599,40.27 C17.147,41.721 17.147,44.081 18.599,45.532 C19.324,46.258 20.276,46.62 21.229,46.62 C22.113,46.62 22.989,46.294 23.691,45.67 L28.096,48.311 C27.833,49.51 28.159,50.813 29.09,51.743 C29.815,52.469 30.767,52.831 31.721,52.831 C32.674,52.831 33.626,52.469 34.351,51.743 C35.266,50.829 35.601,49.554 35.363,48.372 L40.424,45.577 C41.142,46.265 42.065,46.615 42.994,46.615 C43.947,46.615 44.899,46.253 45.625,45.528 C47.075,44.076 47.075,41.716 45.625,40.265 C44.174,38.814 41.814,38.814 40.363,40.265 L40.363,40.265 Z M47.268,37.626 C46.319,37.626 45.548,36.854 45.548,35.905 C45.548,34.956 46.319,34.184 47.268,34.184 C48.218,34.184 48.989,34.956 48.989,35.905 C48.989,36.854 48.218,37.626 47.268,37.626 L47.268,37.626 Z M46,22.69 C46,21.74 46.771,20.969 47.721,20.969 C48.67,20.969 49.441,21.74 49.441,22.69 C49.441,23.638 48.67,24.41 47.721,24.41 C46.771,24.41 46,23.638 46,22.69 L46,22.69 Z M35.714,17.441 C34.765,17.441 33.993,16.669 33.993,15.72 C33.993,14.772 34.765,14 35.714,14 C36.663,14 37.434,14.772 37.434,15.72 C37.434,16.669 36.663,17.441 35.714,17.441 L35.714,17.441 Z M48.721,32.48 L48.721,26.257 C50.285,25.817 51.441,24.393 51.441,22.69 C51.441,20.638 49.772,18.969 47.721,18.969 C46.821,18.969 46.006,19.303 45.362,19.836 L39.346,16.512 C39.401,16.257 39.434,15.993 39.434,15.72 C39.434,13.669 37.766,12 35.714,12 C33.662,12 31.993,13.669 31.993,15.72 C31.993,17.772 33.662,19.441 35.714,19.441 C36.773,19.441 37.725,18.99 38.404,18.278 L44.217,21.488 C44.086,21.867 44,22.267 44,22.69 C44,24.393 45.156,25.817 46.721,26.257 L46.721,32.24 C44.93,32.507 43.548,34.041 43.548,35.905 C43.548,37.957 45.217,39.626 47.268,39.626 C49.32,39.626 50.989,37.957 50.989,35.905 C50.989,34.368 50.053,33.047 48.721,32.48 L48.721,32.48 Z M16.173,37.626 C15.224,37.626 14.452,36.854 14.452,35.905 C14.452,34.956 15.224,34.184 16.173,34.184 C17.122,34.184 17.893,34.956 17.893,35.905 C17.893,36.854 17.122,37.626 16.173,37.626 L16.173,37.626 Z M14,22.69 C14,21.74 14.771,20.969 15.721,20.969 C16.67,20.969 17.441,21.74 17.441,22.69 C17.441,23.638 16.67,24.41 15.721,24.41 C14.771,24.41 14,23.638 14,22.69 L14,22.69 Z M27.707,14 C28.656,14 29.428,14.772 29.428,15.72 C29.428,16.669 28.656,17.441 27.707,17.441 C26.758,17.441 25.986,16.669 25.986,15.72 C25.986,14.772 26.758,14 27.707,14 L27.707,14 Z M19.893,35.905 C19.893,34.041 18.512,32.507 16.721,32.24 L16.721,26.257 C18.285,25.817 19.441,24.393 19.441,22.69 C19.441,22.267 19.355,21.867 19.225,21.488 L25.023,18.285 C25.701,18.994 26.65,19.441 27.707,19.441 C29.759,19.441 31.428,17.772 31.428,15.72 C31.428,13.669 29.759,12 27.707,12 C25.655,12 23.986,13.669 23.986,15.72 C23.986,15.996 24.021,16.263 24.078,16.522 L18.079,19.836 C17.435,19.303 16.62,18.969 15.721,18.969 C13.669,18.969 12,20.638 12,22.69 C12,24.393 13.156,25.817 14.721,26.257 L14.721,32.48 C13.389,33.047 12.452,34.368 12.452,35.905 C12.452,37.957 14.121,39.626 16.173,39.626 C18.225,39.626 19.893,37.957 19.893,35.905 L19.893,35.905 Z" id="AWS-Migration-Hub_Icon_48_Squid" fill="#FFFFFF"></path>
    </g>
</svg>