<?xml version="1.0" encoding="UTF-8"?>
<svg width="64px" height="64px" viewBox="0 0 64 64" version="1.1" xmlns="http://www.w3.org/2000/svg" xmlns:xlink="http://www.w3.org/1999/xlink">
    <!-- Generator: Sketch 64 (93537) - https://sketch.com -->
    <title>Icon-Architecture/48/Arch_AWS-Application-Discovery-Service_48</title>
    <desc>Created with Sketch.</desc>
    <defs>
        <linearGradient x1="0%" y1="100%" x2="100%" y2="0%" id="linearGradient-1">
            <stop stop-color="#055F4E" offset="0%"></stop>
            <stop stop-color="#56C0A7" offset="100%"></stop>
        </linearGradient>
    </defs>
    <g id="Icon-Architecture/48/Arch_AWS-Application-Discovery-Service_48" stroke="none" stroke-width="1" fill="none" fill-rule="evenodd">
        <g id="Icon-Architecture-BG/48/Migration-Transfer" fill="url(#linearGradient-1)">
            <rect id="Rectangle" x="0" y="0" width="64" height="64"></rect>
        </g>
        <path d="M51.2676642,47.7345728 L41.4705569,37.9349047 C40.6114598,39.1199855 39.6203478,40.1890583 38.5132227,41.1151215 L47.7722692,51.300816 C48.1283094,51.6558402 48.7693819,51.8948565 49.4524591,51.9018569 C50.1835417,51.9268586 50.8286146,51.6618406 51.2676642,51.2228106 C52.2337734,50.2567448 52.0577535,48.5256267 51.2676642,47.7345728 L51.2676642,47.7345728 Z M27.9990343,42.9182444 C36.2269643,42.9182444 42.9197207,35.7767575 42.9197207,27.0001591 C42.9197207,18.4935791 36.5059958,12.0791418 27.9990343,12.0791418 C19.2210422,12.0791418 12.0802351,18.7725981 12.0802351,27.0001591 C12.0802351,35.4797373 19.5190759,42.9182444 27.9990343,42.9182444 L27.9990343,42.9182444 Z M52.7388305,52.6939109 C51.9177377,53.5139669 50.734604,53.9819988 49.4844627,53.9819988 L49.4274563,53.9819988 C48.1973172,53.9669977 47.045187,53.5129668 46.2670991,52.7349137 L36.8270321,42.3522058 C34.2487407,44.0183194 31.2344,44.9973862 27.9990343,44.9973862 C18.4109506,44.9973862 10,36.5878128 10,27.0001591 C10,17.6255199 18.0749127,10 27.9990343,10 C37.6911298,10 44.9999558,17.3084983 44.9999558,27.0001591 C44.9999558,30.3393868 44.1208565,33.4575994 42.6186867,36.1407823 L52.7388305,46.2644726 C54.2550019,47.7825761 54.5780384,50.8547856 52.7388305,52.6939109 L52.7388305,52.6939109 Z M37.9611603,26.998159 C37.9611603,21.0407528 33.9587079,17.0374798 28.0000344,17.0374798 C21.7513282,17.0374798 17.0387956,21.3197718 17.0387956,26.998159 C17.0387956,32.9395641 22.0583629,37.9599064 28.0000344,37.9599064 C33.6796764,37.9599064 37.9611603,33.2475851 37.9611603,26.998159 L37.9611603,26.998159 Z M40.0413954,26.998159 C40.0413954,34.4326659 34.8648103,40.0390481 28.0000344,40.0390481 C20.9312355,40.0390481 14.9585604,34.0666409 14.9585604,26.998159 C14.9585604,20.1336909 20.5661942,14.9583381 28.0000344,14.9583381 C35.0898358,14.9583381 40.0413954,19.9086756 40.0413954,26.998159 L40.0413954,26.998159 Z M33.0005996,19.9976817 L21.9993562,19.9976817 L21.9993562,21.997818 L32.0004866,21.997818 L32.0004866,32.9985681 L34.0007127,32.9985681 L34.0007127,20.9977498 C34.0007127,20.4457122 33.5536621,19.9976817 33.0005996,19.9976817 L33.0005996,19.9976817 Z M20.9992432,33.9986363 L30.0002605,33.9986363 L30.0002605,31.9984999 L20.9992432,31.9984999 L20.9992432,33.9986363 Z M18.9990171,29.9983635 L30.0002605,29.9983635 L30.0002605,27.9982272 L18.9990171,27.9982272 L18.9990171,29.9983635 Z M31.0003736,51.9998636 L16.998791,51.9998636 L16.998791,43.9993181 L14.998565,43.9993181 L14.998565,52.9999318 C14.998565,53.5519695 15.4466156,54 15.998678,54 L32.0004866,54 C32.5535491,54 33.0005996,53.5519695 33.0005996,52.9999318 L33.0005996,46.9995227 L31.0003736,46.9995227 L31.0003736,51.9998636 Z M19.9991301,25.9980908 L30.0002605,25.9980908 L30.0002605,23.9979544 L19.9991301,23.9979544 L19.9991301,25.9980908 Z" id="AWS-Application-Discovery-Service_Icon_48_Squid" fill="#FFFFFF"></path>
    </g>
</svg>