<?xml version="1.0" encoding="UTF-8"?>
<svg width="64px" height="64px" viewBox="0 0 64 64" version="1.1" xmlns="http://www.w3.org/2000/svg" xmlns:xlink="http://www.w3.org/1999/xlink">
    <!-- Generator: Sketch 64 (93537) - https://sketch.com -->
    <title>Icon-Architecture/48/Arch_AWS-Server-Migration-Service_48</title>
    <desc>Created with Sketch.</desc>
    <defs>
        <linearGradient x1="0%" y1="100%" x2="100%" y2="0%" id="linearGradient-1">
            <stop stop-color="#055F4E" offset="0%"></stop>
            <stop stop-color="#56C0A7" offset="100%"></stop>
        </linearGradient>
    </defs>
    <g id="Icon-Architecture/48/Arch_AWS-Server-Migration-Service_48" stroke="none" stroke-width="1" fill="none" fill-rule="evenodd">
        <g id="Icon-Architecture-BG/48/Migration-Transfer" fill="url(#linearGradient-1)">
            <rect id="Rectangle" x="0" y="0" width="64" height="64"></rect>
        </g>
        <path d="M13.9998592,26 L24.9994719,26 L24.9994719,24 L13.9998592,24 L13.9998592,26 Z M13.9998592,22 L24.9994719,22 L24.9994719,20 L13.9998592,20 L13.9998592,22 Z M13.9998592,18 L24.9994719,18 L24.9994719,16 L13.9998592,16 L13.9998592,18 Z M35.9990846,52 L37.9990142,52 L37.9990142,45 L35.9990846,45 L35.9990846,52 Z M30.9992606,54 L32.9991902,54 L32.9991902,45 L30.9992606,45 L30.9992606,54 Z M25.9994367,52 L27.9993662,52 L27.9993662,45 L25.9994367,45 L25.9994367,52 Z M11.9999296,41 L26.9994015,41 L26.9994015,12 L11.9999296,12 L11.9999296,41 Z M28.999331,11 L28.999331,42 C28.999331,42.552 28.5523468,43 27.9993662,43 L10.9999648,43 C10.4469843,43 10,42.552 10,42 L10,11 C10,10.448 10.4469843,10 10.9999648,10 L27.9993662,10 C28.5523468,10 28.999331,10.448 28.999331,11 L28.999331,11 Z M53.9984508,35 C54.0454492,37.533 53.0234852,39.546 50.8775607,41.136 C48.5476427,42.873 45.6787438,42.995 45.557748,43 L35.9990846,43 L35.9990846,41 L45.5207493,41 C45.5067498,41 47.8636668,40.888 49.6856027,39.53 C51.3205451,38.319 52.03352,36.928 51.9985212,35.019 C51.9985212,31.762 49.902595,29.129 47.1236929,28.874 C46.5767121,28.824 46.1727264,28.342 46.2187247,27.795 C46.2267245,27.7 46.239724,27.604 46.2567234,27.501 C46.3027218,27.21 46.3457203,26.936 46.0447309,26.194 C45.727742,25.413 45.1447626,24.782 44.4397874,24.463 C42.94484,23.786 41.3998944,24.004 40.3099328,25.048 C40.0659414,25.281 39.7269533,25.375 39.394965,25.301 C39.0679765,25.227 38.799986,24.992 38.6819901,24.677 C37.4090349,21.281 34.1251506,19 30.5092779,19 L30.5072779,19 C29.9562973,19 29.510313,18.554 29.5083131,18.003 L29.5083131,17.997 C29.510313,17.446 29.9562973,17 30.5072779,17 L30.9992606,17.011 C34.8151263,17.188 38.2690047,19.422 40.0229429,22.786 C41.5748883,21.906 43.4818211,21.833 45.2667583,22.642 C46.4497166,23.178 47.3846837,24.173 47.8976656,25.443 C48.1756558,26.125 48.2716525,26.631 48.2876519,27.045 C51.6035351,27.851 53.9984508,31.097 53.9984508,35 L53.9984508,35 Z" id="AWS-Server-Migration-Service_Icon_48_Squid" fill="#FFFFFF"></path>
    </g>
</svg>