<?xml version="1.0" encoding="UTF-8"?>
<svg width="64px" height="64px" viewBox="0 0 64 64" version="1.1" xmlns="http://www.w3.org/2000/svg" xmlns:xlink="http://www.w3.org/1999/xlink">
    <!-- Generator: Sketch 64 (93537) - https://sketch.com -->
    <title>Icon-Architecture/48/Arch_AWS-CloudEndure-Migration_48</title>
    <desc>Created with Sketch.</desc>
    <defs>
        <linearGradient x1="0%" y1="100%" x2="100%" y2="0%" id="linearGradient-1">
            <stop stop-color="#055F4E" offset="0%"></stop>
            <stop stop-color="#56C0A7" offset="100%"></stop>
        </linearGradient>
    </defs>
    <g id="Icon-Architecture/48/Arch_AWS-CloudEndure-Migration_48" stroke="none" stroke-width="1" fill="none" fill-rule="evenodd">
        <g id="Icon-Architecture-BG/48/Migration-Transfer" fill="url(#linearGradient-1)">
            <rect id="Rectangle" x="0" y="0" width="64" height="64"></rect>
        </g>
        <path d="M47.128,28.4204862 C46.741,25.4824862 45.16,23.3554862 42.814,22.6694862 C41.152,22.1834862 39.415,22.5414862 38.056,23.5784862 C37.358,22.0764862 36.463,20.7724862 35.382,19.6884862 C31.713,16.0074862 26.691,15.0114862 21.954,17.0174862 C17.906,18.7324862 14.855,23.4624862 14.855,28.0204862 C14.855,28.2324862 14.86,28.4464862 14.871,28.6604862 C12.633,29.4354862 9,31.5394862 9,37.0284862 C9,37.3264862 9.012,37.6144862 9.033,37.8954862 C9.375,42.2674862 11.48,45.1494862 14.808,45.8014862 L15.192,43.8384862 C11.934,43.1994862 11.184,39.7434862 11.027,37.7404862 C11.01,37.5114862 11,37.2734862 11,37.0284862 C11,32.4314862 14.168,30.8864862 16.111,30.3714862 C16.126,30.3684862 16.141,30.3654862 16.155,30.3624862 C16.656,30.2504862 16.99,29.7774862 16.93,29.2674862 C16.88,28.8534862 16.855,28.4334862 16.855,28.0204862 C16.855,24.2794862 19.437,20.2554862 22.733,18.8594862 C28.443,16.4394862 32.49,19.6204862 33.966,21.1004862 C35.168,22.3054862 36.107,23.8494862 36.758,25.6884862 C36.881,26.0364862 37.187,26.2894862 37.553,26.3434862 C37.914,26.3974862 38.284,26.2454862 38.505,25.9484862 C39.411,24.7214862 40.884,24.1884862 42.252,24.5884862 C43.911,25.0734862 45.005,26.7644862 45.191,29.1224862 C45.126,29.6514862 45.487,30.1404862 46.015,30.2304862 C47.874,30.5494862 52.2,31.8584862 52.2,37.0954862 C52.2,43.3274862 46.16,43.9264862 45.988,43.9454862 L35,43.9454862 L34,45.9384862 L46.068,45.9424862 C48.881,45.7134862 54.2,43.5704862 54.2,37.0954862 C54.2,31.9484862 50.679,29.2854862 47.128,28.4204862 L47.128,28.4204862 Z M28,40.9454862 L30,40.9454862 L30,33.9454862 L22,33.9454862 L22,35.9454862 L27.021,35.9454862 L16.275,47.2564862 L17.725,48.6344862 L28,37.8184862 L28,40.9454862 Z M41,34.7094862 L27.057,48.6524862 L25.643,47.2384862 L39.936,32.9454862 L32,32.9454862 L32,30.9454862 L43,30.9454862 L43,40.9454862 L41,40.9454862 L41,34.7094862 Z" id="AWS-CloudEndure-Migration_Icon_48_Squid" fill="#FFFFFF"></path>
    </g>
</svg>