<?xml version="1.0" encoding="UTF-8"?>
<svg width="64px" height="64px" viewBox="0 0 64 64" version="1.1" xmlns="http://www.w3.org/2000/svg" xmlns:xlink="http://www.w3.org/1999/xlink">
    <!-- Generator: Sketch 64 (93537) - https://sketch.com -->
    <title>Icon-Architecture/48/Arch_AWS-Transfer-Family_48</title>
    <desc>Created with Sketch.</desc>
    <defs>
        <linearGradient x1="0%" y1="100%" x2="100%" y2="0%" id="linearGradient-1">
            <stop stop-color="#055F4E" offset="0%"></stop>
            <stop stop-color="#56C0A7" offset="100%"></stop>
        </linearGradient>
    </defs>
    <g id="Icon-Architecture/48/Arch_AWS-Transfer-Family_48" stroke="none" stroke-width="1" fill="none" fill-rule="evenodd">
        <g id="Icon-Architecture-BG/48/Migration-Transfer" fill="url(#linearGradient-1)">
            <rect id="Rectangle" x="0" y="0" width="64" height="64"></rect>
        </g>
        <path d="M51.924,21.3825 C51.77,21.7565 51.404,21.9995 51,21.9995 L47,21.9995 L47,27.9995 L49,27.9995 C49.553,27.9995 50,28.4475 50,28.9995 L50,51.9995 C50,52.5515 49.553,52.9995 49,52.9995 L15,52.9995 C13.346,52.9995 12,51.6535 12,49.9995 L12,21.9995 C12,21.4475 12.447,20.9995 13,20.9995 L24.076,20.9995 C24.386,20.9995 24.679,21.1435 24.868,21.3885 L26.884,23.9995 L31,23.9995 L31,25.9995 L26.393,25.9995 C26.083,25.9995 25.79,25.8565 25.601,25.6115 L23.585,22.9995 L14,22.9995 L14,49.9995 C14,50.5505 14.448,50.9995 15,50.9995 C15.552,50.9995 16,50.5505 16,49.9995 L16,28.9995 C16,28.4475 16.447,27.9995 17,27.9995 L31,27.9995 L31,29.9995 L18,29.9995 L18,49.9995 C18,50.3525 17.928,50.6855 17.816,50.9995 L48,50.9995 L48,29.9995 L47,29.9995 L45,29.9995 L43,29.9995 L43,27.9995 L45,27.9995 L45,20.9995 C45,20.4475 45.447,19.9995 46,19.9995 L48.586,19.9995 L43,14.4135 L37.414,19.9995 L40,19.9995 C40.553,19.9995 41,20.4475 41,20.9995 L41,25.9995 L41,29.9995 L41,31.9995 L45,31.9995 C45.404,31.9995 45.77,32.2435 45.924,32.6165 C46.079,32.9905 45.993,33.4205 45.707,33.7065 L37.707,41.7065 C37.512,41.9025 37.256,41.9995 37,41.9995 C36.744,41.9995 36.488,41.9025 36.293,41.7065 L28.293,33.7065 C28.007,33.4205 27.921,32.9905 28.076,32.6165 C28.231,32.2435 28.596,31.9995 29,31.9995 L33,31.9995 L33,25.9995 L35,25.9995 L35,32.9995 C35,33.5515 34.553,33.9995 34,33.9995 L31.414,33.9995 L37,39.5855 L42.586,33.9995 L40,33.9995 C39.447,33.9995 39,33.5515 39,32.9995 L39,29.9995 L39,25.9995 L39,21.9995 L35,21.9995 C34.596,21.9995 34.231,21.7565 34.076,21.3825 C33.921,21.0085 34.007,20.5785 34.293,20.2925 L42.293,12.2925 C42.684,11.9025 43.317,11.9025 43.707,12.2925 L51.707,20.2925 C51.993,20.5785 52.079,21.0085 51.924,21.3825" id="AWS-Transfer-Family_Icon-48_Squid" fill="#FFFFFF"></path>
    </g>
</svg>