<?xml version="1.0" encoding="UTF-8"?>
<svg width="64px" height="64px" viewBox="0 0 64 64" version="1.1" xmlns="http://www.w3.org/2000/svg" xmlns:xlink="http://www.w3.org/1999/xlink">
    <!-- Generator: Sketch 64 (93537) - https://sketch.com -->
    <title>Icon-Architecture/48/Arch_AWS-Data-Sync_48</title>
    <desc>Created with Sketch.</desc>
    <defs>
        <linearGradient x1="0%" y1="100%" x2="100%" y2="0%" id="linearGradient-1">
            <stop stop-color="#055F4E" offset="0%"></stop>
            <stop stop-color="#56C0A7" offset="100%"></stop>
        </linearGradient>
    </defs>
    <g id="Icon-Architecture/48/Arch_AWS-Data-Sync_48" stroke="none" stroke-width="1" fill="none" fill-rule="evenodd">
        <g id="Icon-Architecture-BG/48/Migration-Transfer" fill="url(#linearGradient-1)">
            <rect id="Rectangle" x="0" y="0" width="64" height="64"></rect>
        </g>
        <path d="M46.914556,25.08266 C46.419455,21.7622071 44.427049,20.0234463 42.6286825,19.4982165 C41.1193749,19.0560231 39.5900632,19.3371461 38.3678141,20.2265352 C37.6546687,18.6858611 36.7244792,17.2932518 35.7132731,16.2788079 C32.3005776,12.8533091 28.2287477,12.1069825 23.6128069,14.0628383 C19.5569804,15.7815903 16.0012557,20.8868241 16.0012557,24.9886188 L16.0012557,25.2797462 C12.6805789,26.4042382 11.0002364,28.9943715 11.0002364,32.9901199 L13.0006441,32.9901199 C13.0006441,29.5966351 14.3109112,27.7478261 17.2495101,26.9954969 C17.6916002,26.8824475 18.0016634,26.4832728 18.0016634,26.0260728 L18.0016634,24.9886188 C18.0016634,21.7121852 21.1072963,17.2972535 24.3919657,15.9056446 C28.2387497,14.276932 31.4754094,14.8611876 34.2969844,17.691426 C35.3922076,18.7919075 36.4274186,20.5226648 37.0625481,22.3214518 C37.1855731,22.6696042 37.4916355,22.9227149 37.8577101,22.977739 C38.2217843,23.0297617 38.5908595,22.8786956 38.8099042,22.5815656 C39.6030658,21.5090964 40.8513202,21.0659025 42.0675681,21.4180566 C43.3638323,21.7972225 44.8171285,23.2148427 45.0091676,26.0570863 C45.045175,26.5823161 45.4802636,26.9894943 46.0073711,26.9894943 C47.6577074,26.9894943 51.9995923,29.1434368 51.9995923,33.9925585 C51.9995923,40.644469 46.2404186,40.9856183 46.0373772,40.9956226 L41.3954311,40.9956226 L41.3954311,42.9964981 L46.0753849,42.9964981 C46.154401,42.9924964 54,42.5943221 54,33.9925585 C54,28.6762323 49.7911422,25.6399038 46.914556,25.08266 L46.914556,25.08266 Z M32.6446477,33.2242223 C32.3465869,32.9761137 31.9315023,32.9230905 31.5804308,33.0861619 C31.228359,33.2512341 31.0043134,33.6043886 31.0043134,33.9925585 L31.0043134,34.9929962 L27.003498,34.9929962 L27.003498,36.9938717 L32.0045172,36.9938717 C32.513621,36.9938717 32.9327064,36.6137053 32.9967194,36.1224904 L36.4424217,38.9947472 L32.9967194,41.8680043 C32.9327064,41.375789 32.513621,40.9956226 32.0045172,40.9956226 L19.0018672,40.9956226 L19.0018672,38.9947472 C19.0018672,38.6205834 18.7928246,38.2764329 18.4597567,38.105358 C18.1246884,37.9332827 17.7246069,37.9632958 17.4205449,38.1803908 L10.419118,43.1825795 C10.169067,43.3616579 10.0140355,43.6457822 10.0010328,43.9529166 C9.98702995,44.260051 10.1160562,44.5561805 10.3491037,44.7572685 L17.3505307,50.7598949 C17.5355684,50.9179641 17.7666155,51 18.0016634,51 C18.1426921,51 18.2857213,50.9699869 18.4197486,50.9089602 C18.7738207,50.7448884 19.0018672,50.3907334 19.0018672,49.9995623 L19.0018672,47.9986868 L23.0026826,47.9986868 L23.0026826,45.9978113 L18.0016634,45.9978113 C17.4485506,45.9978113 17.0014595,46.4460074 17.0014595,46.9982491 L17.0014595,47.8246106 L12.6205667,44.0689674 L17.0014595,40.9395981 L17.0014595,41.9960604 C17.0014595,42.548302 17.4485506,42.9964981 18.0016634,42.9964981 L31.0043134,42.9964981 L31.0043134,43.9969358 C31.0043134,44.3851057 31.228359,44.7382602 31.5804308,44.9033324 C31.9305021,45.0674042 32.3465869,45.0153815 32.6446477,44.765272 L38.6458708,39.7630833 C38.8739172,39.5730002 39.0059441,39.2918772 39.0059441,38.9947472 C39.0059441,38.6976171 38.8739172,38.4164941 38.6458708,38.226411 L32.6446477,33.2242223 Z M25.0030903,47.9986868 L27.003498,47.9986868 L27.003498,45.9978113 L25.0030903,45.9978113 L25.0030903,47.9986868 Z M29.0039057,47.9986868 L38.0057403,47.9986868 L38.0057403,45.9978113 L29.0039057,45.9978113 L29.0039057,47.9986868 Z M11.0002364,36.9938717 L21.0022749,36.9938717 L21.0022749,34.9929962 L11.0002364,34.9929962 L11.0002364,36.9938717 Z M23.0026826,36.9938717 L25.0030903,36.9938717 L25.0030903,34.9929962 L23.0026826,34.9929962 L23.0026826,36.9938717 Z" id="AWS-Data-Sync_Icon_48_Squid" fill="#FFFFFF"></path>
    </g>
</svg>