<?xml version="1.0" encoding="UTF-8"?>
<svg width="40px" height="40px" viewBox="0 0 40 40" version="1.1" xmlns="http://www.w3.org/2000/svg" xmlns:xlink="http://www.w3.org/1999/xlink">
    <!-- Generator: Sketch 64 (93537) - https://sketch.com -->
    <title>Icon-Architecture/32/Arch_AWS-Sumerian_32</title>
    <desc>Created with Sketch.</desc>
    <defs>
        <linearGradient x1="0%" y1="100%" x2="100%" y2="0%" id="linearGradient-1">
            <stop stop-color="#B0084D" offset="0%"></stop>
            <stop stop-color="#FF4F8B" offset="100%"></stop>
        </linearGradient>
    </defs>
    <g id="Icon-Architecture/32/Arch_AWS-Sumerian_32" stroke="none" stroke-width="1" fill="none" fill-rule="evenodd">
        <g id="Icon-Architecture-BG/32/AR-VR" fill="url(#linearGradient-1)">
            <rect id="Rectangle" x="0" y="0" width="40" height="40"></rect>
        </g>
        <path d="M33,9.02779696 C33,7.91882562 32.113,7.01740489 31.023,7.01740489 C29.907,7.01740489 29,7.91882562 29,9.02779696 C29,10.1438901 29.927,11.0870245 31.023,11.0870245 C32.113,11.0870245 33,10.1632208 33,9.02779696 L33,9.02779696 Z M34,9.02779696 C34,10.7238109 32.665,12.1044293 31.023,12.1044293 C29.385,12.1044293 28,10.6953236 28,9.02779696 C28,7.35823553 29.356,6 31.023,6 C32.665,6 34,7.35823553 34,9.02779696 L34,9.02779696 Z M29,30.497075 C29,29.3514771 28.084,28.3829076 27,28.3829076 C25.916,28.3829076 25,29.3514771 25,30.497075 C25,31.5938374 25.879,32.4525272 27,32.4525272 C28.121,32.4525272 29,31.5938374 29,30.497075 L29,30.497075 Z M30,30.497075 C30,32.1635842 28.683,33.4699321 27,33.4699321 C25.317,33.4699321 24,32.1635842 24,30.497075 C24,28.7990262 25.374,27.3655027 27,27.3655027 C28.626,27.3655027 30,28.7990262 30,30.497075 L30,30.497075 Z M9.977,16.1740489 C11.055,16.1740489 12,15.189201 12,14.0670034 C12,12.9844846 11.093,12.1044293 9.977,12.1044293 C8.868,12.1044293 8,12.9661713 8,14.0670034 C8,15.2085317 8.905,16.1740489 9.977,16.1740489 L9.977,16.1740489 Z M9.977,17.1914538 C8.363,17.1914538 7,15.7609825 7,14.0670034 C7,12.3964245 8.308,11.0870245 9.977,11.0870245 C11.644,11.0870245 13,12.4238945 13,14.0670034 C13,15.7609825 11.615,17.1914538 9.977,17.1914538 L9.977,17.1914538 Z M17.325,21.5459467 L14.787,23.1727772 L15.32,24.0335017 L17.858,22.4066713 L17.325,21.5459467 Z M26.775,22.8990952 L23.394,20.7259184 L22.86,21.5866429 L26.242,23.7588024 L26.775,22.8990952 Z M20.5,17.1487228 L21.5,17.1487228 L21.5,14.0965081 L20.5,14.0965081 L20.5,17.1487228 Z M32.256,14.2104575 C32.407,14.3020239 32.5,14.4688783 32.5,14.6479416 L32.5,26.8568003 C32.5,27.0267069 32.417,27.185422 32.278,27.2790233 L30.782,28.2964282 L30.226,27.4509647 L31.082,26.8690091 L28.779,25.388685 L29.312,24.5279605 L31.5,25.934014 L31.5,15.4679699 L21.5,20.516333 L21.5,32.5858072 L23.24,31.5093928 L23.76,32.3782566 L21.26,33.9257294 C21.18,33.9755823 21.09,34 21,34 C20.912,34 20.824,33.9755823 20.745,33.9287817 L9.722,27.2942844 C9.57,27.2027179 9.477,27.0368809 9.477,26.8568003 L9.477,17.7001562 L10.477,17.7001562 L10.477,25.9350314 L12.248,24.7996076 L12.781,25.6603321 L10.936,26.8425566 L20.5,32.5990335 L20.5,20.5092111 L13.416,16.7387086 L13.879,15.8372879 L21.006,19.6301733 L30.955,14.6072454 L21.5,8.88739508 L21.5,11.0442934 L20.5,11.0442934 L20.5,8.79481124 L13.714,12.0555939 L13.286,11.1358599 L20.786,7.53221177 C20.937,7.45997602 21.11,7.46709785 21.256,7.55561208 L32.256,14.2104575 Z" id="AWS-Sumerian_Icon_32_Squid" fill="#FFFFFF"></path>
    </g>
</svg>