<?xml version="1.0" encoding="UTF-8"?>
<svg width="80px" height="80px" viewBox="0 0 80 80" version="1.1" xmlns="http://www.w3.org/2000/svg" xmlns:xlink="http://www.w3.org/1999/xlink">
    <title>Icon-Architecture/64/Arch_RedHat-OpenShift_64</title>
    <defs>
        <linearGradient x1="0%" y1="100%" x2="100%" y2="0%" id="linearGradient-1">
            <stop stop-color="#C8511B" offset="0%"></stop>
            <stop stop-color="#FF9900" offset="100%"></stop>
        </linearGradient>
    </defs>
    <g id="Icon-Architecture/64/Arch_RedHat-OpenShift_64" stroke="none" stroke-width="1" fill="none" fill-rule="evenodd">
        <g id="Rectangle" fill="url(#linearGradient-1)">
            <rect x="0" y="0" width="80" height="80"></rect>
        </g>
        <g id="Icon-Service/64/RedHat-OpenShift_64" transform="translate(8.000000, 8.000000)" fill="#FFFFFF">
            <path d="M51.5294313,20.7523629 C51.0824313,20.0313629 50.5914313,19.3513629 50.0574313,18.7163629 L56.6104313,15.9953629 C57.0104313,16.6243629 57.6034313,17.5713629 58.0684313,18.3743629 L51.5294313,20.7523629 Z M46.4604313,33.2753629 C46.4274313,30.7693629 45.8524313,28.2993629 44.7664313,26.0123629 L51.2454313,23.6533629 C52.2554313,25.9383629 52.9034313,28.3463629 53.1784313,30.8333629 L46.4604313,33.2753629 Z M56.0914313,31.9023629 L57.4934313,31.3923629 C57.5874313,35.1163629 56.8154313,38.8313629 55.2364313,42.2123629 C49.5714313,54.3633629 35.0764313,59.6413629 22.9254313,53.9753629 C19.5404313,52.3963629 16.5604313,50.0453629 14.2404313,47.1333629 L21.2064313,44.5963629 C22.5644313,45.8893629 24.1164313,46.9483629 25.8274313,47.7473629 C30.0454313,49.7143629 34.7824313,49.9193629 39.1644313,48.3233629 C43.5474313,46.7283629 47.0444313,43.5263629 49.0094313,39.3083629 C49.8094313,37.5983629 50.3004313,35.7903629 50.5084313,33.9323629 L56.0914313,31.9023629 Z M5.70643126,40.2293629 L12.1844313,37.8703629 C12.8204313,40.3163629 13.9674313,42.5793629 15.5564313,44.5253629 L8.83843126,46.9703629 C7.45643126,44.8933629 6.40543126,42.6323629 5.70643126,40.2293629 L5.70643126,40.2293629 Z M19.3394313,30.1463629 C19.3494313,30.8953629 19.4094313,31.6483629 19.5164313,32.4013629 L12.9554313,34.7913629 C12.8004313,34.0473629 12.6824313,33.3143629 12.6004313,32.5973629 L19.3394313,30.1463629 Z M42.4844313,25.9473629 C43.9754313,28.6223629 44.6444313,31.6293629 44.4194313,34.6443629 C44.3934313,34.9823629 44.5424313,35.3113629 44.8124313,35.5163629 C44.9884313,35.6493629 45.2014313,35.7193629 45.4164313,35.7193629 C45.5314313,35.7193629 45.6464313,35.6993629 45.7584313,35.6593629 L48.3864313,34.7033629 C48.1534313,35.9963629 47.7604313,37.2563629 47.1974313,38.4623629 C45.4574313,42.1973629 42.3604313,45.0313629 38.4794313,46.4443629 C34.6004313,47.8563629 30.4064313,47.6753629 26.6734313,45.9343629 C24.9844313,45.1463629 23.4704313,44.0713629 22.1754313,42.7423629 C21.9004313,42.4603629 21.4844313,42.3663629 21.1174313,42.5003629 L17.5734313,43.7913629 C15.7444313,41.7493629 14.4934313,39.2683629 13.9394313,36.5603629 L20.9824313,33.9963629 C21.4444313,33.8283629 21.7154313,33.3503629 21.6234313,32.8683629 C21.3594313,31.4983629 21.2784313,30.1223629 21.3804313,28.7773629 C21.4054313,28.4393629 21.2584313,28.1103629 20.9874313,27.9053629 C20.7164313,27.7003629 20.3614313,27.6483629 20.0414313,27.7623629 L17.9034313,28.5403629 C18.1354313,27.2333629 18.5244313,25.9753629 19.0784313,24.7863629 C22.6764313,17.0673629 31.8844313,13.7163629 39.6054313,17.3143629 C41.2644313,18.0893629 42.7744313,19.1663629 44.0924313,20.5133629 C44.3774313,20.8073629 44.8134313,20.8963629 45.1904313,20.7373629 L48.1084313,19.5253629 C48.7894313,20.2693629 49.3864313,21.1093629 49.9254313,22.0053629 L43.0154313,24.5213629 C42.7404313,24.6213629 42.5224313,24.8373629 42.4204313,25.1113629 C42.3184313,25.3863629 42.3414313,25.6913629 42.4844313,25.9473629 L42.4844313,25.9473629 Z M8.77643126,31.8603629 C8.68843126,28.1363629 9.46243126,24.4203629 11.0394313,21.0363629 C16.7064313,8.88836289 31.2004313,3.61136289 43.3524313,9.27536289 C46.6184313,10.8003629 49.5144313,13.0583629 51.7994313,15.8273629 L45.0364313,18.6363629 C43.6684313,17.3373629 42.1284313,16.2853629 40.4514313,15.5023629 C31.7294313,11.4363629 21.3304313,15.2233629 17.2654313,23.9413629 C16.4804313,25.6263629 15.9934313,27.4323629 15.7814313,29.3123629 L8.77643126,31.8603629 Z M60.4004313,18.4813629 C59.7614313,17.1633629 57.9164313,14.3253629 57.8384313,14.2053629 C57.5744313,13.8003629 57.0604313,13.6433629 56.6164313,13.8273629 L53.7224313,15.0283629 C51.1944313,11.8143629 47.9174313,9.20036289 44.1984313,7.46336289 C31.0504313,1.33236289 15.3594313,7.04236289 9.22643126,20.1913629 C7.31643126,24.2883629 6.49543126,28.8353629 6.85043126,33.3413629 C6.87543126,33.6533629 7.04443126,33.9353629 7.30643126,34.1043629 C7.56843126,34.2733629 7.89443126,34.3083629 8.18943126,34.2033629 L10.6734313,33.2993629 C10.7954313,34.2153629 10.9774313,35.1523629 11.2054313,36.0993629 L4.15843126,38.6653629 C3.67543126,38.8403629 3.40543126,39.3523629 3.53043126,39.8493629 C4.34143126,43.0643629 5.72343126,46.0613629 7.63743126,48.7533629 C7.83043126,49.0233629 8.13643126,49.1743629 8.45343126,49.1743629 C8.56743126,49.1743629 8.68243126,49.1553629 8.79543126,49.1143629 L12.2794313,47.8473629 C14.8464313,51.2423629 18.2144313,53.9843629 22.0794313,55.7873629 C25.6664313,57.4593629 29.4404313,58.2513629 33.1584313,58.2513629 C43.0754313,58.2503629 52.5894313,52.6223629 57.0494313,43.0593629 C58.9614313,38.9633629 59.7804313,34.4173629 59.4174313,29.9103629 C59.3914313,29.5993629 59.2224313,29.3183629 58.9604313,29.1493629 C58.6974313,28.9813629 58.3724313,28.9453629 58.0784313,29.0513629 L55.4084313,30.0223629 L55.1094313,30.1313629 C54.7624313,27.4483629 53.9974313,24.8573629 52.8554313,22.3983629 L59.8424313,19.8563629 C60.1074313,19.7593629 60.3204313,19.5553629 60.4264313,19.2933629 C60.5334313,19.0303629 60.5234313,18.7353629 60.4004313,18.4813629 L60.4004313,18.4813629 Z" id="Fill-7"></path>
        </g>
    </g>
</svg>