<?xml version="1.0" encoding="UTF-8"?>
<svg width="80px" height="80px" viewBox="0 0 80 80" version="1.1" xmlns="http://www.w3.org/2000/svg" xmlns:xlink="http://www.w3.org/1999/xlink">
    <title>Icon-Architecture/64/Arch_Amazon-EKS-Distro_64</title>
    <defs>
        <linearGradient x1="0%" y1="100%" x2="100%" y2="0%" id="linearGradient-1">
            <stop stop-color="#C8511B" offset="0%"></stop>
            <stop stop-color="#FF9900" offset="100%"></stop>
        </linearGradient>
    </defs>
    <g id="Icon-Architecture/64/Arch_Amazon-EKS-Distro_64" stroke="none" stroke-width="1" fill="none" fill-rule="evenodd">
        <g id="Rectangle" fill="url(#linearGradient-1)">
            <rect x="0" y="0" width="80" height="80"></rect>
        </g>
        <g id="Icon-Service/64/Amazon-EKS-Distro_64" transform="translate(8.000000, 8.000000)" fill="#FFFFFF">
            <path d="M43.931,48.813026 C41.246,48.813026 39.062,46.628026 39.062,43.943026 C39.062,41.258026 41.246,39.074026 43.931,39.074026 C46.616,39.074026 48.8,41.258026 48.8,43.943026 C48.8,46.628026 46.616,48.813026 43.931,48.813026 L43.931,48.813026 Z M43.931,37.074026 C40.143,37.074026 37.062,40.155026 37.062,43.943026 C37.062,47.731026 40.143,50.813026 43.931,50.813026 C47.719,50.813026 50.8,47.731026 50.8,43.943026 C50.8,40.155026 47.719,37.074026 43.931,37.074026 L43.931,37.074026 Z M57.931,46.204026 L55.749,46.204026 C55.295,46.204026 54.899,46.509026 54.783,46.948026 C54.532,47.895026 54.153,48.808026 53.657,49.662026 C53.428,50.054026 53.493,50.550026 53.814,50.871026 L55.358,52.416026 L52.404,55.371026 L50.859,53.826026 C50.537,53.503026 50.039,53.440026 49.649,53.668026 C48.794,54.166026 47.881,54.545026 46.936,54.795026 C46.497,54.911026 46.192,55.308026 46.192,55.762026 L46.192,57.943026 L41.67,57.943026 L41.67,55.762026 C41.67,55.303026 41.359,54.903026 40.913,54.792026 C39.908,54.540026 38.938,54.158026 38.029,53.657026 C37.649,53.446026 37.175,53.507026 36.859,53.807026 L35.169,55.407026 L32.011,52.416026 L33.621,50.890026 C33.965,50.565026 34.034,50.044026 33.786,49.641026 C33.263,48.788026 32.864,47.877026 32.6,46.935026 C32.479,46.503026 32.085,46.204026 31.637,46.204026 L29.931,46.204026 L29.931,41.945026 L29.949,41.945026 L32.13,41.907026 C32.578,41.899026 32.967,41.593026 33.08,41.159026 C33.332,40.192026 33.712,39.259026 34.209,38.387026 C34.431,37.999026 34.368,37.510026 34.055,37.191026 L32.491,35.596026 L35.463,32.567026 L35.478,32.584026 L36.994,34.137026 C37.318,34.468026 37.826,34.534026 38.22,34.298026 C39.074,33.792026 39.986,33.406026 40.931,33.151026 C41.368,33.034026 41.67,32.638026 41.67,32.186026 L41.67,29.943026 L46.192,29.943026 L46.192,32.125026 C46.192,32.579026 46.497,32.976026 46.936,33.092026 C47.881,33.342026 48.794,33.721026 49.649,34.218026 C50.042,34.447026 50.537,34.382026 50.859,34.061026 L52.404,32.516026 L55.358,35.471026 L53.814,37.016026 C53.493,37.336026 53.428,37.833026 53.657,38.225026 C54.153,39.079026 54.532,39.992026 54.783,40.939026 C54.899,41.377026 55.295,41.683026 55.749,41.683026 L57.931,41.683026 L57.931,46.204026 Z M29.445,57.862026 L6,45.398026 L6,18.570026 L26,6.75202604 L26,16.451026 L15.463,23.156026 C15.175,23.339026 15,23.658026 15,24.000026 L15,40.000026 C15,40.373026 15.208,40.714026 15.538,40.887026 L28.2,47.475026 C28.49,47.913026 28.986,48.204026 29.55,48.204026 L30.903,48.204026 C31.114,48.811026 31.372,49.404026 31.676,49.978026 L30.344,51.240026 C30.023,51.544026 29.838,51.973026 29.838,52.416026 C29.838,52.858026 30.023,53.287026 30.344,53.591026 L32.861,55.976026 L29.445,57.862026 Z M44.504,23.136026 L33,16.425026 L33,6.75202604 L53,18.570026 L53,30.483026 C52.416,30.262026 51.71,30.378026 51.259,30.833026 L49.972,32.119026 C49.397,31.828026 48.801,31.581026 48.192,31.379026 L48.192,29.563026 C48.192,28.670026 47.465,27.943026 46.573,27.943026 L45,27.943026 L45,24.000026 C45,23.644026 44.812,23.315026 44.504,23.136026 L44.504,23.136026 Z M58.312,39.683026 L56.494,39.683026 C56.293,39.073026 56.046,38.478026 55.755,37.902026 L57.04,36.617026 C57.347,36.311026 57.516,35.904026 57.516,35.471026 C57.516,35.038026 57.347,34.631026 57.041,34.326026 L55,32.285026 L55,18.000026 C55,17.646026 54.814,17.318026 54.509,17.139026 L32.509,4.13902604 C32.2,3.95602604 31.818,3.95402604 31.504,4.13102604 C31.193,4.30902604 31,4.64102604 31,5.00002604 L31,17.000026 C31,17.355026 31.189,17.684026 31.496,17.863026 L43,24.574026 L43,27.943026 L41.289,27.943026 C40.397,27.943026 39.67,28.670026 39.67,29.563026 L39.67,31.444026 C39.062,31.649026 38.468,31.900026 37.894,32.195026 L36.994,31.273026 C36.704,30.818026 36.252,30.519026 35.732,30.442026 C35.189,30.363026 34.66,30.530026 34.308,30.889026 L31.37,33.882026 L29.013,31.120026 L35.843,23.199026 L33.182,23.199026 L27,30.000026 L27,23.000026 L25,23.000026 L25,40.000026 L27,40.000026 L27,32.000026 L30.368,35.890026 C30.425,36.197026 30.568,36.492026 30.801,36.730026 L32.114,38.068026 C31.816,38.667026 31.564,39.286026 31.359,39.920026 L29.928,39.945026 C29.706,39.945026 29.334,39.945026 28.964,40.078026 C28.318,40.309026 27.931,40.855026 27.931,41.537026 L27.931,45.080026 L17,39.393026 L17,24.548026 L27.537,17.843026 C27.826,17.660026 28,17.341026 28,17.000026 L28,5.00002604 C28,4.64102604 27.808,4.30902604 27.496,4.13102604 C27.184,3.95402604 26.802,3.95602604 26.492,4.13902604 L4.492,17.139026 C4.187,17.318026 4,17.646026 4,18.000026 L4,46.000026 C4,46.369026 4.204,46.709026 4.531,46.882026 L28.984,59.882026 C29.131,59.960026 29.292,60.000026 29.453,60.000026 C29.619,60.000026 29.786,59.958026 29.937,59.875026 L34.472,57.372026 C35.062,57.657026 35.782,57.581026 36.283,57.107026 L37.718,55.748026 C38.349,56.053026 39.001,56.311026 39.67,56.519026 L39.67,58.324026 C39.67,59.217026 40.397,59.943026 41.289,59.943026 L46.573,59.943026 C47.465,59.943026 48.192,59.217026 48.192,58.324026 L48.192,56.507026 C48.801,56.306026 49.397,56.059026 49.972,55.768026 L51.258,57.054026 C51.868,57.665026 52.934,57.667026 53.548,57.054026 L57.04,53.562026 C57.347,53.255026 57.516,52.849026 57.516,52.416026 C57.516,51.983026 57.347,51.576026 57.041,51.271026 L55.755,49.984026 C56.046,49.409026 56.293,48.814026 56.494,48.204026 L58.312,48.204026 C59.204,48.204026 59.931,47.478026 59.931,46.585026 L59.931,41.301026 C59.931,40.409026 59.204,39.683026 58.312,39.683026 L58.312,39.683026 Z" id="Fill-1"></path>
        </g>
    </g>
</svg>