<?xml version="1.0" encoding="UTF-8"?>
<svg width="80px" height="80px" viewBox="0 0 80 80" version="1.1" xmlns="http://www.w3.org/2000/svg" xmlns:xlink="http://www.w3.org/1999/xlink">
    <title>Icon-Architecture/64/Arch_AWS-Marketplace_Dark_64</title>
    <g id="Icon-Architecture/64/Arch_AWS-Marketplace_Dark_64" stroke="none" stroke-width="1" fill="none" fill-rule="evenodd">
        <rect id="Rectangle" fill="#FFFFFF" x="0" y="0" width="80" height="80"></rect>
        <g id="Fill-1" transform="translate(8.000000, 8.000000)" fill="#232F3D">
            <path d="M40.98,52.50025 C40.98,53.87825 39.859,55.00025 38.48,55.00025 C37.101,55.00025 35.98,53.87825 35.98,52.50025 C35.98,51.12225 37.101,50.00025 38.48,50.00025 C39.859,50.00025 40.98,51.12225 40.98,52.50025 L40.98,52.50025 Z M47.97,22.00025 C47.495,22.00025 47.084,22.33525 46.99,22.80125 L42.693,44.00025 L12.799,44.00025 L9.96,29.80425 L8,30.19625 L11,45.19625 C11.093,45.66425 11.503,46.00025 11.98,46.00025 L39.021,46.00025 L37.861,48.06325 C35.673,48.36825 33.98,50.23025 33.98,52.50025 C33.98,54.98125 35.999,57.00025 38.48,57.00025 C40.961,57.00025 42.98,54.98125 42.98,52.50025 C42.98,50.56425 41.745,48.92425 40.026,48.29125 L41.314,46.00025 L43.51,46.00025 C43.986,46.00025 44.396,45.66525 44.491,45.19925 L48.788,24.00025 L56.98,24.00025 L56.98,22.00025 L47.97,22.00025 Z M18.48,55.00025 C17.101,55.00025 15.98,53.87825 15.98,52.50025 C15.98,51.12225 17.101,50.00025 18.48,50.00025 C19.859,50.00025 20.98,51.12225 20.98,52.50025 C20.98,53.87825 19.859,55.00025 18.48,55.00025 L18.48,55.00025 Z M18.48,48.00025 C15.999,48.00025 13.98,50.01925 13.98,52.50025 C13.98,54.98125 15.999,57.00025 18.48,57.00025 C20.961,57.00025 22.98,54.98125 22.98,52.50025 C22.98,50.01925 20.961,48.00025 18.48,48.00025 L18.48,48.00025 Z M18.98,9.65525 L24.98,13.11925 L18.98,16.58325 L12.98,13.11925 L18.98,9.65525 Z M34.98,9.65525 L40.98,13.11925 L34.98,16.58325 L28.98,13.11925 L34.98,9.65525 Z M35.98,25.24325 L35.98,18.31525 L41.98,14.85125 L41.98,21.77925 L35.98,25.24325 Z M27.98,39.14425 L27.98,32.21525 L33.98,28.75125 L33.98,35.68025 L27.98,39.14425 Z M19.98,28.75125 L25.98,32.21525 L25.98,39.14425 L19.98,35.68025 L19.98,28.75125 Z M25.98,21.77925 L19.98,25.24325 L19.98,18.31525 L25.98,14.85125 L25.98,21.77925 Z M33.98,25.24325 L27.98,21.77925 L27.98,14.85125 L33.98,18.31525 L33.98,25.24325 Z M26.98,30.48325 L20.942,26.99725 L26.98,23.51125 L33.018,26.99725 L26.98,30.48325 Z M11.98,14.85125 L17.98,18.31525 L17.98,25.24325 L11.98,21.77925 L11.98,14.85125 Z M10.48,23.22325 L17.98,27.55325 L17.98,36.25725 C17.98,36.61425 18.17,36.94425 18.48,37.12325 L26.48,41.74225 C26.634,41.83125 26.807,41.87525 26.98,41.87525 C27.153,41.87525 27.326,41.83125 27.48,41.74225 L35.48,37.12325 C35.79,36.94425 35.98,36.61425 35.98,36.25725 L35.98,27.55325 L43.48,23.22325 C43.79,23.04425 43.98,22.71425 43.98,22.35625 L43.98,13.11925 C43.98,12.76125 43.79,12.43125 43.48,12.25225 L35.48,7.63425 C35.171,7.45525 34.789,7.45525 34.48,7.63425 L26.98,11.96425 L19.48,7.63425 C19.171,7.45525 18.789,7.45525 18.48,7.63425 L10.48,12.25225 C10.17,12.43125 9.98,12.76125 9.98,13.11925 L9.98,22.35625 C9.98,22.71425 10.17,23.04425 10.48,23.22325 L10.48,23.22325 Z"></path>
        </g>
    </g>
</svg>