<?xml version="1.0" encoding="UTF-8"?>
<svg width="40px" height="40px" viewBox="0 0 40 40" version="1.1" xmlns="http://www.w3.org/2000/svg" xmlns:xlink="http://www.w3.org/1999/xlink">
    <title>Icon-Architecture/32/Arch_AWS-ThinkBox-Krakatoa_32</title>
    <defs>
        <linearGradient x1="0%" y1="100%" x2="100%" y2="0%" id="linearGradient-1">
            <stop stop-color="#C8511B" offset="0%"></stop>
            <stop stop-color="#FF9900" offset="100%"></stop>
        </linearGradient>
    </defs>
    <g id="Icon-Architecture/32/Arch_AWS-ThinkBox-Krakatoa_32" stroke="none" stroke-width="1" fill="none" fill-rule="evenodd">
        <g id="Rectangle" fill="url(#linearGradient-1)">
            <rect x="0" y="0" width="40" height="40"></rect>
        </g>
        <g id="Icon-Service/32/AWS-ThinkBox-Krakatoa_32" transform="translate(4.000000, 4.000000)" fill="#FFFFFF">
            <path d="M15.0000341,3.38425 L15.0000341,6.00025 L16.0000341,6.00025 L16.0000341,3.38425 L18.1310341,4.66525 L18.6460341,3.80825 L15.7580341,2.07125 C15.6000341,1.97625 15.4000341,1.97625 15.2420341,2.07125 L12.3540341,3.80825 L12.8690341,4.66525 L15.0000341,3.38425 Z M20.3260341,29.00025 L15.5000341,25.83525 L10.6740341,29.00025 L20.3260341,29.00025 Z M15.0000341,22.39425 C14.6920341,16.70325 9.68303413,11.92725 3.00003413,10.89025 L3.00003413,13.00025 L2,13.00025 L2,10.31625 C2,10.17325 2.06203413,10.03625 2.16903413,9.94125 C2.19203413,9.92125 2.22203413,9.91225 2.24803413,9.89725 L2.24203413,9.88725 L5.13103413,8.15025 L5.64603413,9.00825 L3.93003413,10.04025 C9.07703413,11.06925 13.1860341,14.22725 15.0000341,18.30725 L15.0000341,16.00025 C15.0000341,11.79725 12.8980341,8.05925 9.74703413,6.61025 L8.24103413,7.43825 L7.75903413,6.56225 L9.48103413,5.61425 C9.61503413,5.54225 9.77603413,5.53225 9.91603413,5.59225 C12.6200341,6.72725 14.6190341,9.22225 15.5000341,12.34625 C16.3810341,9.22125 18.3800341,6.72725 21.0840341,5.59225 C21.2240341,5.53225 21.3840341,5.54225 21.5190341,5.61425 L23.2410341,6.56225 L22.7590341,7.43825 L21.2530341,6.61025 C18.1020341,8.05825 16.0000341,11.79625 16.0000341,16.00025 L16.0000341,18.31925 C17.8140341,14.22725 21.9230341,11.06825 27.0700341,10.04025 L25.3540341,9.00825 L25.8690341,8.15025 L28.7580341,9.88725 L28.7520341,9.89625 C28.7780341,9.91225 28.8080341,9.92125 28.8310341,9.94125 C28.9380341,10.03625 29.0000683,10.17325 29.0000683,10.31625 L29.0000683,13.00025 L28.0000341,13.00025 L28.0000341,10.89025 C21.3210341,11.92625 16.3130341,16.69825 16.0000341,22.41225 L16.0000341,24.96725 L18.0000341,26.27825 L18.0000341,23.79025 C18.1540341,20.27125 20.6620341,17.93425 24.0900341,18.08025 C25.4600341,18.14025 26.7240341,18.72625 27.6500341,19.73225 C28.5770341,20.73825 29.0550341,22.04425 28.9950341,23.40725 C28.8960341,25.65225 27.0300341,27.41225 24.7950341,27.41225 C24.7330341,27.41225 24.6710341,27.41125 24.6090341,27.40825 C23.6850341,27.36825 22.8310341,26.97225 22.2060341,26.29425 C21.5790341,25.61425 21.2570341,24.73325 21.2970341,23.81125 C21.3650341,22.24525 22.6170341,21.12125 24.2350341,21.18425 L24.1920341,22.18325 C23.1320341,22.12525 22.3410341,22.84025 22.2970341,23.85525 C22.2680341,24.50925 22.4970341,25.13425 22.9410341,25.61625 C23.3860341,26.09925 23.9940341,26.38125 24.6520341,26.40925 C26.4630341,26.48825 27.9190341,25.11925 27.9950341,23.36325 C28.0440341,22.26825 27.6600341,21.21825 26.9150341,20.40925 C26.1690341,19.59925 25.1500341,19.12725 24.0470341,19.07925 C21.1500341,18.94325 19.1290341,20.85625 19.0000341,23.81225 L19.0000341,26.93425 L22.2740341,29.08225 C22.4590341,29.20325 22.5420341,29.43125 22.4790341,29.64325 C22.4160341,29.85525 22.2210341,30.00025 22.0000341,30.00025 L9.00003413,30.00025 C8.77903413,30.00025 8.58403413,29.85525 8.52103413,29.64325 C8.45803413,29.43125 8.54103413,29.20325 8.72603413,29.08225 L12.0000341,26.93425 L12.0000341,23.79025 C11.8710341,20.85625 9.84903413,18.94525 6.95303413,19.07925 C5.85003413,19.12725 4.83103413,19.59925 4.08503413,20.40925 C3.34003413,21.21825 2.95603413,22.26825 3.00503413,23.36325 C3.08203413,25.11925 4.56403413,26.48825 6.34803413,26.40925 C7.00603413,26.38125 7.61403413,26.09925 8.05903413,25.61625 C8.50303413,25.13425 8.73203413,24.50925 8.70303413,23.85525 C8.66003413,22.84025 7.84503413,22.12625 6.80803413,22.18325 L6.76503413,21.18425 C8.37903413,21.12225 9.63503413,22.24525 9.70303413,23.81125 C9.74303413,24.73325 9.42103413,25.61425 8.79403413,26.29425 C8.16903413,26.97225 7.31503413,27.36825 6.39103413,27.40825 C6.32903413,27.41125 6.26703413,27.41225 6.20503413,27.41225 C3.96903413,27.41325 2.10403413,25.65325 2.00503413,23.40725 C1.94503413,22.04425 2.42303413,20.73825 3.35003413,19.73225 C4.27603413,18.72625 5.54003413,18.14025 6.91003413,18.08025 C10.3490341,17.93025 12.8460341,20.27025 13.0000341,23.76825 L13.0000341,26.27825 L15.0000341,24.96725 L15.0000341,22.39425 Z M28.0000341,18.00025 L29.0000341,18.00025 L29.0000341,15.00025 L28.0000341,15.00025 L28.0000341,18.00025 Z M2.00003413,18.00025 L3.00003413,18.00025 L3.00003413,15.00025 L2.00003413,15.00025 L2.00003413,18.00025 Z" id="AWS-ThinkBox-Krakatoa_32_Squid"></path>
        </g>
    </g>
</svg>