<?xml version="1.0" encoding="UTF-8"?>
<svg width="40px" height="40px" viewBox="0 0 40 40" version="1.1" xmlns="http://www.w3.org/2000/svg" xmlns:xlink="http://www.w3.org/1999/xlink">
    <!-- Generator: Sketch 64 (93537) - https://sketch.com -->
    <title>Icon-Architecture/32/Arch_AWS-Outposts_32</title>
    <desc>Created with Sketch.</desc>
    <defs>
        <linearGradient x1="0%" y1="100%" x2="100%" y2="0%" id="linearGradient-1">
            <stop stop-color="#C8511B" offset="0%"></stop>
            <stop stop-color="#FF9900" offset="100%"></stop>
        </linearGradient>
    </defs>
    <g id="Icon-Architecture/32/Arch_AWS-Outposts_32" stroke="none" stroke-width="1" fill="none" fill-rule="evenodd">
        <g id="Icon-Architecture-BG/32/Compute" fill="url(#linearGradient-1)">
            <rect id="Rectangle" x="0" y="0" width="40" height="40"></rect>
        </g>
        <path d="M27.0115234,13.5935768 C27.0115234,13.3522406 27.0115234,13.1048961 26.9957078,12.9757162 C26.8681943,12.9606953 26.6240406,12.9606953 26.3868062,12.9606953 L18.5531294,12.9606953 C18.3149065,12.9606953 18.0707528,12.9606953 17.9432393,12.9767176 C17.9284122,13.1048961 17.9284122,13.3522406 17.9284122,13.5935768 L17.9284122,30.4790959 C17.9284122,30.720432 17.9284122,30.9677765 17.9432393,31.0969565 C18.0707528,31.1129788 18.3149065,31.1129788 18.5531294,31.1129788 L21.4513427,31.1129788 L23.4441115,31.1129788 L26.3868062,31.1129788 C26.6240406,31.1129788 26.8681943,31.1129788 26.9957078,31.0969565 C27.0115234,30.9677765 27.0115234,30.720432 27.0115234,30.4790959 L27.0115234,13.5935768 Z M23.9373613,32.9986052 L25.8925679,32.9986052 L25.8925679,32.1143736 L23.9373613,32.1143736 L23.9373613,32.9986052 Z M19.0473677,32.9986052 L20.9571044,32.9986052 L20.9571044,32.1143736 L19.0473677,32.1143736 L19.0473677,32.9986052 Z M28,13.5935768 L28,30.4790959 C28,31.696792 27.8270166,32.0302564 26.8810445,32.0983513 L26.8810445,33.4993026 C26.8810445,33.7756876 26.6606142,34 26.3868062,34 L23.4441115,34 C23.1703035,34 22.9498732,33.7756876 22.9498732,33.4993026 L22.9498732,32.1143736 L21.945581,32.1143736 L21.945581,33.4993026 C21.945581,33.7756876 21.7241622,34 21.4513427,34 L18.5531294,34 C18.2803098,34 18.0588911,33.7756876 18.0588911,33.4993026 L18.0588911,32.0983513 C17.1119305,32.0302564 16.9399356,31.696792 16.9399356,30.4790959 L16.9399356,13.5935768 C16.9399356,12.1886199 17.1653083,11.9593005 18.5531294,11.9593005 L26.3868062,11.9593005 C27.7736389,11.9593005 28,12.1886199 28,13.5935768 L28,13.5935768 Z M25.9261761,22.4839598 C25.9261761,23.0357283 25.4833386,23.4853546 24.9376996,23.4853546 C24.393049,23.4853546 23.949223,23.0357283 23.949223,22.4839598 C23.949223,21.9321913 24.393049,21.482565 24.9376996,21.482565 C25.4833386,21.482565 25.9261761,21.9321913 25.9261761,22.4839598 L25.9261761,22.4839598 Z M25.9261761,19.478774 C25.9261761,20.0315439 25.4833386,20.4801688 24.9376996,20.4801688 C24.393049,20.4801688 23.949223,20.0315439 23.949223,19.478774 C23.949223,18.9270055 24.393049,18.4773792 24.9376996,18.4773792 C25.4833386,18.4773792 25.9261761,18.9270055 25.9261761,19.478774 L25.9261761,19.478774 Z M25.9261761,16.4745896 C25.9261761,17.0273595 25.4833386,17.4759844 24.9376996,17.4759844 C24.393049,17.4759844 23.949223,17.0273595 23.949223,16.4745896 C23.949223,15.9228211 24.393049,15.4731948 24.9376996,15.4731948 C25.4833386,15.4731948 25.9261761,15.9228211 25.9261761,16.4745896 L25.9261761,16.4745896 Z M18.9959669,16.9762884 L22.9498732,16.9762884 L22.9498732,15.9748936 L18.9959669,15.9748936 L18.9959669,16.9762884 Z M18.9959669,22.9846572 L22.9498732,22.9846572 L22.9498732,21.9832624 L18.9959669,21.9832624 L18.9959669,22.9846572 Z M18.9959669,19.9804728 L22.9498732,19.9804728 L22.9498732,18.979078 L18.9959669,18.979078 L18.9959669,19.9804728 Z M19.4803204,7.0013948 C17.9422509,7.0013948 16.9844171,7.73842137 16.4526167,8.35728336 C15.5501376,9.40674511 15.2684217,10.7716462 15.3890159,11.658882 C15.4255895,11.925253 15.2476637,12.1746003 14.9857174,12.2206645 C14.7534254,12.2647259 12.7003596,12.7353814 13.0235914,15.4621795 C13.0334762,15.542291 13.2983879,17.4769858 15.0420606,17.4769858 L16.0305372,17.4769858 L16.0305372,18.4783806 L15.0420606,18.4783806 C12.9425364,18.4783806 12.1616399,16.5837416 12.0420342,15.5823468 C11.7019983,12.7103466 13.5109104,11.6869211 14.3748389,11.3654733 C14.3362883,10.1097243 14.8364575,8.71277851 15.7073053,7.69936698 C16.374527,6.9242874 17.5705837,6 19.4803204,6 L19.4813089,6 C22.3498679,6 23.6072101,7.81152319 24.1142986,8.95711884 C24.7716355,8.42938378 25.6286447,8.36028754 26.0695053,8.48245771 C27.767708,8.95311326 27.8151549,10.8787955 27.8161434,10.9609098 L26.8276668,10.9749294 C26.8266783,10.925861 26.7851623,9.71918029 25.8085474,9.4478023 C25.6157945,9.39572977 24.7320964,9.44479811 24.3841527,10.1828261 C24.2912359,10.3760953 24.0925521,10.4892529 23.8750873,10.4622152 C23.6635533,10.4351776 23.4935353,10.2729516 23.4520193,10.0606559 C23.4282958,9.93648296 22.8223597,7.0013948 19.4813089,7.0013948 L19.4803204,7.0013948 Z" id="AWS-Outposts_Icon_32_Squid" fill="#FFFFFF"></path>
    </g>
</svg>