<?xml version="1.0" encoding="UTF-8"?>
<svg width="40px" height="40px" viewBox="0 0 40 40" version="1.1" xmlns="http://www.w3.org/2000/svg" xmlns:xlink="http://www.w3.org/1999/xlink">
    <!-- Generator: Sketch 64 (93537) - https://sketch.com -->
    <title>Icon-Architecture/32/Arch_AWS-Batch_32</title>
    <desc>Created with Sketch.</desc>
    <defs>
        <linearGradient x1="0%" y1="100%" x2="100%" y2="0%" id="linearGradient-1">
            <stop stop-color="#C8511B" offset="0%"></stop>
            <stop stop-color="#FF9900" offset="100%"></stop>
        </linearGradient>
    </defs>
    <g id="Icon-Architecture/32/Arch_AWS-Batch_32" stroke="none" stroke-width="1" fill="none" fill-rule="evenodd">
        <g id="Icon-Architecture-BG/32/Compute" fill="url(#linearGradient-1)">
            <rect id="Rectangle" x="0" y="0" width="40" height="40"></rect>
        </g>
        <path d="M20.5682456,29.5231233 C21.1748736,29.5231233 21.6662423,30.0117292 21.6662423,30.6149464 C21.6662423,31.2181635 21.1748736,31.7077748 20.5682456,31.7077748 C19.9616177,31.7077748 19.470249,31.2181635 19.470249,30.6149464 C19.470249,30.0117292 19.9616177,29.5231233 20.5682456,29.5231233 M11.5638644,20.4758713 C11.5638644,21.0800938 11.0714847,21.5686997 10.4648568,21.5686997 C9.8582288,21.5686997 9.36686014,21.0800938 9.36686014,20.4758713 C9.36686014,19.8736595 9.8582288,19.3840483 10.4648568,19.3840483 C11.0714847,19.3840483 11.5638644,19.8736595 11.5638644,20.4758713 M30.7484741,32.9313003 C29.4927542,32.9313003 28.5090058,31.9882708 28.5090058,30.7848525 C28.5090058,29.5563003 29.5139861,28.5569705 30.7484741,28.5569705 C31.983973,28.5569705 32.9889534,29.5563003 32.9889534,30.7848525 C32.9889534,31.9882708 32.005205,32.9313003 30.7484741,32.9313003 M28.5090058,20.5331769 C28.5090058,19.3046247 29.5139861,18.3052949 30.7484741,18.3052949 C31.983973,18.3052949 32.9889534,19.3046247 32.9889534,20.5331769 C32.9889534,21.7607239 31.983973,22.7600536 30.7484741,22.7600536 C29.5139861,22.7600536 28.5090058,21.7607239 28.5090058,20.5331769 M20.5682456,22.7630697 C19.3327467,22.7630697 18.3277663,21.7637399 18.3277663,20.5351877 C18.3277663,19.3066354 19.3327467,18.3073056 20.5682456,18.3073056 C21.8037446,18.3073056 22.808725,19.3066354 22.808725,20.5351877 C22.808725,21.7637399 21.8037446,22.7630697 20.5682456,22.7630697 M23.0220558,30.5546247 C23.0220558,31.9460456 21.9675342,32.9946381 20.5682456,32.9946381 C19.1689571,32.9946381 18.1144355,31.9460456 18.1144355,30.5546247 C18.1144355,29.1632038 19.1689571,28.1146113 20.5682456,28.1146113 C21.9675342,28.1146113 23.0220558,29.1632038 23.0220558,30.5546247 M17.6210447,10.935992 C17.6210447,9.40281501 19.0263996,8.00536193 20.5682456,8.00536193 C22.1100917,8.00536193 23.5154465,9.40281501 23.5154465,10.935992 C23.5154465,12.4701743 22.1100917,13.866622 20.5682456,13.866622 C19.0263996,13.866622 17.6210447,12.4701743 17.6210447,10.935992 M10.4648568,22.9772118 C9.06556825,22.9772118 8.01104662,21.9286193 8.01104662,20.5371984 C8.01104662,19.1246649 9.11207639,17.9755362 10.4648568,17.9755362 C11.8186482,17.9755362 12.919678,19.1246649 12.919678,20.5371984 C12.919678,21.9286193 11.8641453,22.9772118 10.4648568,22.9772118 M12.6982588,30.7717828 C12.6982588,31.9852547 11.7134993,32.9363271 10.4577794,32.9363271 C9.20104849,32.9363271 8.21628908,31.9852547 8.21628908,30.7717828 C8.21628908,29.5442359 9.22126943,28.5439008 10.4577794,28.5439008 C11.6932784,28.5439008 12.6982588,29.5442359 12.6982588,30.7717828 M31.2539974,27.6018767 L31.2539974,23.7151475 C32.8059539,23.4708445 34,22.1437668 34,20.5331769 C34,18.7496649 32.5420708,17.299933 30.7484741,17.299933 C29.1287774,17.299933 27.7931848,18.4882708 27.5485115,20.0325067 L23.7682082,20.0325067 C23.5498221,18.6541555 22.4599139,17.5703753 21.073769,17.3532172 L21.073769,14.8176944 C22.962404,14.5522788 24.5264932,12.8622654 24.5264932,10.935992 C24.5264932,8.83981233 22.6772889,7 20.5682456,7 C18.4592024,7 16.6099981,8.83981233 16.6099981,10.935992 C16.6099981,12.8622654 18.1740872,14.5522788 20.0627223,14.8176944 L20.0627223,17.3532172 C18.6765774,17.5703753 17.5866692,18.6541555 17.3682831,20.0325067 L13.8811833,20.0325067 C13.6395432,18.3063003 12.2068901,16.9701743 10.4648568,16.9701743 C8.55397866,16.9701743 7,18.5707105 7,20.5371984 C7,22.2965818 8.26684142,23.6950402 9.95933346,23.933311 L9.95933346,27.588807 C8.40434376,27.8290885 7.20524246,29.1591823 7.20524246,30.7717828 C7.20524246,32.5492627 8.63385134,33.941689 10.4577794,33.941689 C12.2817075,33.941689 13.7093054,32.5492627 13.7093054,30.7717828 C13.7093054,29.1632038 12.5193035,27.8371314 10.9703801,27.5908177 L10.9703801,23.933311 C12.4980715,23.7181635 13.6658304,22.5569705 13.8811833,21.0378686 L17.3682831,21.0378686 C17.5866692,22.4162198 18.6765774,23.5 20.0627223,23.7171582 L20.0627223,27.1575067 C18.3702303,27.3967828 17.1033889,28.7952413 17.1033889,30.5546247 C17.1033889,32.4869303 18.625014,34 20.5682456,34 C22.5114773,34 24.0331024,32.4869303 24.0331024,30.5546247 C24.0331024,28.7952413 22.766261,27.3967828 21.073769,27.1575067 L21.073769,23.7171582 C22.4599139,23.5 23.5498221,22.4162198 23.7682082,21.0378686 L27.5485115,21.0378686 C27.7679086,22.4152145 28.8578169,23.4969839 30.2429508,23.7151475 L30.2429508,27.6018767 C28.6909942,27.8461796 27.4979592,29.1742627 27.4979592,30.7848525 C27.4979592,32.5522788 28.925557,33.9366622 30.7484741,33.9366622 C32.5724022,33.9366622 34,32.5522788 34,30.7848525 C34,29.1742627 32.8059539,27.8461796 31.2539974,27.6018767" id="AWS-Batch_Icon_32_Squid" fill="#FFFFFF"></path>
    </g>
</svg>