<?xml version="1.0" encoding="UTF-8"?>
<svg width="40px" height="40px" viewBox="0 0 40 40" version="1.1" xmlns="http://www.w3.org/2000/svg" xmlns:xlink="http://www.w3.org/1999/xlink">
    <!-- Generator: Sketch 64 (93537) - https://sketch.com -->
    <title>Icon-Architecture/32/Arch_AWS-Elastic-Beanstalk_32</title>
    <desc>Created with Sketch.</desc>
    <defs>
        <linearGradient x1="0%" y1="100%" x2="100%" y2="0%" id="linearGradient-1">
            <stop stop-color="#C8511B" offset="0%"></stop>
            <stop stop-color="#FF9900" offset="100%"></stop>
        </linearGradient>
    </defs>
    <g id="Icon-Architecture/32/Arch_AWS-Elastic-Beanstalk_32" stroke="none" stroke-width="1" fill="none" fill-rule="evenodd">
        <g id="Icon-Architecture-BG/32/Compute" fill="url(#linearGradient-1)">
            <rect id="Rectangle" x="0" y="0" width="40" height="40"></rect>
        </g>
        <path d="M25.5,22.5936069 C25.5,21.7747556 24.827,21.1083869 24,21.1083869 C23.173,21.1083869 22.5,21.7747556 22.5,22.5936069 C22.5,23.4124582 23.173,24.0788269 24,24.0788269 C24.827,24.0788269 25.5,23.4124582 25.5,22.5936069 M20,17.1478004 C20.827,17.1478004 21.5,16.4814317 21.5,15.6625804 C21.5,14.8437291 20.827,14.1773604 20,14.1773604 C19.173,14.1773604 18.5,14.8437291 18.5,15.6625804 C18.5,16.4814317 19.173,17.1478004 20,17.1478004 M15,23.0886802 C15.827,23.0886802 16.5,22.4223115 16.5,21.6034602 C16.5,20.784609 15.827,20.1182403 15,20.1182403 C14.173,20.1182403 13.5,20.784609 13.5,21.6034602 C13.5,22.4223115 14.173,23.0886802 15,23.0886802 M26.5,22.5936069 C26.5,23.7887139 25.64,24.788762 24.5,25.018476 L24.5,28.5344867 C24.5,28.8077672 24.276,29.0295601 24,29.0295601 L20.5,29.0295601 L20.5,32 L19.5,32 L19.5,26.0591201 L15,26.0591201 C14.724,26.0591201 14.5,25.8373273 14.5,25.5640468 L14.5,24.0283294 C13.36,23.7986154 12.5,22.7985672 12.5,21.6034602 C12.5,20.2390382 13.621,19.1280936 15,19.1280936 C16.379,19.1280936 17.5,20.2390382 17.5,21.6034602 C17.5,22.7985672 16.64,23.7986154 15.5,24.0283294 L15.5,25.0689735 L19.5,25.0689735 L19.5,18.0874495 C18.36,17.8577355 17.5,16.8576874 17.5,15.6625804 C17.5,14.2981583 18.621,13.1872138 20,13.1872138 C21.379,13.1872138 22.5,14.2981583 22.5,15.6625804 C22.5,16.8576874 21.64,17.8577355 20.5,18.0874495 L20.5,28.0394134 L23.5,28.0394134 L23.5,25.018476 C22.36,24.788762 21.5,23.7887139 21.5,22.5936069 C21.5,21.2291848 22.621,20.1182403 24,20.1182403 C25.379,20.1182403 26.5,21.2291848 26.5,22.5936069 M34,20.0687329 C34,23.7550489 31.224,25.0689735 28.625,25.0689735 L28.625,24.0788269 C29.94,24.0788269 33,23.6877189 33,20.0687329 C33,17.3606819 30.921,16.3794466 29.177,16.0328952 C28.954,15.9883386 28.79,15.8012009 28.776,15.5774278 C28.649,13.4545534 27.398,12.7010518 26.366,12.7010518 C25.668,12.7010518 25.013,13.0307706 24.57,13.6060458 C24.459,13.7486269 24.276,13.8189273 24.099,13.7951638 C23.918,13.7684299 23.767,13.6466418 23.704,13.4763366 C23.304,12.4020275 22.729,11.5019842 21.999,10.8029407 C20.119,8.99790333 17.547,8.50976104 15.121,9.49495695 C13.104,10.3078673 11.526,12.6574853 11.526,14.8447193 C11.526,15.0873052 11.542,15.3298911 11.571,15.5665362 C11.603,15.815063 11.441,16.0477474 11.195,16.1081464 C10.002,16.4012298 8,17.3002829 8,20.0311074 C8,20.123191 8.005,20.2123042 8.009,20.2974568 C8.13,22.4302327 10.011,24.0788269 12.294,24.0788269 L12.5,24.0788269 L12.5,25.0689735 L12.294,25.0689735 C9.481,25.0689735 7.161,23.0094685 7.012,20.3806291 C7.005,20.2449791 7,20.1400235 7,20.0311074 C7,16.8646184 9.223,15.6853538 10.539,15.2645414 C10.53,15.1249308 10.526,14.9853201 10.526,14.8447193 C10.526,12.2406336 12.339,9.54743472 14.743,8.57808116 C17.548,7.43842237 20.522,8.00478625 22.694,10.0920154 C23.365,10.7326403 23.918,11.5158462 24.345,12.4238107 C26.079,11.0326547 29.313,11.60892 29.741,15.1427534 C32.491,15.8051615 34,17.5428689 34,20.0687329" id="AWS-Elastic-Beanstalk_Icon_32_Squid" fill="#FFFFFF"></path>
    </g>
</svg>