<?xml version="1.0" encoding="UTF-8"?>
<svg width="40px" height="40px" viewBox="0 0 40 40" version="1.1" xmlns="http://www.w3.org/2000/svg" xmlns:xlink="http://www.w3.org/1999/xlink">
    <title>Icon-Architecture/32/Arch_Elastic-Fabric-Adapter_32</title>
    <defs>
        <linearGradient x1="0%" y1="100%" x2="100%" y2="0%" id="linearGradient-1">
            <stop stop-color="#C8511B" offset="0%"></stop>
            <stop stop-color="#FF9900" offset="100%"></stop>
        </linearGradient>
    </defs>
    <g id="Icon-Architecture/32/Arch_Elastic-Fabric-Adapter_32" stroke="none" stroke-width="1" fill="none" fill-rule="evenodd">
        <g id="Rectangle" fill="url(#linearGradient-1)">
            <rect x="0" y="0" width="40" height="40"></rect>
        </g>
        <g id="Icon-Service/32/Elastic-Fabric-Adapter_32" transform="translate(4.000000, 4.000000)" fill="#FFFFFF">
            <path d="M5.819,11.295 L4.889,10.927 C6.65,6.484 11.116,3.5 16,3.5 C20.883,3.5 25.349,6.484 27.11,10.927 L26.18,11.295 C24.569,7.231 20.477,4.5 16,4.5 C11.522,4.5 7.43,7.231 5.819,11.295 L5.819,11.295 Z M26.176,19.233 L27.114,19.581 C25.355,24.318 20.888,27.5 16,27.5 C11.111,27.5 6.644,24.318 4.885,19.581 L5.823,19.233 C7.437,23.58 11.527,26.5 16,26.5 C20.472,26.5 24.562,23.58 26.176,19.233 L26.176,19.233 Z M29,16.776 C29,16.898 28.897,17 28.776,17 L25.223,17 C25.102,17 25,16.898 25,16.776 L25,13.224 C25,13.103 25.102,13 25.223,13 L28.776,13 C28.897,13 29,13.103 29,13.224 L29,16.776 Z M28.776,12 L25.223,12 C24.548,12 24,12.549 24,13.224 L24,16.776 C24,17.451 24.548,18 25.223,18 L28.776,18 C29.451,18 30,17.451 30,16.776 L30,13.224 C30,12.549 29.451,12 28.776,12 L28.776,12 Z M3,16.776 L3,13.224 C3,13.103 3.102,13 3.223,13 L6.776,13 C6.897,13 7,13.103 7,13.224 L7,16.776 C7,16.898 6.897,17 6.776,17 L3.223,17 C3.102,17 3,16.898 3,16.776 L3,16.776 Z M8,16.776 L8,13.224 C8,12.549 7.451,12 6.776,12 L3.223,12 C2.548,12 2,12.549 2,13.224 L2,16.776 C2,17.451 2.548,18 3.223,18 L6.776,18 C7.451,18 8,17.451 8,16.776 L8,16.776 Z M17,15 L19,15 L19,14 L17,14 L17,15 Z M13,15 L16,15 L16,14 L13,14 L13,15 Z M12,16 L20,16 L20,13 L12,13 L12,16 Z M15,18 L15,19 L11,19 L11,18 L10,18 L10,11 L22,11 L22,18 L20,18 L20,19 L18,19 L18,18 L15,18 Z M21,20 L21,19 L23,19 L23,10 L9,10 L9,19 L10,19 L10,20 L16,20 L16,19 L17,19 L17,20 L21,20 Z" id="Fill-1"></path>
        </g>
    </g>
</svg>