<?xml version="1.0" encoding="UTF-8"?>
<svg width="40px" height="40px" viewBox="0 0 40 40" version="1.1" xmlns="http://www.w3.org/2000/svg" xmlns:xlink="http://www.w3.org/1999/xlink">
    <!-- Generator: Sketch 64 (93537) - https://sketch.com -->
    <title>Icon-Architecture/32/Arch_AWS-Fargate_32</title>
    <desc>Created with Sketch.</desc>
    <defs>
        <linearGradient x1="0%" y1="100%" x2="100%" y2="0%" id="linearGradient-1">
            <stop stop-color="#C8511B" offset="0%"></stop>
            <stop stop-color="#FF9900" offset="100%"></stop>
        </linearGradient>
    </defs>
    <g id="Icon-Architecture/32/Arch_AWS-Fargate_32" stroke="none" stroke-width="1" fill="none" fill-rule="evenodd">
        <g id="Icon-Architecture-BG/32/Compute" fill="url(#linearGradient-1)">
            <rect id="Rectangle" x="0" y="0" width="40" height="40"></rect>
        </g>
        <g id="Icon-Service/32/AWS-Fargate" transform="translate(4.000000, 4.000000)" fill="#FFFFFF">
            <path d="M22.8732809,25.3426248 L22.8732809,21.9139741 L24.8408644,21.248207 L24.8408644,24.6339372 L22.8732809,25.3426248 Z M19.9292731,24.0080961 L19.9292731,21.248207 L21.8909627,21.912976 L21.8909627,25.3426248 L19.9292731,24.6339372 L19.9292731,24.0080961 Z M18.9469548,28.0865434 L16.9793713,28.7942329 L16.9793713,25.3665804 L18.9469548,24.7008133 L18.9469548,24.9862847 L18.9469548,28.0865434 Z M14.0353635,24.9862847 L14.0353635,24.7008133 L15.997053,25.3655823 L15.997053,28.7942329 L14.0353635,28.0865434 L14.0353635,24.9862847 Z M11.0854617,25.3426248 L11.0854617,21.9139741 L13.0530452,21.248207 L13.0530452,24.0080961 L13.0530452,24.6339372 L11.0854617,25.3426248 Z M8.14145383,21.248207 L10.1031434,21.912976 L10.1031434,25.3426248 L8.14145383,24.6339372 L8.14145383,21.248207 Z M10.5943026,20.0733826 L11.9980354,20.5534935 L10.5943026,21.0286137 L9.1935167,20.5534935 L10.5943026,20.0733826 Z M16.4882122,23.5249908 L17.891945,24.0051017 L16.4882122,24.4802218 L15.0874263,24.0051017 L16.4882122,23.5249908 Z M22.3821218,20.0733826 L23.7858546,20.5534935 L22.3821218,21.0286137 L20.981336,20.5534935 L22.3821218,20.0733826 Z M25.4882122,20.0833641 L22.5383104,19.0732348 C22.4371316,19.0382994 22.3261297,19.0382994 22.2249509,19.0732348 L19.280943,20.0833641 C19.0815324,20.1522366 18.9479371,20.3418854 18.9469548,20.556488 L18.9469548,23.3133826 L16.6444008,22.525841 C16.543222,22.4909057 16.43222,22.4909057 16.3310413,22.525841 L14.0353635,23.3133826 L14.0353635,20.556488 C14.0343811,20.3418854 13.9007859,20.1512384 13.7003929,20.0833641 L10.7504912,19.0732348 C10.6493124,19.0382994 10.5383104,19.0382994 10.4371316,19.0732348 L7.49312377,20.0833641 C7.29371316,20.1522366 7.16011788,20.3418854 7.15913556,20.556488 L7.15913556,24.9862847 C7.15913556,25.1968946 7.28978389,25.3855453 7.48624754,25.456414 L10.4302554,26.5194455 C10.4833006,26.5384104 10.5383104,26.5483919 10.5943026,26.5483919 C10.6502947,26.5483919 10.7053045,26.5384104 10.7583497,26.5194455 L13.0530452,25.692976 L13.0530452,28.4388909 C13.0530452,28.6495009 13.1836935,28.8381516 13.3801572,28.9090203 L16.324165,29.9710536 C16.3772102,29.9900185 16.43222,30 16.4882122,30 C16.5442043,30 16.5992141,29.9900185 16.6522593,29.9710536 L19.6021611,28.9090203 C19.7976424,28.8381516 19.9292731,28.6495009 19.9292731,28.4388909 L19.9292731,25.692976 L22.2180747,26.5194455 C22.2711198,26.5384104 22.3261297,26.5483919 22.3821218,26.5483919 C22.4381139,26.5483919 22.4931238,26.5384104 22.546169,26.5194455 L25.4960707,25.456414 C25.6915521,25.3855453 25.8231827,25.1978928 25.8231827,24.9862847 L25.8231827,20.556488 C25.8222004,20.3418854 25.6886051,20.1512384 25.4882122,20.0833641 L25.4882122,20.0833641 Z M29,13.6063586 C29,16.6826617 22.302554,18.3425878 16,18.3425878 C9.69744597,18.3425878 3,16.6826617 3,13.6063586 C3,12.1430684 4.60412574,10.8524584 7.51964637,9.97208872 L7.79960707,10.9283179 C5.44499018,11.64 3.98231827,12.6660998 3.98231827,13.6063586 C3.98231827,15.3750832 8.91748527,17.3444362 16,17.3444362 C23.0825147,17.3444362 28.0176817,15.3750832 28.0176817,13.6063586 C28.0176817,12.8836969 27.154224,12.0971534 25.6483301,11.4503512 L26.0324165,10.5310536 C28.4852652,11.5860998 29,12.785878 29,13.6063586 L29,13.6063586 Z M16.4911591,4.03009242 L21.9390963,6.04436229 L16.4911591,8.0825878 L11.043222,6.04436229 L16.4911591,4.03009242 Z M22.1090373,14.1693161 C21.1011788,14.6284658 19.4076621,15.1624769 16.9823183,15.229353 L16.9823183,8.96295749 L22.8762279,6.75704251 L22.8762279,12.9755268 C22.8762279,13.4875786 22.5746562,13.9567098 22.1090373,14.1693161 L22.1090373,14.1693161 Z M10.1060904,12.9755268 L10.1060904,6.75704251 L16,8.96295749 L16,15.229353 C13.5746562,15.1624769 11.8811395,14.6284658 10.8742633,14.1693161 C10.4076621,13.9567098 10.1060904,13.4875786 10.1060904,12.9755268 L10.1060904,12.9755268 Z M10.4724951,15.0796303 C11.6345776,15.6096488 13.6218075,16.2404806 16.4911591,16.2404806 C19.3605108,16.2404806 21.3477407,15.6096488 22.5108055,15.0796303 C23.3290766,14.7063216 23.8585462,13.8798521 23.8585462,12.9755268 L23.8585462,6.04136784 L23.8585462,6.04036969 C23.8585462,5.83075786 23.7288802,5.64410351 23.5353635,5.5722366 L16.6591356,3.02994455 C16.5510806,2.99001848 16.4302554,2.99001848 16.3231827,3.02994455 L9.44695481,5.5722366 C9.25343811,5.64410351 9.1237721,5.83075786 9.1237721,6.04036969 L9.1237721,6.04136784 L9.1237721,12.9755268 C9.1237721,13.8798521 9.65324165,14.7063216 10.4724951,15.0796303 L10.4724951,15.0796303 Z" id="AWS-Fargate_Icon_32_Squid"></path>
        </g>
    </g>
</svg>