<?xml version="1.0" encoding="UTF-8"?>
<svg width="40px" height="40px" viewBox="0 0 40 40" version="1.1" xmlns="http://www.w3.org/2000/svg" xmlns:xlink="http://www.w3.org/1999/xlink">
    <!-- Generator: Sketch 64 (93537) - https://sketch.com -->
    <title>Icon-Architecture/32/Arch_AWS-Bottlerocket_32</title>
    <desc>Created with Sketch.</desc>
    <defs>
        <linearGradient x1="0%" y1="100%" x2="100%" y2="0%" id="linearGradient-1">
            <stop stop-color="#C8511B" offset="0%"></stop>
            <stop stop-color="#FF9900" offset="100%"></stop>
        </linearGradient>
    </defs>
    <g id="Icon-Architecture/32/Arch_AWS-Bottlerocket_32" stroke="none" stroke-width="1" fill="none" fill-rule="evenodd">
        <g id="Icon-Architecture-BG/32/Compute" fill="url(#linearGradient-1)">
            <rect id="Rectangle" x="0" y="0" width="40" height="40"></rect>
        </g>
        <g id="Icon-Service/32/Bottlerocket" transform="translate(4.000000, 4.000000)" fill="#FFFFFF">
            <path d="M21,19.8153751 L21,13.8943751 L23,16.1683751 L23,21.7853751 L21,19.8153751 Z M18.5,24.4793751 C19.879,24.4793751 21,23.3583751 21,21.9793751 L21,21.2183751 L23.149,23.3363751 C23.244,23.4293751 23.371,23.4793751 23.5,23.4793751 C23.565,23.4793751 23.631,23.4663751 23.693,23.4403751 C23.879,23.3633751 24,23.1803751 24,22.9793751 L24,15.9793751 C24,15.8583751 23.956,15.7403751 23.875,15.6493751 L21,12.3813751 L21,10.4793751 L20,10.4793751 L20,21.9793751 C20,22.8063751 19.327,23.4793751 18.5,23.4793751 L17.452,23.4793751 C17.176,23.4793751 17,23.7033751 17,23.9793751 L17,26.4793751 L18,26.4793751 L18,24.4793751 L18.5,24.4793751 Z M9,21.7853751 L9,16.1683751 L11,13.8943751 L11,19.8153751 L9,21.7853751 Z M14,24.4793751 L14,26.4793751 L15,26.4793751 L15,23.9793751 C15,23.7033751 14.824,23.4793751 14.548,23.4793751 L13.5,23.4793751 C12.673,23.4793751 12,22.8063751 12,21.9793751 L12,10.4793751 L11,10.4793751 L11,12.3813751 L8.125,15.6493751 C8.044,15.7403751 8,15.8583751 8,15.9793751 L8,22.9793751 C8,23.1803751 8.121,23.3633751 8.307,23.4403751 C8.369,23.4663751 8.435,23.4793751 8.5,23.4793751 C8.629,23.4793751 8.756,23.4293751 8.851,23.3363751 L11,21.2183751 L11,21.9793751 C11,23.3583751 12.121,24.4793751 13.5,24.4793751 L14,24.4793751 Z M15,16.4793751 L17,16.4793751 L17,14.4793751 L15,14.4793751 L15,16.4793751 Z M14.5,13.4793751 C14.224,13.4793751 14,13.7033751 14,13.9793751 L14,16.9793751 C14,17.2553751 14.224,17.4793751 14.5,17.4793751 L17.5,17.4793751 C17.776,17.4793751 18,17.2553751 18,16.9793751 L18,13.9793751 C18,13.7033751 17.776,13.4793751 17.5,13.4793751 L14.5,13.4793751 Z M16.031,3.0003751 L20.583,8.5423751 C19.499,8.2873751 17.918,8.0253751 16,8.0253751 C14.128,8.0253751 12.523,8.2943751 11.42,8.5523751 L16.031,3.0003751 Z M10,9.9793751 C10.059,9.9793751 10.118,9.9683751 10.175,9.9483751 C10.2,9.9383751 12.687,9.0253751 16,9.0253751 C19.447,9.0253751 21.793,9.9353751 21.816,9.9443751 C22.027,10.0283751 22.27,9.9583751 22.404,9.7733751 C22.538,9.5893751 22.531,9.3373751 22.387,9.1623751 L16.811,2.3733751 C16.418,1.8733751 15.576,1.8803751 15.195,2.3653751 L9.613,9.1623751 C9.47,9.3363751 9.462,9.5863751 9.594,9.7693751 C9.689,9.9043751 9.843,9.9793751 10,9.9793751 L10,9.9793751 Z M15,29.4793751 L17,29.4793751 L17,28.4793751 L15,28.4793751 L15,29.4793751 Z M13,28.4793751 L14,28.4793751 L14,29.9793751 C14,30.2553751 14.224,30.4793751 14.5,30.4793751 L17.5,30.4793751 C17.776,30.4793751 18,30.2553751 18,29.9793751 L18,28.4793751 L19,28.4793751 L19,27.4793751 L13,27.4793751 L13,28.4793751 Z" id="Bottlerocket_Icon_32_Squid"></path>
        </g>
    </g>
</svg>