<?xml version="1.0" encoding="UTF-8"?>
<svg width="40px" height="40px" viewBox="0 0 40 40" version="1.1" xmlns="http://www.w3.org/2000/svg" xmlns:xlink="http://www.w3.org/1999/xlink">
    <title>Icon-Architecture/32/Arch_AWS-ThinkBox-Sequoia_32</title>
    <defs>
        <linearGradient x1="0%" y1="100%" x2="100%" y2="0%" id="linearGradient-1">
            <stop stop-color="#C8511B" offset="0%"></stop>
            <stop stop-color="#FF9900" offset="100%"></stop>
        </linearGradient>
    </defs>
    <g id="Icon-Architecture/32/Arch_AWS-ThinkBox-Sequoia_32" stroke="none" stroke-width="1" fill="none" fill-rule="evenodd">
        <g id="Rectangle" fill="url(#linearGradient-1)">
            <rect x="0" y="0" width="40" height="40"></rect>
        </g>
        <g id="Icon-Service/32/AWS-ThinkBox-Sequoia_32" transform="translate(4.000000, 4.000000)" fill="#FFFFFF">
            <path d="M11.78,17.44925 L12.768,18.07825 L12.231,18.92225 L11.053,18.17225 C10.392,18.79925 9.684,19.40525 8.903,19.97425 L16,24.41025 L23.096,19.97425 C22.315,19.40525 21.607,18.79925 20.946,18.17225 L19.768,18.92225 L19.231,18.07825 L20.219,17.44925 C19.699,16.90125 19.22,16.33225 18.785,15.74325 L16.277,17.41625 C16.193,17.47225 16.096,17.50025 16,17.50025 C15.903,17.50025 15.806,17.47225 15.722,17.41625 L13.215,15.74325 C12.779,16.33225 12.301,16.90125 11.78,17.44925 L11.78,17.44925 Z M13.784,14.92225 L16,16.39925 L18.216,14.92225 C17.191,13.35025 16.441,11.65225 16,9.82025 C15.558,11.65225 14.808,13.35025 13.784,14.92225 L13.784,14.92225 Z M6.665,14.62825 C8.451,13.02025 10.5,10.81425 10.5,8.00025 L11.5,8.00025 C11.5,9.57125 12.046,10.78725 12.927,12.24125 L12.072,12.75925 C11.616,12.00825 11.251,11.30925 10.982,10.59425 C10.303,12.32425 9.052,13.76225 7.817,14.92725 L10.924,16.90425 C13.96,13.77025 15.5,9.93925 15.5,5.46525 C15.5,5.18825 15.723,4.96525 16,4.96525 C16.276,4.96525 16.5,5.18825 16.5,5.46525 C16.5,9.93925 18.04,13.77025 21.076,16.90425 L24.182,14.92725 C22.947,13.76225 21.696,12.32325 21.017,10.59425 C20.749,11.30925 20.384,12.00725 19.927,12.75925 L19.072,12.24125 C19.954,10.78725 20.5,9.57125 20.5,8.00025 L21.5,8.00025 C21.5,10.81425 23.549,13.02025 25.335,14.62825 C25.451,14.73325 25.511,14.88625 25.498,15.04125 C25.485,15.19725 25.4,15.33825 25.268,15.42225 L21.81,17.62225 C22.557,18.31325 23.379,18.97025 24.282,19.58725 C24.421,19.68225 24.503,19.84125 24.5,20.01025 C24.496,20.17825 24.408,20.33425 24.264,20.42425 L16.264,25.42425 C16.183,25.47425 16.092,25.50025 16,25.50025 C15.908,25.50025 15.816,25.47425 15.735,25.42425 L7.735,20.42425 C7.592,20.33425 7.504,20.17825 7.5,20.01025 C7.497,19.84125 7.579,19.68225 7.718,19.58725 C8.621,18.97025 9.442,18.31325 10.189,17.62225 L6.731,15.42225 C6.599,15.33825 6.514,15.19725 6.502,15.04125 C6.488,14.88625 6.549,14.73325 6.665,14.62825 L6.665,14.62825 Z M16,3.57425 L18.039,4.72725 L18.531,3.85725 L16.246,2.56525 C16.093,2.47825 15.906,2.47825 15.754,2.56525 L13.468,3.85725 L13.961,4.72725 L16,3.57425 Z M27.746,9.06525 L25.509,7.80125 L25.017,8.67125 L27,9.79125 L27,22.20825 L16,28.42625 L5,22.20825 L5,9.79125 L6.982,8.67125 L6.49,7.80125 L4.254,9.06525 C4.096,9.15325 4,9.32025 4,9.50025 L4,22.50025 C4,22.68025 4.096,22.84625 4.254,22.93525 L15.754,29.43525 C15.83,29.47825 15.915,29.50025 16,29.50025 C16.085,29.50025 16.17,29.47825 16.246,29.43525 L27.746,22.93525 C27.903,22.84625 28,22.68025 28,22.50025 L28,9.50025 C28,9.32025 27.903,9.15325 27.746,9.06525 L27.746,9.06525 Z M23.245,6.52025 L20.756,5.11425 L20.263,5.98425 L22.753,7.39025 L23.245,6.52025 Z M11.736,5.98425 L11.244,5.11425 L8.755,6.52025 L9.247,7.39025 L11.736,5.98425 Z M15.722,20.91625 L14.222,19.91625 L14.777,19.08425 L16,19.89925 L17.222,19.08425 L17.777,19.91625 L16.277,20.91625 C16.193,20.97225 16.096,21.00025 16,21.00025 C15.903,21.00025 15.806,20.97225 15.722,20.91625 L15.722,20.91625 Z" id="AWS-ThinkBox-Sequoia_32_Squid"></path>
        </g>
    </g>
</svg>