<?xml version="1.0" encoding="UTF-8"?>
<svg width="40px" height="40px" viewBox="0 0 40 40" version="1.1" xmlns="http://www.w3.org/2000/svg" xmlns:xlink="http://www.w3.org/1999/xlink">
    <title>Icon-Architecture/32/Arch_AWS-Parallel-Cluster_32</title>
    <defs>
        <linearGradient x1="0%" y1="100%" x2="100%" y2="0%" id="linearGradient-1">
            <stop stop-color="#C8511B" offset="0%"></stop>
            <stop stop-color="#FF9900" offset="100%"></stop>
        </linearGradient>
    </defs>
    <g id="Icon-Architecture/32/Arch_AWS-Parallel-Cluster_32" stroke="none" stroke-width="1" fill="none" fill-rule="evenodd">
        <g id="Rectangle" fill="url(#linearGradient-1)">
            <rect x="0" y="0" width="40" height="40"></rect>
        </g>
        <g id="Icon-Service/32/AWS-ParallelClusters_32" transform="translate(4.000000, 4.000000)" fill="#FFFFFF">
            <path d="M20.2963781,27 L24.2973781,27 L24.2973781,23 L20.2963781,23 L20.2963781,27 Z M25.2973781,22.5 L25.2973781,27.5 C25.2973781,27.776 25.0733781,28 24.7973781,28 L19.7963781,28 C19.5193781,28 19.2963781,27.776 19.2963781,27.5 L19.2963781,22.5 C19.2963781,22.224 19.5193781,22 19.7963781,22 L24.7973781,22 C25.0733781,22 25.2973781,22.224 25.2973781,22.5 L25.2973781,22.5 Z M27.7973781,19 L22.7973781,19 C22.5203781,19 22.2973781,19.224 22.2973781,19.5 L22.2973781,20.5 C22.2973781,20.776 22.5203781,21 22.7973781,21 C23.0733781,21 23.2973781,20.776 23.2973781,20.5 L23.2973781,20 L27.2973781,20 L27.2973781,24 L26.7973781,24 C26.5203781,24 26.2973781,24.224 26.2973781,24.5 C26.2973781,24.776 26.5203781,25 26.7973781,25 L27.7973781,25 C28.0733781,25 28.2973781,24.776 28.2973781,24.5 L28.2973781,19.5 C28.2973781,19.224 28.0733781,19 27.7973781,19 L27.7973781,19 Z M8.29737813,9 L12.2973781,9 L12.2973781,5 L8.29737813,5 L8.29737813,9 Z M7.29737813,9.5 L7.29737813,4.5 C7.29737813,4.224 7.52037813,4 7.79737813,4 L12.7973781,4 C13.0733781,4 13.2973781,4.224 13.2973781,4.5 L13.2973781,9.5 C13.2973781,9.776 13.0733781,10 12.7973781,10 L7.79737813,10 C7.52037813,10 7.29737813,9.776 7.29737813,9.5 L7.29737813,9.5 Z M3.79737813,13 L8.79737813,13 C9.07337813,13 9.29737813,12.776 9.29737813,12.5 L9.29737813,11.5 C9.29737813,11.224 9.07337813,11 8.79737813,11 C8.52037813,11 8.29737813,11.224 8.29737813,11.5 L8.29737813,12 L4.29737813,12 L4.29737813,8 L4.79737813,8 C5.07337813,8 5.29737813,7.776 5.29737813,7.5 C5.29737813,7.224 5.07337813,7 4.79737813,7 L3.79737813,7 C3.52037813,7 3.29737813,7.224 3.29737813,7.5 L3.29737813,12.5 C3.29737813,12.776 3.52037813,13 3.79737813,13 L3.79737813,13 Z M29.3733781,17.982 C29.2983781,18.248 29.0203781,18.403 28.7553781,18.327 C28.4893781,18.252 28.3353781,17.976 28.4103781,17.71 C28.7993781,16.341 28.5483781,14.839 27.7553781,13.79 C27.0133781,12.809 25.8793781,12.291 24.4743781,12.291 C20.8523781,12.291 18.8693781,14.311 16.9093781,16.582 C18.1383781,17.986 19.4343781,19.364 21.0523781,20.14 C21.3013781,20.26 21.4053781,20.558 21.2863781,20.807 C21.1993781,20.986 21.0203781,21.091 20.8353781,21.091 C20.7613781,21.091 20.6883781,21.075 20.6183781,21.042 C18.8683781,20.201 17.5173781,18.791 16.2493781,17.347 C14.3323781,19.585 12.3043781,21.818 8.79437813,21.818 C6.84137813,21.818 5.17337813,21.025 4.09737813,19.584 C3.07137813,18.209 2.73937813,16.443 3.20937813,14.86 C3.28737813,14.596 3.56237813,14.444 3.83137813,14.522 C4.09537813,14.601 4.24637813,14.879 4.16837813,15.144 C3.79337813,16.408 4.07337813,17.88 4.89937813,18.986 C5.78137813,20.167 7.16437813,20.818 8.79437813,20.818 C11.9083781,20.818 13.7093781,18.779 15.5863781,16.586 C14.1703781,14.956 12.8163781,13.435 11.0323781,12.717 C10.7763781,12.614 10.6513781,12.323 10.7553781,12.067 C10.8573781,11.81 11.1483781,11.687 11.4053781,11.79 C13.3623781,12.577 14.8373781,14.202 16.2453781,15.819 C18.2593781,13.496 20.4773781,11.291 24.4743781,11.291 C26.1793781,11.291 27.6283781,11.964 28.5533781,13.187 C29.5303781,14.48 29.8443781,16.318 29.3733781,17.982 L29.3733781,17.982 Z" id="AWS-ParallelClusters_Icon_32_Squid"></path>
        </g>
    </g>
</svg>