<?xml version="1.0" encoding="UTF-8"?>
<svg width="40px" height="40px" viewBox="0 0 40 40" version="1.1" xmlns="http://www.w3.org/2000/svg" xmlns:xlink="http://www.w3.org/1999/xlink">
    <!-- Generator: Sketch 64 (93537) - https://sketch.com -->
    <title>Icon-Architecture/32/Arch_AWS-Local-Zones_32</title>
    <desc>Created with Sketch.</desc>
    <defs>
        <linearGradient x1="0%" y1="100%" x2="100%" y2="0%" id="linearGradient-1">
            <stop stop-color="#C8511B" offset="0%"></stop>
            <stop stop-color="#FF9900" offset="100%"></stop>
        </linearGradient>
    </defs>
    <g id="Icon-Architecture/32/Arch_AWS-Local-Zones_32" stroke="none" stroke-width="1" fill="none" fill-rule="evenodd">
        <g id="Icon-Architecture-BG/32/Compute" fill="url(#linearGradient-1)">
            <rect id="Rectangle" x="0" y="0" width="40" height="40"></rect>
        </g>
        <path d="M20.50062,17.6138272 C19.8908824,17.6138272 19.3945843,17.1308642 19.3945843,16.5362963 C19.3945843,15.942716 19.8908824,15.4587654 20.50062,15.4587654 C21.1103577,15.4587654 21.6056429,15.942716 21.6056429,16.5362963 C21.6056429,17.1308642 21.1103577,17.6138272 20.50062,17.6138272 L20.50062,17.6138272 Z M29.5788239,7.43901235 L28.825261,6.7782716 L21.4992933,14.7259259 C21.1994888,14.5688889 20.8632215,14.4711111 20.50062,14.4711111 C19.3328002,14.4711111 18.381731,15.3975309 18.381731,16.5362963 C18.381731,17.6750617 19.3328002,18.6014815 20.50062,18.6014815 C21.6684398,18.6014815 22.6184962,17.6750617 22.6184962,16.5362963 C22.6184962,16.1096296 22.4847996,15.7125926 22.2558947,15.382716 L29.5788239,7.43901235 Z M15.8273151,14.9688889 C15.6956441,15.4123457 15.6237315,15.8716049 15.6237315,16.3358025 C15.6237315,18.0079012 16.4816183,19.5535802 17.9208828,20.4701235 L18.4749135,19.6434568 C17.3232993,18.9096296 16.6365848,17.6730864 16.6365848,16.3358025 C16.6365848,16.2301235 16.6487391,16.1264198 16.6578547,16.022716 C16.6254434,15.92 16.6051864,15.8419753 16.6092378,15.8182716 L15.8273151,14.9688889 Z M24.5783673,15.8182716 C24.5824187,15.8419753 24.5631745,15.92 24.5307632,16.022716 C24.538866,16.1264198 24.5520331,16.2311111 24.5520331,16.3358025 C24.5520331,17.6730864 23.8643057,18.9096296 22.7137044,19.6434568 L23.2667223,20.4701235 C24.7059868,19.5535802 25.5648864,18.0079012 25.5648864,16.3358025 C25.5648864,15.8716049 25.4929738,15.4123457 25.3623157,14.9688889 L24.5783673,15.8182716 Z M23.4115603,9.69382716 C22.4898638,9.31851852 21.5175247,9.1308642 20.5046714,9.1308642 C16.3114589,9.1308642 12.9082719,12.4493827 12.9082719,16.5382716 C12.9082719,19.0469136 14.1945956,21.3679012 16.351973,22.7407407 L16.8989138,21.9111111 C15.0352638,20.7259259 13.9211252,18.7111111 13.9211252,16.5382716 C13.9211252,12.9925926 16.8685282,10.1185185 20.5046714,10.1185185 C21.2541829,10.1185185 21.9834372,10.237037 22.682306,10.4839506 L23.4115603,9.69382716 Z M27.1692459,13.0024691 C27.7779707,14.0888889 28.1010709,15.3037037 28.1010709,16.5382716 C28.1010709,19.0469136 26.8046188,21.3679012 24.6472413,22.7407407 L24.1003005,21.9111111 C25.9649634,20.7160494 27.0882177,18.7111111 27.0882177,16.5382716 C27.0882177,15.5901235 26.86539,14.6419753 26.4399916,13.7925926 L27.1692459,13.0024691 Z M24.9713543,7.99506173 C23.7265577,7.40246914 22.3176788,7.05679012 20.7983989,6.98765432 L20.1815712,6.98765432 C14.6301225,7.25432099 10.7721644,11.1851852 11.0253777,16.3407407 C11.2877067,21.654321 18.7119212,30.6518519 20.5046714,32.7358025 C22.2872932,30.6518519 29.7115076,21.6444444 29.9748495,16.3407407 C30.0660063,14.5432099 29.6304794,12.8148148 28.7189114,11.3333333 L29.2658522,10.7308642 L29.4582943,10.6123457 C30.5633172,12.3111111 31.0889881,14.3061728 30.9877027,16.3901235 C30.6737182,22.7308642 21.2845685,33.3777778 20.8794271,33.8320988 C20.7882704,33.9407407 20.6474837,34 20.5046714,34 C20.3527434,34 20.210944,33.9407407 20.1197872,33.8320988 C19.7146459,33.3777778 10.3254961,22.7308642 10.0125245,16.3901235 C9.73804122,10.6617284 14.0021535,6.2962963 20.1501728,6 L20.818656,6 C22.6114062,6.08888889 24.2329843,6.5037037 25.6702231,7.24444444 L24.9713543,7.99506173 Z" id="AWS-Local-Zones_Icon_32_Squid" fill="#FFFFFF"></path>
    </g>
</svg>