<?xml version="1.0" encoding="UTF-8"?>
<svg width="40px" height="40px" viewBox="0 0 40 40" version="1.1" xmlns="http://www.w3.org/2000/svg" xmlns:xlink="http://www.w3.org/1999/xlink">
    <!-- Generator: Sketch 64 (93537) - https://sketch.com -->
    <title>Icon-Architecture/32/Arch_Amazon-EC2-Auto-Scaling_32</title>
    <desc>Created with Sketch.</desc>
    <defs>
        <linearGradient x1="0%" y1="100%" x2="100%" y2="0%" id="linearGradient-1">
            <stop stop-color="#C8511B" offset="0%"></stop>
            <stop stop-color="#FF9900" offset="100%"></stop>
        </linearGradient>
    </defs>
    <g id="Icon-Architecture/32/Arch_Amazon-EC2-Auto-Scaling_32" stroke="none" stroke-width="1" fill="none" fill-rule="evenodd">
        <g id="Icon-Architecture-BG/32/Compute" fill="url(#linearGradient-1)">
            <rect id="Rectangle" x="0" y="0" width="40" height="40"></rect>
        </g>
        <path d="M24,17.9619642 L24,16.4376293 C24,16.1571517 23.775,15.9295177 23.5,15.9295177 L16.5,15.9295177 C16.225,15.9295177 16,16.1571517 16,16.4376293 L16,17.9619642 L16,18.9781875 L16,21.0106341 L16,22.0268573 L16,23.5511922 C16,23.8316699 16.225,24.0593039 16.5,24.0593039 L18,24.0593039 L19,24.0593039 L21,24.0593039 L22,24.0593039 L23.5,24.0593039 C23.775,24.0593039 24,23.8316699 24,23.5511922 L24,22.0268573 L24,21.0106341 L24,18.9781875 L24,17.9619642 Z M25,14.9132944 L26,14.9132944 L26,15.9295177 L24.908,15.9295177 C24.964,16.0890647 25,16.258774 25,16.4376293 L25,17.9619642 L26,17.9619642 L26,18.9781875 L25,18.9781875 L25,21.0106341 L26,21.0106341 L26,22.0268573 L25,22.0268573 L25,23.5511922 C25,23.7300475 24.964,23.8997568 24.908,24.0593039 L25,24.0593039 L26,24.0593039 L26,25.0755272 L25,25.0755272 L25,26.0917504 L24,26.0917504 L24,25.0755272 L24,24.9820346 C23.843,25.0389431 23.676,25.0755272 23.5,25.0755272 L22,25.0755272 L22,26.0917504 L21,26.0917504 L21,25.0755272 L19,25.0755272 L19,26.0917504 L18,26.0917504 L18,25.0755272 L16.5,25.0755272 C16.324,25.0755272 16.157,25.0389431 16,24.9820346 L16,25.0755272 L16,26.0917504 L15,26.0917504 L15,25.0755272 L14,25.0755272 L14,24.0593039 L15,24.0593039 L15.092,24.0593039 C15.036,23.8997568 15,23.7300475 15,23.5511922 L15,22.0268573 L14,22.0268573 L14,21.0106341 L15,21.0106341 L15,18.9781875 L14,18.9781875 L14,17.9619642 L15,17.9619642 L15,16.4376293 C15,16.258774 15.036,16.0890647 15.092,15.9295177 L14,15.9295177 L14,14.9132944 L15,14.9132944 L15,13.8970711 L16,13.8970711 L16,14.9132944 L16,15.0067869 C16.157,14.9498784 16.324,14.9132944 16.5,14.9132944 L18,14.9132944 L18,13.8970711 L19,13.8970711 L19,14.9132944 L21,14.9132944 L21,13.8970711 L22,13.8970711 L22,14.9132944 L23.5,14.9132944 C23.676,14.9132944 23.843,14.9498784 24,15.0067869 L24,14.9132944 L24,13.8970711 L25,13.8970711 L25,14.9132944 Z M21,31.8364606 L21,27.1079737 L20,27.1079737 L20,31.8364606 L17.881,29.3070809 L17.119,29.9666098 L20.5,34 L23.881,29.9666098 L23.119,29.3070809 L21,31.8364606 Z M9.176,17.8410336 L11.665,19.9944108 L6,19.9944108 L6,21.0106341 L11.665,21.0106341 L9.176,23.1640112 L9.824,23.9383733 L13.795,20.5025224 L9.824,17.0666715 L9.176,17.8410336 Z M34,19.9944108 L28.335,19.9944108 L30.824,17.8410336 L30.176,17.0666715 L26.205,20.5025224 L30.176,23.9383733 L30.824,23.1640112 L28.335,21.0106341 L34,21.0106341 L34,19.9944108 Z M17.881,10.6939353 L17.119,10.0344064 L20.5,6 L23.881,10.0344064 L23.119,10.6939353 L21,8.16455558 L21,12.8808478 L20,12.8808478 L20,8.16455558 L17.881,10.6939353 Z" id="Amazon-EC2-Auto-Scaling_Icon_32_Squid" fill="#FFFFFF"></path>
    </g>
</svg>