<?xml version="1.0" encoding="UTF-8"?>
<svg width="40px" height="40px" viewBox="0 0 40 40" version="1.1" xmlns="http://www.w3.org/2000/svg" xmlns:xlink="http://www.w3.org/1999/xlink">
    <title>Icon-Architecture/32/Arch_AWS-Compute-Optimizer_32</title>
    <defs>
        <linearGradient x1="0%" y1="100%" x2="100%" y2="0%" id="linearGradient-1">
            <stop stop-color="#C8511B" offset="0%"></stop>
            <stop stop-color="#FF9900" offset="100%"></stop>
        </linearGradient>
    </defs>
    <g id="Icon-Architecture/32/Arch_AWS-Compute-Optimizer_32" stroke="none" stroke-width="1" fill="none" fill-rule="evenodd">
        <g id="Rectangle" fill="url(#linearGradient-1)">
            <rect x="0" y="0" width="40" height="40"></rect>
        </g>
        <g id="Icon-Service/32/AWS-Compute-Optimizer_32" transform="translate(4.000000, 4.000000)" fill="#FFFFFF">
            <path d="M17.024,19.031549 L17.024,18.027549 C18.802,17.781549 20.155,16.257549 20.155,14.389549 C20.155,12.522549 18.802,10.997549 17.024,10.752549 L17.024,9.747549 C19.361,9.998549 21.155,11.968549 21.155,14.389549 C21.155,16.810549 19.361,18.780549 17.024,19.031549 L17.024,19.031549 Z M18.026,3.605549 L17.024,3.605549 L17.024,2.605549 L18.554,2.605549 C18.692,2.605549 18.823,2.662549 18.918,2.761549 C19.012,2.862549 19.061,2.996549 19.053,3.133549 L18.972,4.593549 C19.808,4.819549 20.609,5.149549 21.361,5.579549 L22.333,4.487549 C22.423,4.385549 22.553,4.324549 22.691,4.320549 C22.814,4.313549 22.961,4.368549 23.059,4.466549 L26.234,7.633549 C26.331,7.730549 26.384,7.863549 26.38,8.001549 C26.377,8.138549 26.316,8.268549 26.213,8.360549 L25.125,9.333549 C25.556,10.082549 25.889,10.882549 26.117,11.720549 L27.574,11.636549 C27.709,11.635549 27.846,11.677549 27.946,11.771549 C28.046,11.865549 28.103,11.997549 28.103,12.135549 L28.109,16.618549 C28.109,16.756549 28.052,16.887549 27.953,16.982549 C27.853,17.077549 27.717,17.128549 27.581,17.118549 L26.128,17.037549 C25.866,18.011549 25.461,18.937549 24.92,19.794549 L24.075,19.261549 C24.629,18.380549 25.026,17.419549 25.253,16.405549 C25.307,16.167549 25.489,15.997549 25.77,16.015549 L27.108,16.090549 L27.104,12.665549 L25.761,12.742549 C25.514,12.758549 25.298,12.593549 25.245,12.354549 C25.013,11.338549 24.615,10.379549 24.06,9.505549 C23.928,9.298549 23.966,9.027549 24.149,8.864549 L25.153,7.967549 L22.727,5.548549 L21.832,6.553549 C21.67,6.737549 21.401,6.775549 21.192,6.644549 C20.314,6.091549 19.354,5.696549 18.34,5.468549 C18.102,5.414549 17.937,5.196549 17.951,4.952549 L18.026,3.605549 Z M11.608,27.352549 L10.032,26.406549 L13.332,23.931549 L12.732,23.132549 L9.106,25.851549 L6.026,24.003549 L6.026,20.331549 L8.291,18.959549 L7.773,18.104549 L5.48,19.493549 L3.001,18.501549 L3,15.491549 L5.76,13.821549 L5.243,12.965549 L3,14.323549 L3.001,12.485549 L5.503,11.114549 L8.052,12.801549 L8.052,14.262549 L6.757,15.114549 L7.306,15.949549 L8.585,15.109549 L10.013,15.838549 L10.013,17.531549 L11.013,17.531549 L11.013,15.531549 C11.013,15.343549 10.908,15.172549 10.741,15.086549 L9.052,14.225549 L9.052,12.801549 L11.853,10.948549 C11.994,10.856549 12.078,10.699549 12.078,10.531549 L12.078,7.531549 L11.078,7.531549 L11.078,10.262549 L8.552,11.932549 L6.026,10.263549 L6.026,6.399549 L8.011,5.075549 L8.011,7.531549 L9.011,7.531549 L9.011,4.408549 L11.031,3.062549 L15.001,4.654549 L15.001,14.153549 L12.796,12.664549 L12.236,13.493549 L15.001,15.360549 L15.001,16.812549 L10.725,20.137549 L11.338,20.926549 L15.001,18.078549 L15.001,25.782549 L11.608,27.352549 Z M15.687,3.852549 L11.159,2.036549 C11.003,1.973549 10.832,1.993549 10.695,2.084549 L5.249,5.715549 C5.11,5.808549 5.026,5.964549 5.026,6.131549 L5.026,10.235549 L2.26,11.750549 C2.1,11.838549 2.001,12.006549 2.001,12.189549 L2,15.062549 L2.001,18.840549 C2.001,19.044549 2.126,19.228549 2.315,19.304549 L5.026,20.388549 L5.026,24.286549 C5.026,24.462549 5.118,24.624549 5.269,24.715549 L11.321,28.345549 C11.399,28.393549 11.489,28.417549 11.578,28.417549 C11.649,28.417549 11.721,28.402549 11.788,28.370549 L15.711,26.555549 C15.887,26.473549 16.001,26.296549 16.001,26.101549 L16.001,4.316549 C16.001,4.112549 15.877,3.927549 15.687,3.852549 L15.687,3.852549 Z M26.153,26.519549 L19.11,26.519549 C18.983,26.519549 18.885,26.497549 18.819,26.456549 C18.496,26.252549 18.111,25.859549 18.111,25.143549 C18.111,24.256549 18.674,23.925549 19.148,23.803549 C19.378,23.743549 19.536,23.529549 19.522,23.290549 L19.504,22.993549 C19.504,22.211549 20.06,21.338549 20.743,21.049549 C21.057,20.915549 21.348,20.862549 21.612,20.862549 C22.364,20.862549 22.895,21.293549 23.127,21.527549 C23.382,21.783549 23.591,22.128549 23.73,22.524549 C23.792,22.698549 23.945,22.825549 24.128,22.852549 C24.315,22.878549 24.495,22.803549 24.604,22.654549 C24.762,22.441549 25.032,22.349549 25.275,22.430549 C25.56,22.523549 25.723,22.827549 25.725,23.217549 C25.688,23.484549 25.87,23.733549 26.135,23.779549 C26.614,23.861549 27.417,24.150549 27.417,25.159549 C27.417,26.335549 26.343,26.499549 26.153,26.519549 L26.153,26.519549 Z M26.696,22.887549 C26.573,22.085549 26.066,21.637549 25.587,21.480549 C25.184,21.348549 24.756,21.386549 24.392,21.564549 C24.236,21.286549 24.05,21.037549 23.836,20.822549 C22.885,19.865549 21.584,19.607549 20.352,20.128549 C19.315,20.569549 18.529,21.770549 18.505,22.967549 C17.625,23.340549 17.111,24.128549 17.111,25.143549 C17.111,26.376549 17.847,27.025549 18.286,27.302549 C18.515,27.446549 18.793,27.519549 19.11,27.519549 L26.176,27.519549 C26.188,27.519549 26.201,27.518549 26.212,27.517549 C26.975,27.462549 28.417,26.897549 28.417,25.159549 C28.417,23.870549 27.586,23.163549 26.696,22.887549 L26.696,22.887549 Z" id="AWS-Compute-Optimizer_Icon_32_Squid"></path>
        </g>
    </g>
</svg>