<?xml version="1.0" encoding="UTF-8"?>
<svg width="40px" height="40px" viewBox="0 0 40 40" version="1.1" xmlns="http://www.w3.org/2000/svg" xmlns:xlink="http://www.w3.org/1999/xlink">
    <!-- Generator: Sketch 64 (93537) - https://sketch.com -->
    <title>Icon-Architecture/32/Arch_AWS-EC2-Image-Builder_32</title>
    <desc>Created with Sketch.</desc>
    <defs>
        <linearGradient x1="0%" y1="100%" x2="100%" y2="0%" id="linearGradient-1">
            <stop stop-color="#C8511B" offset="0%"></stop>
            <stop stop-color="#FF9900" offset="100%"></stop>
        </linearGradient>
    </defs>
    <g id="Icon-Architecture/32/Arch_AWS-EC2-Image-Builder_32" stroke="none" stroke-width="1" fill="none" fill-rule="evenodd">
        <g id="Icon-Architecture-BG/32/Compute" fill="url(#linearGradient-1)">
            <rect id="Rectangle" x="0" y="0" width="40" height="40"></rect>
        </g>
        <path d="M15.0769503,16.3742839 L11.2520469,20.1760823 L15.0769503,23.9729484 L15.7786127,23.2755245 L12.6563641,20.1760823 L15.7786127,17.0717077 L15.0769503,16.3742839 Z M6.99245029,32.0135448 L18.9018538,32.0135448 L18.9018538,8.33861972 L6.99245029,8.33861972 L6.99245029,32.0135448 Z M6,33 L19.894304,33 L19.894304,7.35216451 L6,7.35216451 L6,33 Z M7.62960337,19.6828546 C7.62960337,25.291839 12.2206784,29.8551808 17.8647432,29.8551808 L17.8647432,28.8687256 C12.768511,28.8687256 8.62205366,24.7473157 8.62205366,19.6828546 C8.62205366,14.6174071 12.768511,10.4969837 17.8647432,10.4969837 L17.8647432,9.51052851 C12.2206784,9.51052851 7.62960337,14.0728839 7.62960337,19.6828546 L7.62960337,19.6828546 Z M21.4613831,24.8765413 L21.4613831,25.8629965 C24.8515932,25.8629965 27.6086201,23.1216375 27.6086201,19.752893 C27.6086201,16.383162 24.8515932,13.6418029 21.4613831,13.6418029 L21.4613831,14.6282581 C24.3037607,14.6282581 26.6161699,16.9276852 26.6161699,19.752893 C26.6161699,22.5781007 24.3037607,24.8765413 21.4613831,24.8765413 L21.4613831,24.8765413 Z M34,17.7099442 L34,21.7968282 C34,22.3502295 33.5474427,22.8000531 32.9906781,22.8000531 L31.2320561,22.8000531 C31.0345585,23.4451948 30.7725517,24.0715939 30.4519902,24.6693857 L31.6965229,25.9064006 C32.0905256,26.2980233 32.0905256,26.9342869 31.6965229,27.3259096 L28.7886435,30.2162234 C28.3956332,30.6068597 27.7535179,30.6068597 27.3605076,30.2162234 L26.1149825,28.9782221 C25.51455,29.2978336 24.8843441,29.5582578 24.2362741,29.7545624 L24.2362741,31.5015745 C24.2362741,32.0559624 23.7827243,32.5067724 23.2259597,32.5067724 L21.1705951,32.5067724 L21.1705951,31.5203172 L23.2259597,31.5203172 L23.2438238,29.0028835 L23.6130153,28.9052244 C24.4288094,28.6901772 25.2158225,28.3656334 25.9512282,27.9404712 L26.2817141,27.7490989 L28.0621699,29.5187996 L30.9948605,26.6284858 L29.2144047,24.8351102 L29.4059476,24.5066206 C29.8346861,23.7746709 30.1621947,22.9924119 30.3785489,22.1805592 L30.4768015,21.8135979 L32.9906781,21.8135979 L33.0075497,17.7099442 L30.4768015,17.6912016 L30.3785489,17.3252267 C30.1621947,16.5133741 29.8346861,15.7311151 29.4059476,14.9991653 L29.2144047,14.6716622 L30.9948605,12.9019615 L28.0869812,9.98698638 L26.2817141,11.756687 L25.9512282,11.5653147 C25.2158225,11.1391661 24.4288094,10.8146223 23.6130153,10.5995751 L23.2438238,10.5029025 L23.2438238,8.00322495 L21.212278,7.98645521 L21.212278,7 L23.2259597,7 C23.7827243,7 24.2362741,7.44982358 24.2362741,8.00322495 L24.2362741,9.75122358 C24.8843441,9.94752817 25.51455,10.2079523 26.1159749,10.5265774 L27.3605076,9.28956255 C27.7535179,8.89892628 28.3956332,8.89793983 28.7886435,9.28956255 L31.6965229,12.1798763 C32.0905256,12.571499 32.0905256,13.2087491 31.6965229,13.5993854 L30.4519902,14.8364002 C30.7725517,15.4341921 31.0345585,16.0605911 31.2320561,16.7047464 L32.9906781,16.7047464 C33.5474427,16.7047464 34,17.1555564 34,17.7099442 L34,17.7099442 Z" id="AWS-EC2-Image-Builder_Icon_32_Squid" fill="#FFFFFF"></path>
    </g>
</svg>