<?xml version="1.0" encoding="UTF-8"?>
<svg width="40px" height="40px" viewBox="0 0 40 40" version="1.1" xmlns="http://www.w3.org/2000/svg" xmlns:xlink="http://www.w3.org/1999/xlink">
    <!-- Generator: Sketch 64 (93537) - https://sketch.com -->
    <title>Icon-Architecture/32/Arch_VMware-Cloud-on-AWS_32</title>
    <desc>Created with Sketch.</desc>
    <defs>
        <linearGradient x1="0%" y1="100%" x2="100%" y2="0%" id="linearGradient-1">
            <stop stop-color="#C8511B" offset="0%"></stop>
            <stop stop-color="#FF9900" offset="100%"></stop>
        </linearGradient>
    </defs>
    <g id="Icon-Architecture/32/Arch_VMware-Cloud-on-AWS_32" stroke="none" stroke-width="1" fill="none" fill-rule="evenodd">
        <g id="Icon-Architecture-BG/32/Compute" fill="url(#linearGradient-1)">
            <rect id="Rectangle" x="0" y="0" width="40" height="40"></rect>
        </g>
        <path d="M15.909,18.1670184 L17.909,18.1670184 L17.909,17.1670184 L15.909,17.1670184 L15.909,18.1670184 Z M29.619,24.3190184 L30.559,23.9770184 L29.613,21.3870184 C29.519,21.1280184 29.232,20.9950184 28.972,21.0890184 L26.322,22.0560184 L26.666,22.9950184 L28.135,22.4590184 C27.472,23.7670184 26.732,24.9810184 25.958,26.0120184 C25.819,26.1990184 25.68,26.3750184 25.54,26.5470184 C23.851,28.6350184 22.197,29.6680184 21.221,29.2400184 C20.895,29.0990184 20.635,28.7930184 20.448,28.3310184 L19.521,28.7050184 C19.805,29.4090184 20.255,29.9110184 20.821,30.1570184 C21.092,30.2750184 21.382,30.3330184 21.688,30.3330184 C23.019,30.3330184 24.654,29.2310184 26.316,27.1770184 C26.465,26.9950184 26.612,26.8070184 26.759,26.6100184 C27.584,25.5110184 28.37,24.2130184 29.071,22.8180184 L29.619,24.3190184 Z M29.617,16.9690184 C29.44,15.5050184 28.774,14.3830184 27.72,13.7870184 L27.228,14.6570184 C28.066,15.1320184 28.573,16.1090184 28.653,17.4100184 C28.667,17.6360184 28.832,17.8250184 29.054,17.8690184 C30.875,18.2340184 33.046,19.2690184 33.046,22.1260184 C33.046,25.7150184 30.181,26.2510184 28.473,26.2510184 L27.921,26.2510184 L27.921,27.2510184 L28.473,27.2510184 C29.78,27.2510184 34.046,26.8810184 34.046,22.1260184 C34.046,19.4790184 32.478,17.6590184 29.617,16.9690184 L29.617,16.9690184 Z M14.909,24.1670184 L18.909,24.1670184 L18.909,14.1670184 L14.909,14.1670184 L14.909,24.1670184 Z M19.409,13.1670184 C19.686,13.1670184 19.909,13.3910184 19.909,13.6670184 L19.909,24.6670184 C19.909,24.9440184 19.686,25.1670184 19.409,25.1670184 L14.409,25.1670184 C14.133,25.1670184 13.909,24.9440184 13.909,24.6670184 L13.909,13.6670184 C13.909,13.3910184 14.133,13.1670184 14.409,13.1670184 L19.409,13.1670184 Z M22.863,26.2510184 L11.484,26.2510184 C9.095,26.2510184 7.129,24.5580184 7.008,22.3560184 C7.004,22.2680184 7,22.1790184 7,22.0870184 C7,19.2020184 9.089,18.2550184 10.335,17.9470184 C10.58,17.8870184 10.742,17.6520184 10.711,17.4010184 C10.681,17.1510184 10.665,16.8950184 10.665,16.6340184 C10.665,14.3340184 12.314,11.8580184 14.417,10.9970184 C18.066,9.50201842 20.656,11.4660184 21.601,12.3780184 C22.356,13.1130184 22.969,14.0880184 23.373,15.1940184 L24.313,14.8510184 C23.856,13.6040184 23.16,12.5020184 22.297,11.6600184 C20.033,9.47201842 16.945,8.88001842 14.038,10.0720184 C11.545,11.0910184 9.665,13.9120184 9.665,16.6340184 C9.665,16.7890184 9.67,16.9430184 9.679,17.0940184 C8.317,17.5290184 6,18.7590184 6,22.0870184 C6,22.1950184 6.005,22.2980184 6.012,22.4510184 C6.16,25.1430184 8.565,27.2510184 11.484,27.2510184 L22.863,27.2510184 L22.863,26.2510184 Z M24.286,10.0930184 C25.037,10.4240184 25.441,11.6350184 25.398,13.4750184 L25.396,13.5960184 C25.33,15.3310184 24.855,17.4270184 24.077,19.5940184 L23.529,18.2470184 L22.604,18.6240184 L23.642,21.1770184 C23.691,21.2990184 23.788,21.3980184 23.91,21.4490184 C23.973,21.4750184 24.038,21.4880184 24.105,21.4880184 C24.169,21.4880184 24.232,21.4760184 24.293,21.4520184 L26.906,20.3890184 L26.529,19.4620184 L24.954,20.1030184 C25.803,17.7790184 26.324,15.5050184 26.397,13.5650184 C26.398,13.5010184 26.399,13.4400184 26.396,13.4400184 C26.452,11.2020184 25.847,9.68901842 24.687,9.17601842 C24.114,8.92901842 23.148,8.82001842 21.794,9.69501842 L22.337,10.5350184 C22.88,10.1840184 23.662,9.82201842 24.286,10.0930184 L24.286,10.0930184 Z M15.909,16.1670184 L17.909,16.1670184 L17.909,15.1670184 L15.909,15.1670184 L15.909,16.1670184 Z" id="VMware-Cloud-on-AWS_Icon_32_Squid" fill="#FFFFFF"></path>
    </g>
</svg>