<?xml version="1.0" encoding="UTF-8"?>
<svg width="64px" height="64px" viewBox="0 0 64 64" version="1.1" xmlns="http://www.w3.org/2000/svg" xmlns:xlink="http://www.w3.org/1999/xlink">
    <!-- Generator: Sketch 64 (93537) - https://sketch.com -->
    <title>Icon-Architecture/48/Arch_AWS-RoboMaker_48</title>
    <desc>Created with Sketch.</desc>
    <defs>
        <linearGradient x1="0%" y1="100%" x2="100%" y2="0%" id="linearGradient-1">
            <stop stop-color="#BD0816" offset="0%"></stop>
            <stop stop-color="#FF5252" offset="100%"></stop>
        </linearGradient>
    </defs>
    <g id="Icon-Architecture/48/Arch_AWS-RoboMaker_48" stroke="none" stroke-width="1" fill="none" fill-rule="evenodd">
        <g id="Icon-Architecture-BG/48/Robotics" fill="url(#linearGradient-1)">
            <rect id="Rectangle" x="0" y="0" width="64" height="64"></rect>
        </g>
        <path d="M12.5,32 C12.775,32 13,32.224 13,32.5 C13,32.776 12.775,33 12.5,33 C12.225,33 12,32.776 12,32.5 C12,32.224 12.225,32 12.5,32 L12.5,32 Z M12.5,35 C13.879,35 15,33.878 15,32.5 C15,31.122 13.879,30 12.5,30 C11.121,30 10,31.122 10,32.5 C10,33.878 11.121,35 12.5,35 L12.5,35 Z M18,23 C18.552,23 19,23.449 19,24 C19,24.551 18.552,25 18,25 C17.448,25 17,24.551 17,24 C17,23.449 17.448,23 18,23 L18,23 Z M15,24 C15,25.654 16.346,27 18,27 C19.654,27 21,25.654 21,24 C21,22.346 19.654,21 18,21 C16.346,21 15,22.346 15,24 L15,24 Z M14,16 C14.552,16 15,16.449 15,17 C15,17.551 14.552,18 14,18 C13.448,18 13,17.551 13,17 C13,16.449 13.448,16 14,16 L14,16 Z M14,20 C15.654,20 17,18.654 17,17 C17,15.346 15.654,14 14,14 C12.346,14 11,15.346 11,17 C11,18.654 12.346,20 14,20 L14,20 Z M23.707,15.707 L22.293,14.293 C24.369,12.218 28.017,10 32.03,10 C35.352,10 39.06,11.645 41.707,14.293 L40.293,15.707 C38.501,13.915 35.39,12 32.03,12 C29.227,12 25.96,13.455 23.707,15.707 L23.707,15.707 Z M32.03,14 C35.414,14 37.639,16.224 38.707,17.293 L37.293,18.707 C36.347,17.761 34.586,16 32.03,16 C29.414,16 27.653,17.761 26.707,18.707 L25.293,17.293 C26.361,16.224 28.586,14 32.03,14 L32.03,14 Z M52,49.159 L51,49.333 L51,42.224 L52,42.657 L52,49.159 Z M49,52 L48,52 L48,40 L49,40 L49,51.709 L49,52 Z M15,51.404 L15,40 L16,40 L16,52 L15,52 L15,51.404 Z M12,48.282 L12,42.738 L13,42.43 L13,48.619 L12,48.282 Z M32,25.79 C35.942,25.79 39.702,27.296 42.313,29.922 C44.71,32.331 46.019,35.553 46.000204,39 L46.000204,52 L18,52 L17.999,39.031 C18.235,31.482 24.254,25.79 32,25.79 L32,25.79 Z M30,22 C30,20.561 30.561,20 32,20 C33.439,20 34,20.561 34,22 L34,23.917 C33.34,23.841 32.674,23.79 32,23.79 C31.319,23.79 30.655,23.841 30,23.916 L30,22 Z M54,41.343 L51,40.044 L51,38 L47.957,38 C47.739,34.404 46.27,31.063 43.731,28.512 C41.657,26.426 38.953,24.977 36,24.276 L36,22 C36,19.458 34.542,18 32,18 C29.458,18 28,19.458 28,22 L28,24.273 C21.476,25.835 16.705,31.16 16.079,38 L13,38 L13,40.337 L10,41.262 L10,49.718 L13,50.73 L13,54 L51,54 L51,51.362 L54,50.841 L54,41.343 Z M26.5,37 C27.327,37 28,37.673 28,38.5 C28,39.327 27.327,40 26.5,40 C25.673,40 25,39.327 25,38.5 C25,37.673 25.673,37 26.5,37 L26.5,37 Z M26.5,42 C28.43,42 30,40.43 30,38.5 C30,36.57 28.43,35 26.5,35 C24.57,35 23,36.57 23,38.5 C23,40.43 24.57,42 26.5,42 L26.5,42 Z M37.5,37 C38.327,37 39,37.673 39,38.5 C39,39.327 38.327,40 37.5,40 C36.673,40 36,39.327 36,38.5 C36,37.673 36.673,37 37.5,37 L37.5,37 Z M37.5,42 C39.43,42 41,40.43 41,38.5 C41,36.57 39.43,35 37.5,35 C35.57,35 34,36.57 34,38.5 C34,40.43 35.57,42 37.5,42 L37.5,42 Z" id="AWS-RoboMaker_Icon_48_Squid" fill="#FFFFFF"></path>
    </g>
</svg>