<svg id="a7d97fe1-6c96-46cb-9b63-5f56172cd3d8" data-name="Artwork" xmlns="http://www.w3.org/2000/svg" width="24px" height="24px" viewBox="0 0 24 24"><rect x="8.999" y="7.013" width="2" height="4" fill="#aecbfa"/><rect x="12.999" y="7.013" width="2" height="4" fill="#aecbfa"/><path d="M8,18.93A7.993,7.993,0,0,1,12,4.013v-2A10,10,0,0,0,8,21.172Z" fill="#aecbfa"/><rect x="10.999" y="17.012" width="2" height="5" fill="#4285f4"/><path d="M16.99,10.013H7V12.95a5,5,0,1,0,10.008,0Z" fill="#4285f4"/><path d="M12,18.012A5.039,5.039,0,0,1,7,12.95V10.013h5" fill="#669df6"/><path d="M12,2.012a10,10,0,0,1,4,19.163V18.931A7.994,7.994,0,0,0,12,4.012Z" fill="#4285f4"/></svg>