<svg width="24px" height="24px" viewBox="0 0 24 24" version="1.1" xmlns="http://www.w3.org/2000/svg" xmlns:xlink="http://www.w3.org/1999/xlink">
    <g stroke="none" stroke-width="1" fill="none" fill-rule="evenodd">
        <g >
            <rect id="container" x="0" y="0" width="24" height="24"></rect>
            <path d="M5.58834375,10.8421875 L5.58834375,15.324 L8.74147393,13.1972121 C8.94154589,13.7412769 9.27304834,14.221828 9.69749215,14.6003763 L6.4434375,16.7952188 L11.1993281,19.7186719 L11.1993119,15.3886831 C11.4635303,15.4525274 11.7394614,15.4863554 12.0232936,15.4863554 C12.3250692,15.4863554 12.6179133,15.448115 12.8972445,15.3762157 L12.8971875,19.7167969 L15.4133906,18.1700625 L16.1973281,19.5009844 L12.046875,21.9375 L3.890625,17.1494318 L3.890625,10.8421875 L5.58834375,10.8421875 Z M15.2985278,13.2149702 L18.127077,15.122817 C18.4357922,14.9263277 18.8022594,14.8125 19.1953125,14.8125 C20.2955673,14.8125 21.1875,15.7044327 21.1875,16.8046875 C21.1875,17.9049423 20.2955673,18.796875 19.1953125,18.796875 C18.0950577,18.796875 17.203125,17.9049423 17.203125,16.8046875 C17.203125,16.7210875 17.2082744,16.6386902 17.2182734,16.5577955 L14.3349056,14.6129628 C14.761506,14.2366033 15.0955517,13.7577675 15.2985278,13.2149702 Z M19.1953125,16.0078125 C18.7552106,16.0078125 18.3984375,16.3645856 18.3984375,16.8046875 C18.3984375,17.2447894 18.7552106,17.6015625 19.1953125,17.6015625 C19.6354144,17.6015625 19.9921875,17.2447894 19.9921875,16.8046875 C19.9921875,16.3645856 19.6354144,16.0078125 19.1953125,16.0078125 Z M12.0232936,9.99326494 C13.1264754,9.99326494 14.020781,10.8875705 14.020781,11.9907524 C14.020781,13.0939342 13.1264754,13.9882398 12.0232936,13.9882398 C10.9201117,13.9882398 10.0258061,13.0939342 10.0258061,11.9907524 C10.0258061,10.8875705 10.9201117,9.99326494 12.0232936,9.99326494 Z M12.046875,2.0625 L20.203125,6.85056818 L20.203125,13.1892188 L18.505125,13.1892188 L18.505125,8.6595 L15.3149396,10.8113604 C15.1192932,10.2653827 14.7916658,9.78224039 14.3705087,9.40038475 L17.6372813,7.19690625 L12.8971875,4.28315625 L12.8972445,8.60528906 C12.6179133,8.53338972 12.3250692,8.49514936 12.0232936,8.49514936 C11.7394614,8.49514936 11.4635303,8.52897739 11.1993119,8.59282165 L11.1993281,4.28128125 L8.52004688,5.92823438 L7.7225625,4.60101563 L12.046875,2.0625 Z M4.7578125,5.203125 C5.85806727,5.203125 6.75,6.09505773 6.75,7.1953125 C6.75,7.27778321 6.74498876,7.35908348 6.73525418,7.43892543 L9.66211871,9.4131102 C9.24311837,9.79713135 8.91803765,10.2819747 8.72530579,10.829211 L5.82871399,8.87548317 C5.51944353,9.07301566 5.15199764,9.1875 4.7578125,9.1875 C3.65755773,9.1875 2.765625,8.29556727 2.765625,7.1953125 C2.765625,6.09505773 3.65755773,5.203125 4.7578125,5.203125 Z M4.7578125,6.3984375 C4.31771059,6.3984375 3.9609375,6.75521059 3.9609375,7.1953125 C3.9609375,7.63541441 4.31771059,7.9921875 4.7578125,7.9921875 C5.19791441,7.9921875 5.5546875,7.63541441 5.5546875,7.1953125 C5.5546875,6.75521059 5.19791441,6.3984375 4.7578125,6.3984375 Z" fill="#4285F4" fill-rule="evenodd"></path>
        </g>
    </g>
</svg>