<?xml version="1.0" encoding="UTF-8"?>
<svg width="24px" height="24px" viewBox="0 0 24 24" version="1.1" xmlns="http://www.w3.org/2000/svg" xmlns:xlink="http://www.w3.org/1999/xlink">
    <!-- Generator: Sketch 64 (93537) - https://sketch.com -->
    <title>Icon-Architecture/16/Arch_Amazon-Virtual-Private-Cloud_16</title>
    <desc>Created with Sketch.</desc>
    <defs>
        <linearGradient x1="0%" y1="100%" x2="100%" y2="0%" id="linearGradient-1">
            <stop stop-color="#4D27A8" offset="0%"></stop>
            <stop stop-color="#A166FF" offset="100%"></stop>
        </linearGradient>
    </defs>
    <g id="Icon-Architecture/16/Arch_Amazon-Virtual-Private-Cloud_16" stroke="none" stroke-width="1" fill="none" fill-rule="evenodd">
        <g id="Icon-Architecture-BG/16/Networking-Content-Delivery" fill="url(#linearGradient-1)">
            <rect id="Rectangle" x="0" y="0" width="24" height="24"></rect>
        </g>
        <path d="M16.997,11.8210743 L15.074,10.8030743 L15.074,18.4610743 C16.958,18.0830743 16.996,15.6320743 16.997,15.5190743 L16.997,11.8210743 Z M12.851,17.8750743 C13.178,18.2020743 13.581,18.4000743 14.074,18.4770743 L14.074,10.7820743 L11.981,11.8290743 L11.981,15.5200743 C11.981,15.5370743 11.988,17.0100743 12.851,17.8750743 L12.851,17.8750743 Z M17.997,11.5200743 L17.997,15.5200743 C17.997,16.9020743 17.28,19.5140743 14.567,19.5140743 C13.573,19.5140743 12.756,19.1990743 12.138,18.5760743 C10.980946,17.4110743 10.98,15.5930743 10.980946,15.5160743 L10.980946,11.5200743 C10.980946,11.3300743 11.089,11.1570743 11.258,11.0720743 L14.351,9.52607432 C14.495,9.45307432 14.667,9.45607432 14.808,9.53107432 L17.73,11.0780743 C17.894,11.1640743 17.997,11.3350743 17.997,11.5200743 L17.997,11.5200743 Z M19.69,9.73507432 L18.753,10.0810743 C18.547,9.52407432 18.199,9.29607432 17.555,9.29607432 C17.29,9.29607432 17.071,9.09007432 17.056,8.82607432 C16.986,7.66307432 16.389,7.10607432 15.862,7.07907432 C15.189,7.04807432 14.968,7.33607432 14.894,7.43107432 C14.783,7.57707432 14.6,7.64907432 14.422,7.62407432 C14.241,7.59607432 14.089,7.47307432 14.026,7.30107432 C13.811,6.71307432 13.509,6.24207432 13.076,5.82007432 C12.144,4.91807432 10.407,4.73107432 8.851,5.36907432 C7.789,5.80407432 7.102,6.92707432 7.102,8.23007432 C7.102,8.37407432 7.121,8.59807432 7.138,8.73707432 C7.168,8.98707432 7.007,9.22007432 6.762,9.28107432 C5.576,9.57507432 5,10.2550743 5,11.3570743 C5,11.4070743 4.999,11.4580743 5.004,11.5080743 C5.061,12.5170743 5.613,13.5770743 6.995,13.5770743 L8.997,13.5770743 L8.997,14.5770743 L6.995,14.5770743 C5.309,14.5770743 4.107,13.3730743 4.007,11.5810743 C4.001,11.5170743 4,11.4370743 4,11.3570743 C4,9.93307432 4.745,8.90807432 6.109,8.43307432 C6.105,8.36007432 6.102,8.28907432 6.102,8.23007432 C6.102,6.51907432 7.033,5.03307432 8.473,4.44307432 C10.386,3.66207432 12.564,3.93307432 13.772,5.10207432 C14.145,5.46607432 14.447,5.86907432 14.686,6.32307432 C14.986,6.16107432 15.382,6.05107432 15.913,6.08007432 C16.968,6.13407432 17.786,7.03507432 18.004,8.32807432 C18.824,8.44907432 19.39,8.92107432 19.69,9.73507432 L19.69,9.73507432 Z" id="Amazon-Virtual-Private-Cloud_Icon_16_Squid" fill="#FFFFFF"></path>
    </g>
</svg>