<?xml version="1.0" encoding="UTF-8"?>
<svg width="24px" height="24px" viewBox="0 0 24 24" version="1.1" xmlns="http://www.w3.org/2000/svg" xmlns:xlink="http://www.w3.org/1999/xlink">
    <!-- Generator: Sketch 64 (93537) - https://sketch.com -->
    <title>Icon-Architecture/16/Arch_AWS-VPN_16</title>
    <desc>Created with Sketch.</desc>
    <defs>
        <linearGradient x1="0%" y1="100%" x2="100%" y2="0%" id="linearGradient-1">
            <stop stop-color="#4D27A8" offset="0%"></stop>
            <stop stop-color="#A166FF" offset="100%"></stop>
        </linearGradient>
    </defs>
    <g id="Icon-Architecture/16/Arch_AWS-VPN_16" stroke="none" stroke-width="1" fill="none" fill-rule="evenodd">
        <g id="Icon-Architecture-BG/16/Networking-Content-Delivery" fill="url(#linearGradient-1)">
            <rect id="Rectangle" x="0" y="0" width="24" height="24"></rect>
        </g>
        <path d="M8.98859808,17.1133819 L13.9885981,17.1133819 L13.9885981,14.1133819 L8.98859808,14.1133819 L8.98859808,17.1133819 Z M9.95159808,13.1133819 L13.0135981,13.1133819 C13.0235981,12.4873819 13.0005981,11.8363819 12.6555981,11.4823819 C12.4295981,11.2523819 12.0465981,11.1343819 11.5165981,11.1343819 C10.9625981,11.1343819 10.5635981,11.2573819 10.3275981,11.4983819 C9.97859808,11.8543819 9.94559808,12.4933819 9.95159808,13.1133819 L9.95159808,13.1133819 Z M14.9885981,13.6133819 L14.9885981,17.6133819 C14.9885981,17.8893819 14.7645981,18.1133819 14.4885981,18.1133819 L8.48859808,18.1133819 C8.21159808,18.1133819 7.98859808,17.8893819 7.98859808,17.6133819 L7.98859808,13.6133819 C7.98859808,13.3373819 8.21159808,13.1133819 8.48859808,13.1133819 L8.94959808,13.1133819 C8.94159808,12.3243819 8.99859808,11.4263819 9.61259808,10.7983819 C10.0445981,10.3583819 10.6845981,10.1343819 11.5165981,10.1343819 C12.3275981,10.1343819 12.9515981,10.3533819 13.3715981,10.7843819 C13.9835981,11.4133819 14.0285981,12.3213819 14.0155981,13.1133819 L14.4885981,13.1133819 C14.7645981,13.1133819 14.9885981,13.3373819 14.9885981,13.6133819 L14.9885981,13.6133819 Z M19.9775981,12.5803819 C19.9775981,14.9653819 18.0245981,15.6073819 16.9915981,15.6133819 L15.9885981,15.6133819 L15.9885981,14.6133819 L16.9885981,14.6133819 C17.1875981,14.6103819 18.9775981,14.5273819 18.9775981,12.5803819 C18.9775981,10.5883819 16.9815981,10.2223819 16.8965981,10.2073819 C16.6575981,10.1663819 16.4815981,9.95838192 16.4815981,9.71538192 C16.4815981,9.68138192 16.4845981,9.58438192 16.4915981,9.55138192 C16.6485981,8.77938192 16.0695981,8.45638192 15.8885981,8.37638192 C15.4905981,8.19938192 14.9225981,8.20238192 14.6105981,8.62538192 C14.4995981,8.77338192 14.3215981,8.84838192 14.1335981,8.82238192 C13.9515981,8.79538192 13.7975981,8.66938192 13.7365981,8.49438192 C13.5585981,7.99038192 13.2345981,7.50738192 12.7455981,7.01738192 C11.9775981,6.24738192 10.4995981,5.59738192 8.85659808,6.29238192 C7.68359808,6.78938192 6.96259808,8.25938192 6.94259808,9.39338192 L6.93959808,9.51438192 C6.93559808,9.64538192 6.92659808,9.83238192 6.93859808,9.93338192 C6.96859808,10.1833819 6.80859808,10.4153819 6.56559808,10.4773819 C5.46859808,10.7573819 5.00159808,11.3583819 5.00159808,12.4883819 C4.99959808,12.6343819 4.99859808,12.6973819 5.00059808,12.7383819 C5.07259808,13.8753819 5.85259808,14.6133819 6.98859808,14.6133819 L6.98859808,15.6133819 C5.30859808,15.6133819 4.10859808,14.4813819 4.00259808,12.7963819 C3.99959808,12.7343819 3.99959808,12.6443819 4.00059808,12.5643819 C4.00159808,11.0473819 4.65159808,10.0793819 5.93659808,9.62338192 C5.93759808,9.57438192 5.93859808,9.52738192 5.93959808,9.48438192 L5.94259808,9.37738192 C5.96759808,7.94238192 6.86159808,6.05138192 8.46559808,5.37138192 C10.1965981,4.63938192 12.1545981,5.00838192 13.4535981,6.31138192 C13.8475981,6.70638192 14.1565981,7.10538192 14.3865981,7.51738192 C14.9385981,7.20638192 15.6445981,7.17338192 16.2955981,7.46238192 C17.0785981,7.81038192 17.5285981,8.51838192 17.5175981,9.33238192 C18.5895981,9.66738192 19.9775981,10.6153819 19.9775981,12.5803819 L19.9775981,12.5803819 Z" id="AWS-VPN_Icon_16_Squid" fill="#FFFFFF"></path>
    </g>
</svg>