<?xml version="1.0" encoding="UTF-8"?>
<svg width="24px" height="24px" viewBox="0 0 24 24" version="1.1" xmlns="http://www.w3.org/2000/svg" xmlns:xlink="http://www.w3.org/1999/xlink">
    <!-- Generator: Sketch 64 (93537) - https://sketch.com -->
    <title>Icon-Architecture/16/Arch_Elastic-Load-Balancing_16</title>
    <desc>Created with Sketch.</desc>
    <defs>
        <linearGradient x1="0%" y1="100%" x2="100%" y2="0%" id="linearGradient-1">
            <stop stop-color="#4D27A8" offset="0%"></stop>
            <stop stop-color="#A166FF" offset="100%"></stop>
        </linearGradient>
    </defs>
    <g id="Icon-Architecture/16/Arch_Elastic-Load-Balancing_16" stroke="none" stroke-width="1" fill="none" fill-rule="evenodd">
        <g id="Icon-Architecture-BG/16/Networking-Content-Delivery" fill="url(#linearGradient-1)">
            <rect id="Rectangle" x="0" y="0" width="24" height="24"></rect>
        </g>
        <path d="M9.562,15.574 C7.597,15.574 5.999,13.976 5.999,12.011 C5.999,10.046 7.597,8.448 9.562,8.448 C11.527,8.448 13.125,10.046 13.125,12.011 C13.125,13.976 11.527,15.574 9.562,15.574 M16.575,16 C17.126,16 17.575,16.449 17.575,17 C17.575,17.551 17.126,18 16.575,18 C16.023,18 15.575,17.551 15.575,17 C15.575,16.449 16.023,16 16.575,16 M16.575,6 C17.126,6 17.575,6.449 17.575,7 C17.575,7.551 17.126,8 16.575,8 C16.023,8 15.575,7.551 15.575,7 C15.575,6.449 16.023,6 16.575,6 M17.575,11 C18.126,11 18.575,11.449 18.575,12 C18.575,12.551 18.126,13 17.575,13 C17.023,13 16.575,12.551 16.575,12 C16.575,11.449 17.023,11 17.575,11 M14.07,12.56 L15.665,12.56 C15.909,13.389 16.667,14 17.575,14 C18.677,14 19.575,13.103 19.575,12 C19.575,10.897 18.677,10 17.575,10 C16.624,10 15.829,10.669 15.627,11.56 L14.08,11.56 C14.015,10.912 13.82,10.309 13.512,9.769 L15.029,8.253 C15.396,8.705 15.949,9 16.575,9 C17.677,9 18.575,8.103 18.575,7 C18.575,5.897 17.677,5 16.575,5 C15.472,5 14.575,5.897 14.575,7 C14.575,7.091 14.59,7.178 14.602,7.266 L12.92,8.947 C12.085,8.032 10.895,7.448 9.562,7.448 C7.046,7.448 5,9.495 5,12.011 C5,14.527 7.046,16.574 9.562,16.574 C10.901,16.574 12.095,15.984 12.93,15.063 L14.602,16.734 C14.59,16.822 14.575,16.908 14.575,17 C14.575,18.103 15.472,19 16.575,19 C17.677,19 18.575,18.103 18.575,17 C18.575,15.897 17.677,15 16.575,15 C15.949,15 15.396,15.295 15.029,15.747 L13.52,14.238 C13.808,13.73 13.997,13.165 14.07,12.56" id="Elastic-Load-Balancing_Icon_16_Squid" fill="#FFFFFF"></path>
    </g>
</svg>