<?xml version="1.0" encoding="UTF-8"?>
<svg width="24px" height="24px" viewBox="0 0 24 24" version="1.1" xmlns="http://www.w3.org/2000/svg" xmlns:xlink="http://www.w3.org/1999/xlink">
    <!-- Generator: Sketch 64 (93537) - https://sketch.com -->
    <title>Icon-Architecture/16/Arch_Amazon-Route-53_16</title>
    <desc>Created with Sketch.</desc>
    <defs>
        <linearGradient x1="0%" y1="100%" x2="100%" y2="0%" id="linearGradient-1">
            <stop stop-color="#4D27A8" offset="0%"></stop>
            <stop stop-color="#A166FF" offset="100%"></stop>
        </linearGradient>
    </defs>
    <g id="Icon-Architecture/16/Arch_Amazon-Route-53_16" stroke="none" stroke-width="1" fill="none" fill-rule="evenodd">
        <g id="Icon-Architecture-BG/16/Networking-Content-Delivery" fill="url(#linearGradient-1)">
            <rect id="Rectangle" x="0" y="0" width="24" height="24"></rect>
        </g>
        <path d="M14.2426188,12.1331716 C14.445074,12.3196371 14.5478124,12.5716176 14.5478124,12.8820574 C14.5478124,13.2197112 14.4239219,13.4938659 14.18017,13.6964581 C13.9384325,13.8960266 13.6151086,13.9968187 13.2162417,13.9968187 C12.9050047,13.9968187 12.5927605,13.929288 12.2885741,13.7962423 L12.2432483,13.7770918 L12.2432483,13.2368458 L12.3419578,13.2690993 C13.0067359,13.4878183 13.4922254,13.49185 13.7329556,13.2922815 C13.8477809,13.1975369 13.9031791,13.0624754 13.9031791,12.8820574 C13.9031791,12.6633384 13.8346868,12.373057 13.2414227,12.373057 C13.0863078,12.373057 12.9382436,12.3811204 12.7901794,12.3972471 L12.7065785,12.4063184 L12.7065785,11.9729121 L13.6241737,10.9730538 L12.2915958,10.9730538 L12.2915958,10.4247445 L14.4078061,10.4247445 L14.4078061,10.9125785 L13.5153919,11.8570011 C13.8155493,11.871112 14.0593012,11.9638408 14.2426188,12.1331716 M11.4394712,12.0495142 C11.6499843,12.2460589 11.7567517,12.5192056 11.7567517,12.8629069 C11.7567517,13.1995527 11.6328612,13.4767312 11.388102,13.6863789 C11.1473717,13.8919949 10.8260623,13.9968187 10.4362606,13.9968187 C10.0988354,13.9968187 9.77752597,13.929288 9.48240478,13.7962423 L9.43808624,13.7760839 L9.43808624,13.2368458 L9.53780296,13.2690993 C10.2056028,13.4847946 10.7031791,13.4958817 10.9449166,13.2902657 C11.0587347,13.1935052 11.1141328,13.0554199 11.1141328,12.8679465 C11.1141328,12.6633384 11.0617564,12.5151739 10.9570035,12.4274848 C10.765628,12.2672252 10.3617249,12.2631935 9.66672962,12.3387877 L9.58312874,12.347859 L9.58312874,11.9446903 L9.68083097,10.4247445 L11.5885427,10.4247445 L11.5885427,10.9730538 L10.227762,10.9730538 L10.1753856,11.7874545 C10.3194208,11.7642723 10.4523765,11.7531852 10.5712307,11.7531852 C10.9378659,11.7531852 11.2299654,11.8529694 11.4394712,12.0495142 M14.9940195,15.421012 C13.7954045,15.6367072 12.7388102,16.1084146 11.9994964,16.514607 C11.2611898,16.1084146 10.2045955,15.6367072 9.00497325,15.421012 C8.81359773,15.3867427 7.13251495,15.061184 7.13251495,14.2417437 C7.13251495,13.8587335 7.25539817,13.6107848 7.58375826,13.0483645 C7.95845137,12.4012788 8.47214353,11.5163236 8.47214353,10.2705325 C8.47214353,9.49947242 8.29688385,8.75663417 7.95039345,8.05713656 C9.31318854,8.61955683 10.8129682,8.50364584 11.9994964,7.80616407 C13.1860246,8.50364584 14.684797,8.61955683 16.0496065,8.05713656 C15.7031161,8.75663417 15.5278565,9.49947242 15.5278565,10.2705325 C15.5278565,11.5163236 16.0415486,12.4012788 16.4162417,13.0483645 C16.7435946,13.6107848 16.8664778,13.8587335 16.8664778,14.2417437 C16.8664778,15.061184 15.1864023,15.3867427 14.9940195,15.421012 M16.535096,10.2705325 C16.535096,9.51459124 16.7486308,8.78888766 17.1696569,8.11559601 C17.2854895,7.93215428 17.2693736,7.69630061 17.132389,7.52898562 L16.7355367,7.04014363 C16.581429,6.84964644 16.3124961,6.79925036 16.0999685,6.91616927 C14.802644,7.63380947 13.3753856,7.54813613 12.2875669,6.79421075 C12.1143217,6.67426808 11.8856783,6.67426808 11.7124331,6.79421075 C10.6246144,7.54813613 9.19534152,7.63280155 7.90003148,6.91616927 C7.68851117,6.79925036 7.41957822,6.84964644 7.26446333,7.04014363 L6.86761095,7.52898562 C6.73062638,7.69630061 6.71451054,7.93215428 6.83034309,8.11559601 C7.25136922,8.78888766 7.464904,9.51459124 7.464904,10.2705325 C7.464904,11.2451927 7.0650299,11.9346111 6.71148883,12.5413799 C6.39723009,13.0836417 6.12527542,13.5513174 6.12527542,14.2417437 C6.12527542,15.2980456 7.13553667,16.1094225 8.82669185,16.4128069 C10.0263141,16.6285021 11.076865,17.1385105 11.7466793,17.5285762 C11.8252439,17.5739326 11.9128738,17.5971148 11.9994964,17.5971148 C12.0871262,17.5971148 12.1747561,17.5739326 12.2523135,17.5285762 C12.9221278,17.1385105 13.9726786,16.6285021 15.1723009,16.4128069 C16.8644633,16.1094225 17.8737173,15.2980456 17.8737173,14.2417437 C17.8737173,13.5513174 17.6027699,13.0836417 17.2875039,12.5423878 C16.9349701,11.9346111 16.535096,11.2451927 16.535096,10.2705325 M15.568146,17.3733562 C13.9585773,17.6626297 12.5887315,18.4830779 11.9994964,18.8791911 C11.4102613,18.4830779 10.0414227,17.6626297 8.43185395,17.3733562 C7.62908404,17.2292234 5.00723953,16.5902011 5.00723953,14.4352647 C5.00723953,13.5261193 5.35675165,12.9253981 5.72540132,12.2883916 C6.09102927,11.6574326 6.46975134,11.0053073 6.46975134,10.0971699 C6.46975134,8.83122037 5.8190746,7.8958691 5.38999056,7.41811424 C5.80195153,6.91717719 6.55234498,5.9999685 7.031791,5.39118384 C7.78923513,6.04028537 8.65243941,6.39205002 9.50960025,6.39205002 C10.4705068,6.39205002 11.2742839,6.03222199 11.9994964,5.27023324 C12.7257161,6.03222199 13.5294932,6.39205002 14.4903997,6.39205002 C15.3475606,6.39205002 16.2107649,6.04028537 16.968209,5.39118384 C17.447655,5.9999685 18.1980485,6.91717719 18.6100094,7.41811424 C18.1809254,7.8958691 17.5302487,8.83122037 17.5302487,10.0971699 C17.5302487,11.0053073 17.9089707,11.6574326 18.2745987,12.2883916 C18.6432483,12.9253981 18.9927605,13.5261193 18.9927605,14.4352647 C18.9927605,16.5902011 16.370916,17.2292234 15.568146,17.3733562 M19.1448536,11.7824149 C18.8195153,11.2199946 18.5374882,10.7341764 18.5374882,10.0971699 C18.5374882,8.74151535 19.5981114,7.85252847 19.6071766,7.84547301 C19.7119295,7.7608076 19.7784073,7.63784116 19.7915014,7.50378758 C19.8045955,7.369734 19.7643059,7.23668835 19.6786906,7.13287242 C19.6605603,7.11069814 17.8445074,4.90939729 17.4325464,4.34294534 C17.3439093,4.22098682 17.2059175,4.1453927 17.0558388,4.1363214 C16.9138181,4.13027387 16.7597104,4.18570956 16.656972,4.2945651 C16.0002518,4.99708648 15.2307208,5.38412838 14.4903997,5.38412838 C13.667485,5.38412838 13.0419893,5.0263162 12.3993705,4.18671748 C12.2100094,3.93776084 11.7889833,3.93776084 11.6006295,4.18671748 C10.9580107,5.0263162 10.332515,5.38412838 9.50960025,5.38412838 C8.76827195,5.38412838 7.99974819,4.99708648 7.34202077,4.2945651 C7.24028958,4.18570956 7.09726157,4.13128179 6.94416116,4.1363214 C6.79307523,4.1453927 6.65609065,4.22098682 6.56745357,4.34294534 C6.1554926,4.90939729 4.33943972,7.11069814 4.32030217,7.13287242 C4.23468681,7.23668835 4.19439723,7.369734 4.20849858,7.50378758 C4.2215927,7.63784116 4.28807051,7.7608076 4.39282342,7.84547301 C4.40289581,7.85353639 5.4625118,8.72639652 5.4625118,10.0971699 C5.4625118,10.7341764 5.18048473,11.2199946 4.85514636,11.7824149 C4.45325779,12.4728412 4,13.2549884 4,14.4352647 C4,16.4168386 5.59043122,17.8863883 8.25457979,18.366159 C10.113944,18.6997811 11.678187,19.884089 11.6932956,19.8961841 C11.7839471,19.9657307 11.8917218,20 11.9994964,20 C12.1082782,20 12.2160529,19.9657307 12.3067044,19.8961841 C12.3228203,19.884089 13.8769909,18.7017969 15.7464274,18.366159 C18.4095688,17.8863883 20,16.4168386 20,14.4352647 C20,13.2549884 19.5467422,12.4728412 19.1448536,11.7824149" id="Amazon-Route-53-Icon_16_Squid" fill="#FFFFFF"></path>
    </g>
</svg>