<?xml version="1.0" encoding="UTF-8"?>
<svg width="24px" height="24px" viewBox="0 0 24 24" version="1.1" xmlns="http://www.w3.org/2000/svg" xmlns:xlink="http://www.w3.org/1999/xlink">
    <!-- Generator: Sketch 64 (93537) - https://sketch.com -->
    <title>Icon-Architecture/16/Arch_AWS-Direct-Connect_16</title>
    <desc>Created with Sketch.</desc>
    <defs>
        <linearGradient x1="0%" y1="100%" x2="100%" y2="0%" id="linearGradient-1">
            <stop stop-color="#4D27A8" offset="0%"></stop>
            <stop stop-color="#A166FF" offset="100%"></stop>
        </linearGradient>
    </defs>
    <g id="Icon-Architecture/16/Arch_AWS-Direct-Connect_16" stroke="none" stroke-width="1" fill="none" fill-rule="evenodd">
        <g id="Icon-Architecture-BG/16/Networking-Content-Delivery" fill="url(#linearGradient-1)">
            <rect id="Rectangle" x="0" y="0" width="24" height="24"></rect>
        </g>
        <path d="M9.57127746,16.3296148 L9.57127746,17.8650309 L14.4287225,17.8650309 L14.4287225,16.3296148 C14.4287225,16.3095963 14.3709788,16.2515428 14.2674382,16.2515428 L9.73256176,16.2515428 C9.62902122,16.2515428 9.57127746,16.3095963 9.57127746,16.3296148 M16.3989795,19.0571304 L16.3989795,20 L15.4033974,20 L15.4033974,19.0571304 C15.4033974,18.9400224 15.3506316,18.8729605 15.3327111,18.8619504 L8.64837285,18.8659541 C8.64936843,18.8729605 8.59660258,18.9400224 8.59660258,19.0571304 L8.59660258,20 L7.60102047,20 L7.60102047,19.0571304 C7.60102047,18.4295516 8.03409869,17.9270881 8.57569535,17.8820466 L8.57569535,16.3296148 C8.57569535,15.7941209 9.00379566,15.3687286 9.55136581,15.284651 L9.55136581,11.0557507 L10.5469479,11.0557507 L10.5469479,15.2506196 L11.5017112,15.2506196 L11.5017112,8.76864129 L12.4972933,8.76864129 L12.4972933,15.2506196 L13.4520565,15.2506196 L13.4520565,11.0557507 L14.4476386,11.0557507 L14.4476386,15.284651 C14.9962043,15.3687286 15.4243046,15.7941209 15.4243046,16.3296148 L15.4243046,17.8820466 C15.9659013,17.9270881 16.3989795,18.4295516 16.3989795,19.0571304 M20,11.1838689 C20,13.0786164 18.884948,14.0395026 16.6886939,14.0395026 L15.3197685,14.0395026 L15.3197685,13.0385795 L16.6886939,13.0385795 C18.3333956,13.0385795 19.0044179,12.5010837 19.0044179,11.1838689 C19.0044179,10.0237989 18.3184618,9.29812964 16.9654657,9.02587854 C16.7434509,8.980837 16.5801755,8.79166252 16.5662373,8.56445296 C16.5025201,7.46744119 15.8902371,7.07708116 15.3854769,7.07708116 C15.0479746,7.07708116 14.7313795,7.24023163 14.5153382,7.52449381 C14.403833,7.66962766 14.2236326,7.73969228 14.0454234,7.71667105 C13.8652231,7.6886452 13.7148902,7.56553166 13.6531641,7.3943738 C13.4630079,6.87789745 13.1752847,6.45050326 12.7193081,6.0070943 C12.2274905,5.52665119 10.8814635,4.49570034 8.97492378,5.28042409 C7.86684089,5.73684505 7.03055193,6.9579713 7.03055193,8.12004308 C7.03055193,8.25616863 7.03951216,8.38929141 7.05544148,8.52041234 C7.08630452,8.77264498 6.92502022,9.00786192 6.68010703,9.06791731 C6.05089914,9.22205948 4.9955821,9.69949982 4.9955821,11.1618485 L5.00056001,11.324999 C5.0682596,12.5080902 6.1862983,13.0385795 7.26451372,13.0385795 L8.68122705,13.0385795 L8.68122705,14.0395026 L7.26451372,14.0395026 C5.43463381,14.0395026 4.09557588,12.9454936 4.00696907,11.3790489 L4,11.1618485 C4,9.76055613 4.75266007,8.68556467 6.0359654,8.21813355 C6.03496982,8.18610401 6.03496982,8.15307355 6.03496982,8.12004308 C6.03496982,6.54959465 7.11318524,4.9651333 8.59759816,4.35457018 C10.2980524,3.65492489 12.0980648,4.00324615 13.4122332,5.28843148 C13.7835853,5.64976474 14.0683218,6.0070943 14.2873499,6.39645341 C14.6139008,6.18926232 14.9912264,6.076158 15.3854769,6.076158 C16.2874743,6.076158 17.2910211,6.72175344 17.5190094,8.12905139 C19.1228922,8.56545389 20,9.63944443 20,11.1838689" id="AWS-Direct-Connect_Icon_16_Squid" fill="#FFFFFF"></path>
    </g>
</svg>