<?xml version="1.0" encoding="UTF-8"?>
<svg width="24px" height="24px" viewBox="0 0 24 24" version="1.1" xmlns="http://www.w3.org/2000/svg" xmlns:xlink="http://www.w3.org/1999/xlink">
    <!-- Generator: Sketch 64 (93537) - https://sketch.com -->
    <title>Icon-Architecture/16/Arch_AWS-Transit-Gateway_16</title>
    <desc>Created with Sketch.</desc>
    <defs>
        <linearGradient x1="0%" y1="100%" x2="100%" y2="0%" id="linearGradient-1">
            <stop stop-color="#4D27A8" offset="0%"></stop>
            <stop stop-color="#A166FF" offset="100%"></stop>
        </linearGradient>
    </defs>
    <g id="Icon-Architecture/16/Arch_AWS-Transit-Gateway_16" stroke="none" stroke-width="1" fill="none" fill-rule="evenodd">
        <g id="Icon-Architecture-BG/16/Networking-Content-Delivery" fill="url(#linearGradient-1)">
            <rect id="Rectangle" x="0" y="0" width="24" height="24"></rect>
        </g>
        <path d="M12.927,17.868 C13.03,17.659 13.092,17.427 13.092,17.179 C13.092,16.484 12.638,15.899 12.013,15.688 L12.013,13.668 C12.833,13.478 13.477,12.834 13.668,12.014 L15.688,12.014 C15.899,12.639 16.483,13.093 17.178,13.093 C17.426,13.093 17.658,13.03 17.867,12.928 C17.321,15.385 15.385,17.322 12.927,17.868 M5.159,12.928 C5.368,13.03 5.601,13.093 5.849,13.093 C6.544,13.093 7.129,12.639 7.339,12.014 L9.359,12.014 C9.549,12.834 10.194,13.478 11.013,13.668 L11.013,15.688 C10.388,15.899 9.934,16.484 9.934,17.179 C9.934,17.427 9.996,17.659 10.099,17.868 C7.642,17.321 5.705,15.385 5.159,12.928 M6.428,11.514 C6.428,11.833 6.168,12.093 5.849,12.093 C5.53,12.093 5.27,11.833 5.27,11.514 C5.27,11.195 5.53,10.935 5.849,10.935 C6.168,10.935 6.428,11.195 6.428,11.514 M10.099,5.16 C9.996,5.368 9.934,5.6 9.934,5.849 C9.934,6.544 10.388,7.129 11.013,7.339 L11.013,9.359 C10.194,9.55 9.549,10.194 9.359,11.014 L7.339,11.014 C7.129,10.389 6.544,9.935 5.849,9.935 C5.601,9.935 5.368,9.998 5.159,10.1 C5.706,7.642 7.642,5.706 10.099,5.16 M11.513,5.27 C11.832,5.27 12.092,5.53 12.092,5.849 C12.092,6.168 11.832,6.428 11.513,6.428 C11.194,6.428 10.934,6.168 10.934,5.849 C10.934,5.53 11.194,5.27 11.513,5.27 M11.513,12.73 C10.843,12.73 10.297,12.185 10.297,11.514 C10.297,10.843 10.843,10.297 11.513,10.297 C12.184,10.297 12.73,10.843 12.73,11.514 C12.73,12.185 12.184,12.73 11.513,12.73 M11.513,17.758 C11.194,17.758 10.934,17.498 10.934,17.179 C10.934,16.859 11.194,16.599 11.513,16.599 C11.832,16.599 12.092,16.859 12.092,17.179 C12.092,17.498 11.832,17.758 11.513,17.758 M17.757,11.514 C17.757,11.833 17.497,12.093 17.178,12.093 C16.859,12.093 16.599,11.833 16.599,11.514 C16.599,11.195 16.859,10.935 17.178,10.935 C17.497,10.935 17.757,11.195 17.757,11.514 M17.867,10.1 C17.658,9.998 17.426,9.935 17.178,9.935 C16.483,9.935 15.899,10.389 15.688,11.014 L13.668,11.014 C13.478,10.194 12.833,9.55 12.013,9.359 L12.013,7.339 C12.638,7.129 13.092,6.544 13.092,5.849 C13.092,5.6 13.03,5.368 12.927,5.16 C15.384,5.706 17.321,7.642 17.867,10.1 M11.513,4 C7.37,4 4,7.371 4,11.514 C4,15.657 7.37,19.027 11.513,19.027 C15.656,19.027 19.027,15.657 19.027,11.514 C19.027,7.371 15.656,4 11.513,4" id="AWS-Transit-Gateway_Icon_16_Squid" fill="#FFFFFF"></path>
    </g>
</svg>