<?xml version="1.0" encoding="UTF-8"?>
<svg width="24px" height="24px" viewBox="0 0 24 24" version="1.1" xmlns="http://www.w3.org/2000/svg" xmlns:xlink="http://www.w3.org/1999/xlink">
    <!-- Generator: Sketch 64 (93537) - https://sketch.com -->
    <title>Icon-Architecture/16/Arch_AWS-Global-Accelerator_16</title>
    <desc>Created with Sketch.</desc>
    <defs>
        <linearGradient x1="0%" y1="100%" x2="100%" y2="0%" id="linearGradient-1">
            <stop stop-color="#4D27A8" offset="0%"></stop>
            <stop stop-color="#A166FF" offset="100%"></stop>
        </linearGradient>
    </defs>
    <g id="Icon-Architecture/16/Arch_AWS-Global-Accelerator_16" stroke="none" stroke-width="1" fill="none" fill-rule="evenodd">
        <g id="Icon-Architecture-BG/16/Networking-Content-Delivery" fill="url(#linearGradient-1)">
            <rect id="Rectangle" x="0" y="0" width="24" height="24"></rect>
        </g>
        <path d="M9.22,13.897 C9.35,14.28 9.505,14.626 9.679,14.933 C9.248,14.726 8.855,14.459 8.508,14.137 C8.731,14.045 8.968,13.967 9.22,13.897 L9.22,13.897 Z M8.749,11.063 C8.769,11.729 8.84,12.359 8.96,12.935 C8.546,13.049 8.165,13.188 7.82,13.352 C7.368,12.691 7.101,11.905 7.036,11.063 L8.749,11.063 Z M8.988,8.353 C8.87,8.881 8.79,9.454 8.758,10.063 L7.066,10.063 C7.173,9.286 7.459,8.571 7.899,7.963 C8.232,8.115 8.594,8.246 8.988,8.353 L8.988,8.353 Z M9.262,7.395 C9.035,7.333 8.815,7.268 8.612,7.189 C8.933,6.906 9.288,6.666 9.679,6.478 C9.523,6.753 9.383,7.059 9.262,7.395 L9.262,7.395 Z M13.146,7.601 C12.683,7.668 12.204,7.714 11.706,7.714 C11.208,7.714 10.73,7.668 10.267,7.601 C10.653,6.605 11.193,6 11.706,6 C12.22,6 12.76,6.605 13.146,7.601 L13.146,7.601 Z M14.151,7.395 C14.03,7.058 13.89,6.753 13.734,6.478 C14.124,6.666 14.48,6.906 14.801,7.189 C14.597,7.268 14.377,7.333 14.151,7.395 L14.151,7.395 Z M14.655,10.063 C14.622,9.454 14.542,8.881 14.425,8.353 C14.818,8.246 15.18,8.115 15.513,7.963 C15.952,8.571 16.24,9.286 16.347,10.063 L14.655,10.063 Z M14.452,12.935 C14.573,12.359 14.644,11.729 14.663,11.063 L16.375,11.063 C16.31,11.906 16.043,12.692 15.592,13.353 C15.246,13.189 14.866,13.05 14.452,12.935 L14.452,12.935 Z M14.193,13.897 C14.445,13.967 14.682,14.046 14.904,14.137 C14.558,14.459 14.164,14.726 13.734,14.933 C13.907,14.626 14.063,14.281 14.193,13.897 L14.193,13.897 Z M13.193,13.687 C12.914,14.455 12.547,14.999 12.161,15.246 L12.161,13.589 C12.516,13.605 12.859,13.637 13.193,13.687 L13.193,13.687 Z M11.161,13.594 L11.161,15.179 C10.808,14.909 10.477,14.395 10.22,13.687 C10.526,13.641 10.838,13.61 11.161,13.594 L11.161,13.594 Z M9.771,10.063 C9.803,9.52 9.872,9.019 9.976,8.564 C10.532,8.653 11.109,8.714 11.706,8.714 C12.304,8.714 12.88,8.653 13.437,8.564 C13.54,9.019 13.61,9.52 13.642,10.063 L9.771,10.063 Z M13.656,11.063 C13.635,11.663 13.574,12.222 13.468,12.721 C12.902,12.629 12.315,12.566 11.705,12.566 C11.097,12.566 10.51,12.629 9.945,12.721 C9.839,12.222 9.778,11.663 9.757,11.063 L13.656,11.063 Z M17.411,10.705 C17.411,7.559 14.852,5 11.706,5 C8.56,5 6,7.559 6,10.705 C6,13.667 8.27,16.107 11.161,16.383 L11.161,16.887 L8.173,16.887 L8.173,18.85 L9.173,18.85 L9.173,17.887 L11.161,17.887 L11.161,19.85 L12.161,19.85 L12.161,17.887 L14.142,17.887 L14.142,18.85 L15.142,18.85 L15.142,16.887 L12.161,16.887 L12.161,16.388 C15.094,16.154 17.411,13.697 17.411,10.705 L17.411,10.705 Z" id="AWS-Global-Accelerator_Icon_16_Squid" fill="#FFFFFF"></path>
    </g>
</svg>