<?xml version="1.0" encoding="UTF-8"?>
<svg width="24px" height="24px" viewBox="0 0 24 24" version="1.1" xmlns="http://www.w3.org/2000/svg" xmlns:xlink="http://www.w3.org/1999/xlink">
    <!-- Generator: Sketch 64 (93537) - https://sketch.com -->
    <title>Icon-Architecture/16/Arch_Amazon-Cloud-Directory_16</title>
    <desc>Created with Sketch.</desc>
    <defs>
        <linearGradient x1="0%" y1="100%" x2="100%" y2="0%" id="linearGradient-1">
            <stop stop-color="#4D27A8" offset="0%"></stop>
            <stop stop-color="#A166FF" offset="100%"></stop>
        </linearGradient>
    </defs>
    <g id="Icon-Architecture/16/Arch_Amazon-Cloud-Directory_16" stroke="none" stroke-width="1" fill="none" fill-rule="evenodd">
        <g id="Icon-Architecture-BG/16/Networking-Content-Delivery" fill="url(#linearGradient-1)">
            <rect id="Rectangle" x="0" y="0" width="24" height="24"></rect>
        </g>
        <path d="M13.5,16.437 C13.225,16.437 13,16.213 13,15.937 C13,15.662 13.225,15.437 13.5,15.437 C13.775,15.437 14,15.662 14,15.937 C14,16.213 13.775,16.437 13.5,16.437 M9.5,16.437 C9.225,16.437 9,16.213 9,15.937 C9,15.662 9.225,15.437 9.5,15.437 C9.775,15.437 10,15.662 10,15.937 C10,16.213 9.775,16.437 9.5,16.437 M11.5,10.437 C11.775,10.437 12,10.661 12,10.937 C12,11.212 11.775,11.436 11.5,11.436 C11.225,11.436 11,11.212 11,10.937 C11,10.661 11.225,10.437 11.5,10.437 M14,14.53 L14,13.437 C14,13.161 13.776,12.937 13.5,12.937 L12,12.937 L12,12.344 C12.581,12.137 13,11.587 13,10.937 C13,10.109 12.327,9.437 11.5,9.437 C10.673,9.437 10,10.109 10,10.937 C10,11.587 10.419,12.137 11,12.344 L11,12.937 L9.5,12.937 C9.224,12.937 9,13.161 9,13.437 L9,14.53 C8.419,14.737 8,15.287 8,15.937 C8,16.764 8.673,17.437 9.5,17.437 C10.327,17.437 11,16.764 11,15.937 C11,15.287 10.581,14.737 10,14.53 L10,13.937 L13,13.937 L13,14.53 C12.419,14.737 12,15.287 12,15.937 C12,16.764 12.673,17.437 13.5,17.437 C14.327,17.437 15,16.764 15,15.937 C15,15.287 14.581,14.737 14,14.53 M11.501,18.854 C8.753,18.854 7,17.975 7,17.516 L7,7.338 C8.256,7.966 10.38,8.059 11.5,8.059 C12.62,8.059 14.744,7.966 16,7.338 L16,17.516 C16,17.975 14.248,18.854 11.501,18.854 M11.5,5 C14.68,5 16,5.671 16,6.031 C16,6.389 14.68,7.059 11.5,7.059 C8.32,7.059 7,6.389 7,6.031 C7,5.671 8.32,5 11.5,5 M11.5,4 C9.848,4 6.002,4.198 6,6.029 L6,17.516 C6,19.034 8.834,19.854 11.501,19.854 C14.167,19.854 17,19.034 17,17.516 L17,6.031 C17,4.198 13.153,4 11.5,4" id="Amazon-Cloud-Directory_Icon_16_Squid" fill="#FFFFFF"></path>
    </g>
</svg>