<?xml version="1.0" encoding="UTF-8"?>
<svg width="24px" height="24px" viewBox="0 0 24 24" version="1.1" xmlns="http://www.w3.org/2000/svg" xmlns:xlink="http://www.w3.org/1999/xlink">
    <!-- Generator: Sketch 64 (93537) - https://sketch.com -->
    <title>Icon-Architecture/16/Arch_AWS-CloudMap_16</title>
    <desc>Created with Sketch.</desc>
    <defs>
        <linearGradient x1="0%" y1="100%" x2="100%" y2="0%" id="linearGradient-1">
            <stop stop-color="#4D27A8" offset="0%"></stop>
            <stop stop-color="#A166FF" offset="100%"></stop>
        </linearGradient>
    </defs>
    <g id="Icon-Architecture/16/Arch_AWS-CloudMap_16" stroke="none" stroke-width="1" fill="none" fill-rule="evenodd">
        <g id="Icon-Architecture-BG/16/Networking-Content-Delivery" fill="url(#linearGradient-1)">
            <rect id="Rectangle" x="0" y="0" width="24" height="24"></rect>
        </g>
        <path d="M20,15.0343185 C20,17.3798853 18.0760743,18 17.0595872,18 L8.57133584,17.9902955 C6.50233675,17.9902955 5,16.7733569 5,15.0973974 L5,14.9528011 C5,13.7475077 5.85486174,12.8013233 7.36304037,12.317071 L7.36401402,12.2316718 C7.36401402,10.7915307 8.43697261,9.12236436 9.70563417,8.58667843 C10.8837466,8.09078077 12.141698,8.20626378 13.2506816,8.91371857 L12.725886,9.73180415 C12.1378035,9.35624173 11.202129,9.00882223 10.0853564,9.48045876 C9.08542126,9.90260256 8.33766065,11.2806352 8.33766065,12.2316718 L8.33473971,12.3937362 C8.33181877,12.4723423 8.32695054,12.5548302 8.33473971,12.6247022 C8.36394911,12.8663432 8.2091393,13.0914865 7.97156952,13.1516542 C7.2257562,13.3418615 5.97364663,13.8280547 5.97364663,14.9528011 L5.97364663,15.0973974 C5.97364663,16.2299074 7.04173699,17.01985 8.57230949,17.01985 L17.0605608,17.0295545 C17.2601584,17.0276136 19.0263534,16.9558006 19.0263534,15.0343185 C19.0263534,13.9095721 18.0595223,13.4233789 17.5658834,13.4233789 L17.5658834,12.4529334 C18.5862651,12.4529334 20,13.3505955 20,15.0343185 M16.1083344,7.97044552 C16.8638842,7.97044552 17.4130209,8.51680635 17.4130209,9.26987208 C17.4130209,9.75800618 16.7402311,10.9856198 16.1083344,11.9667402 C15.4764378,10.9856198 14.8046216,9.75800618 14.8046216,9.26987208 C14.8046216,8.51680635 15.3537583,7.97044552 16.1083344,7.97044552 M16.1083344,13.3253639 C16.2670388,13.3253639 16.4160068,13.2477283 16.5075295,13.1176886 C16.8210437,12.6703132 18.3866675,10.3829731 18.3866675,9.26987208 C18.3866675,7.9762682 17.407179,7 16.1083344,7 C14.8104635,7 13.8309749,7.9762682 13.8309749,9.26987208 C13.8309749,10.3829731 15.3956251,12.6703132 15.7091393,13.1176886 C15.8006621,13.2477283 15.94963,13.3253639 16.1083344,13.3253639" id="AWS-CloudMap_Icon_16_Squid" fill="#FFFFFF"></path>
    </g>
</svg>