<?xml version="1.0" encoding="UTF-8"?>
<svg width="24px" height="24px" viewBox="0 0 24 24" version="1.1" xmlns="http://www.w3.org/2000/svg" xmlns:xlink="http://www.w3.org/1999/xlink">
    <!-- Generator: Sketch 64 (93537) - https://sketch.com -->
    <title>Icon-Architecture/16/Arch_AWS-PrivateLink_16</title>
    <desc>Created with Sketch.</desc>
    <defs>
        <linearGradient x1="0%" y1="100%" x2="100%" y2="0%" id="linearGradient-1">
            <stop stop-color="#4D27A8" offset="0%"></stop>
            <stop stop-color="#A166FF" offset="100%"></stop>
        </linearGradient>
    </defs>
    <g id="Icon-Architecture/16/Arch_AWS-PrivateLink_16" stroke="none" stroke-width="1" fill="none" fill-rule="evenodd">
        <g id="Icon-Architecture-BG/16/Networking-Content-Delivery" fill="url(#linearGradient-1)">
            <rect id="Rectangle" x="0" y="0" width="24" height="24"></rect>
        </g>
        <path d="M12.7328436,8.93122493 C13.1356815,9.30622535 13.4511207,9.78726702 13.6701199,10.3618178 C13.7324041,10.5266637 13.8840962,10.6462011 14.0659258,10.6722294 C14.2497646,10.6982578 14.4285804,10.6288489 14.5410937,10.4890673 C14.8274,10.127563 15.2915175,9.97621324 15.7204747,10.1015347 C16.2398443,10.2548125 16.5633201,10.7589905 16.609531,11.4877831 C16.6235952,11.7066136 16.7883468,11.8888118 17.0123689,11.9321923 C18.3283732,12.1866913 18.9954166,12.8855995 18.9954166,14.0086728 C18.9954166,15.3544326 18.2731211,16.0359886 16.8456081,16.0359886 L7.16845608,16.0359886 C5.98103849,16.0350246 5.07289508,15.2377872 5.00860175,14.1455624 L5.00458341,13.9865005 C5.00458341,12.6426687 5.8956489,12.1500589 6.64406354,11.9726808 C6.89219564,11.9148401 7.05493816,11.6863694 7.0217869,11.4424745 C7.00571357,11.3181171 6.9976769,11.1908676 6.9976769,11.06169 C6.9976769,9.90776844 7.8576003,8.6651578 8.95661455,8.23424472 C9.45689709,8.0375864 9.91900546,7.95950148 10.3379167,7.95950148 C11.5273435,7.95950148 12.3661707,8.58996491 12.7328436,8.93122493 M20,14.0086728 C20,12.5183112 19.1410812,11.484891 17.5699127,11.0694021 C17.4061656,10.1169589 16.8415898,9.42287072 16.0128084,9.17993986 C15.4331638,9.00930985 14.8233817,9.09510686 14.3220946,9.39491439 C14.0819991,8.9543612 13.7846424,8.56682864 13.4320337,8.23906478 C12.1059835,7.00320221 10.2907013,6.66772626 8.57587744,7.3415702 C7.10315816,7.91997702 5.99309349,9.51927186 5.99309349,11.06169 C5.99309349,11.0944664 5.99309349,11.1262788 5.99409807,11.1580912 C5.18641301,11.4482586 4,12.1818712 4,13.9865005 C4,14.0568733 4.00200917,14.1253181 4.00502292,14.195691 C4.09945376,15.7930578 5.45865511,16.998072 7.1674515,17 L16.8456081,17 C18.8216237,17 20,15.8817468 20,14.0086728 M12.9016136,13.3926695 L11.8970302,13.3926695 C11.8970302,13.771526 11.6709989,14.1542385 11.1656935,14.1542385 L8.67131286,14.1542385 C8.44226785,14.1542385 7.90883406,14.0906137 7.90883406,13.4987107 C7.90883406,13.0350213 8.23632825,12.6860492 8.67131286,12.6860492 L9.90695046,12.6860492 L9.90695046,11.7220378 L8.67131286,11.7220378 C7.68079362,11.7220378 6.90425064,12.501923 6.90425064,13.4987107 C6.90425064,14.452118 7.63156903,15.1182498 8.67131286,15.1182498 L11.1656935,15.1182498 C12.1552081,15.1182498 12.9016136,14.3759611 12.9016136,13.3926695 M14.381365,14.5514111 L13.7052803,14.5514111 L13.7052803,13.5873998 L14.381365,13.5873998 C14.7008225,13.5873998 15.23727,13.4938907 15.23727,12.8682473 C15.23727,12.3920257 14.9620142,12.1500589 14.4185346,12.1500589 L11.9904565,12.1500589 C11.4258806,12.1500589 11.3816789,12.7766662 11.3816789,12.9675405 L10.3770955,12.9675405 C10.3770955,11.9186961 11.0401206,11.1860475 11.9904565,11.1860475 L14.4185346,11.1860475 C15.5095121,11.1860475 16.2418535,11.8627835 16.2418535,12.8682473 C16.2418535,13.8746752 15.4944434,14.5514111 14.381365,14.5514111" id="AWS-PrivateLink_Icon_16_Squid" fill="#FFFFFF"></path>
    </g>
</svg>