<?xml version="1.0" encoding="UTF-8"?>
<svg width="24px" height="24px" viewBox="0 0 24 24" version="1.1" xmlns="http://www.w3.org/2000/svg" xmlns:xlink="http://www.w3.org/1999/xlink">
    <title>Icon-Architecture/16/Arch_AWS-Glue-DataBrew_16</title>
    <defs>
        <linearGradient x1="0%" y1="100%" x2="100%" y2="0%" id="linearGradient-1">
            <stop stop-color="#4D27A8" offset="0%"></stop>
            <stop stop-color="#A166FF" offset="100%"></stop>
        </linearGradient>
    </defs>
    <g id="Icon-Architecture/16/Arch_AWS-Glue-DataBrew_16" stroke="none" stroke-width="1" fill="none" fill-rule="evenodd">
        <g id="Rectangle" fill="url(#linearGradient-1)">
            <rect x="0" y="0" width="24" height="24"></rect>
        </g>
        <g id="Icon-Service/16/AWS-Glue-DataBrew_16" transform="translate(4.000000, 4.000000)" fill="#FFFFFF">
            <path d="M1,6.997 C1,6.721 1.225,6.497 1.5,6.497 C1.775,6.497 2,6.721 2,6.997 C2,7.273 1.775,7.497 1.5,7.497 C1.225,7.497 1,7.273 1,6.997 L1,6.997 Z M3,6.997 C3,6.17 2.327,5.497 1.5,5.497 C0.673,5.497 0,6.17 0,6.997 C0,7.824 0.673,8.497 1.5,8.497 C2.327,8.497 3,7.824 3,6.997 L3,6.997 Z M6.594,11.042 L7.469,11.527 C6.53,13.22 4.308,14.497 2.3,14.497 L1,14.497 L1,13.497 L2.3,13.497 C3.742,13.497 5.742,12.579 6.594,11.042 L6.594,11.042 Z M9.148,5.688 L8.266,5.217 C9.254,3.365 11.331,2.121 13.433,2.121 L14.301,2.121 L13.887,1.707 L14.594,1 L15.832,2.238 C16.027,2.434 16.027,2.75 15.832,2.945 L14.594,4.184 L13.887,3.476 L14.242,3.121 L13.485,3.121 C11.982,3.121 10.095,3.914 9.148,5.688 L9.148,5.688 Z M15.832,12.63 C16.027,12.825 16.027,13.142 15.832,13.337 L14.594,14.576 L13.887,13.869 L14.258,13.497 L12.56,13.497 C9.535,13.497 7.067,11.08 7.009,8.109 C6.956,5.48 5.05,3.497 2.575,3.497 L1,3.497 L1,2.497 L2.575,2.497 C5.559,2.497 7.945,4.953 8.009,8.089 C8.057,10.519 10.075,12.497 12.509,12.497 L14.285,12.497 L13.887,12.099 L14.594,11.392 L15.832,12.63 Z M4.061,9.292 L4.892,9.67 L4.515,10.5 L3.684,10.122 L4.061,9.292 Z M5.011,11.825 L6.216,9.173 L3.564,7.968 L2.359,10.62 L5.011,11.825 Z M10,9.217 L11,9.217 L11,7.217 L10,7.217 L10,9.217 Z M9,10.217 L12,10.217 L12,6.217 L9,6.217 L9,10.217 Z M14,9.217 L15,9.217 L15,7.217 L14,7.217 L14,9.217 Z M13,10.217 L16,10.217 L16,6.217 L13,6.217 L13,10.217 Z" id="Fill-1"></path>
        </g>
    </g>
</svg>