<?xml version="1.0" encoding="UTF-8"?>
<svg width="24px" height="24px" viewBox="0 0 24 24" version="1.1" xmlns="http://www.w3.org/2000/svg" xmlns:xlink="http://www.w3.org/1999/xlink">
    <title>Icon-Architecture/16/Arch_AWS-Glue-Elastic-Views_16</title>
    <defs>
        <linearGradient x1="0%" y1="100%" x2="100%" y2="0%" id="linearGradient-1">
            <stop stop-color="#4D27A8" offset="0%"></stop>
            <stop stop-color="#A166FF" offset="100%"></stop>
        </linearGradient>
    </defs>
    <g id="Icon-Architecture/16/Arch_AWS-Glue-Elastic-Views_16" stroke="none" stroke-width="1" fill="none" fill-rule="evenodd">
        <g id="Rectangle" fill="url(#linearGradient-1)">
            <rect x="0" y="0" width="24" height="24"></rect>
        </g>
        <g id="Icon-Service/16/AWS-Glue-Elastic-Views_16" transform="translate(4.000000, 4.000000)" fill="#FFFFFF">
            <path d="M9,7.002 L10,7.002 L10,8.002 L9,8.002 L9,9.002 L8,9.002 L8,8.002 L7,8.002 L7,7.002 L8,7.002 L8,6.002 L9,6.002 L9,7.002 Z M8.5,10.002 C7.121,10.002 6,8.88 6,7.502 C6,6.124 7.121,5.002 8.5,5.002 C9.879,5.002 11,6.124 11,7.502 C11,8.88 9.879,10.002 8.5,10.002 L8.5,10.002 Z M13,1.176 C13.128,1.105 13.465,1 14,1 C14.535,1 14.872,1.105 15,1.176 L15,3.864 C14.873,3.935 14.536,4.039 14,4.039 C13.464,4.039 13.127,3.935 13,3.864 L13,1.176 Z M14,8.97 C14.186,8.913 14.798,8.917 15,8.98 L15,10.927 C14.798,10.989 14.187,10.993 14,10.937 L14,8.97 Z M11,14.938 C10.798,15 10.186,15.003 10,14.948 L10,12.981 C10.186,12.924 10.798,12.927 11,12.991 L11,14.938 Z M3,13.926 C2.866,14 2.514,14.108 1.959,14.108 C1.402,14.108 1.107,14 1,13.94 L1,10.072 C1.107,10.011 1.404,9.902 1.959,9.902 C2.487,9.902 2.858,10.008 3,10.085 L3,13.926 Z M3,4.984 C2.798,5.046 2.187,5.049 2,4.994 L2,2.993 C2.186,2.936 2.798,2.94 3,3.003 L3,4.984 Z M14,5.039 C15.233,5.039 16,4.63 16,3.972 L16,1.067 C16,0.419 15.215,0 14,0 C12.785,0 12,0.419 12,1.067 L12,2.772 L10.557,4.684 C9.978,4.26 9.271,4.002 8.5,4.002 C7.394,4.002 6.416,4.528 5.774,5.333 L4,3.793 L4,2.814 C4,2.272 3.415,1.936 2.473,1.936 C1.387,1.936 1,2.389 1,2.814 L1,5.172 C1,5.597 1.387,6.05 2.473,6.05 C3.415,6.05 4,5.714 4,5.172 L4,5.117 L5.255,6.207 C5.094,6.608 5,7.044 5,7.502 C5,8.048 5.137,8.558 5.36,9.019 L4,10.179 L4,9.97 C4,9.321 3.199,8.902 1.959,8.902 C0.751,8.902 0,9.311 0,9.97 L0,14.041 C0,14.699 0.751,15.108 1.959,15.108 C3.218,15.108 4,14.699 4,14.041 L4,11.453 L4.02,11.476 L5.924,9.852 C6.564,10.553 7.478,11.002 8.5,11.002 C8.551,11.002 8.599,10.989 8.648,10.987 L9.351,12.191 C9.104,12.359 9,12.584 9,12.802 L9,15.126 C9,15.551 9.387,16.004 10.473,16.004 C11.415,16.004 12,15.668 12,15.126 L12,12.802 C12,12.26 11.415,11.923 10.473,11.923 C10.431,11.923 10.396,11.928 10.355,11.93 L9.686,10.781 C10.45,10.503 11.085,9.972 11.496,9.283 L13,9.94 L13,11.115 C13,11.54 13.387,11.994 14.473,11.994 C15.415,11.994 16,11.657 16,11.115 L16,8.791 C16,8.249 15.415,7.913 14.473,7.913 C13.387,7.913 13,8.366 13,8.791 L13,8.849 L11.881,8.36 C11.951,8.084 12,7.8 12,7.502 C12,6.707 11.724,5.982 11.275,5.394 L12.089,4.315 C12.316,4.767 13.001,5.039 14,5.039 L14,5.039 Z" id="Fill-7"></path>
        </g>
    </g>
</svg>