<?xml version="1.0" encoding="UTF-8"?>
<svg width="24px" height="24px" viewBox="0 0 24 24" version="1.1" xmlns="http://www.w3.org/2000/svg" xmlns:xlink="http://www.w3.org/1999/xlink">
    <!-- Generator: Sketch 64 (93537) - https://sketch.com -->
    <title>Icon-Architecture/16/Arch_Amazon-Redshift_16</title>
    <desc>Created with Sketch.</desc>
    <defs>
        <linearGradient x1="0%" y1="100%" x2="100%" y2="0%" id="linearGradient-1">
            <stop stop-color="#4D27A8" offset="0%"></stop>
            <stop stop-color="#A166FF" offset="100%"></stop>
        </linearGradient>
    </defs>
    <g id="Icon-Architecture/16/Arch_Amazon-Redshift_16" stroke="none" stroke-width="1" fill="none" fill-rule="evenodd">
        <g id="Icon-Architecture-BG/16/Analytics" fill="url(#linearGradient-1)">
            <rect id="Rectangle" x="0" y="0" width="24" height="24"></rect>
        </g>
        <path d="M14.4737051,10.7348035 C14.4737051,10.6013584 14.5788847,10.4925493 14.7078785,10.4925493 C14.8368724,10.4925493 14.9430443,10.6013584 14.9430443,10.7348035 C14.9430443,11.0016937 14.4737051,11.0016937 14.4737051,10.7348035 M13.2562016,13.756822 C13.2562016,13.6233768 13.3623735,13.5145678 13.4913673,13.5145678 C13.6203612,13.5145678 13.7245485,13.6233768 13.7245485,13.756822 C13.7245485,14.0247387 13.2562016,14.0247387 13.2562016,13.756822 M10.3349871,13.25281 C10.3349871,13.1193649 10.441159,13.0105559 10.5691605,13.0105559 C10.6981544,13.0105559 10.8043263,13.1193649 10.8043263,13.25281 C10.8043263,13.5207268 10.3349871,13.5207268 10.3349871,13.25281 M9.11847589,16.0233358 C9.11847589,15.8898907 9.22365549,15.7810816 9.35264934,15.7810816 C9.48164318,15.7810816 9.58583052,15.8898907 9.58583052,16.0233358 C9.58583052,16.290226 9.11847589,16.290226 9.11847589,16.0233358 M14.7078785,9.46604849 C14.0321492,9.46604849 13.4814447,10.0347299 13.4814447,10.7348035 C13.4814447,11.0899728 13.6253225,11.4092146 13.8525501,11.6401772 L13.5270887,12.4952524 C13.5141893,12.4952524 13.5032745,12.4880669 13.4913673,12.4880669 C13.0359198,12.4880669 12.6529073,12.7580366 12.4405636,13.1409215 L11.7420123,12.9766813 C11.6159952,12.4131324 11.1506251,11.984055 10.5691605,11.984055 C9.89343124,11.984055 9.34272673,12.5527365 9.34272673,13.25281 C9.34272673,13.5145678 9.43897599,13.7455304 9.57094662,13.9477511 L9.22762453,14.7802433 C8.6124231,14.8490188 8.12621552,15.3694548 8.12621552,16.0233358 C8.12621552,16.7234094 8.67592776,17.2920908 9.35264934,17.2920908 C10.0293709,17.2920908 10.5780909,16.7234094 10.5780909,16.0233358 C10.5780909,15.654822 10.4203215,15.3294212 10.1762254,15.097432 L10.4262751,14.4917965 C10.4748958,14.4989821 10.5185553,14.5215651 10.5691605,14.5215651 C10.9779718,14.5215651 11.3222862,14.3008674 11.5455448,13.9836786 L12.3453066,14.1715283 C12.5129986,14.6663017 12.9575313,15.025577 13.4913673,15.025577 C14.1670966,15.025577 14.7168089,14.455869 14.7168089,13.756822 C14.7168089,13.4478452 14.5967454,13.1737695 14.4181385,12.9530718 L14.7862671,11.9871345 C15.4242905,11.942995 15.9353046,11.4061351 15.9353046,10.7348035 C15.9353046,10.0347299 15.3846001,9.46604849 14.7078785,9.46604849 M12,18.9734992 C9.35562612,18.9734992 7.99226037,18.1461395 7.99226037,17.7930232 L7.99226037,8.59044328 C8.95276841,9.14885973 10.4808494,9.43730646 12,9.43730646 C13.5191506,9.43730646 15.0472316,9.14885973 16.0077396,8.59044328 L16.0077396,17.7930232 C16.0077396,18.1461395 14.6443739,18.9734992 12,18.9734992 M12,5.99236968 C14.4866045,5.99236968 16.0077396,6.77558981 16.0077396,7.20261416 C16.0077396,7.628612 14.4866045,8.41080563 12,8.41080563 C9.51339551,8.41080563 7.99226037,7.628612 7.99226037,7.20261416 C7.99226037,6.77558981 9.51339551,5.99236968 12,5.99236968 M17,7.20261416 C17,4.26579528 7,4.26579528 7,7.20261416 C7,7.20466716 7.00099226,7.20672016 7.00099226,7.20877316 L7,7.20877316 L7,17.7930232 C7,19.2424424 9.51538004,20 12,20 C14.48462,20 17,19.2424424 17,17.7930232 L17,7.20877316 L16.9990077,7.20877316 C16.9990077,7.20672016 17,7.20466716 17,7.20261416" id="Amazon-Redshift_Icon_16_Squid" fill="#FFFFFF"></path>
    </g>
</svg>