<?xml version="1.0" encoding="UTF-8"?>
<svg width="24px" height="24px" viewBox="0 0 24 24" version="1.1" xmlns="http://www.w3.org/2000/svg" xmlns:xlink="http://www.w3.org/1999/xlink">
    <!-- Generator: Sketch 64 (93537) - https://sketch.com -->
    <title>Icon-Architecture/16/Arch_AWS-Data-Exchange_16</title>
    <desc>Created with Sketch.</desc>
    <defs>
        <linearGradient x1="0%" y1="100%" x2="100%" y2="0%" id="linearGradient-1">
            <stop stop-color="#4D27A8" offset="0%"></stop>
            <stop stop-color="#A166FF" offset="100%"></stop>
        </linearGradient>
    </defs>
    <g id="Icon-Architecture/16/Arch_AWS-Data-Exchange_16" stroke="none" stroke-width="1" fill="none" fill-rule="evenodd">
        <g id="Icon-Architecture-BG/16/Analytics" fill="url(#linearGradient-1)">
            <rect id="Rectangle" x="0" y="0" width="24" height="24"></rect>
        </g>
        <path d="M9.276,12.859 L7.989,14.146 C7.895,14.239 7.842,14.366 7.842,14.499 C7.842,14.632 7.895,14.759 7.989,14.853 L9.276,16.139 L9.983,15.432 L9.049,14.499 L9.983,13.566 L9.276,12.859 Z M14.651,10.753 L15.938,9.466 C16.032,9.372 16.085,9.245 16.085,9.112 C16.085,8.98 16.032,8.853 15.938,8.759 L14.651,7.472 L13.944,8.179 L14.878,9.112 L13.944,10.046 L14.651,10.753 Z M11,15.911 L11,16.911 L20,16.911 L20,15.911 L13,15.911 L13,11.411 C13,11.134 12.776,10.911 12.5,10.911 L5.5,10.911 C5.223,10.911 5,11.134 5,11.411 L5,18.411 C5,18.687 5.223,18.911 5.5,18.911 L12.5,18.911 C12.776,18.911 13,18.687 13,18.411 L13,17.911 L6,17.911 L6,11.911 L12,11.911 L12,15.911 L11,15.911 Z M14.65,6 C16.479,6 17.966,7.487 17.966,9.316 C17.966,11.145 16.479,12.632 14.65,12.632 C14.346,12.632 14.046,12.592 13.757,12.512 L13.49,13.475 C13.865,13.579 14.255,13.632 14.65,13.632 C17.03,13.632 18.966,11.696 18.966,9.316 C18.966,6.936 17.03,5 14.65,5 C13.918,5 13.193,5.187 12.554,5.541 L13.041,6.415 C13.53,6.143 14.087,6 14.65,6 L14.65,6 Z M10.586,7.911 L4,7.911 L4,6.911 L13,6.911 L13,7.911 L11.659,7.911 C11.492,8.314 11.333,8.878 11.333,9.316 C11.333,9.609 11.371,9.901 11.447,10.181 L10.482,10.442 C10.382,10.077 10.333,9.698 10.333,9.316 C10.333,8.832 10.429,8.363 10.586,7.911 L10.586,7.911 Z" id="AWS-Data-Exchange_Icon_16_Squid" fill="#FFFFFF"></path>
    </g>
</svg>