<?xml version="1.0" encoding="UTF-8"?>
<svg width="24px" height="24px" viewBox="0 0 24 24" version="1.1" xmlns="http://www.w3.org/2000/svg" xmlns:xlink="http://www.w3.org/1999/xlink">
    <!-- Generator: Sketch 64 (93537) - https://sketch.com -->
    <title>Icon-Architecture/16/Arch_Amazon-Kinesis-Firehose_16</title>
    <desc>Created with Sketch.</desc>
    <defs>
        <linearGradient x1="0%" y1="100%" x2="100%" y2="0%" id="linearGradient-1">
            <stop stop-color="#4D27A8" offset="0%"></stop>
            <stop stop-color="#A166FF" offset="100%"></stop>
        </linearGradient>
    </defs>
    <g id="Icon-Architecture/16/Arch_Amazon-Kinesis-Firehose_16" stroke="none" stroke-width="1" fill="none" fill-rule="evenodd">
        <g id="Icon-Architecture-BG/16/Analytics" fill="url(#linearGradient-1)">
            <rect id="Rectangle" x="0" y="0" width="24" height="24"></rect>
        </g>
        <g id="Icon-Service/16/Amazon-Kinesis-Data-Firehose" transform="translate(4.000000, 4.000000)" fill="#FFFFFF">
            <path d="M15.5836386,9.241 L14.9526386,10.017 C14.1876386,9.396 13.0286386,8.994 12.0006386,8.994 L12.0006386,8.056 L12.0006386,7.994 L12.0006386,7.056 C13.1386386,7.056 14.2796386,6.507 14.9696386,5.992 L15.5666386,6.794 C15.2016386,7.067 13.9546386,7.9 12.3996386,8.03 C13.5466386,8.117 14.7346386,8.552 15.5836386,9.241 L15.5836386,9.241 Z M10.0006386,8.62 L8.00063863,9.12 L8.00063863,6.902 L10.0006386,7.402 L10.0006386,8.62 Z M7.00063863,10 L6.00063863,10 L6.00063863,6 L7.00063863,6 L7.00063863,6.261 L7.00063863,9.761 L7.00063863,10 Z M10.6216386,6.526 L8.00063863,5.871 L8.00063863,5.5 C8.00063863,5.223 7.77663863,5 7.50063863,5 L5.50063863,5 C5.22463863,5 5.00063863,5.223 5.00063863,5.5 L5.00063863,6.409 C2.46663863,6.086 2.00063863,5.16 2.00063863,3.42 L2.00063863,2 L1.00063863,2 L1.00063863,3.42 C1.00063863,5.918 2.14663863,7.056 5.00063863,7.403 L5.00063863,7.5 L1.00063863,7.5 L1.00063863,8.5 L5.00063863,8.5 L5.00063863,8.604 C2.21763863,8.983 1.00163863,10.274 1.00163863,12.882 L1.00163863,12.99 C0.99963863,13.279 0.99863863,13.995 1.00363863,14.048 L2.00063863,13.97 C1.99663863,13.874 1.99963863,13.252 2.00163863,12.994 L2.00163863,12.882 C2.00163863,11.148 2.54263863,9.991 5.00063863,9.615 L5.00063863,10.5 C5.00063863,10.776 5.22463863,11 5.50063863,11 L7.50063863,11 C7.77663863,11 8.00063863,10.776 8.00063863,10.5 L8.00063863,10.151 L10.6216386,9.496 C10.8446386,9.44 11.0006386,9.241 11.0006386,9.011 L11.0006386,7.011 C11.0006386,6.782 10.8446386,6.582 10.6216386,6.526 L10.6216386,6.526 Z" id="Amazon-Kinesis-Data-Firehose_Icon_16_Squid"></path>
        </g>
    </g>
</svg>