<?xml version="1.0" encoding="UTF-8"?>
<svg width="24px" height="24px" viewBox="0 0 24 24" version="1.1" xmlns="http://www.w3.org/2000/svg" xmlns:xlink="http://www.w3.org/1999/xlink">
    <!-- Generator: Sketch 64 (93537) - https://sketch.com -->
    <title>Icon-Architecture/16/Arch_Amazon-QuickSight_16</title>
    <desc>Created with Sketch.</desc>
    <defs>
        <linearGradient x1="0%" y1="100%" x2="100%" y2="0%" id="linearGradient-1">
            <stop stop-color="#4D27A8" offset="0%"></stop>
            <stop stop-color="#A166FF" offset="100%"></stop>
        </linearGradient>
    </defs>
    <g id="Icon-Architecture/16/Arch_Amazon-QuickSight_16" stroke="none" stroke-width="1" fill="none" fill-rule="evenodd">
        <g id="Icon-Architecture-BG/16/Analytics" fill="url(#linearGradient-1)">
            <rect id="Rectangle" x="0" y="0" width="24" height="24"></rect>
        </g>
        <path d="M19,9 C19,8.724 18.775,8.5 18.5,8.5 C18.225,8.5 18,8.724 18,9 C18,9.276 18.225,9.5 18.5,9.5 C18.775,9.5 19,9.276 19,9 L19,9 Z M13,14.5 C13,14.224 12.775,14 12.5,14 C12.225,14 12,14.224 12,14.5 C12,14.776 12.225,15 12.5,15 C12.775,15 13,14.776 13,14.5 L13,14.5 Z M6,15.5 C6,15.224 5.775,15 5.5,15 C5.225,15 5,15.224 5,15.5 C5,15.776 5.225,16 5.5,16 C5.775,16 6,15.776 6,15.5 L6,15.5 Z M12,9.5 C12,9.776 12.225,10 12.5,10 C12.775,10 13,9.776 13,9.5 C13,9.224 12.775,9 12.5,9 C12.225,9 12,9.224 12,9.5 L12,9.5 Z M20,9 C20,9.827 19.327,10.5 18.5,10.5 C18.401,10.5 18.306,10.489 18.212,10.471 L13.887,13.932 C13.959,14.107 14,14.299 14,14.5 C14,15.327 13.327,16 12.5,16 C11.673,16 11,15.327 11,14.5 C11,13.849 11.419,13.299 12,13.092 L12,10.908 C11.93,10.883 11.864,10.853 11.8,10.818 L6.882,14.917 C6.958,15.096 7,15.293 7,15.5 C7,16.327 6.327,17 5.5,17 C4.673,17 4,16.327 4,15.5 C4,14.673 4.673,14 5.5,14 C5.754,14 5.99,14.069 6.2,14.182 L11.118,10.083 C11.042,9.904 11,9.707 11,9.5 C11,8.673 11.673,8 12.5,8 C13.327,8 14,8.673 14,9.5 C14,10.151 13.581,10.701 13,10.908 L13,13.092 C13.074,13.119 13.145,13.151 13.213,13.188 L17.314,9.908 C17.12,9.655 17,9.343 17,9 C17,8.173 17.673,7.5 18.5,7.5 C19.327,7.5 20,8.173 20,9 L20,9 Z M19.5,5 L5.5,5 C5.224,5 5,5.224 5,5.5 L5,13 L6,13 L6,6 L19,6 L19,7 L20,7 L20,5.5 C20,5.224 19.776,5 19.5,5 L19.5,5 Z M19,12 L20,12 L20,19.5 C20,19.776 19.776,20 19.5,20 L5.5,20 C5.224,20 5,19.776 5,19.5 L5,18 L6,18 L6,19 L19,19 L19,12 Z" id="Amazon-QuickSight-Icon_16_Squid" fill="#FFFFFF"></path>
    </g>
</svg>