<?xml version="1.0" encoding="UTF-8"?>
<svg width="24px" height="24px" viewBox="0 0 24 24" version="1.1" xmlns="http://www.w3.org/2000/svg" xmlns:xlink="http://www.w3.org/1999/xlink">
    <!-- Generator: Sketch 64 (93537) - https://sketch.com -->
    <title>Icon-Architecture/16/Arch_Amazon-Kinesis-Data-Analytics_16</title>
    <desc>Created with Sketch.</desc>
    <defs>
        <linearGradient x1="0%" y1="100%" x2="100%" y2="0%" id="linearGradient-1">
            <stop stop-color="#4D27A8" offset="0%"></stop>
            <stop stop-color="#A166FF" offset="100%"></stop>
        </linearGradient>
    </defs>
    <g id="Icon-Architecture/16/Arch_Amazon-Kinesis-Data-Analytics_16" stroke="none" stroke-width="1" fill="none" fill-rule="evenodd">
        <g id="Icon-Architecture-BG/16/Analytics" fill="url(#linearGradient-1)">
            <rect id="Rectangle" x="0" y="0" width="24" height="24"></rect>
        </g>
        <g id="Icon-Service/16/Amazon-Kinesis-Data-Analytics" transform="translate(4.000000, 4.000000)" fill="#FFFFFF">
            <path d="M5.131,8.747 L5.131,9.835 C3.955,10.385 3.747,11.033 3.747,11.665 L2.747,11.665 C2.747,10.318 3.514,9.378 5.131,8.747 L5.131,8.747 Z M15.108,5.833 L15.108,6.833 C3.49,6.833 2,8.225 2,9.438 L1,9.438 C1,8.002 2.001,6.921 5.854,6.333 C2.001,5.745 1,4.664 1,3.228 L2,3.228 C2,4.441 3.49,5.833 15.108,5.833 L15.108,5.833 Z M15.108,4.029 L15.108,5.029 C4.244,5.029 2.747,3.093 2.747,1 L3.747,1 C3.747,1.907 3.747,4.029 15.108,4.029 L15.108,4.029 Z M14.108,13.841 L13.108,13.841 L13.108,9.841 L12.108,9.841 L12.108,13.841 L11.108,13.841 L11.108,10.841 L10.108,10.841 L10.108,13.841 L9.108,13.841 L9.108,11.841 L8.108,11.841 L8.108,13.841 L7.108,13.841 L7.108,8.841 L14.108,8.841 L14.108,13.841 Z M14.608,7.841 L6.608,7.841 C6.331,7.841 6.108,8.065 6.108,8.341 L6.108,14.341 C6.108,14.618 6.331,14.841 6.608,14.841 L14.608,14.841 C14.884,14.841 15.108,14.618 15.108,14.341 L15.108,8.341 C15.108,8.065 14.884,7.841 14.608,7.841 L14.608,7.841 Z" id="Amazon-Kinesis-Data-Analytics_Icon_16_Squid"></path>
        </g>
    </g>
</svg>