<svg xmlns="http://www.w3.org/2000/svg" width="20" height="20" viewBox="0 0 20 20" fill="none">
  <mask
    id="mask0_89_26528"
    style="mask-type: alpha"
    maskUnits="userSpaceOnUse"
    x="0"
    y="0"
    width="20"
    height="20"
  >
    <rect width="20" height="20" fill="currentColor" />
  </mask>
  <g mask="url(#mask0_89_26528)">
    <path
      d="M10.25 12.9792C11.2083 12.9792 12.0312 12.6667 12.7188 12.0417C13.4062 11.4167 13.75 10.6671 13.75 9.79292C13.75 9.01431 13.4965 8.35069 12.9896 7.80208C12.4826 7.25347 11.8747 6.97917 11.1656 6.97917C10.5248 6.97917 9.98285 7.1875 9.53979 7.60417C9.0966 8.02083 8.875 8.52083 8.875 9.10417C8.875 9.38194 8.92528 9.63847 9.02583 9.87375C9.12639 10.109 9.27056 10.3247 9.45833 10.5208L10.5208 9.45833C10.4722 9.41667 10.4358 9.36458 10.4115 9.30208C10.3872 9.23958 10.375 9.17687 10.375 9.11396C10.375 8.94076 10.4514 8.79167 10.6042 8.66667C10.7569 8.54167 10.9444 8.47917 11.1667 8.47917C11.4583 8.47917 11.7118 8.60806 11.9271 8.86583C12.1424 9.12361 12.25 9.43222 12.25 9.79167C12.25 10.25 12.0521 10.6458 11.6562 10.9792C11.2604 11.3125 10.7933 11.4792 10.255 11.4792C9.57111 11.4792 8.98264 11.191 8.48958 10.6146C7.99653 10.0382 7.75 9.35417 7.75 8.5625C7.75 8.13514 7.82986 7.72625 7.98958 7.33583C8.14931 6.94528 8.38194 6.59722 8.6875 6.29167L7.625 5.25C7.18056 5.69444 6.84028 6.20139 6.60417 6.77083C6.36806 7.34028 6.25 7.9375 6.25 8.5625C6.25 9.78472 6.63889 10.8264 7.41667 11.6875C8.19444 12.5486 9.13889 12.9792 10.25 12.9792ZM5.5 18V14.3542C4.70833 13.6875 4.09375 12.8849 3.65625 11.9465C3.21875 11.008 3 10.0189 3 8.97917C3 7.04056 3.68257 5.39271 5.04771 4.03563C6.41285 2.67854 8.07056 2 10.0208 2C11.5347 2 12.8958 2.40625 14.1042 3.21875C15.3125 4.03125 16.1111 5.09028 16.5 6.39583L17.875 11.0417C17.9444 11.2844 17.9062 11.5049 17.7604 11.7029C17.6146 11.901 17.4167 12 17.1667 12H16V14.5C16 14.9125 15.8531 15.2656 15.5594 15.5594C15.2656 15.8531 14.9125 16 14.5 16H12.5V18H11V14.5H14.5V10.5H16.1667L15.0833 6.89583C14.7778 5.89583 14.1562 5.07986 13.2188 4.44792C12.2812 3.81597 11.2153 3.5 10.0208 3.5C8.47917 3.5 7.17361 4.03215 6.10417 5.09646C5.03472 6.16076 4.5 7.455 4.5 8.97917C4.5 9.79764 4.67361 10.5751 5.02083 11.3117C5.36806 12.0483 5.85417 12.6806 6.47917 13.2083L7 13.6667V18H5.5Z"
      fill="currentColor"
    />
  </g>
</svg>
