<svg xmlns="http://www.w3.org/2000/svg" width="20" height="20" viewBox="0 0 20 20" fill="none">
  <mask
    id="mask0_89_26616"
    style="mask-type: alpha"
    maskUnits="userSpaceOnUse"
    x="0"
    y="0"
    width="20"
    height="20"
  >
    <rect width="20" height="20" fill="currentColor" />
  </mask>
  <g mask="url(#mask0_89_26616)">
    <path
      d="M4 16.9999V14.4999H5.875L4.4375 8.77077C3.99306 8.56244 3.64236 8.25341 3.38542 7.84369C3.12847 7.43396 3 6.98605 3 6.49993C3 5.7916 3.24306 5.19785 3.72917 4.71868C4.21528 4.23952 4.8125 3.99993 5.52083 3.99993C6.0625 3.99993 6.55208 4.15966 6.98958 4.4791C7.42708 4.79855 7.72222 5.22216 7.875 5.74993H9.5V4.74993C9.5 4.5416 9.57292 4.36452 9.71875 4.21868C9.86458 4.07285 10.0417 3.99993 10.25 3.99993C10.4583 3.99993 10.6354 4.07285 10.7812 4.21868C10.9271 4.36452 11 4.5416 11 4.74993V4.89577L13 3.18743C13.1111 3.09021 13.2361 3.03466 13.375 3.02077C13.5139 3.00688 13.6528 3.02771 13.7917 3.08327L16.5625 4.33327C16.7569 4.4166 16.8924 4.55202 16.9688 4.73952C17.0451 4.92702 17.0347 5.11799 16.9375 5.31243C16.8542 5.49299 16.7153 5.61799 16.5208 5.68743C16.3264 5.75688 16.1319 5.75688 15.9375 5.68743L13.6042 4.64577L11.4167 6.49993L13.6042 8.37494L15.9375 7.33327C16.1319 7.24993 16.3229 7.24299 16.5104 7.31244C16.6979 7.38188 16.8403 7.51382 16.9375 7.70827C17.0208 7.88882 17.0243 8.06938 16.9479 8.24994C16.8715 8.43049 16.7431 8.57632 16.5625 8.68744L13.7917 9.93744C13.6667 10.0069 13.5312 10.0312 13.3854 10.0104C13.2396 9.98952 13.1111 9.93049 13 9.83327L11 8.12494V8.24994C11 8.45827 10.9271 8.63535 10.7812 8.78119C10.6354 8.92702 10.4583 8.99994 10.25 8.99994C10.0417 8.99994 9.86458 8.92702 9.71875 8.78119C9.57292 8.63535 9.5 8.45827 9.5 8.24994V7.24994H7.875C7.81944 7.44438 7.73958 7.62146 7.63542 7.78119C7.53125 7.94091 7.40972 8.09716 7.27083 8.24994L10.8542 14.4999H14V16.9999H4ZM5.5 7.62494C5.81944 7.62494 6.08681 7.5173 6.30208 7.30202C6.51736 7.08674 6.625 6.81938 6.625 6.49993C6.625 6.19438 6.51736 5.93396 6.30208 5.71868C6.08681 5.50341 5.81944 5.39577 5.5 5.39577C5.18056 5.39577 4.91319 5.50341 4.69792 5.71868C4.48264 5.93396 4.375 6.19438 4.375 6.49993C4.375 6.81938 4.48264 7.08674 4.69792 7.30202C4.91319 7.5173 5.18056 7.62494 5.5 7.62494ZM7.41667 14.4999H9.125L6.08333 9.18744L7.41667 14.4999Z"
      fill="currentColor"
    />
  </g>
</svg>
