<svg xmlns="http://www.w3.org/2000/svg" width="20" height="20" viewBox="0 0 20 20" fill="none">
  <mask
    id="mask0_89_26533"
    style="mask-type: alpha"
    maskUnits="userSpaceOnUse"
    x="0"
    y="0"
    width="20"
    height="20"
  >
    <rect width="20" height="20" fill="currentColor" />
  </mask>
  <g mask="url(#mask0_89_26533)">
    <path
      d="M6.54165 17L5.83332 16.2917L4.56249 17.5625C4.27082 17.8542 3.91665 18 3.49999 18C3.08332 18 2.72915 17.8542 2.43749 17.5625C2.15971 17.2569 2.01735 16.8993 2.0104 16.4896C2.00346 16.0799 2.14582 15.7292 2.43749 15.4375L3.70832 14.1667L2.99999 13.4583L13.0208 3.4375C13.3125 3.14583 13.6632 3 14.0729 3C14.4826 3 14.8403 3.14583 15.1458 3.4375L16.5625 4.85417C16.8542 5.13194 17 5.47917 17 5.89583C17 6.3125 16.8542 6.66667 16.5625 6.95833L6.54165 17ZM9.27082 9.33333L5.12499 13.4583L6.54165 14.875L10.6875 10.7292L9.27082 9.33333Z"
      fill="#2B2542"
    />
  </g>
</svg>
