<?xml version="1.0" encoding="UTF-8"?>
<svg width="24px" height="24px" viewBox="0 0 24 24" version="1.1" xmlns="http://www.w3.org/2000/svg" xmlns:xlink="http://www.w3.org/1999/xlink">
    <!-- Generator: Sketch 64 (93537) - https://sketch.com -->
    <title>Icon-Architecture/16/Arch_AWS-Ground-Station_16</title>
    <desc>Created with Sketch.</desc>
    <defs>
        <linearGradient x1="0%" y1="100%" x2="100%" y2="0%" id="linearGradient-1">
            <stop stop-color="#2E27AD" offset="0%"></stop>
            <stop stop-color="#527FFF" offset="100%"></stop>
        </linearGradient>
    </defs>
    <g id="Icon-Architecture/16/Arch_AWS-Ground-Station_16" stroke="none" stroke-width="1" fill="none" fill-rule="evenodd">
        <g id="Icon-Architecture-BG/16/Satellite" fill="url(#linearGradient-1)">
            <rect id="Rectangle" x="0" y="0" width="24" height="24"></rect>
        </g>
        <path d="M10.0023056,18.9911728 L11.0013833,18.9911728 L11.0013833,12.9382093 L10.0023056,12.9382093 L10.0023056,18.9911728 Z M7.08200123,9.91172762 L7.96318783,9.91172762 C7.96019059,10.4403531 8.03911774,10.8933165 8.16799877,11.2736444 C7.66346449,10.9044136 7.25084537,10.4282472 7.08200123,9.91172762 L7.08200123,9.91172762 Z M12.820704,11.2918033 C12.9525822,10.9074401 13.0325085,10.4484237 13.0295112,9.91172762 L13.9636489,9.91172762 C13.7858131,10.4554855 13.3392253,10.9306431 12.820704,11.2918033 L12.820704,11.2918033 Z M11.3081002,11.9293821 L11.0013833,11.9293821 L11.0013833,9.91172762 L12.0354288,9.91172762 C12.0444205,11.0567465 11.5358899,11.702396 11.3081002,11.9293821 L11.3081002,11.9293821 Z M8.95627113,9.91172762 L10.0023056,9.91172762 L10.0023056,11.9293821 L9.69259145,11.9293821 C9.46380264,11.7044136 8.94827851,11.0587642 8.95627113,9.91172762 L8.95627113,9.91172762 Z M15.0446511,9.407314 C15.0446511,9.12887768 14.8208577,8.90290038 14.5451122,8.90290038 L6.49953889,8.90290038 C6.22379342,8.90290038 6,9.12887768 6,9.407314 C6,10.9952081 7.49262219,12.332913 9.00322779,12.8110971 L9.00322779,19.4955864 C9.00322779,19.7740227 9.22602213,20 9.50276668,20 L11.5009222,20 C11.7766677,20 12.0004611,19.7740227 12.0004611,19.4955864 L12.0004611,12.8121059 C13.5310483,12.3319042 15.0446511,10.9911728 15.0446511,9.407314 L15.0446511,9.407314 Z M10.4778666,5.75636822 C11.4179988,5.75636822 12.2612204,6.28398487 12.679834,7.1334174 L11.7846603,7.58234552 C11.5358899,7.0779319 11.035352,6.76519546 10.4778666,6.76519546 C9.92138026,6.76519546 9.42184138,7.0779319 9.17407009,7.58234552 L8.2788964,7.1334174 C8.69651091,6.28398487 9.53973255,5.75636822 10.4778666,5.75636822 L10.4778666,5.75636822 Z M7.61351061,6.80252207 L6.72033508,6.35359395 C7.43467568,4.90189155 8.87434676,4 10.4778666,4 C12.0773901,4 13.515063,4.89785624 14.2324009,6.34350567 L13.3392253,6.79445145 C12.7927298,5.69281211 11.6967415,5.00882724 10.4778666,5.00882724 C9.25699354,5.00882724 8.15900707,5.69583859 7.61351061,6.80252207 L7.61351061,6.80252207 Z M14.0136028,18.9911728 L15.0126806,18.9911728 L15.0126806,14.9558638 L14.0136028,14.9558638 L14.0136028,18.9911728 Z M19,11.4249685 C19,11.1465322 18.7762066,10.9205549 18.5004611,10.9205549 L15.5122195,10.9205549 L15.5122195,11.9293821 L17.8850292,11.9293821 C17.587304,12.601261 16.7191054,13.3114754 15.4003228,13.9470366 L14.0136028,13.9470366 L14.0136028,12.9382093 L13.0145251,12.9382093 L13.0145251,19.4955864 C13.0145251,19.7740227 13.2383185,20 13.5140639,20 L15.5122195,20 C15.788964,20 16.0117584,19.7740227 16.0117584,19.4955864 L16.0117584,14.7641866 C17.4374424,14.0489281 19,12.9261034 19,11.4249685 L19,11.4249685 Z" id="AWS-Ground-Station_Icon_16_Squid" fill="#FFFFFF"></path>
    </g>
</svg>