<svg id="Artwork" xmlns="http://www.w3.org/2000/svg" width="24px" height="24px" viewBox="0 0 24 24"><path d="M12,10.48V6.07a.38.38,0,0,0-.38-.38h-1.5a.37.37,0,0,0-.37.38V8.2l1,2.28Z" style="fill:#aecbfa"/><path d="M8.85,17.51a1.88,1.88,0,1,0,1.87,1.87A1.88,1.88,0,0,0,8.85,17.51Zm9.28,0A1.88,1.88,0,1,0,20,19.38,1.87,1.87,0,0,0,18.13,17.51ZM14.92,5.07a.38.38,0,0,0-.38-.38H13a.37.37,0,0,0-.37.38v5.41h2.25Z" style="fill:#669df6"/><path d="M10.29,12.73,9.19,15H20a.75.75,0,0,1,0,1.5H9.19a1.49,1.49,0,0,1-1.27-.7,1.47,1.47,0,0,1-.08-1.45L9,12,5.44,4.24H3.28a.75.75,0,1,1,0-1.5H5.93a.75.75,0,0,1,.68.44l3.69,8.05h6.53l3.24-5.77a.75.75,0,1,1,1.31.73L18.13,12a1.49,1.49,0,0,1-1.3.77Zm7.56-4.85V3.14a.37.37,0,0,0-.38-.37H16a.36.36,0,0,0-.37.37v7.34h.79Z" style="fill:#4285f4"/></svg>