<svg xmlns="http://www.w3.org/2000/svg" width="24px" height="24px" viewBox="0 0 24 24"><defs><style>.cls-1{fill:#4285f4;}.cls-1,.cls-2,.cls-4{fill-rule:evenodd;}.cls-2{fill:#669df6;}.cls-3,.cls-4{fill:#aecbfa;}</style></defs><title>Icon_24px_K8Engine_Color</title><g data-name="Product Icons"><g ><polygon class="cls-1" points="14.68 13.06 19.23 15.69 19.23 16.68 14.29 13.83 14.68 13.06"/><polygon class="cls-2" points="9.98 13.65 4.77 16.66 4.45 15.86 9.53 12.92 9.98 13.65"/><rect class="cls-3" x="11.55" y="3.29" width="0.86" height="5.78"/><path class="cls-4" d="M3.25,7V17L12,22l8.74-5V7L12,2Zm15.63,8.89L12,19.78,5.12,15.89V8.11L12,4.22l6.87,3.89v7.78Z"/><polygon class="cls-4" points="11.98 11.5 15.96 9.21 11.98 6.91 8.01 9.21 11.98 11.5"/><polygon class="cls-2" points="11.52 12.3 7.66 10.01 7.66 14.6 11.52 16.89 11.52 12.3"/><polygon class="cls-1" points="12.48 12.3 12.48 16.89 16.34 14.6 16.34 10.01 12.48 12.3"/></g></g></svg>