<svg width="24px" height="24px" viewBox="0 0 24 24" version="1.1" xmlns="http://www.w3.org/2000/svg" xmlns:xlink="http://www.w3.org/1999/xlink">
    <defs>
        <path d="M19.6554561,20.9177505 L20.1324211,21.5082919 C19.7289347,21.8246698 19.2287757,22 18.7024516,22 C18.5957479,22 18.4898379,21.9928085 18.385261,21.9785596 L18.4901851,21.2309569 C18.5600191,21.240472 18.6308721,21.245283 18.7024516,21.245283 C19.0539479,21.245283 19.3863488,21.1287603 19.6554561,20.9177505 Z M13.2918622,17.3791385 C14.5579751,17.3791385 15.5843624,18.3904426 15.5843624,19.6379494 C15.5843624,20.8854563 14.5579751,21.8967604 13.2918622,21.8967604 C12.0257494,21.8967604 10.9993621,20.8854563 10.9993621,19.6379494 C10.9993621,18.3904426 12.0257494,17.3791385 13.2918622,17.3791385 Z M17.2015818,20.040198 C17.2869873,20.451794 17.5449795,20.8093683 17.9081786,21.0268796 L17.510337,21.6718118 C16.9661345,21.3459018 16.579504,20.8100362 16.4511322,20.1913721 L17.2015818,20.040198 Z M10.3971131,2 C11.5991439,2 12.616247,2.76528302 13.0045954,3.82210243 L13.0045954,3.82210243 L15.9449479,3.82210243 C16.9620509,3.82210243 17.7942261,4.64204852 17.7942261,5.64420485 L17.7942261,5.64420485 L17.7942261,11.1105121 L15.9449479,11.1105121 L15.9449479,5.64420485 L14.0956696,5.64420485 L14.0956696,8.37735849 L6.69855654,8.37735849 L6.69855654,5.64420485 L4.84927827,5.64420485 L4.84927827,19.309973 L9.47247394,19.309973 L9.47247394,21.1320755 L4.84927827,21.1320755 C3.83217522,21.1320755 3,20.3121294 3,19.309973 L3,19.309973 L3,5.64420485 C3,4.64204852 3.83217522,3.82210243 4.84927827,3.82210243 L4.84927827,3.82210243 L7.78963072,3.82210243 C8.17797915,2.76528302 9.1950822,2 10.3971131,2 Z M20.8598019,18.9546151 C20.9472125,19.1888929 20.9948768,19.436931 20.9999984,19.6977675 C21.0004225,20.0933426 20.9155279,20.4469131 20.7476245,20.7690374 L20.0662579,20.4242448 C20.1778966,20.2100648 20.2343216,19.9750652 20.2340973,19.7055583 C20.2307241,19.5358936 20.1990081,19.370848 20.1408704,19.2150275 L20.8598019,18.9546151 Z M17.5210599,17.793504 L17.9153266,18.440564 C17.550937,18.6561162 17.2909665,19.0123847 17.203282,19.4234195 L16.4536885,19.2681768 C16.5854849,18.6503604 16.9750506,18.1164922 17.5210599,17.793504 Z M18.7024516,17.4716981 C19.350097,17.4716981 19.9554053,17.7375693 20.3872523,18.1961485 L19.8257551,18.7094874 C19.5373774,18.4032585 19.1347584,18.2264151 18.7024516,18.2264151 C18.6390357,18.2269825 18.5619322,18.2313948 18.4998951,18.2394494 L18.3998271,17.4912006 C18.4927197,17.4791399 18.6078739,17.4725444 18.7024516,17.4716981 Z M18.5597349,12.1886792 C19.8258477,12.1886792 20.852235,13.1999834 20.852235,14.4474902 C20.852235,15.6949971 19.8258477,16.7063012 18.5597349,16.7063012 C17.293622,16.7063012 16.2672347,15.6949971 16.2672347,14.4474902 C16.2672347,13.1999834 17.293622,12.1886792 18.5597349,12.1886792 Z M13.2918622,12.1886792 C14.5579751,12.1886792 15.5843624,13.1999834 15.5843624,14.4474902 C15.5843624,15.6949971 14.5579751,16.7063012 13.2918622,16.7063012 C12.0257494,16.7063012 10.9993621,15.6949971 10.9993621,14.4474902 C10.9993621,13.1999834 12.0257494,12.1886792 13.2918622,12.1886792 Z M10.3971131,3.82210243 C9.88856155,3.82210243 9.47247394,4.23207547 9.47247394,4.73315364 C9.47247394,5.23423181 9.88856155,5.64420485 10.3971131,5.64420485 C10.9056646,5.64420485 11.3217522,5.23423181 11.3217522,4.73315364 C11.3217522,4.23207547 10.9056646,3.82210243 10.3971131,3.82210243 Z" id="path-1"></path>
    </defs>
    <g stroke="none" stroke-width="1" fill="none" fill-rule="evenodd">
        <mask id="mask-2" fill="white">
            <use xlink:href="#path-1"></use>
        </mask>
        <use fill="#4285F4" fill-rule="nonzero" xlink:href="#path-1"></use>
    </g>
</svg>