<svg id="fca2105f-c039-4f34-bd65-8ab95d4ecdb9" xmlns="http://www.w3.org/2000/svg" width="18" height="18" viewBox="0 0 18 18"><defs><linearGradient id="a773af38-43e4-4fd2-9485-f8aac63ca91b" x1="5.57" y1="17.5" x2="5.57" y2="0.5" gradientUnits="userSpaceOnUse"><stop offset="0.05" stop-color="#949494" /><stop offset="0.36" stop-color="#979797" /><stop offset="0.54" stop-color="#9f9f9f" /><stop offset="0.69" stop-color="#adadad" /><stop offset="0.73" stop-color="#b3b3b3" /></linearGradient><linearGradient id="b4779ae6-74a5-486d-8aad-cd011859785a" x1="10.56" y1="6.02" x2="10.56" y2="19.71" gradientUnits="userSpaceOnUse"><stop offset="0.18" stop-color="#5ea0ef" /><stop offset="1" stop-color="#0078d4" /></linearGradient></defs><title>Icon-web-46</title><path d="M10.56,16.93a.56.56,0,0,1-.57.57H1.14a.56.56,0,0,1-.56-.57V1.07A.56.56,0,0,1,1.14.5H10a.56.56,0,0,1,.57.57Z" fill="url(#a773af38-43e4-4fd2-9485-f8aac63ca91b)" /><path d="M2,6.46A1.08,1.08,0,0,1,3.13,5.38h5A1.08,1.08,0,0,1,9.18,6.46h0A1.08,1.08,0,0,1,8.1,7.55h-5A1.09,1.09,0,0,1,2,6.46Z" fill="#003067" /><path d="M2,3.24A1.09,1.09,0,0,1,3.13,2.15h5A1.08,1.08,0,0,1,9.18,3.24h0A1.08,1.08,0,0,1,8.1,4.32h-5A1.08,1.08,0,0,1,2,3.24Z" fill="#003067" /><circle cx="3.17" cy="3.24" r="0.73" fill="#50e6ff" /><circle cx="3.17" cy="6.46" r="0.73" fill="#50e6ff" /><path d="M17.42,14.38a3.12,3.12,0,0,0-2.67-3,3.93,3.93,0,0,0-4-3.8,4,4,0,0,0-3.83,2.66A3.7,3.7,0,0,0,3.7,13.83,3.77,3.77,0,0,0,7.56,17.5l.34,0h6.26l.17,0A3.15,3.15,0,0,0,17.42,14.38Z" fill="url(#b4779ae6-74a5-486d-8aad-cd011859785a)" /><rect width="18" height="18" fill="none" /></svg>