<svg id="f6a79126-a7ef-4190-b01b-e34b5ccb7977" xmlns="http://www.w3.org/2000/svg" width="18" height="18" viewBox="0 0 18 18"><defs><linearGradient id="efc95f57-28bf-41de-a09e-d4f8c25449a4" x1="9" y1="13.51" x2="9" y2="0.76" gradientUnits="userSpaceOnUse"><stop offset="0" stop-color="#f78d1e" /><stop offset="0.44" stop-color="#f8911e" /><stop offset="0.85" stop-color="#f99c1d" /><stop offset="1" stop-color="#faa21d" /></linearGradient></defs><title>Icon-web-49</title><rect y="0.76" width="18" height="12.75" rx="0.6" fill="url(#efc95f57-28bf-41de-a09e-d4f8c25449a4)" /><rect x="1.05" y="1.88" width="15.9" height="10.5" rx="0.3" fill="#fff" /><path id="bcc3d4fb-2f67-48ef-b6e7-f3c11ba0061b" d="M14.94,9.34a.29.29,0,0,1-.28.29H8.16a.29.29,0,0,1,0-.58h6.5a.28.28,0,0,1,.28.29" fill="#d15900" /><path id="e696babd-447d-4e2b-bc61-f978fd3ed1bc" d="M14.94,7.54a.29.29,0,0,1-.28.29H8.16a.29.29,0,0,1,0-.58h6.5a.28.28,0,0,1,.28.29" fill="#d15900" /><path id="b5d2bd6a-dd0a-43be-bfa5-16266f75812c" d="M14.94,4.93a.28.28,0,0,1-.28.29H3.77a.29.29,0,1,1,0-.58H14.66a.28.28,0,0,1,.28.29" fill="#d15900" /><path id="aad840c2-43d5-415e-a865-328ca9d53f36" d="M5.13,12.69a2.52,2.52,0,0,1-3.37,0l-.21,4.19a.33.33,0,0,0,.57.25l1.3-1.32,1.31,1.33a.33.33,0,0,0,.57-.24Z" fill="#b31b1b" /><ellipse id="beae3214-3e24-4a7c-af86-a4353a2d1797" cx="3.48" cy="10.54" rx="3.01" ry="3.02" fill="#e62323" /><ellipse id="f1e213df-20de-4eb9-9bf3-0c6690c16a0a" cx="3.48" cy="10.54" rx="2.29" ry="2.29" fill="#ffb34d" /></svg>