<svg id="fd3d8d4a-46e1-4408-ba1e-9135a7e34c49" xmlns="http://www.w3.org/2000/svg" width="18" height="18" viewBox="0 0 18 18"><defs><linearGradient id="b25a6eef-63a1-4028-981f-ae9a6e561a3b" x1="9" y1="3.72" x2="9" y2="15.02" gradientUnits="userSpaceOnUse"><stop offset="0.18" stop-color="#5ea0ef" /><stop offset="1" stop-color="#0078d4" /></linearGradient></defs><title>Icon-web-47</title><path d="M8.57,8.69H1V2.18a1.1,1.1,0,0,1,1.09-1.1H8.57ZM1.94,7.75H7.63V2H2.09a.15.15,0,0,0-.15.15Z" fill="#949494" /><path d="M17,8.69H9.43V1.08h6.48A1.1,1.1,0,0,1,17,2.18Zm-6.63-.94h5.69V2.18A.15.15,0,0,0,15.91,2H10.37Z" fill="#949494" /><path d="M8.57,17.08H2.09A1.09,1.09,0,0,1,1,16V9.48H8.57ZM1.94,10.42V16a.15.15,0,0,0,.15.15H7.63V10.42Z" fill="#949494" /><path d="M15.91,17.08H9.43V9.48H17V16A1.09,1.09,0,0,1,15.91,17.08Zm-5.54-.94h5.54a.15.15,0,0,0,.15-.15V10.42H10.37Z" fill="#949494" /><path d="M14.67,10.62a2.59,2.59,0,0,0-2.21-2.5A3.24,3.24,0,0,0,9.15,5,3.32,3.32,0,0,0,6,7.17a3.08,3.08,0,0,0-2.66,3,3.11,3.11,0,0,0,3.19,3H12l.14,0A2.61,2.61,0,0,0,14.67,10.62Z" fill="url(#b25a6eef-63a1-4028-981f-ae9a6e561a3b)" /></svg>