<svg xmlns="http://www.w3.org/2000/svg" width="24px" height="24px" viewBox="0 0 24 24"><defs><style>.cls-1{fill:#669df6;}.cls-2{fill:#4285f4;}</style></defs><title>Icon_24px_Quotas_Color</title><g data-name="Product Icons"><g data-name="colored-32/quotas"><g ><path class="cls-1" d="M6,2H4V20.58A1.31,1.31,0,0,0,5.29,22H18.73A1.29,1.29,0,0,0,20,20.58V2l-2,.14V20H6Z"/><path id="Path-2" data-name="Path" class="cls-2" d="M12,22h6.73A1.29,1.29,0,0,0,20,20.58V2H18V20H12v2Z"/><rect id="Rectangle-328" class="cls-1" x="7" y="12" width="10" height="7"/><rect id="Rectangle-328-2" data-name="Rectangle-328" class="cls-2" x="12" y="12" width="5" height="7"/></g></g><rect class="cls-1" x="7" y="3" width="1" height="3"/><rect class="cls-2" x="7.5" y="3" width="0.5" height="3"/><rect class="cls-1" x="10" y="3" width="1" height="3"/><rect class="cls-1" x="13" y="3" width="1" height="3"/><rect class="cls-1" x="16" y="3" width="1" height="3"/><rect class="cls-2" x="10.5" y="3" width="0.5" height="3"/><rect class="cls-2" x="13.5" y="3" width="0.5" height="3"/><rect class="cls-2" x="16.5" y="3" width="0.5" height="3"/></g></svg>