<svg id="a5c2c34a-a5f9-4043-a084-e51b74497895" xmlns="http://www.w3.org/2000/svg" width="18" height="18" viewBox="0 0 18 18"><defs><linearGradient id="f97360fa-fd13-420b-9b43-74b8dde83a11" x1="6.7" y1="7.26" x2="6.7" y2="18.36" gradientUnits="userSpaceOnUse"><stop offset="0.22" stop-color="#32d4f5" /><stop offset="1" stop-color="#198ab3" /></linearGradient><linearGradient id="b2ab4071-529d-4450-9443-e6dc0939cc4e" x1="6.42" y1="1.32" x2="7.23" y2="11.39" gradientUnits="userSpaceOnUse"><stop offset="0.22" stop-color="#32d4f5" /><stop offset="1" stop-color="#198ab3" /></linearGradient></defs><title>Icon-identity-223</title><path d="M17.22,13.92a.79.79,0,0,0,.8-.79A.28.28,0,0,0,18,13c-.31-2.5-1.74-4.54-4.46-4.54S9.35,10.22,9.07,13a.81.81,0,0,0,.72.88h7.43Z" fill="#0078d4" /><path d="M13.55,9.09a2.44,2.44,0,0,1-1.36-.4l1.35,3.52,1.33-3.49A2.54,2.54,0,0,1,13.55,9.09Z" fill="#fff" opacity="0.8" /><circle cx="13.55" cy="6.58" r="2.51" fill="#0078d4" /><path d="M12.19,16.36a1.19,1.19,0,0,0,1.19-1.19.66.66,0,0,0,0-.14c-.47-3.74-2.6-6.78-6.66-6.78S.44,10.83,0,15a1.2,1.2,0,0,0,1.07,1.31h11.1Z" fill="url(#f97360fa-fd13-420b-9b43-74b8dde83a11)" /><path d="M6.77,9.14a3.72,3.72,0,0,1-2-.6l2,5.25,2-5.21A3.81,3.81,0,0,1,6.77,9.14Z" fill="#fff" opacity="0.8" /><circle cx="6.74" cy="5.39" r="3.75" fill="url(#b2ab4071-529d-4450-9443-e6dc0939cc4e)" /></svg>