<svg id="ffd65ef0-46f1-4123-aa86-6c2243292f5f" xmlns="http://www.w3.org/2000/svg" width="18" height="18" viewBox="0 0 18 18"><defs><linearGradient id="ae0c4e08-2440-488c-bae1-6509c7a4ef07" x1="13.25" y1="12.83" x2="8.62" y2="4.06" gradientUnits="userSpaceOnUse"><stop offset="0" stop-color="#1988d9" /><stop offset="0.9" stop-color="#54aef0" /></linearGradient></defs><g><polygon points="1.01 10.01 8.93 15.14 16.99 9.99 18 11.16 8.93 17.01 0 11.17 1.01 10.01" fill="#50e6ff" /><polygon points="1.61 9.35 8.93 0.62 16.4 9.36 8.93 14.08 1.61 9.35" fill="#fff" /><polygon points="8.93 0.62 8.93 14.08 1.61 9.35 8.93 0.62" fill="#50e6ff" /><polygon points="8.93 0.62 8.93 14.08 16.4 9.36 8.93 0.62" fill="url(#ae0c4e08-2440-488c-bae1-6509c7a4ef07)" /><polygon points="8.93 7.57 16.4 9.36 8.93 14.08 8.93 7.57" fill="#53b1e0" /><polygon points="8.93 14.08 1.61 9.35 8.93 7.57 8.93 14.08" fill="#9cebff" /><polygon points="8.93 17.01 18 11.16 16.99 9.99 8.93 15.14 8.93 17.01" fill="#5ea0ef" /><path d="M17.45,16a.44.44,0,0,0,.44-.44v0a2.5,2.5,0,0,0-2.45-2.5c-1.53,0-2.32.95-2.47,2.5a.45.45,0,0,0,.39.49h4.09Z" fill="#773adc" /><path d="M15.44,13.38a1.35,1.35,0,0,1-.75-.22l.74,1.93.73-1.92A1.38,1.38,0,0,1,15.44,13.38Z" fill="#fff" opacity="0.8" /><circle cx="15.44" cy="12" r="1.38" fill="#773adc" /><path d="M14.68,17.38a.65.65,0,0,0,.66-.66v-.08c-.26-2.05-1.43-3.73-3.67-3.73S8.22,14.33,8,16.65a.65.65,0,0,0,.58.72h6.11Z" fill="#a67af4" /><path d="M11.7,13.4a2,2,0,0,1-1.11-.33L11.69,16l1.1-2.87A2,2,0,0,1,11.7,13.4Z" fill="#fff" opacity="0.8" /><circle cx="11.69" cy="11.34" r="2.06" fill="#a67af4" /></g></svg>