<svg id="a76a0103-ce03-4d58-859d-4c27e02925d2" xmlns="http://www.w3.org/2000/svg" width="18" height="18" viewBox="0 0 18 18"><defs><linearGradient id="efeb8e96-2af0-4681-9a6a-45f9b0262f19" x1="-6518.78" y1="1118.86" x2="-6518.78" y2="1090.06" gradientTransform="matrix(0.5, 0, 0, -0.5, 3267.42, 559.99)" gradientUnits="userSpaceOnUse"><stop offset="0" stop-color="#5ea0ef" /><stop offset="0.18" stop-color="#589eed" /><stop offset="0.41" stop-color="#4897e9" /><stop offset="0.66" stop-color="#2e8ce1" /><stop offset="0.94" stop-color="#0a7cd7" /><stop offset="1" stop-color="#0078d4" /></linearGradient></defs><title>Icon-identity-232</title><path d="M5.67,10.61H10v4.32H5.67Zm-5-5.76H5V.53H1.23a.6.6,0,0,0-.6.6Zm.6,10.08H5V10.61H.63v3.72A.6.6,0,0,0,1.23,14.93Zm-.6-5H5V5.57H.63Zm10.08,5h3.72a.6.6,0,0,0,.6-.6V10.61H10.71Zm-5-5H10V5.57H5.67Zm5,0H15V5.57H10.71Zm0-9.36V4.85H15V1.13a.6.6,0,0,0-.6-.6Zm-5,4.32H10V.53H5.67Z" fill="url(#efeb8e96-2af0-4681-9a6a-45f9b0262f19)" /><polygon points="17.37 10.7 17.37 15.21 13.5 17.47 13.5 12.96 17.37 10.7" fill="#32bedd" /><polygon points="17.37 10.7 13.5 12.97 9.63 10.7 13.5 8.44 17.37 10.7" fill="#9cebff" /><polygon points="13.5 12.97 13.5 17.47 9.63 15.21 9.63 10.7 13.5 12.97" fill="#50e6ff" /><polygon points="9.63 15.21 13.5 12.96 13.5 17.47 9.63 15.21" fill="#9cebff" /><polygon points="17.37 15.21 13.5 12.96 13.5 17.47 17.37 15.21" fill="#50e6ff" /></svg>