<svg id="e43c77ce-4ab9-446f-aa74-c41429bb9cbb" xmlns="http://www.w3.org/2000/svg" width="18" height="18" viewBox="0 0 18 18"><defs><linearGradient id="b371e9d4-03ce-4242-9f79-d5a269ffcb88" x1="8.21" y1="5.16" x2="12.34" y2="11.42" gradientUnits="userSpaceOnUse"><stop offset="0" stop-color="#f9a11f" /><stop offset="0.02" stop-color="#f89f1f" /><stop offset="0.39" stop-color="#f28721" /><stop offset="0.72" stop-color="#ed7823" /><stop offset="1" stop-color="#ec7323" /></linearGradient><linearGradient id="a1794fd5-e1a9-408f-9605-810ce38ab87a" x1="11.09" y1="11.03" x2="16.27" y2="18.1" href="#b371e9d4-03ce-4242-9f79-d5a269ffcb88" /></defs><title>Icon-identity-231</title><polygon points="1.01 10.19 8.93 15.33 16.99 10.17 18 11.35 8.93 17.19 0 11.35 1.01 10.19" fill="#faa21d" /><polygon points="1.61 9.53 8.93 0.81 16.4 9.54 8.93 14.26 1.61 9.53" fill="#fff" /><polygon points="8.93 0.81 8.93 14.26 1.61 9.53 8.93 0.81" fill="#f78d1e" /><polygon points="8.93 0.81 8.93 14.26 16.4 9.54 8.93 0.81" fill="url(#b371e9d4-03ce-4242-9f79-d5a269ffcb88)" /><polygon points="8.93 7.76 16.4 9.54 8.93 14.26 8.93 7.76" fill="#f78d1e" /><polygon points="8.93 14.26 1.61 9.53 8.93 7.76 8.93 14.26" fill="#faa21d" /><polygon points="8.93 17.19 18 11.35 16.99 10.17 8.93 15.33 8.93 17.19" fill="url(#a1794fd5-e1a9-408f-9605-810ce38ab87a)" /></svg>