<svg version="1.1" baseProfile="tiny" id="Layer_1" xmlns="http://www.w3.org/2000/svg" xmlns:xlink="http://www.w3.org/1999/xlink"
	 x="0px" y="0px" width="24px" height="24px" viewBox="0 0 24 24" overflow="visible" xml:space="preserve">
<g >
	<rect y="0" fill="none" width="24" height="24"/>
	<g transform="translate(3.000000, 4.000000)">
		<path fill="#3367D6" d="M9.9,13.6c0.3,1.2,1.4,2.1,2.7,2.1c1.6,0,2.8-1.3,2.8-2.8s-1.3-2.8-2.8-2.8
			c-1.3,0-2.4,0.9-2.7,2.1H2.6v1.5H9.9z M18.8,17.8H-0.8V7.2h5.2L6,8.8h3h3l1.5-1.5h5.2V17.8z M4.9,13.6H3.4v1.5h1.5V13.6z
			 M7.1,13.6H5.6v1.5h1.5V13.6z M11.2,12.9c0,0.8,0.6,1.4,1.4,1.4s1.4-0.6,1.4-1.4s-0.6-1.4-1.4-1.4S11.2,12.1,11.2,12.9z"/>
		<polygon fill="#5C85DE" points="8.2,8 6.4,8 5.1,6.5 0.8,6.5 0.8,3.5 8.2,3.5 		"/>
		<polygon id="Shape-Copy-2" fill="#85A4E6" points="12.8,6.8 11.5,8 9,8 9,2.8 3,2.8 3,1.2 12.8,1.2 		"/>
		<polygon id="Shape-Copy-3" fill="#85A4E6" points="17.2,6.5 13.5,6.5 13.5,0.5 6.8,0.5 6.8,-1 17.2,-1 		"/>
	</g>
</g>
</svg>
