<svg xmlns="http://www.w3.org/2000/svg" width="24px" height="24px" viewBox="0 0 24 24"><defs><style>.cls-1{fill:#4285f4;}.cls-2{fill:#669df6;}</style></defs><title>Icon_24px_SecKeyEnforcer_Color</title><g data-name="Product Icons"><path class="cls-1" d="M7.78,16.6V12.85c0-.15-.29-.34-.49-.43a5.46,5.46,0,1,1,7.44-6.83A5.4,5.4,0,0,1,12,12.38a.82.82,0,0,0-.54.9V22H7.78V20.25H4.17V16.6Zm3.64-9.11a1.82,1.82,0,1,0-3.64-.06,1.83,1.83,0,0,0,1.8,1.85h0a1.84,1.84,0,0,0,1.83-1.79Z"/><path class="cls-2" d="M19.52,5.59A5.44,5.44,0,0,0,13.2,2.15a5.44,5.44,0,0,1,1.13,10.23.84.84,0,0,0-.55.9V22h2.43V13.29a.83.83,0,0,1,.55-.9A5.4,5.4,0,0,0,19.52,5.59Z"/></g></svg>