<?xml version="1.0" encoding="UTF-8"?>
<svg width="64px" height="64px" viewBox="0 0 64 64" version="1.1" xmlns="http://www.w3.org/2000/svg" xmlns:xlink="http://www.w3.org/1999/xlink">
    <!-- Generator: Sketch 64 (93537) - https://sketch.com -->
    <title>Icon-Architecture/48/Arch_AWS-Simple-Notification-Service_48</title>
    <desc>Created with Sketch.</desc>
    <defs>
        <linearGradient x1="0%" y1="100%" x2="100%" y2="0%" id="linearGradient-1">
            <stop stop-color="#B0084D" offset="0%"></stop>
            <stop stop-color="#FF4F8B" offset="100%"></stop>
        </linearGradient>
    </defs>
    <g id="Icon-Architecture/48/Arch_AWS-Simple-Notification-Service_48" stroke="none" stroke-width="1" fill="none" fill-rule="evenodd">
        <g id="Icon-Architecture-BG/48/Application-Integration" fill="url(#linearGradient-1)">
            <rect id="Rectangle" x="0" y="0" width="64" height="64"></rect>
        </g>
        <path d="M14,31 C14.552,31 15,31.449 15,32 C15,32.551 14.552,33 14,33 C13.448,33 13,32.551 13,32 C13,31.449 13.448,31 14,31 L14,31 Z M33.396,51 C24.508,51 16.822,44.081 15.152,34.768 C15.93,34.443 16.531,33.797 16.815,33 L22,33 L22,31 L16.815,31 C16.532,30.204 15.932,29.558 15.155,29.232 C16.776,20.49 24.451,14 33.396,14 C37.587,14 40.588,14.844 43.429,16.821 L44.571,15.179 C41.411,12.98 37.965,12 33.396,12 C23.394,12 14.826,19.322 13.141,29.14 C11.907,29.512 11,30.646 11,32 C11,33.353 11.906,34.486 13.139,34.859 C14.88,45.248 23.456,53 33.396,53 C37.628,53 41.729,51.591 45.585,48.811 L44.415,47.189 C40.907,49.718 37.199,51 33.396,51 L33.396,51 Z M25.062,29.459 C26.457,29.837 28.091,30 29.434,30 C30.716,30 32.26,29.855 33.618,29.526 L30.105,36.553 C30.036,36.691 30,36.845 30,37 L30,40.501 C29.875,40.602 29.741,40.714 29.601,40.832 C29.207,41.162 28.432,41.813 28,41.974 L28,37 C28,36.873 27.976,36.747 27.929,36.628 L25.062,29.459 Z M29.434,26 C32.033,26 34.015,26.566 34.769,27 C34.015,27.434 32.033,28 29.434,28 C26.739,28 24.901,27.399 24.218,27 C24.901,26.601 26.739,26 29.434,26 L29.434,26 Z M27,44 L28,44 C28.043,44 28.086,43.997 28.128,43.992 C29.094,43.867 30.046,43.068 30.886,42.364 C31.145,42.147 31.372,41.952 31.546,41.838 C31.829,41.653 32,41.338 32,41 L32,37.236 L36.592,28.053 C36.85,27.745 37,27.396 37,27 C37,24.799 32.475,24 29.434,24 C26.445,24 22,24.799 22,27 C22,27.317 22.101,27.601 22.268,27.862 L26,37.192 L26,43 C26,43.552 26.447,44 27,44 L27,44 Z M49,43 C49.552,43 50,43.449 50,44 C50,44.551 49.552,45 49,45 C48.448,45 48,44.551 48,44 C48,43.449 48.448,43 49,43 L49,43 Z M49,19 C49.552,19 50,19.449 50,20 C50,20.551 49.552,21 49,21 C48.448,21 48,20.551 48,20 C48,19.449 48.448,19 49,19 L49,19 Z M51,31 C51.552,31 52,31.449 52,32 C52,32.551 51.552,33 51,33 C50.448,33 50,32.551 50,32 C50,31.449 50.448,31 51,31 L51,31 Z M44,33 L48.185,33 C48.599,34.162 49.698,35 51,35 C52.654,35 54,33.654 54,32 C54,30.346 52.654,29 51,29 C49.698,29 48.599,29.838 48.185,31 L44,31 L44,21 L46.185,21 C46.599,22.162 47.698,23 49,23 C50.654,23 52,21.654 52,20 C52,18.346 50.654,17 49,17 C47.698,17 46.599,17.838 46.185,19 L43,19 C42.447,19 42,19.448 42,20 L42,31 L37,31 L37,33 L42,33 L42,44 C42,44.552 42.447,45 43,45 L46.185,45 C46.599,46.162 47.698,47 49,47 C50.654,47 52,45.654 52,44 C52,42.346 50.654,41 49,41 C47.698,41 46.599,41.838 46.185,43 L44,43 L44,33 Z" id="AWS-Simple-Notification-Service_Icon_48_Squid" fill="#FFFFFF"></path>
    </g>
</svg>