<?xml version="1.0" encoding="UTF-8"?>
<svg width="64px" height="64px" viewBox="0 0 64 64" version="1.1" xmlns="http://www.w3.org/2000/svg" xmlns:xlink="http://www.w3.org/1999/xlink">
    <!-- Generator: Sketch 64 (93537) - https://sketch.com -->
    <title>Icon-Architecture/48/Arch_Amazon-MQ_48</title>
    <desc>Created with Sketch.</desc>
    <defs>
        <linearGradient x1="0%" y1="100%" x2="100%" y2="0%" id="linearGradient-1">
            <stop stop-color="#B0084D" offset="0%"></stop>
            <stop stop-color="#FF4F8B" offset="100%"></stop>
        </linearGradient>
    </defs>
    <g id="Icon-Architecture/48/Arch_Amazon-MQ_48" stroke="none" stroke-width="1" fill="none" fill-rule="evenodd">
        <g id="Icon-Architecture-BG/48/Application-Integration" fill="url(#linearGradient-1)">
            <rect id="Rectangle" x="0" y="0" width="64" height="64"></rect>
        </g>
        <path d="M15.078,41.5833759 C14.463,40.5396246 13.947,39.4312602 13.544,38.2900922 L15.431,37.6310379 C15.792,38.65292 16.254,39.6439867 16.805,40.5783925 L15.078,41.5833759 Z M15.114,27.3555556 L13.19,26.813799 C13.62,25.305827 14.238,23.8525277 15.029,22.493663 L16.76,23.4887058 C16.053,24.7054215 15.499,26.0056374 15.114,27.3555556 L15.114,27.3555556 Z M24.586,16.4637631 L23.767,14.6506181 C28.696,12.4507881 34.476,12.4488 39.409,14.6506181 L38.591,16.4637631 C34.176,14.4945524 28.997,14.4955465 24.586,16.4637631 L24.586,16.4637631 Z M46.417,23.4887058 L48.147,22.493663 C48.939,23.8535217 49.557,25.3068211 49.985,26.813799 L48.061,27.3545616 C47.678,26.0066314 47.125,24.7054215 46.417,23.4887058 L46.417,23.4887058 Z M47.745,37.6310379 L49.632,38.2900922 C49.241,39.3974626 48.741,40.4769996 48.148,41.4988817 L46.416,40.5038389 C46.948,39.589314 47.394,38.6230986 47.745,37.6310379 L47.745,37.6310379 Z M38.591,47.5277876 L39.409,49.3419266 C36.943,50.4423386 34.311,51 31.588,51 C28.863,51 26.232,50.4423386 23.767,49.3419266 L24.586,47.5277876 C28.998,49.4960042 34.177,49.4969982 38.591,47.5277876 L38.591,47.5277876 Z M19.5,47.9005559 C18.121,47.9005559 17,46.7862272 17,45.4154339 C17,44.0456347 18.121,42.930312 19.5,42.930312 C20.879,42.930312 22,44.0456347 22,45.4154339 C22,46.7862272 20.879,47.9005559 19.5,47.9005559 L19.5,47.9005559 Z M19.5,40.9422144 C17.018,40.9422144 15,42.9491989 15,45.4154339 C15,47.882663 17.018,49.8886535 19.5,49.8886535 C21.981,49.8886535 24,47.882663 24,45.4154339 C24,42.9491989 21.981,40.9422144 19.5,40.9422144 L19.5,40.9422144 Z M43.5,47.9005559 C42.121,47.9005559 41,46.7862272 41,45.4154339 C41,44.0456347 42.121,42.930312 43.5,42.930312 C44.879,42.930312 46,44.0456347 46,45.4154339 C46,46.7862272 44.879,47.9005559 43.5,47.9005559 L43.5,47.9005559 Z M43.5,40.9422144 C41.018,40.9422144 39,42.9491989 39,45.4154339 C39,47.882663 41.018,49.8886535 43.5,49.8886535 C45.981,49.8886535 48,47.882663 48,45.4154339 C48,42.9491989 45.981,40.9422144 43.5,40.9422144 L43.5,40.9422144 Z M12,32.4927997 C12,31.1230005 13.121,30.0076778 14.5,30.0076778 C15.879,30.0076778 17,31.1230005 17,32.4927997 C17,33.863593 15.879,34.9779217 14.5,34.9779217 C13.121,34.9779217 12,33.863593 12,32.4927997 L12,32.4927997 Z M18.949,32.9898241 L22.136,32.9898241 L21.169,34.4252306 L22.831,35.5316069 L24.831,32.5633772 C25.056,32.2293768 25.057,31.7939834 24.833,31.459983 L22.833,28.4649141 L21.167,29.563338 L22.127,31.0017266 L18.724,31.0017266 C18.102,29.2700936 16.453,28.0195802 14.5,28.0195802 C12.018,28.0195802 10,30.0265647 10,32.4927997 C10,34.9600288 12.018,36.9660193 14.5,36.9660193 C16.81,36.9660193 18.697,35.2204696 18.949,32.9898241 L18.949,32.9898241 Z M49.5,34.9779217 C48.121,34.9779217 47,33.863593 47,32.4927997 C47,31.1230005 48.121,30.0076778 49.5,30.0076778 C50.879,30.0076778 52,31.1230005 52,32.4927997 C52,33.863593 50.879,34.9779217 49.5,34.9779217 L49.5,34.9779217 Z M49.5,28.0195802 C47.018,28.0195802 45,30.0265647 45,32.4927997 C45,34.9600288 47.018,36.9660193 49.5,36.9660193 C51.981,36.9660193 54,34.9600288 54,32.4927997 C54,30.0265647 51.981,28.0195802 49.5,28.0195802 L49.5,28.0195802 Z M19.5,16.0909948 C20.879,16.0909948 22,17.2063175 22,18.5761167 C22,19.94691 20.879,21.0612387 19.5,21.0612387 C18.121,21.0612387 17,19.94691 17,18.5761167 C17,17.2063175 18.121,16.0909948 19.5,16.0909948 L19.5,16.0909948 Z M19.5,23.0493363 C21.981,23.0493363 24,21.0433458 24,18.5761167 C24,16.1098817 21.981,14.1028972 19.5,14.1028972 C17.018,14.1028972 15,16.1098817 15,18.5761167 C15,21.0433458 17.018,23.0493363 19.5,23.0493363 L19.5,23.0493363 Z M43.5,16.0909948 C44.879,16.0909948 46,17.2063175 46,18.5761167 C46,19.94691 44.879,21.0612387 43.5,21.0612387 C42.121,21.0612387 41,19.94691 41,18.5761167 C41,17.2063175 42.121,16.0909948 43.5,16.0909948 L43.5,16.0909948 Z M43.5,23.0493363 C45.981,23.0493363 48,21.0433458 48,18.5761167 C48,16.1098817 45.981,14.1028972 43.5,14.1028972 C41.018,14.1028972 39,16.1098817 39,18.5761167 C39,21.0433458 41.018,23.0493363 43.5,23.0493363 L43.5,23.0493363 Z M40.168,34.4272187 L41.131,32.9908182 L39,32.9908182 L39,31.0027206 L41.132,31.0027206 L40.168,29.5653261 L41.832,28.462926 L43.832,31.4440783 C44.056,31.7780787 44.056,32.212478 43.832,32.5464784 L41.832,35.5296188 L40.168,34.4272187 Z M36.191,36.1757505 C34.881,35.737375 33.441,35.5176902 32.002,35.5176902 C30.562,35.5176902 29.123,35.737375 27.812,36.1757505 C28.248,34.9093323 28.48,33.4898307 28.48,31.9957753 C28.48,30.5037081 28.248,29.0832124 27.812,27.8167942 C30.433,28.6945393 33.57,28.6945393 36.191,27.8167942 C35.756,29.0832124 35.523,30.5037081 35.523,31.9957753 C35.523,33.4898307 35.756,34.9093323 36.191,36.1757505 L36.191,36.1757505 Z M39.716,25.734262 C39.911,25.5404225 40.009,25.285946 40.009,25.0314695 C40.009,24.7769931 39.911,24.5225166 39.716,24.3286771 C39.325,23.940004 38.692,23.940004 38.302,24.3286771 C35.358,27.2541626 28.645,27.2541626 25.702,24.3286771 C25.311,23.940004 24.679,23.940004 24.288,24.3286771 C24.093,24.5225166 23.995,24.7769931 23.995,25.0314695 C23.995,25.285946 24.093,25.5404225 24.288,25.734262 C25.661,27.099091 26.48,29.4400759 26.48,31.9957753 C26.48,34.5524688 25.661,36.8934537 24.288,38.2582827 C24.093,38.4531162 23.995,38.7065987 23.995,38.9610752 C23.995,39.2155517 24.093,39.4700281 24.288,39.6638677 C24.679,40.0525407 25.311,40.0525407 25.702,39.6638677 C28.645,36.7383821 35.358,36.7383821 38.302,39.6638677 C38.497,39.8587012 38.753,39.955124 39.009,39.955124 C39.265,39.955124 39.52,39.8587012 39.716,39.6638677 C39.911,39.4700281 40.009,39.2155517 40.009,38.9610752 C40.009,38.7065987 39.911,38.4531162 39.716,38.2582827 C38.343,36.8934537 37.523,34.5524688 37.523,31.9957753 C37.523,29.4400759 38.343,27.099091 39.716,25.734262 L39.716,25.734262 Z" id="Amazon-MQ-Icon_48_Squid" fill="#FFFFFF"></path>
    </g>
</svg>