<?xml version="1.0" encoding="UTF-8"?>
<svg width="64px" height="64px" viewBox="0 0 64 64" version="1.1" xmlns="http://www.w3.org/2000/svg" xmlns:xlink="http://www.w3.org/1999/xlink">
    <title>Icon-Architecture/48/Arch_ Amazon-API-Gateway_48</title>
    <defs>
        <linearGradient x1="0%" y1="100%" x2="100%" y2="0%" id="linearGradient-1">
            <stop stop-color="#B0084D" offset="0%"></stop>
            <stop stop-color="#FF4F8B" offset="100%"></stop>
        </linearGradient>
    </defs>
    <g id="Icon-Architecture/48/Arch_-Amazon-API-Gateway_48" stroke="none" stroke-width="1" fill="none" fill-rule="evenodd">
        <g id="Rectangle" fill="url(#linearGradient-1)">
            <rect x="0" y="0" width="64" height="64"></rect>
        </g>
        <g id="Icon-Service/48/Amazon-API-Gateway_48" transform="translate(8.000000, 8.000000)" fill="#FFFFFF">
            <path d="M20,35.9999441 L23,35.9999441 L23,33.999933 L20,33.999933 L20,35.9999441 Z M25,35.9999441 L28,35.9999441 L28,33.999933 L25,33.999933 L25,35.9999441 Z M20,13.9998212 L23,13.9998212 L23,11.9998101 L20,11.9998101 L20,13.9998212 Z M25,13.9998212 L28,13.9998212 L28,11.9998101 L25,11.9998101 L25,13.9998212 Z M14,4.7407695 L4,10.5738021 L4,38.3819574 L14,43.3819854 L14,4.7407695 Z M16,11.9998101 L18,11.9998101 L18,13.9998212 L16,13.9998212 L16,33.999933 L18,33.999933 L18,35.9999441 L16,35.9999441 L16,45 C16,45.3469964 15.82,45.6679981 15.525,45.8509992 C15.365,45.9499997 15.183,46 15,46 C14.847,46 14.694,45.9649998 14.553,45.8949994 L2.553,39.8949659 C2.214,39.7249649 2,39.378963 2,38.9999609 L2,9.99979888 C2,9.6447969 2.188,9.31479505 2.496,9.13579405 L14.496,2.13575495 C14.805,1.95575394 15.188,1.95475394 15.498,2.13275493 C15.809,2.31075593 16,2.64175778 16,2.99975978 L16,11.9998101 Z M44,10.5738021 L34,4.7407695 L34,43.3819854 L44,38.3819574 L44,10.5738021 Z M46,9.99979888 L46,38.9999609 C46,39.378963 45.786,39.7249649 45.447,39.8949659 L33.447,45.8949994 C33.306,45.9649998 33.153,46 33,46 C32.817,46 32.635,45.9499997 32.475,45.8509992 C32.18,45.6679981 32,45.3469964 32,44.9999944 L32,35.9999441 L30,35.9999441 L30,33.999933 L32,33.999933 L32,13.9998212 L30,13.9998212 L30,11.9998101 L32,11.9998101 L32,2.99975978 C32,2.64175778 32.191,2.31075593 32.502,2.13275493 C32.812,1.95575394 33.195,1.95575394 33.504,2.13575495 L45.504,9.13579405 C45.812,9.31479505 46,9.6447969 46,9.99979888 L46,9.99979888 Z M26.939,19.3418511 L25.061,18.6578473 L21.061,29.6579087 L22.939,30.3419125 L26.939,19.3418511 Z M31.707,24.706881 C32.098,24.3158789 32.098,23.6838753 31.707,23.2928731 L28.707,20.2928564 L27.293,21.7068643 L29.586,23.9998771 L27.293,26.2928899 L28.707,27.7068978 L31.707,24.706881 Z M19.293,27.7068978 L16.293,24.706881 C15.902,24.3158789 15.902,23.6838753 16.293,23.2928731 L19.293,20.2928564 L20.707,21.7068643 L18.414,23.9998771 L20.707,26.2928899 L19.293,27.7068978 Z" id="Amazon-API-Gateway_Icon_48_Squid"></path>
        </g>
    </g>
</svg>