<?xml version="1.0" encoding="UTF-8"?>
<svg width="64px" height="64px" viewBox="0 0 64 64" version="1.1" xmlns="http://www.w3.org/2000/svg" xmlns:xlink="http://www.w3.org/1999/xlink">
    <!-- Generator: Sketch 64 (93537) - https://sketch.com -->
    <title>Icon-Architecture/48/Arch_AWS-Simple-Queue-Service_48</title>
    <desc>Created with Sketch.</desc>
    <defs>
        <linearGradient x1="0%" y1="100%" x2="100%" y2="0%" id="linearGradient-1">
            <stop stop-color="#B0084D" offset="0%"></stop>
            <stop stop-color="#FF4F8B" offset="100%"></stop>
        </linearGradient>
    </defs>
    <g id="Icon-Architecture/48/Arch_AWS-Simple-Queue-Service_48" stroke="none" stroke-width="1" fill="none" fill-rule="evenodd">
        <g id="Icon-Architecture-BG/48/Application-Integration" fill="url(#linearGradient-1)">
            <rect id="Rectangle" x="0" y="0" width="64" height="64"></rect>
        </g>
        <path d="M23.8465384,35.5138695 L25.8460385,32.5644909 C26.0709823,32.2326117 26.071982,31.7999835 25.848038,31.4681044 L23.8485379,28.492057 L22.1829543,29.5835048 L23.1427143,31.0127583 L20.0164959,31.0127583 L20.0164959,32.9882295 L23.1517121,32.9882295 L22.1849538,34.4145197 L23.8465384,35.5138695 Z M41.8430392,35.511894 L43.8425394,32.5476994 C44.0664834,32.2158202 44.0664834,31.7841798 43.8425394,31.4523006 L41.8430392,28.4900815 L40.1794551,29.5854803 L41.1432142,31.013746 L38.011997,31.013746 L38.011997,32.9892172 L41.1422144,32.9892172 L40.1794551,34.4164952 L41.8430392,35.511894 Z M28.4943764,32.0004939 C28.4943764,33.4850605 28.2624344,34.895547 27.8265434,36.1539221 C29.1372157,35.7183307 30.575856,35.5000412 32.0154961,35.5000412 C33.4541365,35.5000412 34.8937766,35.7183307 36.2034491,36.1539221 C35.7685579,34.895547 35.5356161,33.4850605 35.5356161,32.0004939 C35.5356161,30.516915 35.7685579,29.1064285 36.2034491,27.8480533 C33.5831042,28.7202239 30.447888,28.7202239 27.8265434,27.8480533 C28.2624344,29.1064285 28.4943764,30.516915 28.4943764,32.0004939 L28.4943764,32.0004939 Z M24.3034241,39.6198864 C24.1084729,39.427278 24.0104974,39.1744176 24.0104974,38.9215573 C24.0104974,38.668697 24.1084729,38.4158367 24.3034241,38.2232282 C25.676081,36.8670672 26.4948763,34.5409499 26.4948763,32.0004939 C26.4948763,29.4610256 25.676081,27.1349082 24.3034241,25.7787472 C24.1084729,25.5861388 24.0104974,25.3332785 24.0104974,25.0804181 C24.0104974,24.8275578 24.1084729,24.5746975 24.3034241,24.3820891 C24.6943264,23.9958844 25.3261685,23.9958844 25.7170707,24.3820891 C28.6593352,27.288995 35.3706573,27.288995 38.3139215,24.3820891 C38.703824,23.9958844 39.3366658,23.9958844 39.7275681,24.3820891 C39.9225194,24.5746975 40.0204949,24.8275578 40.0204949,25.0804181 C40.0204949,25.3332785 39.9225194,25.5861388 39.7275681,25.7787472 C38.3549113,27.1349082 37.5351162,29.4610256 37.5351162,32.0004939 C37.5351162,34.5409499 38.3549113,36.8670672 39.7275681,38.2232282 C39.9225194,38.4158367 40.0204949,38.668697 40.0204949,38.9215573 C40.0204949,39.1744176 39.9225194,39.427278 39.7275681,39.6198864 C39.5316171,39.8134826 39.2766808,39.9092929 39.0207448,39.9092929 C38.7648088,39.9092929 38.5088728,39.8134826 38.3139215,39.6198864 C35.3706573,36.7129805 28.6593352,36.7129805 25.7170707,39.6198864 C25.3261685,40.006091 24.6943264,40.006091 24.3034241,39.6198864 L24.3034241,39.6198864 Z M51.2726818,30.2630669 C50.8017996,29.7968557 50.1749563,29.5410322 49.5091227,29.5410322 C48.8432892,29.5410322 48.2164459,29.7968557 47.7455636,30.2630669 C47.2746813,30.7282904 47.0147463,31.3466129 47.0147463,32.0044448 C47.0147463,32.6632645 47.2746813,33.281587 47.7455636,33.7468104 C48.7183204,34.7078772 50.299925,34.7078772 51.2726818,33.7468104 C52.2444389,32.7867314 52.2444389,31.2231459 51.2726818,30.2630669 L51.2726818,30.2630669 Z M52.6863284,35.1434686 C51.8105474,36.008725 50.6588353,36.4423409 49.5091227,36.4423409 C48.3594101,36.4423409 47.2076981,36.008725 46.331917,35.1434686 C45.4831292,34.3058688 45.0152462,33.1907153 45.0152462,32.0044448 C45.0152462,30.8191621 45.4831292,29.7040086 46.331917,28.865421 C47.1807048,28.0268335 48.3094226,27.565561 49.5091227,27.565561 C50.7088228,27.565561 51.8375406,28.0268335 52.6863284,28.8664088 C54.4378905,30.5959338 54.4378905,33.4129558 52.6863284,35.1434686 L52.6863284,35.1434686 Z M16.2544364,30.2798584 C15.7845539,29.8146349 15.1577106,29.5588114 14.491877,29.5588114 C13.8250437,29.5588114 13.1992002,29.8146349 12.7273182,30.2798584 C11.7555611,31.2409252 11.7555611,32.8035229 12.7273182,33.7645897 C13.6690827,34.6940489 15.3126718,34.6950366 16.2544364,33.7645897 C17.2261935,32.8035229 17.2261935,31.2409252 16.2544364,30.2798584 L16.2544364,30.2798584 Z M17.668083,35.1612478 C16.8202949,35.9998354 15.6915771,36.4611079 14.491877,36.4611079 C13.2901775,36.4611079 12.1624594,35.9998354 11.3136716,35.1612478 C9.56210947,33.430735 9.56210947,30.6147008 11.3136716,28.8832003 C12.1624594,28.0446127 13.2901775,27.5833402 14.491877,27.5833402 C15.6915771,27.5833402 16.8202949,28.0446127 17.668083,28.8832003 C19.4196451,30.6147008 19.4196451,33.430735 17.668083,35.1612478 L17.668083,35.1612478 Z M43.4306423,43.3357478 C37.1022244,49.589102 26.8037991,49.589102 20.4753812,43.3357478 C18.8407898,41.7217878 17.824044,40.0614042 16.9622594,37.603918 L15.0727318,38.2508848 C16.0404899,41.0125936 17.1972007,42.8912668 19.0617346,44.732406 C22.615846,48.2447938 27.2836791,50 31.9525119,50 C36.6213447,50 41.2901775,48.2447938 44.8442889,44.732406 C46.8327918,42.7677998 48.0634841,40.8278871 48.9552612,38.2469339 L47.0637341,37.607869 C46.275931,39.8855873 45.1902024,41.5983208 43.4306423,43.3357478 L43.4306423,43.3357478 Z M16.9612597,26.3990452 L15.0737316,25.7501029 C16.0334916,23.0219771 17.2271932,21.0830521 19.0667333,19.2656186 C26.171957,12.2447938 37.7340665,12.2447938 44.8392902,19.2656186 C46.7818045,21.1847889 48.0504874,23.1849535 48.9532617,25.7501029 L47.0657336,26.3990452 C46.255936,24.0986089 45.1672082,22.3829122 43.4256436,20.6622767 C37.0992252,14.4128735 26.8067983,14.4128735 20.4803799,20.6622767 C18.8467883,22.2762367 17.8270432,23.9385958 16.9612597,26.3990452 L16.9612597,26.3990452 Z" id="AWS-Simple-Queue-Service_Icon_48_Squid" fill="#FFFFFF"></path>
    </g>
</svg>