<?xml version="1.0" encoding="UTF-8"?>
<svg width="64px" height="64px" viewBox="0 0 64 64" version="1.1" xmlns="http://www.w3.org/2000/svg" xmlns:xlink="http://www.w3.org/1999/xlink">
    <!-- Generator: Sketch 64 (93537) - https://sketch.com -->
    <title>Icon-Architecture/48/Arch_Amazon-EventBridge_48</title>
    <desc>Created with Sketch.</desc>
    <defs>
        <linearGradient x1="0%" y1="100%" x2="100%" y2="0%" id="linearGradient-1">
            <stop stop-color="#B0084D" offset="0%"></stop>
            <stop stop-color="#FF4F8B" offset="100%"></stop>
        </linearGradient>
    </defs>
    <g id="Icon-Architecture/48/Arch_Amazon-EventBridge_48" stroke="none" stroke-width="1" fill="none" fill-rule="evenodd">
        <g id="Icon-Architecture-BG/48/Application-Integration" fill="url(#linearGradient-1)">
            <rect id="Rectangle" x="0" y="0" width="64" height="64"></rect>
        </g>
        <path d="M43.2617752,52 C41.6961147,52 40.4226302,50.736 40.4226302,49.182 C40.4226302,47.628 41.6961147,46.364 43.2617752,46.364 C44.8274357,46.364 46.1009202,47.628 46.1009202,49.182 C46.1009202,50.736 44.8274357,52 43.2617752,52 L43.2617752,52 Z M36.5437415,39 L28.4000902,39 L24.3277608,32 L28.4000902,25 L36.5437415,25 L40.6160709,32 L36.5437415,39 Z M22.7459802,17.636 C21.1803197,17.636 19.9058277,16.372 19.9058277,14.818 C19.9058277,13.264 21.1803197,12 22.7459802,12 C24.3106333,12 25.5851253,13.264 25.5851253,14.818 C25.5851253,16.372 24.3106333,17.636 22.7459802,17.636 L22.7459802,17.636 Z M43.2617752,44.364 C42.7197383,44.364 42.206919,44.473 41.7192872,44.636 L38.6161763,39.438 L42.6522355,32.5 C42.8315712,32.19 42.8315712,31.81 42.6522355,31.5 L37.9975691,23.5 C37.8182335,23.19 37.4857573,23 37.125071,23 L28.8010766,23 L26.0243968,18.349 C26.9865627,17.468 27.6001324,16.217 27.6001324,14.818 C27.6001324,12.162 25.4229172,10 22.7459802,10 C20.0680358,10 17.8908206,12.162 17.8908206,14.818 C17.8908206,17.475 20.0680358,19.636 22.7459802,19.636 C23.2880172,19.636 23.8008365,19.527 24.2884682,19.364 L26.8535722,23.659 L22.2926036,31.5 C22.1122605,31.81 22.1122605,32.19 22.2926036,32.5 L26.9462626,40.5 C27.1255982,40.81 27.4580744,41 27.8187607,41 L37.125071,41 C37.1512661,41 37.1754462,40.992 37.1996263,40.99 L39.9833586,45.651 C39.0211927,46.532 38.4076231,47.783 38.4076231,49.182 C38.4076231,51.838 40.5848382,54 43.2617752,54 C45.9387122,54 48.1159273,51.838 48.1159273,49.182 C48.1159273,46.525 45.9387122,44.364 43.2617752,44.364 L43.2617752,44.364 Z M47.9335692,25.636 C46.3679087,25.636 45.0934167,24.372 45.0934167,22.818 C45.0934167,21.264 46.3679087,20 47.9335692,20 C49.4982222,20 50.7727142,21.264 50.7727142,22.818 C50.7727142,24.372 49.4982222,25.636 47.9335692,25.636 L47.9335692,25.636 Z M50.9792525,26.539 C52.0734013,25.655 52.7877213,24.325 52.7877213,22.818 C52.7877213,20.162 50.6105062,18 47.9335692,18 C47.2958194,18 46.6903098,18.13 46.1331603,18.353 L43.4048407,14.432 C43.21543,14.162 42.9051189,14 42.5746578,14 L33.5071257,14 L33.5071257,16 L42.0467259,16 L44.4576819,19.466 C43.6083564,20.334 43.0784096,21.515 43.0784096,22.818 C43.0784096,25.475 45.2556247,27.636 47.9335692,27.636 C48.3678032,27.636 48.7818872,27.561 49.1838811,27.454 L51.8295855,32 L47.9809219,38.616 L49.725918,39.616 L53.8647426,32.5 C54.0450858,32.19 54.0450858,31.81 53.8647426,31.5 L50.9792525,26.539 Z M17.7084624,43.636 C16.1428019,43.636 14.8683099,42.372 14.8683099,40.818 C14.8683099,39.264 16.1428019,38 17.7084624,38 C19.2731155,38 20.5476075,39.264 20.5476075,40.818 C20.5476075,42.372 19.2731155,43.636 17.7084624,43.636 L17.7084624,43.636 Z M20.6221627,44.647 C21.7928819,43.767 22.5626146,42.386 22.5626146,40.818 C22.5626146,38.162 20.3853994,36 17.7084624,36 C17.00724,36 16.3443026,36.155 15.742823,36.421 L13.1706664,32 L17.6429747,24.311 L15.8979785,23.311 L11.1345017,31.5 C10.9551661,31.81 10.9551661,32.19 11.1345017,32.5 L14.1086522,37.614 C13.337912,38.468 12.8533028,39.583 12.8533028,40.818 C12.8533028,43.475 15.030518,45.636 17.7084624,45.636 C18.0762012,45.636 18.4308425,45.588 18.7744012,45.511 L21.5954112,49.568 C21.7838143,49.838 22.0931179,50 22.4245866,50 L31.4921186,50 L31.4921186,48 L22.9545335,48 L20.6221627,44.647 Z" id="AWS-EventBridge_Icon_48_Squid" fill="#FFFFFF"></path>
    </g>
</svg>