<?xml version="1.0" encoding="UTF-8"?>
<svg width="64px" height="64px" viewBox="0 0 64 64" version="1.1" xmlns="http://www.w3.org/2000/svg" xmlns:xlink="http://www.w3.org/1999/xlink">
    <title>Icon-Architecture/48/Arch_CN-Pinwheel_48</title>
    <defs>
        <linearGradient x1="0%" y1="100%" x2="100%" y2="0%" id="linearGradient-1">
            <stop stop-color="#B0084D" offset="0%"></stop>
            <stop stop-color="#FF4F8B" offset="100%"></stop>
        </linearGradient>
    </defs>
    <g id="Icon-Architecture/48/Arch_CN-Pinwheel_48" stroke="none" stroke-width="1" fill="none" fill-rule="evenodd">
        <g id="Rectangle" fill="url(#linearGradient-1)">
            <rect x="0" y="0" width="64" height="64"></rect>
        </g>
        <g id="Icon-Service/48/CN-Pinwheel_48" transform="translate(8.000000, 8.000000)" fill="#FFFFFF">
            <path d="M40.5,40 C38.57,40 37,38.43 37,36.5 C37,34.57 38.57,33 40.5,33 C42.43,33 44,34.57 44,36.5 C44,38.43 42.43,40 40.5,40 L40.5,40 Z M40.5,31 C37.468,31 35,33.467 35,36.5 C35,39.533 37.468,42 40.5,42 C43.532,42 46,39.533 46,36.5 C46,33.467 43.532,31 40.5,31 L40.5,31 Z M40.5,28 C38.57,28 37,26.43 37,24.5 C37,22.57 38.57,21 40.5,21 C42.43,21 44,22.57 44,24.5 C44,26.43 42.43,28 40.5,28 L40.5,28 Z M40.5,19 C37.468,19 35,21.467 35,24.5 C35,27.533 37.468,30 40.5,30 C43.532,30 46,27.533 46,24.5 C46,21.467 43.532,19 40.5,19 L40.5,19 Z M40.5,16 C38.57,16 37,14.43 37,12.5 C37,10.57 38.57,9 40.5,9 C42.43,9 44,10.57 44,12.5 C44,14.43 42.43,16 40.5,16 L40.5,16 Z M40.5,7 C37.468,7 35,9.467 35,12.5 C35,15.533 37.468,18 40.5,18 C43.532,18 46,15.533 46,12.5 C46,9.467 43.532,7 40.5,7 L40.5,7 Z M46,2 L46,4 L32,4 L32,44 L46,44 L46,46 L31,46 C30.447,46 30,45.552 30,45 L30,25 L18,25 L18,23 L30,23 L30,3 C30,2.448 30.447,2 31,2 L46,2 Z M4,28.382 L4,19.618 L12.764,24 L4,28.382 Z M15.447,23.105 L3.447,17.105 C3.138,16.952 2.769,16.968 2.475,17.149 C2.18,17.332 2,17.653 2,18 L2,30 C2,30.347 2.18,30.668 2.475,30.851 C2.635,30.95 2.817,31 3,31 C3.153,31 3.306,30.965 3.447,30.895 L15.447,24.895 C15.786,24.725 16,24.379 16,24 C16,23.621 15.786,23.275 15.447,23.105 L15.447,23.105 Z M4,13 L13,13 L13,4 L4,4 L4,13 Z M3,15 L14,15 C14.553,15 15,14.552 15,14 L15,3 C15,2.448 14.553,2 14,2 L3,2 C2.447,2 2,2.448 2,3 L2,14 C2,14.552 2.447,15 3,15 L3,15 Z M8.5,44 C6.019,44 4,41.981 4,39.5 C4,37.019 6.019,35 8.5,35 C10.981,35 13,37.019 13,39.5 C13,41.981 10.981,44 8.5,44 L8.5,44 Z M8.5,33 C4.916,33 2,35.916 2,39.5 C2,43.084 4.916,46 8.5,46 C12.084,46 15,43.084 15,39.5 C15,35.916 12.084,33 8.5,33 L8.5,33 Z" id="Fill-3"></path>
        </g>
    </g>
</svg>