<?xml version="1.0" encoding="UTF-8"?>
<svg width="64px" height="64px" viewBox="0 0 64 64" version="1.1" xmlns="http://www.w3.org/2000/svg" xmlns:xlink="http://www.w3.org/1999/xlink">
    <!-- Generator: Sketch 64 (93537) - https://sketch.com -->
    <title>Icon-Architecture/48/Arch_AWS-Express-Workflow_48</title>
    <desc>Created with Sketch.</desc>
    <defs>
        <linearGradient x1="0%" y1="100%" x2="100%" y2="0%" id="linearGradient-1">
            <stop stop-color="#B0084D" offset="0%"></stop>
            <stop stop-color="#FF4F8B" offset="100%"></stop>
        </linearGradient>
    </defs>
    <g id="Icon-Architecture/48/Arch_AWS-Express-Workflow_48" stroke="none" stroke-width="1" fill="none" fill-rule="evenodd">
        <g id="Icon-Architecture-BG/48/Application-Integration" fill="url(#linearGradient-1)">
            <rect id="Rectangle" x="0" y="0" width="64" height="64"></rect>
        </g>
        <path d="M51.0983851,34 L36.1683851,34 L37.2413851,30 L52.1703851,30 L51.0983851,34 Z M53.4733851,28 L36.4733851,28 C36.0213851,28 35.6243851,28.304 35.5073851,28.741 L33.9003851,34.741 C33.8193851,35.042 33.8833851,35.362 34.0733851,35.609 C34.2613851,35.855 34.5553851,36 34.8663851,36 L51.8663851,36 C52.3183851,36 52.7143851,35.696 52.8313851,35.259 L54.4393851,29.259 C54.5203851,28.958 54.4553851,28.638 54.2663851,28.391 C54.0773851,28.145 53.7843851,28 53.4733851,28 L53.4733851,28 Z M34.1693851,49.5 C34.1693851,50.878 33.0483851,52 31.6693851,52 C30.2903851,52 29.1693851,50.878 29.1693851,49.5 C29.1693851,48.122 30.2903851,47 31.6693851,47 C33.0483851,47 34.1693851,48.122 34.1693851,49.5 L34.1693851,49.5 Z M11.3033851,38 L12.1073851,35 L25.0363851,35 L24.2323851,38 L19.6693851,38 L17.6693851,38 L11.3033851,38 Z M11.3033851,29 L12.1073851,26 L17.6693851,26 L19.6693851,26 L25.0363851,26 L24.2323851,29 L11.3033851,29 Z M29.1693851,14.5 C29.1693851,13.122 30.2903851,12 31.6693851,12 C33.0483851,12 34.1693851,13.122 34.1693851,14.5 C34.1693851,15.878 33.0483851,17 31.6693851,17 C30.2903851,17 29.1693851,15.878 29.1693851,14.5 L29.1693851,14.5 Z M43.6693851,42 L19.6693851,42 L19.6693851,40 L24.9993851,40 C25.4523851,40 25.8483851,39.696 25.9653851,39.259 L27.3053851,34.259 C27.3863851,33.958 27.3223851,33.638 27.1323851,33.391 C26.9443851,33.145 26.6503851,33 26.3393851,33 L19.6693851,33 L19.6693851,31 L24.9993851,31 C25.4523851,31 25.8483851,30.696 25.9653851,30.259 L27.3053851,25.259 C27.3863851,24.958 27.3223851,24.638 27.1323851,24.391 C26.9443851,24.145 26.6503851,24 26.3393851,24 L19.6693851,24 L19.6693851,22 L43.6693851,22 L43.6693851,26 L45.6693851,26 L45.6693851,21 C45.6693851,20.448 45.2223851,20 44.6693851,20 L32.6693851,20 L32.6693851,18.879 C34.6693851,18.422 36.1693851,16.637 36.1693851,14.5 C36.1693851,12.019 34.1513851,10 31.6693851,10 C29.1883851,10 27.1693851,12.019 27.1693851,14.5 C27.1693851,16.637 28.6693851,18.422 30.6693851,18.879 L30.6693851,20 L18.6693851,20 C18.1173851,20 17.6693851,20.448 17.6693851,21 L17.6693851,24 L11.3393851,24 C10.8873851,24 10.4913851,24.304 10.3733851,24.741 L9.03438511,29.741 C8.95338511,30.042 9.01738511,30.362 9.20638511,30.609 C9.39538511,30.855 9.68938511,31 9.99938511,31 L17.6693851,31 L17.6693851,33 L11.3393851,33 C10.8873851,33 10.4913851,33.304 10.3733851,33.741 L9.03438511,38.741 C8.95338511,39.042 9.01738511,39.362 9.20638511,39.609 C9.39538511,39.855 9.68938511,40 9.99938511,40 L17.6693851,40 L17.6693851,43 C17.6693851,43.552 18.1173851,44 18.6693851,44 L30.6693851,44 L30.6693851,45.121 C28.6693851,45.578 27.1693851,47.363 27.1693851,49.5 C27.1693851,51.981 29.1883851,54 31.6693851,54 C34.1513851,54 36.1693851,51.981 36.1693851,49.5 C36.1693851,47.363 34.6693851,45.578 32.6693851,45.121 L32.6693851,44 L44.6693851,44 C45.2223851,44 45.6693851,43.552 45.6693851,43 L45.6693851,38 L43.6693851,38 L43.6693851,42 Z" id="AWS-Express-Workflow-Icon_48_Squid" fill="#FFFFFF"></path>
    </g>
</svg>