<?xml version="1.0" encoding="UTF-8"?>
<svg width="64px" height="64px" viewBox="0 0 64 64" version="1.1" xmlns="http://www.w3.org/2000/svg" xmlns:xlink="http://www.w3.org/1999/xlink">
    <title>Icon-Architecture/48/Arch_AWS-AppFlow_48</title>
    <defs>
        <linearGradient x1="0%" y1="100%" x2="100%" y2="0%" id="linearGradient-1">
            <stop stop-color="#B0084D" offset="0%"></stop>
            <stop stop-color="#FF4F8B" offset="100%"></stop>
        </linearGradient>
    </defs>
    <g id="Icon-Architecture/48/Arch_AWS-AppFlow_48" stroke="none" stroke-width="1" fill="none" fill-rule="evenodd">
        <g id="Rectangle" fill="url(#linearGradient-1)">
            <rect x="0" y="0" width="64" height="64"></rect>
        </g>
        <g id="Icon-Service/48/AWS-AppFlow_48" transform="translate(8.000000, 8.000000)" fill="#FFFFFF">
            <path d="M39.219,7 L25.376,7 L13.249,27.387 L12.644,25.128 L10.712,25.646 L12.297,31.559 L18.21,29.975 L17.693,28.043 L14.711,28.842 L26.513,9 L38.065,9 L43.839,19 L38.065,29 L32.144,29 L32.144,31 L39.219,31 L46.148,19 L39.219,7 Z M34.254,20.671 L22.787,41 L8.928,41 L2,29 L8.928,17 L15.144,17 L15.144,19 L10.082,19 L4.309,29 L10.082,39 L21.619,39 L32.818,19.147 L29.795,19.957 L29.278,18.025 L35.192,16.441 L36.776,22.354 L34.844,22.872 L34.254,20.671 Z" id="AWS-AppFlow_48"></path>
        </g>
    </g>
</svg>