<?xml version="1.0" encoding="UTF-8"?>
<svg width="80px" height="80px" viewBox="0 0 80 80" version="1.1" xmlns="http://www.w3.org/2000/svg" xmlns:xlink="http://www.w3.org/1999/xlink">
    <title>Icon-Architecture/64/Arch_Amazon-Location-Service_64</title>
    <defs>
        <linearGradient x1="0%" y1="100%" x2="100%" y2="0%" id="linearGradient-1">
            <stop stop-color="#BD0816" offset="0%"></stop>
            <stop stop-color="#FF5252" offset="100%"></stop>
        </linearGradient>
    </defs>
    <g id="Icon-Architecture/64/Arch_Amazon-Location-Service_64" stroke="none" stroke-width="1" fill="none" fill-rule="evenodd">
        <g id="Rectangle" fill="url(#linearGradient-1)">
            <rect x="0" y="0" width="80" height="80"></rect>
        </g>
        <g id="Icon-Service/64/Amazon-Location-Service_64" transform="translate(8.000000, 8.000000)" fill="#FFFFFF">
            <path d="M35.086327,13.594 C35.006327,13.776 34.981327,13.977 35.015327,14.173 L35.861327,19 L28.181327,19 L28.986327,14.165 C29.019327,13.971 28.993327,13.773 28.914327,13.594 L25.539327,6 L38.461327,6 L35.086327,13.594 Z M40.839327,4.455 C40.654327,4.172 40.339327,4 40.000327,4 L24.000327,4 C23.661327,4 23.346327,4.172 23.161327,4.455 C22.977327,4.739 22.948327,5.097 23.086327,5.406 L26.964327,14.132 L26.014327,19.836 C25.965327,20.126 26.047327,20.422 26.237327,20.647 C26.427327,20.871 26.706327,21 27.000327,21 L31.000327,21 L31.000327,31 L33.000327,31 L33.000327,21 L37.052327,21 C37.348327,21 37.628327,20.869 37.817327,20.643 C38.008327,20.417 38.088327,20.118 38.037327,19.827 L37.038327,14.128 L40.914327,5.406 C41.052327,5.097 41.023327,4.739 40.839327,4.455 L40.839327,4.455 Z M48.850327,40.78 L46.410327,41.95 L32.000327,48.89 L17.590327,41.95 L15.150327,40.78 L7.46032702,37.08 L15.100327,33.97 L31.570327,41.9 C31.700327,41.97 31.850327,42 32.000327,42 C32.150327,42 32.300327,41.97 32.430327,41.9 L48.900327,33.97 L56.540327,37.08 L48.850327,40.78 Z M56.540327,46.08 L32.000327,57.89 L7.46032702,46.08 L15.100327,42.97 L31.570327,50.9 C31.700327,50.97 31.850327,51 32.000327,51 C32.150327,51 32.300327,50.97 32.430327,50.9 L48.900327,42.97 L56.540327,46.08 Z M60.000654,36.97 C59.990327,36.57 59.740327,36.22 59.380327,36.07 L51.340327,32.79 L59.430327,28.9 C59.790327,28.73 60.010327,28.36 60.000654,27.97 C59.990327,27.57 59.740327,27.22 59.380327,27.07 L39.950327,19.16 L40.010327,19.48 C40.110327,20.09 40.020327,20.7 39.770327,21.24 L56.540327,28.08 L48.850327,31.78 L46.410327,32.95 L32.000327,39.89 L17.590327,32.95 L15.150327,31.78 L7.46032702,28.08 L24.280327,21.23 C24.040327,20.69 23.940327,20.1 24.040327,19.51 L24.100327,19.14 L4.62032702,27.07 C4.26032702,27.22 4.01032702,27.57 4,27.97 C3.99032702,28.36 4.21032702,28.73 4.57032702,28.9 L12.660327,32.79 L4.62032702,36.07 C4.26032702,36.22 4.01032702,36.57 4,36.97 C3.99032702,37.36 4.21032702,37.73 4.57032702,37.9 L12.660327,41.79 L4.62032702,45.07 C4.26032702,45.22 4.01032702,45.57 4,45.97 C3.99032702,46.36 4.21032702,46.73 4.57032702,46.9 L31.570327,59.9 C31.700327,59.97 31.850327,60 32.000327,60 C32.150327,60 32.300327,59.97 32.430327,59.9 L59.430327,46.9 C59.790327,46.73 60.010327,46.36 60.000654,45.97 C59.990327,45.57 59.740327,45.22 59.380327,45.07 L51.340327,41.79 L59.430327,37.9 C59.790327,37.73 60.010327,37.36 60.000654,36.97 L60.000654,36.97 Z" id="Fill-1"></path>
        </g>
    </g>
</svg>