<svg version="1.1" baseProfile="tiny" id="Layer_1" xmlns="http://www.w3.org/2000/svg" xmlns:xlink="http://www.w3.org/1999/xlink"
	 x="0px" y="0px" width="24px" height="24px" viewBox="0 0 24 24" overflow="visible" xml:space="preserve">
<g >
	<g transform="translate(3.000000, 4.000000)">
		<path fill-rule="evenodd" fill="#5C85DE" d="M3.8,2.8C0.9,2.8,0.6-1,3.8-1C6.1-1,7.1-0.3,9,0.5C11.1-0.3,11.9-1,14.2-1
			c3.2,0,2.9,3.8,0,3.8H3.8z"/>
		<path fill-rule="evenodd" fill="#3367D6" d="M3.8,2.8h10.4C15,2.8,15.7,2.4,16,2L9,2.8L2,2C2.3,2.4,3,2.8,3.8,2.8z"/>
		<path fill-rule="evenodd" fill="#85A4E6" d="M17.2,8.8H9.8V17h6c0.8,0,1.5-0.7,1.5-1.5V8.8L17.2,8.8z"/>
		<path fill-rule="evenodd" fill="#85A4E6" d="M0.8,8.8h7.5V17h-6c-0.8,0-1.5-0.7-1.5-1.5V8.8L0.8,8.8z"/>
		<path fill-rule="evenodd" fill="#85A4E6" d="M8.2,8V2.8H0.8c-0.8,0-1.5,0.7-1.5,1.5V8H8.2z"/>
		<path fill-rule="evenodd" fill="#85A4E6" d="M18.8,8h-9V2.8h7.5c0.8,0,1.5,0.7,1.5,1.5V8L18.8,8z"/>
		<rect x="0.8" y="8" fill-rule="evenodd" fill="#3367D6" width="7.5" height="1.5"/>
		<rect x="9.8" y="8" fill-rule="evenodd" fill="#3367D6" width="7.5" height="1.5"/>
		<rect x="10.5" y="2.8" fill-rule="evenodd" fill="#3367D6" width="0.8" height="14.2"/>
		<rect x="7.5" y="2.8" fill-rule="evenodd" fill="#5C85DE" width="3" height="14.2"/>
	</g>
</g>
</svg>
