<?xml version="1.0" encoding="UTF-8"?>
<svg width="40px" height="40px" viewBox="0 0 40 40" version="1.1" xmlns="http://www.w3.org/2000/svg" xmlns:xlink="http://www.w3.org/1999/xlink">
    <!-- Generator: Sketch 64 (93537) - https://sketch.com -->
    <title>Icon-Architecture/32/Arch_Amazon-Codestar_32</title>
    <desc>Created with Sketch.</desc>
    <defs>
        <linearGradient x1="0%" y1="100%" x2="100%" y2="0%" id="linearGradient-1">
            <stop stop-color="#2E27AD" offset="0%"></stop>
            <stop stop-color="#527FFF" offset="100%"></stop>
        </linearGradient>
    </defs>
    <g id="Icon-Architecture/32/Arch_Amazon-Codestar_32" stroke="none" stroke-width="1" fill="none" fill-rule="evenodd">
        <g id="Icon-Architecture-BG/32/Developer-Tools" fill="url(#linearGradient-1)">
            <rect id="Rectangle" x="0" y="0" width="40" height="40"></rect>
        </g>
        <path d="M32.7330684,14 C32.3640224,13.36 31.6899384,13.001 30.9988523,13.001 C30.65881,13.001 30.3157673,13.087 30.0017281,13.269 C29.0466092,13.82 28.7175682,15.045 29.2696369,16.001 C29.8207056,16.955 31.0468583,17.284 32.0019773,16.732 C32.9560962,16.181 33.2851372,14.956 32.7330684,14 L32.7330684,14 Z M32.5020396,17.598 C32.2860127,17.723 32.0579843,17.81 31.8279556,17.876 L32.0899883,19.23 L33.3511454,18.503 L33.8512077,19.369 L31.3758993,20.798 L30.8288312,17.977 C29.8557099,17.918 28.9255941,17.406 28.403529,16.5 C27.576426,15.067 28.0694874,13.229 29.5016658,12.403 C30.9348444,11.578 32.7730734,12.068 33.5991763,13.5 C34.4252792,14.934 33.9332179,16.771 32.5020396,17.598 L32.5020396,17.598 Z M30.915842,26.854 C30.7428205,26.208 30.329769,25.669 29.751697,25.336 C29.366649,25.113 28.9385957,25 28.5045416,25 C28.2885147,25 28.0694874,25.028 27.8544606,25.086 C27.2093803,25.259 26.6703131,25.673 26.3362715,26.251 C26.00323,26.829 25.914219,27.503 26.0862404,28.147 C26.2592619,28.792 26.6723134,29.332 27.2513855,29.665 C27.8284574,29.999 28.5025414,30.088 29.1476217,29.915 C29.7937022,29.742 30.3327694,29.328 30.666811,28.75 C30.9998525,28.172 31.0878634,27.498 30.915842,26.854 L30.915842,26.854 Z M31.8809622,26.595 C32.1239925,27.498 31.9999771,28.44 31.5319188,29.25 C31.0648606,30.06 30.3097665,30.639 29.406654,30.881 C29.1056165,30.961 28.7985783,31.001 28.4955405,31.001 C27.8884649,31.001 27.2903904,30.842 26.7513232,30.531 C26.5452976,30.413 26.356274,30.275 26.1822523,30.123 L25.2941417,30.893 L26.2882655,31.591 L25.7131939,32.41 L23.6719396,30.975 L25.5471732,29.35 C25.3661507,29.059 25.2111314,28.748 25.1211202,28.406 C24.8780899,27.503 25.0031055,26.561 25.4701636,25.751 C25.9372218,24.941 26.6923159,24.362 27.5954284,24.12 C28.4985409,23.88 29.4426585,24.003 30.2517593,24.47 C31.0608601,24.937 31.6399322,25.692 31.8809622,26.595 L31.8809622,26.595 Z M20.0004823,32 C20.0004823,30.897 19.1023704,30 18.0002331,30 C16.8970957,30 15.9999839,30.897 15.9999839,32 C15.9999839,33.104 16.8970957,34 18.0002331,34 C19.1023704,34 20.0004823,33.104 20.0004823,32 L20.0004823,32 Z M21.0006069,32 C21.0006069,33.655 19.6544392,35 18.0002331,35 C16.3450269,35 14.9998593,33.655 14.9998593,32 C14.9998593,31.495 15.1368764,31.024 15.3599042,30.606 L13.9997348,30.134 L13.9997348,32 L12.9996102,32 L12.9996102,28.73 L16.008985,29.772 C16.5410513,29.298 17.2331375,29 18.0002331,29 C19.6544392,29 21.0006069,30.346 21.0006069,32 L21.0006069,32 Z M10.7303275,23 C10.3612815,22.36 9.68719754,22.001 8.99611145,22.001 C8.65606909,22.001 8.31302636,22.087 7.99898724,22.269 C7.04386826,22.82 6.71482727,24.045 7.26689604,25.001 C7.81796469,25.956 9.04411743,26.283 9.99923641,25.732 C10.9533553,25.181 11.2823963,23.956 10.7303275,23 L10.7303275,23 Z M11.5964354,22.5 C12.4235384,23.934 11.930477,25.771 10.4992987,26.598 C10.0272399,26.87 9.51217574,27 9.00311232,27 C7.96598313,27 6.95585729,26.462 6.40078815,25.5 C5.57468524,24.067 6.06674654,22.229 7.49892494,21.403 C7.76095759,21.251 8.03999234,21.159 8.32102735,21.093 L8.02098998,19.546 L6.76583362,20.272 L6.26377108,19.407 L8.73607906,17.977 L9.32815281,21.03 C10.2432668,21.132 11.1023738,21.643 11.5964354,22.5 L11.5964354,22.5 Z M9.99923641,14.732 C10.9523551,15.283 12.1785079,14.956 12.7315768,14 C13.2826454,13.045 12.9536044,11.82 11.9994856,11.269 C11.6844463,11.087 11.3404035,11.001 11.0013612,11.001 C10.3102752,11.001 9.63619118,11.36 9.26614509,12 C8.71507644,12.956 9.04411743,14.181 9.99923641,14.732 L9.99923641,14.732 Z M8.4000372,11.501 C9.22814035,10.068 11.0663693,9.578 12.4995479,10.403 C12.6115618,10.468 12.7075738,10.548 12.8075862,10.625 L14.3367767,9.296 L13.0796201,8.568 L13.5816827,7.703 L16.0499902,9.132 L13.4916715,11.355 C14.0947466,12.273 14.1827576,13.485 13.5976847,14.5 C13.0426155,15.461 12.0314896,16 10.9943604,16 C10.485297,16 9.9702328,15.87 9.49917412,15.598 C8.06699571,14.771 7.57393429,12.934 8.4000372,11.501 L8.4000372,11.501 Z M20.0004823,9 C20.0004823,10.104 20.897594,11 22.0007314,11 C22.7688271,11 23.4289094,10.56 23.7639511,9.923 L23.7519496,9.918 L23.971977,9.278 C23.9849786,9.187 24.0009806,9.096 24.0009806,9 C24.0009806,7.897 23.1028687,7 22.0007314,7 C20.897594,7 20.0004823,7.897 20.0004823,9 L20.0004823,9 Z M19.0003577,9 C19.0003577,7.346 20.3455253,6 22.0007314,6 C23.6549375,6 25.0011052,7.346 25.0011052,9 C25.0011052,9.097 24.9811027,9.188 24.9721016,9.282 L26.0012298,9.637 L26.0012298,8 L27.0013544,8 L27.0013544,11.039 L24.7180699,10.252 C24.2430108,11.281 23.2068817,12 22.0007314,12 C20.3455253,12 19.0003577,10.655 19.0003577,9 L19.0003577,9 Z M17.710197,24.011 L18.6263111,24.414 L22.2397612,16.184 L21.3236471,15.781 L17.710197,24.011 Z M23.1808785,17.232 L22.4817914,17.948 L24.5970549,20.013 L22.2327603,21.788 L22.8328351,22.587 L26.1302459,20.113 L23.1808785,17.232 Z M13.8687184,19.316 L17.1671293,16.841 L17.7662039,17.641 L15.4019094,19.416 L17.5171729,21.481 L16.8180858,22.197 L13.8687184,19.316 Z" id="Amazon-Codestar_Icon_32_Squid" fill="#FFFFFF"></path>
    </g>
</svg>