<?xml version="1.0" encoding="UTF-8"?>
<svg width="40px" height="40px" viewBox="0 0 40 40" version="1.1" xmlns="http://www.w3.org/2000/svg" xmlns:xlink="http://www.w3.org/1999/xlink">
    <!-- Generator: Sketch 64 (93537) - https://sketch.com -->
    <title>Icon-Architecture/32/Arch_AWS-Cloud9_32</title>
    <desc>Created with Sketch.</desc>
    <defs>
        <linearGradient x1="0%" y1="100%" x2="100%" y2="0%" id="linearGradient-1">
            <stop stop-color="#2E27AD" offset="0%"></stop>
            <stop stop-color="#527FFF" offset="100%"></stop>
        </linearGradient>
    </defs>
    <g id="Icon-Architecture/32/Arch_AWS-Cloud9_32" stroke="none" stroke-width="1" fill="none" fill-rule="evenodd">
        <g id="Icon-Architecture-BG/32/Developer-Tools" fill="url(#linearGradient-1)">
            <rect id="Rectangle" x="0" y="0" width="40" height="40"></rect>
        </g>
        <path d="M22.156,21.9310752 C21.901,22.072079 21.621,22.1815295 21.315,22.2594267 C21.01,22.33831 20.706,22.3777516 20.404,22.3777516 C19.88,22.3777516 19.482,22.2347757 19.212,21.948824 C18.942,21.6628722 18.807,21.245777 18.807,20.6975385 C18.807,20.1798672 18.948,19.7667162 19.23,19.4570995 C19.511,19.1484688 19.887,18.9936604 20.356,18.9936604 C21.532,18.9936604 22.132,19.9175804 22.156,21.7664065 L22.156,21.9310752 Z M20.38,18.0293127 C19.832,18.0293127 19.347,18.1496097 18.927,18.3882315 C18.505,18.6268533 18.181,18.9522467 17.955,19.3634256 C17.728,19.7746045 17.615,20.2429738 17.615,20.7675474 C17.615,21.5593379 17.84,22.1815295 18.289,22.6360942 C18.737,23.0906589 19.347,23.3174483 20.118,23.3174483 C20.483,23.3174483 20.841,23.2651881 21.19,23.1586957 C21.54,23.0531894 21.857,22.9062693 22.143,22.7179356 C22.088,23.6891856 21.864,24.406037 21.47,24.8684901 C21.077,25.3309431 20.499,25.5616766 19.736,25.5616766 C19.188,25.5616766 18.589,25.4167286 17.937,25.1268327 L17.937,26.0201854 C18.462,26.3564253 19.117,26.5250382 19.903,26.5250382 C21,26.5250382 21.845,26.1296359 22.441,25.3388314 C23.038,24.5470408 23.336,23.4150663 23.336,21.9429077 C23.336,20.6659852 23.083,19.6947352 22.579,19.0281718 C22.074,18.3625945 21.342,18.0293127 20.38,18.0293127 L20.38,18.0293127 Z M28.625,28.0139594 L12.294,28.0139594 C10.01,28.0119874 8.128,26.3692438 8.008,24.2758797 C8.003,24.1802337 8,24.0826157 8,23.9820396 C8,21.2595816 10,20.3672149 11.192,20.0763329 C11.437,20.0171705 11.599,19.785451 11.568,19.5369688 C11.539,19.300319 11.523,19.0587391 11.523,18.814201 C11.523,16.6409676 13.102,14.3010934 15.118,13.4866239 C15.944,13.1533422 16.787,12.9896594 17.613,12.9896594 C19.218,12.9896594 20.76,13.6059348 22.002,14.7931276 C22.735,15.4942025 23.306,16.3895273 23.701,17.4534651 C23.763,17.623064 23.915,17.7453331 24.095,17.7719562 C24.275,17.8015374 24.457,17.7285704 24.568,17.5846085 C25.156,16.8273293 26.107,16.5108103 26.991,16.7760552 C28.023,17.086658 28.691,18.1229866 28.778,19.5468292 C28.792,19.7696743 28.956,19.956036 29.178,20.0004078 C31.714,20.5042745 33,21.8571222 33,24.0204952 C33,27.6254595 29.94,28.0139594 28.625,28.0139594 L28.625,28.0139594 Z M29.742,19.1139574 C29.533,17.452479 28.633,16.2396491 27.283,15.8324144 C26.256,15.5237837 25.169,15.749587 24.344,16.40629 C23.922,15.506035 23.37,14.7270629 22.697,14.0851505 C20.523,12.0036189 17.548,11.4425618 14.739,12.5735503 C12.336,13.5448003 10.523,16.2278166 10.523,18.814201 C10.523,18.9552048 10.527,19.0962086 10.536,19.2352403 C9.22,19.6533215 7,20.8276958 7,23.9820396 C7,24.1013505 7.003,24.2167172 7.01,24.331098 C7.16,26.9460775 9.48,28.9980279 12.293,29 L28.625,29 C31.223,29 34,27.6925102 34,24.0204952 C34,21.5060918 32.492,19.7746045 29.742,19.1139574 L29.742,19.1139574 Z" id="AWS-Cloud9_Icon_32_Squid" fill="#FFFFFF"></path>
    </g>
</svg>