<?xml version="1.0" encoding="UTF-8"?>
<svg width="40px" height="40px" viewBox="0 0 40 40" version="1.1" xmlns="http://www.w3.org/2000/svg" xmlns:xlink="http://www.w3.org/1999/xlink">
    <title>Icon-Architecture/32/Arch_AWS-CodeArtifact_32</title>
    <defs>
        <linearGradient x1="0%" y1="100%" x2="100%" y2="0%" id="linearGradient-1">
            <stop stop-color="#2E27AD" offset="0%"></stop>
            <stop stop-color="#527FFF" offset="100%"></stop>
        </linearGradient>
    </defs>
    <g id="Icon-Architecture/32/Arch_AWS-CodeArtifact_32" stroke="none" stroke-width="1" fill="none" fill-rule="evenodd">
        <g id="Rectangle" fill="url(#linearGradient-1)">
            <rect x="0" y="0" width="40" height="40"></rect>
        </g>
        <g id="Icon-Service/32/AWS-CodeArtifact_32" transform="translate(4.000000, 4.000000)" fill="#FFFFFF">
            <path d="M14.082,18.9966 L17.032,12.4056 L17.944,12.8136 L14.994,19.4046 L14.082,18.9966 Z M19.213,16.9886 L20.983,15.6966 L19.424,14.1146 L20.137,13.4126 L22.103,15.4076 C22.204,15.5106 22.256,15.6536 22.244,15.7986 C22.232,15.9436 22.158,16.0766 22.041,16.1626 L19.803,17.7956 L19.213,16.9886 Z M13.813,14.1576 L12.018,15.4686 L13.582,17.0506 L12.871,17.7536 L10.898,15.7586 C10.796,15.6556 10.744,15.5126 10.756,15.3676 C10.768,15.2226 10.842,15.0896 10.959,15.0036 L13.224,13.3506 L13.813,14.1576 Z M14.035,2.8606 L4,8.7936 L4,19.8636 L3,19.8636 L3,8.5086 C3,8.3316 3.094,8.1676 3.245,8.0786 L13.525,1.9996 L14.035,2.8606 Z M30,10.8636 L30,23.3836 C30,23.5616 29.904,23.7276 29.749,23.8166 L19.478,29.7306 L18.979,28.8646 L29,23.0946 L29,10.8636 L30,10.8636 Z M24,20.2776 L16.46,24.5656 L9,20.1936 L9,11.5316 L16.455,7.2446 L24,11.6186 L24,20.2776 Z M25,20.5686 L25,11.3306 C25,11.1526 24.905,10.9876 24.751,10.8976 L16.707,6.2346 C16.553,6.1456 16.363,6.1446 16.207,6.2336 L8.251,10.8086 C8.096,10.8986 8,11.0636 8,11.2426 L8,20.4796 C8,20.6576 8.094,20.8216 8.247,20.9116 L16.203,25.5736 C16.281,25.6196 16.368,25.6426 16.456,25.6426 C16.541,25.6426 16.627,25.6206 16.703,25.5776 L24.747,21.0026 C24.903,20.9136 25,20.7476 25,20.5686 L25,20.5686 Z" id="AWS-CodeArtifact_Icon_32_Squid"></path>
        </g>
    </g>
</svg>