<?xml version="1.0" encoding="UTF-8"?>
<svg width="40px" height="40px" viewBox="0 0 40 40" version="1.1" xmlns="http://www.w3.org/2000/svg" xmlns:xlink="http://www.w3.org/1999/xlink">
    <!-- Generator: Sketch 64 (93537) - https://sketch.com -->
    <title>Icon-Architecture/32/Arch_AWS-X-Ray_32</title>
    <desc>Created with Sketch.</desc>
    <defs>
        <linearGradient x1="0%" y1="100%" x2="100%" y2="0%" id="linearGradient-1">
            <stop stop-color="#2E27AD" offset="0%"></stop>
            <stop stop-color="#527FFF" offset="100%"></stop>
        </linearGradient>
    </defs>
    <g id="Icon-Architecture/32/Arch_AWS-X-Ray_32" stroke="none" stroke-width="1" fill="none" fill-rule="evenodd">
        <g id="Icon-Architecture-BG/32/Developer-Tools" fill="url(#linearGradient-1)">
            <rect id="Rectangle" x="0" y="0" width="40" height="40"></rect>
        </g>
        <path d="M22.9568531,26.9249571 L20.9852891,26.9249571 L20.9852891,22.8749285 L19.9995071,22.8749285 L19.9995071,26.9249571 L18.0279431,26.9249571 L18.0279431,23.8874356 L17.0421611,23.8874356 L17.0421611,26.9249571 L16.0563791,26.9249571 L16.0563791,27.9374642 L17.0421611,27.9374642 L18.0279431,27.9374642 L19.9995071,27.9374642 L20.9852891,27.9374642 L22.9568531,27.9374642 L23.9426351,27.9374642 L23.9426351,26.9249571 L23.9426351,20.8499142 L22.9568531,20.8499142 L22.9568531,26.9249571 Z M26.899981,24.8999428 C26.899981,20.9916652 23.8036398,17.8123927 19.9995071,17.8123927 C16.1953744,17.8123927 13.0990332,20.9916652 13.0990332,24.8999428 C13.0990332,28.8082204 16.1953744,31.9874928 19.9995071,31.9874928 C23.8036398,31.9874928 26.899981,28.8082204 26.899981,24.8999428 L26.899981,24.8999428 Z M27.885763,24.8999428 C27.885763,29.3661118 24.3477915,33 19.9995071,33 C15.6512227,33 12.1132512,29.3661118 12.1132512,24.8999428 C12.1132512,20.4337738 15.6512227,16.7998856 19.9995071,16.7998856 C24.3477915,16.7998856 27.885763,20.4337738 27.885763,24.8999428 L27.885763,24.8999428 Z M33,19.0972643 C33,21.8735589 31.5154123,23.6788592 28.9277346,24.0514618 L28.7907109,23.0490797 C30.2605118,22.8374657 32.014218,21.9798722 32.014218,19.0972643 C32.014218,16.3888077 30.0189953,15.4097133 28.3451374,15.0654608 C28.1253081,15.019898 27.962654,14.8275217 27.9498389,14.5976825 C27.8414028,12.6202561 26.7136682,11.7353248 25.6440948,11.7353248 C24.9717915,11.7353248 24.3448341,12.0603396 23.9239052,12.6263311 C23.816455,12.7741572 23.6409858,12.8450327 23.4596019,12.8207325 C23.2821611,12.7933948 23.1323223,12.6688564 23.070218,12.4957177 C22.6897062,11.4396727 22.1258389,10.5182912 21.437763,9.83079887 C19.6318104,8.02043608 17.160455,7.52937011 14.8300664,8.51757709 C12.8939905,9.33365786 11.3778578,11.6806494 11.3778578,13.8615898 C11.3778578,14.1076291 11.3926445,14.3486058 11.4212322,14.5845199 C11.4527773,14.8396717 11.2930806,15.0786234 11.0505782,15.1403864 C9.90608531,15.4309759 7.98479621,16.3280573 7.98479621,19.058789 C7.98479621,19.1620648 7.98972512,19.2542029 7.99465403,19.3524161 C8.08041706,20.9531899 9.42600948,22.4233503 11.2674502,22.9275789 L11.0131185,23.9056608 C8.76553555,23.2900564 7.1202654,21.4412184 7.0108436,19.408104 C7.00394313,19.2916657 7,19.1813024 7,19.058789 C7,15.8855916 9.13323223,14.7009583 10.4039052,14.2777303 C10.396019,14.1410418 10.3920758,14.0013158 10.3920758,13.8615898 C10.3920758,11.2574214 12.1378957,8.55706487 14.4554692,7.58100798 C17.1584834,6.43586239 20.0290806,7.0038789 22.1258389,9.10483124 C22.753782,9.73359818 23.2910332,10.5243663 23.7011185,11.4224601 C25.3730047,10.0505129 28.4930047,10.6266295 28.9011185,14.1552169 C31.5479431,14.8194216 33,16.5629589 33,19.0972643 L33,19.0972643 Z" id="AWS-X-Ray_Icon_32_Squid" fill="#FFFFFF"></path>
    </g>
</svg>