<?xml version="1.0" encoding="UTF-8"?>
<svg width="40px" height="40px" viewBox="0 0 40 40" version="1.1" xmlns="http://www.w3.org/2000/svg" xmlns:xlink="http://www.w3.org/1999/xlink">
    <title>Icon-Architecture/32/Arch_Amazon-Corretto_32</title>
    <defs>
        <linearGradient x1="0%" y1="100%" x2="100%" y2="0%" id="linearGradient-1">
            <stop stop-color="#2E27AD" offset="0%"></stop>
            <stop stop-color="#527FFF" offset="100%"></stop>
        </linearGradient>
    </defs>
    <g id="Icon-Architecture/32/Arch_Amazon-Corretto_32" stroke="none" stroke-width="1" fill="none" fill-rule="evenodd">
        <g id="Rectangle" fill="url(#linearGradient-1)">
            <rect x="0" y="0" width="40" height="40"></rect>
        </g>
        <g id="Icon-Service/32/Amazon-Corretto_32" transform="translate(4.000000, 4.000000)" fill="#FFFFFF">
            <path d="M13,5.039 L15.031,5.039 L15.031,3 L13,3 L13,5.039 Z M12,5.539 L12,2.5 C12,2.224 12.224,2 12.5,2 L15.531,2 C15.808,2 16.031,2.224 16.031,2.5 L16.031,5.539 C16.031,5.815 15.808,6.039 15.531,6.039 L12.5,6.039 C12.224,6.039 12,5.815 12,5.539 L12,5.539 Z M19,8.039 L21.047,8.039 L21.047,6.007 L19,6.007 L19,8.039 Z M18,8.539 L18,5.507 C18,5.231 18.224,5.007 18.5,5.007 L21.547,5.007 C21.823,5.007 22.047,5.231 22.047,5.507 L22.047,8.539 C22.047,8.815 21.823,9.039 21.547,9.039 L18.5,9.039 C18.224,9.039 18,8.815 18,8.539 L18,8.539 Z M12,11.022 L14.029,11.022 L14.029,9.039 L12,9.039 L12,11.022 Z M11,11.522 L11,8.539 C11,8.263 11.224,8.039 11.5,8.039 L14.529,8.039 C14.806,8.039 15.029,8.263 15.029,8.539 L15.029,11.522 C15.029,11.798 14.806,12.022 14.529,12.022 L11.5,12.022 C11.224,12.022 11,11.798 11,11.522 L11,11.522 Z M14.53,19.039 L24.554,19.039 L24.554,18.039 L14.53,18.039 L14.53,19.039 Z M6.055,20.039 L7.581,20.039 C7.211,18.98 7,17.847 7,16.665 L7,13.057 L6.055,13.057 C4.342,13.057 3,14.585 3,16.536 C3,18.5 4.342,20.039 6.055,20.039 L6.055,20.039 Z M6.055,21.039 C3.781,21.039 2,19.061 2,16.536 C2,14.024 3.781,12.057 6.055,12.057 L7,12.057 L7,11.539 C7,11.263 7.224,11.039 7.5,11.039 L10,11.039 L10,12.039 L8,12.039 L8,16.665 C8,17.133 8.047,17.589 8.113,18.039 L13.025,18.039 L13.025,19.039 L8.32,19.039 C9.391,23.06 13.094,26.039 17.5,26.039 C22.772,26.039 27.062,21.834 27.062,16.665 L27.062,16.021 L10.164,16.021 L10.164,15.021 L27.062,15.021 L27.062,12.039 L16.033,12.039 L16.033,11.039 L27.562,11.039 C27.838,11.039 28.062,11.263 28.062,11.539 L28.062,16.665 C28.062,22.385 23.323,27.039 17.5,27.039 C13.293,27.039 9.667,24.577 7.992,21.039 L6.055,21.039 Z M30.033,25.763 C30.033,28.464 23.661,30.078 17.5,30.078 C11.563,30.078 5.555,28.596 5.555,25.763 C5.555,25.007 6.044,23.905 8.374,22.943 L8.755,23.868 C7.356,24.445 6.555,25.135 6.555,25.763 C6.555,27.364 10.953,29.078 17.5,29.078 C24.101,29.078 29.033,27.328 29.033,25.763 C29.033,25.136 28.231,24.445 26.834,23.867 L27.215,22.943 C29.544,23.905 30.033,25.007 30.033,25.763 L30.033,25.763 Z" id="Fill-4"></path>
        </g>
    </g>
</svg>