<?xml version="1.0" encoding="UTF-8"?>
<svg width="40px" height="40px" viewBox="0 0 40 40" version="1.1" xmlns="http://www.w3.org/2000/svg" xmlns:xlink="http://www.w3.org/1999/xlink">
    <!-- Generator: Sketch 64 (93537) - https://sketch.com -->
    <title>Icon-Architecture/32/Arch_AWS-Cloud-Development-Kit_32</title>
    <desc>Created with Sketch.</desc>
    <defs>
        <linearGradient x1="0%" y1="100%" x2="100%" y2="0%" id="linearGradient-1">
            <stop stop-color="#2E27AD" offset="0%"></stop>
            <stop stop-color="#527FFF" offset="100%"></stop>
        </linearGradient>
    </defs>
    <g id="Icon-Architecture/32/Arch_AWS-Cloud-Development-Kit_32" stroke="none" stroke-width="1" fill="none" fill-rule="evenodd">
        <g id="Icon-Architecture-BG/32/Developer-Tools" fill="url(#linearGradient-1)">
            <rect id="Rectangle" x="0" y="0" width="40" height="40"></rect>
        </g>
        <path d="M34,19.8362524 C34,23.2184781 31.632235,24.4595804 30.2191977,24.8992402 L29.9183381,23.9597878 C31.3223496,23.5220996 32.9971347,22.4525237 32.9971347,19.8362524 C32.9971347,16.5279606 30.2212034,15.7018735 29.0277937,15.4997877 C28.7570201,15.4544416 28.5744986,15.2030666 28.6176218,14.9359191 C28.5163324,13.4592144 27.7952722,12.3541503 26.6911175,12.0377135 C25.7815186,11.7764807 24.8117479,12.122491 24.215043,12.9170331 C24.1047278,13.0639149 23.9272206,13.1348914 23.7376791,13.1122183 C23.5541547,13.0846164 23.4007163,12.9604076 23.3385387,12.7888811 C22.9273639,11.6424141 22.330659,10.6793029 21.5654728,9.92517798 C20.625788,8.99854082 18.0444126,7.01021407 14.4120344,8.52240705 C12.3090258,9.39778343 10.6623209,11.9184337 10.6623209,14.2616427 C10.6623209,14.5258329 10.6783668,14.7870657 10.7084527,15.0423838 C10.7395415,15.2878441 10.5790831,15.5175318 10.3353868,15.5786504 C9.09083095,15.8901582 7.00286533,16.8532694 7.00286533,19.7948495 C7.00286533,19.8914564 7.00587393,19.9860916 7.00988539,20.0787554 C7.10415473,21.9704753 8.52320917,23.598005 10.4597421,24.0347074 L10.2361032,24.995847 C7.86232092,24.4605662 6.12335244,22.4574527 6.00902579,20.126073 C6.0030086,20.0176367 6,19.9072289 6,19.7948495 C6,16.4264249 8.31561605,15.1813794 9.67449857,14.7417196 C9.66346705,14.5830084 9.65945559,14.4223256 9.65945559,14.2616427 C9.65945559,11.5073616 11.5338109,8.64957321 14.019914,7.61449979 C16.9332378,6.40297099 20.0210602,7.00429936 22.2765043,9.22921433 C22.9755014,9.91926327 23.5491404,10.7571799 23.9873926,11.72522 C24.8217765,11.0391141 25.9239255,10.7906965 26.9729226,11.0913607 C28.4130372,11.5053901 29.3767908,12.8085968 29.591404,14.607653 C31.0034384,14.931976 34,16.0685852 34,19.8362524 L34,19.8362524 Z M28.4972779,31.1875576 L24.989255,32.7431251 L24.9992837,27.9127825 L28.4972779,26.3887601 L28.4972779,31.1875576 Z M19.4985673,31.1422116 L16.0025788,32.7352389 L16.0025788,27.9295408 L19.4985673,26.384817 L19.4985673,31.1422116 Z M15.4991404,27.0719086 L12.1977077,25.6336494 L15.5001433,24.1510299 L18.7835244,25.6198484 L15.4991404,27.0719086 Z M11.4776504,26.3976322 L14.9997135,27.9315124 L14.9997135,32.7431251 L11.4776504,31.1776998 L11.4776504,26.3976322 Z M19.984957,16.2923582 L23.2613181,17.7266742 L20,19.1747912 L16.7166189,17.7256884 L19.984957,16.2923582 Z M21.2194842,25.6297063 L24.4868195,24.1490584 L27.7762178,25.6247773 L24.4988539,27.0531787 L21.2194842,25.6297063 Z M20.5014327,26.3966464 L23.9964183,27.9127825 L23.9863897,32.7342531 L20.5014327,31.1422116 L20.5014327,26.3966464 Z M23.984384,23.2904403 L20.5014327,24.8696666 L20.5014327,20.0334093 L23.984384,18.4876996 L23.984384,23.2904403 Z M16.0005731,23.2924119 L15.9915473,18.4867139 L19.4985673,20.0343951 L19.4985673,24.8568514 L16.0005731,23.2924119 Z M29.2022923,25.1949754 L29.2073066,25.183146 L24.9872493,23.2894545 L24.9872493,17.7237169 C24.9872493,17.5561336 24.9010029,17.4003797 24.7575931,17.3096875 C24.7355301,17.2958865 24.7074499,17.2958865 24.684384,17.2860287 L24.6893983,17.2741993 L20.1895415,15.3026309 C20.0601719,15.2454554 19.9117479,15.2454554 19.7803725,15.3026309 L15.2835244,17.2741993 L15.2895415,17.2860287 C15.2644699,17.2968723 15.2373926,17.2958865 15.2153295,17.3106733 C15.0729226,17.4013654 14.9866762,17.5571193 14.9866762,17.7247027 L14.9977077,23.2933977 L10.7676218,25.1920181 L10.7726361,25.2038475 C10.7495702,25.2137053 10.7234957,25.2137053 10.7034384,25.2275063 C10.5610315,25.3181984 10.4747851,25.4739524 10.4747851,25.6405499 L10.4747851,31.4961081 C10.4747851,31.6893218 10.5901146,31.8647914 10.7696275,31.9446399 L15.2945559,33.9556397 L15.3005731,33.9428245 C15.3657593,33.9704265 15.4309456,34 15.5011461,34 C15.5723496,34 15.6445559,33.9852132 15.7117479,33.9536681 L19.9989971,31.9998438 L24.274212,33.9536681 L24.2812321,33.9408529 C24.3464183,33.9704265 24.4136103,34 24.4858166,34 C24.5560172,34 24.6252149,33.9852132 24.6924069,33.9556397 L29.2053009,31.9544978 C29.3838109,31.875635 29.5001433,31.7001654 29.5001433,31.5059659 L29.5001433,25.6316778 C29.5001433,25.4650803 29.4138968,25.3093264 29.27149,25.2186342 C29.2504298,25.2048333 29.2243553,25.2048333 29.2022923,25.1949754 L29.2022923,25.1949754 Z" id="AWS-Cloud-Development-Kit_Icon_32_Squid" fill="#FFFFFF"></path>
    </g>
</svg>