<?xml version="1.0" encoding="UTF-8"?>
<svg width="40px" height="40px" viewBox="0 0 40 40" version="1.1" xmlns="http://www.w3.org/2000/svg" xmlns:xlink="http://www.w3.org/1999/xlink">
    <title>Icon-Architecture/32/Arch_AWS-CloudShell_32</title>
    <defs>
        <linearGradient x1="0%" y1="100%" x2="100%" y2="0%" id="linearGradient-1">
            <stop stop-color="#2E27AD" offset="0%"></stop>
            <stop stop-color="#527FFF" offset="100%"></stop>
        </linearGradient>
    </defs>
    <g id="Icon-Architecture/32/Arch_AWS-CloudShell_32" stroke="none" stroke-width="1" fill="none" fill-rule="evenodd">
        <g id="Rectangle" fill="url(#linearGradient-1)">
            <rect x="0" y="0" width="40" height="40"></rect>
        </g>
        <g id="Icon-Service/32/AWS-CloudShell_32" transform="translate(4.000000, 4.000000)" fill="#FFFFFF">
            <path d="M20,26.0010633 L26,26.0010633 L26,25.0010633 L20,25.0010633 L20,26.0010633 Z M14.854,25.8550633 L18.854,21.8550633 C19.049,21.6590633 19.049,21.3430633 18.854,21.1470633 L14.854,17.1470633 L14.147,17.8550633 L17.793,21.5010633 L14.147,25.1470633 L14.854,25.8550633 Z M10,29.0010633 L29,29.0010633 L29,14.0010633 L10,14.0010633 L10,29.0010633 Z M30,13.5010633 L30,29.5010633 C30,29.7770633 29.776,30.0010633 29.5,30.0010633 L9.5,30.0010633 C9.224,30.0010633 9,29.7770633 9,29.5010633 L9,13.5010633 C9,13.2250633 9.224,13.0010633 9.5,13.0010633 L29.5,13.0010633 C29.776,13.0010633 30,13.2250633 30,13.5010633 L30,13.5010633 Z M8.178,4.05006327 C6.88,4.60206327 5.863,6.19206327 5.863,7.67106327 L5.895,8.19406327 C5.908,8.43306327 5.752,8.64806327 5.521,8.70806327 C4.766,8.90106327 3.5,9.49906327 3.5,11.3180633 C3.5,12.6900633 4.242,13.4470633 4.864,13.8400633 C4.94,13.8820633 5.266,13.9620633 5.543,14.0070633 L7,14.0010633 L7,15.0010633 L5.463,15.0010633 C5.155,14.9580633 4.598,14.8540633 4.331,14.6860633 C3.647,14.2540633 2.5,13.2420633 2.5,11.3180633 C2.5,9.66506327 3.379,8.39906327 4.873,7.86106327 L4.864,7.70006327 C4.863,5.79006327 6.12,3.83806327 7.787,3.13006327 C9.736,2.30206327 11.806,2.71306327 13.314,4.23106327 C13.733,4.65306327 14.085,5.15506327 14.364,5.73006327 C14.959,5.32306327 15.718,5.20106327 16.424,5.43406327 C17.382,5.74806327 17.989,6.60606327 18.095,7.76306327 C18.75,7.93706327 19.759,8.34706327 20.399,9.29606327 C20.788,9.87306327 20.985,10.5620633 20.985,11.3450633 L19.985,11.3450633 C19.985,10.7650633 19.846,10.2630633 19.57,9.85506327 C18.989,8.99506327 17.943,8.73306327 17.521,8.66006327 C17.25,8.61306327 17.067,8.35706327 17.112,8.08606327 C17.111,7.23006327 16.747,6.59206327 16.112,6.38406327 C15.553,6.20006327 14.94,6.40306327 14.584,6.88906327 C14.475,7.03806327 14.29,7.11206327 14.108,7.08706327 C13.925,7.06006327 13.772,6.93406327 13.71,6.75906327 C13.452,6.02706327 13.08,5.41406327 12.606,4.93706327 C12.023,4.35206327 10.428,3.09506327 8.178,4.05006327 L8.178,4.05006327 Z" id="Fill-3"></path>
        </g>
    </g>
</svg>