<?xml version="1.0" encoding="UTF-8"?>
<svg width="40px" height="40px" viewBox="0 0 40 40" version="1.1" xmlns="http://www.w3.org/2000/svg" xmlns:xlink="http://www.w3.org/1999/xlink">
    <!-- Generator: Sketch 64 (93537) - https://sketch.com -->
    <title>Icon-Architecture/32/Arch_AWS-CodeDeploy_32</title>
    <desc>Created with Sketch.</desc>
    <defs>
        <linearGradient x1="0%" y1="100%" x2="100%" y2="0%" id="linearGradient-1">
            <stop stop-color="#2E27AD" offset="0%"></stop>
            <stop stop-color="#527FFF" offset="100%"></stop>
        </linearGradient>
    </defs>
    <g id="Icon-Architecture/32/Arch_AWS-CodeDeploy_32" stroke="none" stroke-width="1" fill="none" fill-rule="evenodd">
        <g id="Icon-Architecture-BG/32/Developer-Tools" fill="url(#linearGradient-1)">
            <rect id="Rectangle" x="0" y="0" width="40" height="40"></rect>
        </g>
        <path d="M13.1229749,33.0088496 L27.3684796,33.0088496 L27.3684796,25.079646 L13.1229749,25.079646 L13.1229749,33.0088496 Z M27.8772476,24.0884956 L12.6142069,24.0884956 C12.3333669,24.0884956 12.1054388,24.3105133 12.1054388,24.5840708 L12.1054388,33.5044248 C12.1054388,33.7779823 12.3333669,34 12.6142069,34 L27.8772476,34 C28.1580876,34 28.3860157,33.7779823 28.3860157,33.5044248 L28.3860157,24.5840708 C28.3860157,24.3105133 28.1580876,24.0884956 27.8772476,24.0884956 L27.8772476,24.0884956 Z M20.2090959,31.7064779 L19.2648225,31.3377699 L21.2998946,26.3820177 L22.244168,26.7507257 L20.2090959,31.7064779 Z M23.4468957,30.1801062 L25.1227775,28.5486726 L23.4468957,26.9172389 L24.1673112,26.2155044 L26.2023833,28.1978053 C26.4008028,28.3920708 26.4008028,28.7052743 26.2023833,28.8995398 L24.1673112,30.8818407 L23.4468957,30.1801062 Z M15.3066072,28.8995398 C15.1081877,28.7052743 15.1081877,28.3920708 15.3066072,28.1978053 L17.3416793,26.2155044 L18.0620949,26.9172389 L16.386213,28.5486726 L18.0620949,30.1801062 L17.3416793,30.8818407 L15.3066072,28.8995398 Z M33.4950642,17.3238938 C32.6525443,16.5289912 31.4915357,16.159292 29.8380396,16.159292 C27.9688259,16.159292 26.5310474,16.6846018 25.6457911,17.6182655 C25.3995473,12.9360708 24.1591709,9.01012389 22.454798,7.15469027 C28.3310687,7.98527434 32.7919468,12.0926018 33.7799743,17.5934867 C33.6853434,17.5023009 33.589695,17.4130973 33.4950642,17.3238938 L33.4950642,17.3238938 Z M24.3504677,17.4943717 L24.1673112,17.3229027 C23.3471771,16.5507965 22.0284504,16.159292 20.2457272,16.159292 C18.531179,16.159292 17.2277153,16.6053097 16.3902831,17.4418407 C16.6904563,10.9428673 18.5291439,6.99115044 20.2457272,6.99115044 C22.1810808,6.99115044 24.3250293,11.5068319 24.6343602,17.7669381 C24.542782,17.6767434 24.4512037,17.5875398 24.3504677,17.4943717 L24.3504677,17.4943717 Z M15.3564665,17.8264071 C15.2211342,17.687646 15.0766441,17.5518584 14.9250312,17.4091327 L14.833453,17.3229027 C13.9909331,16.5289912 12.8268719,16.159292 11.1693057,16.159292 C9.53005508,16.159292 8.2042056,16.5686372 7.30368619,17.3129912 C8.42297585,11.8894159 12.5958912,7.96346903 18.1109366,7.15369912 C16.4584581,9.12906195 15.526395,13.3810973 15.3564665,17.8264071 L15.3564665,17.8264071 Z M35,19.7086018 C35,19.6897699 35,19.6699469 34.9989825,19.651115 C34.8544923,11.8656283 28.5223655,6 20.2457272,6 C12.4300328,6 6.30650086,11.8656283 6.00124005,19.6303009 C5.98699454,19.8215929 6.09688844,19.9990088 6.25867667,20.0951504 L6.25765913,20.0961416 L6.26885203,20.1030796 C6.27393971,20.1060531 6.27597478,20.1090265 6.28004493,20.1110088 L11.4694788,23.4016283 L12.0240359,22.5710442 L7.11951217,19.4608142 C7.63235034,17.4021947 10.0907174,17.1504425 11.1693057,17.1504425 C12.5460319,17.1504425 13.4842002,17.4319292 14.1252479,18.0355398 L14.2168261,18.1217699 C14.9199435,18.7818761 15.2709935,19.1129204 15.3310281,19.9791858 C15.3320456,19.9960354 15.3412035,20.0099115 15.3442561,20.0267611 C15.3473087,20.0436106 15.3473087,20.0624425 15.3503613,20.0773097 L16.0310929,22.5244602 L17.0130152,22.2657699 L16.3526343,19.8899823 L16.3567045,19.8295221 C16.5581766,18.0513982 17.866728,17.1504425 20.2457272,17.1504425 C21.283614,17.1504425 22.6837436,17.3040708 23.4591061,18.0355398 L23.6473503,18.2109735 C24.2568544,18.7789027 24.5641502,19.064354 24.6536934,19.8860177 L24.6536934,19.8929558 L23.9882248,22.2647788 L24.9701471,22.5254513 L25.656984,20.079292 C25.6651243,20.052531 25.6661418,20.0277522 25.6691944,20.0029735 C25.6702119,19.9950442 25.6752996,19.9881062 25.6752996,19.980177 C25.856421,17.4259823 28.6465049,17.1504425 29.8380396,17.1504425 C31.2096782,17.1504425 32.1468289,17.4319292 32.7868591,18.0355398 C33.4024684,18.6153628 33.8176231,19.051469 33.9315871,19.4836106 L29.552112,22.4540885 L30.1341426,23.2668319 L34.7822473,20.1149735 L34.7771596,20.1070442 C34.9084218,20.0178407 35,19.8761062 35,19.7086018 L35,19.7086018 Z" id="AWS-CodeDeploy_Icon_32_Squid" fill="#FFFFFF"></path>
    </g>
</svg>