<svg width="24px" height="24px" viewBox="0 0 24 24" version="1.1" xmlns="http://www.w3.org/2000/svg" xmlns:xlink="http://www.w3.org/1999/xlink">
    <g stroke="none" stroke-width="1" fill="none" fill-rule="evenodd">
        <path d="M13.8244559,16.2626034 L14.7806078,17.2183397 C14.8650802,17.2024656 14.9522235,17.1941628 15.041306,17.1941628 C15.8161165,17.1941628 16.4442246,17.8222708 16.4442246,18.5970814 C16.4442246,19.3718919 15.8161165,20 15.041306,20 C14.2664954,20 13.6383873,19.3718919 13.6383873,18.5970814 C13.6383873,18.5083626 13.6466225,18.4215673 13.6623702,18.3374181 L12.7060508,17.3810086 L13.8244559,16.2626034 Z M15.041306,4 C15.8161165,4 16.4442246,4.62810806 16.4442246,5.40291862 C16.4442246,6.17772919 15.8161165,6.80583725 15.041306,6.80583725 C14.9522235,6.80583725 14.8650802,6.79753438 14.7806078,6.7816603 L9.56220628,12 L11.9584467,14.3962404 L13.6080468,12.7472999 L14.7260285,13.8659411 L10.3236557,18.2688085 C10.3489017,18.3741132 10.3622722,18.4840358 10.3622722,18.5970814 C10.3622722,19.3718919 9.73416418,20 8.95935362,20 C8.18454305,20 7.55643499,19.3718919 7.55643499,18.5970814 C7.55643499,17.8222708 8.18454305,17.1941628 8.95935362,17.1941628 C9.02337029,17.1941628 9.08638551,17.1984505 9.14812776,17.2067545 L10.840465,15.5148817 L5.66357177,10.3374442 C5.57911344,10.3533127 5.49198531,10.3616127 5.40291862,10.3616127 C4.62810806,10.3616127 4,9.7335046 4,8.95869404 C4,8.18388348 4.62810806,7.55577541 5.40291862,7.55577541 C6.17772919,7.55577541 6.80583725,8.18388348 6.80583725,8.95869404 C6.80583725,9.04777654 6.79753438,9.1349198 6.7816603,9.21939217 L8.44356501,10.8813587 L10.840465,8.48511831 L9.14812776,6.79324552 C9.08638551,6.8015495 9.02337029,6.80583725 8.95935362,6.80583725 C8.18454305,6.80583725 7.55643499,6.17772919 7.55643499,5.40291862 C7.55643499,4.62810806 8.18454305,4 8.95935362,4 C9.73416418,4 10.3622722,4.62810806 10.3622722,5.40291862 C10.3622722,5.51596417 10.3489017,5.62588684 10.3236557,5.73119151 L11.9584467,7.36647704 L13.6623702,5.6625819 C13.6466225,5.57843272 13.6383873,5.49163739 13.6383873,5.40291862 C13.6383873,4.62810806 14.2664954,4 15.041306,4 Z M18.5970814,7.55577541 C19.3718919,7.55577541 20,8.18388348 20,8.95869404 C20,9.7335046 19.3718919,10.3616127 18.5970814,10.3616127 C18.4840358,10.3616127 18.3741132,10.3482421 18.2688085,10.3229961 L16.5919697,12 L18.2688085,13.6770039 C18.3741132,13.6517579 18.4840358,13.6383873 18.5970814,13.6383873 C19.3718919,13.6383873 20,14.2664954 20,15.041306 C20,15.8161165 19.3718919,16.4442246 18.5970814,16.4442246 C17.8222708,16.4442246 17.1941628,15.8161165 17.1941628,15.041306 C17.1941628,14.977429 17.1984318,14.9145491 17.2067002,14.852936 L12.7057466,10.3510594 L13.8243878,9.23241817 L15.4733284,10.8813587 L17.2067002,9.14706397 C17.1984318,9.08545092 17.1941628,9.02257102 17.1941628,8.95869404 C17.1941628,8.18388348 17.8222708,7.55577541 18.5970814,7.55577541 Z M6.57790131,12.7469213 L7.6963065,13.8653265 L6.7816603,14.7806078 C6.79753438,14.8650802 6.80583725,14.9522235 6.80583725,15.041306 C6.80583725,15.8161165 6.17772919,16.4442246 5.40291862,16.4442246 C4.62810806,16.4442246 4,15.8161165 4,15.041306 C4,14.2664954 4.62810806,13.6383873 5.40291862,13.6383873 C5.49163739,13.6383873 5.57843272,13.6466225 5.6625819,13.6623702 L6.57790131,12.7469213 Z" fill="#4285F4" fill-rule="nonzero"></path>
    </g>
</svg>