<?xml version="1.0" encoding="UTF-8"?>
<svg width="64px" height="64px" viewBox="0 0 64 64" version="1.1" xmlns="http://www.w3.org/2000/svg" xmlns:xlink="http://www.w3.org/1999/xlink">
    <!-- Generator: Sketch 64 (93537) - https://sketch.com -->
    <title>Icon-Architecture/48/Arch_AWS-Braket_48</title>
    <desc>Created with Sketch.</desc>
    <defs>
        <linearGradient x1="0%" y1="100%" x2="100%" y2="0%" id="linearGradient-1">
            <stop stop-color="#C8511B" offset="0%"></stop>
            <stop stop-color="#FF9900" offset="100%"></stop>
        </linearGradient>
    </defs>
    <g id="Icon-Architecture/48/Arch_AWS-Braket_48" stroke="none" stroke-width="1" fill="none" fill-rule="evenodd">
        <g id="Icon-Architecture-BG/48/Compute" fill="url(#linearGradient-1)">
            <rect id="Rectangle" x="0" y="0" width="64" height="64"></rect>
        </g>
        <path d="M40.4169089,37.4237554 C40.4169089,35.7697554 39.0709089,34.4237554 37.4169089,34.4237554 C35.7629089,34.4237554 34.4169089,35.7697554 34.4169089,37.4237554 C34.4169089,39.0777554 35.7629089,40.4237554 37.4169089,40.4237554 C39.0709089,40.4237554 40.4169089,39.0777554 40.4169089,37.4237554 L40.4169089,37.4237554 Z M41.5209089,34.5807554 C42.0829089,35.3887554 42.4169089,36.3667554 42.4169089,37.4237554 C42.4169089,40.1807554 40.1739089,42.4237554 37.4169089,42.4237554 C36.3579089,42.4237554 35.3799089,42.0887554 34.5709089,41.5257554 C27.2489089,48.2257554 19.0479089,53.8397554 14.4359089,53.8397554 C13.3939089,53.8397554 12.5349089,53.5537554 11.9109089,52.9297554 C10.6709089,51.6897554 10.7049089,49.4957554 11.9639089,46.4237554 L14.1349089,46.4237554 C12.7859089,49.3657554 12.7889089,50.9797554 13.3249089,51.5157554 C14.8349089,53.0237554 22.5289089,49.8307554 33.1919089,40.0707554 C32.7079089,39.3007554 32.4169089,38.3987554 32.4169089,37.4237554 C32.4169089,34.6667554 34.6599089,32.4237554 37.4169089,32.4237554 C38.3919089,32.4237554 39.2959089,32.7157554 40.0649089,33.1997554 C49.8229089,22.5347554 53.0089089,14.8317554 51.5089089,13.3317554 C50.9929089,12.8167554 49.3759089,12.7967554 46.4169089,14.1477554 L46.4169089,11.9597554 C49.4979089,10.6957554 51.6849089,10.6787554 52.9229089,11.9177554 C56.3079089,15.3017554 49.7149089,25.6237554 41.5209089,34.5807554 L41.5209089,34.5807554 Z M47.4169089,30.4257554 C46.7759089,31.2357554 46.1129089,31.9787554 45.4169089,32.7997554 L45.4169089,45.4237554 L32.7539089,45.4237554 C31.9799089,46.0787554 31.2629089,46.7517554 30.4169089,47.4237554 L30.4169089,52.4237554 L32.4169089,52.4237554 L32.4169089,47.4237554 L35.4169089,47.4237554 L35.4169089,52.4237554 L37.4169089,52.4237554 L37.4169089,47.4237554 L40.4169089,47.4237554 L40.4169089,52.4237554 L42.4169089,52.4237554 L42.4169089,47.4237554 L46.4169089,47.4237554 C46.9699089,47.4237554 47.4169089,46.9757554 47.4169089,46.4237554 L47.4169089,42.4237554 L52.4169089,42.4237554 L52.4169089,40.4237554 L47.4169089,40.4237554 L47.4169089,37.4237554 L52.4169089,37.4237554 L52.4169089,35.4237554 L47.4169089,35.4237554 L47.4169089,32.4237554 L52.4169089,32.4237554 L52.4169089,30.4237554 L47.4169089,30.4237554 L47.4169089,30.4257554 Z M17.4169089,42.4237554 L12.4169089,42.4237554 L12.4169089,40.4237554 L17.4169089,40.4237554 L17.4169089,37.4237554 L12.4169089,37.4237554 L12.4169089,35.4237554 L17.4169089,35.4237554 L17.4169089,32.4237554 L12.4169089,32.4237554 L12.4169089,30.4237554 L17.4169089,30.4237554 L17.4169089,27.4237554 L12.4169089,27.4237554 L12.4169089,25.4237554 L17.4169089,25.4237554 L17.4169089,22.4237554 L12.4169089,22.4237554 L12.4169089,20.4237554 L17.4169089,20.4237554 L17.4169089,18.4237554 C17.4169089,17.8717554 17.8639089,17.4237554 18.4169089,17.4237554 L20.4169089,17.4237554 L20.4169089,12.4237554 L22.4169089,12.4237554 L22.4169089,17.4237554 L25.4169089,17.4237554 L25.4169089,12.4237554 L27.4169089,12.4237554 L27.4169089,17.4237554 L30.4169089,17.4237554 L30.4169089,12.4237554 L32.4169089,12.4237554 L32.4169089,17.4237554 L35.4169089,17.4237554 L35.4169089,12.4237554 L37.4169089,12.4237554 L37.4169089,17.4237554 L40.4169089,17.4237554 L40.4169089,12.4237554 L42.4169089,12.4237554 L42.4169089,17.4237554 L46.4169089,17.4237554 C46.9699089,17.4237554 47.4169089,17.8717554 47.4169089,18.4237554 L47.4169089,20.8187554 C46.8429089,21.7577554 46.1829089,22.7697554 45.4169089,23.8547554 L45.4169089,19.4237554 L19.4169089,19.4237554 L19.4169089,45.4237554 L23.8479089,45.4237554 C22.7629089,46.1897554 21.7509089,46.8497554 20.8119089,47.4237554 L18.4169089,47.4237554 C17.8639089,47.4237554 17.4169089,46.9757554 17.4169089,46.4237554 L17.4169089,42.4237554 Z" id="AWS-Braket_Icon_48_Squid" fill="#FFFFFF"></path>
    </g>
</svg>