<svg width="24px" height="24px" viewBox="0 0 24 24" version="1.1" xmlns="http://www.w3.org/2000/svg" xmlns:xlink="http://www.w3.org/1999/xlink">
    <g stroke="none" stroke-width="1" fill="none" fill-rule="evenodd">
        <g transform="translate(2.000000, 2.000000)" fill="#4285F4">
            <path d="M10.346494,3.74811293e-13 C11.0558919,3.74811293e-13 11.6561001,0.393257293 12.1463703,1.05722297 C12.545754,1.59810241 12.8906844,2.34424015 13.1766575,3.25989455 C13.7389373,5.0602526 14.0566038,7.46502511 14.0566038,10.0235849 C14.0566038,12.5821447 13.7389373,14.9869172 13.1766575,16.7872753 C12.8906844,17.7029297 12.545754,18.4490674 12.1463703,18.9899468 C11.6561001,19.6539125 11.0558919,20.0471698 10.346494,20.0471698 C8.72332981,20.0471698 7.71939051,18.6289665 7.18391951,16.2085035 C7.16763434,16.1348905 7.16352632,16.061587 7.1703186,15.9903838 L8.80030207,15.9906287 C9.02021233,16.9694558 9.29621728,17.9312563 9.60329039,18.2496177 C9.80793547,18.4617857 10.0156954,18.5377358 10.346494,18.5377358 C10.3525053,18.5377358 10.3600292,18.5365147 10.3722666,18.5325354 C10.3950863,18.5251152 10.4240204,18.5109595 10.4588816,18.4881184 C10.5594824,18.4222046 10.6765815,18.3055866 10.8002002,18.1381716 C11.0884945,17.7477389 11.3684471,17.1421582 11.6102121,16.3680533 C12.12669,14.7143481 12.4260072,12.4484812 12.4260072,10.0235849 C12.4260072,7.5986886 12.12669,5.33282174 11.6102121,3.67911654 C11.3684471,2.90501164 11.0884945,2.29943089 10.8002002,1.90899817 C10.6765815,1.74158318 10.5594824,1.62496519 10.4588816,1.55905144 C10.4240204,1.53621032 10.3950863,1.52205463 10.3722666,1.51463437 C10.3600292,1.51065511 10.3525053,1.50943396 10.346494,1.50943396 C10.0809615,1.50943396 9.84647729,1.634002 9.59030056,1.97294969 C9.26394433,2.40475194 8.97946101,3.11005339 8.75982164,4.10291376 L7.09890062,4.10249714 C7.36411395,2.76995886 7.74433512,1.78229785 8.25423786,1.10764503 C8.80249145,0.382250163 9.52203091,3.74811293e-13 10.346494,3.74811293e-13 Z M10.5660377,12.5 L10.5660377,14.009434 L2.64150943,14.009434 C2.22469075,14.009434 1.88679245,13.6715357 1.88679245,13.254717 C1.88679245,12.8378983 2.22469075,12.5 2.64150943,12.5 L10.5660377,12.5 Z M19.245283,10.8962669 C19.6621017,10.8962669 20,11.2341652 20,11.6509839 C20,12.0678025 19.6621017,12.4057008 19.245283,12.4057008 L15.5018248,12.4066389 C15.5638331,11.915011 15.6081639,11.4104043 15.6339123,10.8966965 L19.245283,10.8962669 Z M10.5660377,9.29245283 L10.5660377,10.8018868 L0.754716981,10.8018868 C0.337898302,10.8018868 -1.89337682e-14,10.4639885 -1.86517468e-14,10.0471698 C-1.87027924e-14,9.63035113 0.337898302,9.29245283 0.754716981,9.29245283 L10.5660377,9.29245283 Z M15.5506141,7.68763695 L19.245283,7.68871971 C19.6621017,7.68871971 20,8.02661801 20,8.44343669 C20,8.82552048 19.7160716,9.14128923 19.3476936,9.19126399 L19.245283,9.19815367 L15.6508837,9.19777015 C15.6355715,8.68528869 15.601857,8.18066214 15.5506141,7.68763695 Z M10.5660377,6.08490566 L10.5660377,7.59433962 L2.64150943,7.59433962 C2.22469075,7.59433962 1.88679245,7.25644132 1.88679245,6.83962264 C1.88679245,6.45753885 2.17072089,6.1417701 2.53909881,6.09179534 L2.64150943,6.08490566 L10.5660377,6.08490566 Z" ></path>
        </g>
    </g>
</svg>