<?xml version="1.0" encoding="UTF-8"?>
<svg width="24px" height="24px" viewBox="0 0 24 24" version="1.1" xmlns="http://www.w3.org/2000/svg" xmlns:xlink="http://www.w3.org/1999/xlink">
    <title>Icon-Architecture/16/Arch_Amazon-WorkDocs_16</title>
    <defs>
        <linearGradient x1="0%" y1="100%" x2="100%" y2="0%" id="linearGradient-1">
            <stop stop-color="#BD0816" offset="0%"></stop>
            <stop stop-color="#FF5252" offset="100%"></stop>
        </linearGradient>
    </defs>
    <g id="Icon-Architecture/16/Arch_Amazon-WorkDocs_16" stroke="none" stroke-width="1" fill="none" fill-rule="evenodd">
        <g id="Rectangle" fill="url(#linearGradient-1)">
            <rect x="0" y="0" width="24" height="24"></rect>
        </g>
        <g id="Icon-Service/16/Amazon-WorkDocs" transform="translate(4.000000, 4.000000)" fill="#FFFFFF">
            <path d="M4.51750533,7.96887941 L6.52528548,7.96887941 L6.52528548,6.96498933 L4.51750533,6.96498933 L4.51750533,7.96887941 Z M7.95281717,13.5685782 L8.95670724,13.5685782 L8.95670724,11.5607981 L7.95281717,11.5607981 L7.95281717,13.5685782 Z M7.95281717,7.5452378 L7.95281717,9.55301794 L8.95670724,9.55301794 L8.95670724,7.96887941 L14.9961099,7.96887941 L14.9961099,14.9961099 L1.00389007,14.9961099 L1.00389007,7.96887941 L2.50972519,7.96887941 L2.50972519,6.96498933 L1.00389007,6.96498933 L1.00389007,1.00389007 L7.95281717,1.00389007 L7.95281717,7.46693437 L7.95281717,7.5452378 Z M8.95670724,1.70460535 L14.2763207,6.96498933 L8.95670724,6.96498933 L8.95670724,1.70460535 Z M16,7.46693437 C16,7.33542477 15.9488016,7.20592295 15.8504204,7.1095495 L8.80712762,0.145564061 C8.71175806,0.0501945037 8.58426402,0 8.4547622,0 L0.501945037,0 C0.224871377,0 0,0.224871377 0,0.501945037 L0,15.498055 C0,15.7751286 0.224871377,16 0.501945037,16 L15.498055,16 C15.7751286,16 16,15.7751286 16,15.498055 L16,7.46693437 Z" id="Amazon-WorkDocs_Icon_16_Squid"></path>
        </g>
    </g>
</svg>