<?xml version="1.0" encoding="UTF-8"?>
<svg width="24px" height="24px" viewBox="0 0 24 24" version="1.1" xmlns="http://www.w3.org/2000/svg" xmlns:xlink="http://www.w3.org/1999/xlink">
    <title>Icon-Architecture/16/Arch_Amazon-Pinpoint-APIs_16</title>
    <defs>
        <linearGradient x1="0%" y1="100%" x2="100%" y2="0%" id="linearGradient-1">
            <stop stop-color="#BD0816" offset="0%"></stop>
            <stop stop-color="#FF5252" offset="100%"></stop>
        </linearGradient>
    </defs>
    <g id="Icon-Architecture/16/Arch_Amazon-Pinpoint-APIs_16" stroke="none" stroke-width="1" fill="none" fill-rule="evenodd">
        <g id="Rectangle" fill="url(#linearGradient-1)">
            <rect x="0" y="0" width="24" height="24"></rect>
        </g>
        <g id="Icon-Service/16/Amazon-Pinpoint" transform="translate(4.000000, 4.000000)" fill="#FFFFFF">
            <path d="M13.0513626,2.48364207 C13.0513626,2.75290424 13.2703755,2.97092622 13.5386161,2.97092622 C13.8078614,2.97092622 14.0268743,2.75290424 14.0268743,2.48364207 C14.0268743,2.21437991 13.8078614,1.99635793 13.5386161,1.99635793 C13.2703755,1.99635793 13.0513626,2.21437991 13.0513626,2.48364207 L13.0513626,2.48364207 Z M10.4684164,6.24125589 L8.35464021,8.35516484 L7.64435514,7.64483516 L9.75813136,5.53092622 C9.26083134,5.17626374 8.6570388,4.9622606 8.00100465,4.9622606 C6.32625895,4.9622606 4.96395831,6.32464678 4.96395831,7.99849294 C4.96395831,9.6733438 6.32625895,11.0347253 8.00100465,11.0347253 C9.67575035,11.0347253 11.0370463,9.6733438 11.0370463,7.99849294 C11.0370463,7.34241758 10.8230566,6.73858713 10.4684164,6.24125589 L10.4684164,6.24125589 Z M11.9080748,4.80050235 L11.1787015,5.53193093 C11.7111641,6.21613815 12.0416928,7.06612245 12.0416928,7.99849294 C12.0416928,10.2269388 10.2283059,12.0394349 8.00100465,12.0394349 C5.77269873,12.0394349 3.95931182,10.2269388 3.95931182,7.99849294 C3.95931182,5.7700471 5.77269873,3.95755102 8.00100465,3.95755102 C8.93331659,3.95755102 9.78224287,4.28810047 10.4674118,4.82160126 L11.1977898,4.09117739 C10.3227427,3.37281005 9.21863619,2.92370487 8.00100465,2.92370487 C5.20306417,2.92370487 2.92653523,5.20037677 2.92653523,7.99849294 C2.92653523,10.7966091 5.20306417,13.0742857 8.00100465,13.0742857 C10.7989451,13.0742857 13.0754741,10.7966091 13.0754741,7.99849294 C13.0754741,6.78078493 12.6263971,5.67660911 11.9080748,4.80050235 L11.9080748,4.80050235 Z M12.1853573,3.10354788 C12.0989577,2.91365777 12.0467161,2.70568289 12.0467161,2.48364207 C12.0467161,1.66078493 12.7158106,0.991648352 13.5386161,0.991648352 C14.3624262,0.991648352 15.0315208,1.66078493 15.0315208,2.48364207 C15.0315208,3.30649922 14.3624262,3.97563579 13.5386161,3.97563579 C13.3055381,3.97563579 13.0865252,3.91635793 12.8896145,3.82091052 L12.6364436,4.07409733 C13.5345975,5.13406593 14.0801206,6.50248038 14.0801206,7.99849294 C14.0801206,11.3512088 11.35351,14.0789953 8.00100465,14.0789953 C4.64950396,14.0789953 1.92188874,11.3512088 1.92188874,7.99849294 C1.92188874,4.64577708 4.64950396,1.91899529 8.00100465,1.91899529 C9.49692327,1.91899529 10.8652518,2.46455259 11.9261585,3.36276295 L12.1853573,3.10354788 Z M16,7.99949765 C16,12.4111774 12.4103981,16 8,16 C3.58859726,16 0,12.4111774 0,7.99949765 C0,3.58882261 3.58859726,0 8,0 C9.11917619,0 10.2041944,0.227064364 11.2229059,0.677174254 L10.8160241,1.59648352 C9.92691197,1.20364207 8.97852568,1.00470958 8,1.00470958 C4.14316212,1.00470958 1.00464649,4.14241758 1.00464649,7.99949765 C1.00464649,11.8565777 4.14316212,14.9952904 8,14.9952904 C11.8568379,14.9952904 14.9953535,11.8565777 14.9953535,7.99949765 C14.9953535,7.01789639 14.7964335,6.07547881 14.4066307,5.19736264 L15.3248776,4.78945055 C15.7719452,5.79616954 16,6.87623234 16,7.99949765 L16,7.99949765 Z" id="Amazon-Pinpoint-Icon_16_Squid"></path>
        </g>
    </g>
</svg>