<?xml version="1.0" encoding="UTF-8"?>
<svg width="24px" height="24px" viewBox="0 0 24 24" version="1.1" xmlns="http://www.w3.org/2000/svg" xmlns:xlink="http://www.w3.org/1999/xlink">
    <title>Icon-Architecture/16/Arch_Amazon-Simple-Email-Service_16</title>
    <defs>
        <linearGradient x1="0%" y1="100%" x2="100%" y2="0%" id="linearGradient-1">
            <stop stop-color="#BD0816" offset="0%"></stop>
            <stop stop-color="#FF5252" offset="100%"></stop>
        </linearGradient>
    </defs>
    <g id="Icon-Architecture/16/Arch_Amazon-Simple-Email-Service_16" stroke="none" stroke-width="1" fill="none" fill-rule="evenodd">
        <g id="Rectangle" fill="url(#linearGradient-1)">
            <rect x="0" y="0" width="24" height="24"></rect>
        </g>
        <path d="M16.0318795,12.5461162 L16.0318795,9.45413477 L13.7767179,10.8886937 L16.0318795,12.5461162 Z M8.99629746,13.0360146 L15.0037025,13.0360146 L12.8680264,11.4669344 L12.2695952,11.8474087 C12.1872607,11.899611 12.0938814,11.9257121 11.999498,11.9257121 C11.9061186,11.9257121 11.8127393,11.899611 11.7304048,11.8474087 L11.1319736,11.4669344 L8.99629746,13.0360146 Z M7.96812049,9.45413477 L7.96812049,12.5461162 L10.2232821,10.8886937 L7.96812049,9.45413477 Z M14.8099153,9.04153595 L9.19008472,9.04153595 L11.999498,10.8294642 L14.8099153,9.04153595 Z M16.0318795,17.7904379 C16.0318795,17.4661815 15.7878883,17.2212323 15.4635708,17.2212323 C15.1382491,17.2212323 14.8932538,17.4661815 14.8932538,17.7904379 C14.8932538,18.1146944 15.1382491,18.3596436 15.4635708,18.3596436 C15.7878883,18.3596436 16.0318795,18.1146944 16.0318795,17.7904379 L16.0318795,17.7904379 Z M12.608974,18.4248965 C12.608974,18.1116828 12.3348604,17.8566947 11.999498,17.8566947 C11.6641356,17.8566947 11.391026,18.1116828 11.391026,18.4248965 C11.391026,18.740118 11.6641356,18.9961099 11.999498,18.9961099 C12.3348604,18.9961099 12.608974,18.740118 12.608974,18.4248965 L12.608974,18.4248965 Z M9.03846878,17.7904379 C9.03846878,17.4661815 8.79447757,17.2212323 8.47016003,17.2212323 C8.14584249,17.2212323 7.90084719,17.4661815 7.90084719,17.7904379 C7.90084719,18.1146944 8.14584249,18.3596436 8.47016003,18.3596436 C8.79447757,18.3596436 9.03846878,18.1146944 9.03846878,17.7904379 L9.03846878,17.7904379 Z M17.0359586,8.53959091 L17.0359586,13.5379596 C17.0359586,13.8150333 16.8110449,14.0399046 16.533919,14.0399046 L12.5015375,14.0399046 L12.5015375,14.9644874 L15.4635708,14.9644874 C15.7406966,14.9644874 15.9656103,15.1893588 15.9656103,15.4664324 L15.9656103,16.3046806 C16.5921556,16.5104781 17.0359586,17.0857071 17.0359586,17.7904379 C17.0359586,18.6728573 16.3451522,19.3635337 15.4635708,19.3635337 C14.5809853,19.3635337 13.8891748,18.6728573 13.8891748,17.7904379 C13.8891748,17.0857071 14.3339818,16.5104781 14.9615312,16.3036767 L14.9615312,15.9683775 L12.5015375,15.9683775 L12.5015375,16.9381353 C13.1451522,17.1459405 13.613053,17.7302045 13.613053,18.4248965 C13.613053,19.2932614 12.889112,20 11.999498,20 C11.110888,20 10.386947,19.2932614 10.386947,18.4248965 C10.386947,17.7302045 10.8548478,17.1459405 11.4974584,16.9381353 L11.4974584,15.9683775 L8.97219956,15.9683775 L8.97219956,16.3046806 C9.5987449,16.5104781 10.0425479,17.0857071 10.0425479,17.7904379 C10.0425479,18.6728573 9.35174145,19.3635337 8.47016003,19.3635337 C7.5885786,19.3635337 6.89676812,18.6728573 6.89676812,17.7904379 C6.89676812,17.0857071 7.34157515,16.5104781 7.96812049,16.3046806 L7.96812049,15.4664324 C7.96812049,15.1893588 8.19203012,14.9644874 8.47016003,14.9644874 L11.4974584,14.9644874 L11.4974584,14.0399046 L7.46608095,14.0399046 C7.18795105,14.0399046 6.96404142,13.8150333 6.96404142,13.5379596 L6.96404142,8.53959091 C6.96404142,8.26151336 7.18795105,8.03764588 7.46608095,8.03764588 L16.533919,8.03764588 C16.8110449,8.03764588 17.0359586,8.26151336 17.0359586,8.53959091 L17.0359586,8.53959091 Z M20,12 C20,13.4827456 19.4176341,15.2465805 18.4426734,16.7192872 L17.6052714,16.1651399 C18.476812,14.8500439 18.9959209,13.2930104 18.9959209,12 C18.9959209,8.14205045 15.8571698,5.00389007 11.999498,5.00389007 C8.14283025,5.00389007 5.00407907,8.14205045 5.00407907,12 C5.00407907,13.287991 5.52318795,14.8460284 6.39372451,16.1651399 L5.55632256,16.7182833 C4.58236586,15.241561 4,13.4767223 4,12 C4,7.58890701 7.5885786,4 11.999498,4 C16.4114214,4 20,7.58890701 20,12 L20,12 Z" id="Amazon-Simple-Email-Service_Icon_16_Squid" fill="#FFFFFF"></path>
    </g>
</svg>