<?xml version="1.0" encoding="UTF-8"?>
<svg width="24px" height="24px" viewBox="0 0 24 24" version="1.1" xmlns="http://www.w3.org/2000/svg" xmlns:xlink="http://www.w3.org/1999/xlink">
    <title>Icon-Architecture/16/Arch_Amazon-Connect_16</title>
    <defs>
        <linearGradient x1="0%" y1="100%" x2="100%" y2="0%" id="linearGradient-1">
            <stop stop-color="#BD0816" offset="0%"></stop>
            <stop stop-color="#FF5252" offset="100%"></stop>
        </linearGradient>
    </defs>
    <g id="Icon-Architecture/16/Arch_Amazon-Connect_16" stroke="none" stroke-width="1" fill="none" fill-rule="evenodd">
        <g id="Rectangle" fill="url(#linearGradient-1)">
            <rect x="0" y="0" width="24" height="24"></rect>
        </g>
        <path d="M16,10.596026 C16,11.1381862 15.552,11.5799827 15,11.5799827 C14.914,11.5799827 14.836,11.551448 14.756,11.5317688 L13.451,12.8158323 C13.472,12.8945488 13.5,12.9712974 13.5,13.0559177 C13.5,13.5980779 13.052,14.0398744 12.5,14.0398744 C11.948,14.0398744 11.5,13.5980779 11.5,13.0559177 C11.5,12.9712974 11.528,12.8945488 11.549,12.8158323 L9.5,10.7997051 L7.951,12.323854 C7.972,12.4025705 8,12.4793191 8,12.5639394 C8,13.1060995 7.552,13.5478961 7,13.5478961 C6.448,13.5478961 6,13.1060995 6,12.5639394 C6,12.0217793 6.448,11.5799827 7,11.5799827 C7.086,11.5799827 7.164,11.6085175 7.244,11.6281966 L8.71,10.1857161 C8.587,10.0223793 8.5,9.83050774 8.5,9.61206936 C8.5,9.06990923 8.948,8.62811268 9.5,8.62811268 C10.052,8.62811268 10.5,9.06990923 10.5,9.61206936 C10.5,9.83050774 10.413,10.0223793 10.29,10.1857161 L12.256,12.1201749 C12.336,12.1004958 12.414,12.071961 12.5,12.071961 C12.586,12.071961 12.664,12.1004958 12.744,12.1201749 L14.049,10.8361115 C14.028,10.7573949 14,10.6806463 14,10.596026 C14,10.0538659 14.448,9.61206936 15,9.61206936 C15.552,9.61206936 16,10.0538659 16,10.596026 M16.5,14.5318527 L14.5,14.5318527 C14.396,14.5318527 14.296,14.5633394 14.211,14.6223768 L10,17.5565356 L10,15.0238311 C10,14.752259 9.776,14.5318527 9.5,14.5318527 L7.01,14.5318527 C6.884,14.5318527 6.698,14.5082378 6.535,14.3970507 L6.428,14.3242379 C5.737,13.8607943 5,13.2861636 5,12.3376294 C5,10.4858229 6.983,9.75277516 7.067,9.72227251 C7.265,9.65142763 7.397,9.46644377 7.397,9.25981287 C7.397,8.05249803 8.209,6.70841321 9.207,6.26268084 C9.657,6.06195367 10.073,5.98225318 10.451,5.98225318 C11.531,5.98225318 12.296,6.63560042 12.63,6.98884086 C13,7.38045562 13.302,7.90392057 13.502,8.50315019 C13.561,8.68026239 13.718,8.80916071 13.905,8.83572754 C14.101,8.86327833 14.28,8.78259388 14.389,8.62811268 C14.64,8.2689685 15.069,8.10858356 15.457,8.22665836 C15.941,8.37523582 16.23,8.90657242 16.23,9.61502123 C16.196,9.87478579 16.375,10.1148712 16.636,10.1621011 C17.19,10.2624647 19,10.7180367 19,12.3602604 C19,14.343917 16.571,14.525949 16.5,14.5318527 M17.212,9.28145992 C17.092,8.11153543 16.403,7.48573898 15.754,7.28697974 C15.214,7.12265897 14.639,7.20727925 14.168,7.49853042 C13.95,7.04984618 13.681,6.65527955 13.362,6.31876637 C12.117,5.00124838 10.411,4.64505606 8.793,5.36728026 C7.521,5.93600722 6.539,7.42768554 6.411,8.93018738 C5.689,9.27162035 4,10.2890316 4,12.3376294 C4,13.8853932 5.259,14.7315959 5.864,15.1369861 L5.965,15.2048791 C6.263,15.4085581 6.624,15.5158094 7.01,15.5158094 L9,15.5158094 L9,18.5080217 C9,18.6920216 9.104,18.8602782 9.271,18.9448984 C9.343,18.9813048 9.422,19 9.5,19 C9.602,19 9.703,18.9694973 9.789,18.909476 L14.659,15.5158094 L16.531,15.5148255 C17.73,15.4420127 20,14.6892858 20,12.3602604 C20,10.6137373 18.624,9.64650784 17.212,9.28145992" id="Amazon-Connect_Icon_16_Squid" fill="#FFFFFF"></path>
    </g>
</svg>