<?xml version="1.0" encoding="UTF-8"?>
<svg width="40px" height="40px" viewBox="0 0 40 40" version="1.1" xmlns="http://www.w3.org/2000/svg" xmlns:xlink="http://www.w3.org/1999/xlink">
    <title>Icon-Architecture/32/Arch_AWS-Marketplace_Dark_32</title>
    <g id="Icon-Architecture/32/Arch_AWS-Marketplace_Dark_32" stroke="none" stroke-width="1" fill="none" fill-rule="evenodd">
        <rect id="Rectangle" fill="#FFFFFF" x="0" y="0" width="40" height="40"></rect>
        <g id="Fill-6" transform="translate(4.000000, 4.000000)" fill="#232F3D">
            <path d="M19.49,27.5600021 C18.938,27.5600021 18.49,27.1110021 18.49,26.5600021 C18.49,26.0090021 18.938,25.5600021 19.49,25.5600021 C20.042,25.5600021 20.49,26.0090021 20.49,26.5600021 C20.49,27.1110021 20.042,27.5600021 19.49,27.5600021 L19.49,27.5600021 Z M24.485,11.0770021 C24.247,11.0770021 24.043,11.2450021 23.995,11.4780021 L21.845,22.0770021 L6.9,22.0770021 L5.48,14.9790021 L4.5,15.1750021 L6,22.6750021 C6.047,22.9090021 6.252,23.0770021 6.49,23.0770021 L20.103,23.0770021 L19.189,24.5900021 C18.23,24.7370021 17.49,25.5600021 17.49,26.5600021 C17.49,27.6630021 18.387,28.5600021 19.49,28.5600021 C20.593,28.5600021 21.49,27.6630021 21.49,26.5600021 C21.49,25.7370021 20.99,25.0290021 20.278,24.7230021 L21.272,23.0770021 L22.255,23.0770021 C22.493,23.0770021 22.697,22.9100021 22.745,22.6760021 L24.894,12.0770021 L28.99,12.0770021 L28.99,11.0770021 L24.485,11.0770021 Z M10.489,27.5600021 C9.937,27.5600021 9.489,27.1110021 9.489,26.5600021 C9.489,26.0090021 9.937,25.5600021 10.489,25.5600021 C11.041,25.5600021 11.489,26.0090021 11.489,26.5600021 C11.489,27.1110021 11.041,27.5600021 10.489,27.5600021 L10.489,27.5600021 Z M10.489,24.5600021 C9.386,24.5600021 8.489,25.4570021 8.489,26.5600021 C8.489,27.6630021 9.386,28.5600021 10.489,28.5600021 C11.592,28.5600021 12.489,27.6630021 12.489,26.5600021 C12.489,25.4570021 11.592,24.5600021 10.489,24.5600021 L10.489,24.5600021 Z M10.49,5.07800213 L13.483,6.80600213 L10.49,8.50200213 L7.497,6.80600213 L10.49,5.07800213 Z M18.508,5.07600213 L21.477,6.76200213 L18.486,8.54000213 L15.492,6.81100213 L18.508,5.07600213 Z M18.99,12.6840021 L18.99,9.40400213 L21.972,7.63100213 L21.972,11.1400021 L18.99,12.6840021 Z M14.99,19.6210021 L14.99,16.0700021 L17.99,14.3650021 L17.99,17.7790021 L14.99,19.6210021 Z M10.99,14.5550021 L13.99,16.0850021 L13.99,19.6210021 L10.99,17.7790021 L10.99,14.5550021 Z M13.99,11.1400021 L10.99,12.8720021 L10.99,9.36800213 L13.99,7.66800213 L13.99,11.1400021 Z M17.99,12.6830021 L14.99,11.1250021 L14.99,7.67600213 L17.99,9.40800213 L17.99,12.6830021 Z M14.477,15.2110021 L11.537,13.7110021 L14.503,11.9990021 L17.443,13.5260021 L14.477,15.2110021 Z M6.99,7.66800213 L9.99,9.36800213 L9.99,12.8720021 L6.99,11.1400021 L6.99,7.66800213 Z M9.99,14.0270021 L9.99,18.0590021 C9.99,18.2330021 10.08,18.3940021 10.228,18.4850021 L14.228,20.9410021 C14.308,20.9900021 14.399,21.0150021 14.49,21.0150021 C14.581,21.0150021 14.672,20.9900021 14.752,20.9410021 L18.752,18.4850021 C18.9,18.3940021 18.99,18.2330021 18.99,18.0590021 L18.99,13.8100021 L22.702,11.8880021 C22.868,11.8020021 22.972,11.6310021 22.972,11.4440021 L22.972,6.75200213 C22.972,6.57200213 22.876,6.40600213 22.719,6.31700213 L18.753,4.06500213 C18.597,3.97800213 18.41,3.97800213 18.257,4.06700213 L14.49,6.23300213 L10.74,4.06700213 C10.586,3.97800213 10.394,3.97800213 10.24,4.06700213 L6.24,6.37700213 C6.086,6.46600213 5.99,6.63100213 5.99,6.81000213 L5.99,11.4290021 C5.99,11.6070021 6.086,11.7720021 6.24,11.8620021 L9.99,14.0270021 Z"></path>
        </g>
    </g>
</svg>