<?xml version="1.0" encoding="UTF-8"?>
<svg width="64px" height="64px" viewBox="0 0 64 64" version="1.1" xmlns="http://www.w3.org/2000/svg" xmlns:xlink="http://www.w3.org/1999/xlink">
    <!-- Generator: Sketch 64 (93537) - https://sketch.com -->
    <title>Icon-Architecture/48/Arch_AWS-Sumerian_48</title>
    <desc>Created with Sketch.</desc>
    <defs>
        <linearGradient x1="0%" y1="100%" x2="100%" y2="0%" id="linearGradient-1">
            <stop stop-color="#B0084D" offset="0%"></stop>
            <stop stop-color="#FF4F8B" offset="100%"></stop>
        </linearGradient>
    </defs>
    <g id="Icon-Architecture/48/Arch_AWS-Sumerian_48" stroke="none" stroke-width="1" fill="none" fill-rule="evenodd">
        <g id="Icon-Architecture-BG/48/AR-VR" fill="url(#linearGradient-1)">
            <rect id="Rectangle" x="0" y="0" width="64" height="64"></rect>
        </g>
        <path d="M52,15 C52,13.346 50.654,12 49,12 C47.346,12 46,13.346 46,15 C46,16.654 47.346,18 49,18 C50.654,18 52,16.654 52,15 L52,15 Z M54,15 C54,17.757 51.757,20 49,20 C46.243,20 44,17.757 44,15 C44,12.243 46.243,10 49,10 C51.757,10 54,12.243 54,15 L54,15 Z M44.868,49.087 C44.868,47.398 43.566,46.076 41.905,46.076 C40.244,46.076 38.943,47.398 38.943,49.087 C38.943,50.748 40.217,52 41.905,52 C43.595,52 44.868,50.748 44.868,49.087 L44.868,49.087 Z M46.868,49.087 C46.868,51.842 44.688,54 41.905,54 C39.123,54 36.943,51.842 36.943,49.087 C36.943,46.324 39.169,44.076 41.905,44.076 C44.642,44.076 46.868,46.324 46.868,49.087 L46.868,49.087 Z M15,26 C16.654,26 18,24.654 18,23 C18,21.346 16.654,20 15,20 C13.346,20 12,21.346 12,23 C12,24.654 13.346,26 15,26 L15,26 Z M15,28 C12.243,28 10,25.757 10,23 C10,20.243 12.243,18 15,18 C17.757,18 20,20.243 20,23 C20,25.757 17.757,28 15,28 L15,28 Z M27.069,34.036 L24.547,35.66 L25.629,37.342 L28.151,35.717 L27.069,34.036 Z M23.107,38.967 L22.025,37.285 L19.503,38.91 L20.585,40.591 L23.107,38.967 Z M44.789,39.097 L41.427,36.931 L40.343,38.613 L43.705,40.779 L44.789,39.097 Z M35.542,33.14 L34.458,34.822 L37.82,36.988 L38.904,35.307 L35.542,33.14 Z M31,22 L33,22 L33,19 L31,19 L31,22 Z M31,28 L33,28 L33,25 L31,25 L31,28 Z M50,23 L50,43 C50,43.354 49.812,43.682 49.507,43.862 L46.507,45.626 L45.493,43.903 L47.094,42.961 L46.228,42.404 L47.312,40.722 L48,41.166 L48,24.661 L33,32.602 L33,51.251 L35.493,49.785 L36.507,51.509 L32.507,53.862 C32.351,53.954 32.175,54 32,54 C31.825,54 31.649,53.954 31.493,53.862 L14.493,43.862 C14.187,43.682 14,43.354 14,43 L14,29 L16,29 L16,41.167 L16.981,40.535 L18.063,42.216 L16.906,42.961 L31,51.251 L31,32.621 L20.486,27.423 L21.373,25.63 L31.984,30.877 L46.949,22.954 L33,14.749 L33,16 L31,16 L31,14.685 L21.479,19.878 L20.521,18.122 L31.521,12.122 C31.83,11.954 32.204,11.96 32.507,12.138 L49.507,22.138 C49.812,22.318 50,22.646 50,23 L50,23 Z" id="AWS-Sumerian_Icon_48_Squid" fill="#FFFFFF"></path>
    </g>
</svg>