<?xml version="1.0" encoding="UTF-8"?>
<svg width="40px" height="40px" viewBox="0 0 40 40" version="1.1" xmlns="http://www.w3.org/2000/svg" xmlns:xlink="http://www.w3.org/1999/xlink">
    <!-- Generator: Sketch 64 (93537) - https://sketch.com -->
    <title>Icon-Architecture/32/Arch_AWS-Elemental-MediaTailor_32</title>
    <desc>Created with Sketch.</desc>
    <defs>
        <linearGradient x1="0%" y1="100%" x2="100%" y2="0%" id="linearGradient-1">
            <stop stop-color="#C8511B" offset="0%"></stop>
            <stop stop-color="#FF9900" offset="100%"></stop>
        </linearGradient>
    </defs>
    <g id="Icon-Architecture/32/Arch_AWS-Elemental-MediaTailor_32" stroke="none" stroke-width="1" fill="none" fill-rule="evenodd">
        <g id="Icon-Architecture-BG/32/Media-Services" fill="url(#linearGradient-1)">
            <rect id="Rectangle" x="0" y="0" width="40" height="40"></rect>
        </g>
        <path d="M9.00124154,17.1858167 L8,17.1858167 L8,13.2322708 C8,13.0573264 8.0941167,12.895231 8.24630542,12.8062763 L13.9403661,9.50012355 L14.4479955,10.3521127 L9.00124154,13.5149493 L9.00124154,17.1858167 Z M33,17.1858167 L31.9987585,17.1858167 L31.9987585,13.5149493 L26.5510032,10.3511243 L27.0596339,9.49913516 L32.7536946,12.8062763 C32.9058833,12.895231 33,13.0573264 33,13.2322708 L33,17.1858167 Z M24.27418,31.4492216 L23.7655493,30.5972325 L31.9987585,25.7986163 L31.9987585,21.1393625 L33,21.1393625 L33,26.0812948 C33,26.2562392 32.9058833,26.4183346 32.7536946,26.5072894 L24.27418,31.4492216 Z M16.7568585,31.4492216 L8.24630542,26.5072894 C8.0941167,26.4183346 8,26.2562392 8,26.0812948 L8,21.1393625 L9.00124154,21.1393625 L9.00124154,25.7986163 L17.2654892,30.5972325 L16.7568585,31.4492216 Z M18.0124154,12.6244131 L20.5155192,13.8598962 L23.0186231,12.6244131 L23.0186231,9.28169014 L20.5155192,8.04620707 L18.0124154,9.28169014 L18.0124154,12.6244131 Z M12.2753014,17.056338 L20.5135168,21.1294786 L28.4703833,17.0533729 L22.9405263,13.7679763 L21.01614,14.7178157 L21.01614,17.1858167 L20.0148985,17.1858167 L20.0148985,14.7178157 L18.0945172,13.7699531 L12.2753014,17.056338 Z M12.2302455,22.6595009 L20.5115143,26.797875 L28.4393448,22.6940944 L24.1740558,20.3674327 L21.01614,21.9844329 L21.0171413,23.1161354 L20.0158997,23.1161354 L20.0148985,21.9883865 L16.28227,20.1430689 L12.2302455,22.6595009 Z M20.0158997,33 L20.0148985,27.6577712 L10.988706,23.1467754 C10.8275061,23.0667161 10.723377,22.9065975 10.7153671,22.7286879 C10.7063559,22.5507784 10.7954664,22.3827527 10.9476551,22.2878676 L15.2359726,19.6251544 L10.9907085,17.52681 C10.8255036,17.4457623 10.719372,17.2807018 10.7141812,17.0988386 C10.7093596,16.9169755 10.80648,16.7459847 10.9666787,16.6560415 L17.0912732,13.1986657 C17.0392086,13.1195948 17.0111739,13.0266864 17.0111739,12.9298246 L17.0111739,8.97627872 C17.0111739,8.78947368 17.1183067,8.61848283 17.2875165,8.53446998 L20.2912411,7.05189029 C20.4324162,6.98270324 20.5986223,6.98270324 20.7397973,7.05189029 L23.743522,8.53446998 C23.9127318,8.61848283 24.0198646,8.78947368 24.0198646,8.97627872 L24.0198646,12.9298246 C24.0198646,13.0296516 23.9898274,13.1255251 23.9347591,13.2055844 L29.7539749,16.6619718 C29.9091674,16.7538918 30.0022828,16.9219175 29.9962754,17.1008154 C29.9902679,17.2797134 29.8861388,17.4408204 29.7259402,17.5238448 L25.2423806,19.820855 L29.7379551,22.2730418 C29.899155,22.3610082 29.9982779,22.5300222 29.9962754,22.710897 C29.9942729,22.8927601 29.891145,23.058809 29.7279426,23.1438102 L21.01614,27.6528293 L21.0171413,33 L20.0158997,33 Z" id="AWS-Elemental-MediaTailor_Icon_32_Squid" fill="#FFFFFF"></path>
    </g>
</svg>