<?xml version="1.0" encoding="UTF-8"?>
<svg width="40px" height="40px" viewBox="0 0 40 40" version="1.1" xmlns="http://www.w3.org/2000/svg" xmlns:xlink="http://www.w3.org/1999/xlink">
    <!-- Generator: Sketch 64 (93537) - https://sketch.com -->
    <title>Icon-Architecture/32/Arch_AWS-Elemental-MediaLive_32</title>
    <desc>Created with Sketch.</desc>
    <defs>
        <linearGradient x1="0%" y1="100%" x2="100%" y2="0%" id="linearGradient-1">
            <stop stop-color="#C8511B" offset="0%"></stop>
            <stop stop-color="#FF9900" offset="100%"></stop>
        </linearGradient>
    </defs>
    <g id="Icon-Architecture/32/Arch_AWS-Elemental-MediaLive_32" stroke="none" stroke-width="1" fill="none" fill-rule="evenodd">
        <g id="Icon-Architecture-BG/32/Media-Services" fill="url(#linearGradient-1)">
            <rect id="Rectangle" x="0" y="0" width="40" height="40"></rect>
        </g>
        <path d="M14.0000713,26.2322158 L11.5001011,27.8991695 L9.00013084,26.2322158 L9.00013084,23.7672842 L11.5001011,22.1013305 L14.0000713,23.7672842 L14.0000713,26.2322158 Z M11.7770978,21.0843588 C11.6090998,20.9713619 11.3911024,20.9713619 11.2231044,21.0843588 L8.22314009,23.0843032 C8.08414175,23.1763007 8.00014275,23.3332963 8.00014275,23.5002917 L8.00014275,26.5002083 C8.00014275,26.6672037 8.08414175,26.8231994 8.22314009,26.9161968 L11.2231044,28.9161412 C11.3071034,28.9721397 11.4031022,29.0001389 11.5001011,29.0001389 C11.5970999,29.0001389 11.6930988,28.9721397 11.7770978,28.9161412 L14.7770621,26.9161968 C14.9160604,26.8231994 15.0000594,26.6672037 15.0000594,26.5002083 L15.0000594,23.5002917 C15.0000594,23.3332963 14.9160604,23.1763007 14.7770621,23.0843032 L11.7770978,21.0843588 Z M30.9998689,26.2322158 L28.4998987,27.8991695 L25.9999285,26.2322158 L25.9999285,23.7672842 L28.4998987,22.1013305 L30.9998689,23.7672842 L30.9998689,26.2322158 Z M28.7768954,21.0843588 C28.6088974,20.9713619 28.3909,20.9713619 28.222902,21.0843588 L25.2229377,23.0843032 C25.0839394,23.1763007 24.9999404,23.3332963 24.9999404,23.5002917 L24.9999404,26.5002083 C24.9999404,26.6672037 25.0839394,26.8231994 25.2229377,26.9161968 L28.222902,28.9161412 C28.306901,28.9721397 28.4028999,29.0001389 28.4998987,29.0001389 C28.5968975,29.0001389 28.6928964,28.9721397 28.7768954,28.9161412 L31.7768597,26.9161968 C31.915858,26.8231994 31.999857,26.6672037 31.999857,26.5002083 L31.999857,23.5002917 C31.999857,23.3332963 31.915858,23.1763007 31.7768597,23.0843032 L28.7768954,21.0843588 Z M25.4159354,30.2221049 C25.5689336,30.4520986 25.5069343,30.7620899 25.2769371,30.9160857 L20.7819906,33.9120024 C20.7029915,33.9660009 20.6069927,33.999 20.5049939,34 L20.5039939,34 L20.5029939,34 L20.5019939,34 L20.5009939,34 L20.4999939,34 L20.498994,34 L20.497994,34 L20.496994,34 L20.495994,34 L20.494994,34 C20.3929952,33.999 20.2969964,33.9660009 20.2179973,33.9120024 L15.7230508,30.9160857 C15.4930535,30.7620899 15.4310543,30.4520986 15.5840525,30.2221049 C15.7380506,29.9921113 16.0500469,29.932113 16.2770442,30.0841088 L19.9999999,32.5650399 L19.9999999,28.0001667 C19.9999999,27.7231744 20.2239972,27.5001806 20.4999939,27.5001806 C20.7759907,27.5001806 20.999988,27.7231744 20.999988,28.0001667 L20.999988,32.5650399 L24.7229437,30.0841088 C24.949941,29.931113 25.2619372,29.9911114 25.4159354,30.2221049 L25.4159354,30.2221049 Z M8.00014275,18.5004305 L8.00014275,13.9955557 C7.99814277,13.913558 8.01714255,13.8305603 8.05814206,13.7535624 L8.05814206,13.7525624 C8.06214201,13.7465626 8.06414199,13.7405628 8.06714195,13.7345629 C8.06714195,13.7345629 8.0711419,13.7405628 8.06814194,13.733563 C8.06914193,13.732563 8.06914193,13.732563 8.06914193,13.732563 L8.06914193,13.732563 C8.11814134,13.6495653 8.18714052,13.586567 8.26613958,13.5445682 L12.7580861,11.0626371 C13.0010832,10.9286409 13.3050796,11.0166384 13.438078,11.2586317 C13.5710764,11.500625 13.4830775,11.8046165 13.2420803,11.9376128 L9.52912455,13.9885559 L13.2440803,16.0634982 C13.4850775,16.1984945 13.5710764,16.503486 13.437078,16.7434793 C13.3000797,16.9854726 12.9950833,17.0684703 12.7560861,16.936474 L9.00013084,14.8385323 L9.00013084,18.5004305 C9.00013084,18.7764229 8.77613351,19.0004167 8.5001368,19.0004167 C8.22414008,19.0004167 8.00014275,18.7764229 8.00014275,18.5004305 L8.00014275,18.5004305 Z M31.999857,13.985556 L31.999857,18.5004305 C31.999857,18.7764229 31.7758597,19.0004167 31.499863,19.0004167 C31.2238663,19.0004167 30.9998689,18.7764229 30.9998689,18.5004305 L30.9998689,14.8305325 L27.2439137,16.936474 C27.0039165,17.0714702 26.6989201,16.9854726 26.5629218,16.7444793 C26.4289234,16.503486 26.5149223,16.1984945 26.7559195,16.0644982 L30.4708752,13.9805561 L26.7589194,11.9386128 C26.5169223,11.8046165 26.4289234,11.501625 26.5619218,11.2586317 C26.6959202,11.0166384 27.0009165,10.9306408 27.2409137,11.0626371 L31.7338602,13.5345685 C31.8118593,13.5755673 31.8788585,13.6375656 31.9268579,13.7165634 L31.9278579,13.7165634 L31.9278579,13.7175634 C31.9338578,13.7275631 31.9388578,13.7375628 31.9438577,13.7475626 C31.9828572,13.8235605 32.001857,13.9055582 31.999857,13.985556 L31.999857,13.985556 Z M18.0000237,9.76767312 L20.4999939,8.1017194 L22.9999642,9.76767312 L22.9999642,12.2326046 L20.4999939,13.8995583 L18.0000237,12.2326046 L18.0000237,9.76767312 Z M20.2229972,14.9165301 C20.3069962,14.9725285 20.4029951,15.0005278 20.4999939,15.0005278 C20.5969928,15.0005278 20.6929916,14.9725285 20.7769906,14.9165301 L23.7769549,12.9165857 C23.9159533,12.8235882 23.9999523,12.6675926 23.9999523,12.5005972 L23.9999523,9.50068054 C23.9999523,9.33368518 23.9159533,9.17668954 23.7769549,9.08469209 L20.7769906,7.08474765 C20.6089926,6.97175078 20.3909952,6.97175078 20.2229972,7.08474765 L17.223033,9.08469209 C17.0840346,9.17668954 17.0000356,9.33368518 17.0000356,9.50068054 L17.0000356,12.5005972 C17.0000356,12.6675926 17.0840346,12.8235882 17.223033,12.9165857 L20.2229972,14.9165301 Z M18.0000237,17.3354629 L23.9099533,20.500375 L18.0000237,23.6652871 L18.0000237,17.3354629 Z M17.5000356,25.00025 C17.5810287,25.00025 17.6620277,24.9802505 17.7360268,24.9402517 L25.2059379,20.9403628 C25.367936,20.8533652 25.4699348,20.6843699 25.4699348,20.500375 C25.4699348,20.3153801 25.367936,20.1463848 25.2059379,20.0593872 L17.7360268,16.0594983 C17.5800287,15.9765007 17.3950309,15.9815005 17.2430327,16.070498 C17.0930345,16.1614955 17.0000356,16.324491 17.0000356,16.5004861 L17.0000356,24.5002639 C17.0000356,24.675259 17.0930345,24.8382545 17.2430327,24.929252 C17.3220318,24.9762507 17.4110307,25.00025 17.5000356,25.00025 L17.5000356,25.00025 Z" id="AWS-Elemental-MediaLive_Icon_32_Squid" fill="#FFFFFF"></path>
    </g>
</svg>