<?xml version="1.0" encoding="UTF-8"?>
<svg width="40px" height="40px" viewBox="0 0 40 40" version="1.1" xmlns="http://www.w3.org/2000/svg" xmlns:xlink="http://www.w3.org/1999/xlink">
    <title>Icon-Architecture/32/Arch_AWS-Elemental-Link_32</title>
    <defs>
        <linearGradient x1="0%" y1="100%" x2="100%" y2="0%" id="linearGradient-1">
            <stop stop-color="#C8511B" offset="0%"></stop>
            <stop stop-color="#FF9900" offset="100%"></stop>
        </linearGradient>
    </defs>
    <g id="Icon-Architecture/32/Arch_AWS-Elemental-Link_32" stroke="none" stroke-width="1" fill="none" fill-rule="evenodd">
        <g id="Rectangle" fill="url(#linearGradient-1)">
            <rect x="0" y="0" width="40" height="40"></rect>
        </g>
        <g id="Icon-Service/32/AWS-Elemental-Link_32" transform="translate(4.000000, 4.000000)" fill="#FFFFFF">
            <path d="M13.2539,4.6629 L12.7539,3.7969 L15.7499,2.0669 C15.9039,1.9779 16.0959,1.9779 16.2499,2.0669 L19.2459,3.7969 L18.7459,4.6629 L15.9999,3.0769 L13.2539,4.6629 Z M18.9999,24.2119 L16.4999,25.6549 L13.9999,24.2119 L13.9999,21.3249 L16.4999,19.8809 L18.9999,21.3249 L18.9999,21.9999 L18.9999,22.9999 L18.9999,24.2119 Z M19.9999,21.0359 C19.9999,20.8569 19.9039,20.6919 19.7499,20.6029 L16.7499,18.8709 C16.5959,18.7819 16.4039,18.7819 16.2499,18.8709 L13.2499,20.6029 C13.0959,20.6919 12.9999,20.8569 12.9999,21.0359 L12.9999,21.9999 L3.9999,21.9999 L3.9999,22.9999 L12.9999,22.9999 L12.9999,24.4999 C12.9999,24.6789 13.0959,24.8439 13.2499,24.9339 L15.9999,26.5209 L15.9999,29.9999 L16.9999,29.9999 L16.9999,26.5209 L19.7499,24.9339 C19.9039,24.8439 19.9999,24.6789 19.9999,24.4999 L19.9999,22.9999 L27.9999,22.9999 L27.9999,21.9999 L19.9999,21.9999 L19.9999,21.0359 Z M21.9999,13.9999 L24.9999,13.9999 L24.9999,12.9999 L21.9999,12.9999 L21.9999,13.9999 Z M21.9999,10.9999 L24.9999,10.9999 L24.9999,9.9999 L21.9999,9.9999 L21.9999,10.9999 Z M6.9999,10.9999 L14.9999,10.9999 L14.9999,9.9999 L6.9999,9.9999 L6.9999,10.9999 Z M4.9999,15.9999 L26.9999,15.9999 L26.9999,7.9999 L4.9999,7.9999 L4.9999,15.9999 Z M27.4999,6.9999 L4.4999,6.9999 C4.2239,6.9999 3.9999,7.2239 3.9999,7.4999 L3.9999,16.4999 C3.9999,16.7759 4.2239,16.9999 4.4999,16.9999 L27.4999,16.9999 C27.7759,16.9999 27.9999,16.7759 27.9999,16.4999 L27.9999,7.4999 C27.9999,7.2239 27.7759,6.9999 27.4999,6.9999 L27.4999,6.9999 Z" id="AWS-Elemental-Link_Icon_32_Squid"></path>
        </g>
    </g>
</svg>