<?xml version="1.0" encoding="UTF-8"?>
<svg width="40px" height="40px" viewBox="0 0 40 40" version="1.1" xmlns="http://www.w3.org/2000/svg" xmlns:xlink="http://www.w3.org/1999/xlink">
    <!-- Generator: Sketch 64 (93537) - https://sketch.com -->
    <title>Icon-Architecture/32/Arch_Amazon-Elastic-Transcoder_32</title>
    <desc>Created with Sketch.</desc>
    <defs>
        <linearGradient x1="0%" y1="100%" x2="100%" y2="0%" id="linearGradient-1">
            <stop stop-color="#C8511B" offset="0%"></stop>
            <stop stop-color="#FF9900" offset="100%"></stop>
        </linearGradient>
    </defs>
    <g id="Icon-Architecture/32/Arch_Amazon-Elastic-Transcoder_32" stroke="none" stroke-width="1" fill="none" fill-rule="evenodd">
        <g id="Icon-Architecture-BG/32/Media-Services" fill="url(#linearGradient-1)">
            <rect id="Rectangle" x="0" y="0" width="40" height="40"></rect>
        </g>
        <path d="M7.435,17.022406 C7.43,16.9307577 7.427,16.838124 7.427,16.7435193 C7.427,13.9349436 9.321,12.8657139 10.477,12.4744842 C10.471,12.3621412 10.468,12.2478272 10.468,12.1335133 C10.468,9.80781545 12.048,7.39441124 14.143,6.51931817 C16.598,5.49443439 19.196,6.00589081 21.096,7.8822165 C21.661,8.44097526 22.127,9.11404797 22.491,9.88960906 C23.194,9.35055961 24.098,9.16332123 24.962,9.41264392 C26.177,9.76248405 26.995,10.8504376 27.192,12.3542575 C27.822,12.5060191 28.746,12.8430482 29.513,13.5437139 C29.431,13.5397721 29.35,13.5318883 29.268,13.5318883 C28.824,13.5318883 28.393,13.5860889 27.978,13.6806936 C27.45,13.4185598 26.936,13.2973476 26.633,13.245118 C26.366,13.200772 26.183,12.9524348 26.224,12.6873447 C26.141,11.5057719 25.564,10.6129405 24.682,10.3586905 C23.962,10.1517428 23.191,10.427673 22.715,11.0613272 C22.605,11.2081615 22.428,11.2801004 22.239,11.2564493 C22.056,11.2298417 21.903,11.1056731 21.841,10.9332167 C21.502,9.98914104 21.013,9.19682704 20.387,8.57795491 C19.619,7.81914673 17.507,6.18524547 14.534,7.42693159 C12.815,8.14435024 11.468,10.2118562 11.468,12.1335133 C11.468,12.3503156 11.482,12.565147 11.506,12.7740656 C11.537,13.0194465 11.376,13.2480744 11.134,13.3091732 C10.123,13.5644087 8.427,14.3478535 8.427,16.7435193 C8.427,16.8223566 8.43,16.9002083 8.433,16.9760891 C8.449,17.2855252 8.518,17.5811647 8.614,17.8679351 L7.569,17.8679351 C7.498,17.5920049 7.449,17.3101618 7.435,17.022406 L7.435,17.022406 Z M28.905,30.2749416 L28.905,28.1965956 L30.556,29.2362614 L28.905,30.2749416 Z M28.674,26.8819851 C28.52,26.7854095 28.325,26.7794967 28.164,26.8652321 C28.004,26.9519531 27.905,27.1175112 27.905,27.2978514 L27.905,31.1746713 C27.905,31.354026 28.004,31.5195842 28.164,31.6063051 C28.24,31.6467092 28.322,31.6674039 28.405,31.6674039 C28.498,31.6674039 28.592,31.6407964 28.674,31.5895522 L31.754,29.6511422 C31.898,29.5604794 31.985,29.4037904 31.985,29.2362614 C31.985,29.0677468 31.898,28.9110578 31.754,28.820395 L28.674,26.8819851 Z M29.268,33.0145348 C27.21,33.0145348 25.536,31.3648661 25.536,29.3367788 C25.536,27.3086915 27.21,25.6580373 29.268,25.6580373 C31.326,25.6580373 33,27.3086915 33,29.3367788 C33,31.3648661 31.326,33.0145348 29.268,33.0145348 L29.268,33.0145348 Z M7,28.708052 L17,28.708052 L17,19.8388655 L7,19.8388655 L7,28.708052 Z M29.268,15.5028187 C31.326,15.5028187 33,17.1524874 33,19.1805747 C33,21.208662 31.326,22.8593162 29.268,22.8593162 C27.21,22.8593162 25.536,21.208662 25.536,19.1805747 C25.536,17.1524874 27.21,15.5028187 29.268,15.5028187 L29.268,15.5028187 Z M29.268,24.6725721 C26.875,24.6725721 24.913,26.4385257 24.6,28.7129793 L18,26.318299 L18,23.6792232 L24.858,20.8341853 C25.538,22.5892988 27.251,23.8447814 29.268,23.8447814 C31.877,23.8447814 34,21.7526388 34,19.1805747 C34,16.6094961 31.877,14.5173535 29.268,14.5173535 C26.659,14.5173535 24.536,16.6094961 24.536,19.1805747 C24.536,19.4161009 24.572,19.6417724 24.606,19.8684294 L18,22.6090081 L18,19.3461329 C18,19.0741445 17.777,18.8534003 17.5,18.8534003 L6.5,18.8534003 C6.224,18.8534003 6,19.0741445 6,19.3461329 L6,29.2007846 C6,29.4737585 6.224,29.6935172 6.5,29.6935172 L17.5,29.6935172 C17.777,29.6935172 18,29.4737585 18,29.2007846 L18,27.3688048 L24.579,29.7556015 C24.797,32.1286016 26.804,34 29.268,34 C31.877,34 34,31.9078574 34,29.3367788 C34,26.7647147 31.877,24.6725721 29.268,24.6725721 L29.268,24.6725721 Z M29,18.2424119 L30.577,19.2663102 L29,20.2902085 L29,18.2424119 Z M28.263,21.6393103 C28.337,21.6777435 28.419,21.6974528 28.5,21.6974528 C28.596,21.6974528 28.693,21.6698597 28.776,21.6166446 L31.76,19.6772492 C31.901,19.5865864 31.985,19.4318683 31.985,19.2663102 C31.985,19.100752 31.901,18.946034 31.76,18.8543857 L28.776,16.9159757 C28.622,16.8174292 28.426,16.80856 28.263,16.8933101 C28.101,16.980031 28,17.1455891 28,17.3279002 L28,21.2047202 C28,21.3860458 28.101,21.5525894 28.263,21.6393103 L28.263,21.6393103 Z M10.933,23.0869587 L13.408,24.280357 L10.933,25.5082466 L10.933,23.0869587 Z M10.433,26.8011769 C10.51,26.8011769 10.587,26.784424 10.658,26.7489473 L14.756,24.7139617 C14.926,24.6301971 15.033,24.4577407 15.0320069,24.2705023 C15.031,24.0842494 14.922,23.9137639 14.751,23.8309849 L10.653,21.8541417 C10.498,21.7812173 10.316,21.7881156 10.168,21.8787784 C10.022,21.9694412 9.933,22.1271156 9.933,22.2976011 L9.933,26.3084443 C9.933,26.4799153 10.023,26.6385752 10.17,26.7282525 C10.251,26.7765403 10.342,26.8011769 10.433,26.8011769 L10.433,26.8011769 Z" id="Amazon-Elastic-Transcoder_Icon_32_Squid" fill="#FFFFFF"></path>
    </g>
</svg>