<?xml version="1.0" encoding="UTF-8"?>
<svg width="40px" height="40px" viewBox="0 0 40 40" version="1.1" xmlns="http://www.w3.org/2000/svg" xmlns:xlink="http://www.w3.org/1999/xlink">
    <!-- Generator: Sketch 64 (93537) - https://sketch.com -->
    <title>Icon-Architecture/32/Arch_AWS-Elemental-MediaConnect_32</title>
    <desc>Created with Sketch.</desc>
    <defs>
        <linearGradient x1="0%" y1="100%" x2="100%" y2="0%" id="linearGradient-1">
            <stop stop-color="#C8511B" offset="0%"></stop>
            <stop stop-color="#FF9900" offset="100%"></stop>
        </linearGradient>
    </defs>
    <g id="Icon-Architecture/32/Arch_AWS-Elemental-MediaConnect_32" stroke="none" stroke-width="1" fill="none" fill-rule="evenodd">
        <g id="Icon-Architecture-BG/32/Media-Services" fill="url(#linearGradient-1)">
            <rect id="Rectangle" x="0" y="0" width="40" height="40"></rect>
        </g>
        <path d="M31,17.3090017 L28.5,16.0590018 L26,17.3090017 L26,20.6910013 L28.5,21.9410012 L31,20.6910013 L31,17.3090017 Z M23,12.3090022 L20.5,11.0590023 L18,12.3090022 L18,15.6910018 L20.5,16.9410017 L23,15.6910018 L23,12.3090022 Z M15,17.3090017 L12.5,16.0590018 L10,17.3090017 L10,20.6910013 L12.5,21.9410012 L15,20.6910013 L15,17.3090017 Z M32,17.0000017 L32,21.0000013 C32,21.1890013 31.893,21.3620013 31.724,21.4470012 L28.724,22.9470011 C28.653,22.9820011 28.576,23.0000011 28.5,23.0000011 C28.424,23.0000011 28.347,22.9820011 28.276,22.9470011 L25.276,21.4470012 C25.107,21.3620013 25,21.1890013 25,21.0000013 L25,17.3090017 L23.5,16.5590017 L20.724,17.9470016 C20.583,18.0170016 20.417,18.0170016 20.276,17.9470016 L17.5,16.5590017 L16,17.3090017 L16,21.0000013 C16,21.1890013 15.893,21.3620013 15.724,21.4470012 L12.724,22.9470011 C12.583,23.0170011 12.417,23.0170011 12.276,22.9470011 L9.276,21.4470012 C9.107,21.3620013 9,21.1890013 9,21.0000013 L9,17.0000017 C9,16.8100017 9.107,16.6380017 9.276,16.5530017 L12.276,15.0530019 C12.417,14.9820019 12.583,14.9820019 12.724,15.0530019 L15.5,16.4410017 L17,15.6910018 L17,12.0000022 C17,11.8100022 17.107,11.6380022 17.276,11.5530022 L20.276,10.0530024 C20.417,9.98200238 20.583,9.98200238 20.724,10.0530024 L23.724,11.5530022 C23.893,11.6380022 24,11.8100022 24,12.0000022 L24,15.6910018 L25.5,16.4410017 L28.276,15.0530019 C28.417,14.9820019 28.583,14.9820019 28.724,15.0530019 L31.724,16.5530017 C31.893,16.6380017 32,16.8100017 32,17.0000017 L32,17.0000017 Z M18.257,28.5710005 L17.743,29.4290005 L20.243,30.9290003 C20.322,30.9760003 20.411,31.0000003 20.5,31.0000003 C20.589,31.0000003 20.678,30.9760003 20.757,30.9290003 L23.257,29.4290005 L22.743,28.5710005 L21,29.6170004 L21,21.3830013 L22.743,22.4290011 L23.257,21.5710012 L20.757,20.0710014 C20.599,19.9760014 20.401,19.9760014 20.243,20.0710014 L17.743,21.5710012 L18.257,22.4290011 L20,21.3830013 L20,29.6170004 L18.257,28.5710005 Z M12.481,12.6110021 L14.2,13.900002 C14.351,14.014002 14.556,14.032002 14.724,13.947002 C14.893,13.862002 15,13.689002 15,13.5 L15,10.8090023 L20.495,8.05900257 L26.021,10.8090023 L26.021,13.5 C26.021,13.690002 26.128,13.863002 26.298,13.948002 C26.467,14.033002 26.672,14.013002 26.822,13.898002 L28.521,12.6120021 L31.226,14.3920019 L31.774,13.557002 L28.774,11.5820022 C28.6,11.4660022 28.368,11.4740022 28.198,11.6010022 L27.021,12.4940021 L27.021,10.5 C27.021,10.3100024 26.913,10.1370024 26.743,10.0520024 L20.717,7.05200267 C20.575,6.98200268 20.41,6.98300268 20.271,7.05300267 L14.276,10.0530024 C14.106,10.1380024 14,10.3100024 14,10.5 L14,12.5 L12.8,11.6000022 C12.63,11.4730022 12.4,11.4670022 12.226,11.5820022 L9.226,13.557002 L9.774,14.3920019 L12.481,12.6110021 Z M31.5000727,26.9590007 C31.503,27.1350007 31.413,27.2990007 31.264,27.3920007 L20.764,33.924 C20.684,33.975 20.592,34 20.5,34 C20.408,34 20.316,33.975 20.236,33.925 L9.725,27.3920007 C9.575,27.2990007 9.485,27.1340007 9.48792728,26.9580007 C9.491,26.7830007 9.587,26.6210007 9.739,26.5340007 L15.763,23.0660011 L16.261,23.934001 L10.962,26.9830007 L20.5,32.9110001 L30.028,26.9830007 L24.75,23.933001 L25.25,23.0670011 L31.25,26.5340007 C31.402,26.6220007 31.497,26.7840007 31.5000727,26.9590007 L31.5000727,26.9590007 Z" id="AWS-Elemental-MediaConnect_Icon_32_Squid" fill="#FFFFFF"></path>
    </g>
</svg>