<?xml version="1.0" encoding="UTF-8"?>
<svg width="40px" height="40px" viewBox="0 0 40 40" version="1.1" xmlns="http://www.w3.org/2000/svg" xmlns:xlink="http://www.w3.org/1999/xlink">
    <!-- Generator: Sketch 64 (93537) - https://sketch.com -->
    <title>Icon-Architecture/32/Arch_AWS-Elemental-MediaPackage_32</title>
    <desc>Created with Sketch.</desc>
    <defs>
        <linearGradient x1="0%" y1="100%" x2="100%" y2="0%" id="linearGradient-1">
            <stop stop-color="#C8511B" offset="0%"></stop>
            <stop stop-color="#FF9900" offset="100%"></stop>
        </linearGradient>
    </defs>
    <g id="Icon-Architecture/32/Arch_AWS-Elemental-MediaPackage_32" stroke="none" stroke-width="1" fill="none" fill-rule="evenodd">
        <g id="Icon-Architecture-BG/32/Media-Services" fill="url(#linearGradient-1)">
            <rect id="Rectangle" x="0" y="0" width="40" height="40"></rect>
        </g>
        <path d="M13.954678,24.3940008 L13.954678,21.5120011 L16.4580522,20.2620012 L18.9614263,21.5120011 L18.9614263,24.3940008 L16.4580522,25.6440007 L13.954678,24.3940008 Z M26.9932518,21.5120011 L26.9932518,24.3940008 L24.4898777,25.6440007 L21.9865035,24.3940008 L21.9865035,21.5120011 L24.4898777,20.2620012 L26.9932518,21.5120011 Z M30.9986504,25.9330007 L27.9946014,24.3970008 L27.9946014,21.2030011 C27.9946014,21.0140011 27.8864557,20.8410011 27.7172276,20.7560011 L24.7131786,19.2560012 C24.5729897,19.1860013 24.4067656,19.1860013 24.2655753,19.2560012 L21.2615264,20.7560011 C21.0922983,20.8410011 20.9851539,21.0140011 20.9851539,21.2030011 L20.9851539,24.7030008 C20.9851539,24.8930008 21.0922983,25.0650008 21.2615264,25.1500007 L24.2655753,26.6500006 C24.4067656,26.7210006 24.5729897,26.7210006 24.7131786,26.6500006 L27.4909225,25.2640007 L30.4769472,26.7900006 L20.9851539,32.6070001 L20.9851539,27.5000006 L19.9838043,27.5000006 L19.9838043,32.6050001 L10.5160434,26.7880006 L13.4580086,25.2640007 L16.2337498,26.6500006 C16.3048457,26.6860006 16.3819496,26.7030006 16.4580522,26.7030006 C16.5341547,26.7030006 16.6112587,26.6860006 16.6823545,26.6500006 L19.6864034,25.1500007 C19.8556315,25.0650008 19.9627759,24.8930008 19.9627759,24.7030008 L19.9627759,21.2030011 C19.9627759,21.0140011 19.8556315,20.8410011 19.6864034,20.7560011 L16.6823545,19.2560012 C16.5411642,19.1860013 16.3749401,19.1860013 16.2337498,19.2560012 L13.2297009,20.7560011 C13.0604728,20.8410011 12.9533284,21.0140011 12.9533284,21.2030011 L12.9533284,24.3990008 L10.0013496,25.9280007 L10.0013496,14.4380017 L13.6963298,16.9150014 L14.2540816,16.0850015 L10.4639732,13.5440017 L19.9838043,8.34400217 L19.9838043,12.1520019 L17.2561278,13.5140017 C17.0868997,13.5990017 16.9797553,13.7720017 16.9797553,13.9610017 L16.9797553,17.4610014 C16.9797553,17.6500014 17.0858984,17.8230014 17.2551265,17.9080014 L20.2591754,19.4190012 C20.4003657,19.4910012 20.5675911,19.4910012 20.7087814,19.4190012 L23.7128303,17.9080014 C23.8820584,17.8230014 23.9892028,17.6500014 23.9892028,17.4610014 L23.9892028,13.9610017 C23.9892028,13.7720017 23.8810571,13.5990017 23.711829,13.5140017 L20.9851539,12.1520019 L20.9851539,8.34300217 L30.4539161,13.5000017 L25.7515782,16.0610015 L26.2312247,16.9390014 L30.9986504,14.3430022 L30.9986504,25.9330007 Z M20.4844791,13.0200018 L22.9878532,14.2700017 L22.9878532,17.1530014 L20.4844791,18.4130013 L17.981105,17.1530014 L17.981105,14.2700017 L20.4844791,13.0200018 Z M31.7386477,13.0610018 L20.7238016,7.06100228 C20.5735992,6.97900229 20.3933563,6.98000229 20.2431538,7.06200228 L9.26035091,13.0620018 C9.09913361,13.1490018 9,13.3180018 9,13.5 L9,26.7500006 C9,26.9240006 9.09012147,27.0850006 9.23832122,27.1760006 L20.2221255,33.926 C20.3022334,33.976 20.3933563,34 20.4844791,34 C20.5746005,34 20.6657234,33.976 20.7458313,33.927 L31.7606774,27.1770006 C31.9098785,27.0860006 32,26.9240006 32,26.7500006 L32,13.5 C32,13.3170018 31.899865,13.1490018 31.7386477,13.0610018 L31.7386477,13.0610018 Z" id="AWS-Elemental-MediaPackage_Icon_32_Squid" fill="#FFFFFF"></path>
    </g>
</svg>