<?xml version="1.0" encoding="UTF-8"?>
<svg width="40px" height="40px" viewBox="0 0 40 40" version="1.1" xmlns="http://www.w3.org/2000/svg" xmlns:xlink="http://www.w3.org/1999/xlink">
    <!-- Generator: Sketch 64 (93537) - https://sketch.com -->
    <title>Icon-Architecture/32/Arch_AWS-Elemental-MediaStore_32</title>
    <desc>Created with Sketch.</desc>
    <defs>
        <linearGradient x1="0%" y1="100%" x2="100%" y2="0%" id="linearGradient-1">
            <stop stop-color="#C8511B" offset="0%"></stop>
            <stop stop-color="#FF9900" offset="100%"></stop>
        </linearGradient>
    </defs>
    <g id="Icon-Architecture/32/Arch_AWS-Elemental-MediaStore_32" stroke="none" stroke-width="1" fill="none" fill-rule="evenodd">
        <g id="Icon-Architecture-BG/32/Media-Services" fill="url(#linearGradient-1)">
            <rect id="Rectangle" x="0" y="0" width="40" height="40"></rect>
        </g>
        <path d="M15,26.6816389 L12.5,27.993062 L10,26.6816389 L10,23.2915452 L12.5,22.0411418 L15,23.2915452 L15,26.6816389 Z M16,26.9837364 L16,22.9824455 C16,22.7933845 15.893,22.6203287 15.724,22.5353012 L12.724,21.0348171 C12.583,20.9647946 12.417,20.9647946 12.276,21.0348171 L9.276,22.5353012 C9.107,22.6203287 9,22.7933845 9,22.9824455 L9,26.9837364 C9,27.1697964 9.104,27.3408516 9.268,27.4268794 L12.268,29.000387 C12.341,29.0383993 12.42,29.0574054 12.5,29.0574054 C12.58,29.0574054 12.659,29.0383993 12.732,29.000387 L15.732,27.4268794 C15.896,27.3408516 16,27.1697964 16,26.9837364 L16,26.9837364 Z M26,29.2794771 L26,23.7706998 L31,20.8527584 L31,26.4735718 L26,29.2794771 Z M20,26.9427232 L24.662,30.0297191 L20,32.645563 L20,26.9427232 Z M15,16.524362 L15,10.8215221 L18.959,12.9812189 L18.958,16.9805091 L19.958,16.9805091 L19.959,13.5263948 L25,16.2772823 L25,22.5092928 L23.458,21.4039362 L22.876,22.2161983 L25,23.7396898 L25,29.0544044 L20,25.7423359 L20,19.9814773 C20,19.8104221 19.913,19.6513708 19.769,19.5593411 L15,16.524362 Z M14,10.3203604 L14,15.8871564 L9.457,12.9962237 L14,10.3203604 Z M19.511,7.07431319 L24.644,9.84520714 L19.753,12.274991 L15.044,9.70516196 L19.511,7.07431319 Z M26,16.2892861 L31,13.7884793 L31,19.6943847 L26,22.6123261 L26,16.2892861 Z M25.51,15.4160044 L20.824,12.8601798 L25.721,10.427395 L30.416,12.9622128 L25.51,15.4160044 Z M31.737,12.5390762 L19.737,6.05998594 C19.583,5.97695916 19.396,5.97996012 19.246,6.06998917 L8.246,12.5490795 C8.097,12.6361075 8.003,12.7971595 8,12.9702153 C8,12.9732163 8.002,12.9762173 8.002,12.9792182 L8,12.9792182 L8,19.9814773 L9,19.9814773 L9,13.8905122 L19,20.2565661 L19,32.5615359 L15.278,30.0637301 L14.722,30.8939979 L19.222,33.9149726 L19.226,33.909971 C19.234,33.9149726 19.238,33.9259761 19.247,33.9319781 C19.325,33.9769926 19.413,34 19.5,34 C19.584,34 19.669,33.9779929 19.744,33.9359793 L31.744,27.2028071 C31.902,27.1147787 32,26.9477248 32,26.7666664 L32,12.9792182 C32,12.7961592 31.899,12.6271046 31.737,12.5390762 L31.737,12.5390762 Z" id="AWS-Elemental-MediaStore_Icon_32_Squid" fill="#FFFFFF"></path>
    </g>
</svg>