<?xml version="1.0" encoding="UTF-8"?>
<svg width="40px" height="40px" viewBox="0 0 40 40" version="1.1" xmlns="http://www.w3.org/2000/svg" xmlns:xlink="http://www.w3.org/1999/xlink">
    <!-- Generator: Sketch 64 (93537) - https://sketch.com -->
    <title>Icon-Architecture/32/Arch_Amazon-Kinesis-Video-Streams_32</title>
    <desc>Created with Sketch.</desc>
    <defs>
        <linearGradient x1="0%" y1="100%" x2="100%" y2="0%" id="linearGradient-1">
            <stop stop-color="#C8511B" offset="0%"></stop>
            <stop stop-color="#FF9900" offset="100%"></stop>
        </linearGradient>
    </defs>
    <g id="Icon-Architecture/32/Arch_Amazon-Kinesis-Video-Streams_32" stroke="none" stroke-width="1" fill="none" fill-rule="evenodd">
        <g id="Icon-Architecture-BG/32/Media-Services" fill="url(#linearGradient-1)">
            <rect id="Rectangle" x="0" y="0" width="40" height="40"></rect>
        </g>
        <path d="M32.888,20.913 C11.234,20.913 8,24.801 8,27.119 L7,27.119 C7,23.587 11.767,21.346 21.172,20.413 C11.767,19.48 7,17.238 7,13.706 L8,13.706 C8,16.024 11.234,19.913 32.888,19.913 L32.888,20.913 Z M15.908,23.792 L15.908,24.854 C11.51,26.491 10.874,28.836 10.874,30.952 L9.874,30.952 C9.874,28.575 10.592,25.653 15.908,23.792 L15.908,23.792 Z M15.908,26.838 L15.908,28.078 C13.754,29.82 13.748,31.931 13.748,33.826 L12.748,33.826 C12.748,31.746 12.752,28.951 15.908,26.838 L15.908,26.838 Z M31.931,31.775 C31.931,32.379 31.44,32.871 30.835,32.871 L20.028,32.871 C19.423,32.871 18.931,32.379 18.931,31.775 L18.931,24.967 C18.931,24.363 19.423,23.871 20.028,23.871 L30.835,23.871 C31.44,23.871 31.931,24.363 31.931,24.967 L31.931,31.775 Z M30.835,22.871 L20.028,22.871 C18.871,22.871 17.931,23.811 17.931,24.967 L17.931,31.775 C17.931,32.931 18.871,33.871 20.028,33.871 L30.835,33.871 C31.991,33.871 32.931,32.931 32.931,31.775 L32.931,24.967 C32.931,23.811 31.991,22.871 30.835,22.871 L30.835,22.871 Z M9.874,9.874 L10.874,9.874 C10.874,13.891 13.49,17.997 32.888,17.997 L32.888,18.997 C12.609,18.997 9.874,14.386 9.874,9.874 L9.874,9.874 Z M12.748,7 L13.748,7 C13.748,10.617 13.748,16.081 32.888,16.081 L32.888,17.081 C14.303,17.081 12.748,12.101 12.748,7 L12.748,7 Z M24.405,29.588 L24.405,27.177 L26.797,28.382 L24.405,29.588 Z M28.133,27.935 L24.129,25.918 C23.976,25.84 23.791,25.848 23.642,25.939 C23.494,26.031 23.405,26.192 23.405,26.365 L23.405,30.4 C23.405,30.574 23.494,30.735 23.643,30.826 C23.723,30.875 23.814,30.9 23.905,30.9 C23.982,30.9 24.059,30.883 24.129,30.847 L28.133,28.828 C28.302,28.743 28.409,28.571 28.409,28.382 C28.409,28.193 28.302,28.02 28.133,27.935 L28.133,27.935 Z" id="Amazon-Kinesis-Video-Streams_32_Squid" fill="#FFFFFF"></path>
    </g>
</svg>