<?xml version="1.0" encoding="UTF-8"?>
<svg width="40px" height="40px" viewBox="0 0 40 40" version="1.1" xmlns="http://www.w3.org/2000/svg" xmlns:xlink="http://www.w3.org/1999/xlink">
    <title>Icon-Architecture/32/Arch_Amazon-Interactive-Video_32</title>
    <defs>
        <linearGradient x1="0%" y1="100%" x2="100%" y2="0%" id="linearGradient-1">
            <stop stop-color="#C8511B" offset="0%"></stop>
            <stop stop-color="#FF9900" offset="100%"></stop>
        </linearGradient>
    </defs>
    <g id="Icon-Architecture/32/Arch_Amazon-Interactive-Video_32" stroke="none" stroke-width="1" fill="none" fill-rule="evenodd">
        <g id="Rectangle" fill="url(#linearGradient-1)">
            <rect x="0" y="0" width="40" height="40"></rect>
        </g>
        <g id="Icon-Service/32/Amazon-Interactive-Video_32" transform="translate(4.000000, 4.000000)" fill="#FFFFFF">
            <path d="M20,28.9123 L20,22.8503 L25.25,25.8813 L20,28.9123 Z M19.75,21.5513 C19.596,21.4623 19.404,21.4623 19.25,21.5513 C19.096,21.6403 19,21.8053 19,21.9843 L19,29.7783 C19,29.9573 19.096,30.1223 19.25,30.2113 C19.327,30.2563 19.414,30.2783 19.5,30.2783 C19.586,30.2783 19.673,30.2563 19.75,30.2113 L26.5,26.3143 C26.654,26.2253 26.75,26.0603 26.75,25.8813 C26.75,25.7033 26.654,25.5373 26.5,25.4483 L19.75,21.5513 Z M29,19.1703 L23.75,16.1393 L29,13.1083 L29,19.1703 Z M13,21.1173 L13,11.1623 L21.622,16.1403 L13,21.1173 Z M12,9.4283 L6.75,6.3973 L12,3.3663 L12,9.4283 Z M12,28.9143 L6.75,25.8833 L12,22.8523 L12,28.9143 Z M29.75,11.8083 C29.596,11.7203 29.404,11.7203 29.25,11.8083 L22.686,15.5993 L13,10.0073 L13,2.4993 C13,2.3213 12.904,2.1563 12.75,2.0663 C12.596,1.9773 12.404,1.9773 12.25,2.0663 L5.5,5.9643 C5.346,6.0533 5.25,6.2183 5.25,6.3973 C5.25,6.5763 5.346,6.7413 5.5,6.8303 L12,10.5833 L12,21.6973 L5.5,25.4503 C5.346,25.5393 5.25,25.7043 5.25,25.8833 C5.25,26.0623 5.346,26.2273 5.5,26.3163 L12.25,30.2143 C12.327,30.2583 12.414,30.2813 12.5,30.2813 C12.586,30.2813 12.673,30.2583 12.75,30.2143 C12.904,30.1243 13,29.9593 13,29.7813 L13,22.2723 L22.687,16.6803 L29.25,20.4703 C29.404,20.5583 29.596,20.5583 29.75,20.4703 C29.904,20.3803 30,20.2153 30,20.0373 L30,12.2423 C30,12.0633 29.904,11.8983 29.75,11.8083 L29.75,11.8083 Z M3,19.1703 L3,13.1083 L8.25,16.1393 L3,19.1703 Z M9.75,16.1393 C9.75,15.9603 9.654,15.7953 9.5,15.7063 L2.75,11.8083 C2.596,11.7203 2.404,11.7203 2.25,11.8083 C2.096,11.8983 2,12.0633 2,12.2423 L2,20.0363 C2,20.2153 2.096,20.3803 2.25,20.4693 C2.327,20.5143 2.414,20.5363 2.5,20.5363 C2.586,20.5363 2.673,20.5143 2.75,20.4693 L9.5,16.5723 C9.654,16.4833 9.75,16.3183 9.75,16.1393 L9.75,16.1393 Z M20,3.3663 L25.25,6.3973 L20,9.4283 L20,3.3663 Z M19.5,10.7943 C19.586,10.7943 19.673,10.7723 19.75,10.7273 L26.5,6.8303 C26.654,6.7413 26.75,6.5763 26.75,6.3973 C26.75,6.2183 26.654,6.0533 26.5,5.9643 L19.75,2.0663 C19.596,1.9773 19.404,1.9773 19.25,2.0663 C19.096,2.1563 19,2.3213 19,2.4993 L19,10.2943 C19,10.4733 19.096,10.6383 19.25,10.7273 C19.327,10.7723 19.414,10.7943 19.5,10.7943 L19.5,10.7943 Z" id="Amazon-Interactive-Video_Icon_32_Squid"></path>
        </g>
    </g>
</svg>