<?xml version="1.0" encoding="UTF-8"?>
<svg width="40px" height="40px" viewBox="0 0 40 40" version="1.1" xmlns="http://www.w3.org/2000/svg" xmlns:xlink="http://www.w3.org/1999/xlink">
    <title>Icon-Architecture/32/Arch_Amazon-Nimble-Studio_32</title>
    <defs>
        <linearGradient x1="0%" y1="100%" x2="100%" y2="0%" id="linearGradient-1">
            <stop stop-color="#C8511B" offset="0%"></stop>
            <stop stop-color="#FF9900" offset="100%"></stop>
        </linearGradient>
    </defs>
    <g id="Icon-Architecture/32/Arch_Amazon-Nimble-Studio_32" stroke="none" stroke-width="1" fill="none" fill-rule="evenodd">
        <g id="Rectangle" fill="url(#linearGradient-1)">
            <rect x="0" y="0" width="40" height="40"></rect>
        </g>
        <g id="Icon-Service/32/Amazon-Nimble-Studio_32" transform="translate(4.000000, 4.000000)" fill="#FFFFFF">
            <path d="M19.905299,26.457 C19.137299,26.048 17.854299,25.364 16.658299,24.005 C15.554299,22.75 15.023299,21.505 14.634299,20.597 C14.193299,19.561 13.863299,18.475 13.655299,17.368 C13.616299,17.158 13.448299,16.997 13.238299,16.965 C13.022299,16.936 12.820299,17.04 12.721299,17.228 C12.434299,17.775 12.172299,18.344 11.940299,18.92 C11.424299,20.206 9.84029901,24.494 10.151299,27.968 L8.06529901,27.968 C7.49729901,25.855 6.86829901,24.141 4.41029901,20.316 C4.21429901,20.011 4.02229901,19.698 3.84029901,19.399 C3.59929901,19.005 3.36829901,18.627 3.15529901,18.316 L6.02629901,14.498 C6.19329901,14.803 6.35029901,15.116 6.49529901,15.433 C6.88429901,16.289 7.06029901,16.914 7.48929901,18.424 L7.70729901,19.187 C7.85729901,19.716 8.09829901,20.558 8.41029901,21.609 C8.47829901,21.843 8.70329901,22 8.95029901,21.964 C9.19229901,21.935 9.37829901,21.734 9.38829901,21.49 C9.55729901,17.727 10.346299,14.241 11.736299,11.129 C12.741299,8.876 14.041299,6.915 15.394299,5.606 C15.913299,5.105 16.471299,4.639 17.061299,4.215 L19.918299,8.856 C19.386299,9.266 18.898299,9.728 18.463299,10.234 C17.845299,10.95 17.303299,11.809 16.895299,12.717 C16.540299,13.51 15.944299,15.165 15.952299,17.338 C15.955299,17.928 15.961299,19.311 16.543299,20.959 C16.820299,21.743 17.678299,23.751 19.667299,25.472 C21.612299,27.156 23.655299,27.726 24.705299,27.959 C22.359299,27.766 20.644299,26.852 19.905299,26.457 M16.025299,29 C14.342299,29 12.714299,28.669 11.172299,28.046 C10.798299,24.683 12.509299,20.186 12.868299,19.292 C12.912299,19.184 12.957299,19.075 13.003299,18.966 C13.196299,19.655 13.434299,20.332 13.715299,20.989 C14.106299,21.906 14.698299,23.291 15.908299,24.666 C17.223299,26.161 18.607299,26.898 19.434299,27.34 C19.756299,27.511 20.256299,27.774 20.898299,28.04 C19.355299,28.667 17.724299,29 16.025299,29 M3.02529901,16 C3.02529901,8.832 8.85729901,3 16.025299,3 C16.363299,3 16.694299,3.026 17.025299,3.051 C16.994299,3.063 16.962299,3.069 16.933299,3.088 C16.136299,3.62 15.384299,4.225 14.699299,4.887 C13.256299,6.282 11.879299,8.354 10.822299,10.722 C9.72129901,13.188 8.98429901,15.877 8.62029901,18.744 L8.45129901,18.151 C8.02129901,16.635 7.82529901,15.944 7.40529901,15.019 C7.14029901,14.438 6.83729901,13.871 6.50329901,13.332 C6.41629901,13.192 6.26529901,13.104 6.10029901,13.097 C5.93929901,13.087 5.77829901,13.164 5.67829901,13.296 L3.00929901,16.846 C3.01129901,16.775 3.01229901,16.701 3.01429901,16.633 C3.02029901,16.392 3.02529901,16.171 3.02529901,16 M29.025299,16 C29.025299,20.203 26.981299,24.146 23.559299,26.586 C22.608299,26.248 21.447299,25.69 20.321299,24.716 C18.514299,23.152 17.736299,21.335 17.486299,20.626 C16.961299,19.137 16.955299,17.919 16.9522113,17.333 C16.944299,15.349 17.485299,13.846 17.807299,13.126 C18.274299,12.089 18.834299,11.336 19.220299,10.886 C19.704299,10.325 20.259299,9.823 20.871299,9.395 C21.089299,9.244 21.149299,8.949 21.010299,8.724 L17.636299,3.242 C17.597299,3.177 17.542299,3.127 17.480299,3.087 C23.965299,3.813 29.025299,9.324 29.025299,16 M28.804299,27.266 C28.112299,27.306 26.826299,27.379 25.263299,27.056 C25.125299,27.027 24.935299,26.986 24.726299,26.936 C28.049299,24.287 30.025299,20.275 30.025299,16 C30.025299,8.281 23.745299,2 16.025299,2 C8.30529901,2 2.02529901,8.281 2.02529901,16 C2.02529901,16.165 2.02029901,16.377 2.01429901,16.609 C2.00029901,17.231 1.98229901,17.936 2.03829901,18.374 L2.05329901,18.372 C2.06529901,18.458 2.08329901,18.545 2.13929901,18.618 C2.37729901,18.922 2.67329901,19.407 2.98629901,19.921 C3.17329901,20.226 3.36829901,20.545 3.56829901,20.857 C6.14129901,24.859 6.62429901,26.405 7.19729901,28.595 C7.25529901,28.815 7.45329901,28.968 7.68029901,28.968 L10.717299,28.968 C10.732299,28.968 10.746299,28.96 10.760299,28.958 C12.432299,29.639 14.199299,30 16.025299,30 C18.194299,30 20.345299,29.482 22.272299,28.52 C23.003299,28.73 23.834299,28.901 24.762299,28.967 C25.041299,28.987 25.319299,28.996 25.595299,28.996 C27.555299,28.996 29.383299,28.54 29.739299,28.169 C29.841299,28.063 29.909299,27.882 29.893299,27.736 C29.839299,27.207 29.335299,27.237 28.804299,27.266" id="Fill-6"></path>
        </g>
    </g>
</svg>