<svg id="b731f684-7cb9-4db7-b2c1-15068abf133d" xmlns="http://www.w3.org/2000/svg" width="18" height="18" viewBox="0 0 18 18"><defs><radialGradient id="f65398a3-df69-4689-8d5a-25969160d437" cx="7.18" cy="9.5" r="7.38" gradientUnits="userSpaceOnUse"><stop offset="0" stop-color="#76bc2d" /><stop offset="0.41" stop-color="#74b92c" /><stop offset="0.66" stop-color="#6fb12a" /><stop offset="0.88" stop-color="#66a227" /><stop offset="1" stop-color="#5e9624" /></radialGradient></defs><g><path d="M10,10.24a1,1,0,0,1-.31.79,1.49,1.49,0,0,1-.89.37V12H8.36v-.62a2.36,2.36,0,0,1-1.1-.28v-.81a1.8,1.8,0,0,0,.5.25,2.49,2.49,0,0,0,.6.14V9.64a2.42,2.42,0,0,1-.91-.53,1.15,1.15,0,0,1,.06-1.55,1.41,1.41,0,0,1,.85-.38V6.63h.43v.54a2.21,2.21,0,0,1,.92.2v.8a2.28,2.28,0,0,0-.92-.31V9a2.34,2.34,0,0,1,.92.54A1,1,0,0,1,10,10.24ZM8.36,8.81V7.88A.4.4,0,0,0,8,8.3c0,.21.13.38.4.51Zm.85,1.47c0-.19-.14-.34-.42-.47v.9c.28-.05.42-.19.42-.43Z" fill="#258277" /><path d="M16.54,9.49h-3.6a4.43,4.43,0,0,1-1.48,3.3l2.39,2.69a8,8,0,0,0,2.69-6" fill="#ffca00" /><path d="M8.52,13.93a4.43,4.43,0,0,1,0-8.86V1.49a8,8,0,0,0-8,8h0a8,8,0,0,0,8,8h0a8,8,0,0,0,5.34-2l-2.4-2.69A4.38,4.38,0,0,1,8.52,13.93Z" fill="url(#f65398a3-df69-4689-8d5a-25969160d437)" /><path d="M8.15.48h0V4.64h0a5.09,5.09,0,0,1,5.17,5.18H17.5A9.34,9.34,0,0,0,8.15.48Z" fill="#ccc" /><path d="M13.34,9.82A5.13,5.13,0,0,0,8.28,4.64H8.15l.33.62a4.5,4.5,0,0,1,4.23,4.25Z" fill="#999" /></g></svg>