<svg id="ace1255c-94e6-4d53-bb3a-34ece21d92fa" xmlns="http://www.w3.org/2000/svg" width="18" height="18" viewBox="0 0 18 18"><defs><linearGradient id="a9aaf2bb-2b64-49fc-9aeb-39d687a60471" x1="7.63" y1="15.34" x2="7.63" y2="5.84" gradientUnits="userSpaceOnUse"><stop offset="0" stop-color="#ccc" /><stop offset="0.15" stop-color="#dadada" /><stop offset="0.44" stop-color="#eee" /><stop offset="0.72" stop-color="#fbfbfb" /><stop offset="1" stop-color="#fff" /></linearGradient></defs><title>Icon-general-8</title><path id="f354248b-347f-4f34-a8b1-60412d94c898" d="M15,4.77h-1v12.8l1-1.93Z" fill="#50e6ff" /><path id="bf20c85f-cfbc-4e9f-9f35-5cecd5301485" d="M15,15.63h0l-1,1.93,1-.8,1.23-.95Z" fill="#9cebff" /><path id="be80f902-4822-48d8-b1cc-57ee4a39e795" d="M8.39,2.86A1.57,1.57,0,0,1,10,1.35a1.57,1.57,0,0,1,1.63,1.51V4.77h.78V2.86A2.35,2.35,0,0,0,10,.57a2.35,2.35,0,0,0-2.4,2.29V4.77h.78Z" fill="#a3a3a3" /><path id="bb07ca4b-ec49-44a9-9a8d-bb0f7a8be768" d="M6,2.86A1.57,1.57,0,0,1,7.62,1.35,1.58,1.58,0,0,1,9.25,2.86V4.77H10V2.86A2.36,2.36,0,0,0,7.62.57a2.35,2.35,0,0,0-2.4,2.29V4.77H6Z" fill="#767676" /><polygon points="13.92 4.77 13.92 17.57 1.45 16.58 1.83 4.77 13.92 4.77" fill="#32bedd" /><polygon points="14.95 4.77 14.95 15.64 16.18 15.82 15.81 4.77 14.95 4.77" fill="#32bedd" /><path d="M12.19,12.31a2.3,2.3,0,0,0-1.79-2.18A2.84,2.84,0,0,0,7.74,7.38,2.47,2.47,0,0,0,5.2,9a2.3,2.3,0,0,0-2.13,2.31A2.74,2.74,0,0,0,5.63,14h.22l4.16.28h.11A2,2,0,0,0,12.19,12.31Z" fill="url(#a9aaf2bb-2b64-49fc-9aeb-39d687a60471)" /></svg>