<svg id="bf97f450-0d91-4db3-8ea1-010780a2af52" xmlns="http://www.w3.org/2000/svg" width="18" height="18" viewBox="0 0 18 18"><defs><linearGradient id="fe22bed8-8e36-415d-8032-3026ad9e8503" x1="8.56" y1="17.59" x2="8.56" y2="0.59" gradientUnits="userSpaceOnUse"><stop offset="0" stop-color="#1988d9" /><stop offset="0.22" stop-color="#218ddc" /><stop offset="0.56" stop-color="#379ce5" /><stop offset="0.9" stop-color="#54aef0" /></linearGradient></defs><title>Icon-general-5</title><path id="b3492ff9-55dd-4864-be78-9e79f3547897" d="M13.77,15.81A8.5,8.5,0,0,1,3.35,2.37l.09-.06a8.5,8.5,0,0,1,10.33,13.5" fill="url(#fe22bed8-8e36-415d-8032-3026ad9e8503)" /><path d="M8.56,6.17a1.24,1.24,0,0,1-.89-.33,1,1,0,0,1-.34-.79,1,1,0,0,1,.34-.79A1.31,1.31,0,0,1,8.56,4a1.28,1.28,0,0,1,.89.3,1,1,0,0,1,.35.79,1,1,0,0,1-.35.8A1.24,1.24,0,0,1,8.56,6.17Zm.64,8.05H7.89a.42.42,0,0,1-.42-.42V7.69a.42.42,0,0,1,.42-.42H9.2a.42.42,0,0,1,.42.42V13.8A.42.42,0,0,1,9.2,14.22Z" fill="#fff" /></svg>