<svg id="b7f3cc8c-0f17-4df2-b094-aa6721afea52" xmlns="http://www.w3.org/2000/svg" width="18" height="18" viewBox="0 0 18 18"><defs><linearGradient id="f2d4c630-5e56-4dbd-bc1a-8308f98f4aba" x1="9" y1="12.43" x2="9" y2="1.26" gradientUnits="userSpaceOnUse"><stop offset="0" stop-color="#0078d4" /><stop offset="0.82" stop-color="#5ea0ef" /></linearGradient><linearGradient id="ae31fcfe-e9ed-4030-a840-88293eb566e7" x1="9" y1="16.74" x2="9" y2="12.43" gradientUnits="userSpaceOnUse"><stop offset="0.15" stop-color="#ccc" /><stop offset="1" stop-color="#707070" /></linearGradient></defs><title>Icon-general-16</title><g><rect x="0.62" y="1.26" width="16.75" height="11.17" rx="0.56" fill="url(#f2d4c630-5e56-4dbd-bc1a-8308f98f4aba)" /><polygon points="11.79 6.34 11.79 9.59 9 11.22 9 7.97 11.79 6.34" fill="#50e6ff" /><polygon points="9 7.97 9 11.22 6.21 9.59 6.21 6.34 9 7.97" fill="#9cebff" /><polygon points="6.21 9.59 9 7.97 9 11.22 6.21 9.59" fill="#c3f1ff" /><polygon points="11.79 9.59 9 7.97 9 11.22 11.79 9.59" fill="#9cebff" /><path d="M12.36,15.81c-1.66-.26-1.72-1.46-1.72-3.38H7.36c0,1.92-.06,3.12-1.72,3.38a1,1,0,0,0-.83.93h8.38A1,1,0,0,0,12.36,15.81Z" fill="url(#ae31fcfe-e9ed-4030-a840-88293eb566e7)" /><path d="M11.13,6.22a3.78,3.78,0,0,1-2.08,0L9,6.17l-.19.07a3.57,3.57,0,0,1-2.07-.15l0,0-.46.27L9,8l2.79-1.64-.38-.22Z" fill="#c3f1ff" /><path d="M12.48,5c-.09-.29-.45-.7-1.83-.28a3.78,3.78,0,0,0-1.55,1,4.33,4.33,0,0,1,2.69-1.73l-1.21-.06L11,3.12a4.34,4.34,0,0,0-2,2.54s0,.09,0,.13A5.89,5.89,0,0,0,6.38,2l.41,1.08-1.68,0A6.37,6.37,0,0,1,8.32,5.21a3.42,3.42,0,0,0-1-.62,2.25,2.25,0,0,0-1.48-.22.63.63,0,0,0-.37.36c-.12.28-.1.83,1.23,1.36a3.57,3.57,0,0,0,2.07.15L9,6.17l.08,0a3.78,3.78,0,0,0,2.08,0,2.33,2.33,0,0,0,1.28-.76A.62.62,0,0,0,12.48,5ZM6.9,5.67c-.78-.31-1.06-.63-1-.79A.11.11,0,0,1,6,4.8c.1,0,.42-.09,1.15.21a3,3,0,0,1,1.17.86A3.27,3.27,0,0,1,6.9,5.67ZM12,5.22a2,2,0,0,1-1,.56,3.2,3.2,0,0,1-1.45.07,3.34,3.34,0,0,1,1.24-.76c.8-.25,1.21-.18,1.27,0A.17.17,0,0,1,12,5.22Z" fill="#ffca00" /></g></svg>