<svg id="e00fef30-156c-4930-8b65-3a593543aa1d" xmlns="http://www.w3.org/2000/svg" width="18" height="18" viewBox="0 0 18 18"><defs><linearGradient id="a45ba9b5-2e08-4c39-8916-0bab184f06e9" x1="9" y1="1.48" x2="9" y2="17.07" gradientUnits="userSpaceOnUse"><stop offset="0" stop-color="#76bc2d" /><stop offset="0.32" stop-color="#73b82c" /><stop offset="0.65" stop-color="#6cab29" /><stop offset="0.99" stop-color="#5e9724" /><stop offset="1" stop-color="#5e9624" /></linearGradient><linearGradient id="e74e2f36-f70f-4351-9609-a084522a8ba7" x1="6.13" y1="9.28" x2="11.87" y2="9.28" gradientUnits="userSpaceOnUse"><stop offset="0" stop-color="#fff" /><stop offset="1" stop-color="#fff" /></linearGradient></defs><title>Icon-general-19</title><path d="M12.35,1.48H5.65a2,2,0,0,0-1.73,1L.58,8.28a2,2,0,0,0,0,2l3.34,5.79a2,2,0,0,0,1.73,1h6.7a2,2,0,0,0,1.73-1l3.34-5.79a2,2,0,0,0,0-2l-3.34-5.8A2,2,0,0,0,12.35,1.48Z" fill="url(#a45ba9b5-2e08-4c39-8916-0bab184f06e9)" /><path d="M9.07,4.81A.82.82,0,0,1,8.25,4,.82.82,0,0,1,9.89,4,.82.82,0,0,1,9.07,4.81Zm-.82,9.75a.82.82,0,1,0,1.64,0,.82.82,0,0,0-1.64,0Zm.84-2.7A1.5,1.5,0,0,1,7.58,11l-1.45.28A2.68,2.68,0,0,0,9,13c1.69,0,2.91-.89,2.91-2.13a2.07,2.07,0,0,0-1.12-2A13,13,0,0,0,9,8.33c-.67-.16-1.1-.53-1.1-1A1,1,0,0,1,9,6.46a1.4,1.4,0,0,1,1.29.69l1.25-.4A2.56,2.56,0,0,0,9,5.45c-1.18,0-2.55.52-2.55,2,0,1.81,1.11,2.17,2.69,2.48.37.07,1.23.32,1.23,1C10.33,11.31,10,11.86,9.09,11.86Z" opacity="0.9" fill="url(#e74e2f36-f70f-4351-9609-a084522a8ba7)" /></svg>