<svg id="a400848c-c804-486a-8905-f23f1ce1f264" xmlns="http://www.w3.org/2000/svg" width="18" height="18" viewBox="0 0 18 18"><defs><linearGradient id="fe3a1fdc-489c-4216-9288-95641230895c" x1="9" y1="2.95" x2="9" y2="6.34" gradientUnits="userSpaceOnUse"><stop offset="0" stop-color="#c69aeb" /><stop offset="1" stop-color="#6f4bb2" /></linearGradient><linearGradient id="bef6728f-6d46-4a54-b219-6b3352c89329" x1="8.99" y1="6.76" x2="8.99" y2="9.22" gradientUnits="userSpaceOnUse"><stop offset="0" stop-color="#54aef0" /><stop offset="1" stop-color="#1988d9" /></linearGradient></defs><title>Icon-general-11</title><g><polygon points="13.69 11.22 12.19 7.92 9 4.2 5.79 7.91 4.28 11.2 4.81 11.45 6.04 8.77 7.25 11.45 7.79 11.21 6.39 8.12 9 5.1 11.6 8.13 10.18 11.21 10.71 11.46 11.94 8.79 13.15 11.47 13.69 11.22" fill="#949494" /><circle cx="9" cy="4.65" r="1.69" fill="url(#fe3a1fdc-489c-4216-9288-95641230895c)" /><path d="M6,6.76A1.23,1.23,0,1,1,4.82,8,1.23,1.23,0,0,1,6,6.76ZM10.72,8a1.22,1.22,0,0,0,1.22,1.22A1.23,1.23,0,1,0,10.72,8Z" fill="url(#bef6728f-6d46-4a54-b219-6b3352c89329)" /><g><g><circle cx="4.54" cy="11.32" r="0.97" fill="#37c2b1" /><circle cx="7.52" cy="11.33" r="0.97" fill="#37c2b1" /></g><g><circle cx="10.44" cy="11.34" r="0.97" fill="#37c2b1" /><circle cx="13.42" cy="11.35" r="0.97" fill="#37c2b1" /></g></g><path d="M.5,15.22a.16.16,0,0,0,.08.14L1.73,16l2,1.14a.18.18,0,0,0,.23-.06L4.57,16a.15.15,0,0,0-.06-.22L2.22,14.41a.16.16,0,0,1-.08-.14V3.73a.16.16,0,0,1,.08-.14L4.51,2.26A.15.15,0,0,0,4.57,2L3.92.89A.18.18,0,0,0,3.69.83L1.77,1.94l-1.19.7a.16.16,0,0,0-.08.14V15.22Z" fill="#949494" /><path d="M4.57,2,3.92.89A.18.18,0,0,0,3.75.81l-.08,0L1.75,1.94l-1.19.7a.1.1,0,0,0-.06,0h0a.24.24,0,0,0,0,.08l1.64,1a.16.16,0,0,1,.08-.14L4.51,2.26A.15.15,0,0,0,4.57,2Z" fill="#a3a3a3" /><path d="M4.57,16l-.65,1.15a.18.18,0,0,1-.17.08.12.12,0,0,1-.08,0L1.75,16.06l-1.19-.7a.1.1,0,0,1-.06,0h0a.24.24,0,0,1,0-.08l1.64-1a.16.16,0,0,0,.08.14l2.29,1.33A.16.16,0,0,1,4.57,16Z" fill="#a3a3a3" /><path d="M17.5,2.78a.16.16,0,0,0-.08-.14L16.27,2l-2-1.14a.18.18,0,0,0-.23.06L13.43,2a.15.15,0,0,0,.06.22l2.29,1.33a.16.16,0,0,1,.08.14V14.27a.16.16,0,0,1-.08.14l-2.29,1.33a.15.15,0,0,0-.06.22l.65,1.15a.18.18,0,0,0,.23.06l1.92-1.11,1.19-.7a.16.16,0,0,0,.08-.14V2.78Z" fill="#949494" /><path d="M13.43,16l.65,1.15a.18.18,0,0,0,.17.08l.08,0,1.92-1.11,1.19-.7a.1.1,0,0,0,.06,0h0a.24.24,0,0,0,0-.08l-1.64-1a.16.16,0,0,1-.08.14l-2.29,1.33A.15.15,0,0,0,13.43,16Z" fill="#a3a3a3" /><path d="M13.43,2,14.08.89a.18.18,0,0,1,.17-.08.12.12,0,0,1,.08,0l1.92,1.11,1.19.7a.1.1,0,0,1,.06,0h0a.24.24,0,0,1,0,.08l-1.64,1a.16.16,0,0,0-.08-.14L13.49,2.26A.16.16,0,0,1,13.43,2Z" fill="#a3a3a3" /></g></svg>