<svg xmlns="http://www.w3.org/2000/svg" width="18" height="18" viewBox="0 0 18 18"><defs><linearGradient id="a9fb18f0-3b0f-496b-bdcd-0aa2af06c410" x1="9" y1="13.343" x2="9" y2="0.586" gradientUnits="userSpaceOnUse"><stop offset="0" stop-color="#0078d4" /><stop offset="1" stop-color="#5ea0ef" /></linearGradient><linearGradient id="f9c8631e-1318-46e5-81e7-ddf268fd2ea1" x1="9.104" y1="10.28" x2="9.104" y2="7.603" gradientUnits="userSpaceOnUse"><stop offset="0" stop-color="#76bc2d" /><stop offset="0.412" stop-color="#7ac32f" /><stop offset="1" stop-color="#86d633" /></linearGradient><linearGradient id="f3400587-2bbd-47f6-ac28-e9a941b1f347" x1="9.119" y1="17.414" x2="9.119" y2="13.924" gradientUnits="userSpaceOnUse"><stop offset="0" stop-color="#0078d4" /><stop offset="1" stop-color="#5ea0ef" /></linearGradient></defs><title>MsPortalFx.base.images-6</title><g id="b5d6c51f-fecd-4739-b92c-3a3190935499"><g><path d="M18,9.348A4.045,4.045,0,0,0,14.49,5.46,5.1,5.1,0,0,0,9.24.586a5.228,5.228,0,0,0-5,3.407A4.827,4.827,0,0,0,0,8.637a4.9,4.9,0,0,0,5.068,4.706c.151,0,.3-.007.447-.019h8.207a.819.819,0,0,0,.217-.032A4.093,4.093,0,0,0,18,9.348Z" fill="url(#a9fb18f0-3b0f-496b-bdcd-0aa2af06c410)" /><rect x="8.295" y="10.097" width="1.693" height="5.35" fill="#005ba1" /><path d="M13.937,5.8A.207.207,0,0,0,13.73,5.6H11.285a.092.092,0,0,0-.065.158l.705.705.047.047a.094.094,0,0,1,0,.13l-.747.747A2.677,2.677,0,0,0,9.708,6.349V4.874A.093.093,0,0,1,9.8,4.781h1.068a.093.093,0,0,0,.066-.158L9.2,2.886a.207.207,0,0,0-.293,0L7.167,4.623a.092.092,0,0,0,.065.158H8.3a.093.093,0,0,1,.093.093V6.349a2.678,2.678,0,0,0-1.56,1.092l-.805-.8a.094.094,0,0,1,0-.13l.047-.047.705-.7A.092.092,0,0,0,6.715,5.6H4.27a.207.207,0,0,0-.207.206V8.249a.093.093,0,0,0,.158.065l.705-.7.047-.047a.092.092,0,0,1,.13,0L6.378,8.838c0,.034,0,.068,0,.1a2.677,2.677,0,1,0,5.354,0c0-.067-.005-.133-.01-.2l1.18-1.18a.092.092,0,0,1,.13,0l.047.047.705.705a.093.093,0,0,0,.158-.065Z" fill="#fff" /><circle cx="9.104" cy="8.941" r="1.338" fill="url(#f9c8631e-1318-46e5-81e7-ddf268fd2ea1)" /><circle cx="9.119" cy="15.669" r="1.745" fill="url(#f3400587-2bbd-47f6-ac28-e9a941b1f347)" /></g></g></svg>