<svg xmlns="http://www.w3.org/2000/svg" width="18" height="18" viewBox="0 0 18 18"><defs><linearGradient id="a9c62307-1cd0-400c-911b-17ec6a9110ce" x1="9" y1="15.834" x2="9" y2="5.788" gradientUnits="userSpaceOnUse"><stop offset="0" stop-color="#32bedd" /><stop offset="0.775" stop-color="#32d4f5" /></linearGradient></defs><title>MsPortalFx.base.images-7</title><g id="f31d214e-f09e-49e3-b3d2-7c5d55682d09"><g><path d="M.5,5.788h17a0,0,0,0,1,0,0v9.478a.568.568,0,0,1-.568.568H1.068A.568.568,0,0,1,.5,15.266V5.788A0,0,0,0,1,.5,5.788Z" fill="url(#a9c62307-1cd0-400c-911b-17ec6a9110ce)" /><path d="M1.071,2.166H16.929a.568.568,0,0,1,.568.568V5.788a0,0,0,0,1,0,0H.5a0,0,0,0,1,0,0V2.734A.568.568,0,0,1,1.071,2.166Z" fill="#0078d4" /><rect x="2.328" y="7.049" width="6.281" height="3.408" rx="0.283" fill="#0078d4" /><rect x="9.336" y="7.049" width="6.281" height="3.408" rx="0.283" fill="#fff" /><rect x="2.296" y="11.128" width="6.281" height="3.408" rx="0.283" fill="#0078d4" /><rect x="9.304" y="11.128" width="6.281" height="3.408" rx="0.283" fill="#0078d4" /></g></g></svg>