<svg xmlns="http://www.w3.org/2000/svg" width="18" height="18" viewBox="0 0 18 18"><defs><linearGradient id="b85e2bf0-3a2f-4cc2-ae5f-60fe5881a2a5" x1="9" y1="15.834" x2="9" y2="5.788" gradientUnits="userSpaceOnUse"><stop offset="0" stop-color="#32bedd" /><stop offset="0.175" stop-color="#32caea" /><stop offset="0.41" stop-color="#32d2f2" /><stop offset="0.775" stop-color="#32d4f5" /></linearGradient></defs><title>MsPortalFx.base.images-15</title><g id="e3e31333-31f4-40d8-9886-d3a1c58d7679"><g><path d="M.5,5.788h17a0,0,0,0,1,0,0v9.478a.568.568,0,0,1-.568.568H1.068A.568.568,0,0,1,.5,15.266V5.788A0,0,0,0,1,.5,5.788Z" fill="url(#b85e2bf0-3a2f-4cc2-ae5f-60fe5881a2a5)" /><path d="M1.071,2.166H16.929a.568.568,0,0,1,.568.568V5.788a0,0,0,0,1,0,0H.5a0,0,0,0,1,0,0V2.734A.568.568,0,0,1,1.071,2.166Z" fill="#0078d4" /><rect x="2.787" y="3.248" width="12.426" height="1.459" rx="0.284" fill="#f2f2f2" /></g></g></svg>