<svg xmlns="http://www.w3.org/2000/svg" width="18" height="18" viewBox="0 0 18 18"><defs><linearGradient id="b0b56ca2-72b1-41c5-af06-32eb990813e7" x1="-4199.359" y1="990.275" x2="-4199.359" y2="982.921" gradientTransform="translate(-4190.224 990.809) rotate(180)" gradientUnits="userSpaceOnUse"><stop offset="0.265" stop-color="#a67af4" /><stop offset="0.45" stop-color="#9e6ff0" /><stop offset="0.771" stop-color="#8952e5" /><stop offset="1" stop-color="#773adc" /></linearGradient><linearGradient id="a6beae7e-dfa6-485f-bc06-215b34038868" x1="9" y1="17.466" x2="9" y2="12.672" gradientUnits="userSpaceOnUse"><stop offset="0" stop-color="#773adc" /><stop offset="0.735" stop-color="#a67af4" /></linearGradient></defs><title>MsPortalFx.base.images-33</title><g id="efce58b1-e297-4fa7-8d29-7ddbd73756de"><g><path d="M12.362,4.809,9.386,7.785a.356.356,0,0,1-.5,0L5.909,4.809a.159.159,0,0,1,.112-.271h1.83a.158.158,0,0,0,.158-.158V.661A.127.127,0,0,1,8.136.534h2a.126.126,0,0,1,.126.127V4.38a.159.159,0,0,0,.159.158h1.83A.159.159,0,0,1,12.362,4.809Z" fill="url(#b0b56ca2-72b1-41c5-af06-32eb990813e7)" /><rect x="0.5" y="12.672" width="17" height="4.793" rx="0.513" fill="url(#a6beae7e-dfa6-485f-bc06-215b34038868)" /><g><rect x="4.174" y="9.308" width="2.488" height="2.488" rx="0.203" fill="#86d633" /><rect x="7.891" y="9.308" width="2.488" height="2.488" rx="0.203" fill="#86d633" /><rect x="11.608" y="9.308" width="2.488" height="2.488" rx="0.203" fill="#86d633" /></g><g><rect x="6.033" y="13.746" width="2.488" height="2.488" rx="0.203" fill="#b4ec36" /><rect x="9.75" y="13.746" width="2.488" height="2.488" rx="0.203" fill="#b4ec36" /></g></g></g></svg>