<svg xmlns="http://www.w3.org/2000/svg" width="18" height="18" viewBox="0 0 18 18"><defs><linearGradient id="a6986099-3b82-46ec-ae9a-c821610c9cc8" x1="9" y1="19.848" x2="9" y2="-1.014" gradientTransform="translate(9 -3.728) rotate(45)" gradientUnits="userSpaceOnUse"><stop offset="0" stop-color="#0078d4" /><stop offset="0.502" stop-color="#4093e6" /><stop offset="0.775" stop-color="#5ea0ef" /></linearGradient></defs><title>MsPortalFx.base.images-14</title><g id="ba9e376e-0f06-43c6-a9cc-07b10bbfa152"><g><rect x="2.46" y="2.46" width="13.079" height="13.079" rx="0.6" transform="translate(-3.728 9) rotate(-45)" fill="url(#a6986099-3b82-46ec-ae9a-c821610c9cc8)" /><path d="M14.728,8.735,13.036,7.209c-.23-.229-.334-.172-.334.172v.676a.213.213,0,0,1-.213.212A2.41,2.41,0,0,1,9.94,6.779V3.62a.291.291,0,0,0-.291-.291H8.191A.291.291,0,0,0,7.9,3.62V11.6a.143.143,0,0,1-.143.143H6.1a.144.144,0,0,0-.1.245l2.695,2.7a.32.32,0,0,0,.454,0l2.7-2.695a.144.144,0,0,0-.1-.245H10.083A.143.143,0,0,1,9.94,11.6V8.917a4.437,4.437,0,0,0,2.548.7.209.209,0,0,1,.214.211v.73c0,.286.155.351.334.172l1.692-1.646A.211.211,0,0,0,14.728,8.735Z" fill="#c3f1ff" /></g></g></svg>