<svg xmlns="http://www.w3.org/2000/svg" width="18" height="18" viewBox="0 0 18 18"><defs><linearGradient id="b6397d2e-3ba1-4824-829e-9978a5335072" x1="9" y1="15.834" x2="9" y2="5.788" gradientUnits="userSpaceOnUse"><stop offset="0" stop-color="#0078d4" /><stop offset="0.502" stop-color="#4093e6" /><stop offset="0.775" stop-color="#5ea0ef" /></linearGradient><linearGradient id="b054a213-2b95-4773-bd8d-5833c021a783" x1="3.754" y1="11.614" x2="6.975" y2="11.614" gradientTransform="translate(9.78 -0.365) rotate(44.919)" gradientUnits="userSpaceOnUse"><stop offset="0" stop-color="#5ea0ef" /><stop offset="0.372" stop-color="#9fc6f5" /><stop offset="0.8" stop-color="#e4effc" /><stop offset="1" stop-color="#fff" /></linearGradient><linearGradient id="ae8082eb-8439-45c6-ad31-2630ec597ba3" x1="10.83" y1="11.614" x2="14.05" y2="11.614" gradientTransform="translate(29.528 11.086) rotate(135.081)" gradientUnits="userSpaceOnUse"><stop offset="0" stop-color="#fff" /><stop offset="0.2" stop-color="#e4effc" /><stop offset="0.628" stop-color="#9fc6f5" /><stop offset="1" stop-color="#5ea0ef" /></linearGradient></defs><title>MsPortalFx.base.images-27</title><g id="ab07e3c1-374c-4c6b-be01-1dbf388ebd9f"><g><path d="M.5,5.788h17a0,0,0,0,1,0,0v9.478a.568.568,0,0,1-.568.568H1.068A.568.568,0,0,1,.5,15.266V5.788A0,0,0,0,1,.5,5.788Z" fill="url(#b6397d2e-3ba1-4824-829e-9978a5335072)" /><path d="M1.071,2.166H16.929a.568.568,0,0,1,.568.568V5.788a0,0,0,0,1,0,0H.5a0,0,0,0,1,0,0V2.734A.568.568,0,0,1,1.071,2.166Z" fill="#0078d4" /><path d="M5.244,9.632h.49a0,0,0,0,1,0,0V13.5a.157.157,0,0,1-.157.157h-.49A.157.157,0,0,1,4.93,13.5V9.945a.314.314,0,0,1,.314-.314Z" transform="translate(-6.667 7.165) rotate(-44.919)" fill="url(#b054a213-2b95-4773-bd8d-5833c021a783)" /><path d="M4.951,7.3h.49a.314.314,0,0,1,.314.314v3.617a.157.157,0,0,1-.157.157h-.49a.157.157,0,0,1-.157-.157V7.3a0,0,0,0,1,0,0Z" transform="translate(2.516 19.734) rotate(-134.919)" fill="#f2f2f2" /><path d="M12.228,9.632h.49a.157.157,0,0,1,.157.157v3.873a0,0,0,0,1,0,0h-.49a.314.314,0,0,1-.314-.314V9.788a.157.157,0,0,1,.157-.157Z" transform="translate(13.081 28.701) rotate(-135.081)" fill="url(#ae8082eb-8439-45c6-ad31-2630ec597ba3)" /><path d="M12.2,7.3h.49a.157.157,0,0,1,.157.157v3.617a.314.314,0,0,1-.314.314h-.49a0,0,0,0,1,0,0V7.46A.157.157,0,0,1,12.2,7.3Z" transform="translate(-2.96 11.562) rotate(-45.081)" fill="#f2f2f2" /><rect x="8.547" y="6.598" width="0.806" height="7.634" rx="0.112" transform="translate(3.602 -2.233) rotate(17.752)" fill="#f2f2f2" /></g></g></svg>