<svg xmlns="http://www.w3.org/2000/svg" width="18" height="18" viewBox="0 0 18 18"><title>MsPortalFx.base.images-12</title><g id="b83efaea-bdda-4ca6-b3f3-bd9b440f1d12"><g><path d="M17.5,5.788V2.734a.568.568,0,0,0-.568-.568H1.071A.568.568,0,0,0,.5,2.734V5.788h0v9.478a.568.568,0,0,0,.568.568H16.932a.568.568,0,0,0,.568-.568V5.788Z" fill="#0078d4" /><g><rect x="1.857" y="4.552" width="4.13" height="8.895" rx="0.307" fill="#fff" /><rect x="6.94" y="4.552" width="4.13" height="8.895" rx="0.307" fill="#fff" opacity="0.75" /><rect x="12.023" y="4.552" width="4.13" height="8.895" rx="0.307" fill="#fff" opacity="0.5" /></g><path d="M3.9,11.1q-1.446,0-1.446-2.031a2.763,2.763,0,0,1,.391-1.606,1.3,1.3,0,0,1,1.134-.552q1.411,0,1.412,2.065a2.723,2.723,0,0,1-.386,1.576A1.27,1.27,0,0,1,3.9,11.1ZM3.939,7.6Q3.36,7.6,3.36,9.05q0,1.371.568,1.37t.554-1.412Q4.482,7.6,3.939,7.6Z" fill="#0078d4" /><path d="M8.911,11.1q-1.446,0-1.446-2.031a2.763,2.763,0,0,1,.392-1.606,1.3,1.3,0,0,1,1.134-.552q1.412,0,1.412,2.065a2.723,2.723,0,0,1-.386,1.576A1.27,1.27,0,0,1,8.911,11.1ZM8.951,7.6q-.579,0-.579,1.454,0,1.371.568,1.37t.553-1.412Q9.493,7.6,8.951,7.6Z" fill="#0078d4" /><path d="M14.8,6.939V11.08H13.91V7.945a1.044,1.044,0,0,1-.174.122,1.757,1.757,0,0,1-.213.105,2.026,2.026,0,0,1-.235.079,1.752,1.752,0,0,1-.24.047V7.546a3.661,3.661,0,0,0,.655-.259,3.773,3.773,0,0,0,.557-.348Z" fill="#f2f2f2" /></g></g></svg>