<svg xmlns="http://www.w3.org/2000/svg" width="18" height="18" viewBox="0 0 18 18"><defs><linearGradient id="bd54f8cd-a509-4194-8c72-54392055662b" x1="9" y1="13.145" x2="9" y2="0.387" gradientUnits="userSpaceOnUse"><stop offset="0" stop-color="#0078d4" /><stop offset="0.156" stop-color="#1380da" /><stop offset="0.528" stop-color="#3c91e5" /><stop offset="0.822" stop-color="#559cec" /><stop offset="1" stop-color="#5ea0ef" /></linearGradient><linearGradient id="bba29445-f259-4769-b9d5-17942be8e3ea" x1="13.102" y1="17.613" x2="13.102" y2="9.07" gradientUnits="userSpaceOnUse"><stop offset="0" stop-color="#32bedd" /><stop offset="0.175" stop-color="#32caea" /><stop offset="0.41" stop-color="#32d2f2" /><stop offset="0.775" stop-color="#32d4f5" /></linearGradient></defs><title>MsPortalFx.base.images-17</title><g id="eac1eaca-e5a4-44bb-9cfc-c100fad7ac76"><g><path d="M18,9.149a4.045,4.045,0,0,0-3.51-3.888A5.1,5.1,0,0,0,9.24.387a5.228,5.228,0,0,0-5,3.408A4.825,4.825,0,0,0,0,8.438a4.9,4.9,0,0,0,5.068,4.707c.151,0,.3-.008.447-.02h8.207a.819.819,0,0,0,.217-.032A4.093,4.093,0,0,0,18,9.149Z" fill="url(#bd54f8cd-a509-4194-8c72-54392055662b)" /><path d="M10.588,14.3a2.531,2.531,0,0,0,.027,1.49,2.609,2.609,0,0,0,5-1.49l-2.5-5.225Z" fill="url(#bba29445-f259-4769-b9d5-17942be8e3ea)" /></g></g></svg>