<svg xmlns="http://www.w3.org/2000/svg" width="18" height="18" viewBox="0 0 18 18"><defs><linearGradient id="b1a97c07-b126-40c1-af5c-44a3b300d0ee" x1="-655.644" y1="751.401" x2="-655.644" y2="763.239" gradientTransform="translate(667.725 -742.844)" gradientUnits="userSpaceOnUse"><stop offset="0" stop-color="#76bc2d" /><stop offset="0.312" stop-color="#72b62c" /><stop offset="1" stop-color="#5e9624" /></linearGradient><linearGradient id="a3877e25-982a-4897-8137-8a5dd1ced9f3" x1="-650.227" y1="759.495" x2="-650.227" y2="763.239" gradientTransform="translate(666.355 -752.308)" gradientUnits="userSpaceOnUse"><stop offset="0" stop-color="#76bc2d" /><stop offset="0.312" stop-color="#72b62c" /><stop offset="1" stop-color="#5e9624" /></linearGradient><linearGradient id="a0958e5a-331e-4c24-9b86-75ae08b642f3" x1="-644.724" y1="751.401" x2="-644.724" y2="763.239" gradientTransform="translate(656.805 -753.765)" gradientUnits="userSpaceOnUse"><stop offset="0" stop-color="#76bc2d" /><stop offset="0.312" stop-color="#72b62c" /><stop offset="1" stop-color="#5e9624" /></linearGradient></defs><title>MsPortalFx.base.images-30</title><g id="a3ae00bc-15ee-4389-87b9-1b75a9b18163"><g><rect x="7.753" y="5.476" width="2.494" height="18" rx="0.596" transform="translate(-5.476 23.476) rotate(-90)" fill="#5e9624" /><rect x="7.753" y="0.059" width="2.494" height="18" rx="0.596" transform="translate(-0.059 18.059) rotate(-90)" fill="#5e9624" /><rect x="7.753" y="-5.444" width="2.494" height="18" rx="0.596" transform="translate(5.444 12.556) rotate(-90)" fill="#5e9624" /><rect x="10.834" y="8.557" width="2.494" height="11.838" rx="0.596" transform="translate(-2.395 26.557) rotate(-90)" fill="url(#b1a97c07-b126-40c1-af5c-44a3b300d0ee)" /><rect x="14.881" y="7.187" width="2.494" height="3.744" rx="0.596" transform="translate(7.068 25.187) rotate(-90)" fill="url(#a3877e25-982a-4897-8137-8a5dd1ced9f3)" /><rect x="10.834" y="-2.363" width="2.494" height="11.838" rx="0.596" transform="translate(8.525 15.637) rotate(-90)" fill="url(#a0958e5a-331e-4c24-9b86-75ae08b642f3)" /><rect x="4.74" y="13.855" width="3.766" height="1.178" rx="0.589" transform="translate(-7.821 21.067) rotate(-90)" fill="#e6e6e6" /><rect x="12.671" y="8.419" width="3.766" height="1.178" rx="0.589" transform="translate(5.546 23.562) rotate(-90)" fill="#e6e6e6" /><rect x="4.74" y="2.967" width="3.766" height="1.178" rx="0.589" transform="translate(3.067 10.179) rotate(-90)" fill="#e6e6e6" /></g></g></svg>