<svg xmlns="http://www.w3.org/2000/svg" width="18" height="18" viewBox="0 0 18 18"><defs><linearGradient id="e5371565-cc9b-4729-9e54-9bac135a92bd" x1="9" y1="18" x2="9" gradientUnits="userSpaceOnUse"><stop offset="0" stop-color="#0078d4" /><stop offset="0.817" stop-color="#5ea0ef" /></linearGradient></defs><title>MsPortalFx.base.images-22</title><g id="abc3e3f9-d4db-41ad-8b60-378d1c3348f7"><g><g><path d="M10.023.134H2.362A.605.605,0,0,0,1.757.74V17.26a.605.605,0,0,0,.605.606H15.638a.605.605,0,0,0,.6-.606V6.327a.605.605,0,0,0-.6-.606H11.232a.605.605,0,0,1-.6-.605V.74A.6.6,0,0,0,10.023.134Z" fill="#fff" /><path d="M9.743.908V5.057a1.524,1.524,0,0,0,1.52,1.523h4.18V17.092H2.557V.908H9.743M10.036,0H2.264A.614.614,0,0,0,1.65.615v16.77A.614.614,0,0,0,2.264,18H15.736a.614.614,0,0,0,.614-.615V6.286a.614.614,0,0,0-.614-.614H11.263a.614.614,0,0,1-.613-.615V.615A.614.614,0,0,0,10.036,0Z" fill="url(#e5371565-cc9b-4729-9e54-9bac135a92bd)" /><path d="M16.116,5.794,10.438.134V4.746a1.041,1.041,0,0,0,1.035,1.048Z" fill="#0078d4" /></g><rect x="4" y="8.196" width="9.999" height="1.341" rx="0.603" fill="#5ea0ef" /><rect x="4" y="10.599" width="9.999" height="1.341" rx="0.603" fill="#5ea0ef" /><rect x="4" y="13.002" width="6.302" height="1.341" rx="0.603" fill="#5ea0ef" /></g></g></svg>