<svg xmlns="http://www.w3.org/2000/svg" width="18" height="18" viewBox="0 0 18 18"><defs><linearGradient id="ee9e6206-3cd1-473c-8654-89b04e62a5fd" x1="11.246" y1="18" x2="11.246" y2="3.281" gradientUnits="userSpaceOnUse"><stop offset="0" stop-color="#0078d4" /><stop offset="0.817" stop-color="#5ea0ef" /></linearGradient></defs><title>MsPortalFx.base.images-23</title><g id="ff5c5c80-dfbf-4584-91f1-56ebc112ac71"><g><rect x="1.078" y="0.334" width="10.11" height="11.685" fill="#5ea0ef" /><path d="M11.188,12.353H1.078a.334.334,0,0,1-.334-.334V.334A.333.333,0,0,1,1.078,0h10.11a.333.333,0,0,1,.333.334V12.019A.334.334,0,0,1,11.188,12.353Zm-9.777-.668h9.443V.668H1.411Z" fill="#0078d4" /><rect x="3.01" y="1.918" width="10.11" height="11.685" fill="#83b9f9" /><path d="M13.12,13.937H3.01a.335.335,0,0,1-.334-.334V1.918a.335.335,0,0,1,.334-.334H13.12a.334.334,0,0,1,.334.334V13.6A.334.334,0,0,1,13.12,13.937Zm-9.776-.668h9.443V2.252H3.344Z" fill="#0078d4" /><g><path d="M12.082,3.39H5.818a.5.5,0,0,0-.495.5V17.4a.5.5,0,0,0,.495.5H16.674a.5.5,0,0,0,.494-.5V8.454a.5.5,0,0,0-.494-.5h-3.6a.5.5,0,0,1-.495-.495V3.886A.5.5,0,0,0,12.082,3.39Z" fill="#fff" /><path d="M11.853,4.023V7.416A1.246,1.246,0,0,0,13.1,8.661h3.418v8.6H5.977V4.023h5.876m.24-.742H5.737a.5.5,0,0,0-.5.5V17.5a.5.5,0,0,0,.5.5H16.754a.5.5,0,0,0,.5-.5V8.421a.5.5,0,0,0-.5-.5H13.1a.5.5,0,0,1-.5-.5V3.783a.5.5,0,0,0-.5-.5Z" fill="url(#ee9e6206-3cd1-473c-8654-89b04e62a5fd)" /><path d="M17.064,8.019,12.422,3.39V7.162a.852.852,0,0,0,.846.857Z" fill="#0078d4" /></g><rect x="7.157" y="9.982" width="8.177" height="1.097" rx="0.493" fill="#5ea0ef" /><rect x="7.157" y="11.948" width="8.177" height="1.097" rx="0.493" fill="#5ea0ef" /><rect x="7.157" y="13.913" width="5.154" height="1.097" rx="0.493" fill="#5ea0ef" /></g></g></svg>