<svg xmlns="http://www.w3.org/2000/svg" width="18" height="18" viewBox="0 0 18 18"><defs><linearGradient id="bc325d07-864b-4946-a0b7-6e17647feb1e" x1="-212.049" y1="722.745" x2="-212.049" y2="734.871" gradientTransform="matrix(0.707, 0.707, 0.707, -0.707, -357.533, 671.849)" gradientUnits="userSpaceOnUse"><stop offset="0" stop-color="#0078d4" /><stop offset="0.82" stop-color="#5ea0ef" /></linearGradient><clipPath id="a2d3a9ab-6b81-49cc-a6d0-1eb27e4d8e5e"><circle cx="7.871" cy="6.563" r="6.063" fill="none" /></clipPath></defs><title>MsPortalFx.base.images-68</title><g id="ae08251c-f90b-45c3-901b-bcb035722af4"><g><path d="M9.3,14.752c0-.154-.613-.154-.613,0a1.656,1.656,0,0,1-1.636,1.8h3.882A1.655,1.655,0,0,1,9.3,14.752Z" fill="#ef7100" /><path d="M13.335,1.1a.571.571,0,0,1,.807,0l.026.028A8.32,8.32,0,0,1,2.432,12.858a.57.57,0,0,1-.049-.8l.025-.026h0A.571.571,0,0,1,3.19,12,7.178,7.178,0,0,0,13.312,1.882.573.573,0,0,1,13.335,1.1Z" fill="#f78d1e" /><path d="M11.946,17.5h-5.9a.476.476,0,0,1-.476-.476h0a.476.476,0,0,1,.476-.476h5.9a.476.476,0,0,1,.475.476h0A.476.476,0,0,1,11.946,17.5Z" fill="#f78d1e" /><circle cx="7.871" cy="6.563" r="6.063" fill="url(#bc325d07-864b-4946-a0b7-6e17647feb1e)" /><g clip-path="url(#a2d3a9ab-6b81-49cc-a6d0-1eb27e4d8e5e)"><path d="M.724,1.776,2.686,3.738a.839.839,0,0,1,0,1.187h0a.839.839,0,0,1-1.187,0L-.463,2.963a.839.839,0,0,1,0-1.187h0A.841.841,0,0,1,.724,1.776Z" fill="#42e8ca" /><path d="M6.7,5.389h0a.839.839,0,0,1,0,1.187h0a.841.841,0,0,1-1.187,0h0a.841.841,0,0,1,0-1.187h0A.839.839,0,0,1,6.7,5.389Z" fill="#42e8ca" /><path d="M3.871-1.974,7.157,1.312a1.407,1.407,0,0,1,0,1.989h0a1.407,1.407,0,0,1-1.989,0L1.882.015a1.407,1.407,0,0,1,0-1.989h0A1.407,1.407,0,0,1,3.871-1.974Z" fill="#42e8ca" /><rect x="12.667" y="3.516" width="4.596" height="12.191" rx="2.297" transform="translate(-2.413 13.397) rotate(-45)" fill="#42e8ca" /><path d="M9.744,11.85l6.119,6.119a2.618,2.618,0,0,1,0,3.7h0a2.618,2.618,0,0,1-3.7,0L6.041,15.554a2.619,2.619,0,0,1,0-3.7h0A2.619,2.619,0,0,1,9.744,11.85Z" fill="#42e8ca" /><path d="M10.478,9.637a.446.446,0,0,0,.63,0l0,0h0a.445.445,0,0,0,0-.63l0,0,5.04,5.039-1.407,1.418" fill="#42e8ca" /><path d="M10.487,9.646l1.468,1.468a.606.606,0,0,1,0,.856h0a.606.606,0,0,1-.856,0L9.631,10.5a.606.606,0,0,1,0-.856h0A.606.606,0,0,1,10.487,9.646Z" fill="#42e8ca" /></g></g></g></svg>