<svg xmlns="http://www.w3.org/2000/svg" width="18" height="18" viewBox="0 0 18 18"><defs><linearGradient id="a688f580-ce26-4bab-99ad-74e6813bb8cb" x1="-234.309" y1="776.485" x2="-234.309" y2="788.611" gradientTransform="matrix(0.707, 0.707, 0.707, -0.707, -379.792, 725.589)" gradientUnits="userSpaceOnUse"><stop offset="0" stop-color="#5e9624" /><stop offset="0.82" stop-color="#76bc2d" /></linearGradient></defs><title>MsPortalFx.base.images-70</title><g id="e5e21a0c-214a-4f21-9e9f-6b29445c78c6"><g><path d="M9.3,14.752c0-.154-.613-.154-.613,0a1.656,1.656,0,0,1-1.636,1.8h3.882A1.655,1.655,0,0,1,9.3,14.752Z" fill="#999" /><path d="M13.335,1.1a.571.571,0,0,1,.807,0l.026.028A8.32,8.32,0,0,1,2.432,12.858a.57.57,0,0,1-.049-.8l.025-.026h0A.571.571,0,0,1,3.19,12,7.178,7.178,0,0,0,13.312,1.882.573.573,0,0,1,13.335,1.1Z" fill="#a3a3a3" /><path d="M11.946,17.5h-5.9a.476.476,0,0,1-.476-.476h0a.476.476,0,0,1,.476-.476h5.9a.476.476,0,0,1,.475.476h0A.476.476,0,0,1,11.946,17.5Z" fill="#a3a3a3" /><circle cx="7.871" cy="6.563" r="6.063" fill="url(#a688f580-ce26-4bab-99ad-74e6813bb8cb)" /><g><path d="M5.093,5.875h.788a.243.243,0,0,1,.243.243V9.247a.243.243,0,0,1-.243.243H5.336a.243.243,0,0,1-.243-.243V5.875A0,0,0,0,1,5.093,5.875Z" transform="translate(15.006 9.149) rotate(135)" fill="#fff" /><path d="M8.525,2.615h.788a0,0,0,0,1,0,0v7.2a.243.243,0,0,1-.243.243H8.525a.243.243,0,0,1-.243-.243V2.857a.243.243,0,0,1,.243-.243Z" transform="translate(10.54 17.034) rotate(-135)" fill="#f2f2f2" /></g></g></g></svg>