<svg xmlns="http://www.w3.org/2000/svg" width="18" height="18" viewBox="0 0 18 18"><defs><linearGradient id="ba550277-e5d9-459d-bfde-60aa3d6d8bb4" x1="9.252" y1="0.485" x2="8.842" y2="16.966" gradientUnits="userSpaceOnUse"><stop offset="0" stop-color="#ffd400" /><stop offset="0.415" stop-color="#ffd000" /><stop offset="0.845" stop-color="#ffc301" /><stop offset="1" stop-color="#ffbd02" /></linearGradient></defs><title>MsPortalFx.base.images-24</title><g id="a2d6bd0e-ea40-44ec-b813-9a41f466150e"><g><path d="M17.579,3.283H9.727a.419.419,0,0,1-.233-.07L7.251,1.721a.42.42,0,0,0-.233-.071H.421A.42.42,0,0,0,0,2.07V15.93a.42.42,0,0,0,.421.42H17.579A.42.42,0,0,0,18,15.93V3.7A.42.42,0,0,0,17.579,3.283Z" fill="#dfa500" /><rect x="1.636" y="2.455" width="4.091" height="0.818" rx="0.172" fill="#fff" /><path d="M17.579,3.263H8.956a.421.421,0,0,0-.3.123L7.272,4.773a.42.42,0,0,1-.3.123H.421A.42.42,0,0,0,0,5.316V15.91a.42.42,0,0,0,.421.419H17.579A.42.42,0,0,0,18,15.91V3.683A.42.42,0,0,0,17.579,3.263Z" fill="url(#ba550277-e5d9-459d-bfde-60aa3d6d8bb4)" /></g></g></svg>