<svg xmlns="http://www.w3.org/2000/svg" width="18" height="18" viewBox="0 0 18 18"><defs><linearGradient id="b4d65429-39a9-4d3c-85af-f8ad199f2004" x1="-245.439" y1="803.355" x2="-245.439" y2="815.481" gradientTransform="matrix(0.707, 0.707, 0.707, -0.707, -390.922, 752.459)" gradientUnits="userSpaceOnUse"><stop offset="0" stop-color="#ef7100" /><stop offset="0.82" stop-color="#f78d1e" /></linearGradient></defs><title>MsPortalFx.base.images-71</title><g id="f116162d-f975-4c6c-81c1-198ce56565ec"><g><path d="M9.3,14.752c0-.154-.613-.154-.613,0a1.656,1.656,0,0,1-1.636,1.8h3.882A1.655,1.655,0,0,1,9.3,14.752Z" fill="#999" /><path d="M13.335,1.1a.571.571,0,0,1,.807,0l.026.028A8.32,8.32,0,0,1,2.432,12.858a.57.57,0,0,1-.049-.8l.025-.026h0A.571.571,0,0,1,3.19,12,7.178,7.178,0,0,0,13.312,1.882.573.573,0,0,1,13.335,1.1Z" fill="#a3a3a3" /><path d="M11.946,17.5h-5.9a.476.476,0,0,1-.476-.476h0a.476.476,0,0,1,.476-.476h5.9a.476.476,0,0,1,.475.476h0A.476.476,0,0,1,11.946,17.5Z" fill="#a3a3a3" /><circle cx="7.871" cy="6.563" r="6.063" fill="url(#b4d65429-39a9-4d3c-85af-f8ad199f2004)" /><path d="M4.15,9.515h7.562a.293.293,0,0,0,.251-.443L8.183,2.717a.293.293,0,0,0-.5,0L3.9,9.072A.293.293,0,0,0,4.15,9.515Z" fill="#f2f2f2" /><path d="M8.254,7.571H7.608a.146.146,0,0,1-.152-.134L7.387,4.491a.144.144,0,0,1,.151-.14h.786a.144.144,0,0,1,.151.14L8.406,7.437A.146.146,0,0,1,8.254,7.571Z" fill="#f78d1e" /><circle cx="7.931" cy="8.451" r="0.516" fill="#f78d1e" /></g></g></svg>