<svg xmlns="http://www.w3.org/2000/svg" width="18" height="18" viewBox="0 0 18 18"><defs><linearGradient id="b76ba356-3d29-41f5-a521-8647fe84a8b4" x1="9" y1="297.5" x2="9" y2="280.5" gradientTransform="translate(0 -280)" gradientUnits="userSpaceOnUse"><stop offset="0" stop-color="#32bedd" /><stop offset="1" stop-color="#32d4f5" /></linearGradient></defs><path d="M17.5,9.9V8l-.3-.1-2.1-.7-.5-1.3,1.1-2.2L14.3,2.3l-.3.1-1.9,1-1.3-.5L9.9.5H8L7.9.8l-.7,2-1.3.6L3.7,2.3,2.3,3.7l.1.3,1,1.9L2.9,7.2.5,8.1V10l.3.1,2.1.7.5,1.3L2.3,14.3l1.4,1.4.3-.1,1.9-1,1.3.5.9,2.3H10l.1-.3.7-2.1,1.3-.5,2.2,1.1,1.4-1.4-.1-.2-1-1.9.5-1.3Z" fill="url(#b76ba356-3d29-41f5-a521-8647fe84a8b4)" /><path d="M12.3,6.5l-.8.7a2.911,2.911,0,0,1-.3,4.2A2.906,2.906,0,0,1,7,11.1,2.91,2.91,0,0,1,7,7.2h.1l.6.5h.1V7.6l-.2-2c0-.1-.1-.1-.2-.1l-1.9.3a.1.1,0,0,0-.1.1h0l.6.5H6v.1H6a3.976,3.976,0,1,0,6.1,5.1A3.63,3.63,0,0,0,12.3,6.5Z" fill="#fff" /></svg>