<svg xmlns="http://www.w3.org/2000/svg" width="18" height="18" viewBox="0 0 18 18"><defs><linearGradient id="a40543c1-03b8-4190-8346-b855075b3f0d" x1="7.863" x2="7.863" y2="12.81" gradientUnits="userSpaceOnUse"><stop offset="0" stop-color="#b77af4" /><stop offset="0.621" stop-color="#8c4fe4" /><stop offset="0.997" stop-color="#773adc" /></linearGradient></defs><title>MsPortalFx.base.images-49</title><g id="e24f1216-e555-4a33-b1ed-d87b36f6ba1d"><g><circle id="a5eab3d8-3bb2-4f0d-b199-b7e448427ca9" cx="7.83" cy="12.908" r="2.228" fill="#32bedd" /><path d="M7.83,16.491a3.584,3.584,0,1,1,3.583-3.583A3.587,3.587,0,0,1,7.83,16.491Zm0-6.558A2.975,2.975,0,1,0,10.8,12.908,2.978,2.978,0,0,0,7.83,9.933Z" fill="#50e6ff" /><path d="M7.83,18a5.093,5.093,0,1,1,5.092-5.092A5.1,5.1,0,0,1,7.83,18Zm0-9.576a4.484,4.484,0,1,0,4.483,4.484A4.489,4.489,0,0,0,7.83,8.424Z" fill="#9cebff" /><path d="M7.863,0A3.894,3.894,0,0,0,4.092,4.063c0,1.772,2.249,5.922,3.274,8.413a.535.535,0,0,0,.992,0c1.023-2.507,3.277-6.7,3.277-8.412A3.941,3.941,0,0,0,7.863,0Zm0,5.5A1.677,1.677,0,1,1,9.54,3.826,1.676,1.676,0,0,1,7.863,5.5Z" fill="url(#a40543c1-03b8-4190-8346-b855075b3f0d)" /></g></g></svg>