<svg xmlns="http://www.w3.org/2000/svg" width="18" height="18" viewBox="0 0 18 18"><defs><linearGradient id="bee85384-9e9c-4b99-860a-035f34594aeb" x1="-1803.596" y1="-323.82" x2="-1810.471" y2="-323.82" gradientTransform="translate(-319.458 1815.906) rotate(90)" gradientUnits="userSpaceOnUse"><stop offset="0" stop-color="#773adc" /><stop offset="1" stop-color="#a67af4" /></linearGradient><linearGradient id="a79d202b-70d8-4e85-ba3f-172abdf18f47" x1="-1803.596" y1="-333.097" x2="-1810.471" y2="-333.097" gradientTransform="translate(-319.458 1815.906) rotate(90)" gradientUnits="userSpaceOnUse"><stop offset="0" stop-color="#1b93eb" /><stop offset="1" stop-color="#6bb9f2" /></linearGradient></defs><title>MsPortalFx.base.images-64</title><g><g id="bada6f51-f3a0-4c9c-9aba-1b96aae76e99"><g><g><path d="M1.313,1.746H2.549a0,0,0,0,1,0,0V5.2a.274.274,0,0,1-.274.274H1.039A.274.274,0,0,1,.765,5.2V2.294A.548.548,0,0,1,1.313,1.746Z" fill="#999" /><path d="M1.313,1.746H2.549a0,0,0,0,1,0,0V5.2a.274.274,0,0,1-.274.274H1.039A.274.274,0,0,1,.765,5.2V2.294A.548.548,0,0,1,1.313,1.746Z" fill="#999" opacity="0.5" /></g><g><path d="M15.271,1.746h1.236a.548.548,0,0,1,.548.548V5.2a.274.274,0,0,1-.274.274H15.545a.274.274,0,0,1-.274-.274V1.746A0,0,0,0,1,15.271,1.746Z" fill="#999" /><path d="M15.271,1.746h1.236a.548.548,0,0,1,.548.548V5.2a.274.274,0,0,1-.274.274H15.545a.274.274,0,0,1-.274-.274V1.746A0,0,0,0,1,15.271,1.746Z" fill="#999" opacity="0.5" /></g><path d="M8.584-5.53h1.2a0,0,0,0,1,0,0V10.76a0,0,0,0,1,0,0h-1.2a.543.543,0,0,1-.543-.543v-15.2A.543.543,0,0,1,8.584-5.53Z" transform="translate(11.525 -6.295) rotate(90)" fill="#949494" /><g><path d="M1.039,12.526H2.276a.274.274,0,0,1,.274.274v3.454a0,0,0,0,1,0,0H1.313a.548.548,0,0,1-.548-.548V12.8A.274.274,0,0,1,1.039,12.526Z" fill="#999" /><path d="M1.039,12.526H2.276a.274.274,0,0,1,.274.274v3.454a0,0,0,0,1,0,0H1.313a.548.548,0,0,1-.548-.548V12.8A.274.274,0,0,1,1.039,12.526Z" fill="#999" opacity="0.5" /></g><g><path d="M15.545,12.526h1.236a.274.274,0,0,1,.274.274v2.907a.548.548,0,0,1-.548.548H15.271a0,0,0,0,1,0,0V12.8A.274.274,0,0,1,15.545,12.526Z" fill="#999" /><path d="M15.545,12.526h1.236a.274.274,0,0,1,.274.274v2.907a.548.548,0,0,1-.548.548H15.271a0,0,0,0,1,0,0V12.8A.274.274,0,0,1,15.545,12.526Z" fill="#999" opacity="0.5" /></g><path d="M8.584,7.24h1.2a0,0,0,0,1,0,0V23.53a0,0,0,0,1,0,0h-1.2a.543.543,0,0,1-.543-.543V7.783A.543.543,0,0,1,8.584,7.24Z" transform="translate(-6.475 24.295) rotate(-90)" fill="#949494" /><path d="M4.989,5.484,8.114,8.609a.372.372,0,0,1,0,.527L4.989,12.261a.166.166,0,0,1-.284-.118V10.222a.166.166,0,0,0-.166-.167H.633A.132.132,0,0,1,.5,9.922v-2.1A.132.132,0,0,1,.633,7.69H4.539a.166.166,0,0,0,.166-.167V5.6A.166.166,0,0,1,4.989,5.484Z" fill="url(#bee85384-9e9c-4b99-860a-035f34594aeb)" /><path d="M14.266,5.484l3.125,3.125a.374.374,0,0,1,0,.527l-3.125,3.125a.166.166,0,0,1-.284-.118V10.222a.167.167,0,0,0-.167-.167H9.909a.132.132,0,0,1-.132-.133v-2.1a.132.132,0,0,1,.132-.133h3.906a.167.167,0,0,0,.167-.167V5.6A.166.166,0,0,1,14.266,5.484Z" fill="url(#a79d202b-70d8-4e85-ba3f-172abdf18f47)" /></g></g></g></svg>