<svg xmlns="http://www.w3.org/2000/svg" width="18" height="18" viewBox="0 0 18 18"><defs><linearGradient id="ac22aabe-4ac7-4cbd-b097-801c2888e610" x1="8.153" y1="17.5" x2="8.153" y2="2.093" gradientUnits="userSpaceOnUse"><stop offset="0" stop-color="#ef7100" /><stop offset="0.9" stop-color="#f78d1e" /></linearGradient></defs><title>MsPortalFx.base.images-59</title><g id="a681ca9a-06ce-4a10-9f33-874f6c970dec"><g><path d="M1.931,2.109,3.142.7A.591.591,0,0,1,3.586.5H15.2a.813.813,0,0,1,.888.831v14.5a.59.59,0,0,1-.192.435l-1.308,1.191H2.716l-.8-.337Z" fill="#d15900" /><path d="M2.905,2.1l.742-.846a.522.522,0,0,1,.394-.179H14.886a.522.522,0,0,1,.522.522V15.383a.521.521,0,0,1-.171.386l-1.158,1.055Z" fill="#fff" /><path d="M14.008,2.093H1.969a.056.056,0,0,0-.056.056V17.115A.385.385,0,0,0,2.3,17.5h11.71a.385.385,0,0,0,.385-.385V2.478A.386.386,0,0,0,14.008,2.093Z" fill="url(#ac22aabe-4ac7-4cbd-b097-801c2888e610)" /><path d="M10.5,9.859a2.263,2.263,0,0,1-.638,1.587.384.384,0,0,1-.574.064.394.394,0,0,1,.006-.593,1.565,1.565,0,0,0,0-2.174.39.39,0,1,1,.572-.522A2.311,2.311,0,0,1,10.5,9.859Z" fill="#fff" /><path d="M5.807,9.858a2.382,2.382,0,0,1,.636-1.632.392.392,0,1,1,.569.528,1.565,1.565,0,0,0,0,2.158.4.4,0,0,1,0,.607.381.381,0,0,1-.545-.052A2.367,2.367,0,0,1,5.807,9.858Z" fill="#fff" /><path d="M7.5,9.822a.657.657,0,0,1,.659-.656.665.665,0,0,1,0,1.329A.65.65,0,0,1,7.5,9.822Z" fill="#fff" /><path d="M12.5,9.8a3.369,3.369,0,0,1-.952,2.367.573.573,0,0,1-.855.1.588.588,0,0,1,.009-.886,2.333,2.333,0,0,0,0-3.242.582.582,0,1,1,.854-.778A3.437,3.437,0,0,1,12.5,9.8Z" fill="#fff" /><path d="M3.8,9.726a3.369,3.369,0,0,0,.952,2.367.573.573,0,0,0,.855.1A.588.588,0,0,0,5.6,11.3a2.334,2.334,0,0,1,0-3.242.582.582,0,1,0-.853-.778A3.442,3.442,0,0,0,3.8,9.726Z" fill="#fff" /></g></g></svg>