<svg xmlns="http://www.w3.org/2000/svg" width="18" height="18" viewBox="0 0 18 18"><defs><linearGradient id="be262aa0-1e96-4515-9b80-c7d70e614118" x1="9" y1="16.573" x2="9" y2="1.427" gradientUnits="userSpaceOnUse"><stop offset="0" stop-color="#b31b1b" /><stop offset="0.82" stop-color="#e62323" /></linearGradient><linearGradient id="b1eb80a0-ef92-42a3-af43-f22c07fe7d9c" x1="9" y1="16.525" x2="9" y2="1.427" gradientUnits="userSpaceOnUse"><stop offset="0" stop-color="#b31b1b" /><stop offset="0.82" stop-color="#e62323" /></linearGradient></defs><title>MsPortalFx.base.images-73</title><g id="f1ad3e33-de4b-4fca-85f1-c9a05025345f"><g><path d="M9,16.573c7.7-5.518,7.96-8.737,8-9.745.048-1.409-.149-5.1-3.866-5.386A4.023,4.023,0,0,0,9,4.132a4.023,4.023,0,0,0-4.129-2.69C1.154,1.733.957,5.419,1,6.828c.035,1.008.294,4.227,8,9.745" fill="url(#be262aa0-1e96-4515-9b80-c7d70e614118)" /><path d="M17,6.828c.048-1.409-.149-5.1-3.866-5.386A4.023,4.023,0,0,0,9,4.132a4.023,4.023,0,0,0-4.129-2.69C1.154,1.733.957,5.419,1,6.828c.035,1.008.227,4.179,7.928,9.7" fill="url(#b1eb80a0-ef92-42a3-af43-f22c07fe7d9c)" /></g></g></svg>