<svg xmlns="http://www.w3.org/2000/svg" width="18" height="18" viewBox="0 0 18 18"><defs><linearGradient id="b06c9384-33ad-4efe-952b-f07dd7280cd3" x1="9" y1="22.81" x2="9" y2="-2.491" gradientUnits="userSpaceOnUse"><stop offset="0" stop-color="#0078d4" /><stop offset="0.165" stop-color="#1c84dc" /><stop offset="0.378" stop-color="#3990e4" /><stop offset="0.59" stop-color="#4d99ea" /><stop offset="0.799" stop-color="#5a9eee" /><stop offset="1" stop-color="#5ea0ef" /></linearGradient><linearGradient id="b7b1324f-a493-4cab-878a-b431174afdea" x1="9" y1="15.982" x2="9" y2="1.522" gradientUnits="userSpaceOnUse"><stop offset="0" stop-color="#d2ebff" /><stop offset="0.997" stop-color="#f0fffd" /></linearGradient></defs><title>MsPortalFx.base.images-63</title><g id="e3ed6d7b-9877-4f9f-8f9b-9bc4f4055bee"><g><rect x="3.612" width="10.777" height="18" rx="0.419" fill="url(#b06c9384-33ad-4efe-952b-f07dd7280cd3)" /><rect x="7.758" y="0.604" width="2.483" height="0.333" rx="0.154" fill="#f2f2f2" /><rect x="4.623" y="1.522" width="8.754" height="14.461" rx="0.201" opacity="0.9" fill="url(#b7b1324f-a493-4cab-878a-b431174afdea)" /><rect x="8.398" y="16.58" width="1.204" height="1.028" rx="0.286" fill="#f2f2f2" /><path d="M11.4,2.892V6.476a.192.192,0,0,1-.193.192h-1.5a.047.047,0,0,0-.047.047v.578a.094.094,0,0,1-.151.074l-.9-.689a.048.048,0,0,0-.029-.01H5.974a.192.192,0,0,1-.193-.192V2.892A.192.192,0,0,1,5.974,2.7H11.21A.192.192,0,0,1,11.4,2.892Z" fill="#5ea0ef" /><rect x="5.768" y="9.88" width="1.683" height="4.782" rx="0.293" fill="#5ea0ef" /><rect x="8.265" y="8.806" width="1.683" height="5.855" rx="0.293" fill="#0078d4" /><rect x="10.761" y="7.927" width="1.683" height="6.734" rx="0.293" fill="#005ba1" /></g></g></svg>