<svg xmlns="http://www.w3.org/2000/svg" width="18" height="18" viewBox="0 0 18 18"><defs><linearGradient id="a24f9983-911f-4df7-920f-f964c8c10f82" x1="9" y1="15.834" x2="9" y2="5.788" gradientUnits="userSpaceOnUse"><stop offset="0" stop-color="#32bedd" /><stop offset="0.175" stop-color="#32caea" /><stop offset="0.41" stop-color="#32d2f2" /><stop offset="0.775" stop-color="#32d4f5" /></linearGradient></defs><title>MsPortalFx.base.images-10</title><g id="a7ef0482-71f2-4b7e-b916-b1c754245bf1"><g><path d="M.5,5.788h17a0,0,0,0,1,0,0v9.478a.568.568,0,0,1-.568.568H1.068A.568.568,0,0,1,.5,15.266V5.788A0,0,0,0,1,.5,5.788Z" fill="url(#a24f9983-911f-4df7-920f-f964c8c10f82)" /><path d="M1.071,2.166H16.929a.568.568,0,0,1,.568.568V5.788a0,0,0,0,1,0,0H.5a0,0,0,0,1,0,0V2.734A.568.568,0,0,1,1.071,2.166Z" fill="#0078d4" /><path d="M4.292,7.153h.523a.167.167,0,0,1,.167.167v3.858a.335.335,0,0,1-.335.335H4.125a0,0,0,0,1,0,0V7.321a.167.167,0,0,1,.167-.167Z" transform="translate(-5.271 5.967) rotate(-45.081)" fill="#f2f2f2" /><path d="M4.32,9.647h.523a.167.167,0,0,1,.167.167v4.131a0,0,0,0,1,0,0H4.488a.335.335,0,0,1-.335-.335v-3.8a.167.167,0,0,1,.167-.167Z" transform="translate(-0.504 23.385) rotate(-135.081)" fill="#e6e6e6" /><rect x="7.221" y="12.64" width="4.771" height="1.011" rx="0.291" fill="#f2f2f2" /></g></g></svg>