<svg xmlns="http://www.w3.org/2000/svg" width="18" height="18" viewBox="0 0 18 18"><title>MsPortalFx.base.images-41</title><g id="f32485b0-f730-4ade-91ae-ae62edcf1e5e"><g><path d="M13.022,16.764c-2.09-.28-2.055-1.624-2.045-3.8H7.061c.01,2.179.045,3.523-2.046,3.8a1.066,1.066,0,0,0-.984.958h9.981A1.072,1.072,0,0,0,13.022,16.764Z" fill="#1f56a3" /><rect y="0.278" width="18" height="12.747" rx="0.61" fill="#1490df" /><rect x="1.037" y="1.265" width="15.901" height="10.576" rx="0.305" fill="#fff" /><path d="M12.079,4.654a.153.153,0,0,0-.13.074L11.019,6.3a.15.15,0,0,1-.262-.006L9.333,3.581a.151.151,0,0,0-.276.022L7.719,7.575a.151.151,0,0,1-.281.011L6.281,4.905a.15.15,0,0,0-.27-.013l-1.593,2.9a.15.15,0,0,1-.132.078H1.037v.958H4.852a.15.15,0,0,0,.132-.078l.923-1.678a.151.151,0,0,1,.27.013l1.371,3.178a.15.15,0,0,0,.28-.011L9.25,6.031a.15.15,0,0,1,.275-.022l1.182,2.25a.151.151,0,0,0,.263.007L12.5,5.686a.149.149,0,0,1,.129-.074h4.314V4.654Z" fill="#76bc2d" /></g></g></svg>