<svg xmlns="http://www.w3.org/2000/svg" width="18" height="18" viewBox="0 0 18 18"><defs><linearGradient id="a005d9e9-7e29-4ef4-b995-a79dce2e9bf8" x1="9" y1="15.427" x2="9" y2="5.973" gradientUnits="userSpaceOnUse"><stop offset="0" stop-color="#32bedd" /><stop offset="0.175" stop-color="#32caea" /><stop offset="0.41" stop-color="#32d2f2" /><stop offset="0.775" stop-color="#32d4f5" /></linearGradient></defs><title>MsPortalFx.base.images-60</title><g id="f12b48ce-114c-4425-96be-0112b3f7d9c3"><g><path d="M1,5.973H17a0,0,0,0,1,0,0v8.92a.535.535,0,0,1-.535.535H1.535A.535.535,0,0,1,1,14.893V5.973A0,0,0,0,1,1,5.973Z" fill="url(#a005d9e9-7e29-4ef4-b995-a79dce2e9bf8)" /><path d="M1.538,2.563H16.462A.535.535,0,0,1,17,3.1V5.973a0,0,0,0,1,0,0H1a0,0,0,0,1,0,0V3.1A.535.535,0,0,1,1.538,2.563Z" fill="#198ab3" /><path d="M1,5.973H5.194a0,0,0,0,1,0,0v9.455a0,0,0,0,1,0,0H1.536A.532.532,0,0,1,1,14.895V5.973A0,0,0,0,1,1,5.973Z" fill="#9cebff" /><path d="M5.194,13.356H17a0,0,0,0,1,0,0V14.9a.532.532,0,0,1-.532.532H5.194a0,0,0,0,1,0,0V13.356a0,0,0,0,1,0,0Z" fill="#32bedd" /></g></g></svg>