<svg xmlns="http://www.w3.org/2000/svg" width="18" height="18" viewBox="0 0 18 18"><defs><linearGradient id="bfaf9eca-0566-4d05-9aa2-c2ccb9db061f" x1="9" y1="14.071" x2="9" y2="1.313" gradientUnits="userSpaceOnUse"><stop offset="0" stop-color="#0078d4" /><stop offset="0.156" stop-color="#1380da" /><stop offset="0.528" stop-color="#3c91e5" /><stop offset="0.822" stop-color="#559cec" /><stop offset="1" stop-color="#5ea0ef" /></linearGradient></defs><title>MsPortalFx.base.images-58</title><g id="b59a3860-e924-4d5f-b847-0f0976124add"><g><path d="M18,10.075a4.044,4.044,0,0,0-3.51-3.887A5.1,5.1,0,0,0,9.24,1.313a5.229,5.229,0,0,0-5,3.408A4.825,4.825,0,0,0,0,9.364a4.9,4.9,0,0,0,5.068,4.707c.151,0,.3-.007.447-.019h8.207a.819.819,0,0,0,.217-.033A4.093,4.093,0,0,0,18,10.075Z" fill="url(#bfaf9eca-0566-4d05-9aa2-c2ccb9db061f)" /><path d="M12.067,11.806H5.707a.276.276,0,0,0-.282.27v1.732a.276.276,0,0,0,.281.27h6.361a.276.276,0,0,0,.281-.27V12.076A.277.277,0,0,0,12.067,11.806Z" fill="#32bedd" /><path d="M12.067,14.415H5.707a.276.276,0,0,0-.282.27v1.731a.276.276,0,0,0,.281.271h6.361a.276.276,0,0,0,.281-.271V14.685A.277.277,0,0,0,12.067,14.415Z" fill="#198ab3" /><path d="M11.27,12.231h.373a.072.072,0,0,1,.072.072v.356a.069.069,0,0,1-.069.069h-.379a.069.069,0,0,1-.069-.069V12.3A.072.072,0,0,1,11.27,12.231Z" fill="#b4ec36" /><path d="M11.268,13.087h.376a.072.072,0,0,1,.072.072v.353a.072.072,0,0,1-.072.072H11.27a.072.072,0,0,1-.072-.072v-.356A.069.069,0,0,1,11.268,13.087Z" fill="#b4ec36" /><path d="M11.289,14.827h.376a.072.072,0,0,1,.072.072v.356a.069.069,0,0,1-.069.069h-.376a.072.072,0,0,1-.072-.072V14.9A.069.069,0,0,1,11.289,14.827Z" fill="#b4ec36" /><path d="M11.289,15.683h.376a.072.072,0,0,1,.072.072v.356a.069.069,0,0,1-.069.069h-.379a.069.069,0,0,1-.069-.069v-.359a.069.069,0,0,1,.069-.069Z" fill="#b4ec36" /><path d="M12.007,8.993H5.647a.276.276,0,0,0-.282.271V11a.277.277,0,0,0,.281.271h6.361A.277.277,0,0,0,12.288,11V9.264A.277.277,0,0,0,12.007,8.993Z" fill="#50e6ff" /><path d="M11.208,9.419h.376a.072.072,0,0,1,.072.072v.356a.069.069,0,0,1-.069.069H11.21a.072.072,0,0,1-.072-.072V9.488A.069.069,0,0,1,11.208,9.419Z" fill="#fff" /><path d="M11.208,10.275h.376a.072.072,0,0,1,.072.072V10.7a.069.069,0,0,1-.069.069h-.379a.069.069,0,0,1-.069-.069v-.359A.069.069,0,0,1,11.208,10.275Z" fill="#fff" /><path d="M11.635,7.4l-2.43,2.43a.29.29,0,0,1-.41,0L6.365,7.4a.13.13,0,0,1,.092-.221H7.951a.129.129,0,0,0,.129-.129V4.014a.1.1,0,0,1,.1-.1H9.816a.1.1,0,0,1,.1.1V7.051a.129.129,0,0,0,.129.129h1.494A.13.13,0,0,1,11.635,7.4Z" fill="#fff" /></g></g></svg>