<svg xmlns="http://www.w3.org/2000/svg" width="18" height="18" viewBox="0 0 18 18"><defs><linearGradient id="b761c5df-7d35-45ec-bc23-be885bc53266" x1="9" y1="15.799" x2="9" y2="5.316" gradientUnits="userSpaceOnUse"><stop offset="0" stop-color="#32bedd" /><stop offset="0.775" stop-color="#32d4f5" /></linearGradient></defs><title>MsPortalFx.base.images-1</title><g id="f7bf1580-21b3-4768-930f-6670371e2655"><g><path d="M.544,5.316H17.456a0,0,0,0,1,0,0v9.918a.565.565,0,0,1-.565.565H1.109a.565.565,0,0,1-.565-.565V5.316A0,0,0,0,1,.544,5.316Z" fill="url(#b761c5df-7d35-45ec-bc23-be885bc53266)" /><path d="M1.112,2.2H16.888a.565.565,0,0,1,.565.565v2.55a0,0,0,0,1,0,0H.547a0,0,0,0,1,0,0V2.766A.565.565,0,0,1,1.112,2.2Z" fill="#0078d4" /><path d="M13.9,7.32H9.715a.224.224,0,0,1-.125-.038l-1.2-.795a.219.219,0,0,0-.124-.038H4.752a.224.224,0,0,0-.224.224v7.392a.223.223,0,0,0,.224.223H13.9a.224.224,0,0,0,.224-.223V7.544A.224.224,0,0,0,13.9,7.32Z" fill="#5ea0ef" /><rect x="5.154" y="6.905" width="2.318" height="0.464" rx="0.098" fill="#fff" /><rect x="5.154" y="6.905" width="0.464" height="0.464" rx="0.067" fill="#0078d4" /><path d="M13.9,7.309H9.3a.225.225,0,0,0-.159.066l-.739.739a.225.225,0,0,1-.159.066H4.752a.224.224,0,0,0-.224.224v5.65a.223.223,0,0,0,.224.223H13.9a.224.224,0,0,0,.224-.223V7.533A.224.224,0,0,0,13.9,7.309Z" fill="#fff" opacity="0.9" /></g></g></svg>