<svg xmlns="http://www.w3.org/2000/svg" width="18" height="18" viewBox="0 0 18 18"><defs><radialGradient id="f571c5d6-de99-4bbc-a7d0-4fe2bcaab048" cx="16.858" cy="14.328" r="8.737" gradientTransform="translate(-6.212 -5.281) scale(0.944)" gradientUnits="userSpaceOnUse"><stop offset="0.183" stop-color="#5ea0ef" /><stop offset="0.555" stop-color="#5c9fee" /><stop offset="0.689" stop-color="#559ced" /><stop offset="0.785" stop-color="#4a97e9" /><stop offset="0.862" stop-color="#3990e4" /><stop offset="0.928" stop-color="#2387de" /><stop offset="0.985" stop-color="#087bd6" /><stop offset="1" stop-color="#0078d4" /></radialGradient><radialGradient id="ff6ac4d5-bc3b-4adc-96b4-da47ceed5d8a" cx="17.97" cy="15.337" r="1.223" gradientTransform="translate(-7.203 -6.199) scale(0.943)" gradientUnits="userSpaceOnUse"><stop offset="0" stop-color="#7f7f7f" /><stop offset="1" stop-color="#5e5e5e" /></radialGradient></defs><title>MsPortalFx.base.images-55</title><g id="bf8d6c30-e204-4d69-aa93-0327d1ed40ea"><g><g><circle cx="9.71" cy="8.252" r="8.252" fill="url(#f571c5d6-de99-4bbc-a7d0-4fe2bcaab048)" /><circle cx="9.742" cy="8.252" r="7.185" fill="#fff" /><rect id="a1e94b4f-fc64-477e-9999-492f9f751b22" x="13.04" y="4.13" width="1.231" height="0.397" transform="translate(0.939 10.924) rotate(-45)" fill="#7a7a7a" /><rect id="ad20dc92-0a86-4689-95f8-9ceccd536110" x="14.61" y="8.045" width="1.231" height="0.397" fill="#7a7a7a" /><rect id="f9d98cb7-61e1-4075-967a-f8f3f5881df6" x="13.4" y="11.486" width="0.397" height="1.231" transform="translate(-4.574 13.16) rotate(-45)" fill="#7a7a7a" /><rect id="faa47355-63bb-4aaf-ba9c-236acad2e22d" x="9.543" y="13.093" width="0.397" height="1.231" fill="#7a7a7a" /><rect id="a968e841-f0cc-4609-b322-a2f83d5260fa" x="5.588" y="3.674" width="0.397" height="1.231" transform="translate(-1.338 5.348) rotate(-45)" fill="#7a7a7a" /><rect id="bc5dee4f-3cab-4e15-9110-4099c8602ab1" x="5.231" y="11.939" width="1.231" height="0.397" transform="translate(-6.87 7.689) rotate(-45)" fill="#7a7a7a" /><rect id="ba3377d0-1219-4aa8-a9b3-123b1a014012" x="3.565" y="8.045" width="1.231" height="0.397" fill="#7a7a7a" /><rect x="9.237" y="2.172" width="1.107" height="6.326" rx="0.505" fill="#7a7a7a" /><rect x="10.722" y="7.822" width="1.105" height="3.961" rx="0.504" transform="translate(26.177 8.761) rotate(135)" fill="#7a7a7a" /><circle cx="9.747" cy="8.238" r="1.169" fill="url(#ff6ac4d5-bc3b-4adc-96b4-da47ceed5d8a)" /></g><path d="M8.078.146A8.294,8.294,0,0,0,5.4,15.353l.274-.726a.161.161,0,0,1,.275-.046L8.1,17.191a.161.161,0,0,1-.1.262L4.657,18a.162.162,0,0,1-.177-.216l.4-1.074A9.719,9.719,0,0,1,.373,10.953,8.462,8.462,0,0,1,8.078.146Z" fill="#86d633" /></g></g></svg>