<svg xmlns="http://www.w3.org/2000/svg" width="18" height="18" viewBox="0 0 18 18"><defs><linearGradient id="b7e818fc-7d3f-4e66-aeef-4fd721e36265" x1="9" y1="13.333" x2="9" y2="1.244" gradientUnits="userSpaceOnUse"><stop offset="0" stop-color="#0078d4" /><stop offset="0.156" stop-color="#1380da" /><stop offset="0.528" stop-color="#3c91e5" /><stop offset="0.822" stop-color="#559cec" /><stop offset="1" stop-color="#5ea0ef" /></linearGradient></defs><title>MsPortalFx.base.images-36</title><g id="be136587-6678-4499-b6cd-788b4eed2774"><g><path d="M17.5,13.333H.5L1.683,2.412a1.308,1.308,0,0,1,1.3-1.168H15.016a1.308,1.308,0,0,1,1.3,1.168Z" fill="url(#b7e818fc-7d3f-4e66-aeef-4fd721e36265)" /><path d="M.5,13.333h17a0,0,0,0,1,0,0v2.114a1.309,1.309,0,0,1-1.309,1.309H1.809A1.309,1.309,0,0,1,.5,15.447V13.333A0,0,0,0,1,.5,13.333Z" fill="#5ea0ef" /><path d="M15.028,11.835H2.972a.328.328,0,0,1-.326-.363L3.56,3.034a.327.327,0,0,1,.325-.292h10.23a.327.327,0,0,1,.325.292l.914,8.438A.328.328,0,0,1,15.028,11.835Z" fill="#f2f2f2" /><path d="M13.691,15.294V14.5a.294.294,0,0,0-.294-.294h-.035a.294.294,0,0,0-.294.294v.753H9.221V14.5a.294.294,0,0,0-.294-.294H8.892A.294.294,0,0,0,8.6,14.5v.753H4.542V14.51a.294.294,0,0,0-.294-.294H4.213a.294.294,0,0,0-.294.294V15.3a.588.588,0,0,0,.588.588h.035l8.562-.01A.587.587,0,0,0,13.691,15.294Z" fill="#f2f2f2" /><path d="M8.579,7.584H6.441c-.067,0-.121-.033-.121-.074a.05.05,0,0,1,.011-.03L8.9,3.985a.14.14,0,0,1,.11-.043h2.529c.067,0,.121.033.121.074a.057.057,0,0,1-.021.042L8.624,6.793h2.935c.067,0,.121.033.121.074a.064.064,0,0,1-.031.05l-4.88,3.5c-.045.019-.371.205-.211-.078h0Z" fill="#5ea0ef" /></g></g></svg>