<svg xmlns="http://www.w3.org/2000/svg" width="18" height="18" viewBox="0 0 18 18"><defs><linearGradient id="eb168260-1d86-43d3-aaf9-b23d953b33e0" x1="9.777" y1="-1.321" x2="15.063" y2="13.028" gradientUnits="userSpaceOnUse"><stop offset="0" stop-color="#6bb9f2" /><stop offset="1" stop-color="#1b93eb" /></linearGradient></defs><title>MsPortalFx.base.images-54</title><g id="a66f5715-d52a-4ecb-a69d-9f467a01f67d"><g><path d="M16.98,6.058V1.176A.176.176,0,0,0,16.8,1H11.922a.175.175,0,0,0-.124.3l1.344,1.345.09.089a.177.177,0,0,1,0,.249L7.345,8.869a.177.177,0,0,0,0,.249l1.517,1.517a.177.177,0,0,0,.249,0L15,4.748a.176.176,0,0,1,.249,0l.089.089L16.68,6.182A.175.175,0,0,0,16.98,6.058Z" fill="url(#eb168260-1d86-43d3-aaf9-b23d953b33e0)" /><path d="M13.394,9.377V12.95a.411.411,0,0,1-.41.411H4.826a.41.41,0,0,1-.41-.411v-7.7a.41.41,0,0,1,.41-.41H8.914a.225.225,0,0,0,.225-.225V3.756a.225.225,0,0,0-.225-.225h-5.4a.411.411,0,0,0-.41.411V14.258a.41.41,0,0,0,.41.41H14.291a.41.41,0,0,0,.411-.41V9.377a.225.225,0,0,0-.226-.225h-.857A.225.225,0,0,0,13.394,9.377Z" fill="#b3b3b3" /><rect x="15.697" y="15.97" width="1.03" height="1.03" fill="#76bc2d" /><path d="M14.647,17H13.6V15.97h1.05Zm-2.1,0H11.5V15.97h1.049Zm-2.1,0H9.4V15.97h1.05Zm-2.1,0H7.3V15.97H8.348Zm-2.1,0H5.2V15.97h1.05Zm-2.1,0H3.1V15.97H4.149Z" fill="#76bc2d" /><rect x="1.02" y="15.97" width="1.03" height="1.03" fill="#76bc2d" /><path d="M2.05,14.92H1.02V13.871H2.05Zm0-2.1H1.02v-1.05H2.05Zm0-2.1H1.02V9.672H2.05Zm0-2.1H1.02V7.572H2.05Zm0-2.1H1.02V5.473H2.05Zm0-2.1H1.02V3.373H2.05Z" fill="#76bc2d" /><rect x="1.02" y="1.294" width="1.03" height="1.03" fill="#76bc2d" /><path d="M8.348,2.324H7.3V1.294H8.348Zm-2.1,0H5.2V1.294h1.05Zm-2.1,0H3.1V1.294H4.149Z" fill="#76bc2d" /><path d="M16.726,14.92H15.7V13.871h1.029Zm0-2.1H15.7v-1.05h1.029Zm0-2.1H15.7V9.672h1.029Z" fill="#76bc2d" /></g></g></svg>