<svg xmlns="http://www.w3.org/2000/svg" width="18" height="18" viewBox="0 0 18 18"><defs><linearGradient id="a7378179-50f3-45ab-8197-d359c8bd30ce" x1="8.929" y1="7.745" x2="8.929" y2="0.5" gradientUnits="userSpaceOnUse"><stop offset="0" stop-color="#37c2b1" /><stop offset="0.565" stop-color="#3fddc3" /><stop offset="0.908" stop-color="#42e8ca" /></linearGradient></defs><title>MsPortalFx.base.images-50</title><g id="bf6945d2-ac27-4d06-8533-06841ee98173"><g><path d="M15.335,11.969h1.124a.179.179,0,0,1,.179.179v3.86a0,0,0,0,1,0,0H15.156a0,0,0,0,1,0,0v-3.86a.179.179,0,0,1,.179-.179Z" fill="#767676" /><path d="M1.542,12.066H2.714a.18.18,0,0,1,.18.18v3.763a0,0,0,0,1,0,0H1.362a0,0,0,0,1,0,0V12.245A.18.18,0,0,1,1.542,12.066Z" fill="#767676" /><path d="M8.741,9.116h1a0,0,0,0,1,0,0V24.392a0,0,0,0,1,0,0h-1a.487.487,0,0,1-.487-.487V9.6A.487.487,0,0,1,8.741,9.116Z" transform="translate(-7.754 25.754) rotate(-90)" fill="#949494" /><rect x="3.708" y="7.275" width="2.879" height="7.754" rx="0.375" fill="#0078d4" /><rect x="7.55" y="7.275" width="2.879" height="7.754" rx="0.375" fill="#0078d4" /><rect x="11.391" y="7.275" width="2.879" height="7.754" rx="0.375" fill="#37c2b1" /><path d="M14.1,3.52,11.129.545a.152.152,0,0,0-.259.107V2.386c-3.581,0-7.162,1.913-7.162,5.359.512-.768,3.07-2.811,7.162-2.811V6.6a.152.152,0,0,0,.259.107L14.1,3.734A.15.15,0,0,0,14.1,3.52Z" fill="url(#a7378179-50f3-45ab-8197-d359c8bd30ce)" /></g></g></svg>