<svg xmlns="http://www.w3.org/2000/svg" width="18" height="18" viewBox="0 0 18 18"><defs><linearGradient id="f6607f9a-6e3a-4339-acc9-d6f3ae1a2c0d" x1="9" y1="15.799" x2="9" y2="5.316" gradientUnits="userSpaceOnUse"><stop offset="0" stop-color="#a67af4" /><stop offset="0.775" stop-color="#b796f9" /></linearGradient></defs><title>MsPortalFx.base.images-3</title><g id="f3784f80-3379-4e66-8e32-fca3fab0f4d7"><g><path d="M.544,5.316H17.456a0,0,0,0,1,0,0v9.918a.565.565,0,0,1-.565.565H1.109a.565.565,0,0,1-.565-.565V5.316A0,0,0,0,1,.544,5.316Z" fill="url(#f6607f9a-6e3a-4339-acc9-d6f3ae1a2c0d)" /><path d="M1.112,2.2H16.888a.565.565,0,0,1,.565.565v2.55a0,0,0,0,1,0,0H.547a0,0,0,0,1,0,0V2.766A.565.565,0,0,1,1.112,2.2Z" fill="#773adc" /><g><rect x="2.625" y="6.435" width="3.683" height="7.933" rx="0.274" fill="#fff" /><rect x="7.158" y="6.435" width="3.683" height="7.933" rx="0.274" fill="#fff" opacity="0.75" /><rect x="11.692" y="6.435" width="3.683" height="7.933" rx="0.274" fill="#fff" opacity="0.5" /></g></g></g></svg>