<svg xmlns="http://www.w3.org/2000/svg" width="18" height="18" viewBox="0 0 18 18"><defs><linearGradient id="e4fe130c-1194-40d1-b5a4-e2bb47010cb4" x1="2.624" y1="15.969" x2="2.624" y2="11.167" gradientUnits="userSpaceOnUse"><stop offset="0" stop-color="#76bc2d" /><stop offset="0.601" stop-color="#81ce31" /><stop offset="0.822" stop-color="#86d633" /></linearGradient><linearGradient id="ac1aac1d-90a5-47ab-b231-bd8d57cff665" x1="9.026" y1="18" x2="9.026" y2="13.198" gradientUnits="userSpaceOnUse"><stop offset="0" stop-color="#76bc2d" /><stop offset="0.601" stop-color="#81ce31" /><stop offset="0.822" stop-color="#86d633" /></linearGradient><linearGradient id="fb43c81d-62cd-430c-b971-97ce3b11776c" x1="15.376" y1="16.001" x2="15.376" y2="11.199" gradientUnits="userSpaceOnUse"><stop offset="0" stop-color="#76bc2d" /><stop offset="0.601" stop-color="#81ce31" /><stop offset="0.822" stop-color="#86d633" /></linearGradient></defs><title>MsPortalFx.base.images-46</title><g id="aac33089-9c97-4591-a4d0-bf17c24367ba"><g><path d="M15.509,7.868H10.052a.293.293,0,0,1-.293-.293V5.491H8.293V7.575A.294.294,0,0,1,8,7.868H2.479a.587.587,0,0,0-.587.587v2.7H3.358v-1.5a.294.294,0,0,1,.294-.293H8.293v3.918H9.759V9.368h4.577a.293.293,0,0,1,.293.293v1.53H16.1V8.455A.587.587,0,0,0,15.509,7.868Z" fill="#50e6ff" /><rect x="6.029" width="5.881" height="5.881" rx="0.532" fill="#0078d4" /><rect x="7.158" y="1.13" width="3.622" height="3.622" rx="0.328" fill="#fff" /><rect x="0.223" y="11.167" width="4.802" height="4.802" rx="0.435" fill="url(#e4fe130c-1194-40d1-b5a4-e2bb47010cb4)" /><rect x="6.624" y="13.198" width="4.802" height="4.802" rx="0.435" fill="url(#ac1aac1d-90a5-47ab-b231-bd8d57cff665)" /><rect x="12.975" y="11.199" width="4.802" height="4.802" rx="0.435" fill="url(#fb43c81d-62cd-430c-b971-97ce3b11776c)" /></g></g></svg>