<svg xmlns="http://www.w3.org/2000/svg" width="18" height="18" viewBox="0 0 18 18"><defs><linearGradient id="fb5d9d20-fc2c-4e2c-bffd-dc236176d8b2" x1="-6428.21" y1="9646.124" x2="-6428.21" y2="9617.899" gradientTransform="matrix(0.5, 0, 0, -0.5, 3224.856, 4823.856)" gradientUnits="userSpaceOnUse"><stop offset="0" stop-color="#5ea0ef" /><stop offset="0.178" stop-color="#589eed" /><stop offset="0.406" stop-color="#4897e9" /><stop offset="0.662" stop-color="#2e8ce1" /><stop offset="0.936" stop-color="#0a7cd7" /><stop offset="1" stop-color="#0078d4" /></linearGradient></defs><title>MsPortalFx.base.images-52</title><g id="a05a9809-540f-4ec8-9a73-07896b5e7f5c"><g><path d="M8.438,10.379h4.234v4.234H8.438ZM3.5,4.734H7.732V.5H4.086a.588.588,0,0,0-.588.588Zm.588,9.879H7.732V10.379H3.5v3.646A.588.588,0,0,0,4.086,14.613ZM3.5,9.674H7.732V5.44H3.5Zm9.88,4.939h3.646a.588.588,0,0,0,.588-.588V10.379H13.378ZM8.438,9.674h4.234V5.44H8.438Zm4.94,0h4.234V5.44H13.378Zm0-9.174V4.734h4.234V1.088A.588.588,0,0,0,17.024.5ZM8.438,4.734h4.234V.5H8.438Z" fill="url(#fb5d9d20-fc2c-4e2c-bffd-dc236176d8b2)" /><rect x="-0.212" y="14.751" width="5.457" height="1.243" rx="0.581" transform="translate(-10.133 6.282) rotate(-45)" fill="#198ab3" /><circle cx="5.959" cy="11.709" r="3.744" fill="#50e6ff" /><circle cx="5.952" cy="11.642" r="2.94" fill="#fff" /></g></g></svg>