<svg xmlns="http://www.w3.org/2000/svg" width="18" height="18" viewBox="0 0 18 18"><defs><linearGradient id="bf27f400-3b83-4dfa-9afd-dbfe78240842" x1="8.881" y1="17.5" x2="8.881" y2="2.093" gradientUnits="userSpaceOnUse"><stop offset="0" stop-color="#0078d4" /><stop offset="0.817" stop-color="#5ea0ef" /></linearGradient></defs><title>MsPortalFx.base.images-45</title><g id="ec8922f1-4baf-49ec-b516-cec52695ceb5"><g><path d="M2.659,2.109,3.87.7A.591.591,0,0,1,4.314.5H15.927a.813.813,0,0,1,.888.831v14.5a.59.59,0,0,1-.192.435l-1.308,1.191H3.444l-.8-.337Z" fill="#005ba1" /><path d="M3.633,2.1l.742-.846a.521.521,0,0,1,.393-.179H15.614a.522.522,0,0,1,.522.522V15.383a.521.521,0,0,1-.171.386l-1.158,1.055Z" fill="#fff" /><path d="M14.736,2.093H2.7a.056.056,0,0,0-.056.056V17.115a.385.385,0,0,0,.385.385h11.71a.385.385,0,0,0,.385-.385V2.478A.386.386,0,0,0,14.736,2.093Z" fill="url(#bf27f400-3b83-4dfa-9afd-dbfe78240842)" /><rect x="6.028" y="6.2" width="6.005" height="2.382" rx="0.27" fill="#fff" /><rect x="1.185" y="3.608" width="2.448" height="1.441" rx="0.59" fill="#005ba1" /><rect x="1.185" y="6.346" width="2.448" height="1.441" rx="0.59" fill="#005ba1" /><rect x="1.185" y="9.084" width="2.448" height="1.441" rx="0.59" fill="#005ba1" /><rect x="1.185" y="11.821" width="2.448" height="1.441" rx="0.59" fill="#005ba1" /><rect x="1.185" y="14.559" width="2.448" height="1.441" rx="0.59" fill="#005ba1" /></g></g></svg>