<svg xmlns="http://www.w3.org/2000/svg" width="24px" height="24px" viewBox="0 0 24 24"><defs><style>.cls-1{fill:#669df6;}.cls-2{fill:#4285f4;}.cls-3{fill:none;}.cls-4{fill:#aecbfa;}</style></defs><title>Icon_24px_Scheduler_Color</title><g data-name="Product Icons"><path class="cls-1" d="M20,21a1,1,0,0,1-.7-.29l-2-2a1,1,0,0,1,1.41-1.41l2,2a1,1,0,0,1,0,1.41A1,1,0,0,1,20,21Z"/><path class="cls-1" d="M4,21a1,1,0,0,1-.7-1.71l2-2a1,1,0,0,1,1.42,0,1,1,0,0,1,0,1.41l-2,2A1,1,0,0,1,4,21Z"/><path class="cls-2" d="M5.47,17.13,4.25,18.35a11.13,11.13,0,0,0,1.42,1.41l1.22-1.22Z"/><path class="cls-2" d="M19.73,18.31l-1-1a1.19,1.19,0,0,0-.23-.16l-1.34,1.34a1.19,1.19,0,0,0,.16.23l1,1A11.13,11.13,0,0,0,19.73,18.31Z"/><g data-name="colored-32/scheduler"><rect class="cls-3" width="24" height="24"/><g ><g ><path class="cls-1" d="M12,21a9,9,0,1,1,9-9A9,9,0,0,1,12,21Zm0-2a7,7,0,1,0-7-7A7,7,0,0,0,12,19Z"/><path id="Oval" class="cls-2" d="M12,17a5,5,0,0,0,5-5,5,5,0,0,0-5-5v5L7.92,14.91A5,5,0,0,0,12,17Z"/></g></g></g><path class="cls-4" d="M4,6.07a1,1,0,0,1-.71-1.71l2-2a1,1,0,0,1,1.42,0,1,1,0,0,1,0,1.41l-2,2A1,1,0,0,1,4,6.07Z"/><path class="cls-4" d="M20,6.07a1,1,0,0,1-.71-.3l-2-2a1,1,0,0,1,0-1.41,1,1,0,0,1,1.42,0l2,2A1,1,0,0,1,20,6.07Z"/></g></svg>