<svg height="24" viewBox="0 0 24 24" width="24" xmlns="http://www.w3.org/2000/svg"><path d="m4.86997026 12.3278609c1.56987117-.4432256 3.20931133.4515454 3.65946465 1.9972568.45015331 1.5457113-.45860321 3.159921-2.02847438 3.6031466-.52215281.1474206-1.04840193.143809-1.54197841.0229679l-.16326496-.0445758-1.55381137 2.7600103-1.03196903-.5632264 1.55218038-2.7656107c-.42462106-.3589256-.75426026-.835581-.92062126-1.4068221-.45015332-1.5457114.4586032-3.159921 2.02847438-3.6031466zm8.66849124 6.1533233v1.5147851h-3.076923v-1.5147851zm3.0769231-3.0295702v1.5147851h-6.1538461v-1.5147851zm-9.2235375-.8053184c-.2691134-.9240665-1.25716885-1.4633259-2.19567879-1.198354-.93850994.2649718-1.48619802 1.2378214-1.21708463 2.1618879.2691134.9240666 1.25716885 1.4633259 2.19567879 1.1983541s1.48619802-1.2378214 1.21708463-2.161888zm12.3004606-2.2242518v1.5147851h-9.2307692v-1.5147851zm2.3076923-3.02957013v1.51478513h-20v-1.51478513zm0-3.02957017v1.51478509h-20v-1.51478509zm-10.7211538-3.02957017v1.51478509h-6.97115389v-1.51478509zm8.4134615 0v1.51478509h-6.9711539v-1.51478509z" fill="#4285f4" fill-rule="evenodd"/></svg>