<svg xmlns="http://www.w3.org/2000/svg" width="18" height="18" viewBox="0 0 18 18"><defs><linearGradient id="afd24f05-59be-4c06-8334-605403fb2b7b" x1="9" y1="778.831" x2="9" y2="790.831" gradientTransform="matrix(1, 0, 0, -1, 0, 791.516)" gradientUnits="userSpaceOnUse"><stop offset="0" stop-color="#0078d4" /><stop offset="0.8" stop-color="#5ea0ef" /></linearGradient><linearGradient id="aabc180f-9b9a-4846-a6e7-4110dfc7dad5" x1="9" y1="774.201" x2="9" y2="778.831" gradientTransform="matrix(1, 0, 0, -1, 0, 791.516)" gradientUnits="userSpaceOnUse"><stop offset="0" stop-color="#ccc" /><stop offset="1" stop-color="#707070" /></linearGradient></defs><rect y="0.685" width="18" height="12" rx="0.6" fill="url(#afd24f05-59be-4c06-8334-605403fb2b7b)" /><path d="M12.61,16.315c-1.78-.28-1.85-1.56-1.85-3.63H7.23c0,2.07-.06,3.35-1.84,3.63a1,1,0,0,0-.89,1h9A1,1,0,0,0,12.61,16.315Z" fill="url(#aabc180f-9b9a-4846-a6e7-4110dfc7dad5)" /><path d="M10.109,2.179a.277.277,0,0,0-.135.538A4.107,4.107,0,1,1,5.488,4.554l.111.077.779.543a.048.048,0,0,0,.05-.056L6.245,2.994a.048.048,0,0,0-.055-.039L4.2,3.6a.048.048,0,0,0-.034.067l.821.541.046.031a4.647,4.647,0,1,0,5.079-2.06Z" fill="#fff" opacity="0.8" /><path d="M11.183,5.8l-.334-.579.181-1.056-.849-.49-.824.685H8.689l-.824-.685-.849.49L7.2,5.225,6.863,5.8l-1.005.371v.981l1.005.371.334.578L7.016,9.162l.849.49.824-.685h.668l.824.685.849-.49-.181-1.057.334-.578,1.005-.371V6.175ZM9.023,8.146A1.481,1.481,0,1,1,10.5,6.665,1.481,1.481,0,0,1,9.023,8.146Z" fill="#fff" />​
</svg>