<svg id="aabde0b6-2289-4d6f-8be8-5bb670bc80c0" xmlns="http://www.w3.org/2000/svg" width="18" height="18" viewBox="0 0 18 18"><defs><linearGradient id="b020d1a3-604d-4f79-8087-b021d39314c5" x1="10.31" y1="12.7" x2="10.31" y2="6.83" gradientUnits="userSpaceOnUse"><stop offset="0" stop-color="#0078d4" /><stop offset="0.82" stop-color="#5ea0ef" /></linearGradient><linearGradient id="fd885ea0-9b31-4878-9e85-930d64f33955" x1="10.31" y1="14.97" x2="10.31" y2="12.7" gradientUnits="userSpaceOnUse"><stop offset="0.15" stop-color="#ccc" /><stop offset="1" stop-color="#707070" /></linearGradient></defs><title>Icon-compute-25</title><g><rect x="2.12" y="0.5" width="1.97" height="0.57" fill="#0078d4" /><polygon points="16.63 1.07 16.95 1.07 16.95 1.38 17.5 1.38 17.5 0.5 16.63 0.5 16.63 1.07" fill="#0078d4" /><polygon points="1.41 16.89 1.13 16.89 1.13 16.57 0.5 16.57 0.5 17.5 1.41 17.5 1.41 16.89" fill="#0078d4" /><polygon points="16.95 16.6 16.95 16.89 16.63 16.89 16.63 17.5 17.5 17.5 17.5 16.6 16.95 16.6" fill="#0078d4" /><polygon points="1.13 1.36 1.13 1.07 1.41 1.07 1.41 0.5 0.5 0.5 0.5 1.36 1.13 1.36" fill="#0078d4" /><rect x="3.37" y="3.55" width="8.79" height="5.88" rx="0.29" fill="#0078d4" /><g><polygon points="9.23 5.64 9.23 7.35 7.77 8.21 7.77 6.49 9.23 5.64" fill="#50e6ff" /><polygon points="9.23 5.64 7.77 6.5 6.3 5.64 7.77 4.78 9.23 5.64" fill="#c3f1ff" /><polygon points="7.77 6.5 7.77 8.21 6.3 7.35 6.3 5.64 7.77 6.5" fill="#9cebff" /></g><g><rect x="5.91" y="6.83" width="8.79" height="5.88" rx="0.29" fill="url(#b020d1a3-604d-4f79-8087-b021d39314c5)" /><g><polygon points="11.77 8.91 11.77 10.62 10.31 11.48 10.31 9.77 11.77 8.91" fill="#50e6ff" /><polygon points="11.77 8.91 10.31 9.77 8.84 8.91 10.31 8.05 11.77 8.91" fill="#c3f1ff" /><polygon points="10.31 9.77 10.31 11.48 8.84 10.62 8.84 8.91 10.31 9.77" fill="#9cebff" /><polygon points="8.84 10.62 10.31 9.77 10.31 11.48 8.84 10.62" fill="#c3f1ff" /><polygon points="11.77 10.62 10.31 9.77 10.31 11.48 11.77 10.62" fill="#9cebff" /></g><path d="M12.07,14.48c-.87-.14-.9-.77-.9-1.78H9.44c0,1,0,1.64-.9,1.78a.51.51,0,0,0-.43.49h4.4A.51.51,0,0,0,12.07,14.48Z" fill="url(#fd885ea0-9b31-4878-9e85-930d64f33955)" /></g><rect x="5.07" y="0.5" width="1.97" height="0.57" fill="#0078d4" /><rect x="8.01" y="0.5" width="1.97" height="0.57" fill="#0078d4" /><rect x="10.96" y="0.5" width="1.97" height="0.57" fill="#0078d4" /><rect x="13.91" y="0.5" width="1.97" height="0.57" fill="#0078d4" /><rect x="2.14" y="16.89" width="1.97" height="0.57" fill="#0078d4" /><rect x="5.08" y="16.89" width="1.97" height="0.57" fill="#0078d4" /><rect x="8.03" y="16.89" width="1.97" height="0.57" fill="#0078d4" /><rect x="10.98" y="16.89" width="1.97" height="0.57" fill="#0078d4" /><rect x="13.92" y="16.89" width="1.97" height="0.57" fill="#0078d4" /><rect x="16.93" y="2.05" width="0.57" height="1.97" fill="#0078d4" /><rect x="16.93" y="4.99" width="0.57" height="1.97" fill="#0078d4" /><rect x="16.93" y="7.94" width="0.57" height="1.97" fill="#0078d4" /><rect x="16.93" y="10.88" width="0.57" height="1.97" fill="#0078d4" /><rect x="16.93" y="13.83" width="0.57" height="1.97" fill="#0078d4" /><rect x="0.5" y="2.03" width="0.57" height="1.97" fill="#0078d4" /><rect x="0.5" y="4.98" width="0.57" height="1.97" fill="#0078d4" /><rect x="0.5" y="7.92" width="0.57" height="1.97" fill="#0078d4" /><rect x="0.5" y="10.87" width="0.57" height="1.97" fill="#0078d4" /><rect x="0.5" y="13.81" width="0.57" height="1.97" fill="#0078d4" /></g></svg>