<svg id="b5aac633-5e4e-4ba3-b79d-874030b01628" xmlns="http://www.w3.org/2000/svg" width="18" height="18" viewBox="0 0 18 18"><defs><linearGradient id="f5aba28d-a61e-4c5e-a881-77250d6754cf" x1="14.18" y1="12.41" x2="14.2" y2="12.41" gradientUnits="userSpaceOnUse"><stop offset="0" stop-color="#0078d4" /><stop offset="0.14" stop-color="#1782da" /><stop offset="0.37" stop-color="#368fe3" /><stop offset="0.59" stop-color="#4c98ea" /><stop offset="0.8" stop-color="#599eee" /><stop offset="0.99" stop-color="#5ea0ef" /></linearGradient><linearGradient id="bdc9aa5d-e4d2-4d75-91df-453ede2d7944" x1="9.01" y1="11.69" x2="9.01" y2="2.48" gradientUnits="userSpaceOnUse"><stop offset="0" stop-color="#0078d4" /><stop offset="0.54" stop-color="#358ee3" /><stop offset="1" stop-color="#5ea0ef" /></linearGradient></defs><title>Icon-compute-26</title><ellipse cx="9.01" cy="11.12" rx="6.07" ry="2.49" fill="#76bc2d" /><ellipse cx="9.16" cy="11.1" rx="2.02" ry="0.55" fill="#5e9624" /><path d="M14.18,12.4h0Z" fill="url(#f5aba28d-a61e-4c5e-a881-77250d6754cf)" /><ellipse cx="9.01" cy="5.59" rx="6.07" ry="2.49" fill="url(#bdc9aa5d-e4d2-4d75-91df-453ede2d7944)" /><ellipse cx="9.16" cy="5.56" rx="2.02" ry="0.55" fill="#005ba1" /><path d="M3.89.12h-3A.58.58,0,0,0,.29.71v3A.29.29,0,0,0,.58,4H.91a.29.29,0,0,0,.3-.29V1H3.89a.29.29,0,0,0,.3-.29V.42A.29.29,0,0,0,3.89.12Z" fill="#949494" /><path d="M17,.12H14a.3.3,0,0,0-.3.3V.74A.3.3,0,0,0,14,1h2.69v2.7A.29.29,0,0,0,17,4h.33a.29.29,0,0,0,.3-.29v-3h0A.59.59,0,0,0,17,.12Z" fill="#949494" /><path d="M3.89,17.21H1.21v-2.7a.29.29,0,0,0-.3-.29H.58a.29.29,0,0,0-.29.29v3h0a.58.58,0,0,0,.58.59h3a.29.29,0,0,0,.3-.29v-.32A.3.3,0,0,0,3.89,17.21Z" fill="#949494" /><path d="M17.29,14.22H17a.29.29,0,0,0-.29.29v2.7H14a.31.31,0,0,0-.3.3v.32a.3.3,0,0,0,.3.29h3a.59.59,0,0,0,.59-.59v-3A.29.29,0,0,0,17.29,14.22Z" fill="#949494" /><path d="M9,13.56c3.35,0,6.07-1.11,6.07-2.49h0v1.47h0C15,13.88,12.29,15,9,15s-6.07-1.12-6.07-2.49V11.07C2.94,12.45,5.66,13.56,9,13.56Z" fill="#5e9624" /><path d="M14.18,12.4h0Z" fill="url(#f5aba28d-a61e-4c5e-a881-77250d6754cf)" /><path d="M9,8c3.35,0,6.07-1.12,6.07-2.49h0V7h0C15,8.35,12.29,9.42,9,9.42S2.94,8.3,2.94,6.92V5.54C2.94,6.91,5.66,8,9,8Z" fill="#0078d4" /></svg>