<svg id="b477a1e6-3b3d-43e7-938b-88464f2dd176" xmlns="http://www.w3.org/2000/svg" width="18" height="18" viewBox="0 0 18 18"><defs><linearGradient id="bc25fd79-1e91-4c2f-8691-1f9665f6d0dc" x1="9" y1="17.44" x2="9" y2="11.44" gradientUnits="userSpaceOnUse"><stop offset="0" stop-color="#0078d4" /><stop offset="0.82" stop-color="#5ea0ef" /></linearGradient></defs><title>Icon-compute-39</title><g><rect x="5.62" y="0.56" width="9.97" height="12.48" rx="0.42" fill="#005ba1" /><rect x="4.11" y="1.91" width="9.97" height="12.48" rx="0.42" fill="#0078d4" /><rect x="2.58" y="3.27" width="9.97" height="12.48" rx="0.42" fill="#32bedd" /><g><polygon points="10.48 6.99 10.48 10.38 7.57 12.08 7.57 8.69 10.48 6.99" fill="#50e6ff" /><polygon points="10.48 6.99 7.57 8.7 4.66 6.99 7.57 5.29 10.48 6.99" fill="#c3f1ff" /><polygon points="7.57 8.7 7.57 12.08 4.66 10.38 4.66 6.99 7.57 8.7" fill="#9cebff" /><polygon points="4.66 10.38 7.57 8.69 7.57 12.08 4.66 10.38" fill="#c3f1ff" /><polygon points="10.48 10.38 7.57 8.69 7.57 12.08 10.48 10.38" fill="#9cebff" /></g><rect x="0.56" y="11.44" width="16.87" height="5.99" rx="0.56" fill="url(#bc25fd79-1e91-4c2f-8691-1f9665f6d0dc)" /><rect x="6.6" y="12.92" width="4.81" height="0.87" rx="0.43" fill="#f2f2f2" /></g></svg>