<svg id="b39a805c-23ec-4c18-b115-22ce85a589f3" xmlns="http://www.w3.org/2000/svg" width="18" height="18" viewBox="0 0 18 18"><defs><linearGradient id="abcca3e9-b94e-41fe-a92a-6f6cddbb1654" x1="7.12" y1="17.44" x2="7.12" y2="0.56" gradientUnits="userSpaceOnUse"><stop offset="0" stop-color="#32bedd" /><stop offset="0.36" stop-color="#34c1e0" /><stop offset="0.63" stop-color="#3ccbe8" /><stop offset="0.88" stop-color="#48dbf6" /><stop offset="1" stop-color="#50e6ff" /></linearGradient></defs><title>Icon-compute-37</title><g><rect x="0.38" y="0.56" width="13.49" height="16.88" rx="0.56" fill="url(#abcca3e9-b94e-41fe-a92a-6f6cddbb1654)" /><path d="M17.58,12.38,14.71,9.51a.15.15,0,0,0-.25.1v1.68c-3.45,0-6.9,1.84-6.9,5.16.49-.74,3-2.71,6.9-2.71v1.61a.15.15,0,0,0,.25.1l2.87-2.87A.15.15,0,0,0,17.58,12.38Z" fill="#773adc" /><g><polygon points="11.06 5.6 11.06 10.18 7.13 12.48 7.13 7.89 11.06 5.6" fill="#50e6ff" /><polygon points="11.06 5.6 7.13 7.9 3.19 5.6 7.13 3.3 11.06 5.6" fill="#c3f1ff" /><polygon points="7.13 7.9 7.13 12.48 3.19 10.18 3.19 5.6 7.13 7.9" fill="#9cebff" /><polygon points="3.19 10.18 7.13 7.89 7.13 12.48 3.19 10.18" fill="#c3f1ff" /><polygon points="11.06 10.18 7.13 7.89 7.13 12.48 11.06 10.18" fill="#9cebff" /></g></g></svg>