<svg id="ea317b31-b31a-44fd-a7c4-260774575363" xmlns="http://www.w3.org/2000/svg" width="18" height="18" viewBox="0 0 18 18"><defs><linearGradient id="a3aecb5c-11f5-4ece-99f7-9672f3236156" x1="15.35" y1="13.41" x2="15.37" y2="13.41" gradientUnits="userSpaceOnUse"><stop offset="0" stop-color="#0078d4" /><stop offset="0.14" stop-color="#1782da" /><stop offset="0.37" stop-color="#368fe3" /><stop offset="0.59" stop-color="#4c98ea" /><stop offset="0.8" stop-color="#599eee" /><stop offset="0.99" stop-color="#5ea0ef" /></linearGradient><linearGradient id="b4dfb3ab-25fe-416c-a6fa-f33fcfbf22dc" x1="5.51" y1="802.5" x2="12.94" y2="810.58" gradientTransform="translate(0 -1278.76) scale(1 1.59)" gradientUnits="userSpaceOnUse"><stop offset="0" stop-color="#0078d4" /><stop offset="0.02" stop-color="#0d7ed8" /><stop offset="0.08" stop-color="#2b8ae0" /><stop offset="0.15" stop-color="#4194e7" /><stop offset="0.22" stop-color="#519beb" /><stop offset="0.29" stop-color="#5b9fee" /><stop offset="0.4" stop-color="#5ea0ef" /><stop offset="0.55" stop-color="#5b9fee" /><stop offset="0.68" stop-color="#509aeb" /><stop offset="0.8" stop-color="#3f92e6" /><stop offset="0.91" stop-color="#2688df" /><stop offset="0.99" stop-color="#127fd9" /></linearGradient></defs><title>Icon-compute-32</title><ellipse cx="8.96" cy="11.82" rx="7.5" ry="3.08" fill="#76bc2d" /><ellipse cx="9.15" cy="11.79" rx="2.49" ry="0.68" fill="#5e9624" /><path d="M15.35,13.4l0,0Z" fill="url(#a3aecb5c-11f5-4ece-99f7-9672f3236156)" /><ellipse cx="8.96" cy="4.99" rx="7.5" ry="3.08" fill="url(#b4dfb3ab-25fe-416c-a6fa-f33fcfbf22dc)" /><ellipse cx="9.15" cy="4.95" rx="2.49" ry="0.68" fill="#005ba1" /><path d="M9,14.84c4.15,0,7.5-1.38,7.5-3.08h0v1.82h0c-.14,1.65-3.44,3-7.5,3s-7.5-1.38-7.5-3.08V11.76C1.46,13.46,4.82,14.84,9,14.84Z" fill="#5e9624" /><path d="M15.35,13.4l0,0Z" fill="url(#a3aecb5c-11f5-4ece-99f7-9672f3236156)" /><path d="M9,8c4.15,0,7.5-1.38,7.5-3.08h0V6.74h0c-.14,1.65-3.44,3-7.5,3s-7.5-1.38-7.5-3.08V4.92C1.46,6.62,4.82,8,9,8Z" fill="#0078d4" /></svg>