<?xml version="1.0" encoding="UTF-8"?>
<svg width="80px" height="80px" viewBox="0 0 80 80" version="1.1" xmlns="http://www.w3.org/2000/svg" xmlns:xlink="http://www.w3.org/1999/xlink">
    <title>Icon-Architecture/64/Arch_AWS-Professional-Services_64</title>
    <defs>
        <linearGradient x1="0%" y1="100%" x2="100%" y2="0%" id="linearGradient-1">
            <stop stop-color="#2E27AD" offset="0%"></stop>
            <stop stop-color="#527FFF" offset="100%"></stop>
        </linearGradient>
    </defs>
    <g id="Icon-Architecture/64/Arch_AWS-Professional-Services_64" stroke="none" stroke-width="1" fill="none" fill-rule="evenodd">
        <g id="Rectangle" fill="url(#linearGradient-1)">
            <rect x="0" y="0" width="80" height="80"></rect>
        </g>
        <g id="Icon-Service/64/AWS-Professional-Services_64" transform="translate(8.000000, 8.000000)" fill="#FFFFFF">
            <path d="M52.052,48.359 C51.817,48.589 51.709,48.92 51.765,49.244 L53.016,56.537 L46.465,53.094 C46.32,53.017 46.16,52.979 46,52.979 C45.84,52.979 45.681,53.017 45.535,53.094 L38.985,56.537 L40.236,49.244 C40.291,48.92 40.184,48.589 39.948,48.359 L34.65,43.194 L41.972,42.13 C42.298,42.083 42.579,41.878 42.725,41.583 L46,34.947 L49.276,41.583 C49.421,41.878 49.702,42.083 50.029,42.13 L57.351,43.194 L52.052,48.359 Z M60.451,42.187 C60.333,41.825 60.021,41.561 59.644,41.506 L50.836,40.226 L46.897,32.245 C46.561,31.563 45.44,31.563 45.104,32.245 L41.164,40.226 L32.357,41.506 C31.98,41.561 31.667,41.825 31.549,42.187 C31.432,42.549 31.53,42.946 31.802,43.212 L38.176,49.424 L36.671,58.196 C36.607,58.571 36.761,58.951 37.069,59.174 C37.376,59.399 37.787,59.427 38.121,59.251 L46,55.109 L53.879,59.251 C54.025,59.327 54.185,59.365 54.344,59.365 C54.551,59.365 54.758,59.301 54.932,59.174 C55.24,58.951 55.394,58.571 55.329,58.196 L53.824,49.424 L60.198,43.212 C60.471,42.946 60.569,42.549 60.451,42.187 L60.451,42.187 Z M14.489,18.047 C14.489,11.404 19.894,6 26.537,6 C33.18,6 38.583,11.404 38.583,18.047 C38.583,24.691 33.18,30.095 26.537,30.095 C19.894,30.095 14.489,24.691 14.489,18.047 L14.489,18.047 Z M26.5,32.827 C30.379,32.827 34.181,33.931 37.493,36.019 C38.14,36.425 38.774,36.875 39.379,37.354 L40.621,35.787 C39.959,35.262 39.266,34.771 38.56,34.326 C36.258,32.876 33.74,31.862 31.12,31.312 C36.619,29.405 40.583,24.187 40.583,18.047 C40.583,10.302 34.282,4 26.537,4 C18.791,4 12.489,10.302 12.489,18.047 C12.489,24.176 16.442,29.387 21.925,31.301 C11.151,33.547 3,43.565 3,55.549 L3,56.549 L34,56.549 L34,54.549 L5.021,54.549 C5.518,42.483 14.962,32.827 26.5,32.827 L26.5,32.827 Z" id="Fill-1"></path>
        </g>
    </g>
</svg>