<?xml version="1.0" encoding="UTF-8"?>
<svg width="80px" height="80px" viewBox="0 0 80 80" version="1.1" xmlns="http://www.w3.org/2000/svg" xmlns:xlink="http://www.w3.org/1999/xlink">
    <title>Icon-Architecture/64/Arch_AWS-IQ_64</title>
    <defs>
        <linearGradient x1="0%" y1="100%" x2="100%" y2="0%" id="linearGradient-1">
            <stop stop-color="#2E27AD" offset="0%"></stop>
            <stop stop-color="#527FFF" offset="100%"></stop>
        </linearGradient>
    </defs>
    <g id="Icon-Architecture/64/Arch_AWS-IQ_64" stroke="none" stroke-width="1" fill="none" fill-rule="evenodd">
        <g id="Rectangle" fill="url(#linearGradient-1)">
            <rect x="0" y="0" width="80" height="80"></rect>
        </g>
        <g id="Icon-Service/64/AWS-IQ_64" transform="translate(8.000000, 8.000000)" fill="#FFFFFF">
            <path d="M24.455,39.864 L25.726,41.408 L16.009,49.413 L9.757,44.823 L10.94,43.211 L15.938,46.88 L24.455,39.864 Z M11.427,12.461 C11.427,8.899 14.325,6 17.888,6 C21.45,6 24.349,8.899 24.349,12.461 C24.349,16.024 21.45,18.923 17.888,18.923 C14.325,18.923 11.427,16.024 11.427,12.461 L11.427,12.461 Z M18.203,20.924 C18.247,20.918 22.008,20.781 25.444,23.406 L26.657,21.816 C25.211,20.712 23.723,20.031 22.399,19.607 C24.767,18.106 26.349,15.468 26.349,12.461 C26.349,7.796 22.553,4 17.888,4 C13.223,4 9.427,7.796 9.427,12.461 C9.427,15.518 11.061,18.193 13.497,19.68 C4.218,22.66 4.001,33.356 4,33.479 L6,33.498 C6.006,32.999 6.281,21.277 18.203,20.924 L18.203,20.924 Z M29.837,51.008 L29.837,37.433 C32.871,34.96 36.607,33.592 40.455,33.592 C43.597,33.592 46.675,34.485 49.356,36.176 C54.336,39.314 57.527,44.931 57.845,51.008 L29.837,51.008 Z M6.074,50.542 L6.074,37.976 L16.956,31.694 L27.837,37.976 L27.837,50.542 L16.956,56.824 L6.074,50.542 Z M30.807,21.913 C30.807,16.576 35.149,12.234 40.486,12.234 C45.822,12.234 50.164,16.576 50.164,21.913 C50.164,27.25 45.822,31.592 40.486,31.592 C35.149,31.592 30.807,27.25 30.807,21.913 L30.807,21.913 Z M59.871,52.008 C59.871,44.871 56.251,38.156 50.423,34.484 C48.941,33.55 47.351,32.835 45.697,32.349 C49.524,30.43 52.164,26.478 52.164,21.913 C52.164,15.473 46.926,10.234 40.486,10.234 C34.046,10.234 28.807,15.473 28.807,21.913 C28.807,26.473 31.44,30.421 35.261,32.343 C32.783,33.066 30.46,34.313 28.425,36.006 L16.956,29.384 L4.074,36.822 L4.074,51.696 L16.956,59.134 L27.565,53.008 L59.871,53.008 L59.871,52.008 Z" id="Fill-1"></path>
        </g>
    </g>
</svg>