<?xml version="1.0" encoding="UTF-8"?>
<svg width="80px" height="80px" viewBox="0 0 80 80" version="1.1" xmlns="http://www.w3.org/2000/svg" xmlns:xlink="http://www.w3.org/1999/xlink">
    <!-- Generator: Sketch 64 (93537) - https://sketch.com -->
    <title>Icon-Architecture/64/Arch_AWS-Managed-Services_64</title>
    <desc>Created with Sketch.</desc>
    <defs>
        <linearGradient x1="0%" y1="100%" x2="100%" y2="0%" id="linearGradient-1">
            <stop stop-color="#2E27AD" offset="0%"></stop>
            <stop stop-color="#527FFF" offset="100%"></stop>
        </linearGradient>
    </defs>
    <g id="Icon-Architecture/64/Arch_AWS-Managed-Services_64" stroke="none" stroke-width="1" fill="none" fill-rule="evenodd">
        <g id="Icon-Architecture-BG/64/Customer-Enablement" fill="url(#linearGradient-1)">
            <rect id="Rectangle" x="0" y="0" width="80" height="80"></rect>
        </g>
        <g id="Icon-Service/64/AWS-Managed-Services" transform="translate(8.000000, 8.000000)" fill="#FFFFFF">
            <path d="M35.98,29.216 C35.98,26.9 34.096,25.016 31.78,25.016 C29.463,25.016 27.58,26.9 27.58,29.216 C27.58,31.532 29.463,33.416 31.78,33.416 C34.096,33.416 35.98,31.532 35.98,29.216 L35.98,29.216 Z M37.98,29.216 C37.98,32.634 35.199,35.416 31.78,35.416 C28.361,35.416 25.58,32.634 25.58,29.216 C25.58,25.797 28.361,23.016 31.78,23.016 C35.199,23.016 37.98,25.797 37.98,29.216 L37.98,29.216 Z M39.187,38.779 L41.344,36.623 L40.522,35.89 C40.158,35.565 40.082,35.023 40.342,34.61 C40.957,33.637 41.396,32.576 41.648,31.457 C41.755,30.979 42.209,30.647 42.68,30.678 L43.78,30.741 L43.78,27.691 L42.678,27.754 C42.209,27.771 41.753,27.452 41.646,26.976 C41.393,25.857 40.954,24.797 40.339,23.825 C40.079,23.411 40.155,22.87 40.519,22.545 L41.344,21.809 L39.187,19.652 L38.448,20.481 C38.123,20.844 37.581,20.921 37.167,20.66 C36.197,20.048 35.137,19.608 34.02,19.356 C33.543,19.248 33.214,18.811 33.243,18.323 L33.305,17.216 L30.255,17.216 L30.318,18.322 C30.346,18.81 30.017,19.246 29.54,19.354 C28.42,19.607 27.36,20.046 26.389,20.658 C25.977,20.918 25.434,20.843 25.11,20.478 L24.373,19.652 L22.216,21.809 L23.043,22.547 C23.408,22.872 23.484,23.414 23.222,23.827 C22.609,24.798 22.168,25.857 21.915,26.977 C21.806,27.453 21.327,27.771 20.882,27.754 L19.78,27.691 L19.78,30.741 L20.878,30.678 C21.327,30.647 21.803,30.979 21.911,31.456 C22.164,32.578 22.603,33.64 23.216,34.612 C23.477,35.026 23.401,35.567 23.037,35.892 L22.216,36.623 L24.373,38.78 L25.105,37.96 C25.43,37.593 25.972,37.518 26.385,37.78 C27.359,38.395 28.42,38.836 29.541,39.089 C30.017,39.196 30.346,39.633 30.318,40.121 L30.255,41.216 L33.305,41.216 L33.243,40.122 C33.214,39.634 33.543,39.197 34.021,39.09 C35.143,38.837 36.205,38.397 37.177,37.782 C37.588,37.521 38.131,37.595 38.458,37.962 L39.187,38.779 Z M39.853,40.943 C39.659,41.137 39.406,41.245 39.118,41.235 C38.842,41.227 38.583,41.107 38.4,40.901 L37.509,39.903 C36.8,40.284 36.056,40.591 35.286,40.824 L35.362,42.159 C35.377,42.434 35.28,42.703 35.09,42.903 C34.902,43.103 34.639,43.216 34.364,43.216 L29.197,43.216 C28.921,43.216 28.659,43.103 28.47,42.903 C28.281,42.703 28.183,42.434 28.199,42.159 L28.275,40.822 C27.505,40.59 26.762,40.282 26.053,39.901 L25.161,40.901 C24.978,41.107 24.718,41.227 24.443,41.235 C24.172,41.243 23.902,41.137 23.708,40.943 L20.053,37.289 C19.859,37.094 19.752,36.828 19.76,36.553 C19.768,36.278 19.889,36.019 20.094,35.835 L21.095,34.943 C20.715,34.234 20.408,33.491 20.176,32.721 L18.836,32.798 C18.56,32.815 18.292,32.715 18.093,32.527 C17.893,32.338 17.78,32.074 17.78,31.799 L17.78,26.632 C17.78,26.357 17.893,26.094 18.093,25.905 C18.292,25.716 18.559,25.618 18.836,25.633 L20.181,25.71 C20.414,24.942 20.721,24.201 21.102,23.495 L20.094,22.596 C19.889,22.413 19.768,22.154 19.76,21.879 C19.752,21.604 19.859,21.338 20.053,21.143 L23.708,17.489 C23.902,17.295 24.175,17.193 24.443,17.197 C24.718,17.205 24.978,17.325 25.161,17.531 L26.059,18.537 C26.765,18.158 27.506,17.851 28.275,17.62 L28.199,16.273 C28.183,15.998 28.281,15.729 28.47,15.529 C28.659,15.329 28.921,15.216 29.197,15.216 L34.364,15.216 C34.639,15.216 34.902,15.329 35.09,15.529 C35.28,15.729 35.377,15.998 35.362,16.273 L35.286,17.622 C36.052,17.853 36.792,18.16 37.5,18.54 L38.4,17.53 C38.584,17.325 38.842,17.205 39.118,17.197 C39.403,17.191 39.659,17.295 39.853,17.489 L43.506,21.143 C43.701,21.338 43.807,21.604 43.799,21.879 C43.792,22.154 43.67,22.413 43.465,22.596 L42.46,23.493 C42.84,24.201 43.148,24.942 43.379,25.71 L44.723,25.633 C44.997,25.619 45.267,25.716 45.466,25.905 C45.667,26.094 45.78,26.357 45.78,26.632 L45.78,31.799 C45.78,32.074 45.667,32.338 45.466,32.527 C45.267,32.715 44.996,32.814 44.723,32.798 L43.382,32.721 C43.151,33.49 42.843,34.233 42.463,34.941 L43.465,35.836 C43.67,36.019 43.792,36.278 43.799,36.553 C43.807,36.828 43.701,37.094 43.506,37.289 L39.853,40.943 Z M50.297,47.213 C50.289,46.733 50.092,46.285 49.746,45.952 C49.398,45.617 48.949,45.451 48.501,45.451 C48.028,45.451 47.556,45.635 47.204,46.002 C46.517,46.716 46.539,47.857 47.253,48.545 C47.966,49.232 49.109,49.21 49.796,48.495 L49.796,48.494 C50.129,48.149 50.307,47.694 50.297,47.213 L50.297,47.213 Z M51.132,44.51 C51.864,45.214 52.278,46.159 52.297,47.174 C52.318,48.188 51.941,49.15 51.238,49.881 C50.535,50.612 49.588,51.026 48.575,51.046 C48.548,51.047 48.523,51.047 48.498,51.047 C47.511,51.047 46.58,50.672 45.867,49.986 C44.358,48.534 44.311,46.125 45.762,44.616 C47.214,43.106 49.624,43.06 51.132,44.51 L51.132,44.51 Z M55.435,47.905 L53.541,47.035 C53.285,46.918 53.09,46.698 53.004,46.43 L52.616,45.212 C52.532,44.947 52.561,44.66 52.697,44.418 L53.716,42.604 L51.254,40.813 L49.86,42.325 C49.671,42.529 49.408,42.646 49.13,42.648 L47.828,42.655 L47.822,42.655 C47.543,42.655 47.276,42.539 47.086,42.333 L45.682,40.808 L43.216,42.596 L44.24,44.418 C44.376,44.662 44.405,44.952 44.319,45.218 L43.926,46.423 C43.839,46.688 43.646,46.905 43.392,47.021 L41.49,47.894 L42.428,50.792 L44.459,50.385 C44.735,50.327 45.023,50.394 45.25,50.562 L46.296,51.337 C46.519,51.502 46.663,51.751 46.695,52.025 L46.933,54.071 L49.978,54.074 L50.22,52.011 C50.252,51.736 50.398,51.486 50.623,51.321 L51.657,50.564 C51.883,50.399 52.171,50.335 52.444,50.39 L54.492,50.801 L55.435,47.905 Z M57.613,47.677 L56.119,52.266 C55.961,52.749 55.462,53.034 54.971,52.937 L52.483,52.438 L52.156,52.677 L51.861,55.192 C51.802,55.695 51.375,56.075 50.868,56.075 L50.867,56.075 L46.042,56.07 C45.535,56.07 45.108,55.69 45.049,55.186 L44.758,52.687 L44.417,52.433 L41.948,52.927 C41.446,53.026 40.957,52.738 40.8,52.255 L39.313,47.664 C39.157,47.182 39.386,46.659 39.847,46.447 L42.16,45.386 L42.281,45.015 L41.037,42.799 C40.789,42.357 40.911,41.799 41.322,41.5 L45.228,38.667 C45.634,38.37 46.207,38.424 46.55,38.799 L48.258,40.653 L48.684,40.65 L50.387,38.802 C50.732,38.428 51.299,38.373 51.71,38.672 L55.612,41.51 C56.022,41.809 56.144,42.367 55.896,42.809 L54.654,45.019 L54.776,45.402 L57.079,46.459 C57.541,46.671 57.77,47.195 57.613,47.677 L57.613,47.677 Z M31.832,49.57 C24.268,49.57 17.11,45.13 13.597,38.258 L11.816,39.169 C15.668,46.702 23.524,51.57 31.832,51.57 C33.65,51.57 35.887,51.245 37.969,50.678 L37.444,48.749 C35.554,49.263 33.457,49.57 31.832,49.57 L31.832,49.57 Z M49.306,33.513 L51.661,31.748 C51.574,33.421 51.341,34.822 50.769,36.366 L52.644,37.061 C53.315,35.251 53.578,33.603 53.667,31.684 L56.107,33.513 L57.306,31.914 L53.306,28.914 C52.951,28.647 52.462,28.647 52.107,28.914 L48.107,31.914 L49.306,33.513 Z M15.414,25.421 L11.414,29.421 C11.218,29.616 10.962,29.714 10.707,29.714 C10.451,29.714 10.195,29.616 10,29.421 L6,25.421 L7.414,24.007 L9.824,26.417 C10.956,15.36 20.192,7 31.78,7 C40.01,7 47.79,11.812 51.597,19.258 L49.816,20.169 C46.347,13.384 39.267,9 31.78,9 C21.425,9 13.154,16.334 11.892,26.113 L14,24.007 L15.414,25.421 Z" id="AWS-Managed-Services_Icon_64_Squid"></path>
        </g>
    </g>
</svg>