<svg id="Artwork" xmlns="http://www.w3.org/2000/svg" width="24px" height="24px" viewBox="0 0 24 24"><rect x="10.75" y="10.61" width="2.57" height="2.57" transform="translate(-4.89 12) rotate(-45.01)" style="fill:#4285f4"/><polygon points="17.87 11.89 17.8 11.95 14.03 15.73 12.97 14.68 15.77 11.89 10.06 6.18 10.06 4.08 10.13 4.15 17.87 11.89" style="fill:#669df6;fill-rule:evenodd"/><polygon points="10.06 6.18 4.36 11.89 11.11 18.65 10.06 19.7 10 19.63 2.25 11.89 10.06 4.08 10.06 6.18" style="fill:#aecbfa;fill-rule:evenodd"/><polygon points="13.94 17.6 13.94 19.7 13.88 19.63 6.13 11.9 9.97 8.05 11.03 9.11 8.23 11.9 13.94 17.6" style="fill:#669df6;fill-rule:evenodd"/><polygon points="13.94 17.6 19.64 11.9 12.89 5.14 13.94 4.08 14 4.15 21.75 11.9 21.68 11.96 13.94 19.7 13.94 17.6" style="fill:#4285f4"/></svg>