<?xml version="1.0" encoding="UTF-8"?>
<svg width="24px" height="24px" viewBox="0 0 24 24" version="1.1" xmlns="http://www.w3.org/2000/svg" xmlns:xlink="http://www.w3.org/1999/xlink">
    <title>Icon-Architecture/16/Arch_CN-Capstone_16</title>
    <defs>
        <linearGradient x1="0%" y1="100%" x2="100%" y2="0%" id="linearGradient-1">
            <stop stop-color="#055F4E" offset="0%"></stop>
            <stop stop-color="#56C0A7" offset="100%"></stop>
        </linearGradient>
    </defs>
    <g id="Icon-Architecture/16/Arch_CN-Capstone_16" stroke="none" stroke-width="1" fill="none" fill-rule="evenodd">
        <g id="Rectangle" fill="url(#linearGradient-1)">
            <rect x="0" y="0" width="24" height="24"></rect>
        </g>
        <g id="Icon-Service/16/CN-Capstone_16" transform="translate(4.000000, 4.000000)" fill="#FFFFFF">
            <path d="M7.079,14.287 C7.093,14.043 6.929,13.825 6.69,13.771 C6.036,13.622 5.415,13.365 4.847,13.005 C4.639,12.875 4.369,12.913 4.206,13.096 L3.73,13.629 L2.37,12.27 L2.904,11.794 C3.087,11.631 3.125,11.361 2.994,11.154 C2.636,10.586 2.379,9.965 2.23,9.309 C2.177,9.07 1.96,8.915 1.715,8.92 L1,8.961 L1,7.038 L1.718,7.079 C1.96,7.099 2.18,6.93 2.233,6.691 C2.382,6.037 2.64,5.417 2.998,4.849 C3.129,4.643 3.091,4.372 2.908,4.209 L2.37,3.73 L3.73,2.37 L4.209,2.907 C4.371,3.09 4.642,3.128 4.849,2.997 C5.418,2.639 6.037,2.383 6.69,2.235 C6.929,2.182 7.093,1.963 7.079,1.719 L7.039,1 L8.961,1 L8.921,1.72 C8.907,1.964 9.071,2.182 9.309,2.236 C9.963,2.384 10.582,2.641 11.149,2.999 C11.356,3.13 11.627,3.091 11.789,2.909 L12.269,2.37 L13.63,3.73 L13.093,4.208 C12.91,4.371 12.872,4.642 13.003,4.849 C13.361,5.415 13.619,6.035 13.767,6.691 C13.821,6.93 14.045,7.099 14.283,7.079 L15,7.038 L15,8.961 L14.284,8.92 C14.045,8.915 13.821,9.071 13.768,9.309 C13.621,9.962 13.364,10.582 13.005,11.153 C12.875,11.36 12.913,11.63 13.095,11.793 L13.63,12.27 L12.269,13.629 L11.795,13.097 C11.633,12.914 11.362,12.877 11.154,13.007 C10.587,13.366 9.966,13.623 9.309,13.771 C9.071,13.825 8.907,14.043 8.921,14.287 L8.961,15 L7.039,15 L7.079,14.287 Z M9.853,15.843 C9.948,15.744 9.997,15.609 9.989,15.472 L9.942,14.641 C10.423,14.5 10.884,14.309 11.322,14.069 L11.876,14.69 C11.968,14.793 12.098,14.853 12.234,14.857 C12.38,14.867 12.506,14.808 12.602,14.711 L14.711,12.603 C14.808,12.506 14.861,12.373 14.857,12.235 C14.853,12.098 14.793,11.968 14.69,11.876 L14.066,11.32 C14.307,10.881 14.498,10.42 14.637,9.942 L15.472,9.99 C15.608,9.997 15.743,9.949 15.844,9.854 C15.943,9.76 16,9.628 16,9.491 L16,6.509 C16,6.371 15.943,6.24 15.844,6.146 C15.743,6.051 15.608,6.005 15.472,6.01 L14.636,6.058 C14.496,5.579 14.305,5.118 14.065,4.681 L14.69,4.123 C14.793,4.032 14.853,3.902 14.857,3.765 C14.861,3.627 14.808,3.494 14.711,3.397 L12.602,1.289 C12.506,1.192 12.376,1.149 12.234,1.142 C12.098,1.146 11.968,1.207 11.876,1.309 L11.316,1.937 C10.88,1.698 10.42,1.507 9.942,1.368 L9.989,0.528 C9.997,0.391 9.948,0.256 9.853,0.157 C9.759,0.057 9.628,0 9.49,0 L6.51,0 C6.372,0 6.241,0.057 6.146,0.157 C6.052,0.256 6.003,0.391 6.011,0.528 L6.058,1.366 C5.58,1.506 5.12,1.696 4.683,1.936 L4.124,1.31 C4.032,1.207 3.902,1.147 3.766,1.142 C3.622,1.153 3.495,1.192 3.397,1.289 L1.289,3.397 C1.191,3.494 1.139,3.627 1.142,3.765 C1.146,3.902 1.207,4.032 1.309,4.123 L1.936,4.683 C1.696,5.12 1.505,5.579 1.365,6.058 L0.528,6.01 C0.392,6.005 0.257,6.051 0.156,6.146 C0.057,6.24 0,6.371 0,6.509 L0,9.491 C0,9.628 0.057,9.76 0.156,9.854 C0.257,9.949 0.405,9.997 0.528,9.99 L1.362,9.942 C1.502,10.422 1.692,10.883 1.933,11.321 L1.309,11.876 C1.207,11.968 1.146,12.098 1.142,12.235 C1.139,12.373 1.191,12.506 1.289,12.603 L3.397,14.711 C3.495,14.808 3.618,14.864 3.766,14.857 C3.903,14.853 4.032,14.793 4.124,14.69 L4.679,14.067 C5.117,14.308 5.578,14.499 6.058,14.64 L6.011,15.472 C6.003,15.609 6.052,15.744 6.146,15.843 C6.241,15.943 6.372,16 6.51,16 L9.49,16 C9.628,16 9.759,15.943 9.853,15.843 L9.853,15.843 Z M7.775,9.586 L10.241,7.12 L9.534,6.413 L7.422,8.526 L6.466,7.569 L5.759,8.276 L7.068,9.586 C7.162,9.68 7.289,9.733 7.422,9.733 C7.555,9.733 7.682,9.68 7.775,9.586 L7.775,9.586 Z M13.384,7.642 L12.671,8.023 C12.662,6.985 12.337,5.982 11.692,5.147 C10.911,4.136 9.783,3.489 8.515,3.326 C6.465,3.062 4.497,4.131 3.599,5.983 L4.499,6.42 C5.209,4.955 6.762,4.109 8.388,4.318 C9.391,4.447 10.283,4.958 10.9,5.758 C11.35,6.339 11.607,7.022 11.669,7.736 L11.314,7.386 L10.611,8.098 L12.031,9.497 L13.854,8.524 L13.384,7.642 Z M12.212,10.159 C11.404,11.825 9.725,12.856 7.909,12.856 C7.706,12.856 7.501,12.843 7.295,12.817 C4.9,12.509 3.165,10.467 3.141,8.118 L2.426,8.5 L1.955,7.618 L3.778,6.645 L5.198,8.045 L4.495,8.757 L4.14,8.406 C4.293,10.136 5.629,11.594 7.422,11.825 C9.041,12.036 10.601,11.188 11.311,9.722 L12.212,10.159 Z" id="Fill-7"></path>
        </g>
    </g>
</svg>