<?xml version="1.0" encoding="UTF-8"?>
<svg width="24px" height="24px" viewBox="0 0 24 24" version="1.1" xmlns="http://www.w3.org/2000/svg" xmlns:xlink="http://www.w3.org/1999/xlink">
    <title>Icon-Architecture/16/Arch_Amazon-Poirot_16</title>
    <defs>
        <linearGradient x1="0%" y1="100%" x2="100%" y2="0%" id="linearGradient-1">
            <stop stop-color="#055F4E" offset="0%"></stop>
            <stop stop-color="#56C0A7" offset="100%"></stop>
        </linearGradient>
    </defs>
    <g id="Icon-Architecture/16/Arch_Amazon-Poirot_16" stroke="none" stroke-width="1" fill="none" fill-rule="evenodd">
        <g id="Rectangle" fill="url(#linearGradient-1)">
            <rect x="0" y="0" width="24" height="24"></rect>
        </g>
        <g id="Icon-Service/16/Amazon-Poirot_16" transform="translate(4.000000, 4.000000)" fill="#FFFFFF">
            <path d="M3.609,11.514 L5.592,14.291 C5.688,14.424 5.84,14.5 6,14.5 C6.041,14.5 6.082,14.495 6.122,14.485 C6.321,14.435 6.469,14.267 6.496,14.063 L7.313,7.625 L9.016,14.127 C9.061,14.3 9.196,14.436 9.369,14.483 C9.54,14.529 9.727,14.481 9.853,14.354 L11.046,13.16 L12.7,14.4 L13.299,13.6 L11.299,12.1 C11.102,11.951 10.822,11.97 10.646,12.147 L9.762,13.031 L7.626,4.874 C7.566,4.642 7.341,4.494 7.11,4.501 C6.871,4.517 6.676,4.7 6.646,4.937 L5.665,12.671 L3.907,10.21 C3.802,10.063 3.623,9.984 3.446,10.003 C3.266,10.023 3.111,10.138 3.04,10.304 L1.54,13.804 L2.46,14.197 L3.609,11.514 Z M11.743,8.153 C11.565,8.436 11.351,8.695 11.119,8.938 L14.223,11.448 C14.403,11.587 14.66,11.433 14.825,11.225 C14.996,11.009 15.077,10.716 14.902,10.578 L11.743,8.153 Z M3.611,8.643 C2.894,7.759 2.5,6.642 2.5,5.5 C2.5,2.743 4.743,0.5 7.5,0.5 C10.256,0.5 12.5,2.743 12.5,5.5 C12.5,6.105 12.382,6.685 12.182,7.23 L15.516,9.789 C16.121,10.266 16.159,11.148 15.61,11.845 C15.273,12.271 14.815,12.498 14.373,12.498 C14.098,12.498 13.829,12.41 13.599,12.229 L10.354,9.605 C10.155,9.743 9.945,9.87 9.722,9.98 L9.277,9.085 C10.648,8.404 11.5,7.03 11.5,5.5 C11.5,3.295 9.706,1.5 7.5,1.5 C5.294,1.5 3.5,3.295 3.5,5.5 C3.5,6.427 3.807,7.297 4.388,8.014 L3.611,8.643 Z M16,15 L16,16 L0,16 L0,0 L1,0 L1,15 L16,15 Z" id="Fill-5"></path>
        </g>
    </g>
</svg>