<?xml version="1.0" encoding="UTF-8"?>
<svg width="24px" height="24px" viewBox="0 0 24 24" version="1.1" xmlns="http://www.w3.org/2000/svg" xmlns:xlink="http://www.w3.org/1999/xlink">
    <!-- Generator: Sketch 64 (93537) - https://sketch.com -->
    <title>Icon-Architecture/16/Arch_AWS-TensorFlow-on-AWS_16</title>
    <desc>Created with Sketch.</desc>
    <defs>
        <linearGradient x1="0%" y1="100%" x2="100%" y2="0%" id="linearGradient-1">
            <stop stop-color="#055F4E" offset="0%"></stop>
            <stop stop-color="#56C0A7" offset="100%"></stop>
        </linearGradient>
    </defs>
    <g id="Icon-Architecture/16/Arch_AWS-TensorFlow-on-AWS_16" stroke="none" stroke-width="1" fill="none" fill-rule="evenodd">
        <g id="Icon-Architecture-BG/16/Machine-Learning" fill="url(#linearGradient-1)">
            <rect id="Rectangle" x="0" y="0" width="24" height="24"></rect>
        </g>
        <path d="M16,14.7046904 L16,10.4420263 L12.48,12.2961851 L12.48,16.7019387 L16,14.7046904 Z M8,14.7056911 L11.48,16.6989368 L11.48,12.2941839 L8,10.4450281 L8,14.7056911 Z M8.621,9.6435272 L11.981,11.4286429 L15.375,9.64152595 L12,8.06954346 L8.621,9.6435272 Z M16.747,15.4311445 L12.228,17.996748 C12.15,18.0397749 12.065,18.060788 11.98,18.060788 C11.895,18.060788 11.809,18.0397749 11.732,17.9957473 L7.252,15.4301438 C7.096,15.3410882 7,15.1749844 7,14.9958724 L7,9.61350844 C7,9.41938712 7.112,9.24227642 7.289,9.16022514 L11.789,7.06391495 C11.922,7.00187617 12.078,7.00187617 12.211,7.06391495 L16.711,9.16022514 C16.888,9.24227642 17,9.41938712 17,9.61350844 L17,14.9958724 C17,15.175985 16.903,15.3420888 16.747,15.4311445 L16.747,15.4311445 Z M12,5.00062539 C14.306,5.00062539 16.478,6.22038774 17.81,8.26466542 L18.647,7.71732333 C17.13,5.38986867 14.645,4 12,4 C9.353,4 6.866,5.39186992 5.349,7.72332708 L6.187,8.26966854 C7.519,6.22238899 9.692,5.00062539 12,5.00062539 L12,5.00062539 Z M19,12.2921826 C18.921,15.547217 16.565,18.375985 13.4,19.0193871 L13.6,20 C17.217,19.2645403 19.909,16.033521 20,12.3171982 L19,12.2921826 Z M10.6,19.0193871 L10.4,20 C6.783,19.2645403 4.091,16.033521 4,12.3171982 L5,12.2921826 C5.079,15.547217 7.435,18.375985 10.6,19.0193871 L10.6,19.0193871 Z" id="AWS-TensorFlow-on-AWS_Icon_16_Squid" fill="#FFFFFF"></path>
    </g>
</svg>