<?xml version="1.0" encoding="UTF-8"?>
<svg width="24px" height="24px" viewBox="0 0 24 24" version="1.1" xmlns="http://www.w3.org/2000/svg" xmlns:xlink="http://www.w3.org/1999/xlink">
    <!-- Generator: Sketch 64 (93537) - https://sketch.com -->
    <title>Icon-Architecture/16/Arch_AWS-Deepracer_16</title>
    <desc>Created with Sketch.</desc>
    <defs>
        <linearGradient x1="0%" y1="100%" x2="100%" y2="0%" id="linearGradient-1">
            <stop stop-color="#055F4E" offset="0%"></stop>
            <stop stop-color="#56C0A7" offset="100%"></stop>
        </linearGradient>
    </defs>
    <g id="Icon-Architecture/16/Arch_AWS-Deepracer_16" stroke="none" stroke-width="1" fill="none" fill-rule="evenodd">
        <g id="Icon-Architecture-BG/16/Machine-Learning" fill="url(#linearGradient-1)">
            <rect id="Rectangle" x="0" y="0" width="24" height="24"></rect>
        </g>
        <path d="M11.6573267,10.2709927 C10.6314845,10.4180775 9.68903597,11.2058882 8.85911859,12.6142762 L9.72420196,13.1270583 C10.3782894,12.0188847 11.0906519,11.376144 11.7859338,11.2703638 C12.460116,11.1676059 12.9393783,11.5907267 12.9594731,11.6088605 L13.6437028,10.8714213 C13.6105463,10.8401909 12.8178044,10.1087963 11.6573267,10.2709927 L11.6573267,10.2709927 Z M16.5725275,13.1985859 C16.7995993,13.1935487 16.9714103,13.0384044 16.9985383,12.8218069 L17.2477145,10.8593321 C17.2637904,10.7334033 17.2256102,10.6084819 17.1412118,10.5157983 C17.0588229,10.4241221 16.9442822,10.3727431 16.8227084,10.3727431 C16.8186894,10.3727431 16.8156752,10.3727431 16.8116562,10.3737506 C16.5966413,10.3777803 16.4218161,10.5369543 16.394688,10.7505296 L16.1455119,12.7119969 C16.129436,12.8379258 16.1676162,12.9628471 16.2520146,13.0565382 C16.3333987,13.1461995 16.4509536,13.1985859 16.5725275,13.1985859 L16.5725275,13.1985859 Z M16.6046792,14.2060165 C16.164602,14.2060165 15.7787808,14.0327384 15.5064956,13.7315167 C15.2261724,13.4192132 15.0955559,13.0021369 15.1488072,12.5850607 L15.3979834,10.6235934 C15.4884102,9.91234738 16.0731704,9.38344633 16.7865377,9.36632001 C17.2256102,9.36833487 17.6064076,9.52952376 17.8867308,9.84081981 C18.167054,10.1521159 18.2976705,10.5691921 18.2454239,10.9862684 L17.9962477,12.9487431 C17.9058209,13.6599891 17.3210607,14.1878827 16.6066887,14.2060165 L16.6046792,14.2060165 Z M12.4701635,13.1744076 C12.4319833,13.1129543 12.3757177,13.0535159 12.23003,13.0353821 C12.2129494,13.0333673 12.194864,13.0323599 12.1777834,13.0323599 C11.7517725,13.0323599 11.1469175,13.6206993 10.8113334,14.7651404 C10.5340245,15.7131326 10.6204324,16.5079953 10.8183666,16.846492 C10.8454947,16.8928338 10.9007555,16.9734282 10.9620448,16.9875323 C11.0826139,17.012718 11.2986336,16.9502573 11.7025401,16.490869 C11.95674,16.2017364 12.1687407,15.772571 12.3325137,15.213447 C12.5404955,14.5908549 12.7153207,13.5652906 12.4701635,13.1744076 L12.4701635,13.1744076 Z M13.3211804,12.6394619 C13.9139786,13.5864467 13.3553417,15.3222495 13.2900334,15.5176911 C13.0900897,16.1997216 12.807757,16.7568307 12.4560971,17.1567806 C12.2631865,17.3774079 11.7166065,18 11.008263,18 C10.9218551,18 10.8334378,17.9909331 10.7420062,17.9697771 C10.4184791,17.8972421 10.1451891,17.6846742 9.95328327,17.3572593 C9.56243841,16.6923551 9.5222487,15.5902261 9.8477853,14.481045 C10.3139859,12.8913196 11.3066715,11.9120971 12.3536133,12.036011 C12.7715862,12.08739 13.1061655,12.2959281 13.3211804,12.6394619 L13.3211804,12.6394619 Z M19.9776001,10.7223216 C20.0720459,9.97682293 19.865069,9.22024257 19.4089158,8.64600715 C18.9557769,8.07479402 18.295661,7.73126019 17.5923412,7.70002984 C17.5672226,7.69499269 17.5410993,7.69297783 17.5159808,7.6919704 L16.8719408,7.68290352 C16.8076372,7.55395241 16.6961108,7.45119449 16.5464042,7.41492699 C15.1648831,7.08348233 13.9993817,6.97165754 13.0117197,7.00591018 L13.0117197,7.00288789 L6.60749044,7.00288789 L6.60749044,8.01031846 L9.58253326,8.01031846 C9.13140383,8.31556992 8.78476764,8.65507402 8.52152508,8.98349639 L4.85521936,8.98349639 L4.85521936,9.99092696 L7.89356096,9.99092696 L7.70466935,10.3324459 C7.44444102,10.6447494 7.07971946,10.788812 6.52510155,10.78176 C5.46308863,10.8472429 4.69144631,11.3983075 4.28553031,12.391634 C4.22022204,12.5739789 4.14185212,12.8087103 4.10869561,12.9819883 C4.1036719,12.9991146 4.09965293,13.0182558 4.09563396,13.0363896 C3.97305536,13.6448776 4.01424981,14.1566524 4.01625929,14.1778084 C4.0283162,14.3259007 4.10467664,14.4588815 4.22223152,14.5435057 C4.14989006,14.7822668 4.09965293,15.0190129 4.06147271,15.2708706 C4.06147271,15.2708706 4.02027826,15.7292515 4.01826878,15.7292515 C3.91478029,16.8525366 4.25337854,17.6262433 4.97277424,17.9083238 C5.1204714,17.9667548 5.27520176,17.9949628 5.43596058,17.9949628 C5.90316588,17.9949628 6.40453244,17.7491498 6.84561443,17.288754 C6.97422149,17.1547658 7.09378585,16.9996214 7.20732177,16.8354103 L8.939498,16.8354103 L8.939498,15.8279797 L7.73280214,15.8279797 C7.77399659,15.721192 7.81820526,15.6164193 7.85236651,15.5066093 C8.1869458,14.4347032 8.15579878,13.3920126 7.76696339,12.7190489 L6.89786105,13.2227642 C7.09579534,13.5673055 7.17115103,14.3138115 6.89283734,15.2043802 C6.72002161,15.7604818 6.44572688,16.252108 6.12019028,16.5906046 C5.88206629,16.8404474 5.54849175,17.0540227 5.33950529,16.970406 C4.95669836,16.8202988 4.99789281,16.0526367 5.01999714,15.8189128 L5.0591821,15.3917623 C5.08932438,15.192291 5.13654728,14.9847603 5.20286029,14.7731999 C5.31137249,14.4266438 5.46409337,14.0931842 5.64595178,13.8111037 C5.77958254,13.6025656 5.74240707,13.327537 5.55853917,13.1623184 C5.43797006,13.0535159 5.27721125,13.0122112 5.12549512,13.0434416 C5.16367533,12.9114682 5.22295515,12.7553164 5.22295515,12.7553164 C5.47213131,12.145821 5.91823702,11.8284803 6.54117743,11.7881831 C7.57505756,11.7982574 8.15278455,11.3640548 8.52755354,10.9036591 L9.06308134,9.95365203 C9.66090318,8.98148153 11.2182542,7.55898956 15.0463235,8.14833645 C14.8634603,8.28131728 14.6816019,8.44149874 14.5128052,8.65910375 L15.3055471,9.27665869 C15.7948567,8.64499972 16.4348777,8.67925236 16.496167,8.68227465 L17.4466535,8.69839354 C17.4687579,8.70242326 17.491867,8.70443812 17.514976,8.70544555 C17.9399821,8.71451243 18.3428839,8.92204313 18.6232071,9.27363639 C18.9115682,9.6363114 19.0421848,10.1178632 18.9808955,10.5943779 L18.6995675,12.7956137 C18.6443067,13.2227642 18.5468467,13.6428628 18.4102017,14.045835 L16.7674475,15.8340243 L13.7180538,15.8340243 L13.7180538,16.8414548 L16.9874862,16.8414548 C17.1271454,16.8414548 17.2617809,16.7820164 17.3572314,16.6792585 L18.7126292,15.2033727 C18.9165919,15.6617536 19.0391705,16.069763 18.8914734,16.418334 C18.7297098,16.7991428 18.4031685,16.9875323 17.8927592,16.9895471 L17.8987877,17.9969777 C18.8151129,17.9919406 19.4963284,17.5708346 19.8168413,16.8112319 C20.1845771,15.9387971 19.7786611,15.0895331 19.4219775,14.3410122 L19.3858067,14.2664623 C19.5274754,13.8312523 19.6369924,13.3819383 19.6962722,12.9235574 L19.9776001,10.7223216 Z" id="AWS-Deepracer_Icon_16_Squid" fill="#FFFFFF"></path>
    </g>
</svg>