<?xml version="1.0" encoding="UTF-8"?>
<svg width="24px" height="24px" viewBox="0 0 24 24" version="1.1" xmlns="http://www.w3.org/2000/svg" xmlns:xlink="http://www.w3.org/1999/xlink">
    <!-- Generator: Sketch 64 (93537) - https://sketch.com -->
    <title>Icon-Architecture/16/Arch_Amazon-Elastic-Inference_16</title>
    <desc>Created with Sketch.</desc>
    <defs>
        <linearGradient x1="0%" y1="100%" x2="100%" y2="0%" id="linearGradient-1">
            <stop stop-color="#055F4E" offset="0%"></stop>
            <stop stop-color="#56C0A7" offset="100%"></stop>
        </linearGradient>
    </defs>
    <g id="Icon-Architecture/16/Arch_Amazon-Elastic-Inference_16" stroke="none" stroke-width="1" fill="none" fill-rule="evenodd">
        <g id="Icon-Architecture-BG/16/Machine-Learning" fill="url(#linearGradient-1)">
            <rect id="Rectangle" x="0" y="0" width="24" height="24"></rect>
        </g>
        <path d="M15.65,15.125331 C13.138,15.125331 11.783,17.3097113 11.783,19.3639163 L11.783,19.8570045 L15.333,19.8570045 L17.4,18.3668922 L16.81,17.5700618 L15.006,18.8708282 L12.815,18.8708282 C13.002,17.4566516 13.981,16.1115072 15.65,16.1115072 C17.497,16.1115072 19,17.604578 19,19.4398519 L20,19.4398519 C20,17.0602087 18.048,15.125331 15.65,15.125331 M20,10.9843772 L20,14.8945658 L19,14.8945658 L19,13.9429058 L15,13.9429058 L15,12.9567296 L19,12.9567296 L19,11.2309212 L17.333,9.99820096 L14,9.99820096 L14,9.01202476 L17,9.01202476 L17,7.86115713 L13.486,6.05842703 L12,6.94302709 L12,9.90648657 L14.297,11.5849585 L13.702,12.3778441 L11.202,10.5514458 C11.075,10.4587452 11,10.311805 11,10.155003 L11,6.84835417 L10.416,6.18268523 L10,6.38583753 L10,9.01202476 L9,9.01202476 L9,6.8720224 L7,7.84537831 L7,9.71023751 L8.283,10.5780726 L7.716,11.3906818 L6.562,10.6096302 L5,12.1727195 L5,13.7012926 L6.531,14.8699114 L8.737,13.5237809 L9.262,14.3630168 L7,15.7436635 L7,17.6667071 L8.539,18.8708282 L10,17.6578315 L10,13.2141216 L8.713,12.3295215 L9.286,11.5198708 L10.786,12.5523973 C10.92,12.6450979 11,12.7959828 11,12.9567296 L11,13.9429058 L12,13.9429058 L12,14.929082 L11,14.929082 L11,17.8876106 C11,18.0335647 10.934,18.1716293 10.822,18.2653161 L8.871,19.8846174 C8.778,19.9615391 8.663,20 8.548,20 C8.439,20 8.329,19.9644977 8.238,19.893493 L6.189,18.2909566 C6.069,18.1972699 6,18.0552605 6,17.9043756 L6,15.7111197 L4.194,14.3334315 C4.071,14.2397448 4,14.0957631 4,13.9429058 L4,11.9705534 C4,11.8413643 4.051,11.7171061 4.143,11.6244055 L6,9.76743573 L6,7.53867751 C6,7.35130403 6.108,7.17970937 6.278,7.09687057 L10.319,5.13043523 C10.525,5.03181761 10.77,5.07915406 10.919,5.24976255 L11.602,6.02785557 L13.211,5.07126465 C13.359,4.9825088 13.545,4.97560556 13.699,5.05647201 L17.73,7.12448351 C17.896,7.20929466 18,7.37793079 18,7.56234574 L18,9.25856881 L19.799,10.5899067 C19.925,10.6835934 20,10.8295475 20,10.9843772" id="Amazon-Elastic-Inference_Icon_16_Squid" fill="#FFFFFF"></path>
    </g>
</svg>