<?xml version="1.0" encoding="UTF-8"?>
<svg width="24px" height="24px" viewBox="0 0 24 24" version="1.1" xmlns="http://www.w3.org/2000/svg" xmlns:xlink="http://www.w3.org/1999/xlink">
    <!-- Generator: Sketch 64 (93537) - https://sketch.com -->
    <title>Icon-Architecture/16/Arch_AWS-SageMaker_16</title>
    <desc>Created with Sketch.</desc>
    <defs>
        <linearGradient x1="0%" y1="100%" x2="100%" y2="0%" id="linearGradient-1">
            <stop stop-color="#055F4E" offset="0%"></stop>
            <stop stop-color="#56C0A7" offset="100%"></stop>
        </linearGradient>
    </defs>
    <g id="Icon-Architecture/16/Arch_AWS-SageMaker_16" stroke="none" stroke-width="1" fill="none" fill-rule="evenodd">
        <g id="Icon-Architecture-BG/16/Machine-Learning" fill="url(#linearGradient-1)">
            <rect id="Rectangle" x="0" y="0" width="24" height="24"></rect>
        </g>
        <path d="M19.000533,13.6672874 L17.3104344,12.3579393 L16.6857676,13.1152694 L18.5747601,14.5766646 L17.2604611,15.2080958 C17.0895522,15.2894458 16.9816098,15.4579566 16.9816098,15.6419626 L16.9816098,17.2989853 L14.0161914,18.9482603 L12.96875,18.2858386 L12.96875,15.6574578 L14.9986674,15.6574578 L14.9986674,14.6890051 L12.96875,14.6890051 L12.96875,12.7366043 L11.969283,12.7366043 L11.969283,18.2906809 L10.9788113,18.9453549 L9.91038113,18.350725 L11.3546109,16.9532476 L10.6479877,16.2685515 L9.01285981,17.8519718 L8.01839019,17.2989853 L8.01839019,15.6419626 C8.01839019,15.4579566 7.91044776,15.2894458 7.73953891,15.2080958 L5.99946695,14.3732895 L5.99946695,11.0941084 L7.43370203,10.3726111 L9.00186567,11.1047614 L9.00186567,12.477059 L7.72554638,13.3021807 L8.27925107,14.1079334 L9.77845149,13.1394807 C9.9173774,13.0494146 10.0013326,12.8983359 10.0013326,12.7366043 L10.0013326,11.0592442 L11.2776519,10.2341224 L10.7239472,9.42836971 L9.46162047,10.2438069 L7.9244403,9.52715189 L7.9244403,7.24644565 L9.00186567,6.80386274 L9.00186567,8.827929 L10.0013326,8.827929 L10.0013326,6.39323877 L10.958822,6.00004695 L11.969283,6.31188874 L11.969283,9.83124606 C11.969283,9.97941933 12.0392457,10.1188765 12.1591818,10.2108795 L14.6898321,12.147785 L15.3085021,11.3885181 L12.96875,9.59688049 L12.96875,6.30704647 L13.9132463,6.0010154 L16.9976013,7.24838255 L16.9976013,7.95535307 L14.9986674,7.95535307 L14.9986674,8.92380582 L16.9976013,8.92380582 L16.9976013,9.83124606 C16.9976013,10.0152521 17.1055437,10.1827944 17.2734542,10.2641444 L19.000533,11.0989507 L19.000533,13.6672874 Z M19.7241471,10.3668004 L17.9970682,9.53199415 L17.9970682,6.92588779 C17.9970682,6.73026033 17.8761327,6.55400193 17.6892324,6.47943106 L14.1251333,5.03740491 C14.013193,4.99188763 13.8892591,4.98898227 13.7743204,5.02578348 L12.4660181,5.44899733 L11.0857543,5.02287812 C10.9728145,4.98801382 10.8498801,4.99285608 10.7389392,5.03837336 L7.22981077,6.48039952 C7.04490938,6.55593883 6.92497335,6.73122878 6.92497335,6.92588779 L6.92497335,9.53683642 L5.26985608,10.3697058 C5.10394456,10.4529927 5,10.6195666 5,10.7996988 L5,14.6735098 C5,14.8575159 5.10794243,15.0260266 5.27885128,15.1073767 L7.01892324,15.9431514 L7.01892324,17.5788681 C7.01892324,17.7522212 7.1138726,17.9129843 7.26978945,17.9991766 L10.7519323,19.9360821 C10.8288913,19.978694 10.9148454,20 11.0007996,20 C11.0997468,20 11.1966951,19.9719149 11.2816498,19.9157446 L12.4750133,19.129361 L13.7263459,19.9215553 C13.8093017,19.9738518 13.9032516,20 13.9992004,20 C14.0851546,20 14.1711087,19.978694 14.2480677,19.9360821 L17.7302106,17.9991766 C17.8861274,17.9129843 17.9810768,17.7522212 17.9810768,17.5788681 L17.9810768,15.9431514 L19.7221482,15.1073767 C19.893057,15.0260266 20,14.8575159 20,14.6735098 L20,10.7996988 C20,10.6166612 19.893057,10.4481505 19.7241471,10.3668004 L19.7241471,10.3668004 Z" id="AWS-SageMaker_Icon_16_Squid" fill="#FFFFFF"></path>
    </g>
</svg>