<?xml version="1.0" encoding="UTF-8"?>
<svg width="24px" height="24px" viewBox="0 0 24 24" version="1.1" xmlns="http://www.w3.org/2000/svg" xmlns:xlink="http://www.w3.org/1999/xlink">
    <title>Icon-Architecture/16/Arch_Amazon-Hogun_16</title>
    <defs>
        <linearGradient x1="0%" y1="100%" x2="100%" y2="0%" id="linearGradient-1">
            <stop stop-color="#055F4E" offset="0%"></stop>
            <stop stop-color="#56C0A7" offset="100%"></stop>
        </linearGradient>
    </defs>
    <g id="Icon-Architecture/16/Arch_Amazon-Hogun_16" stroke="none" stroke-width="1" fill="none" fill-rule="evenodd">
        <g id="Rectangle" fill="url(#linearGradient-1)">
            <rect x="0" y="0" width="24" height="24"></rect>
        </g>
        <g id="Icon-Service/16/Amazon-Hogun_16" transform="translate(4.000000, 4.000000)" fill="#FFFFFF">
            <path d="M14.846,9.364 C14.75,9.455 14.6,9.502 14.49,9.5 C14.355,9.497 14.231,9.442 14.14,9.346 L12.216,7.327 C12.495,7.14 12.74,6.911 12.964,6.662 L14.864,8.656 C15.054,8.856 15.045,9.174 14.846,9.364 L14.846,9.364 Z M15.588,7.967 L13.542,5.82 C13.825,5.271 14,4.659 14,4 C14,1.795 12.206,0 10,0 C7.794,0 6,1.795 6,4 L7,4 C7,2.346 8.346,1 10,1 C11.655,1 13,2.346 13,4 C13,5.655 11.655,7 10,7 L10,8 C10.452,8 10.881,7.908 11.286,7.769 C11.311,7.799 11.32,7.836 11.346,7.864 L13.415,10.036 C13.691,10.325 14.063,10.49 14.465,10.5 C14.478,10.5 14.491,10.5 14.503,10.5 C14.89,10.5 15.256,10.355 15.535,10.088 C16.134,9.518 16.158,8.566 15.588,7.967 L15.588,7.967 Z M6,14 L8,14 L8,13 L6,13 L6,14 Z M2,14 L4,14 L4,13 L2,13 L2,14 Z M14,15 L1,15 L1,3 L3,3 L3,6.5 L3,12 L4,12 L4,7.68 L6,9.616 L6,12 L7,12 L7,9.405 L7,7.18 L9,9.116 L9,11.5 C9,11.777 9.224,12 9.5,12 L14,12 L14,15 Z M1,2 L3,2 L3,1 L1,1 L1,2 Z M14.5,11 L10,11 L10,8.905 C10,8.769 9.946,8.639 9.848,8.545 L6.848,5.641 C6.704,5.502 6.492,5.463 6.305,5.54 C6.12,5.618 6,5.8 6,6 L6,8.224 L4,6.288 L4,0.5 C4,0.224 3.777,0 3.5,0 L0.5,0 C0.224,0 0,0.224 0,0.5 L0,15.5 C0,15.777 0.224,16 0.5,16 L14.5,16 C14.777,16 15,15.777 15,15.5 L15,11.5 C15,11.224 14.777,11 14.5,11 L14.5,11 Z" id="Fill-8"></path>
        </g>
    </g>
</svg>