<?xml version="1.0" encoding="UTF-8"?>
<svg width="24px" height="24px" viewBox="0 0 24 24" version="1.1" xmlns="http://www.w3.org/2000/svg" xmlns:xlink="http://www.w3.org/1999/xlink">
    <!-- Generator: Sketch 64 (93537) - https://sketch.com -->
    <title>Icon-Architecture/16/Arch_Amazon-Comprehend_16</title>
    <desc>Created with Sketch.</desc>
    <defs>
        <linearGradient x1="0%" y1="100%" x2="100%" y2="0%" id="linearGradient-1">
            <stop stop-color="#055F4E" offset="0%"></stop>
            <stop stop-color="#56C0A7" offset="100%"></stop>
        </linearGradient>
    </defs>
    <g id="Icon-Architecture/16/Arch_Amazon-Comprehend_16" stroke="none" stroke-width="1" fill="none" fill-rule="evenodd">
        <g id="Icon-Architecture-BG/16/Machine-Learning" fill="url(#linearGradient-1)">
            <rect id="Rectangle" x="0" y="0" width="24" height="24"></rect>
        </g>
        <path d="M5.03225806,5 L13.2903226,5 L13.2903226,8 L14.3225806,8 L14.3225806,4.5 C14.3225806,4.367 14.267871,4.24 14.171871,4.146 C14.0748387,4.053 13.9437419,4 13.8064516,4 L4.51612903,4.001 C4.23122581,4.001 4,4.226 4,4.501 L4,17.5 C4,17.776 4.23122581,18 4.51612903,18 L12.2580645,18 L12.2580645,17 L5.03225806,17 L5.03225806,5 Z M14.3225806,15 L15.3548387,15 L15.3548387,16 L16.3870968,16 L16.3870968,15 L17.4193548,15 L17.4193548,14 L14.3225806,14 L14.3225806,15 Z M18.9677419,13.5 C18.9677419,11.439 17.6949677,10 15.8709677,10 C14.0469677,10 12.7741935,11.439 12.7741935,13.5 C12.7741935,15.045 13.9468387,16.434 15.1091613,17.124 C15.2609032,17.215 15.3548387,17.376 15.3548387,17.55 L15.3548387,19 L16.3870968,19 L16.3870968,17.55 C16.3870968,17.376 16.4810323,17.215 16.6327742,17.124 C17.7950968,16.434 18.9677419,15.045 18.9677419,13.5 L18.9677419,13.5 Z M20,13.5 C20,15.319 18.7406452,16.94 17.4193548,17.821 L17.4193548,19.5 C17.4193548,19.776 17.188129,20 16.9032258,20 L14.8387097,20 C14.5538065,20 14.3225806,19.776 14.3225806,19.5 L14.3225806,17.821 C13.0012903,16.94 11.7419355,15.319 11.7419355,13.5 C11.7419355,10.893 13.4792258,9 15.8709677,9 C18.2627097,9 20,10.893 20,13.5 L20,13.5 Z M6.06451613,8 L9.16129032,8 L9.16129032,7 L6.06451613,7 L6.06451613,8 Z M6.06451613,14 L10.1935484,14 L10.1935484,13 L6.06451613,13 L6.06451613,14 Z M6.06451613,12 L10.1935484,12 L10.1935484,11 L6.06451613,11 L6.06451613,12 Z M6.06451613,10 L10.1935484,10 L10.1935484,9 L6.06451613,9 L6.06451613,10 Z" id="Amazon-Comprehend_Icon_16_Squid" fill="#FFFFFF"></path>
    </g>
</svg>