<?xml version="1.0" encoding="UTF-8"?>
<svg width="24px" height="24px" viewBox="0 0 24 24" version="1.1" xmlns="http://www.w3.org/2000/svg" xmlns:xlink="http://www.w3.org/1999/xlink">
    <!-- Generator: Sketch 64 (93537) - https://sketch.com -->
    <title>Icon-Architecture/16/Arch_Amazon-Rekognition_16</title>
    <desc>Created with Sketch.</desc>
    <defs>
        <linearGradient x1="0%" y1="100%" x2="100%" y2="0%" id="linearGradient-1">
            <stop stop-color="#055F4E" offset="0%"></stop>
            <stop stop-color="#56C0A7" offset="100%"></stop>
        </linearGradient>
    </defs>
    <g id="Icon-Architecture/16/Arch_Amazon-Rekognition_16" stroke="none" stroke-width="1" fill="none" fill-rule="evenodd">
        <g id="Icon-Architecture-BG/16/Machine-Learning" fill="url(#linearGradient-1)">
            <rect id="Rectangle" x="0" y="0" width="24" height="24"></rect>
        </g>
        <path d="M19.0003335,18.2542846 C19.0172626,18.1267437 18.9844003,18.0251096 18.9027425,17.9424073 L15.6145213,14.7399362 C15.3526188,15.062774 15.0578539,15.3577122 14.7362018,15.6197688 L17.9457526,18.906935 C18.1548763,19.1171782 18.50242,18.9687126 18.7314602,18.7395377 C18.8808343,18.5910721 18.9794212,18.4137106 19.0003335,18.2542846 L19.0003335,18.2542846 Z M10.9749627,15.9615385 C13.7214539,15.9615385 15.9550942,13.7265843 15.9550942,10.9784775 C15.9550942,8.23136708 13.7214539,5.99641291 10.9749627,5.99641291 C8.23046319,5.99641291 5.99582712,8.23136708 5.99582712,10.9784775 C5.99582712,13.7265843 8.23046319,15.9615385 10.9749627,15.9615385 L10.9749627,15.9615385 Z M19.9862024,18.3858111 C19.936411,18.764448 19.7402331,19.1400957 19.43551,19.4440016 C19.0680498,19.811678 18.6189317,20 18.1917219,20 C17.8391991,20 17.5006179,19.8714627 17.2377195,19.6074133 L13.8987112,16.1877242 C13.0333374,16.6759665 12.0375103,16.9579514 10.9749627,16.9579514 C7.68076662,16.9579514 5,14.2756078 5,10.9784775 C5,7.68234356 7.68076662,5 10.9749627,5 C14.2701547,5 16.9509213,7.68234356 16.9509213,10.9784775 C16.9509213,12.0406536 16.6700981,13.0370666 16.1821428,13.9029494 L19.6018131,17.2329613 C19.9105195,17.5418493 20.045952,17.9493822 19.9862024,18.3858111 L19.9862024,18.3858111 Z M9.06397049,11.9699083 L8.06814337,11.9699083 L8.06814337,13.9627342 L10.0597976,13.9627342 L10.0597976,12.9663212 L9.06397049,12.9663212 L9.06397049,11.9699083 Z M8.06814337,9.9770825 L9.06397049,9.9770825 L9.06397049,8.98066959 L10.0597976,8.98066959 L10.0597976,7.98425668 L8.06814337,7.98425668 L8.06814337,9.9770825 Z M12.0514519,8.98066959 L13.047279,8.98066959 L13.047279,9.9770825 L14.0431061,9.9770825 L14.0431061,7.98425668 L12.0514519,7.98425668 L12.0514519,8.98066959 Z M13.047279,11.9699083 L14.0431061,11.9699083 L14.0431061,13.9627342 L12.0514519,13.9627342 L12.0514519,12.9663212 L13.047279,12.9663212 L13.047279,11.9699083 Z" id="Amazon-Rekognition-Icon_16_Squid" fill="#FFFFFF"></path>
    </g>
</svg>