<?xml version="1.0" encoding="UTF-8"?>
<svg width="24px" height="24px" viewBox="0 0 24 24" version="1.1" xmlns="http://www.w3.org/2000/svg" xmlns:xlink="http://www.w3.org/1999/xlink">
    <title>Icon-Architecture/16/Arch_AWS-Deep-Learning-AMIs_16</title>
    <defs>
        <linearGradient x1="0%" y1="100%" x2="100%" y2="0%" id="linearGradient-1">
            <stop stop-color="#055F4E" offset="0%"></stop>
            <stop stop-color="#56C0A7" offset="100%"></stop>
        </linearGradient>
    </defs>
    <g id="Icon-Architecture/16/Arch_AWS-Deep-Learning-AMIs_16" stroke="none" stroke-width="1" fill="none" fill-rule="evenodd">
        <g id="Rectangle" fill="url(#linearGradient-1)">
            <rect x="0" y="0" width="24" height="24"></rect>
        </g>
        <g id="Icon-Service/16/AWS-Deep-Learning-AMIs_16" transform="translate(4.000000, 4.000000)" fill="#FFFFFF">
            <path d="M15.0000475,7.5 C15.0000475,6.122 13.8790475,5 12.5000475,5 C11.1210475,5 10.0000475,6.122 10.0000475,7.5 C10.0000475,8.878 11.1210475,10 12.5000475,10 C13.8790475,10 15.0000475,8.878 15.0000475,7.5 L15.0000475,7.5 Z M16.0000475,7.5 C16.0000475,9.43 14.4300475,11 12.5000475,11 C10.5700475,11 9.00004751,9.43 9.00004751,7.5 C9.00004751,5.57 10.5700475,4 12.5000475,4 C14.4300475,4 16.0000475,5.57 16.0000475,7.5 L16.0000475,7.5 Z M5.70704751,15 L14.0000475,15 L14.0000475,16 L4.50004751,16 C4.31104751,16 4.14604751,15.887 4.06104751,15.72 L4.05304751,15.724 L0.0530475122,7.724 C-0.0219524878,7.574 -0.0169524878,7.397 0.0650475122,7.252 L4.06504751,0.252 L4.07804751,0.259 C4.16704751,0.106 4.32004751,0 4.50004751,0 L14.0000475,0 L14.0000475,1 L5.70704751,1 L8.85404751,4.146 L8.14604751,4.854 L5.00004751,1.707 L5.00004751,6 L4.00004751,6 L4.00004751,2.383 L1.36104751,7 L8.00004751,7 L8.00004751,8 L1.30904751,8 L4.00004751,13.382 L4.00004751,9 L5.00004751,9 L5.00004751,14.293 L8.64604751,10.646 L9.35404751,11.354 L5.70704751,15 Z" id="AWS-Deep-Learning-AMIs_16_Squid"></path>
        </g>
    </g>
</svg>