<?xml version="1.0" encoding="UTF-8"?>
<svg width="24px" height="24px" viewBox="0 0 24 24" version="1.1" xmlns="http://www.w3.org/2000/svg" xmlns:xlink="http://www.w3.org/1999/xlink">
    <!-- Generator: Sketch 64 (93537) - https://sketch.com -->
    <title>Icon-Architecture/16/Arch_Amazon-Kendra_16</title>
    <desc>Created with Sketch.</desc>
    <defs>
        <linearGradient x1="0%" y1="100%" x2="100%" y2="0%" id="linearGradient-1">
            <stop stop-color="#055F4E" offset="0%"></stop>
            <stop stop-color="#56C0A7" offset="100%"></stop>
        </linearGradient>
    </defs>
    <g id="Icon-Architecture/16/Arch_Amazon-Kendra_16" stroke="none" stroke-width="1" fill="none" fill-rule="evenodd">
        <g id="Icon-Architecture-BG/16/Machine-Learning" fill="url(#linearGradient-1)">
            <rect id="Rectangle" x="0" y="0" width="24" height="24"></rect>
        </g>
        <path d="M18.9917449,18.6483558 L17.2625874,16.951997 C17.1627702,17.063878 17.0579117,17.1687035 16.9480118,17.2684894 L18.6227235,18.9829911 C18.660029,19.0172609 18.7749701,18.9668641 18.869746,18.8741338 C18.960489,18.7834194 18.9917449,18.6957289 18.9917449,18.6483558 L18.9917449,18.6483558 Z M14.2630285,17.3047751 C15.9337072,17.3047751 17.2928351,15.9450674 17.2928351,14.274915 C17.2928351,12.6037546 15.9337072,11.2450548 14.2630285,11.2450548 C12.5913416,11.2450548 11.2322138,12.6037546 11.2322138,14.274915 C11.2322138,15.9450674 12.5913416,17.3047751 14.2630285,17.3047751 L14.2630285,17.3047751 Z M20,18.6473479 C20,18.9789593 19.8487617,19.3206501 19.5825824,19.5867456 C19.308337,19.8609046 18.9725881,20 18.6509547,20 C18.3777176,20 18.1125465,19.8981983 17.9058542,19.6925791 L16.1030941,17.8480534 C15.5485538,18.1343077 14.9294852,18.3127126 14.2630285,18.3127126 C12.0357931,18.3127126 10.2239587,16.5014489 10.2239587,14.274915 C10.2239587,12.048381 12.0357931,10.2371173 14.2630285,10.2371173 C16.490264,10.2371173 18.3010902,12.048381 18.3010902,14.274915 C18.3010902,14.9371299 18.126662,15.5529797 17.8413259,16.1053295 L19.6874409,17.9004662 C19.8911085,18.1020537 20,18.3661333 20,18.6473479 L20,18.6473479 Z M6.01651018,13.0714376 L6.01651018,14.0793751 L8.98279665,14.0793751 C8.99590396,13.7336525 9.03724242,13.3970014 9.11386981,13.0714376 L6.01651018,13.0714376 Z M5.00825509,7.02381252 L18.1155712,7.02381252 L18.1155712,5.00793751 L5.00825509,5.00793751 L5.00825509,7.02381252 Z M10.628269,18.1111251 L4.50412754,18.1111251 C4.22484088,18.1111251 4,17.8853471 4,17.6071564 L4,7.52778128 L4,5.00793751 C4,4.45256394 4.45169828,4 5.00825509,4 L18.1155712,4 C18.672128,4 19.1238263,4.45256394 19.1238263,5.00793751 L19.1238263,7.52778128 L19.1238263,12.1763891 C18.8788203,11.6109361 18.5309723,11.1039436 18.1155712,10.6604511 L18.1155712,8.03175003 L5.00825509,8.03175003 L5.00825509,17.1031876 L9.79847501,17.1031876 C10.0333984,17.4731007 10.3116769,17.8097518 10.628269,18.1111251 L10.628269,18.1111251 Z M6.01651018,10.047625 L11.1031571,10.047625 C10.7180037,10.3358952 10.3782217,10.6745622 10.0838112,11.0555626 L6.01651018,11.0555626 L6.01651018,10.047625 Z" id="Amazon-Kendra_Icon_16_Squid" fill="#FFFFFF"></path>
    </g>
</svg>