<?xml version="1.0" encoding="UTF-8"?>
<svg width="24px" height="24px" viewBox="0 0 24 24" version="1.1" xmlns="http://www.w3.org/2000/svg" xmlns:xlink="http://www.w3.org/1999/xlink">
    <!-- Generator: Sketch 64 (93537) - https://sketch.com -->
    <title>Icon-Architecture/16/Arch_Amazon-Fraud-Detector_16</title>
    <desc>Created with Sketch.</desc>
    <defs>
        <linearGradient x1="0%" y1="100%" x2="100%" y2="0%" id="linearGradient-1">
            <stop stop-color="#055F4E" offset="0%"></stop>
            <stop stop-color="#56C0A7" offset="100%"></stop>
        </linearGradient>
    </defs>
    <g id="Icon-Architecture/16/Arch_Amazon-Fraud-Detector_16" stroke="none" stroke-width="1" fill="none" fill-rule="evenodd">
        <g id="Icon-Architecture-BG/16/Machine-Learning" fill="url(#linearGradient-1)">
            <rect id="Rectangle" x="0" y="0" width="24" height="24"></rect>
        </g>
        <path d="M18.8181756,6.04404247 L18.0459146,5.40306724 L16.5594648,7.06940621 L17.3317259,7.71038144 L18.8181756,6.04404247 Z M17.7351763,11.3900904 L19.7728045,11.3900904 L19.7728045,10.4069996 L17.7351763,10.4069996 L17.7351763,11.3900904 Z M17.9623718,9.37278805 L20,8.38969721 L19.5445901,7.50983091 L17.5069619,8.49292175 L17.9623718,9.37278805 Z M18.6887863,17.9689343 L15.5111051,14.9852536 C15.2146302,15.2821471 14.8896285,15.5524971 14.5330435,15.7845065 L17.7097059,18.9215494 C17.9236569,19.1279984 18.279223,18.982501 18.5135502,18.7563901 C18.7590844,18.5194652 18.8976431,18.1724341 18.6887863,17.9689343 L18.6887863,17.9689343 Z M11.1128846,15.8139992 C13.9207363,15.8139992 16.2069551,13.6089265 16.2069551,10.898545 C16.2069551,8.18914668 13.9207363,5.98309084 11.1128846,5.98309084 C8.30401413,5.98309084 6.0188141,8.18914668 6.0188141,10.898545 C6.0188141,13.6089265 8.30401413,15.8139992 11.1128846,15.8139992 L11.1128846,15.8139992 Z M19.4039938,17.2699567 C20.0010188,17.8470311 19.9256266,18.7829335 19.2338518,19.4514353 C18.8579094,19.8141958 18.3984242,20 17.961353,20 C17.6006928,20 17.254296,19.8721982 16.9853291,19.6126622 L13.6089791,16.2780181 C12.8458874,16.6093197 12.0023093,16.7970901 11.1128846,16.7970901 C7.74162874,16.7970901 5,14.1515926 5,10.898545 C5,7.64648053 7.74162874,5 11.1128846,5 C14.4831216,5 17.2257692,7.64648053 17.2257692,10.898545 C17.2257692,12.1303578 16.8304693,13.2746756 16.1590708,14.2223751 L19.4039938,17.2699567 Z M11.1128846,12.8647267 C10.8306731,12.8647267 10.6034776,13.084939 10.6034776,13.3562721 C10.6034776,13.6285883 10.8306731,13.8478175 11.1128846,13.8478175 C11.3940773,13.8478175 11.6222917,13.6285883 11.6222917,13.3562721 C11.6222917,13.084939 11.3940773,12.8647267 11.1128846,12.8647267 L11.1128846,12.8647267 Z M10.6034776,11.8816359 L11.6222917,11.8816359 L11.6222917,7.94927251 L10.6034776,7.94927251 L10.6034776,11.8816359 Z" id="Amazon-Fraud-Detector_Icon_16_Squid" fill="#FFFFFF"></path>
    </g>
</svg>