<?xml version="1.0" encoding="UTF-8"?>
<svg width="24px" height="24px" viewBox="0 0 24 24" version="1.1" xmlns="http://www.w3.org/2000/svg" xmlns:xlink="http://www.w3.org/1999/xlink">
    <title>Icon-Architecture/16/Arch_AWS-Colossus_16</title>
    <defs>
        <linearGradient x1="0%" y1="100%" x2="100%" y2="0%" id="linearGradient-1">
            <stop stop-color="#055F4E" offset="0%"></stop>
            <stop stop-color="#56C0A7" offset="100%"></stop>
        </linearGradient>
    </defs>
    <g id="Icon-Architecture/16/Arch_AWS-Colossus_16" stroke="none" stroke-width="1" fill="none" fill-rule="evenodd">
        <g id="Rectangle" fill="url(#linearGradient-1)">
            <rect x="0" y="0" width="24" height="24"></rect>
        </g>
        <g id="Icon-Service/16/AWS-Colossus_16" transform="translate(4.000000, 4.000000)" fill="#FFFFFF">
            <path d="M15,12 L13.5,12 C13.224,12 13,11.776 13,11.5 L13,10 L12,10 L12,11.5 C12,11.776 11.776,12 11.5,12 L10,12 L10,13 L11.5,13 C11.776,13 12,13.224 12,13.5 L12,15 L13,15 L13,13.5 C13,13.224 13.224,13 13.5,13 L15,13 L15,12 Z M16,11.5 L16,13.5 C16,13.776 15.776,14 15.5,14 L14,14 L14,15.5 C14,15.776 13.776,16 13.5,16 L11.5,16 C11.224,16 11,15.776 11,15.5 L11,14 L9.5,14 C9.224,14 9,13.776 9,13.5 L9,11.5 C9,11.224 9.224,11 9.5,11 L11,11 L11,9.5 C11,9.224 11.224,9 11.5,9 L13.5,9 C13.776,9 14,9.224 14,9.5 L14,11 L15.5,11 C15.776,11 16,11.224 16,11.5 L16,11.5 Z M6,2 L10,2 L10,1 L6,1 L6,2 Z M5,2.5 L5,0.5 C5,0.224 5.224,0 5.5,0 L10.5,0 C10.776,0 11,0.224 11,0.5 L11,2.5 C11,2.776 10.776,3 10.5,3 L5.5,3 C5.224,3 5,2.776 5,2.5 L5,2.5 Z M3,1.5 C3,1.224 3.225,1 3.5,1 L4,1 L4,0 L3.5,0 C2.673,0 2,0.673 2,1.5 L2,6 L3,6 L3,1.5 Z M13,1.5 L13,6 L14,6 L14,1.5 C14,0.673 13.327,0 12.5,0 L12,0 L12,1 L12.5,1 C12.775,1 13,1.224 13,1.5 L13,1.5 Z M3,14.5 L3,9 L2,9 L2,14.5 C2,15.327 2.673,16 3.5,16 L10,16 L10,15 L3.5,15 C3.225,15 3,14.776 3,14.5 L3,14.5 Z M12.31,7 L10.958,4.288 C10.878,4.126 10.716,4.021 10.535,4.011 C10.359,3.999 10.184,4.092 10.088,4.245 L7.943,7.651 L5.884,5.18 C5.778,5.052 5.608,4.984 5.449,5.002 C5.283,5.02 5.138,5.118 5.059,5.265 L4.132,7 L0,7 L0,8 L4.432,8 C4.616,8 4.786,7.898 4.873,7.735 L5.591,6.391 L7.616,8.82 C7.711,8.935 7.853,9 8,9 C8.011,9 8.022,9 8.033,8.999 C8.193,8.988 8.338,8.902 8.423,8.766 L10.46,5.53 L11.553,7.723 C11.637,7.893 11.811,8 12,8 L16,8 L16,7 L12.31,7 Z M4,11 L8,11 L8,10 L4,10 L4,11 Z M4,13 L8,13 L8,12 L4,12 L4,13 Z" id="Fill-1"></path>
        </g>
    </g>
</svg>