<?xml version="1.0" encoding="UTF-8"?>
<svg width="24px" height="24px" viewBox="0 0 24 24" version="1.1" xmlns="http://www.w3.org/2000/svg" xmlns:xlink="http://www.w3.org/1999/xlink">
    <!-- Generator: Sketch 64 (93537) - https://sketch.com -->
    <title>Icon-Architecture/16/Arch_Amazon-Lex_16</title>
    <desc>Created with Sketch.</desc>
    <defs>
        <linearGradient x1="0%" y1="100%" x2="100%" y2="0%" id="linearGradient-1">
            <stop stop-color="#055F4E" offset="0%"></stop>
            <stop stop-color="#56C0A7" offset="100%"></stop>
        </linearGradient>
    </defs>
    <g id="Icon-Architecture/16/Arch_Amazon-Lex_16" stroke="none" stroke-width="1" fill="none" fill-rule="evenodd">
        <g id="Icon-Architecture-BG/16/Machine-Learning" fill="url(#linearGradient-1)">
            <rect id="Rectangle" x="0" y="0" width="24" height="24"></rect>
        </g>
        <path d="M13.512,13.9140803 C13.512,14.4500031 13.955,14.8856247 14.5,14.8856247 C15.045,14.8856247 15.489,14.4500031 15.489,13.9140803 C15.489,13.3791408 15.045,12.9425358 14.5,12.9425358 C13.955,12.9425358 13.512,13.3791408 13.512,13.9140803 L13.512,13.9140803 Z M12.512,13.9140803 C12.512,12.8363346 13.404,11.9591912 14.5,11.9591912 C15.597,11.9591912 16.489,12.8363346 16.489,13.9140803 C16.489,14.9918259 15.597,15.8689693 14.5,15.8689693 C13.404,15.8689693 12.512,14.9918259 12.512,13.9140803 L12.512,13.9140803 Z M7,12.8550181 L7,11.6386209 C7,11.2216827 6.656,10.8834122 6.233,10.8834122 L5,10.8834122 L5,4.9833446 L14,4.9833446 L14,8.916723 L15,8.916723 L15,4.75520865 C15,4.33827054 14.656,4 14.233,4 L4.772,4 C4.346,4 4,4.34023723 4,4.75815869 L4,11.1085981 C4,11.5265196 4.346,11.8667568 4.772,11.8667568 L6,11.8667568 L6,13.4322414 C6,13.7095446 6.164,13.953414 6.417,14.0546985 C6.494,14.0851822 6.575,14.0999324 6.656,14.0999324 C6.797,14.0999324 6.936,14.0537152 7.05,13.9652142 L8.252,13.2749063 L7.748,12.4252965 L7,12.8550181 Z M19,10.8834122 L10,10.8834122 L10,16.7834798 L14.055,16.7834798 C14.123,16.7834798 14.192,16.7972466 14.254,16.8237969 L14.469,16.9162313 C14.533,16.943765 14.59,16.9840821 14.637,17.0332493 L16,18.4826993 L16,17.5524553 C16,17.1286338 16.351,16.7834798 16.783,16.7834798 L19,16.7834798 L19,10.8834122 Z M20,10.6729765 L20,16.9939156 C20,17.4197038 19.648,17.7668244 19.215,17.7668244 L17,17.7668244 L17,19.332309 C17,19.6096122 16.836,19.8534817 16.583,19.9547661 C16.506,19.9852498 16.425,20 16.345,20 C16.174,20 16.007,19.9321492 15.882,19.8052978 L13.95,17.7668244 L9.783,17.7668244 C9.351,17.7668244 9,17.4216705 9,16.9978489 L9,10.6690431 C9,10.2452216 9.351,9.9000676 9.783,9.9000676 L19.215,9.9000676 C19.648,9.9000676 20,10.2471882 20,10.6729765 L20,10.6729765 Z M11,7.9333784 L13,7.9333784 L13,6.9500338 L11,6.9500338 L11,7.9333784 Z M6,7.9333784 L10,7.9333784 L10,6.9500338 L6,6.9500338 L6,7.9333784 Z" id="Amazon-Lex-Icon_16_Squid" fill="#FFFFFF"></path>
    </g>
</svg>