<?xml version="1.0" encoding="UTF-8"?>
<svg width="24px" height="24px" viewBox="0 0 24 24" version="1.1" xmlns="http://www.w3.org/2000/svg" xmlns:xlink="http://www.w3.org/1999/xlink">
    <!-- Generator: Sketch 64 (93537) - https://sketch.com -->
    <title>Icon-Architecture/16/Arch_Amazon-Neuron-ML-SDK_16</title>
    <desc>Created with Sketch.</desc>
    <defs>
        <linearGradient x1="0%" y1="100%" x2="100%" y2="0%" id="linearGradient-1">
            <stop stop-color="#055F4E" offset="0%"></stop>
            <stop stop-color="#56C0A7" offset="100%"></stop>
        </linearGradient>
    </defs>
    <g id="Icon-Architecture/16/Arch_Amazon-Neuron-ML-SDK_16" stroke="none" stroke-width="1" fill="none" fill-rule="evenodd">
        <g id="Icon-Architecture-BG/16/Machine-Learning" fill="url(#linearGradient-1)">
            <rect id="Rectangle" x="0" y="0" width="24" height="24"></rect>
        </g>
        <path d="M12,8.50153211 C12.275,8.50153211 12.5,8.72565818 12.5,9.00181352 C12.5,9.27796886 12.275,9.50209493 12,9.50209493 C11.725,9.50209493 11.5,9.27796886 11.5,9.00181352 C11.5,8.72565818 11.725,8.50153211 12,8.50153211 L12,8.50153211 Z M15.5,14.0046276 C15.5,14.2807829 15.275,14.504909 15,14.504909 C14.725,14.504909 14.5,14.2807829 14.5,14.0046276 C14.5,13.7284723 14.725,13.5043462 15,13.5043462 C15.275,13.5043462 15.5,13.7284723 15.5,14.0046276 L15.5,14.0046276 Z M11.695,12.0715402 L10.252,13.1811644 C10.222,13.1361391 10.186,13.0961166 10.152,13.0550935 L11.701,10.4726409 C11.798,10.4916516 11.897,10.5026577 12,10.5026577 C12.103,10.5026577 12.202,10.4916516 12.299,10.4726409 L13.848,13.0550935 C13.814,13.0961166 13.778,13.1361391 13.748,13.1811644 L12.305,12.0715402 C12.125,11.9344631 11.875,11.9344631 11.695,12.0715402 L11.695,12.0715402 Z M9,14.504909 C8.725,14.504909 8.5,14.2807829 8.5,14.0046276 C8.5,13.7284723 8.725,13.5043462 9,13.5043462 C9.275,13.5043462 9.5,13.7284723 9.5,14.0046276 C9.5,14.2807829 9.275,14.504909 9,14.504909 L9,14.504909 Z M10.5,9.00181352 C10.5,9.36401726 10.634,9.6912013 10.848,9.95134763 L9.299,12.5338003 C9.202,12.5147896 9.103,12.5037834 9,12.5037834 C8.173,12.5037834 7.5,13.1771622 7.5,14.0046276 C7.5,14.8320931 8.173,15.5054718 9,15.5054718 C9.735,15.5054718 10.346,14.9721718 10.473,14.2727784 L12,13.0991183 L13.527,14.2727784 C13.654,14.9721718 14.265,15.5054718 15,15.5054718 C15.827,15.5054718 16.5,14.8320931 16.5,14.0046276 C16.5,13.1771622 15.827,12.5037834 15,12.5037834 C14.897,12.5037834 14.798,12.5147896 14.701,12.5338003 L13.152,9.95134763 C13.366,9.6912013 13.5,9.36401726 13.5,9.00181352 C13.5,8.17434807 12.827,7.5009693 12,7.5009693 C11.173,7.5009693 10.5,8.17434807 10.5,9.00181352 L10.5,9.00181352 Z M18,15.706585 L11.998,18.9323995 L6,15.706585 L6,8.30041899 L11.998,5.06860109 L18,8.30041899 L18,15.706585 Z M18.737,7.56100306 L12.235,4.06003377 C12.087,3.97998874 11.909,3.97998874 11.761,4.06003377 L5.263,7.56100306 C5.101,7.64805203 5,7.81714715 5,8.0012507 L5,16.0057532 C5,16.1898568 5.102,16.3599525 5.264,16.4460009 L11.762,19.9409668 C11.835,19.9799887 11.917,20 11.998,20 C12.079,20 12.161,19.9799887 12.234,19.9409668 L18.736,16.4460009 C18.898,16.3599525 19,16.1898568 19,16.0057532 L19,8.0012507 C19,7.81714715 18.899,7.64805203 18.737,7.56100306 L18.737,7.56100306 Z" id="Amazon-Neuron-ML-SDK_Icon_16_Squid" fill="#FFFFFF"></path>
    </g>
</svg>