<?xml version="1.0" encoding="UTF-8"?>
<svg width="24px" height="24px" viewBox="0 0 24 24" version="1.1" xmlns="http://www.w3.org/2000/svg" xmlns:xlink="http://www.w3.org/1999/xlink">
    <!-- Generator: Sketch 64 (93537) - https://sketch.com -->
    <title>Icon-Architecture/16/Arch_AWS-Deep-Composer_16</title>
    <desc>Created with Sketch.</desc>
    <defs>
        <linearGradient x1="0%" y1="100%" x2="100%" y2="0%" id="linearGradient-1">
            <stop stop-color="#055F4E" offset="0%"></stop>
            <stop stop-color="#56C0A7" offset="100%"></stop>
        </linearGradient>
    </defs>
    <g id="Icon-Architecture/16/Arch_AWS-Deep-Composer_16" stroke="none" stroke-width="1" fill="none" fill-rule="evenodd">
        <g id="Icon-Architecture-BG/16/Machine-Learning" fill="url(#linearGradient-1)">
            <rect id="Rectangle" x="0" y="0" width="24" height="24"></rect>
        </g>
        <path d="M15.682,10.682 C15.487,10.877 15.17,10.877 14.975,10.682 L13.854,9.561 C13.711,9.418 13.495,9.376 13.309,9.453 C13.122,9.53 13,9.712 13,9.914 L13,15 C13,16.103 12.103,17 11,17 C9.898,17 9,16.103 9,15 C9,13.897 9.898,13 11,13 C11.137,13 11.272,13.015 11.402,13.041 C11.545,13.07 11.702,13.033 11.817,12.937 C11.933,12.843 12,12.701 12,12.551 L12,7.5 C12,7.436 12.013,7.372 12.039,7.31 C12.09,7.186 12.187,7.091 12.31,7.039 C12.433,6.99 12.573,6.991 12.69,7.039 C12.753,7.065 12.81,7.102 12.854,7.147 L15.682,9.975 C15.877,10.17 15.877,10.487 15.682,10.682 L15.682,10.682 Z M13.562,6.441 C13.424,6.303 13.26,6.193 13.074,6.116 C12.708,5.964 12.292,5.965 11.927,6.116 C11.557,6.269 11.269,6.557 11.116,6.927 C11.039,7.111 11,7.304 11,7.5 L11,12 C9.346,12 8,13.346 8,15 C8,16.655 9.346,18 11,18 C12.655,18 14,16.655 14,15 L14,11.122 L14.268,11.39 C14.854,11.973 15.805,11.974 16.389,11.39 C16.974,10.805 16.974,9.853 16.389,9.268 L13.562,6.441 Z M19,12.184 C18.121,12.812 17.067,13.139 16,13.138 L16,14.145 C16.004,14.145 16.009,14.146 16.013,14.146 C17.055,14.146 18.085,13.877 19,13.37 L19,17.5 C19,18.328 18.328,19 17.5,19 L6.5,19 C5.673,19 5,18.328 5,17.5 L5,13.707 L5.354,13.354 C6.323,12.386 7.649,11.856 9,11.86 L9,10.861 C7.543,10.86 6.116,11.381 5,12.333 L5,6.5 C5,5.673 5.673,5 6.5,5 L17.5,5 C18.328,5 19,5.673 19,6.5 L19,12.184 Z M17.5,4 L6.5,4 C5.121,4 4,5.122 4,6.5 L4,17.5 C4,18.879 5.121,20 6.5,20 L17.5,20 C18.879,20 20,18.879 20,17.5 L20,6.5 C20,5.122 18.879,4 17.5,4 L17.5,4 Z" id="AWS-Deep-Composer_Icon_16_Squid" fill="#FFFFFF"></path>
    </g>
</svg>