<?xml version="1.0" encoding="UTF-8"?>
<svg width="24px" height="24px" viewBox="0 0 24 24" version="1.1" xmlns="http://www.w3.org/2000/svg" xmlns:xlink="http://www.w3.org/1999/xlink">
    <!-- Generator: Sketch 64 (93537) - https://sketch.com -->
    <title>Icon-Architecture/16/Arch_Amazon-Augmented-AI-A2I_16</title>
    <desc>Created with Sketch.</desc>
    <defs>
        <linearGradient x1="0%" y1="100%" x2="100%" y2="0%" id="linearGradient-1">
            <stop stop-color="#055F4E" offset="0%"></stop>
            <stop stop-color="#56C0A7" offset="100%"></stop>
        </linearGradient>
    </defs>
    <g id="Icon-Architecture/16/Arch_Amazon-Augmented-AI-A2I_16" stroke="none" stroke-width="1" fill="none" fill-rule="evenodd">
        <g id="Icon-Architecture-BG/16/Machine-Learning" fill="url(#linearGradient-1)">
            <rect id="Rectangle" x="0" y="0" width="24" height="24"></rect>
        </g>
        <path d="M14.826,18.802121 C14.688,17.961121 14.209,17.208121 13.507,16.766121 C13.083,16.498121 12.596,16.357121 12.099,16.357121 C10.734,16.357121 9.597,17.415121 9.373,18.802121 L14.826,18.802121 Z M10.711,13.659121 C10.711,14.428121 11.337,15.054121 12.105,15.054121 C12.874,15.054121 13.5,14.428121 13.5,13.659121 C13.5,12.890121 12.874,12.265121 12.105,12.265121 C11.337,12.265121 10.711,12.890121 10.711,13.659121 L10.711,13.659121 Z M15.867,19.302121 C15.867,19.578121 15.643,19.802121 15.367,19.802121 L8.833,19.802121 C8.556,19.802121 8.333,19.578121 8.333,19.302121 C8.333,17.626121 9.34,16.200121 10.75,15.630121 C10.124,15.198121 9.711,14.476121 9.711,13.659121 C9.711,12.339121 10.785,11.265121 12.105,11.265121 C13.426,11.265121 14.5,12.339121 14.5,13.659121 C14.5,14.477121 14.087,15.198121 13.461,15.630121 C13.66,15.711121 13.855,15.804121 14.04,15.920121 C15.184,16.640121 15.867,17.905121 15.867,19.302121 L15.867,19.302121 Z M19.291,12.964121 L18.302,15.551121 C18.253,15.679121 18.152,15.782121 18.025,15.835121 C17.899,15.886121 17.754,15.885121 17.63,15.828121 L16.972,15.531121 C16.738,15.913121 16.515,16.273121 16.024,16.643121 L15.423,15.844121 C15.765,15.586121 15.908,15.353121 16.124,15.001121 C16.197,14.883121 16.274,14.757121 16.364,14.621121 C16.5,14.416121 16.763,14.340121 16.986,14.442121 L17.557,14.698121 L18.168,13.102121 L17.567,12.911121 C17.334,12.837121 17.188,12.605121 17.223,12.363121 C17.312,11.752121 17.296,11.132121 17.173,10.521121 C17.125,10.281121 17.257,10.042121 17.486,9.95512097 L18.072,9.73312097 L17.372,8.17312097 L16.815,8.46212097 C16.599,8.57612097 16.333,8.51512097 16.185,8.31912097 C15.809,7.82112097 15.358,7.39412097 14.845,7.05312097 C14.64,6.91812097 14.564,6.65512097 14.665,6.43212097 L14.923,5.85812097 L13.238,5.21612097 L13,5.65112097 L13,7.81312097 C14.768,8.42612097 15.989,10.105121 15.989,12.002121 C15.989,12.437121 15.924,12.873121 15.795,13.300121 L14.838,13.010121 C14.938,12.678121 14.989,12.339121 14.989,12.002121 C14.989,10.649121 14.193,9.43312097 13,8.87712097 L13,10.802121 L12,10.802121 L12,5.87312097 L10.324,5.06712097 L9,5.85712097 L9,7.80212097 L8,7.80212097 L8,6.45312097 L7,7.05012097 L7,8.61112097 L8.548,9.31512097 L10.282,8.47512097 L10.718,9.37612097 L9,10.208121 L9,11.802121 L8,11.802121 L8,10.165121 L6.416,9.44312097 L5,9.95312097 L5,11.009121 L5.821,10.517121 L6.335,11.375121 L5,12.175121 L5,13.219121 L6.344,13.984121 L7.887,13.059121 L8.4,13.916121 L7,14.757121 L7,16.338121 L8.178,17.221121 L7.578,18.021121 L6.2,16.988121 C6.074,16.893121 6,16.745121 6,16.588121 L6,14.939121 L4.253,13.945121 C4.097,13.856121 4,13.690121 4,13.510121 L4,9.60212097 C4,9.39112097 4.132,9.20312097 4.33,9.13212097 L6,8.53112097 L6,6.76512097 C6,6.58912097 6.093,6.42612097 6.244,6.33612097 L10.043,4.07112097 C10.185,3.98412097 10.365,3.97712097 10.515,4.04912097 L12.273,4.89512097 L12.571,4.35312097 C12.693,4.13512097 12.958,4.04012097 13.187,4.12712097 L15.774,5.11212097 C15.903,5.16112097 16.006,5.26112097 16.058,5.38812097 C16.111,5.51512097 16.109,5.65912097 16.053,5.78412097 L15.745,6.46812097 C16.099,6.73912097 16.425,7.04612097 16.717,7.38612097 L17.381,7.04112097 C17.502,6.97712097 17.647,6.96712097 17.775,7.01212097 C17.905,7.05712097 18.011,7.15412097 18.067,7.28012097 L19.201,9.80812097 C19.258,9.93312097 19.26,10.077121 19.207,10.204121 C19.154,10.331121 19.051,10.431121 18.922,10.480121 L18.223,10.745121 C18.283,11.190121 18.295,11.637121 18.261,12.082121 L18.975,12.309121 C19.106,12.350121 19.215,12.445121 19.274,12.569121 C19.334,12.692121 19.341,12.836121 19.291,12.964121 L19.291,12.964121 Z" id="Amazon-Augmented-AI-A2I_Icon_16_Squid" fill="#FFFFFF"></path>
    </g>
</svg>