<?xml version="1.0" encoding="UTF-8"?>
<svg width="24px" height="24px" viewBox="0 0 24 24" version="1.1" xmlns="http://www.w3.org/2000/svg" xmlns:xlink="http://www.w3.org/1999/xlink">
    <!-- Generator: Sketch 64 (93537) - https://sketch.com -->
    <title>Icon-Architecture/16/Arch_AWS-SageMaker-Ground-Truth_16</title>
    <desc>Created with Sketch.</desc>
    <defs>
        <linearGradient x1="0%" y1="100%" x2="100%" y2="0%" id="linearGradient-1">
            <stop stop-color="#055F4E" offset="0%"></stop>
            <stop stop-color="#56C0A7" offset="100%"></stop>
        </linearGradient>
    </defs>
    <g id="Icon-Architecture/16/Arch_AWS-SageMaker-Ground-Truth_16" stroke="none" stroke-width="1" fill="none" fill-rule="evenodd">
        <g id="Icon-Architecture-BG/16/Machine-Learning" fill="url(#linearGradient-1)">
            <rect id="Rectangle" x="0" y="0" width="24" height="24"></rect>
        </g>
        <path d="M11.0004998,17.0945099 L12.9995002,17.0945099 L12.9995002,16.0860094 L11.0004998,16.0860094 L11.0004998,17.0945099 Z M14,15.359889 L12,14.0831273 L10,15.359889 L10,18.9914994 L14,18.9914994 L14,15.359889 Z M14.7666167,14.6569641 C14.9115442,14.7487376 14.9995002,14.9100977 14.9995002,15.0825513 L14.9995002,19.4957497 C14.9995002,19.7751044 14.7756122,20 14.4997501,20 L9.50024988,20 C9.22438781,20 9.00049975,19.7751044 9.00049975,19.4957497 L9.00049975,15.0825513 C9.00049975,14.9100977 9.08845577,14.7487376 9.23238381,14.6569641 L11.7321339,13.0605077 C11.896052,12.9566322 12.1029485,12.9566322 12.2668666,13.0605077 L14.7666167,14.6569641 Z M20,10.0400486 L20,14.0740508 C20,14.2656659 19.892054,14.441145 19.7211394,14.525859 L17.9810095,15.396195 L17.9810095,17.0995524 C17.9810095,17.267972 17.898051,17.4242896 17.7611194,17.5180801 L16.2768616,18.5265807 L15.7191404,17.6895252 L16.9815092,16.8312913 L16.9815092,15.0825513 C16.9815092,14.8909362 17.0894553,14.7154571 17.2603698,14.6307431 L18.5747126,13.9732007 L16.6846577,12.4513734 L17.3093453,11.6627259 L19.0004998,13.0262187 L19.0004998,10.3516752 L17.2733633,9.48234776 C17.1044478,9.39763371 16.9975012,9.22215461 16.9975012,9.03154801 L16.9975012,8.08557449 L14.9985007,8.08557449 L14.9985007,7.07707394 L16.9975012,7.07707394 L16.9975012,6.37011506 L12.9965017,5.03486033 L11.9690155,5.36665701 L11.9690155,8.78749088 L14.3078461,10.6532169 L13.6891554,11.4438813 L11.1594203,9.42688023 C11.0394803,9.33107267 10.9695152,9.18584859 10.9695152,9.03154801 L10.9695152,5.360606 L10.01999,5.04191983 L9.00149925,5.47053256 L9.00149925,7.98674144 L8.001999,7.98674144 L8.001999,5.89006879 L6.92453773,6.34187704 L6.92453773,8.71487884 L8.46176912,9.46116924 L9.72413793,8.61201178 L10.2778611,9.45108424 L9.00149925,10.3103267 L9.00149925,11.7867715 L10.2778611,12.646014 L9.72413793,13.4850864 L8.50174913,12.6631585 L7.27936032,13.4850864 L6.72563718,12.646014 L8.001999,11.7867715 L8.001999,10.3567177 L6.43378311,9.59529982 L4.99950025,10.3466327 L4.99950025,11.0525831 L5.75212394,10.6118684 L6.25387306,11.4852298 L4.99950025,12.2194183 L4.99950025,13.7604071 L6.73963018,14.6307431 C6.91054473,14.7154571 7.01849075,14.8909362 7.01849075,15.0825513 L7.01849075,16.8312913 L8.28085957,17.6895252 L7.72313843,18.5265807 L6.23888056,17.5180801 C6.10194903,17.4242896 6.0189905,17.267972 6.0189905,17.0995524 L6.0189905,15.396195 L4.27786107,14.525859 C4.10694653,14.441145 4,14.2656659 4,14.0740508 L4,10.0400486 C4,9.85145896 4.10394803,9.67900536 4.26986507,9.59227432 L5.92503748,8.72496384 L5.92503748,6.00604636 C5.92503748,5.80232925 6.04597701,5.61878215 6.23188406,5.5411276 L9.80909545,4.03947028 C9.92103948,3.99207076 10.0449775,3.98803675 10.1589205,4.02635978 L11.4732634,4.46707452 L12.8475762,4.02434277 C12.9475262,3.99106226 13.0564718,3.99207076 13.1564218,4.02635978 L17.6541729,5.5270086 C17.858071,5.59558663 17.9970015,5.78821024 17.9970015,6.00604636 L17.9970015,8.71992134 L19.7231384,9.58924881 C19.892054,9.67396286 20,9.84944196 20,10.0400486 L20,10.0400486 Z" id="AWS-SageMaker-Ground-Truth_Icon_16_Squid" fill="#FFFFFF"></path>
    </g>
</svg>