<?xml version="1.0" encoding="UTF-8"?>
<svg width="24px" height="24px" viewBox="0 0 24 24" version="1.1" xmlns="http://www.w3.org/2000/svg" xmlns:xlink="http://www.w3.org/1999/xlink">
    <!-- Generator: Sketch 64 (93537) - https://sketch.com -->
    <title>Icon-Architecture/16/Arch_Amazon-Transcribe_16</title>
    <desc>Created with Sketch.</desc>
    <defs>
        <linearGradient x1="0%" y1="100%" x2="100%" y2="0%" id="linearGradient-1">
            <stop stop-color="#055F4E" offset="0%"></stop>
            <stop stop-color="#56C0A7" offset="100%"></stop>
        </linearGradient>
    </defs>
    <g id="Icon-Architecture/16/Arch_Amazon-Transcribe_16" stroke="none" stroke-width="1" fill="none" fill-rule="evenodd">
        <g id="Icon-Architecture-BG/16/Machine-Learning" fill="url(#linearGradient-1)">
            <rect id="Rectangle" x="0" y="0" width="24" height="24"></rect>
        </g>
        <path d="M18.2633589,7.95211532 L15.9697011,5.70078345 L15.9697011,7.95211532 L18.2633589,7.95211532 Z M20,16.5111877 C20,16.64356 19.9465183,16.771921 19.851664,16.8661861 C19.7568097,16.9594484 19.6296646,17.0125979 19.4954558,17.0125979 L14.9545582,17.0125979 L14.9545582,16.0097775 L18.9909116,16.0097775 L18.9878844,8.95493576 L15.4651569,8.95493576 C15.1856395,8.95493576 14.9606128,8.73030398 14.9606128,8.45352554 L14.9606128,5.00282043 L11.8617024,5.00382325 L11.8617024,7.98119712 L10.8526141,7.98119712 L10.8526141,4.50241304 C10.8526141,4.2256346 11.0786499,4.00100282 11.3571582,4.00100282 L15.4651569,4 C15.5943202,4 15.7224745,4.0491382 15.8193469,4.14440614 L19.8466186,8.09652147 C19.9445001,8.19279223 19.9969727,8.32215606 19.9969727,8.45352554 L20,16.5111877 Z M6.92927853,15.0009401 L7.93836689,15.0009401 L7.93836689,12.9952993 L6.92927853,12.9952993 L6.92927853,15.0009401 Z M8.91819168,16.0037606 L9.92728004,16.0037606 L9.92728004,11.9924788 L8.91819168,11.9924788 L8.91819168,16.0037606 Z M10.9121503,15.0009401 L11.9212386,15.0009401 L11.9212386,12.9952993 L10.9121503,12.9952993 L10.9121503,15.0009401 Z M13.1775536,16.4580382 L14.0191333,17.0115951 C13.0271995,18.5027891 11.514576,19.3581949 9.86875291,19.3581949 C9.00396419,19.3581949 8.0675302,19.1245378 7.30970484,18.7254152 L4.84954743,19.9518646 C4.7829476,19.9849577 4.70121145,20 4.61644802,20 C4.44793027,20 4.26528528,19.9398308 4.16235826,19.8335318 C3.98778598,19.6520213 3.94944062,19.3812598 4.06952213,19.1586337 L5.33592802,16.7789408 C4.98880163,16.1902852 4.54783002,15.241617 4.54783002,14.2047007 C4.54783002,11.3907866 6.84047876,9.26881855 9.87985288,9.26881855 C11.0039773,9.26881855 11.8092298,9.66593544 12.5115553,10.0951426 L11.982793,10.9495456 C11.2986311,10.5313695 10.7073053,10.271639 9.87985288,10.271639 C7.78397637,10.271639 5.55691837,11.6505171 5.55691837,14.2047007 C5.55691837,14.8936384 5.84249037,15.7249765 6.34098002,16.4861172 C6.44087977,16.6385459 6.44895248,16.8330931 6.36418905,16.9945472 L5.5801274,18.4656847 L7.09779629,17.7095581 C7.25521407,17.6313381 7.43785906,17.6403635 7.58720414,17.7296145 C8.22292981,18.1157004 9.09680032,18.3553745 9.86875291,18.3553745 C11.6487848,18.3553745 12.7063094,17.1670323 13.1775536,16.4580382 L13.1775536,16.4580382 Z" id="Amazon-Transcribe_Icon_16_Squid" fill="#FFFFFF"></path>
    </g>
</svg>