<?xml version="1.0" encoding="UTF-8"?>
<svg width="24px" height="24px" viewBox="0 0 24 24" version="1.1" xmlns="http://www.w3.org/2000/svg" xmlns:xlink="http://www.w3.org/1999/xlink">
    <!-- Generator: Sketch 64 (93537) - https://sketch.com -->
    <title>Icon-Architecture/16/Arch_AWS-Textract_16</title>
    <desc>Created with Sketch.</desc>
    <defs>
        <linearGradient x1="0%" y1="100%" x2="100%" y2="0%" id="linearGradient-1">
            <stop stop-color="#055F4E" offset="0%"></stop>
            <stop stop-color="#56C0A7" offset="100%"></stop>
        </linearGradient>
    </defs>
    <g id="Icon-Architecture/16/Arch_AWS-Textract_16" stroke="none" stroke-width="1" fill="none" fill-rule="evenodd">
        <g id="Icon-Architecture-BG/16/Machine-Learning" fill="url(#linearGradient-1)">
            <rect id="Rectangle" x="0" y="0" width="24" height="24"></rect>
        </g>
        <path d="M10.4958528,9.80844542 C11.9822217,9.80844542 13.19215,11.017579 13.19215,12.5029715 C13.19215,13.9883641 11.9822217,15.1974977 10.4958528,15.1974977 C9.00948386,15.1974977 7.80055714,13.9883641 7.80055714,12.5029715 C7.80055714,11.017579 9.00948386,9.80844542 10.4958528,9.80844542 L10.4958528,9.80844542 Z M10.4958528,16.198436 C12.3638299,16.198436 13.8962722,14.8031279 14.1436665,13.0034407 L18.0288585,13.0034407 L18.0288585,12.0025023 L14.1436665,12.0025023 C13.8962722,10.2028151 12.3638299,8.80750704 10.4958528,8.80750704 C8.62887727,8.80750704 7.09543335,10.2028151 6.84904066,12.0025023 L5.38270368,12.0025023 L6.42536543,10.2568658 L5.56399261,9.74438536 L4.07061254,12.2467313 C3.97646249,12.4048796 3.97646249,12.6010635 4.07061254,12.7592118 L5.56399261,15.2615577 L6.42536543,14.7490773 L5.38270368,13.0034407 L6.84904066,13.0034407 C7.09543335,14.8031279 8.62887727,16.198436 10.4958528,16.198436 L10.4958528,16.198436 Z M9.99505462,12.0355333 L8.9994679,12.0355333 L8.9994679,11.0345949 L12.0042568,11.0345949 L12.0042568,12.0355333 L10.9966509,12.0355333 L10.9966509,14.5819206 L9.99505462,14.5819206 L9.99505462,12.0355333 Z M15.9946164,5.70359712 L18.2842655,7.97772912 L15.9946164,7.97772912 L15.9946164,5.70359712 Z M19.8527653,8.12286519 L15.8473818,4.146137 C15.7532317,4.05304973 15.626029,4 15.4938183,4 L9.46921656,4 C9.19177439,4 8.96841842,4.2242102 8.96841842,4.50046919 L8.96841842,7.26305912 L9.97001471,7.26305912 L9.97001471,5.00093838 L14.9930201,5.00093838 L14.9930201,8.47819831 C14.9930201,8.7544573 15.2173777,8.9786675 15.4938183,8.9786675 L18.9984037,8.9786675 L18.9984037,18.9990616 L9.97001471,18.9990616 L9.97001471,17.4796372 L8.96841842,17.4796372 L8.96841842,19.4995308 C8.96841842,19.7757898 9.19177439,20 9.46921656,20 L19.4992019,20 C19.776644,20 20,19.7757898 20,19.4995308 L20,8.47819831 C20,8.34507351 19.947917,8.21695339 19.8527653,8.12286519 L19.8527653,8.12286519 Z" id="AWS-Textract_Icon_16_Squid" fill="#FFFFFF"></path>
    </g>
</svg>