<?xml version="1.0" encoding="UTF-8"?>
<svg width="24px" height="24px" viewBox="0 0 24 24" version="1.1" xmlns="http://www.w3.org/2000/svg" xmlns:xlink="http://www.w3.org/1999/xlink">
    <!-- Generator: Sketch 64 (93537) - https://sketch.com -->
    <title>Icon-Architecture/16/Arch_AWS-Deep-Lense_16</title>
    <desc>Created with Sketch.</desc>
    <defs>
        <linearGradient x1="0%" y1="100%" x2="100%" y2="0%" id="linearGradient-1">
            <stop stop-color="#055F4E" offset="0%"></stop>
            <stop stop-color="#56C0A7" offset="100%"></stop>
        </linearGradient>
    </defs>
    <g id="Icon-Architecture/16/Arch_AWS-Deep-Lense_16" stroke="none" stroke-width="1" fill="none" fill-rule="evenodd">
        <g id="Icon-Architecture-BG/16/Machine-Learning" fill="url(#linearGradient-1)">
            <rect id="Rectangle" x="0" y="0" width="24" height="24"></rect>
        </g>
        <path d="M16,14.9833825 L16,20 L15.00386,20 L15.00386,14.9833825 C15.00386,14.5379068 14.270701,13.1814134 13.9449633,13.0138584 L11.003362,13.0138584 L11.003362,13.0148617 L10.007222,13.0148617 C9.74822563,13.1452938 8.99613996,14.5318869 8.99613996,14.9833825 L8.99613996,15.0124788 L12.5135101,15.0124788 L12.5135101,16.0158023 L8.99613996,16.0158023 L8.99613996,20 L8,20 L8,14.9833825 C8,14.6031228 8.32274935,13.6951151 8.78695057,12.9797454 C8.25501183,12.8212203 8.0099614,12.1048473 8.0099614,11.4306139 L8.0099614,5.48391547 C8.0099614,4.76954913 8.32274935,4 9.01108206,4 L11.9995019,4 L11.9995019,5.00332351 L9.09874237,5.00332351 C9.05391608,5.09362262 9.00610136,5.28525742 9.00610136,5.48391547 L9.00610136,11.4306139 C9.00610136,11.6583683 9.06487361,11.899166 9.11766903,12.0105349 L12.9956419,12.0105349 L12.9956419,12.0105349 L13.9917818,12.0105349 C13.992778,12.0105349 13.992778,12.0105349 13.9937741,12.0105349 L14.8793425,12.0105349 C14.9311418,11.8981627 14.9879218,11.6583683 14.9879218,11.4306139 L14.9879218,5.48391547 C14.9879218,5.28626074 14.9420994,5.09462595 14.8982692,5.00332351 L13.9917818,5.00332351 L13.9917818,4 L14.9879218,4 C15.6732661,4 15.9840618,4.76954913 15.9840618,5.48391547 L15.9840618,11.4306139 C15.9840618,12.103844 15.7410036,12.820217 15.2130494,12.9797454 C15.6782468,13.6951151 16,14.6031228 16,14.9833825 M12.9518117,8.4768295 C12.9518117,9.00558099 12.5254638,9.43600677 11.9995019,9.43600677 C11.4745362,9.43600677 11.0471921,9.00558099 11.0471921,8.4768295 C11.0471921,7.94707468 11.4745362,7.51765222 11.9995019,7.51765222 C12.5254638,7.51765222 12.9518117,7.94707468 12.9518117,8.4768295 M10.0510522,8.4768295 C10.0510522,9.55841224 10.9256631,10.4393303 11.9995019,10.4393303 C13.0733408,10.4393303 13.9479517,9.55841224 13.9479517,8.4768295 C13.9479517,7.39424343 13.0733408,6.51432871 11.9995019,6.51432871 C10.9256631,6.51432871 10.0510522,7.39424343 10.0510522,8.4768295" id="AWS-Deep-Lense_Icon_16_Squid" fill="#FFFFFF"></path>
    </g>
</svg>