<svg height="24" viewBox="0 0 24 24" width="24" xmlns="http://www.w3.org/2000/svg"><path d="m11.0394722 1c5.5446474 0 10.0394721 4.49611456 10.0394721 10.0423529l-.0089443.4086471 1.93.9126364v3.5454545c0 3.2795455-2.1333333 6.3463636-5 7.0909091-1.4053789-.3650123-2.6345059-1.2881678-3.5224217-2.520903-1.0714058.3920967-2.2298289.6056089-3.4381061.6056089-5.5446474 0-10.0394722-4.4961146-10.0394722-10.042353 0-5.54623834 4.4948248-10.0423529 10.0394722-10.0423529zm2.0389129 16.0005391-4.35262762.0016139c.09272345.2684191.19191916.5251195.2972364.7687567.34504179.7982075.73991482 1.415346 1.14382492 1.8105602.3298076.3227071.6259778.4647645.8896312.4678891l.02555-.001359.0846135-.00531c.2399345-.0315648.5054296-.1756707.7972619-.4612201.4039101-.3952142.7987831-1.0123527 1.1438249-1.8105602l.0769619-.1881088c-.0425969-.1920882-.0781292-.386336-.1062771-.5822618zm-5.517233-.0001981-3.28855306.0007085c1.20672726 1.3672311 2.82199523 2.3651565 4.65470558 2.8026231-.53692274-.6998853-1.00258606-1.6586875-1.36615252-2.8033316zm11.4388479-4.000341h-2v1.999l-1.98736.0006193c-.0038995.0211157-.0078292.042194-.0117891.0632348l-.0008509 1.9371459 2-.001v2.001h2v-2.001l2 .001v-2l-2-.001zm-12.26175207-.9998315-4.66720064.0006585c.15515295 1.4672011.66247165 2.8293111 1.4358166 4.0001656l3.77463061-.0000211c-.29395418-1.2008106-.4844342-2.5562523-.54324657-4.000803zm7.02975207-.0001685-5.91667417.0009718c.06142061 1.4404875.26018398 2.8039709.57273858 4.0001644l4.57693559-.0011362-.001-.0909091v-3.5454545zm-6.68476771-5.00017713-4.10702588.00027079c-.60543227 1.2038667-.94887257 2.56223431-.95544416 4.00020464l4.69723775-.0002983.00298469-.2764328c.01773166-1.3214828.14531945-2.57862393.3622476-3.72374433zm6.83388951-.00026204h-5.70354938c-.24540613 1.22600975-.37993057 2.58641992-.38255229 4.00064557l6.46797987-.0002064-.0038275-.411469c-.0253805-1.26631178-.1565498-2.48238681-.3780507-3.58897017zm5.1569542.00053283-4.0773846-.00027079c.2320173 1.22477284.3618332 2.57769232.3643463 4.00042193l.5229623-.0002448 2.116-1 2.027.958-.0012228-.1812174c-.0392296-1.35521175-.37773-2.63538081-.9517012-3.77668894zm-10.14717797-4.71952395-.213682.05436933c-2.12891378.56409717-3.94851701 1.8886594-5.15062503 3.6654136l3.73955704-.00005449c.38842548-1.55188773.95066461-2.8398017 1.62474999-3.71972844zm2.13140507-.2452158c-.2588386-.00005979-.5579617.14153996-.8914843.46788205-.4039101.39521421-.79878313 1.01235274-1.14382492 1.8105602-.22010847.50919114-.41347859 1.07544151-.57690866 1.68647722h5.23852378c-.1634301-.61103571-.3568002-1.17728608-.5769087-1.68647722-.3450418-.79820746-.7399148-1.41534599-1.1438249-1.8105602-.3289821-.32189932-.6244948-.46405216-.8876507-.467863-.0058692.00003034-.0118947.00000268-.0179216-.00001905zm2.1015515.25456451.0240069.03129144c.660399.87872526 1.2114266 2.15092445 1.5939142 3.67908829l3.7099157.00005449c-1.2353305-1.82585813-3.1227592-3.17418457-5.3278368-3.71043422z" fill="#4285f4"/></svg>