<svg width="24px" height="24px" viewBox="0 0 24 24" version="1.1" xmlns="http://www.w3.org/2000/svg" xmlns:xlink="http://www.w3.org/1999/xlink">
    <g stroke="none" stroke-width="1" fill="none" fill-rule="evenodd">
        <path d="M15.747,10.032 L18.5545011,11.6648168 C18.6994661,11.7491104 18.7486501,11.9349611 18.6643566,12.0799261 C18.6383106,12.1247191 18.6012349,12.1621014 18.5566581,12.1885154 L14.447,14.623 L18.8458,17.108474 C18.9410851,17.1623438 19,17.26333 19,17.3727887 L19,19.689002 C19,19.8566929 18.8640596,19.9926333 18.6963687,19.9926333 C18.6427523,19.9926333 18.5900919,19.9784358 18.5437417,19.9514843 L11.937,16.11 L5.45841521,19.949889 C5.31414945,20.0353738 5.12789985,19.9877224 5.04241507,19.8434567 C5.01465015,19.7966 5,19.7431377 5,19.6886728 L5,17.3749137 C5,17.2668527 5.05743248,17.1669346 5.15080814,17.1125455 L14.0571248,11.9248289 L13.229,11.456 L15.747,10.032 Z M5.30363132,4.00736671 C5.35724774,4.00736671 5.40990809,4.02156419 5.45625827,4.04851566 L12.062,7.889 L18.5415848,4.05011098 C18.6858505,3.9646262 18.8721001,4.0122776 18.9575849,4.15654335 C18.9853499,4.20339996 19,4.25686226 19,4.31132723 L19,6.62508629 C19,6.73314732 18.9425675,6.83306537 18.8491919,6.88745445 L9.94287522,12.0751711 L10.771,12.544 L8.253,13.968 L5.44549887,12.3351832 C5.30053386,12.2508896 5.25134991,12.0650389 5.33564344,11.9200739 C5.36168942,11.8752809 5.39876506,11.8378986 5.44334193,11.8114846 L9.551,9.377 L5.15419999,6.89152604 C5.05891489,6.83765624 5,6.73667004 5,6.62721135 L5,4.31099803 C5,4.14330708 5.13594037,4.00736671 5.30363132,4.00736671 Z" fill="#4285F4" fill-rule="nonzero"></path>
    </g>
</svg>