<svg xmlns="http://www.w3.org/2000/svg" width="24px" height="24px" viewBox="0 0 24 24"><defs><style>.cls-1{fill:#aecbfa;}.cls-2{fill:#4285f4;}.cls-3{fill:#669df6;}</style></defs><title>Icon_24px_DataFusion_Color</title><g data-name="Product Icons"><path class="cls-1" d="M6,8h4V4H3A1,1,0,0,0,2,5V21a1,1,0,0,0,.28.68L6,18Z"/><path class="cls-2" d="M16,18l3.72,3.72A1,1,0,0,0,20,21V14H16Z"/><path class="cls-3" d="M21.71,2.28,18,6h0v4h4V3A1,1,0,0,0,21.71,2.28Z"/><path class="cls-1" d="M18,6l3.72-3.72A1,1,0,0,0,21,2H14V6Z"/><polygon class="cls-3" points="2 22 6 18 16 18 20 22 2 22"/></g></svg>