<svg id="b48c5089-b926-4e5c-afdd-c8d37fee705e" xmlns="http://www.w3.org/2000/svg" width="18" height="18" viewBox="0 0 18 18"><defs><linearGradient id="ef71ca8b-e0c3-42a3-b174-28e7219ff221" x1="8.15" y1="17.49" x2="8.15" y2="2.09" gradientUnits="userSpaceOnUse"><stop offset="0" stop-color="#5e9624" /><stop offset="0.31" stop-color="#69a828" /><stop offset="0.93" stop-color="#86d633" /></linearGradient></defs><title>Icon-manage-306</title><path d="M15.2.5H3.59a.57.57,0,0,0-.44.2L1.93,2.11,15.31,15.67l-2,1.83h1a.71.71,0,0,0,.46-.17l1.17-1.07a.59.59,0,0,0,.19-.43V1.33A.81.81,0,0,0,15.2.5Z" fill="#5e9624" /><path d="M2.91,2.1l.74-.84A.5.5,0,0,1,4,1.08H14.88a.52.52,0,0,1,.52.52V15.38a.52.52,0,0,1-.17.38l-1.15,1.06" fill="#fff" /><path d="M14,2.09H2a.06.06,0,0,0-.05.06v15a.38.38,0,0,0,.38.38H14a.38.38,0,0,0,.38-.38V2.48A.38.38,0,0,0,14,2.09Z" fill="url(#ef71ca8b-e0c3-42a3-b174-28e7219ff221)" /><path d="M12.5,7.82a.37.37,0,0,0-.37-.39H10.28a.16.16,0,0,0-.15.09L9.36,8.9,8.1,6.35,6.93,10l-1-2.6L4.61,9.84a.18.18,0,0,1-.15.1h-.6a.37.37,0,0,0-.37.33h0a.37.37,0,0,0,.37.41h1a.18.18,0,0,0,.16-.1L5.8,9.11l1.21,3L8.24,8.25l1.08,2.19,1.21-2.17a.16.16,0,0,1,.15-.09h1.45a.37.37,0,0,0,.37-.36Z" fill="#fff" /></svg>