<svg id="accb8b11-ff75-4ed7-86d0-74f3af9e9fdb" xmlns="http://www.w3.org/2000/svg" width="18" height="18" viewBox="0 0 18 18"><defs><linearGradient id="ec34cf3c-0705-4609-8eda-9dd9d51977d2" x1="9" y1="17.5" x2="9" y2="0.5" gradientUnits="userSpaceOnUse"><stop offset="0" stop-color="#0078d4" /><stop offset="0.82" stop-color="#5ea0ef" /></linearGradient></defs><g><path d="M10,.63H2.73a.57.57,0,0,0-.57.57V16.8a.57.57,0,0,0,.57.57H15.27a.57.57,0,0,0,.57-.57V6.48a.58.58,0,0,0-.57-.58H11.11a.56.56,0,0,1-.57-.57V1.2A.57.57,0,0,0,10,.63Z" fill="#fff" /><path d="M9.7,1.36V5.28a1.44,1.44,0,0,0,1.44,1.43h3.95v9.93H2.91V1.36H9.7M10,.5H2.64a.58.58,0,0,0-.58.58V16.92a.58.58,0,0,0,.58.58H15.36a.58.58,0,0,0,.58-.58V6.44a.58.58,0,0,0-.58-.58H11.14a.58.58,0,0,1-.58-.58V1.08A.58.58,0,0,0,10,.5Z" fill="url(#ec34cf3c-0705-4609-8eda-9dd9d51977d2)" /><path d="M15.72,6,10.36.63V5a1,1,0,0,0,1,1Z" fill="#0078d4" /><path id="a3a9e1d3-9e08-4e6c-b1f3-95c11e84f06a" d="M10.41,11.18a2.21,2.21,0,0,1-2.93,0L7.3,14.81a.29.29,0,0,0,.5.22l1.12-1.15L10.06,15a.29.29,0,0,0,.49-.22Z" fill="#b31b1b" /><ellipse id="a09a1db5-9087-43a3-902a-422185a7e3a0" cx="8.98" cy="9.31" rx="2.61" ry="2.62" fill="#e62323" /><ellipse id="ac490612-dbc7-498b-b2fc-d820fcb1a7b0" cx="8.98" cy="9.31" rx="1.98" ry="1.99" fill="#ffd400" /></g></svg>