<svg id="b1565e97-e53a-44a5-9479-199d8c3c42d2" xmlns="http://www.w3.org/2000/svg" width="18" height="18" viewBox="0 0 18 18"><defs><linearGradient id="ec4358fa-c977-42e2-a7ab-994b5de56830" x1="9" y1="177.9" x2="9" y2="160.1" gradientTransform="translate(0 -160)" gradientUnits="userSpaceOnUse"><stop offset="0" stop-color="#0078d4" /><stop offset="0.064" stop-color="#0a7cd7" /><stop offset="0.338" stop-color="#2e8ce1" /><stop offset="0.594" stop-color="#4897e9" /><stop offset="0.822" stop-color="#589eed" /><stop offset="1" stop-color="#5ea0ef" /></linearGradient><linearGradient id="aae9e42c-091e-4dc7-8bec-a93418af93c4" x1="-26.189" y1="-295.6" x2="-26.189" y2="-311.105" gradientTransform="translate(39.425 321.61) scale(1.156 1.029)" gradientUnits="userSpaceOnUse"><stop offset="0" stop-color="#fea11b" /><stop offset="0.284" stop-color="#fea51a" /><stop offset="0.547" stop-color="#feb018" /><stop offset="0.8" stop-color="#ffc314" /><stop offset="1" stop-color="#ffd70f" /></linearGradient></defs><title>Icon-322Artboard 1</title><path d="M17.9,10V8l-.3-.1-2.2-.7-.6-1.4L16,3.4,14.5,2l-.3.1-2,1-1.4-.6L10,.1H8L7.8.4,7.1,2.6l-1.4.5L3.4,2,2,3.5l.1.3,1,2L2.6,7.2.1,8v2l.3.1,2.2.7.6,1.4L2,14.6,3.5,16l.3-.1,2-1,1.4.6L8,17.9h2l.1-.3.7-2.2,1.4-.6,2.3,1.1,1.4-1.4-.1-.3-1-2,.6-1.4ZM9,12.9A3.842,3.842,0,0,1,5.1,9,3.842,3.842,0,0,1,9,5.1,3.842,3.842,0,0,1,12.9,9h0A3.842,3.842,0,0,1,9,12.9Z" fill="url(#ec4358fa-c977-42e2-a7ab-994b5de56830)" /><path d="M8.5,10.5H4.9a.215.215,0,0,1-.2-.2v-.1L9,1.7c0-.1.1-.1.2-.1h4.2a.215.215,0,0,1,.2.2v.1L8.5,8.6h4.9a.215.215,0,0,1,.2.2.1.1,0,0,1-.1.1L5.3,17.4c-.1,0-.6.5-.4-.2h0Z" fill="url(#aae9e42c-091e-4dc7-8bec-a93418af93c4)" /></svg>