<svg id="a4532404-4c5c-4d46-bcf5-7eb251bd3d88" xmlns="http://www.w3.org/2000/svg" width="18" height="18" viewBox="0 0 18 18"><defs><linearGradient id="beb91629-a2bd-40af-be99-914b769571a4" x1="-6941.93" y1="-2082.96" x2="-6941.93" y2="-2101.68" gradientTransform="matrix(0.5, 0, 0, -0.5, 3476.4, -1033.45)" gradientUnits="userSpaceOnUse"><stop offset="0" stop-color="#5ea0ef" /><stop offset="0.18" stop-color="#589eed" /><stop offset="0.41" stop-color="#4897e9" /><stop offset="0.66" stop-color="#2e8ce1" /><stop offset="0.94" stop-color="#0a7cd7" /><stop offset="1" stop-color="#0078d4" /></linearGradient><linearGradient id="b166d928-c1e7-4c12-bb3f-f2e4856c02db" x1="11.5" y1="12.45" x2="11.5" y2="0.55" gradientUnits="userSpaceOnUse"><stop offset="0" stop-color="#198ab3" /><stop offset="0.24" stop-color="#22a5cb" /><stop offset="0.53" stop-color="#2bbfe2" /><stop offset="0.79" stop-color="#30cff0" /><stop offset="1" stop-color="#32d4f5" /></linearGradient></defs><title>Icon-manage-321</title><path d="M5.59,13.13H9.91V17a.5.5,0,0,1-.5.5H5.59ZM1.15,17.45H4.87V13.13H.55v3.72A.6.6,0,0,0,1.15,17.45Zm-.6-5H4.87V8.09H1.05a.5.5,0,0,0-.5.5Z" fill="url(#beb91629-a2bd-40af-be99-914b769571a4)" /><path d="M11.5.55a5.89,5.89,0,0,1,5.95,6,5.89,5.89,0,0,1-5.95,5.95H5.55V6.5A5.89,5.89,0,0,1,11.5.55Z" fill-rule="evenodd" fill="url(#b166d928-c1e7-4c12-bb3f-f2e4856c02db)" /><path d="M15.16,3.24a1,1,0,0,0-1,1,1,1,0,0,0,.22.62L12.71,7.85h-.13a1,1,0,0,0-.53.16L10.76,6.69a1,1,0,0,0,.08-.39,1,1,0,1,0-2.05,0,1,1,0,0,0,.13.48L7.75,8.32a1.26,1.26,0,0,0-.28,0,1,1,0,1,0,1,1,1,1,0,0,0-.13-.47L9.57,7.3a1,1,0,0,0,.25,0,1.05,1.05,0,0,0,.36-.08L11.59,8.7a1.1,1.1,0,0,0,0,.18,1,1,0,0,0,2,0,1.1,1.1,0,0,0-.2-.6l1.67-3h.1a1,1,0,0,0,1-1A1,1,0,0,0,15.16,3.24Z" fill="#fff" /></svg>