<svg id="bac28690-24ba-4d9d-92b0-bad9cc8dbd92" xmlns="http://www.w3.org/2000/svg" width="18" height="18" viewBox="0 0 18 18"><defs><linearGradient id="a17aa354-e567-4356-a718-7e4e2198998f" x1="9" y1="-7205.66" x2="9" y2="-7219.44" gradientTransform="matrix(1, 0, 0, -1, 0, -7206.55)" gradientUnits="userSpaceOnUse"><stop offset="0.13" stop-color="#773adc" /><stop offset="0.23" stop-color="#8249e2" /><stop offset="0.43" stop-color="#9664ec" /><stop offset="0.6" stop-color="#a274f2" /><stop offset="0.74" stop-color="#a67af4" /></linearGradient></defs><title>Icon-manage-326</title><g><path d="M14.45,8.8H3.68v4.85h0c0,1.26,2.41,2.29,5.44,2.29s5.44-1,5.44-2.29h0Z" fill="#773adc" /><path d="M8.39,2.16l-8,4.09a.71.71,0,0,0-.25.94.62.62,0,0,0,.25.28l8,3.48a.93.93,0,0,0,.73,0l8.48-3.5a.72.72,0,0,0,.28-.94.63.63,0,0,0-.28-.3L9.14,2.14A.86.86,0,0,0,8.39,2.16Z" fill="url(#a17aa354-e567-4356-a718-7e4e2198998f)" /><path d="M15.84,10.2h0a1.26,1.26,0,0,0-.23-.52,5.19,5.19,0,0,0-2.52-2.23L9.61,6,8.5,6.79,12,8.28a5.05,5.05,0,0,1,2.72,2.66A7.88,7.88,0,0,1,15,12.62m.16,0,.42-.83.53.68h.1a5,5,0,0,0-.38-2.27Z" fill="#50e6ff" /><ellipse cx="8.94" cy="6.46" rx="1.34" ry="0.68" fill="#552f99" /></g></svg>