<svg xmlns="http://www.w3.org/2000/svg" width="18" height="18" viewBox="0 0 18 18"><defs><linearGradient id="b69d2150-b4da-460b-99ae-a9f5a961b313" x1="-1194.321" y1="9.128" x2="-1190.755" y2="9.128" gradientTransform="matrix(-1, 0, 0, 1, -1179.887, 0)" gradientUnits="userSpaceOnUse"><stop offset="0" stop-color="#32bedd" /><stop offset="0.998" stop-color="#9cebff" stop-opacity="0.5" /></linearGradient><linearGradient id="e690cc62-d1a2-4325-90ca-ac2fe51a5b58" x1="80.363" y1="9.135" x2="83.929" y2="9.135" gradientTransform="translate(-76.796)" gradientUnits="userSpaceOnUse"><stop offset="0" stop-color="#005ba1" /><stop offset="0.998" stop-color="#005ba1" stop-opacity="0" /></linearGradient><linearGradient id="ff649864-6b4c-4fa8-bcca-c12b2b910f3c" x1="3.555" y1="9.326" x2="14.434" y2="9.326" gradientUnits="userSpaceOnUse"><stop offset="0" stop-color="#005ba1" /><stop offset="0.974" stop-color="#32bedd" /></linearGradient></defs><g id="a826c017-5e9e-4208-897f-2ade2eb58cd6"><polygon points="7.132 4.469 3.567 6.542 0 4.468 3.567 2.395 7.132 4.469" fill="#5ea0ef" /><polygon points="7.132 13.794 3.566 11.735 3.566 15.867 7.132 13.794" fill="#005ba1" /><polygon points="3.567 6.542 3.566 6.541 3.566 6.542 0 4.468 0 13.801 3.566 15.874 7.132 13.801 7.132 13.794 3.566 15.867 3.566 11.735 7.132 13.794 7.132 4.469 3.567 6.542" fill="#0078d4" /><polygon points="10.868 4.469 14.433 6.542 18 4.468 14.433 2.395 10.868 4.469" fill="#9cebff" /><polygon points="10.868 13.794 14.434 11.735 14.434 15.867 10.868 13.794" fill="#32bedd" /><polygon points="14.433 6.535 14.434 6.535 14.434 6.535 14.434 11.728 10.868 13.794 10.868 4.462 14.433 6.535" fill="url(#b69d2150-b4da-460b-99ae-a9f5a961b313)" /><polygon points="10.868 4.469 14.433 6.542 18 4.468 14.433 2.395 10.868 4.469" fill="#9cebff" /><polygon points="14.433 6.542 10.868 4.469 10.868 13.794 14.434 11.735 14.434 15.867 10.868 13.794 10.868 13.801 14.434 15.874 18 13.801 18 4.468 18 4.468 14.433 6.542" fill="#50e6ff" /><polygon points="10.868 13.794 14.434 11.735 14.434 15.867 10.868 13.794" fill="#32bedd" /><polygon points="14.433 6.535 14.434 6.535 14.434 6.535 14.434 11.728 10.868 13.794 10.868 4.462 14.433 6.535" fill="url(#b69d2150-b4da-460b-99ae-a9f5a961b313)" /><polygon points="3.567 6.541 3.566 6.541 3.566 6.541 3.566 11.734 7.132 13.801 7.132 4.469 3.567 6.541" fill="url(#e690cc62-d1a2-4325-90ca-ac2fe51a5b58)" /><path d="M14.423,10.126c-.624,1.556-3.066,2.584-5.348,2.584l-.081,0-.08,0c-2.282,0-4.724-1.028-5.348-2.584,0,0-.025-1.561,0-1.713C4.02,10.15,6.4,11.435,8.859,11.435l.135,0,.136,0c2.455,0,4.839-1.285,5.293-3.022C14.448,8.565,14.423,10.126,14.423,10.126ZM13.4,5.942A6.653,6.653,0,0,1,9.13,7.416l-.136,0-.135,0a6.656,6.656,0,0,1-4.267-1.47l-.856.5C4.553,7.809,6.8,8.69,8.914,8.69h.161c2.115,0,4.366-.883,5.181-2.251Z" fill="url(#ff649864-6b4c-4fa8-bcca-c12b2b910f3c)" /></g></svg>