<?xml version="1.0" encoding="UTF-8"?>
<svg width="40px" height="40px" viewBox="0 0 40 40" version="1.1" xmlns="http://www.w3.org/2000/svg" xmlns:xlink="http://www.w3.org/1999/xlink">
    <!-- Generator: Sketch 64 (93537) - https://sketch.com -->
    <title>Icon-Architecture/32/Arch_AWS-RoboMaker_32</title>
    <desc>Created with Sketch.</desc>
    <defs>
        <linearGradient x1="0%" y1="100%" x2="100%" y2="0%" id="linearGradient-1">
            <stop stop-color="#BD0816" offset="0%"></stop>
            <stop stop-color="#FF5252" offset="100%"></stop>
        </linearGradient>
    </defs>
    <g id="Icon-Architecture/32/Arch_AWS-RoboMaker_32" stroke="none" stroke-width="1" fill="none" fill-rule="evenodd">
        <g id="Icon-Architecture-BG/32/Robotics" fill="url(#linearGradient-1)">
            <rect id="Rectangle" x="0" y="0" width="40" height="40"></rect>
        </g>
        <path d="M14.359,9.313 L13.652,8.606 C15.162,7.096 17.842,6 20.024,6 C22.185,6 24.85,7.096 26.359,8.606 L25.652,9.313 C24.334,7.995 21.915,7 20.024,7 C18.113,7 15.677,7.995 14.359,9.313 L14.359,9.313 Z M20.024,8.867 C21.6,8.867 23.302,9.549 24.359,10.606 L23.652,11.313 C22.787,10.448 21.329,9.867 20.024,9.867 C18.716,9.867 17.21,10.461 16.359,11.313 L15.652,10.606 C16.691,9.566 18.448,8.867 20.024,8.867 L20.024,8.867 Z M32.995,30.652 L32.015,31.146 L32.015,26.772 L32.995,27.267 L32.995,30.652 Z M31.015,32.975 L29.963,32.975 L29.963,24.959 L31.015,24.959 L31.015,25.146 L31.015,32.772 L31.015,32.975 Z M8.988,32.899 L8.988,25.148 L8.988,24.944 L9.985,24.944 L9.985,32.975 L8.988,32.975 L8.988,32.899 Z M7,30.664 L7,27.268 L7.988,26.771 L7.988,31.208 L7,30.664 Z M20.005,15.959 C24.76,15.959 28.695,19.706 28.963,24.459 L28.963,32.975 L10.985,32.975 L10.985,24.459 C11.13,19.772 15.177,15.959 20.005,15.959 L20.005,15.959 Z M19.061,13.577 C19.061,13.054 19.575,12.944 20.005,12.944 C20.436,12.944 20.95,13.054 20.95,13.577 L20.95,15.006 C20.638,14.976 20.324,14.959 20.005,14.959 C19.687,14.959 19.373,14.977 19.061,15.006 L19.061,13.577 Z M33.995,26.652 L32.015,25.652 L32.015,23.959 L29.913,23.959 C29.457,19.537 26.175,15.995 21.95,15.151 L21.95,13.577 C21.95,12.585 21.186,11.944 20.005,11.944 C18.825,11.944 18.061,12.585 18.061,13.577 L18.061,15.149 C13.761,15.995 10.397,19.581 10.027,23.944 L7.988,23.944 L7.988,25.651 L6,26.651 L6,31.255 L7.988,32.349 L7.988,33.975 L32.015,33.975 L32.015,32.267 L33.995,31.267 L33.995,26.652 Z M16.505,23.459 C17.057,23.459 17.505,23.908 17.505,24.459 C17.505,25.011 17.057,25.459 16.505,25.459 C15.954,25.459 15.505,25.011 15.505,24.459 C15.505,23.908 15.954,23.459 16.505,23.459 L16.505,23.459 Z M16.505,26.459 C17.608,26.459 18.505,25.563 18.505,24.459 C18.505,23.356 17.608,22.459 16.505,22.459 C15.403,22.459 14.505,23.356 14.505,24.459 C14.505,25.563 15.403,26.459 16.505,26.459 L16.505,26.459 Z M23.505,23.459 C24.057,23.459 24.505,23.908 24.505,24.459 C24.505,25.011 24.057,25.459 23.505,25.459 C22.954,25.459 22.505,25.011 22.505,24.459 C22.505,23.908 22.954,23.459 23.505,23.459 L23.505,23.459 Z M23.505,26.459 C24.608,26.459 25.505,25.563 25.505,24.459 C25.505,23.356 24.608,22.459 23.505,22.459 C22.403,22.459 21.505,23.356 21.505,24.459 C21.505,25.563 22.403,26.459 23.505,26.459 L23.505,26.459 Z" id="AWS-RoboMaker_Icon_32_Squid" fill="#FFFFFF"></path>
    </g>
</svg>