<svg xmlns="http://www.w3.org/2000/svg" width="24px" height="24px" viewBox="0 0 24 24"><defs><style>.cls-1{fill:#669df6;}.cls-1,.cls-3{fill-rule:evenodd;}.cls-2,.cls-3{fill:#4285f4;}</style></defs><title>Icon_24px_Dataprep_Color</title><g data-name="Product Icons"><g ><path class="cls-1" d="M10.48,11a.91.91,0,1,1-.91.91.91.91,0,0,1,.91-.91Zm0-.8a1.71,1.71,0,1,0,1.7,1.71,1.7,1.7,0,0,0-1.7-1.71Z"/><path class="cls-1" d="M4.57,11a.91.91,0,1,1-.91.91A.91.91,0,0,1,4.57,11Zm0-.8a1.71,1.71,0,1,0,1.7,1.71,1.7,1.7,0,0,0-1.7-1.71Z"/><path class="cls-1" d="M7.61,16.31a.91.91,0,0,1,0,1.82.91.91,0,1,1,0-1.82Zm0-.79a1.71,1.71,0,1,0,1.2.5,1.7,1.7,0,0,0-1.2-.5Z"/><path class="cls-1" d="M7.61,5.79a.91.91,0,1,1-.94.91.92.92,0,0,1,.94-.91Zm0-.8a1.71,1.71,0,1,0,1.2.5A1.7,1.7,0,0,0,7.61,5Z"/><rect class="cls-2" x="10.66" y="2" width="1.68" height="20"/><path class="cls-3" d="M16.25,4.87H11.74a.37.37,0,0,0-.3.4V8.09a.36.36,0,0,0,.3.39h4.51a.36.36,0,0,0,.31-.39V5.28a.37.37,0,0,0-.31-.41Z"/><path class="cls-3" d="M20.57,10.16H12.25c-.31,0-.56.18-.56.39v2.82c0,.22.25.4.56.4h8.32c.31,0,.56-.19.56-.4V10.55C21.13,10.33,20.88,10.16,20.57,10.16Z"/><path class="cls-3" d="M14.66,15.44H11.13c-.13,0-.23.18-.23.39v2.82c0,.22.1.39.23.39h3.53c.13,0,.24-.18.24-.39V15.83C14.89,15.61,14.79,15.44,14.66,15.44Z"/></g></g></svg>