<?xml version="1.0" encoding="UTF-8"?>
<svg width="40px" height="40px" viewBox="0 0 40 40" version="1.1" xmlns="http://www.w3.org/2000/svg" xmlns:xlink="http://www.w3.org/1999/xlink">
    <!-- Generator: Sketch 64 (93537) - https://sketch.com -->
    <title>Icon-Architecture/32/Arch_Amazon-Fraud-Detector_32</title>
    <desc>Created with Sketch.</desc>
    <defs>
        <linearGradient x1="0%" y1="100%" x2="100%" y2="0%" id="linearGradient-1">
            <stop stop-color="#055F4E" offset="0%"></stop>
            <stop stop-color="#56C0A7" offset="100%"></stop>
        </linearGradient>
    </defs>
    <g id="Icon-Architecture/32/Arch_Amazon-Fraud-Detector_32" stroke="none" stroke-width="1" fill="none" fill-rule="evenodd">
        <g id="Icon-Architecture-BG/32/Machine-Learning" fill="url(#linearGradient-1)">
            <rect id="Rectangle" x="0" y="0" width="40" height="40"></rect>
        </g>
        <path d="M27.8151366,11.274 L26.843507,11.037 L27.4078727,8.726 L28.3785017,8.963 L27.8151366,11.274 Z M30.2266994,13.007 L31.8707648,11.007 L32.644266,11.642 L31.0012013,13.642 L30.2266994,13.007 Z M22.6417842,11.79 L21.6621494,9.623 L22.5747408,9.211 L23.5543756,11.378 L22.6417842,11.79 Z M26.0129688,21.5 C26.0129688,21.776 25.7898242,22 25.5126446,22 C25.2364656,22 25.0123204,21.776 25.0123204,21.5 C25.0123204,21.224 25.2364656,21 25.5126446,21 C25.7898242,21 26.0129688,21.224 26.0129688,21.5 L26.0129688,21.5 Z M25.0123204,20 L26.0129688,20 L26.0129688,16 L25.0123204,16 L25.0123204,20 Z M32.7253185,26.794 C32.4951694,27.024 32.1459431,27.172 31.9358069,26.962 L29.2730814,24.238 C29.6163038,23.986 29.9325087,23.702 30.2186942,23.389 L32.8974301,25.994 C32.9794833,26.076 33.011504,26.179 32.9954936,26.307 C32.9734794,26.467 32.8754158,26.645 32.7253185,26.794 L32.7253185,26.794 Z M19.9280256,19.005 C19.9280256,15.972 22.397626,13.505 25.4315921,13.505 C28.4655581,13.505 30.9351585,15.972 30.9351585,19.005 C30.9351585,22.038 28.4655581,24.505 25.4315921,24.505 C22.397626,24.505 19.9280256,22.038 19.9280256,19.005 L19.9280256,19.005 Z M17.5074571,27 C16.6799208,27 16.0064844,26.327 16.0064844,25.5 C16.0064844,24.673 16.6799208,24 17.5074571,24 C18.3349933,24 19.0084297,24.673 19.0084297,25.5 C19.0084297,26.327 18.3349933,27 17.5074571,27 L17.5074571,27 Z M10.0356152,29.54 L12.7693867,23.686 L15.1008976,24.856 C15.0448613,25.063 15.005836,25.276 15.005836,25.5 C15.005836,25.843 15.076882,26.17 15.2019631,26.467 L10.4348739,29.932 C10.3157967,29.787 10.1837111,29.656 10.0356152,29.54 L10.0356152,29.54 Z M8.5016211,33 C7.67408484,33 7.00064844,32.327 7.00064844,31.5 C7.00064844,30.673 7.67408484,30 8.5016211,30 C9.32915736,30 10.0025938,30.673 10.0025938,31.5 C10.0025938,32.327 9.32915736,33 8.5016211,33 L8.5016211,33 Z M10.7600846,21.558 C10.9111825,21.235 11.0032422,20.879 11.0032422,20.5 C11.0032422,19.945 10.8161209,19.437 10.5079212,19.021 L12.1950145,17.451 L13.5488918,19.651 L12.2980813,22.33 L10.7600846,21.558 Z M8.5016211,22 C7.67408484,22 7.00064844,21.327 7.00064844,20.5 C7.00064844,19.673 7.67408484,19 8.5016211,19 C9.32915736,19 10.0025938,19.673 10.0025938,20.5 C10.0025938,21.327 9.32915736,22 8.5016211,22 L8.5016211,22 Z M9.30814374,10.855 C9.79846148,10.687 10.2207351,10.376 10.5209297,9.964 L14.16329,11.651 C14.0672277,11.917 14.0051875,12.201 14.0051875,12.5 C14.0051875,13.045 14.1853042,13.545 14.4824968,13.957 L12.407152,15.887 L9.30814374,10.855 Z M7.00064844,8.5 C7.00064844,7.673 7.67408484,7 8.5016211,7 C9.32915736,7 10.0025938,7.673 10.0025938,8.5 C10.0025938,9.327 9.32915736,10 8.5016211,10 C7.67408484,10 7.00064844,9.327 7.00064844,8.5 L7.00064844,8.5 Z M16.5068086,11 C17.3343449,11 18.0077813,11.673 18.0077813,12.5 C18.0077813,13.327 17.3343449,14 16.5068086,14 C15.6792724,14 15.005836,13.327 15.005836,12.5 C15.005836,11.673 15.6792724,11 16.5068086,11 L16.5068086,11 Z M15.2229767,14.634 C15.3960889,14.738 15.5812088,14.819 15.7783366,14.879 L14.0562206,18.566 L12.9424989,16.756 L15.2229767,14.634 Z M15.5501887,23.962 L13.1936616,22.779 L14.1772991,20.671 L15.95345,23.556 C15.8043534,23.676 15.6682652,23.812 15.5501887,23.962 L15.5501887,23.962 Z M20.624477,14.641 C19.5747967,15.796 18.9273772,17.325 18.9273772,19.005 C18.9273772,20.44 19.4016846,21.763 20.1921968,22.84 L19.1295082,23.612 C18.6922248,23.236 18.1288597,23 17.5074571,23 C17.2783086,23 17.0591666,23.041 16.8480297,23.1 L14.6846278,19.586 L16.8410252,14.966 C17.6255336,14.86 18.2899641,14.394 18.6682093,13.735 L20.624477,14.641 Z M33.5998853,25.282 L30.8440995,22.602 C31.5325456,21.571 31.9358069,20.335 31.9358069,19.005 C31.9358069,15.421 29.0179161,12.505 25.4315921,12.505 C23.914609,12.505 22.5207058,13.031 21.4129879,13.904 L18.9804116,12.778 C18.9914187,12.686 19.0084297,12.595 19.0084297,12.5 C19.0084297,11.122 17.8867028,10 16.5068086,10 C15.7893437,10 15.1469274,10.308 14.6896311,10.793 L10.9371994,9.055 C10.9772253,8.876 11.0032422,8.691 11.0032422,8.5 C11.0032422,7.122 9.8815153,6 8.5016211,6 C7.1217269,6 6,7.122 6,8.5 C6,9.776 6.96562575,10.82 8.20342787,10.97 L11.6596676,16.583 L9.75843554,18.351 C9.38819562,18.133 8.96191938,18 8.5016211,18 C7.1217269,18 6,19.122 6,20.5 C6,21.878 7.1217269,23 8.5016211,23 C9.13403092,23 9.70540117,22.757 10.1466871,22.369 L11.874807,23.237 L9.14103545,29.093 C8.93590252,29.038 8.72376505,29 8.5016211,29 C7.1217269,29 6,30.122 6,31.5 C6,32.878 7.1217269,34 8.5016211,34 C9.8815153,34 11.0032422,32.878 11.0032422,31.5 C11.0032422,31.266 10.9602143,31.044 10.9001754,30.829 L15.7683301,27.291 C16.2196225,27.728 16.8310187,28 17.5074571,28 C18.8873513,28 20.0090782,26.878 20.0090782,25.5 C20.0090782,25.105 19.9090133,24.735 19.7439063,24.402 L20.840617,23.605 C22.0183802,24.778 23.641432,25.505 25.4315921,25.505 C26.5022859,25.505 27.5119402,25.24 28.4035179,24.78 L31.2243459,27.665 C31.4885171,27.929 31.8287375,28.059 32.1829671,28.059 C32.6122453,28.059 33.0625371,27.87 33.432777,27.501 C33.7389754,27.195 33.9361032,26.818 33.9861356,26.439 C34.0461745,26.001 33.9100863,25.591 33.5998853,25.282 L33.5998853,25.282 Z" id="Amazon-Fraud-Detector_Icon_32_Squid" fill="#FFFFFF"></path>
    </g>
</svg>