<?xml version="1.0" encoding="UTF-8"?>
<svg width="40px" height="40px" viewBox="0 0 40 40" version="1.1" xmlns="http://www.w3.org/2000/svg" xmlns:xlink="http://www.w3.org/1999/xlink">
    <!-- Generator: Sketch 64 (93537) - https://sketch.com -->
    <title>Icon-Architecture/32/Arch_Amazon-Elastic-Inference_32</title>
    <desc>Created with Sketch.</desc>
    <defs>
        <linearGradient x1="0%" y1="100%" x2="100%" y2="0%" id="linearGradient-1">
            <stop stop-color="#055F4E" offset="0%"></stop>
            <stop stop-color="#56C0A7" offset="100%"></stop>
        </linearGradient>
    </defs>
    <g id="Icon-Architecture/32/Arch_Amazon-Elastic-Inference_32" stroke="none" stroke-width="1" fill="none" fill-rule="evenodd">
        <g id="Icon-Architecture-BG/32/Machine-Learning" fill="url(#linearGradient-1)">
            <rect id="Rectangle" x="0" y="0" width="40" height="40"></rect>
        </g>
        <path d="M18.9982147,23.7690185 L12.6485753,27.4887424 L12.1416839,26.6321812 L15.9988574,24.3718943 L15.9988574,22.2031332 L12.5086053,19.9348876 L9.25230308,22.1802518 L8.68242519,21.3624896 L11.9997143,19.0753419 L11.9997143,16.6439418 L9.34628294,15.0312988 L7.00078555,16.6101171 L7.00078555,18.6157237 L8.97236307,17.4199206 L9.49325145,18.268523 L6.99978576,19.7816815 L6.99978576,22.8398337 L9.51524673,24.6832807 L12.7225595,22.5553082 L13.2764408,23.3830189 L10.0001428,25.5567542 L10.0001428,28.9959319 L12.7175605,30.7050748 L15.5419553,28.8238238 L16.098836,29.6505396 L13.6423624,31.286064 L16.2188103,32.9066658 L18.9982147,30.998554 L18.9982147,23.7690185 Z M28.9960723,21.4768967 C28.9960723,21.2023196 28.7711205,20.9794744 28.4961794,20.9794744 C28.2212383,20.9794744 27.9962865,21.2023196 27.9962865,21.4768967 C27.9962865,21.7514738 28.2212383,21.974319 28.4961794,21.974319 C28.7711205,21.974319 28.9960723,21.7514738 28.9960723,21.4768967 L28.9960723,21.4768967 Z M26.9965007,12.5232956 C26.9965007,12.2487185 26.771549,12.0258734 26.4966079,12.0258734 C26.2216668,12.0258734 25.996715,12.2487185 25.996715,12.5232956 C25.996715,12.7978727 26.2216668,13.0207179 26.4966079,13.0207179 C26.771549,13.0207179 26.9965007,12.7978727 26.9965007,12.5232956 L26.9965007,12.5232956 Z M23.9971435,18.492363 C23.9971435,18.7669401 24.2220953,18.9897853 24.4970363,18.9897853 C24.7719774,18.9897853 24.9969292,18.7669401 24.9969292,18.492363 C24.9969292,18.2177859 24.7719774,17.9949407 24.4970363,17.9949407 C24.2220953,17.9949407 23.9971435,18.2177859 23.9971435,18.492363 L23.9971435,18.492363 Z M19.9980004,25.4771667 L19.9980004,31.2601981 C19.9980004,31.4233526 19.9170178,31.5765587 19.7820467,31.6690792 L16.5147468,33.9114588 C16.4287653,33.9701547 16.3297865,34 16.2298079,34 C16.1378276,34 16.0448475,33.974134 15.9628651,33.923397 L9.23230736,29.6913282 C9.08833821,29.5998025 9.00035707,29.4406274 9.00035707,29.270509 L9.00035707,25.5418315 L6.20295651,23.4914569 C6.07498393,23.3979415 6,23.2497097 6,23.0915294 L6.00099979,16.3454884 C6.00099979,16.1803442 6.08298222,16.0261433 6.22095265,15.9336228 L9.00035707,14.063315 L9.00035707,10.1396481 C9.00035707,9.95460698 9.10433479,9.78448856 9.26929944,9.69893193 L16.2697993,6.05780084 C16.4367636,5.96826483 16.6427194,5.98418234 16.7956866,6.09560493 L19.5321003,8.07435076 L23.1263301,6.06476475 C23.271299,5.98418234 23.4482611,5.98020296 23.598229,6.0548163 L30.7227023,9.65714846 C30.8906663,9.74171024 30.9956438,9.91381835 30.9956438,10.1008491 L30.9956438,13.7927173 L33.8270371,16.2967411 C33.9330144,16.3912513 33.9950011,16.5265501 33.9950011,16.6688129 L33.9950011,24.9578578 C33.9950011,25.141904 33.8930229,25.3100328 33.7310576,25.3965842 C33.5690923,25.4831357 33.3721345,25.4731873 33.2181675,25.3717131 L29.2700136,22.7542771 C29.0450618,22.8905708 28.7791188,22.9691635 28.4961794,22.9691635 C27.6693566,22.9691635 26.9965007,22.2996331 26.9965007,21.4768967 C26.9965007,20.6541602 27.6693566,19.9846298 28.4961794,19.9846298 C29.3230022,19.9846298 29.995858,20.6541602 29.995858,21.4768967 C29.995858,21.653979 29.9648647,21.8240974 29.9078769,21.9812829 L32.9952153,24.028673 L32.9952153,16.8916581 L30.163822,14.3876343 C30.0578447,14.2931241 29.995858,14.1578252 29.995858,14.0155625 L29.995858,13.0207179 L27.9103049,13.0207179 C27.7043491,13.5997174 27.1484682,14.0155625 26.4966079,14.0155625 C25.669785,14.0155625 24.9969292,13.3460321 24.9969292,12.5232956 C24.9969292,11.7005592 25.669785,11.0310288 26.4966079,11.0310288 C27.1484682,11.0310288 27.7043491,11.4468738 27.9103049,12.0258734 L29.995858,12.0258734 L29.995858,10.4052716 L23.383275,7.06259384 L19.9980004,8.9547882 L19.9980004,14.428423 L23.7541955,17.1970754 C23.9731486,17.071725 24.2260944,17.0000962 24.4970363,17.0000962 C25.3238592,17.0000962 25.996715,17.6696265 25.996715,18.492363 C25.996715,19.3150994 25.3238592,19.9846298 24.4970363,19.9846298 C23.6702135,19.9846298 22.9973577,19.3150994 22.9973577,18.492363 C22.9973577,18.3023477 23.03335,18.1202911 23.0993359,17.9521624 L19.2001714,15.0790513 C19.0731986,14.9845411 18.9982147,14.8363092 18.9982147,14.6791238 L18.9982147,8.9169841 L16.4587588,7.08249074 L12.9995001,8.8811697 L12.9995001,12.0258734 L11.9997143,12.0258734 L11.9997143,9.40147341 L10.0001428,10.441086 L10.0001428,14.2632788 L12.5026066,15.7843961 L15.9988574,13.7161143 L15.9988574,11.0310288 L16.9986431,11.0310288 L16.9986431,13.9986501 C16.9986431,14.1737428 16.9056631,14.3368973 16.7546954,14.4254384 L12.9995001,16.6479212 L12.9995001,19.0663883 L16.7716918,21.5176853 C16.9136614,21.609211 16.9986431,21.7654016 16.9986431,21.9335303 L16.9986431,23.7859309 L18.9982147,22.6149989 L18.9982147,20.2243874 L15.8528887,17.7203636 L16.4777548,16.94339 L19.8100407,19.5966405 C19.9290152,19.6911507 19.9980004,19.8334135 19.9980004,19.9846298 L19.9980004,24.4823221 L21.9975719,24.4823221 L21.9975719,25.4771667 L19.9980004,25.4771667 Z M32.3083625,26.9813716 L31.9454403,26.6401399 L27.8023281,30.4215441 C27.6893523,30.3916988 27.5743769,30.370807 27.4524031,30.370807 C26.7045633,30.370807 26.0956938,30.9766674 26.0956938,31.721806 C26.0956938,32.4659497 26.7045633,33.0728049 27.4524031,33.0728049 C28.2012426,33.0728049 28.8101121,32.4659497 28.8101121,31.721806 C28.8101121,31.5795432 28.7821181,31.4442443 28.7411269,31.3159094 L32.3083625,26.9813716 Z M28.9120903,27.1962581 L29.2130258,26.2471763 C28.6391488,26.0681043 28.0472756,25.9765786 27.4524031,25.9765786 C23.9651503,25.9765786 20.9058059,29.2197719 20.9058059,32.9176091 L21.9055917,32.9176091 C21.9055917,29.750024 24.4980361,26.9714232 27.4524031,26.9714232 C27.9452974,26.9714232 28.4361922,27.0470314 28.9120903,27.1962581 L28.9120903,27.1962581 Z M34,32.9176091 L33.0002142,32.9176091 C33.0002142,31.7795069 32.6612869,30.6473738 32.0184246,29.6445705 L32.8622438,29.110339 C33.6060844,30.2733123 34,31.5894916 34,32.9176091 L34,32.9176091 Z" id="Amazon-Elastic-Inference_Icon_32_Squid" fill="#FFFFFF"></path>
    </g>
</svg>