<?xml version="1.0" encoding="UTF-8"?>
<svg width="40px" height="40px" viewBox="0 0 40 40" version="1.1" xmlns="http://www.w3.org/2000/svg" xmlns:xlink="http://www.w3.org/1999/xlink">
    <!-- Generator: Sketch 64 (93537) - https://sketch.com -->
    <title>Icon-Architecture/32/Arch_Amazon-Lex_32</title>
    <desc>Created with Sketch.</desc>
    <defs>
        <linearGradient x1="0%" y1="100%" x2="100%" y2="0%" id="linearGradient-1">
            <stop stop-color="#055F4E" offset="0%"></stop>
            <stop stop-color="#56C0A7" offset="100%"></stop>
        </linearGradient>
    </defs>
    <g id="Icon-Architecture/32/Arch_Amazon-Lex_32" stroke="none" stroke-width="1" fill="none" fill-rule="evenodd">
        <g id="Icon-Architecture-BG/32/Machine-Learning" fill="url(#linearGradient-1)">
            <rect id="Rectangle" x="0" y="0" width="40" height="40"></rect>
        </g>
        <path d="M23.744,23.4515877 C23.744,23.6604075 23.825,23.8561761 23.973,24.0027515 C24.267,24.2989143 24.777,24.2989143 25.072,24.0037555 L25.072,24.0027515 C25.22,23.8561761 25.301,23.6604075 25.301,23.4515877 C25.301,23.2427679 25.22,23.0469993 25.072,22.898416 C24.926,22.7508366 24.73,22.6695174 24.522,22.6695174 C24.314,22.6695174 24.119,22.7508366 23.973,22.898416 C23.825,23.0469993 23.744,23.2427679 23.744,23.4515877 L23.744,23.4515877 Z M23.265,24.7135421 C22.93,24.3762177 22.744,23.9284599 22.744,23.4515877 C22.744,22.9747155 22.93,22.5259537 23.265,22.1886294 C23.959,21.492898 25.086,21.492898 25.779,22.1886294 C26.115,22.5259537 26.301,22.9747155 26.301,23.4515877 C26.301,23.9284599 26.115,24.3762177 25.779,24.7135421 C25.443,25.0508664 24.997,25.2365955 24.522,25.2365955 C24.048,25.2365955 23.601,25.0508664 23.265,24.7135421 L23.265,24.7135421 Z M21.074,23.2548152 L21.306,24.7286012 L22.328,24.6864356 C22.473,24.6693686 22.603,24.7346248 22.702,24.8330111 L23.143,25.2767532 C23.242,25.3761434 23.295,25.5126794 23.29,25.6522273 L23.248,26.6792593 L24.717,26.9141816 L24.99,25.9343348 C25.028,25.7967948 25.122,25.6833494 25.248,25.6201011 L25.821,25.3329739 C25.944,25.2707295 26.088,25.262698 26.219,25.3118911 L27.165,25.6632706 L27.841,24.3320443 L26.994,23.7678293 C26.879,23.6905258 26.801,23.5680449 26.778,23.4305049 L26.677,22.8050495 C26.654,22.6655016 26.69,22.5239459 26.777,22.4125084 L27.411,21.6073474 L26.359,20.552205 L25.559,21.1876999 C25.45,21.2760467 25.307,21.3131925 25.169,21.2901019 L24.547,21.1876999 C24.409,21.1656131 24.288,21.0873057 24.211,20.9708485 L23.646,20.1205102 L22.321,20.7971667 L22.672,21.7448873 C22.72,21.8764037 22.712,22.0209712 22.649,22.14546 L22.361,22.7207184 C22.299,22.847215 22.185,22.9405815 22.05,22.9787313 L21.074,23.2548152 Z M20.388,25.3279542 L20.016,22.9706998 C19.977,22.7187105 20.132,22.4777646 20.376,22.4084926 L21.567,22.0721722 L21.658,21.8904588 L21.228,20.7278947 C21.14,20.4889566 21.244,20.2209043 21.471,20.105451 L23.589,19.0221983 C23.813,18.9087529 24.09,18.9790288 24.231,19.1918644 L24.922,20.2319476 L25.111,20.2630698 L26.088,19.4870231 C26.287,19.3294043 26.572,19.3464713 26.752,19.5261768 L28.432,21.2138023 C28.612,21.3935078 28.629,21.6796311 28.472,21.8794155 L27.699,22.8622741 L27.729,23.053023 L28.765,23.7447386 C28.976,23.8852904 29.049,24.1633822 28.933,24.3902729 L27.853,26.5166208 C27.737,26.7435116 27.475,26.8489254 27.234,26.7585707 L26.074,26.3278798 L25.893,26.4192385 L25.559,27.6149327 C25.498,27.8347959 25.299,27.9813713 25.078,27.9813713 C25.053,27.9813713 25.026,27.9793634 25,27.9753477 L22.652,27.6008775 C22.401,27.5617238 22.221,27.3398528 22.23,27.0848516 L22.281,25.8309288 L22.15,25.6994125 L20.902,25.7506135 C20.638,25.7686845 20.428,25.5789395 20.388,25.3279542 L20.388,25.3279542 Z M33,18.0654421 L16.015,18.0433554 L16,18.0584145 L16,29.0716517 L24,29.0867108 C24.262,29.0867108 24.49,29.1830892 24.697,29.3818696 L28,32.6908604 L28,30.1057113 C28,29.5435041 28.456,29.0867108 29.015,29.0867108 L32.978,29.0867108 L33,18.0654421 Z M34,18.0654421 L34,29.0646241 C34,29.6780323 33.59,30.0906522 32.978,30.0906522 L29.015,30.0906522 L29,33.1888153 C29,33.5161002 28.81,33.8092511 28.516,33.9357478 C28.416,33.9789172 28.311,34 28.208,34 C28.015,34 27.825,33.9257083 27.675,33.7831487 L23.999,30.1006916 L16.015,30.0906522 C15.456,30.0906522 15,29.6328549 15,29.0716517 L15,18.0584145 C15,17.4962073 15.456,17.039414 16.015,17.039414 L32.978,17.039414 C33.59,17.0414219 34,17.4530379 34,18.0654421 L34,18.0654421 Z M18,15.0315312 L20,15.0315312 L20,14.0275898 L18,14.0275898 L18,15.0315312 Z M9,15.0315312 L17,15.0315312 L17,14.0275898 L9,14.0275898 L9,15.0315312 Z M16,13.0236484 L21,13.0236484 L21,12.019707 L16,12.019707 L16,13.0236484 Z M9,13.0236484 L14,13.0236484 L14,12.019707 L9,12.019707 L9,13.0236484 Z M19,11.0157656 L21,11.0157656 L21,10.0118242 L19,10.0118242 L19,11.0157656 Z M9,11.0157656 L18,11.0157656 L18,10.0118242 L9,10.0118242 L9,11.0157656 Z M12.744,18.5513497 L13.469,19.2430654 L10.366,22.5139064 C10.181,22.6805607 9.965,22.7648918 9.756,22.7648918 C9.646,22.7648918 9.54,22.7418011 9.439,22.6976277 C9.169,22.5751469 9,22.3080985 9,22.0008924 L9,19.0472968 L7,19.0472968 C6.411,19.0472968 6,18.6346769 6,18.0433554 L6,8.0039414 C6,7.41261992 6.411,7 7,7 L22.984,7 C23.544,7 24,7.45679334 24,8.01900052 L24,15.0315312 L23,15.0315312 L23,8.01900052 L7,8.0039414 L7,18.0433554 L9,18.0433554 C9.589,18.0433554 10,18.4559753 10,19.0472968 L10,21.4457128 L12.744,18.5513497 Z" id="Amazon-Lex-Icon_32_Squid" fill="#FFFFFF"></path>
    </g>
</svg>