<?xml version="1.0" encoding="UTF-8"?>
<svg width="40px" height="40px" viewBox="0 0 40 40" version="1.1" xmlns="http://www.w3.org/2000/svg" xmlns:xlink="http://www.w3.org/1999/xlink">
    <!-- Generator: Sketch 64 (93537) - https://sketch.com -->
    <title>Icon-Architecture/32/Arch_Amazon-Augmented-AI-A2I_32</title>
    <desc>Created with Sketch.</desc>
    <defs>
        <linearGradient x1="0%" y1="100%" x2="100%" y2="0%" id="linearGradient-1">
            <stop stop-color="#055F4E" offset="0%"></stop>
            <stop stop-color="#56C0A7" offset="100%"></stop>
        </linearGradient>
    </defs>
    <g id="Icon-Architecture/32/Arch_Amazon-Augmented-AI-A2I_32" stroke="none" stroke-width="1" fill="none" fill-rule="evenodd">
        <g id="Icon-Architecture-BG/32/Machine-Learning" fill="url(#linearGradient-1)">
            <rect id="Rectangle" x="0" y="0" width="40" height="40"></rect>
        </g>
        <path d="M26.193,32.7631763 C26.04,30.8841763 25.032,29.1631763 23.486,28.1881763 C22.63,27.6481763 21.646,27.3631763 20.643,27.3631763 C17.731,27.3631763 15.333,29.7431763 15.092,32.7631763 L26.193,32.7631763 Z M20.653,26.3631763 C22.318,26.3631763 23.672,25.0081763 23.672,23.3431763 C23.672,21.6781763 22.318,20.3231763 20.653,20.3231763 C18.988,20.3231763 17.632,21.6781763 17.632,23.3431763 C17.632,25.0081763 18.988,26.3631763 20.653,26.3631763 L20.653,26.3631763 Z M27.214,33.2631763 C27.214,33.5391763 26.99,33.7631763 26.714,33.7631763 L14.573,33.7631763 C14.297,33.7631763 14.073,33.5391763 14.073,33.2631763 C14.073,30.2381763 15.938,27.6681763 18.523,26.7391763 C17.391,26.0271763 16.632,24.7761763 16.632,23.3431763 C16.632,21.1261763 18.436,19.3231763 20.653,19.3231763 C22.87,19.3231763 24.672,21.1261763 24.672,23.3431763 C24.672,24.7831763 23.906,26.0381763 22.765,26.7481763 C23.2,26.9041763 23.623,27.0931763 24.019,27.3431763 C25.99,28.5841763 27.214,30.8531763 27.214,33.2631763 L27.214,33.2631763 Z M13.549,23.4511763 L13.036,22.5941763 L10.257,24.2611763 L7,22.6141763 L7,20.3731763 L10.352,18.3301763 L9.833,17.4761763 L7,19.2021763 L7,16.3481763 L10.5,15.2281763 L14,16.8221763 L14,18.2791763 L10.937,20.1161763 L11.451,20.9731763 L14.444,19.1781763 L16.158,20.3211763 L16.713,19.4891763 L15,18.3471763 L15,16.5861763 L17.749,15.0111763 C17.904,14.9221763 18,14.7561763 18,14.5771763 L18,10.8801763 L17,10.8801763 L17,14.2871763 L14.276,15.8481763 L11,14.3571763 L11,10.6021763 L13,9.40917632 L13,12.4661763 L14,12.4661763 L14,8.81217632 L16.856,7.10917632 L20,8.62017632 L20,17.8801763 L21,17.8801763 L21,8.30617632 C21,8.11417632 20.889,7.93917632 20.716,7.85517632 L17.047,6.09117632 C16.897,6.01917632 16.717,6.02617632 16.575,6.11317632 L10.244,9.88817632 C10.092,9.97817632 10,10.1411763 10,10.3181763 L10,14.3381763 L6.347,15.5071763 C6.14,15.5731763 6,15.7661763 6,15.9831763 L6,22.9221763 C6,23.1101763 6.106,23.2831763 6.274,23.3681763 L10,25.2511763 L10,28.7831763 C10,28.9401763 10.074,29.0891763 10.2,29.1831763 L12.759,31.1031763 L13.359,30.3031763 L11,28.5331763 L11,24.9821763 L13.549,23.4511763 Z M25.691,21.2501763 C25.858,20.6991763 25.943,20.1331763 25.943,19.5691763 C25.943,16.9981763 24.221,14.7181763 21.757,14.0251763 L21.486,14.9881763 C23.521,15.5601763 24.943,17.4441763 24.943,19.5691763 C24.943,20.0341763 24.873,20.5021763 24.734,20.9601763 L25.691,21.2501763 Z M33.602,21.8981763 L31.765,26.7041763 C31.716,26.8331763 31.616,26.9351763 31.489,26.9881763 C31.362,27.0401763 31.217,27.0381763 31.092,26.9811763 L29.528,26.2751763 C29.461,26.3821763 29.397,26.4851763 29.336,26.5851763 C28.903,27.2911763 28.529,27.9011763 27.676,28.5441763 L27.075,27.7461763 C27.776,27.2171763 28.073,26.7321763 28.484,26.0621763 C28.617,25.8461763 28.758,25.6151763 28.924,25.3661763 C29.059,25.1611763 29.324,25.0861763 29.547,25.1871763 L31.021,25.8521763 L32.479,22.0351763 L30.93,21.5431763 C30.697,21.4691763 30.551,21.2361763 30.587,20.9941763 C30.759,19.8161763 30.726,18.6161763 30.489,17.4271763 C30.441,17.1871763 30.574,16.9481763 30.802,16.8611763 L32.316,16.2881763 L30.643,12.5571763 L29.206,13.3051763 C28.99,13.4181763 28.723,13.3581763 28.576,13.1631763 C27.848,12.1981763 26.974,11.3731763 25.979,10.7121763 C25.775,10.5761763 25.699,10.3131763 25.799,10.0901763 L26.465,8.60917632 L22.604,7.13817632 L22.044,8.45017632 L21.124,8.05717632 L21.873,6.30417632 C21.978,6.05617632 22.26,5.93717632 22.51,6.03317632 L27.317,7.86317632 C27.446,7.91217632 27.548,8.01217632 27.601,8.13917632 C27.654,8.26617632 27.652,8.41017632 27.595,8.53517632 L26.882,10.1211763 C27.714,10.7191763 28.462,11.4251763 29.113,12.2261763 L30.652,11.4261763 C30.774,11.3621763 30.919,11.3521763 31.047,11.3971763 C31.176,11.4421763 31.283,11.5391763 31.339,11.6651763 L33.445,16.3631763 C33.502,16.4881763 33.504,16.6321763 33.451,16.7591763 C33.398,16.8861763 33.295,16.9861763 33.166,17.0351763 L31.546,17.6491763 C31.712,18.6721763 31.74,19.7001763 31.63,20.7161763 L33.287,21.2421763 C33.418,21.2841763 33.526,21.3781763 33.586,21.5021763 C33.645,21.6261763 33.652,21.7691763 33.602,21.8981763 L33.602,21.8981763 Z" id="Amazon-Augmented-AI-A2I_Icon_32_Squid" fill="#FFFFFF"></path>
    </g>
</svg>