<?xml version="1.0" encoding="UTF-8"?>
<svg width="40px" height="40px" viewBox="0 0 40 40" version="1.1" xmlns="http://www.w3.org/2000/svg" xmlns:xlink="http://www.w3.org/1999/xlink">
    <title>Icon-Architecture/32/Arch_AWS-Colossus_32</title>
    <defs>
        <linearGradient x1="0%" y1="100%" x2="100%" y2="0%" id="linearGradient-1">
            <stop stop-color="#055F4E" offset="0%"></stop>
            <stop stop-color="#56C0A7" offset="100%"></stop>
        </linearGradient>
    </defs>
    <g id="Icon-Architecture/32/Arch_AWS-Colossus_32" stroke="none" stroke-width="1" fill="none" fill-rule="evenodd">
        <g id="Rectangle" fill="url(#linearGradient-1)">
            <rect x="0" y="0" width="40" height="40"></rect>
        </g>
        <g id="Icon-Service/32/AWS-Colossus_32" transform="translate(4.000000, 4.000000)" fill="#FFFFFF">
            <path d="M25,20 L26,20 L26,17 L25,17 L25,20 Z M28,25 L26.5,25 C26.224,25 26,24.776 26,24.5 L26,23 L24,23 L24,24.5 C24,24.776 23.776,25 23.5,25 L22,25 L22,27 L23.5,27 C23.776,27 24,27.224 24,27.5 L24,29 L26,29 L26,27.5 C26,27.224 26.224,27 26.5,27 L28,27 L28,25 Z M29,24.5 L29,27.5 C29,27.776 28.776,28 28.5,28 L27,28 L27,29.5 C27,29.776 26.776,30 26.5,30 L23.5,30 C23.224,30 23,29.776 23,29.5 L23,28 L21.5,28 C21.224,28 21,27.776 21,27.5 L21,24.5 C21,24.224 21.224,24 21.5,24 L23,24 L23,22.5 C23,22.224 23.224,22 23.5,22 L26.5,22 C26.776,22 27,22.224 27,22.5 L27,24 L28.5,24 C28.776,24 29,24.224 29,24.5 L29,24.5 Z M13,6 L19,6 L19,3 L13,3 L13,6 Z M12,6.5 L12,2.5 C12,2.224 12.224,2 12.5,2 L19.5,2 C19.776,2 20,2.224 20,2.5 L20,6.5 C20,6.776 19.776,7 19.5,7 L12.5,7 C12.224,7 12,6.776 12,6.5 L12,6.5 Z M7,4.738 C7,4.331 7.331,4 7.738,4 L11,4 L11,3 L7.738,3 C6.78,3 6,3.78 6,4.738 L6,12 L7,12 L7,4.738 Z M25,4.738 L25,12 L26,12 L26,4.738 C26,3.78 25.22,3 24.262,3 L21,3 L21,4 L24.262,4 C24.669,4 25,4.331 25,4.738 L25,4.738 Z M7,28.262 L7,17 L6,17 L6,28.262 C6,29.22 6.78,30 7.738,30 L21,30 L21,29 L7.738,29 C7.331,29 7,28.669 7,28.262 L7,28.262 Z M21.299,14 L19.563,9.373 C19.494,9.186 19.32,9.059 19.122,9.048 C18.926,9.036 18.738,9.146 18.648,9.324 L15.924,14.772 L13.312,11.114 C13.213,10.977 13.038,10.891 12.885,10.905 C12.716,10.912 12.563,11.003 12.476,11.147 L10.765,14 L2,14 L2,15 L11.048,15 C11.224,15 11.387,14.908 11.477,14.757 L12.94,12.316 L15.593,16.029 C15.688,16.161 15.839,16.238 16,16.238 C16.013,16.238 16.026,16.238 16.039,16.237 C16.214,16.223 16.369,16.119 16.447,15.962 L19.03,10.797 L20.484,14.675 C20.558,14.871 20.744,15 20.952,15 L30,15 L30,14 L21.299,14 Z M9,23 L17,23 L17,22 L9,22 L9,23 Z M9,26 L17,26 L17,25 L9,25 L9,26 Z" id="Fill-3"></path>
        </g>
    </g>
</svg>