<?xml version="1.0" encoding="UTF-8"?>
<svg width="40px" height="40px" viewBox="0 0 40 40" version="1.1" xmlns="http://www.w3.org/2000/svg" xmlns:xlink="http://www.w3.org/1999/xlink">
    <!-- Generator: Sketch 64 (93537) - https://sketch.com -->
    <title>Icon-Architecture/32/Arch_AWS-Deep-Learning-Containers_32</title>
    <desc>Created with Sketch.</desc>
    <defs>
        <linearGradient x1="0%" y1="100%" x2="100%" y2="0%" id="linearGradient-1">
            <stop stop-color="#055F4E" offset="0%"></stop>
            <stop stop-color="#56C0A7" offset="100%"></stop>
        </linearGradient>
    </defs>
    <g id="Icon-Architecture/32/Arch_AWS-Deep-Learning-Containers_32" stroke="none" stroke-width="1" fill="none" fill-rule="evenodd">
        <g id="Icon-Architecture-BG/32/Machine-Learning" fill="url(#linearGradient-1)">
            <rect id="Rectangle" x="0" y="0" width="40" height="40"></rect>
        </g>
        <path d="M8.25002623,14 L10.5000525,14 L10.5000525,13 L9.00003498,13 L9.75004372,12 L12.5000758,12 C12.5890768,12 12.6720778,11.969 12.7470787,11.925 L13.458087,13.347 L12.2460728,15 L10.0000466,15 L10.0000466,16 L12.5000758,16 C12.6590776,16 12.8100794,15.924 12.9030805,15.795 L14.2960967,13.896 L15.7241134,13.896 L17.0951294,15.793 C17.1881305,15.923 17.3401322,16 17.5001341,16 L19.4501568,16 L18.3081435,18 L8.76803227,18 L7.11201297,15.517 L8.25002623,14 Z M14.7071015,10 L17.2931317,10 L19.1461533,11.854 C19.2421544,11.948 19.3901561,11.999 19.5071575,12 L22.1911888,11.962 L23.5212043,13.715 L22.0781875,15.981 L22.9221973,16.519 L24.1642118,14.565 L24.8872202,15.519 L23.2322009,18 L19.4601569,18 L21.5801817,14.29 L20.7111715,13.793 L20.0001632,15.038 L20.0001632,15 L17.7561371,15 L16.5881235,13.384 L17.6871363,11.736 L16.8541266,11.181 L15.7121132,12.896 L14.3520974,12.896 L13.5040875,11.203 L14.7071015,10 Z M8.0840243,18.777 C8.17702538,18.917 8.3330272,19 8.50002915,19 L23.500204,19 C23.667206,19 23.8232078,18.917 23.9162089,18.777 L25.9162322,15.777 C26.0342336,15.6 26.0272335,15.368 25.898232,15.198 L22.8361963,11.157 C22.7401952,11.03 22.5771933,10.946 22.4311916,10.958 L19.7041598,10.997 L17.8541382,9.146 C17.7601371,9.053 17.6331356,9 17.5001341,9 L14.5000991,9 C14.3670976,9 14.2400961,9.053 14.146095,9.146 L12.2930734,11 L9.50004081,11 C9.34303898,11 9.19403724,11.074 9.10003615,11.2 L6.10000117,15.2 C5.97299969,15.37 5.96699962,15.601 6.08400098,15.777 L8.0840243,18.777 Z M32.3933077,21.584 C31.9673028,21.941 31.3482956,22.081 30.5492862,22.002 C30.3272836,21.984 30.1192812,22.107 30.0362803,22.314 C30.0012798,22.401 26.4512385,31 18.5001457,31 C14.2930967,31 7.29401509,29.816 7.00901176,22 L27.5002507,22 C27.6722527,22 27.8312545,21.912 27.9232556,21.767 C28.0152567,21.622 28.0252568,21.44 27.9512559,21.285 C26.8072426,18.878 28.1342581,17.455 28.6182637,17.041 C28.9272673,17.128 29.5232743,17.355 29.8542781,17.855 C30.1152812,18.249 30.1692818,18.761 30.01528,19.379 C29.9742795,19.542 30.0192801,19.716 30.1332814,19.84 C30.2482827,19.964 30.4202847,20.023 30.5842866,19.993 C30.6012868,19.992 31.8913019,19.783 32.9573143,20.68 C32.8933136,20.915 32.7403118,21.294 32.3933077,21.584 L32.3933077,21.584 Z M33.8543248,20.146 C32.9153138,19.208 31.7943008,19 31.0932926,18.975 C31.1422932,18.343 31.0062916,17.782 30.6882879,17.303 C29.9832796,16.238 28.6352639,16.015 28.5782633,16.006 C28.4542618,15.988 28.3272603,16.015 28.2222591,16.084 C28.1942588,16.103 25.6962297,17.823 26.759242,21 L6.5,21 C6.22400261,21 6,21.224 6,21.5 C6,30.636 13.8320913,32 18.5001457,32 C26.1872354,32 30.0372803,24.69 30.8152893,23.021 C31.7252999,23.043 32.4683086,22.825 33.0343152,22.352 C33.9023253,21.626 33.9953264,20.584 33.9983265,20.54 C34.0103266,20.394 33.957326,20.25 33.8543248,20.146 L33.8543248,20.146 Z" id="AWS-Deep-Learning-Containers_Icon_32_Squid" fill="#FFFFFF"></path>
    </g>
</svg>