<?xml version="1.0" encoding="UTF-8"?>
<svg width="40px" height="40px" viewBox="0 0 40 40" version="1.1" xmlns="http://www.w3.org/2000/svg" xmlns:xlink="http://www.w3.org/1999/xlink">
    <!-- Generator: Sketch 64 (93537) - https://sketch.com -->
    <title>Icon-Architecture/32/Arch_AWS-SageMaker_32</title>
    <desc>Created with Sketch.</desc>
    <defs>
        <linearGradient x1="0%" y1="100%" x2="100%" y2="0%" id="linearGradient-1">
            <stop stop-color="#055F4E" offset="0%"></stop>
            <stop stop-color="#56C0A7" offset="100%"></stop>
        </linearGradient>
    </defs>
    <g id="Icon-Architecture/32/Arch_AWS-SageMaker_32" stroke="none" stroke-width="1" fill="none" fill-rule="evenodd">
        <g id="Icon-Architecture-BG/32/Machine-Learning" fill="url(#linearGradient-1)">
            <rect id="Rectangle" x="0" y="0" width="40" height="40"></rect>
        </g>
        <path d="M27.2145795,12.9795633 C27.2145795,13.4115517 26.8620381,13.7635423 26.4293737,13.7635423 C25.9957077,13.7635423 25.6441678,13.4115517 25.6441678,12.9795633 C25.6441678,12.5475749 25.9957077,12.1955843 26.4293737,12.1955843 C26.8620381,12.1955843 27.2145795,12.5475749 27.2145795,12.9795633 L27.2145795,12.9795633 Z M23.6821547,17.9594299 C23.6821547,17.5274414 24.0336946,17.1754509 24.4673606,17.1754509 C24.900025,17.1754509 25.2525664,17.5274414 25.2525664,17.9594299 C25.2525664,18.3914183 24.900025,18.7434089 24.4673606,18.7434089 C24.0336946,18.7434089 23.6821547,18.3914183 23.6821547,17.9594299 L23.6821547,17.9594299 Z M23.464821,28.0211602 C23.464821,27.5891718 23.8163608,27.2371812 24.2490253,27.2371812 C24.6826913,27.2371812 25.0342311,27.5891718 25.0342311,28.0211602 C25.0342311,28.4531487 24.6826913,28.8051392 24.2490253,28.8051392 C23.8163608,28.8051392 23.464821,28.4531487 23.464821,28.0211602 L23.464821,28.0211602 Z M29.2977787,21.0453472 C29.2977787,21.4773356 28.9462389,21.8293262 28.5135744,21.8293262 C28.0799084,21.8293262 27.7283686,21.4773356 27.7283686,21.0453472 C27.7283686,20.6133587 28.0799084,20.2613682 28.5135744,20.2613682 C28.9462389,20.2613682 29.2977787,20.6133587 29.2977787,21.0453472 L29.2977787,21.0453472 Z M32.9984619,22.6383045 L30.2943091,21.0953458 C30.2943091,21.0783463 30.2993168,21.0623467 30.2993168,21.0453472 C30.2993168,20.0623735 29.4980863,19.261395 28.5135744,19.261395 C27.528061,19.261395 26.7268305,20.0623735 26.7268305,21.0453472 C26.7268305,22.0283208 27.528061,22.8292994 28.5135744,22.8292994 C29.1185034,22.8292994 29.6523232,22.5253075 29.9748185,22.0643199 L32.5477698,23.5332805 L30.2181922,25.0842389 C30.0789784,25.1772364 29.9948492,25.3332323 29.9948492,25.5002278 L29.9948492,29.2001286 L22.9930965,32.9290287 L19.9794685,31.2100748 L19.9794685,28.5211468 L22.5434059,28.5211468 C22.7617412,29.260127 23.438781,29.8051124 24.2490253,29.8051124 C25.2335372,29.8051124 26.0357692,29.0041339 26.0357692,28.0211602 C26.0357692,27.0381866 25.2335372,26.237208 24.2490253,26.237208 C23.438781,26.237208 22.7617412,26.7821934 22.5434059,27.5211736 L19.9794685,27.5211736 L19.9794685,20.5003618 C19.9794685,20.3483659 19.9103623,20.2053697 19.7921808,20.1093723 L17.2883357,18.1094259 L16.6623744,18.8914049 L18.9779304,20.7403553 L18.9779304,23.2032893 L15.9733162,24.8382455 L15.9733162,22.5003082 C15.9733162,22.3663118 15.9202346,22.2373152 15.8230855,22.1433177 L13.9281754,20.2903674 L13.9281754,17.5964396 L16.7304789,15.9304842 C16.8827127,15.8394867 16.9748542,15.6764911 16.9748542,15.5004958 L16.9748542,11.500603 L15.9733162,11.500603 L15.9733162,15.2165034 L13.430411,16.7284629 L10.945595,15.2195033 L10.945595,10.7976218 L12.9266373,9.72265061 L12.9266373,13.5005494 L13.9281754,13.5005494 L13.9281754,9.17966516 L16.0023608,8.05469531 L18.9769289,9.29866197 L18.9779304,15.5004958 C18.9779304,15.6804909 19.074078,15.8454865 19.230318,15.9344841 L22.6856244,17.9054313 C22.6856244,17.9244308 22.6806167,17.9404304 22.6806167,17.9594299 C22.6806167,18.9424035 23.4818471,19.7433821 24.4673606,19.7433821 C25.4518725,19.7433821 26.2541045,18.9424035 26.2541045,17.9594299 C26.2541045,16.9764562 25.4518725,16.1754777 24.4673606,16.1754777 C23.8634331,16.1754777 23.3306149,16.4784696 23.0071181,16.9374573 L19.9794685,15.2105035 L19.9784669,9.30066192 L22.9750689,8.04669552 L29.0143435,10.8206212 L29.0143435,12.4795767 L28.1359946,12.4795767 C27.9176593,11.7405965 27.2386164,11.1956111 26.4293737,11.1956111 C25.4438602,11.1956111 24.6426298,11.9965897 24.6426298,12.9795633 C24.6426298,13.962537 25.4438602,14.7635155 26.4293737,14.7635155 C27.2386164,14.7635155 27.9176593,14.2185301 28.1359946,13.4795499 L29.0143435,13.4795499 L29.0143435,15.5004958 C29.0143435,15.6894907 29.1205065,15.8624861 29.2897664,15.9474838 L32.9984619,17.8084339 L32.9984619,22.6383045 Z M15.9833315,32.919029 L13.9602246,31.6750623 L16.2086776,30.3470979 L15.6978932,29.486121 L12.9957435,31.0830782 L9.96408771,29.2211281 L9.96408771,25.7802203 L12.1985192,24.411257 L11.6737132,23.5582798 L9.47633866,24.9052437 L7.00153808,23.2342885 L7.00153808,20.8083535 L10.2164753,18.9324038 L9.71170011,18.068427 L7.00153808,19.6503846 L7.00153808,17.8074339 L10.4227921,16.0724804 L12.9266373,17.5934397 L12.9266373,20.229369 L10.6932074,21.6743303 L11.2390457,22.5133078 L13.3643095,21.1373447 L14.9717781,22.7103026 L14.9717781,25.3832309 L12.7513682,26.5921985 L13.2301034,27.470175 L18.9779304,24.3422588 L18.9779304,31.2100748 L15.9833315,32.919029 Z M33.724577,17.0534542 L30.0158815,15.192504 L30.0158815,10.5006298 C30.0158815,10.305635 29.9027077,10.1276398 29.724434,10.0466419 L23.1934042,7.04672232 C23.0652073,6.9877239 22.9189827,6.98372401 22.7907858,7.03972251 L19.479701,8.42568537 L16.1676146,7.03972251 C16.0253961,6.97972412 15.8681547,6.98872388 15.7349501,7.06172192 L10.2064599,10.0616415 C10.0442108,10.1486392 9.94405694,10.3176347 9.94405694,10.5006298 L9.94405694,15.193504 L6.27442143,17.0544541 C6.10616304,17.1404518 6,17.3124472 6,17.5004422 L6,23.5002814 C6,23.6662769 6.08212612,23.8212728 6.22033838,23.9142703 L8.96254963,25.7662207 L8.96254963,29.5001206 C8.96254963,29.6741159 9.05268806,29.8351116 9.20191723,29.9261092 L15.7119147,33.926002 C15.7920378,33.9750007 15.8831777,34 15.9733162,34 C16.0594484,34 16.1445792,33.9780006 16.2216976,33.9340018 L19.4786994,32.0760516 L22.7357013,33.9340018 C22.8128197,33.9780006 22.8979504,34 22.9840827,34 C23.0652073,34 23.1463319,33.9800005 23.2204457,33.9410016 L30.7319813,29.9411088 C30.895232,29.8541111 30.9963873,29.6851156 30.9963873,29.5001206 L30.9963873,25.7682206 L33.7776585,23.9162702 C33.9158708,23.8232727 34,23.6672769 34,23.5002814 L34,17.5004422 C34,17.3114472 33.893837,17.1384519 33.724577,17.0534542 L33.724577,17.0534542 Z" id="AWS-SageMaker_Icon_32_Squid" fill="#FFFFFF"></path>
    </g>
</svg>