<?xml version="1.0" encoding="UTF-8"?>
<svg width="40px" height="40px" viewBox="0 0 40 40" version="1.1" xmlns="http://www.w3.org/2000/svg" xmlns:xlink="http://www.w3.org/1999/xlink">
    <!-- Generator: Sketch 64 (93537) - https://sketch.com -->
    <title>Icon-Architecture/32/Arch_Amazon-Translate_32</title>
    <desc>Created with Sketch.</desc>
    <defs>
        <linearGradient x1="0%" y1="100%" x2="100%" y2="0%" id="linearGradient-1">
            <stop stop-color="#055F4E" offset="0%"></stop>
            <stop stop-color="#56C0A7" offset="100%"></stop>
        </linearGradient>
    </defs>
    <g id="Icon-Architecture/32/Arch_Amazon-Translate_32" stroke="none" stroke-width="1" fill="none" fill-rule="evenodd">
        <g id="Icon-Architecture-BG/32/Machine-Learning" fill="url(#linearGradient-1)">
            <rect id="Rectangle" x="0" y="0" width="40" height="40"></rect>
        </g>
        <path d="M26.0320134,8.99921423 L26.0320134,11.9654261 L24.4337981,9.71026502 L23.6146124,10.2883063 L26.1243726,13.8295593 C26.2187395,13.9615687 26.371333,14.0415744 26.5339654,14.0415744 C26.6965979,14.0415744 26.8491913,13.9615687 26.9435583,13.8295593 L29.4533185,10.2883063 L28.6341327,9.71026502 L27.0359175,11.9654261 L27.0359175,8.99921423 C27.0359175,7.15108222 25.8824317,6.00300021 24.0242052,6.00300021 L22.0163971,6.00300021 L22.0163971,7.00307165 L24.0242052,7.00307165 C25.3192415,7.00307165 26.0320134,7.71212229 26.0320134,8.99921423 L26.0320134,8.99921423 Z M13.9851645,30.9797843 L13.9851645,28.0345739 L15.5833798,30.289735 L16.4025655,29.7116937 L13.8928054,26.1704407 C13.7050753,25.9054218 13.2613497,25.9054218 13.0736196,26.1704407 L10.5638595,29.7116937 L11.3830452,30.289735 L12.9812605,28.0345739 L12.9812605,30.9797843 C12.9812605,32.8419173 14.1347462,33.9989999 15.9929727,33.9989999 L18.0007808,33.9989999 L18.0007808,32.9989285 L15.9929727,32.9989285 C14.6979364,32.9989285 13.9851645,32.2818773 13.9851645,30.9797843 L13.9851645,30.9797843 Z M26.9616286,26.8844917 C27.5699944,26.230445 28.045845,25.4533895 28.4052426,24.521323 L25.4638037,24.521323 C25.8312326,25.431388 26.3341885,26.2234445 26.9616286,26.8844917 L26.9616286,26.8844917 Z M30.9380926,29.1366526 C30.9631902,29.2246589 30.9390965,29.3196657 30.8738427,29.3846703 C30.7724484,29.4856775 30.6178472,29.7006929 30.5375349,29.8537038 C30.4923592,29.9377098 30.4060234,29.9877134 30.3146682,29.9877134 C30.2935862,29.9877134 30.2735081,29.9857133 30.2514222,29.9797128 C28.9463469,29.645689 27.857111,29.1076505 26.9284997,28.3395957 C26.0530954,29.030645 24.978918,29.5646832 23.6547685,29.9687121 C23.5292805,30.0077148 23.3967652,29.9437103 23.3475739,29.8237017 C23.3054099,29.7226945 23.1698829,29.5216801 23.0755159,29.4046718 C23.022309,29.338667 23.0052426,29.2506608 23.0313441,29.170655 C23.0564417,29.0896493 23.1206916,29.0276448 23.2020078,29.0046432 C24.3956497,28.6636188 25.3654211,28.2055861 26.1554936,27.6055433 C25.3945343,26.7694835 24.7841606,25.7334095 24.3364194,24.521323 L23.3425544,24.521323 C23.2040156,24.521323 23.0905745,24.409315 23.0905745,24.270305 L23.0905745,23.7482677 C23.0905745,23.6092578 23.2040156,23.4972498 23.3425544,23.4972498 L26.4185165,23.4972498 L26.4185165,22.3641689 C26.4185165,22.2941639 26.4466258,22.2281592 26.4978249,22.1811558 C26.5480201,22.1331524 26.6162856,22.1121509 26.6865588,22.1131169 L27.3923034,22.1611544 C27.4635806,22.1661547 27.5278305,22.1991571 27.5720022,22.2531609 C27.616174,22.3071648 27.6362521,22.3771698 27.6262131,22.4471748 C27.6181818,22.5031788 27.5870608,22.6141867 27.4706079,22.6931924 L27.4706079,23.4972498 L30.6007808,23.4972498 C30.7393196,23.4972498 30.8527607,23.6092578 30.8527607,23.7482677 L30.8527607,24.270305 C30.8527607,24.409315 30.7393196,24.521323 30.6007808,24.521323 L29.699275,24.521323 C29.6601227,24.5873277 29.5928611,24.6533324 29.4764083,24.6873348 C29.0467373,25.8484177 28.4775237,26.803486 27.741662,27.5925423 C28.5909649,28.2405886 29.6018963,28.7016215 30.7513664,28.9616401 C30.8407139,28.9816415 30.9119911,29.0496464 30.9380926,29.1366526 L30.9380926,29.1366526 Z M15.3203569,16.6087578 L13.9941997,12.7684835 L12.6780814,16.6087578 L15.3203569,16.6087578 Z M14.63971,11.7284092 L17.5430006,19.5569684 L16.3413274,19.5569684 L15.6155047,17.4788199 L12.3839375,17.4788199 L11.6812047,19.5569684 L10.4905745,19.5569684 L13.3928611,11.7284092 L14.63971,11.7284092 Z M32.9960959,32.9999286 L32.9960959,20.0570041 L28.5829336,20.0570041 C28.3058561,20.0570041 28.0809816,19.8329881 28.0809816,19.5569684 L28.0809816,15.9787128 L20.9703291,15.9787128 L20.9703291,32.9999286 L32.9960959,32.9999286 Z M29.0848857,19.0569326 L32.1136642,19.0569326 L29.0848857,16.541753 L29.0848857,19.0569326 Z M34,19.5569684 L34,33.4999643 C34,33.775984 33.7761294,34 33.498048,34 L20.468377,34 C20.1912995,34 19.966425,33.775984 19.966425,33.4999643 L19.966425,15.478677 C19.966425,15.2026573 20.1912995,14.9786413 20.468377,14.9786413 L28.5829336,14.9786413 C28.6983826,14.9786413 28.8128277,15.0136438 28.9041829,15.0896493 L33.8203012,19.1729409 C33.9357501,19.2699479 34,19.411958 34,19.5569684 L34,19.5569684 Z M17.02599,9.95828273 L19.2626882,9.95828273 L17.02599,7.71312237 L17.02599,9.95828273 Z M8.00390407,17.9998571 L7,17.9998571 L7,6.50203586 C7,6.22601614 7.22487451,6.00200014 7.50195204,6.00200014 L16.5240379,6 C16.6545455,6 16.7830452,6.05100364 16.8804239,6.14801057 L20.824763,10.1062933 C20.9191299,10.2013001 20.9703291,10.3293092 20.9703291,10.4583185 L20.9703291,12.9995 L19.966425,12.9995 L19.966425,10.9583542 L16.5240379,10.9583542 C16.2469604,10.9583542 16.0220859,10.7343382 16.0220859,10.4583185 L16.0220859,7.00007143 L8.00390407,7.00207158 L8.00390407,17.9998571 Z M8.00390407,24.0212872 L18.0007808,24.0212872 L18.0007808,25.0213587 L7.50195204,25.0213587 C7.22487451,25.0213587 7,24.7973427 7,24.521323 L7,21.0000714 L8.00390407,21.0000714 L8.00390407,24.0212872 Z" id="Amazon-Translate_Icon_32_Squid" fill="#FFFFFF"></path>
    </g>
</svg>