<?xml version="1.0" encoding="UTF-8"?>
<svg width="40px" height="40px" viewBox="0 0 40 40" version="1.1" xmlns="http://www.w3.org/2000/svg" xmlns:xlink="http://www.w3.org/1999/xlink">
    <title>Icon-Architecture/32/Arch_AWS-Omni_32</title>
    <defs>
        <linearGradient x1="0%" y1="100%" x2="100%" y2="0%" id="linearGradient-1">
            <stop stop-color="#055F4E" offset="0%"></stop>
            <stop stop-color="#56C0A7" offset="100%"></stop>
        </linearGradient>
    </defs>
    <g id="Icon-Architecture/32/Arch_AWS-Omni_32" stroke="none" stroke-width="1" fill="none" fill-rule="evenodd">
        <g id="Rectangle" fill="url(#linearGradient-1)">
            <rect x="0" y="0" width="40" height="40"></rect>
        </g>
        <g id="Icon-Service/32/AWS-Omni_32" transform="translate(4.000000, 4.000000)" fill="#FFFFFF">
            <path d="M25.5,23.0127268 L20,23.0127268 L20,24.0109087 L25.5,24.0109087 C26.879,24.0109087 28,25.1308688 28,26.5063634 C28,27.881858 26.879,29.0018181 25.5,29.0018181 L5.5,29.0018181 C4.121,29.0018181 3,27.881858 3,26.5063634 C3,25.1308688 4.121,24.0109087 5.5,24.0109087 L10.992,24.0109087 L10.992,23.0127268 L5.5,23.0127268 C3.57,23.0127268 2,24.5798724 2,26.5063634 C2,28.4328544 3.57,30 5.5,30 L25.5,30 C27.43,30 29,28.4328544 29,26.5063634 C29,24.5798724 27.43,23.0127268 25.5,23.0127268 L25.5,23.0127268 Z M7.5,9.03818046 C8.327,9.03818046 9,8.36640405 9,7.54090763 C9,6.71541122 8.327,6.04363481 7.5,6.04363481 C6.673,6.04363481 6,6.71541122 6,7.54090763 C6,8.36640405 6.673,9.03818046 7.5,9.03818046 L7.5,9.03818046 Z M13,14.5281808 L13,27.0054544 L12,27.0054544 L12,14.9374354 L7.402,14.0191081 C7.168,13.9721935 7,13.7675662 7,13.5299989 L7,9.98545506 C5.86,9.75387687 5,8.74571317 5,7.54090763 C5,6.165413 6.121,5.04545293 7.5,5.04545293 C8.879,5.04545293 10,6.165413 10,7.54090763 C10,8.74571317 9.14,9.75387687 8,9.98545506 L8,13.1207444 L12.598,14.0390717 C12.832,14.0859862 13,14.2906135 13,14.5281808 L13,14.5281808 Z M17.1,4.49545471 C17.1,3.66995829 16.427,2.99818188 15.6,2.99818188 C14.772,2.99818188 14.1,3.66995829 14.1,4.49545471 C14.1,5.32095112 14.772,5.99272753 15.6,5.99272753 C16.427,5.99272753 17.1,5.32095112 17.1,4.49545471 L17.1,4.49545471 Z M16,6.94998396 L16,24.0109087 L15,24.0109087 L15,6.91005668 C13.911,6.64054757 13.1,5.66432569 13.1,4.49545471 C13.1,3.11896189 14.221,2 15.6,2 C16.979,2 18.1,3.11896189 18.1,4.49545471 C18.1,5.73419842 17.187,6.75733485 16,6.94998396 L16,6.94998396 Z M25,12.531817 C25,11.7063206 24.327,11.0345442 23.5,11.0345442 C22.673,11.0345442 22,11.7063206 22,12.531817 C22,13.3573135 22.673,14.0290899 23.5,14.0290899 C24.327,14.0290899 25,13.3573135 25,12.531817 L25,12.531817 Z M26,12.531817 C26,13.9073117 24.879,15.0272718 23.5,15.0272718 C22.292,15.0272718 21.283,14.1688353 21.051,13.030908 L19,13.030908 L19,27.0054544 L18,27.0054544 L18,12.531817 C18,12.2563188 18.224,12.0327261 18.5,12.0327261 L21.051,12.0327261 C21.283,10.8947988 22.292,10.0363623 23.5,10.0363623 C24.879,10.0363623 26,11.1563224 26,12.531817 L26,12.531817 Z M21,27.0054544 L23,27.0054544 L23,26.0072725 L21,26.0072725 L21,27.0054544 Z M24,27.0054544 L26,27.0054544 L26,26.0072725 L24,26.0072725 L24,27.0054544 Z" id="Fill-7"></path>
        </g>
    </g>
</svg>