<?xml version="1.0" encoding="UTF-8"?>
<svg width="40px" height="40px" viewBox="0 0 40 40" version="1.1" xmlns="http://www.w3.org/2000/svg" xmlns:xlink="http://www.w3.org/1999/xlink">
    <!-- Generator: Sketch 64 (93537) - https://sketch.com -->
    <title>Icon-Architecture/32/Arch_Amazon-Rekognition_32</title>
    <desc>Created with Sketch.</desc>
    <defs>
        <linearGradient x1="0%" y1="100%" x2="100%" y2="0%" id="linearGradient-1">
            <stop stop-color="#055F4E" offset="0%"></stop>
            <stop stop-color="#56C0A7" offset="100%"></stop>
        </linearGradient>
    </defs>
    <g id="Icon-Architecture/32/Arch_Amazon-Rekognition_32" stroke="none" stroke-width="1" fill="none" fill-rule="evenodd">
        <g id="Icon-Architecture-BG/32/Machine-Learning" fill="url(#linearGradient-1)">
            <rect id="Rectangle" x="0" y="0" width="40" height="40"></rect>
        </g>
        <path d="M32.6871111,30.2980091 L26.2296969,24.0110073 C25.601699,24.8587153 24.8530855,25.6086876 24.0047898,26.2379862 L30.3047061,32.6885458 C30.6147178,32.9987072 30.9865325,33.0256344 31.2327475,32.9917261 C31.6215082,32.9418609 32.0252212,32.725446 32.3701217,32.380379 C32.9652245,31.7839914 33.265268,30.8774425 32.6871111,30.2980091 L32.6871111,30.2980091 Z M17.6679911,27.3479851 C22.999993,27.3479851 27.33916,23.0077199 27.33916,17.6721457 C27.33916,12.3375688 22.999993,7.99730359 17.6679911,7.99730359 C12.3349924,7.99730359 7.99682219,12.3375688 7.99682219,17.6721457 C7.99682219,23.0077199 12.3349924,27.3479851 17.6679911,27.3479851 L17.6679911,27.3479851 Z M33.074875,33.0854726 C32.575467,33.586119 31.9654119,33.9042589 31.359344,33.9810512 C31.2606586,33.9940162 31.1649636,34 31.0682719,34 C30.5090546,34 29.9946944,33.7885716 29.5959655,33.3896502 L23.1634719,26.80246 C21.5555977,27.774831 19.6795783,28.3452887 17.6679911,28.3452887 C11.7857434,28.3452887 7,23.5572341 7,17.6721457 C7,11.7870572 11.7857434,7 17.6679911,7 C23.5502389,7 28.3359822,11.7870572 28.3359822,17.6721457 C28.3359822,19.683707 27.7657999,21.5616297 26.7948951,23.169283 L33.3868803,29.5879289 C34.3109345,30.5124294 34.1773603,31.9814575 33.074875,33.0854726 L33.074875,33.0854726 Z M24.4533598,17.6721457 C24.4533598,13.8654379 21.4728614,10.8835002 17.6679911,10.8835002 C13.8631208,10.8835002 10.8826224,13.8654379 10.8826224,17.6721457 C10.8826224,21.4788535 13.8631208,24.4607912 17.6679911,24.4607912 C21.4728614,24.4607912 24.4533598,21.4788535 24.4533598,17.6721457 L24.4533598,17.6721457 Z M25.450182,17.6721457 C25.450182,22.0383408 22.0320787,25.4580948 17.6679911,25.4580948 C13.3039036,25.4580948 9.88580025,22.0383408 9.88580025,17.6721457 C9.88580025,13.3059506 13.3039036,9.88619658 17.6679911,9.88619658 C22.0320787,9.88619658 25.450182,13.3059506 25.450182,17.6721457 L25.450182,17.6721457 Z M15.218799,19.6138958 L14.2219768,19.6138958 L14.2219768,21.6085029 L16.2156212,21.6085029 L16.2156212,20.6111993 L15.218799,20.6111993 L15.218799,19.6138958 Z M14.2219768,15.6246814 L15.218799,15.6246814 L15.218799,14.6273778 L16.2156212,14.6273778 L16.2156212,13.6300742 L14.2219768,13.6300742 L14.2219768,15.6246814 Z M19.2060878,14.6273778 L20.20291,14.6273778 L20.20291,15.6246814 L21.1997322,15.6246814 L21.1997322,13.6300742 L19.2060878,13.6300742 L19.2060878,14.6273778 Z M20.20291,19.6138958 L21.1997322,19.6138958 L21.1997322,21.6085029 L19.2060878,21.6085029 L19.2060878,20.6111993 L20.20291,20.6111993 L20.20291,19.6138958 Z" id="Amazon-Rekognition-Icon_32_Squid" fill="#FFFFFF"></path>
    </g>
</svg>