<?xml version="1.0" encoding="UTF-8"?>
<svg width="40px" height="40px" viewBox="0 0 40 40" version="1.1" xmlns="http://www.w3.org/2000/svg" xmlns:xlink="http://www.w3.org/1999/xlink">
    <!-- Generator: Sketch 64 (93537) - https://sketch.com -->
    <title>Icon-Architecture/32/Arch_AWS-SageMaker-Ground-Truth_32</title>
    <desc>Created with Sketch.</desc>
    <defs>
        <linearGradient x1="0%" y1="100%" x2="100%" y2="0%" id="linearGradient-1">
            <stop stop-color="#055F4E" offset="0%"></stop>
            <stop stop-color="#56C0A7" offset="100%"></stop>
        </linearGradient>
    </defs>
    <g id="Icon-Architecture/32/Arch_AWS-SageMaker-Ground-Truth_32" stroke="none" stroke-width="1" fill="none" fill-rule="evenodd">
        <g id="Icon-Architecture-BG/32/Machine-Learning" fill="url(#linearGradient-1)">
            <rect id="Rectangle" x="0" y="0" width="40" height="40"></rect>
        </g>
        <path d="M20.7857066,24.5394643 C20.7857066,24.9792998 20.4331652,25.3376843 20.0005008,25.3376843 C19.5678363,25.3376843 19.2162965,24.9792998 19.2162965,24.5394643 C19.2162965,24.0996288 19.5678363,23.7412443 20.0005008,23.7412443 C20.4331652,23.7412443 20.7857066,24.0996288 20.7857066,24.5394643 L20.7857066,24.5394643 Z M18.2147584,24.5394643 C18.2147584,25.5402937 19.0149873,26.355822 20.0005008,26.355822 C20.9850127,26.355822 21.7872447,25.5402937 21.7872447,24.5394643 C21.7872447,23.5386349 20.9850127,22.7231066 20.0005008,22.7231066 C19.0149873,22.7231066 18.2147584,23.5386349 18.2147584,24.5394643 L18.2147584,24.5394643 Z M18.9779304,29.985483 L20.9810065,29.985483 L20.9810065,28.9673452 L18.9779304,28.9673452 L18.9779304,29.985483 Z M17.92932,31.020929 L22.07068,31.020929 L22.07068,27.9329173 L17.92932,27.9329173 L17.92932,31.020929 Z M16.927782,27.4238484 L16.927782,31.5299979 C16.927782,31.8110039 17.1521265,32.0390667 17.428551,32.0390667 L22.571449,32.0390667 C22.8488751,32.0390667 23.072218,31.8110039 23.072218,31.5299979 L23.072218,27.4238484 C23.072218,27.1418243 22.8488751,26.9147796 22.571449,26.9147796 L17.428551,26.9147796 C17.1521265,26.9147796 16.927782,27.1418243 16.927782,27.4238484 L16.927782,27.4238484 Z M23.9996423,32.9818623 L16.0013592,32.9818623 L16.0013592,24.0904655 L20.0005008,21.3761104 L23.9996423,24.0904655 L23.9996423,32.9818623 Z M20.2779268,20.3396462 C20.1096684,20.2256147 19.8903316,20.2256147 19.7220732,20.3396462 L15.2221626,23.3940593 C15.0829488,23.4887461 14.9998212,23.6485938 14.9998212,23.8186228 L14.9998212,33.4909311 C14.9998212,33.7719372 15.2231641,34 15.5005902,34 L24.5004113,34 C24.7768359,34 25.0011804,33.7719372 25.0011804,33.4909311 L25.0011804,23.8186228 C25.0011804,23.6485938 24.9180527,23.4887461 24.7778374,23.3940593 L20.2779268,20.3396462 Z M28.5135744,21.0981588 C28.0799084,21.0981588 27.7283686,20.7407924 27.7283686,20.2999388 C27.7283686,19.8601033 28.0799084,19.502737 28.5135744,19.502737 C28.9452373,19.502737 29.2977787,19.8601033 29.2977787,20.2999388 C29.2977787,20.7407924 28.9452373,21.0981588 28.5135744,21.0981588 L28.5135744,21.0981588 Z M26.4293737,12.8858599 C25.9957077,12.8858599 25.6441678,12.5284936 25.6441678,12.0886581 C25.6441678,11.6478044 25.9957077,11.2904381 26.4293737,11.2904381 C26.8620381,11.2904381 27.2145795,11.6478044 27.2145795,12.0886581 C27.2145795,12.5284936 26.8620381,12.8858599 26.4293737,12.8858599 L26.4293737,12.8858599 Z M24.4673606,16.3607639 C24.900025,16.3607639 25.2525664,16.7181303 25.2525664,17.1579658 C25.2525664,17.5988194 24.900025,17.9561858 24.4673606,17.9561858 C24.0336946,17.9561858 23.6821547,17.5988194 23.6821547,17.1579658 C23.6821547,16.7181303 24.0336946,16.3607639 24.4673606,16.3607639 L24.4673606,16.3607639 Z M33.724577,16.2365511 L30.0158815,14.3407787 L30.0158815,9.56469464 C30.0158815,9.36513965 29.9027077,9.18492927 29.724434,9.10144198 L23.1934042,6.04702881 C23.0652073,5.98695868 22.9189827,5.98390427 22.7907858,6.04091998 L19.479701,7.45104073 L16.1676146,6.04091998 C16.0253961,5.97983172 15.8681547,5.98899496 15.7349501,6.06230088 L10.2064599,9.11671405 C10.0442108,9.20529203 9.94405694,9.3773573 9.94405694,9.56469464 L9.94405694,14.342815 L6.27442143,16.2375693 C6.10616304,16.324111 6,16.4992307 6,16.6916587 L6,22.800485 C6,22.9694959 6.08212612,23.1273073 6.22033838,23.2219941 L8.96254963,25.106567 L8.96254963,28.9093114 C8.96254963,29.0783222 9.04667883,29.2381699 9.18589262,29.3328567 L13.692814,32.3872698 L14.2486676,31.5391611 L9.96408771,28.6364505 L9.96408771,24.8367605 C9.96408771,24.6667315 9.88196158,24.5089201 9.74475087,24.4142333 L7.00153808,22.5296604 L7.00153808,20.0596583 L10.2164753,18.1486138 L9.71170011,17.2699609 L7.00153808,18.8796367 L7.00153808,17.0032088 L10.4227921,15.2367399 L12.9266373,16.7853274 L12.9266373,19.5037551 L10.6501413,21.3873099 L11.2821118,22.1763666 L13.4324141,20.39768 L15.6638409,22.1824754 L16.283793,21.3812011 L13.9281754,19.4976463 L13.9281754,16.7883818 L16.7304789,15.0921643 C16.8827127,15.0005319 16.9748542,14.8345755 16.9748542,14.6553833 L16.9748542,10.5828324 L15.9733162,10.5828324 L15.9733162,14.365214 L13.430411,15.9056564 L10.945595,14.3682684 L10.945595,9.86708155 L12.9266373,8.77258349 L12.9266373,12.6191078 L13.9281754,12.6191078 L13.9281754,8.21871657 L16.0023608,7.07331163 L18.9769289,8.3408931 L18.9779304,14.6553833 C18.9779304,14.8376299 19.074078,15.0066408 19.230318,15.097255 L22.6846228,17.1040045 C22.6846228,17.122331 22.6806167,17.1396393 22.6806167,17.1579658 C22.6806167,18.1598133 23.4818471,18.9743235 24.4673606,18.9743235 C25.4518725,18.9743235 26.2541045,18.1598133 26.2541045,17.1579658 C26.2541045,16.1571364 25.4518725,15.3426262 24.4673606,15.3426262 C23.8634331,15.3426262 23.3306149,15.6501038 23.0071181,16.1184472 L19.9794685,14.3591052 L19.9784669,8.34191124 L22.9750689,7.06516653 L29.0143435,9.89049871 L29.0143435,11.5795892 L28.1359946,11.5795892 C27.9176593,10.8261673 27.2386164,10.2723004 26.4293737,10.2723004 C25.4438602,10.2723004 24.6426298,11.0868105 24.6426298,12.0886581 C24.6426298,13.0894874 25.4438602,13.9039976 26.4293737,13.9039976 C27.2386164,13.9039976 27.9176593,13.3501307 28.1359946,12.5977269 L29.0143435,12.5977269 L29.0143435,14.6553833 C29.0143435,14.8467932 29.1205065,15.022931 29.2897664,15.1094727 L32.9984619,17.0052451 L32.9984619,21.9218322 L30.2943091,20.3508457 C30.2943091,20.3345555 30.2993168,20.3182653 30.2993168,20.2999388 C30.2993168,19.2991094 29.4980863,18.4845992 28.5135744,18.4845992 C27.528061,18.4845992 26.7268305,19.2991094 26.7268305,20.2999388 C26.7268305,21.3017863 27.528061,22.1162965 28.5135744,22.1162965 C29.1185034,22.1162965 29.6523232,21.8067826 29.9748185,21.3384393 L32.5477698,22.8330655 L30.2181922,24.4121971 C30.0789784,24.5068839 29.9948492,24.6667315 29.9948492,24.8367605 L29.9948492,28.6364505 L25.7112709,31.5391611 L26.2671245,32.3872698 L30.7740459,29.3328567 C30.9122581,29.2381699 30.9963873,29.0783222 30.9963873,28.9093114 L30.9963873,25.1086033 L33.7776585,23.2240303 C33.9158708,23.1293435 34,22.9694959 34,22.800485 L34,16.6916587 C34,16.4992307 33.893837,16.3230929 33.724577,16.2365511 L33.724577,16.2365511 Z" id="AWS-SageMaker-Ground-Truth_Icon_32_Squid" fill="#FFFFFF"></path>
    </g>
</svg>