<?xml version="1.0" encoding="UTF-8"?>
<svg width="40px" height="40px" viewBox="0 0 40 40" version="1.1" xmlns="http://www.w3.org/2000/svg" xmlns:xlink="http://www.w3.org/1999/xlink">
    <!-- Generator: Sketch 64 (93537) - https://sketch.com -->
    <title>Icon-Architecture/32/Arch_Amazon-Comprehend_32</title>
    <desc>Created with Sketch.</desc>
    <defs>
        <linearGradient x1="0%" y1="100%" x2="100%" y2="0%" id="linearGradient-1">
            <stop stop-color="#055F4E" offset="0%"></stop>
            <stop stop-color="#56C0A7" offset="100%"></stop>
        </linearGradient>
    </defs>
    <g id="Icon-Architecture/32/Arch_Amazon-Comprehend_32" stroke="none" stroke-width="1" fill="none" fill-rule="evenodd">
        <g id="Icon-Architecture-BG/32/Machine-Learning" fill="url(#linearGradient-1)">
            <rect id="Rectangle" x="0" y="0" width="40" height="40"></rect>
        </g>
        <path d="M26.9995993,34 L29.9995421,34 L29.9995421,33 L26.9995993,33 L26.9995993,34 Z M8.99994276,25 L16.9997901,25 L16.9997901,24 L8.99994276,24 L8.99994276,25 Z M16.9997901,22 L20.9997138,22 L20.9997138,21 L16.9997901,21 L16.9997901,22 Z M8.99994276,22 L15.9998092,22 L15.9998092,21 L8.99994276,21 L8.99994276,22 Z M8.99994276,13 L14.9998283,13 L14.9998283,12 L8.99994276,12 L8.99994276,13 Z M30.2795368,28.051 C30.10854,28.135 29.9995421,28.31 29.9995421,28.5 L29.9995421,31 L28.9315625,31 L28.9315625,27 L29.9995421,27 L29.9995421,26 L28.9315625,26 L27.9315816,26 L26.9995993,26 L26.9995993,27 L27.9995803,27 L27.9995803,31 L26.9316006,31 L26.9316006,28.5 C26.9316006,28.31 26.8236027,28.136 26.652606,28.052 C26.6266065,28.039 23.9616573,26.68 23.9996566,23.359 C23.9826569,22.431 24.4616478,21.397 25.3136315,20.524 C26.2376139,19.577 27.4305911,19.007 28.5025707,19 L28.5205703,19 C29.5435508,19 30.7095286,19.563 31.6445107,20.509 C32.5094942,21.384 33.0164846,22.45 32.9994849,23.375 C33.0374842,26.657 30.3935346,27.995 30.2795368,28.051 L30.2795368,28.051 Z M32.3554972,19.806 C31.2365185,18.674 29.8045458,18 28.5205703,18 L28.4965708,18 C27.1625962,18.009 25.7046241,18.691 24.5986452,19.826 C23.560665,20.889 22.9786761,22.184 22.9996757,23.363 C22.9616764,26.648 25.1406348,28.299 25.9316197,28.79 L25.9316197,31.5 C25.9316197,31.776 26.1546155,32 26.4316102,32 L30.4995326,32 C30.7755273,32 30.999523,31.776 30.999523,31.5 L30.999523,28.793 C31.8065076,28.305 34.0374651,26.656 33.9994658,23.378 C34.0204654,22.187 33.4214768,20.884 32.3554972,19.806 L32.3554972,19.806 Z M8.99994276,19 L20.9997138,19 L20.9997138,18 L8.99994276,18 L8.99994276,19 Z M12.9998664,16 L20.9997138,16 L20.9997138,15 L12.9998664,15 L12.9998664,16 Z M8.99994276,16 L11.9998855,16 L11.9998855,15 L8.99994276,15 L8.99994276,16 Z M17.9997711,7.707 L22.2926892,12 L17.9997711,12 L17.9997711,7.707 Z M22.9996757,31 L6.99998092,31 L6.99998092,7 L16.9997901,7 L16.9997901,12.5 C16.9997901,12.776 17.2237859,13 17.4997806,13 L22.9996757,13 L22.9996757,19 L23.9996566,19 L23.9976566,12.452 C23.9956567,12.324 23.9466576,12.24 23.8536594,12.146 L17.9997711,6 L6.5,6.002 C6.22399573,6.002 6,6.227 6,6.502 L6,31.5 C6,31.776 6.22399573,32 6.5,32 L23.4996661,32 C23.7756609,32 23.9996566,31.776 23.9996566,31.5 L23.9996566,28 L22.9996757,28 L22.9996757,31 Z" id="Amazon-Comprehend_Icon_32_Squid" fill="#FFFFFF"></path>
    </g>
</svg>