<?xml version="1.0" encoding="UTF-8"?>
<svg width="40px" height="40px" viewBox="0 0 40 40" version="1.1" xmlns="http://www.w3.org/2000/svg" xmlns:xlink="http://www.w3.org/1999/xlink">
    <!-- Generator: Sketch 64 (93537) - https://sketch.com -->
    <title>Icon-Architecture/32/Arch_Amazon-Kendra_32</title>
    <desc>Created with Sketch.</desc>
    <defs>
        <linearGradient x1="0%" y1="100%" x2="100%" y2="0%" id="linearGradient-1">
            <stop stop-color="#055F4E" offset="0%"></stop>
            <stop stop-color="#56C0A7" offset="100%"></stop>
        </linearGradient>
    </defs>
    <g id="Icon-Architecture/32/Arch_Amazon-Kendra_32" stroke="none" stroke-width="1" fill="none" fill-rule="evenodd">
        <g id="Icon-Architecture-BG/32/Machine-Learning" fill="url(#linearGradient-1)">
            <rect id="Rectangle" x="0" y="0" width="40" height="40"></rect>
        </g>
        <path d="M7.00412969,16.0195317 L31.0371672,16.0195317 L31.0371672,15.0179041 L7.00412969,15.0179041 L7.00412969,16.0195317 Z M18.0192719,8.00651058 L31.0371672,8.00651058 L31.0371672,7.00488293 L18.0192719,7.00488293 L18.0192719,8.00651058 Z M13.0123891,8.00651058 L15.0151422,8.00651058 L15.0151422,7.00488293 L13.0123891,7.00488293 L13.0123891,8.00651058 Z M10.0082594,8.00651058 L12.0110125,8.00651058 L12.0110125,7.00488293 L10.0082594,7.00488293 L10.0082594,8.00651058 Z M7.00412969,8.00651058 L9.00688281,8.00651058 L9.00688281,7.00488293 L7.00412969,7.00488293 L7.00412969,8.00651058 Z M28.5337258,25.0341805 C28.5337258,27.0033805 26.9916059,28.5458871 25.0228995,28.5458871 C23.0541932,28.5458871 21.5120733,27.0033805 21.5120733,25.0341805 C21.5120733,23.0649806 23.0541932,21.522474 25.0228995,21.522474 C26.9916059,21.522474 28.5337258,23.0649806 28.5337258,25.0341805 L28.5337258,25.0341805 Z M29.5351023,25.0341805 C29.5351023,22.5030675 27.5533781,20.5208464 25.0228995,20.5208464 C22.4934224,20.5208464 20.5106968,22.5030675 20.5106968,25.0341805 C20.5106968,27.5652936 22.4934224,29.5475147 25.0228995,29.5475147 C27.5533781,29.5475147 29.5351023,27.5652936 29.5351023,25.0341805 L29.5351023,25.0341805 Z M34.8303816,33.3717291 L30.9690736,29.6136221 C30.5785367,30.1194441 30.1269159,30.5721798 29.6222221,30.9648178 L33.3853952,34.8250908 C33.5205811,34.9623138 33.6938192,35.0174033 33.9041083,34.9923626 C34.1424359,34.9623138 34.39278,34.8260924 34.608076,34.6087392 C34.9715757,34.2471516 35.1628386,33.7052711 34.8303816,33.3717291 L34.8303816,33.3717291 Z M25.0289078,31.5447602 C28.6178414,31.5447602 31.5378555,28.624014 31.5378555,25.0341805 C31.5378555,21.4443471 28.6178414,18.5236009 25.0289078,18.5236009 C21.4399742,18.5236009 18.5199602,21.4443471 18.5199602,25.0341805 C18.5199602,28.624014 21.4399742,31.5447602 25.0289078,31.5447602 L25.0289078,31.5447602 Z M35.3160492,35.3178916 C34.9435372,35.6904971 34.4869094,35.9268812 34.0302817,35.9859772 C33.9551785,35.9949919 33.8810766,36 33.8079761,36 C33.3763828,36 32.9798377,35.8367347 32.6734165,35.529235 L28.7720534,31.5367472 C27.6695378,32.174784 26.3927827,32.5463879 25.0289078,32.5463879 C20.8872143,32.5463879 17.5185836,29.1769125 17.5185836,25.0341805 C17.5185836,20.8914486 20.8872143,17.5219732 25.0289078,17.5219732 C29.1706013,17.5219732 32.539232,20.8914486 32.539232,25.0341805 C32.539232,26.3933893 32.1707255,27.666458 31.5368541,28.7682484 L35.5333479,32.6585702 C36.2313074,33.3567046 36.1361766,34.4985602 35.3160492,35.3178916 L35.3160492,35.3178916 Z M5.00137656,10.0097659 L33.0399203,10.0097659 L33.0399203,9.50895205 L33.0399203,5.50244147 C33.0399203,5.22599224 32.8146106,5.00162764 32.539232,5.00162764 L5.50206484,5.00162764 C5.22668629,5.00162764 5.00137656,5.22599224 5.00137656,5.50244147 L5.00137656,9.50895205 L5.00137656,10.0097659 Z M19.9188832,33.0472017 L4.50068828,33.0472017 C4.22430835,33.0472017 4,32.8228371 4,32.5463879 L4,10.5105797 L4,9.50895205 L4,5.50244147 C4,4.67409541 4.67392643,4 5.50206484,4 L32.539232,4 C33.3673704,4 34.0412969,4.67409541 34.0412969,5.50244147 L34.0412969,9.50895205 L34.0412969,10.5105797 L34.0412969,22.0102667 C33.7919541,21.2690622 33.4544902,20.5699261 33.0399203,19.9228747 L33.0399203,11.0113935 L5.00137656,11.0113935 L5.00137656,32.0455741 L18.6200978,32.0455741 C19.0236526,32.4151747 19.4572486,32.7507199 19.9188832,33.0472017 L19.9188832,33.0472017 Z M7.00412969,20.0260423 L16.95581,20.0260423 C17.1711059,19.6784775 17.4034253,19.340929 17.6617804,19.0244147 L7.00412969,19.0244147 L7.00412969,20.0260423 Z M15.7321278,23.0309253 C15.6620314,23.3594591 15.6059544,23.6930011 15.5699048,24.0325529 L7.00412969,24.0325529 L7.00412969,23.0309253 L15.7321278,23.0309253 Z" id="Amazon-Kendra_Icon_32_Squid" fill="#FFFFFF"></path>
    </g>
</svg>