<?xml version="1.0" encoding="UTF-8"?>
<svg width="40px" height="40px" viewBox="0 0 40 40" version="1.1" xmlns="http://www.w3.org/2000/svg" xmlns:xlink="http://www.w3.org/1999/xlink">
    <!-- Generator: Sketch 64 (93537) - https://sketch.com -->
    <title>Icon-Architecture/32/Arch_AWS-Textract_32</title>
    <desc>Created with Sketch.</desc>
    <defs>
        <linearGradient x1="0%" y1="100%" x2="100%" y2="0%" id="linearGradient-1">
            <stop stop-color="#055F4E" offset="0%"></stop>
            <stop stop-color="#56C0A7" offset="100%"></stop>
        </linearGradient>
    </defs>
    <g id="Icon-Architecture/32/Arch_AWS-Textract_32" stroke="none" stroke-width="1" fill="none" fill-rule="evenodd">
        <g id="Icon-Architecture-BG/32/Machine-Learning" fill="url(#linearGradient-1)">
            <rect id="Rectangle" x="0" y="0" width="40" height="40"></rect>
        </g>
        <path d="M11.9339968,21.8725066 C11.9339968,21.9147209 11.9450033,21.9539199 11.9470045,21.9961342 L14.1703146,21.9961342 L14.1703146,23.001237 L12.0910894,23.001237 C12.5953866,24.9692284 14.3614273,26.4346683 16.4746726,26.4346683 C18.5889185,26.4346683 20.3549592,24.9692284 20.8592563,23.001237 L18.7079886,23.001237 L18.7079886,21.9961342 L21.0033413,21.9961342 C21.0043418,21.9539199 21.0163489,21.9147209 21.0163489,21.8725066 C21.0163489,19.3577393 18.9791484,17.3103448 16.4746726,17.3103448 C13.9711973,17.3103448 11.9339968,19.3577393 11.9339968,21.8725066 L11.9339968,21.8725066 Z M10.9334072,21.8725066 C10.9334072,18.8029225 13.4188718,16.305242 16.4746726,16.305242 C19.5314739,16.305242 22.0169386,18.8029225 22.0169386,21.8725066 C22.0169386,24.9420906 19.5314739,27.4397711 16.4746726,27.4397711 C13.4188718,27.4397711 10.9334072,24.9420906 10.9334072,21.8725066 L10.9334072,21.8725066 Z M9.91680812,21.8725066 C9.91680812,25.5049482 12.8595422,28.4599505 16.4746726,28.4599505 C20.0908035,28.4599505 23.0335376,25.5049482 23.0335376,21.8725066 C23.0335376,18.2400649 20.0908035,15.2850626 16.4746726,15.2850626 C12.8595422,15.2850626 9.91680812,18.2400649 9.91680812,21.8725066 L9.91680812,21.8725066 Z M9.00927332,23.001237 L7.39232047,23.001237 L8.11574678,24.1902737 L7.26124323,24.7139323 L6.07354334,22.7610175 C5.97548555,22.600201 5.97548555,22.3971702 6.07354334,22.2363538 L7.26124323,20.283439 L8.11574678,20.8070976 L7.39232047,21.9961342 L8.92222202,21.9961342 C8.92222202,21.954925 8.91621849,21.9147209 8.91621849,21.8725066 C8.91621849,17.6862533 12.3072168,14.2799598 16.4746726,14.2799598 C20.643129,14.2799598 24.0341273,17.6862533 24.0341273,21.8725066 C24.0341273,21.9147209 24.0281237,21.954925 24.0281237,21.9961342 L29.0090589,21.9961342 L29.0090589,23.001237 L23.9410724,23.001237 C23.3947505,26.6527756 20.2599032,29.4650533 16.4746726,29.4650533 C12.6904426,29.4650533 9.55459467,26.6527756 9.00927332,23.001237 L9.00927332,23.001237 Z M15.5010989,20.5306943 L15.9743778,20.5306943 L15.9743778,21.9961342 L15.000804,21.9961342 L15.000804,23.001237 L18.0025729,23.001237 L18.0025729,21.9961342 L16.9749674,21.9961342 L16.9749674,20.5306943 L17.5022781,20.5306943 L17.5022781,21.0332457 L18.5028678,21.0332457 L18.5028678,20.0281429 C18.5028678,19.7497294 18.2797363,19.5255915 18.0025729,19.5255915 L15.000804,19.5255915 C14.7246413,19.5255915 14.5005092,19.7497294 14.5005092,20.0281429 L14.5005092,21.0332457 L15.5010989,21.0332457 L15.5010989,20.5306943 Z M25.0067004,20.0914644 L29.0090589,20.0914644 L29.0090589,19.0863615 L25.0067004,19.0863615 L25.0067004,20.0914644 Z M24.0061107,26.0738364 L29.0090589,26.0738364 L29.0090589,25.0687336 L24.0061107,25.0687336 L24.0061107,26.0738364 Z M27.9464327,13.9904902 L30.2397842,13.9904902 L27.9464327,11.7692129 L27.9464327,13.9904902 Z M31.8267193,14.1312046 C31.9247771,14.2266893 31.9798095,14.3563476 31.9798095,14.4930416 L31.9798095,32.4974486 C31.9798095,32.774857 31.756678,33 31.4795147,33 L15.5491272,33 C15.2729644,33 15.0488323,32.774857 15.0488323,32.4974486 L15.0488323,30.0791712 L16.049422,30.0791712 L16.049422,31.9948972 L30.9792199,31.9948972 L30.9792199,14.995593 L27.4461379,14.995593 C27.1699752,14.995593 26.9458431,14.7714551 26.9458431,14.4930416 L26.9458431,11.0887583 L16.049422,11.0887583 L16.049422,12.9924231 L15.0488323,12.9924231 L15.0488323,10.5862069 C15.0488323,10.3087985 15.2729644,10.0836555 15.5491272,10.0836555 L27.4461379,10.0836555 C27.5762146,10.0836555 27.7002877,10.1349157 27.7933425,10.225375 L31.8267193,14.1312046 Z M34,11.8888202 L34,31.084274 L32.9994104,31.084274 L32.9994104,12.0757693 L29.4983472,8.00510283 L17.9125199,8.00510283 L17.9125199,8.97201175 L16.9119302,8.97201175 L16.9119302,7.50255141 C16.9119302,7.22514303 17.1350617,7 17.4122251,7 L29.7264817,7 C29.8725678,7 30.0096485,7.06332148 30.1047046,7.17388279 L33.8779281,11.5601515 C33.9569746,11.6516159 34,11.7682078 34,11.8888202 L34,11.8888202 Z" id="AWS-Textract_Icon_32_Squid" fill="#FFFFFF"></path>
    </g>
</svg>