<?xml version="1.0" encoding="UTF-8"?>
<svg width="40px" height="40px" viewBox="0 0 40 40" version="1.1" xmlns="http://www.w3.org/2000/svg" xmlns:xlink="http://www.w3.org/1999/xlink">
    <title>Icon-Architecture/32/Arch_Amazon-Monitron_32</title>
    <defs>
        <linearGradient x1="0%" y1="100%" x2="100%" y2="0%" id="linearGradient-1">
            <stop stop-color="#055F4E" offset="0%"></stop>
            <stop stop-color="#56C0A7" offset="100%"></stop>
        </linearGradient>
    </defs>
    <g id="Icon-Architecture/32/Arch_Amazon-Monitron_32" stroke="none" stroke-width="1" fill="none" fill-rule="evenodd">
        <g id="Rectangle" fill="url(#linearGradient-1)">
            <rect x="0" y="0" width="40" height="40"></rect>
        </g>
        <g id="Icon-Service/32/Amazon-Monitron_32" transform="translate(4.000000, 4.000000)" fill="#FFFFFF">
            <path d="M16,8 C20.072,8 23.436,11.06 23.931,15 L20.856,15 L18.606,10.802 C18.515,10.63 18.335,10.525 18.136,10.539 C17.94,10.551 17.771,10.675 17.7,10.857 L14.051,20.262 L12.027,16.274 C11.941,16.106 11.77,16 11.581,16 L8,16 C8,11.589 11.589,8 16,8 L16,8 Z M16,24 C11.928,24 8.564,20.94 8.069,17 L11.274,17 L13.665,21.713 C13.755,21.889 13.95,22.006 14.136,21.986 C14.333,21.977 14.506,21.852 14.577,21.667 L18.239,12.232 L20.117,15.736 C20.204,15.898 20.373,16 20.558,16 L24,16 C24,20.411 20.411,24 16,24 L16,24 Z M7.059,17 C7.559,21.493 11.375,25 16,25 C20.963,25 25,20.962 25,16 L29.5,16 C29.776,16 30,15.776 30,15.5 L30,13.062 C30,12.477 29.523,12 28.938,12 L27.167,12 C26.964,11.333 26.695,10.685 26.364,10.065 L27.617,8.812 C27.818,8.611 27.929,8.344 27.929,8.061 C27.929,7.777 27.818,7.51 27.617,7.309 L24.69,4.382 C24.276,3.97 23.603,3.969 23.188,4.383 L21.936,5.637 C21.315,5.305 20.668,5.036 20,4.833 L20,3.063 C20,2.477 19.523,2 18.938,2 L13.062,2 C12.477,2 12,2.477 12,3.063 L12,4.833 C11.332,5.036 10.685,5.305 10.064,5.637 L8.812,4.383 C8.399,3.971 7.727,3.969 7.309,4.383 L4.383,7.309 C4.182,7.51 4.071,7.777 4.071,8.061 C4.071,8.344 4.182,8.611 4.383,8.812 L5.632,10.061 C5.322,10.628 5.043,11.306 4.833,12 L3.047,12 C2.47,12 2,12.47 2,13.047 L2,14 L3,14 L3.047,13 L5.211,13 C5.437,13 5.637,12.847 5.694,12.628 C5.923,11.763 6.292,10.872 6.682,10.242 C6.804,10.044 6.774,9.789 6.61,9.625 L5.09,8.016 L8.104,5.09 L9.625,6.611 C9.785,6.771 10.034,6.802 10.229,6.689 C10.985,6.25 11.792,5.915 12.628,5.694 C12.848,5.636 13,5.437 13,5.21 L13,3 L19,3 L19,5.21 C19,5.437 19.152,5.636 19.372,5.694 C20.208,5.915 21.015,6.25 21.771,6.689 C21.966,6.804 22.214,6.771 22.375,6.611 L23.984,5.09 L26.91,8.105 L25.39,9.625 C25.229,9.785 25.197,10.034 25.311,10.23 C25.75,10.986 26.085,11.792 26.306,12.628 C26.363,12.847 26.563,13 26.789,13 L29,13.062 L29,15 L24.941,15 C24.441,10.507 20.625,7 16,7 C11.037,7 7,11.038 7,16 L2.5,16 C2.224,16 2,16.224 2,16.5 L2,18.938 C2,19.523 2.477,20 3.062,20 L4.826,20 C5.058,20.673 5.366,21.326 5.745,21.95 L4.537,23.147 C4.307,23.349 4.175,23.641 4.175,23.946 C4.175,24.252 4.307,24.544 4.526,24.736 L7.738,27.711 C8.136,28.061 8.739,28.062 9.141,27.711 L10.706,26.338 C11.342,26.634 12.11,26.912 13,27.169 L13,28.937 C13,29.523 13.477,30 14.063,30 L18.938,30 C19.523,30 20,29.523 20,28.937 L20,27.181 C20.793,26.971 21.562,26.689 22.296,26.339 L23.833,27.687 C24.249,28.052 24.875,28.05 25.309,27.67 L28.286,24.775 C28.512,24.577 28.641,24.294 28.641,24 C28.641,23.706 28.512,23.423 28.338,23.277 L27.237,21.979 C27.624,21.347 27.938,20.684 28.174,20 L28.938,20 C29.523,20 30,19.523 30,18.938 L30,18 L29,18 L28.938,19 L27.811,19 C27.59,19 27.396,19.145 27.332,19.355 C27.08,20.188 26.699,20.992 26.2,21.745 C26.077,21.931 26.092,22.175 26.235,22.345 L27.574,23.924 C27.591,23.942 27.589,24.025 27.607,24.041 L24.631,26.936 C24.594,26.966 24.527,26.968 24.492,26.936 L22.704,25.367 C22.55,25.233 22.33,25.205 22.146,25.297 C21.278,25.741 20.35,26.079 19.387,26.303 C19.16,26.355 19,26.557 19,26.79 L19,29 L14,29 L14,26.79 C14,26.564 13.849,26.366 13.631,26.307 C12.497,25.999 11.563,25.659 10.854,25.297 C10.669,25.204 10.45,25.232 10.296,25.367 L8.408,26.969 L5.206,24.003 C5.202,24 5.222,23.882 5.218,23.879 L6.734,22.377 C6.904,22.209 6.932,21.944 6.8,21.745 C6.301,20.992 5.92,20.188 5.668,19.355 C5.604,19.145 5.41,19 5.189,19 L3,18.938 L3,17 L7.059,17 Z" id="Fill-5"></path>
        </g>
    </g>
</svg>