<?xml version="1.0" encoding="UTF-8"?>
<svg width="40px" height="40px" viewBox="0 0 40 40" version="1.1" xmlns="http://www.w3.org/2000/svg" xmlns:xlink="http://www.w3.org/1999/xlink">
    <!-- Generator: Sketch 64 (93537) - https://sketch.com -->
    <title>Icon-Architecture/32/Arch_Amazon-Polly_32</title>
    <desc>Created with Sketch.</desc>
    <defs>
        <linearGradient x1="0%" y1="100%" x2="100%" y2="0%" id="linearGradient-1">
            <stop stop-color="#055F4E" offset="0%"></stop>
            <stop stop-color="#56C0A7" offset="100%"></stop>
        </linearGradient>
    </defs>
    <g id="Icon-Architecture/32/Arch_Amazon-Polly_32" stroke="none" stroke-width="1" fill="none" fill-rule="evenodd">
        <g id="Icon-Architecture-BG/32/Machine-Learning" fill="url(#linearGradient-1)">
            <rect id="Rectangle" x="0" y="0" width="40" height="40"></rect>
        </g>
        <path d="M20.047424,19.0420577 L24.0609737,19.0420577 L24.0609737,18.0389769 L20.047424,18.0389769 L20.047424,19.0420577 Z M21.0508114,25.0605431 L22.0541989,25.0605431 L22.0541989,23.0543813 L21.0508114,23.0543813 L21.0508114,25.0605431 Z M14.0270994,16.0328151 L16.0338743,16.0328151 L16.0338743,15.0297342 L14.0270994,15.0297342 L14.0270994,16.0328151 Z M8.00677486,22.0513004 L16.0338743,22.0513004 L16.0338743,21.0482195 L8.00677486,21.0482195 L8.00677486,22.0513004 Z M8.00677486,19.0420577 L19.0440366,19.0420577 L19.0440366,18.0389769 L8.00677486,18.0389769 L8.00677486,19.0420577 Z M19.0440366,26.063624 L20.047424,26.063624 L20.047424,22.0513004 L19.0440366,22.0513004 L19.0440366,26.063624 Z M29.0779109,26.063624 L30.0812983,26.063624 L30.0812983,22.0513004 L29.0779109,22.0513004 L29.0779109,26.063624 Z M27.071136,28.0697858 L28.0745234,28.0697858 L28.0745234,21.0482195 L27.071136,21.0482195 L27.071136,28.0697858 Z M25.0643612,27.0667049 L26.0677486,27.0667049 L26.0677486,21.0482195 L25.0643612,21.0482195 L25.0643612,27.0667049 Z M23.0575863,26.063624 L24.0609737,26.063624 L24.0609737,22.0513004 L23.0575863,22.0513004 L23.0575863,26.063624 Z M33.9282857,33.058107 L31.6164811,28.5372215 C32.4201944,27.2111485 32.8426205,25.6864656 32.8426205,24.1096224 C32.8426205,19.3379666 28.9625213,15.4570466 24.1924175,15.4570466 C23.4208125,15.4570466 22.6572347,15.5573547 21.9227551,15.7569678 L22.1856426,16.7249409 C22.8338309,16.5494017 23.5091106,16.4601275 24.1924175,16.4601275 C28.4086515,16.4601275 31.8392331,19.8916673 31.8392331,24.1096224 C31.8392331,25.5911729 31.4178104,27.018557 30.6201173,28.2373003 C30.5217854,28.3877624 30.5117515,28.5793509 30.5940293,28.7398438 L32.5426077,32.5515512 L28.666522,30.6125958 C28.5120004,30.5343555 28.3293838,30.5423802 28.1808825,30.6326574 C26.9738074,31.3659096 25.5941497,31.7541019 24.1924175,31.7541019 C20.3855656,31.7541019 17.1265632,28.9173891 16.6118254,25.1548327 L15.6184719,25.2902486 C16.2004366,29.5473239 19.886882,32.7571828 24.1924175,32.7571828 C25.685458,32.7571828 27.1554206,32.3689905 28.4608276,31.6307229 L33.0663759,33.9358028 C33.1556774,33.9789353 33.253006,34 33.3493312,34 C33.5219138,34 33.6924897,33.9307874 33.8179131,33.8003869 C34.0115669,33.6007738 34.0547125,33.3008526 33.9282857,33.058107 L33.9282857,33.058107 Z M8.00677486,16.0328151 L12.0203246,16.0328151 L12.0203246,15.0297342 L8.00677486,15.0297342 L8.00677486,16.0328151 Z M15.0304869,11.0174106 L19.1634397,11.0174106 L15.0304869,7.57283084 L15.0304869,11.0174106 Z M7.00338743,20.0451386 L6,20.0451386 L6,6.50354661 C6,6.22669628 6.22475878,6.00200616 6.50169371,6.00200616 L14.5287931,6 C14.6441827,6 14.7585689,6.03912015 14.8498771,6.11635738 L20.8702017,11.133768 C20.9865946,11.2310668 21.0508114,11.3735043 21.0508114,11.5189511 L21.0508114,14.0266533 L20.047424,14.0266533 L20.047424,12.0204915 L14.5287931,12.0204915 C14.2518582,12.0204915 14.0270994,11.7968045 14.0270994,11.5189511 L14.0270994,7.00308089 L7.00338743,7.00508705 L7.00338743,20.0451386 Z M7.00338743,27.0667049 L15.0304869,27.0667049 L15.0304869,28.0697858 L6.50169371,28.0697858 C6.22475878,28.0697858 6,27.8460987 6,27.5682453 L6,23.0543813 L7.00338743,23.0543813 L7.00338743,27.0667049 Z" id="Amazon-Polly-Icon_32_Squid" fill="#FFFFFF"></path>
    </g>
</svg>