<?xml version="1.0" encoding="UTF-8"?>
<svg width="40px" height="40px" viewBox="0 0 40 40" version="1.1" xmlns="http://www.w3.org/2000/svg" xmlns:xlink="http://www.w3.org/1999/xlink">
    <!-- Generator: Sketch 64 (93537) - https://sketch.com -->
    <title>Icon-Architecture/32/Arch_AWS-Deep-Lense_32</title>
    <desc>Created with Sketch.</desc>
    <defs>
        <linearGradient x1="0%" y1="100%" x2="100%" y2="0%" id="linearGradient-1">
            <stop stop-color="#055F4E" offset="0%"></stop>
            <stop stop-color="#56C0A7" offset="100%"></stop>
        </linearGradient>
    </defs>
    <g id="Icon-Architecture/32/Arch_AWS-Deep-Lense_32" stroke="none" stroke-width="1" fill="none" fill-rule="evenodd">
        <g id="Icon-Architecture-BG/32/Machine-Learning" fill="url(#linearGradient-1)">
            <rect id="Rectangle" x="0" y="0" width="40" height="40"></rect>
        </g>
        <path d="M19.003998,32.0014989 L21.0029985,32.0014989 L21.0029985,31.0022483 L19.003998,31.0022483 L19.003998,32.0014989 Z M19.003998,30.0029978 L21.0029985,30.0029978 L21.0029985,29.0037472 L19.003998,29.0037472 L19.003998,30.0029978 Z M19.003998,28.0044966 L21.0029985,28.0044966 L21.0029985,27.0052461 L19.003998,27.0052461 L19.003998,28.0044966 Z M19.5037481,13.0157382 L20.5032484,13.0157382 L20.5032484,12.0164876 L19.5037481,12.0164876 L19.5037481,13.0157382 Z M20.0034983,10.0019985 C18.6251874,10.0019985 17.5047476,11.1221584 17.5047476,12.5001249 C17.5047476,13.8770922 18.6251874,14.9982513 20.0034983,14.9982513 C21.3818091,14.9982513 22.5022489,13.8770922 22.5022489,12.5001249 C22.5022489,11.1221584 21.3818091,10.0019985 20.0034983,10.0019985 L20.0034983,10.0019985 Z M20.0034983,9.00274794 C21.9315342,9.00274794 23.5017491,10.5715713 23.5017491,12.5001249 C23.5017491,14.4286785 21.9315342,15.9975019 20.0034983,15.9975019 C18.0744628,15.9975019 16.5052474,14.4286785 16.5052474,12.5001249 C16.5052474,10.5715713 18.0744628,9.00274794 20.0034983,9.00274794 L20.0034983,9.00274794 Z M21.0029985,6.99925056 L22.0024988,6.99925056 L22.0024988,6 L21.0029985,6 L21.0029985,6.99925056 Z M23.9595202,34 L24.9590205,34 L24.9590205,27.0052461 L23.9595202,27.0052461 L23.9595202,34 Z M14.9850075,34 L15.9845077,34 L15.9845077,29.0037472 L14.9850075,29.0037472 L14.9850075,34 Z M14.9850075,27.0052461 L15.9845077,27.0052461 L15.9845077,25.0067449 L14.9850075,25.0067449 L14.9850075,27.0052461 Z M26.0224888,20.225331 C25.5177411,19.9885086 24.908046,20.0004996 24.3963018,19.9885086 L23.001999,19.9885086 L23.001999,20.9877592 L24.4082959,20.9877592 L24.4192904,20.9877592 C24.832084,20.9877592 25.2968516,20.9887584 25.5967016,21.1296528 C25.7176412,21.18661 26.0004998,21.3195104 26.0004998,22.0089933 L26.0004998,23.0082438 L22.0024988,23.0082438 L22.0024988,24.0074944 L26.0004998,24.0074944 L26.0004998,34 L27,34 L27,22.0089933 C27,21.130652 26.6711644,20.5311017 26.0224888,20.225331 L26.0224888,20.225331 Z M20.0034983,24.0174869 L20.0034983,23.0182363 L14.0004998,23.0182363 L13.9995002,22.0089933 C13.9995002,21.3115164 14.2613693,21.1816138 14.3753123,21.126655 C14.6571714,20.9877592 15.09995,20.9867599 15.5337331,20.9887584 L17.0049975,20.9887584 L17.0049975,19.9895079 L15.5197401,19.9895079 C15.0069965,19.9985011 14.4242879,19.9895079 13.9335332,20.2303273 C13.3138431,20.5340994 13,21.1336498 13,22.0089933 L13.0069965,28.0044966 L14.0064968,28.0034974 L14.0014993,24.0174869 L20.0034983,24.0174869 Z M27,7.00224831 L27,18.011991 C27,18.3307519 27,18.5835623 26.7991004,18.7904072 C26.5962019,19.0012491 26.3383308,19.0052461 26.0394803,19.0052461 L26.0224888,19.0052461 L21.9955022,19.0052461 L21.9955022,21.0097427 L20.996002,21.0097427 L20.996002,19.0052461 L18.9970015,19.0052461 L18.9970015,21.0097427 L17.9975012,21.0097427 L17.9975012,19.0052461 L14.0064968,19.0052461 C13.2248876,19.0052461 13,18.7824132 13,18.011991 L13,7.02023482 C13,6.66650012 13,6.41269048 13.2148926,6.20384711 C13.4237881,6 13.6806597,6 14.0064968,6 L20.0034983,6 L20.0034983,6.99925056 L14.0064968,6.99925056 L13.9995002,6.99925056 L13.9995002,18.0059955 L14.0064968,18.0059955 L26.0004998,18.0059955 L26.0004998,7.02023482 L26.0004998,6.99925056 L23.001999,6.99925056 L23.001999,6 L26.0004998,6 C26.3263368,6 26.5832084,6 26.7941029,6.21184112 C27,6.42168374 27,6.67749188 27,7.00224831 L27,7.00224831 Z" id="AWS-Deep-Lense_Icon_32_Squid" fill="#FFFFFF"></path>
    </g>
</svg>