<?xml version="1.0" encoding="UTF-8"?>
<svg width="40px" height="40px" viewBox="0 0 40 40" version="1.1" xmlns="http://www.w3.org/2000/svg" xmlns:xlink="http://www.w3.org/1999/xlink">
    <title>Icon-Architecture/32/Arch_AWS-Deep-Learning-AMIs_32</title>
    <defs>
        <linearGradient x1="0%" y1="100%" x2="100%" y2="0%" id="linearGradient-1">
            <stop stop-color="#055F4E" offset="0%"></stop>
            <stop stop-color="#56C0A7" offset="100%"></stop>
        </linearGradient>
    </defs>
    <g id="Icon-Architecture/32/Arch_AWS-Deep-Learning-AMIs_32" stroke="none" stroke-width="1" fill="none" fill-rule="evenodd">
        <g id="Rectangle" fill="url(#linearGradient-1)">
            <rect x="0" y="0" width="40" height="40"></rect>
        </g>
        <g id="Icon-Service/32/AWS-Deep-Learning-AMIs_32" transform="translate(4.000000, 4.000000)" fill="#FFFFFF">
            <path d="M23.962,16.629 C23.466,17.146 22.642,17.159 22.128,16.665 C21.613,16.17 21.597,15.347 22.092,14.832 C22.347,14.567 22.687,14.434 23.027,14.434 C23.352,14.434 23.675,14.554 23.926,14.796 C24.441,15.291 24.457,16.114 23.962,16.629 L23.962,16.629 Z M21.371,14.138 C20.494,15.051 20.523,16.508 21.435,17.386 C21.88,17.814 22.454,18.026 23.026,18.026 C23.63,18.026 24.233,17.79 24.683,17.322 C25.561,16.409 25.531,14.952 24.619,14.075 C23.706,13.196 22.248,13.226 21.371,14.138 L21.371,14.138 Z M27.568,18.598 L25.868,18.257 C25.729,18.231 25.588,18.26 25.474,18.344 L24.718,18.898 C24.607,18.98 24.533,19.105 24.517,19.243 L24.316,20.958 L21.674,20.955 L21.477,19.253 C21.46,19.116 21.388,18.991 21.277,18.909 L20.511,18.341 C20.398,18.257 20.255,18.227 20.115,18.253 L18.427,18.591 L17.612,16.078 L19.191,15.354 C19.318,15.296 19.415,15.187 19.459,15.054 L19.747,14.172 C19.79,14.04 19.776,13.894 19.707,13.772 L18.858,12.259 L20.996,10.708 L22.163,11.976 C22.258,12.078 22.392,12.137 22.531,12.137 L22.534,12.137 L23.487,12.131 C23.626,12.13 23.758,12.072 23.853,11.97 L25.012,10.712 L27.149,12.265 L26.302,13.772 C26.233,13.893 26.219,14.037 26.261,14.169 L26.544,15.06 C26.587,15.194 26.684,15.304 26.812,15.363 L28.387,16.087 L27.568,18.598 Z M29.209,15.363 L27.43,14.546 L27.279,14.073 L28.237,12.368 C28.362,12.147 28.301,11.867 28.096,11.718 L25.24,9.641 C25.037,9.492 24.752,9.52 24.578,9.706 L23.264,11.133 L22.749,11.135 L21.431,9.703 C21.259,9.517 20.977,9.489 20.769,9.637 L17.909,11.711 C17.704,11.86 17.643,12.139 17.768,12.361 L18.728,14.071 L18.576,14.536 L16.792,15.354 C16.562,15.46 16.446,15.721 16.525,15.962 L17.612,19.322 C17.69,19.564 17.939,19.71 18.186,19.659 L20.094,19.277 L20.508,19.584 L20.732,21.512 C20.761,21.764 20.975,21.954 21.229,21.955 L24.761,21.958 C25.015,21.958 25.228,21.768 25.258,21.516 L25.485,19.576 L25.888,19.281 L27.808,19.666 C28.06,19.718 28.303,19.571 28.382,19.331 L29.476,15.973 C29.554,15.732 29.44,15.469 29.209,15.363 L29.209,15.363 Z M25.5,28 C24.673,28 24,27.327 24,26.5 C24,25.672 24.673,25 25.5,25 C26.327,25 27,25.672 27,26.5 C27,27.327 26.327,28 25.5,28 L25.5,28 Z M10.5,28 C9.673,28 9,27.327 9,26.5 C9,25.672 9.673,25 10.5,25 C11.327,25 12,25.672 12,26.5 C12,27.327 11.327,28 10.5,28 L10.5,28 Z M6.047,17.448 C6.198,17.328 6.334,17.192 6.453,17.041 L11,19.448 L11,24.05 C10.838,24.017 10.671,24 10.5,24 C10.273,24 10.056,24.04 9.847,24.097 L6.047,17.448 Z M3,15.5 C3,14.672 3.673,14 4.5,14 C5.327,14 6,14.672 6,15.5 C6,16.327 5.327,17 4.5,17 C3.673,17 3,16.327 3,15.5 L3,15.5 Z M9.847,6.902 C10.056,6.959 10.273,7 10.5,7 C10.671,7 10.838,6.982 11,6.949 L11,11.551 L6.453,13.959 C6.334,13.807 6.198,13.671 6.047,13.551 L9.847,6.902 Z M10.5,3 C11.327,3 12,3.672 12,4.5 C12,5.327 11.327,6 10.5,6 C9.673,6 9,5.327 9,4.5 C9,3.672 9.673,3 10.5,3 L10.5,3 Z M25.5,3 C26.327,3 27,3.672 27,4.5 C27,5.327 26.327,6 25.5,6 C24.673,6 24,5.327 24,4.5 C24,3.672 24.673,3 25.5,3 L25.5,3 Z M16.173,8.813 L12.539,5.938 C12.734,5.66 12.879,5.344 12.949,5 L23.051,5 C23.061,5.051 23.082,5.097 23.096,5.148 L16.173,8.813 Z M12,11.022 L12,6.787 L15.207,9.324 L12,11.022 Z M15.207,21.675 L12,24.212 L12,19.977 L15.207,21.675 Z M23.096,25.852 C23.082,25.902 23.061,25.948 23.051,26 L12.949,26 C12.879,25.655 12.734,25.339 12.539,25.062 L16.173,22.187 L23.096,25.852 Z M25.5,24 C24.705,24 24.005,24.379 23.547,24.959 L17.03,21.508 L17.811,20.892 L17.19,20.108 L16.065,20.997 L12,18.845 L12,17 L11,17 L11,18.316 L6.904,16.148 C6.918,16.097 6.94,16.051 6.949,16 L15,16 L15,15 L6.949,15 C6.94,14.948 6.918,14.902 6.904,14.852 L11,12.683 L11,14 L12,14 L12,12.154 L16.065,10.002 L17.19,10.892 L17.811,10.108 L17.03,9.491 L23.547,6.041 C24.005,6.62 24.705,7 25.5,7 C26.879,7 28,5.878 28,4.5 C28,3.121 26.879,2 25.5,2 C24.292,2 23.283,2.86 23.051,4 L12.949,4 C12.717,2.86 11.708,2 10.5,2 C9.121,2 8,3.121 8,4.5 C8,5.291 8.377,5.99 8.953,6.448 L5.153,13.097 C4.944,13.04 4.728,13 4.5,13 C3.121,13 2,14.121 2,15.5 C2,16.878 3.121,18 4.5,18 C4.728,18 4.944,17.959 5.153,17.902 L8.953,24.551 C8.377,25.009 8,25.708 8,26.5 C8,27.878 9.121,29 10.5,29 C11.708,29 12.717,28.139 12.949,27 L23.051,27 C23.283,28.139 24.292,29 25.5,29 C26.879,29 28,27.878 28,26.5 C28,25.121 26.879,24 25.5,24 L25.5,24 Z" id="AWS-Deep-Learning-AMIs_32_Squid"></path>
        </g>
    </g>
</svg>