<?xml version="1.0" encoding="UTF-8"?>
<svg width="40px" height="40px" viewBox="0 0 40 40" version="1.1" xmlns="http://www.w3.org/2000/svg" xmlns:xlink="http://www.w3.org/1999/xlink">
    <!-- Generator: Sketch 64 (93537) - https://sketch.com -->
    <title>Icon-Architecture/32/Arch_Amazon-Neuron-ML-SDK_32</title>
    <desc>Created with Sketch.</desc>
    <defs>
        <linearGradient x1="0%" y1="100%" x2="100%" y2="0%" id="linearGradient-1">
            <stop stop-color="#055F4E" offset="0%"></stop>
            <stop stop-color="#56C0A7" offset="100%"></stop>
        </linearGradient>
    </defs>
    <g id="Icon-Architecture/32/Arch_Amazon-Neuron-ML-SDK_32" stroke="none" stroke-width="1" fill="none" fill-rule="evenodd">
        <g id="Icon-Architecture-BG/32/Machine-Learning" fill="url(#linearGradient-1)">
            <rect id="Rectangle" x="0" y="0" width="40" height="40"></rect>
        </g>
        <path d="M30.9982469,26.6845391 L20.0210368,32.9213934 L9.00175307,26.6845391 L9.00175307,13.2245324 L20.0210368,7.07697667 L30.9982469,13.2235291 L30.9982469,26.6845391 Z M31.7435512,12.49108 L20.2654646,6.06358818 C20.1131981,5.97830301 19.9278738,5.97930636 19.7776108,6.06358818 L8.25745054,12.49108 C8.09917355,12.5793752 8,12.7479388 8,12.9295461 L8,26.9765154 C8,27.1571193 8.09717005,27.3246795 8.25444528,27.4129748 L19.7746056,33.9347819 C19.8507388,33.9789295 19.9358878,34 20.0210368,34 C20.1061858,34 20.1913348,33.9789295 20.2684698,33.9347819 L31.7465565,27.4129748 C31.90283,27.3236762 32,27.1571193 32,26.9765154 L32,12.9295461 C32,12.7479388 31.9018282,12.5803786 31.7435512,12.49108 L31.7435512,12.49108 Z M21.0498372,12.9014521 C21.0498372,13.4703544 20.5880291,13.932901 20.0210368,13.932901 C19.4540446,13.932901 18.9922364,13.4703544 18.9922364,12.9014521 C18.9922364,12.3325499 19.4540446,11.8700033 20.0210368,11.8700033 C20.5880291,11.8700033 21.0498372,12.3325499 21.0498372,12.9014521 L21.0498372,12.9014521 Z M27.4780867,18.4199044 C27.4780867,18.9888066 27.0162785,19.4513533 26.4492863,19.4513533 C25.8812923,19.4513533 25.4194841,18.9888066 25.4194841,18.4199044 C25.4194841,17.8510021 25.8812923,17.3884555 26.4492863,17.3884555 C27.0162785,17.3884555 27.4780867,17.8510021 27.4780867,18.4199044 L27.4780867,18.4199044 Z M24.0010018,23.7437057 C23.9909842,23.7437057 23.9829702,23.7457124 23.9729527,23.7457124 L22.6716754,21.6537174 L25.0368144,19.8777791 C25.1840721,20.0212589 25.3573754,20.137648 25.5437015,20.23096 L24.5189081,23.8189573 C24.3526171,23.7748097 24.1803156,23.7437057 24.0010018,23.7437057 L24.0010018,23.7437057 Z M24.0010018,26.8099584 C23.432006,26.8099584 22.9701978,26.3474118 22.9701978,25.7785096 C22.9701978,25.2096073 23.432006,24.7470607 24.0010018,24.7470607 C24.567994,24.7470607 25.0298022,25.2096073 25.0298022,25.7785096 C25.0298022,26.3474118 24.567994,26.8099584 24.0010018,26.8099584 L24.0010018,26.8099584 Z M21.8682695,22.257737 L22.9722014,24.0326719 C22.8349612,24.1149471 22.7037315,24.2092624 22.5875282,24.3206348 L20.8554971,23.0182801 L21.8682695,22.257737 Z M17.4535437,24.3206348 C17.3383421,24.2092624 17.2071124,24.1149471 17.0698723,24.0326719 L18.1738042,22.257737 L19.1865765,23.0182801 L17.4535437,24.3206348 Z M16.0410719,26.8099584 C15.4740796,26.8099584 15.0122715,26.3474118 15.0122715,25.7785096 C15.0122715,25.2096073 15.4740796,24.7470607 16.0410719,24.7470607 C16.6100676,24.7470607 17.0718758,25.2096073 17.0718758,25.7785096 C17.0718758,26.3474118 16.6100676,26.8099584 16.0410719,26.8099584 L16.0410719,26.8099584 Z M14.4983722,20.23096 C14.6846982,20.137648 14.8580015,20.0212589 15.0052592,19.8777791 L17.3703982,21.6537174 L16.069121,23.7457124 C16.0591034,23.7457124 16.0510894,23.7437057 16.0410719,23.7437057 C15.8617581,23.7437057 15.6894565,23.7748097 15.5231655,23.8189573 L14.4983722,20.23096 Z M12.563987,18.4199044 C12.563987,17.8510021 13.0257951,17.3884555 13.5927874,17.3884555 C14.1607814,17.3884555 14.6225895,17.8510021 14.6225895,18.4199044 C14.6225895,18.9888066 14.1607814,19.4513533 13.5927874,19.4513533 C13.0257951,19.4513533 12.563987,18.9888066 12.563987,18.4199044 L12.563987,18.4199044 Z M19.5201603,16.4553354 C18.6426246,16.6800869 17.9904833,17.4717339 17.9904833,18.4199044 C17.9904833,18.9496758 18.1978462,19.4292794 18.5304282,19.7904872 L17.9023291,20.7998623 L15.5261708,19.0148938 C15.5832707,18.8252598 15.6243426,18.6286022 15.6243426,18.4199044 C15.6243426,17.9041799 15.4249937,17.4366165 15.107438,17.0774154 L18.7478087,14.4737094 C18.9711996,14.65632 19.2316554,14.7917729 19.5201603,14.8660211 L19.5201603,16.4553354 Z M19.3698973,20.3373157 C19.5752567,20.4085539 19.7916354,20.4547082 20.0210368,20.4547082 C20.2504383,20.4547082 20.4668169,20.4085539 20.6721763,20.3373157 L21.3353368,21.403882 L20.0210368,22.3921866 L18.705735,21.403882 L19.3698973,20.3373157 Z M20.0210368,17.3884555 C20.5880291,17.3884555 21.0498372,17.8510021 21.0498372,18.4199044 C21.0498372,18.9888066 20.5880291,19.4513533 20.0210368,19.4513533 C19.4540446,19.4513533 18.9922364,18.9888066 18.9922364,18.4199044 C18.9922364,17.8510021 19.4540446,17.3884555 20.0210368,17.3884555 L20.0210368,17.3884555 Z M21.294265,14.4737094 L24.9346356,17.0774154 C24.6170799,17.4366165 24.417731,17.9041799 24.417731,18.4199044 C24.417731,18.6286022 24.4588029,18.8252598 24.5159028,19.0148938 L22.1397446,20.7998623 L21.5116454,19.7904872 C21.8442274,19.4292794 22.0515903,18.9496758 22.0515903,18.4199044 C22.0515903,17.4717339 21.399449,16.6800869 20.5219133,16.4553354 L20.5219133,14.8660211 C20.8104182,14.7917729 21.070874,14.65632 21.294265,14.4737094 L21.294265,14.4737094 Z M17.9904833,12.9014521 C17.9904833,13.1743647 18.0455798,13.4332303 18.1437516,13.6720287 L14.2198848,16.4794159 L14.2349111,16.499483 C14.0315552,16.4312549 13.8191836,16.3851005 13.5927874,16.3851005 C12.4728274,16.3851005 11.5622339,17.2981535 11.5622339,18.4199044 C11.5622339,19.5165713 12.4337591,20.4075505 13.5196594,20.4476847 L14.6255948,24.3236449 C14.2469321,24.6938829 14.0105184,25.2076006 14.0105184,25.7785096 C14.0105184,26.9002604 14.9211119,27.8133134 16.0410719,27.8133134 C17.1610318,27.8133134 18.0736289,26.9002604 18.0736289,25.7785096 C18.0736289,25.5698117 18.0335587,25.3721508 17.9744553,25.1825167 L20.0210368,23.6453769 L22.0676183,25.1825167 C22.0085149,25.3721508 21.9684448,25.5698117 21.9684448,25.7785096 C21.9684448,26.9002604 22.8800401,27.8133134 24.0010018,27.8133134 C25.1209617,27.8133134 26.0315552,26.9002604 26.0315552,25.7785096 C26.0315552,25.2076006 25.7951415,24.6938829 25.4164788,24.3236449 L26.5224142,20.4476847 C27.6083146,20.4075505 28.4798397,19.5165713 28.4798397,18.4199044 C28.4798397,17.2981535 27.5692462,16.3851005 26.4492863,16.3851005 C26.2228901,16.3851005 26.0105184,16.4312549 25.8071625,16.499483 L25.8221888,16.4794159 L21.8983221,13.6720287 C21.9964939,13.4332303 22.0515903,13.1743647 22.0515903,12.9014521 C22.0515903,11.7797013 21.1409967,10.8666483 20.0210368,10.8666483 C18.9010769,10.8666483 17.9904833,11.7797013 17.9904833,12.9014521 L17.9904833,12.9014521 Z" id="Amazon-Neuron-ML-SDK_Icon_32_Squid" fill="#FFFFFF"></path>
    </g>
</svg>