<?xml version="1.0" encoding="UTF-8"?>
<svg width="40px" height="40px" viewBox="0 0 40 40" version="1.1" xmlns="http://www.w3.org/2000/svg" xmlns:xlink="http://www.w3.org/1999/xlink">
    <title>Icon-Architecture/32/Arch_Amazon-Hogun_32</title>
    <defs>
        <linearGradient x1="0%" y1="100%" x2="100%" y2="0%" id="linearGradient-1">
            <stop stop-color="#055F4E" offset="0%"></stop>
            <stop stop-color="#56C0A7" offset="100%"></stop>
        </linearGradient>
    </defs>
    <g id="Icon-Architecture/32/Arch_Amazon-Hogun_32" stroke="none" stroke-width="1" fill="none" fill-rule="evenodd">
        <g id="Rectangle" fill="url(#linearGradient-1)">
            <rect x="0" y="0" width="40" height="40"></rect>
        </g>
        <g id="Icon-Service/32/Amazon-Hogun_32" transform="translate(4.000000, 4.000000)" fill="#FFFFFF">
            <path d="M5,27 L8,27 L8,25 L5,25 L5,27 Z M8.5,24 L4.5,24 C4.224,24 4,24.224 4,24.5 L4,27.5 C4,27.776 4.224,28 4.5,28 L8.5,28 C8.776,28 9,27.776 9,27.5 L9,24.5 C9,24.224 8.776,24 8.5,24 L8.5,24 Z M11,27 L14,27 L14,25 L11,25 L11,27 Z M14.5,24 L10.5,24 C10.224,24 10,24.224 10,24.5 L10,27.5 C10,27.776 10.224,28 10.5,28 L14.5,28 C14.776,28 15,27.776 15,27.5 L15,24.5 C15,24.224 14.776,24 14.5,24 L14.5,24 Z M27,29 L3,29 L3,6 L7,6 L7,13 L7,21 L7,22 L8,22 L8,21 L8,14.137 L13,18.72 L13,21 L13,22 L14,22 L14,21 L14,18.5 L14,14.567 L19,18.734 L19,22.5 C19,22.776 19.224,23 19.5,23 L27,23 L27,29 Z M3,5 L7,5 L7,3 L3,3 L3,5 Z M27.5,22 L20,22 L20,18.5 C20,18.352 19.935,18.211 19.82,18.116 L13.82,13.116 C13.672,12.992 13.464,12.965 13.288,13.047 C13.112,13.129 13,13.306 13,13.5 L13,17.363 L8,12.78 L8,6 L8,5 L8,2.5 C8,2.224 7.776,2 7.5,2 L2.5,2 C2.224,2 2,2.224 2,2.5 L2,29.5 C2,29.776 2.224,30 2.5,30 L27.5,30 C27.776,30 28,29.776 28,29.5 L28,22.5 C28,22.224 27.776,22 27.5,22 L27.5,22 Z M28.643,19.039 C28.304,19.425 27.762,19.685 27.375,19.345 L22.556,15.019 C23.139,14.673 23.667,14.246 24.126,13.751 L28.785,17.727 C28.941,17.864 29.013,18.046 28.998,18.27 C28.98,18.524 28.854,18.797 28.643,19.039 L28.643,19.039 Z M29.439,16.971 L24.756,12.974 C25.538,11.844 26,10.476 26,9 C26,5.14 22.859,2 19,2 C15.141,2 12,5.14 12,9 C12,9.358 12.027,9.72 12.082,10.076 L13.07,9.924 C13.023,9.619 13,9.307 13,9 C13,5.691 15.691,3 19,3 C22.309,3 25,5.691 25,9 C25,12.309 22.309,15 19,15 L19,16 C19.916,16 20.789,15.818 21.591,15.497 L26.711,20.093 C27.026,20.369 27.402,20.503 27.791,20.503 C28.348,20.503 28.93,20.228 29.395,19.698 C29.75,19.292 29.964,18.809 29.996,18.337 C30.031,17.802 29.836,17.318 29.439,16.971 L29.439,16.971 Z" id="Fill-6"></path>
        </g>
    </g>
</svg>