<?xml version="1.0" encoding="UTF-8"?>
<svg width="40px" height="40px" viewBox="0 0 40 40" version="1.1" xmlns="http://www.w3.org/2000/svg" xmlns:xlink="http://www.w3.org/1999/xlink">
    <!-- Generator: Sketch 64 (93537) - https://sketch.com -->
    <title>Icon-Architecture/32/Arch_Amazon-Transcribe_32</title>
    <desc>Created with Sketch.</desc>
    <defs>
        <linearGradient x1="0%" y1="100%" x2="100%" y2="0%" id="linearGradient-1">
            <stop stop-color="#055F4E" offset="0%"></stop>
            <stop stop-color="#56C0A7" offset="100%"></stop>
        </linearGradient>
    </defs>
    <g id="Icon-Architecture/32/Arch_Amazon-Transcribe_32" stroke="none" stroke-width="1" fill="none" fill-rule="evenodd">
        <g id="Icon-Architecture-BG/32/Machine-Learning" fill="url(#linearGradient-1)">
            <rect id="Rectangle" x="0" y="0" width="40" height="40"></rect>
        </g>
        <path d="M20.2845866,15.848913 L23.2368891,15.848913 L23.2368891,14.8657004 L20.2845866,14.8657004 L20.2845866,15.848913 Z M20.2845866,12.9150067 L25.2050908,12.9150067 L25.2050908,11.9317942 L20.2845866,11.9317942 L20.2845866,12.9150067 Z M24.2209899,18.7503733 L30.125595,18.7503733 L30.125595,17.7671607 L24.2209899,17.7671607 L24.2209899,18.7503733 Z M25.2050908,15.848913 L30.125595,15.848913 L30.125595,14.8657004 L25.2050908,14.8657004 L25.2050908,15.848913 Z M33.0158992,27.5432431 L25.2050908,27.5432431 L25.2050908,28.5264557 L33.5079496,28.5264557 C33.7795614,28.5264557 34,28.3062161 34,28.0348494 L34,19.7512836 L33.0158992,19.7512836 L33.0158992,27.5432431 Z M32.1508745,11.9317942 L28.0885062,8.54167729 L28.0885062,11.9317942 L32.1508745,11.9317942 Z M34,12.4234005 L34,16.801646 L33.0158992,16.801646 L33.0158992,12.9150067 L27.5964558,12.9150067 C27.324844,12.9150067 27.1044054,12.6947671 27.1044054,12.4234005 L27.1044054,7.98321256 L19.2847401,7.98517898 L19.2847401,14.6503769 L18.3006393,14.6503769 L18.3006393,7.4935727 C18.3006393,7.22220604 18.5210778,7.00196643 18.7926897,7.00196643 L27.5964558,7 C27.7106115,7 27.8218149,7.03834529 27.9123522,7.11405266 L33.8228618,12.0458468 C33.9380016,12.1412185 34,12.2808346 34,12.4234005 L34,12.4234005 Z M10.4435781,26.6337715 L11.427679,26.6337715 L11.427679,22.7009213 L10.4435781,22.7009213 L10.4435781,26.6337715 Z M12.4117798,27.6169841 L13.3958807,27.6169841 L13.3958807,20.7344962 L12.4117798,20.7344962 L12.4117798,27.6169841 Z M14.4104886,26.6337715 L15.3945895,26.6337715 L15.3945895,21.7177088 L14.4104886,21.7177088 L14.4104886,26.6337715 Z M16.3019304,27.6169841 L17.2860313,27.6169841 L17.2860313,20.7344962 L16.3019304,20.7344962 L16.3019304,27.6169841 Z M18.2848936,26.6337715 L19.2689945,26.6337715 L19.2689945,21.7177088 L18.2848936,21.7177088 L18.2848936,26.6337715 Z M20.2688409,27.6169841 L21.2529418,27.6169841 L21.2529418,20.7344962 L20.2688409,20.7344962 L20.2688409,27.6169841 Z M22.2065355,25.650559 L23.1906363,25.650559 L23.1906363,21.7177088 L22.2065355,21.7177088 L22.2065355,25.650559 Z M22.826519,28.32883 L23.6472591,28.8715633 C22.0018425,31.3581079 19.49829,32.7857325 16.7782352,32.7857325 C15.3010999,32.7857325 13.6360013,32.3501693 12.3586384,31.6383234 L7.92132766,33.9321583 C7.82586988,33.9783693 7.72647569,34 7.62904971,34 C7.45880026,34 7.29642363,33.9331415 7.17537922,33.8072903 C6.98741596,33.611631 6.94608373,33.3176505 7.07303273,33.0757802 L9.3709082,28.6670551 C8.77749539,27.7035068 7.94593018,26.025163 7.94593018,24.1963876 C7.94593018,19.5143294 11.7524322,15.9836131 16.7998855,15.9836131 C18.5466645,15.9836131 19.8043453,16.5361786 21.1555158,17.36601 L20.6408311,18.2037071 C19.4313711,17.4613816 18.3154008,16.9668257 16.7998855,16.9668257 C12.9855106,16.9668257 8.93003102,19.5005644 8.93003102,24.1963876 C8.93003102,25.4676814 9.44766807,26.9906777 10.3500885,28.375041 C10.4475145,28.5235061 10.4553873,28.7132661 10.373707,28.8705801 L8.45667852,32.5487783 L12.1470567,30.6413459 C12.2995923,30.5607225 12.481651,30.567605 12.6292661,30.6580605 C13.7865687,31.3640071 15.3758915,31.8025199 16.7782352,31.8025199 C19.1971551,31.8025199 21.3454473,30.5685882 22.826519,28.32883 L22.826519,28.32883 Z" id="Amazon-Transcribe_Icon_32_Squid" fill="#FFFFFF"></path>
    </g>
</svg>