<?xml version="1.0" encoding="UTF-8"?>
<svg width="40px" height="40px" viewBox="0 0 40 40" version="1.1" xmlns="http://www.w3.org/2000/svg" xmlns:xlink="http://www.w3.org/1999/xlink">
    <!-- Generator: Sketch 64 (93537) - https://sketch.com -->
    <title>Icon-Architecture/32/Arch_AWS-Apache-MXNet_32</title>
    <desc>Created with Sketch.</desc>
    <defs>
        <linearGradient x1="0%" y1="100%" x2="100%" y2="0%" id="linearGradient-1">
            <stop stop-color="#055F4E" offset="0%"></stop>
            <stop stop-color="#56C0A7" offset="100%"></stop>
        </linearGradient>
    </defs>
    <g id="Icon-Architecture/32/Arch_AWS-Apache-MXNet_32" stroke="none" stroke-width="1" fill="none" fill-rule="evenodd">
        <g id="Icon-Architecture-BG/32/Machine-Learning" fill="url(#linearGradient-1)">
            <rect id="Rectangle" x="0" y="0" width="40" height="40"></rect>
        </g>
        <path d="M26.484,24.7018084 L26.484,16.8777992 L20.467,20.2791073 L20.467,28.2141593 L26.484,24.7018084 Z M13.484,24.7018084 L19.467,28.2121585 L19.467,20.278107 L13.484,16.8797999 L13.484,24.7018084 Z M13.994,16.019469 L19.968,19.4117738 L25.969,16.019469 L19.968,12.6071566 L13.994,16.019469 Z M27.236,25.421085 L20.219,29.5166603 C20.141,29.5616776 20.054,29.5846864 19.967,29.5846864 C19.88,29.5846864 19.793,29.5616776 19.714,29.5156599 L12.731,25.4200846 C12.578,25.3310504 12.484,25.1659869 12.484,24.9889188 L12.484,16.0204694 C12.484,15.8414005 12.581,15.6753367 12.736,15.5863024 L19.719,11.5977684 C19.873,11.5097345 20.061,11.5097345 20.214,11.596768 L27.231,15.5863024 C27.387,15.6753367 27.484,15.8414005 27.484,16.0204694 L27.484,24.9889188 C27.484,25.1669873 27.389,25.3310504 27.236,25.421085 L27.236,25.421085 Z M20,8.00038476 C24.037,8.00038476 27.803,10.1562139 30.077,13.7686033 L30.922,13.2353982 C28.465,9.3308965 24.382,7 20,7 C15.615,7 11.532,9.3308965 9.077,13.2363986 L9.922,13.7686033 C12.194,10.1562139 15.961,8.00038476 20,8.00038476 L20,8.00038476 Z M32,20.4921893 C31.864,26.0703347 27.826,30.9171989 22.4,32.0186225 L22.599,33 C28.478,31.806541 32.852,26.5565217 33,20.5171989 L32,20.4921893 Z M17.599,32.0186225 L17.4,33 C11.521,31.806541 7.147,26.5565217 7,20.5171989 L8,20.4921893 C8.135,26.0703347 12.173,30.9171989 17.599,32.0186225 L17.599,32.0186225 Z" id="AWS-Apache-MXNet_Icon_32_Squid" fill="#FFFFFF"></path>
    </g>
</svg>