<?xml version="1.0" encoding="UTF-8"?>
<svg width="40px" height="40px" viewBox="0 0 40 40" version="1.1" xmlns="http://www.w3.org/2000/svg" xmlns:xlink="http://www.w3.org/1999/xlink">
    <!-- Generator: Sketch 64 (93537) - https://sketch.com -->
    <title>Icon-Architecture/32/Arch_AWS-Deep-Composer_32</title>
    <desc>Created with Sketch.</desc>
    <defs>
        <linearGradient x1="0%" y1="100%" x2="100%" y2="0%" id="linearGradient-1">
            <stop stop-color="#055F4E" offset="0%"></stop>
            <stop stop-color="#56C0A7" offset="100%"></stop>
        </linearGradient>
    </defs>
    <g id="Icon-Architecture/32/Arch_AWS-Deep-Composer_32" stroke="none" stroke-width="1" fill="none" fill-rule="evenodd">
        <g id="Icon-Architecture-BG/32/Machine-Learning" fill="url(#linearGradient-1)">
            <rect id="Rectangle" x="0" y="0" width="40" height="40"></rect>
        </g>
        <path d="M24.949,16.45 C24.573,16.826 23.903,16.816 23.547,16.462 L21.865,14.659 C21.726,14.509 21.508,14.459 21.316,14.534 C21.126,14.61 21,14.794 21,15 L21,25.5 C21,25.57 20.992,25.638 20.97,25.764 C20.833,27.578 19.308,29 17.5,29 C15.57,29 14,27.429 14,25.5 C14,23.57 15.57,22 17.5,22 C17.766,22 18.045,22.04 18.374,22.125 C18.523,22.162 18.683,22.132 18.805,22.037 C18.928,21.942 19,21.796 19,21.641 L19,11.5 C19,11.38 19.024,11.257 19.075,11.12 C19.177,10.875 19.375,10.677 19.637,10.572 C19.876,10.476 20.104,10.471 20.381,10.576 C20.505,10.627 20.614,10.7 20.707,10.793 L24.949,15.035 C25.138,15.224 25.242,15.475 25.242,15.742 C25.242,16.01 25.137,16.261 24.949,16.45 L24.949,16.45 Z M21.415,10.086 C21.228,9.899 21.008,9.753 20.73,9.641 C20.255,9.454 19.777,9.443 19.239,9.651 C18.75,9.853 18.352,10.249 18.14,10.77 C18.047,11.01 18,11.255 18,11.5 L18,16 L18,17.132 L18,18.167 L18,20 L18,21.033 C17.829,21.011 17.664,21 17.5,21 C15.018,21 13,23.018 13,25.5 C13,27.981 15.018,30 17.5,30 C19.828,30 21.791,28.173 21.96,25.9 C21.986,25.771 22,25.637 22,25.5 L22,21 L22,19.975 L22,18.857 L22,18 L22,16.269 L22.828,17.157 C23.585,17.913 24.903,17.912 25.656,17.157 C26.034,16.779 26.242,16.277 26.242,15.742 C26.242,15.208 26.034,14.706 25.656,14.328 L21.415,10.086 Z M33,17.922 C30.484,20.091 27.092,20.756 24,19.742 L24,20.772 C24.958,21.054 25.937,21.211 26.913,21.211 C29.07,21.211 31.199,20.528 33,19.211 L33,30.5 C33,31.878 31.879,33 30.5,33 L9.5,33 C8.121,33 7,31.878 7,30.5 L7,22.833 L7.958,21.556 C9.869,19.009 12.916,17.677 16,17.856 L16,16.834 C12.605,16.655 9.261,18.152 7.157,20.956 L7,21.166 L7,9.5 C7,8.121 8.121,7 9.5,7 L30.5,7 C31.879,7 33,8.121 33,9.5 L33,17.922 Z M30.5,6 L9.5,6 C7.57,6 6,7.57 6,9.5 L6,30.5 C6,32.429 7.57,34 9.5,34 L30.5,34 C32.429,34 34,32.429 34,30.5 L34,9.5 C34,7.57 32.429,6 30.5,6 L30.5,6 Z" id="AWS-Deep-Composer_Icon_32_Squid" fill="#FFFFFF"></path>
    </g>
</svg>