<?xml version="1.0" encoding="UTF-8"?>
<svg width="40px" height="40px" viewBox="0 0 40 40" version="1.1" xmlns="http://www.w3.org/2000/svg" xmlns:xlink="http://www.w3.org/1999/xlink">
    <!-- Generator: Sketch 64 (93537) - https://sketch.com -->
    <title>Icon-Architecture/32/Arch_AWS-Deepracer_32</title>
    <desc>Created with Sketch.</desc>
    <defs>
        <linearGradient x1="0%" y1="100%" x2="100%" y2="0%" id="linearGradient-1">
            <stop stop-color="#055F4E" offset="0%"></stop>
            <stop stop-color="#56C0A7" offset="100%"></stop>
        </linearGradient>
    </defs>
    <g id="Icon-Architecture/32/Arch_AWS-Deepracer_32" stroke="none" stroke-width="1" fill="none" fill-rule="evenodd">
        <g id="Icon-Architecture-BG/32/Machine-Learning" fill="url(#linearGradient-1)">
            <rect id="Rectangle" x="0" y="0" width="40" height="40"></rect>
        </g>
        <path d="M18.9171184,24.5456723 C18.6791542,25.3385426 18.7854786,26.0076816 19.0062284,26.2353473 L18.2720835,26.9173543 C17.7516,26.3808553 17.6229981,25.3405223 17.9460219,24.2665344 C18.3379034,22.9658707 19.2269782,22.0908428 20.1190908,22.1809192 L20.0087159,23.1648307 C19.7829031,23.1371149 19.2077385,23.5785882 18.9171184,24.5456723 L18.9171184,24.5456723 Z M8.91654556,24.6555457 C8.66440475,25.4385175 8.77579226,26.1007276 9.00970602,26.3264135 L8.2978386,27.0301973 C7.73887584,26.488749 7.60217299,25.4404972 7.9505121,24.3595804 C8.3646711,23.0638659 9.3185532,22.1977466 10.2258551,22.2818839 L10.1205432,23.2667853 C9.82992311,23.2400593 9.21931706,23.7132079 8.91654556,24.6555457 L8.91654556,24.6555457 Z M15.4327147,20.8564991 L14.5517408,20.3685027 C17.4761691,15.3192748 22.24963,17.3207527 22.3002607,17.3415396 L21.8911648,18.246263 C21.7291466,18.1769735 17.8994416,16.6021211 15.4327147,20.8564991 L15.4327147,20.8564991 Z M32.6866394,26.8777603 C32.3383003,27.5736253 31.5130201,27.9309613 30.2351016,27.9388801 C30.1328276,27.93987 30.0315663,27.9388801 29.9384058,27.93987 L29.9900491,27.8260372 C30.3221864,27.7448694 30.6067308,27.6033208 30.826468,27.3845638 C31.1586053,27.0539537 31.3287244,26.5808051 31.3175857,25.9997628 L31.3054343,25.7582393 C31.3925191,25.7037975 31.4654273,25.6285688 31.5069444,25.5305736 L32.0345162,24.2744532 L32.3453886,23.4320903 C33.0461172,24.5763576 33.1959841,25.859204 32.6866394,26.8777603 L32.6866394,26.8777603 Z M32.7210682,22.235361 C32.8618215,21.7146995 32.9782721,21.1871092 33.0491551,20.6486304 L33.4866042,16.8495838 C33.649635,15.6063314 33.3407878,14.4333585 32.6177816,13.5474422 C31.8643971,12.6229217 30.7616607,12.077514 29.6720884,12.057717 C29.6346217,12.0488084 29.597155,12.0428693 29.5586757,12.0428693 L28.1470922,12.0201027 C28.1400039,11.792437 27.9739352,11.5954568 27.7410341,11.5489338 C25.0535574,11.0183739 22.8480847,10.91147 21.0193044,11.0629172 L21.0193044,11.0530186 L10.7078592,11.0530186 L10.7078592,12.0428693 L16.8929036,12.0428693 C15.5410643,12.640739 14.6023714,13.4118326 13.9573365,14.1443221 L13.9573365,14.0631543 L7.64875322,14.0631543 L7.64875322,15.0530049 L13.2839484,15.0530049 L12.4748701,16.4694812 C11.9331218,17.1010059 11.1655606,17.4039001 10.1144676,17.378164 C8.38998644,17.4830882 7.13535808,18.3541567 6.48222225,19.9151511 C6.40425099,20.1259893 6.23210666,20.605077 6.18046337,20.9040119 C6.17236246,20.9257886 6.16527416,20.949545 6.16021109,20.9723116 C5.9536379,21.9730505 6.02350824,22.8045251 6.02654608,22.8391698 C6.04173529,23.0242719 6.16223632,23.1846277 6.3384311,23.2549071 C6.38501133,23.2737142 6.43361679,23.2855924 6.48222225,23.2895518 C6.45791952,23.3558718 6.43665463,23.4241715 6.41437713,23.4914814 C6.27969951,23.9121679 6.17641291,24.3407732 6.10755518,24.7941248 C6.10755518,24.7941248 6.03262177,25.5830357 6.03059654,25.5830357 L6.03059654,25.581056 C5.82402335,27.7557578 6.70297203,28.5654556 7.47863412,28.8614209 C7.72976231,28.9584263 7.98291574,29 8.23201871,29 C9.06539977,29 9.85321323,28.522892 10.380785,27.9854031 C10.4233147,27.9418497 10.4597688,27.8883978 10.501286,27.8438545 L14.705658,27.8438545 L14.705658,26.8540039 L11.2435318,26.8540039 C11.578707,26.3105759 11.8652766,25.7047873 12.0738751,25.0544555 C12.6277747,23.3271662 12.5842324,21.5969073 11.9594497,20.5377672 L11.0835389,21.0326925 C11.5625051,21.8463497 11.5726313,23.308359 11.106829,24.7584901 C10.7827926,25.7720972 10.265347,26.6738511 9.6517031,27.2994367 C9.21324137,27.7448694 8.4831469,28.1813935 7.8472255,27.93987 C7.19206444,27.6884479 6.91967136,26.926263 7.04017239,25.6711324 L7.11206796,24.9158764 C7.16978694,24.5397332 7.25990956,24.1606204 7.38041059,23.7874467 C7.58293333,23.155922 7.869503,22.5491436 8.2097412,22.0324416 C8.34441883,21.8275425 8.30593951,21.5583031 8.1206312,21.3959676 C7.93329767,21.2326423 7.65584151,21.227693 7.4624323,21.3821097 C7.33484297,21.4840643 7.20421581,21.5899784 7.06852557,21.7008416 C7.08472739,21.5513742 7.10903012,21.3910184 7.14143376,21.2267032 C7.16067342,21.1782005 7.17181217,21.1247486 7.17687524,21.0772357 C7.18700138,20.9792405 7.30648979,20.5951785 7.42597821,20.2724872 C7.92317153,19.0886259 8.84870044,18.4472027 10.1306694,18.3670248 C11.743763,18.4006797 12.7330866,17.7067944 13.3031881,17.0307265 L14.2509945,15.3895542 C15.3790461,13.7266051 18.3054997,11.2460395 25.5244227,12.1863976 C24.7852147,12.7228966 24.449027,13.4593455 24.4399135,13.8592451 C24.4348504,14.0730528 24.5705406,14.2650839 24.7771138,14.337343 C24.983687,14.4086122 25.2115251,14.3432821 25.3462027,14.1740176 C26.3507155,12.9089885 27.6772394,12.9951055 27.7663494,13.0020345 L29.4807044,13.03173 C29.5110828,13.0376691 29.5404486,13.0406387 29.5718397,13.0416285 C30.438637,13.0604357 31.2598667,13.4702338 31.8269303,14.1641191 C32.3767796,14.8391972 32.6096807,15.7488699 32.4810788,16.7317916 L32.0436297,20.5308382 C31.93528,21.3514244 31.7368077,22.1591425 31.4512507,22.9332056 L30.6988787,24.8475767 L30.26548,24.8475767 C30.2826945,24.6436675 30.234089,24.4367887 30.1216889,24.2536663 C29.9343554,23.9418634 29.6001928,23.7557715 29.2305888,23.7557715 L26.8175304,23.7557715 C26.1076882,23.7557715 25.4545524,24.1338944 25.1133016,24.7426525 C25.0960871,24.7753176 25.0808979,24.8099624 25.0707718,24.845597 L23.7493109,24.8446072 C23.7108316,24.6941499 23.6693144,24.5179565 23.6227342,24.3209762 C23.5214728,23.891381 23.3989466,23.3756689 23.2430041,22.8371901 L22.2688697,23.1064295 C22.4187365,23.6280808 22.5372123,24.1289452 22.6364485,24.5456723 C22.7356846,24.9623994 22.8177063,25.3009283 22.8896019,25.5038477 C22.9716236,25.7384423 23.2136383,25.8898894 23.4678043,25.8403969 C23.4779305,25.8384172 23.487044,25.8364375 23.4951449,25.8344578 L25.4575902,25.8354476 C25.6864409,25.8354476 25.8869384,25.6849903 25.94567,25.4701927 L26.0276917,25.1732376 C26.1978108,24.9079576 26.4955193,24.7456221 26.8175304,24.7456221 L29.2518537,24.7822466 C29.2326141,24.8178812 29.2164122,24.8554955 29.2062861,24.8950895 L29.1202139,25.216791 C29.080722,25.3652686 29.1131257,25.5226548 29.209324,25.6444064 C29.3055223,25.7651682 29.4523512,25.8364375 29.610319,25.8364375 L30.2958584,25.8374273 L30.3059846,26.0324279 C30.3120603,26.3313628 30.2442151,26.5520994 30.1044745,26.6906785 C29.9546076,26.8391561 29.7055047,26.9153746 29.3622286,26.9153746 L22.8480847,26.9153746 C22.525061,26.9153746 22.2415291,26.8124302 22.0906497,26.6401962 C21.9792622,26.515475 21.9387576,26.3521496 21.9691361,26.1551694 C22.2455796,24.3407732 22.2587436,22.8569871 22.008628,21.7473646 C21.9488838,21.486044 21.6734529,21.3167796 21.421312,21.3682518 C21.1519568,21.4167545 20.9717116,21.6661969 21.0132287,21.930487 C21.1438559,22.7560224 21.0496828,23.7636903 20.7489366,24.766409 C20.4421146,25.7839754 20.0390944,26.574866 19.5530398,27.1143346 C19.0973636,27.6191584 18.3520799,28.0596419 17.9004542,27.9319512 C17.0853002,27.6983465 16.6579772,25.9730368 17.3171888,23.7795279 C17.6361621,22.7203877 18.1434815,21.7928977 18.7469993,21.1673121 C19.2593818,20.6377421 19.7748022,20.3962185 20.1656711,20.5100513 C20.2294657,20.5278687 20.2902226,20.5555845 20.3499668,20.5922089 L20.8957655,19.7597446 C20.7550122,19.6716479 20.606158,19.604338 20.4522407,19.5597948 C19.6715156,19.3370784 18.8057309,19.6647189 18.0098165,20.4882746 C17.2999743,21.2257133 16.7086079,22.294752 16.3460922,23.50039 C15.5542283,26.1324028 16.1000271,28.4456837 17.6138846,28.8812179 C17.7667892,28.9257612 17.9217191,28.9455582 18.0746238,28.9455582 C18.9880013,28.9455582 19.8821392,28.2457338 20.3125001,27.7686258 C20.5707165,27.4815692 20.8076681,27.1440301 21.0213296,26.7550188 C21.0841117,26.9500194 21.1843604,27.1301722 21.3230885,27.2875585 C21.670415,27.6795393 22.2253273,27.9052252 22.8480847,27.9052252 L28.8478209,27.9052252 L28.7020045,28.2269267 C28.6331468,28.3783738 28.6463107,28.5525875 28.737446,28.6921565 C28.8285812,28.8327152 28.9845237,28.9178424 29.1536302,28.9218018 C29.1536302,28.9218018 29.5333603,28.9297206 30.0082762,28.9297206 C30.0842222,28.9297206 30.1611808,28.9297206 30.2411773,28.9287308 C32.3524769,28.9158627 33.2314255,28.0428145 33.5959665,27.3123047 C34.3665655,25.7720972 34.0131633,23.8062539 32.7210682,22.235361 L32.7210682,22.235361 Z M27.5385114,20.1457863 C27.334976,19.9250496 27.2397903,19.6280945 27.2782696,19.333119 L27.4200356,18.2363645 C27.5587636,18.4957054 27.8281189,18.6788277 28.1460796,18.6788277 C28.6027684,18.6788277 28.973385,18.3175323 28.973385,17.8701198 C28.973385,17.424687 28.6027684,17.0624017 28.1460796,17.0624017 C27.9030523,17.0624017 27.6893908,17.1702954 27.5385114,17.3346106 L27.6924286,16.1537188 C27.7582485,15.6498849 28.1825337,15.2747315 28.7030171,15.2628533 C28.7121306,15.2618634 28.7212442,15.2618634 28.7283324,15.2618634 C29.0240156,15.2618634 29.3045096,15.3836151 29.5029819,15.5984126 C29.7065173,15.8201392 29.801703,16.1161045 29.7632236,16.41108 L29.7632236,16.4120698 L29.3490646,19.59147 C29.2822321,20.0953039 28.857947,20.4704573 28.3131608,20.4833254 C28.0184903,20.4833254 27.735971,20.3595941 27.5385114,20.1457863 L27.5385114,20.1457863 Z M28.3627789,21.4721861 C29.3865313,21.4474399 30.2239629,20.7100012 30.3535774,19.7161912 L30.7677364,16.536791 C30.8436825,15.9547589 30.6573615,15.370747 30.2543413,14.9362026 C29.8523336,14.4996785 29.2518537,14.2502361 28.6787144,14.2730027 C27.6549619,14.2967591 26.8175304,15.0351876 26.6879159,16.0289976 L26.2737569,19.2074079 C26.1967982,19.7894401 26.3841318,20.373452 26.7861394,20.8089862 C27.174983,21.2306626 27.730908,21.4721861 28.3607537,21.4721861 L28.3627789,21.4721861 Z" id="AWS-Deepracer_Icon_32_Squid" fill="#FFFFFF"></path>
    </g>
</svg>