<?xml version="1.0" encoding="UTF-8"?>
<svg width="40px" height="40px" viewBox="0 0 40 40" version="1.1" xmlns="http://www.w3.org/2000/svg" xmlns:xlink="http://www.w3.org/1999/xlink">
    <title>Icon-Architecture/32/Arch_Amazon-Poirot_32</title>
    <defs>
        <linearGradient x1="0%" y1="100%" x2="100%" y2="0%" id="linearGradient-1">
            <stop stop-color="#055F4E" offset="0%"></stop>
            <stop stop-color="#56C0A7" offset="100%"></stop>
        </linearGradient>
    </defs>
    <g id="Icon-Architecture/32/Arch_Amazon-Poirot_32" stroke="none" stroke-width="1" fill="none" fill-rule="evenodd">
        <g id="Rectangle" fill="url(#linearGradient-1)">
            <rect x="0" y="0" width="40" height="40"></rect>
        </g>
        <g id="Icon-Service/32/Amazon-Poirot_32" transform="translate(4.000000, 4.000000)" fill="#FFFFFF">
            <path d="M17.75,17.131 L18.25,17.996 C20.563,16.659 22,14.17 22,11.5 C22,7.364 18.636,4 14.5,4 C10.364,4 7,7.364 7,11.5 C7,14.17 8.437,16.659 10.75,17.996 L11.25,17.131 C9.245,15.971 8,13.814 8,11.5 C8,7.916 10.916,5 14.5,5 C18.084,5 21,7.916 21,11.5 C21,13.814 19.755,15.971 17.75,17.131 L17.75,17.131 Z M22.563,16.523 C22.117,17.239 21.578,17.896 20.951,18.474 L26.51,22.967 C27.036,23.381 27.709,23.024 28.109,22.514 C28.529,21.984 28.689,21.236 28.184,20.837 L22.563,16.523 Z M5,11.5 C5,6.262 9.262,2 14.5,2 C19.738,2 24,6.262 24,11.5 C24,12.964 23.652,14.365 23.042,15.63 L28.798,20.048 C29.689,20.753 29.729,22.078 28.895,23.134 C28.371,23.797 27.685,24.148 27.023,24.148 C26.62,24.148 26.227,24.017 25.886,23.748 L20.159,19.119 C19.749,19.423 19.32,19.705 18.856,19.945 L18.397,19.056 C19.821,18.32 20.974,17.225 21.77,15.914 L21.765,15.91 L21.785,15.884 C22.565,14.587 23,13.081 23,11.5 C23,6.813 19.187,3 14.5,3 C9.813,3 6,6.813 6,11.5 C6,14.926 8.039,18.001 11.194,19.334 L10.806,20.255 C7.278,18.765 5,15.329 5,11.5 L5,11.5 Z M3,29 L3,2 L2,2 L2,30 L30,30 L30,29 L3,29 Z M4.938,26.739 L4.062,26.261 L7.062,20.761 C7.146,20.604 7.309,20.505 7.487,20.5 C7.643,20.499 7.833,20.587 7.926,20.738 L11.227,26.101 L14.007,9.418 C14.046,9.182 14.247,9.006 14.486,9 L14.5,9 C14.733,9 14.937,9.162 14.988,9.392 L18.79,26.503 L21.146,24.147 C21.342,23.951 21.658,23.951 21.854,24.147 L24.5,26.793 L26.146,25.147 L26.854,25.854 L24.854,27.854 C24.658,28.049 24.342,28.049 24.146,27.854 L21.5,25.207 L18.854,27.854 C18.725,27.982 18.534,28.03 18.36,27.98 C18.185,27.929 18.052,27.787 18.012,27.609 L14.57,12.121 L11.993,27.582 C11.959,27.788 11.801,27.951 11.596,27.991 C11.563,27.997 11.532,28 11.5,28 C11.328,28 11.166,27.912 11.074,27.762 L7.526,21.997 L4.938,26.739 Z" id="Fill-8"></path>
        </g>
    </g>
</svg>