<svg xmlns="http://www.w3.org/2000/svg" width="24px" height="24px" viewBox="0 0 24 24"><defs><style>.cls-1{fill:#669df6;}.cls-1,.cls-2,.cls-3{fill-rule:evenodd;}.cls-2{fill:#4285f4;}.cls-3{fill:#aecbfa;}</style></defs><title>Icon_24px_CloudSpanner_Color</title><g data-name="Product Icons"><g ><polygon id="Shape-2" data-name="Shape" class="cls-1" points="13.34 12.76 13.34 8.4 10.66 8.4 10.66 12.76 6.89 14.94 8.23 17.26 12 15.08 15.77 17.26 17.11 14.94 13.34 12.76"/><polygon class="cls-2" points="13.34 12.76 13.34 8.4 12 8.4 12 13.52 7.56 16.1 8.23 17.26 12 15.08 15.77 17.26 17.11 14.94 13.34 12.76"/><polygon class="cls-3" points="10.65 2.77 8.62 3.99 8.62 7.72 12 9.55 12 6.44 10.65 5.82 10.65 2.77"/><polygon class="cls-1" points="13.35 5.82 12 6.44 12 9.55 15.38 7.72 15.38 3.99 13.35 2.77 13.35 5.82"/><path class="cls-1" d="M18.14,17.08l-.08,1.39L20.76,20l-2.18,1.2-3.24-1.87.11-3.83,3.27-2L22,15.38,22,17.87l-2.69-1.55Z"/><path class="cls-1" d="M5.86,17.08l-1.17-.76L2,17.87l0-2.49,3.23-1.87,3.27,2,.11,3.83L5.42,21.23,3.24,20l2.7-1.56Z"/><polygon class="cls-3" points="22 17.87 21.95 15.38 18.72 13.52 15.45 15.53 18.14 17.08 19.3 16.32 22 17.87"/><polygon class="cls-3" points="2 17.87 4.7 16.32 5.86 17.08 8.55 15.53 5.28 13.52 2.05 15.38 2 17.87"/></g></g></svg>