<svg id="Artwork" xmlns="http://www.w3.org/2000/svg" width="24px" height="24px" viewBox="0 0 24 24"><polygon points="17.98 7.06 7.26 17.75 6.35 16.84 17.06 6.14 17.98 7.06" style="fill:#4285f4"/><circle cx="12" cy="12.06" r="2.82" transform="translate(-5.01 11.71) rotate(-43.97)" style="fill:#669df6"/><path d="M21.75,12a9.69,9.69,0,0,1-1.91,5.79,1.54,1.54,0,0,0-1-.78,8.43,8.43,0,0,0,1.28-7.48,4.13,4.13,0,0,0,1.15-.67A9.62,9.62,0,0,1,21.75,12Zm-4,7.84a9.73,9.73,0,0,1-8.93,1.39,4.13,4.13,0,0,0,.67-1.15A8.43,8.43,0,0,0,17,18.8,1.54,1.54,0,0,0,17.79,19.84ZM15.14,2.77a4.13,4.13,0,0,0-.67,1.15l-.05,0A8.46,8.46,0,0,0,7,5.2a1.57,1.57,0,0,0-.78-1,9.73,9.73,0,0,1,8.93-1.39ZM5.2,7a8.43,8.43,0,0,0-1.28,7.48,4.13,4.13,0,0,0-1.15.67A9.73,9.73,0,0,1,4.16,6.21,1.54,1.54,0,0,0,5.2,7Z" style="fill:#4285f4"/><path d="M19.52,5.51a1,1,0,1,0-1,1A1,1,0,0,0,19.52,5.51Zm1.36,0A2.38,2.38,0,1,1,18.5,3.13,2.38,2.38,0,0,1,20.88,5.51Z" style="fill:#aecbfa;fill-rule:evenodd"/><path d="M19.52,18.55a1,1,0,1,0-1,1A1,1,0,0,0,19.52,18.55Zm1.36,0a2.38,2.38,0,1,1-2.38-2.39A2.39,2.39,0,0,1,20.88,18.55Z" style="fill:#aecbfa;fill-rule:evenodd"/><path d="M6.46,18.55a1,1,0,1,0-1,1A1,1,0,0,0,6.46,18.55Zm1.36,0a2.38,2.38,0,1,1-2.37-2.39A2.38,2.38,0,0,1,7.82,18.55Z" style="fill:#aecbfa;fill-rule:evenodd"/><path d="M6.46,5.51a1,1,0,1,0-1,1A1,1,0,0,0,6.46,5.51Zm1.36,0A2.38,2.38,0,1,1,5.45,3.13,2.37,2.37,0,0,1,7.82,5.51Z" style="fill:#aecbfa;fill-rule:evenodd"/></svg>