<svg xmlns="http://www.w3.org/2000/svg" width="24px" height="24px" viewBox="0 0 24 24"><defs><style>.cls-1{fill:#669df6;}.cls-2{fill:#4285f4;}</style></defs><title>Icon_24px_TexttoSpeech_Color</title><g data-name="Product Icons"><rect class="cls-1" x="2.01" y="6.99" width="6.64" height="1.67"/><polygon class="cls-1" points="11.17 15.32 2 15.32 2 16.99 2 16.99 11.17 16.99 11.17 15.32"/><polygon class="cls-1" points="4.51 11.16 2 11.16 2 12.82 6.18 12.82 12 12.82 10.33 11.16 4.51 11.16"/><path class="cls-2" d="M12,9.07a.42.42,0,0,1,.42-.36.41.41,0,0,1,.41.36v9.18a2.09,2.09,0,0,0,2.61,2A2.16,2.16,0,0,0,17,18.14V5.75a.4.4,0,0,1,.19-.4.41.41,0,0,1,.45,0,.4.4,0,0,1,.19.4v9.16a2.07,2.07,0,0,0,.81,1.64,2,2,0,0,0,1.8.37A2.16,2.16,0,0,0,22,14.8V12H20.33v2.92a.4.4,0,0,1-.19.4.41.41,0,0,1-.45,0,.4.4,0,0,1-.19-.4V5.75a2.09,2.09,0,0,0-2.61-2,2.16,2.16,0,0,0-1.56,2.13V18.25a.4.4,0,0,1-.19.4.41.41,0,0,1-.45,0,.4.4,0,0,1-.19-.4V9.08a2.07,2.07,0,0,0-4.11-.36,2.4,2.4,0,0,0-.05.46v2L12,12.82V9.07Z"/></g></svg>