<svg xmlns="http://www.w3.org/2000/svg" width="24px" height="24px" viewBox="0 0 24 24"><defs><style>.cls-1{fill:#4285f4;}.cls-2{fill:#669df6;}</style></defs><title>Icon_24px_SecurityScanner_Color</title><g data-name="Product Icons"><circle class="cls-1" cx="11.44" cy="11.5" r="2.97"/><circle class="cls-2" cx="4.02" cy="10.79" r="2.02"/><circle class="cls-2" cx="14.52" cy="18.62" r="2.02"/><path class="cls-2" d="M19.57,4.2A2.43,2.43,0,1,0,22,6.63,2.43,2.43,0,0,0,19.57,4.2Zm0,3.8a1.37,1.37,0,1,1,1.36-1.37h0A1.37,1.37,0,0,1,19.57,8Z"/><path class="cls-2" d="M18.2,6.68a8.29,8.29,0,0,0-5.06-3.32L12.86,4.7a6.95,6.95,0,1,1-8.22,5.38A6.88,6.88,0,0,1,6.51,6.61l-1-1A8.31,8.31,0,1,0,18.89,7.81,1.36,1.36,0,0,1,18.2,6.68Z"/></g></svg>