<svg xmlns="http://www.w3.org/2000/svg" width="24px" height="24px" viewBox="0 0 24 24"><defs><style>.cls-1{fill:#aecbfa;}.cls-2{fill:#4285f4;}.cls-3{fill:#669df6;}</style></defs><title>Icon_24px_Cloudshell_Color</title><g data-name="Product Icons"><g data-name="Cloud-Shell shaded 32px"><path class="cls-1" d="M20.2,2.67H3.8A1.79,1.79,0,0,0,2,4.47v10.8a1.79,1.79,0,0,0,1.8,1.8H10v2.26H8v2h8v-2H14V17.07h6.2a1.79,1.79,0,0,0,1.8-1.8V4.47A1.79,1.79,0,0,0,20.2,2.67Zm-3.53,12h-4v-2h4Zm0-4.54L7.6,13.93V12.07l6.53-2.8L7.6,6.4V4.53l9.07,3.74Z"/><polygon class="cls-2" points="10 17.07 14 17.07 14 19.33 10 19.33 10 17.07"/><rect class="cls-3" x="8" y="19.33" width="8" height="2"/></g></g></svg>