<?xml version="1.0" encoding="UTF-8"?>
<svg width="24px" height="24px" viewBox="0 0 24 24" version="1.1" xmlns="http://www.w3.org/2000/svg" xmlns:xlink="http://www.w3.org/1999/xlink">
    <!-- Generator: Sketch 64 (93537) - https://sketch.com -->
    <title>Icon-Architecture/16/Arch_Amazon-Quantum-Ledger-Database_16</title>
    <desc>Created with Sketch.</desc>
    <defs>
        <linearGradient x1="0%" y1="100%" x2="100%" y2="0%" id="linearGradient-1">
            <stop stop-color="#C8511B" offset="0%"></stop>
            <stop stop-color="#FF9900" offset="100%"></stop>
        </linearGradient>
    </defs>
    <g id="Icon-Architecture/16/Arch_Amazon-Quantum-Ledger-Database_16" stroke="none" stroke-width="1" fill="none" fill-rule="evenodd">
        <g id="Icon-Architecture-BG/16/Blockchain" fill="url(#linearGradient-1)">
            <rect id="Rectangle" x="0" y="0" width="24" height="24"></rect>
        </g>
        <path d="M18,12.9686944 L19,12.9686944 L19,11.9726076 L18,11.9726076 L18,12.9686944 Z M14,12.9686944 L15,12.9686944 L15,11.9726076 L14,11.9726076 L14,12.9686944 Z M10,12.9686944 L11,12.9686944 L11,11.9726076 L10,11.9726076 L10,12.9686944 Z M17,10.9765208 L17,11.9726076 L16,11.9726076 L16,10.9765208 L13,10.9765208 L13,11.9726076 L12,11.9726076 L12,10.9765208 L9,10.9765208 L9,13.9647812 L12,13.9647812 L12,12.9686944 L13,12.9686944 L13,13.9647812 L16,13.9647812 L16,12.9686944 L17,12.9686944 L17,13.9647812 L20,13.9647812 L20,10.9765208 L17,10.9765208 Z M9,5.9960868 C11.625,5.9960868 13,6.7361793 13,6.9921736 C13,7.24816791 11.625,7.98826041 9,7.98826041 C6.375,7.98826041 5,7.24816791 5,6.9921736 C5,6.7361793 6.375,5.9960868 9,5.9960868 L9,5.9960868 Z M13,16.7548203 C13,17.1791533 11.588,18.0039132 9,18.0039132 C6.412,18.0039132 5,17.1791533 5,16.7548203 L5,13.3741017 C5.75,13.8083956 6.765,13.9647812 7.5,13.9647812 L7.5,12.9686944 C7.475,12.9686944 5,12.9188901 5,11.8102455 L5,8.24823906 C5.975,8.74727855 7.521,8.98434721 9,8.98434721 C10.479,8.98434721 12.025,8.74727855 13,8.24823906 L13,9.98043401 L14,9.98043401 L14,6.9921736 C14,5.62355034 11.408,5 9,5 C6.592,5 4,5.62355034 4,6.9921736 L4,16.7548203 C4,18.2280327 6.516,19 9,19 C11.484,19 14,18.2280327 14,16.7548203 L14,14.960868 L13,14.960868 L13,16.7548203 Z" id="Amazon-Quantum-Ledger-Database_Icon_16_Squid" fill="#FFFFFF"></path>
    </g>
</svg>