<?xml version="1.0" encoding="UTF-8"?>
<svg width="64px" height="64px" viewBox="0 0 64 64" version="1.1" xmlns="http://www.w3.org/2000/svg" xmlns:xlink="http://www.w3.org/1999/xlink">
    <!-- Generator: Sketch 64 (93537) - https://sketch.com -->
    <title>Icon-Architecture/48/Arch_AWS-Resources-Access-Manager_48</title>
    <desc>Created with Sketch.</desc>
    <defs>
        <linearGradient x1="0%" y1="100%" x2="100%" y2="0%" id="linearGradient-1">
            <stop stop-color="#BD0816" offset="0%"></stop>
            <stop stop-color="#FF5252" offset="100%"></stop>
        </linearGradient>
    </defs>
    <g id="Icon-Architecture/48/Arch_AWS-Resources-Access-Manager_48" stroke="none" stroke-width="1" fill="none" fill-rule="evenodd">
        <g id="Icon-Architecture-BG/48/Security-Identity-Compliance" fill="url(#linearGradient-1)">
            <rect id="Rectangle" x="0" y="0" width="64" height="64"></rect>
        </g>
        <path d="M26.071,47.571 C26.071,47.256 25.815,47 25.5,47 C25.184,47 24.928,47.256 24.928,47.571 C24.928,47.886 25.184,48.143 25.5,48.143 C25.815,48.143 26.071,47.886 26.071,47.571 L26.071,47.571 Z M28.071,47.571 C28.071,48.989 26.918,50.143 25.5,50.143 C24.082,50.143 22.928,48.989 22.928,47.571 C22.928,46.153 24.082,45 25.5,45 C26.918,45 28.071,46.153 28.071,47.571 L28.071,47.571 Z M42.586,48 L41.586,47 L30.772,47 C30.33,47 29.94,46.709 29.814,46.285 C29.25,44.393 27.476,43.071 25.5,43.071 C23.018,43.071 21,45.09 21,47.571 C21,50.052 23.018,52.071 25.5,52.071 C27.276,52.071 28.835,51.113 29.567,49.571 C29.733,49.222 30.085,49 30.47,49 L32.571,49 C32.828,49 33.076,49.099 33.261,49.277 L34.142,50.117 L35.023,49.277 C35.209,49.099 35.457,49 35.714,49 L37.286,49 C37.543,49 37.791,49.099 37.976,49.277 L38.857,50.117 L39.738,49.277 C39.924,49.099 40.172,49 40.428,49 L41.586,49 L42.586,48 Z M44.707,47.293 C45.097,47.683 45.097,48.316 44.707,48.707 L42.707,50.707 C42.519,50.894 42.265,51 42,51 L40.829,51 L39.548,52.223 C39.161,52.592 38.553,52.592 38.167,52.223 L36.885,51 L36.114,51 L34.833,52.223 C34.446,52.592 33.839,52.592 33.452,52.223 L32.171,51 L31.066,51 C29.909,52.909 27.832,54.071 25.5,54.071 C21.916,54.071 19,51.155 19,47.571 C19,43.987 21.916,41.071 25.5,41.071 C28.098,41.071 30.455,42.654 31.47,45 L42,45 C42.265,45 42.519,45.105 42.707,45.293 L44.707,47.293 Z M37.479,20.446 L42,24.636 L46.52,20.45 L42,16.35 L37.479,20.446 Z M41.32,26.733 L35.32,21.171 C35.114,20.98 34.998,20.712 34.9999746,20.431 C35.002,20.151 35.121,19.884 35.328,19.696 L41.328,14.258 C41.709,13.914 42.291,13.913 42.672,14.259 L48.672,19.702 C48.88,19.89 48.999,20.157 49.0000064,20.437 C49.001,20.717 48.884,20.986 48.679,21.176 L42.679,26.734 C42.488,26.911 42.244,27 42,27 C41.756,27 41.511,26.911 41.32,26.733 L41.32,26.733 Z M26.899,23 L22.5,17.586 L18.1,23 L26.899,23 Z M29,25 L16,25 C15.614,25 15.262,24.778 15.096,24.429 C14.931,24.081 14.98,23.669 15.223,23.369 L21.723,15.369 C22.104,14.902 22.895,14.902 23.276,15.369 L29.776,23.369 C30.019,23.669 30.068,24.081 29.903,24.429 C29.737,24.778 29.385,25 29,25 L29,25 Z M18,34 C18,36.205 19.794,38 22,38 C24.206,38 26,36.205 26,34 C26,31.794 24.206,30 22,30 C19.794,30 18,31.794 18,34 L18,34 Z M16,34 C16,30.691 18.691,28 22,28 C25.308,28 28,30.691 28,34 C28,37.308 25.308,40 22,40 C18.691,40 16,37.308 16,34 L16,34 Z M38,38 L45,38 L45,31 L38,31 L38,38 Z M47,39 C47,39.552 46.552,40 46,40 L37,40 C36.447,40 36,39.552 36,39 L36,30 C36,29.447 36.447,29 37,29 L46,29 C46.552,29 47,29.447 47,30 L47,39 Z M54,11 L54,50 C54,50.552 53.552,51 53,51 L47,51 L47,49 L52,49 L52,12 L12,12 L12,49 L17,49 L17,51 L11,51 C10.447,51 10,50.552 10,50 L10,11 C10,10.447 10.447,10 11,10 L53,10 C53.552,10 54,10.447 54,11 L54,11 Z" id="AWS-Resources-Access-Manager_Icon_48_Squid" fill="#FFFFFF"></path>
    </g>
</svg>