<?xml version="1.0" encoding="UTF-8"?>
<svg width="64px" height="64px" viewBox="0 0 64 64" version="1.1" xmlns="http://www.w3.org/2000/svg" xmlns:xlink="http://www.w3.org/1999/xlink">
    <!-- Generator: Sketch 64 (93537) - https://sketch.com -->
    <title>Icon-Architecture/48/Arch_AWS-Directory-Service_48</title>
    <desc>Created with Sketch.</desc>
    <defs>
        <linearGradient x1="0%" y1="100%" x2="100%" y2="0%" id="linearGradient-1">
            <stop stop-color="#BD0816" offset="0%"></stop>
            <stop stop-color="#FF5252" offset="100%"></stop>
        </linearGradient>
    </defs>
    <g id="Icon-Architecture/48/Arch_AWS-Directory-Service_48" stroke="none" stroke-width="1" fill="none" fill-rule="evenodd">
        <g id="Icon-Architecture-BG/48/Security-Identity-Compliance" fill="url(#linearGradient-1)">
            <rect id="Rectangle" x="0" y="0" width="64" height="64"></rect>
        </g>
        <path d="M27,42 L30,42 L30,40 L27,40 L27,42 Z M20,42 L26,42 L26,40 L20,40 L20,42 Z M20,38 L29,38 L29,36 L20,36 L20,38 Z M52,47 L52,32 L51,32 L51,43 C51,43.552 50.553,44 50,44 L34,44 C33.447,44 33,43.552 33,43 L33,32 L18,32 L18,47 L52,47 Z M36.071,42 L47.902,42 C47.459,39.641 45.493,37.907 43.436,37.236 C42.867,37.467 42.26,37.59 41.648,37.59 C41.04,37.59 40.453,37.477 39.896,37.256 C37.783,37.957 36.383,39.693 36.071,42 L36.071,42 Z M42.965,35.253 C43.834,34.781 44.373,33.881 44.373,32.903 C44.373,31.417 43.15,30.209 41.648,30.209 C40.146,30.209 38.925,31.417 38.925,32.903 C38.925,33.88 39.462,34.781 40.327,35.254 C41.142,35.696 42.139,35.703 42.965,35.253 L42.965,35.253 Z M49,27 L35,27 L35,38.914 C35.693,37.629 36.733,36.6 38.025,35.901 C37.329,35.071 36.925,34.018 36.925,32.903 C36.925,30.315 39.044,28.209 41.648,28.209 C44.254,28.209 46.373,30.315 46.373,32.903 C46.373,33.994 45.988,35.026 45.319,35.846 C46.905,36.625 48.184,37.825 49,39.266 L49,27 Z M18,23 L18,30 L33,30 L33,26 C33,25.448 33.447,25 34,25 L50,25 C50.553,25 51,25.448 51,26 L51,30 L52,30 L52,23 L18,23 Z M54,22 L54,48 C54,48.552 53.553,49 53,49 L17,49 C16.447,49 16,48.552 16,48 L16,22 C16,21.448 16.447,21 17,21 L53,21 C53.553,21 54,21.448 54,22 L54,22 Z M13,42 L14,42 L14,44 L12,44 C11.447,44 11,43.552 11,43 L11,17 C11,16.448 11.447,16 12,16 L49,16 C49.553,16 50,16.448 50,17 L50,19 L48,19 L48,18 L13,18 L13,42 Z" id="AWS-Directory-Service_Icon_48_Squid" fill="#FFFFFF"></path>
    </g>
</svg>