<?xml version="1.0" encoding="UTF-8"?>
<svg width="64px" height="64px" viewBox="0 0 64 64" version="1.1" xmlns="http://www.w3.org/2000/svg" xmlns:xlink="http://www.w3.org/1999/xlink">
    <!-- Generator: Sketch 64 (93537) - https://sketch.com -->
    <title>Icon-Architecture/48/Arch_AWS-Firewall-Manager_48</title>
    <desc>Created with Sketch.</desc>
    <defs>
        <linearGradient x1="0%" y1="100%" x2="100%" y2="0%" id="linearGradient-1">
            <stop stop-color="#BD0816" offset="0%"></stop>
            <stop stop-color="#FF5252" offset="100%"></stop>
        </linearGradient>
    </defs>
    <g id="Icon-Architecture/48/Arch_AWS-Firewall-Manager_48" stroke="none" stroke-width="1" fill="none" fill-rule="evenodd">
        <g id="Icon-Architecture-BG/48/Security-Identity-Compliance" fill="url(#linearGradient-1)">
            <rect id="Rectangle" x="0" y="0" width="64" height="64"></rect>
        </g>
        <path d="M50,31 C48.897,31 48,30.103 48,29 C48,27.897 48.897,27 50,27 C51.103,27 52,27.897 52,29 C52,30.103 51.103,31 50,31 M54,29 C54,26.794 52.206,25 50,25 C49.915,25 49.835,25.02 49.751,25.025 C49.338,24.022 48.864,23.048 48.299,22.141 L46.602,23.198 C47.081,23.967 47.484,24.793 47.842,25.642 C46.737,26.354 46,27.59 46,29 C46,30.931 47.375,32.547 49.198,32.919 C49.095,36.513 47.932,39.919 45.795,42.796 L47.4,43.988 C49.82,40.731 51.123,36.867 51.203,32.795 C52.818,32.28 54,30.784 54,29 M44,20 C42.897,20 42,19.103 42,18 C42,16.897 42.897,16 44,16 C45.103,16 46,16.897 46,18 C46,19.103 45.103,20 44,20 M48,18 C48,15.794 46.206,14 44,14 C41.794,14 40,15.794 40,18 C40,20.206 41.794,22 44,22 C46.206,22 48,20.206 48,18 M22,15 C22,13.897 22.897,13 24,13 C25.103,13 26,13.897 26,15 C26,16.103 25.103,17 24,17 C22.897,17 22,16.103 22,15 M28,15 C28,12.794 26.206,11 24,11 C21.794,11 20,12.794 20,15 C20,17.206 21.794,19 24,19 C26.206,19 28,17.206 28,15 M29.1,15.087 L28.799,13.11 C32.427,12.559 36.09,13.042 39.396,14.467 L38.604,16.304 C35.641,15.026 32.354,14.593 29.1,15.087 M14,30 C12.897,30 12,29.103 12,28 C12,26.897 12.897,26 14,26 C15.103,26 16,26.897 16,28 C16,29.103 15.103,30 14,30 M20.632,18.853 L19.368,17.302 C17.144,19.115 15.34,21.426 14.108,24.011 C14.071,24.01 14.037,24 14,24 C11.794,24 10,25.794 10,28 C10,29.567 10.914,30.914 12.23,31.569 C12.219,31.845 12.2,32.119 12.2,32.399 C12.2,38.042 14.648,43.409 18.917,47.124 L20.229,45.615 C16.397,42.281 14.2,37.463 14.2,32.399 C14.2,32.257 14.212,32.119 14.216,31.978 C16.319,31.864 18,30.132 18,28 C18,26.546 17.213,25.283 16.049,24.583 C17.148,22.38 18.719,20.412 20.632,18.853 M40.566,44.651 C39.368,49.272 33.714,50.581 31.704,50.905 C31.229,49.206 30.336,44.813 32.282,40.621 C32.41,40.351 32.545,40.081 32.694,39.813 C33.885,37.685 34.845,35.696 34.528,32.911 C34.401,31.788 33.833,30.247 33.211,28.826 C35.12,30.842 37.046,34.264 36.201,39.521 C36.136,39.929 36.328,40.336 36.687,40.544 C37.045,40.752 37.493,40.718 37.815,40.458 C37.89,40.398 39.354,39.188 40.103,36.292 C40.935,37.601 41.73,40.133 40.566,44.651 M26.052,47.842 C23.309,45.936 22.437,42.193 24.059,39.334 C24.131,39.211 24.202,39.087 24.287,38.957 C25.793,36.596 25.429,33.404 24.957,31.376 C26.19,32.269 27.288,33.929 27.675,34.644 C27.862,34.991 28.227,35.193 28.633,35.166 C29.027,35.135 29.367,34.875 29.498,34.501 C30.828,30.722 30.214,27.849 29.292,25.94 C29.438,26.029 29.572,26.128 29.707,26.227 C30.521,27.718 32.339,31.346 32.542,33.137 C32.791,35.338 32.039,36.888 30.947,38.839 C30.775,39.148 30.619,39.458 30.471,39.773 C28.627,43.744 28.977,47.778 29.468,50.174 C28.506,49.627 27.655,49.018 26.93,48.48 C26.617,48.25 26.325,48.034 26.052,47.842 M39.938,33.338 C39.646,33.177 39.29,33.174 38.993,33.33 C38.696,33.485 38.498,33.779 38.463,34.112 C38.423,34.507 38.367,34.873 38.3,35.213 C37.446,28.124 31.773,25.068 30.962,24.667 C29.817,23.814 28.451,23.249 26.78,22.956 C26.332,22.877 25.895,23.11 25.704,23.519 C25.513,23.928 25.621,24.417 25.967,24.708 C26.1,24.821 28.843,27.207 28.145,31.746 C27.063,30.368 25.396,28.784 23.444,28.784 C23.114,28.784 22.806,28.946 22.619,29.219 C22.433,29.491 22.393,29.838 22.512,30.146 C23.041,31.507 24.087,35.551 22.605,37.874 C22.509,38.024 22.42,38.174 22.325,38.335 C20.191,42.097 21.327,46.994 24.909,49.484 C25.168,49.665 25.444,49.869 25.739,50.088 C27.008,51.027 28.587,52.196 30.662,52.941 L30.663,52.94 C30.769,52.978 30.881,53 31,53 C31.03,53 31.075,52.999 31.105,52.996 C32.087,52.907 40.744,51.935 42.503,45.151 C44.827,36.133 40.139,33.448 39.938,33.338" id="AWS-Firewall-Manager_Icon_48_Squid" fill="#FFFFFF"></path>
    </g>
</svg>