<?xml version="1.0" encoding="UTF-8"?>
<svg width="64px" height="64px" viewBox="0 0 64 64" version="1.1" xmlns="http://www.w3.org/2000/svg" xmlns:xlink="http://www.w3.org/1999/xlink">
    <!-- Generator: Sketch 64 (93537) - https://sketch.com -->
    <title>Icon-Architecture/48/Arch_Amazon-Inspector_48</title>
    <desc>Created with Sketch.</desc>
    <defs>
        <linearGradient x1="0%" y1="100%" x2="100%" y2="0%" id="linearGradient-1">
            <stop stop-color="#BD0816" offset="0%"></stop>
            <stop stop-color="#FF5252" offset="100%"></stop>
        </linearGradient>
    </defs>
    <g id="Icon-Architecture/48/Arch_Amazon-Inspector_48" stroke="none" stroke-width="1" fill="none" fill-rule="evenodd">
        <g id="Icon-Architecture-BG/48/Security-Identity-Compliance" fill="url(#linearGradient-1)">
            <rect id="Rectangle" x="0" y="0" width="64" height="64"></rect>
        </g>
        <path d="M30.4652846,32.9508422 C30.4652846,34.5913649 29.140647,35.9263 27.5105542,35.9263 C25.8804614,35.9263 24.5558238,34.5913649 24.5558238,32.9508422 C24.5558238,31.3103195 25.8804614,29.9753843 27.5105542,29.9753843 C29.140647,29.9753843 30.4652846,31.3103195 30.4652846,32.9508422 M29.0917342,24.8799127 C28.2532297,24.8799127 27.5724438,24.1933459 27.5724438,23.3489592 C27.5724438,22.5045725 28.2532297,21.8180057 29.0917342,21.8180057 C29.9302388,21.8180057 30.6110246,22.5045725 30.6110246,23.3489592 C30.6110246,24.1933459 29.9302388,24.8799127 29.0917342,24.8799127 M27.8130148,39.476745 C22.0383137,39.476745 17.3396934,34.7451639 17.3396934,28.9299532 C17.3396934,23.1147424 22.0383137,18.3831613 27.8130148,18.3831613 C33.5877158,18.3831613 38.2853379,23.1147424 38.2853379,28.9299532 C38.2853379,30.3603844 37.9988488,31.7234658 37.4837674,32.9689362 L32.4697098,32.2351239 C32.2530961,30.7152279 31.3766592,29.4184912 30.1298827,28.6464805 L30.1298827,26.7978768 C31.6052515,26.346532 32.6883199,24.9804349 32.6883199,23.3489592 C32.6883199,21.3525878 31.0741986,19.7281487 29.0917342,19.7281487 C27.1092699,19.7281487 25.4951486,21.3525878 25.4951486,23.3489592 C25.4951486,24.9804349 26.578217,26.346532 28.0535857,26.7978768 L28.0535857,27.9408145 C27.8729079,27.92071 27.6972213,27.884522 27.5105542,27.884522 C26.1070573,27.884522 24.8393182,28.4695614 23.9249489,29.4064285 L23.1533251,28.6153186 C23.6155008,27.8774855 23.8940041,27.0099787 23.8940041,26.0741168 C23.8940041,24.4396254 23.0784586,22.9368181 21.7108976,22.0532277 L20.6328203,23.7450168 C21.4244085,24.2566749 21.8975647,25.1271974 21.8975647,26.0741168 C21.8975647,27.6020546 20.6637651,28.8455145 19.1454729,28.8455145 L19.1454729,30.855959 C20.0837995,30.855959 20.9522506,30.5724863 21.6889368,30.0980214 L22.7979589,31.2329174 C22.603306,31.7717165 22.4795268,32.3446932 22.4795268,32.9508422 C22.4795268,35.7443548 24.7365016,38.0171623 27.5105542,38.0171623 C29.808456,38.0171623 31.7300289,36.4480104 32.3289608,34.3259862 L36.418667,34.9250987 C34.5260424,37.6713659 31.3766592,39.476745 27.8130148,39.476745 M27.8130148,16.2933042 C20.8923574,16.2933042 15.2633964,21.9617525 15.2633964,28.9299532 C15.2633964,35.8981538 20.8923574,41.5666021 27.8130148,41.5666021 C34.7316756,41.5666021 40.3616349,35.8981538 40.3616349,28.9299532 C40.3616349,21.9617525 34.7316756,16.2933042 27.8130148,16.2933042 M51.361018,50.1763307 C50.5414796,51.0880673 49.1369844,51.1624537 48.2296027,50.3411871 L38.7664798,41.7455317 C39.8864823,40.7734817 40.8857002,39.6637164 41.7192137,38.4293035 L51.1963117,47.0239537 C52.101697,47.848236 52.1745671,49.2645941 51.361018,50.1763307 M13.076297,28.9299532 C13.076297,20.747444 19.686508,14.0898571 27.8130148,14.0898571 C35.9375251,14.0898571 42.5477361,20.747444 42.5477361,28.9299532 C42.5477361,37.1134675 35.9375251,43.7700493 27.8130148,43.7700493 C19.686508,43.7700493 13.076297,37.1134675 13.076297,28.9299532 M52.5858336,45.4728958 L42.788307,36.5857258 C43.9532294,34.2827617 44.6250313,31.6862726 44.6250313,28.9299532 C44.6250313,19.5944541 37.0824831,12 27.8130148,12 C18.5425482,12 11,19.5944541 11,28.9299532 C11,38.2654522 18.5425482,45.8599063 27.8130148,45.8599063 C31.2399031,45.8599063 34.4282169,44.8164856 37.0894706,43.036237 L46.8410791,51.8952607 C47.6596193,52.6351043 48.6857891,53 49.7089643,53 C50.883869,52.9989948 52.0547807,52.5195038 52.9032675,51.5756001 C54.4814528,49.8064089 54.3397056,47.0681835 52.5858336,45.4728958" id="Amazon-Inspector_Icon_48_Squid" fill="#FFFFFF"></path>
    </g>
</svg>