<?xml version="1.0" encoding="UTF-8"?>
<svg width="64px" height="64px" viewBox="0 0 64 64" version="1.1" xmlns="http://www.w3.org/2000/svg" xmlns:xlink="http://www.w3.org/1999/xlink">
    <!-- Generator: Sketch 64 (93537) - https://sketch.com -->
    <title>Icon-Architecture/48/Arch_Amazon-Detective_48</title>
    <desc>Created with Sketch.</desc>
    <defs>
        <linearGradient x1="0%" y1="100%" x2="100%" y2="0%" id="linearGradient-1">
            <stop stop-color="#BD0816" offset="0%"></stop>
            <stop stop-color="#FF5252" offset="100%"></stop>
        </linearGradient>
    </defs>
    <g id="Icon-Architecture/48/Arch_Amazon-Detective_48" stroke="none" stroke-width="1" fill="none" fill-rule="evenodd">
        <g id="Icon-Architecture-BG/48/Security-Identity-Compliance" fill="url(#linearGradient-1)">
            <rect id="Rectangle" x="0" y="0" width="64" height="64"></rect>
        </g>
        <path d="M21.806,21.9540357 C23.28,22.3440357 25.02,22.9240357 26.817,23.5230357 C29.557,24.4360357 32.662,25.4720357 34,25.4720357 C35.338,25.4720357 38.444,24.4360357 41.184,23.5230357 C42.981,22.9240357 44.721,22.3440357 46.195,21.9540357 L43.898,20.5770357 C42.05,21.2580357 35.903,23.4720357 34,23.4720357 C32.098,23.4720357 25.951,21.2580357 24.103,20.5770357 L21.806,21.9540357 Z M25.382,18.9150357 C28.456,20.0320357 32.816,21.4720357 34,21.4720357 C35.183,21.4720357 39.53,20.0360357 42.603,18.9200357 L38.847,12.1500357 C38.763,12.0180357 38.528,11.9620357 38.35,12.0690357 L35.227,13.9430357 C34.471,14.3970357 33.53,14.3970357 32.774,13.9430357 L29.651,12.0690357 C29.459,11.9550357 29.199,12.0020357 29.045,12.0680357 L25.382,18.9150357 Z M41.913,25.3880357 C41.881,25.3990357 41.848,25.4100357 41.817,25.4200357 C38.652,26.4750357 35.662,27.4720357 34,27.4720357 C32.338,27.4720357 29.349,26.4750357 26.184,25.4200357 C26.153,25.4100357 26.119,25.3990357 26.087,25.3880357 C26.722,29.3120357 31.026,35.4720357 34,35.4720357 C36.975,35.4720357 41.279,29.3120357 41.913,25.3880357 L41.913,25.3880357 Z M18.036,22.7390357 C17.916,22.3060357 18.1,21.8450357 18.486,21.6140357 L23.175,18.8000357 L27.398,10.9070357 C27.454,10.8020357 27.529,10.7070357 27.618,10.6280357 C28.31,10.0200357 29.618,9.71703572 30.68,10.3540357 L33.803,12.2280357 C33.924,12.3010357 34.077,12.3010357 34.198,12.2280357 L37.321,10.3540357 C38.429,9.68903572 39.883,10.0410357 40.569,11.1340357 L44.822,18.7980357 L49.515,21.6140357 C49.901,21.8450357 50.084,22.3060357 49.964,22.7390357 C49.844,23.1720357 49.45,23.4720357 49,23.4720357 C48.009,23.4720357 46.048,24.0400357 43.985,24.7060357 C43.815,29.2760357 38.625,37.4720357 34,37.4720357 C29.375,37.4720357 24.186,29.2760357 24.016,24.7060357 C21.952,24.0400357 19.992,23.4720357 19,23.4720357 C18.551,23.4720357 18.157,23.1720357 18.036,22.7390357 L18.036,22.7390357 Z M47.423,38.4660357 L47.71,38.1790357 C47.915,37.9740357 48.021,37.6900357 48,37.4010357 C47.98,37.1110357 47.835,36.8450357 47.603,36.6710357 L43.6,33.6710357 L42.401,35.2720357 L45.481,37.5800357 L45.043,38.0170357 C45.029,38.0170357 45.015,38.0150357 45,38.0150357 L45,38.0600357 L39.293,43.7650357 C39.106,43.9520357 39,44.2060357 39,44.4720357 C39,44.7370357 39.106,44.9910357 39.293,45.1790357 L41.648,47.5330357 L37.232,52.8310357 L38.769,54.1120357 L43.769,48.1120357 C44.1,47.7140357 44.074,47.1300357 43.707,46.7650357 L41.414,44.4720357 L45.794,40.0940357 C48.893,40.6370357 52,44.1980357 52,47.4720357 L52,54.3780357 L54,54.3780357 L54,47.4720357 C54,43.6430357 50.965,39.7590357 47.423,38.4660357 L47.423,38.4660357 Z M29.774,51.0440357 L25.086,46.3350357 C24.723,46.7810357 24.317,47.1880357 23.871,47.5520357 L28.569,52.2470357 C28.881,52.5590357 29.406,52.5440357 29.738,52.2120357 C30.07,51.8800357 30.085,51.3560357 29.774,51.0440357 L29.774,51.0440357 Z M18.5,47.4720357 C22.084,47.4720357 25,44.5560357 25,40.9720357 C25,37.3880357 22.084,34.4720357 18.5,34.4720357 C14.916,34.4720357 12,37.3880357 12,40.9720357 C12,44.5560357 14.916,47.4720357 18.5,47.4720357 L18.5,47.4720357 Z M31.192,49.6330357 C32.28,50.7250357 32.262,52.5170357 31.152,53.6260357 C30.59,54.1880357 29.854,54.4700357 29.121,54.4700357 C28.406,54.4700357 27.695,54.2010357 27.155,53.6620357 L22.135,48.6430357 C21.032,49.1690357 19.802,49.4720357 18.5,49.4720357 C13.814,49.4720357 10,45.6590357 10,40.9720357 C10,36.2850357 13.814,32.4720357 18.5,32.4720357 C23.187,32.4720357 27,36.2850357 27,40.9720357 C27,42.2690357 26.7,43.4950357 26.178,44.5960357 L31.192,49.6330357 Z M38.293,37.7650357 L34,42.0580357 L29.707,37.7650357 L28.293,39.1790357 L33.293,44.1790357 C33.489,44.3740357 33.744,44.4720357 34,44.4720357 C34.256,44.4720357 34.512,44.3740357 34.707,44.1790357 L39.707,39.1790357 L38.293,37.7650357 Z M46,54.3790357 L48,54.3790357 L48,48.4720357 L46,48.4720357 L46,54.3790357 Z" id="Amazon-Detective_Icon_48_Squid" fill="#FFFFFF"></path>
    </g>
</svg>