<?xml version="1.0" encoding="UTF-8"?>
<svg width="64px" height="64px" viewBox="0 0 64 64" version="1.1" xmlns="http://www.w3.org/2000/svg" xmlns:xlink="http://www.w3.org/1999/xlink">
    <title>Icon-Architecture/48/Arch_Amazon-Cloud-Directory_48</title>
    <defs>
        <linearGradient x1="0%" y1="100%" x2="100%" y2="0%" id="linearGradient-1">
            <stop stop-color="#BD0816" offset="0%"></stop>
            <stop stop-color="#FF5252" offset="100%"></stop>
        </linearGradient>
    </defs>
    <g id="Icon-Architecture/48/Arch_Amazon-Cloud-Directory_48" stroke="none" stroke-width="1" fill="none" fill-rule="evenodd">
        <g id="Rectangle" fill="url(#linearGradient-1)">
            <rect x="0" y="0" width="64" height="64"></rect>
        </g>
        <g id="Icon-Service/48/Amazon-Cloud-Directory_48" transform="translate(8.000000, 8.000000)" fill="#FFFFFF">
            <path d="M32,38 C31.173,38 30.5,37.327 30.5,36.5 C30.5,35.673 31.173,35 32,35 C32.827,35 33.5,35.673 33.5,36.5 C33.5,37.327 32.827,38 32,38 M25.5,36.5 C25.5,37.327 24.827,38 24,38 C23.173,38 22.5,37.327 22.5,36.5 C22.5,35.673 23.173,35 24,35 C24.827,35 25.5,35.673 25.5,36.5 M17.5,36.5 C17.5,37.327 16.827,38 16,38 C15.173,38 14.5,37.327 14.5,36.5 C14.5,35.673 15.173,35 16,35 C16.827,35 17.5,35.673 17.5,36.5 M21,21 C21,19.346 22.346,18 24,18 C25.654,18 27,19.346 27,21 C27,22.654 25.654,24 24,24 C22.346,24 21,22.654 21,21 M33,33.163 L33,29 C33,28.448 32.553,28 32,28 L25,28 L25,25.899 C27.279,25.434 29,23.415 29,21 C29,18.243 26.757,16 24,16 C21.243,16 19,18.243 19,21 C19,23.415 20.721,25.434 23,25.899 L23,28 L16,28 C15.447,28 15,28.448 15,29 L15,33.163 C13.56,33.597 12.5,34.92 12.5,36.5 C12.5,38.43 14.07,40 16,40 C17.93,40 19.5,38.43 19.5,36.5 C19.5,34.92 18.44,33.597 17,33.163 L17,30 L23,30 L23,33.163 C21.56,33.597 20.5,34.92 20.5,36.5 C20.5,38.43 22.07,40 24,40 C25.93,40 27.5,38.43 27.5,36.5 C27.5,34.92 26.44,33.597 25,33.163 L25,30 L31,30 L31,33.163 C29.56,33.597 28.5,34.92 28.5,36.5 C28.5,38.43 30.07,40 32,40 C33.93,40 35.5,38.43 35.5,36.5 C35.5,34.92 34.44,33.597 33,33.163 M24,43.234 C15.862,43.234 11,41.37 11,39.568 L11,11.107 C13.768,13.002 18.991,14 24,14 C29.009,14 34.232,13.002 37,11.107 L37,39.568 C37,41.37 32.138,43.234 24,43.234 M24,4 C31.936,4 37,6.369 37,8 C37,9.631 31.936,12 24,12 C16.064,12 11,9.631 11,8 C11,6.369 16.064,4 24,4 M24,2 C16.729,2 9,4.103 9,8 L9,39.568 C9,43.746 16.749,45.234 24,45.234 C31.251,45.234 39,43.746 39,39.568 L39,8 C39,4.103 31.271,2 24,2" id="Amazon-Cloud-Directory_Icon_48_Squid"></path>
        </g>
    </g>
</svg>