<?xml version="1.0" encoding="UTF-8"?>
<svg width="64px" height="64px" viewBox="0 0 64 64" version="1.1" xmlns="http://www.w3.org/2000/svg" xmlns:xlink="http://www.w3.org/1999/xlink">
    <!-- Generator: Sketch 64 (93537) - https://sketch.com -->
    <title>Icon-Architecture/48/Arch_AWS-Secrets-Manager_48</title>
    <desc>Created with Sketch.</desc>
    <defs>
        <linearGradient x1="0%" y1="100%" x2="100%" y2="0%" id="linearGradient-1">
            <stop stop-color="#BD0816" offset="0%"></stop>
            <stop stop-color="#FF5252" offset="100%"></stop>
        </linearGradient>
    </defs>
    <g id="Icon-Architecture/48/Arch_AWS-Secrets-Manager_48" stroke="none" stroke-width="1" fill="none" fill-rule="evenodd">
        <g id="Icon-Architecture-BG/48/Security-Identity-Compliance" fill="url(#linearGradient-1)">
            <rect id="Rectangle" x="0" y="0" width="64" height="64"></rect>
        </g>
        <path d="M31.24,34.64 C31.24,35.059 31.581,35.4 32,35.4 C32.419,35.4 32.76,35.059 32.76,34.64 C32.76,34.221 32.419,33.88 32,33.88 C31.581,33.88 31.24,34.221 31.24,34.64 L31.24,34.64 Z M29.24,34.64 C29.24,33.118 30.478,31.88 32,31.88 C33.521,31.88 34.76,33.118 34.76,34.64 C34.76,35.808 34.027,36.804 33,37.205 L33,40 L31,40 L31,37.205 C29.972,36.803 29.24,35.808 29.24,34.64 L29.24,34.64 Z M39,31 L25,31 L25,41 L39,41 L39,39 L37,39 L37,37 L39,37 L39,35 L37,35 L37,33 L39,33 L39,31 Z M27,29 L36.999,29 L37,25 C37,24.135 36.424,23.141 35.457,22.341 C34.443,21.501 33.152,21 32.003,21 L32.001,21 C29.618,21 27.001,23.093 27,25 L27,29 Z M39,25 L38.999,29 L40,29 C40.553,29 41,29.448 41,30 L41,42 C41,42.552 40.553,43 40,43 L24,43 C23.447,43 23,42.552 23,42 L23,30 C23,29.448 23.447,29 24,29 L25,29 L25,25 C25.001,21.971 28.469,19 32.001,19 L32.003,19 C33.628,19 35.351,19.657 36.732,20.801 C38.174,21.994 39.001,23.525 39,25 L39,25 Z M15.489,43.95 L17.11,42.777 C15.029,39.902 13.859,36.538 13.676,33 L16,33 L16,31 L13.678,31 C13.871,27.483 15.04,24.14 17.11,21.281 L15.489,20.108 C13.172,23.311 11.873,27.058 11.678,31 L10,31 L10,33 L11.676,33 C11.861,36.962 13.16,40.731 15.489,43.95 L15.489,43.95 Z M42.747,46.918 C39.88,48.993 36.527,50.162 33,50.35 L33,48 L31,48 L31,50.35 C27.471,50.162 24.118,48.994 21.25,46.918 L20.078,48.538 C23.289,50.862 27.049,52.161 31,52.35 L31,54 L33,54 L33,52.35 C36.951,52.16 40.709,50.862 43.919,48.538 L42.747,46.918 Z M21.25,17.14 C24.118,15.064 27.471,13.895 31,13.707 L31,16 L33,16 L33,13.707 C36.527,13.896 39.88,15.065 42.747,17.14 L43.919,15.52 C40.709,13.196 36.951,11.897 33,11.707 L33,10 L31,10 L31,11.707 C27.048,11.897 23.289,13.196 20.078,15.52 L21.25,17.14 Z M52.319,31 C52.125,27.058 50.826,23.311 48.509,20.108 L46.887,21.281 C48.958,24.14 50.127,27.483 50.319,31 L48,31 L48,33 L50.322,33 C50.138,36.538 48.969,39.902 46.887,42.777 L48.509,43.95 C50.838,40.731 52.136,36.962 52.322,33 L54,33 L54,31 L52.319,31 Z M45.026,20.416 L51.185,14.256 L49.771,12.842 L43.612,19.002 L45.026,20.416 Z M18.971,43.642 L12.811,49.802 L14.225,51.216 L20.386,45.056 L18.971,43.642 Z M23.246,21.833 L11.586,10.173 L10.172,11.587 L21.832,23.247 L23.246,21.833 Z M43.303,41.89 L53.826,52.413 L52.412,53.827 L41.888,43.304 L43.303,41.89 Z" id="AWS-Secrets-Manager_Icon_48_Squid" fill="#FFFFFF"></path>
    </g>
</svg>