<?xml version="1.0" encoding="UTF-8"?>
<svg width="64px" height="64px" viewBox="0 0 64 64" version="1.1" xmlns="http://www.w3.org/2000/svg" xmlns:xlink="http://www.w3.org/1999/xlink">
    <!-- Generator: Sketch 64 (93537) - https://sketch.com -->
    <title>Icon-Architecture/48/Arch_AWS-Key-Management-Services_48</title>
    <desc>Created with Sketch.</desc>
    <defs>
        <linearGradient x1="0%" y1="100%" x2="100%" y2="0%" id="linearGradient-1">
            <stop stop-color="#BD0816" offset="0%"></stop>
            <stop stop-color="#FF5252" offset="100%"></stop>
        </linearGradient>
    </defs>
    <g id="Icon-Architecture/48/Arch_AWS-Key-Management-Services_48" stroke="none" stroke-width="1" fill="none" fill-rule="evenodd">
        <g id="Icon-Architecture-BG/48/Security-Identity-Compliance" fill="url(#linearGradient-1)">
            <rect id="Rectangle" x="0" y="0" width="64" height="64"></rect>
        </g>
        <path d="M42.8407901,41.9967832 L48.8407901,41.9967832 L48.8407901,39.9967832 L42.8407901,39.9967832 L42.8407901,41.9967832 Z M34.8407901,41.9967832 L40.8407901,41.9967832 L40.8407901,39.9967832 L34.8407901,39.9967832 L34.8407901,41.9967832 Z M26.8407901,41.9967832 L32.8407901,41.9967832 L32.8407901,39.9967832 L26.8407901,39.9967832 L26.8407901,41.9967832 Z M36.8407901,35.4967832 C36.8407901,34.6697832 37.5137901,33.9967832 38.3407901,33.9967832 C39.1687901,33.9967832 39.8407901,34.6697832 39.8407901,35.4967832 C39.8407901,36.3237832 39.1687901,36.9967832 38.3407901,36.9967832 C37.5137901,36.9967832 36.8407901,36.3237832 36.8407901,35.4967832 L36.8407901,35.4967832 Z M41.8407901,35.4967832 C41.8407901,33.5667832 40.2707901,31.9967832 38.3407901,31.9967832 C36.4117901,31.9967832 34.8407901,33.5667832 34.8407901,35.4967832 C34.8407901,37.4267832 36.4117901,38.9967832 38.3407901,38.9967832 C40.2707901,38.9967832 41.8407901,37.4267832 41.8407901,35.4967832 L41.8407901,35.4967832 Z M30.3407901,36.9967832 C29.5137901,36.9967832 28.8407901,36.3237832 28.8407901,35.4967832 C28.8407901,34.6697832 29.5137901,33.9967832 30.3407901,33.9967832 C31.1687901,33.9967832 31.8407901,34.6697832 31.8407901,35.4967832 C31.8407901,36.3237832 31.1687901,36.9967832 30.3407901,36.9967832 L30.3407901,36.9967832 Z M30.3407901,31.9967832 C28.4117901,31.9967832 26.8407901,33.5667832 26.8407901,35.4967832 C26.8407901,37.4267832 28.4117901,38.9967832 30.3407901,38.9967832 C32.2707901,38.9967832 33.8407901,37.4267832 33.8407901,35.4967832 C33.8407901,33.5667832 32.2707901,31.9967832 30.3407901,31.9967832 L30.3407901,31.9967832 Z M53.8407901,25.9967832 L53.8407901,45.9967832 C53.8407901,46.5487832 53.3937901,46.9967832 52.8407901,46.9967832 L26.8407901,46.9967832 L26.8407901,44.9967832 L51.8407901,44.9967832 L51.8407901,26.9967832 L32.8407901,26.9967832 L32.8407901,24.9967832 L52.8407901,24.9967832 C53.3937901,24.9967832 53.8407901,25.4447832 53.8407901,25.9967832 L53.8407901,25.9967832 Z M20.9037901,23.8917832 C19.8127901,23.8917832 18.9247901,23.0037832 18.9247901,21.9127832 C18.9247901,20.8217832 19.8127901,19.9337832 20.9037901,19.9337832 C21.9947901,19.9337832 22.8817901,20.8217832 22.8817901,21.9127832 C22.8817901,23.0037832 21.9947901,23.8917832 20.9037901,23.8917832 L20.9037901,23.8917832 Z M20.9037901,17.9337832 C18.7107901,17.9337832 16.9247901,19.7187832 16.9247901,21.9127832 C16.9247901,24.1067832 18.7107901,25.8917832 20.9037901,25.8917832 C23.0967901,25.8917832 24.8817901,24.1067832 24.8817901,21.9127832 C24.8817901,19.7187832 23.0967901,17.9337832 20.9037901,17.9337832 L20.9037901,17.9337832 Z M23.5337901,30.0457832 C23.1207901,30.1787832 22.8407901,30.5627832 22.8407901,30.9967832 L22.8407901,49.5767832 L20.9017901,51.4757832 L18.8407901,48.6687832 L18.8407901,46.0387832 C18.8407901,45.7467832 18.7127901,45.4677832 18.4897901,45.2777832 L16.3837901,43.4857832 L18.4897901,41.6947832 C18.7127901,41.5047832 18.8407901,41.2257832 18.8407901,40.9327832 L18.8407901,39.2307832 C18.8407901,38.9377832 18.7127901,38.6587832 18.4897901,38.4687832 L16.3837901,36.6777832 L18.4897901,34.8857832 C18.7127901,34.6957832 18.8407901,34.4167832 18.8407901,34.1237832 L18.8407901,30.9967832 C18.8407901,30.5607832 18.5587901,30.1747832 18.1427901,30.0437832 C13.7627901,28.6557832 11.2567901,24.3907832 12.1847901,19.9017832 C12.8557901,16.6557832 15.3507901,14.0537832 18.5437901,13.2707832 C21.2617901,12.6027832 24.0527901,13.1857832 26.1957901,14.8667832 C28.3377901,16.5457832 29.5647901,19.0677832 29.5647901,21.7837832 C29.5647901,25.5577832 27.1407901,28.8777832 23.5337901,30.0457832 L23.5337901,30.0457832 Z M31.5647901,21.7837832 C31.5647901,18.4497832 30.0577901,15.3537832 27.4297901,13.2927832 C24.8017901,11.2307832 21.3907901,10.5137832 18.0667901,11.3287832 C14.1297901,12.2937832 11.0517901,15.4997832 10.2257901,19.4967832 C9.15579012,24.6777832 11.9757901,29.7947832 16.8407901,31.7027832 L16.8407901,33.6627832 L14.1927901,35.9157832 C13.9697901,36.1057832 13.8407901,36.3847832 13.8407901,36.6777832 C13.8407901,36.9707832 13.9697901,37.2487832 14.1927901,37.4387832 L16.8407901,39.6927832 L16.8407901,40.4707832 L14.1927901,42.7247832 C13.9697901,42.9137832 13.8407901,43.1927832 13.8407901,43.4857832 C13.8407901,43.7787832 13.9697901,44.0577832 14.1927901,44.2477832 L16.8407901,46.5007832 L16.8407901,48.9967832 C16.8407901,49.2097832 16.9097901,49.4167832 17.0357901,49.5887832 L19.9717901,53.5887832 C20.1427901,53.8217832 20.4077901,53.9697832 20.6967901,53.9937832 C20.7237901,53.9957832 20.7507901,53.9967832 20.7777901,53.9967832 C21.0387901,53.9967832 21.2897901,53.8947832 21.4767901,53.7107832 L24.5407901,50.7107832 C24.7327901,50.5227832 24.8407901,50.2657832 24.8407901,49.9967832 L24.8407901,31.6977832 C28.8917901,30.0787832 31.5647901,26.1817832 31.5647901,21.7837832 L31.5647901,21.7837832 Z" id="AWS-Key-Management-Services_Icon_48_Squid" fill="#FFFFFF"></path>
    </g>
</svg>