<?xml version="1.0" encoding="UTF-8"?>
<svg width="64px" height="64px" viewBox="0 0 64 64" version="1.1" xmlns="http://www.w3.org/2000/svg" xmlns:xlink="http://www.w3.org/1999/xlink">
    <!-- Generator: Sketch 64 (93537) - https://sketch.com -->
    <title>Icon-Architecture/48/Arch_AWS-Single-Sign-On_48</title>
    <desc>Created with Sketch.</desc>
    <defs>
        <linearGradient x1="0%" y1="100%" x2="100%" y2="0%" id="linearGradient-1">
            <stop stop-color="#BD0816" offset="0%"></stop>
            <stop stop-color="#FF5252" offset="100%"></stop>
        </linearGradient>
    </defs>
    <g id="Icon-Architecture/48/Arch_AWS-Single-Sign-On_48" stroke="none" stroke-width="1" fill="none" fill-rule="evenodd">
        <g id="Icon-Architecture-BG/48/Security-Identity-Compliance" fill="url(#linearGradient-1)">
            <rect id="Rectangle" x="0" y="0" width="64" height="64"></rect>
        </g>
        <path d="M52.032,49.2350148 L41.44,38.6430148 C41.134,38.3370148 41.059,37.8670148 41.257,37.4820148 C42.617,34.8180148 42.117,31.6140148 40.013,29.5090148 C38.498,27.9940148 36.408,27.2730148 34.274,27.5300148 C32.141,27.7870148 30.261,29.0200148 29.114,30.9110148 C27.77,33.1270148 27.83,35.9690148 29.266,38.1530148 C31.253,41.1750148 35.031,42.1550148 38.247,40.4870148 C38.634,40.2860148 39.106,40.3580148 39.415,40.6680148 L41.208,42.4600148 C41.415,42.6670148 41.521,42.9550148 41.498,43.2470148 L41.336,45.2590148 L43.347,45.0970148 C43.636,45.0680148 43.928,45.1790148 44.135,45.3870148 L45.11,46.3620148 C45.317,46.5690148 45.424,46.8580148 45.4,47.1500148 L45.238,49.1610148 L47.25,49.0000148 C47.54,48.9680148 47.83,49.0820148 48.037,49.2890148 L49.5,50.7520148 L52.011,51.1380148 L52.032,49.2350148 Z M54.036062,48.8360148 L54,52.3110148 C53.997,52.6010148 53.868,52.8760148 53.647,53.0630148 C53.466,53.2180148 53.235,53.3010148 53,53.3010148 C52.949,53.3010148 52.898,53.2970148 52.848,53.2890148 L48.873,52.6790148 C48.662,52.6470148 48.468,52.5480148 48.317,52.3980148 L46.949,51.0300148 L44.227,51.2490148 C43.937,51.2720148 43.647,51.1660148 43.44,50.9590148 C43.233,50.7520148 43.127,50.4640148 43.15,50.1720148 L43.369,47.4500148 L43.047,47.1280148 L40.325,47.3460148 C40.027,47.3720148 39.746,47.2640148 39.538,47.0570148 C39.331,46.8500148 39.224,46.5620148 39.248,46.2700148 L39.467,43.5480148 L38.496,42.5770148 C34.555,44.2300148 29.977,42.8770148 27.595,39.2520148 C25.737,36.4270148 25.662,32.7460148 27.403,29.8740148 C28.871,27.4540148 31.288,25.8760148 34.035,25.5440148 C36.776,25.2140148 39.475,26.1420148 41.428,28.0950148 C43.972,30.6400148 44.702,34.4270148 43.346,37.7210148 L53.743,48.1180148 C53.933,48.3080148 54.039,48.5670148 54.036062,48.8360148 L54.036062,48.8360148 Z M36.258,33.4130148 C35.981,33.1370148 35.619,33.0000148 35.258,33.0000148 C34.895,33.0000148 34.533,33.1370148 34.257,33.4130148 C33.706,33.9640148 33.706,34.8620148 34.257,35.4140148 C34.809,35.9650148 35.707,35.9650148 36.258,35.4130148 C36.809,34.8620148 36.809,33.9640148 36.258,33.4130148 L36.258,33.4130148 Z M37.672,31.9990148 C38.317,32.6440148 38.672,33.5020148 38.672,34.4140148 C38.672,35.3250148 38.317,36.1830148 37.672,36.8280148 L37.672,36.8280148 C37.006,37.4930148 36.132,37.8260148 35.258,37.8260148 C34.383,37.8260148 33.509,37.4930148 32.843,36.8280148 C31.512,35.4960148 31.512,33.3310148 32.843,32.0000148 C34.172,30.6680148 36.339,30.6660148 37.672,31.9990148 L37.672,31.9990148 Z M19.002,36.9930148 L24,36.9930148 L24,38.9930148 L19,38.9930148 C14.116,38.9830148 10.256,35.7670148 10.019,31.5140148 C10.009,31.3250148 10,31.1310148 10,30.9360148 C10,25.7340148 13.52,23.7230148 15.71,22.9770148 C15.701,22.7920148 15.696,22.6070148 15.696,22.4190148 C15.696,18.0790148 18.675,13.5850148 22.626,11.9650148 C27.233,10.0620148 32.115,11.0080148 35.682,14.4980148 C36.569,15.3550148 37.69,16.6160148 38.521,18.1530148 C39.39,17.4480148 40.367,17.1020148 41.476,17.1020148 C43.805,17.1020148 46.413,18.9790148 46.928,23.0760148 C51.622,24.2170148 54,26.9040148 54,31.0690148 C54,34.1540148 52.814,38.0320148 47.165,38.9800148 L46.835,37.0070148 C50.358,36.4160148 52,34.5290148 52,31.0690148 C52,27.6880148 50.031,25.7200148 45.803,24.8760148 C45.358,24.7870148 45.028,24.4080148 45.002,23.9540148 C44.834,21.0970148 43.384,19.1020148 41.476,19.1020148 C40.517,19.1020148 39.76,19.5370148 39.019,20.5130148 C38.799,20.8040148 38.44,20.9560148 38.074,20.8980148 C37.712,20.8440148 37.409,20.5960148 37.283,20.2530148 C36.618,18.4300148 35.287,16.8970148 34.288,15.9320148 C31.307,13.0140148 27.234,12.2240148 23.386,13.8150148 C20.194,15.1240148 17.696,18.9020148 17.696,22.4190148 C17.696,22.8110148 17.719,23.1910148 17.767,23.5780148 C17.771,23.6130148 17.774,23.6480148 17.775,23.6830148 L17.775,23.6850148 L17.775,23.6860148 L17.775,23.6870148 L17.775,23.6880148 L17.775,23.6890148 L17.775,23.6900148 L17.775,23.6910148 L17.775,23.6920148 L17.775,23.6930148 L17.775,23.6950148 L17.775,23.6960148 L17.775,23.6980148 L17.775,23.7000148 L17.775,23.7010148 L17.775,23.7020148 L17.775,23.7040148 C17.775,24.2030148 17.41,24.6200148 16.932,24.6960148 C15.05,25.1880148 12,26.6480148 12,30.9360148 C12,31.0950148 12.009,31.2550148 12.016,31.4060148 C12.218,35.0250148 15.765,36.9860148 19.002,36.9930148 L19.002,36.9930148 Z" id="AWS-Single-Sign-On_Icon_48_Squid" fill="#FFFFFF"></path>
    </g>
</svg>