<?xml version="1.0" encoding="UTF-8"?>
<svg width="64px" height="64px" viewBox="0 0 64 64" version="1.1" xmlns="http://www.w3.org/2000/svg" xmlns:xlink="http://www.w3.org/1999/xlink">
    <!-- Generator: Sketch 64 (93537) - https://sketch.com -->
    <title>Icon-Architecture/48/Arch_AWS-Artifact_48</title>
    <desc>Created with Sketch.</desc>
    <defs>
        <linearGradient x1="0%" y1="100%" x2="100%" y2="0%" id="linearGradient-1">
            <stop stop-color="#BD0816" offset="0%"></stop>
            <stop stop-color="#FF5252" offset="100%"></stop>
        </linearGradient>
    </defs>
    <g id="Icon-Architecture/48/Arch_AWS-Artifact_48" stroke="none" stroke-width="1" fill="none" fill-rule="evenodd">
        <g id="Icon-Architecture-BG/48/Security-Identity-Compliance" fill="url(#linearGradient-1)">
            <rect id="Rectangle" x="0" y="0" width="64" height="64"></rect>
        </g>
        <path d="M32,10 C19.869,10 10,19.869 10,32 C10,41.802 16.888,50.424 26.75,52.968 L27.25,51.032 C18.271,48.715 12,40.889 12,32 C12,20.972 20.972,12 32,12 C43.028,12 52,20.972 52,32 C52,41.777 47.047,48.891 38.75,51.032 L39.25,52.968 C48.348,50.621 54,42.586 54,32 C54,19.869 44.131,10 32,10 L32,10 Z M26,24 L33,24 L33,22 L26,22 L26,24 Z M26,36 L35,36 L35,34 L26,34 L26,36 Z M26,32 L31,32 L31,30 L26,30 L26,32 Z M26,28 L40,28 L40,26 L26,26 L26,28 Z M37,24 C36.447,24 36,23.552 36,23 L36,17.958 L24,17.958 L24,40 L42,40 L42,24 L37,24 Z M38,22 L40.586,22 L38,19.414 L38,22 Z M37,15.958 L37,15.958 C37.26,15.959 37.516,16.102 37.707,16.293 L43.707,22.293 C43.898,22.484 43.99,22.74 43.991,23 L44,23 L44,41 C44,41.552 43.553,42 43,42 L23,42 C22.447,42 22,41.552 22,41 L22,16.958 C22,16.406 22.447,15.958 23,15.958 L37,15.958 Z M38.707,48.707 L33.707,53.707 C33.512,53.902 33.256,54 33,54 C32.744,54 32.488,53.902 32.293,53.707 L27.293,48.707 C27.007,48.421 26.921,47.991 27.076,47.617 C27.23,47.244 27.596,47 28,47 L30,47 L30,44 L32,44 L32,48 C32,48.552 31.553,49 31,49 L30.414,49 L33,51.586 L35.586,49 L35,49 C34.447,49 34,48.552 34,48 L34,44 L36,44 L36,47 L38,47 C38.404,47 38.77,47.244 38.924,47.617 C39.079,47.991 38.993,48.421 38.707,48.707 L38.707,48.707 Z" id="AWS-Artifact_Icon_48_Squid" fill="#FFFFFF"></path>
    </g>
</svg>