<?xml version="1.0" encoding="UTF-8"?>
<svg width="64px" height="64px" viewBox="0 0 64 64" version="1.1" xmlns="http://www.w3.org/2000/svg" xmlns:xlink="http://www.w3.org/1999/xlink">
    <!-- Generator: Sketch 64 (93537) - https://sketch.com -->
    <title>Icon-Architecture/48/Arch_AWS-CloudHSM_48</title>
    <desc>Created with Sketch.</desc>
    <defs>
        <linearGradient x1="0%" y1="100%" x2="100%" y2="0%" id="linearGradient-1">
            <stop stop-color="#BD0816" offset="0%"></stop>
            <stop stop-color="#FF5252" offset="100%"></stop>
        </linearGradient>
    </defs>
    <g id="Icon-Architecture/48/Arch_AWS-CloudHSM_48" stroke="none" stroke-width="1" fill="none" fill-rule="evenodd">
        <g id="Icon-Architecture-BG/48/Security-Identity-Compliance" fill="url(#linearGradient-1)">
            <rect id="Rectangle" x="0" y="0" width="64" height="64"></rect>
        </g>
        <path d="M30,30 C28.268,30 26.962,28.71 26.962,27 C26.962,25.29 28.268,24 30,24 C31.71,24 33,25.29 33,27 C33,28.71 31.71,30 30,30 L30,30 Z M42,26 L34.902,26 C34.451,23.691 32.46,22 30,22 C27.175,22 24.962,24.196 24.962,27 C24.962,29.804 27.175,32 30,32 C32.46,32 34.451,30.309 34.902,28 L42,28 L42,26 Z M22,27 C22,31.411 25.589,35 30,35 C33.883,35 36.188,32.253 37.052,29.682 L38.948,30.318 C37.585,34.377 34.072,37 30,37 C24.486,37 20,32.514 20,27 C20,21.486 24.486,17 30,17 C34.072,17 37.585,19.623 38.948,23.682 L37.052,24.318 C36.188,21.747 33.883,19 30,19 C25.589,19 22,22.589 22,27 L22,27 Z M12,35 L14,35 L14,32 L12,32 L12,35 Z M12,22 L14,22 L14,19 L12,19 L12,22 Z M16,36 L16,31 L16,23 L16,18 L16,12 L44,12 L44,33 L46,33 L46,12 C46,10.449 45.568,10 44.075,10 L16,10 C14.448,10 14,10.449 14,12 L14,17 L11,17 C10.447,17 10,17.448 10,18 L10,23 C10,23.552 10.447,24 11,24 L14,24 L14,30 L11,30 C10.447,30 10,30.448 10,31 L10,36 C10,36.552 10.447,37 11,37 L14,37 L14,42 C14,43.309 14.691,44 16,44 L32,44 L32,42 L16,42 L16,36 Z M52,52 L50.414,52 L49.707,51.293 C49.52,51.105 49.266,51 49,51 L48,51 L48,50 C48,49.735 47.895,49.48 47.707,49.293 L46.707,48.293 C46.52,48.105 46.266,48 46,48 L45,48 L45,46.962 C45,46.689 44.889,46.428 44.69,46.239 L43.479,45.082 C43.422,45.02 43.356,44.964 43.283,44.917 C42.998,44.733 42.638,44.708 42.328,44.848 C41.771,45.101 41.175,45.229 40.556,45.229 C38.188,45.229 36.262,43.303 36.262,40.936 C36.262,38.568 38.188,36.642 40.556,36.642 C42.924,36.642 44.85,38.568 44.85,40.936 C44.85,41.706 44.746,42.325 44.542,42.776 C44.362,43.173 44.46,43.639 44.783,43.931 L52,50.444 L52,52 Z M53.67,49.258 L46.616,42.891 C46.771,42.321 46.85,41.667 46.85,40.936 C46.85,37.465 44.026,34.642 40.556,34.642 C37.085,34.642 34.262,37.465 34.262,40.936 C34.262,44.406 37.085,47.229 40.556,47.229 C41.228,47.229 41.882,47.126 42.509,46.921 L43,47.39 L43,49 C43,49.552 43.447,50 44,50 L45.586,50 L46,50.414 L46,52 C46,52.552 46.447,53 47,53 L48.586,53 L49.293,53.707 C49.48,53.895 49.734,54 50,54 L53,54 C53.553,54 54,53.552 54,53 L54,50 C54,49.717 53.88,49.447 53.67,49.258 L53.67,49.258 Z M40.491,41.524 C40.204,41.524 39.971,41.291 39.971,41.004 C39.971,40.717 40.204,40.483 40.491,40.483 C40.778,40.483 41.012,40.717 41.012,41.004 C41.012,41.291 40.778,41.524 40.491,41.524 L40.491,41.524 Z M40.491,38.483 C39.102,38.483 37.971,39.614 37.971,41.004 C37.971,42.394 39.102,43.524 40.491,43.524 C41.881,43.524 43.012,42.394 43.012,41.004 C43.012,39.614 41.881,38.483 40.491,38.483 L40.491,38.483 Z" id="AWS-CloudHSM_Icon_48_Squid" fill="#FFFFFF"></path>
    </g>
</svg>