<?xml version="1.0" encoding="UTF-8"?>
<svg width="64px" height="64px" viewBox="0 0 64 64" version="1.1" xmlns="http://www.w3.org/2000/svg" xmlns:xlink="http://www.w3.org/1999/xlink">
    <!-- Generator: Sketch 64 (93537) - https://sketch.com -->
    <title>Icon-Architecture/48/Arch_AWS-Shield_48</title>
    <desc>Created with Sketch.</desc>
    <defs>
        <linearGradient x1="0%" y1="100%" x2="100%" y2="0%" id="linearGradient-1">
            <stop stop-color="#BD0816" offset="0%"></stop>
            <stop stop-color="#FF5252" offset="100%"></stop>
        </linearGradient>
    </defs>
    <g id="Icon-Architecture/48/Arch_AWS-Shield_48" stroke="none" stroke-width="1" fill="none" fill-rule="evenodd">
        <g id="Icon-Architecture-BG/48/Security-Identity-Compliance" fill="url(#linearGradient-1)">
            <rect id="Rectangle" x="0" y="0" width="64" height="64"></rect>
        </g>
        <path d="M43.0022286,38.9851913 L41.0022286,38.9851913 L41.0022286,41.9851913 L38.0022286,41.9851913 L38.0022286,43.9851913 L41.0022286,43.9851913 L41.0022286,46.9851913 L43.0022286,46.9851913 L43.0022286,43.9851913 L46.0022286,43.9851913 L46.0022286,41.9851913 L43.0022286,41.9851913 L43.0022286,38.9851913 Z M48.0022286,42.9851913 C48.0022286,39.6761913 45.3112286,36.9851913 42.0022286,36.9851913 C38.6932286,36.9851913 36.0022286,39.6761913 36.0022286,42.9851913 C36.0022286,46.2941913 38.6932286,48.9851913 42.0022286,48.9851913 C45.3112286,48.9851913 48.0022286,46.2941913 48.0022286,42.9851913 L48.0022286,42.9851913 Z M50.0022286,42.9851913 C50.0022286,47.3961913 46.4132286,50.9851913 42.0022286,50.9851913 C37.5912286,50.9851913 34.0022286,47.3961913 34.0022286,42.9851913 C34.0022286,38.5741913 37.5912286,34.9851913 42.0022286,34.9851913 C46.4132286,34.9851913 50.0022286,38.5741913 50.0022286,42.9851913 L50.0022286,42.9851913 Z M28.0022286,46.2761913 L28.0022286,18.5961913 L20.0022286,22.6131913 L20.0022286,37.6441913 C20.0042286,37.9821913 20.1572286,45.6601913 28.0022286,46.2761913 L28.0022286,46.2761913 Z M39.0022286,33.4461913 L39.0022286,22.6561913 L30.0022286,18.5341913 L30.0022286,46.2981913 C30.8532286,46.2381913 31.6822286,46.1071913 32.4412286,45.9131913 C32.6412286,46.5631913 32.9042286,47.1851913 33.2252286,47.7711913 C31.9342286,48.1311913 30.4812286,48.3361913 29.0022286,48.3361913 C18.1282286,48.3361913 18.0022286,37.7511913 18.0022286,37.6441913 L18.0022286,21.9971913 C18.0022286,21.6191913 18.2152286,21.2731913 18.5542286,21.1031913 L28.5542286,16.0821913 C28.8232286,15.9471913 29.1432286,15.9401913 29.4182286,16.0671913 L40.4182286,21.1061913 C40.7742286,21.2691913 41.0022286,21.6241913 41.0022286,22.0151913 L41.0022286,33.0361913 C40.3132286,33.1051913 39.6442286,33.2441913 39.0022286,33.4461913 L39.0022286,33.4461913 Z M35.7602286,50.7851913 C36.4162286,51.3111913 37.1402286,51.7541913 37.9152286,52.1031913 C35.4782286,53.1441913 32.2172286,53.7801913 29.0022286,53.7801913 C24.5062286,53.7801913 20.8442286,52.3621913 18.1172286,49.5641913 C12.8322286,44.1411913 12.9932286,35.5281913 13.0022286,35.1641913 L13.0022286,17.9971913 C13.0022286,17.6081913 13.2282286,17.2551913 13.5792286,17.0901913 L28.5792286,10.0941913 C28.8392286,9.97219128 29.1392286,9.96819128 29.4022286,10.0851913 L45.4022286,17.0811913 C45.7672286,17.2401913 46.0022286,17.5991913 46.0022286,17.9971913 L46.0022286,33.8261913 C45.3662286,33.5471913 44.6982286,33.3291913 44.0022286,33.1871913 L44.0022286,18.6511913 L29.0162286,12.0981913 L15.0022286,18.6341913 L15.0022286,35.1901913 C15.0002286,35.2961913 14.8612286,43.3661913 19.5582286,48.1761913 C21.8922286,50.5681913 25.0692286,51.7801913 29.0022286,51.7801913 C31.3892286,51.7801913 33.7842286,51.4131913 35.7602286,50.7851913 L35.7602286,50.7851913 Z" id="AWS-Shield_Icon_48_Squid" fill="#FFFFFF"></path>
    </g>
</svg>