<?xml version="1.0" encoding="UTF-8"?>
<svg width="64px" height="64px" viewBox="0 0 64 64" version="1.1" xmlns="http://www.w3.org/2000/svg" xmlns:xlink="http://www.w3.org/1999/xlink">
    <title>Icon-Architecture/48/Arch_AWS-Signer_48</title>
    <defs>
        <linearGradient x1="0%" y1="100%" x2="100%" y2="0%" id="linearGradient-1">
            <stop stop-color="#BD0816" offset="0%"></stop>
            <stop stop-color="#FF5252" offset="100%"></stop>
        </linearGradient>
    </defs>
    <g id="Icon-Architecture/48/Arch_AWS-Signer_48" stroke="none" stroke-width="1" fill="none" fill-rule="evenodd">
        <g id="Rectangle" fill="url(#linearGradient-1)">
            <rect x="0" y="0" width="64" height="64"></rect>
        </g>
        <g id="Icon-Service/48/AWS-Signer_48" transform="translate(8.000000, 8.000000)" fill="#FFFFFF">
            <path d="M28.626,33.697 C29.143,34.037 29.837,33.893 30.177,33.379 C30.517,32.864 30.374,32.168 29.858,31.828 C29.669,31.703 29.455,31.644 29.244,31.644 C28.88,31.644 28.522,31.821 28.308,32.147 C27.968,32.662 28.11,33.357 28.626,33.697 L28.626,33.697 Z M38.969,28.015 L30.133,22.188 L22,28.441 L22,41.738 L26.782,34.659 C25.994,33.633 25.887,32.185 26.638,31.046 C27.586,29.61 29.522,29.212 30.959,30.158 C32.396,31.106 32.793,33.045 31.847,34.48 C31.247,35.388 30.252,35.881 29.237,35.881 C28.972,35.881 28.705,35.842 28.443,35.773 L23.695,42.802 L36.074,37.66 L38.969,28.015 Z M41.038,28.079 L37.854,38.689 C37.767,38.976 37.557,39.21 37.279,39.325 L21.384,45.928 C21.302,45.962 21.215,45.968 21.129,45.979 L20.129,46.005 L2,46.005 L2,44.005 L20,44.005 L20,27.948 C20,27.637 20.145,27.344 20.391,27.155 L29.29,20.313 L33.929,11.344 L35.706,12.263 L31.385,20.618 L39.937,26.258 L44.439,20.656 L45.997,21.909 L41.038,28.079 Z M40.538,2.919 L38.761,2 L34.805,9.651 L36.582,10.57 L40.538,2.919 Z M12.061,18.435 L12.062,18.435 C12.335,18.435 12.597,18.322 12.785,18.124 L19.4,11.171 L17.951,9.792 L12.06,15.985 L9.473,13.272 L8.025,14.652 L11.337,18.125 C11.525,18.323 11.787,18.435 12.061,18.435 L12.061,18.435 Z M4,14.005 C4,14.735 4.52,15.369 5.234,15.512 C5.605,15.586 5.902,15.862 6.003,16.226 C6.187,16.89 6.45,17.525 6.786,18.113 C6.968,18.43 6.961,18.821 6.771,19.133 C6.616,19.383 6.538,19.651 6.538,19.927 C6.538,20.776 7.229,21.466 8.077,21.466 C8.355,21.466 8.623,21.388 8.872,21.235 C9.032,21.136 9.214,21.087 9.396,21.087 C9.566,21.087 9.737,21.131 9.892,21.219 C10.48,21.555 11.114,21.818 11.778,22.001 C12.142,22.102 12.418,22.399 12.492,22.769 C12.636,23.485 13.27,24.005 14,24.005 C14.73,24.005 15.364,23.485 15.508,22.769 C15.582,22.399 15.858,22.102 16.222,22.001 C16.886,21.818 17.521,21.555 18.108,21.219 C18.426,21.037 18.816,21.043 19.128,21.235 C19.377,21.388 19.645,21.466 19.923,21.466 C20.772,21.466 21.462,20.776 21.462,19.927 C21.462,19.651 21.384,19.383 21.23,19.133 C21.039,18.821 21.032,18.43 21.214,18.113 C21.55,17.525 21.814,16.89 21.997,16.226 C22.098,15.862 22.396,15.586 22.766,15.512 C23.48,15.369 24,14.735 24,14.005 C24,13.274 23.48,12.64 22.766,12.497 C22.396,12.424 22.098,12.148 21.997,11.783 C21.814,11.119 21.55,10.484 21.214,9.896 C21.032,9.579 21.039,9.188 21.23,8.877 C21.384,8.626 21.462,8.359 21.462,8.082 C21.462,7.234 20.772,6.543 19.923,6.543 C19.645,6.543 19.377,6.621 19.128,6.774 C18.816,6.965 18.426,6.971 18.108,6.79 C17.521,6.454 16.886,6.191 16.222,6.008 C15.858,5.907 15.582,5.611 15.508,5.24 C15.364,4.524 14.73,4.005 14,4.005 C13.27,4.005 12.636,4.524 12.492,5.24 C12.418,5.611 12.142,5.907 11.778,6.008 C11.114,6.191 10.48,6.454 9.892,6.79 C9.572,6.971 9.183,6.965 8.872,6.774 C8.623,6.621 8.355,6.543 8.077,6.543 C7.229,6.543 6.538,7.234 6.538,8.082 C6.538,8.359 6.616,8.626 6.771,8.877 C6.961,9.188 6.968,9.579 6.786,9.896 C6.45,10.484 6.187,11.119 6.003,11.783 C5.902,12.148 5.605,12.424 5.234,12.497 C4.52,12.64 4,13.274 4,14.005 L4,14.005 Z M2,14.005 C2,12.537 2.911,11.239 4.239,10.714 C4.394,10.256 4.578,9.811 4.793,9.383 C4.625,8.967 4.538,8.526 4.538,8.082 C4.538,6.131 6.126,4.543 8.077,4.543 C8.522,4.543 8.963,4.63 9.378,4.797 C9.807,4.583 10.252,4.398 10.709,4.244 C11.234,2.916 12.532,2.005 14,2.005 C15.468,2.005 16.766,2.916 17.291,4.244 C17.748,4.398 18.193,4.583 18.622,4.797 C19.037,4.63 19.479,4.543 19.923,4.543 C21.874,4.543 23.462,6.131 23.462,8.082 C23.462,8.526 23.375,8.967 23.207,9.383 C23.422,9.811 23.606,10.256 23.761,10.714 C25.089,11.239 26,12.537 26,14.005 C26,15.472 25.089,16.771 23.761,17.295 C23.606,17.753 23.422,18.198 23.207,18.626 C23.375,19.042 23.462,19.483 23.462,19.927 C23.462,21.879 21.874,23.466 19.923,23.466 C19.479,23.466 19.037,23.379 18.622,23.212 C18.193,23.426 17.748,23.612 17.291,23.765 C16.766,25.093 15.468,26.005 14,26.005 C12.532,26.005 11.234,25.093 10.709,23.765 C10.252,23.612 9.807,23.426 9.378,23.212 C8.963,23.379 8.522,23.466 8.077,23.466 C6.126,23.466 4.538,21.879 4.538,19.927 C4.538,19.483 4.625,19.042 4.793,18.626 C4.578,18.198 4.394,17.753 4.239,17.295 C2.911,16.771 2,15.472 2,14.005 L2,14.005 Z M10,25.005 L10,33.429 L13.293,30.136 C13.684,29.746 14.316,29.746 14.707,30.136 L18.54,33.964 L17.126,35.379 L14.001,32.257 L9.707,36.551 C9.516,36.742 9.26,36.843 9,36.843 C8.871,36.843 8.741,36.819 8.617,36.767 C8.243,36.613 8,36.248 8,35.843 L8,25.005 L10,25.005 Z" id="Fill-3"></path>
        </g>
    </g>
</svg>