<?xml version="1.0" encoding="UTF-8"?>
<svg width="64px" height="64px" viewBox="0 0 64 64" version="1.1" xmlns="http://www.w3.org/2000/svg" xmlns:xlink="http://www.w3.org/1999/xlink">
    <title>Icon-Architecture/48/Arch_AWS-WAF_48</title>
    <defs>
        <linearGradient x1="0%" y1="100%" x2="100%" y2="0%" id="linearGradient-1">
            <stop stop-color="#BD0816" offset="0%"></stop>
            <stop stop-color="#FF5252" offset="100%"></stop>
        </linearGradient>
    </defs>
    <g id="Icon-Architecture/48/Arch_AWS-WAF_48" stroke="none" stroke-width="1" fill="none" fill-rule="evenodd">
        <g id="Rectangle" fill="url(#linearGradient-1)">
            <rect x="0" y="0" width="64" height="64"></rect>
        </g>
        <g id="Icon-Service/48/AWS-WAF_48" transform="translate(8.000000, 8.000000)" fill="#FFFFFF">
            <path d="M18.9287,32.397 C19.8157,33.015 20.8327,33.581 21.9687,34.089 C21.4917,31.713 21.1747,27.602 23.3117,23.671 C24.9047,20.743 25.1677,17.417 23.9997,14.99 C23.5477,14.05 22.8997,13.28 22.0777,12.698 C22.8397,14.457 23.2677,16.997 22.1157,20.27 C21.9837,20.644 21.6447,20.904 21.2487,20.935 C20.8657,20.967 20.4797,20.76 20.2907,20.412 C19.9597,19.796 19.0487,18.408 18.0077,17.579 C18.4157,19.455 18.6747,22.262 17.3347,24.367 C17.2627,24.48 17.1967,24.59 17.1337,24.701 C15.6637,27.29 16.4517,30.671 18.9287,32.397 L18.9287,32.397 Z M26.4707,16.155 C27.0357,18.804 26.5627,21.88 25.0697,24.626 C22.9047,28.607 23.7067,32.945 24.1607,34.651 C26.1167,34.322 31.0627,33.094 32.1187,29.002 C33.1327,25.076 32.5197,22.803 31.8097,21.578 C31.1007,24.122 29.8017,25.193 29.7347,25.247 C29.4107,25.506 28.9627,25.539 28.6057,25.333 C28.2477,25.125 28.0557,24.718 28.1207,24.309 C28.7267,20.541 27.7607,17.919 26.4707,16.155 L26.4707,16.155 Z M15.6497,23.29 C17.2587,20.763 15.5757,16.325 15.5587,16.28 C15.4407,15.973 15.4807,15.626 15.6667,15.354 C15.8537,15.082 16.1607,14.919 16.4907,14.919 C18.2417,14.919 19.7387,16.274 20.7407,17.512 C21.2697,13.523 18.8637,11.428 18.7437,11.328 C18.3997,11.036 18.2907,10.546 18.4837,10.137 C18.6757,9.728 19.1137,9.491 19.5607,9.576 C21.0347,9.837 22.3337,10.398 23.4107,11.209 C24.3657,11.636 29.1367,14.048 30.1247,19.909 C30.1527,19.733 30.1757,19.549 30.1967,19.359 C30.2307,19.026 30.4297,18.732 30.7267,18.577 C31.0247,18.421 31.3787,18.425 31.6707,18.585 C31.8577,18.688 36.2037,21.18 34.0547,29.502 C32.3797,35.99 23.8747,36.729 23.5137,36.757 L23.5127,36.747 C23.4907,36.749 23.4717,36.76 23.4497,36.76 C23.3377,36.76 23.2237,36.741 23.1147,36.701 C21.0607,35.967 19.2677,35.071 17.7847,34.038 C14.4707,31.728 13.4207,27.191 15.3947,23.711 C15.4757,23.57 15.5597,23.43 15.6497,23.29 L15.6497,23.29 Z M7.4897,35.95 L9.1107,34.777 C7.0297,31.902 5.8597,28.538 5.6757,25 L7.9997,25 L7.9997,23 L5.6787,23 C5.8707,19.483 7.0397,16.14 9.1107,13.281 L7.4897,12.108 C5.1717,15.311 3.8727,19.059 3.6787,23 L1.9997,23 L1.9997,25 L3.6757,25 C3.8617,28.962 5.1597,32.731 7.4897,35.95 L7.4897,35.95 Z M34.7467,38.918 C31.8797,40.993 28.5277,42.162 24.9997,42.351 L24.9997,40 L22.9997,40 L22.9997,42.351 C19.4717,42.163 16.1177,40.994 13.2497,38.918 L12.0777,40.539 C15.2887,42.862 19.0487,44.161 22.9997,44.351 L22.9997,46 L24.9997,46 L24.9997,44.351 C28.9507,44.16 32.7087,42.862 35.9187,40.539 L34.7467,38.918 Z M13.2497,9.14 C16.1177,7.064 19.4717,5.896 22.9997,5.708 L22.9997,8 L24.9997,8 L24.9997,5.708 C28.5277,5.896 31.8797,7.065 34.7467,9.14 L35.9187,7.52 C32.7087,5.196 28.9507,3.897 24.9997,3.708 L24.9997,2 L22.9997,2 L22.9997,3.708 C19.0477,3.897 15.2887,5.196 12.0777,7.52 L13.2497,9.14 Z M44.3197,23 C44.1247,19.059 42.8257,15.311 40.5087,12.108 L38.8877,13.281 C40.9577,16.14 42.1267,19.483 42.3197,23 L39.9997,23 L39.9997,25 L42.3227,25 C42.1387,28.538 40.9687,31.902 38.8877,34.777 L40.5087,35.95 C42.8377,32.731 44.1367,28.962 44.3227,25 L45.9997,25 L45.9997,23 L44.3197,23 Z M37.0267,12.416 L43.1857,6.256 L41.7717,4.842 L35.6127,11.002 L37.0267,12.416 Z M10.9717,35.642 L4.8117,41.802 L6.2257,43.216 L12.3857,37.056 L10.9717,35.642 Z M14.4137,13.001 L3.5857,2.173 L2.1717,3.587 L12.9997,14.415 L14.4137,13.001 Z M34.9997,33.586 L45.8257,44.413 L44.4117,45.827 L33.5857,35 L34.9997,33.586 Z" id="AWS-WAF_Icon_48_Squid"></path>
        </g>
    </g>
</svg>