<?xml version="1.0" encoding="UTF-8"?>
<svg width="64px" height="64px" viewBox="0 0 64 64" version="1.1" xmlns="http://www.w3.org/2000/svg" xmlns:xlink="http://www.w3.org/1999/xlink">
    <!-- Generator: Sketch 64 (93537) - https://sketch.com -->
    <title>Icon-Architecture/48/Arch_Amazon-Macie_48</title>
    <desc>Created with Sketch.</desc>
    <defs>
        <linearGradient x1="0%" y1="100%" x2="100%" y2="0%" id="linearGradient-1">
            <stop stop-color="#BD0816" offset="0%"></stop>
            <stop stop-color="#FF5252" offset="100%"></stop>
        </linearGradient>
    </defs>
    <g id="Icon-Architecture/48/Arch_Amazon-Macie_48" stroke="none" stroke-width="1" fill="none" fill-rule="evenodd">
        <g id="Icon-Architecture-BG/48/Security-Identity-Compliance" fill="url(#linearGradient-1)">
            <rect id="Rectangle" x="0" y="0" width="64" height="64"></rect>
        </g>
        <path d="M44.2418377,33.7541534 C42.6867836,32.5611791 41.3887384,31.5722661 40.2987005,30.7599448 C41.5377436,28.5849249 42.9487927,26.1783739 43.6598175,25.4680832 C45.8218927,27.0348431 50.9340706,36.2019092 51.8631029,39.3334669 C50.1720441,38.3062924 46.8219275,35.7349225 44.2418377,33.7541534 M31.8864078,39.9956854 C31.404391,39.6179756 30.5663618,38.4397172 29.6093285,36.9435939 C29.8133356,36.6227858 30.0293431,36.2803943 30.2603512,35.9164194 C31.6413992,33.7227594 33.9104782,30.124215 34.8155097,29.4374699 C35.3355278,29.6474177 36.4085651,30.3665379 37.7016101,31.3005113 C35.9785502,34.3378868 33.0654488,39.4207816 31.8864078,39.9956854 M25.5531874,39.4011603 C25.0111685,38.6889075 24.1611389,37.1751251 23.6111198,36.1930796 C21.9860632,33.2950153 21.4270438,32.376739 20.4880111,32.3443638 C20.4720105,32.3443638 20.45701,32.3443638 20.4420095,32.3443638 C19.7139842,32.3443638 18.9699583,32.9526238 16.0408563,35.6014978 C15.1518254,36.4049895 13.9247827,37.5145734 12.8957469,38.361232 C14.7168103,34.6842025 18.7769516,27.6254439 20.3930078,25.4229542 C21.1630346,26.5551026 22.5330823,28.92143 23.6811222,30.9071044 C25.1381729,33.4225536 26.3042135,35.3954742 27.2562466,36.9337833 C26.6042239,37.9432986 25.973202,38.8831583 25.5531874,39.4011603 M52.8521373,36.3461257 C51.7911004,33.9788172 50.0310392,30.8541269 48.2619776,28.1924991 C45.0688665,23.3892077 44.1248336,23.3892077 43.617816,23.3892077 C42.4087739,23.3892077 41.3367366,24.9363463 38.6816442,29.5758 C36.518569,28.0257182 35.4605321,27.4527766 34.7875087,27.4302121 C34.7715082,27.4302121 34.7565076,27.4302121 34.739507,27.4302121 C33.4534623,27.4302121 32.1774179,29.1421695 28.5582919,34.8843397 C28.5192906,34.9451656 28.4812893,35.0059916 28.4422879,35.0677987 C27.3772508,33.3156176 26.2792126,31.4202011 25.4211828,29.9378128 C21.7620554,23.6177957 21.3450409,23.0340623 20.45701,23.0016872 C19.8099875,22.9850091 19.2909694,22.9585204 15.1798264,30.0270896 C13.300761,33.2587159 11.0626831,37.3723191 10.3016566,39.274603 C10.0606482,39.8759955 9.73063676,40.6991086 10.3766592,41.2445804 C11.5066986,42.2020993 13.0187512,41.0022575 17.3959035,37.0446435 C18.3649372,36.168553 19.6209809,35.0324804 20.3030047,34.5184026 C20.7240193,35.1158709 21.3870424,36.2970724 21.8590588,37.1398068 C23.7171235,40.4518803 24.4621494,41.6134606 25.5321866,41.6438736 C26.2422113,41.6693813 26.893234,41.0925154 28.4302875,38.7703359 C30.1073458,41.2887283 30.9583755,42 31.7834042,42 L31.8004048,42 C33.6734699,41.9784166 35.6495387,38.9341736 39.3156663,32.4885803 C40.5537094,33.4147051 41.8587548,34.417353 43.0097948,35.2993299 C51.4000868,41.740999 52.5881282,42.4198956 53.5821627,41.3583839 C54.3101881,40.5784376 54.0991807,39.1264623 52.8521373,36.3461257" id="Amazon-Macie-Icon_48_Squid" fill="#FFFFFF"></path>
    </g>
</svg>