<?xml version="1.0" encoding="UTF-8"?>
<svg width="64px" height="64px" viewBox="0 0 64 64" version="1.1" xmlns="http://www.w3.org/2000/svg" xmlns:xlink="http://www.w3.org/1999/xlink">
    <!-- Generator: Sketch 64 (93537) - https://sketch.com -->
    <title>Icon-Architecture/48/Arch_AWS-Certificate-Manager_48</title>
    <desc>Created with Sketch.</desc>
    <defs>
        <linearGradient x1="0%" y1="100%" x2="100%" y2="0%" id="linearGradient-1">
            <stop stop-color="#BD0816" offset="0%"></stop>
            <stop stop-color="#FF5252" offset="100%"></stop>
        </linearGradient>
    </defs>
    <g id="Icon-Architecture/48/Arch_AWS-Certificate-Manager_48" stroke="none" stroke-width="1" fill="none" fill-rule="evenodd">
        <g id="Icon-Architecture-BG/48/Security-Identity-Compliance" fill="url(#linearGradient-1)">
            <rect id="Rectangle" x="0" y="0" width="64" height="64"></rect>
        </g>
        <path d="M28.722,30.981 C28.946,31.214 29.042,31.541 28.983,31.858 L28.394,34.998 L31.486,33.143 C31.644,33.047 31.823,33 32,33 C32.178,33 32.357,33.047 32.515,33.143 L35.608,34.998 L35.018,31.852 C34.958,31.535 35.055,31.209 35.279,30.976 L37.94,28.197 L34.355,27.665 C34.041,27.618 33.769,27.426 33.619,27.147 L31.992,24.104 L30.325,27.158 C30.175,27.432 29.906,27.621 29.596,27.668 L26.057,28.204 L28.722,30.981 Z M26.018,36.815 L26.922,31.995 L23.279,28.197 C23.02,27.927 22.933,27.536 23.054,27.183 C23.174,26.829 23.481,26.572 23.851,26.516 L28.806,25.764 L31.122,21.521 C31.298,21.2 31.635,21 32,21 L32.004,21 C32.371,21.002 32.708,21.205 32.882,21.528 L35.146,25.76 L40.147,26.503 C40.517,26.558 40.826,26.814 40.947,27.168 C41.068,27.523 40.981,27.914 40.722,28.184 L37.077,31.988 L37.983,36.816 C38.056,37.203 37.895,37.596 37.572,37.821 C37.249,38.045 36.825,38.06 36.486,37.857 L32,35.166 L27.515,37.857 C27.356,37.953 27.178,38 27,38 C26.8,38 26.6,37.94 26.429,37.821 C26.106,37.596 25.945,37.203 26.018,36.815 L26.018,36.815 Z M12,17.017 L51.997,17.017 L51.997,13 L12,13 L12,17.017 Z M54,52 C54,52.265 53.895,52.52 53.707,52.707 C53.52,52.895 53.266,53 53,53 L48,53 L48,51 L52,51 L51.998,19.017 L12,19.017 L12,51 L41,51 L41,53 L11,53 C10.448,53 10,52.552 10,52 L10,12 C10,11.448 10.448,11 11,11 L52.997,11 C53.55,11 53.997,11.448 53.997,12 L54,52 Z M19,47 L24,47 L24,45 L19,45 L19,47 Z M27,47 L38,47 L38,45 L27,45 L27,47 Z M19,42.997 L24,42.997 L24,40.997 L19,40.997 L19,42.997 Z M27,43 L45,43 L45,41 L27,41 L27,43 Z" id="AWS-Certificate-Manager_Icon_48_Squid" fill="#FFFFFF"></path>
    </g>
</svg>