<?xml version="1.0" encoding="UTF-8"?>
<svg width="64px" height="64px" viewBox="0 0 64 64" version="1.1" xmlns="http://www.w3.org/2000/svg" xmlns:xlink="http://www.w3.org/1999/xlink">
    <title>Icon-Architecture/48/Arch_AWS-Audit-Manager_48</title>
    <defs>
        <linearGradient x1="0%" y1="100%" x2="100%" y2="0%" id="linearGradient-1">
            <stop stop-color="#BD0816" offset="0%"></stop>
            <stop stop-color="#FF5252" offset="100%"></stop>
        </linearGradient>
    </defs>
    <g id="Icon-Architecture/48/Arch_AWS-Audit-Manager_48" stroke="none" stroke-width="1" fill="none" fill-rule="evenodd">
        <g id="Rectangle" fill="url(#linearGradient-1)">
            <rect x="0" y="0" width="64" height="64"></rect>
        </g>
        <g id="Icon-Service/48/AWS-Audit-Manager_48" transform="translate(8.000000, 8.000000)" fill="#FFFFFF">
            <path d="M41.707,33.293 L40.293,34.707 L42.586,37 L35,37 L35,39 L42.586,39 L40.293,41.293 L41.707,42.707 L45.707,38.707 C46.098,38.316 46.098,37.684 45.707,37.293 L41.707,33.293 Z M21,39 L28.586,39 L26.293,41.293 L27.707,42.707 L31.707,38.707 C32.098,38.316 32.098,37.684 31.707,37.293 L27.707,33.293 L26.293,34.707 L28.586,37 L21,37 L21,39 Z M13.707,42.707 L17.707,38.707 C18.098,38.316 18.098,37.684 17.707,37.293 L13.707,33.293 L12.293,34.707 L14.586,37 L7,37 L7,39 L14.586,39 L12.293,41.293 L13.707,42.707 Z M7,29 L21,29 L21,27 L7,27 L7,29 Z M7,20 L21,20 L21,18 L7,18 L7,20 Z M26,20 L30,20 L30,18 L26,18 L26,20 Z M31,16 C31.553,16 32,16.448 32,17 L32,21 C32,21.552 31.553,22 31,22 L25,22 C24.447,22 24,21.552 24,21 L24,17 C24,16.448 24.447,16 25,16 L31,16 Z M26,29 L44,29 L44,27 L26,27 L26,29 Z M46,26 L46,30 C46,30.552 45.553,31 45,31 L25,31 C24.447,31 24,30.552 24,30 L24,26 C24,25.448 24.447,25 25,25 L45,25 C45.553,25 46,25.448 46,26 L46,26 Z M30,9 L33.586,9 L30,5.414 L30,9 Z M35,42 L37,42 L37,45 C37,45.552 36.553,46 36,46 L3,46 C2.447,46 2,45.552 2,45 L2,3 C2,2.448 2.447,2 3,2 L29,2 C29.266,2 29.519,2.106 29.707,2.293 L36.707,9.293 C36.895,9.481 37,9.735 37,10 L37,23 L35,23 L35,11 L29,11 C28.447,11 28,10.552 28,10 L28,4 L4,4 L4,44 L35,44 L35,42 Z M14,15 C13.744,15 13.488,14.902 13.293,14.707 L10.293,11.707 L11.707,10.293 L14,12.586 L19.293,7.293 L20.707,8.707 L14.707,14.707 C14.512,14.902 14.256,15 14,15 L14,15 Z" id="Fill-5"></path>
        </g>
    </g>
</svg>