<?xml version="1.0" encoding="UTF-8"?>
<svg width="64px" height="64px" viewBox="0 0 64 64" version="1.1" xmlns="http://www.w3.org/2000/svg" xmlns:xlink="http://www.w3.org/1999/xlink">
    <!-- Generator: Sketch 64 (93537) - https://sketch.com -->
    <title>Icon-Architecture/48/Arch_Amazon-Cognito_48</title>
    <desc>Created with Sketch.</desc>
    <defs>
        <linearGradient x1="0%" y1="100%" x2="100%" y2="0%" id="linearGradient-1">
            <stop stop-color="#BD0816" offset="0%"></stop>
            <stop stop-color="#FF5252" offset="100%"></stop>
        </linearGradient>
    </defs>
    <g id="Icon-Architecture/48/Arch_Amazon-Cognito_48" stroke="none" stroke-width="1" fill="none" fill-rule="evenodd">
        <g id="Icon-Architecture-BG/48/Security-Identity-Compliance" fill="url(#linearGradient-1)">
            <rect id="Rectangle" x="0" y="0" width="64" height="64"></rect>
        </g>
        <path d="M48.3851357,21.0063704 L48.3851357,15.7026189 C48.3851357,14.780967 47.766933,14.0014156 47.034585,14.0014156 L13.370821,14.0014156 C12.638473,14.0014156 12.0202703,14.780967 12.0202703,15.7026189 L12.0202703,21.0063704 L27.1722975,21.0063704 L27.1722975,17.0035391 C27.1722975,16.4511484 27.623828,16.0028313 28.1824327,16.0028313 L45.3547302,16.0028313 C45.913335,16.0028313 46.3648654,16.4511484 46.3648654,17.0035391 L46.3648654,21.0063704 L48.3851357,21.0063704 Z M44.3445951,18.0042469 L29.1925678,18.0042469 L29.1925678,30.3880062 C30.1532064,28.5877328 31.7471996,27.158722 33.7260544,26.4031876 C33.1189632,25.6316419 32.7724868,24.6739645 32.7724868,23.6662517 C32.7724868,21.1985063 34.8109395,19.1920871 37.318095,19.1920871 C39.8242403,19.1920871 41.8637032,21.1985063 41.8637032,23.6662517 C41.8637032,24.7400112 41.4657099,25.7517268 40.7838687,26.5452881 C42.1970478,27.1607234 43.4364836,28.1454199 44.3445951,29.3913012 L44.3445951,18.0042469 Z M39.8434329,23.6662517 C39.8434329,22.302287 38.7110714,21.1935027 37.318095,21.1935027 C35.9251186,21.1935027 34.7927571,22.302287 34.7927571,23.6662517 C34.7927571,24.5628859 35.2907537,25.3894706 36.0938112,25.8237778 C36.8453517,26.2290645 37.7726558,26.2360694 38.5383383,25.8227771 C39.343416,25.3894706 39.8434329,24.5628859 39.8434329,23.6662517 L39.8434329,23.6662517 Z M48.3861458,33.0148642 L48.3851357,23.007786 L46.3648654,23.007786 L46.3648654,30.0127407 L44.6516762,30.0127407 L43.006166,30.9984379 C42.1596728,29.6134583 40.8050815,28.5737229 39.2514937,28.1043909 C37.8766997,28.7108198 36.271595,28.7048156 34.9149835,28.1043909 C32.2532774,28.9059579 30.40473,31.2636255 30.2350273,34.015572 L36.2635139,34.015572 L36.2635139,36.0169876 L28.1824327,36.0169876 C27.623828,36.0169876 27.1722975,35.5686705 27.1722975,35.0162798 L27.1722975,23.007786 L12.0202703,23.007786 L12.0202703,37.3179078 C12.0202703,38.2395597 12.638473,39.0191111 13.370821,39.0191111 L33.2331084,39.0191111 L33.2331084,41.0205267 L13.370821,41.0205267 C11.5121723,41.0205267 10,39.3593517 10,37.3179078 L10,15.7026189 C10,13.661175 11.5121723,12 13.370821,12 L47.034585,12 C48.8932337,12 50.405406,13.661175 50.405406,15.7026189 L50.405406,33.0148642 L48.3861458,33.0148642 Z M43.305166,46.9937517 L48.9316188,41.4198091 L47.5032877,40.0048083 L42.5910005,44.8712504 L40.4757775,42.7757682 L39.0474464,44.1907691 L41.8768349,46.9937517 C42.0657302,47.1818847 42.3223045,47.2869591 42.5910005,47.2869591 C42.8586863,47.2869591 43.1152606,47.1818847 43.305166,46.9937517 L43.305166,46.9937517 Z M45.3173552,35.9629494 L45.3173552,35.9629494 C47.8174397,36.2661639 49.9983215,37.7822362 51.1498756,40.0198189 C51.8397979,41.3597667 52.1074837,42.8628298 51.922629,44.3638915 C51.7418148,45.8489419 51.1316932,47.2319201 50.1579229,48.3607186 C49.4659803,49.1642869 48.5922134,49.8277562 47.6315749,50.2790754 C46.3456728,50.8855044 44.9143113,51.1166679 43.4890106,50.9435454 C42.1051255,50.7764272 40.7980106,50.2340436 39.7090849,49.3774377 C37.6181051,47.7302726 36.5615038,45.1744649 36.8837369,42.5426033 C37.1877876,40.0548437 38.7070308,37.8853091 40.9475106,36.7374973 C42.019264,36.1891094 43.1950613,35.9079105 44.3930816,35.9079105 C44.7001627,35.9079105 45.0082539,35.9259232 45.3173552,35.9629494 L45.3173552,35.9629494 Z M48.4982708,52.0873545 C49.7134634,51.5159503 50.8195614,50.6763564 51.6943384,49.660638 C52.9267033,48.2306265 53.6994567,46.48239 53.9287574,44.6050621 C54.1610885,42.7077201 53.8226932,40.8073759 52.9499364,39.1101755 C51.4923114,36.2791731 48.7306019,34.3598155 45.5618079,33.9765444 C43.6496221,33.7423788 41.7293552,34.0846208 40.0202065,34.9602402 C37.1847572,36.4112665 35.26247,39.156208 34.8776085,42.3014327 C34.4715341,45.6297869 35.8079429,48.8600718 38.4524768,50.9435454 C39.8323214,52.0303141 41.4899532,52.7178004 43.2445579,52.9299505 C43.6334599,52.9769837 44.0233721,53 44.4102539,53 C45.823433,53 47.2174195,52.6907813 48.4982708,52.0873545 L48.4982708,52.0873545 Z M21.1114866,33.0148642 L24.1418921,33.0148642 L24.1418921,31.0134485 L21.1114866,31.0134485 L21.1114866,33.0148642 Z M14.0405406,33.0148642 L20.1013515,33.0148642 L20.1013515,31.0134485 L14.0405406,31.0134485 L14.0405406,33.0148642 Z M14.0405406,28.0113251 L23.1317569,28.0113251 L23.1317569,26.0099094 L14.0405406,26.0099094 L14.0405406,28.0113251 Z" id="Amazon-Cognito_Icon_48_Squid" fill="#FFFFFF"></path>
    </g>
</svg>