<?xml version="1.0" encoding="UTF-8"?>
<svg width="64px" height="64px" viewBox="0 0 64 64" version="1.1" xmlns="http://www.w3.org/2000/svg" xmlns:xlink="http://www.w3.org/1999/xlink">
    <!-- Generator: Sketch 64 (93537) - https://sketch.com -->
    <title>Icon-Architecture/48/Arch_Amazon-GuardDuty_48</title>
    <desc>Created with Sketch.</desc>
    <defs>
        <linearGradient x1="0%" y1="100%" x2="100%" y2="0%" id="linearGradient-1">
            <stop stop-color="#BD0816" offset="0%"></stop>
            <stop stop-color="#FF5252" offset="100%"></stop>
        </linearGradient>
    </defs>
    <g id="Icon-Architecture/48/Arch_Amazon-GuardDuty_48" stroke="none" stroke-width="1" fill="none" fill-rule="evenodd">
        <g id="Icon-Architecture-BG/48/Security-Identity-Compliance" fill="url(#linearGradient-1)">
            <rect id="Rectangle" x="0" y="0" width="64" height="64"></rect>
        </g>
        <path d="M36,34.3505534 C35.967,36.2315962 35.389,38.4306462 33,38.9036569 L33,25.8303598 L36,27.0763881 L36,34.3505534 Z M28,34.3395532 L28,27.0763881 L31,25.8303598 L31,38.8926567 C28.242,38.3076434 28,35.3245756 28,34.3395532 L28,34.3395532 Z M31.616,23.4083047 L26.616,25.4853519 C26.243,25.6403555 26,26.0043637 26,26.4083729 L26,34.3395532 C26,37.412623 27.571,41.0007046 32,41.0007046 C35.685,41.0007046 37.927,38.5276484 38,34.3685538 L38,26.4083729 C38,26.0043637 37.757,25.6403555 37.384,25.4853519 L32.384,23.4083047 C32.138,23.3063024 31.862,23.3063024 31.616,23.4083047 L31.616,23.4083047 Z M40,34.3685538 C40,34.7205618 39.909,43.00075 32,43.00075 C24.124,43.00075 24.001,34.6915612 24,34.3395532 L24,24.4063274 L32,21.0832519 L40,24.4063274 L40,34.3685538 Z M41.384,22.8152913 L32.384,19.0772063 C32.138,18.974204 31.862,18.974204 31.616,19.0772063 L22.616,22.8152913 C22.243,22.9702948 22,23.3343031 22,23.7383122 L22,34.3395532 C22,38.027637 24.09,45.0007955 32,45.0007955 C39.91,45.0007955 42,38.0456374 42,34.3685538 L42,23.7383122 C42,23.3343031 41.757,22.9702948 41.384,22.8152913 L41.384,22.8152913 Z M52,35.1155708 L49.572,34.9765676 C49.102,34.948567 48.647,35.2775745 48.54,35.7555854 C48.117,37.630628 47.381,39.4096684 46.352,41.0427055 C46.091,41.4557149 46.167,41.9967272 46.531,42.3227346 L48.345,43.9397714 L43.939,48.3458715 L42.327,46.5378304 C42,46.1708221 41.458,46.0968204 41.047,46.3578263 C39.416,47.3878497 37.636,48.1258665 35.754,48.5508762 C35.277,48.6588786 34.948,49.0958885 34.977,49.5838996 L35.115,51.9999545 L28.885,51.9999545 L29.023,49.5808996 C29.052,49.0938885 28.723,48.6568786 28.246,48.5488761 C26.37,48.1248665 24.59,47.3868497 22.956,46.3548262 C22.543,46.0928203 22.001,46.166822 21.676,46.5348303 L20.061,48.3458715 L15.655,43.9397714 L17.465,42.3267347 C17.83,42.0007273 17.906,41.458715 17.646,41.0457056 C16.617,39.4166686 15.881,37.6366281 15.457,35.7555854 C15.349,35.2775745 14.877,34.948567 14.425,34.9765676 L12,35.1155708 L12,28.8854292 L14.432,29.0234324 C14.877,29.0394327 15.355,28.7234255 15.464,28.2464147 C15.888,26.3733721 16.626,24.5973318 17.656,22.9662947 C17.917,22.5522853 17.841,22.011273 17.477,21.6852656 L15.655,20.0602286 L20.061,15.6551285 L21.685,17.4751699 C22.009,17.8401782 22.553,17.9141799 22.964,17.655174 C24.594,16.6281506 26.37,15.8921339 28.246,15.4691243 C28.723,15.3611218 29.052,14.9251119 29.023,14.4361008 L28.885,12.0000455 L35.115,12.0000455 L34.977,14.4381009 C34.948,14.927112 35.277,15.3631219 35.754,15.4711243 C37.628,15.895134 39.404,16.6311507 41.033,17.6591741 C41.444,17.91918 41.987,17.8431783 42.312,17.47917 L43.939,15.6551285 L48.345,20.0602286 L46.526,21.6822655 C46.162,22.0072729 46.086,22.5492852 46.347,22.9622946 C47.377,24.5923316 48.114,26.3703721 48.538,28.2464147 C48.645,28.7234255 49.102,29.0394327 49.57,29.0234324 L52,28.8854292 L52,35.1155708 Z M53.687,27.0993886 C53.487,26.9113843 53.212,26.8113821 52.943,26.8283825 L50.283,26.9793859 C49.866,25.4563513 49.261,23.9973181 48.477,22.6232869 L50.467,20.8482466 C50.672,20.6652424 50.793,20.4062365 50.801,20.1302302 C50.809,19.855224 50.702,19.5892179 50.508,19.3952135 L44.605,13.4930794 C44.411,13.298075 44.145,13.1850724 43.87,13.2000727 C43.595,13.2080729 43.336,13.3290757 43.152,13.5340803 L41.371,15.5301257 C39.999,14.7471079 38.541,14.1430942 37.021,13.7260847 L37.172,11.057024 C37.187,10.7820178 37.09,10.5130117 36.9,10.3130071 C36.712,10.1130026 36.449,10 36.174,10 L27.826,10 C27.551,10 27.288,10.1130026 27.1,10.3130071 C26.91,10.5130117 26.812,10.7820178 26.828,11.057024 L26.979,13.7240846 C25.458,14.1400941 23.999,14.7441078 22.626,15.5261256 L20.848,13.5340803 C20.664,13.3290757 20.405,13.2080729 20.13,13.2000727 C19.861,13.1870724 19.589,13.298075 19.395,13.4930794 L13.492,19.3952135 C13.298,19.5892179 13.191,19.855224 13.199,20.1302302 C13.207,20.4052365 13.328,20.6652424 13.533,20.8482466 L15.527,22.626287 C14.742,24.0003182 14.137,25.4583513 13.72,26.9793859 L11.057,26.8283825 C10.785,26.8103821 10.513,26.9113843 10.313,27.0993886 C10.113,27.2883929 10,27.5513989 10,27.8264051 L10,36.1735949 C10,36.4486011 10.113,36.7116071 10.313,36.9006114 C10.513,37.0896157 10.786,37.1876179 11.057,37.1726176 L13.712,37.0206141 C14.128,38.5476488 14.733,40.009682 15.517,41.3847133 L13.534,43.1517534 C13.328,43.3347576 13.207,43.5947635 13.199,43.8697698 C13.191,44.144776 13.298,44.4117821 13.492,44.6057865 L19.395,50.5079206 C19.589,50.7029251 19.858,50.8219278 20.13,50.8009273 C20.405,50.7929271 20.665,50.6719244 20.848,50.4669197 L22.617,48.4838746 C23.994,49.2698925 25.455,49.8759063 26.979,50.2939158 L26.828,52.942976 C26.812,53.2179822 26.91,53.4869883 27.099,53.6869929 C27.288,53.8869974 27.551,54 27.826,54 L36.174,54 C36.449,54 36.712,53.8869974 36.901,53.6869929 C37.09,53.4869883 37.187,53.2179822 37.172,52.942976 L37.021,50.2959158 C38.548,49.8779063 40.011,49.2718925 41.386,48.4868747 L43.152,50.4669197 C43.335,50.6719244 43.595,50.7929271 43.87,50.8009273 C44.147,50.8239278 44.411,50.7029251 44.605,50.5079206 L50.508,44.6057865 C50.702,44.4117821 50.809,44.144776 50.801,43.8707698 C50.793,43.5947635 50.672,43.3357576 50.467,43.1527535 L48.48,41.3807132 C49.265,40.0046819 49.869,38.5436487 50.285,37.0206141 L52.943,37.1726176 C53.211,37.1866179 53.487,37.0896157 53.687,36.9006114 C53.887,36.7116071 54,36.4486011 54,36.1735949 L54,27.8264051 C54,27.5513989 53.887,27.2883929 53.687,27.0993886 L53.687,27.0993886 Z" id="Amazon-GuardDuty_Icon_48_Squid" fill="#FFFFFF"></path>
    </g>
</svg>