<svg width="24px" height="24px" viewBox="0 0 24 24" version="1.1" xmlns="http://www.w3.org/2000/svg" xmlns:xlink="http://www.w3.org/1999/xlink" jetwayHooks="{}">
    <g jetwayHookID="366692D3-B1F2-4C00-B619-21BE6F7C8C98" id="cloud-game-servers-24-colored" stroke="none" stroke-width="1" fill="none" fill-rule="evenodd">
        <rect jetwayHookID="36CB1E00-ACE1-4F46-A7A5-F569E64BEB84" x="0" y="0" width="24" height="24"></rect>
        <g jetwayHookID="1DF457AD-487C-4EB7-8D73-501E58CA30AA" transform="translate(3.000000, 3.000000)">
            <path d="M0.76,17.48 L17.48,17.48 C17.8997364,17.48 18.24,17.8202636 18.24,18.24 C18.24,18.6597364 17.8997364,19 17.48,19 L0.76,19 L0.76,19 L0.76,17.48 Z" jetwayHookID="A1386B53-136B-4FDE-B39C-E8B23CC4E105" fill="#3367D6"></path>
            <path d="M18.24,0 L18.24,0 L18.24,0 L18.24,7.6 C18.24,8.01973641 17.8997364,8.36 17.48,8.36 C17.0602636,8.36 16.72,8.01973641 16.72,7.6 L16.72,1.52 C16.72,0.68052718 17.4005272,1.54208655e-16 18.24,0 Z" jetwayHookID="8A5FA304-E2C1-45B3-B491-6E8444A2429C" fill="#3367D6" transform="translate(17.480000, 4.180000) scale(-1, 1) translate(-17.480000, -4.180000) "></path>
            <path d="M11.4,0 L15.96,0 C16.3797364,1.44940277e-16 16.72,0.34026359 16.72,0.76 C16.72,1.17973641 16.3797364,1.52 15.96,1.52 L11.4,1.52 L11.4,1.52 L11.4,0 Z" jetwayHookID="DA985DDD-E55A-4384-BEE8-A4BB2235A434" fill="#5C85DE" transform="translate(14.060000, 0.760000) scale(-1, 1) translate(-14.060000, -0.760000) "></path>
            <path d="M11.4,6.84 L17.48,6.84 C17.8997364,6.84 18.24,7.18026359 18.24,7.6 C18.24,8.01973641 17.8997364,8.36 17.48,8.36 L11.4,8.36 L11.4,8.36 L11.4,6.84 Z" jetwayHookID="076CBF64-54ED-45F7-B7C1-FB729FE6CEB6" fill="#3367D6" transform="translate(14.820000, 7.600000) scale(-1, 1) translate(-14.820000, -7.600000) "></path>
            <path d="M0,6.84 L6.08,6.84 C6.49973641,6.84 6.84,7.18026359 6.84,7.6 C6.84,8.01973641 6.49973641,8.36 6.08,8.36 L0,8.36 L0,8.36 L0,6.84 Z" jetwayHookID="9D7490DB-3E00-48F3-9F67-3A8484F6479D" fill="#3367D6"></path>
            <path d="M1.52,0 L1.52,0 L1.52,0 L1.52,7.6 C1.52,8.01973641 1.17973641,8.36 0.76,8.36 C0.34026359,8.36 1.05060361e-15,8.01973641 0,7.6 L0,1.52 C-1.0280577e-16,0.68052718 0.68052718,1.54208655e-16 1.52,0 Z" jetwayHookID="8A85673F-D7EF-46DF-A9B9-C06B2CA4C8DE" fill="#3367D6"></path>
            <path d="M1.52,0 L6.08,0 C6.49973641,3.39179748e-17 6.84,0.34026359 6.84,0.76 C6.84,1.17973641 6.49973641,1.52 6.08,1.52 L1.52,1.52 L1.52,1.52 L1.52,0 Z" jetwayHookID="81A39E20-6B50-4A6C-BB70-8E390C348701" fill="#5C85DE"></path>
            <g jetwayHookID="0824AAAC-7FBF-431A-A45C-51709E950122" transform="translate(14.820000, 14.440000) scale(-1, 1) translate(-14.820000, -14.440000) translate(11.400000, 9.880000)">
                <path d="M1.71,-1.17820905e-14 L1.71,-1.17820905e-14 L1.71,-1.17820905e-14 L1.71,8.265 C1.71,8.73720346 1.32720346,9.12 0.855,9.12 C0.382796539,9.12 1.16805127e-15,8.73720346 0,8.265 L0,1.71 C-1.15656491e-16,0.765593078 0.765593078,-1.16086057e-14 1.71,-1.17820905e-14 Z" jetwayHookID="5142CCCE-FF3E-4E8F-AE47-789A9DDC3642" fill="#3367D6"></path>
                <path d="M1.71,0 L6.01090909,0 C6.46880336,5.08395105e-16 6.84,0.371196644 6.84,0.829090909 C6.84,1.28698517 6.46880336,1.65818182 6.01090909,1.65818182 L1.71,1.65818182 L1.71,1.65818182 L1.71,0 Z" jetwayHookID="5A28F64E-1331-40C4-B901-8E3C7B78DC05" fill="#5C85DE"></path>
            </g>
            <g jetwayHookID="A0E769E5-1774-4CDF-8721-E7D659D2CF3B" transform="translate(0.000000, 9.880000)">
                <path d="M1.71,0 L1.71,0 L1.71,0 L1.71,8.265 C1.71,8.73720346 1.32720346,9.12 0.855,9.12 C0.382796539,9.12 -3.86260964e-16,8.73720346 0,8.265 L0,1.71 C-1.15656491e-16,0.765593078 0.765593078,1.73484737e-16 1.71,0 Z" jetwayHookID="F0FB98A6-D291-4BB0-86D2-8A5EA62D6574" fill="#3367D6"></path>
                <path d="M1.71,0 L6.01090909,0 C6.46880336,2.69084905e-17 6.84,0.371196644 6.84,0.829090909 C6.84,1.28698517 6.46880336,1.65818182 6.01090909,1.65818182 L1.71,1.65818182 L1.71,1.65818182 L1.71,0 Z" jetwayHookID="8DBDB72D-D9BC-4329-814E-42F7C8CE44A5" fill="#5C85DE"></path>
            </g>
            <polygon jetwayHookID="335B7DD7-A866-4092-B323-091474842FFC" fill="#3367D6" points="13.68 5.016 10.336 5.016 10.336 8.36 8.664 8.36 8.664 5.016 5.32 5.016 5.32 3.344 8.664 3.344 8.664 0 10.336 0 10.336 3.344 13.68 3.344"></polygon>
            <path d="M12.4938062,14.0138062 C12.9388812,13.5687313 13.6611188,13.5687313 14.1061938,14.0138062 C14.5512687,14.4588812 14.5512687,15.1811188 14.1061938,15.6261938 C13.6611188,16.0712687 12.9388812,16.0712687 12.4938062,15.6261938 C12.0487313,15.1811188 12.0487313,14.4588812 12.4938062,14.0138062 Z" jetwayHookID="B7E0ABCA-9878-41FD-BA02-74A25C5E0101" fill="#3367D6"></path>
            <path d="M8.31380621,15.6261938 C7.86873126,15.1811188 7.86873126,14.4588812 8.31380621,14.0138062 C8.75888115,13.5687313 9.48111885,13.5687313 9.92619379,14.0138062 C10.3712687,14.4588812 10.3712687,15.1811188 9.92619379,15.6261938 C9.48111885,16.0712687 8.75888115,16.0712687 8.31380621,15.6261938" jetwayHookID="77B82BE9-0886-4564-A038-8EB1D5F9F271" fill="#3367D6"></path>
            <path d="M8.31380621,11.8261938 C7.86873126,11.3811188 7.86873126,10.6588812 8.31380621,10.2138062 C8.75888115,9.76873126 9.48111885,9.76873126 9.92619379,10.2138062 C10.3712687,10.6588812 10.3712687,11.3811188 9.92619379,11.8261938 C9.48111885,12.2712687 8.75888115,12.2712687 8.31380621,11.8261938" jetwayHookID="E588DF94-00F8-4EF2-8F4A-966EF5F61F1F" fill="#5C85DE"></path>
            <path d="M4.13380621,15.6261938 C3.68873126,15.1811188 3.68873126,14.4588812 4.13380621,14.0138062 C4.57888115,13.5687313 5.30111885,13.5687313 5.74619379,14.0138062 C6.19126874,14.4588812 6.19126874,15.1811188 5.74619379,15.6261938 C5.30111885,16.0712687 4.57888115,16.0712687 4.13380621,15.6261938" jetwayHookID="E0808619-CFA9-46EA-802C-2478869022F4" fill="#3367D6"></path>
        </g>
    </g>
</svg>