<?xml version="1.0" encoding="UTF-8"?>
<svg width="80px" height="80px" viewBox="0 0 80 80" version="1.1" xmlns="http://www.w3.org/2000/svg" xmlns:xlink="http://www.w3.org/1999/xlink">
    <title>Icon-Architecture/64/Arch_AWS-Audit-Manager_64</title>
    <defs>
        <linearGradient x1="0%" y1="100%" x2="100%" y2="0%" id="linearGradient-1">
            <stop stop-color="#BD0816" offset="0%"></stop>
            <stop stop-color="#FF5252" offset="100%"></stop>
        </linearGradient>
    </defs>
    <g id="Icon-Architecture/64/Arch_AWS-Audit-Manager_64" stroke="none" stroke-width="1" fill="none" fill-rule="evenodd">
        <g id="Rectangle" fill="url(#linearGradient-1)">
            <rect x="0" y="0" width="80" height="80"></rect>
        </g>
        <g id="Icon-Service/64/AWS-Audit-Manager_64" transform="translate(8.000000, 8.000000)" fill="#FFFFFF">
            <path d="M54.707,44.293 L53.293,45.707 L56.586,49 L46,49 L46,51 L56.586,51 L53.293,54.293 L54.707,55.707 L59.707,50.707 C60.098,50.316 60.098,49.684 59.707,49.293 L54.707,44.293 Z M28,51 L38.586,51 L35.293,54.293 L36.707,55.707 L41.707,50.707 C42.098,50.316 42.098,49.684 41.707,49.293 L36.707,44.293 L35.293,45.707 L38.586,49 L28,49 L28,51 Z M18.707,55.707 L23.707,50.707 C24.098,50.316 24.098,49.684 23.707,49.293 L18.707,44.293 L17.293,45.707 L20.586,49 L10,49 L10,51 L20.586,51 L17.293,54.293 L18.707,55.707 Z M10,38 L28,38 L28,36 L10,36 L10,38 Z M10,27 L28,27 L28,25 L10,25 L10,27 Z M34,27 L40,27 L40,24 L34,24 L34,27 Z M41,22 C41.553,22 42,22.448 42,23 L42,28 C42,28.552 41.553,29 41,29 L33,29 C32.447,29 32,28.552 32,28 L32,23 C32,22.448 32.447,22 33,22 L41,22 Z M34,39 L58,39 L58,36 L34,36 L34,39 Z M60,35 L60,40 C60,40.552 59.553,41 59,41 L33,41 C32.447,41 32,40.552 32,40 L32,35 C32,34.448 32.447,34 33,34 L59,34 C59.553,34 60,34.448 60,35 L60,35 Z M39,13 L44.586,13 L39,7.414 L39,13 Z M46,55 L48,55 L48,59 C48,59.552 47.553,60 47,60 L5,60 C4.447,60 4,59.552 4,59 L4,5 C4,4.448 4.447,4 5,4 L38,4 C38.266,4 38.52,4.105 38.707,4.293 L47.707,13.293 C47.895,13.481 48,13.735 48,14 L48,31 L46,31 L46,15 L38,15 C37.447,15 37,14.552 37,14 L37,6 L6,6 L6,58 L46,58 L46,55 Z M19,20 C18.744,20 18.488,19.902 18.293,19.707 L14.293,15.707 L15.707,14.293 L19,17.586 L26.293,10.293 L27.707,11.707 L19.707,19.707 C19.512,19.902 19.256,20 19,20 L19,20 Z" id="Fill-7"></path>
        </g>
    </g>
</svg>