<?xml version="1.0" encoding="UTF-8"?>
<svg width="80px" height="80px" viewBox="0 0 80 80" version="1.1" xmlns="http://www.w3.org/2000/svg" xmlns:xlink="http://www.w3.org/1999/xlink">
    <title>Icon-Architecture/64/Arch_Amazon-Cloud-Directory_64</title>
    <defs>
        <linearGradient x1="0%" y1="100%" x2="100%" y2="0%" id="linearGradient-1">
            <stop stop-color="#BD0816" offset="0%"></stop>
            <stop stop-color="#FF5252" offset="100%"></stop>
        </linearGradient>
    </defs>
    <g id="Icon-Architecture/64/Arch_Amazon-Cloud-Directory_64" stroke="none" stroke-width="1" fill="none" fill-rule="evenodd">
        <g id="Rectangle" fill="url(#linearGradient-1)">
            <rect x="0" y="0" width="80" height="80"></rect>
        </g>
        <g id="Icon-Service/64/Amazon-Cloud-Directory_64" transform="translate(8.000000, 8.000000)" fill="#FFFFFF">
            <path d="M42,50.031 C40.897,50.031 40,49.134 40,48.031 C40,46.928 40.897,46.031 42,46.031 C43.103,46.031 44,46.928 44,48.031 C44,49.134 43.103,50.031 42,50.031 M34,48.031 C34,49.134 33.103,50.031 32,50.031 C30.897,50.031 30,49.134 30,48.031 C30,46.928 30.897,46.031 32,46.031 C33.103,46.031 34,46.928 34,48.031 M24,48.031 C24,49.134 23.103,50.031 22,50.031 C20.897,50.031 20,49.134 20,48.031 C20,46.928 20.897,46.031 22,46.031 C23.103,46.031 24,46.928 24,48.031 M28,29.031 C28,26.825 29.794,25.031 32,25.031 C34.206,25.031 36,26.825 36,29.031 C36,31.237 34.206,33.031 32,33.031 C29.794,33.031 28,31.237 28,29.031 M43,44.173 L43,39.031 C43,38.479 42.553,38.031 42,38.031 L33,38.031 L33,34.941 C35.833,34.462 38,31.998 38,29.031 C38,25.722 35.309,23.031 32,23.031 C28.691,23.031 26,25.722 26,29.031 C26,31.998 28.167,34.462 31,34.941 L31,38.031 L22,38.031 C21.447,38.031 21,38.479 21,39.031 L21,44.173 C19.279,44.62 18,46.173 18,48.031 C18,50.237 19.794,52.031 22,52.031 C24.206,52.031 26,50.237 26,48.031 C26,46.173 24.721,44.62 23,44.173 L23,40.031 L31,40.031 L31,44.173 C29.279,44.62 28,46.173 28,48.031 C28,50.237 29.794,52.031 32,52.031 C34.206,52.031 36,50.237 36,48.031 C36,46.173 34.721,44.62 33,44.173 L33,40.031 L41,40.031 L41,44.173 C39.279,44.62 38,46.173 38,48.031 C38,50.237 39.794,52.031 42,52.031 C44.206,52.031 46,50.237 46,48.031 C46,46.173 44.721,44.62 43,44.173 M32,57.031 C22.309,57.031 15,54.882 15,52.031 L15,15.426 C18.322,17.904 25.268,19.062 31.852,19.062 C38.562,19.062 45.639,17.896 49,15.401 L49,52.031 C49,54.882 41.691,57.031 32,57.031 M31.852,7 C42.109,7 49,9.601 49,12.031 C49,14.461 42.109,17.062 31.852,17.062 C21.771,17.062 15,14.461 15,12.031 C15,9.601 21.771,7 31.852,7 M31.852,5 C22.772,5 13.001,7.2 13,12.031 L13,52.031 C13,57.192 22.814,59.031 32,59.031 C41.186,59.031 51,57.192 51,52.031 L51,12.031 C51,7.2 41.074,5 31.852,5" id="Fill-1"></path>
        </g>
    </g>
</svg>