<?xml version="1.0" encoding="UTF-8"?>
<svg width="80px" height="80px" viewBox="0 0 80 80" version="1.1" xmlns="http://www.w3.org/2000/svg" xmlns:xlink="http://www.w3.org/1999/xlink">
    <title>Icon-Architecture/64/Arch_AWS-WAF_64</title>
    <defs>
        <linearGradient x1="0%" y1="100%" x2="100%" y2="0%" id="linearGradient-1">
            <stop stop-color="#BD0816" offset="0%"></stop>
            <stop stop-color="#FF5252" offset="100%"></stop>
        </linearGradient>
    </defs>
    <g id="Icon-Architecture/64/Arch_AWS-WAF_64" stroke="none" stroke-width="1" fill="none" fill-rule="evenodd">
        <g id="Rectangle" fill="url(#linearGradient-1)">
            <rect x="0" y="0" width="80" height="80"></rect>
        </g>
        <g id="Icon-Service/64/AWS-WAF_64" transform="translate(8.000000, 8.000000)" fill="#FFFFFF">
            <path d="M6.3955,33 L3.9995,33 L3.9995,31 L6.3985,31 C6.5985,25.941 8.2385,21.128 11.2075,17.025 L12.8285,18.198 C10.1075,21.957 8.5975,26.366 8.3985,31 L10.9995,31 L10.9995,33 L8.3955,33 C8.5815,37.662 10.0925,42.097 12.8285,45.876 L11.2075,47.049 C8.2235,42.926 6.5825,38.085 6.3955,33 L6.3955,33 Z M47.0095,52.828 C42.8975,55.805 38.0715,57.445 32.9995,57.639 L32.9995,60 L30.9995,60 L30.9995,57.639 C25.9275,57.445 21.0995,55.805 16.9875,52.828 L18.1595,51.208 C21.9295,53.937 26.3515,55.447 30.9995,55.639 L30.9995,53 L32.9995,53 L32.9995,55.639 C37.6475,55.446 42.0685,53.936 45.8375,51.208 L47.0095,52.828 Z M16.9875,11.246 C21.0995,8.269 25.9275,6.629 30.9995,6.436 L30.9995,4 L32.9995,4 L32.9995,6.436 C38.0715,6.629 42.8975,8.27 47.0095,11.246 L45.8375,12.866 C42.0685,10.138 37.6475,8.628 32.9995,8.436 L32.9995,11 L30.9995,11 L30.9995,8.436 C26.3515,8.627 21.9295,10.138 18.1595,12.866 L16.9875,11.246 Z M59.9995,31 L59.9995,33 L57.6015,33 C57.4155,38.085 55.7735,42.926 52.7905,47.049 L51.1685,45.876 C53.9045,42.097 55.4165,37.662 55.6015,33 L52.9995,33 L52.9995,31 L55.5985,31 C55.3995,26.366 53.8895,21.957 51.1685,18.198 L52.7905,17.025 C55.7585,21.128 57.3985,25.941 57.5985,31 L59.9995,31 Z M46.9715,15.65 L54.8115,7.81 L56.2255,9.224 L48.3855,17.064 L46.9715,15.65 Z M17.0255,48.424 L9.1855,56.264 L7.7715,54.85 L15.6115,47.01 L17.0255,48.424 Z M19.2515,20.667 L4.4115,5.827 L5.8255,4.413 L20.6665,19.253 L19.2515,20.667 Z M44.7065,43.293 L59.5855,58.173 L58.1715,59.587 L43.2915,44.708 L44.7065,43.293 Z M23.6635,32.735 C23.7385,32.602 23.8195,32.468 23.9045,32.334 C25.5855,29.693 25.1035,26.089 24.5695,23.912 C26.0105,24.859 27.3095,26.816 27.7525,27.638 C27.9415,27.986 28.3085,28.197 28.7115,28.161 C29.1065,28.13 29.4455,27.87 29.5775,27.497 C31.0665,23.267 30.3095,20.087 29.2595,18.026 C30.5325,18.767 31.5185,19.833 32.1715,21.192 C33.5875,24.134 33.2725,28.161 31.3475,31.7 C28.7185,36.536 29.2455,41.606 29.8435,44.334 C28.3425,43.687 27.0065,42.956 25.8535,42.152 C22.8265,40.042 21.8635,35.907 23.6635,32.735 L23.6635,32.735 Z M37.0935,32.398 C37.0285,32.807 37.2205,33.214 37.5785,33.422 C37.9355,33.629 38.3855,33.596 38.7085,33.336 C38.7895,33.271 40.4295,31.917 41.2235,28.642 C42.1805,30.034 43.1815,32.843 41.8495,38.003 C40.5315,43.108 34.2795,44.544 32.0485,44.897 C31.5095,42.964 30.4165,37.599 33.1055,32.655 C35.0135,29.145 35.5195,25.176 34.5635,21.901 C36.3735,24.027 37.9005,27.373 37.0935,32.398 L37.0935,32.398 Z M21.9215,31.75 C19.6195,35.81 20.8435,41.099 24.7095,43.793 C26.4595,45.013 28.5795,46.072 31.0095,46.941 C31.1205,46.981 31.2335,47 31.3465,47 C31.3675,47 31.3855,46.989 31.4055,46.988 L31.4065,46.997 C31.8315,46.964 41.8255,46.096 43.7855,38.503 C46.3075,28.737 41.2565,25.84 41.0405,25.721 C40.7475,25.561 40.3925,25.557 40.0955,25.712 C39.7985,25.868 39.5995,26.162 39.5655,26.495 C39.4945,27.17 39.3835,27.771 39.2495,28.302 C38.5575,20.634 32.4785,17.514 31.2495,16.959 C29.9895,15.994 28.4575,15.331 26.6815,15.016 C26.2355,14.935 25.7935,15.168 25.6035,15.578 C25.4115,15.987 25.5205,16.477 25.8665,16.768 C26.0165,16.895 29.1325,19.597 28.2435,24.739 C27.0825,23.216 25.2345,21.38 23.0605,21.38 C22.7305,21.38 22.4225,21.543 22.2365,21.815 C22.0495,22.087 22.0095,22.434 22.1275,22.741 C22.1495,22.795 24.1875,28.166 22.2165,31.261 C22.1125,31.425 22.0135,31.589 21.9215,31.75 L21.9215,31.75 Z" id="AWS-WAF_Icon_64_Squid"></path>
        </g>
    </g>
</svg>