<?xml version="1.0" encoding="UTF-8"?>
<svg width="80px" height="80px" viewBox="0 0 80 80" version="1.1" xmlns="http://www.w3.org/2000/svg" xmlns:xlink="http://www.w3.org/1999/xlink">
    <title>Icon-Architecture/64/Arch_AWS-Signer_64</title>
    <defs>
        <linearGradient x1="0%" y1="100%" x2="100%" y2="0%" id="linearGradient-1">
            <stop stop-color="#BD0816" offset="0%"></stop>
            <stop stop-color="#FF5252" offset="100%"></stop>
        </linearGradient>
    </defs>
    <g id="Icon-Architecture/64/Arch_AWS-Signer_64" stroke="none" stroke-width="1" fill="none" fill-rule="evenodd">
        <g id="Rectangle" fill="url(#linearGradient-1)">
            <rect x="0" y="0" width="80" height="80"></rect>
        </g>
        <g id="Icon-Service/64/AWS-Signer_64" transform="translate(8.000000, 8.000000)" fill="#FFFFFF">
            <path d="M36.836,43.639 C36.928,44.089 37.19,44.476 37.574,44.729 C37.957,44.983 38.415,45.072 38.867,44.978 C39.317,44.886 39.704,44.624 39.957,44.241 C40.21,43.857 40.299,43.397 40.206,42.947 C40.114,42.497 39.852,42.11 39.468,41.857 C39.184,41.669 38.857,41.572 38.524,41.572 C38.408,41.572 38.292,41.584 38.175,41.608 C37.725,41.7 37.338,41.962 37.085,42.346 C36.832,42.729 36.743,43.189 36.836,43.639 L36.836,43.639 Z M51.422,37.008 L39.77,29.324 L29,37.605 L29,55.692 L35.662,45.649 C35.28,45.186 35,44.645 34.876,44.041 C34.677,43.068 34.868,42.075 35.415,41.245 C35.962,40.415 36.8,39.848 37.773,39.648 C38.746,39.449 39.74,39.64 40.569,40.187 C41.398,40.734 41.966,41.572 42.166,42.545 C42.365,43.518 42.174,44.512 41.627,45.341 C41.08,46.171 40.242,46.738 39.269,46.938 C39.018,46.99 38.765,47.015 38.514,47.015 C38.098,47.015 37.69,46.937 37.298,46.8 L30.648,56.826 L47.584,49.79 L51.422,37.008 Z M53.486,37.284 C53.465,37.31 53.433,37.321 53.409,37.345 L49.363,50.819 C49.276,51.106 49.066,51.34 48.789,51.455 L28.384,59.931 C28.261,59.983 28.13,60.008 28,60.008 L4,60.008 L4,58.008 L27,58.008 L27,37.112 C27,36.802 27.145,36.509 27.391,36.319 L39.057,27.349 L39.064,27.359 L45.573,14.549 L47.357,15.455 L41.085,27.795 L52.498,35.321 L58.439,27.929 L59.997,29.181 L53.486,37.284 Z M52.718,4.906 L50.935,4 L46.506,12.714 L48.289,13.62 L52.718,4.906 Z M16.943,25.03 L16.944,25.03 C17.218,25.03 17.48,24.918 17.668,24.72 L26.389,15.554 L24.94,14.175 L16.942,22.58 L13.302,18.762 L11.855,20.141 L16.22,24.72 C16.408,24.918 16.67,25.03 16.943,25.03 L16.943,25.03 Z M6,19.508 C6,20.622 6.792,21.589 7.884,21.807 C8.255,21.881 8.552,22.158 8.652,22.521 C8.901,23.422 9.259,24.284 9.714,25.082 C9.896,25.399 9.889,25.789 9.698,26.101 C9.464,26.481 9.346,26.89 9.346,27.316 C9.346,28.609 10.399,29.662 11.692,29.662 C12.118,29.662 12.526,29.543 12.908,29.309 C13.068,29.211 13.249,29.162 13.431,29.162 C13.602,29.162 13.773,29.206 13.927,29.294 C14.727,29.75 15.587,30.108 16.486,30.356 C16.851,30.456 17.128,30.753 17.201,31.124 C17.419,32.216 18.386,33.008 19.5,33.008 C20.614,33.008 21.581,32.216 21.799,31.124 C21.872,30.753 22.149,30.456 22.514,30.356 C23.413,30.108 24.273,29.75 25.073,29.294 C25.391,29.112 25.78,29.118 26.092,29.309 C26.474,29.543 26.882,29.662 27.308,29.662 C28.602,29.662 29.654,28.609 29.654,27.316 C29.654,26.89 29.536,26.481 29.302,26.101 C29.111,25.789 29.105,25.399 29.286,25.082 C29.741,24.284 30.099,23.422 30.348,22.521 C30.448,22.158 30.745,21.881 31.116,21.807 C32.208,21.589 33,20.622 33,19.508 C33,18.394 32.208,17.427 31.116,17.209 C30.745,17.135 30.448,16.859 30.348,16.495 C30.099,15.595 29.741,14.733 29.286,13.934 C29.105,13.618 29.111,13.227 29.302,12.915 C29.536,12.535 29.654,12.126 29.654,11.701 C29.654,10.407 28.602,9.354 27.308,9.354 C26.882,9.354 26.474,9.473 26.092,9.707 C25.78,9.897 25.391,9.903 25.073,9.722 C24.273,9.266 23.413,8.909 22.514,8.66 C22.149,8.56 21.872,8.263 21.799,7.892 C21.581,6.801 20.614,6.008 19.5,6.008 C18.386,6.008 17.419,6.801 17.201,7.892 C17.128,8.263 16.851,8.56 16.486,8.66 C15.587,8.909 14.727,9.266 13.927,9.722 C13.608,9.903 13.219,9.897 12.908,9.707 C12.526,9.473 12.118,9.354 11.692,9.354 C10.399,9.354 9.346,10.407 9.346,11.701 C9.346,12.126 9.464,12.535 9.698,12.915 C9.889,13.227 9.896,13.618 9.714,13.934 C9.259,14.733 8.901,15.595 8.652,16.495 C8.552,16.859 8.255,17.135 7.884,17.209 C6.792,17.427 6,18.394 6,19.508 L6,19.508 Z M4,19.508 C4,17.655 5.183,16.022 6.889,15.414 C7.11,14.728 7.387,14.064 7.714,13.429 C7.472,12.881 7.346,12.293 7.346,11.701 C7.346,9.304 9.296,7.354 11.692,7.354 C12.284,7.354 12.872,7.48 13.42,7.722 C14.056,7.394 14.721,7.118 15.407,6.896 C16.014,5.191 17.647,4.008 19.5,4.008 C21.354,4.008 22.986,5.191 23.593,6.896 C24.279,7.118 24.944,7.394 25.58,7.722 C26.128,7.48 26.716,7.354 27.308,7.354 C29.704,7.354 31.654,9.304 31.654,11.701 C31.654,12.293 31.528,12.881 31.286,13.429 C31.613,14.064 31.89,14.728 32.111,15.414 C33.817,16.022 35,17.655 35,19.508 C35,21.361 33.817,22.994 32.111,23.602 C31.89,24.288 31.613,24.952 31.286,25.588 C31.528,26.136 31.654,26.723 31.654,27.316 C31.654,29.712 29.704,31.662 27.308,31.662 C26.716,31.662 26.128,31.536 25.58,31.294 C24.944,31.622 24.279,31.898 23.593,32.12 C22.986,33.825 21.354,35.008 19.5,35.008 C17.647,35.008 16.014,33.825 15.407,32.12 C14.721,31.898 14.056,31.622 13.42,31.294 C12.872,31.536 12.284,31.662 11.692,31.662 C9.296,31.662 7.346,29.712 7.346,27.316 C7.346,26.723 7.472,26.136 7.714,25.588 C7.387,24.952 7.11,24.288 6.889,23.602 C5.183,22.994 4,21.361 4,19.508 L4,19.508 Z M14,33.008 L14,44.833 L18.712,40.122 C19.103,39.731 19.735,39.732 20.126,40.121 L25.047,45.035 L23.633,46.451 L19.419,42.243 L13.707,47.954 C13.516,48.146 13.26,48.247 13,48.247 C12.871,48.247 12.741,48.222 12.617,48.171 C12.243,48.016 12,47.652 12,47.247 L12,33.008 L14,33.008 Z" id="Fill-1"></path>
        </g>
    </g>
</svg>