<svg id="a0cb9122-7e8e-4987-8cad-9cab772115a7" xmlns="http://www.w3.org/2000/svg" width="18" height="18" viewBox="0 0 18 18"><defs><linearGradient id="f1b81213-b7d5-465b-a5f3-d99014b0e364" x1="9" y1="13.14" x2="9" y2="0.39" gradientUnits="userSpaceOnUse"><stop offset="0" stop-color="#0078d4" /><stop offset="0.82" stop-color="#5ea0ef" /></linearGradient></defs><title>Icon-storage-94</title><g><path d="M18,9.15a4.05,4.05,0,0,0-3.51-3.89A5.1,5.1,0,0,0,9.24.39a5.23,5.23,0,0,0-5,3.4A4.84,4.84,0,0,0,0,8.44a4.89,4.89,0,0,0,5.07,4.7,3.17,3.17,0,0,0,.44,0h8.21a.78.78,0,0,0,.22,0A4.09,4.09,0,0,0,18,9.15Z" fill="url(#f1b81213-b7d5-465b-a5f3-d99014b0e364)" /><path d="M9.47,8.32a4.74,4.74,0,1,0-4.73,4.82H9.47V8.32Z" fill="#50e6ff" /></g><path d="M11.8,15.34,9.55,17.58a.1.1,0,0,1-.16,0L7.15,15.34a.12.12,0,0,1,.08-.2H8.55A.11.11,0,0,0,8.66,15v-2.9A.11.11,0,0,1,8.78,12h1.39a.11.11,0,0,1,.11.11V15a.11.11,0,0,0,.12.11h1.32A.12.12,0,0,1,11.8,15.34Z" fill="#0078d4" /><path d="M7.15,9.82,9.47,7.5,11.8,9.82a.11.11,0,0,1-.08.19H10.4a.12.12,0,0,0-.12.12v3H8.66v-3A.12.12,0,0,0,8.55,10H7.23A.11.11,0,0,1,7.15,9.82Z" fill="#fff" /></svg>