<?xml version="1.0" encoding="UTF-8"?>
<svg width="24px" height="24px" viewBox="0 0 24 24" version="1.1" xmlns="http://www.w3.org/2000/svg" xmlns:xlink="http://www.w3.org/1999/xlink">
    <!-- Generator: Sketch 64 (93537) - https://sketch.com -->
    <title>Icon-Architecture/16/Arch_Amazon-GuardDuty_16</title>
    <desc>Created with Sketch.</desc>
    <defs>
        <linearGradient x1="0%" y1="100%" x2="100%" y2="0%" id="linearGradient-1">
            <stop stop-color="#BD0816" offset="0%"></stop>
            <stop stop-color="#FF5252" offset="100%"></stop>
        </linearGradient>
    </defs>
    <g id="Icon-Architecture/16/Arch_Amazon-GuardDuty_16" stroke="none" stroke-width="1" fill="none" fill-rule="evenodd">
        <g id="Icon-Architecture-BG/16/Security-Identity-Compliance" fill="url(#linearGradient-1)">
            <rect id="Rectangle" x="0" y="0" width="24" height="24"></rect>
        </g>
        <path d="M17.0080604,12.5178188 C16.8842397,12.5740087 16.7881548,12.6776694 16.7445699,12.8036122 L16.3919285,13.8353747 C16.3483436,13.9651927 16.3622115,14.107605 16.4305605,14.2267663 L17.453815,16.0074043 L14.8317873,17.8703896 L13.4024008,16.3552003 C13.3102781,16.2554149 13.1775423,16.199225 13.0388631,16.199225 L11.9561746,16.1982562 C11.818486,16.1982562 11.6857502,16.2554149 11.5916464,16.3542315 L10.1662222,17.868452 L7.54320385,16.0054667 L8.56744893,14.2219224 C8.63579797,14.1037298 8.64966589,13.9622863 8.60608099,13.8324683 L8.25542069,12.8007058 C8.21183579,12.6728254 8.11674147,12.568196 7.99093961,12.5120061 L6.10292113,11.6652827 L7.10537375,8.65040482 L9.16178843,9.05245312 C9.29551482,9.07861048 9.43617516,9.04954674 9.5481091,8.97107467 L10.433675,8.34717321 C10.54759,8.26773234 10.6208919,8.14566466 10.636741,8.01003391 L10.8794296,5.96879109 L14.1215516,5.96879109 L14.3672119,8.01294028 C14.3830609,8.14760224 14.4563628,8.26966992 14.5692873,8.34911079 L15.4578249,8.97398104 C15.5697588,9.05342191 15.708438,9.08345443 15.8441456,9.05632828 L17.896598,8.65331119 L18.8970695,11.6691578 L17.0080604,12.5178188 Z M19.9757957,11.7796 L18.7029186,7.94415611 C18.6246639,7.71067746 18.3839564,7.56826517 18.1343338,7.61864231 L15.8609852,8.06428621 L15.3250891,7.68742648 L15.053674,5.42820566 C15.023957,5.18407031 14.8129665,5 14.5613628,5 L10.4386278,5 C10.1870241,5 9.97504298,5.18407031 9.94631657,5.42917445 L9.67886379,7.68645768 L9.14494881,8.06137984 L6.86763795,7.61573594 C6.62395876,7.5653588 6.37730786,7.70777109 6.29905316,7.94124974 L5.02419493,11.7757249 C4.9469308,12.0101723 5.0598553,12.2630268 5.28966658,12.3657186 L7.38273219,13.3044772 L7.59669441,13.9341914 L6.46447766,15.9066501 C6.34065693,16.1207529 6.40207201,16.3910456 6.60513801,16.5353955 L9.94037317,18.9060273 C10.1434392,19.0513459 10.4247599,19.0242198 10.5961278,18.8420871 L12.1731086,17.1670473 L12.8219292,17.1680161 L14.4018817,18.8440246 C14.4989571,18.9467165 14.631693,19 14.7654194,19 C14.8674476,19 14.9684854,18.9699675 15.0566457,18.9079648 L18.3928714,16.5383018 C18.596928,16.3929832 18.6573525,16.1226905 18.5335318,15.9085876 L17.401315,13.9390354 L17.6162678,13.3102899 L19.7113146,12.368625 C19.9401353,12.2669019 20.0530598,12.0130787 19.9757957,11.7796 L19.9757957,11.7796 Z M13.9640516,12.5313819 C13.9640516,12.6941388 13.9224478,14.1201993 12.4782028,14.1201993 C11.0478258,14.1201993 10.9943352,12.6863885 10.9923541,12.5255692 L10.9923541,10.5957373 L12.4782028,9.96602311 L13.9640516,10.5957373 L13.9640516,12.5313819 Z M14.6564571,9.83329873 L12.6753254,8.99335686 C12.5495236,8.94104214 12.4058915,8.94104214 12.2810802,8.99335686 L10.2999486,9.83329873 C10.118675,9.91080202 10.0017883,10.0851844 10.0017883,10.2779738 L10.0017883,12.5255692 C10.0017883,13.412013 10.5188636,15.0889904 12.4782028,15.0889904 C14.4365515,15.0889904 14.9546174,13.4158882 14.9546174,12.5313819 L14.9546174,10.2779738 C14.9546174,10.0851844 14.8377307,9.91080202 14.6564571,9.83329873 L14.6564571,9.83329873 Z" id="Amazon-GuardDuty_Icon_16_Squid" fill="#FFFFFF"></path>
    </g>
</svg>