<?xml version="1.0" encoding="UTF-8"?>
<svg width="24px" height="24px" viewBox="0 0 24 24" version="1.1" xmlns="http://www.w3.org/2000/svg" xmlns:xlink="http://www.w3.org/1999/xlink">
    <!-- Generator: Sketch 64 (93537) - https://sketch.com -->
    <title>Icon-Architecture/16/Arch_AWS-Certificate-Manager_16</title>
    <desc>Created with Sketch.</desc>
    <defs>
        <linearGradient x1="0%" y1="100%" x2="100%" y2="0%" id="linearGradient-1">
            <stop stop-color="#BD0816" offset="0%"></stop>
            <stop stop-color="#FF5252" offset="100%"></stop>
        </linearGradient>
    </defs>
    <g id="Icon-Architecture/16/Arch_AWS-Certificate-Manager_16" stroke="none" stroke-width="1" fill="none" fill-rule="evenodd">
        <g id="Icon-Architecture-BG/16/Security-Identity-Compliance" fill="url(#linearGradient-1)">
            <rect id="Rectangle" x="0" y="0" width="24" height="24"></rect>
        </g>
        <path d="M10.0551629,10.8101076 L10.9017449,11.6447336 C11.0258303,11.7668251 11.0768653,11.9429572 11.0378385,12.1120841 L10.872725,12.8336252 L11.7453249,12.3162372 C11.9084371,12.2201651 12.1115767,12.2241681 12.2696854,12.3242432 L12.9971856,12.7885914 L12.8470824,12.1070803 C12.8090562,11.9329497 12.8660954,11.7508131 12.9971856,11.6297223 L13.9038089,10.8011008 L12.7580211,10.6149612 C12.5929076,10.587941 12.4528113,10.4798599 12.3827631,10.3287466 L11.9964976,9.48211158 L11.6012258,10.3327496 C11.5321784,10.4828621 11.3920821,10.5889417 11.2299706,10.615962 L10.0551629,10.8101076 Z M9.63787604,13.749312 L10.0001251,12.1611208 L8.65419976,10.8331248 C8.51910689,10.7010258 8.47107386,10.5048787 8.52811308,10.3257443 C8.5841516,10.1456092 8.73725686,10.0145109 8.92238414,9.98348762 L10.8056789,9.67125344 L11.5471887,8.07605704 C11.6292451,7.89892419 11.8223779,7.77583187 12.0025017,7.78684013 C12.1986366,7.78684013 12.3747576,7.90192644 12.4558134,8.07905929 L13.1823128,9.66925194 L15.0826193,9.97848386 C15.27275,10.0095071 15.426856,10.1456092 15.4828945,10.3297473 C15.5379323,10.5128847 15.4818938,10.712034 15.3407968,10.8411308 L13.8867972,12.1731298 L14.2350366,13.7503127 C14.2790669,13.9474606 14.1990118,14.1516137 14.0338983,14.2677008 C13.8687848,14.3827871 13.6486334,14.3887916 13.4775158,14.2797098 L11.9924948,13.3340005 L10.3803865,14.290718 C10.3023329,14.3367526 10.2132716,14.3607706 10.1252111,14.3607706 C10.0221402,14.3607706 9.91806867,14.3287466 9.83000813,14.2646985 C9.66889737,14.14661 9.59284508,13.9434576 9.63787604,13.749312 L9.63787604,13.749312 Z M18.983301,6.07255442 L18.9823003,5.00075056 L5.00068797,5.00075056 L5.00068797,6.07255442 L18.983301,6.07255442 Z M20,19.4976232 C20,19.6297223 19.9469635,19.7568176 19.8528989,19.8518889 C19.7588342,19.9449587 19.6317468,19.9979985 19.499656,19.9979985 L17.0039402,19.9979985 L17.0039402,18.9972479 L18.9983113,18.9972479 L18.9843017,7.07330498 L5.00068797,7.07330498 L5.00068797,18.9992494 L14.0018763,18.9992494 L14.0018763,20 L4.50034399,20 C4.22415411,20 4,19.7758319 4,19.4996247 L4,4.50037528 C4,4.22316738 4.22415411,4 4.50034399,4 L19.4816436,4 C19.7578335,4 19.9819876,4.22316738 19.9819876,4.49937453 L20,19.4976232 Z M6.99706048,18.0165124 L8.99843643,18.0165124 L8.99843643,17.0157618 L6.99706048,17.0157618 L6.99706048,18.0165124 Z M10.9998124,18.0285214 L15.0025643,18.0285214 L15.0025643,17.0277708 L10.9998124,17.0277708 L10.9998124,18.0285214 Z M6.99706048,16.020015 L8.99843643,16.020015 L8.99843643,15.0192644 L6.99706048,15.0192644 L6.99706048,16.020015 Z M10.9998124,16.020015 L17.0039402,16.020015 L17.0039402,15.0192644 L10.9998124,15.0192644 L10.9998124,16.020015 Z" id="AWS-Certificate-Manager_Icon_16_Squid" fill="#FFFFFF"></path>
    </g>
</svg>