<?xml version="1.0" encoding="UTF-8"?>
<svg width="24px" height="24px" viewBox="0 0 24 24" version="1.1" xmlns="http://www.w3.org/2000/svg" xmlns:xlink="http://www.w3.org/1999/xlink">
    <title>Icon-Architecture/16/Arch_Amazon-Cloud-Directory_16</title>
    <defs>
        <linearGradient x1="0%" y1="100%" x2="100%" y2="0%" id="linearGradient-1">
            <stop stop-color="#BD0816" offset="0%"></stop>
            <stop stop-color="#FF5252" offset="100%"></stop>
        </linearGradient>
    </defs>
    <g id="Icon-Architecture/16/Arch_Amazon-Cloud-Directory_16" stroke="none" stroke-width="1" fill="none" fill-rule="evenodd">
        <g id="Rectangle" fill="url(#linearGradient-1)">
            <rect x="0" y="0" width="24" height="24"></rect>
        </g>
        <g id="Icon-Service/16/Amazon-Cloud-Directory_16" transform="translate(4.000000, 4.000000)" fill="#FFFFFF">
            <path d="M10.5,12.437 C10.225,12.437 10,12.213 10,11.937 C10,11.662 10.225,11.437 10.5,11.437 C10.775,11.437 11,11.662 11,11.937 C11,12.213 10.775,12.437 10.5,12.437 M6.5,12.437 C6.225,12.437 6,12.213 6,11.937 C6,11.662 6.225,11.437 6.5,11.437 C6.775,11.437 7,11.662 7,11.937 C7,12.213 6.775,12.437 6.5,12.437 M8.5,6.437 C8.775,6.437 9,6.661 9,6.937 C9,7.212 8.775,7.436 8.5,7.436 C8.225,7.436 8,7.212 8,6.937 C8,6.661 8.225,6.437 8.5,6.437 M11,10.53 L11,9.437 C11,9.161 10.776,8.937 10.5,8.937 L9,8.937 L9,8.344 C9.581,8.137 10,7.587 10,6.937 C10,6.109 9.327,5.437 8.5,5.437 C7.673,5.437 7,6.109 7,6.937 C7,7.587 7.419,8.137 8,8.344 L8,8.937 L6.5,8.937 C6.224,8.937 6,9.161 6,9.437 L6,10.53 C5.419,10.737 5,11.287 5,11.937 C5,12.764 5.673,13.437 6.5,13.437 C7.327,13.437 8,12.764 8,11.937 C8,11.287 7.581,10.737 7,10.53 L7,9.937 L10,9.937 L10,10.53 C9.419,10.737 9,11.287 9,11.937 C9,12.764 9.673,13.437 10.5,13.437 C11.327,13.437 12,12.764 12,11.937 C12,11.287 11.581,10.737 11,10.53 M8.501,14.854 C5.753,14.854 4,13.975 4,13.516 L4,3.338 C5.256,3.966 7.38,4.059 8.5,4.059 C9.62,4.059 11.744,3.966 13,3.338 L13,13.516 C13,13.975 11.248,14.854 8.501,14.854 M8.5,1 C11.68,1 13,1.671 13,2.031 C13,2.389 11.68,3.059 8.5,3.059 C5.32,3.059 4,2.389 4,2.031 C4,1.671 5.32,1 8.5,1 M8.5,0 C6.848,0 3.002,0.198 3,2.029 L3,13.516 C3,15.034 5.834,15.854 8.501,15.854 C11.167,15.854 14,15.034 14,13.516 L14,2.031 C14,0.198 10.153,0 8.5,0" id="Amazon-Cloud-Directory_16_Squid"></path>
        </g>
    </g>
</svg>