<?xml version="1.0" encoding="UTF-8"?>
<svg width="24px" height="24px" viewBox="0 0 24 24" version="1.1" xmlns="http://www.w3.org/2000/svg" xmlns:xlink="http://www.w3.org/1999/xlink">
    <title>Icon-Architecture/16/Arch_AWS-Network-Firewall_16</title>
    <defs>
        <linearGradient x1="0%" y1="100%" x2="100%" y2="0%" id="linearGradient-1">
            <stop stop-color="#BD0816" offset="0%"></stop>
            <stop stop-color="#FF5252" offset="100%"></stop>
        </linearGradient>
    </defs>
    <g id="Icon-Architecture/16/Arch_AWS-Network-Firewall_16" stroke="none" stroke-width="1" fill="none" fill-rule="evenodd">
        <g id="Rectangle" fill="url(#linearGradient-1)">
            <rect x="0" y="0" width="24" height="24"></rect>
        </g>
        <g id="Icon-Service/16/AWS-Network-Firewall_16" transform="translate(4.000000, 4.000000)" fill="#FFFFFF">
            <path d="M15.0054937,11.9983916 L11.5054937,11.9983916 L11.0054937,11.9983916 L11.0054937,9.99839165 L13.5054937,9.99839165 L15.0054937,9.99839165 L15.0054937,11.9983916 Z M11.0054937,14.9983916 L7.00549371,14.9983916 L7.00549371,12.9983916 L10.0054937,12.9983916 L10.5054937,12.9983916 L11.0054937,12.9983916 L11.0054937,14.9983916 Z M4.17149371,10.0083916 L3.98249371,10.0073916 C2.88349371,10.0073916 1.87449371,9.45339165 1.28449371,8.52539165 C0.832493713,7.81439165 0.824493713,6.85739165 1.27649371,6.06939165 C1.76349371,5.33039165 1.74549371,4.38339165 1.62249371,3.65639165 C1.91349371,3.94039165 2.16649371,4.30239165 2.29549371,4.53239165 C2.39049371,4.70239165 2.56349371,4.80039165 2.77249371,4.78739165 C2.96649371,4.77139165 3.13549371,4.64439165 3.20149371,4.45939165 C3.64949371,3.23139165 3.51849371,2.26139165 3.23749371,1.56439165 C4.33549371,2.06239165 5.72849371,3.12139165 5.72849371,5.28439165 C5.72849371,5.42039165 5.78349371,5.55139165 5.88249371,5.64539165 C5.98049371,5.73939165 6.11149371,5.80039165 6.24949371,5.78439165 C6.60449371,5.76939165 7.21649371,5.52839165 7.56649371,4.79939165 C7.79049371,5.14839165 8.00549371,5.69239165 8.00549371,6.49839165 L8.00549371,8.99839165 L5.50549371,8.99839165 C5.22949371,8.99839165 5.00549371,9.22239165 5.00549371,9.49839165 L5.00549371,10.0113916 C4.70449371,10.0123916 4.33849371,10.0103916 4.17149371,10.0083916 L4.17149371,10.0083916 Z M10.0054937,11.9983916 L6.50549371,11.9983916 L6.00549371,11.9983916 L6.00549371,9.99839165 L8.50549371,9.99839165 L10.0054937,9.99839165 L10.0054937,11.9983916 Z M13.0054937,8.99839165 L10.5054937,8.99839165 L10.0054937,8.99839165 L9.00549371,8.99839165 L9.00549371,6.99839165 L13.0054937,6.99839165 L13.0054937,8.99839165 Z M15.5054937,8.99839165 L14.0054937,8.99839165 L14.0054937,6.49839165 C14.0054937,6.22239165 13.7814937,5.99839165 13.5054937,5.99839165 L8.96749371,5.99839165 C8.77849371,4.12339165 7.60949371,3.43039165 7.55549371,3.39939165 C7.40849371,3.31839165 7.23149371,3.31539165 7.08249371,3.39339165 C6.93349371,3.47039165 6.83349371,3.61739165 6.81649371,3.78439165 C6.78749371,4.04839165 6.72949371,4.24339165 6.65749371,4.38639165 C6.08249371,0.818391649 2.13549371,0.172391649 2.09249371,0.165391649 C1.86349371,0.132391649 1.64949371,0.253391649 1.55949371,0.459391649 C1.46849371,0.666391649 1.52749371,0.909391649 1.70549371,1.05139165 C1.71649371,1.05939165 2.56649371,1.75739165 2.48349371,3.10439165 C2.07349371,2.66239165 1.50949371,2.23339165 0.859493713,2.23339165 C0.692493713,2.23339165 0.538493713,2.31639165 0.444493713,2.45339165 C0.352493713,2.59039165 0.333493713,2.76539165 0.395493713,2.91939165 C0.578493713,3.38239165 0.946493713,4.75239165 0.468493713,5.48239165 C0.452493713,5.50239165 0.411493713,5.56739165 0.399493713,5.59039165 C-0.234506287,6.69539165 -0.218506287,8.02639165 0.441493713,9.06239165 C1.21549371,10.2803916 2.53949371,11.0073916 3.98249371,11.0073916 L4.16549371,11.0083916 C4.43049371,11.0103916 4.64949371,11.0113916 4.82849371,11.0113916 C4.89649371,11.0113916 4.94849371,11.0103916 5.00549371,11.0103916 L5.00549371,12.4983916 C5.00549371,12.7743916 5.22949371,12.9983916 5.50549371,12.9983916 L6.00549371,12.9983916 L6.00549371,15.4983916 C6.00549371,15.7743916 6.22949371,15.9983916 6.50549371,15.9983916 L11.5054937,15.9983916 C11.7814937,15.9983916 12.0054937,15.7743916 12.0054937,15.4983916 L12.0054937,12.9983916 L15.5054937,12.9983916 C15.7814937,12.9983916 16.0054937,12.7743916 16.0054937,12.4983916 L16.0054937,9.49839165 C16.0054937,9.22239165 15.7814937,8.99839165 15.5054937,8.99839165 L15.5054937,8.99839165 Z" id="Fill-7"></path>
        </g>
    </g>
</svg>