<?xml version="1.0" encoding="UTF-8"?>
<svg width="24px" height="24px" viewBox="0 0 24 24" version="1.1" xmlns="http://www.w3.org/2000/svg" xmlns:xlink="http://www.w3.org/1999/xlink">
    <!-- Generator: Sketch 64 (93537) - https://sketch.com -->
    <title>Icon-Architecture/16/Arch_AWS-Secrets-Manager_16</title>
    <desc>Created with Sketch.</desc>
    <defs>
        <linearGradient x1="0%" y1="100%" x2="100%" y2="0%" id="linearGradient-1">
            <stop stop-color="#BD0816" offset="0%"></stop>
            <stop stop-color="#FF5252" offset="100%"></stop>
        </linearGradient>
    </defs>
    <g id="Icon-Architecture/16/Arch_AWS-Secrets-Manager_16" stroke="none" stroke-width="1" fill="none" fill-rule="evenodd">
        <g id="Icon-Architecture-BG/16/Security-Identity-Compliance" fill="url(#linearGradient-1)">
            <rect id="Rectangle" x="0" y="0" width="24" height="24"></rect>
        </g>
        <path d="M10.938,15.099 L14.055,15.099 L14.055,12.967 L10.938,12.967 L10.938,15.099 Z M11.514,11.967 L13.486,11.967 C13.426,10.908 13.142,10.5 12.514,10.5 C11.867,10.5 11.577,10.908 11.514,11.967 L11.514,11.967 Z M14.555,11.967 C14.831,11.967 15.055,12.19 15.055,12.467 L15.055,15.599 C15.055,15.875 14.831,16.099 14.555,16.099 L10.437,16.099 C10.161,16.099 9.937,15.875 9.937,15.599 L9.937,12.467 C9.937,12.19 10.161,11.967 10.437,11.967 L10.514,11.967 C10.563,11.023 10.846,9.5 12.514,9.5 C14.159,9.5 14.438,11.023 14.486,11.967 L14.555,11.967 Z M7.019,16.41 L7.829,15.824 C7.219,14.98 6.874,13.999 6.786,12.967 L8,12.967 L8,11.967 L6.787,11.967 C6.878,10.942 7.223,9.967 7.829,9.128 L7.019,8.542 C6.288,9.553 5.88,10.73 5.787,11.967 L5,11.967 L5,12.967 L5.786,12.967 C5.876,14.211 6.284,15.395 7.019,16.41 L7.019,16.41 Z M15.814,17.114 C14.975,17.722 13.98,18.052 12.967,18.138 L12.967,17 L11.967,17 L11.967,18.138 C10.952,18.052 9.958,17.722 9.119,17.114 L8.533,17.924 C9.545,18.657 10.727,19.065 11.967,19.156 L11.967,20 L12.967,20 L12.967,19.156 C14.207,19.065 15.388,18.657 16.4,17.924 L15.814,17.114 Z M9.119,7.838 C9.958,7.231 10.952,6.9 11.967,6.815 L11.967,8 L12.967,8 L12.967,6.815 C13.98,6.901 14.975,7.231 15.814,7.839 L16.4,7.028 C15.39,6.297 14.188,5.907 12.967,5.819 L12.967,5 L11.967,5 L11.967,5.819 C10.744,5.907 9.543,6.297 8.533,7.029 L9.119,7.838 Z M19.146,11.967 C19.053,10.729 18.645,9.551 17.914,8.542 L17.104,9.129 C17.71,9.967 18.055,10.941 18.146,11.967 L17,11.967 L17,12.967 L18.146,12.967 C18.059,14 17.714,14.981 17.104,15.823 L17.914,16.41 C18.648,15.396 19.057,14.212 19.146,12.967 L20,12.967 L20,11.967 L19.146,11.967 Z M16.777,8.873 L18.756,6.894 L18.049,6.187 L16.07,8.166 L16.777,8.873 Z M8.155,16.08 L6.177,18.059 L6.884,18.766 L8.862,16.787 L8.155,16.08 Z M10.498,9.801 L6.356,5.66 L5.649,6.367 L9.791,10.508 L10.498,9.801 Z M16.224,15.517 L19.604,18.897 L18.896,19.604 L15.517,16.224 L16.224,15.517 Z" id="AWS-Secrets-Manager_Icon_16_Squid" fill="#FFFFFF"></path>
    </g>
</svg>