<?xml version="1.0" encoding="UTF-8"?>
<svg width="24px" height="24px" viewBox="0 0 24 24" version="1.1" xmlns="http://www.w3.org/2000/svg" xmlns:xlink="http://www.w3.org/1999/xlink">
    <!-- Generator: Sketch 64 (93537) - https://sketch.com -->
    <title>Icon-Architecture/16/Arch_Amazon-Detective_16</title>
    <desc>Created with Sketch.</desc>
    <defs>
        <linearGradient x1="0%" y1="100%" x2="100%" y2="0%" id="linearGradient-1">
            <stop stop-color="#BD0816" offset="0%"></stop>
            <stop stop-color="#FF5252" offset="100%"></stop>
        </linearGradient>
    </defs>
    <g id="Icon-Architecture/16/Arch_Amazon-Detective_16" stroke="none" stroke-width="1" fill="none" fill-rule="evenodd">
        <g id="Icon-Architecture-BG/16/Security-Identity-Compliance" fill="url(#linearGradient-1)">
            <rect id="Rectangle" x="0" y="0" width="24" height="24"></rect>
        </g>
        <path d="M8.409,8.27786176 C8.782,8.41286176 9.19,8.57786176 9.622,8.75186176 C10.688,9.18186176 11.897,9.66986176 12.557,9.66986176 C13.248,9.66986176 14.428,9.17686176 15.469,8.74286176 C15.871,8.57486176 16.252,8.41586176 16.602,8.28386176 L16,7.98786176 L9,7.98786176 L8.409,8.27786176 Z M9.797,6.98786176 L15.218,6.98786176 L14.176,4.96786176 L13.071,5.67986176 C12.755,5.87086176 12.36,5.86986176 12.044,5.68086176 L10.918,5.00486176 C10.908,4.99886176 10.887,4.99686176 10.865,5.00186176 L9.797,6.98786176 Z M15.316,9.88586176 C14.309,10.2988618 13.313,10.6698618 12.557,10.6698618 C11.803,10.6698618 10.74,10.2748618 9.67,9.84686176 C10.154,11.2498618 11.578,13.1348618 12.49,13.1348618 C13.399,13.1348618 14.815,11.2848618 15.316,9.88586176 L15.316,9.88586176 Z M6.513,8.55386176 C6.46,8.32886176 6.566,8.09586176 6.772,7.99086176 L8.634,7.04086176 L10.054,4.39886176 C10.082,4.34686176 10.119,4.29986176 10.163,4.26086176 C10.45,4.00786176 10.989,3.88286176 11.432,4.14686176 L12.557,4.82286176 L13.683,4.14686176 C14.144,3.86986176 14.757,4.01586176 15.044,4.47386176 L16.37,7.04286176 L18.227,7.99086176 C18.433,8.09586176 18.54,8.32886176 18.486,8.55386176 C18.431,8.77786176 18.231,8.93686176 18,8.93686176 C17.697,8.93686176 17.09,9.15886176 16.457,9.41586176 C16.165,11.0908618 14.251,14.1348618 12.49,14.1348618 C10.82,14.1348618 8.807,11.1718618 8.534,9.39486176 C7.897,9.14786176 7.297,8.93686176 7,8.93686176 C6.768,8.93686176 6.568,8.77786176 6.513,8.55386176 L6.513,8.55386176 Z M18.055,14.6438618 L18.355,14.3398618 C18.469,14.2258618 18.519,14.0648618 18.493,13.9068618 C18.467,13.7488618 18.367,13.6128618 18.223,13.5408618 L16.223,12.5408618 L15.776,13.4358618 L17.16,14.1278618 L15.14,16.1718618 C15.04,16.2738618 14.987,16.4138618 14.997,16.5568618 C15.007,16.6998618 15.078,16.8318618 15.191,16.9198618 L16.275,17.7518618 L14.912,19.3248618 L15.668,19.9788618 L17.378,18.0048618 C17.468,17.9008618 17.512,17.7638618 17.497,17.6278618 C17.483,17.4898618 17.414,17.3648618 17.305,17.2808618 L16.25,16.4708618 L17.212,15.4978618 C18.745,15.6078618 18.996,16.8908618 18.996,17.6778618 L18.996,19.9878618 L19.996,19.9878618 L19.996,17.6778618 C19.996,16.4098618 19.455,15.0868618 18.055,14.6438618 L18.055,14.6438618 Z M9,14.9878618 C9,13.8848618 8.102,12.9878618 7,12.9878618 C5.897,12.9878618 5,13.8848618 5,14.9878618 C5,16.0908618 5.897,16.9878618 7,16.9878618 C8.102,16.9878618 9,16.0908618 9,14.9878618 L9,14.9878618 Z M9.44,16.7208618 L11.353,18.6348618 L10.646,19.3418618 L8.733,17.4278618 C8.242,17.7778618 7.646,17.9878618 7,17.9878618 C5.346,17.9878618 4,16.6428618 4,14.9878618 C4,13.3338618 5.346,11.9878618 7,11.9878618 C8.654,11.9878618 10,13.3338618 10,14.9878618 C10,15.6348618 9.789,16.2308618 9.44,16.7208618 L9.44,16.7208618 Z M13.638,14.6508618 L14.361,15.3418618 L12.84,16.9308618 C12.745,17.0298618 12.615,17.0858618 12.478,17.0858618 L12.474,17.0858618 C12.337,17.0848618 12.206,17.0268618 12.112,16.9258618 L10.634,15.3368618 L11.366,14.6558618 L12.483,15.8568618 L13.638,14.6508618 Z" id="Amazon-Detective_Icon_16_Squid" fill="#FFFFFF"></path>
    </g>
</svg>