<?xml version="1.0" encoding="UTF-8"?>
<svg width="24px" height="24px" viewBox="0 0 24 24" version="1.1" xmlns="http://www.w3.org/2000/svg" xmlns:xlink="http://www.w3.org/1999/xlink">
    <!-- Generator: Sketch 64 (93537) - https://sketch.com -->
    <title>Icon-Architecture/16/Arch_AWS-Firewall-Manager_16</title>
    <desc>Created with Sketch.</desc>
    <defs>
        <linearGradient x1="0%" y1="100%" x2="100%" y2="0%" id="linearGradient-1">
            <stop stop-color="#BD0816" offset="0%"></stop>
            <stop stop-color="#FF5252" offset="100%"></stop>
        </linearGradient>
    </defs>
    <g id="Icon-Architecture/16/Arch_AWS-Firewall-Manager_16" stroke="none" stroke-width="1" fill="none" fill-rule="evenodd">
        <g id="Icon-Architecture-BG/16/Security-Identity-Compliance" fill="url(#linearGradient-1)">
            <rect id="Rectangle" x="0" y="0" width="24" height="24"></rect>
        </g>
        <path d="M6,12.5 C6,14.211 6.659,15.827 7.857,17.049 L7.143,17.749 C5.761,16.339 5,14.475 5,12.5 C5,11.374 5.243,10.292 5.723,9.285 L6.625,9.715 C6.21,10.587 6,11.524 6,12.5 L6,12.5 Z M8.786,7.165 L8.214,6.345 C9.475,5.465 10.957,5 12.5,5 C14.532,5 16.435,5.8 17.857,7.251 L17.143,7.952 C15.91,6.693 14.261,6 12.5,6 C11.163,6 9.879,6.403 8.786,7.165 L8.786,7.165 Z M20,12.5 C20,14.475 19.239,16.339 17.857,17.749 L17.143,17.049 C18.341,15.827 19,14.211 19,12.5 L20,12.5 Z M15.46,16.765 C15.019,18.468 12.734,18.833 12.295,18.889 C11.609,18.634 10.954,18.304 10.482,17.975 C9.576,17.345 9.287,16.108 9.84,15.133 L9.9,15.036 C10.36,14.315 10.352,13.393 10.238,12.675 C10.499,12.95 10.726,13.287 10.843,13.503 C10.937,13.677 11.135,13.777 11.322,13.764 C11.52,13.749 11.689,13.619 11.755,13.432 C12.096,12.463 12.086,11.655 11.933,11.017 C13.01,11.819 14.208,13.147 13.916,14.966 C13.884,15.17 13.98,15.374 14.159,15.478 C14.339,15.582 14.563,15.564 14.724,15.435 C14.785,15.386 15.194,15.034 15.475,14.242 C15.671,14.731 15.78,15.526 15.46,16.765 L15.46,16.765 Z M15.452,12.677 C15.304,12.596 15.128,12.594 14.979,12.672 C14.85,12.741 14.757,12.863 14.725,13.004 C13.863,10.53 10.945,9.259 10.791,9.194 C10.564,9.096 10.302,9.183 10.172,9.392 C10.042,9.602 10.087,9.876 10.274,10.037 C10.315,10.072 11.092,10.754 11.026,12.054 C10.633,11.624 10.096,11.217 9.479,11.217 C9.313,11.217 9.16,11.299 9.066,11.435 C8.974,11.57 8.953,11.744 9.012,11.897 C9.19,12.361 9.546,13.731 9.059,14.496 L8.955,14.666 C8.165,16.06 8.585,17.874 9.911,18.795 C10.478,19.19 11.23,19.567 12.035,19.858 C12.096,19.884 12.162,19.897 12.229,19.897 C12.244,19.897 12.26,19.896 12.274,19.895 C12.632,19.863 15.782,19.507 16.429,17.015 C17.278,13.72 15.527,12.718 15.452,12.677 L15.452,12.677 Z" id="AWS-Firewall-Manager_Icon_16_Squid" fill="#FFFFFF"></path>
    </g>
</svg>