<?xml version="1.0" encoding="UTF-8"?>
<svg width="24px" height="24px" viewBox="0 0 24 24" version="1.1" xmlns="http://www.w3.org/2000/svg" xmlns:xlink="http://www.w3.org/1999/xlink">
    <!-- Generator: Sketch 64 (93537) - https://sketch.com -->
    <title>Icon-Architecture/16/Arch_AWS-CloudHSM_16</title>
    <desc>Created with Sketch.</desc>
    <defs>
        <linearGradient x1="0%" y1="100%" x2="100%" y2="0%" id="linearGradient-1">
            <stop stop-color="#BD0816" offset="0%"></stop>
            <stop stop-color="#FF5252" offset="100%"></stop>
        </linearGradient>
    </defs>
    <g id="Icon-Architecture/16/Arch_AWS-CloudHSM_16" stroke="none" stroke-width="1" fill="none" fill-rule="evenodd">
        <g id="Icon-Architecture-BG/16/Security-Identity-Compliance" fill="url(#linearGradient-1)">
            <rect id="Rectangle" x="0" y="0" width="24" height="24"></rect>
        </g>
        <path d="M15.7477853,16.8434953 C16.3555237,16.8434953 16.8508989,16.3485491 16.8508989,15.7391588 C16.8508989,15.1307467 16.3555237,14.6348223 15.7477853,14.6348223 C15.1400469,14.6348223 14.6446717,15.1307467 14.6446717,15.7391588 C14.6446717,16.3485491 15.1400469,16.8434953 15.7477853,16.8434953 L15.7477853,16.8434953 Z M19.3121417,20 L18.6750912,19.3690903 L18.0478114,19.9980437 L17.3560448,19.3064884 L17.9813705,18.6804695 L16.8098619,17.5194001 C16.4981761,17.7072057 16.1366597,17.8216498 15.7477853,17.8216498 C14.6007035,17.8216498 13.6676003,16.8875122 13.6676003,15.7391588 C13.6676003,14.5908053 14.6007035,13.6566678 15.7477853,13.6566678 C16.8948671,13.6566678 17.8279703,14.5908053 17.8279703,15.7391588 C17.8279703,16.1431366 17.7077905,16.5167917 17.508468,16.83567 L20,19.3045321 L19.3121417,20 Z M13.088197,11.3403978 C13.088197,10.3280078 12.4609171,9.69905445 11.4496483,9.69905445 C10.4383794,9.69905445 9.81109953,10.3280078 9.81109953,11.3403978 C9.81109953,12.3518096 10.4383794,12.980763 11.4496483,12.980763 C12.4609171,12.980763 13.088197,12.3518096 13.088197,11.3403978 L13.088197,11.3403978 Z M14.0222772,11.8294751 C13.8170922,13.1030323 12.8195023,13.9589175 11.4496483,13.9589175 C9.90880667,13.9589175 8.83402814,12.8819694 8.83402814,11.3403978 C8.83402814,9.79784806 9.90880667,8.7208999 11.4496483,8.7208999 C12.8195023,8.7208999 13.8170922,9.57678513 14.0222772,10.8513205 L16.7248567,10.8513205 L16.7248567,11.8294751 L14.0222772,11.8294751 Z M6.97173007,16.7016629 L12.8165711,16.7016629 L12.8165711,17.6798174 L6.95414278,17.6798174 C6.52618551,17.6798174 5.99465868,17.6798174 5.99465868,16.9246821 L5.99465868,14.2895337 L5,14.2895337 L5,12.3332246 L5.99465868,12.3332246 L5.99465868,9.30583632 L5,9.30583632 L5,7.34952723 L5.99465868,7.34952723 L5.99465868,5.75611347 C5.99465868,5 6.52618551,5 6.95414278,5 L17.7019281,5 C18.1572434,5 18.6731371,5 18.6731371,5.75611347 L18.6731371,12.8046951 L17.6960657,12.8046951 L17.6960657,5.97815455 L6.97270714,5.97815455 L6.97173007,16.7016629 Z" id="AWS-CloudHSM_Icon_16_Squid" fill="#FFFFFF"></path>
    </g>
</svg>