<?xml version="1.0" encoding="UTF-8"?>
<svg width="24px" height="24px" viewBox="0 0 24 24" version="1.1" xmlns="http://www.w3.org/2000/svg" xmlns:xlink="http://www.w3.org/1999/xlink">
    <title>Icon-Architecture/16/Arch_AWS-WAF_16</title>
    <defs>
        <linearGradient x1="0%" y1="100%" x2="100%" y2="0%" id="linearGradient-1">
            <stop stop-color="#BD0816" offset="0%"></stop>
            <stop stop-color="#FF5252" offset="100%"></stop>
        </linearGradient>
    </defs>
    <g id="Icon-Architecture/16/Arch_AWS-WAF_16" stroke="none" stroke-width="1" fill="none" fill-rule="evenodd">
        <g id="Rectangle" fill="url(#linearGradient-1)">
            <rect x="0" y="0" width="24" height="24"></rect>
        </g>
        <g id="Icon-Service/16/AWS-WAF_16" transform="translate(5.000000, 5.000000)" fill="#FFFFFF">
            <path d="M0.789,8 L0,8 L0,7 L0.785,7 C0.872,5.751 1.281,4.562 2.018,3.542 L2.829,4.128 C2.216,4.976 1.87,5.963 1.785,7 L3,7 L3,8 L1.789,8 C1.881,9.02 2.226,9.989 2.829,10.824 L2.018,11.41 C1.291,10.404 0.884,9.232 0.789,8 L0.789,8 Z M11.4,12.924 C10.396,13.65 9.227,14.057 8,14.153 L8,15 L7,15 L7,14.159 C5.747,14.073 4.555,13.663 3.533,12.924 L4.119,12.114 C4.967,12.729 5.974,13.06 7,13.141 L7,12 L8,12 L8,13.135 C9.003,13.045 9.984,12.715 10.814,12.114 L11.4,12.924 Z M3.533,2.029 C4.552,1.291 5.766,0.899 7,0.816 L7,2.27373675e-13 L8,2.27373675e-13 L8,0.822 C9.211,0.915 10.398,1.304 11.4,2.028 L10.814,2.839 C9.984,2.238 9.003,1.908 8,1.817 L8,3 L7,3 L7,1.813 C5.974,1.894 4.967,2.225 4.119,2.838 L3.533,2.029 Z M15,7 L15,8 L14.144,8 C14.049,9.233 13.642,10.405 12.914,11.41 L12.103,10.823 C12.707,9.99 13.052,9.021 13.144,8 L12,8 L12,7 L13.147,7 C13.062,5.962 12.717,4.976 12.103,4.129 L12.914,3.542 C13.651,4.561 14.06,5.75 14.147,7 L15,7 Z M11.07,3.166 L13.049,1.187 L13.756,1.894 L11.777,3.873 L11.07,3.166 Z M3.862,11.787 L1.884,13.766 L1.177,13.059 L3.155,11.08 L3.862,11.787 Z M4.074,4.782 L0.329,1.037 L1.036,0.33 L4.781,4.075 L4.074,4.782 Z M11.224,10.517 L14.603,13.897 L13.896,14.604 L10.517,11.224 L11.224,10.517 Z M5.694,7.733 C5.695,7.732 5.747,7.646 5.748,7.645 C6.033,7.197 6.097,6.665 6.07,6.187 C6.141,6.286 6.204,6.386 6.253,6.477 C6.347,6.65 6.544,6.753 6.732,6.738 C6.93,6.722 7.1,6.592 7.165,6.406 C7.353,5.87 7.405,5.396 7.377,4.986 C7.636,5.625 7.547,6.474 7.136,7.231 C6.591,8.233 6.567,9.272 6.658,10.012 C6.477,9.917 6.31,9.815 6.157,9.708 C5.52,9.265 5.317,8.397 5.694,7.733 L5.694,7.733 Z M8.761,7.995 C8.938,8.098 9.162,8.082 9.325,7.952 C9.365,7.92 9.592,7.726 9.797,7.314 C9.865,7.665 9.865,8.157 9.689,8.835 C9.438,9.805 8.334,10.166 7.725,10.294 C7.603,9.741 7.482,8.687 8.015,7.708 C8.278,7.223 8.424,6.713 8.483,6.212 C8.564,6.572 8.598,6.984 8.518,7.483 C8.485,7.688 8.582,7.891 8.761,7.995 L8.761,7.995 Z M4.825,7.239 C4.195,8.348 4.529,9.793 5.585,10.529 C6.034,10.842 6.574,11.112 7.191,11.332 C7.246,11.352 7.303,11.361 7.358,11.361 C7.37,11.361 7.381,11.355 7.393,11.354 L7.393,11.36 C7.505,11.351 10.131,11.123 10.658,9.085 C11.325,6.5 9.921,5.695 9.86,5.662 C9.714,5.581 9.536,5.58 9.388,5.658 C9.386,5.659 9.383,5.661 9.38,5.662 C8.993,4.481 8.101,3.798 7.472,3.525 C7.132,3.269 6.724,3.09 6.26,3.008 C6.032,2.966 5.818,3.084 5.723,3.287 C5.626,3.49 5.679,3.735 5.85,3.882 C5.875,3.904 6.307,4.288 6.372,5.021 C6.085,4.767 5.73,4.565 5.326,4.565 C5.161,4.565 5.007,4.647 4.913,4.783 C4.82,4.919 4.801,5.093 4.86,5.247 C4.981,5.558 5.249,6.567 4.905,7.107 L4.825,7.239 Z" id="AWS-WAF_Icon_16_Squid"></path>
        </g>
    </g>
</svg>