<?xml version="1.0" encoding="UTF-8"?>
<svg width="24px" height="24px" viewBox="0 0 24 24" version="1.1" xmlns="http://www.w3.org/2000/svg" xmlns:xlink="http://www.w3.org/1999/xlink">
    <!-- Generator: Sketch 64 (93537) - https://sketch.com -->
    <title>Icon-Architecture/16/Arch_Amazon-Inspector_16</title>
    <desc>Created with Sketch.</desc>
    <defs>
        <linearGradient x1="0%" y1="100%" x2="100%" y2="0%" id="linearGradient-1">
            <stop stop-color="#BD0816" offset="0%"></stop>
            <stop stop-color="#FF5252" offset="100%"></stop>
        </linearGradient>
    </defs>
    <g id="Icon-Architecture/16/Arch_Amazon-Inspector_16" stroke="none" stroke-width="1" fill="none" fill-rule="evenodd">
        <g id="Icon-Architecture-BG/16/Security-Identity-Compliance" fill="url(#linearGradient-1)">
            <rect id="Rectangle" x="0" y="0" width="24" height="24"></rect>
        </g>
        <path d="M18.8023049,18.7652192 C18.5520268,19.0381494 18.1232718,19.0614854 17.8442733,18.8149351 L14.4911631,15.822849 C14.8265767,15.5225244 15.1291669,15.1897321 15.3927794,14.825487 L18.7520441,17.8185877 C19.0289911,18.0661526 19.0505314,18.4912744 18.8023049,18.7652192 M10.7769959,9.12642045 C10.332855,9.12642045 9.97179813,8.76826299 9.97179813,8.3299513 C9.97179813,7.890625 10.332855,7.53348214 10.7769959,7.53348214 C11.2201111,7.53348214 11.5821937,7.890625 11.5821937,8.3299513 C11.5821937,8.76826299 11.2201111,9.12642045 10.7769959,9.12642045 M10.1174517,11.8222403 C10.924701,11.8222403 11.5821937,12.4715909 11.5821937,13.2700893 C11.5821937,14.0685877 10.924701,14.7179383 10.1174517,14.7179383 C9.3102025,14.7179383 8.65373551,14.0685877 8.65373551,13.2700893 C8.65373551,12.4715909 9.3102025,11.8222403 10.1174517,11.8222403 M5.02572967,11.2175325 C5.02572967,8.34821429 7.38490791,6.01461039 10.2846457,6.01461039 C13.1843835,6.01461039 15.5435617,8.34821429 15.5435617,11.2175325 C15.5435617,11.9287744 15.3979081,12.6065341 15.1342956,13.2254464 L12.5658685,12.8551136 C12.4345751,12.0971997 11.9514564,11.4640828 11.2898608,11.1109984 L11.2898608,10.0588474 C12.0489007,9.83867695 12.6079234,9.1507711 12.6079234,8.3299513 C12.6079234,7.33157468 11.7863139,6.51887175 10.7769959,6.51887175 C9.7666522,6.51887175 8.94606847,7.33157468 8.94606847,8.3299513 C8.94606847,9.1507711 9.50509114,9.83867695 10.2641311,10.0588474 L10.2641311,10.8218344 C10.2148961,10.8198052 10.1677125,10.8076299 10.1174517,10.8076299 C9.39738952,10.8076299 8.75220556,11.117086 8.29780731,11.6030844 L7.7059613,11.0115666 C7.95111069,10.6351461 8.0967643,10.1897321 8.0967643,9.70880682 C8.0967643,8.88291396 7.67724086,8.12195617 6.97461604,7.6755276 L6.41969629,8.52881494 C6.8279367,8.78855519 7.07103463,9.22991071 7.07103463,9.70880682 C7.07103463,10.4829545 6.43405651,11.1130276 5.6524505,11.1130276 L5.6524505,12.127638 C6.14274928,12.127638 6.60022471,11.9805195 6.98282188,11.7329545 L7.7613507,12.5101461 C7.68236951,12.7516234 7.62800584,13.0032468 7.62800584,13.2700893 C7.62800584,14.627638 8.74502545,15.7325487 10.1174517,15.7325487 C11.2796035,15.7325487 12.248918,14.9391234 12.5238136,13.8737825 L14.6029676,14.1730925 C13.6521162,15.5275974 12.0735182,16.4184253 10.2846457,16.4184253 C7.38490791,16.4184253 5.02572967,14.085836 5.02572967,11.2175325 M19.439283,17.0647321 L15.9271846,13.9366883 C16.3343993,13.1138393 16.5692914,12.1925731 16.5692914,11.2175325 C16.5692914,7.78916396 13.7495605,5 10.2846457,5 C6.81973086,5 4,7.78916396 4,11.2175325 C4,14.6448864 6.81973086,17.4340503 10.2846457,17.4340503 C11.5288558,17.4340503 12.6858788,17.0698052 13.6633992,16.4498782 L17.1580602,19.5687906 C17.4832165,19.8579545 17.8904312,20 18.2966201,20 C18.7633271,20 19.2279827,19.8122971 19.564422,19.4439935 C20.1911428,18.7540584 20.1347277,17.6866883 19.439283,17.0647321" id="Amazon-Inspector_Icon_16_Squid" fill="#FFFFFF"></path>
    </g>
</svg>