<?xml version="1.0" encoding="UTF-8"?>
<svg width="24px" height="24px" viewBox="0 0 24 24" version="1.1" xmlns="http://www.w3.org/2000/svg" xmlns:xlink="http://www.w3.org/1999/xlink">
    <!-- Generator: Sketch 64 (93537) - https://sketch.com -->
    <title>Icon-Architecture/16/Arch_AWS-Resources-Access-Manager_16</title>
    <desc>Created with Sketch.</desc>
    <defs>
        <linearGradient x1="0%" y1="100%" x2="100%" y2="0%" id="linearGradient-1">
            <stop stop-color="#BD0816" offset="0%"></stop>
            <stop stop-color="#FF5252" offset="100%"></stop>
        </linearGradient>
    </defs>
    <g id="Icon-Architecture/16/Arch_AWS-Resources-Access-Manager_16" stroke="none" stroke-width="1" fill="none" fill-rule="evenodd">
        <g id="Icon-Architecture-BG/16/Security-Identity-Compliance" fill="url(#linearGradient-1)">
            <rect id="Rectangle" x="0" y="0" width="24" height="24"></rect>
        </g>
        <path d="M11.116,17.558 C11.116,16.946 10.618,16.448 10.006,16.448 C9.393,16.448 8.895,16.946 8.895,17.558 C8.895,18.17 9.393,18.668 10.006,18.668 C10.618,18.668 11.116,18.17 11.116,17.558 L11.116,17.558 Z M12.05,17.058 L15.974,17.058 L15.974,18.058 L14.973,18.058 L14.973,19.006 L13.973,19.006 L13.973,18.058 L12.05,18.058 C11.824,18.98 10.997,19.668 10.006,19.668 C8.842,19.668 7.895,18.722 7.895,17.558 C7.895,16.394 8.842,15.448 10.006,15.448 C10.997,15.448 11.824,16.136 12.05,17.058 L12.05,17.058 Z M14.156,8.012 L15.532,9.318 L16.976,8.02 L15.499,6.697 L14.156,8.012 Z M15.179,10.362 L13.092,8.38 C12.993,8.287 12.936,8.157 12.9349864,8.021 C12.934,7.886 12.988,7.755 13.086,7.66 L15.135,5.654 C15.322,5.471 15.62,5.464 15.818,5.639 L18.058,7.647 C18.164,7.742 18.224,7.877 18.224,8.019 C18.224,8.161 18.164,8.296 18.058,8.391 L15.857,10.371 C15.762,10.456 15.642,10.499 15.523,10.499 C15.399,10.499 15.275,10.453 15.179,10.362 L15.179,10.362 Z M9.577,9 L8.444,7.277 L7.378,9 L9.577,9 Z M10.504,10 L6.48,10 C6.299,10 6.132,9.902 6.044,9.744 C5.955,9.585 5.96,9.391 6.055,9.237 L8.007,6.084 C8.096,5.939 8.254,5.85 8.425,5.847 C8.614,5.868 8.756,5.93 8.849,6.073 L10.922,9.226 C11.022,9.379 11.031,9.576 10.944,9.738 C10.856,9.899 10.687,10 10.504,10 L10.504,10 Z M8.506,13.989 C9.057,13.989 9.506,13.54 9.506,12.989 C9.506,12.437 9.057,11.989 8.506,11.989 C7.954,11.989 7.506,12.437 7.506,12.989 C7.506,13.54 7.954,13.989 8.506,13.989 L8.506,13.989 Z M8.506,14.989 C7.403,14.989 6.506,14.092 6.506,12.989 C6.506,11.886 7.403,10.989 8.506,10.989 C9.608,10.989 10.506,11.886 10.506,12.989 C10.506,14.092 9.608,14.989 8.506,14.989 L8.506,14.989 Z M14.974,14.008 L16.974,14.008 L16.974,11.97 L14.974,11.97 L14.974,14.008 Z M17.974,11.47 L17.974,14.508 C17.974,14.784 17.751,15.008 17.474,15.008 L14.474,15.008 C14.198,15.008 13.974,14.784 13.974,14.508 L13.974,11.47 C13.974,11.193 14.198,10.97 14.474,10.97 L17.474,10.97 C17.751,10.97 17.974,11.193 17.974,11.47 L17.974,11.47 Z M20.012,4.5 L20.012,18.439 C20.012,18.716 19.788,18.939 19.512,18.939 L18.006,18.939 L18.006,17.939 L19.012,17.939 L19.012,5 L5,5 L5,17.939 L6.006,17.939 L6.006,18.939 L4.5,18.939 C4.223,18.939 4,18.716 4,18.439 L4,4.5 C4,4.224 4.223,4 4.5,4 L19.512,4 C19.788,4 20.012,4.224 20.012,4.5 L20.012,4.5 Z" id="AWS-Resources-Access-Manager_Icon_16_Squid" fill="#FFFFFF"></path>
    </g>
</svg>