<?xml version="1.0" encoding="UTF-8"?>
<svg width="24px" height="24px" viewBox="0 0 24 24" version="1.1" xmlns="http://www.w3.org/2000/svg" xmlns:xlink="http://www.w3.org/1999/xlink">
    <!-- Generator: Sketch 64 (93537) - https://sketch.com -->
    <title>Icon-Architecture/16/Arch_AWS-Single-Sign-On_16</title>
    <desc>Created with Sketch.</desc>
    <defs>
        <linearGradient x1="0%" y1="100%" x2="100%" y2="0%" id="linearGradient-1">
            <stop stop-color="#BD0816" offset="0%"></stop>
            <stop stop-color="#FF5252" offset="100%"></stop>
        </linearGradient>
    </defs>
    <g id="Icon-Architecture/16/Arch_AWS-Single-Sign-On_16" stroke="none" stroke-width="1" fill="none" fill-rule="evenodd">
        <g id="Icon-Architecture-BG/16/Security-Identity-Compliance" fill="url(#linearGradient-1)">
            <rect id="Rectangle" x="0" y="0" width="24" height="24"></rect>
        </g>
        <path d="M13.694,14.8194562 C14.376,14.1374562 14.376,13.0294562 13.694,12.3474562 C13.353,12.0074562 12.906,11.8374562 12.459,11.8374562 C12.01,11.8374562 11.563,12.0074562 11.222,12.3474562 C10.542,13.0284562 10.542,14.1384562 11.222,14.8194562 C11.905,15.5014562 13.013,15.4994562 13.694,14.8194562 M14.718,15.1374562 L18.703,19.1204562 L17.996,19.8274562 L16.868,18.6994562 L15.793,19.7754562 L15.086,19.0684562 L16.161,17.9924562 L14.011,15.8444562 C13.545,16.1654562 13.003,16.3294562 12.458,16.3294562 C11.755,16.3294562 11.051,16.0624562 10.515,15.5264562 C9.445,14.4554562 9.445,12.7124562 10.515,11.6404562 C11.586,10.5714562 13.329,10.5694562 14.401,11.6404562 C15.351,12.5904562 15.455,14.0674562 14.718,15.1374562 M20,12.1014562 C20,14.1684562 18.505,15.0934562 17.023,15.0934562 L17.023,14.0934562 C17.487,14.0934562 19,13.9494562 19,12.1014562 C19,11.0044562 18.353,10.3894562 16.905,10.1084562 C16.68,10.0654562 16.514,9.87545615 16.501,9.64845615 C16.446,8.74445615 15.987,8.11245615 15.384,8.11245615 C15.084,8.11245615 14.854,8.24245615 14.616,8.54645615 C14.506,8.68845615 14.324,8.75945615 14.147,8.73245615 C13.968,8.70545615 13.818,8.58445615 13.755,8.41445615 C13.577,7.94345615 13.211,7.43345615 12.723,6.97745615 C12.231,6.50945615 10.883,5.50745615 8.972,6.27345615 C7.885,6.70545615 7.034,7.94945615 7.034,9.10745615 C7.034,9.23545615 7.043,9.36245615 7.058,9.48845615 C7.061,9.50945615 7.062,9.53045615 7.062,9.55145615 C7.062,9.79945615 6.882,10.0064562 6.645,10.0464562 C5.886,10.2394562 5,10.7454562 5,12.0554562 L5.005,12.2104562 C5.069,13.3254562 6.252,13.9954562 7.358,13.9984562 L8,13.9984562 L8,14.9984562 L7.357,14.9984562 C5.536,14.9944562 4.095,13.8194562 4.006,12.2644562 C4.003,12.1944562 4,12.1244562 4,12.0554562 C4,10.6944562 4.752,9.64845615 6.035,9.18845615 C6.034,9.16145615 6.034,9.13445615 6.034,9.10745615 C6.034,7.54345615 7.138,5.92545615 8.602,5.34345615 C10.298,4.66545615 12.095,5.00345615 13.409,6.24945615 C13.706,6.52745615 14.076,6.92645615 14.372,7.41345615 C14.673,7.21245615 15.008,7.11245615 15.384,7.11245615 C16.257,7.11245615 17.231,7.77145615 17.458,9.20745615 C19.145,9.63245615 20,10.6054562 20,12.1014562" id="AWS-Single-Sign-On_Icon_16_Squid" fill="#FFFFFF"></path>
    </g>
</svg>