<?xml version="1.0" encoding="UTF-8"?>
<svg width="24px" height="24px" viewBox="0 0 24 24" version="1.1" xmlns="http://www.w3.org/2000/svg" xmlns:xlink="http://www.w3.org/1999/xlink">
    <!-- Generator: Sketch 64 (93537) - https://sketch.com -->
    <title>Icon-Architecture/16/Arch_AWS-Shield_16</title>
    <desc>Created with Sketch.</desc>
    <defs>
        <linearGradient x1="0%" y1="100%" x2="100%" y2="0%" id="linearGradient-1">
            <stop stop-color="#BD0816" offset="0%"></stop>
            <stop stop-color="#FF5252" offset="100%"></stop>
        </linearGradient>
    </defs>
    <g id="Icon-Architecture/16/Arch_AWS-Shield_16" stroke="none" stroke-width="1" fill="none" fill-rule="evenodd">
        <g id="Icon-Architecture-BG/16/Security-Identity-Compliance" fill="url(#linearGradient-1)">
            <rect id="Rectangle" x="0" y="0" width="24" height="24"></rect>
        </g>
        <path d="M16.399321,16.516 C15.020321,16.516 13.899321,15.394 13.899321,14.016 C13.899321,12.638 15.020321,11.516 16.399321,11.516 C17.778321,11.516 18.899321,12.638 18.899321,14.016 C18.899321,15.394 17.778321,16.516 16.399321,16.516 L16.399321,16.516 Z M16.399321,10.516 C14.469321,10.516 12.899321,12.086 12.899321,14.016 C12.899321,15.946 14.469321,17.516 16.399321,17.516 C18.329321,17.516 19.899321,15.946 19.899321,14.016 C19.899321,12.086 18.329321,10.516 16.399321,10.516 L16.399321,10.516 Z M16.899321,13.516 L17.899321,13.516 L17.899321,14.516 L16.899321,14.516 L16.899321,15.516 L15.899321,15.516 L15.899321,14.516 L14.899321,14.516 L14.899321,13.516 L15.899321,13.516 L15.899321,12.516 L16.899321,12.516 L16.899321,13.516 Z M6.00232103,12.597 L6.00232103,6.998 L10.399321,5.239 L10.399321,17.993 C9.15532103,17.902 8.14332103,17.492 7.41532103,16.731 C5.90832103,15.156 6.00032103,12.645 6.00232103,12.597 L6.00232103,12.597 Z M13.482321,17.414 C12.894321,17.747 12.196321,17.944 11.399321,18.004 L11.399321,5.239 L15.796321,6.998 L15.796321,9.577 C15.996321,9.55 16.193321,9.516 16.399321,9.516 C16.535321,9.516 16.664321,9.544 16.796321,9.556 L16.796321,6.66 C16.796321,6.455 16.672321,6.271 16.482321,6.195 L11.085321,4.036 C10.965321,3.988 10.833321,3.988 10.713321,4.036 L5.31632103,6.195 C5.12632103,6.271 5.00232103,6.455 5.00232103,6.66 L5.00332103,12.574 C4.99732103,12.693 4.88432103,15.526 6.68732103,17.416 C7.70932103,18.488 9.12732103,19.032 10.899321,19.032 C12.239321,19.032 13.385321,18.717 14.305321,18.097 L14.175321,17.905 C13.928321,17.762 13.698321,17.599 13.482321,17.414 L13.482321,17.414 Z" id="AWS-Shield_Icon_16_Squid" fill="#FFFFFF"></path>
    </g>
</svg>