<?xml version="1.0" encoding="UTF-8"?>
<svg width="24px" height="24px" viewBox="0 0 24 24" version="1.1" xmlns="http://www.w3.org/2000/svg" xmlns:xlink="http://www.w3.org/1999/xlink">
    <!-- Generator: Sketch 64 (93537) - https://sketch.com -->
    <title>Icon-Architecture/16/Arch_Amazon-Macie_16</title>
    <desc>Created with Sketch.</desc>
    <defs>
        <linearGradient x1="0%" y1="100%" x2="100%" y2="0%" id="linearGradient-1">
            <stop stop-color="#BD0816" offset="0%"></stop>
            <stop stop-color="#FF5252" offset="100%"></stop>
        </linearGradient>
    </defs>
    <g id="Icon-Architecture/16/Arch_Amazon-Macie_16" stroke="none" stroke-width="1" fill="none" fill-rule="evenodd">
        <g id="Icon-Architecture-BG/16/Security-Identity-Compliance" fill="url(#linearGradient-1)">
            <rect id="Rectangle" x="0" y="0" width="24" height="24"></rect>
        </g>
        <path d="M16.6359044,12.85 C16.1366391,12.454 15.7147392,12.121 15.3557633,11.844 C15.6476891,11.238 15.966435,10.596 16.1820268,10.271 C16.8349916,10.949 18.2657375,13.253 18.780476,14.503 C18.1667097,14.064 17.2899007,13.369 16.6359044,12.85 M12.5406908,14.957 C12.3343828,14.772 11.9919115,14.339 11.6061155,13.813 C11.6092102,13.809 11.6112732,13.806 11.6143679,13.802 C12.1126017,13.088 12.9161713,11.937 13.2813364,11.605 C13.4577298,11.7 13.7414033,11.897 14.0766538,12.143 C13.60524,13.13 12.8707835,14.643 12.5406908,14.957 M9.71736587,14.683 C9.53890946,14.414 9.30784451,14.006 9.14795581,13.727 C8.57751421,12.723 8.3423231,12.306 7.90082399,12.291 C7.59858279,12.273 7.32419316,12.477 6.20187768,13.48 C6.055399,13.61 5.88313183,13.764 5.70467541,13.92 C6.37414485,12.678 7.36545475,10.994 7.8801932,10.253 C8.19893904,10.681 8.70026747,11.415 9.12526193,12.041 C9.60802263,12.749 10.0113548,13.335 10.353826,13.82 C10.1237926,14.146 9.89066458,14.466 9.71736587,14.683 M19.5768248,13.793 C19.5551625,13.746 17.2816484,9.137 16.1397337,9.137 C15.6126168,9.137 15.2629247,9.687 14.5202159,11.216 C13.851778,10.734 13.5175591,10.569 13.2586426,10.56 C13.2503902,10.56 13.2421379,10.56 13.2328541,10.56 C12.7304941,10.56 12.2900265,11.061 10.9768762,12.931 C10.623058,12.424 10.2723344,11.909 9.9865978,11.49 C8.41143628,9.178 8.275273,9.015 7.88947706,9.001 C7.88741398,9 7.8853509,9 7.88225628,9 C6.95387031,9 4.13879775,14.775 4.11507233,14.833 C4.03048605,15.043 3.87266044,15.434 4.18831167,15.697 C4.73605939,16.157 5.4127496,15.543 6.90023023,14.215 C7.18699834,13.959 7.54494271,13.639 7.7925123,13.439 C7.93177019,13.657 8.11022661,13.973 8.2443268,14.209 C8.89522852,15.354 9.20262743,15.862 9.68951429,15.875 C10.0402379,15.876 10.2702713,15.683 10.9871916,14.69 C11.7804458,15.74 12.1311694,16 12.4891138,16 L12.4973661,16 C13.2483272,15.992 13.8352734,15.007 14.9091065,12.778 C15.282524,13.068 15.6600676,13.367 15.9829396,13.623 C18.7206467,15.796 19.3210029,16.239 19.8068583,15.725 C20.1214779,15.393 20.0564909,14.851 19.5768248,13.793" id="Amazon-Macie-Icon_16_Squid" fill="#FFFFFF"></path>
    </g>
</svg>