<?xml version="1.0" encoding="UTF-8"?>
<svg width="24px" height="24px" viewBox="0 0 24 24" version="1.1" xmlns="http://www.w3.org/2000/svg" xmlns:xlink="http://www.w3.org/1999/xlink">
    <!-- Generator: Sketch 64 (93537) - https://sketch.com -->
    <title>Icon-Architecture/16/Arch_Amazon-Cognito_16</title>
    <desc>Created with Sketch.</desc>
    <defs>
        <linearGradient x1="0%" y1="100%" x2="100%" y2="0%" id="linearGradient-1">
            <stop stop-color="#BD0816" offset="0%"></stop>
            <stop stop-color="#FF5252" offset="100%"></stop>
        </linearGradient>
    </defs>
    <g id="Icon-Architecture/16/Arch_Amazon-Cognito_16" stroke="none" stroke-width="1" fill="none" fill-rule="evenodd">
        <g id="Icon-Architecture-BG/16/Security-Identity-Compliance" fill="url(#linearGradient-1)">
            <rect id="Rectangle" x="0" y="0" width="24" height="24"></rect>
        </g>
        <path d="M15.188,16.891 L13.938,15.891 L14.563,15.11 L15.387,15.769 L17.084,13.223 L17.917,13.778 L15.917,16.778 C15.838,16.894 15.715,16.973 15.578,16.995 C15.551,16.998 15.526,17 15.5,17 C15.388,17 15.278,16.962 15.188,16.891 L15.188,16.891 Z M6,12 L8,12 L8,11 L6,11 L6,12 Z M6.001,10 L9.001,10 L9.001,9 L6.001,9 L6.001,10 Z M18.001,7 L18.001,6.5 C18.001,6.224 17.777,6 17.501,6 L10.501,6 C10.224,6 10.001,6.224 10.001,6.5 L10.001,7 L5,7 L5,5.6 C5,5.281 5.198,5 5.422,5 L18.578,5 C18.803,5 19.001,5.281 19.001,5.6 L19.001,7 L18.001,7 Z M15.625,12 C17.487,12 19.001,13.571 19.001,15.5 C19.001,17.43 17.487,19 15.625,19 C13.764,19 12.25,17.43 12.25,15.5 C12.25,13.571 13.764,12 15.625,12 L15.625,12 Z M20,12 L20,5.6 C20,4.718 19.362,4 18.578,4 L5.422,4 C4.638,4 4,4.718 4,5.6 L4,14.4 C4,15.283 4.638,16 5.422,16 L11.299,16 C11.545,18.244 13.379,20 15.625,20 C18.038,20 20,17.982 20,15.5 C20,13.019 18.038,11 15.625,11 C13.379,11 11.545,12.757 11.299,15 L5.422,15 C5.198,15 5,14.72 5,14.4 L5,8 L10.001,8 L10.001,12 L11.001,12 L11.001,8 L11.001,7 L17,7 L17,8 L17,10 L18.001,10 L18.001,8 L19.001,8 L19.001,12 L20,12 Z" id="Amazon-Cognito_Icon_16_Squid" fill="#FFFFFF"></path>
    </g>
</svg>