<?xml version="1.0" encoding="UTF-8"?>
<svg width="24px" height="24px" viewBox="0 0 24 24" version="1.1" xmlns="http://www.w3.org/2000/svg" xmlns:xlink="http://www.w3.org/1999/xlink">
    <title>Icon-Architecture/16/Arch_AWS-Audit-Manager_16</title>
    <defs>
        <linearGradient x1="0%" y1="100%" x2="100%" y2="0%" id="linearGradient-1">
            <stop stop-color="#BD0816" offset="0%"></stop>
            <stop stop-color="#FF5252" offset="100%"></stop>
        </linearGradient>
    </defs>
    <g id="Icon-Architecture/16/Arch_AWS-Audit-Manager_16" stroke="none" stroke-width="1" fill="none" fill-rule="evenodd">
        <g id="Rectangle" fill="url(#linearGradient-1)">
            <rect x="0" y="0" width="24" height="24"></rect>
        </g>
        <g id="Icon-Service/16/AWS-Audit-Manager_16" transform="translate(4.000000, 4.000000)" fill="#FFFFFF">
            <path d="M6.646,12.646 L7.292,12 L3,12 L3,11 L7.292,11 L6.646,10.353 L7.353,9.646 L8.853,11.146 C9.048,11.341 9.048,11.658 8.853,11.853 L7.353,13.353 L6.646,12.646 Z M15.853,11.146 C16.048,11.341 16.048,11.658 15.853,11.853 L14.353,13.353 L13.646,12.646 L14.292,12 L10,12 L10,11 L14.292,11 L13.646,10.353 L14.353,9.646 L15.853,11.146 Z M3,5 L7,5 L7,4 L3,4 L3,5 Z M3,8 L7,8 L7,7 L3,7 L3,8 Z M10,8 L15,8 L15,7 L10,7 L10,8 Z M15.5,6 L9.5,6 C9.223,6 9,6.223 9,6.5 L9,8.5 C9,8.776 9.223,9 9.5,9 L15.5,9 C15.776,9 16,8.776 16,8.5 L16,6.5 C16,6.223 15.776,6 15.5,6 L15.5,6 Z M11.786,3 L10,3 L10,1.245 L11.786,3 Z M12,15 L1,15 L1,1 L9,1 L9,3.5 C9,3.776 9.223,4 9.5,4 L12,4 L12,5 L13,5 L13,4 L13,3 C13,2.865 12.946,2.737 12.85,2.643 L10.304,0.143 C10.21,0.051 10.084,0 9.954,0 L0.5,0 C0.223,0 0,0.223 0,0.5 L0,15.5 C0,15.776 0.223,16 0.5,16 L12.5,16 C12.776,16 13,15.776 13,15.5 L13,14 L12,14 L12,15 Z" id="Fill-1"></path>
        </g>
    </g>
</svg>