<svg xmlns="http://www.w3.org/2000/svg" width="24px" height="24px" viewBox="0 0 24 24"><defs><style>.cls-1,.cls-3{fill:#4285f4;}.cls-2{fill:#669df6;}.cls-2,.cls-3,.cls-4{fill-rule:evenodd;}.cls-4{fill:#aecbfa;}</style></defs><title>Icon_24px_DeployManage_Color</title><g data-name="Product Icons"><g ><rect class="cls-1" x="10" y="17" width="4" height="4"/><polygon class="cls-2" points="19 10.84 14.66 6.51 13.65 7.52 19 12.85 19 10.84"/><polygon class="cls-3" points="15.67 9.53 13.65 7.52 14.66 6.51 15.67 7.52 15.67 9.53"/><polygon class="cls-4" points="10.94 12.24 9.93 11.23 14.66 6.51 15.67 7.52 10.94 12.24"/><polygon class="cls-2" points="10.94 12.24 8.08 9.39 9.1 8.38 11.95 11.23 10.94 12.24"/><polygon class="cls-3" points="10.08 11.38 8.08 9.39 9.1 8.38 10.08 9.36 10.08 11.38"/><polygon class="cls-4" points="5.44 13.99 10.08 9.36 9.07 8.35 5 12.41 5 13.99 5.44 13.99"/><path class="cls-2" d="M22,4.05a1.24,1.24,0,0,0-1-1H3a1.24,1.24,0,0,0-1,1V17a1.19,1.19,0,0,0,1,1H21a1.19,1.19,0,0,0,1-1V4.05ZM20,16H4V5H20Z"/><path class="cls-2" d="M8,22c0-.69.31-1,1-1h6c.69,0,1,.31,1,1Z"/></g></g></svg>