<svg version="1.1" baseProfile="tiny" id="Layer_1" xmlns="http://www.w3.org/2000/svg" xmlns:xlink="http://www.w3.org/1999/xlink"
	 x="0px" y="0px" width="24px" height="24px" viewBox="0 0 24 24" overflow="visible" xml:space="preserve">
<g >
	<rect y="0" fill="none" width="24" height="24"/>
	<g transform="translate(0.000000, 1.000000)">
		<path fill="#5982DB" d="M23.4,11.2c0,2.9-1.1,5.8-3.3,8c-4.4,4.4-11.5,4.4-15.9,0s-4.4-11.5,0-15.9
			c4.1-4.1,10.7-4.4,15.1-0.8l-4.8,4.8c-1.7-1-4-0.8-5.5,0.7c-1.8,1.8-1.8,4.6,0,6.4s4.6,1.8,6.4,0c0.9-0.9,1.3-2,1.3-3.2h2.2
			c0,1.7-0.7,3.5-2,4.8c-2.6,2.6-6.9,2.6-9.5,0S4.8,9,7.4,6.4c2.4-2.4,6-2.6,8.7-0.7l1.6-1.6C14.1,1.3,9,1.6,5.8,4.8
			c-3.5,3.5-3.5,9.2,0,12.7s9.2,3.5,12.7,0c1.8-1.8,2.6-4.1,2.6-6.4H23.4z"/>
		<path id="Shape_00000043419854344209295820000014718012596843440545_" fill="#3367D6" d="M12.7,9c-3.2-0.4-3.3,2.8-2.2,3.8
			c1.1,0.9,2.3,0.9,3.2,0c0.6-0.6,0.8-1.4,0.6-2.2L20.9,4c-0.9-0.9-1.4-1.4-1.6-1.6L12.7,9z"/>
		<circle id="Oval-3" fill="#3367D6" cx="2.8" cy="7.8" r="2.6"/>
		<circle id="Oval-3-Copy" fill="#3367D6" cx="18.5" cy="19" r="2.6"/>
		<circle id="Oval-3-Copy-2" fill="#3367D6" cx="11" cy="5.5" r="1.9"/>
	</g>
</g>
</svg>
