<svg xmlns="http://www.w3.org/2000/svg" width="18" height="18" viewBox="0 0 18 18"><defs><linearGradient id="ba88ea91-3b3a-4da0-9b97-9a10ebaa3e50" x1="12.805" y1="15.237" x2="12.805" y2="7.962" gradientUnits="userSpaceOnUse"><stop offset="0" stop-color="#0078d4" /><stop offset=".156" stop-color="#1380da" /><stop offset=".528" stop-color="#3c91e5" /><stop offset=".822" stop-color="#559cec" /><stop offset="1" stop-color="#5ea0ef" /></linearGradient></defs><path d="M15.6 5.7H.067V2.99a.226.226 0 0 1 .226-.226H15.37a.227.227 0 0 1 .227.226z" fill="#949494" /><path d="M.063 5.7h15.53a0 0 0 0 1 0 0v9.254a.231.231 0 0 1-.231.231H.294a.231.231 0 0 1-.231-.231V5.7a0 0 0 0 1 0 0z" fill="#bfbfbf" /><path fill="#005ba1" d="M1.135 6.5h13.37v7.57H1.135z" /><g fill="#fff"><rect x="4.576" y="10.738" width="2.837" height=".527" rx=".263" /><path d="M2.675 11.215L4.35 9.54a.169.169 0 0 0 0-.243l-1.7-1.633a.17.17 0 0 0-.244.01L2.28 7.8a.17.17 0 0 0 .01.236L3.623 9.3a.171.171 0 0 1 0 .242l-1.3 1.333a.171.171 0 0 0 0 .239l.1.1a.17.17 0 0 0 .252.001z" /></g><path d="M17.937 12.958a2.3 2.3 0 0 0-2-2.216 2.906 2.906 0 0 0-2.994-2.78A2.982 2.982 0 0 0 10.092 9.9a2.752 2.752 0 0 0-2.42 2.648 2.793 2.793 0 0 0 2.89 2.684l.255-.01H15.5a.465.465 0 0 0 .124-.019 2.333 2.333 0 0 0 2.313-2.244z" fill="url(#ba88ea91-3b3a-4da0-9b97-9a10ebaa3e50)" /></svg>