<svg id="b8d4ff6d-c1e7-4878-8e1b-24a12cad15e1" xmlns="http://www.w3.org/2000/svg" width="18" height="18" viewBox="0 0 18 18"><defs><linearGradient id="fdda967e-7651-4c84-9759-7be8308e5f44" x1="9" y1="17.826" x2="9" y2="0.826" gradientUnits="userSpaceOnUse"><stop offset="0" stop-color="#198ab3" /><stop offset="0.442" stop-color="#28b7db" /><stop offset="0.775" stop-color="#32d4f5" /></linearGradient><linearGradient id="a71b08ef-312b-4529-8bf0-fa396a725f2f" x1="5.75" y1="-3114.591" x2="12.303" y2="-3119.908" gradientUnits="userSpaceOnUse"><stop offset="0" stop-color="#fff" stop-opacity="0.9" /><stop offset="1" stop-color="#fff" stop-opacity="0.8" /></linearGradient></defs><g><circle cx="9" cy="9.326" r="8.5" fill="url(#fdda967e-7651-4c84-9759-7be8308e5f44)" /><path d="M8.81,15.067c-.973-.6-4.151-2.747-4.151-5.255V6.605L5,6.584A4.044,4.044,0,0,0,7.35,5.842,2.48,2.48,0,0,1,9,5.353a2.511,2.511,0,0,1,1.648.487A4.048,4.048,0,0,0,13,6.584l.34.021V9.812c0,2.508-3.178,4.656-4.152,5.255L9,15.183Z" fill="url(#a71b08ef-312b-4529-8bf0-fa396a725f2f)" /><path d="M9,14.643C7.114,13.472,5.119,11.6,5.119,9.812V7.037a4.446,4.446,0,0,0,2.486-.812A2.027,2.027,0,0,1,9,5.813a2.073,2.073,0,0,1,1.394.411,4.456,4.456,0,0,0,2.487.813V9.812C12.881,11.6,10.886,13.472,9,14.643Z" fill="#50e6ff" /><g><circle cx="15.345" cy="14.083" r="1.302" fill="#fff" /><path d="M15.345,12.781a1.3,1.3,0,1,1-1.3,1.3,1.3,1.3,0,0,1,1.3-1.3m0-.651A1.954,1.954,0,1,0,17.3,14.083a1.956,1.956,0,0,0-1.953-1.953Z" fill="#b3b3b3" /></g><g><circle cx="2.655" cy="14.083" r="1.302" fill="#fff" /><path d="M2.655,12.781a1.3,1.3,0,1,1-1.3,1.3,1.3,1.3,0,0,1,1.3-1.3m0-.651a1.954,1.954,0,1,0,1.953,1.953A1.955,1.955,0,0,0,2.655,12.13Z" fill="#b3b3b3" /></g><g><circle cx="9" cy="2.128" r="1.302" fill="#fff" /><path d="M9,.826a1.3,1.3,0,1,1-1.3,1.3A1.3,1.3,0,0,1,9,.826M9,.174a1.954,1.954,0,1,0,1.953,1.954A1.956,1.956,0,0,0,9,.174Z" fill="#b3b3b3" /></g></g></svg>