<svg id="b88b3828-ef78-412f-8d84-c8abf44d0075" xmlns="http://www.w3.org/2000/svg" width="18" height="18" viewBox="0 0 18 18"><defs><linearGradient id="aa17ea79-e1b1-4771-8623-8089fc66d31f" x1="9.252" y1="14.005" x2="9.252" y2="-0.028" gradientTransform="translate(0 2)" gradientUnits="userSpaceOnUse"><stop offset="0" stop-color="#b3b4b4" /><stop offset="0.33" stop-color="#b3b4b4" /><stop offset="0.82" stop-color="#cccccb" /><stop offset="1" stop-color="#cccccb" /></linearGradient><linearGradient id="e4e801cf-1833-4cda-9534-289a2affc042" x1="10.558" y1="15.244" x2="10.439" y2="17.218" gradientUnits="userSpaceOnUse"><stop offset="0.317" stop-color="#33bedd" /><stop offset="1" stop-color="#74cfeb" /></linearGradient><linearGradient id="f4710473-a20d-4433-b34a-8d485da6bbc6" x1="9" y1="14.113" x2="9" y2="3.938" gradientUnits="userSpaceOnUse"><stop offset="0" stop-color="#616261" /><stop offset="1" stop-color="#b6b8ba" /></linearGradient></defs><g><path d="M11.167,17.718,1.088,13.183a1.52,1.52,0,0,1-.806-2.016L4.817,1.088A1.52,1.52,0,0,1,6.833.282L16.912,4.817a1.52,1.52,0,0,1,.806,2.016L13.183,16.912A1.52,1.52,0,0,1,11.167,17.718Z" fill="#74cfeb" /><path d="M15.9,5.12,13.183,2.4A1.294,1.294,0,0,0,12.175,2H3.608A1.378,1.378,0,0,0,2.2,3.406V14.594a1.378,1.378,0,0,0,1.411,1.411H14.9a1.378,1.378,0,0,0,1.411-1.411V6.128a1.54,1.54,0,0,0-.4-1.008Z" fill="url(#aa17ea79-e1b1-4771-8623-8089fc66d31f)" /><path d="M7.449,16.005l3.7,1.652c1.166.681,2.139-.777,2.43-1.652" fill="url(#e4e801cf-1833-4cda-9534-289a2affc042)" /><path d="M14.087,9.575V8.415l-.162-.061-1.242-.407-.325-.794.63-1.343L12.174,5l-.162.081-1.16.591-.794-.326-.509-1.4H8.39L8.328,4.1,7.921,5.342l-.793.326L5.805,5.037l-.814.814.082.163.59,1.159-.326.794-1.424.509v1.16l.162.061,1.242.407.325.793-.63,1.343.814.814.162-.081,1.16-.59.794.325.509,1.4H9.61l.062-.163.407-1.242.793-.325,1.343.631.814-.814-.081-.163-.59-1.16.325-.794Z" fill="url(#f4710473-a20d-4433-b34a-8d485da6bbc6)" /><path d="M9.652,6.292A.1.1,0,0,0,9.6,6.279a.139.139,0,0,0-.094.053L7.2,9.687a.129.129,0,0,0-.013.121.137.137,0,0,0,.107.067H8.672L8.055,11.9a.1.1,0,0,0,.054.135.081.081,0,0,0,.053.013A.133.133,0,0,0,8.256,12L10.632,8.6c.013-.027.026-.04.026-.067a.12.12,0,0,0-.12-.121H9.115l.591-1.986A.1.1,0,0,0,9.652,6.292Z" fill="#fff" /></g></svg>