<svg xmlns="http://www.w3.org/2000/svg" width="18" height="18" viewBox="0 0 18 18"><defs><radialGradient id="a6c0c18d-733f-412e-9946-4b3220f15c3a" cx="4649.515" cy="3578.357" r="48.597" gradientTransform="translate(-689.641 -529.326) scale(0.15)" gradientUnits="userSpaceOnUse"><stop offset="0.183" stop-color="#5ea0ef" /><stop offset="1" stop-color="#0078d4" /></radialGradient><linearGradient id="ba95cf02-a4ad-444a-ba86-4a77c3d6b54d" x1="3.844" y1="9.561" x2="3.817" y2="6.165" gradientUnits="userSpaceOnUse"><stop offset="0" stop-color="#ccc" /><stop offset="0.123" stop-color="#d7d7d7" /><stop offset="1" stop-color="#fcfcfc" /></linearGradient><linearGradient id="a3cb84a1-8f3b-4dab-92a1-05b9fc1b9b9d" x1="8.763" y1="12.958" x2="8.763" y2="9.913" gradientUnits="userSpaceOnUse"><stop offset="0" stop-color="#ccc" /><stop offset="0.123" stop-color="#d7d7d7" /><stop offset="1" stop-color="#fcfcfc" /></linearGradient><linearGradient id="ef149404-1205-4370-825c-1764b56b5820" x1="-105.292" y1="373.011" x2="-105.292" y2="364.165" gradientTransform="matrix(0.949, -0.314, 0.314, 0.949, -2.714, -371.496)" gradientUnits="userSpaceOnUse"><stop offset="0" stop-color="#32bedd" /><stop offset="0.576" stop-color="#32ceef" /><stop offset="1" stop-color="#32d4f5" /></linearGradient></defs><g id="f7be321e-44f2-40dd-a677-39c899dfee20"><g><path id="a030666d-76ea-43d2-b12a-26b869b32da2" data-name="Path 1237" d="M12.257,13.19A7.289,7.289,0,1,1,3.323,1.67L3.4,1.614A7.289,7.289,0,0,1,12.257,13.19" fill="url(#a6c0c18d-733f-412e-9946-4b3220f15c3a)" /><g><path d="M5.808,5.913A11.162,11.162,0,0,1,13.45,2.842,7.185,7.185,0,0,0,12.176,1.6a12.386,12.386,0,0,0-4.026.95,10.628,10.628,0,0,0-3.5,2.414A2.348,2.348,0,0,1,5.808,5.913Z" fill="#fff" opacity="0.6" /><path d="M2.2,8.841a16.236,16.236,0,0,0-.717,2.25,7.7,7.7,0,0,0,.534.791,6.782,6.782,0,0,0,.475.555A15.3,15.3,0,0,1,3.42,9.462,2.332,2.332,0,0,1,2.2,8.841Z" fill="#fff" opacity="0.6" /><path d="M3.039,4.952a10.239,10.239,0,0,1-.591-2.526A7.277,7.277,0,0,0,1.5,3.676,11.361,11.361,0,0,0,1.991,5.7,2.33,2.33,0,0,1,3.039,4.952Z" fill="#f2f2f2" opacity="0.55" /><circle cx="3.825" cy="7.157" r="2.343" fill="url(#ba95cf02-a4ad-444a-ba86-4a77c3d6b54d)" /><g><path d="M7.241,11.435A1.515,1.515,0,0,1,7.7,10.347,10.307,10.307,0,0,1,5.535,8.755a2.336,2.336,0,0,1-1.28.7,10.213,10.213,0,0,0,1.245,1.1,10.6,10.6,0,0,0,1.755,1.07A1.4,1.4,0,0,1,7.241,11.435Z" fill="#f2f2f2" opacity="0.55" /><path d="M12.642,11.617a10.288,10.288,0,0,1-2.362-.275c0,.031.005.062.005.093A1.515,1.515,0,0,1,9.852,12.5a11.879,11.879,0,0,0,2.925.209,7.185,7.185,0,0,0,.987-1.152A10.517,10.517,0,0,1,12.642,11.617Z" fill="#f2f2f2" opacity="0.55" /></g><circle cx="8.763" cy="11.435" r="1.522" fill="url(#a3cb84a1-8f3b-4dab-92a1-05b9fc1b9b9d)" /><path d="M10.635,7.368a1.588,1.588,0,0,1,.525-.848A21.663,21.663,0,0,1,7.333,2.962,14.576,14.576,0,0,1,5.632.457,7.227,7.227,0,0,0,4.7.816,15.211,15.211,0,0,0,6.529,3.548,22.61,22.61,0,0,0,10.635,7.368Z" fill="#f2f2f2" opacity="0.7" /><circle cx="12.232" cy="7.66" r="1.617" fill="#f2f2f2" /><path d="M14.948,8.75c-.1-.05-.18-.094-.275-.145l-.026-.014c-.086-.045-.17-.091-.254-.137l-.047-.026L14.117,8.3l-.056-.032c-.091-.051-.181-.1-.27-.154a1.536,1.536,0,0,1-.546.793c.105.062.212.123.321.184l.072.041.3.165.029.016c.241.131.487.262.739.391h0a7.107,7.107,0,0,0,.243-.955Z" fill="#f2f2f2" opacity="0.55" /><circle cx="3.825" cy="7.157" r="2.343" fill="url(#ba95cf02-a4ad-444a-ba86-4a77c3d6b54d)" /><circle cx="8.763" cy="11.435" r="1.522" fill="#f2f2f2" /></g><path d="M17.5,10.571l-.317-.958-.151,0-1.136,0-.485-.566.154-1.281-.895-.45-.112.112-.8.8-.744-.052-.8-1.02-.958.317-.006.151,0,1.136-.566.485L9.424,9.088l-.449.894.112.112.8.8-.051.743-1.037.81.317.957.151.006,1.136,0,.485.566-.154,1.281.895.449.112-.112.8-.8.744.052.8,1.02.958-.317.006-.151,0-1.135.566-.486,1.281.154.45-.894-.112-.113-.8-.8.052-.744ZM13.761,13.35A1.941,1.941,0,1,1,14.994,10.9,1.94,1.94,0,0,1,13.761,13.35Z" fill="url(#ef149404-1205-4370-825c-1764b56b5820)" /><path d="M7.613,14.753v-.794L7.5,13.918l-.85-.279L6.429,13.1l.432-.919L6.3,11.619l-.112.056-.794.4-.543-.223L4.507,10.9H3.713l-.042.111-.278.85-.544.223-.905-.432-.557.557.055.112.4.794-.222.543L.649,14V14.8l.111.042.85.279.223.543-.432.919.557.557.111-.056.794-.4.543.222.349.962h.794l.041-.112.279-.85.543-.222.92.431.557-.557-.056-.111-.4-.794.223-.543ZM4.131,15.906a1.529,1.529,0,1,1,1.528-1.529A1.528,1.528,0,0,1,4.131,15.906Z" fill="#50e6ff" /><circle cx="13.151" cy="11.507" r="1.941" fill="#fff" /><circle cx="4.131" cy="14.377" r="1.528" fill="#fff" /></g></g></svg>