<svg width="24px" height="24px" viewBox="0 0 24 24" version="1.1" xmlns="http://www.w3.org/2000/svg" xmlns:xlink="http://www.w3.org/1999/xlink">
    <g stroke="none" stroke-width="1" fill="none" fill-rule="evenodd">
        <path d="M11.8971692,16.1935902 C12.7066657,16.1935902 13.3628923,16.8218264 13.3628923,17.5967951 C13.3628923,18.3717638 12.7066657,19 11.8971692,19 C11.0876727,19 10.4314462,18.3717638 10.4314462,17.5967951 C10.4314462,16.8218264 11.0876727,16.1935902 11.8971692,16.1935902 Z M13.934,14.374 L14.6550154,15.5766466 L15.4933292,15.5757549 C15.6911289,15.0247857 16.2371735,14.6288441 16.8798154,14.6288441 C17.6893119,14.6288441 18.3455385,15.2570803 18.3455385,16.032049 C18.3455385,16.8070177 17.6893119,17.4352539 16.8798154,17.4352539 C16.247239,17.4352539 15.7082576,17.0516182 15.5028787,16.514117 L14.5544615,16.513668 C14.2610787,16.5094707 13.9922108,16.3560813 13.8487385,16.1110522 L13.049,14.779 L10.744,14.779 L9.94603077,16.1108165 C9.80255106,16.3559556 9.53360917,16.5094369 9.24012308,16.513668 L8.29145971,16.514117 C8.08608083,17.0516182 7.54709949,17.4352539 6.91452308,17.4352539 C6.10502657,17.4352539 5.4488,16.8070177 5.4488,16.032049 C5.4488,15.2570803 6.10502657,14.6288441 6.91452308,14.6288441 C7.55716497,14.6288441 8.10320954,15.0247857 8.30100924,15.5757549 L9.1392,15.576411 L9.885,14.332 L8.732,12.417 L6.84749819,12.4178373 C6.66091037,12.921424 6.18246305,13.2927545 5.60688199,13.3454087 L5.46572308,13.3518322 C4.65622657,13.3518322 4,12.723596 4,11.9486273 C4,11.1736586 4.65622657,10.5454224 5.46572308,10.5454224 C6.10348455,10.5454224 6.64611031,10.935373 6.84764264,11.4798074 L8.66,11.48 L9.845,9.546 L9.13907692,8.36885825 L8.29629819,8.3691746 C8.09465111,8.9134052 7.55213223,9.30316955 6.91452308,9.30316955 C6.10502657,9.30316955 5.4488,8.67493332 5.4488,7.89996465 C5.4488,7.12499598 6.10502657,6.49675975 6.91452308,6.49675975 C7.55213223,6.49675975 8.09465111,6.8865241 8.29629819,7.4307547 L9.24012308,7.43160127 C9.53323556,7.43583333 9.80190777,7.58889536 9.9456,7.83351007 L10.716,9.117 L13.078,9.117 L13.8483077,7.83421704 C13.991944,7.58925611 14.2608161,7.43590443 14.5542154,7.43160127 L15.4980403,7.4307547 C15.6996873,6.8865241 16.2422062,6.49675975 16.8798154,6.49675975 C17.6893119,6.49675975 18.3455385,7.12499598 18.3455385,7.89996465 C18.3455385,8.67493332 17.6893119,9.30316955 16.8798154,9.30316955 C16.2422062,9.30316955 15.6996873,8.9134052 15.4980403,8.3691746 L14.6553846,8.3686226 L13.923,9.588 L15.063,11.48 L17.1523574,11.4798074 C17.3388426,10.9760223 17.8173884,10.6045137 18.393118,10.5518459 L18.5342769,10.5454224 C19.3437734,10.5454224 20,11.1736586 20,11.9486273 C20,12.723596 19.3437734,13.3518322 18.5342769,13.3518322 C17.8966678,13.3518322 17.3541489,12.9620679 17.1525018,12.4178373 L15.134,12.417 L13.934,14.374 Z M11.8971692,5 C12.7066657,5 13.3628923,5.62823623 13.3628923,6.4032049 C13.3628923,7.17817357 12.7066657,7.8064098 11.8971692,7.8064098 C11.0876727,7.8064098 10.4314462,7.17817357 10.4314462,6.4032049 C10.4314462,5.62823623 11.0876727,5 11.8971692,5 Z" fill="#4285F4" fill-rule="nonzero"></path>
    </g>
</svg>