<svg id="Artwork" xmlns="http://www.w3.org/2000/svg" width="24px" height="24px" viewBox="0 0 24 24"><path d="M18.56,3a.37.37,0,0,1,.38.36V7.51a.38.38,0,0,1-.75,0V3.39A.37.37,0,0,1,18.56,3Zm3.15,1.41V6a.37.37,0,0,1-.38.36A.36.36,0,0,1,21,6V4.44a.36.36,0,0,1,.37-.36A.37.37,0,0,1,21.71,4.44ZM19.57,2.67V8a.38.38,0,0,0,.75,0V2.67a.38.38,0,0,0-.75,0ZM16.82,4.19V6.41a.38.38,0,0,0,.75,0V4.19a.38.38,0,0,0-.75,0Z" style="fill:#aecbfa"/><path d="M2.25,20.83V5.3A1.88,1.88,0,0,1,4.12,3.42H15.9v1.5H4.12a.38.38,0,0,0-.37.38V17.21l1.06-1.06h14a.38.38,0,0,0,.37-.38V9.36h1.5v6.41a1.88,1.88,0,0,1-1.87,1.88H5.43Z" style="fill:#669df6"/><path d="M13.76,6.67V7.88H12.25a9.11,9.11,0,0,1-1.84,3.24l1.27,1.25-.46,1.23L9.6,12,7.05,14.53l-.85-.86,2.59-2.55A9.09,9.09,0,0,1,7.35,8.9l-.09-.19H8.48l0,0a7.3,7.3,0,0,0,1.09,1.6,7.76,7.76,0,0,0,1.48-2.49H5.43V6.67H9v-1h1.2v1Zm-1.32,8.75h1.28l.52-1.48H16.6l.52,1.48h1.29L16.09,9.24H14.75Zm2.17-2.55.55-1.55.23-.74h.07l.22.74.55,1.55Z" style="fill:#4285f4"/></svg>