<svg id="Artwork" xmlns="http://www.w3.org/2000/svg" width="24px" height="24px" viewBox="0 0 24 24"><polygon points="21.74 12.89 17.62 17.02 16.56 15.95 18.88 13.64 11.26 13.64 11.26 12.14 18.88 12.14 16.56 9.82 17.62 8.76 21.74 12.89" style="fill:#4285f4"/><path d="M11.77,4.76l.3.3V6l-.3.3A4.69,4.69,0,0,0,7.4,10l-.13.51-.52.05a3.19,3.19,0,0,0-3,3,2.83,2.83,0,0,0,0,.41L2.52,15a4.1,4.1,0,0,1-.28-1.48A4.61,4.61,0,0,1,6.09,9.14,6.12,6.12,0,0,1,11.77,4.76Z" style="fill:#aecbfa"/><polygon points="14.01 17.45 6.38 17.45 8.7 19.77 7.64 20.83 3.51 16.7 7.64 12.57 8.7 13.64 6.38 15.95 14.01 15.95 14.01 17.45" style="fill:#4285f4"/><path d="M16.63,7.49l-1.1,1a4.45,4.45,0,0,0-3.76-2.27V4.76A5.88,5.88,0,0,1,16.63,7.49Z" style="fill:#669df6"/></svg>