<?xml version="1.0" encoding="UTF-8"?>
<svg width="64px" height="64px" viewBox="0 0 64 64" version="1.1" xmlns="http://www.w3.org/2000/svg" xmlns:xlink="http://www.w3.org/1999/xlink">
    <!-- Generator: Sketch 64 (93537) - https://sketch.com -->
    <title>Icon-Architecture/48/Arch_Amazon-Kinesis-Video-Streams_48</title>
    <desc>Created with Sketch.</desc>
    <defs>
        <linearGradient x1="0%" y1="100%" x2="100%" y2="0%" id="linearGradient-1">
            <stop stop-color="#4D27A8" offset="0%"></stop>
            <stop stop-color="#A166FF" offset="100%"></stop>
        </linearGradient>
    </defs>
    <g id="Icon-Architecture/48/Arch_Amazon-Kinesis-Video-Streams_48" stroke="none" stroke-width="1" fill="none" fill-rule="evenodd">
        <g id="Icon-Architecture-BG/48/Analytics" fill="url(#linearGradient-1)">
            <rect id="Rectangle" x="0" y="0" width="64" height="64"></rect>
        </g>
        <g id="Icon-Service/48/Amazon-Kinesis-Video-Streams" transform="translate(8.000000, 8.000000)" fill="#FFFFFF">
            <path d="M19,28.986 L19,31.044 C9.82,33.191 9,36.637 9,40 L7,40 C7,35.661 8.48,31.337 19,28.986 L19,28.986 Z M19,34.393 L19,36.591 C14.011,39.079 13.999,42.387 14,45.876 L14,46 L11.9999834,46 L11.9999834,45.877 C11.999,42.107 12.02,37.448 19,34.393 L19,34.393 Z M43,42.999 C43,43.551 42.551,44 41.999,44 L24.001,44 C23.449,44 23,43.551 23,42.999 L23,31 C23,30.448 23.449,30 24.001,30 L41.999,30 C42.551,30 43,30.448 43,31 L43,42.999 Z M41.999,28 L24.001,28 C22.347,28 21,29.346 21,31 L21,42.999 C21,44.653 22.347,46 24.001,46 L41.999,46 C43.653,46 45,44.653 45,42.999 L45,31 C45,29.346 43.653,28 41.999,28 L41.999,28 Z M45,23 L45,25 C17.411,25 4,27.616 4,33 L2,33 C2,29.385 4.747,25.715 21.012,24 C4.747,22.285 2,18.614 2,15 L4,15 C4,20.383 17.411,23 45,23 L45,23 Z M45,19 L45,21 C13.218,21 7,16.233 7,8 L9,8 C9,13.566 11.779,19 45,19 L45,19 Z M45,15 L45,17 C30.552,17 21.21,15.443 16.44,12.24 C11.998,9.257 11.999,5.301 11.99997,2.123 L11.99997,2 L14,2 L14,2.124 C13.999,5.244 13.999,8.191 17.556,10.58 C21.984,13.554 30.961,15 45,15 L45,15 Z M32,38.381 L32,35.618 L34.764,36.999 L32,38.381 Z M37.447,36.105 L31.447,33.105 C31.137,32.951 30.769,32.966 30.475,33.149 C30.18,33.331 30,33.653 30,34 L30,39.999 C30,40.346 30.18,40.668 30.475,40.85 C30.635,40.949 30.817,40.999 31,40.999 C31.153,40.999 31.306,40.964 31.447,40.894 L37.447,37.894 C37.786,37.724 38,37.378 38,36.999 C38,36.62 37.786,36.274 37.447,36.105 L37.447,36.105 Z" id="Amazon-Kinesis-Video-Streams_48_Squid"></path>
        </g>
    </g>
</svg>