<?xml version="1.0" encoding="UTF-8"?>
<svg width="64px" height="64px" viewBox="0 0 64 64" version="1.1" xmlns="http://www.w3.org/2000/svg" xmlns:xlink="http://www.w3.org/1999/xlink">
    <!-- Generator: Sketch 64 (93537) - https://sketch.com -->
    <title>Icon-Architecture/48/Arch_Amazon-Kinesis-Data-Streams_48</title>
    <desc>Created with Sketch.</desc>
    <defs>
        <linearGradient x1="0%" y1="100%" x2="100%" y2="0%" id="linearGradient-1">
            <stop stop-color="#4D27A8" offset="0%"></stop>
            <stop stop-color="#A166FF" offset="100%"></stop>
        </linearGradient>
    </defs>
    <g id="Icon-Architecture/48/Arch_Amazon-Kinesis-Data-Streams_48" stroke="none" stroke-width="1" fill="none" fill-rule="evenodd">
        <g id="Icon-Architecture-BG/48/Analytics" fill="url(#linearGradient-1)">
            <rect id="Rectangle" x="0" y="0" width="64" height="64"></rect>
        </g>
        <g id="Icon-Service/48/Amazon-Kinesis-Data-Streams" transform="translate(8.000000, 8.000000)" fill="#FFFFFF">
            <path d="M36,41.001 L37,41.001 L37,40.001 L36,40.001 L36,41.001 Z M39,39.001 L39,42.001 C39,42.553 38.553,43.001 38,43.001 L35,43.001 C34.448,43.001 34,42.553 34,42.001 L34,39.001 C34,38.449 34.448,38.001 35,38.001 L38,38.001 C38.553,38.001 39,38.449 39,39.001 L39,39.001 Z M34,36.001 L37,36.001 L37,34.001 L34,34.001 L34,36.001 Z M40,33.001 L41,33.001 L41,32.001 L40,32.001 L40,33.001 Z M44,36.501 C44,35.145 43.633,33.874 43,32.775 L43,34.001 C43,34.553 42.553,35.001 42,35.001 L39,35.001 C38.448,35.001 38,34.553 38,34.001 L38,31.001 C38,30.449 38.448,30.001 39,30.001 L40.226,30.001 C39.127,29.369 37.857,29.001 36.5,29.001 C35.144,29.001 33.873,29.369 32.775,30.001 L37,30.001 L37,32.001 L30.514,32.001 C30.06,32.604 29.696,33.276 29.438,34.001 L33,34.001 L33,36.001 L29.026,36.001 C29.015,36.167 29,36.332 29,36.501 C29,37.015 29.053,37.516 29.152,38.001 L32,38.001 L32,40.001 L29.872,40.001 C30.059,40.353 30.276,40.685 30.514,41.001 L32,41.001 L32,42.487 C33.255,43.433 34.811,44.001 36.5,44.001 C37.857,44.001 39.127,43.633 40.226,43.001 L40,43.001 L40,41.001 L42.487,41.001 C42.725,40.685 42.942,40.353 43.128,40.001 L40,40.001 L40,38.001 L43.849,38.001 C43.948,37.516 44,37.015 44,36.501 L44,36.501 Z M46,36.501 C46,41.739 41.739,46.001 36.5,46.001 C31.262,46.001 27,41.739 27,36.501 C27,31.263 31.262,27.001 36.5,27.001 C41.739,27.001 46,31.263 46,36.501 L46,36.501 Z M29.646,27.601 C11.695,29.162 8,33.688 8,40 L10,40 C10,35.8 11.412,31.579 27.467,29.825 C28.088,28.986 28.821,28.238 29.646,27.601 L29.646,27.601 Z M13,45.876 L13,46 L15,46 L15,45.876 C14.999,41.591 15.006,37.169 25.402,34.742 C25.521,33.99 25.713,33.264 25.973,32.569 C13.006,35.284 12.999,41.146 13,45.876 L13,45.876 Z M5,15 L3,15 C3,18.614 5.747,22.285 22.012,24 C5.747,25.715 3,29.386 3,33 L5,33 C5,27.617 18.412,25 46,25 L46,23 C18.412,23 5,20.383 5,15 L5,15 Z M10,8 L8,8 C8,16.233 14.218,21 46,21 L46,19 C12.78,19 10,13.566 10,8 L10,8 Z M46,15 L46,17 C31.551,17 22.209,15.443 17.441,12.241 C12.998,9.257 12.999,5.302 12.99997,2.124 L12.99997,2 L15,2 L15,2.124 C14.999,5.244 14.999,8.191 18.556,10.58 C22.985,13.554 31.961,15 46,15 L46,15 Z" id="Amazon-Kinesis-Data-Streams_Icon_48_Squid"></path>
        </g>
    </g>
</svg>