<?xml version="1.0" encoding="UTF-8"?>
<svg width="64px" height="64px" viewBox="0 0 64 64" version="1.1" xmlns="http://www.w3.org/2000/svg" xmlns:xlink="http://www.w3.org/1999/xlink">
    <!-- Generator: Sketch 64 (93537) - https://sketch.com -->
    <title>Icon-Architecture/48/Arch_Amazon-EMR_48</title>
    <desc>Created with Sketch.</desc>
    <defs>
        <linearGradient x1="0%" y1="100%" x2="100%" y2="0%" id="linearGradient-1">
            <stop stop-color="#4D27A8" offset="0%"></stop>
            <stop stop-color="#A166FF" offset="100%"></stop>
        </linearGradient>
    </defs>
    <g id="Icon-Architecture/48/Arch_Amazon-EMR_48" stroke="none" stroke-width="1" fill="none" fill-rule="evenodd">
        <g id="Icon-Architecture-BG/48/Analytics" fill="url(#linearGradient-1)">
            <rect id="Rectangle" x="0" y="0" width="64" height="64"></rect>
        </g>
        <path d="M50.1517966,38.1394572 C49.0547182,37.0344318 47.1425816,37.0334236 46.0445032,38.1394572 C44.9124223,39.2807791 44.9124223,41.138956 46.0445032,42.2802778 C47.1425816,43.3873197 49.0547182,43.3863115 50.1517966,42.2802778 C51.2838774,41.138956 51.2838774,39.2807791 50.1517966,38.1394572 L50.1517966,38.1394572 Z M41.3451675,37.5385492 L43.6013287,38.2574207 C43.8103436,37.7684268 44.1073648,37.3127046 44.4793914,36.8993283 L43.0862919,34.2244812 L41.3451675,37.5385492 Z M38.4559611,38.7333076 L30.1083649,36.0745922 C29.4873205,37.4588987 28.5692549,38.6788629 27.4291735,39.6457601 L31.131438,44.8260709 C31.8844917,44.3703487 32.7405529,44.1112324 33.6406172,44.1112324 C34.2696621,44.1112324 34.8787056,44.2362535 35.4467462,44.4631063 L38.4559611,38.7333076 Z M35.6947639,46.98571 C35.1457247,46.4331973 34.4166726,46.1277021 33.6406172,46.1277021 C32.8645618,46.1277021 32.1355097,46.432189 31.5874705,46.98571 C30.4553897,48.1270319 30.4553897,49.9852087 31.5874705,51.1265306 C32.6845489,52.2325643 34.5966855,52.2335725 35.6947639,51.1265306 C36.8268448,49.9852087 36.8268448,48.1270319 35.6947639,46.98571 L35.6947639,46.98571 Z M21.0007143,40.0006588 C25.4120294,40.0006588 29.0012858,36.3821038 29.0012858,31.9347798 C29.0012858,27.4874558 25.4120294,23.8689008 21.0007143,23.8689008 C16.5883992,23.8689008 13.0001429,27.4874558 13.0001429,31.9347798 C13.0001429,36.3821038 16.5883992,40.0006588 21.0007143,40.0006588 L21.0007143,40.0006588 Z M27.4391742,24.2318654 C28.5682549,25.1927132 29.4783199,26.4005786 30.0983642,27.771778 L38.3799557,25.1937215 L35.4317451,19.5385321 C34.8687049,19.761352 34.2646618,19.8863731 33.6406172,19.8863731 C32.7335524,19.8863731 31.8714908,19.6252403 31.1154368,19.1634687 L27.4391742,24.2318654 Z M31.5874705,17.0118955 C32.6845489,18.1189374 34.5966855,18.1189374 35.6947639,17.0118955 C36.8268448,15.8705736 36.8268448,14.013405 35.6947639,12.8710749 C35.1287235,12.3014222 34.3836703,12.0150834 33.6406172,12.0150834 C32.896564,12.0150834 32.153511,12.3014222 31.5874705,12.8710749 C30.4553897,14.013405 30.4553897,15.8705736 31.5874705,17.0118955 L31.5874705,17.0118955 Z M31.0014287,31.9347798 C31.0014287,32.7010383 30.908422,33.4451157 30.7474105,34.1629789 L39.4070291,36.9215095 L41.9592114,32.0618174 L39.3260233,27.0095525 L30.74041,29.6823831 C30.9054218,30.4083122 31.0014287,31.1594472 31.0014287,31.9347798 L31.0014287,31.9347798 Z M41.2701622,26.4046115 L43.0922923,29.9011701 L44.8364169,26.5800444 C44.7694121,26.5195503 44.6944067,26.475188 44.6304022,26.4096527 L44.6304022,26.4096527 C44.3713837,26.1485199 44.1553682,25.8641977 43.9663547,25.5647519 L41.2701622,26.4046115 Z M46.0445032,24.9840086 C47.176584,26.1253305 49.0187156,26.1243222 50.1517966,24.9840086 C51.2838774,23.8416785 51.2838774,21.9845099 50.1517966,20.8421798 C49.0187156,19.7018661 47.176584,19.6998496 46.0445032,20.843188 C44.9124223,21.9845099 44.9124223,23.8416785 46.0445032,24.9840086 L46.0445032,24.9840086 Z M51.5658976,36.7138131 C53.4780341,38.6415582 53.4780341,41.7781769 51.5658976,43.705922 C50.6398314,44.6395474 49.4087435,45.1547555 48.0976498,45.1547555 C46.7885563,45.1547555 45.5564683,44.6395474 44.6304022,43.705922 C43.6823345,42.7511235 43.2073005,41.4988958 43.1992999,40.2436434 L40.3940996,39.3503473 L37.1248661,45.5792223 C39.0190014,47.5079757 39.0150011,50.6304791 37.1088649,52.5521747 C36.1817987,53.4858002 34.9507108,54 33.6406172,54 C32.3305236,54 31.0984356,53.4858002 30.1723695,52.5521747 C28.4592471,50.8250684 28.2942353,48.1330813 29.6513322,46.204328 L25.7800557,40.7880902 C24.3589542,41.5704805 22.7308379,42.0171285 21.0007143,42.0171285 C15.4863205,42.0171285 11,37.4941869 11,31.9347798 C11,26.3753727 15.4863205,21.8524311 21.0007143,21.8524311 C22.7348382,21.8524311 24.3669548,22.3010956 25.7910565,23.0875188 L29.6393314,17.7801704 C28.2942353,15.8514171 28.4632474,13.1685041 30.1723695,11.4454307 C32.0855061,9.51768567 35.1967283,9.5186939 37.1088649,11.4454307 C39.0190014,13.3721676 39.0200014,16.5027369 37.1148653,18.4314902 L40.3240946,24.5887805 L43.2673048,23.672295 C43.0372884,22.1659921 43.4823202,20.5739893 44.6304022,19.4165356 C46.5435388,17.4887906 49.6547611,17.4897988 51.5658976,19.4165356 C53.4780341,21.3442807 53.4780341,24.4819076 51.5658976,26.4096527 C50.6098293,27.372517 49.3537396,27.8544533 48.0976498,27.8544533 C47.5806129,27.8544533 47.0665762,27.7526216 46.5705408,27.5882793 L44.2193728,32.0648421 L46.1135081,35.6975124 C46.7315523,35.4202478 47.4016001,35.2649796 48.0976498,35.2649796 C49.4087435,35.2649796 50.6398314,35.7801876 51.5658976,36.7138131 L51.5658976,36.7138131 Z M22.0007858,30.9265449 L25.0010001,30.9265449 L25.0010001,32.9430147 L22.0007858,32.9430147 L22.0007858,35.9677193 L20.0006429,35.9677193 L20.0006429,32.9430147 L17.0004286,32.9430147 L17.0004286,30.9265449 L20.0006429,30.9265449 L20.0006429,27.9018403 L22.0007858,27.9018403 L22.0007858,30.9265449 Z" id="Amazon-EMR_Icon_48_Squid" fill="#FFFFFF"></path>
    </g>
</svg>