<?xml version="1.0" encoding="UTF-8"?>
<svg width="64px" height="64px" viewBox="0 0 64 64" version="1.1" xmlns="http://www.w3.org/2000/svg" xmlns:xlink="http://www.w3.org/1999/xlink">
    <!-- Generator: Sketch 64 (93537) - https://sketch.com -->
    <title>Icon-Architecture/48/Arch_Amazon-Redshift_48</title>
    <desc>Created with Sketch.</desc>
    <defs>
        <linearGradient x1="0%" y1="100%" x2="100%" y2="0%" id="linearGradient-1">
            <stop stop-color="#4D27A8" offset="0%"></stop>
            <stop stop-color="#A166FF" offset="100%"></stop>
        </linearGradient>
    </defs>
    <g id="Icon-Architecture/48/Arch_Amazon-Redshift_48" stroke="none" stroke-width="1" fill="none" fill-rule="evenodd">
        <g id="Icon-Architecture-BG/48/Analytics" fill="url(#linearGradient-1)">
            <rect id="Rectangle" x="0" y="0" width="64" height="64"></rect>
        </g>
        <path d="M40.419,28.0249501 C39.719,28.0249501 39.148,27.4560878 39.148,26.756487 C39.148,26.0578842 39.719,25.489022 40.419,25.489022 C41.119,25.489022 41.69,26.0578842 41.69,26.756487 C41.69,27.4560878 41.119,28.0249501 40.419,28.0249501 M36.635,37.0878244 C35.935,37.0878244 35.365,36.5189621 35.365,35.8203593 C35.365,35.1207585 35.935,34.5528942 36.635,34.5528942 C37.335,34.5528942 37.905,35.1207585 37.905,35.8203593 C37.905,36.5189621 37.335,37.0878244 36.635,37.0878244 M27.554,35.5768463 C26.854,35.5768463 26.284,35.008982 26.284,34.3093812 C26.284,33.6107784 26.854,33.0419162 27.554,33.0419162 C28.254,33.0419162 28.824,33.6107784 28.824,34.3093812 C28.824,35.008982 28.254,35.5768463 27.554,35.5768463 M23.771,43.8852295 C23.07,43.8852295 22.5,43.3163673 22.5,42.6177645 C22.5,41.9181637 23.07,41.3493014 23.771,41.3493014 C24.471,41.3493014 25.041,41.9181637 25.041,42.6177645 C25.041,43.3163673 24.471,43.8852295 23.771,43.8852295 M40.419,23.493014 C38.615,23.493014 37.148,24.9570858 37.148,26.756487 C37.148,27.7964072 37.647,28.7125749 38.407,29.3113772 L37.106,32.6037924 C36.951,32.5808383 36.796,32.5568862 36.635,32.5568862 C35.272,32.5568862 34.103,33.3952096 33.613,34.5828343 L30.787,33.9411178 C30.601,32.3163673 29.231,31.0459082 27.554,31.0459082 C25.751,31.0459082 24.284,32.50998 24.284,34.3093812 C24.284,35.0988024 24.577,35.8133733 25.046,36.3782435 L23.773,39.3532934 L23.771,39.3532934 C21.967,39.3532934 20.5,40.8173653 20.5,42.6177645 C20.5,44.4171657 21.967,45.8812375 23.771,45.8812375 C25.574,45.8812375 27.041,44.4171657 27.041,42.6177645 C27.041,41.5309381 26.501,40.5728543 25.681,39.9800399 L26.756,37.4640719 C27.013,37.5279441 27.277,37.5728543 27.554,37.5728543 C28.776,37.5728543 29.832,36.8922156 30.393,35.8992016 L33.469,36.5968064 C33.82,38.0209581 35.102,39.0838323 36.635,39.0838323 C38.439,39.0838323 39.905,37.6197605 39.905,35.8203593 C39.905,34.9031936 39.522,34.0758483 38.909,33.4830339 L40.282,30.006986 C40.328,30.008982 40.372,30.0209581 40.419,30.0209581 C42.223,30.0209581 43.69,28.5568862 43.69,26.756487 C43.69,24.9570858 42.223,23.493014 40.419,23.493014 M32,52.003992 C23.945,52.003992 19,49.6277445 19,47.9231537 L19,19.3552894 C21.768,21.3013972 26.991,22.3273453 32,22.3273453 C37.009,22.3273453 42.232,21.3013972 45,19.3552894 L45,47.9231537 C45,49.6277445 40.055,52.003992 32,52.003992 M32,11.996008 C40.055,11.996008 45,14.4241517 45,16.1636727 C45,17.9041916 40.055,20.3313373 32,20.3313373 C23.945,20.3313373 19,17.9041916 19,16.1636727 C19,14.4241517 23.945,11.996008 32,11.996008 M47,16.1636727 C47,12.1606786 39.272,10 32,10 C24.729,10 17,12.1606786 17,16.1636727 C17,16.1706587 17.002,16.1766467 17.002,16.1836327 L17,16.1836327 L17,47.9231537 C17,51.8702595 24.729,54 32,54 C39.272,54 47,51.8702595 47,47.9231537 L47,16.1836327 L46.998,16.1836327 C46.998,16.1766467 47,16.1706587 47,16.1636727" id="Amazon-Redshift_Icon_48_Squid" fill="#FFFFFF"></path>
    </g>
</svg>