<?xml version="1.0" encoding="UTF-8"?>
<svg width="64px" height="64px" viewBox="0 0 64 64" version="1.1" xmlns="http://www.w3.org/2000/svg" xmlns:xlink="http://www.w3.org/1999/xlink">
    <title>Icon-Architecture/48/Arch_CN-Habañero_48</title>
    <defs>
        <linearGradient x1="0%" y1="100%" x2="100%" y2="0%" id="linearGradient-1">
            <stop stop-color="#4D27A8" offset="0%"></stop>
            <stop stop-color="#A166FF" offset="100%"></stop>
        </linearGradient>
    </defs>
    <g id="Icon-Architecture/48/Arch_CN-Habañero_48" stroke="none" stroke-width="1" fill="none" fill-rule="evenodd">
        <g id="Rectangle" fill="url(#linearGradient-1)">
            <rect x="0" y="0" width="64" height="64"></rect>
        </g>
        <g id="Icon-Service/48/CN-Habañero_48" transform="translate(8.000000, 8.000000)" fill="#FFFFFF">
            <path d="M12,36 L15,36 L15,16.014 L12,17.956 L12,36 Z M20,12.779 L17,14.72 L17,36 L20,36 L20,12.779 Z M22,11.485 L22,36 L26,36 L26,11.485 L24,10.191 L22,11.485 Z M31,14.72 L28,12.779 L28,36 L31,36 L31,14.72 Z M36,17.956 L33,16.014 L33,36 L36,36 L36,17.956 Z M42,38 L6,38 L6,36 L10,36 L10,19.25 L7.543,20.839 L6.457,19.161 L23.457,8.161 C23.787,7.947 24.213,7.947 24.543,8.161 L41.543,19.161 L40.457,20.839 L38,19.25 L38,36 L42,36 L42,38 Z M4,42 L12,42 L12,40 L4,40 L4,42 Z M15,42 L33,42 L33,40 L15,40 L15,42 Z M36,42 L44,42 L44,40 L36,40 L36,42 Z M2,46 L22,46 L22,44 L2,44 L2,46 Z M26,46 L46,46 L46,44 L26,44 L26,46 Z M3.555,17.832 L2.445,16.168 L23.445,2.168 C23.781,1.944 24.219,1.944 24.555,2.168 L45.555,16.168 L44.445,17.832 L24,4.202 L3.555,17.832 Z" id="Fill-4"></path>
        </g>
    </g>
</svg>