<?xml version="1.0" encoding="UTF-8"?>
<svg width="64px" height="64px" viewBox="0 0 64 64" version="1.1" xmlns="http://www.w3.org/2000/svg" xmlns:xlink="http://www.w3.org/1999/xlink">
    <!-- Generator: Sketch 64 (93537) - https://sketch.com -->
    <title>Icon-Architecture/48/Arch_Amazon-Kinesis-Data-Analytics_48</title>
    <desc>Created with Sketch.</desc>
    <defs>
        <linearGradient x1="0%" y1="100%" x2="100%" y2="0%" id="linearGradient-1">
            <stop stop-color="#4D27A8" offset="0%"></stop>
            <stop stop-color="#A166FF" offset="100%"></stop>
        </linearGradient>
    </defs>
    <g id="Icon-Architecture/48/Arch_Amazon-Kinesis-Data-Analytics_48" stroke="none" stroke-width="1" fill="none" fill-rule="evenodd">
        <g id="Icon-Architecture-BG/48/Analytics" fill="url(#linearGradient-1)">
            <rect id="Rectangle" x="0" y="0" width="64" height="64"></rect>
        </g>
        <g id="Icon-Service/48/Amazon-Kinesis-Data-Analytics" transform="translate(8.000000, 8.000000)" fill="#FFFFFF">
            <path d="M8,40 L10,40 C10,37.071 10.57,34.047 17,31.879 L17,29.786 C9.129,32.248 8,36.141 8,40 L8,40 Z M12.9999763,45.875 L12.9999763,46 L15,46 L15,45.875 C14.999,43.302 15.005,40.848 17,38.726 L17,36.081 C13.011,39.022 12.999,42.81 12.9999763,45.875 L12.9999763,45.875 Z M44,30 L21,30 L21,44 L23,44 L23,39 C23,38.448 23.447,38 24,38 L27,38 C27.553,38 28,38.448 28,39 L28,44 L30,44 L30,36 C30,35.448 30.447,35 31,35 L34,35 C34.553,35 35,35.448 35,36 L35,44 L37,44 L37,34 C37,33.448 37.447,33 38,33 L41,33 C41.553,33 42,33.448 42,34 L42,44 L44,44 L44,30 Z M39,44 L40,44 L40,35 L39,35 L39,44 Z M32,44 L33,44 L33,37 L32,37 L32,44 Z M25,44 L26,44 L26,40 L25,40 L25,44 Z M46,29 L46,45 C46,45.552 45.553,46 45,46 L20,46 C19.447,46 19,45.552 19,45 L19,29 C19,28.448 19.447,28 20,28 L45,28 C45.553,28 46,28.448 46,29 L46,29 Z M5,15 L3,15 C3,18.614 5.747,22.285 22.012,24 C5.747,25.715 3,29.386 3,33 L5,33 C5,27.617 18.411,25 46,25 L46,23 C18.411,23 5,20.383 5,15 L5,15 Z M10,8 L8,8 C8,16.233 14.218,21 46,21 L46,19 C12.779,19 10,13.566 10,8 L10,8 Z M46,15 L46,17 C31.552,17 22.21,15.443 17.44,12.24 C12.998,9.257 12.999,5.302 12.99997,2.124 L12.99997,2 L15,2 L15,2.124 C14.999,5.244 14.999,8.191 18.556,10.58 C22.984,13.554 31.961,15 46,15 L46,15 Z" id="Amazon-Kinesis-Data-Analytics_Icon_48_Squid"></path>
        </g>
    </g>
</svg>