<?xml version="1.0" encoding="UTF-8"?>
<svg width="64px" height="64px" viewBox="0 0 64 64" version="1.1" xmlns="http://www.w3.org/2000/svg" xmlns:xlink="http://www.w3.org/1999/xlink">
    <title>Icon-Architecture/48/Arch_AWS-Glue-Elastic-Views_48</title>
    <defs>
        <linearGradient x1="0%" y1="100%" x2="100%" y2="0%" id="linearGradient-1">
            <stop stop-color="#4D27A8" offset="0%"></stop>
            <stop stop-color="#A166FF" offset="100%"></stop>
        </linearGradient>
    </defs>
    <g id="Icon-Architecture/48/Arch_AWS-Glue-Elastic-Views_48" stroke="none" stroke-width="1" fill="none" fill-rule="evenodd">
        <g id="Rectangle" fill="url(#linearGradient-1)">
            <rect x="0" y="0" width="64" height="64"></rect>
        </g>
        <g id="Icon-Service/48/AWS-Glue-Elastic-Views_48" transform="translate(8.000000, 8.000000)" fill="#FFFFFF">
            <path d="M25,22 L29,22 L29,24 L25,24 L25,28 L23,28 L23,24 L19,24 L19,22 L23,22 L23,18 L25,18 L25,22 Z M44,14.313 C43.755,14.566 42.652,15 40.892,15 C38.985,15 38.092,14.5 38,14.403 L37.979,4.688 C38.092,4.504 38.99,4 40.892,4 C42.646,4 43.75,4.437 44,4.692 L44,14.313 Z M24,30 C20.141,30 17,26.86 17,23 C17,19.14 20.141,16 24,16 C27.859,16 31,19.14 31,23 C31,26.86 27.859,30 24,30 L24,30 Z M38,26.328 C38.225,26.208 38.82,26 39.919,26 C41.017,26 41.722,26.209 42,26.354 L42,32.649 C41.724,32.793 41.02,33 39.919,33 C38.883,33 38.247,32.812 38,32.678 L38,26.328 Z M32,43.746 C31.759,43.855 31.223,44 30.433,44 C29.697,44 29.217,43.872 29,43.772 L29,38.232 C29.2,38.14 29.657,38 30.433,38 C31.222,38 31.758,38.146 32,38.257 L32,43.746 Z M11,39.202 C10.746,39.491 9.472,40 7.378,40 C5.124,40 4.103,39.421 4,39.281 L3.984,28.795 C4.104,28.583 5.13,28 7.378,28 C9.463,28 10.74,28.512 11,28.803 L11,39.202 Z M10,14.746 C9.759,14.855 9.223,15 8.433,15 C7.697,15 7.217,14.872 7,14.772 L7,9.232 C7.2,9.14 7.657,9 8.433,9 C9.222,9 9.758,9.146 10,9.257 L10,14.746 Z M40.892,2 C37.92,2 36,3.019 36,4.597 L36,10.283 L29.523,15.91 C27.997,14.718 26.083,14 24,14 C21.42,14 19.096,15.098 17.453,16.843 L12,12.272 L12,8.982 C12,7.778 10.6,7 8.433,7 C6.348,7 5,7.778 5,8.982 L5,15.018 C5,16.24 6.315,17 8.433,17 C10.6,17 12,16.222 12,15.018 L12,14.883 L16.251,18.446 C15.461,19.784 15,21.337 15,23 C15,24.73 15.499,26.342 16.349,27.715 L13,30.572 L13,28.719 C13,26.841 10.177,26 7.378,26 C4.111,26 2,27.067 2,28.719 L2,39.281 C2,40.933 4.111,42 7.378,42 C9.972,42 13,41.288 13,39.281 L13,33.201 L17.579,29.295 C19.214,30.962 21.486,32 24,32 C24.822,32 25.614,31.88 26.371,31.673 L28.641,36.249 C27.615,36.567 27,37.176 27,37.982 L27,44.018 C27,45.24 28.315,46 30.433,46 C32.6,46 34,45.222 34,44.018 L34,37.982 C34,36.841 32.732,36.091 30.757,36.015 L28.237,30.936 C29.701,30.151 30.918,28.97 31.758,27.54 L36,29.394 L36,32.895 C36,34.193 37.502,35 39.919,35 C41.892,35 44,34.447 44,32.895 L44,26.105 C44,24.553 41.892,24 39.919,24 C37.502,24 36,24.807 36,26.105 L36,27.211 L32.579,25.716 C32.852,24.858 33,23.946 33,23 C33,20.842 32.235,18.86 30.965,17.308 L36,12.933 L36,14.403 C36,15.981 37.92,17 40.892,17 C43.248,17 46,16.32 46,14.403 L46,4.597 C46,2.803 43.435,2 40.892,2 L40.892,2 Z" id="Fill-3"></path>
        </g>
    </g>
</svg>