<?xml version="1.0" encoding="UTF-8"?>
<svg width="64px" height="64px" viewBox="0 0 64 64" version="1.1" xmlns="http://www.w3.org/2000/svg" xmlns:xlink="http://www.w3.org/1999/xlink">
    <!-- Generator: Sketch 64 (93537) - https://sketch.com -->
    <title>Icon-Architecture/48/Arch_Amazon-QuickSight_48</title>
    <desc>Created with Sketch.</desc>
    <defs>
        <linearGradient x1="0%" y1="100%" x2="100%" y2="0%" id="linearGradient-1">
            <stop stop-color="#4D27A8" offset="0%"></stop>
            <stop stop-color="#A166FF" offset="100%"></stop>
        </linearGradient>
    </defs>
    <g id="Icon-Architecture/48/Arch_Amazon-QuickSight_48" stroke="none" stroke-width="1" fill="none" fill-rule="evenodd">
        <g id="Icon-Architecture-BG/48/Analytics" fill="url(#linearGradient-1)">
            <rect id="Rectangle" x="0" y="0" width="64" height="64"></rect>
        </g>
        <path d="M52,21 C52,19.897 51.103,19 50,19 C48.897,19 48,19.897 48,21 C48,22.103 48.897,23 50,23 C51.103,23 52,22.103 52,21 L52,21 Z M34,40 C34,38.897 33.103,38 32,38 C30.897,38 30,38.897 30,40 C30,41.103 30.897,42 32,42 C33.103,42 34,41.103 34,40 L34,40 Z M16,42 C16,40.897 15.103,40 14,40 C12.897,40 12,40.897 12,42 C12,43.103 12.897,44 14,44 C15.103,44 16,43.103 16,42 L16,42 Z M30,26 C30,27.103 30.897,28 32,28 C33.103,28 34,27.103 34,26 C34,24.897 33.103,24 32,24 C30.897,24 30,24.897 30,26 L30,26 Z M54,21 C54,23.206 52.206,25 50,25 C49.273,25 48.602,24.791 48.014,24.451 L35.416,37.949 C35.778,38.551 36,39.248 36,40 C36,42.206 34.206,44 32,44 C29.794,44 28,42.206 28,40 C28,38.142 29.279,36.589 31,36.142 L31,29.858 C30.61,29.757 30.244,29.602 29.91,29.395 L17.484,40.075 C17.803,40.649 18,41.299 18,42 C18,44.206 16.206,46 14,46 C11.794,46 10,44.206 10,42 C10,39.794 11.794,38 14,38 C14.777,38 15.498,38.232 16.113,38.618 L28.527,27.947 C28.201,27.368 28,26.71 28,26 C28,23.794 29.794,22 32,22 C34.206,22 36,23.794 36,26 C36,27.858 34.721,29.411 33,29.858 L33,36.142 C33.351,36.233 33.68,36.372 33.986,36.549 L46.584,23.051 C46.222,22.449 46,21.752 46,21 C46,18.794 47.794,17 50,17 C52.206,17 54,18.794 54,21 L54,21 Z M15,14 L49,14 L49,16 L51,16 L51,13 C51,12.448 50.553,12 50,12 L14,12 C13.447,12 13,12.448 13,13 L13,37 L15,37 L15,14 Z M49,26 L51,26 L51,51 C51,51.552 50.553,52 50,52 L14,52 C13.447,52 13,51.552 13,51 L13,47 L15,47 L15,50 L49,50 L49,26 Z" id="Amazon-QuickSight-Icon_48_Squid" fill="#FFFFFF"></path>
    </g>
</svg>