<?xml version="1.0" encoding="UTF-8"?>
<svg width="64px" height="64px" viewBox="0 0 64 64" version="1.1" xmlns="http://www.w3.org/2000/svg" xmlns:xlink="http://www.w3.org/1999/xlink">
    <!-- Generator: Sketch 64 (93537) - https://sketch.com -->
    <title>Icon-Architecture/48/Arch_Amazon-Kinesis-Firehose_48</title>
    <desc>Created with Sketch.</desc>
    <defs>
        <linearGradient x1="0%" y1="100%" x2="100%" y2="0%" id="linearGradient-1">
            <stop stop-color="#4D27A8" offset="0%"></stop>
            <stop stop-color="#A166FF" offset="100%"></stop>
        </linearGradient>
    </defs>
    <g id="Icon-Architecture/48/Arch_Amazon-Kinesis-Firehose_48" stroke="none" stroke-width="1" fill="none" fill-rule="evenodd">
        <g id="Icon-Architecture-BG/48/Analytics" fill="url(#linearGradient-1)">
            <rect id="Rectangle" x="0" y="0" width="64" height="64"></rect>
        </g>
        <g id="Icon-Service/48/Amazon-Kinesis-Data-Firehose" transform="translate(8.000000, 8.000000)" fill="#FFFFFF">
            <path d="M35.0641793,26 C38.3301793,26 42.0891793,26.755 45.3791793,28.072 L44.6371793,29.928 C41.5741793,28.703 38.0851793,28 35.0641793,28 L35.0641793,26 Z M44.4251793,26.812 C43.2451793,25.965 38.2581793,25 35.0641793,25 L35.0641793,23 C38.4271793,23 43.2831793,21.952 44.4521793,21.169 L45.5651793,22.831 C44.9371793,23.251 43.8231793,23.648 42.5051793,23.986 C43.8211793,24.32 44.9481793,24.726 45.5911793,25.188 L44.4251793,26.812 Z M45.3661793,19.934 C43.3491793,20.706 39.3301793,22 35.0641793,22 L35.0641793,20 C37.9451793,20 41.4391793,19.295 44.6511793,18.066 L45.3661793,19.934 Z M31.0081793,26.198 L24.0081793,27.753 L24.0081793,20.247 L31.0081793,21.802 L31.0081793,26.198 Z M22.0081793,30 L20.0081793,30 L20.0081793,18 L22.0081793,18 L22.0081793,19 L22.0081793,29 L22.0081793,30 Z M32.2251793,20.024 L24.0081793,18.198 L24.0081793,17 C24.0081793,16.448 23.5611793,16 23.0081793,16 L19.0081793,16 C18.4791793,16 18.0571793,16.415 18.0221793,16.935 C6.51817933,16.065 5.00817933,11.724 5.00817933,8 L5.00817933,4 L3.00817933,4 L3.00817933,8 C3.00817933,16.674 11.3081793,18.468 18.0081793,18.938 L18.0081793,19.935 C11.9191793,19.574 7.31917933,17.699 4.49517933,16.126 L3.52217933,17.874 C6.54917933,19.559 11.4871793,21.572 18.0081793,21.938 L18.0081793,22.955 C13.2391793,22.767 8.19017933,22.069 4.26317933,21.033 L3.75317933,22.967 C5.24517933,23.36 6.90017933,23.703 8.63017933,23.994 C6.92417933,24.286 5.27617933,24.631 3.75317933,25.033 L4.26317933,26.967 C8.33117933,25.894 13.2841793,25.206 18.0081793,25.036 L18.0081793,26.062 C11.5381793,26.426 6.58117933,28.438 3.52517933,30.125 L4.49217933,31.875 C7.34417933,30.301 11.9671793,28.425 18.0081793,28.065 L18.0081793,29.068 C4.99117933,30.09 3.00817933,36.94 3.00817933,41 L3.00617933,41.304 C2.99417933,43.729 3.00117933,43.989 3.01417933,44.107 L5.00517933,43.926 C4.99817933,43.778 4.99917933,42.899 5.00617933,41.315 L5.00817933,41 C5.00817933,33.775 11.8531793,31.583 18.0231793,31.072 C18.0621793,31.589 18.4811793,32 19.0081793,32 L23.0081793,32 C23.5611793,32 24.0081793,31.552 24.0081793,31 L24.0081793,29.802 L32.2251793,27.976 C32.6831793,27.875 33.0081793,27.469 33.0081793,27 L33.0081793,21 C33.0081793,20.531 32.6831793,20.125 32.2251793,20.024 L32.2251793,20.024 Z" id="Amazon-Kinesis-Data-Firehose_Icon_48_Squid"></path>
        </g>
    </g>
</svg>