<?xml version="1.0" encoding="UTF-8"?>
<svg width="64px" height="64px" viewBox="0 0 64 64" version="1.1" xmlns="http://www.w3.org/2000/svg" xmlns:xlink="http://www.w3.org/1999/xlink">
    <title>Icon-Architecture/48/Arch_AWS-Glue-DataBrew_48</title>
    <defs>
        <linearGradient x1="0%" y1="100%" x2="100%" y2="0%" id="linearGradient-1">
            <stop stop-color="#4D27A8" offset="0%"></stop>
            <stop stop-color="#A166FF" offset="100%"></stop>
        </linearGradient>
    </defs>
    <g id="Icon-Architecture/48/Arch_AWS-Glue-DataBrew_48" stroke="none" stroke-width="1" fill="none" fill-rule="evenodd">
        <g id="Rectangle" fill="url(#linearGradient-1)">
            <rect x="0" y="0" width="64" height="64"></rect>
        </g>
        <g id="Icon-Service/48/AWS-Glue-DataBrew_48" transform="translate(8.000000, 8.000000)" fill="#FFFFFF">
            <path d="M6,24 C6,24.551 5.552,25 5,25 C4.448,25 4,24.551 4,24 C4,23.449 4.448,23 5,23 C5.552,23 6,23.449 6,24 L6,24 Z M2,24 C2,25.654 3.346,27 5,27 C6.654,27 8,25.654 8,24 C8,22.346 6.654,21 5,21 C3.346,21 2,22.346 2,24 L2,24 Z M46,5.291 L46,42.709 C46,44.524 44.524,46 42.71,46 L5.29,46 C3.476,46 2,44.524 2,42.709 L2,29 L4,29 L4,42.709 C4,43.421 4.579,44 5.29,44 L42.71,44 C43.421,44 44,43.421 44,42.709 L44,5.291 C44,4.579 43.421,4 42.71,4 L5.29,4 C4.579,4 4,4.579 4,5.291 L4,19 L2,19 L2,5.291 C2,3.476 3.476,2 5.29,2 L42.71,2 C44.524,2 46,3.476 46,5.291 L46,5.291 Z M6,36 L9.524,36 C13.891,36 18.899,33.135 20.927,29.477 L22.677,30.447 C20.289,34.753 14.636,38 9.524,38 L6,38 L6,36 Z M36.545,9 L38.407,9 L37.114,7.707 L38.528,6.293 L41.742,9.506 C41.93,9.694 42.035,9.948 42.035,10.213 C42.035,10.479 41.93,10.733 41.742,10.92 L38.528,14.133 L37.114,12.719 L38.834,11 L36.545,11 C32.692,11 27.679,13.109 25.163,17.82 L23.399,16.877 C25.915,12.166 31.198,9 36.545,9 L36.545,9 Z M24.035,23.667 C24.124,30.467 29.733,36 36.538,36 L38.545,36 L37.114,34.57 L38.528,33.156 L41.742,36.369 C41.93,36.557 42.035,36.811 42.035,37.076 C42.035,37.341 41.93,37.596 41.742,37.783 L38.528,40.996 L37.114,39.582 L38.697,38 L36.538,38 C28.645,38 22.139,31.582 22.035,23.693 C21.942,16.575 16.447,11 9.524,11 L6,11 L6,9 L9.524,9 C17.555,9 23.929,15.442 24.035,23.667 L24.035,23.667 Z M12,18 C11.448,18 11,17.551 11,17 C11,16.449 11.448,16 12,16 C12.552,16 13,16.449 13,17 C13,17.551 12.552,18 12,18 L12,18 Z M12,14 C10.346,14 9,15.346 9,17 C9,18.654 10.346,20 12,20 C13.654,20 15,18.654 15,17 C15,15.346 13.654,14 12,14 L12,14 Z M14.305,26.356 L16.162,27.201 L15.317,29.059 L13.46,28.214 L14.305,26.356 Z M10.812,29.208 L16.31,31.708 L18.811,26.208 L13.311,23.708 L10.812,29.208 Z M37.999,18 L41.024,18 L41.003,27 L37.989,27 L37.999,18 Z M35.987,29 L42.997,29 L43.03,16 L36.001,16 L35.987,29 Z M28.999,20 L32.024,20 L32.003,27 L28.989,27 L28.999,20 Z M26.987,29 L33.997,29 L34.03,18 L27.001,18 L26.987,29 Z" id="Fill-5"></path>
        </g>
    </g>
</svg>