<?xml version="1.0" encoding="UTF-8"?>
<svg width="64px" height="64px" viewBox="0 0 64 64" version="1.1" xmlns="http://www.w3.org/2000/svg" xmlns:xlink="http://www.w3.org/1999/xlink">
    <!-- Generator: Sketch 64 (93537) - https://sketch.com -->
    <title>Icon-Architecture/48/Arch_AWS-Lake-Formation_48</title>
    <desc>Created with Sketch.</desc>
    <defs>
        <linearGradient x1="0%" y1="100%" x2="100%" y2="0%" id="linearGradient-1">
            <stop stop-color="#4D27A8" offset="0%"></stop>
            <stop stop-color="#A166FF" offset="100%"></stop>
        </linearGradient>
    </defs>
    <g id="Icon-Architecture/48/Arch_AWS-Lake-Formation_48" stroke="none" stroke-width="1" fill="none" fill-rule="evenodd">
        <g id="Icon-Architecture-BG/48/Analytics" fill="url(#linearGradient-1)">
            <rect id="Rectangle" x="0" y="0" width="64" height="64"></rect>
        </g>
        <path d="M43.6432141,36.517 C44.3219531,37.201 45.2545944,37.638 46.2502115,37.638 C48.1384852,37.638 49.5629373,36.074 49.5629373,34 L47.5637063,34 C47.5637063,34.814 47.1128797,35.638 46.2502115,35.638 C45.3835448,35.638 44.5648597,34.842 44.5648597,34 L42.5656286,34 C42.5656286,34.806 42.0438293,35.638 41.1721646,35.638 C40.3314879,35.638 39.566782,34.857 39.566782,34 L37.5675509,34 C37.5675509,34.888 36.8928105,35.638 36.0941176,35.638 C35.2674356,35.638 34.5687043,34.888 34.5687043,34 L32.5694733,34 C32.5694733,34.873 31.8427528,35.638 31.0150711,35.638 L31.0150711,37.638 C32.0036909,37.638 32.9143406,37.199 33.5650903,36.506 C34.210842,37.199 35.1144944,37.638 36.0941176,37.638 C37.0777393,37.638 37.9653979,37.208 38.5981546,36.518 C39.2579008,37.205 40.1755479,37.638 41.1721646,37.638 C42.1557862,37.638 43.0294502,37.211 43.6432141,36.517 L43.6432141,36.517 Z M43.2003845,25.323 L41.2011534,25.323 C41.2011534,26.172 40.5104191,26.863 39.6617455,26.863 C38.8120723,26.863 38.1223376,26.172 38.1223376,25.323 L36.1231065,25.323 C36.1231065,26.172 35.4323722,26.863 34.5836986,26.863 C33.7340254,26.863 33.043291,26.172 33.043291,25.323 L31.04406,25.323 C31.04406,26.172 30.3543253,26.863 29.5046521,26.863 L29.5046521,28.863 C30.5002691,28.863 31.4009227,28.45 32.0436755,27.787 C32.6874279,28.45 33.5880815,28.863 34.5836986,28.863 C35.578316,28.863 36.4789696,28.45 37.122722,27.787 C37.7654748,28.45 38.6661284,28.863 39.6617455,28.863 C40.6563629,28.863 41.5570165,28.45 42.2007689,27.787 C42.8435217,28.45 43.7451749,28.863 44.7397924,28.863 L44.7397924,26.863 C43.8901192,26.863 43.2003845,26.172 43.2003845,25.323 L43.2003845,25.323 Z M30.2523645,47.502 C31.2469819,47.502 32.1476355,47.093 32.7913879,46.437 C33.4341407,47.093 34.3347943,47.502 35.3304114,47.502 C36.3420223,47.502 37.2576701,47.079 37.9034218,46.402 C38.5821607,47.075 39.5327951,47.502 40.5663975,47.502 L40.5663975,45.502 C39.6627451,45.502 38.8690504,44.8 38.8690504,44 L36.8698193,44 C36.8698193,44.842 36.1930796,45.502 35.3304114,45.502 C34.4667436,45.502 33.7910035,44.842 33.7910035,44 L31.7917724,44 C31.7917724,44.842 31.1150327,45.502 30.2523645,45.502 C29.3886967,45.502 28.7119569,44.842 28.7119569,44 L26.7127259,44 C26.7127259,44.561 26.5647828,45.502 25.5721646,45.502 L25.5721646,47.502 C26.4878124,47.502 27.2665129,47.149 27.8202999,46.541 C28.4550557,47.137 29.3107266,47.502 30.2523645,47.502 L30.2523645,47.502 Z M17.5752403,14 L18.5748558,14 L18.5748558,13 L17.5752403,13 L17.5752403,14 Z M15.5760092,15 L15.5760092,12 C15.5760092,11.448 16.0228374,11 16.5756248,11 L19.5744714,11 C20.1272587,11 20.5740869,11.448 20.5740869,12 L20.5740869,15 C20.5740869,15.553 20.1272587,16 19.5744714,16 L16.5756248,16 C16.0228374,16 15.5760092,15.553 15.5760092,15 L15.5760092,15 Z M24.572549,17 L25.5721646,17 L25.5721646,16 L24.572549,16 L24.572549,17 Z M22.573318,18 L22.573318,15 C22.573318,14.448 23.0201461,14 23.5729335,14 L26.5717801,14 C27.1245675,14 27.5713956,14.448 27.5713956,15 L27.5713956,18 C27.5713956,18.553 27.1245675,19 26.5717801,19 L23.5729335,19 C23.0201461,19 22.573318,18.553 22.573318,18 L22.573318,18 Z M22.9981546,22.679 C22.2764321,22.679 19.8333718,22.652 17.6712034,22.353 L22.3933872,29.428 C22.5103422,29.596 22.573318,29.796 22.573318,30 L22.573318,31.257 C22.9281815,31.332 23.2400615,31.335 23.5729335,31.268 L23.5729335,30 C23.5729335,29.807 23.628912,29.618 23.7338716,29.455 L28.3470973,22.356 C26.7137255,22.583 24.7594771,22.679 22.9981546,22.679 L22.9981546,22.679 Z M13.8656671,20.529 C13.8546713,20.47 13.8436755,20.378 13.8436755,20.318 C13.8436755,19.718 13.8436755,18.125 22.0235294,17.966 L22.0625144,19.966 C20.0982699,20.004 18.6028451,20.151 17.5472511,20.319 C18.7987697,20.515 20.6360631,20.679 22.9981546,20.679 C25.3252595,20.679 27.1835448,20.52 28.4620531,20.319 C28.2311419,20.283 27.9742407,20.246 27.6883506,20.211 L27.9302576,18.226 C30.9291042,18.592 32.1526336,19.198 32.1526336,20.318 C32.1526336,20.568 32.0706651,21.048 31.5178777,21.442 C31.4279123,21.506 31.3229527,21.566 31.2079969,21.624 L25.5721646,30.297 L25.5721646,32 C25.5721646,32.409 25.3242599,32.776 24.9454056,32.928 C24.3046521,33.185 23.7138793,33.314 23.1111111,33.314 C22.5153403,33.314 21.9085736,33.189 21.2278354,32.939 C20.8359862,32.794 20.5740869,32.419 20.5740869,32 L20.5740869,30.315 L14.843291,21.638 C14.6013841,21.521 14.3924644,21.393 14.2485198,21.248 C14.1835448,21.184 14.1285659,21.111 14.0835832,21.031 L13.9756248,20.839 C13.9226451,20.743 13.8846597,20.638 13.8656671,20.529 L13.8656671,20.529 Z M22.573318,37 L22.573318,34 L20.5740869,34 L20.5740869,36 L18.5748558,36 C18.1800077,36 17.8221453,36.233 17.6622068,36.594 C17.5012687,36.954 17.5672434,37.376 17.8321415,37.669 L22.3304114,42.669 C22.5193387,42.88 22.7902345,43 23.0731257,43 C23.3560169,43 23.6269127,42.88 23.8158401,42.669 L28.31411,37.669 C28.5790081,37.376 28.6449827,36.954 28.4840446,36.594 C28.3241061,36.233 27.9652441,36 27.5713956,36 L25.5721646,36 L25.5721646,34 L23.5729335,34 L23.5729335,37 C23.5729335,37.553 24.0197616,38 24.572549,38 L25.3272587,38 L23.0731257,40.506 L20.8189927,38 L21.5737024,38 C22.1264898,38 22.573318,37.553 22.573318,37 L22.573318,37 Z M52,34.493 C52,45.249 43.2523645,54 32.5004998,54 C21.7476355,54 13,45.249 13,34.493 C13,31.521 13.6507497,28.667 14.9352557,26.01 L16.7355632,26.881 C15.5830065,29.265 14.9992311,31.825 14.9992311,34.493 C14.9992311,44.146 22.8492118,52 32.5004998,52 C42.1507882,52 50.0007689,44.146 50.0007689,34.493 C50.0007689,24.839 42.1507882,16.985 32.5004998,16.985 C31.4788927,16.985 30.4552864,17.074 29.4556709,17.248 L29.1098039,15.279 C30.2233756,15.083 31.3639369,14.985 32.5004998,14.985 C43.2523645,14.985 52,23.736 52,34.493 L52,34.493 Z" id="AWS-Lake-Formation_Icon_48_Squid" fill="#FFFFFF"></path>
    </g>
</svg>