<?xml version="1.0" encoding="UTF-8"?>
<svg width="64px" height="64px" viewBox="0 0 64 64" version="1.1" xmlns="http://www.w3.org/2000/svg" xmlns:xlink="http://www.w3.org/1999/xlink">
    <!-- Generator: Sketch 64 (93537) - https://sketch.com -->
    <title>Icon-Architecture/48/Arch_Amazon-CloudSearch_48</title>
    <desc>Created with Sketch.</desc>
    <defs>
        <linearGradient x1="0%" y1="100%" x2="100%" y2="0%" id="linearGradient-1">
            <stop stop-color="#4D27A8" offset="0%"></stop>
            <stop stop-color="#A166FF" offset="100%"></stop>
        </linearGradient>
    </defs>
    <g id="Icon-Architecture/48/Arch_Amazon-CloudSearch_48" stroke="none" stroke-width="1" fill="none" fill-rule="evenodd">
        <g id="Icon-Architecture-BG/48/Analytics" fill="url(#linearGradient-1)">
            <rect id="Rectangle" x="0" y="0" width="64" height="64"></rect>
        </g>
        <path d="M35.8217596,23.9985544 C36.3653928,23.7517592 36.9622839,23.621867 37.5762578,23.621867 L37.5762578,25.6202088 C37.0215711,25.6202088 36.4970304,25.8210421 36.0960884,26.1847403 C35.8509008,26.4065563 35.5102508,26.4934841 35.1896981,26.4195455 C34.8671357,26.3446077 34.6018508,26.1167967 34.4822716,25.8090521 C33.6472269,23.6738238 31.4797282,22.2390144 29.0871393,22.2390144 C27.4351375,22.2390144 25.8625203,22.9164523 24.7722393,24.0964731 C23.8367079,25.1046366 23.3232207,26.393567 23.3232207,27.726461 C23.3232207,28.1630987 23.0378384,28.556772 22.6188088,28.6876634 C21.2260628,29.1233019 20.18703,30.2363783 19.899638,31.5982483 C19.8976283,31.6102383 19.8956185,31.6212292 19.8936088,31.6322201 C19.8473849,31.8880078 19.824273,32.1268097 19.824273,32.362614 C19.824273,34.4988414 21.6511216,36.2363996 23.8969999,36.2363996 L35.2841556,36.2363996 L35.2841556,38.2347414 L23.8969999,38.2347414 C20.542753,38.2347414 17.8145385,35.5999277 17.8145385,32.362614 C17.8145385,32.0179 17.8456893,31.6741853 17.9100008,31.3144837 C17.9130154,31.292502 17.91603,31.2705202 17.9210544,31.2505368 C18.2928553,29.3820872 19.5800902,27.8183847 21.3476517,27.0340356 C21.5013964,25.4453539 22.1796818,23.9445992 23.2930747,22.7425966 C24.7621906,21.1529157 26.8754265,20.2406726 29.0871393,20.2406726 C31.8806703,20.2406726 34.4531304,21.7114522 35.8217596,23.9985544 M53.1245688,53.1383745 C52.0041418,54.2514509 50.0516848,54.2524501 48.9312578,53.1383745 L40.6260299,44.8842237 C42.1996521,43.6572419 43.5873737,42.2104424 44.7369419,40.5797955 L53.1295932,48.9728311 C54.2801662,50.1228768 54.2781564,51.9913263 53.1245688,53.1383745 M10.0097345,29.0843343 C10.0097345,19.1116095 18.1692566,10.9983418 28.1978318,10.9983418 C38.2274118,10.9983418 46.3869339,19.1116095 46.3869339,29.0843343 C46.3869339,39.057059 38.2274118,47.1703268 28.1978318,47.1703268 C18.1692566,47.1703268 10.0097345,39.057059 10.0097345,29.0843343 M54.5544949,47.5630009 L45.8362667,38.8452348 C47.461137,35.952635 48.3966684,32.6263951 48.3966684,29.0843343 C48.3966684,18.009524 39.3357804,9 28.1978318,9 C17.0598831,9 8,18.009524 8,29.0843343 C8,40.1591445 17.0598831,49.1686686 28.1978318,49.1686686 C32.154999,49.1686686 35.8388424,48.0156253 38.9569454,46.0522545 L47.5103755,54.5522014 C48.4499264,55.4864262 49.6999812,56 51.0284157,56 C52.3568503,56 53.6059002,55.485427 54.5454511,54.5512022 C56.4818303,52.626799 56.4848449,49.4923999 54.5544949,47.5630009 M28.1978318,42.4532409 C20.7839212,42.4532409 14.7527079,36.4562172 14.7527079,29.0843343 C14.7527079,21.7134505 20.7839212,15.7164268 28.1978318,15.7164268 C35.6107375,15.7164268 41.6419507,21.7134505 41.6419507,29.0843343 C41.6419507,36.4562172 35.6107375,42.4532409 28.1978318,42.4532409 M28.1978318,13.718085 C19.6765575,13.718085 12.7429734,20.611365 12.7429734,29.0843343 C12.7429734,37.5583027 19.6765575,44.4515827 28.1978318,44.4515827 C36.7191061,44.4515827 43.6516852,37.5583027 43.6516852,29.0843343 C43.6516852,20.611365 36.7191061,13.718085 28.1978318,13.718085" id="Amazon-CloudSearch_Icon_48_Squid" fill="#FFFFFF"></path>
    </g>
</svg>