<?xml version="1.0" encoding="UTF-8"?>
<svg width="64px" height="64px" viewBox="0 0 64 64" version="1.1" xmlns="http://www.w3.org/2000/svg" xmlns:xlink="http://www.w3.org/1999/xlink">
    <!-- Generator: Sketch 64 (93537) - https://sketch.com -->
    <title>Icon-Architecture/48/Arch_AWS-Glue_48</title>
    <desc>Created with Sketch.</desc>
    <defs>
        <linearGradient x1="0%" y1="100%" x2="100%" y2="0%" id="linearGradient-1">
            <stop stop-color="#4D27A8" offset="0%"></stop>
            <stop stop-color="#A166FF" offset="100%"></stop>
        </linearGradient>
    </defs>
    <g id="Icon-Architecture/48/Arch_AWS-Glue_48" stroke="none" stroke-width="1" fill="none" fill-rule="evenodd">
        <g id="Icon-Architecture-BG/48/Analytics" fill="url(#linearGradient-1)">
            <rect id="Rectangle" x="0" y="0" width="64" height="64"></rect>
        </g>
        <path d="M26.9908253,18.0427729 L27.9896785,18.0427729 L27.9896785,17.0374263 L26.9908253,17.0374263 L26.9908253,18.0427729 Z M24.993119,19.0481195 L24.993119,16.0320797 C24.993119,15.4771284 25.4396064,15.0267331 25.9919722,15.0267331 L28.9885317,15.0267331 C29.5408975,15.0267331 29.9873849,15.4771284 29.9873849,16.0320797 L29.9873849,19.0481195 C29.9873849,19.6030709 29.5408975,20.0534662 28.9885317,20.0534662 L25.9919722,20.0534662 C25.4396064,20.0534662 24.993119,19.6030709 24.993119,19.0481195 L24.993119,19.0481195 Z M32.9839444,13.0160398 L33.9827975,13.0160398 L33.9827975,12.0106932 L32.9839444,12.0106932 L32.9839444,13.0160398 Z M30.986238,14.0213865 L30.986238,11.0053466 C30.986238,10.4503953 31.4327254,10 31.9850912,10 L34.9816507,10 C35.5340165,10 35.9805039,10.4503953 35.9805039,11.0053466 L35.9805039,14.0213865 C35.9805039,14.5763378 35.5340165,15.0267331 34.9816507,15.0267331 L31.9850912,15.0267331 C31.4327254,15.0267331 30.986238,14.5763378 30.986238,14.0213865 L30.986238,14.0213865 Z M34.9816507,21.0588128 L35.9805039,21.0588128 L35.9805039,20.0534662 L34.9816507,20.0534662 L34.9816507,21.0588128 Z M33.9827975,18.0427729 L36.979357,18.0427729 C37.5317228,18.0427729 37.9782102,18.4931682 37.9782102,19.0481195 L37.9782102,22.0641594 C37.9782102,22.6191107 37.5317228,23.069506 36.979357,23.069506 L33.9827975,23.069506 C33.4304317,23.069506 32.9839444,22.6191107 32.9839444,22.0641594 L32.9839444,19.0481195 C32.9839444,18.4931682 33.4304317,18.0427729 33.9827975,18.0427729 L33.9827975,18.0427729 Z M23.6206948,26.4786364 C23.2820835,26.4243477 22.9774333,26.3680483 22.6807739,26.3107435 L30.8184307,38.5970845 C30.9273057,38.7619613 30.986238,38.9569986 30.986238,39.1550519 L30.986238,41.438194 C32.0330361,41.7237125 33.0099145,41.7277339 33.9827975,41.4532742 L33.9827975,39.1550519 C33.9827975,38.9559932 34.0417299,38.760956 34.1516037,38.5960791 L42.3152307,26.3097382 C42.0145759,26.3670429 41.7059302,26.4243477 41.3643224,26.4786364 C38.9191299,26.8667002 35.6838445,27.0888818 32.4845178,27.0888818 C29.2871888,27.0888818 26.0558988,26.8667002 23.6206948,26.4786364 L23.6206948,26.4786364 Z M19.5094151,25.1485628 C19.1678073,24.8439428 19,24.4960929 19,24.0818901 C19,22.7970571 21.1115756,21.2437966 31.1720247,21.1342138 L31.1930006,23.144907 C26.5613185,23.1951743 23.4299138,23.6576338 21.8936776,24.0728419 C23.6556546,24.5503816 27.4103437,25.0781885 32.4845178,25.0781885 C37.2979912,25.0781885 40.9278236,24.6046703 42.8016722,24.1492483 C41.9746217,23.9572271 40.7460323,23.7360508 39.0040324,23.521912 L39.2467537,21.526299 C45.4915837,22.2943838 46,23.1378696 46,24.0818901 C46,24.4950875 45.8311938,24.8429374 45.4905849,25.1465521 L35.9805039,39.4606772 L35.9805039,42.1710917 C35.9805039,42.5812731 35.7327883,42.9512407 35.3542229,43.1040534 C34.4262883,43.4790477 33.4933595,43.6670475 32.5414524,43.6670475 C31.5975362,43.6670475 30.6356406,43.483069 29.6417817,43.1141068 C29.2502312,42.9683316 28.9885317,42.5923319 28.9885317,42.1710917 L28.9885317,39.4596719 L19.5094151,25.1485628 Z M37.8963042,47.8050542 C38.054123,48.1740164 37.9792091,48.6012887 37.7065221,48.8938445 L33.2116829,53.6853265 C33.0219008,53.8863958 32.7592024,54 32.4845178,54 C32.2098332,54 31.9471348,53.8863958 31.7573527,53.6853265 L27.2625134,48.8938445 C26.9898265,48.6012887 26.9149125,48.1740164 27.0727313,47.8050542 C27.2305501,47.4360919 27.5911361,47.1978248 27.9896785,47.1978248 L29.9873849,47.1978248 L29.9873849,45.1871316 L31.9850912,45.1871316 L31.9850912,48.2031714 C31.9850912,48.7581227 31.5386038,49.208518 30.986238,49.208518 L30.306019,49.208518 L32.4845178,51.5308687 L34.6630165,49.208518 L33.9827975,49.208518 C33.4304317,49.208518 32.9839444,48.7581227 32.9839444,48.2031714 L32.9839444,45.1871316 L34.9816507,45.1871316 L34.9816507,47.1978248 L36.979357,47.1978248 C37.3778994,47.1978248 37.7384854,47.4360919 37.8963042,47.8050542 L37.8963042,47.8050542 Z" id="AWS-Glue_Icon_48_Squid" fill="#FFFFFF"></path>
    </g>
</svg>