<?xml version="1.0" encoding="UTF-8"?>
<svg width="64px" height="64px" viewBox="0 0 64 64" version="1.1" xmlns="http://www.w3.org/2000/svg" xmlns:xlink="http://www.w3.org/1999/xlink">
    <!-- Generator: Sketch 64 (93537) - https://sketch.com -->
    <title>Icon-Architecture/48/Arch_Amazon-Managed-Streaming-for-Kafka_48</title>
    <desc>Created with Sketch.</desc>
    <defs>
        <linearGradient x1="0%" y1="100%" x2="100%" y2="0%" id="linearGradient-1">
            <stop stop-color="#4D27A8" offset="0%"></stop>
            <stop stop-color="#A166FF" offset="100%"></stop>
        </linearGradient>
    </defs>
    <g id="Icon-Architecture/48/Arch_Amazon-Managed-Streaming-for-Kafka_48" stroke="none" stroke-width="1" fill="none" fill-rule="evenodd">
        <g id="Icon-Architecture-BG/48/Analytics" fill="url(#linearGradient-1)">
            <rect id="Rectangle" x="0" y="0" width="64" height="64"></rect>
        </g>
        <path d="M29.3729149,29.6081196 L29.3729149,22.4904755 L30.9364574,22.4904755 L30.9364574,25.6533173 L33.0465481,22.4904755 L34.7771189,22.4904755 L32.3319834,25.8183091 L34.9787388,29.6081196 L33.1246264,29.6081196 L30.9364574,26.1682916 L30.9364574,29.6081196 L29.3729149,29.6081196 Z M53,39.3776311 L52.4761836,39.8366082 C50.291968,41.7705115 46.5975798,41.7695115 44.4094109,39.8326084 L43.3657314,38.9186541 C41.9306721,37.6487176 39.3244383,37.6477176 37.8933324,38.9146543 L36.8427345,39.8356082 C34.6604956,41.7695115 30.9621541,41.7685116 28.7759618,39.8326084 L27.7322823,38.9186541 C26.2962347,37.6477176 23.6909893,37.6497175 22.2608717,38.9146543 L21.2082972,39.8366082 C20.118166,40.8015599 18.6485151,41.2855357 17.1798525,41.2855357 C15.7092132,41.2855357 14.2375856,40.8015599 13.1425128,39.8326084 L12.6226497,39.3776311 L13.9153891,37.8647068 L14.4401938,38.3236838 C15.8742648,39.5926204 18.4795102,39.5936203 19.9116045,38.3276836 L20.9631906,37.4057297 C23.1454296,35.4738263 26.8427828,35.4738263 29.028975,37.4097295 L30.0736429,38.3236838 C31.5096905,39.5946203 34.1149359,39.5926204 35.5450535,38.3276836 L36.5966397,37.4067297 C38.7788786,35.4728264 42.4752435,35.4738263 44.6634124,37.4097295 L45.7061036,38.3236838 C47.1411629,39.5926204 49.7464083,39.5936203 51.1785026,38.3276836 L51.7072606,37.8647068 L53,39.3776311 Z M51.0846109,48.579171 L52.3773503,50.0910954 L51.8535339,50.5500725 C50.7624144,51.5160242 49.2927635,52 47.8241009,52 C46.3534616,52 44.8808456,51.5150242 43.7877495,50.5460727 L42.7430817,49.6331183 C41.307034,48.3611819 38.7017886,48.3631818 37.271671,49.6291185 L36.2200849,50.5500725 C34.0388342,52.4819759 30.3404927,52.4829759 28.1543005,50.5460727 L27.110621,49.6321184 C25.6755617,48.3621819 23.0693279,48.3621819 21.638222,49.6291185 L20.5866358,50.5500725 C18.4043969,52.4829759 14.708032,52.4829759 12.5198631,50.5460727 L12,50.0910954 L13.2927394,48.579171 L13.8175441,49.0381481 C15.2516151,50.3070846 17.8578488,50.3080846 19.2899431,49.0421479 L20.3405409,48.1211939 C22.5227799,46.1882906 26.2201331,46.1872906 28.4073137,48.1241938 L29.4509932,49.0381481 C30.8850641,50.3070846 33.4903095,50.3080846 34.9224038,49.0421479 L35.9749783,48.120194 C38.1572172,46.1882906 41.8545704,46.1872906 44.0407627,48.1241938 L45.0844422,49.0381481 C46.5195015,50.3070846 49.1237586,50.3080846 50.5568412,49.0421479 L51.0846109,48.579171 Z M51.0846109,43.5654217 L52.3773503,45.0773461 L51.8535339,45.5363232 C50.7624144,46.5022749 49.2927635,46.9852507 47.8241009,46.9852507 C46.3534616,46.9852507 44.8808456,46.5012749 43.7877495,45.5323234 L42.7430817,44.619369 C41.307034,43.3484326 38.7017886,43.3494325 37.271671,44.6153692 L36.2200849,45.5363232 C34.0388342,47.4692265 30.3404927,47.4692265 28.1543005,45.5323234 L27.110621,44.6183691 C25.6755617,43.3484326 23.0693279,43.3464327 21.638222,44.6153692 L20.5866358,45.5363232 C18.4043969,47.4692265 14.708032,47.4692265 12.5198631,45.5323234 L12,45.0773461 L13.2927394,43.5654217 L13.8175441,44.0243988 C15.2516151,45.2943353 17.8578488,45.2943353 19.2899431,44.0273986 L20.3405409,43.1074446 C22.5237682,41.1725414 26.2221097,41.1745413 28.4073137,43.1104445 L29.4509932,44.0243988 C30.8850641,45.2933353 33.4903095,45.2943353 34.9224038,44.0273986 L35.9749783,43.1064447 C38.1572172,41.1735413 41.8545704,41.1725414 44.0407627,43.1104445 L45.0844422,44.0243988 C46.5195015,45.2943353 49.1237586,45.2943353 50.5568412,44.0273986 L51.0846109,43.5654217 Z M20.1458394,29.9991 C20.9631906,29.9991 21.6283386,30.6720664 21.6283386,31.499025 C21.6283386,32.3259837 20.9631906,32.9989501 20.1458394,32.9989501 C19.3284881,32.9989501 18.6633401,32.3259837 18.6633401,31.499025 C18.6633401,30.6720664 19.3284881,29.9991 20.1458394,29.9991 L20.1458394,29.9991 Z M32.0058336,13.9999 C32.8231848,13.9999 33.4883329,14.6728664 33.4883329,15.499825 C33.4883329,16.3267837 32.8231848,16.99975 32.0058336,16.99975 C31.1884823,16.99975 30.5233343,16.3267837 30.5233343,15.499825 C30.5233343,14.6728664 31.1884823,13.9999 32.0058336,13.9999 L32.0058336,13.9999 Z M45.3483271,31.499025 C45.3483271,32.3259837 44.6831791,32.9989501 43.8658278,32.9989501 C43.0484765,32.9989501 42.3833285,32.3259837 42.3833285,31.499025 C42.3833285,30.6720664 43.0484765,29.9991 43.8658278,29.9991 C44.6831791,29.9991 45.3483271,30.6720664 45.3483271,31.499025 L45.3483271,31.499025 Z M32.0058336,18.99965 C32.5434866,18.99965 33.0465481,18.8636568 33.5011812,18.6416679 L41.289244,29.1881406 C40.8504243,29.6871156 40.5549127,30.3080846 40.4570678,30.99905 L23.5545994,30.99905 C23.4567544,30.3080846 23.1612429,29.6871156 22.7224231,29.1881406 L30.510486,18.6416679 C30.9651191,18.8636568 31.4681805,18.99965 32.0058336,18.99965 L32.0058336,18.99965 Z M20.1458394,34.9988501 C21.5206104,34.9988501 22.7006798,34.1768912 23.2580995,32.9989501 L40.754556,32.9989501 C41.3109874,34.1768912 42.4910568,34.9988501 43.8658278,34.9988501 C45.7733102,34.9988501 47.3249928,33.4289286 47.3249928,31.499025 C47.3249928,29.5691215 45.7733102,27.9992 43.8658278,27.9992 C43.5564796,27.9992 43.2619564,28.0541973 42.9763282,28.1311934 L34.9649021,17.2837358 C35.276227,16.759762 35.4649986,16.1537923 35.4649986,15.499825 C35.4649986,13.5699215 33.913316,12 32.0058336,12 C30.0983512,12 28.5466686,13.5699215 28.5466686,15.499825 C28.5466686,16.1537923 28.7354402,16.759762 29.046765,17.2837358 L21.0353389,28.1311934 C20.7497107,28.0541973 20.4561759,27.9992 20.1458394,27.9992 C18.238357,27.9992 16.6866744,29.5691215 16.6866744,31.499025 C16.6866744,33.4289286 18.238357,34.9988501 20.1458394,34.9988501 L20.1458394,34.9988501 Z" id="Amazon-Managed-Streaming-for-Kafka-Icon_48_Squid" fill="#FFFFFF"></path>
    </g>
</svg>