<svg version="1.1" id="Artwork" xmlns="http://www.w3.org/2000/svg" xmlns:xlink="http://www.w3.org/1999/xlink" x="0px" y="0px"
	 width="24px" height="24px" viewBox="0 0 24 24" style="enable-background:new 0 0 24 24;" xml:space="preserve">
<style type="text/css">
	.st0{fill:#AECBFA;}
	.st1{fill:#4285F4;}
</style>
<path class="st0" d="M8.203,17.333c-1.139,0.008-2.058,0.931-2.062,2.07c0,0.083,0.008,0.165,0.015,0.248
	c0.139,1.133,1.171,1.938,2.304,1.799c0.941-0.116,1.683-0.858,1.799-1.799c0.007-0.083,0.015-0.165,0.015-0.248
	C10.269,18.261,9.345,17.337,8.203,17.333z M8.203,20.715c-0.727-0.002-1.315-0.593-1.312-1.32s0.593-1.315,1.32-1.312
	c0.727,0.002,1.315,0.593,1.312,1.32c0,0.725-0.588,1.313-1.312,1.313C8.208,20.715,8.206,20.715,8.203,20.715z"/>
<path class="st0" d="M17.843,4.35c-0.139-1.133-1.171-1.938-2.304-1.799c-0.941,0.116-1.683,0.858-1.799,1.799
	c-0.008,0.082-0.015,0.165-0.015,0.247c0,1.141,0.925,2.066,2.066,2.066s2.066-0.925,2.066-2.066
	C17.859,4.515,17.85,4.432,17.843,4.35z M15.797,5.918c-0.727,0.002-1.318-0.586-1.32-1.312c-0.002-0.727,0.586-1.318,1.312-1.32
	c0.727-0.002,1.318,0.586,1.32,1.312C17.108,5.323,16.523,5.912,15.797,5.918z"/>
<path class="st0" d="M12.75,10.078c-0.482-0.19-1.018-0.19-1.5,0c-1.061,0.413-1.587,1.609-1.173,2.67
	c0.21,0.538,0.635,0.964,1.173,1.173c0.482,0.19,1.018,0.19,1.5,0c1.061-0.413,1.587-1.609,1.173-2.67
	C13.714,10.713,13.288,10.288,12.75,10.078z M12,13.312c-0.725,0-1.312-0.588-1.312-1.312c0-0.725,0.588-1.312,1.312-1.312
	c0.725,0,1.312,0.588,1.312,1.312c0.002,0.723-0.583,1.311-1.306,1.312C12.004,13.313,12.002,13.313,12,13.312z"/>
<path class="st1" d="M11.25,13.922v1.688c-0.001,1.032-0.526,1.993-1.395,2.55c0.273,0.358,0.421,0.795,0.422,1.245
	c0,0.083-0.008,0.165-0.015,0.247c1.527-0.768,2.491-2.333,2.488-4.042v-1.688C12.268,14.112,11.732,14.112,11.25,13.922z"/>
<path class="st1" d="M6.484,7.851c0-1.141-0.924-2.066-2.065-2.066S2.353,6.709,2.353,7.85s0.924,2.066,2.065,2.066l0,0
	C5.559,9.915,6.482,8.991,6.484,7.851z"/>
<path class="st1" d="M5.168,15.609v-3.347c0-0.414-0.336-0.75-0.75-0.75s-0.75,0.336-0.75,0.75v3.347c0,1.71,0.963,3.273,2.49,4.042
	c-0.008-0.083-0.015-0.165-0.015-0.247c0.001-0.45,0.149-0.887,0.422-1.245C5.695,17.603,5.169,16.642,5.168,15.609z"/>
<path class="st1" d="M19.582,14.084c-1.141,0-2.066,0.924-2.066,2.065s0.924,2.066,2.065,2.066s2.066-0.924,2.066-2.065v-0.001
	C21.645,15.009,20.722,14.085,19.582,14.084z"/>
<path class="st1" d="M18.833,8.391v3.347c0,0.414,0.336,0.75,0.75,0.75s0.75-0.336,0.75-0.75V8.391
	c-0.001-1.709-0.964-3.272-2.49-4.041c0.007,0.082,0.015,0.165,0.015,0.247c-0.001,0.45-0.149,0.887-0.422,1.245
	C18.304,6.399,18.831,7.359,18.833,8.391z"/>
<path class="st1" d="M13.74,4.35c-1.528,0.767-2.491,2.331-2.49,4.041v1.688c0.482-0.19,1.018-0.19,1.5,0V8.391
	c0.001-1.032,0.526-1.993,1.395-2.55c-0.273-0.358-0.421-0.795-0.422-1.245C13.725,4.515,13.734,4.432,13.74,4.35z"/>
</svg>
