<?xml version="1.0" encoding="UTF-8"?>
<svg width="40px" height="40px" viewBox="0 0 40 40" version="1.1" xmlns="http://www.w3.org/2000/svg" xmlns:xlink="http://www.w3.org/1999/xlink">
    <!-- Generator: Sketch 64 (93537) - https://sketch.com -->
    <title>Icon-Architecture/32/Arch_AWS-Cost-and-Usage-Report_32</title>
    <desc>Created with Sketch.</desc>
    <defs>
        <linearGradient x1="0%" y1="100%" x2="100%" y2="0%" id="linearGradient-1">
            <stop stop-color="#1B660F" offset="0%"></stop>
            <stop stop-color="#6CAE3E" offset="100%"></stop>
        </linearGradient>
    </defs>
    <g id="Icon-Architecture/32/Arch_AWS-Cost-and-Usage-Report_32" stroke="none" stroke-width="1" fill="none" fill-rule="evenodd">
        <g id="Icon-Architecture-BG/32/AWS-Cost-Management" fill="url(#linearGradient-1)">
            <rect id="Rectangle" x="0" y="0" width="40" height="40"></rect>
        </g>
        <path d="M21.9875585,21.0722577 L25.9917057,21.0722577 L25.9917057,20.0729495 L21.9875585,20.0729495 L21.9875585,21.0722577 Z M28.9948161,21.0722577 L31.9979264,21.0722577 L31.9979264,20.0729495 L28.9948161,20.0729495 L28.9948161,21.0722577 Z M21.9875585,19.0266738 L26.9927425,19.0266738 L26.9927425,18.0273657 L21.9875585,18.0273657 L21.9875585,19.0266738 Z M8.50159093,32.0006918 C7.74380608,32.0006918 7.00103679,31.2592052 7.00103679,30.5037282 C7.00103679,29.7482512 7.74380608,29.0057652 8.50159093,29.0057652 C9.25737371,29.0057652 10.001144,29.7482512 10.001144,30.5037282 C10.001144,31.2592052 9.25737371,32.0006918 8.50159093,32.0006918 L8.50159093,32.0006918 Z M8.50159093,24.9845492 C7.74380608,24.9845492 7.00103679,24.2430625 7.00103679,23.4875855 C7.00103679,22.7321085 7.74380608,21.9896226 8.50159093,21.9896226 C9.25737371,21.9896226 10.001144,22.7321085 10.001144,23.4875855 C10.001144,24.2430625 9.25737371,24.9845492 8.50159093,24.9845492 L8.50159093,24.9845492 Z M8.50159093,17.9544162 C7.74380608,17.9544162 7.00103679,17.2129295 7.00103679,16.4574525 C7.00103679,15.7019756 7.74380608,14.9604889 8.50159093,14.9604889 C9.25737371,14.9604889 10.001144,15.7019756 10.001144,16.4574525 C10.001144,17.2129295 9.25737371,17.9544162 8.50159093,17.9544162 L8.50159093,17.9544162 Z M8.50159093,10.9942348 C7.77183511,10.9942348 7.00103679,10.2247675 7.00103679,9.49727112 C7.00103679,8.76977477 7.77183511,7.99930817 8.50159093,7.99930817 C9.22934468,7.99930817 10.001144,8.76977477 10.001144,9.49727112 C10.001144,10.2247675 9.22934468,10.9942348 8.50159093,10.9942348 L8.50159093,10.9942348 Z M25.9917057,23.9872396 L25.9917057,22.9879314 L15.9032569,22.9879314 L15.9032569,9.49727112 C15.9032569,9.22146206 15.6800257,8.99761703 15.4027386,8.99761703 L10.9391155,8.99761703 C10.6778449,7.91636559 9.61774695,7 8.50159093,7 C7.21525866,7 6,8.21415943 6,9.49727112 C6,10.7803828 7.21525866,11.9935429 8.50159093,11.9935429 C9.61774695,11.9935429 10.6778449,11.0781766 10.9391155,9.99692521 L14.9022202,9.99692521 L14.9022202,16.0547313 L10.9571342,16.0547313 C10.7449144,14.9165193 9.67380501,13.9611807 8.50159093,13.9611807 C7.19223481,13.9611807 6,15.1513568 6,16.4574525 C6,17.7645476 7.19223481,18.9537243 8.50159093,18.9537243 C9.60573451,18.9537243 10.6187837,18.1043124 10.9100854,17.0540395 L14.9022202,17.0540395 L14.9022202,22.9879314 L10.9421186,22.9879314 C10.6888563,21.8926897 9.63976976,20.9903144 8.50159093,20.9903144 C7.19223481,20.9903144 6,22.1804904 6,23.4875855 C6,24.7946806 7.19223481,25.9838573 8.50159093,25.9838573 C9.63976976,25.9838573 10.6888563,25.0824814 10.9421186,23.9872396 L14.9022202,23.9872396 L14.9022202,30.0040741 L10.9421186,30.0040741 C10.6888563,28.9088323 9.63976976,28.0064571 8.50159093,28.0064571 C7.19223481,28.0064571 6,29.1966331 6,30.5037282 C6,31.809824 7.19223481,33 8.50159093,33 C9.63976976,33 10.6888563,32.098624 10.9421186,31.0033823 L15.4027386,31.0033823 C15.6800257,31.0033823 15.9032569,30.7795372 15.9032569,30.5037282 L15.9032569,23.9872396 L25.9917057,23.9872396 Z M27.9937793,23.9872396 L31.9979264,23.9872396 L31.9979264,22.9879314 L27.9937793,22.9879314 L27.9937793,23.9872396 Z M28.9948161,19.0266738 L31.9979264,19.0266738 L31.9979264,18.0273657 L28.9948161,18.0273657 L28.9948161,19.0266738 Z M28.9787995,10.8663233 L29.8066569,11.8486432 L32.4243681,14.9514951 L28.9787995,14.9514951 L28.9787995,10.8663233 Z M33.9919917,15.4071796 C33.9899896,15.3891921 33.9869865,15.3742025 33.9839834,15.3572142 C33.9669658,15.2742717 33.9379357,15.194327 33.8828787,15.129372 L28.8606771,9.17549389 C28.801616,9.10454301 28.721533,9.06057345 28.6354439,9.03259282 C28.6104179,9.02359905 28.5883951,9.02060112 28.5633692,9.01660389 C28.5343391,9.01160735 28.5083122,8.99761703 28.4782811,8.99761703 L20.4439598,8.99761703 C20.1676737,8.99761703 19.9434414,9.22146206 19.9434414,9.49727112 L19.9434414,21.9676378 L20.9444782,21.9676378 L20.9444782,9.99692521 L27.9777627,9.99692521 L27.9777627,15.4511492 C27.9777627,15.7269583 28.2009939,15.9508033 28.4782811,15.9508033 L32.9989632,15.9508033 L32.9989632,30.0040741 L20.9444782,30.0040741 L20.9444782,24.9655623 L19.9434414,24.9655623 L19.9434414,30.5037282 C19.9434414,30.7795372 20.1676737,31.0033823 20.4439598,31.0033823 L33.4994816,31.0033823 C33.7767688,31.0033823 34,30.7795372 34,30.5037282 L34,15.4511492 C34,15.4361596 33.9939938,15.4221693 33.9919917,15.4071796 L33.9919917,15.4071796 Z" id="AWS-Cost-and-Usage-Report_Icon_32_Squid" fill="#FFFFFF"></path>
    </g>
</svg>