<?xml version="1.0" encoding="UTF-8"?>
<svg width="40px" height="40px" viewBox="0 0 40 40" version="1.1" xmlns="http://www.w3.org/2000/svg" xmlns:xlink="http://www.w3.org/1999/xlink">
    <!-- Generator: Sketch 64 (93537) - https://sketch.com -->
    <title>Icon-Architecture/32/Arch_AWS-Cost-Explorer_32</title>
    <desc>Created with Sketch.</desc>
    <defs>
        <linearGradient x1="0%" y1="100%" x2="100%" y2="0%" id="linearGradient-1">
            <stop stop-color="#1B660F" offset="0%"></stop>
            <stop stop-color="#6CAE3E" offset="100%"></stop>
        </linearGradient>
    </defs>
    <g id="Icon-Architecture/32/Arch_AWS-Cost-Explorer_32" stroke="none" stroke-width="1" fill="none" fill-rule="evenodd">
        <g id="Icon-Architecture-BG/32/AWS-Cost-Management" fill="url(#linearGradient-1)">
            <rect id="Rectangle" x="0" y="0" width="40" height="40"></rect>
        </g>
        <path d="M24.527,28 C23.148,28 22.027,26.878 22.027,25.5 C22.027,24.122 23.148,23 24.527,23 C25.906,23 27.027,24.122 27.027,25.5 C27.027,26.878 25.906,28 24.527,28 L24.527,28 Z M24.527,22 C22.597,22 21.027,23.57 21.027,25.5 C21.027,27.43 22.597,29 24.527,29 C26.457,29 28.027,27.43 28.027,25.5 C28.027,23.57 26.457,22 24.527,22 L24.527,22 Z M32.099,32.298 C31.907,32.514 31.573,32.53 31.359,32.337 L28.252,29.535 C28.508,29.298 28.742,29.038 28.949,28.756 L32.06,31.558 C32.274,31.752 32.292,32.084 32.099,32.298 L32.099,32.298 Z M20.027,25.5 C20.027,23.019 22.046,21 24.527,21 C27.008,21 29.027,23.019 29.027,25.5 C29.027,27.981 27.008,30 24.527,30 C22.046,30 20.027,27.981 20.027,25.5 L20.027,25.5 Z M32.73,30.815 L29.476,27.884 C29.826,27.162 30.027,26.355 30.027,25.5 C30.027,22.467 27.559,20 24.527,20 C21.495,20 19.027,22.467 19.027,25.5 C19.027,28.533 21.495,31 24.527,31 C25.599,31 26.598,30.687 27.445,30.153 L30.69,33.08 C30.98,33.342 31.345,33.471 31.709,33.471 C32.126,33.47 32.542,33.301 32.842,32.968 C33.403,32.344 33.353,31.378 32.73,30.815 L32.73,30.815 Z M8.998,21.938 C9.59,21.806 10.114,21.445 10.479,20.964 L13.096,22.921 C13.039,23.125 12.999,23.333 12.999,23.55 C12.999,24.709 13.886,25.745 14.995,25.992 L14.995,32.978 L8.998,32.978 L8.998,21.938 Z M7,19.494 C7,18.721 7.728,17.99 8.499,17.99 C9.269,17.99 9.998,18.721 9.998,19.494 C9.998,20.265 9.269,20.993 8.499,20.993 C7.728,20.993 7,20.265 7,19.494 L7,19.494 Z M15.498,22.05 C16.268,22.05 16.997,22.779 16.997,23.55 C16.997,24.32 16.268,25.049 15.498,25.049 C14.727,25.049 13.999,24.32 13.999,23.55 C13.999,22.779 14.727,22.05 15.498,22.05 L15.498,22.05 Z M22.502,12.74 C23.272,12.74 24.001,13.469 24.001,14.24 C24.001,15.01 23.272,15.739 22.502,15.739 C21.731,15.739 21.003,15.01 21.003,14.24 C21.003,13.469 21.731,12.74 22.502,12.74 L22.502,12.74 Z M30.506,9.827 C31.276,9.827 32.005,10.555 32.005,11.326 C32.005,12.097 31.276,12.826 30.506,12.826 C29.735,12.826 29.006,12.097 29.006,11.326 C29.006,10.555 29.735,9.827 30.506,9.827 L30.506,9.827 Z M15.995,25.994 C17.106,25.749 17.997,24.712 17.997,23.55 C17.997,23.128 17.87,22.729 17.668,22.372 L21.915,16.654 C21.941,16.661 21.965,16.674 21.993,16.68 L21.993,19 L22.993,19 L22.993,16.686 C24.107,16.443 25.001,15.404 25.001,14.24 C25.001,14.179 24.986,14.121 24.981,14.062 L28.193,12.226 C28.507,12.988 29.195,13.59 30.006,13.77 L30.006,20.997 L31.006,20.997 L31.006,13.77 C32.116,13.523 33.005,12.487 33.005,11.326 C33.005,10.165 32.116,9.129 31.006,8.883 L31.006,7 L30.006,7 L30.006,8.883 C28.946,9.118 28.099,10.074 28.023,11.171 L24.682,13.081 C24.328,12.442 23.711,11.95 22.993,11.793 L22.993,7 L21.993,7 L21.993,11.799 C20.886,12.049 20.003,13.082 20.003,14.24 C20.003,15.019 20.408,15.733 21.006,16.199 L16.999,21.595 C16.703,21.363 16.364,21.187 15.995,21.105 L15.995,7 L14.995,7 L14.995,21.107 C14.427,21.234 13.926,21.572 13.564,22.022 L10.923,20.048 C10.968,19.868 10.998,19.684 10.998,19.494 C10.998,18.33 10.108,17.292 8.998,17.046 L8.998,7 L7.998,7 L7.998,17.047 C6.888,17.294 6,18.331 6,19.494 C6,20.655 6.888,21.69 7.998,21.937 L7.998,33.978 L26.027,33.978 L26.027,32.978 L15.995,32.978 L15.995,25.994 Z" id="AWS-Cost-Explorer_Icon_32_Squid" fill="#FFFFFF"></path>
    </g>
</svg>